<svg xmlns="http://www.w3.org/2000/svg" width="24" height="24" viewBox="0 0 24 24">
  <g fill="none" fill-rule="evenodd" transform="translate(0 3)">
    <g fill="#7542E5" transform="translate(5 7)">
      <path d="M2 4C.896 4 0 3.104 0 2 0 .896.896 0 2 0 3.104 0 4 .896 4 2 4 3.104 3.104 4 2 4M7.09090909 4C5.98690909 4 5.09090909 3.104 5.09090909 2 5.09090909.896 5.98690909 0 7.09090909 0 8.19490909 0 9.09090909.896 9.09090909 2 9.09090909 3.104 8.19490909 4 7.09090909 4M12.1818182 4C11.0778182 4 10.1818182 3.104 10.1818182 2 10.1818182.896 11.0778182 0 12.1818182 0 13.2858182 0 14.1818182.896 14.1818182 2 14.1818182 3.104 13.2858182 4 12.1818182 4"/>
    </g>
    <rect width="21" height="15" x="1.5" y="1.5" stroke="#7542E5" stroke-width="3" rx="4"/>
  </g>
</svg>
