<svg xmlns="http://www.w3.org/2000/svg" xmlns:xlink="http://www.w3.org/1999/xlink" width="24" height="24" viewBox="0 0 24 24">
  <defs>
    <polygon id="email-addresses-a" points="0 0 24 0 24 24 0 24"/>
  </defs>
  <g fill="none" fill-rule="evenodd">
    <mask id="email-addresses-b" fill="#fff">
      <use xlink:href="#email-addresses-a"/>
    </mask>
    <path fill="#7542E5" d="M13.7074286,14.1737143 L13.7074286,8.01771429 C13.26,7.83771429 12.8914286,7.73485714 12.3394286,7.73485714 C10.764,7.73485714 9.81771429,9.00171429 9.81771429,12.312 C9.81771429,14.7428571 10.3954286,15.7251429 11.6331429,15.7251429 C12.8142857,15.7251429 13.4177143,14.8474286 13.7074286,14.1737143 M16.884,6.51942857 L16.884,12.9582857 C16.884,15.132 17.304,15.804 18.2485714,15.804 C19.6405714,15.804 20.5868571,14.4068571 20.5868571,10.2428571 C20.5868571,5.63828571 17.9348571,2.74114286 12.42,2.74114286 C6.72171429,2.74114286 3.44057143,6.59657143 3.44057143,12.0548571 C3.44057143,17.6142857 6.59142857,21.2348571 12.4457143,21.2348571 C14.2851429,21.2348571 16.2,20.82 17.5662857,20.3297143 L18.4851429,22.9148571 C16.8068571,23.5354286 14.6777143,24 12.42,24 C4.93542857,24 0,19.3457143 0,12.0788571 C0,5.09485714 5.172,0 12.42,0 C19.8514286,0 24,4.86342857 24,10.1914286 C24,14.7685714 21.8982857,18.1834286 18.3805714,18.1834286 C16.2788571,18.1834286 15.204,16.7605714 14.9417143,15.5451429 C14.3108571,16.9405714 13.1005714,18.0771429 11.16,18.0771429 C7.95771429,18.0771429 6.432,15.6462857 6.432,12.312 C6.432,7.99371429 8.68971429,5.38114286 12.4457143,5.38114286 C13.8891429,5.38114286 15.4388571,5.74285714 16.884,6.51942857" mask="url(#email-addresses-b)"/>
  </g>
</svg>
