<svg xmlns="http://www.w3.org/2000/svg" width="24" height="24" viewBox="0 0 24 24">
  <path fill="#7542E5" d="M15,0 L3,0 C1.34314575,-1.01453063e-16 0,1.34314575 0,3 L0,21 C0,22.6568542 1.34314575,24 3,24 L15,24 C16.6568542,24 18,22.6568542 18,21 L18,3 C18,1.34314575 16.6568542,1.01453063e-16 15,0 Z M10.5,22.5 L7.5,22.5 L7.5,21 L10.5,21 L10.5,22.5 Z M15,18.75 C15,19.1642136 14.6642136,19.5 14.25,19.5 L3.75,19.5 C3.33578644,19.5 3,19.1642136 3,18.75 L3,3.75 C3,3.33578644 3.33578644,3 3.75,3 L14.25,3 C14.6642136,3 15,3.33578644 15,3.75 L15,18.75 Z" transform="translate(3)"/>
</svg>
