<svg xmlns="http://www.w3.org/2000/svg" width="24" height="24" viewBox="0 0 24 24">
  <path fill-rule="evenodd" fill="#7542E5" d="M19.3151368,12.9060813 C19.3614123,12.9254287 19.3966496,12.9641236 19.4123578,13.0118473 C19.4284906,13.060001 19.4229715,13.112454 19.3970742,13.1563082 L19.0175302,13.8038026 C18.9920575,13.8467969 18.950452,13.8768929 18.9016292,13.8859218 C18.853231,13.8958104 18.8035591,13.8833421 18.7640763,13.8528161 L17.9519202,13.21822 L18.0809821,14.2702909 C18.0869258,14.3197344 18.0716421,14.3696078 18.0389521,14.4070129 C18.0062621,14.4444179 17.959562,14.4659151 17.9098901,14.4659151 L17.1703313,14.4659151 C17.121084,14.4659151 17.074384,14.4444179 17.0416939,14.4070129 C17.0085794,14.3696078 16.9932957,14.3197344 16.9996639,14.2702909 L17.1295749,13.2104811 L16.2847287,13.854106 C16.245246,13.8846319 16.194725,13.8962404 16.1459022,13.8854918 C16.0970795,13.8751732 16.0550494,13.8442173 16.0312749,13.8003631 L15.67126,13.1524387 C15.6470609,13.1094444 15.6428154,13.0574213 15.6585236,13.0101275 C15.6746564,12.9632637 15.7094691,12.9254287 15.7548955,12.9060813 L16.7207373,12.4976353 L15.7527728,12.0732814 C15.707771,12.053504 15.6729582,12.0148092 15.6576746,11.9670855 C15.6423909,11.9197917 15.6474855,11.8677686 15.6729582,11.8247743 L16.0423131,11.1871686 C16.0677858,11.1441743 16.1093913,11.1140782 16.1577895,11.1046195 C16.2066123,11.0947308 16.2558596,11.1067692 16.2953424,11.1368652 L17.1287258,11.7770506 L16.9996639,10.730139 C16.9932957,10.6806956 17.0085794,10.6308221 17.0412694,10.5934171 C17.074384,10.556012 17.121084,10.5340849 17.1703313,10.5340849 L17.9098901,10.5340849 C17.959562,10.5340849 18.0062621,10.556012 18.0389521,10.5934171 C18.0716421,10.6308221 18.0869258,10.6806956 18.0809821,10.730139 L17.9514956,11.7800602 L18.7861527,11.145894 C18.8256355,11.116228 18.8761564,11.1046195 18.9249792,11.1149381 C18.9733774,11.1252568 19.0154075,11.1566426 19.0396066,11.2000669 L19.3991969,11.8479912 C19.423396,11.8914155 19.428066,11.9434386 19.4123578,11.9903024 C19.3958005,12.0371662 19.3605632,12.0754311 19.3151368,12.0943486 L18.3497196,12.500215 L19.3151368,12.9060813 Z M13.7799084,12.9060813 C13.8261839,12.9254287 13.8618457,12.9641236 13.8775539,13.0118473 C13.8932621,13.060001 13.887743,13.112454 13.8618457,13.1563082 L13.4823017,13.8038026 C13.4572535,13.8467969 13.4152235,13.8768929 13.3664007,13.8859218 C13.3184271,13.8958104 13.2683307,13.8833421 13.2288479,13.8528161 L12.4171163,13.21822 L12.5457537,14.2702909 C12.5516973,14.3197344 12.5368382,14.3696078 12.5037236,14.4070129 C12.4714581,14.4444179 12.4243336,14.4659151 12.3746617,14.4659151 L11.6351029,14.4659151 C11.5858555,14.4659151 11.5391555,14.4444179 11.5060409,14.4070129 C11.4733509,14.3696078 11.4584918,14.3197344 11.4644354,14.2702909 L11.5939219,13.2104811 L10.7495003,13.854106 C10.7100175,13.8846319 10.6599211,13.8962404 10.6106738,13.8854918 C10.5622756,13.8751732 10.5202455,13.8442173 10.4960464,13.8003631 L10.1360316,13.1524387 C10.1118324,13.1094444 10.107587,13.0574213 10.1237197,13.0101275 C10.1394279,12.9632637 10.1742407,12.9254287 10.2196671,12.9060813 L11.1855088,12.4976353 L10.2175444,12.0732814 C10.1725425,12.053504 10.1377297,12.0148092 10.1224461,11.9670855 C10.107587,11.9197917 10.1126815,11.8677686 10.1377297,11.8247743 L10.5075092,11.1871686 C10.5325574,11.1441743 10.5741628,11.1140782 10.6221365,11.1046195 C10.6713838,11.0947308 10.7210557,11.1067692 10.7601139,11.1368652 L11.5939219,11.7770506 L11.4644354,10.730139 C11.4580673,10.6806956 11.4733509,10.6308221 11.5060409,10.5934171 C11.5391555,10.556012 11.5858555,10.5340849 11.6351029,10.5340849 L12.3746617,10.5340849 C12.4243336,10.5340849 12.4714581,10.556012 12.5041482,10.5934171 C12.5368382,10.6308221 12.5516973,10.6806956 12.5457537,10.730139 L12.4162672,11.7800602 L13.2509243,11.145894 C13.2908316,11.116228 13.3413525,11.1046195 13.3897508,11.1149381 C13.438149,11.1252568 13.480179,11.1566426 13.5039536,11.2000669 L13.8639684,11.8479912 C13.8885921,11.8914155 13.8932621,11.9434386 13.8767048,11.9903024 C13.8605721,12.0371662 13.8253348,12.0754311 13.7799084,12.0943486 L12.8140666,12.500215 L13.7799084,12.9060813 Z M8.24510446,12.9060813 C8.2909554,12.9254287 8.32661725,12.9641236 8.34232545,13.0118473 C8.35803365,13.060001 8.3529391,13.112454 8.3270418,13.1563082 L7.94749783,13.8038026 C7.92202508,13.8467969 7.8795705,13.8768929 7.83117228,13.8859218 C7.7831986,13.8958104 7.73352674,13.8833421 7.69404398,13.8528161 L6.88188781,13.21822 L7.01094974,14.2702909 C7.01646884,14.3197344 7.00160974,14.3696078 6.96891971,14.4070129 C6.93622968,14.4444179 6.88910509,14.4659151 6.83985778,14.4659151 L6.10029895,14.4659151 C6.05105164,14.4659151 6.00392705,14.4444179 5.97123702,14.4070129 C5.93854699,14.3696078 5.92326334,14.3197344 5.92963153,14.2702909 L6.05911801,13.2104811 L5.21469636,13.854106 C5.17478905,13.8846319 5.12511719,13.8962404 5.07544533,13.8854918 C5.02704711,13.8751732 4.98501707,13.8442173 4.96081796,13.8003631 L4.60122765,13.1524387 C4.57660399,13.1094444 4.57193398,13.0574213 4.58849127,13.0101275 C4.60419947,12.9632637 4.63943677,12.9254287 4.68443863,12.9060813 L5.64985583,12.4976353 L4.68274044,12.0732814 C4.63731404,12.053504 4.60292583,12.0148092 4.58764218,11.9670855 C4.57193398,11.9197917 4.57745308,11.8677686 4.60250128,11.8247743 L4.9722807,11.1871686 C4.99690435,11.1441743 5.03893439,11.1140782 5.08733261,11.1046195 C5.13615538,11.0947308 5.18582725,11.1067692 5.22531001,11.1368652 L6.05826891,11.7770506 L5.92963153,10.730139 C5.92326334,10.6806956 5.93854699,10.6308221 5.97081247,10.5934171 C6.00392705,10.556012 6.05105164,10.5340849 6.10029895,10.5340849 L6.83985778,10.5340849 C6.88910509,10.5340849 6.93622968,10.556012 6.96891971,10.5934171 C7.00160974,10.6308221 7.01689339,10.6806956 7.01094974,10.730139 L6.88103872,11.7800602 L7.71612036,11.145894 C7.75517857,11.116228 7.80612407,11.1046195 7.8545223,11.1149381 C7.90292052,11.1252568 7.94495056,11.1566426 7.96914967,11.2000669 L8.32916453,11.8479912 C8.35336364,11.8914155 8.3576091,11.9434386 8.3419009,11.9903024 C8.32576816,12.0371662 8.29053086,12.0754311 8.24510446,12.0943486 L7.27926271,12.500215 L8.24510446,12.9060813 Z M20.9432701,7 L3.05672994,7 C1.37552847,7 0,8.70257488 0,10.7834997 L0,14.2170257 C0,16.2979506 1.37552847,18 3.05672994,18 L20.9432701,18 C22.6248961,18 24,16.2979506 24,14.2170257 L24,10.7834997 C24,8.70257488 22.6248961,7 20.9432701,7 L20.9432701,7 Z"/>
</svg>
