<svg xmlns="http://www.w3.org/2000/svg" width="24" height="24" viewBox="0 0 24 24">
  <path fill="#7542E5" d="M17.5,10.2594286 L16.6666667,10.2594286 L16.6666667,6.85714286 C16.6666667,3.07004743 13.6818983,-6.34413157e-16 10,-8.8817842e-16 C6.31810167,-1.14194368e-15 3.33333333,3.07004743 3.33333333,6.85714286 L3.33333333,10.2594286 L2.5,10.2594286 C1.83695878,10.2594286 1.20107399,10.5303462 0.732233047,11.0125826 C0.263392101,11.494819 -1.38161088e-15,12.1488719 -8.8817842e-16,12.8308571 L-8.8817842e-16,21.4285714 C-8.8817842e-16,22.8487322 1.11928813,24 2.5,24 L17.5,24 C18.8807119,24 20,22.8487322 20,21.4285714 L20,12.8308571 C20,11.4106964 18.8807119,10.2594286 17.5,10.2594286 L17.5,10.2594286 Z M6.66666667,6.85714286 C6.66666667,4.96359514 8.15905083,3.42857143 10,3.42857143 C11.8409492,3.42857143 13.3333333,4.96359514 13.3333333,6.85714286 L13.3333333,10.2594286 L6.66666667,10.2594286 L6.66666667,6.85714286 Z" transform="translate(2)"/>
</svg>
