<svg xmlns="http://www.w3.org/2000/svg" width="24" height="24" viewBox="0 0 24 24">
  <g transform="translate(0 1)">
    <path fill="#7542E5" d="M12,0 C6.20101013,-3.55085719e-16 1.5,4.70101013 1.5,10.5 C1.5,11.0358984 1.78589838,11.5310889 2.25,11.7990381 C2.71410162,12.0669873 3.28589838,12.0669873 3.75,11.7990381 C4.21410162,11.5310889 4.5,11.0358984 4.5,10.5 C4.5,6.35786438 7.85786438,3 12,3 C16.1421356,3 19.5,6.35786438 19.5,10.5 C19.5312431,12.7565346 18.9395508,14.9779759 17.79,16.92 C17.0293384,18.1524517 16.5861156,19.5542727 16.5,21 C16.5,21.8284271 17.1715729,22.5 18,22.5 C18.8284271,22.5 19.5,21.8284271 19.5,21 C19.5950691,20.0421557 19.9191894,19.1212426 20.445,18.315 C21.8228075,15.9432277 22.5329189,13.2427311 22.5,10.5 C22.5,4.70101013 17.7989899,3.55085719e-16 12,0 Z"/>
    <path fill="#7542E5" d="M12,4.5 C8.6862915,4.5 6,7.1862915 6,10.5 C6,11.2956495 5.68392948,12.0587112 5.12132034,12.6213203 C4.55871121,13.1839295 3.79564947,13.5 3,13.5 C2.17157288,13.5 1.5,14.1715729 1.5,15 C1.5,15.8284271 2.17157288,16.5 3,16.5 C6.3137085,16.5 9,13.8137085 9,10.5 C9,8.84314575 10.3431458,7.5 12,7.5 C13.6568542,7.5 15,8.84314575 15,10.5 C15.0903466,13.1466661 14.1553318,15.7260173 12.39,17.7 C11.7396075,18.5230628 11.1624104,19.4014061 10.665,20.325 C10.2946135,21.0624803 10.5895305,21.9606366 11.325,22.335 C11.5339834,22.4420758 11.7651866,22.4985921 12,22.5 C12.5648373,22.498288 13.0808246,22.1794195 13.335,21.675 C13.7725189,20.9135612 14.2743469,20.1909289 14.835,19.515 C16.9786838,17.0106347 18.1077083,13.7947875 18,10.5 C18,7.1862915 15.3137085,4.5 12,4.5 Z"/>
    <path fill="#7542E5" d="M12,9 C11.1715729,9 10.5,9.67157288 10.5,10.5 C10.5,16.815 2.61,19.5 2.52,19.575 C2.14147106,19.7014727 1.82894914,19.9735799 1.65159388,20.3311056 C1.47423861,20.6886313 1.44667402,21.1020953 1.575,21.48 L1.575,21.48 C1.78135818,22.0909676 2.35512613,22.5016646 3,22.5 L3.48,22.5 C3.885,22.29 13.5,18.99 13.5,10.5 C13.5,9.67157288 12.8284271,9 12,9 Z"/>
  </g>
</svg>
