<svg xmlns="http://www.w3.org/2000/svg" width="400" height="200" fill="none" viewBox="0 0 400 200">
  <g clip-path="url(#a)">
    <path fill="#fff" d="M0 0h400v200H0z"/>
    <path fill="#D9BFFF" fill-rule="evenodd" d="M166.58-172.393c95.146-5.519 179.033 68.679 233.847 147.425 50.469 72.503 70.236 165.65 40.67 249.097-26.501 74.794-104.262 104.352-177.927 132.175-62.934 23.769-128.922 24.92-193.18 5.082-84.517-26.09-189.467-46.272-213.511-132.173C-168.017 141.695-87.192 72.058-31.681.451 24.832-72.45 75.065-167.085 166.58-172.393Z" clip-rule="evenodd" opacity=".5"/>
    <path fill="url(#b)" fill-rule="evenodd" d="M-204.98 430.399c-58.79-42.214-72.838-126.093-67.555-198.763 4.865-66.909 37.714-131.328 95.043-166.446 51.385-31.476 111.403-11.758 168.175 7.027 48.501 16.048 87.995 46.905 116.437 89.321 37.411 55.79 89.705 117.857 62.842 180.043-27.369 63.358-108.349 65.829-175.331 81.56-68.192 16.017-143.064 47.861-199.611 7.258Z" clip-rule="evenodd" opacity=".2"/>
    <path fill="url(#c)" fill-rule="evenodd" d="M270.414-10.323c-8.078-71.924 44.754-138.571 102.225-183.359 52.914-41.237 122.739-60.037 187.226-41.031 57.801 17.035 83.396 74.792 107.509 129.514 20.599 46.75 24.172 96.742 11.758 146.28-16.327 65.157-27.337 145.567-91.491 167.314-65.363 22.156-121.476-36.284-178.047-75.449-57.593-39.87-131.41-74.09-139.18-143.27Z" clip-rule="evenodd" opacity=".2"/>
    <g clip-path="url(#d)">
      <path fill="#9059FF" d="m261.302 55.419-15.94-9.107-36.391-20.782-1.132-.65a19.5 19.5 0 0 0-19.246 0l-1.132.656L136.29 54.77l-1.132.655a19.069 19.069 0 0 0-9.623 16.502v61.059a19.085 19.085 0 0 0 9.623 16.509l52.32 29.883c3.834 2.195 8.726.901 10.964-2.902a7.886 7.886 0 0 0 .802-6.037 7.906 7.906 0 0 0-3.739-4.814l-51.172-29.228a5.447 5.447 0 0 1-2.756-4.72v-58.44a5.446 5.446 0 0 1 2.756-4.72l9.057-5.177 42.058-24.074a5.564 5.564 0 0 1 5.49 0l51.189 29.24a5.459 5.459 0 0 1 2.745 4.714v58.48a5.446 5.446 0 0 1-2.757 4.72l-17.315 9.892-8.74-13.144a40.985 40.985 0 0 0 13.862-30.701c0-22.77-18.719-41.294-41.734-41.294-23.016 0-41.735 18.524-41.735 41.294 0 22.769 18.719 41.293 41.735 41.293a41.918 41.918 0 0 0 14.088-2.428l13.274 19.963c.208.305.432.597.674.875l.141.142c.281.301.585.579.912.83.079.062.153.129.237.191.36.259.738.489 1.133.689l.272.119c.352.157.715.292 1.086.401l.249.079c.422.106.852.176 1.285.209h.725c.243 0 .487-.029.724-.051h.334a8.033 8.033 0 0 0 1.347-.305c.12-.034.233-.085.351-.13.35-.127.69-.278 1.019-.452.074-.039.159-.062.233-.107l25.03-14.267a19.088 19.088 0 0 0 9.623-16.531V71.921a19.069 19.069 0 0 0-9.623-16.502ZM172.5 102.466c-.087-10.382 6.116-19.79 15.708-23.823a25.736 25.736 0 0 1 28.066 5.415 25.572 25.572 0 0 1 5.665 27.947c-3.963 9.6-13.342 15.867-23.751 15.867-14.12.04-25.61-11.324-25.688-25.406Z"/>
    </g>
  </g>
  <defs>
    <radialGradient id="b" cx="0" cy="0" r="1" gradientTransform="matrix(-286.865 -143.636 115.628 -299.254 -102.776 192.831)" gradientUnits="userSpaceOnUse">
      <stop stop-color="#B833E1"/>
      <stop offset=".371" stop-color="#9059FF"/>
      <stop offset=".614" stop-color="#5B6DF8"/>
      <stop offset="1" stop-color="#0090ED"/>
    </radialGradient>
    <radialGradient id="c" cx="0" cy="0" r="1" gradientTransform="matrix(-101.028 -267.096 256.246 -126.036 292.381 -183.417)" gradientUnits="userSpaceOnUse">
      <stop stop-color="#B833E1"/>
      <stop offset=".371" stop-color="#9059FF"/>
      <stop offset=".614" stop-color="#5B6DF8"/>
      <stop offset="1" stop-color="#0090ED"/>
    </radialGradient>
    <clipPath id="a">
      <path fill="#fff" d="M0 0h400v200H0z"/>
    </clipPath>
    <clipPath id="d">
      <path fill="#fff" d="M125.535 18.529h148.93v162.918h-148.93z"/>
    </clipPath>
  </defs>
</svg>
