<svg width="24" height="18" xmlns="http://www.w3.org/2000/svg" xmlns:xlink="http://www.w3.org/1999/xlink"><defs><path d="M19.2 3.918c-.019-.006-.032-.025-.05-.038-.897-.846-1.952-1.25-3.165-1.2l-.038-.088c.013-.007.02-.007.026-.007 1.099-.259 1.75-.518 1.945-.802.07-.227-.013-.354-.253-.385-.556.07-1.067.19-1.522.373.581-.373.802-.638.676-.771-.568.019-1.181.31-1.825.884.24-.41.328-.631.265-.67a5.09 5.09 0 0 0-.802.69 12.262 12.262 0 0 0-1.175 1.509l-.019.038c-.77 1.263-1.307 2.526-1.63 3.814l-.12.095-.025.025a6.082 6.082 0 0 0-1.68-1.471c-.783-.518-1.705-1.005-2.766-1.478a24.22 24.22 0 0 0-3.524-1.49c-.006 1.338.644 2.406 1.939 3.182v.026a4.042 4.042 0 0 0-1.326.195c.082 1.245.96 2.097 2.614 2.571l-.006.025c-.65-.038-1.187.19-1.604.663.543 1.074 1.51 1.592 2.905 1.548-.272.145-.493.303-.632.48-.259.265-.34.58-.259.947.304.543.84.796 1.636.758l.044.057-.025.025c-1.37 1.421-3.019 2.065-4.958 1.926l-.031.02C2.634 15.361 1.37 14.786 0 13.65c1.377 1.995 3.202 3.435 5.463 4.338 2.59.86 5.173.923 7.756.184h.044c2.508-.727 4.63-2.224 6.385-4.485.809-1.187 1.314-2.317 1.516-3.397 1.308.044 2.255-.335 2.836-1.144l-.013-.019c-.435.152-1.288.108-2.551-.151v-.145c0-.007 0-.007.006 0 1.383-.158 2.198-.607 2.463-1.352-.966.379-1.92.385-2.86.032-.171-1.314-1.784-2.508-2.845-3.594" id="a"/></defs><use fill="#D7D7DB" xlink:href="#a" transform="translate(0 -1)" fill-rule="evenodd"/></svg>
