<svg xmlns="http://www.w3.org/2000/svg" width="1366" height="1358" viewBox="0 0 1366 1358">
    <g fill="none" fill-rule="nonzero" opacity=".041">
        <ellipse cx="27.5" cy="741.5" fill="#AB71FF" rx="617.5" ry="616.5"/>
        <circle cx="1282.5" cy="279.5" r="535.5" fill="#AB71FF"/>
        <path fill="#592ACB" d="M-77.157 20.16l773.59 773.984A180.372 180.372 0 0 0 824.002 847a180.372 180.372 0 0 0 127.573-52.856l773.586-773.983c70.45-70.512 70.45-184.788 0-255.299-70.448-70.483-184.696-70.483-255.143 0L824.004 411.226 177.987-235.138c-70.448-70.483-184.696-70.483-255.144 0C-112.395-199.882-130-153.693-130-107.49c0 46.177 17.618 92.395 52.843 127.65z"/>
    </g>
</svg>
