<svg xmlns="http://www.w3.org/2000/svg" width="120" height="116" viewBox="0 0 120 116">
  <g fill="none" fill-rule="evenodd">
    <path fill="#BFBFC9" fill-rule="nonzero" d="M106.2075,25.56 L64.77,1.635 C61.8178998,-0.0676113699 58.1821002,-0.0676113699 55.23,1.635 L13.7925,25.56 C10.8311868,27.2589849 9.0035196,30.4109242 9,33.825 L9,81.675 C9.0057888,85.0806145 10.8266001,88.2248726 13.7775,89.925 L55.215,113.85 C58.1679245,115.549529 61.8020755,115.549529 64.755,113.85 L106.1925,89.925 C109.1434,88.2248726 110.964211,85.0806145 110.970003,81.675 L110.970003,33.825 C110.972662,30.4171191 109.157265,27.2666191 106.2075,25.56 Z" opacity=".15"/>
    <rect width="110.19" height="18.18" x="5.91" y="47.962" fill="#D9BFFF" fill-rule="nonzero" rx="7.23"/>
    <rect width="119.377" height="26.707" x=".307" y="44.392" fill="#E0E0E6" fill-rule="nonzero" rx="12.25"/>
    <path fill="#F9F9FB" fill-rule="nonzero" d="M23.8275 58.44C23.9666495 58.4967745 24.0736743 58.612032 24.12 58.755 24.1657385 58.8974924 24.1494057 59.0526543 24.075 59.1825L22.935 61.1025C22.8583076 61.2316199 22.729991 61.3217145 22.5825 61.35 22.437386 61.3778839 22.2872735 61.3424028 22.17 61.2525L19.7325 59.3625 20.1225 62.49C20.1370838 62.6367462 20.091018 62.7830729 19.995 62.895 19.8964328 63.0066998 19.7539544 63.0697191 19.605 63.0675567L17.355 63.0675567C17.2060456 63.0697191 17.0635672 63.0066998 16.965 62.895 16.868982 62.7830729 16.8229162 62.6367462 16.8375 62.49L17.2275 59.34 14.6925 61.2525C14.5734872 61.3448437 14.4189013 61.3779692 14.2725 61.3425 14.1281599 61.3113991 14.0032128 61.2217632 13.9275 61.095L12.8475 59.1675C12.7841004 59.0346777 12.7841004 58.8803223 12.8475 58.7475 12.8956735 58.6098685 12.9989184 58.4984727 13.1325 58.44L16.035 57.225 13.1325 55.965C12.9908991 55.9085947 12.881949 55.7918118 12.8354946 55.6466417 12.7890402 55.5014717 12.8099514 55.3431331 12.8925 55.215L14.0025 53.325C14.0782128 53.1982368 14.2031599 53.1086009 14.3475 53.0775 14.492614 53.0496161 14.6427265 53.0850972 14.76 53.175L17.265 55.0725 16.875 51.9675C16.8604162 51.8207538 16.906482 51.6744271 17.0025 51.5625 17.1010672 51.4508002 17.2435456 51.3877809 17.3925 51.3899433L19.6425 51.3899433C19.7914544 51.3877809 19.9339328 51.4508002 20.0325 51.5625 20.128518 51.6744271 20.1745838 51.8207538 20.16 51.9675L19.77 55.08 22.275 53.205C22.3945797 53.113858 22.5474975 53.0783592 22.695 53.1075 22.8402792 53.1412113 22.9651476 53.2335053 23.04 53.3625L24.12 55.2825C24.1990593 55.4132356 24.2163092 55.5722244 24.1671284 55.7168737 24.1179476 55.8615229 24.007363 55.977048 23.865 56.0325L20.9625 57.2325 23.8275 58.44zM40.305 58.44C40.4460567 58.4969937 40.5548889 58.6131687 40.6025648 58.7576411 40.6502407 58.9021135 40.6319298 59.0602457 40.5525 59.19L39.4125 61.11C39.3344106 61.2378174 39.2067403 61.3274582 39.06 61.3575 38.914886 61.3853839 38.7647735 61.3499028 38.6475 61.26L36.21 59.37 36.5925 62.4975C36.6141101 62.6448896 36.5671457 62.7940706 36.465 62.9025 36.3693824 63.013868 36.2292696 63.0770561 36.0825 63.0750487L33.8325 63.0750487C33.6861559 63.0750487 33.5468453 63.0122158 33.45 62.9025 33.353982 62.7905729 33.3079162 62.6442462 33.3225 62.4975L33.7125 59.3475 31.1775 61.26C31.0584872 61.3523437 30.9039013 61.3854692 30.7575 61.35 30.6119919 61.3215685 30.4860585 61.2312249 30.4125 61.1025L29.3325 59.175C29.2691004 59.0421777 29.2691004 58.8878223 29.3325 58.755 29.3806735 58.6173685 29.4839184 58.5059727 29.6175 58.4475L32.52 57.2325 29.61 55.9725C29.4747346 55.9164207 29.3706593 55.8041289 29.325 55.665 29.2792615 55.5225076 29.2955943 55.3673457 29.37 55.2375L30.48 53.3475C30.5566924 53.2183801 30.685009 53.1282855 30.8325 53.1 30.977614 53.0721161 31.1277265 53.1075972 31.245 53.1975L33.75 55.095 33.36 51.99C33.3429517 51.8439881 33.3888059 51.6976159 33.4861141 51.5874287 33.5834223 51.4772415 33.7230006 51.4136386 33.87 51.4124992L36.12 51.4124992C36.2685501 51.4122346 36.4102593 51.4749137 36.51 51.585 36.6075537 51.6958164 36.6514382 51.8439267 36.63 51.99L36.24 55.1025 38.7525 53.2275C38.8697735 53.1375972 39.019886 53.1021161 39.165 53.13 39.3123291 53.1591713 39.4388864 53.2527137 39.51 53.385L40.5975 55.305C40.6765593 55.4357356 40.6938092 55.5947244 40.6446284 55.7393737 40.5954476 55.8840229 40.484863 55.999548 40.3425 56.055L37.44 57.255 40.305 58.44z"/>
    <path fill="#FF298A" fill-rule="nonzero" d="M56.7825 58.44C56.9188662 58.5007333 57.0245205 58.6145148 57.075 58.755 57.1225539 58.8981567 57.1032797 59.0551036 57.0225 59.1825L55.8825 61.1025C55.8067872 61.2292632 55.6818401 61.3188991 55.5375 61.35 55.392386 61.3778839 55.2422735 61.3424028 55.125 61.2525L52.68 59.3625 53.07 62.49C53.0845838 62.6367462 53.038518 62.7830729 52.9425 62.895 52.8456547 63.0047158 52.7063441 63.0675008 52.56 63.0675008L50.31 63.0675008C50.1614499 63.0677654 50.0197407 63.0050863 49.92 62.895 49.8224463 62.7841836 49.7785618 62.6360733 49.8 62.49L50.19 59.34 47.6475 61.2525C47.5312841 61.3446079 47.3790203 61.3778291 47.235 61.3425 47.0886595 61.3160148 46.9619816 61.2251371 46.89 61.095L45.8025 59.1675C45.7466662 59.0330668 45.7466662 58.8819332 45.8025 58.7475 45.8561094 58.6107399 45.9610896 58.5003762 46.095 58.44L48.9975 57.225 46.0875 55.965C45.9522346 55.9089207 45.8481593 55.7966289 45.8025 55.6575 45.7567615 55.5150076 45.7730943 55.3598457 45.8475 55.23L46.9575 53.34C47.0332128 53.2132368 47.1581599 53.1236009 47.3025 53.0925 47.4476502 53.0625808 47.5986054 53.0982611 47.715 53.19L50.22 55.0875 49.8375 51.9825C49.8160618 51.8364267 49.8599463 51.6883164 49.9575 51.5775 50.0572407 51.4674137 50.1989499 51.4047346 50.3475 51.4049992L52.5975 51.4049992C52.7438441 51.4049992 52.8831547 51.4677842 52.98 51.5775 53.076018 51.6894271 53.1220838 51.8357538 53.1075 51.9825L52.7175 55.095 55.23 53.22C55.3468432 53.1291944 55.4973665 53.0936161 55.6425 53.1225 55.7885666 53.1544905 55.9140616 53.2472477 55.9875 53.3775L57.0675 55.2975C57.1432795 55.4272287 57.1570366 55.5840594 57.105 55.725 57.0568265 55.8626315 56.9535816 55.9740273 56.82 56.0325L53.9175 57.2325 56.7825 58.44zM73.2525 58.44C73.3935567 58.4969937 73.5023889 58.6131687 73.5500648 58.7576411 73.5977407 58.9021135 73.5794298 59.0602457 73.5 59.19L72.36 61.11C72.2849397 61.2347006 72.1608362 61.3220275 72.0181144 61.3505719 71.8753925 61.3791162 71.7272483 61.3462389 71.61 61.26L69.1725 59.37 69.5625 62.4975C69.5770838 62.6442462 69.531018 62.7905729 69.435 62.9025 69.3364328 63.0141998 69.1939544 63.0772191 69.045 63.0750567L66.795 63.0750567C66.6460456 63.0772191 66.5035672 63.0141998 66.405 62.9025 66.308982 62.7905729 66.2629162 62.6442462 66.2775 62.4975L66.6675 59.3475 64.1325 61.26C64.0134872 61.3523437 63.8589013 61.3854692 63.7125 61.35 63.5681599 61.3188991 63.4432128 61.2292632 63.3675 61.1025L62.2875 59.175C62.2056412 59.0448857 62.1868383 58.8847897 62.236322 58.7392495 62.2858056 58.5937092 62.3982963 58.4782531 62.5425 58.425L65.445 57.21 62.535 55.95C62.3997346 55.8939207 62.2956593 55.7816289 62.25 55.6425 62.2042615 55.5000076 62.2205943 55.3448457 62.295 55.215L63.405 53.325C63.4807128 53.1982368 63.6056599 53.1086009 63.75 53.0775 63.895114 53.0496161 64.0452265 53.0850972 64.1625 53.175L66.6675 55.0725 66.2775 51.9675C66.2629162 51.8207538 66.308982 51.6744271 66.405 51.5625 66.5035672 51.4508002 66.6460456 51.3877809 66.795 51.3899433L69.045 51.3899433C69.1939544 51.3877809 69.3364328 51.4508002 69.435 51.5625 69.531018 51.6744271 69.5770838 51.8207538 69.5625 51.9675L69.1725 55.08 71.6775 53.205C71.7970797 53.113858 71.9499975 53.0783592 72.0975 53.1075 72.2427792 53.1412113 72.3676476 53.2335053 72.4425 53.3625L73.5225 55.2825C73.5944088 55.4134324 73.6080154 55.568548 73.56 55.71 73.511803 55.8501263 73.4050429 55.9623613 73.2675 56.0175L70.365 57.2175 73.2525 58.44z"/>
    <path fill="#F9F9FB" fill-rule="nonzero" d="M89.73 58.44C89.8691495 58.4967745 89.9761743 58.612032 90.0225 58.755 90.0682385 58.8974924 90.0519057 59.0526543 89.9775 59.1825L88.8375 61.1025C88.7608076 61.2316199 88.632491 61.3217145 88.485 61.35 88.339886 61.3778839 88.1897735 61.3424028 88.0725 61.2525L85.635 59.3625 86.0175 62.49C86.0389382 62.6360733 85.9950537 62.7841836 85.8975 62.895 85.7989328 63.0066998 85.6564544 63.0697191 85.5075 63.0675567L83.2575 63.0675567C83.1085456 63.0697191 82.9660672 63.0066998 82.8675 62.895 82.771482 62.7830729 82.7254162 62.6367462 82.74 62.49L83.13 59.34 80.595 61.2525C80.4759872 61.3448437 80.3214013 61.3779692 80.175 61.3425 80.0306599 61.3113991 79.9057128 61.2217632 79.83 61.095L78.75 59.1675C78.6866004 59.0346777 78.6866004 58.8803223 78.75 58.7475 78.7981735 58.6098685 78.9014184 58.4984727 79.035 58.44L81.9375 57.225 79.035 55.965C78.8980214 55.9090319 78.7915535 55.7971041 78.7425 55.6575 78.6949461 55.5143433 78.7142203 55.3573964 78.795 55.23L79.905 53.34C79.9784137 53.2134167 80.1026638 53.1244661 80.2461536 53.0957681 80.3896435 53.0670701 80.5385476 53.1013899 80.655 53.19L83.16 55.0875 82.77 51.9825C82.7554162 51.8357538 82.801482 51.6894271 82.8975 51.5775 82.9960672 51.4658002 83.1385456 51.4027809 83.2875 51.4049433L85.5375 51.4049433C85.6864544 51.4027809 85.8289328 51.4658002 85.9275 51.5775 86.0250537 51.6883164 86.0689382 51.8364267 86.0475 51.9825L85.665 55.095 88.17 53.22C88.2895797 53.128858 88.4424975 53.0933592 88.59 53.1225 88.7352792 53.1562113 88.8601476 53.2485053 88.935 53.3775L90.015 55.2975C90.0940593 55.4282356 90.1113092 55.5872244 90.0621284 55.7318737 90.0129476 55.8765229 89.902363 55.992048 89.76 56.0475L86.8575 57.2475 89.73 58.44zM106.2075 58.44C106.343866 58.5007333 106.44952 58.6145148 106.5 58.755 106.545738 58.8974924 106.529406 59.0526543 106.455 59.1825L105.3075 61.1025C105.231787 61.2292632 105.10684 61.3188991 104.9625 61.35 104.817386 61.3778839 104.667274 61.3424028 104.55 61.2525L102.1125 59.3625 102.495 62.49C102.51661 62.6373896 102.469646 62.7865706 102.3675 62.895 102.270655 63.0047158 102.131344 63.0675 101.985 63.0675L99.735 63.0675C99.5880006 63.0663614 99.4484223 63.0027585 99.3511141 62.8925713 99.2538059 62.7823841 99.2079517 62.6360119 99.225 62.49L99.615 59.34 97.0725 61.2525C96.9567945 61.3456796 96.8040027 61.379016 96.66 61.3425 96.5144919 61.3140685 96.3885585 61.2237249 96.315 61.095L95.25 59.1675C95.1759453 59.0402729 95.1595798 58.887528 95.205 58.7475 95.2586094 58.6107399 95.3635896 58.5003762 95.4975 58.44L98.4 57.225 95.49 55.965C95.3547346 55.9089207 95.2506593 55.7966289 95.205 55.6575 95.1592615 55.5150076 95.1755943 55.3598457 95.25 55.23L96.36 53.34C96.4366924 53.2108801 96.565009 53.1207855 96.7125 53.0925 96.857614 53.0646161 97.0077265 53.1000972 97.125 53.19L99.63 55.0875 99.24 51.9825C99.2229517 51.8364881 99.2688059 51.6901159 99.3661141 51.5799287 99.4634223 51.4697415 99.6030006 51.4061386 99.75 51.405L102 51.405C102.146344 51.405 102.285655 51.4677842 102.3825 51.5775 102.484646 51.6859294 102.53161 51.8351104 102.51 51.9825L102.12 55.095 104.6325 53.22C104.749774 53.1300972 104.899886 53.0946161 105.045 53.1225 105.192329 53.1516713 105.318886 53.2452137 105.39 53.3775L106.47 55.2975C106.544406 55.4273457 106.560738 55.5825076 106.515 55.725 106.461391 55.8617601 106.35641 55.9721238 106.2225 56.0325L103.32 57.2325 106.2075 58.44z"/>
    <g transform="translate(24 22)">
      <path fill="#F565FF" d="M35.5673077,71.1346154 C15.9240261,71.1346154 4.91914202e-15,55.2105893 4.91914202e-15,35.5673077 C4.91914202e-15,15.9240261 15.9240261,-4.91914202e-15 35.5673077,-4.91914202e-15 C55.2105893,-4.91914202e-15 71.1346154,15.9240261 71.1346154,35.5673077 C71.1174384,55.20347 55.20347,71.1174384 35.5673077,71.1346154 Z"/>
      <path fill="#952BB9" d="M35.5673077,65.9319231 C18.7973937,65.9319231 5.20269231,52.3372217 5.20269231,35.5673077 C5.20269231,18.7973937 18.7973937,5.20269231 35.5673077,5.20269231 C52.3372217,5.20269231 65.9319231,18.7973937 65.9319231,35.5673077 C65.9090419,52.3277349 52.3277349,65.9090419 35.5673077,65.9319231 L35.5673077,65.9319231 Z"/>
    </g>
    <g fill="#FFF" fill-rule="nonzero" transform="translate(40 40)">
      <path d="M24.5 30.39C24.0013566 30.3956372 23.5747694 30.0330381 23.5 29.54 23.19 27.54 21.97 22.07 20.14 20.24 18.31 18.41 12.8 17.19 10.83 16.87 10.2777153 16.87 9.83 16.4222847 9.83 15.87 9.83 15.3177153 10.2777153 14.87 10.83 14.87 12.83 14.53 18.31 13.24 20.15 11.4 21.99 9.56 23.2 4.14 23.51 2.2 23.5892284 1.7109422 24.0146072 1.35362398 24.51 1.35986522 24.9990037 1.35202375 25.4220327 1.69890747 25.51 2.18 25.86 4.12 27.15 9.57 28.98 11.4 30.81 13.23 36.26 14.53 38.2 14.87 38.7522847 14.87 39.2 15.3177153 39.2 15.87 39.2 16.4222847 38.7522847 16.87 38.2 16.87 36.26 17.19 30.83 18.41 28.99 20.24 27.15 22.07 25.87 27.59 25.53 29.56 25.4448312 30.0566647 25.0034176 30.412367 24.5 30.39L24.5 30.39zM15.42 15.85C17.66 16.49 20.2 17.46 21.56 18.85 22.92 20.24 23.89 22.75 24.56 24.99 25.23 22.75 26.23 20.2 27.56 18.85 28.89 17.5 31.45 16.53 33.67 15.85 31.45 15.18 28.91 14.18 27.56 12.85 26.21 11.52 25.21 8.96 24.56 6.74 23.91 8.96 22.94 11.5 21.56 12.85 20.18 14.2 17.67 15.19 15.42 15.85zM8.33 35.000084C7.83460721 35.006376 7.40922838 34.6490578 7.33 34.16 7.12 32.85 6.53 30.72 5.9 30.08 5.27 29.44 3.13 28.86 1.82 28.65 1.3309422 28.5707716.973623982 28.1453928.979892867 27.65.972844076 27.1578203 1.32492416 26.7336274 1.81 26.65 3.12 26.42 5.26 25.81 5.9 25.17 6.54 24.53 7.12 22.43 7.33 21.17 7.40922838 20.6809422 7.83460721 20.323624 8.33 20.3298929 8.82217974 20.3228441 9.24637262 20.6749242 9.33 21.16 9.56 22.45 10.17 24.56 10.81 25.16 11.45 25.76 13.56 26.41 14.81 26.64 15.2950758 26.7236274 15.6471559 27.1478203 15.6401071 27.64 15.646376 28.1353928 15.2890578 28.5607716 14.8 28.64 13.51 28.85 11.41 29.44 10.8 30.07 10.19 30.7 9.55 32.85 9.32 34.16 9.24134312 34.6452851 8.82161625 35.001417 8.33 35.000084zM5.68 27.65C6.2880858 27.8764119 6.84790813 28.2156981 7.33 28.65 7.76430187 29.1320919 8.10358813 29.6919142 8.33 30.3 8.56038486 29.6938449 8.89924808 29.1347206 9.33 28.65 9.81578267 28.2155925 10.3788931 27.8763693 10.99 27.65 10.3826662 27.415855 9.8208927 27.0774372 9.33 26.65 8.90256279 26.1591073 8.56414501 25.5973338 8.33 24.99 8.10363069 25.6011069 7.76440755 26.1642173 7.33 26.65 6.84527945 27.0807519 6.28615514 27.4196151 5.68 27.65L5.68 27.65zM10.5 10.5000261C10.2545156 10.5025161 10.0450581 10.3229811 10.01 10.08 9.8780664 9.01201119 9.50906953 7.98701987 8.93 7.08 8.02298013 6.50093047 6.99798881 6.1319336 5.93 6 5.68701887 5.96494186 5.50748387 5.75548436 5.50995537 5.51 5.50675316 5.26777363 5.68099871 5.05952896 5.92 5.02 6.98803181 4.8694266 8.0111755 4.49086343 8.92 3.91 9.49998754 3.00343166 9.86906157 1.97822602 10 .91 10.0390212.669220398 10.2460852.491736992 10.49.489955368 10.7322264.486753163 10.940471.660998709 10.98.9 11.1311806 1.96787847 11.5096973 2.99089669 12.09 3.9 12.9991033 4.48030266 14.0221215 4.8588194 15.09 5.01 15.3661424 5.01 15.59 5.23385763 15.59 5.51 15.59 5.78614237 15.3661424 6.01 15.09 6.01 14.021774 6.14093843 12.9965683 6.51001246 12.09 7.09 11.5091366 7.9988245 11.1305734 9.02196819 10.98 10.09 10.9410747 10.3252547 10.7384475 10.4983322 10.5 10.5000261L10.5 10.5000261zM8.03 5.5C8.62252024 5.67198474 9.17144485 5.9686086 9.64 6.37 10.043895 6.84441202 10.3406501 7.40040135 10.51 8 10.6887835 7.40614255 10.992203 6.85725993 11.4 6.39 11.8649201 5.98882944 12.4105471 5.69214478 13 5.52 12.4090827 5.34134328 11.8634399 5.0378295 11.4 4.63 10.9921705 4.16656005 10.6886567 3.62091731 10.51 3.03 10.3378552 3.6194529 10.0411706 4.16507986 9.64 4.63 9.16121963 5.03079094 8.60194005 5.3240717 8 5.49L8.03 5.5z"/>
    </g>
  </g>
</svg>
