<svg xmlns="http://www.w3.org/2000/svg" viewBox="0 0 159.17 153.02"><title>breach-resolution-complete</title><path d="M223.61,65.08l-55.25-31.9a12.73,12.73,0,0,0-12.72,0l-55.25,31.9A12.72,12.72,0,0,0,94,76.1v63.8a12.72,12.72,0,0,0,6.37,11l55.25,31.9a12.75,12.75,0,0,0,12.72,0l55.25-31.9a12.72,12.72,0,0,0,6.37-11V76.1A12.72,12.72,0,0,0,223.61,65.08Z" transform="translate(-82.41 -31.48)" fill="#bfbfc9" opacity="0.15" style="isolation:isolate"/><rect y="58.71" width="159.17" height="35.61" rx="12.25" ry="12.25" fill="#e0e0e6"/><path d="M113.77,108.92a.68.68,0,0,1,.39.42.71.71,0,0,1-.06.57l-1.52,2.56a.7.7,0,0,1-.47.33.69.69,0,0,1-.55-.13l-3.25-2.52.52,4.17a.72.72,0,0,1-.17.54.68.68,0,0,1-.52.23h-3a.68.68,0,0,1-.52-.23.72.72,0,0,1-.17-.54l.52-4.2-3.38,2.55a.66.66,0,0,1-.56.12.71.71,0,0,1-.46-.33l-1.44-2.57a.65.65,0,0,1,0-.56.7.7,0,0,1,.38-.41l3.87-1.62-3.87-1.68a.68.68,0,0,1-.38-.88l.06-.12,1.48-2.52a.71.71,0,0,1,.46-.33.69.69,0,0,1,.55.13l3.34,2.53-.52-4.14a.72.72,0,0,1,.17-.54.68.68,0,0,1,.52-.23h3a.68.68,0,0,1,.52.23.72.72,0,0,1,.17.54l-.52,4.15,3.34-2.5a.7.7,0,0,1,.56-.13.72.72,0,0,1,.46.34l1.44,2.56a.69.69,0,0,1-.23.95l-.11.05-3.87,1.6Z" transform="translate(-82.41 -31.48)" fill="#f9f9fb"/><path d="M135.74,108.92a.69.69,0,0,1,.38.9l-.05.1-1.52,2.56a.72.72,0,0,1-.47.33.69.69,0,0,1-.55-.13l-3.25-2.52.51,4.17a.65.65,0,0,1-.17.54.66.66,0,0,1-.51.23h-3a.68.68,0,0,1-.51-.23.72.72,0,0,1-.17-.54l.52-4.2-3.38,2.55a.66.66,0,0,1-.56.12.68.68,0,0,1-.46-.33l-1.44-2.57a.65.65,0,0,1,0-.56.7.7,0,0,1,.38-.41l3.87-1.62-3.88-1.68a.67.67,0,0,1-.38-.41.71.71,0,0,1,.06-.57l1.48-2.52a.7.7,0,0,1,.47-.33.69.69,0,0,1,.55.13l3.34,2.53-.52-4.14a.69.69,0,0,1,.61-.77h3.07a.7.7,0,0,1,.52.23.67.67,0,0,1,.16.54l-.52,4.15,3.35-2.5a.69.69,0,0,1,.55-.13.67.67,0,0,1,.46.34l1.45,2.56a.69.69,0,0,1-.23.95l-.11.05-3.87,1.6Z" transform="translate(-82.41 -31.48)" fill="#f9f9fb"/><path d="M157.71,108.92a.73.73,0,0,1,.39.42.67.67,0,0,1-.07.57l-1.52,2.56a.71.71,0,0,1-.46.33.69.69,0,0,1-.55-.13l-3.26-2.52.52,4.17a.72.72,0,0,1-.17.54.68.68,0,0,1-.51.23h-3a.7.7,0,0,1-.52-.23.67.67,0,0,1-.16-.54l.52-4.2-3.39,2.55a.64.64,0,0,1-.55.12.66.66,0,0,1-.46-.33l-1.45-2.57a.73.73,0,0,1,0-.56.75.75,0,0,1,.39-.41l3.87-1.62-3.88-1.68a.67.67,0,0,1-.38-.41.71.71,0,0,1,.06-.57l1.48-2.52a.71.71,0,0,1,.46-.33.67.67,0,0,1,.55.13l3.34,2.53-.51-4.14a.67.67,0,0,1,.16-.54.7.7,0,0,1,.52-.23h3a.68.68,0,0,1,.51.23.72.72,0,0,1,.17.54l-.52,4.15,3.35-2.5a.68.68,0,0,1,.55-.13.7.7,0,0,1,.46.34l1.44,2.56a.67.67,0,0,1,.05.57.7.7,0,0,1-.38.41l-3.87,1.6Z" transform="translate(-82.41 -31.48)" fill="#7542e5"/><path d="M179.67,108.92a.69.69,0,0,1,.38.9l-.05.1-1.52,2.56a.69.69,0,0,1-.95.24l-.05,0-3.25-2.52.52,4.17a.72.72,0,0,1-.17.54.68.68,0,0,1-.52.23h-3a.68.68,0,0,1-.52-.23.72.72,0,0,1-.17-.54l.52-4.2-3.38,2.55a.66.66,0,0,1-.56.12.71.71,0,0,1-.46-.33L165,109.9a.68.68,0,0,1,.21-.94l.13-.06,3.87-1.62-3.88-1.68a.67.67,0,0,1-.38-.41.71.71,0,0,1,.06-.57l1.48-2.52a.71.71,0,0,1,.46-.33.69.69,0,0,1,.55.13l3.34,2.53-.52-4.14a.72.72,0,0,1,.17-.54.68.68,0,0,1,.52-.23h3a.68.68,0,0,1,.52.23.72.72,0,0,1,.17.54l-.52,4.15,3.34-2.5a.7.7,0,0,1,.56-.13.72.72,0,0,1,.46.34l1.44,2.56a.71.71,0,0,1,.05.57.68.68,0,0,1-.39.41l-3.87,1.6Z" transform="translate(-82.41 -31.48)" fill="#7542e5"/><path d="M201.64,108.92a.68.68,0,0,1,.39.42.71.71,0,0,1-.06.57l-1.52,2.56a.7.7,0,0,1-.47.33.69.69,0,0,1-.55-.13l-3.25-2.52.51,4.17a.67.67,0,0,1-.16.54.68.68,0,0,1-.52.23h-3a.68.68,0,0,1-.52-.23.72.72,0,0,1-.17-.54l.52-4.2-3.38,2.55a.66.66,0,0,1-.56.12.71.71,0,0,1-.46-.33L187,109.89a.65.65,0,0,1,0-.56.7.7,0,0,1,.38-.41l3.87-1.62-3.87-1.68a.69.69,0,0,1-.39-.41.67.67,0,0,1,.07-.57l1.48-2.52a.68.68,0,0,1,.93-.25l.07,0,3.34,2.53-.52-4.14a.72.72,0,0,1,.17-.54.68.68,0,0,1,.52-.23h3a.68.68,0,0,1,.52.23.67.67,0,0,1,.16.54l-.51,4.15,3.34-2.5a.7.7,0,0,1,.56-.13.72.72,0,0,1,.46.34l1.44,2.56a.69.69,0,0,1-.23.95l-.11.05-3.87,1.6Z" transform="translate(-82.41 -31.48)" fill="#f9f9fb"/><path d="M223.61,108.92a.73.73,0,0,1,.39.42.71.71,0,0,1-.06.57l-1.53,2.56a.71.71,0,0,1-.46.33.69.69,0,0,1-.55-.13l-3.25-2.52.51,4.17a.65.65,0,0,1-.17.54.68.68,0,0,1-.51.23h-3a.69.69,0,0,1-.68-.77l.52-4.2-3.39,2.55a.63.63,0,0,1-.55.12.68.68,0,0,1-.46-.33L209,109.89a.69.69,0,0,1-.06-.56.75.75,0,0,1,.39-.41l3.87-1.62-3.88-1.68a.67.67,0,0,1-.38-.41.71.71,0,0,1,.06-.57l1.48-2.52a.7.7,0,0,1,.47-.33.69.69,0,0,1,.55.13l3.34,2.53-.52-4.14a.69.69,0,0,1,.61-.77H218a.68.68,0,0,1,.51.23.65.65,0,0,1,.17.54l-.52,4.15,3.35-2.5a.69.69,0,0,1,.55-.13.67.67,0,0,1,.46.34l1.44,2.56a.71.71,0,0,1,.06.57.75.75,0,0,1-.39.41l-3.87,1.6Z" transform="translate(-82.41 -31.48)" fill="#f9f9fb"/><path d="M162,82.69a19.57,19.57,0,1,1,19.57-19.57A19.57,19.57,0,0,1,162,82.69Z" transform="translate(-82.41 -31.48)" fill="#3fe1b0"/><path d="M162,79.82a16.7,16.7,0,1,1,16.7-16.7h0A16.72,16.72,0,0,1,162,79.82Z" transform="translate(-82.41 -31.48)" fill="#2ac3a2"/><path d="M158.32,72.83a1.68,1.68,0,0,1-1.17-.48l-5-5A1.67,1.67,0,1,1,154.52,65l3.58,3.58,10.47-15a1.65,1.65,0,1,1,2.71,1.9l-11.6,16.58a1.64,1.64,0,0,1-1.21.7Z" transform="translate(-82.41 -31.48)" fill="#e3fff3"/><path d="M162,127.57A19.57,19.57,0,1,1,181.57,108,19.57,19.57,0,0,1,162,127.57Z" transform="translate(-82.41 -31.48)" fill="#3fe1b0"/><path d="M162,124.7A16.7,16.7,0,1,1,178.7,108h0A16.72,16.72,0,0,1,162,124.7Z" transform="translate(-82.41 -31.48)" fill="#2ac3a2"/><path d="M158.32,117.71a1.68,1.68,0,0,1-1.17-.48l-5-5a1.66,1.66,0,0,1,2.34-2.35l3.58,3.58,10.47-15a1.65,1.65,0,1,1,2.71,1.9L159.68,117a1.67,1.67,0,0,1-1.21.7Z" transform="translate(-82.41 -31.48)" fill="#e3fff3"/><path d="M162,172.45a19.57,19.57,0,1,1,19.57-19.57h0A19.59,19.59,0,0,1,162,172.45Z" transform="translate(-82.41 -31.48)" fill="#3fe1b0"/><path d="M162,169.58a16.7,16.7,0,1,1,16.7-16.7h0A16.72,16.72,0,0,1,162,169.58Z" transform="translate(-82.41 -31.48)" fill="#2ac3a2"/><path d="M158.32,162.59a1.68,1.68,0,0,1-1.17-.48l-5-5a1.66,1.66,0,0,1,2.34-2.35l3.58,3.58,10.47-15a1.65,1.65,0,1,1,2.71,1.9l-11.6,16.58a1.67,1.67,0,0,1-1.21.7Z" transform="translate(-82.41 -31.48)" fill="#e3fff3"/></svg>