<svg id="763f6a8a-ffc3-4f97-b99e-dddf46630a19" data-name="Layer 1" xmlns="http://www.w3.org/2000/svg" xmlns:xlink="http://www.w3.org/1999/xlink" viewBox="0 0 95 63.87"><defs><linearGradient id="27e6a87a-da02-4881-9a04-c21da5d2f87d" x1="20.58" y1="-14.16" x2="74.42" y2="39.67" gradientTransform="matrix(1, 0, 0, -1, 0, 66)" gradientUnits="userSpaceOnUse"><stop offset="0" stop-color="#00b3f4"/><stop offset="0.58" stop-color="#1abdc2"/><stop offset="1" stop-color="#2ac3a2"/></linearGradient><linearGradient id="01441e2b-2172-4893-9228-0c544d935bfa" x1="20.59" y1="28.46" x2="74.41" y2="82.29" gradientTransform="matrix(1, 0, 0, -1, 0, 66)" gradientUnits="userSpaceOnUse"><stop offset="0.22" stop-color="#ff298a"/><stop offset="0.91" stop-color="#ff4f5e"/></linearGradient></defs><title>change-password</title><g id="b7dd5163-52eb-4c95-91a2-155dc20b2273" data-name="Layer 2"><g id="b626236c-3876-43a7-9e86-fc686d6ef250" data-name="Layer 1-2"><path d="M87.67,42.62H7.31A7.33,7.33,0,0,0,0,49.93v6.63a7.33,7.33,0,0,0,7.31,7.31H87.67A7.33,7.33,0,0,0,95,56.56V49.93A7.33,7.33,0,0,0,87.67,42.62Zm-69,11.17a.4.4,0,0,1,.24.51l0,.08L18,55.91a.4.4,0,0,1-.28.19.37.37,0,0,1-.32-.1l-1.95-1.5.31,2.5a.37.37,0,0,1-.1.32.41.41,0,0,1-.31.14H13.59a.41.41,0,0,1-.31-.14.37.37,0,0,1-.1-.32l.31-2.5-2,1.52a.4.4,0,0,1-.33.07.39.39,0,0,1-.28-.2L10,54.37A.38.38,0,0,1,10,54a.43.43,0,0,1,.23-.25l2.31-1-2.31-1A.36.36,0,0,1,10,51.5a.38.38,0,0,1,0-.33l.89-1.51a.4.4,0,0,1,.27-.19.38.38,0,0,1,.33.07l2,1.52-.31-2.48a.39.39,0,0,1,.1-.32.41.41,0,0,1,.31-.14h1.76a.41.41,0,0,1,.31.14.39.39,0,0,1,.1.32l-.31,2.48,2-1.49a.42.42,0,0,1,.33-.08.4.4,0,0,1,.27.2l.86,1.53a.4.4,0,0,1-.12.55l-.08,0-2.31,1Zm13.11,0a.4.4,0,0,1,.24.51l0,.08-.91,1.53a.43.43,0,0,1-.59.13h0l-1.94-1.5L28.87,57a.37.37,0,0,1-.1.32.41.41,0,0,1-.31.14H26.69a.39.39,0,0,1-.3-.14.37.37,0,0,1-.1-.32l.31-2.5L24.6,56a.41.41,0,0,1-.34.07.39.39,0,0,1-.27-.2l-.86-1.53a.38.38,0,0,1,0-.33.43.43,0,0,1,.23-.25l2.31-1-2.32-1a.37.37,0,0,1-.22-.25.38.38,0,0,1,0-.33L24,49.73a.4.4,0,0,1,.27-.19.38.38,0,0,1,.33.07l2,1.52-.3-2.48a.42.42,0,0,1,.09-.32.43.43,0,0,1,.31-.14h1.77a.41.41,0,0,1,.31.14.39.39,0,0,1,.1.32l-.31,2.48,2-1.49a.42.42,0,0,1,.33-.08.45.45,0,0,1,.27.2L32,51.29a.41.41,0,0,1,0,.34.43.43,0,0,1-.23.25l-2.31,1Zm13.11,0a.42.42,0,0,1,.22.55l0,0-.91,1.53a.43.43,0,0,1-.59.13h0l-1.94-1.5L42,57a.4.4,0,0,1-.1.32.41.41,0,0,1-.31.14H39.8a.41.41,0,0,1-.31-.14.44.44,0,0,1-.1-.32l.31-2.5L37.7,56a.41.41,0,0,1-.57-.09l0,0-.86-1.53a.38.38,0,0,1,0-.33.43.43,0,0,1,.23-.25l2.31-1-2.32-1a.38.38,0,0,1-.23-.25.42.42,0,0,1,0-.33l.89-1.51a.36.36,0,0,1,.27-.19.38.38,0,0,1,.33.07l2,1.52-.31-2.48a.47.47,0,0,1,.1-.32.41.41,0,0,1,.31-.14h1.77a.41.41,0,0,1,.31.14.42.42,0,0,1,.1.32l-.31,2.48,2-1.49a.42.42,0,0,1,.33-.08.45.45,0,0,1,.27.2l.86,1.53a.41.41,0,0,1,0,.34.43.43,0,0,1-.23.25l-2.31,1Zm13.11,0a.43.43,0,0,1,.23.25.37.37,0,0,1,0,.34l-.9,1.53a.4.4,0,0,1-.28.19.38.38,0,0,1-.33-.07l-1.94-1.5L55.09,57a.4.4,0,0,1-.34.46H52.91A.4.4,0,0,1,52.5,57l.31-2.5-2,1.52a.38.38,0,0,1-.33.07.35.35,0,0,1-.27-.2l-.86-1.53a.38.38,0,0,1,0-.33.41.41,0,0,1,.23-.25l2.3-1-2.31-1a.38.38,0,0,1-.23-.25.42.42,0,0,1,0-.33l.88-1.51a.43.43,0,0,1,.59-.13h0l2,1.52-.31-2.48a.42.42,0,0,1,.1-.32.41.41,0,0,1,.31-.14H54.7a.41.41,0,0,1,.31.14.42.42,0,0,1,.1.32l-.31,2.48,2-1.49a.46.46,0,0,1,.34-.08.45.45,0,0,1,.27.2l.86,1.53a.41.41,0,0,1,0,.34.43.43,0,0,1-.23.25l-2.31,1Zm13.11,0a.43.43,0,0,1,.23.25.41.41,0,0,1,0,.34l-.91,1.53a.4.4,0,0,1-.27.19.38.38,0,0,1-.33-.07l-1.94-1.5L68.2,57a.48.48,0,0,1-.1.33.44.44,0,0,1-.31.13H66a.4.4,0,0,1-.41-.46l.31-2.5-2,1.5a.42.42,0,0,1-.59-.09l0,0-.86-1.53a.41.41,0,0,1,.16-.56l0,0,2.31-1-2.31-1a.4.4,0,0,1-.22-.52l0-.06.88-1.51a.43.43,0,0,1,.59-.13h0l2,1.52-.31-2.48a.42.42,0,0,1,.1-.32.41.41,0,0,1,.31-.14H67.8a.41.41,0,0,1,.31.14.47.47,0,0,1,.1.32l-.31,2.48,2-1.49a.41.41,0,0,1,.58.07l0,.05.86,1.53a.41.41,0,0,1,0,.34.43.43,0,0,1-.23.25l-2.31,1Zm13.11,0a.43.43,0,0,1,.23.25.41.41,0,0,1,0,.34l-.91,1.53a.4.4,0,0,1-.27.19.38.38,0,0,1-.33-.07L81,54.53,81.3,57a.4.4,0,0,1-.1.33.42.42,0,0,1-.3.13H79.13a.44.44,0,0,1-.31-.13.4.4,0,0,1-.1-.33L79,54.5,77,56a.4.4,0,0,1-.33.07.39.39,0,0,1-.28-.2l-.86-1.53a.38.38,0,0,1,0-.33.43.43,0,0,1,.23-.25l2.31-1-2.31-1a.4.4,0,0,1-.22-.52l0-.06.88-1.51a.4.4,0,0,1,.28-.19.37.37,0,0,1,.32.07l2,1.52-.31-2.48a.39.39,0,0,1,.1-.32.41.41,0,0,1,.31-.14H80.9a.41.41,0,0,1,.4.46L81,51.13l2-1.49a.43.43,0,0,1,.33-.08.45.45,0,0,1,.28.2l.86,1.53a.5.5,0,0,1,0,.34.47.47,0,0,1-.23.25l-2.24,1Z" fill="url(#27e6a87a-da02-4881-9a04-c21da5d2f87d)"/><path d="M49,26a1.5,1.5,0,0,0-3,0v8.41L39.55,28a1.5,1.5,0,1,0-2.16,2.09h0l9,9a1.49,1.49,0,0,0,2.11,0h0l9-9a1.5,1.5,0,0,0-2-2.09L49,34.42Z" fill="#ff298a"/><path d="M87.67,0H7.31A7.33,7.33,0,0,0,0,7.31v6.63a7.33,7.33,0,0,0,7.31,7.31H87.67A7.33,7.33,0,0,0,95,13.94V7.31A7.33,7.33,0,0,0,87.67,0ZM19,11.17a.43.43,0,0,1,.23.25.4.4,0,0,1,0,.34l-.91,1.53a.4.4,0,0,1-.6.12l-1.94-1.5.3,2.48a.4.4,0,0,1-.1.33.39.39,0,0,1-.3.14H13.85a.41.41,0,0,1-.31-.14.4.4,0,0,1-.1-.33l.31-2.5-2,1.52a.4.4,0,0,1-.61-.13l-.86-1.52a.41.41,0,0,1,0-.34.43.43,0,0,1,.23-.25l2.31-1-2.31-1A.43.43,0,0,1,10.23,9a.41.41,0,0,1,0-.34l.88-1.5a.39.39,0,0,1,.28-.2.41.41,0,0,1,.32.08l2,1.51L13.44,6a.4.4,0,0,1,.1-.33.41.41,0,0,1,.31-.14h1.77a.39.39,0,0,1,.3.14A.4.4,0,0,1,16,6l-.31,2.48,2-1.5a.44.44,0,0,1,.31,0,.43.43,0,0,1,.28.21l.86,1.53a.42.42,0,0,1,0,.33.47.47,0,0,1-.23.25l-2.31,1Zm13.1,0a.45.45,0,0,1,.24.25.44.44,0,0,1,0,.34l-.91,1.53a.4.4,0,0,1-.6.12l-2-1.5.31,2.48a.4.4,0,0,1-.1.33.41.41,0,0,1-.31.14H27a.41.41,0,0,1-.31-.14.4.4,0,0,1-.1-.33l.31-2.5-2,1.52a.44.44,0,0,1-.33.08.43.43,0,0,1-.28-.21l-.86-1.52a.41.41,0,0,1,0-.34.43.43,0,0,1,.23-.25l2.31-1-2.31-1A.43.43,0,0,1,23.34,9a.41.41,0,0,1,0-.34l.89-1.5A.39.39,0,0,1,24.5,7a.42.42,0,0,1,.33.08l2,1.51L26.55,6a.4.4,0,0,1,.1-.33.41.41,0,0,1,.35-.1h1.76a.41.41,0,0,1,.31.14.4.4,0,0,1,.1.33l-.31,2.48,2-1.5a.42.42,0,0,1,.33-.08.39.39,0,0,1,.27.21l.86,1.53a.42.42,0,0,1,0,.33.45.45,0,0,1-.24.25l-2.31,1Zm13.11,0a.45.45,0,0,1,.24.25.44.44,0,0,1,0,.34l-.91,1.53a.41.41,0,0,1-.28.2.44.44,0,0,1-.33-.08L42,11.91l.31,2.48a.4.4,0,0,1-.1.33.41.41,0,0,1-.31.14H40.06a.39.39,0,0,1-.3-.14.4.4,0,0,1-.1-.33l.31-2.5-2,1.52a.46.46,0,0,1-.34.08.43.43,0,0,1-.27-.21l-.86-1.52a.41.41,0,0,1,0-.34.43.43,0,0,1,.23-.25l2.31-1-2.32-1A.42.42,0,0,1,36.45,9a.41.41,0,0,1,0-.34l.89-1.5a.39.39,0,0,1,.27-.2A.42.42,0,0,1,38,7l2,1.51L39.66,6a.4.4,0,0,1,.1-.33.39.39,0,0,1,.3-.14h1.77a.41.41,0,0,1,.31.14.4.4,0,0,1,.1.33l-.31,2.48,2-1.5a.42.42,0,0,1,.33-.08.43.43,0,0,1,.27.21l.86,1.53a.38.38,0,0,1,0,.33.41.41,0,0,1-.23.25l-2.31,1Zm13.11,0a.42.42,0,0,1,.22.55l0,0-.91,1.53a.41.41,0,0,1-.28.2.44.44,0,0,1-.33-.08l-2-1.5.31,2.48a.44.44,0,0,1-.1.33.41.41,0,0,1-.31.14H53.17a.41.41,0,0,1-.31-.14.48.48,0,0,1-.1-.33l.31-2.5-2,1.52a.42.42,0,0,1-.33.08.43.43,0,0,1-.27-.21l-.86-1.52a.41.41,0,0,1,0-.34.43.43,0,0,1,.23-.25l2.31-1-2.32-1A.39.39,0,0,1,49.56,9a.41.41,0,0,1,0-.34l.89-1.5a.39.39,0,0,1,.27-.2.42.42,0,0,1,.33.08l2,1.51L52.76,6a.48.48,0,0,1,.1-.33.41.41,0,0,1,.31-.14h1.77a.41.41,0,0,1,.31.14.44.44,0,0,1,.1.33L55,8.52,57,7a.42.42,0,0,1,.33-.08.43.43,0,0,1,.27.21l.86,1.53a.38.38,0,0,1,0,.33.43.43,0,0,1-.23.25l-2.31,1Zm13.11,0a.43.43,0,0,1,.23.25.37.37,0,0,1,0,.34l-.9,1.53a.41.41,0,0,1-.28.2.43.43,0,0,1-.33-.08l-1.94-1.5.31,2.48a.44.44,0,0,1-.1.33.41.41,0,0,1-.31.14H66.28a.41.41,0,0,1-.31-.14.44.44,0,0,1-.1-.33l.31-2.5-2,1.52a.42.42,0,0,1-.33.08.39.39,0,0,1-.27-.21l-.86-1.52a.42.42,0,0,1,.16-.57l0,0,2.3-1-2.31-1A.43.43,0,0,1,62.66,9a.45.45,0,0,1,0-.34l.88-1.5a.39.39,0,0,1,.28-.2.43.43,0,0,1,.33.08l2,1.51L65.87,6a.44.44,0,0,1,.1-.33.41.41,0,0,1,.31-.14H68a.41.41,0,0,1,.31.14.44.44,0,0,1,.1.33l-.31,2.48,2-1.5a.46.46,0,0,1,.34-.08.43.43,0,0,1,.27.21l.86,1.53a.38.38,0,0,1,0,.33.43.43,0,0,1-.23.25l-2.31,1Zm13.11,0a.43.43,0,0,1,.23.25.4.4,0,0,1,0,.34l-.9,1.53a.44.44,0,0,1-.28.2.42.42,0,0,1-.33-.08l-1.94-1.5.31,2.48a.48.48,0,0,1-.1.33.41.41,0,0,1-.31.14H79.39a.41.41,0,0,1-.31-.14.44.44,0,0,1-.1-.33l.31-2.5-2,1.52a.4.4,0,0,1-.56-.06l0-.07-.86-1.52a.5.5,0,0,1,0-.34.47.47,0,0,1,.23-.25l2.31-1L76,9.21A.43.43,0,0,1,75.77,9a.45.45,0,0,1,0-.34l.88-1.5a.39.39,0,0,1,.28-.2.44.44,0,0,1,.37,0l2,1.51L79,6a.44.44,0,0,1,.1-.33.41.41,0,0,1,.31-.14h1.77a.41.41,0,0,1,.31.14.48.48,0,0,1,.1.33l-.31,2.48,2-1.5a.44.44,0,0,1,.33-.08.43.43,0,0,1,.28.21l.86,1.53a.38.38,0,0,1,0,.33.43.43,0,0,1-.23.25l-2.31,1Z" fill="url(#01441e2b-2172-4893-9228-0c544d935bfa)"/></g></g></svg>