<svg xmlns="http://www.w3.org/2000/svg" width="496" height="219" fill="none" viewBox="0 0 496 219"><defs/><g fill="#C6CAFA" stroke="#C6CBFA" stroke-miterlimit="10" stroke-width=".5" opacity=".65"><path d="M252.435 195.964H190a12.826 12.826 0 0112.63-10.575h.5a18.503 18.503 0 0127.944-5.102 18.506 18.506 0 015.871 8.877 9.245 9.245 0 0115.5 6.795l-.01.005zM49.992 42H1a10.328 10.328 0 013.447-6.077 9.938 9.938 0 016.464-2.398h.392a14.656 14.656 0 016.03-5.901 14.255 14.255 0 018.215-1.532 14.365 14.365 0 017.682 3.344 14.852 14.852 0 014.607 7.114 7.195 7.195 0 013.717-1.852 7.116 7.116 0 014.104.522 7.297 7.297 0 013.158 2.729A7.523 7.523 0 0150 41.996l-.008.004zM105.993 203H65a8.336 8.336 0 012.884-4.938 8.461 8.461 0 015.409-1.948h.328a12.104 12.104 0 015.045-4.795 12.239 12.239 0 016.874-1.245c2.365.262 4.6 1.207 6.428 2.718a12.038 12.038 0 013.855 5.78 6.115 6.115 0 016.544-1.08 6.058 6.058 0 012.642 2.216 5.99 5.99 0 01.991 3.289l-.007.003zM442.994 14H403a8.38 8.38 0 012.814-4.938 8.134 8.134 0 015.276-1.948h.321a11.932 11.932 0 014.922-4.795 11.682 11.682 0 016.706-1.245 11.757 11.757 0 016.272 2.718 12.06 12.06 0 013.76 5.78 5.889 5.889 0 013.034-1.505 5.837 5.837 0 013.351.425 5.948 5.948 0 012.577 2.216c.629.978.965 2.12.967 3.289l-.006.003zM495 217.893H383a23 23 0 0122.66-19h.88a33.15 33.15 0 0132.57-16.688 33.15 33.15 0 0128.09 23.458 16.584 16.584 0 0117.886-2.988 16.579 16.579 0 019.924 15.178l-.01.04z"/></g></svg>