<svg id="b331bae9-9dde-46f5-8a19-b4a11b7f5a44" data-name="Layer 1" xmlns="http://www.w3.org/2000/svg" xmlns:xlink="http://www.w3.org/1999/xlink" viewBox="0 0 54.44 54.45"><defs><linearGradient id="1ece75d2-7b80-4fa9-97b3-bfbc9a891d8d" x1="7.14" y1="-1.01" x2="47.31" y2="39.16" gradientTransform="matrix(1, 0, 0, -1, 0, 56)" gradientUnits="userSpaceOnUse"><stop offset="0.22" stop-color="#ff298a"/><stop offset="0.91" stop-color="#ee0700"/></linearGradient></defs><title>data-compromised</title><g id="2da8ec7f-7a58-46fc-8f4d-ea4a208509cf" data-name="Layer 2"><g id="68275faf-f0f6-4c29-9fb0-927799e9271d" data-name="Layer 1-2"><path d="M53.63,43.13,34.23,4.33a7.83,7.83,0,0,0-14,0L.82,43.14a7.84,7.84,0,0,0,7,11.32h38.8a7.84,7.84,0,0,0,7-11.33ZM23.31,15.3a3.92,3.92,0,1,1,7.83,0V31a3.92,3.92,0,1,1-7.83,0Zm3.91,32.31a4.9,4.9,0,1,1,4.9-4.9,4.9,4.9,0,0,1-4.9,4.9Z" transform="translate(0 -0.01)" fill="url(#1ece75d2-7b80-4fa9-97b3-bfbc9a891d8d)"/></g></g></svg>