<svg id="a39ecd2d-e132-41d7-a300-574f099f504f" data-name="Layer 1" xmlns="http://www.w3.org/2000/svg" viewBox="0 0 82.45 60.79"><title>email-tout</title><path d="M52,28.94,41.24,39.21,30.91,29.44l-1.23,1.23L1.82,59.06A5.86,5.86,0,0,0,6,60.79H76.61a5.86,5.86,0,0,0,4.16-1.73L53.25,30.28Z" fill="#ffbd4f"/><path d="M30.91,29.44,1.72,1.83A6,6,0,0,0,.25,4.35,5.74,5.74,0,0,0,0,5.94V55a5.88,5.88,0,0,0,1.73,4.15L29.59,30.76ZM82.12,4.05a5.91,5.91,0,0,0-1.6-2.51L52,28.94l1.29,1.34L80.71,59.06a5.88,5.88,0,0,0,1.74-4.15V5.85a5.56,5.56,0,0,0-.33-1.8Z" fill="#ffd567"/><path d="M30.91,29.44l10.33,9.77L52,28.94,80.52,1.61A5.65,5.65,0,0,0,76.61,0H5.92A5.75,5.75,0,0,0,1.77,1.82Z" fill="#ffea80"/></svg>