<svg xmlns="http://www.w3.org/2000/svg" viewBox="0 0 342.61 37.11"><title>fx-monitor-logo</title><path d="M3.67,6.46H25.5v6.23H10.27v7.85H25.5v6.13H10.27v13.7H3.67Z" transform="translate(-3.67 -3.77)" fill="#fff"/><path d="M30,8.23a4.13,4.13,0,0,1,1.16-3,4.31,4.31,0,0,1,5.93,0,4.19,4.19,0,0,1,1.13,3,3.94,3.94,0,0,1-4.13,4.09,3.93,3.93,0,0,1-2.95-1.17A4,4,0,0,1,30,8.23Zm.84,7.06h6.55V40.37H30.8Z" transform="translate(-3.67 -3.77)" fill="#fff"/><path d="M42.92,15.29h6.32v3.85A6.55,6.55,0,0,1,52,15.87a8.13,8.13,0,0,1,4.2-1,9.68,9.68,0,0,1,2.34.28,8.8,8.8,0,0,1,1.89.7l-2.33,6.32a4.4,4.4,0,0,0-1.39-.63,7,7,0,0,0-2-.26,5.62,5.62,0,0,0-3.95,1.37Q49.29,24,49.28,27.13V40.37H42.92Z" transform="translate(-3.67 -3.77)" fill="#fff"/><path d="M74.55,40.88a14.38,14.38,0,0,1-5.48-1A12.05,12.05,0,0,1,62.2,33a13.89,13.89,0,0,1-.93-5.11,13.16,13.16,0,0,1,1-5.14A12.56,12.56,0,0,1,65,18.59a13,13,0,0,1,4.18-2.79,13.25,13.25,0,0,1,5.2-1,13.58,13.58,0,0,1,5.21,1,12.45,12.45,0,0,1,4.08,2.67,12.07,12.07,0,0,1,2.7,4.07,13.42,13.42,0,0,1,1,5.15v2.42H67.45A6.87,6.87,0,0,0,70,33.94a7.56,7.56,0,0,0,4.67,1.41,7.32,7.32,0,0,0,3.76-.9A7,7,0,0,0,80.87,32l5.25,3.07a14.74,14.74,0,0,1-4.65,4.22A13.6,13.6,0,0,1,74.55,40.88Zm-.14-20.67a6.94,6.94,0,0,0-4.22,1.3A7.33,7.33,0,0,0,67.63,25H81a6.26,6.26,0,0,0-2.37-3.6A7.08,7.08,0,0,0,74.41,20.21Z" transform="translate(-3.67 -3.77)" fill="#fff"/><path d="M89.69,15.29h4.14v-.88a20.87,20.87,0,0,1,.53-5.11A7.06,7.06,0,0,1,96.13,6a6.87,6.87,0,0,1,3.3-1.74,21.79,21.79,0,0,1,5.13-.51h1.67V9.62h-1.07a18,18,0,0,0-2.64.16,2.89,2.89,0,0,0-1.51.65,2.24,2.24,0,0,0-.68,1.35,15.37,15.37,0,0,0-.14,2.3v1.21h6v5.76h-6V40.37H93.83V21.05H89.69Z" transform="translate(-3.67 -3.77)" fill="#fff"/><path d="M121.42,40.88a13.35,13.35,0,0,1-5.25-1,13,13,0,0,1-7-7,12.8,12.8,0,0,1-1-5.06,13,13,0,0,1,1-5.09A12.64,12.64,0,0,1,112,18.59a13.18,13.18,0,0,1,4.2-2.79,14,14,0,0,1,10.48,0,13.16,13.16,0,0,1,4.22,2.79,12.92,12.92,0,0,1,3.83,9.24,12.64,12.64,0,0,1-1,5.06,13.49,13.49,0,0,1-2.78,4.16,12.79,12.79,0,0,1-4.21,2.81A13.49,13.49,0,0,1,121.42,40.88Zm0-6.08a6.58,6.58,0,0,0,2.69-.56,7.09,7.09,0,0,0,2.18-1.49,6.85,6.85,0,0,0,1.47-2.2,7.43,7.43,0,0,0,0-5.51,6.87,6.87,0,0,0-1.47-2.23,7.07,7.07,0,0,0-2.18-1.48,6.76,6.76,0,0,0-5.39,0,7.19,7.19,0,0,0-2.18,1.48A6.69,6.69,0,0,0,115.13,25a7.3,7.3,0,0,0,0,5.51,6.66,6.66,0,0,0,1.46,2.2,7.21,7.21,0,0,0,2.18,1.49A6.63,6.63,0,0,0,121.47,34.8Z" transform="translate(-3.67 -3.77)" fill="#fff"/><path d="M143.85,27.5,135,15.29h7.62l5.25,7.43,5.29-7.43h7.53l-8.92,12.26,9.57,12.82h-7.76l-5.76-7.85-5.62,7.85h-7.71Z" transform="translate(-3.67 -3.77)" fill="#fff"/><path d="M176.23,6.46h3.86l12,16.68L204.61,6.46h3.67V40.37h-3.76V12.45L192.07,29.18,180,12.83V40.37h-3.81Z" transform="translate(-3.67 -3.77)" fill="#fff"/><path d="M226.53,40.88a13.06,13.06,0,0,1-5.15-1,12.39,12.39,0,0,1-4.11-2.76,13.49,13.49,0,0,1-2.74-14.42,12.64,12.64,0,0,1,6.9-6.92,12.89,12.89,0,0,1,5.1-1,13.16,13.16,0,0,1,5.14,1,12.56,12.56,0,0,1,4.15,2.76,12.79,12.79,0,0,1,2.77,4.16,13.25,13.25,0,0,1,1,5.13,13.12,13.12,0,0,1-1,5.11,12.77,12.77,0,0,1-2.77,4.13,12.92,12.92,0,0,1-9.29,3.81Zm0-3.62a9.21,9.21,0,0,0,3.65-.72,8.82,8.82,0,0,0,2.93-2,9.44,9.44,0,0,0,1.93-3,9.92,9.92,0,0,0,.69-3.72,10.07,10.07,0,0,0-.69-3.74,9.24,9.24,0,0,0-12.13-5,8.9,8.9,0,0,0-2.9,2,9.36,9.36,0,0,0-1.93,3,10.39,10.39,0,0,0,0,7.5,9,9,0,0,0,8.45,5.67Z" transform="translate(-3.67 -3.77)" fill="#fff"/><path d="M244.7,15.29h3.71v4.18A10,10,0,0,1,252,16.08a10.12,10.12,0,0,1,5.18-1.3,12.18,12.18,0,0,1,4.43.76A9.2,9.2,0,0,1,265,17.77a9.94,9.94,0,0,1,2.14,3.56,14.19,14.19,0,0,1,.74,4.73V40.37H264V26.25a8.44,8.44,0,0,0-2-5.85,7.13,7.13,0,0,0-5.62-2.19,8,8,0,0,0-3.11.61,7.61,7.61,0,0,0-2.51,1.69,7.84,7.84,0,0,0-1.67,2.61,8.88,8.88,0,0,0-.6,3.32V40.37H244.7Z" transform="translate(-3.67 -3.77)" fill="#fff"/><path d="M272.8,7.58A3,3,0,0,1,278,5.42a3,3,0,0,1,.84,2.16A3,3,0,0,1,278,9.74a3.14,3.14,0,0,1-4.32,0A3,3,0,0,1,272.8,7.58Zm1.07,7.71h3.85V40.37h-3.85Z" transform="translate(-3.67 -3.77)" fill="#fff"/><path d="M281.76,15.29h4.88V9.76l3.76-2.41v7.94h7.34v3.39H290.4v14a4.78,4.78,0,0,0,1,3.43,3.49,3.49,0,0,0,2.63,1A4.18,4.18,0,0,0,296.91,36l2,3a8.42,8.42,0,0,1-2.32,1.3,8.12,8.12,0,0,1-2.83.46,7,7,0,0,1-5.3-1.88q-1.81-1.87-1.81-6.06V18.68h-4.88Z" transform="translate(-3.67 -3.77)" fill="#fff"/><path d="M313.12,40.88a13.08,13.08,0,0,1-5.16-1,12.39,12.39,0,0,1-4.11-2.76,13.49,13.49,0,0,1-2.74-14.42,12.64,12.64,0,0,1,6.9-6.92,12.94,12.94,0,0,1,5.11-1,13.14,13.14,0,0,1,5.13,1,12.71,12.71,0,0,1,4.16,2.76,12.92,12.92,0,0,1,2.76,4.16,13.07,13.07,0,0,1,1,5.13,12.94,12.94,0,0,1-3.76,9.24,13.14,13.14,0,0,1-4.14,2.79A12.9,12.9,0,0,1,313.12,40.88Zm0-3.62a9.2,9.2,0,0,0,3.64-.72,8.82,8.82,0,0,0,2.93-2,9.44,9.44,0,0,0,1.93-3,9.92,9.92,0,0,0,.69-3.72,10.07,10.07,0,0,0-.69-3.74,9,9,0,0,0-4.88-5,9.49,9.49,0,0,0-7.25,0,8.9,8.9,0,0,0-2.9,2,9.36,9.36,0,0,0-1.93,3,10.54,10.54,0,0,0,0,7.5,9,9,0,0,0,4.83,4.95A9.12,9.12,0,0,0,313.12,37.26Z" transform="translate(-3.67 -3.77)" fill="#fff"/><path d="M331.28,15.29H335V20a7,7,0,0,1,2.62-3.81,7.62,7.62,0,0,1,4.53-1.3,7.87,7.87,0,0,1,4.18.93l-1.58,3.62a3.79,3.79,0,0,0-1.28-.58,6.74,6.74,0,0,0-1.78-.21,6.28,6.28,0,0,0-4.88,1.88c-1.15,1.25-1.72,3.28-1.72,6.06V40.37h-3.76Z" transform="translate(-3.67 -3.77)" fill="#fff"/></svg>
