<?xml version="1.0" encoding="utf-8"?>
<!-- Generator: Adobe Illustrator 23.0.2, SVG Export Plug-In . SVG Version: 6.00 Build 0)  -->
<svg version="1.1" id="Layer_1" xmlns="http://www.w3.org/2000/svg" xmlns:xlink="http://www.w3.org/1999/xlink" x="0px" y="0px"
	 viewBox="0 0 481 529" style="enable-background:new 0 0 481 529;" xml:space="preserve">
<style type="text/css">
	.st0{fill:url(#Shape_1_);}
	.st1{fill:url(#SVGID_1_);}
	.st2{fill-rule:evenodd;clip-rule:evenodd;fill:url(#Path_1_);}
	.st3{fill-rule:evenodd;clip-rule:evenodd;fill:url(#SVGID_2_);}
	.st4{fill-rule:evenodd;clip-rule:evenodd;fill:url(#SVGID_3_);}
	.st5{fill:none;}
	.st6{opacity:0.9;fill-rule:evenodd;clip-rule:evenodd;fill:url(#SVGID_4_);enable-background:new    ;}
</style>
<title>Artboard</title>
<desc>Created with Sketch.</desc>
<g id="Artboard">
	<g transform="translate(131.000000, 108.000000)">
		
			<linearGradient id="Shape_1_" gradientUnits="userSpaceOnUse" x1="-286.201" y1="463.9908" x2="-286.7141" y2="463.1817" gradientTransform="matrix(472.3 0 0 -518.725 135395 240649.0938)">
			<stop  offset="0" style="stop-color:#FF980E"/>
			<stop  offset="0.2075" style="stop-color:#FF7139"/>
			<stop  offset="0.3633" style="stop-color:#FF5854"/>
			<stop  offset="0.4563" style="stop-color:#FF4F5E"/>
			<stop  offset="0.6929" style="stop-color:#FF3750"/>
			<stop  offset="0.8575" style="stop-color:#F92261"/>
			<stop  offset="1" style="stop-color:#F5156C"/>
		</linearGradient>
		<path id="Shape" class="st0" d="M345.2,262.7c0-0.3,0-0.7,0-1v-4.3V65.6v-4.3c-0.1-22.3-12.1-43-31.4-54.2L262-22.8l51.8,29.9
			c19.4,11.2,31.3,31.9,31.4,54.2v200.4C345.2,262,345.2,262.4,345.2,262.7L345.2,262.7z M336.8,293c-5.4,9.4-13.2,17.4-22.9,22.9
			l-81.2,46.9c-0.2,0.1-0.5,0.2-0.7,0.3c-1.1,0.6-2.2,1.1-3.3,1.5c-0.3,0.1-0.7,0.3-1.1,0.4c-1.5,0.5-2.9,0.8-4.4,1
			c-0.4,0.1-0.7,0.1-1.1,0.1c-0.8,0.1-1.6,0.2-2.4,0.2c-0.4,0-0.8-0.1-1.2-0.1s-0.8-0.1-1.2-0.1c-1.4-0.1-2.8-0.3-4.2-0.7
			c-0.3,0-0.5-0.1-0.8-0.2c-1.2-0.3-2.4-0.8-3.5-1.3c-0.3-0.1-0.6-0.3-0.9-0.4c-1.3-0.7-2.5-1.4-3.7-2.3c-0.3-0.2-0.5-0.4-0.8-0.6
			c-1-0.8-2-1.7-2.9-2.7c-0.2-0.2-0.4-0.3-0.5-0.5c-0.8-0.9-1.5-1.9-2.2-2.9L154.7,289c-14.3,5.2-29.7,8-45.7,8
			c-74.7,0-135.4-60.8-135.4-135.5S34.4,26,109.1,26s135.5,60.8,135.5,135.5c0,39.9-17.4,75.9-45,100.7l28.4,43.1l56.2-32.5
			c1.3-0.8,2.5-1.7,3.6-2.8c-1.1,1.1-2.3,2.1-3.7,2.9l-56.2,32.5l8.8,14.1c10.4,16.8,32.3,22.3,49.4,12.4l27.8-16
			C323.5,310.3,331.4,302.4,336.8,293z M101.9-46.8c-0.6,0.3-1.1,0.5-1.7,0.9l-136.8,79l-29.4,17c-5.5,3.2-8.9,9.1-8.9,15.5v191.8
			c0,6.4,3.4,12.3,8.9,15.5l166.1,95.9c12.4,7.2,16.7,23.1,9.5,35.6c-4.8,8.3-13.6,13-22.6,13c-4.4,0-8.9-1.1-13-3.5l-169.8-98
			c-19.3-11.2-31.3-31.9-31.3-54.2v-4.3V65.6v-4.3c0-22.3,12-43.1,31.3-54.2l3.7-2.1L74.1-90.9l3.7-2.1c19.3-11.1,43.2-11.1,62.5,0
			l3.7,2.1l52.8,30.4c-2.3-1.4-4.6-2.7-6.9-3.9c-16.6-9.6-36.9-9.9-53.7-0.8L101.9-46.8z M25.6,161.5c0,46,37.4,83.4,83.4,83.4
			s83.4-37.4,83.4-83.4S155,78.1,109,78.1S25.6,115.5,25.6,161.5z"/>
		
			<linearGradient id="SVGID_1_" gradientUnits="userSpaceOnUse" x1="-286.1727" y1="463.9781" x2="-286.6858" y2="463.1689" gradientTransform="matrix(414.898 0 0 -518.725 118920.6406 240649.0938)">
			<stop  offset="0" style="stop-color:#FFF44F;stop-opacity:0.8"/>
			<stop  offset="0.75" style="stop-color:#FFF44F;stop-opacity:0"/>
		</linearGradient>
		<path class="st1" d="M281.9,334.4l-49.2,28.4c-0.2,0.1-0.5,0.2-0.7,0.3c-1.1,0.6-2.2,1.1-3.3,1.5c-0.3,0.1-0.7,0.3-1.1,0.4
			c-1.5,0.5-2.9,0.8-4.4,1c-0.4,0.1-0.7,0.1-1.1,0.1c-0.8,0.1-1.6,0.2-2.4,0.2c-0.4,0-0.8-0.1-1.2-0.1s-0.8-0.1-1.2-0.1
			c-1.4-0.1-2.8-0.3-4.2-0.7c-0.3,0-0.5-0.1-0.8-0.2c-1.2-0.3-2.4-0.8-3.5-1.3c-0.3-0.1-0.6-0.3-0.9-0.4c-1.3-0.7-2.5-1.4-3.7-2.3
			c-0.3-0.2-0.5-0.4-0.8-0.6c-1-0.8-2-1.7-2.9-2.7c-0.2-0.2-0.4-0.3-0.5-0.5c-0.8-0.9-1.5-1.9-2.2-2.9L154.7,289
			c-14.3,5.2-29.7,8-45.7,8c-74.7,0-135.4-60.8-135.4-135.5S34.4,26,109.1,26s135.5,60.8,135.5,135.5c0,39.9-17.4,75.9-45,100.7
			l28.4,43.1l56.2-32.5c1.3-0.8,2.5-1.7,3.6-2.8c-1.1,1.1-2.3,2.1-3.7,2.9l-56.2,32.5l8.8,14.1C246.1,334.7,265.6,340.6,281.9,334.4
			z M101.9-46.8c-0.6,0.3-1.1,0.5-1.7,0.9l-136.8,79l-29.4,17c-5.5,3.2-8.9,9.1-8.9,15.5v191.8c0,6.4,3.4,12.3,8.9,15.5l166.1,95.9
			c12.4,7.2,16.7,23.1,9.5,35.6c-4.8,8.3-13.6,13-22.6,13c-4.4,0-8.9-1.1-13-3.5l-169.8-98c-19.3-11.2-31.3-31.9-31.3-54.2v-4.3
			V65.6v-4.3c0-22.3,12-43.1,31.3-54.2l3.7-2.1L74.1-90.9l3.7-2.1c19.3-11.1,43.2-11.1,62.5,0l3.7,2.1l40.3,23.3
			c-15.4-6.3-33.5-5.5-48.1,2.4L101.9-46.8z M25.6,161.5c0,46,37.4,83.4,83.4,83.4s83.4-37.4,83.4-83.4S155,78.1,109,78.1
			S25.6,115.5,25.6,161.5z"/>
		
			<linearGradient id="Path_1_" gradientUnits="userSpaceOnUse" x1="-286.3858" y1="462.9132" x2="-286.3858" y2="464.1395" gradientTransform="matrix(245.1 0 0 -408.6375 70415.8047 189597.9688)">
			<stop  offset="0" style="stop-color:#3A8EE6"/>
			<stop  offset="0.2359" style="stop-color:#5C79F0"/>
			<stop  offset="0.6293" style="stop-color:#9059FF"/>
			<stop  offset="1" style="stop-color:#C139E6"/>
		</linearGradient>
		<path id="Path" class="st2" d="M313.8,7.1L262-22.8c0,0-42.9-24.8-72.1-41.6c-16.6-9.6-36.9-9.9-53.7-0.8l-36.1,19.4
			c5.5-3.2,12.3-3.1,17.8,0l166.2,95.9c5.5,3.2,8.9,9.1,8.9,15.5v191.8c0,6.4-3.4,12.3-8.9,15.5l-56.2,32.5l8.8,14.1
			c10.4,16.8,32.3,22.3,49.4,12.4l27.8-16c19.3-11.2,31.3-31.8,31.3-54.2V61.3C345.1,39,333.2,18.3,313.8,7.1z"/>
		
			<linearGradient id="SVGID_2_" gradientUnits="userSpaceOnUse" x1="-286.3858" y1="463.1382" x2="-286.3858" y2="463.9724" gradientTransform="matrix(245.1 0 0 -408.6375 70415.8047 189597.9688)">
			<stop  offset="0" style="stop-color:#00458B;stop-opacity:0.6"/>
			<stop  offset="0.3308" style="stop-color:#A050FF;stop-opacity:0"/>
		</linearGradient>
		<path class="st3" d="M313.8,7.1L262-22.8c0,0-42.9-24.8-72.1-41.6c-16.6-9.6-36.9-9.9-53.7-0.8l-36.1,19.4
			c5.5-3.2,12.3-3.1,17.8,0l166.2,95.9c5.5,3.2,8.9,9.1,8.9,15.5v191.8c0,6.4-3.4,12.3-8.9,15.5l-56.2,32.5l8.8,14.1
			c10.4,16.8,32.3,22.3,49.4,12.4l27.8-16c19.3-11.2,31.3-31.8,31.3-54.2V61.3C345.1,39,333.2,18.3,313.8,7.1z"/>
		
			<linearGradient id="SVGID_3_" gradientUnits="userSpaceOnUse" x1="-286.9558" y1="464.049" x2="-286.0502" y2="463.5058" gradientTransform="matrix(245.1 0 0 -408.6375 70415.8047 189597.9688)">
			<stop  offset="0" style="stop-color:#6E008B;stop-opacity:0.5"/>
			<stop  offset="0.5" style="stop-color:#C846CB;stop-opacity:0"/>
		</linearGradient>
		<path class="st4" d="M313.8,7.1L262-22.8c0,0-42.9-24.8-72.1-41.6c-16.6-9.6-36.9-9.9-53.7-0.8l-36.1,19.4
			c5.5-3.2,12.3-3.1,17.8,0l166.2,95.9c5.5,3.2,8.9,9.1,8.9,15.5v191.8c0,6.4-3.4,12.3-8.9,15.5l-56.2,32.5l8.8,14.1
			c10.4,16.8,32.3,22.3,49.4,12.4l27.8-16c19.3-11.2,31.3-31.8,31.3-54.2V61.3C345.1,39,333.2,18.3,313.8,7.1z"/>
		<path class="st5" d="M192.4,161.5c0-46-37.4-83.4-83.4-83.4s-83.4,37.4-83.4,83.4S63,244.9,109,244.9S192.4,207.5,192.4,161.5z"/>
		
			<linearGradient id="SVGID_4_" gradientUnits="userSpaceOnUse" x1="-286.434" y1="464.802" x2="-285.9237" y2="464.2693" gradientTransform="matrix(69.1 0 0 -66.2 19958.502 31041.1055)">
			<stop  offset="0" style="stop-color:#960E18;stop-opacity:0.6"/>
			<stop  offset="0.1683" style="stop-color:#A91522;stop-opacity:0.4653"/>
			<stop  offset="0.5065" style="stop-color:#D9283C;stop-opacity:0.1948"/>
			<stop  offset="0.75" style="stop-color:#FF3750;stop-opacity:0"/>
		</linearGradient>
		<path class="st6" d="M223.9,299.3l-24.4-37c-12.9,11.6-28.1,20.8-44.7,26.8l25.9,39.4C195.3,319,209.7,309.3,223.9,299.3z"/>
	</g>
</g>
</svg>
