<svg id="ee4e8ed0-00e2-409f-a82c-d5af5ae85994" data-name="Layer 1" xmlns="http://www.w3.org/2000/svg" viewBox="0 0 56.41 41.57"><title>fxa-tout-yellow-env</title><path d="M58.53,5.32a4,4,0,0,0-1.09-1.71,3.85,3.85,0,0,0-2.67-1.1H6.56A4,4,0,0,0,3.73,3.75a4.09,4.09,0,0,0-1,1.72,4.86,4.86,0,0,0-.16,1.08V40a4,4,0,0,0,4,4H54.75a4,4,0,0,0,4-4h0V6.55A3.71,3.71,0,0,0,58.53,5.32Z" transform="translate(-2.34 -2.51)" fill="#ffd567"/><path d="M37.78,22.31l-7.32,7-7-6.67-.84.85L3.54,42.9a4,4,0,0,0,2.84,1.18H54.55a4,4,0,0,0,2.84-1.18L38.65,23.23Z" transform="translate(-2.34 -2.51)" fill="#ffbd4f"/><path d="M23.42,22.65,3.51,3.83a4.09,4.09,0,0,0-1,1.72,4.35,4.35,0,0,0-.17,1.08V40.08a4,4,0,0,0,1.2,2.82l19-19.36Z" transform="translate(-2.34 -2.51)" fill="#ffd567"/><path d="M58.35,5.33a4.08,4.08,0,0,0-1.09-1.71L37.78,22.25l.88.92L57.39,42.9a4,4,0,0,0,1.18-2.84V6.57A3.77,3.77,0,0,0,58.35,5.33Z" transform="translate(-2.34 -2.51)" fill="#ffd567"/><path d="M23.42,22.65l7,6.67,7.32-7L57.22,3.69a3.85,3.85,0,0,0-2.67-1.1H6.38A3.89,3.89,0,0,0,3.55,3.8Z" transform="translate(-2.34 -2.51)" fill="#ffea80"/><rect x="25.41" y="11.29" width="5.51" height="17.11" rx="2.75" fill="#ffbdc5"/><path d="M40.83,28,33.21,12.8a3.07,3.07,0,0,0-4.11-1.39,3.12,3.12,0,0,0-1.39,1.39L20.1,28a3.08,3.08,0,0,0,1.38,4.12h0a3.13,3.13,0,0,0,1.37.32H38.08a3.06,3.06,0,0,0,3.07-3.07A3.14,3.14,0,0,0,40.83,28ZM28.93,17.1a1.55,1.55,0,0,1,1.41-1.66A1.53,1.53,0,0,1,32,16.85a1,1,0,0,1,0,.25v6.15a1.54,1.54,0,1,1-3.07.25V17.1Zm1.53,12.68a1.92,1.92,0,1,1,1.92-1.92h0A1.92,1.92,0,0,1,30.46,29.78Z" transform="translate(-2.34 -2.51)" fill="#ff298a"/></svg>
