<svg xmlns="http://www.w3.org/2000/svg" width="48" height="48" fill="none" viewBox="0 0 48 48">
  <path fill="#000" d="M47.16 22.7v-.04-.05c-.04-.98-.14-1.96-.3-2.94l-.01-.04-.01-.04A23.47 23.47 0 0042.2 9.1l-.13-.17-.13-.16a23.7 23.7 0 00-6.87-5.8l-.19-.1-.18-.1A23.47 23.47 0 0023.6 0h-.01A23.59 23.59 0 000 23.58a23.59 23.59 0 1047.18 0l-.02-.88zm-1.17 7.03l-.2.72A23.28 23.28 0 0123.75 46.8h-.36A23.18 23.18 0 01.37 23.76v-.18-.18A23.2 23.2 0 0123.42.36h.35A23.19 23.19 0 0134.38 3l.18.1.18.09a23.29 23.29 0 017.08 5.97l.12.16.13.16a23.16 23.16 0 014.44 10.23l.01.05a23.21 23.21 0 01.3 2.84v1.16c0 2.02-.28 4.02-.82 5.97z"/>
  <path fill="#000" d="M17.49 46.28C11.99 41 8.47 32.91 8.47 23.84c0-9.08 3.53-17.17 9.03-22.46l-.25-.26C11.67 6.48 8.12 14.67 8.1 23.83v.01c0 9.16 3.56 17.34 9.13 22.7l.25-.26zM29.68 1.38c5.5 5.29 9.02 13.38 9.02 22.45 0 9.08-3.53 17.17-9.03 22.45l.25.26c5.58-5.36 9.14-13.54 9.14-22.7v-.01c0-9.17-3.56-17.35-9.13-22.7l-.25.25z"/>
  <path fill="#000" d="M46.04 29.93c-5.29 5.5-13.38 9.02-22.45 9.01h-.01v.18-.18c-9.07 0-17.16-3.52-22.45-9.02l-.25.25c5.36 5.58 13.54 9.14 22.7 9.14v-.05.05-.05.05c9.17 0 17.35-3.56 22.71-9.13l-.26-.25zM1.14 17.73c5.28-5.5 13.37-9.01 22.44-9.01 9.08 0 17.17 3.52 22.46 9.02l.26-.25c-5.36-5.57-13.55-9.13-22.71-9.13v.18-.18h-.01c-9.17 0-17.35 3.55-22.7 9.12l.25.25z"/>
  <path fill="#000" d="M46.04 29.93c-5.29 5.5-13.38 9.02-22.45 9.01h-.01v.18-.18c-9.07 0-17.16-3.52-22.45-9.02l-.25.25c5.36 5.58 13.54 9.14 22.7 9.14v-.05.05-.05.05c9.17 0 17.35-3.56 22.71-9.13l-.26-.25zM1.14 17.73c5.28-5.5 13.37-9.01 22.44-9.01 9.08 0 17.17 3.52 22.46 9.02l.26-.25c-5.36-5.57-13.55-9.13-22.71-9.13v.18-.18h-.01c-9.17 0-17.35 3.55-22.7 9.12l.25.25zM47 23.65H.17v.36h46.81v-.36z"/>
  <path fill="#000" d="M23.77.42h-.36v46.82h.36V.42z"/>
  <path fill="#6A52DE" d="M37.41 2.49a5 5 0 00-5.08 4.86 5.03 5.03 0 00.82 2.92l.04.06 3.56 5.32a.72.72 0 001.19 0l.1-.16 1.74-2.6.2-.3 1.52-2.26.04-.06a4.99 4.99 0 00-.07-5.63 5.02 5.02 0 00-4.05-2.15zm1.83 5.02a1.9 1.9 0 11-3.8 0 1.9 1.9 0 013.8 0z"/>
  <path fill="#000" d="M39.25 6.68a2.08 2.08 0 00-1.88-1.25h-.03a2.08 2.08 0 101.91 1.25zm-1.9 2.55a1.72 1.72 0 110-3.44 1.72 1.72 0 010 3.44zm5.2-1.83a5.22 5.22 0 00-5.13-5.1h-.07a5.18 5.18 0 00-5.2 4.93 5.2 5.2 0 00.85 3.14l.04.06 3.56 5.32a.89.89 0 001.48 0l.02-.02L39.93 13l.2-.3 1.52-2.25.04-.06a5.28 5.28 0 00.86-2.98zm-.36.1a4.81 4.81 0 01-.8 2.67l-.04.05-1.52 2.29-.2.3-1.64 2.44-.2.3a.54.54 0 01-.88 0l-3.57-5.32-.04-.06a4.84 4.84 0 014.05-7.5h.06a4.86 4.86 0 014.78 4.74v.1zm-4.35-2a2.03 2.03 0 00-.47-.07h-.03a2.08 2.08 0 10.5.06zm-.5 3.73a1.72 1.72 0 110-3.44 1.72 1.72 0 010 3.44z"/>
  <path fill="#6A52DE" d="M22.38 7.3a3.71 3.71 0 10-6.81 2.12l.03.04.11.17 2.52 3.77a.53.53 0 00.88 0l2.63-3.94.03-.05a3.6 3.6 0 00.61-2.11zm-3.06 1.32a1.4 1.4 0 01-1.76-.38 1.4 1.4 0 111.76.38z"/>
  <path fill="#000" d="M18.67 5.8a1.58 1.58 0 100 3.16 1.58 1.58 0 000-3.17zm1.22 1.58zm2.67-.09a3.9 3.9 0 00-3.84-3.8h-.05a3.9 3.9 0 00-3.25 6.02l.03.05.08.11 2.56 3.82a.7.7 0 00.58.32.7.7 0 00.58-.31l2.64-3.94.03-.04a3.88 3.88 0 00.64-2.23zm-.36.09a3.53 3.53 0 01-.58 1.94l-.03.04-2.63 3.93a.35.35 0 01-.45.12.34.34 0 01-.13-.12L15.9 9.6l-.15-.23-.03-.04a3.53 3.53 0 012.95-5.47h.04a3.55 3.55 0 013.5 3.53zm-3.53-1.59a1.58 1.58 0 100 3.17 1.58 1.58 0 000-3.17zm1.22 1.59z"/>
  <path fill="#A77FFA" d="M35.4 27.01a4.99 4.99 0 00-3.05-4.5 5.01 5.01 0 00-6.17 7.37l.04.06 3.56 5.32a.72.72 0 001.19 0l3.56-5.32.04-.06a5 5 0 00.83-2.87zm-5.02-1.79a1.9 1.9 0 110 3.8 1.9 1.9 0 010-3.8z"/>
  <path fill="#000" d="M30.4 25.04h-.02a2.15 2.15 0 10.02 0zm-.02 3.8a1.72 1.72 0 01-.01-3.44h.01a1.72 1.72 0 010 3.44zm5.2-1.83a5.17 5.17 0 00-3.04-4.62 5.2 5.2 0 00-2.09-.47h-.07a5.2 5.2 0 00-4.34 8.06l.04.06 3.56 5.32a.89.89 0 001.48 0l3.56-5.32.04-.06a5.17 5.17 0 00.86-2.97zm-1.15 2.77l-.04.06-3.57 5.32a.54.54 0 01-.89 0l-3.56-5.32-.04-.06a4.79 4.79 0 01-.7-3.63 4.84 4.84 0 014.75-3.88h.07a4.83 4.83 0 014.77 4.75v.1c0 .94-.28 1.87-.8 2.66zm-4.03-4.74h-.02a2.15 2.15 0 10.02 0zm-.02 3.8a1.72 1.72 0 01-.01-3.44h.01a1.72 1.72 0 010 3.44z"/>
</svg>
