<svg xmlns="http://www.w3.org/2000/svg" width="76" height="47" fill="none" viewBox="0 0 76 47">
  <path fill="#fff" d="M43.84 16.84a2.2 2.2 0 00-4.16.26h-3.1a1.63 1.63 0 00-.2-.5l1.1-1.1a2.2 2.2 0 001.96.1 2.2 2.2 0 10-2.79-.96l-1.12 1.13a2.2 2.2 0 101.05 2.52h3.1a1.76 1.76 0 00.2.47l-1.13 1.12a2.2 2.2 0 00-2.63.37 2.2 2.2 0 103.45 2.7 2.2 2.2 0 00.03-2.23l1.1-1.1a2.2 2.2 0 002.92-.69 2.19 2.19 0 00.22-2.1zm-6.2-3.66c.09-.18.21-.34.37-.45a1.02 1.02 0 11-.37.45zm-2.24 4.91a1.03 1.03 0 01-1.13.6 1.02 1.02 0 111.13-.6zm3.22 4.12a1.03 1.03 0 01-.83.61 1.02 1.02 0 11.83-.61zm4.12-4.12a1.02 1.02 0 01-1.13.6 1.02 1.02 0 111.13-.6z"/>
  <path fill="#fff" d="M12.84 2.2v31.22H63.1V2.2H12.84zm49.79 30.74H13.3V2.67h49.32v30.27zM12.83 2.2v31.22H63.1V2.2H12.84zm49.8 30.74H13.3V2.67h49.32v30.27zM12.83 2.2v31.22H63.1V2.2H12.84zm49.8 30.74H13.3V2.67h49.32v30.27zM12.83 2.2v31.22H63.1V2.2H12.84zm49.8 30.74H13.3V2.67h49.32v30.27zM12.83 2.2v31.22H63.1V2.2H12.84zm49.8 30.74H13.3V2.67h49.32v30.27zM12.83 2.2v31.22H63.1V2.2H12.84zm49.8 30.74H13.3V2.67h49.32v30.27zM65.9 1.95A1.72 1.72 0 0064.19.24H11.8a1.72 1.72 0 00-1.72 1.71v31.48a1.72 1.72 0 001.72 1.72h52.4a1.72 1.72 0 001.72-1.72V1.95zm-.24 31.48a1.48 1.48 0 01-1.48 1.48H11.8a1.48 1.48 0 01-1.48-1.48V1.95A1.48 1.48 0 0111.79.47h52.4a1.48 1.48 0 011.48 1.48V33.43zm-52.83-.01H63.1V2.2H12.84v31.22zm.47-30.75h49.32v30.27H13.3V2.67zm-.47-.47v31.22H63.1V2.2H12.84zm49.79 30.74H13.3V2.67h49.32v30.27zM12.83 2.2v31.22H63.1V2.2H12.84zm49.8 30.74H13.3V2.67h49.32v30.27zM12.83 2.2v31.22H63.1V2.2H12.84zm49.8 30.74H13.3V2.67h49.32v30.27zM12.83 2.2v31.22H63.1V2.2H12.84zm49.8 30.74H13.3V2.67h49.32v30.27zM12.83 2.2v31.22H63.1V2.2H12.84zm49.8 30.74H13.3V2.67h49.32v30.27zM12.83 2.2v31.22H63.1V2.2H12.84zm49.8 30.74H13.3V2.67h49.32v30.27z"/>
  <path fill="#000" d="M66.14 1.72v31.71a1.95 1.95 0 01-1.95 1.96v-.48a1.48 1.48 0 001.48-1.48V1.95A1.48 1.48 0 0064.2.47H11.8a1.48 1.48 0 00-1.48 1.48v31.48a1.48 1.48 0 001.48 1.48v.48A1.93 1.93 0 0110 34.25a1.95 1.95 0 01-.18-.82V1.95A1.95 1.95 0 0111.8 0h52.4a1.96 1.96 0 011.94 1.72h.01z"/>
  <path fill="#fff" d="M68.98 42.99l-4.35-4.13h-2.48l-2.27-2.54H16.09l-4.64 5.2h6.75L16.66 43h52.32zm-47.97-4.13l-2.3 2.19H12.5l3.8-4.26h43.36l1.85 2.07h-40.5z"/>
  <path fill="#fff" d="M75.4 42.98l-9.24-7.62a.92.92 0 00-.59-.2H10.4a.92.92 0 00-.58.2L.58 42.98a.9.9 0 00-.33.85.9.9 0 00.91.78h73.65a.9.9 0 00.69-.3c.11-.14.2-.3.22-.48a.9.9 0 00-.32-.85zm-.1 1.18a.67.67 0 01-.49.21H1.16a.66.66 0 01-.5-.2.72.72 0 01-.19-.49.66.66 0 01.26-.52l9.23-7.62c.12-.1.28-.15.43-.15h55.19c.16 0 .31.05.43.15l9.24 7.62a.66.66 0 01.25.52c0 .18-.07.35-.2.48z"/>
  <path fill="#000" d="M75.87 43.2c-.08-.15-.19-.3-.32-.4l-9.24-7.62c-.2-.17-.46-.27-.73-.27H10.39c-.27 0-.53.1-.73.27L.42 42.79c-.13.11-.24.26-.32.41a1.14 1.14 0 00-.1.63 1.19 1.19 0 00.7.92c.14.07.3.1.46.1h73.65a1.15 1.15 0 001.16-1.17c0-.16-.03-.33-.1-.48zm-.56.96a.67.67 0 01-.5.21H1.16a.66.66 0 01-.5-.2.72.72 0 01-.19-.5.66.66 0 01.26-.51l9.23-7.62c.12-.1.28-.15.43-.15h55.19c.16 0 .3.05.43.15l9.24 7.62a.66.66 0 01.25.52c0 .18-.07.35-.2.48z"/>
  <path fill="#000" d="M0 43.83v1.08a1.44 1.44 0 001.45 1.44h73.08a1.45 1.45 0 001.44-1.44v-1.08h-.47v1.08a.97.97 0 01-.97.97H1.45a.97.97 0 01-.98-.97v-1.08H0z"/>
  <path fill="#fff" d="M61.94 38.98l-.1-.12-2.07-2.3H16.2l-4.22 4.73H64l-2.06-2.3zM12.5 41.05l3.8-4.25h43.36l1.85 2.06h-40.5l-2.3 2.19H12.5z"/>
  <path fill="#000" d="M62.25 38.98l-.1-.12-2.27-2.54H16.09l-4.64 5.2h53.08l-2.28-2.54zM12.5 41.05l3.8-4.25h43.36l1.85 2.06.1.12 1.85 2.07H12.5z"/>
  <path fill="#fff" d="M43.84 16.84a2.2 2.2 0 00-4.16.26h-3.1a1.63 1.63 0 00-.2-.5l1.1-1.1a2.2 2.2 0 001.96.1 2.2 2.2 0 10-2.79-.96l-1.12 1.13a2.2 2.2 0 101.05 2.52h3.1a1.76 1.76 0 00.2.47l-1.13 1.12a2.2 2.2 0 00-2.63.37 2.2 2.2 0 103.45 2.7 2.2 2.2 0 00.03-2.23l1.1-1.1a2.2 2.2 0 002.92-.69 2.19 2.19 0 00.22-2.1zm-6.2-3.66c.09-.18.21-.34.37-.45a1.02 1.02 0 11-.37.45zm-2.24 4.91a1.03 1.03 0 01-1.13.6 1.02 1.02 0 111.13-.6zm3.22 4.12a1.03 1.03 0 01-.83.61 1.02 1.02 0 11.83-.61zm4.12-4.12a1.02 1.02 0 01-1.13.6 1.02 1.02 0 111.13-.6z"/>
  <path fill="#fff" d="M13.08 2.44v30.74h49.78V2.44H13.08zm49.54 30.5h-49.3V2.67h49.3v30.27z"/>
  <path fill="#000" d="M12.84 2.2v31.22H63.1V2.2H12.84zm49.78 30.74h-49.3V2.67h49.3v30.27z"/>
  <path fill="#000" d="M43.84 16.84a2.2 2.2 0 00-4.16.26h-3.1a1.63 1.63 0 00-.2-.5l1.1-1.1a2.2 2.2 0 001.96.1 2.2 2.2 0 10-2.79-.96l-1.12 1.13a2.2 2.2 0 101.05 2.52h3.1a1.76 1.76 0 00.2.47l-1.13 1.12a2.2 2.2 0 00-2.63.37 2.2 2.2 0 103.45 2.7 2.2 2.2 0 00.03-2.23l1.1-1.1a2.2 2.2 0 002.92-.69 2.19 2.19 0 00.22-2.1zm-6.2-3.66c.09-.18.21-.34.37-.45a1.02 1.02 0 11-.37.45zm-2.24 4.91a1.03 1.03 0 01-1.13.6 1.02 1.02 0 111.13-.6zm3.22 4.12a1.03 1.03 0 01-.83.61 1.02 1.02 0 11.83-.61zm4.12-4.12a1.02 1.02 0 01-1.13.6 1.02 1.02 0 111.13-.6z"/>
  <path fill="#C4C6FC" d="M64.58 38.98h-2.33l2.28 2.55H18.38l-1.42 1.34h51.72l-4.1-3.89z"/>
  <path fill="#C4C6FC" d="M61.62 38.98H21.06l-2.18 2.07h44.59l-1.85-2.07z"/>
  <path fill="#000" d="M62.25 38.98h-.63l1.85 2.07H18.88l-.5.48H64.53l-2.28-2.55z"/>
  <path fill="#C4C7FC" d="M68.98 42.99H16.66l1.55-1.46h.17l-1.42 1.34h51.72l-4.1-3.89h-2.33l-.1-.11h2.48l4.35 4.12z"/>
  <path fill="#C4C7FC" d="M61.62 38.98H21.06l-2.18 2.07h-.17l2.3-2.18h40.5l.1.11z"/>
  <path fill="#000" d="M18.7 41.05l-.24.24-.25.24h.17l.25-.24.25-.24h-.17zm43.45-2.19h-.64l.1.12h.64l-.1-.12z"/>
</svg>
