<svg id="041c4dfb-948c-4178-a3dc-8b61c97cb566" data-name="Layer 1" xmlns="http://www.w3.org/2000/svg" xmlns:xlink="http://www.w3.org/1999/xlink" viewBox="0 0 93.6 70.84"><defs><linearGradient id="efabe3ee-520f-4b60-9ac3-38f036109826" x1="27.17" y1="44.29" x2="61.68" y2="78.78" gradientTransform="matrix(1, 0, 0, -1, 0, 72)" gradientUnits="userSpaceOnUse"><stop offset="0.22" stop-color="#ff298a"/><stop offset="0.91" stop-color="#ff4f5e"/></linearGradient><linearGradient id="76141aa1-4767-4c43-82d6-bd9b26297e9b" x1="48.08" y1="19.28" x2="82.59" y2="53.78" gradientTransform="matrix(1, 0, 0, -1, 0, 72)" gradientUnits="userSpaceOnUse"><stop offset="0" stop-color="#00b3f4"/><stop offset="0.58" stop-color="#1abdc2"/><stop offset="1" stop-color="#2ac3a2"/></linearGradient><linearGradient id="ea2e7ab6-059b-4a2a-8715-45a409434453" x1="11.01" y1="-5.62" x2="45.52" y2="28.88" gradientTransform="matrix(1, 0, 0, -1, 0, 72)" gradientUnits="userSpaceOnUse"><stop offset="0" stop-color="#7542e5"/><stop offset="0.39" stop-color="#8b55f0"/><stop offset="1" stop-color="#ab71ff"/></linearGradient></defs><title>manage-password</title><g id="33571756-772c-4a86-88f2-ac984710084e" data-name="Layer 2"><g id="55a1b4d8-6747-4e63-899e-59432e91ae9a" data-name="Layer 1-2"><path d="M23.36,20.93H65.49a7.22,7.22,0,0,0,7.2-7.2V7.2A7.22,7.22,0,0,0,65.49,0H23.36a7.22,7.22,0,0,0-7.2,7.2v6.53A7.22,7.22,0,0,0,23.36,20.93ZM53.26,9.47A.4.4,0,0,1,53,9.23a.42.42,0,0,1,0-.33l1-1.49a.36.36,0,0,1,.27-.19.41.41,0,0,1,.32.08l2,1.48-.3-2.43a.42.42,0,0,1,0-.35.41.41,0,0,1,.3-.14h1.74a.41.41,0,0,1,.31.14.42.42,0,0,1,.1.32l-.31,2.44,2-1.47a.42.42,0,0,1,.33-.08.45.45,0,0,1,.27.2L61.85,9a.38.38,0,0,1,0,.33.39.39,0,0,1-.23.24l-2.27,1,2.27.94a.41.41,0,0,1,.23.25.38.38,0,0,1,0,.33L61,13.5a.4.4,0,0,1-.27.19.41.41,0,0,1-.32-.08l-1.92-1.47.31,2.44a.41.41,0,0,1-.36.46H56.6a.41.41,0,0,1-.4-.46l.31-2.46-2,1.5a.41.41,0,0,1-.57-.09l0,0L53.07,12a.38.38,0,0,1,0-.33.42.42,0,0,1,.23-.24l2.27-.95Zm-13,0A.39.39,0,0,1,40,9.23a.42.42,0,0,1,0-.33l.87-1.49a.4.4,0,0,1,.27-.19.41.41,0,0,1,.32.08l2,1.48-.31-2.43a.42.42,0,0,1,.1-.32.41.41,0,0,1,.31-.14H45.3a.41.41,0,0,1,.3.14.42.42,0,0,1,.1.32l-.3,2.44,2-1.47a.42.42,0,0,1,.33-.08.45.45,0,0,1,.27.2L48.81,9a.45.45,0,0,1-.22.57l-2.28,1,2.28.94a.43.43,0,0,1,.23.25.42.42,0,0,1,0,.33l-.89,1.51a.4.4,0,0,1-.28.19.41.41,0,0,1-.32-.08l-1.91-1.47.3,2.44a.41.41,0,0,1-.4.46H43.57a.41.41,0,0,1-.41-.46l.31-2.46-2,1.5a.42.42,0,0,1-.33.07.45.45,0,0,1-.27-.2L40,12a.47.47,0,0,1,0-.33.42.42,0,0,1,.23-.24l2.28-.95Zm-13,0A.39.39,0,0,1,27,9.23a.42.42,0,0,1,0-.33l.87-1.49a.4.4,0,0,1,.27-.19.43.43,0,0,1,.33.08l2,1.48-.31-2.43a.47.47,0,0,1,.1-.32.41.41,0,0,1,.31-.14h1.74a.37.37,0,0,1,.3.14.39.39,0,0,1,.1.32l-.3,2.44,2-1.47a.44.44,0,0,1,.33-.08.45.45,0,0,1,.27.2L35.78,9a.47.47,0,0,1,0,.33.39.39,0,0,1-.23.24l-2.28,1,2.28.94a.43.43,0,0,1,.23.25.39.39,0,0,1,0,.33l-.89,1.51a.4.4,0,0,1-.27.19.42.42,0,0,1-.33-.08l-1.91-1.47.3,2.44a.41.41,0,0,1-.36.46H30.53a.41.41,0,0,1-.31-.14.46.46,0,0,1-.1-.32l.31-2.46-2,1.5a.42.42,0,0,1-.33.07.45.45,0,0,1-.27-.2L27,12a.38.38,0,0,1,0-.33.4.4,0,0,1,.22-.24l2.28-.95Z" fill="url(#efabe3ee-520f-4b60-9ac3-38f036109826)"/><path d="M86.4,25H44.27a7.22,7.22,0,0,0-7.2,7.2v6.54a7.22,7.22,0,0,0,7.2,7.2H86.4a7.22,7.22,0,0,0,7.2-7.2V32.15A7.22,7.22,0,0,0,86.4,25ZM56.49,36.36a.43.43,0,0,1,.23.25.42.42,0,0,1,0,.33l-.89,1.51a.4.4,0,0,1-.28.19.38.38,0,0,1-.32-.08l-1.91-1.47.3,2.45a.41.41,0,0,1-.37.45H51.44a.41.41,0,0,1-.31-.14.39.39,0,0,1-.1-.31l.31-2.47-2,1.5a.38.38,0,0,1-.33.07.42.42,0,0,1-.27-.2l-.85-1.5a.48.48,0,0,1,0-.33.43.43,0,0,1,.23-.25l2.28-1-2.28-1a.43.43,0,0,1-.23-.25.42.42,0,0,1,0-.33l.87-1.49A.44.44,0,0,1,49,32.1a.41.41,0,0,1,.32.08l2,1.49L51,31.3a.42.42,0,0,1,.1-.32.44.44,0,0,1,.31-.13h1.74a.42.42,0,0,1,.3.13.39.39,0,0,1,.1.32l-.3,2.44,2-1.47a.39.39,0,0,1,.33-.07.4.4,0,0,1,.27.19l.85,1.51a.47.47,0,0,1,0,.33.43.43,0,0,1-.23.25l-2.28.94Zm13,0a.47.47,0,0,1,.23.25.42.42,0,0,1,0,.33l-.9,1.51a.36.36,0,0,1-.27.19.38.38,0,0,1-.32-.08l-1.92-1.47.31,2.45a.39.39,0,0,1-.1.31.41.41,0,0,1-.3.14H64.47a.41.41,0,0,1-.3-.14.39.39,0,0,1-.1-.31l.31-2.47-2,1.5a.39.39,0,0,1-.33.07.42.42,0,0,1-.27-.2l-.85-1.5a.46.46,0,0,1,.23-.58l2.27-1-2.28-1a.45.45,0,0,1-.22-.25.39.39,0,0,1,0-.33l.87-1.49a.4.4,0,0,1,.55-.14l0,0,2,1.49-.31-2.44a.42.42,0,0,1,.1-.32.43.43,0,0,1,.3-.13h1.75a.43.43,0,0,1,.3.13.42.42,0,0,1,.1.32l-.31,2.44,2-1.47a.38.38,0,0,1,.33-.07.4.4,0,0,1,.27.19l.84,1.51a.38.38,0,0,1,0,.33.42.42,0,0,1-.22.25l-2.28.94Zm13,0a.41.41,0,0,1,.23.25.38.38,0,0,1,0,.33l-.9,1.51a.4.4,0,0,1-.27.19.38.38,0,0,1-.32-.08l-1.92-1.47.31,2.45a.43.43,0,0,1-.1.31.41.41,0,0,1-.31.14h-1.7a.39.39,0,0,1-.3-.14.36.36,0,0,1-.1-.31l.3-2.47-2,1.5a.4.4,0,0,1-.33.07.37.37,0,0,1-.27-.2L74,36.94a.39.39,0,0,1,0-.33.43.43,0,0,1,.23-.25l2.27-1-2.28-1a.42.42,0,0,1-.22-.25.38.38,0,0,1,0-.33l.87-1.49a.43.43,0,0,1,.28-.19.41.41,0,0,1,.32.08l2,1.49-.3-2.44a.39.39,0,0,1,.1-.32.42.42,0,0,1,.3-.13h1.74a.44.44,0,0,1,.31.13.47.47,0,0,1,.1.32l-.31,2.44,2-1.47a.37.37,0,0,1,.32-.07.36.36,0,0,1,.27.19l.85,1.51a.38.38,0,0,1,0,.33.43.43,0,0,1-.23.25l-2.27.94Z" fill="url(#76141aa1-4767-4c43-82d6-bd9b26297e9b)"/><path d="M49.33,49.9H7.2A7.22,7.22,0,0,0,0,57.1v6.54a7.22,7.22,0,0,0,7.2,7.2H49.33a7.22,7.22,0,0,0,7.2-7.2V57.1A7.22,7.22,0,0,0,49.33,49.9ZM19.42,61.31a.43.43,0,0,1,.23.25.41.41,0,0,1,0,.34l-.89,1.5a.4.4,0,0,1-.27.19.39.39,0,0,1-.33-.07l-2-1.52.3,2.45a.39.39,0,0,1-.1.32.4.4,0,0,1-.3.13H14.37a.44.44,0,0,1-.31-.13.42.42,0,0,1-.09-.32l.3-2.47-2,1.5a.37.37,0,0,1-.32.07.39.39,0,0,1-.28-.2l-.84-1.5a.38.38,0,0,1,0-.33.42.42,0,0,1,.22-.25l2.28-1-2.28-1a.39.39,0,0,1-.22-.25.38.38,0,0,1,0-.33l.87-1.48A.45.45,0,0,1,12,57a.43.43,0,0,1,.33.08l2,1.49L14,56.25a.38.38,0,0,1,.09-.31.41.41,0,0,1,.31-.14h1.74a.37.37,0,0,1,.3.14.36.36,0,0,1,.1.31l-.3,2.45,2-1.48a.4.4,0,0,1,.33-.07.37.37,0,0,1,.27.2l.85,1.5a.39.39,0,0,1,0,.33.43.43,0,0,1-.23.25l-2.27.94Zm13,0a.43.43,0,0,1,.23.25.45.45,0,0,1,0,.34l-.89,1.5a.4.4,0,0,1-.28.19.37.37,0,0,1-.32-.07L29.25,62l.3,2.45a.39.39,0,0,1-.1.32.42.42,0,0,1-.3.13H27.41a.44.44,0,0,1-.31-.13.47.47,0,0,1-.1-.32L27.31,62l-2,1.5a.41.41,0,0,1-.57-.09l0,0-.84-1.5a.42.42,0,0,1,0-.33.43.43,0,0,1,.23-.25l2.28-1-2.28-1a.43.43,0,0,1-.23-.25.42.42,0,0,1,0-.33l.87-1.48A.45.45,0,0,1,25,57a.4.4,0,0,1,.32.08l2,1.49L27,56.25a.43.43,0,0,1,.1-.31.41.41,0,0,1,.31-.14h1.74a.39.39,0,0,1,.3.14.36.36,0,0,1,.1.31l-.3,2.45,2-1.48a.41.41,0,0,1,.57.09l0,0,.85,1.5a.47.47,0,0,1,0,.33.43.43,0,0,1-.23.25l-2.28.94Zm13,0a.47.47,0,0,1,.23.25.45.45,0,0,1,0,.34l-.9,1.5a.36.36,0,0,1-.27.19.37.37,0,0,1-.32-.07L42.29,62l.3,2.45a.42.42,0,0,1-.1.32.43.43,0,0,1-.3.13H40.44a.43.43,0,0,1-.3-.13.42.42,0,0,1-.1-.32L40.35,62l-2,1.5a.41.41,0,0,1-.57-.09l0,0-.85-1.5a.42.42,0,0,1,0-.33.43.43,0,0,1,.23-.25l2.27-1-2.28-1A.45.45,0,0,1,36.9,59a.39.39,0,0,1,0-.33l.87-1.48A.43.43,0,0,1,38,57a.41.41,0,0,1,.32.08l2,1.49L40,56.25a.39.39,0,0,1,.1-.31.41.41,0,0,1,.3-.14h1.75a.41.41,0,0,1,.3.14.39.39,0,0,1,.1.31l-.31,2.45,2-1.48a.41.41,0,0,1,.57.09l0,0,.84,1.5a.39.39,0,0,1,0,.33.42.42,0,0,1-.22.25l-2.28.94Z" fill="url(#ea2e7ab6-059b-4a2a-8715-45a409434453)"/></g></g></svg>