<!-- This Source Code Form is subject to the terms of the Mozilla Public
   - License, v. 2.0. If a copy of the MPL was not distributed with this
   - file, You can obtain one at http://mozilla.org/MPL/2.0/. -->
<svg width="24" height="24" viewBox="0 0 24 24" xmlns="http://www.w3.org/2000/svg"><path d="M19 3H5a3 3 0 0 0-3 3v8a3 3 0 0 0 3 3h7.6l3.7 3.7A1 1 0 0 0 18 20v-3h1a3 3 0 0 0 3-3V6a3 3 0 0 0-3-3zm1 11c0 .6-.4 1-1 1h-2a1 1 0 0 0-1 1v1.6l-2.3-2.3a1 1 0 0 0-.7-.3H5a1 1 0 0 1-1-1V6c0-.6.4-1 1-1h14c.6 0 1 .4 1 1v8zm-3.5-6h-9a.5.5 0 0 0 0 1h9a.5.5 0 0 0 0-1zm0 3h-9a.5.5 0 0 0 0 1h9a.5.5 0 0 0 0-1z" fill="#89201f" fill-opacity="1"></path></svg>
