<svg xmlns="http://www.w3.org/2000/svg" xmlns:xlink="http://www.w3.org/1999/xlink" viewBox="0 0 118.92 72.07"><defs><linearGradient id="a" x1="93.18" y1="42.54" x2="167.06" y2="116.42" gradientTransform="matrix(1, 0, 0, -1, -48.54, 110.04)" gradientUnits="userSpaceOnUse"><stop offset="0.28" stop-color="#7542e5"/><stop offset="0.42" stop-color="#824deb"/><stop offset="0.79" stop-color="#a067fa"/><stop offset="1" stop-color="#ab71ff"/></linearGradient><linearGradient id="b" x1="25.24" y1="35.74" x2="111.16" y2="121.65" gradientTransform="matrix(1, 0, 0, -1, -48.54, 110.04)" gradientUnits="userSpaceOnUse"><stop offset="0.22" stop-color="#b833e1"/><stop offset="0.91" stop-color="#ee0700"/></linearGradient><linearGradient id="c" x1="94.85" y1="39.28" x2="151.3" y2="95.73" gradientTransform="matrix(1, 0, 0, -1, 0, 146)" gradientUnits="userSpaceOnUse"><stop offset="0" stop-color="#0090ed"/><stop offset="0.27" stop-color="#2a88f1"/><stop offset="0.86" stop-color="#9275fc"/><stop offset="1" stop-color="#ab71ff"/></linearGradient></defs><title>pictogram-email</title><rect x="75.01" width="43.91" height="30.36" rx="6.73" fill="url(#a)"/><path d="M127.78,59.8a1.09,1.09,0,0,0,1.52.25h0l11.11-8,.09.06a7.56,7.56,0,0,0,6.86,1.47,9.61,9.61,0,0,0,3.15-1.45l.08-.06,11.07,8A1.12,1.12,0,1,0,163,58.27l-10.54-7.63,8.27-6.22a1.1,1.1,0,0,0,.42-.72,1.07,1.07,0,0,0-.21-.81,1,1,0,0,0-.72-.43H160a1.11,1.11,0,0,0-.66.22L149.2,50.33s-3.85,2.82-7.36,0l-10.16-7.66a1.12,1.12,0,0,0-1.53.22,1.07,1.07,0,0,0-.21.81,1.1,1.1,0,0,0,.42.72l8.23,6.2L128,58.27a1,1,0,0,0-.44.71A1.1,1.1,0,0,0,127.78,59.8Z" transform="translate(-48.54 -35.96)" fill="#f9f9fa"/><rect y="8.47" width="50.3" height="34.78" rx="6.73" fill="url(#b)"/><path d="M53.39,71.73a1.24,1.24,0,0,0,1.74.28h0l12.73-9.22.1.08a8.71,8.71,0,0,0,7.87,1.68,11,11,0,0,0,3.6-1.67l.09-.06L92.22,72a1.25,1.25,0,0,0,1.47-2L81.62,61.24l9.47-7.13a1.26,1.26,0,0,0-.58-2.24h-.18a1.27,1.27,0,0,0-.75.25L77.93,60.88s-4.42,3.24-8.43,0L57.86,52.11a1.29,1.29,0,0,0-1.76.25,1.24,1.24,0,0,0,.23,1.74h0l9.43,7.1L53.67,70a1.25,1.25,0,0,0-.5.82A1.27,1.27,0,0,0,53.39,71.73Z" transform="translate(-48.54 -35.96)" fill="#f9f9fa"/><path d="M140.28,101.89V75.74a7.19,7.19,0,0,0-.43-2.43c-.07-.2-.16-.39-.25-.59a2.28,2.28,0,0,0-.48-.67c-.5-.49-1.51-1.34-3.19-2.68l-.19-.15c-6.09-4.87-18-13.85-18.1-13.94a8.18,8.18,0,0,0-4.84-2,7.92,7.92,0,0,0-4.8,2c-.12.09-12.11,9.16-18.08,13.93l-.2.16C88.1,70.67,87.1,71.5,86.59,72a2.24,2.24,0,0,0-.48.66L86,73l-.21.21v.35a7.19,7.19,0,0,0-.35,2.21v26.12a2,2,0,0,0-.08.33,2.3,2.3,0,0,0,.18,1.32,7.44,7.44,0,0,0,1.14,1.94,6,6,0,0,0,.56.57,1.29,1.29,0,0,0,.17.16,1.07,1.07,0,0,0,.16.14A7.16,7.16,0,0,0,91.19,108h.36a3.36,3.36,0,0,0,.63.06h41.4a7.08,7.08,0,0,0,6.56-4.37A2.32,2.32,0,0,0,140.28,101.89Z" transform="translate(-48.54 -35.96)" fill="url(#c)"/><path d="M135,79.94a1.37,1.37,0,0,0-1.91-.31L119.18,89.69l-.11-.08a9.47,9.47,0,0,0-8.58-1.84,12,12,0,0,0-3.94,1.82l-.09.07-13.85-10a1.37,1.37,0,0,0-1.89,2,1.79,1.79,0,0,0,.28.2l13.17,9.53L93.85,99.16a1.38,1.38,0,0,0-.53.91,1.33,1.33,0,0,0,.26,1,1.36,1.36,0,0,0,.9.53h.19a1.34,1.34,0,0,0,.82-.27l12.71-9.57s4.82-3.53,9.2,0l12.71,9.57a1.41,1.41,0,0,0,1.92-.27,1.34,1.34,0,0,0,.26-1,1.38,1.38,0,0,0-.53-.91L121.47,91.4l13.21-9.56a1.41,1.41,0,0,0,.55-.89A1.35,1.35,0,0,0,135,79.94Z" transform="translate(-48.54 -35.96)" fill="#f9f9fa"/></svg>