<svg xmlns="http://www.w3.org/2000/svg" viewBox="0 0 216 144">
  <defs>
    <style>
      .b{fill:#f9f9fa}
    </style>
    <linearGradient id="a" x1="93.18" y1="103.46" x2="167.06" y2="29.58" gradientUnits="userSpaceOnUse">
      <stop offset=".28" stop-color="#7542e5"/>
      <stop offset=".42" stop-color="#824deb"/>
      <stop offset=".79" stop-color="#a067fa"/>
      <stop offset="1" stop-color="#ab71ff"/>
    </linearGradient>
    <linearGradient id="b" x1="25.24" y1="110.26" x2="111.16" y2="24.35" gradientUnits="userSpaceOnUse">
      <stop offset=".22" stop-color="#b833e1"/>
      <stop offset=".91" stop-color="#ff4f5e"/>
    </linearGradient>
    <linearGradient id="c" x1="94.85" y1="106.72" x2="151.3" y2="50.27" gradientUnits="userSpaceOnUse">
      <stop offset="0" stop-color="#0090ed"/>
      <stop offset=".27" stop-color="#2a88f1"/>
      <stop offset=".86" stop-color="#9275fc"/>
      <stop offset="1" stop-color="#ab71ff"/>
    </linearGradient>
  </defs>
  <rect x="123.55" y="35.96" width="43.91" height="30.36" rx="6.73" fill="url(#a)"/>
  <path class="b" d="M127.78 59.8a1.09 1.09 0 0 0 1.53.24l11.11-8 .09.06a7.56 7.56 0 0 0 6.86 1.47 9.58 9.58 0 0 0 3.15-1.45l.08-.06 11.07 8a1.1 1.1 0 0 0 1.33-1.79l-10.54-7.63 8.27-6.22a1.1 1.1 0 0 0 .42-.72 1.07 1.07 0 0 0-.21-.81 1 1 0 0 0-.72-.43H160a1.11 1.11 0 0 0-.66.22l-10.14 7.65s-3.85 2.82-7.36 0l-10.16-7.66a1.12 1.12 0 0 0-1.53.22 1.07 1.07 0 0 0-.21.81 1.1 1.1 0 0 0 .42.72l8.23 6.2L128 58.27a1 1 0 0 0-.44.71 1.09 1.09 0 0 0 .22.82z"/>
  <rect x="48.54" y="44.43" width="50.3" height="34.78" rx="6.73" fill="url(#b)"/>
  <path class="b" d="M53.39 71.73a1.25 1.25 0 0 0 1.75.28l12.73-9.22.1.08a8.69 8.69 0 0 0 7.87 1.68 10.87 10.87 0 0 0 3.6-1.67l.09-.06L92.22 72a1.25 1.25 0 0 0 1.47-2l-12.07-8.76 9.47-7.13a1.25 1.25 0 0 0 .24-1.75 1.24 1.24 0 0 0-.82-.49h-.18a1.27 1.27 0 0 0-.75.25l-11.65 8.76s-4.42 3.24-8.43 0l-11.64-8.77a1.29 1.29 0 0 0-1.76.25 1.24 1.24 0 0 0 .25 1.75l9.43 7.1L53.67 70a1.25 1.25 0 0 0-.5.82 1.28 1.28 0 0 0 .22.91z"/>
  <path d="M140.28 101.89V75.74a7.19 7.19 0 0 0-.43-2.43c-.07-.2-.16-.39-.25-.59a2.28 2.28 0 0 0-.48-.67c-.5-.49-1.51-1.34-3.19-2.68l-.19-.15c-6.09-4.87-18-13.85-18.1-13.94a8.18 8.18 0 0 0-4.84-2 7.92 7.92 0 0 0-4.8 2c-.12.09-12.11 9.16-18.08 13.93l-.2.16c-1.62 1.3-2.62 2.13-3.13 2.63a2.38 2.38 0 0 0-.48.66L86 73l-.21.21v.35a7.15 7.15 0 0 0-.35 2.21v26.12a2 2 0 0 0-.08.33 2.3 2.3 0 0 0 .18 1.32 7.44 7.44 0 0 0 1.14 1.94 6.13 6.13 0 0 0 .56.57 1.29 1.29 0 0 0 .17.16 1 1 0 0 0 .16.14 7.12 7.12 0 0 0 3.62 1.62h.36a4.05 4.05 0 0 0 .63.06h41.4a7.08 7.08 0 0 0 6.56-4.37 2.35 2.35 0 0 0 .14-1.77z" fill="url(#c)"/>
  <path class="b" d="M135 79.94a1.37 1.37 0 0 0-1.91-.31l-13.91 10.06-.11-.08a9.46 9.46 0 0 0-8.58-1.84 12.09 12.09 0 0 0-3.94 1.82l-.09.07-13.85-10A1.37 1.37 0 1 0 91 81.85l13.17 9.53-10.32 7.78a1.34 1.34 0 0 0-.53.91 1.31 1.31 0 0 0 .26 1 1.36 1.36 0 0 0 .9.53h.19a1.34 1.34 0 0 0 .82-.27l12.71-9.57s4.82-3.53 9.2 0l12.71 9.57a1.41 1.41 0 0 0 1.92-.27 1.35 1.35 0 0 0 .26-1 1.38 1.38 0 0 0-.53-.91l-10.29-7.75 13.21-9.56a1.41 1.41 0 0 0 .55-.89 1.37 1.37 0 0 0-.23-1.01z"/>
</svg>
