<svg xmlns="http://www.w3.org/2000/svg" xmlns:xlink="http://www.w3.org/1999/xlink" viewBox="0 0 216 144">
  <defs>
    <linearGradient id="a" x1="25.91" y1="111.69" x2="89.31" y2="48.29" gradientUnits="userSpaceOnUse">
      <stop offset=".28" stop-color="#7542e5"/>
      <stop offset=".42" stop-color="#824deb"/>
      <stop offset=".79" stop-color="#a067fa"/>
      <stop offset="1" stop-color="#ab71ff"/>
    </linearGradient>
    <linearGradient id="c" x1="26.09" y1="111.88" x2="89.5" y2="48.47" xlink:href="#a"/>
    <linearGradient id="d" x1="25.91" y1="111.7" x2="89.32" y2="48.29" xlink:href="#a"/>
    <linearGradient id="e" x1="98.98" y1="102.04" x2="153.03" y2="47.98" gradientUnits="userSpaceOnUse">
      <stop offset="0" stop-color="#0090ed"/>
      <stop offset=".11" stop-color="#088fee"/>
      <stop offset=".29" stop-color="#1d8bf0"/>
      <stop offset=".5" stop-color="#4084f4"/>
      <stop offset=".74" stop-color="#707cf9"/>
      <stop offset="1" stop-color="#ab71ff"/>
    </linearGradient>
    <linearGradient id="b" x1="115.25" y1="66.09" x2="69.52" y2="113.13" gradientUnits="userSpaceOnUse">
      <stop offset="0" stop-color="#ff7139"/>
      <stop offset=".22" stop-color="#ff624a"/>
      <stop offset=".66" stop-color="#ff3c75"/>
      <stop offset=".86" stop-color="#ff298a"/>
    </linearGradient>
    <linearGradient id="f" x1="177.15" y1="66.09" x2="131.41" y2="113.13" xlink:href="#b"/>
  </defs>
  <path d="M67.21 44.69a21.8 21.8 0 0 0-21.78 21.78 3.11 3.11 0 0 0 6.22 0 15.56 15.56 0 0 1 31.12 0 25.56 25.56 0 0 1-3.55 13.32c-1.32 2.52-2.67 5.12-2.67 8.46a3.11 3.11 0 0 0 6.22 0c0-1.81.82-3.39 2-5.58A31.66 31.66 0 0 0 89 66.47a21.8 21.8 0 0 0-21.79-21.78z" fill="url(#a)"/>
  <path d="M67.21 54a12.46 12.46 0 0 0-12.45 12.47c0 2-1.56 6.22-6.22 6.22a3.11 3.11 0 1 0 0 6.22A12.47 12.47 0 0 0 61 66.47a6.22 6.22 0 0 1 12.44 0c0 7.77-2.63 11.26-5.42 15a34.15 34.15 0 0 0-3.58 5.44A3.1 3.1 0 0 0 65.82 91a3.15 3.15 0 0 0 1.39.33A3.1 3.1 0 0 0 70 89.64a29 29 0 0 1 3-4.47c3-3.94 6.68-8.84 6.68-18.7A12.46 12.46 0 0 0 67.21 54z" fill="url(#c)"/>
  <path d="M67.21 63.36a3.11 3.11 0 0 0-3.11 3.11c0 13.09-16.38 18.77-16.55 18.83a3.11 3.11 0 0 0 2 5.9c.85-.28 20.79-7.13 20.79-24.73a3.11 3.11 0 0 0-3.13-3.11z" fill="url(#d)"/>
  <path d="M141.46 58.18v11.69c0 3.94.77 5.16 2.48 5.16 2.53 0 4.24-2.53 4.24-10.09 0-8.35-4.81-13.61-14.82-13.61-10.34 0-16.3 7-16.3 16.9 0 10.09 5.72 16.66 16.35 16.66a29 29 0 0 0 9.29-1.64l1.67 4.69a32.29 32.29 0 0 1-11 2c-13.58 0-22.54-8.45-22.54-21.64 0-12.67 9.39-21.92 22.54-21.92 13.49 0 21 8.83 21 18.5 0 8.31-3.81 14.5-10.2 14.5a6.09 6.09 0 0 1-6.24-4.78 7.27 7.27 0 0 1-6.87 4.59c-5.81 0-8.58-4.41-8.58-10.46 0-7.84 4.1-12.58 10.92-12.58a17.21 17.21 0 0 1 8.06 2.03zm-5.76 13.9V60.9a6 6 0 0 0-2.48-.51c-2.86 0-4.58 2.3-4.58 8.31 0 4.41 1.05 6.19 3.29 6.19a4.13 4.13 0 0 0 3.77-2.81z" fill="url(#e)"/>
  <path d="M108.19 92.69L96.85 70a4.57 4.57 0 0 0-8.18 0L77.33 92.69a4.58 4.58 0 0 0 4.1 6.62h22.66a4.58 4.58 0 0 0 4.1-6.62zM90.47 76.43a2.29 2.29 0 1 1 4.58 0v9.15a2.29 2.29 0 0 1-4.58 0zm2.29 18.88a2.86 2.86 0 1 1 2.86-2.86 2.86 2.86 0 0 1-2.86 2.86z" fill="url(#b)"/>
  <path d="M170.08 92.69L158.75 70a4.58 4.58 0 0 0-8.19 0l-11.33 22.69a4.57 4.57 0 0 0 4.09 6.62H166a4.57 4.57 0 0 0 4.08-6.62zm-17.71-16.26a2.29 2.29 0 1 1 4.57 0v9.15a2.29 2.29 0 1 1-4.57 0zm2.28 18.88a2.86 2.86 0 1 1 2.86-2.86 2.86 2.86 0 0 1-2.86 2.86z" fill="url(#f)"/>
</svg>
