<svg xmlns="http://www.w3.org/2000/svg" viewBox="0 0 216 144">
  <defs>
    <style>
      .a{fill:url(#a)}.c{fill:#f9f9fa}
    </style>
    <linearGradient id="a" x1="79.04" y1="114.52" x2="129.23" y2="64.33" gradientUnits="userSpaceOnUse">
      <stop offset="0" stop-color="#ff298a"/>
      <stop offset="1" stop-color="#ff7139"/>
    </linearGradient>
    <linearGradient id="b" x1="107.05" y1="83.17" x2="172.92" y2="24.96" gradientUnits="userSpaceOnUse">
      <stop offset="0" stop-color="#0090ed"/>
      <stop offset=".68" stop-color="#737bf9"/>
      <stop offset="1" stop-color="#ab71ff"/>
    </linearGradient>
    <clipPath id="d">
      <path class="a" d="M107.17 59.58A26.8 26.8 0 1 0 134 86.38a26.8 26.8 0 0 0-26.83-26.8zm0 7.66a11.49 11.49 0 1 1-11.48 11.49 11.49 11.49 0 0 1 11.48-11.49zm15.75 29.89a19 19 0 0 1-31.5 0 3.86 3.86 0 0 1 .26-4.71c4-4.67 9.66 1.62 15.49 1.62s11.45-6.29 15.49-1.62a3.86 3.86 0 0 1 .26 4.71z"/>
    </clipPath>
    <linearGradient id="e" x1="80.94" y1="110.78" x2="128.54" y2="63.18" gradientUnits="userSpaceOnUse">
      <stop offset="0" stop-color="#ff298a"/>
      <stop offset=".72" stop-color="#ff7139"/>
    </linearGradient>
    <linearGradient id="f" x1="-22.19" y1="144.21" x2="95.74" y2="41.44" gradientUnits="userSpaceOnUse">
      <stop offset=".28" stop-color="#7542e5"/>
      <stop offset=".42" stop-color="#824deb"/>
      <stop offset=".79" stop-color="#a067fa"/>
      <stop offset="1" stop-color="#ab71ff"/>
    </linearGradient>
  </defs>
  <path d="M159.78 30.82h-39.19a8.52 8.52 0 0 0-8.52 8.51V61a8.52 8.52 0 0 0 8.52 8.51h20.51l10.42 12.76a3.51 3.51 0 0 0 6.23-2.27V69.47h2a8.52 8.52 0 0 0 8.54-8.47V39.33a8.52 8.52 0 0 0-8.51-8.51z" fill="url(#b)"/>
  <path class="c" d="M150 46.55a1.35 1.35 0 0 0-1-.9l-5-.88-2.34-4.71a1.34 1.34 0 0 0-2.4 0l-2.35 4.71-5 .88a1.35 1.35 0 0 0-.74 2.24l3.56 3.83-.68 5.28a1.33 1.33 0 0 0 .55 1.28 1.35 1.35 0 0 0 .77.24 1.32 1.32 0 0 0 .62-.15l4.5-2.34L145 58.4a1.34 1.34 0 0 0 1.39-.09 1.32 1.32 0 0 0 .56-1.28l-.74-5.31 3.56-3.83a1.32 1.32 0 0 0 .23-1.34z"/>
  <path class="a" d="M107.17 59.58A26.8 26.8 0 1 0 134 86.38a26.8 26.8 0 0 0-26.83-26.8zm0 7.66a11.49 11.49 0 1 1-11.48 11.49 11.49 11.49 0 0 1 11.48-11.49zm15.75 29.89a19 19 0 0 1-31.5 0 3.86 3.86 0 0 1 .26-4.71c4-4.67 9.66 1.62 15.49 1.62s11.45-6.29 15.49-1.62a3.86 3.86 0 0 1 .26 4.71z"/>
  <g clip-path="url(#d)">
    <circle cx="107.62" cy="84.1" r="25.42" fill="url(#e)"/>
  </g>
  <circle class="c" cx="107.17" cy="78.73" r="11.49"/>
  <path class="c" d="M107.17 94c-5.83 0-11.44-6.29-15.49-1.62a3.86 3.86 0 0 0-.26 4.71 19 19 0 0 0 31.5 0 3.86 3.86 0 0 0-.26-4.71C118.62 87.75 113 94 107.17 94z"/>
  <path d="M47.71 54.4v17.7a7 7 0 0 0 7 7h1.66v8.6a2.89 2.89 0 0 0 1.91 2.71 3 3 0 0 0 1 .16 2.88 2.88 0 0 0 2.23-1L70 79.07h16.76a7 7 0 0 0 7-7V54.4a7 7 0 0 0-7-7H54.67a7 7 0 0 0-6.96 7z" fill="url(#f)"/>
  <path class="c" d="M78.67 57.07a4.84 4.84 0 0 0-6.81 0l-1 1-1-1a4.82 4.82 0 0 0-6.81 6.82l7 7a1.16 1.16 0 0 0 1.66 0l7-7a4.83 4.83 0 0 0-.04-6.82z"/>
</svg>
