<svg xmlns="http://www.w3.org/2000/svg" xmlns:xlink="http://www.w3.org/1999/xlink" viewBox="0 0 120.58 82.36"><defs><linearGradient id="a" x1="107.06" y1="62.82" x2="172.93" y2="121.03" gradientTransform="matrix(1, 0, 0, -1, 0, 146)" gradientUnits="userSpaceOnUse"><stop offset="0" stop-color="#0090ed"/><stop offset="0.68" stop-color="#737bf9"/><stop offset="1" stop-color="#ab71ff"/></linearGradient><linearGradient id="b" x1="79.05" y1="31.47" x2="129.24" y2="81.66" gradientTransform="matrix(1, 0, 0, -1, 0, 146)" gradientUnits="userSpaceOnUse"><stop offset="0" stop-color="#ff298a"/><stop offset="1" stop-color="#ff7139"/></linearGradient><clipPath id="c" transform="translate(-47.71 -30.82)"><path d="M107.17,59.58A26.8,26.8,0,1,0,134,86.38a26.8,26.8,0,0,0-26.83-26.8Zm0,7.66a11.49,11.49,0,1,1-11.48,11.5h0A11.5,11.5,0,0,1,107.17,67.24Zm15.75,29.89a19,19,0,0,1-31.5,0,3.86,3.86,0,0,1,.26-4.71c4-4.67,9.66,1.62,15.49,1.62s11.45-6.29,15.49-1.62A3.86,3.86,0,0,1,122.92,97.13Z" fill="none"/></clipPath><linearGradient id="d" x1="80.94" y1="35.22" x2="128.54" y2="82.82" gradientTransform="matrix(1, 0, 0, -1, -47.71, 115.18)" gradientUnits="userSpaceOnUse"><stop offset="0" stop-color="#ff298a"/><stop offset="0.72" stop-color="#ff7139"/></linearGradient><linearGradient id="e" x1="-22.19" y1="1.79" x2="95.74" y2="104.56" gradientTransform="matrix(1, 0, 0, -1, 0, 146)" gradientUnits="userSpaceOnUse"><stop offset="0.28" stop-color="#7542e5"/><stop offset="0.42" stop-color="#824deb"/><stop offset="0.79" stop-color="#a067fa"/><stop offset="1" stop-color="#ab71ff"/></linearGradient></defs><title>pictogram-advice</title><path d="M159.78,30.82H120.59a8.52,8.52,0,0,0-8.52,8.51V61a8.52,8.52,0,0,0,8.52,8.51H141.1l10.42,12.76A3.51,3.51,0,0,0,157.75,80V69.47h2A8.53,8.53,0,0,0,168.29,61V39.33a8.52,8.52,0,0,0-8.51-8.51Z" transform="translate(-47.71 -30.82)" fill="url(#a)"/><path d="M150,46.55a1.34,1.34,0,0,0-1-.9l-5-.88-2.34-4.71a1.34,1.34,0,0,0-2.4,0l-2.35,4.71-5,.88a1.35,1.35,0,0,0-1.07,1.58,1.26,1.26,0,0,0,.33.66l3.56,3.83L134.05,57A1.34,1.34,0,0,0,136,58.37l4.5-2.34L145,58.4a1.34,1.34,0,0,0,1.39-.09A1.31,1.31,0,0,0,147,57l-.74-5.31,3.56-3.83a1.31,1.31,0,0,0,.23-1.34Z" transform="translate(-47.71 -30.82)" fill="#f9f9fa"/><path d="M107.17,59.58A26.8,26.8,0,1,0,134,86.38a26.8,26.8,0,0,0-26.83-26.8Zm0,7.66a11.49,11.49,0,1,1-11.48,11.5h0A11.5,11.5,0,0,1,107.17,67.24Zm15.75,29.89a19,19,0,0,1-31.5,0,3.86,3.86,0,0,1,.26-4.71c4-4.67,9.66,1.62,15.49,1.62s11.45-6.29,15.49-1.62A3.86,3.86,0,0,1,122.92,97.13Z" transform="translate(-47.71 -30.82)" fill="url(#b)"/><g clip-path="url(#c)"><circle cx="59.91" cy="53.28" r="25.42" fill="url(#d)"/></g><circle cx="59.46" cy="47.91" r="11.49" fill="#f9f9fa"/><path d="M107.17,94c-5.83,0-11.44-6.29-15.49-1.62a3.86,3.86,0,0,0-.26,4.71,19,19,0,0,0,31.5,0,3.86,3.86,0,0,0-.26-4.71C118.62,87.75,113,94,107.17,94Z" transform="translate(-47.71 -30.82)" fill="#f9f9fa"/><path d="M47.71,54.4V72.1a7,7,0,0,0,7,7h1.66v8.6a2.88,2.88,0,0,0,1.91,2.71,3.08,3.08,0,0,0,1,.16,2.9,2.9,0,0,0,2.23-1L70,79.07H86.76a7,7,0,0,0,7-7V54.4a7,7,0,0,0-7-7H54.67A7,7,0,0,0,47.71,54.4Z" transform="translate(-47.71 -30.82)" fill="url(#e)"/><path d="M78.67,57.07a4.83,4.83,0,0,0-6.81,0l-1,1-1-1a4.82,4.82,0,0,0-6.81,6.82l7,7a1.16,1.16,0,0,0,1.64,0l0,0,7-7A4.83,4.83,0,0,0,78.67,57.07Z" transform="translate(-47.71 -30.82)" fill="#f9f9fa"/></svg>