<svg xmlns="http://www.w3.org/2000/svg" xmlns:xlink="http://www.w3.org/1999/xlink" viewBox="0 0 125.14 54.62"><defs><linearGradient id="a" x1="25.91" y1="34.31" x2="89.31" y2="97.71" gradientTransform="matrix(1, 0, 0, -1, 0, 146)" gradientUnits="userSpaceOnUse"><stop offset="0.28" stop-color="#7542e5"/><stop offset="0.42" stop-color="#824deb"/><stop offset="0.79" stop-color="#a067fa"/><stop offset="1" stop-color="#ab71ff"/></linearGradient><linearGradient id="b" x1="26.08" y1="34.13" x2="89.49" y2="97.54" xlink:href="#a"/><linearGradient id="c" x1="25.92" y1="34.29" x2="89.33" y2="97.7" xlink:href="#a"/><linearGradient id="d" x1="98.99" y1="43.95" x2="153.04" y2="98.01" gradientTransform="matrix(1, 0, 0, -1, 0, 146)" gradientUnits="userSpaceOnUse"><stop offset="0" stop-color="#0090ed"/><stop offset="0.11" stop-color="#088fee"/><stop offset="0.29" stop-color="#1d8bf0"/><stop offset="0.5" stop-color="#4084f4"/><stop offset="0.74" stop-color="#707cf9"/><stop offset="1" stop-color="#ab71ff"/></linearGradient><linearGradient id="e" x1="115.25" y1="79.91" x2="69.52" y2="32.87" gradientTransform="matrix(1, 0, 0, -1, 0, 146)" gradientUnits="userSpaceOnUse"><stop offset="0" stop-color="#ff7139"/><stop offset="0.22" stop-color="#ff624a"/><stop offset="0.66" stop-color="#ff3c75"/><stop offset="0.86" stop-color="#ff298a"/></linearGradient><linearGradient id="f" x1="177.15" y1="79.91" x2="131.41" y2="32.87" xlink:href="#e"/></defs><title>pictogram-alert</title><path d="M67.21,44.69A21.8,21.8,0,0,0,45.43,66.47a3.11,3.11,0,0,0,6.22,0,15.56,15.56,0,0,1,31.12,0,25.56,25.56,0,0,1-3.55,13.32c-1.32,2.52-2.67,5.12-2.67,8.46a3.11,3.11,0,0,0,6.22,0c0-1.81.82-3.39,2-5.58A31.63,31.63,0,0,0,89,66.47,21.8,21.8,0,0,0,67.21,44.69Z" transform="translate(-45.43 -44.69)" fill="url(#a)"/><path d="M67.21,54A12.46,12.46,0,0,0,54.76,66.47h0c0,2-1.56,6.22-6.22,6.22a3.11,3.11,0,1,0,0,6.22h0A12.48,12.48,0,0,0,61,66.47a6.22,6.22,0,0,1,12.44,0c0,7.77-2.63,11.26-5.42,15a35,35,0,0,0-3.58,5.44A3.1,3.1,0,0,0,65.82,91,3.13,3.13,0,0,0,70,89.64a28.61,28.61,0,0,1,3-4.47c3-3.94,6.68-8.84,6.68-18.7A12.46,12.46,0,0,0,67.23,54Z" transform="translate(-45.43 -44.69)" fill="url(#b)"/><path d="M67.21,63.36a3.11,3.11,0,0,0-3.11,3.11h0c0,13.09-16.38,18.77-16.55,18.83a3.11,3.11,0,0,0,2,5.9c.85-.28,20.79-7.13,20.79-24.73a3.11,3.11,0,0,0-3.11-3.11Z" transform="translate(-45.43 -44.69)" fill="url(#c)"/><path d="M141.46,58.18V69.87c0,3.94.77,5.16,2.48,5.16,2.53,0,4.24-2.53,4.24-10.09,0-8.35-4.81-13.61-14.82-13.61-10.34,0-16.3,7-16.3,16.9,0,10.09,5.72,16.66,16.35,16.66a29.11,29.11,0,0,0,9.29-1.64l1.67,4.69a32.24,32.24,0,0,1-11,2c-13.58,0-22.54-8.45-22.54-21.64,0-12.67,9.39-21.92,22.54-21.92,13.49,0,21,8.83,21,18.5,0,8.31-3.81,14.5-10.2,14.5a6.1,6.1,0,0,1-6.24-4.78,7.26,7.26,0,0,1-6.87,4.59c-5.81,0-8.58-4.41-8.58-10.46,0-7.84,4.1-12.58,10.92-12.58A17.18,17.18,0,0,1,141.46,58.18Zm-5.76,13.9V60.9a6.05,6.05,0,0,0-2.48-.51c-2.86,0-4.58,2.3-4.58,8.31,0,4.41,1.05,6.19,3.29,6.19A4.13,4.13,0,0,0,135.7,72.08Z" transform="translate(-45.43 -44.69)" fill="url(#d)"/><path d="M108.19,92.69,96.85,70a4.57,4.57,0,0,0-6.13-2,4.52,4.52,0,0,0-2,2L77.33,92.69a4.58,4.58,0,0,0,2.06,6.14,4.5,4.5,0,0,0,2,.48h22.66a4.58,4.58,0,0,0,4.58-4.58A4.5,4.5,0,0,0,108.19,92.69ZM90.47,76.43a2.29,2.29,0,1,1,4.58,0v9.15a2.29,2.29,0,0,1-4.58,0Zm2.29,18.88a2.86,2.86,0,1,1,2.86-2.86,2.86,2.86,0,0,1-2.86,2.86Z" transform="translate(-45.43 -44.69)" fill="url(#e)"/><path d="M170.08,92.69,158.75,70a4.58,4.58,0,0,0-8.19,0L139.23,92.69a4.57,4.57,0,0,0,2,6.13,4.62,4.62,0,0,0,2.06.49H166a4.58,4.58,0,0,0,4.57-4.57A4.69,4.69,0,0,0,170.08,92.69ZM152.37,76.43a2.29,2.29,0,1,1,4.57-.3,1.5,1.5,0,0,1,0,.3v9.15a2.29,2.29,0,1,1-4.57.3,1.5,1.5,0,0,1,0-.3Zm2.28,18.88a2.86,2.86,0,1,1,2.86-2.86,2.86,2.86,0,0,1-2.86,2.86Z" transform="translate(-45.43 -44.69)" fill="url(#f)"/></svg>