<?xml version="1.0" encoding="UTF-8"?>
<svg width="64px" height="64px" viewBox="0 0 64 64" version="1.1" xmlns="http://www.w3.org/2000/svg" xmlns:xlink="http://www.w3.org/1999/xlink">
    <title>present</title>
    <g id="Primary-Flow" stroke="none" stroke-width="1" fill="none" fill-rule="evenodd">
        <g id="Resolving-a-Breach---Return-Visit" transform="translate(-652.000000, -1337.000000)" fill-rule="nonzero">
            <g id="Email-Addresses" transform="translate(273.000000, 753.000000)">
                <g id="Breach-List" transform="translate(0.000000, 76.000000)">
                    <g id="Promo-/-Condensed-/-Lockwise" transform="translate(99.000000, 508.000000)">
                        <g id="Group" transform="translate(107.000000, 0.000000)">
                            <g id="firefox_illustrations-fullcolor_recommendation-64" transform="translate(173.000000, 0.000000)">
                                <path d="M64,20.5111111 C64,19.4310876 63.124468,18.5555556 62.0444444,18.5555556 L1.95555556,18.5555556 C0.879554894,18.5652064 0.00965081065,19.4351104 0,20.5111111 L0,32.7777778 L64,32.7777778 L64,20.5111111 Z" id="Path" fill="#FFEA80"></path>
                                <path d="M5.33332985,32.7777778 L5.33332985,61.3288889 C5.3323905,61.7912107 5.52301906,62.2332651 5.85988024,62.5499146 C6.19674143,62.8665641 6.64973114,63.0295109 7.11111111,63 L56.9955556,63 C57.9184847,63 58.6666667,62.2518181 58.6666667,61.3288889 L58.6666667,32.7777778 L5.33332985,32.7777778 Z" id="Path" fill="#FFD567"></path>
                                <polygon id="Path" fill="#FF8A50" points="23.1111111 18.5555556 40.8888889 18.5555556 40.8888889 32.7777778 23.1111111 32.7777778"></polygon>
                                <polygon id="Path" fill="#FF7139" points="23.1111111 32.7777778 40.8888889 32.7777778 40.8888889 63 23.1111111 63"></polygon>
                                <polygon id="Path" fill="#E25920" points="23.1111111 32.7777778 40.8888889 32.7777778 40.8888889 38.1111111 23.1111111 38.1111111"></polygon>
                                <polygon id="Path" fill="#FFBD4F" points="5.33333333 32.7777778 23.1111111 32.7777778 23.1111111 38.1111111 5.33333333 38.1111111"></polygon>
                                <polygon id="Path" fill="#FFBD4F" points="40.8888889 32.7777778 58.6666667 32.7777778 58.6666667 38.1111111 40.8888889 38.1111111"></polygon>
                                <path d="M33.1733333,17.1155556 C21.8666667,11.5866667 19.3955556,6.32444444 20.32,2.52 C16.96,6.07555556 16.3911111,12.9911111 31.3955556,20.2977778 C39.52,16.3155556 43.0755556,12.4933333 44.1066667,9.24 C41.0736406,12.6238459 37.3436905,15.310623 33.1733333,17.1155556 Z" id="Path" fill="#E31587"></path>
                                <path d="M33.1733333,17.1155556 C37.3403654,15.3209947 41.0700462,12.6465407 44.1066667,9.27555556 C44.9555031,6.60772154 44.080198,3.69239078 41.9022222,1.93333333 C38.0622222,-1.51555556 33.1911111,1.61333333 31.4311111,4.97333333 C29.6533333,1.61333333 24.7822222,-1.51555556 20.9422222,1.93333333 C20.7335743,2.11534289 20.5375651,2.31135203 20.3555556,2.52 C19.3955556,6.32444444 21.8666667,11.5866667 33.1733333,17.1155556 L33.1733333,17.1155556 Z" id="Path" fill="#FF298A"></path>
                            </g>
                        </g>
                    </g>
                </g>
            </g>
        </g>
    </g>
</svg>
