<svg id="fc3fa169-e1f7-43df-a9b7-e65887ca6704" data-name="Layer 1" xmlns="http://www.w3.org/2000/svg" viewBox="0 0 180.64 98.95"><title>private-relay-emails</title><path d="M252,61.69a4.61,4.61,0,0,0-1.22-1.93,4.37,4.37,0,0,0-3-1.24H193.33A4.43,4.43,0,0,0,190.14,60,4.57,4.57,0,0,0,189,61.87a4.49,4.49,0,0,0-.19,1.21v37.75a4.55,4.55,0,0,0,4.53,4.53H247.7a4.54,4.54,0,0,0,4.52-4.53V63.08A4.39,4.39,0,0,0,252,61.69Z" transform="translate(-71.69 -58.52)" fill="#ab71ff"/><path d="M228.84,80.93l-8.26,7.9-7.36-7-.59-.56-.94,1-21.48,21.84a4.53,4.53,0,0,0,3.2,1.33h54.35a4.53,4.53,0,0,0,3.2-1.33L229.83,82Z" transform="translate(-71.69 -58.52)" fill="#7542e5"/><path d="M212.63,81.31,190.18,60.08a4.77,4.77,0,0,0-1.3,3.16V101a4.53,4.53,0,0,0,1.33,3.2l21.48-21.84Z" transform="translate(-71.69 -58.52)" fill="#9059ff"/><path d="M252,61.77a4.63,4.63,0,0,0-1.23-1.93l-22,21,1,1L251,104.11a4.53,4.53,0,0,0,1.33-3.2V63.17A4.27,4.27,0,0,0,252,61.77Z" transform="translate(-71.69 -58.52)" fill="#9059ff"/><path d="M212.63,81.31l.59.56,7.36,7,8.26-7.9,22-21a4.37,4.37,0,0,0-3-1.24H193.41a4.38,4.38,0,0,0-3.19,1.4Z" transform="translate(-71.69 -58.52)" fill="#c689ff"/><path d="M127.88,84.42a4.08,4.08,0,0,0-1.09-1.71,3.85,3.85,0,0,0-2.67-1.1H75.91a3.94,3.94,0,0,0-2.83,1.24,4.09,4.09,0,0,0-1,1.72,4.34,4.34,0,0,0-.16,1.08v33.46a4,4,0,0,0,4,4H124.1a4,4,0,0,0,4-4h0V85.65A4,4,0,0,0,127.88,84.42Z" transform="translate(-71.69 -58.52)" fill="#ffd567"/><path d="M107.13,101.41l-7.32,7-7-6.67-.84.85L72.89,122a4,4,0,0,0,2.84,1.18H123.9a4,4,0,0,0,2.84-1.18L108,102.33Z" transform="translate(-71.69 -58.52)" fill="#ffbd4f"/><path d="M92.77,101.75,72.86,82.93a4,4,0,0,0-1,1.72,3.59,3.59,0,0,0-.17,1.08v33.45a4,4,0,0,0,1.2,2.82l19-19.36Z" transform="translate(-71.69 -58.52)" fill="#ffd567"/><path d="M127.7,84.43a4.18,4.18,0,0,0-1.09-1.71l-19.48,18.63.88.92L126.74,122a4,4,0,0,0,1.18-2.84V85.67A4,4,0,0,0,127.7,84.43Z" transform="translate(-71.69 -58.52)" fill="#ffd567"/><path d="M92.77,101.75l7,6.67,7.32-7,19.48-18.63a3.87,3.87,0,0,0-2.67-1.1H75.73A3.89,3.89,0,0,0,72.9,82.9Z" transform="translate(-71.69 -58.52)" fill="#ffea80"/><path d="M209.25,93.31a6.63,6.63,0,0,0-1.81-2.84h-.05A6.4,6.4,0,0,0,203,88.7H123.16a6.52,6.52,0,0,0-4.69,2.06v-.05a6.73,6.73,0,0,0-1.63,2.85,6.37,6.37,0,0,0-.28,1.79v55.42a6.67,6.67,0,0,0,6.65,6.65H203a6.67,6.67,0,0,0,6.65-6.65V95.35A6.17,6.17,0,0,0,209.25,93.31Z" transform="translate(-71.69 -58.52)" fill="#ff298a"/><path d="M175.36,121.38,163.24,133l-11.67-11-1.39,1.4-31.54,32.07a6.7,6.7,0,0,0,4.7,2h79.8a6.62,6.62,0,0,0,4.7-2l-31-32.51Z" transform="translate(-71.69 -58.52)" fill="#e31587"/><path d="M151.57,121.94l-33-31.18.06-.06h-.06a6.93,6.93,0,0,0-1.9,4.64v55.42a6.62,6.62,0,0,0,2,4.7l31.54-32.07Z" transform="translate(-71.69 -58.52)" fill="#ff298a"/><path d="M209.43,93.25a6.88,6.88,0,0,0-1.81-2.84h-.05l.05,0-32.26,30.87,1.45,1.52,31,32.51a6.63,6.63,0,0,0,1.95-4.7V95.29A6.45,6.45,0,0,0,209.43,93.25Z" transform="translate(-71.69 -58.52)" fill="#ff298a"/><path d="M151.57,121.94l11.67,11,12.12-11.6,32.26-30.87-.05,0a6.39,6.39,0,0,0-4.43-1.82h-79.8a6.52,6.52,0,0,0-4.69,2.06l-.06.06Z" transform="translate(-71.69 -58.52)" fill="#ff9aa2"/><path d="M163.24,140.16a18,18,0,1,1,17.95-18A18,18,0,0,1,163.24,140.16Z" transform="translate(-71.69 -58.52)" fill="#3fe1b0"/><path d="M163.24,137.54a15.33,15.33,0,1,1,15.32-15.34h0a15.34,15.34,0,0,1-15.32,15.33Z" transform="translate(-71.69 -58.52)" fill="#2ac3a2"/><path d="M159.87,131.12a1.56,1.56,0,0,1-1.08-.44l-4.55-4.56a1.52,1.52,0,0,1,2.14-2.15l3.28,3.28,9.6-13.72a1.52,1.52,0,0,1,2.49,1.75l-10.64,15.19a1.5,1.5,0,0,1-1.11.65Z" transform="translate(-71.69 -58.52)" fill="#e3fff3"/><path d="M220.58,92.16a10.78,10.78,0,1,1,10.78-10.78h0A10.8,10.8,0,0,1,220.58,92.16Z" transform="translate(-71.69 -58.52)" fill="#3fe1b0"/><path d="M220.58,90.58a9.2,9.2,0,1,1,9.21-9.2A9.2,9.2,0,0,1,220.58,90.58Z" transform="translate(-71.69 -58.52)" fill="#2ac3a2"/><path d="M218.56,86.73a.89.89,0,0,1-.65-.27l-2.74-2.73a.94.94,0,0,1,0-1.3.92.92,0,0,1,1.29,0l2,2,5.77-8.24a.92.92,0,0,1,1.5,1l-6.39,9.13a.9.9,0,0,1-.67.39Z" transform="translate(-71.69 -58.52)" fill="#e3fff3"/><rect x="25.41" y="34.38" width="5.51" height="17.11" rx="2.75" fill="#ffbdc5"/><path d="M110.18,107.12,102.56,91.9a3.07,3.07,0,0,0-5.5,0l-7.61,15.23a3.07,3.07,0,0,0,1.38,4.12h0a3.1,3.1,0,0,0,1.37.32h15.23a3.06,3.06,0,0,0,3.07-3.07A3.14,3.14,0,0,0,110.18,107.12ZM98.28,96.2a1.54,1.54,0,1,1,3.07-.25,1,1,0,0,1,0,.25v6.15a1.54,1.54,0,1,1-3.07.25,1,1,0,0,1,0-.25Zm1.53,12.68a1.92,1.92,0,1,1,1.92-1.92h0A1.92,1.92,0,0,1,99.81,108.88Z" transform="translate(-71.69 -58.52)" fill="#ff298a"/></svg>