<svg id="250f1740-2fd3-425a-a17c-c68e38be5250" data-name="Layer 1" xmlns="http://www.w3.org/2000/svg" xmlns:xlink="http://www.w3.org/1999/xlink" viewBox="0 0 50.4 53.92"><defs><linearGradient id="c3358f83-52d1-44b0-a4d6-3fe7a05acc0b" x1="14.07" y1="15.28" x2="45.18" y2="46.39" gradientTransform="matrix(1, 0, 0, -1, 0, 56)" gradientUnits="userSpaceOnUse"><stop offset="0" stop-color="#00b3f4"/><stop offset="0.58" stop-color="#1abdc2"/><stop offset="1" stop-color="#2ac3a2"/></linearGradient><linearGradient id="00214fff-b8cb-4280-a991-ab97bfc6008c" x1="8.94" y1="9.63" x2="37.82" y2="38.51" xlink:href="#c3358f83-52d1-44b0-a4d6-3fe7a05acc0b"/><linearGradient id="a67d0df1-e2fb-4638-850d-0341eb72fd64" x1="1.51" y1="2.65" x2="29.96" y2="31.1" xlink:href="#c3358f83-52d1-44b0-a4d6-3fe7a05acc0b"/></defs><title>protect-personal-info</title><g id="9aad65b7-fd83-43e3-a98e-e1f4f74f868f" data-name="Layer 2"><g id="4e3630ef-1fb2-43aa-b94e-e9b8527d8e46" data-name="Layer 1-2"><path d="M25.16,0A25.19,25.19,0,0,0,0,25.16a3.6,3.6,0,1,0,7.19,0,18,18,0,0,1,36,0c0,7.54-2.18,11.71-4.1,15.4C37.52,43.46,36,46.47,36,50.33a3.6,3.6,0,0,0,7.19,0c0-2.1,1-3.92,2.27-6.44a36.72,36.72,0,0,0,4.92-18.73A25.19,25.19,0,0,0,25.16,0Z" transform="translate(0.02 0)" fill="url(#c3358f83-52d1-44b0-a4d6-3fe7a05acc0b)"/><path d="M25.16,10.78A14.4,14.4,0,0,0,10.78,25.16c0,2.26-1.81,7.19-7.19,7.19a3.6,3.6,0,0,0,0,7.19A14.4,14.4,0,0,0,18,25.16a7.19,7.19,0,1,1,14.38,0c0,9-3,13-6.26,17.27A40.52,40.52,0,0,0,22,48.72a3.59,3.59,0,0,0,1.6,4.82h0a3.52,3.52,0,0,0,1.6.38,3.59,3.59,0,0,0,3.22-2,34.12,34.12,0,0,1,3.44-5.17c3.44-4.55,7.72-10.21,7.72-21.61A14.4,14.4,0,0,0,25.16,10.78Z" transform="translate(0.02 0)" fill="url(#00214fff-b8cb-4280-a991-ab97bfc6008c)"/><path d="M25.16,21.57a3.59,3.59,0,0,0-3.59,3.59h0c0,15.13-18.93,21.7-19.12,21.76a3.59,3.59,0,0,0,1.14,7,3.77,3.77,0,0,0,1.14-.18c1-.33,24-8.25,24-28.58A3.6,3.6,0,0,0,25.16,21.57Z" transform="translate(0.02 0)" fill="url(#a67d0df1-e2fb-4638-850d-0341eb72fd64)"/></g></g></svg>