<svg xmlns="http://www.w3.org/2000/svg" width="1366" height="644" viewBox="0 0 1366 644">
    <g fill="none" fill-rule="nonzero" opacity=".041" transform="translate(-590 -256)">
        <ellipse cx="617.5" cy="1029.5" fill="#AB71FF" rx="617.5" ry="616.5"/>
        <circle cx="1872.5" cy="567.5" r="535.5" fill="#AB71FF"/>
        <path fill="#592ACB" d="M512.843 308.16l773.59 773.984A180.372 180.372 0 0 0 1414.002 1135a180.372 180.372 0 0 0 127.573-52.856l773.586-773.983c70.45-70.512 70.45-184.788 0-255.299-70.448-70.483-184.696-70.483-255.143 0l-646.014 646.364L767.987 52.862c-70.448-70.483-184.696-70.483-255.144 0C477.605 88.118 460 134.307 460 180.51c0 46.177 17.618 92.395 52.843 127.65z"/>
    </g>
</svg>
