<svg id="c8171351-7a93-43ab-8a79-0c4a9edd6d14" data-name="Layer 1" xmlns="http://www.w3.org/2000/svg" xmlns:xlink="http://www.w3.org/1999/xlink" viewBox="0 0 83.14 89.68"><defs><linearGradient id="f774dc59-8816-4a44-880e-e5f8c86823f2" x1="73.75" y1="-677.25" x2="148.05" y2="-602.95" gradientTransform="matrix(1, 0, 0, -1, -48.54, -587.96)" gradientUnits="userSpaceOnUse"><stop offset="0" stop-color="#0090ed"/><stop offset="0.27" stop-color="#2a88f1"/><stop offset="0.86" stop-color="#9275fc"/><stop offset="1" stop-color="#ab71ff"/></linearGradient><linearGradient id="33b1d634-7bc3-469d-9c3d-5befcc9a8bdc" x1="61.81" y1="-684.53" x2="90.68" y2="-655.66" gradientTransform="matrix(1, 0, 0, -1, 0, -642.01)" gradientUnits="userSpaceOnUse"><stop offset="0.22" stop-color="#ff298a"/><stop offset="0.91" stop-color="#ee0700"/></linearGradient></defs><title>sign-up-banner-icon</title><g id="56cddbc7-8be0-4295-b5c4-e5cdadcfcec2" data-name="2da8ec7f-7a58-46fc-8f4d-ea4a208509cf"><g id="7e5ed0d5-fbc2-44d2-b293-963859263df8" data-name="68275faf-f0f6-4c29-9fb0-927799e9271d"><path d="M95.3,32.6,81.3,4.7a5.65,5.65,0,0,0-7.6-2.5,5.07,5.07,0,0,0-2.5,2.5l-14,27.9a5.74,5.74,0,0,0,2.5,7.6,5.42,5.42,0,0,0,2.5.6H90.1a5.61,5.61,0,0,0,5.6-5.7,5.28,5.28,0,0,0-.4-2.5Z" transform="translate(-12.66 -1.52)" fill="#fff" fill-opacity="0"/></g></g><g id="d3ff689d-778f-4080-b83a-37f570c1df2e" data-name="2da8ec7f-7a58-46fc-8f4d-ea4a208509cf"><g id="99e7a01f-8262-4fd5-a886-8388830d55ae" data-name="68275faf-f0f6-4c29-9fb0-927799e9271d"><path d="M95.3,32.6,81.3,4.7a5.65,5.65,0,0,0-7.6-2.5,5.07,5.07,0,0,0-2.5,2.5l-14,27.9a5.74,5.74,0,0,0,2.5,7.6,5.42,5.42,0,0,0,2.5.6H90.1a5.61,5.61,0,0,0,5.6-5.7,5.28,5.28,0,0,0-.4-2.5Zm-21.8-20a2.85,2.85,0,1,1,5.7-.3V23.9a2.85,2.85,0,1,1-5.7.3V12.6Zm2.8,23.2a3.5,3.5,0,1,1,3.5-3.5,3.54,3.54,0,0,1-3.5,3.5Z" transform="translate(-12.66 -1.52)" fill="#fff" fill-opacity="0"/></g></g><path d="M85,82.9V48.5a8.66,8.66,0,0,0-.6-3.2c-.1-.3-.2-.5-.3-.8l-.6-.9c-.7-.6-2-1.8-4.2-3.5l-.3-.2c-8-6.4-23.7-18.2-23.8-18.3A10.15,10.15,0,0,0,48.8,19a10.45,10.45,0,0,0-6.3,2.6c-.2.1-15.9,12.1-23.8,18.3l-.3.2c-2.1,1.7-3.4,2.8-4.1,3.5a1.46,1.46,0,0,0-.6.9l-.1.4-.3.3v.5a9.29,9.29,0,0,0-.5,2.9V83c0,.1-.1.3-.1.4a3.21,3.21,0,0,0,.2,1.7,13.5,13.5,0,0,0,1.5,2.6c.2.3.5.5.7.8l.2.2.2.2a9.62,9.62,0,0,0,4.8,2.2h.5a2.49,2.49,0,0,0,.8.1H76.1a9.25,9.25,0,0,0,8.6-5.8A3.21,3.21,0,0,0,85,82.9Z" transform="translate(-12.66 -1.52)" fill="url(#f774dc59-8816-4a44-880e-e5f8c86823f2)"/><path d="M78.1,54a1.78,1.78,0,0,0-2.5-.4L57.3,66.8l-.1-.1a12.46,12.46,0,0,0-11.3-2.4,16.43,16.43,0,0,0-5.2,2.4l-.1.1L22.3,53.6a1.84,1.84,0,1,0-2.5,2.7h0a1.38,1.38,0,0,0,.4.3L37.5,69.1,24,79.3a1.85,1.85,0,0,0-.7,1.2,1.94,1.94,0,0,0,.3,1.3,1.85,1.85,0,0,0,1.2.7h.3a1.5,1.5,0,0,0,1.1-.4L42.9,69.5s6.3-4.6,12.1,0L71.7,82.1a1.78,1.78,0,0,0,2.5-.4,1.52,1.52,0,0,0,.3-1.3,1.85,1.85,0,0,0-.7-1.2L60.3,69.1,77.7,56.5a1.85,1.85,0,0,0,.7-1.2A1.59,1.59,0,0,0,78.1,54Z" transform="translate(-12.66 -1.52)" fill="#f9f9fa"/><g id="af51f1a0-fe26-4028-b5d8-92c9fb869fae" data-name="2da8ec7f-7a58-46fc-8f4d-ea4a208509cf"><g id="de5f54cf-d544-4413-9ab9-ab9e80091cb9" data-name="68275faf-f0f6-4c29-9fb0-927799e9271d"><path d="M95.3,32.6,81.3,4.7a5.65,5.65,0,0,0-7.6-2.5,5.07,5.07,0,0,0-2.5,2.5l-14,27.9a5.74,5.74,0,0,0,2.5,7.6,5.42,5.42,0,0,0,2.5.6H90.1a5.61,5.61,0,0,0,5.6-5.7,5.28,5.28,0,0,0-.4-2.5Zm-21.8-20a2.85,2.85,0,1,1,5.7-.3V23.9a2.85,2.85,0,1,1-5.7.3V12.6Zm2.8,23.2a3.5,3.5,0,1,1,3.5-3.5,3.54,3.54,0,0,1-3.5,3.5Z" transform="translate(-12.66 -1.52)" stroke="#ff298a" stroke-miterlimit="10" stroke-width="0.15" fill="url(#33b1d634-7bc3-469d-9c3d-5befcc9a8bdc)"/></g></g></svg>