<svg viewBox="0 0 324.16 216" xmlns="http://www.w3.org/2000/svg"><path d="m223.61 65.08-55.25-31.9a12.73 12.73 0 0 0 -12.72 0l-55.25 31.9a12.72 12.72 0 0 0 -6.39 11.02v63.8a12.72 12.72 0 0 0 6.37 11l55.25 31.9a12.75 12.75 0 0 0 12.72 0l55.25-31.9a12.72 12.72 0 0 0 6.37-11v-63.8a12.72 12.72 0 0 0 -6.35-11.02z" fill="#bfbfc9" opacity=".15"/><path d="m228 132.68a5.61 5.61 0 0 0 1.3-3.56v-67.9a5.68 5.68 0 0 0 -5.66-5.66h-96.24a5.68 5.68 0 0 0 -5.66 5.66v67.9a5.61 5.61 0 0 0 1.3 3.56l-12.62 2.1v5.66h130.15v-5.66z" fill="#9f9fad"/><path d="m185.87 66.88-58.47 58.47a1.89 1.89 0 0 0 1.89 1.88h92.42a1.88 1.88 0 0 0 1.88-1.88v-58.47z" fill="#592acb"/><path d="m127.4 66.88v58.47l58.47-58.47z" fill="#6835d7"/><path d="m221.71 61.22h-92.42a1.89 1.89 0 0 0 -1.89 1.89v3.77h96.19v-3.77a1.89 1.89 0 0 0 -1.88-1.89z" fill="#592acb"/><path d="m221.88 134.05h-92.42a.94.94 0 1 1 0-1.88h92.42a.94.94 0 1 1 0 1.88z" fill="#8f8f9d"/><path d="m168.54 136.52h13.2" fill="none" stroke="#80808e" stroke-linecap="round" stroke-linejoin="round"/><path d="m182.81 92.8-7.31 7-7.05-6.66-.84.84-19 19.36a4 4 0 0 0 2.84 1.18h48.17a4 4 0 0 0 2.84-1.18l-18.77-19.63z" fill="#ffbd4f"/><path d="m168.45 93.14-19.91-18.83a4.1 4.1 0 0 0 -1 1.72 3.87 3.87 0 0 0 -.17 1.08v33.46a4 4 0 0 0 1.18 2.83l19-19.36z" fill="#ffd567"/><path d="m203.38 75.82a4.05 4.05 0 0 0 -1.09-1.71l-19.48 18.69.88.91 18.73 19.63a4 4 0 0 0 1.18-2.83v-33.46a3.88 3.88 0 0 0 -.22-1.23z" fill="#ffd567"/><path d="m168.45 93.14 7.05 6.66 7.31-7 19.48-18.64a3.84 3.84 0 0 0 -2.67-1.1h-48.21a3.91 3.91 0 0 0 -2.83 1.24z" fill="#ffea80"/><rect fill="#ffbdc5" height="17.11" rx="2.76" width="5.51" x="172.78" y="84.28"/><path d="m185.86 98.51-7.62-15.23a3.07 3.07 0 0 0 -5.5 0l-7.61 15.23a3.07 3.07 0 0 0 1.38 4.12 3 3 0 0 0 1.37.33h15.23a3.08 3.08 0 0 0 2.75-4.45zm-11.86-10.93a1.54 1.54 0 0 1 3.07 0v6.15a1.54 1.54 0 1 1 -3.07 0zm1.53 12.69a1.93 1.93 0 1 1 1.93-1.93 1.92 1.92 0 0 1 -1.97 1.93z" fill="#ff298a"/><path d="m128 78.71h-39a5.59 5.59 0 0 0 -5.58 5.57v70.59a5.59 5.59 0 0 0 5.58 5.57h39a5.58 5.58 0 0 0 5.57-5.57v-70.59a5.58 5.58 0 0 0 -5.57-5.57z" fill="#bfbfc9"/><path d="m89 128.86v22.29a1.86 1.86 0 0 0 1.86 1.85h35.29a1.86 1.86 0 0 0 1.86-1.86v-61.28z" fill="#592acb"/><path d="m89.01 89.86v39l39-39z" fill="#6835d7"/><path d="m126.15 84.28h-35.29a1.86 1.86 0 0 0 -1.86 1.86v3.72h39v-3.72a1.86 1.86 0 0 0 -1.85-1.86z" fill="#592acb"/><circle cx="99.22" cy="144.65" fill="#ffd567" r="2.79"/><circle cx="108.51" cy="144.65" fill="#ff298a" r="2.79"/><circle cx="117.8" cy="144.65" fill="#ab71ff" r="2.79"/><path d="m106.06 156.72h5.23" fill="none" stroke="#9f9fad" stroke-linecap="round" stroke-linejoin="round"/><g fill="#c689ff"><path d="m114.89 104.3a.66.66 0 0 0 -.91 0 .65.65 0 0 0 0 .91 9 9 0 0 1 3 6.69v8.35a.64.64 0 0 0 .64.64.64.64 0 0 0 .64-.64v-8.25a10.29 10.29 0 0 0 -3.37-7.7z"/><path d="m100.87 106.17a.67.67 0 0 0 .48-.22 8.93 8.93 0 0 1 10.88-2 .64.64 0 0 0 .87-.27.62.62 0 0 0 -.27-.86 10.16 10.16 0 0 0 -4.79-1.2 10.31 10.31 0 0 0 -7.65 3.42.65.65 0 0 0 .48 1.08z"/><path d="m98.4 119a.64.64 0 0 0 .64-.64v-6.36a8.91 8.91 0 0 1 .76-3.6.64.64 0 0 0 -1.18-.52 10.25 10.25 0 0 0 -.86 4.12v6.42a.63.63 0 0 0 .64.58z"/><path d="m106.75 120.3v-8.3a1.55 1.55 0 0 1 .07-.43 1.47 1.47 0 0 1 .36-.53 1.28 1.28 0 0 1 2.14 1v9a.64.64 0 0 0 1.28 0v-9a2.57 2.57 0 0 0 -2.56-2.57 2.53 2.53 0 0 0 -1.72.66 2.61 2.61 0 0 0 -.71 1 2.77 2.77 0 0 0 -.14.86v8.35a4.87 4.87 0 0 1 -2.81 4.54.65.65 0 0 0 -.36.84.64.64 0 0 0 .6.4.46.46 0 0 0 .23 0 6.11 6.11 0 0 0 3.62-5.82z"/><path d="m107.39 112v7a.65.65 0 1 0 1.29 0v-7a.65.65 0 0 0 -1.29 0z"/><path d="m108 120.3a.65.65 0 0 0 -.65.64 6.39 6.39 0 0 1 -2.9 5.23.65.65 0 0 0 -.22.88.66.66 0 0 0 .55.32.56.56 0 0 0 .33-.1 7.68 7.68 0 0 0 3.53-6.33.64.64 0 0 0 -.64-.64z"/><path d="m110 122.24a.64.64 0 0 0 -.76.5 9.36 9.36 0 0 1 -2.26 4.17.65.65 0 0 0 0 .91.64.64 0 0 0 .91 0 10.6 10.6 0 0 0 2.61-4.82.64.64 0 0 0 -.5-.76z"/><path d="m108 107.45a4.51 4.51 0 0 0 -4.5 4.5v7.05c0 3.88-2.59 4.49-2.7 4.51a.65.65 0 0 0 .13 1.28h.12s3.73-.8 3.73-5.77v-7.02a3.22 3.22 0 0 1 6.43 0v9.63a8 8 0 0 1 -1.74 5.33.65.65 0 0 0 0 .91.61.61 0 0 0 .45.19.63.63 0 0 0 .46-.19 9.09 9.09 0 0 0 2.11-6.24v-9.63a4.5 4.5 0 0 0 -4.49-4.55z"/><path d="m102.9 119v-7a5 5 0 0 1 .57-2.35.64.64 0 0 0 -1.14-.59 6.42 6.42 0 0 0 -.72 2.94v7c0 .11 0 2.57-1.93 2.57a.65.65 0 0 0 0 1.29c2.54.01 3.22-2.51 3.22-3.86z"/><path d="m108 105.52a6.42 6.42 0 0 0 -3.58 1.09.65.65 0 0 0 -.17.9.64.64 0 0 0 .89.17 5.13 5.13 0 0 1 8 4.27v10.28a9.27 9.27 0 0 1 -.57 3.57.64.64 0 0 0 .29.86.71.71 0 0 0 .28.06.65.65 0 0 0 .58-.35 9.89 9.89 0 0 0 .71-4.14v-10.23a6.44 6.44 0 0 0 -6.43-6.48z"/><path d="m101 118.37v-6.37a7.14 7.14 0 0 1 5.89-7 .64.64 0 0 0 .52-.74.65.65 0 0 0 -.74-.53 8.34 8.34 0 0 0 -7 8.24v6.42a1.21 1.21 0 0 1 -1.28 1.29.64.64 0 0 0 0 1.28 2.5 2.5 0 0 0 2.61-2.59z"/><path d="m109.43 103.71a.65.65 0 0 0 -.74.53.64.64 0 0 0 .52.74 7.14 7.14 0 0 1 5.89 7v1.92a.65.65 0 1 0 1.29 0v-1.9a8.34 8.34 0 0 0 -6.96-8.29z"/><path d="m115.74 115.8a.64.64 0 0 0 -.64.64v7.07a.65.65 0 0 0 1.29 0v-7.07a.65.65 0 0 0 -.65-.64z"/></g><rect fill="#ffbdc5" height="13.58" rx="2.19" width="4.37" x="112.3" y="117.54"/><path d="m122.68 128.82-6.05-12.08a2.43 2.43 0 0 0 -3.27-1.09 2.35 2.35 0 0 0 -1.09 1.09l-6 12.09a2.46 2.46 0 0 0 1.1 3.27 2.42 2.42 0 0 0 1.09.25h12.08a2.45 2.45 0 0 0 2.19-3.53zm-9.45-8.67a1.22 1.22 0 0 1 2.44 0v4.85a1.22 1.22 0 0 1 -2.44 0zm1.22 10.07a1.53 1.53 0 1 1 1.53-1.53 1.52 1.52 0 0 1 -1.53 1.53z" fill="#ff298a"/></svg>