<svg id="7d206709-abc2-424b-a5e6-fcd830039c19" data-name="Layer 1" xmlns="http://www.w3.org/2000/svg" xmlns:xlink="http://www.w3.org/1999/xlink" viewBox="0 0 95 63.87"><defs><linearGradient id="7692c7de-3010-4b1d-883a-5fed7858abbe" x1="20.58" y1="-14.16" x2="74.42" y2="39.67" gradientTransform="matrix(1, 0, 0, -1, 0, 66)" gradientUnits="userSpaceOnUse"><stop offset="0" stop-color="#00b3f4"/><stop offset="0.58" stop-color="#1abdc2"/><stop offset="1" stop-color="#2ac3a2"/></linearGradient><linearGradient id="49cfc52e-0c5d-4cee-b91e-50ef11813fb5" x1="29.98" y1="37.86" x2="65" y2="72.89" gradientTransform="matrix(1, 0, 0, -1, 0, 66)" gradientUnits="userSpaceOnUse"><stop offset="0.22" stop-color="#ff298a"/><stop offset="0.91" stop-color="#ff4f5e"/></linearGradient></defs><title>stronger-password</title><g id="e8de9f97-c03f-4b1f-a97a-7e725ac13053" data-name="Layer 2"><g id="eccaa121-d0b8-414d-bca1-2224594447c9" data-name="Layer 1-2"><path d="M87.67,42.62H7.31A7.33,7.33,0,0,0,0,49.93v6.63a7.33,7.33,0,0,0,7.31,7.31H87.67A7.33,7.33,0,0,0,95,56.56V49.93A7.33,7.33,0,0,0,87.67,42.62Zm-69,11.17a.4.4,0,0,1,.24.51l0,.08L18,55.91a.4.4,0,0,1-.28.19.37.37,0,0,1-.32-.1l-1.95-1.5.31,2.5a.37.37,0,0,1-.1.32.41.41,0,0,1-.31.14H13.59a.41.41,0,0,1-.31-.14.37.37,0,0,1-.1-.32l.31-2.5-2,1.52a.4.4,0,0,1-.33.07.39.39,0,0,1-.28-.2L10,54.37A.38.38,0,0,1,10,54a.43.43,0,0,1,.23-.25l2.31-1-2.31-1a.41.41,0,0,1-.22-.54l0,0,.89-1.51a.4.4,0,0,1,.27-.19.38.38,0,0,1,.33.07l2,1.52-.31-2.48a.39.39,0,0,1,.1-.32.41.41,0,0,1,.31-.14h1.76a.41.41,0,0,1,.31.14.39.39,0,0,1,.1.32l-.31,2.48,2-1.49a.42.42,0,0,1,.33-.08.4.4,0,0,1,.27.2l.86,1.53a.4.4,0,0,1-.12.55l-.08,0-2.31,1Zm13.11,0a.4.4,0,0,1,.24.51l0,.08-.91,1.53a.43.43,0,0,1-.59.13h0l-1.94-1.5L28.87,57a.37.37,0,0,1-.1.32.41.41,0,0,1-.31.14H26.69a.39.39,0,0,1-.3-.14.37.37,0,0,1-.1-.32l.31-2.5L24.6,56a.41.41,0,0,1-.34.07.39.39,0,0,1-.27-.2l-.86-1.53a.38.38,0,0,1,0-.33.43.43,0,0,1,.23-.25l2.31-1-2.32-1a.37.37,0,0,1-.22-.25.38.38,0,0,1,0-.33L24,49.73a.4.4,0,0,1,.27-.19.38.38,0,0,1,.33.07l2,1.52-.3-2.48a.42.42,0,0,1,.09-.32.43.43,0,0,1,.31-.14h1.77a.41.41,0,0,1,.31.14.39.39,0,0,1,.1.32l-.31,2.48,2-1.49a.42.42,0,0,1,.33-.08.45.45,0,0,1,.27.2L32,51.29a.41.41,0,0,1,0,.34.43.43,0,0,1-.23.25l-2.31,1Zm13.11,0a.42.42,0,0,1,.22.55l0,0-.91,1.53a.43.43,0,0,1-.59.13h0l-1.94-1.5L42,57a.4.4,0,0,1-.1.32.41.41,0,0,1-.31.14H39.8a.41.41,0,0,1-.31-.14.44.44,0,0,1-.1-.32l.31-2.5L37.7,56a.41.41,0,0,1-.57-.09l0,0-.86-1.53a.38.38,0,0,1,0-.33.43.43,0,0,1,.23-.25l2.31-1-2.32-1a.38.38,0,0,1-.23-.25.42.42,0,0,1,0-.33l.89-1.51a.36.36,0,0,1,.27-.19.38.38,0,0,1,.33.07l2,1.52-.31-2.48a.47.47,0,0,1,.1-.32.41.41,0,0,1,.31-.14h1.77a.41.41,0,0,1,.31.14.42.42,0,0,1,.1.32l-.31,2.48,2-1.49a.42.42,0,0,1,.33-.08.45.45,0,0,1,.27.2l.86,1.53a.41.41,0,0,1,0,.34.43.43,0,0,1-.23.25l-2.31,1Zm13.11,0a.43.43,0,0,1,.23.25.37.37,0,0,1,0,.34l-.9,1.53a.4.4,0,0,1-.28.19.39.39,0,0,1-.33-.07l-1.94-1.5L55.09,57a.4.4,0,0,1-.34.46H52.91A.4.4,0,0,1,52.5,57l.31-2.5-2,1.52a.38.38,0,0,1-.33.07.35.35,0,0,1-.27-.2l-.86-1.53a.38.38,0,0,1,0-.33.41.41,0,0,1,.23-.25l2.3-1-2.31-1a.38.38,0,0,1-.23-.25.42.42,0,0,1,0-.33l.88-1.51a.43.43,0,0,1,.59-.13h0l2,1.52-.31-2.48a.42.42,0,0,1,.1-.32.41.41,0,0,1,.31-.14H54.7a.41.41,0,0,1,.31.14.42.42,0,0,1,.1.32l-.31,2.48,2-1.49a.46.46,0,0,1,.34-.08.45.45,0,0,1,.27.2l.86,1.53a.41.41,0,0,1,0,.34.43.43,0,0,1-.23.25l-2.31,1Zm13.11,0a.43.43,0,0,1,.23.25.41.41,0,0,1,0,.34l-.91,1.53a.4.4,0,0,1-.27.19.38.38,0,0,1-.33-.07l-1.94-1.5L68.2,57a.48.48,0,0,1-.1.33.44.44,0,0,1-.31.13H66a.4.4,0,0,1-.41-.46l.31-2.5-2,1.5a.42.42,0,0,1-.59-.09l0,0-.86-1.53a.41.41,0,0,1,.16-.56l0,0,2.31-1-2.31-1a.4.4,0,0,1-.22-.52l0-.06.88-1.51a.43.43,0,0,1,.59-.13h0l2,1.52-.31-2.48a.42.42,0,0,1,.1-.32.41.41,0,0,1,.31-.14H67.8a.41.41,0,0,1,.31.14.47.47,0,0,1,.1.32l-.31,2.48,2-1.49a.41.41,0,0,1,.58.07l0,.05.86,1.53a.41.41,0,0,1,0,.34.43.43,0,0,1-.23.25l-2.31,1Zm13.11,0a.43.43,0,0,1,.23.25.41.41,0,0,1,0,.34l-.91,1.53a.4.4,0,0,1-.27.19.38.38,0,0,1-.33-.07L81,54.53,81.3,57a.4.4,0,0,1-.1.33.42.42,0,0,1-.3.13H79.13a.44.44,0,0,1-.31-.13.4.4,0,0,1-.1-.33L79,54.5,77,56a.4.4,0,0,1-.33.07.39.39,0,0,1-.28-.2l-.86-1.53a.38.38,0,0,1,0-.33.43.43,0,0,1,.23-.25l2.31-1-2.31-1a.4.4,0,0,1-.22-.52l0-.06.88-1.51a.4.4,0,0,1,.28-.19.37.37,0,0,1,.32.07l2,1.52-.31-2.48a.39.39,0,0,1,.1-.32.41.41,0,0,1,.31-.14H80.9a.41.41,0,0,1,.4.46L81,51.13l2-1.49a.43.43,0,0,1,.33-.08.45.45,0,0,1,.28.2l.86,1.53a.5.5,0,0,1,0,.34.47.47,0,0,1-.23.25l-2.24,1Z" fill="url(#7692c7de-3010-4b1d-883a-5fed7858abbe)"/><path d="M49,26a1.5,1.5,0,0,0-3,0v8.41L39.55,28a1.5,1.5,0,1,0-2.16,2.09h0l9,9a1.49,1.49,0,0,0,2.11,0h0l9-9a1.5,1.5,0,0,0-2-2.09L49,34.42Z" fill="#ff298a"/><path d="M26.11,21.25H68.87a7.33,7.33,0,0,0,7.31-7.31V7.31A7.33,7.33,0,0,0,68.87,0H26.11A7.33,7.33,0,0,0,18.8,7.31v6.63A7.33,7.33,0,0,0,26.11,21.25ZM56.34,9.62a.43.43,0,0,1-.23-.25.4.4,0,0,1,0-.34L57,7.52a.4.4,0,0,1,.27-.19.42.42,0,0,1,.33.08l2,1.51-.31-2.47a.4.4,0,0,1,.1-.33A.41.41,0,0,1,59.73,6h1.76a.41.41,0,0,1,.41.47l-.31,2.47,2-1.49a.4.4,0,0,1,.56.06l0,.07.86,1.52a.5.5,0,0,1,0,.34.45.45,0,0,1-.24.25l-2.3.95,2.3,1a.42.42,0,0,1,.24.25.4.4,0,0,1,0,.34l-.91,1.53a.4.4,0,0,1-.6.12l-1.94-1.5.3,2.48a.41.41,0,0,1-.41.47H59.73a.41.41,0,0,1-.31-.14.4.4,0,0,1-.1-.33l.31-2.5-2,1.52a.44.44,0,0,1-.33.08.43.43,0,0,1-.28-.21l-.86-1.52a.41.41,0,0,1,0-.34.43.43,0,0,1,.23-.25l2.31-1Zm-13.11,0A.43.43,0,0,1,43,9.37.4.4,0,0,1,43,9l.88-1.51a.4.4,0,0,1,.28-.19.44.44,0,0,1,.33.08l2,1.51-.31-2.47a.4.4,0,0,1,.1-.33A.41.41,0,0,1,46.62,6h1.77a.4.4,0,0,1,.4.47l-.3,2.47,2-1.49a.44.44,0,0,1,.33-.08.43.43,0,0,1,.28.21l.9,1.5a.41.41,0,0,1,0,.34.43.43,0,0,1-.23.25l-2.31.95,2.31,1a.43.43,0,0,1,.23.25.4.4,0,0,1,0,.34L51,13.7a.4.4,0,0,1-.6.12l-1.94-1.5.3,2.48a.4.4,0,0,1-.1.33.39.39,0,0,1-.3.14H46.62a.41.41,0,0,1-.31-.14.44.44,0,0,1-.1-.33l.31-2.5-2,1.52a.4.4,0,0,1-.56-.06l0-.07L43,12.17a.45.45,0,0,1,0-.34.43.43,0,0,1,.23-.25l2.31-1Zm-13.11,0a.43.43,0,0,1-.23-.25.44.44,0,0,1,0-.34l.88-1.51A.4.4,0,0,1,31,7.33a.44.44,0,0,1,.33.08l2,1.51L33.1,6.45a.44.44,0,0,1,.1-.33A.41.41,0,0,1,33.51,6h1.77a.41.41,0,0,1,.31.14.44.44,0,0,1,.1.33l-.31,2.47,2-1.49a.44.44,0,0,1,.33-.08.43.43,0,0,1,.28.21l.86,1.52a.41.41,0,0,1,0,.34.43.43,0,0,1-.23.25l-2.31.95,2.31,1a.43.43,0,0,1,.23.25.37.37,0,0,1,0,.34l-.9,1.53a.41.41,0,0,1-.28.2.42.42,0,0,1-.33-.08l-1.94-1.5.31,2.48a.44.44,0,0,1-.1.33.41.41,0,0,1-.31.14H33.51a.41.41,0,0,1-.31-.14.44.44,0,0,1-.1-.33l.31-2.5-2,1.52a.42.42,0,0,1-.33.08.39.39,0,0,1-.27-.21l-.86-1.52a.4.4,0,0,1,.12-.55l.08,0,2.3-1Z" fill="url(#49cfc52e-0c5d-4cee-b91e-50ef11813fb5)"/></g></g></svg>