<svg xmlns="http://www.w3.org/2000/svg" width="39" height="52" fill="none" viewBox="0 0 39 52">
  <path fill="#C5C8FB" d="M38.64 6.42v6.64l-1.14.54-.38.2-.34.16-.36.2-.17.08-.19.1c-.6.35-1.2.7-1.77 1.08l-.21.14-.1.07a9.5 9.5 0 00-.18.12l-.08.06-.09.06V3.75h2.35a2.67 2.67 0 012.66 2.67zM38.64 13.43v11.91a25.47 25.47 0 00-1.14 1.27l-.21.26-.12.13a20.5 20.5 0 00-.6.74l-.19.25-.04.05a80.46 80.46 0 00-.7.95l-.18.26-.18.25-.02.04-.15.23-.17.26-.12.2-.25.4-.11.2-.16.26-.15.28-.13.24a4.42 4.42 0 01-.15.3l-.07.13a9.6 9.6 0 00-.1.2l-.07.15v-16.1l.17-.12.17-.12.72-.49.16-.1a25.2 25.2 0 011.58-.92l.01-.01a52.18 52.18 0 011.83-.93l.36-.16.01-.01z"/>
  <path fill="#C5C8FB" d="M38.64 25.84v16.85a3.1 3.1 0 01-.18.3c-.14.2-.3.4-.48.57-.52.5-1.16.8-1.85.83l-2.5.1V33.22l.04-.09.02-.03.11-.27.03-.06.04-.08.04-.1.06-.12.04-.08c.04-.09.09-.17.12-.26l.14-.27.14-.25.1-.2.08-.13.15-.27.1-.17a17.01 17.01 0 01.2-.33l.13-.21a23.9 23.9 0 01.36-.57l.02-.01.12-.18a20.73 20.73 0 011.4-1.88l.14-.18.24-.28.05-.07a165.36 165.36 0 01.91-1.04l.23-.25z"/>
  <path fill="#C5C8FB" d="M38.64 43.31v5.49a2.67 2.67 0 01-2.66 2.67H7.75A2.67 2.67 0 015.1 48.8v-1h26a2.54 2.54 0 002.55-2.53v-.43l.33-.02 2.18-.08a3.14 3.14 0 002.18-1.05 4.2 4.2 0 00.31-.37z"/>
  <path fill="#C5C8FB" d="M38.64 43.31v5.49a2.67 2.67 0 01-2.66 2.67H7.75A2.67 2.67 0 015.1 48.8v-1H5v1a2.75 2.75 0 002.75 2.75h28.23a2.75 2.75 0 002.75-2.75v-5.61l-.09.12zM35.98 3.67h-2.34v.08h2.34a2.67 2.67 0 012.66 2.67v6.64l.09-.04v-6.6a2.75 2.75 0 00-2.75-2.75zm2.66 9.76v11.9l.09-.08V13.39l-.09.04zm0 12.4V42.7l.09-.16V25.75l-.09.09z"/>
  <path fill="#fff" d="M33.57 15.92l.07-.05-.07.05zm0 0l.07-.05-.07.05zM31.1.17H2.88A2.71 2.71 0 00.17 2.88v42.38a2.71 2.71 0 002.7 2.7H31.1a2.7 2.7 0 002.71-2.7V2.88A2.7 2.7 0 0031.1.17zm2.55 15.7l-.07.05.07-.05v29.39a2.54 2.54 0 01-2.55 2.54H2.88a2.54 2.54 0 01-2.54-2.54V2.88A2.54 2.54 0 012.88.34h28.21a2.54 2.54 0 012.55 2.54v12.99zm-.07.05l.07-.05-.07.05zm0 0l.07-.05-.07.05z"/>
  <path fill="#000" d="M31.1 0H2.87A2.88 2.88 0 000 2.88v42.38a2.88 2.88 0 002.88 2.87h28.21a2.88 2.88 0 002.88-2.87V2.88A2.88 2.88 0 0031.1 0zm2.54 45.26a2.54 2.54 0 01-2.55 2.54H2.88a2.54 2.54 0 01-2.54-2.54V2.88A2.54 2.54 0 012.88.34h28.21a2.54 2.54 0 012.55 2.54v42.38z"/>
  <path fill="#000" d="M24.74 14.08a3.03 3.03 0 00-5.71.36h-4.27a2.19 2.19 0 00-.3-.69L16 12.23a3.03 3.03 0 002.7.16 3.03 3.03 0 10-3.84-1.33l-1.54 1.54a3.03 3.03 0 00-3.62.51 3.03 3.03 0 105.07 2.97h4.26a2.54 2.54 0 00.26.64l-1.54 1.55a3.02 3.02 0 00-2.63-.15 3.03 3.03 0 102.59 5.48 3.04 3.04 0 001.2-4.19l1.53-1.52a3.03 3.03 0 004.3-3.81zm-8.52-5.03a1.4 1.4 0 011.83-.75 1.4 1.4 0 01.75 1.84 1.4 1.4 0 01-1.95.69 1.4 1.4 0 01-.63-1.78zm-3.09 6.75a1.4 1.4 0 11-2.58-1.08 1.4 1.4 0 012.58 1.09zm4.43 5.67a1.41 1.41 0 01-1.29.85 1.41 1.41 0 01-1.16-.61 1.4 1.4 0 112.45-.24zm5.67-5.67a1.41 1.41 0 01-1.29.86 1.4 1.4 0 111.29-.85z"/>
  <path fill="#49FFBA" d="M21.43 39.54a3.59 3.59 0 01-1.25.21l-7.87-.05a3.66 3.66 0 01.05-7.32l7.87.05h.15a3.53 3.53 0 01.88.15 3.5 3.5 0 00-3.12 3.45v.02a3.5 3.5 0 003.3 3.49z"/>
  <path fill="#000" d="M21.88 39.54a3.83 3.83 0 01-1.67.38h-.03l-7.87-.05a3.83 3.83 0 01-3.8-3.83V36a3.83 3.83 0 013.82-3.8h.03l7.87.05a3.83 3.83 0 011.48.3h-.08a3.57 3.57 0 00-.8.1 3.59 3.59 0 00-.42-.06h-.42l-7.63-.05h-.02a3.5 3.5 0 00-3.5 3.47v.02a3.5 3.5 0 003.47 3.49l7.83.05h.07a3.44 3.44 0 00.8-.1l.42.06H21.88z"/>
  <path fill="#fff" d="M21.66 32.4a3.7 3.7 0 00-3.04 1.58 3.66 3.66 0 002.84 5.73h.15a3.66 3.66 0 00.05-7.32zm.22 7.14h-.45a3.4 3.4 0 01-2.48-1.25 3.49 3.49 0 01-.8-2.23v-.03a3.49 3.49 0 013.48-3.47h.08a3.49 3.49 0 013.41 3.5v.02a3.5 3.5 0 01-3.24 3.46z"/>
  <path fill="#000" d="M21.66 32.23h-.03a3.88 3.88 0 00-1.65.37 3.83 3.83 0 00-2.18 3.43v.02a3.83 3.83 0 002.34 3.53l.04.02a3.8 3.8 0 001.42.28h.03a3.83 3.83 0 003.83-3.8v-.03a3.83 3.83 0 00-3.8-3.82zm3.46 3.85a3.5 3.5 0 01-3.49 3.47h-.02l-.17-.01a3.4 3.4 0 01-2.49-1.25 3.5 3.5 0 01-.8-2.23v-.03a3.49 3.49 0 013.48-3.47h.08a3.49 3.49 0 013.41 3.5v.02z"/>
  <path fill="#C5C8FB" d="M34 12.43h4.74V47.1H34z"/>
</svg>
