<svg width="620" height="450" viewBox="0 0 620 450" fill="none" xmlns="http://www.w3.org/2000/svg">
<g clip-path="url(#clip0_5_2025)">
<rect width="620" height="450" rx="15" fill="#ECDFFF"/>
<mask id="path-2-inside-1_5_2025" fill="white">
<path d="M531.529 137.926V137.926C537.369 137.926 542.104 142.66 542.104 148.501V219.001C542.104 224.841 537.369 229.576 531.529 229.576V229.576V137.926Z"/>
</mask>
<path d="M531.529 137.926V137.926C537.369 137.926 542.104 142.66 542.104 148.501V219.001C542.104 224.841 537.369 229.576 531.529 229.576V229.576V137.926Z" fill="url(#paint0_linear_5_2025)"/>
<path d="M530.354 148.501V219.001H553.854V148.501H530.354ZM543.279 229.576V137.926H519.779V229.576H543.279ZM530.354 219.001C530.354 218.352 530.88 217.826 531.529 217.826V241.326C543.858 241.326 553.854 231.331 553.854 219.001H530.354ZM531.529 149.676C530.88 149.676 530.354 149.15 530.354 148.501H553.854C553.854 136.171 543.858 126.176 531.529 126.176V149.676Z" fill="#BFBFC7" mask="url(#path-2-inside-1_5_2025)"/>
<path d="M471.296 38.3H128.664C98.0346 38.3 73.2043 63.1304 73.2043 93.7602V791.712C73.2043 822.342 98.0346 847.173 128.664 847.173H471.296C501.925 847.173 526.756 822.342 526.756 791.712V93.7602C526.756 63.1304 501.925 38.3 471.296 38.3Z" fill="#F9F9FA" stroke="#BFBFC7" stroke-width="9.40003" stroke-miterlimit="10"/>
<path d="M201.245 104.384L197.24 102.09L188.096 96.8546L187.811 96.691C186.312 95.8379 184.474 95.8379 182.975 96.691L182.691 96.856L169.833 104.221L169.549 104.386C168.058 105.239 167.136 106.825 167.131 108.543V123.925C167.136 125.644 168.058 127.229 169.549 128.084L182.695 135.612C183.659 136.165 184.888 135.839 185.45 134.881C185.718 134.421 185.79 133.874 185.652 133.36C185.513 132.846 185.175 132.41 184.712 132.147L171.855 124.784C171.427 124.54 171.163 124.087 171.162 123.595V108.873C171.163 108.381 171.427 107.927 171.855 107.684L174.13 106.38L184.698 100.315C185.126 100.072 185.65 100.072 186.077 100.315L198.939 107.681C199.364 107.926 199.627 108.378 199.629 108.869V123.601C199.628 124.093 199.364 124.546 198.936 124.79L194.586 127.282L192.39 123.971C194.604 122.009 195.872 119.194 195.873 116.236C195.873 110.5 191.169 105.833 185.386 105.833C179.603 105.833 174.9 110.5 174.9 116.236C174.9 121.972 179.603 126.639 185.386 126.639C186.593 126.64 187.79 126.433 188.926 126.027L192.262 131.056C192.314 131.133 192.37 131.207 192.431 131.277L192.466 131.312C192.537 131.388 192.613 131.458 192.695 131.521C192.715 131.537 192.734 131.554 192.755 131.57C192.845 131.635 192.94 131.693 193.04 131.743L193.108 131.773C193.196 131.813 193.288 131.847 193.381 131.874L193.443 131.894C193.549 131.921 193.657 131.939 193.766 131.947H193.856C193.887 131.947 193.917 131.947 193.948 131.947C194.01 131.947 194.071 131.94 194.13 131.934C194.159 131.934 194.186 131.934 194.214 131.934C194.329 131.918 194.442 131.892 194.553 131.857C194.583 131.849 194.611 131.836 194.641 131.824C194.729 131.792 194.814 131.754 194.897 131.711C194.916 131.701 194.937 131.695 194.955 131.684L201.245 128.089C202.737 127.233 203.659 125.646 203.663 123.925V108.542C203.658 106.823 202.736 105.238 201.245 104.384ZM178.932 116.236C178.91 113.621 180.469 111.251 182.879 110.235C185.289 109.219 188.073 109.757 189.931 111.599C191.788 113.441 192.35 116.221 191.354 118.639C190.358 121.058 188.002 122.636 185.386 122.636C181.838 122.647 178.951 119.784 178.932 116.236Z" fill="url(#paint1_linear_5_2025)"/>
<path d="M201.245 104.384L197.24 102.09L188.096 96.8546L187.811 96.691C186.312 95.8379 184.474 95.8379 182.975 96.691L182.691 96.856L169.833 104.221L169.549 104.386C168.058 105.239 167.136 106.825 167.131 108.543V123.925C167.136 125.644 168.058 127.229 169.549 128.084L182.695 135.612C183.659 136.165 184.888 135.839 185.45 134.881C185.718 134.421 185.79 133.874 185.652 133.36C185.513 132.846 185.175 132.41 184.712 132.147L171.855 124.784C171.427 124.54 171.163 124.087 171.162 123.595V108.873C171.163 108.381 171.427 107.927 171.855 107.684L174.13 106.38L184.698 100.315C185.126 100.072 185.65 100.072 186.077 100.315L198.939 107.681C199.364 107.926 199.627 108.378 199.629 108.869V123.601C199.628 124.093 199.364 124.546 198.936 124.79L194.586 127.282L192.39 123.971C194.604 122.009 195.872 119.194 195.873 116.236C195.873 110.5 191.169 105.833 185.386 105.833C179.603 105.833 174.9 110.5 174.9 116.236C174.9 121.972 179.603 126.639 185.386 126.639C186.593 126.64 187.79 126.433 188.926 126.027L192.262 131.056C192.314 131.133 192.37 131.207 192.431 131.277L192.466 131.312C192.537 131.388 192.613 131.458 192.695 131.521C192.715 131.537 192.734 131.554 192.755 131.57C192.845 131.635 192.94 131.693 193.04 131.743L193.108 131.773C193.196 131.813 193.288 131.847 193.381 131.874L193.443 131.894C193.549 131.921 193.657 131.939 193.766 131.947H193.856C193.887 131.947 193.917 131.947 193.948 131.947C194.01 131.947 194.071 131.94 194.13 131.934C194.159 131.934 194.186 131.934 194.214 131.934C194.329 131.918 194.442 131.892 194.553 131.857C194.583 131.849 194.611 131.836 194.641 131.824C194.729 131.792 194.814 131.754 194.897 131.711C194.916 131.701 194.937 131.695 194.955 131.684L201.245 128.089C202.737 127.233 203.659 125.646 203.663 123.925V108.542C203.658 106.823 202.736 105.238 201.245 104.384ZM178.932 116.236C178.91 113.621 180.469 111.251 182.879 110.235C185.289 109.219 188.073 109.757 189.931 111.599C191.788 113.441 192.35 116.221 191.354 118.639C190.358 121.058 188.002 122.636 185.386 122.636C181.838 122.647 178.951 119.784 178.932 116.236Z" fill="url(#paint2_linear_5_2025)"/>
<path d="M201.243 104.384L197.237 102.09L191.651 98.8926C190.367 98.1591 188.796 98.1355 187.49 98.83L184.696 100.315C185.123 100.072 185.648 100.072 186.075 100.315L198.937 107.681C199.362 107.925 199.625 108.378 199.627 108.869V123.601C199.626 124.093 199.362 124.546 198.934 124.79L194.583 127.282L195.262 128.367C196.074 129.661 197.764 130.083 199.089 129.321L201.243 128.089C202.737 127.236 203.66 125.646 203.66 123.925V108.541C203.658 106.822 202.736 105.236 201.243 104.384Z" fill="url(#paint3_linear_5_2025)"/>
<path d="M199.627 108.873V116.02H203.66V108.541C203.658 106.822 202.736 105.236 201.243 104.384L197.237 102.09L191.651 98.8926C190.367 98.1591 188.796 98.1355 187.49 98.83L184.696 100.315C185.124 100.072 185.647 100.072 186.075 100.315L198.937 107.681C199.364 107.926 199.627 108.381 199.627 108.873Z" fill="url(#paint4_linear_5_2025)"/>
<path opacity="0.9" d="M199.626 117.171V123.601C199.626 124.093 199.361 124.547 198.934 124.79L194.583 127.282L195.261 128.367C196.073 129.661 197.764 130.083 199.089 129.321L201.242 128.089C202.737 127.236 203.66 125.646 203.66 123.925V117.171H199.626Z" fill="url(#paint5_linear_5_2025)"/>
<path opacity="0.9" d="M194.274 126.815L192.387 123.97C191.376 124.873 190.2 125.571 188.924 126.027L190.93 129.055C192.064 128.333 193.178 127.586 194.274 126.815Z" fill="url(#paint6_linear_5_2025)"/>
<path d="M220.438 126.31V106.232H224.734L230.959 117.571L237.155 106.232H241.48V126.31H237.155V113.801L230.959 125.141L224.734 113.801V126.31H220.438ZM252.704 126.661C248.203 126.661 244.433 123.037 244.433 118.74C244.433 114.444 248.203 110.85 252.704 110.85C257.175 110.85 260.916 114.444 260.916 118.74C260.916 123.037 257.175 126.661 252.704 126.661ZM252.704 123.066C254.954 123.066 256.854 121.079 256.854 118.74C256.854 116.402 254.954 114.444 252.704 114.444C250.424 114.444 248.525 116.402 248.525 118.74C248.525 121.079 250.424 123.066 252.704 123.066ZM262.922 126.31V123.3L270.521 114.824H263.127V111.2H276.074V114.211L268.475 122.686H276.132V126.31H262.922ZM281.074 109.125C279.758 109.125 278.736 108.073 278.736 106.787C278.736 105.589 279.758 104.508 281.074 104.508C282.33 104.508 283.353 105.589 283.353 106.787C283.353 108.073 282.33 109.125 281.074 109.125ZM278.911 126.31V111.2H283.178V126.31H278.911ZM286.694 126.31V105.881H290.961V126.31H286.694ZM294.477 126.31V105.881H298.744V126.31H294.477ZM309.01 110.85C312.956 110.85 315.644 113.334 315.644 117.279V126.31H311.524V124.79C310.442 126.018 308.718 126.661 307.081 126.661C303.867 126.661 301.382 124.732 301.382 121.838C301.382 118.857 304.159 116.812 307.666 116.812C308.893 116.812 310.238 117.075 311.524 117.571V117.279C311.524 115.672 310.53 114.269 308.046 114.269C306.643 114.269 305.328 114.737 304.13 115.35L302.698 112.516C304.831 111.434 306.906 110.85 309.01 110.85ZM308.046 123.709C309.682 123.709 311.231 122.949 311.524 121.546V120.143C310.559 119.793 309.449 119.588 308.28 119.588C306.731 119.588 305.503 120.494 305.503 121.721C305.503 122.949 306.585 123.709 308.046 123.709ZM327.658 126.31V106.232H330.61L337.653 119.354L344.696 106.232H347.648V126.31H344.696V112.019L337.653 125.141L330.61 112.019V126.31H327.658ZM358.84 126.661C354.515 126.661 350.862 123.037 350.862 118.74C350.862 114.444 354.515 110.85 358.84 110.85C363.136 110.85 366.76 114.444 366.76 118.74C366.76 123.037 363.136 126.661 358.84 126.661ZM358.84 124.147C361.558 124.147 363.867 121.692 363.867 118.74C363.867 115.818 361.558 113.363 358.84 113.363C356.064 113.363 353.755 115.818 353.755 118.74C353.755 121.692 356.064 124.147 358.84 124.147ZM377.206 110.85C380.537 110.85 382.875 113.275 382.875 116.695V126.31H380.04V117.192C380.04 114.941 378.608 113.363 376.563 113.363C374.458 113.363 372.646 114.737 372.413 116.519V126.31H369.519V111.2H372.413V113.392C373.319 111.902 375.16 110.85 377.206 110.85ZM387.82 108.687C386.827 108.687 386.067 107.869 386.067 106.933C386.067 106.028 386.827 105.209 387.82 105.209C388.755 105.209 389.545 106.028 389.545 106.933C389.545 107.869 388.755 108.687 387.82 108.687ZM386.359 126.31V111.2H389.252V126.31H386.359ZM399.884 123.592L400.936 125.579C400.118 126.251 399.007 126.661 397.926 126.661C395.588 126.661 393.951 124.965 393.951 122.54V113.655H391.672V111.2H393.951V107.05H396.786V111.2H400.352V113.655H396.786V122.335C396.786 123.387 397.487 124.147 398.335 124.147C398.978 124.147 399.562 123.913 399.884 123.592ZM410.419 126.661C406.094 126.661 402.44 123.037 402.44 118.74C402.44 114.444 406.094 110.85 410.419 110.85C414.715 110.85 418.339 114.444 418.339 118.74C418.339 123.037 414.715 126.661 410.419 126.661ZM410.419 124.147C413.137 124.147 415.446 121.692 415.446 118.74C415.446 115.818 413.137 113.363 410.419 113.363C407.643 113.363 405.334 115.818 405.334 118.74C405.334 121.692 407.643 124.147 410.419 124.147ZM424.137 114.094C425.102 112.106 427.148 110.85 429.749 110.85V113.363C426.622 113.363 424.401 115.087 424.137 117.718V126.31H421.244V111.2H424.137V114.094Z" fill="black"/>
<path d="M96.406 175.79C96.406 172.67 98.9355 170.141 102.056 170.141H497.795C500.916 170.141 503.445 172.67 503.445 175.79V661.862C503.445 664.982 500.916 667.512 497.795 667.512H102.056C98.9354 667.512 96.406 664.982 96.406 661.862V175.79Z" fill="white"/>
<path d="M497.795 169.788H102.056C98.7404 169.788 96.0529 172.475 96.0529 175.79V661.862C96.0529 665.177 98.7404 667.865 102.056 667.865H497.795C501.111 667.865 503.798 665.177 503.798 661.862V175.79C503.798 172.475 501.111 169.788 497.795 169.788Z" stroke="black" stroke-opacity="0.1" stroke-width="0.706212"/>
<path d="M125.96 319V299.764H130.104V319H125.96ZM142.203 304.188C145.339 304.188 147.579 306.512 147.579 309.788V319H143.631V310.656C143.631 308.864 142.511 307.632 140.887 307.632C139.179 307.632 137.863 308.864 137.863 310.432V319H133.775V299.428H137.863V306.288C138.759 305.028 140.355 304.188 142.203 304.188ZM155.118 307.212C156.07 305.336 157.862 304.188 160.074 304.188V307.632C157.05 307.632 155.118 309.368 155.118 312.084V319H151.03V304.524H155.118V307.212ZM180.725 304.524H184.841V317.46C184.841 321.184 181.621 323.816 177.057 323.816C174.509 323.816 172.101 323.004 170.673 321.884L172.101 319C173.053 319.84 174.733 320.372 176.413 320.372C179.045 320.372 180.725 319.168 180.725 317.292V315.696C179.577 317.096 177.841 317.936 175.937 317.936C172.297 317.936 169.525 315.08 169.525 311.048C169.525 307.016 172.297 304.188 175.937 304.188C177.897 304.188 179.745 305.112 180.725 306.484V304.524ZM177.225 314.492C179.269 314.492 180.725 313.064 180.725 311.048C180.725 309.032 179.269 307.632 177.225 307.632C175.181 307.632 173.725 309.032 173.725 311.048C173.725 313.064 175.181 314.492 177.225 314.492ZM188.436 319V299.428H192.524V319H188.436ZM202.561 304.188C206.341 304.188 208.917 306.568 208.917 310.348V319H204.969V317.544C203.933 318.72 202.281 319.336 200.713 319.336C197.633 319.336 195.253 317.488 195.253 314.716C195.253 311.86 197.913 309.9 201.273 309.9C202.449 309.9 203.737 310.152 204.969 310.628V310.348C204.969 308.808 204.017 307.464 201.637 307.464C200.293 307.464 199.033 307.912 197.885 308.5L196.513 305.784C198.557 304.748 200.545 304.188 202.561 304.188ZM201.637 316.508C203.205 316.508 204.689 315.78 204.969 314.436V313.092C204.045 312.756 202.981 312.56 201.861 312.56C200.377 312.56 199.201 313.428 199.201 314.604C199.201 315.78 200.237 316.508 201.637 316.508ZM217.794 319.336C215.47 319.336 213.006 318.552 211.27 317.152L213.034 314.324C214.322 315.248 215.946 315.948 217.878 315.948C218.97 315.948 219.754 315.5 219.754 314.856C219.754 313.96 218.69 313.68 217.206 313.288C214.238 312.56 211.942 311.748 211.914 308.892C211.886 306.148 214.154 304.188 217.57 304.188C219.642 304.188 221.686 304.916 223.282 305.98L221.63 308.892C220.314 308.08 218.802 307.604 217.57 307.604C216.562 307.604 215.862 307.968 215.862 308.472C215.862 309.256 216.45 309.48 218.41 310.012C220.902 310.656 223.674 311.496 223.674 314.66C223.674 317.516 221.35 319.336 217.794 319.336ZM231.849 319.336C229.525 319.336 227.061 318.552 225.325 317.152L227.089 314.324C228.377 315.248 230.001 315.948 231.933 315.948C233.025 315.948 233.809 315.5 233.809 314.856C233.809 313.96 232.745 313.68 231.261 313.288C228.293 312.56 225.997 311.748 225.969 308.892C225.941 306.148 228.209 304.188 231.625 304.188C233.697 304.188 235.741 304.916 237.337 305.98L235.685 308.892C234.369 308.08 232.857 307.604 231.625 307.604C230.617 307.604 229.917 307.968 229.917 308.472C229.917 309.256 230.505 309.48 232.465 310.012C234.957 310.656 237.729 311.496 237.729 314.66C237.729 317.516 235.405 319.336 231.849 319.336ZM247.304 315.724C248.452 315.724 249.852 315.192 250.636 314.436L253.24 317.096C251.952 318.44 249.46 319.336 247.332 319.336C243.02 319.336 239.66 316.172 239.66 311.72C239.66 307.352 242.88 304.188 247.108 304.188C251.644 304.188 254.304 307.632 254.304 313.092H243.86C244.336 314.66 245.596 315.724 247.304 315.724ZM247.276 307.8C245.736 307.8 244.448 308.696 243.916 310.152H250.384C249.992 308.724 248.928 307.8 247.276 307.8ZM262.501 319.336C260.177 319.336 257.713 318.552 255.977 317.152L257.741 314.324C259.029 315.248 260.653 315.948 262.585 315.948C263.677 315.948 264.461 315.5 264.461 314.856C264.461 313.96 263.397 313.68 261.913 313.288C258.945 312.56 256.649 311.748 256.621 308.892C256.593 306.148 258.861 304.188 262.277 304.188C264.349 304.188 266.393 304.916 267.989 305.98L266.337 308.892C265.021 308.08 263.509 307.604 262.277 307.604C261.269 307.604 260.569 307.968 260.569 308.472C260.569 309.256 261.157 309.48 263.117 310.012C265.609 310.656 268.381 311.496 268.381 314.66C268.381 317.516 266.057 319.336 262.501 319.336ZM281.932 299.428H286.02V319H281.932V316.928C280.784 318.44 279.104 319.336 277.06 319.336C273.196 319.336 270.396 316.2 270.396 311.748C270.396 307.324 273.196 304.188 277.06 304.188C279.104 304.188 280.784 305.084 281.932 306.596V299.428ZM278.236 315.892C280.392 315.892 281.932 314.184 281.932 311.748C281.932 309.34 280.392 307.632 278.236 307.632C275.968 307.632 274.372 309.34 274.372 311.748C274.372 314.184 275.968 315.892 278.236 315.892ZM296.72 319.336C292.408 319.336 288.796 315.864 288.796 311.748C288.796 307.632 292.408 304.188 296.72 304.188C301.004 304.188 304.588 307.632 304.588 311.748C304.588 315.864 301.004 319.336 296.72 319.336ZM296.72 315.892C298.876 315.892 300.696 313.988 300.696 311.748C300.696 309.508 298.876 307.632 296.72 307.632C294.536 307.632 292.716 309.508 292.716 311.748C292.716 313.988 294.536 315.892 296.72 315.892ZM314.97 315.416L315.95 318.076C315.11 318.832 313.794 319.336 312.618 319.336C310.07 319.336 308.278 317.516 308.278 314.912V307.828H306.29V304.524H308.278V300.548H312.198V304.524H315.334V307.828H312.198V314.268C312.198 315.22 312.814 315.892 313.57 315.892C314.13 315.892 314.69 315.696 314.97 315.416ZM325.595 319.336C321.311 319.336 317.699 315.864 317.699 311.748C317.699 307.632 321.339 304.188 325.623 304.188C327.975 304.188 329.907 305.14 331.307 306.652L328.591 308.976C327.863 308.164 326.715 307.632 325.595 307.632C323.467 307.632 321.675 309.508 321.675 311.72C321.675 313.988 323.467 315.892 325.623 315.892C326.743 315.892 327.919 315.332 328.675 314.492L331.391 316.788C329.963 318.356 328.003 319.336 325.595 319.336ZM340.662 319.336C336.35 319.336 332.738 315.864 332.738 311.748C332.738 307.632 336.35 304.188 340.662 304.188C344.946 304.188 348.53 307.632 348.53 311.748C348.53 315.864 344.946 319.336 340.662 319.336ZM340.662 315.892C342.818 315.892 344.638 313.988 344.638 311.748C344.638 309.508 342.818 307.632 340.662 307.632C338.478 307.632 336.658 309.508 336.658 311.748C336.658 313.988 338.478 315.892 340.662 315.892ZM368.516 304.188C371.54 304.188 373.864 306.512 373.864 309.788V319.028H369.944V310.488C369.944 308.808 368.88 307.632 367.368 307.632C365.744 307.632 364.568 308.724 364.568 310.264V319.028H360.648V310.488C360.648 308.808 359.584 307.632 358.1 307.632C356.448 307.632 355.3 308.724 355.3 310.264V319H351.212V304.524H355.3V306.428C356 305.056 357.428 304.188 359.22 304.188C361.208 304.188 362.916 305.196 363.812 306.82C364.568 305.224 366.36 304.188 368.516 304.188ZM379.624 319.336C378.168 319.336 377.02 318.16 377.02 316.732C377.02 315.416 378.168 314.24 379.624 314.24C380.996 314.24 382.116 315.416 382.116 316.732C382.116 318.16 380.996 319.336 379.624 319.336ZM392.505 319.336C388.221 319.336 384.609 315.864 384.609 311.748C384.609 307.632 388.249 304.188 392.533 304.188C394.885 304.188 396.817 305.14 398.217 306.652L395.501 308.976C394.773 308.164 393.625 307.632 392.505 307.632C390.377 307.632 388.585 309.508 388.585 311.72C388.585 313.988 390.377 315.892 392.533 315.892C393.653 315.892 394.829 315.332 395.585 314.492L398.301 316.788C396.873 318.356 394.913 319.336 392.505 319.336ZM407.572 319.336C403.26 319.336 399.648 315.864 399.648 311.748C399.648 307.632 403.26 304.188 407.572 304.188C411.856 304.188 415.44 307.632 415.44 311.748C415.44 315.864 411.856 319.336 407.572 319.336ZM407.572 315.892C409.728 315.892 411.548 313.988 411.548 311.748C411.548 309.508 409.728 307.632 407.572 307.632C405.388 307.632 403.568 309.508 403.568 311.748C403.568 313.988 405.388 315.892 407.572 315.892ZM435.426 304.188C438.45 304.188 440.774 306.512 440.774 309.788V319.028H436.854V310.488C436.854 308.808 435.79 307.632 434.278 307.632C432.654 307.632 431.478 308.724 431.478 310.264V319.028H427.558V310.488C427.558 308.808 426.494 307.632 425.01 307.632C423.358 307.632 422.21 308.724 422.21 310.264V319H418.122V304.524H422.21V306.428C422.91 305.056 424.338 304.188 426.13 304.188C428.118 304.188 429.826 305.196 430.722 306.82C431.478 305.224 433.27 304.188 435.426 304.188ZM125.904 353V333.764H134.556C138.728 333.764 141.808 336.452 141.808 340.26C141.808 344.068 138.728 346.756 134.556 346.756H130.02V353H125.904ZM130.02 342.976H134.108C136.152 342.976 137.552 341.912 137.552 340.26C137.552 338.608 136.152 337.544 134.108 337.544H130.02V342.976ZM150.744 338.188C154.524 338.188 157.1 340.568 157.1 344.348V353H153.152V351.544C152.116 352.72 150.464 353.336 148.896 353.336C145.816 353.336 143.436 351.488 143.436 348.716C143.436 345.86 146.096 343.9 149.456 343.9C150.632 343.9 151.92 344.152 153.152 344.628V344.348C153.152 342.808 152.2 341.464 149.82 341.464C148.476 341.464 147.216 341.912 146.068 342.5L144.696 339.784C146.74 338.748 148.728 338.188 150.744 338.188ZM149.82 350.508C151.388 350.508 152.872 349.78 153.152 348.436V347.092C152.228 346.756 151.164 346.56 150.044 346.56C148.56 346.56 147.384 347.428 147.384 348.604C147.384 349.78 148.42 350.508 149.82 350.508ZM165.978 353.336C163.654 353.336 161.19 352.552 159.454 351.152L161.218 348.324C162.506 349.248 164.13 349.948 166.062 349.948C167.154 349.948 167.938 349.5 167.938 348.856C167.938 347.96 166.874 347.68 165.39 347.288C162.422 346.56 160.126 345.748 160.098 342.892C160.07 340.148 162.338 338.188 165.754 338.188C167.826 338.188 169.87 338.916 171.466 339.98L169.814 342.892C168.498 342.08 166.986 341.604 165.754 341.604C164.746 341.604 164.046 341.968 164.046 342.472C164.046 343.256 164.634 343.48 166.594 344.012C169.086 344.656 171.858 345.496 171.858 348.66C171.858 351.516 169.534 353.336 165.978 353.336ZM180.033 353.336C177.709 353.336 175.245 352.552 173.509 351.152L175.273 348.324C176.561 349.248 178.185 349.948 180.117 349.948C181.209 349.948 181.993 349.5 181.993 348.856C181.993 347.96 180.929 347.68 179.445 347.288C176.477 346.56 174.181 345.748 174.153 342.892C174.125 340.148 176.393 338.188 179.809 338.188C181.881 338.188 183.925 338.916 185.521 339.98L183.869 342.892C182.553 342.08 181.041 341.604 179.809 341.604C178.801 341.604 178.101 341.968 178.101 342.472C178.101 343.256 178.689 343.48 180.649 344.012C183.141 344.656 185.913 345.496 185.913 348.66C185.913 351.516 183.589 353.336 180.033 353.336ZM192.295 353L187.367 338.524H191.371L194.115 347.54L196.971 338.524H200.359L203.215 347.54L205.959 338.524H209.963L205.035 353H201.367L198.679 343.9L195.963 353H192.295ZM218.627 353.336C214.315 353.336 210.703 349.864 210.703 345.748C210.703 341.632 214.315 338.188 218.627 338.188C222.911 338.188 226.495 341.632 226.495 345.748C226.495 349.864 222.911 353.336 218.627 353.336ZM218.627 349.892C220.783 349.892 222.603 347.988 222.603 345.748C222.603 343.508 220.783 341.632 218.627 341.632C216.443 341.632 214.623 343.508 214.623 345.748C214.623 347.988 216.443 349.892 218.627 349.892ZM233.349 341.212C234.301 339.336 236.093 338.188 238.305 338.188V341.632C235.281 341.632 233.349 343.368 233.349 346.084V353H229.261V338.524H233.349V341.212ZM248.279 349.416L249.259 352.076C248.419 352.832 247.103 353.336 245.927 353.336C243.379 353.336 241.587 351.516 241.587 348.912V341.828H239.599V338.524H241.587V334.548H245.507V338.524H248.643V341.828H245.507V348.268C245.507 349.22 246.123 349.892 246.879 349.892C247.439 349.892 247.999 349.696 248.279 349.416ZM263.28 353L258.352 338.524H262.356L265.1 347.54L267.956 338.524H271.344L274.2 347.54L276.944 338.524H280.948L276.02 353H272.352L269.664 343.9L266.948 353H263.28ZM292.787 338.524H296.875V353H292.787V351.18C291.919 352.496 290.295 353.336 288.419 353.336C285.283 353.336 283.043 351.012 283.043 347.736V338.524H286.991V346.868C286.991 348.66 288.111 349.892 289.735 349.892C291.443 349.892 292.759 348.66 292.759 347.092L292.787 347.176V338.524ZM304.47 341.212C305.422 339.336 307.214 338.188 309.426 338.188V341.632C306.402 341.632 304.47 343.368 304.47 346.084V353H300.382V338.524H304.47V341.212ZM322.592 333.428H326.68V353H322.592V350.928C321.444 352.44 319.764 353.336 317.72 353.336C313.856 353.336 311.056 350.2 311.056 345.748C311.056 341.324 313.856 338.188 317.72 338.188C319.764 338.188 321.444 339.084 322.592 340.596V333.428ZM318.896 349.892C321.052 349.892 322.592 348.184 322.592 345.748C322.592 343.34 321.052 341.632 318.896 341.632C316.628 341.632 315.032 343.34 315.032 345.748C315.032 348.184 316.628 349.892 318.896 349.892ZM337.101 349.724C338.249 349.724 339.649 349.192 340.433 348.436L343.037 351.096C341.749 352.44 339.257 353.336 337.129 353.336C332.817 353.336 329.457 350.172 329.457 345.72C329.457 341.352 332.677 338.188 336.905 338.188C341.441 338.188 344.101 341.632 344.101 347.092H333.657C334.133 348.66 335.393 349.724 337.101 349.724ZM337.073 341.8C335.533 341.8 334.245 342.696 333.713 344.152H340.181C339.789 342.724 338.725 341.8 337.073 341.8ZM365.158 338.524H369.274V351.46C369.274 355.184 366.054 357.816 361.49 357.816C358.942 357.816 356.534 357.004 355.106 355.884L356.534 353C357.486 353.84 359.166 354.372 360.846 354.372C363.478 354.372 365.158 353.168 365.158 351.292V349.696C364.01 351.096 362.274 351.936 360.37 351.936C356.73 351.936 353.958 349.08 353.958 345.048C353.958 341.016 356.73 338.188 360.37 338.188C362.33 338.188 364.178 339.112 365.158 340.484V338.524ZM361.658 348.492C363.702 348.492 365.158 347.064 365.158 345.048C365.158 343.032 363.702 341.632 361.658 341.632C359.614 341.632 358.158 343.032 358.158 345.048C358.158 347.064 359.614 348.492 361.658 348.492ZM379.702 349.724C380.85 349.724 382.25 349.192 383.034 348.436L385.638 351.096C384.35 352.44 381.858 353.336 379.73 353.336C375.418 353.336 372.058 350.172 372.058 345.72C372.058 341.352 375.278 338.188 379.506 338.188C384.042 338.188 386.702 341.632 386.702 347.092H376.258C376.734 348.66 377.994 349.724 379.702 349.724ZM379.674 341.8C378.134 341.8 376.846 342.696 376.314 344.152H382.782C382.39 342.724 381.326 341.8 379.674 341.8ZM389.468 353V333.428H393.556V353H389.468ZM403.956 349.724C405.104 349.724 406.504 349.192 407.288 348.436L409.892 351.096C408.604 352.44 406.112 353.336 403.984 353.336C399.672 353.336 396.312 350.172 396.312 345.72C396.312 341.352 399.532 338.188 403.76 338.188C408.296 338.188 410.956 341.632 410.956 347.092H400.512C400.988 348.66 402.248 349.724 403.956 349.724ZM403.928 341.8C402.388 341.8 401.1 342.696 400.568 344.152H407.036C406.644 342.724 405.58 341.8 403.928 341.8ZM420.19 338.188C423.97 338.188 426.546 340.568 426.546 344.348V353H422.598V351.544C421.562 352.72 419.91 353.336 418.342 353.336C415.262 353.336 412.882 351.488 412.882 348.716C412.882 345.86 415.542 343.9 418.902 343.9C420.078 343.9 421.366 344.152 422.598 344.628V344.348C422.598 342.808 421.646 341.464 419.266 341.464C417.922 341.464 416.662 341.912 415.514 342.5L414.142 339.784C416.186 338.748 418.174 338.188 420.19 338.188ZM419.266 350.508C420.834 350.508 422.318 349.78 422.598 348.436V347.092C421.674 346.756 420.61 346.56 419.49 346.56C418.006 346.56 416.83 347.428 416.83 348.604C416.83 349.78 417.866 350.508 419.266 350.508ZM444.075 338.524L438.447 344.936L444.019 353H439.315L435.731 347.568L433.995 349.444V353H429.907V333.428H433.995V344.768L439.371 338.524H444.075ZM453.603 349.416L454.583 352.076C453.743 352.832 452.427 353.336 451.251 353.336C448.703 353.336 446.911 351.516 446.911 348.912V341.828H444.923V338.524H446.911V334.548H450.831V338.524H453.967V341.828H450.831V348.268C450.831 349.22 451.447 349.892 452.203 349.892C452.763 349.892 453.323 349.696 453.603 349.416Z" fill="black"/>
<rect x="155" y="205" width="44.1379" height="6.62069" rx="3.31034" fill="#592ACB"/>
<rect x="207.966" y="205" width="44.1379" height="6.62069" rx="3.31034" fill="#592ACB"/>
<rect x="260.931" y="205" width="129.103" height="6.62069" rx="3.31034" fill="#D9BFFF"/>
<path d="M304.914 228.86C304.552 227.718 303.686 227.013 302.407 227.013C300.776 227.013 299.53 228.296 299.53 230.628C299.53 232.97 300.766 234.254 302.464 234.254C304.006 234.254 305.031 233.271 305.064 231.719H302.685V230.52H306.47V231.616C306.47 234.047 304.801 235.58 302.464 235.58C299.854 235.58 298.086 233.685 298.086 230.638C298.086 227.563 299.906 225.686 302.398 225.686C304.476 225.686 306.08 226.984 306.404 228.86H304.914ZM311.314 235.594C309.184 235.594 307.877 234.127 307.877 231.884C307.877 229.665 309.203 228.132 311.216 228.132C312.852 228.132 314.413 229.152 314.413 231.762V232.26H309.278C309.316 233.652 310.125 234.433 311.329 234.433C312.128 234.433 312.739 234.085 312.993 233.403L314.324 233.643C314.004 234.818 312.89 235.594 311.314 235.594ZM309.283 231.207H313.035C313.031 230.102 312.316 229.293 311.225 229.293C310.082 229.293 309.34 230.182 309.283 231.207ZM317.379 225.818V235.448H315.973V225.818H317.379ZM322.383 235.594C320.253 235.594 318.946 234.127 318.946 231.884C318.946 229.665 320.272 228.132 322.285 228.132C323.921 228.132 325.482 229.152 325.482 231.762V232.26H320.347C320.385 233.652 321.194 234.433 322.398 234.433C323.197 234.433 323.808 234.085 324.062 233.403L325.393 233.643C325.073 234.818 323.959 235.594 322.383 235.594ZM320.352 231.207H324.104C324.1 230.102 323.385 229.293 322.294 229.293C321.151 229.293 320.409 230.182 320.352 231.207ZM329.144 235.608C327.771 235.608 326.704 234.828 326.704 233.407C326.704 231.766 328.105 231.409 329.473 231.249C330.771 231.099 331.298 231.108 331.298 230.596V230.563C331.298 229.744 330.832 229.27 329.925 229.27C328.979 229.27 328.453 229.763 328.246 230.276L326.925 229.975C327.395 228.658 328.599 228.132 329.906 228.132C331.053 228.132 332.708 228.55 332.708 230.652V235.448H331.335V234.461H331.279C331.011 235.002 330.338 235.608 329.144 235.608ZM329.45 234.48C330.621 234.48 331.302 233.699 331.302 232.843V231.912C331.1 232.114 330.019 232.237 329.563 232.298C328.749 232.406 328.081 232.674 328.081 233.426C328.081 234.122 328.655 234.48 329.45 234.48ZM334.581 235.448V225.818H335.987V231.282H336.109L338.987 228.226H340.67L337.746 231.324L340.868 235.448H339.142L336.688 232.185L335.987 232.886V235.448H334.581ZM345.323 228.226V229.354H343.842V233.328C343.842 234.141 344.251 234.292 344.707 234.292C344.933 234.292 345.107 234.249 345.201 234.23L345.455 235.392C345.29 235.453 344.989 235.538 344.543 235.542C343.433 235.566 342.431 234.931 342.436 233.619V229.354H341.378V228.226H342.436V226.495H343.842V228.226H345.323ZM349.914 235.594C347.784 235.594 346.476 234.127 346.476 231.884C346.476 229.665 347.802 228.132 349.815 228.132C351.451 228.132 353.012 229.152 353.012 231.762V232.26H347.878C347.915 233.652 348.724 234.433 349.928 234.433C350.727 234.433 351.338 234.085 351.592 233.403L352.923 233.643C352.603 234.818 351.489 235.594 349.914 235.594ZM347.882 231.207H351.635C351.63 230.102 350.915 229.293 349.824 229.293C348.682 229.293 347.939 230.182 347.882 231.207ZM279.705 255.448V245.818H283.137C285.375 245.818 286.471 247.163 286.471 248.936C286.471 250.713 285.366 252.063 283.132 252.063H281.158V255.448H279.705ZM281.158 250.831H283.001C284.421 250.831 285.009 250.027 285.009 248.936C285.009 247.845 284.421 247.064 282.982 247.064H281.158V250.831ZM290.099 255.608C288.726 255.608 287.658 254.828 287.658 253.407C287.658 251.766 289.06 251.409 290.428 251.249C291.726 251.099 292.252 251.108 292.252 250.596V250.563C292.252 249.744 291.787 249.27 290.879 249.27C289.934 249.27 289.408 249.763 289.201 250.276L287.879 249.975C288.35 248.658 289.553 248.132 290.861 248.132C292.008 248.132 293.663 248.55 293.663 250.652V255.448H292.29V254.461H292.234C291.966 255.002 291.293 255.608 290.099 255.608ZM290.404 254.48C291.575 254.48 292.257 253.699 292.257 252.843V251.912C292.055 252.114 290.973 252.237 290.517 252.298C289.704 252.406 289.036 252.674 289.036 253.426C289.036 254.122 289.61 254.48 290.404 254.48ZM300.948 249.989L299.674 250.215C299.509 249.73 299.105 249.246 298.23 249.246C297.431 249.246 296.829 249.641 296.833 250.196C296.829 250.685 297.172 250.953 297.967 251.141L299.114 251.404C300.44 251.71 301.089 252.34 301.089 253.36C301.089 254.668 299.88 255.594 298.136 255.594C296.514 255.594 295.451 254.875 295.216 253.596L296.575 253.389C296.744 254.099 297.285 254.461 298.127 254.461C299.048 254.461 299.645 254.023 299.645 253.464C299.645 253.013 299.321 252.702 298.625 252.547L297.402 252.279C296.048 251.978 295.428 251.296 295.428 250.271C295.428 248.992 296.584 248.132 298.216 248.132C299.777 248.132 300.656 248.865 300.948 249.989ZM308.047 249.989L306.773 250.215C306.608 249.73 306.204 249.246 305.329 249.246C304.53 249.246 303.928 249.641 303.933 250.196C303.928 250.685 304.271 250.953 305.066 251.141L306.213 251.404C307.539 251.71 308.188 252.34 308.188 253.36C308.188 254.668 306.98 255.594 305.235 255.594C303.613 255.594 302.55 254.875 302.315 253.596L303.674 253.389C303.843 254.099 304.384 254.461 305.226 254.461C306.147 254.461 306.745 254.023 306.745 253.464C306.745 253.013 306.42 252.702 305.724 252.547L304.502 252.279C303.147 251.978 302.527 251.296 302.527 250.271C302.527 248.992 303.683 248.132 305.315 248.132C306.876 248.132 307.755 248.865 308.047 249.989ZM311.3 255.448L309.174 248.226H310.627L312.043 253.53H312.113L313.533 248.226H314.986L316.397 253.506H316.467L317.873 248.226H319.326L317.206 255.448H315.772L314.304 250.234H314.196L312.729 255.448H311.3ZM323.483 255.594C321.447 255.594 320.116 254.103 320.116 251.87C320.116 249.622 321.447 248.132 323.483 248.132C325.519 248.132 326.85 249.622 326.85 251.87C326.85 254.103 325.519 255.594 323.483 255.594ZM323.488 254.414C324.809 254.414 325.43 253.252 325.43 251.865C325.43 250.483 324.809 249.307 323.488 249.307C322.157 249.307 321.536 250.483 321.536 251.865C321.536 253.252 322.157 254.414 323.488 254.414ZM322.101 247.092C321.659 247.092 321.268 246.712 321.268 246.274C321.268 245.809 321.659 245.451 322.101 245.451C322.571 245.451 322.928 245.809 322.928 246.274C322.928 246.712 322.571 247.092 322.101 247.092ZM324.866 247.092C324.424 247.092 324.033 246.712 324.033 246.274C324.033 245.809 324.424 245.451 324.866 245.451C325.336 245.451 325.693 245.809 325.693 246.274C325.693 246.712 325.336 247.092 324.866 247.092ZM328.419 255.448V248.226H329.778V249.373H329.853C330.117 248.597 330.841 248.118 331.687 248.118C331.866 248.118 332.143 248.132 332.284 248.15V249.495C332.172 249.462 331.842 249.411 331.551 249.411C330.554 249.411 329.825 250.092 329.825 251.038V255.448H328.419ZM337.299 248.226V249.354H335.818V253.328C335.818 254.141 336.227 254.292 336.683 254.292C336.909 254.292 337.083 254.249 337.177 254.23L337.431 255.392C337.266 255.453 336.966 255.538 336.519 255.542C335.409 255.566 334.408 254.931 334.412 253.619V249.354H333.354V248.226H334.412V246.495H335.818V248.226H337.299ZM341.89 255.594C339.76 255.594 338.453 254.127 338.453 251.884C338.453 249.665 339.779 248.132 341.791 248.132C343.428 248.132 344.989 249.152 344.989 251.762V252.26H339.854C339.891 253.652 340.7 254.433 341.904 254.433C342.703 254.433 343.315 254.085 343.569 253.403L344.899 253.643C344.58 254.818 343.465 255.594 341.89 255.594ZM339.859 251.207H343.611C343.606 250.102 342.891 249.293 341.801 249.293C340.658 249.293 339.915 250.182 339.859 251.207ZM346.549 255.448V248.226H347.908V249.373H347.983C348.246 248.597 348.97 248.118 349.817 248.118C349.995 248.118 350.273 248.132 350.414 248.15V249.495C350.301 249.462 349.972 249.411 349.68 249.411C348.683 249.411 347.955 250.092 347.955 251.038V255.448H346.549ZM355.544 250.633C355.544 248.277 356.174 246.312 357.368 244.638H358.657C357.73 245.879 357.002 248.4 357.002 250.633C357.002 252.871 357.73 255.392 358.657 256.633H357.368C356.174 254.959 355.544 252.994 355.544 250.633ZM360.12 255.448V254.395L363.379 251.019C364.413 249.923 364.921 249.312 364.921 248.461C364.921 247.502 364.178 246.9 363.2 246.9C362.161 246.9 361.493 247.577 361.498 248.611H360.111C360.111 246.853 361.428 245.686 363.228 245.686C365.044 245.686 366.304 246.871 366.304 248.418C366.304 249.495 365.801 250.346 364.037 252.128L362.123 254.132V254.202H366.459V255.448H360.12ZM370.964 250.638C370.964 252.994 370.333 254.959 369.139 256.633H367.851C368.777 255.392 369.506 252.871 369.506 250.638C369.506 248.4 368.777 245.879 367.851 244.638H369.139C370.333 246.312 370.964 248.277 370.964 250.638Z" fill="#592ACB"/>
<rect x="398.862" y="205" width="44.1379" height="6.62069" rx="3.31034" fill="#9E9E9E"/>
<rect x="124" y="388" width="351" height="40" rx="4" fill="#592ACB"/>
<path d="M250.67 410.29H255.965V412H248.81V401.695H250.67V410.29ZM261.039 410.56C261.759 410.56 262.614 410.23 263.049 409.78L264.204 410.98C263.529 411.7 262.179 412.18 261.054 412.18C258.834 412.18 257.004 410.485 257.004 408.1C257.004 405.775 258.744 404.065 260.949 404.065C263.349 404.065 264.744 405.88 264.744 408.745H258.894C259.119 409.81 259.929 410.56 261.039 410.56ZM261.024 405.685C260.004 405.685 259.179 406.33 258.909 407.35H262.989C262.779 406.375 262.119 405.685 261.024 405.685ZM269.705 404.065C271.76 404.065 273.035 405.37 273.035 407.335V412H271.25V411.07C270.68 411.79 269.705 412.18 268.805 412.18C267.155 412.18 265.91 411.205 265.91 409.705C265.91 408.175 267.335 407.125 269.075 407.125C269.78 407.125 270.545 407.275 271.25 407.545V407.335C271.25 406.435 270.755 405.565 269.345 405.565C268.61 405.565 267.905 405.82 267.245 406.15L266.615 404.875C267.71 404.335 268.73 404.065 269.705 404.065ZM269.21 410.845C270.095 410.845 271.04 410.395 271.25 409.57V408.7C270.68 408.505 270.035 408.4 269.345 408.4C268.43 408.4 267.695 408.91 267.695 409.645C267.695 410.38 268.34 410.845 269.21 410.845ZM282.337 404.245L279.142 407.71L282.232 412H280.102L277.912 408.91L276.817 410.065V412H274.987V401.515H276.817V407.92L280.177 404.245H282.337ZM292.263 404.065C294.318 404.065 295.818 405.745 295.818 408.115C295.818 410.5 294.318 412.18 292.263 412.18C291.108 412.18 290.178 411.655 289.563 410.77V412H287.733V401.515H289.563V405.475C290.178 404.59 291.108 404.065 292.263 404.065ZM291.768 410.62C293.073 410.62 294.003 409.57 294.003 408.115C294.003 406.66 293.073 405.625 291.768 405.625C290.478 405.625 289.578 406.66 289.578 408.115C289.578 409.57 290.478 410.62 291.768 410.62ZM301.088 410.56C301.808 410.56 302.663 410.23 303.098 409.78L304.253 410.98C303.578 411.7 302.228 412.18 301.103 412.18C298.883 412.18 297.053 410.485 297.053 408.1C297.053 405.775 298.793 404.065 300.998 404.065C303.398 404.065 304.793 405.88 304.793 408.745H298.943C299.168 409.81 299.978 410.56 301.088 410.56ZM301.073 405.685C300.053 405.685 299.228 406.33 298.958 407.35H303.038C302.828 406.375 302.168 405.685 301.073 405.685ZM310.609 404.065C312.304 404.065 313.489 405.31 313.489 407.065V412H311.719V407.425C311.719 406.375 311.044 405.625 310.084 405.625C309.049 405.625 308.194 406.375 308.194 407.305V412H306.364V401.515H308.194V405.31C308.659 404.56 309.574 404.065 310.609 404.065ZM319.091 410.56C319.811 410.56 320.666 410.23 321.101 409.78L322.256 410.98C321.581 411.7 320.231 412.18 319.106 412.18C316.886 412.18 315.056 410.485 315.056 408.1C315.056 405.775 316.796 404.065 319.001 404.065C321.401 404.065 322.796 405.88 322.796 408.745H316.946C317.171 409.81 317.981 410.56 319.091 410.56ZM319.076 405.685C318.056 405.685 317.231 406.33 316.961 407.35H321.041C320.831 406.375 320.171 405.685 319.076 405.685ZM328.957 404.065C331.012 404.065 332.512 405.745 332.512 408.115C332.512 410.5 331.012 412.18 328.957 412.18C327.802 412.18 326.872 411.655 326.257 410.77V412H324.427V401.515H326.257V405.475C326.872 404.59 327.802 404.065 328.957 404.065ZM328.462 410.62C329.767 410.62 330.697 409.57 330.697 408.115C330.697 406.66 329.767 405.625 328.462 405.625C327.172 405.625 326.272 406.66 326.272 408.115C326.272 409.57 327.172 410.62 328.462 410.62ZM337.782 410.56C338.502 410.56 339.357 410.23 339.792 409.78L340.947 410.98C340.272 411.7 338.922 412.18 337.797 412.18C335.577 412.18 333.747 410.485 333.747 408.1C333.747 405.775 335.487 404.065 337.692 404.065C340.092 404.065 341.487 405.88 341.487 408.745H335.637C335.862 409.81 336.672 410.56 337.782 410.56ZM337.767 405.685C336.747 405.685 335.922 406.33 335.652 407.35H339.732C339.522 406.375 338.862 405.685 337.767 405.685ZM347.303 404.065C348.998 404.065 350.183 405.31 350.183 407.065V412H348.413V407.425C348.413 406.375 347.738 405.625 346.778 405.625C345.818 405.625 345.023 406.27 344.903 407.095V412H343.073V404.245H344.903V405.28C345.383 404.56 346.283 404.065 347.303 404.065Z" fill="white"/>
</g>
<defs>
<linearGradient id="paint0_linear_5_2025" x1="536.816" y1="137.926" x2="536.816" y2="229.576" gradientUnits="userSpaceOnUse">
<stop stop-color="#8060FE"/>
<stop offset="1" stop-color="#626BFA"/>
</linearGradient>
<linearGradient id="paint1_linear_5_2025" x1="192.726" y1="101.129" x2="174.795" y2="132.183" gradientUnits="userSpaceOnUse">
<stop stop-color="#FF980E"/>
<stop offset="0.21" stop-color="#FF7139"/>
<stop offset="0.36" stop-color="#FF5854"/>
<stop offset="0.46" stop-color="#FF4F5E"/>
<stop offset="0.69" stop-color="#FF3750"/>
<stop offset="0.86" stop-color="#F92261"/>
<stop offset="1" stop-color="#F5156C"/>
</linearGradient>
<linearGradient id="paint2_linear_5_2025" x1="192.726" y1="101.129" x2="174.795" y2="132.183" gradientUnits="userSpaceOnUse">
<stop stop-color="#FFF44F" stop-opacity="0.8"/>
<stop offset="0.09" stop-color="#FFF44F" stop-opacity="0.7"/>
<stop offset="0.75" stop-color="#FFF44F" stop-opacity="0"/>
</linearGradient>
<linearGradient id="paint3_linear_5_2025" x1="194.178" y1="137.181" x2="194.178" y2="98.7049" gradientUnits="userSpaceOnUse">
<stop stop-color="#3A8EE6"/>
<stop offset="0.24" stop-color="#5C79F0"/>
<stop offset="0.63" stop-color="#9059FF"/>
<stop offset="1" stop-color="#C139E6"/>
</linearGradient>
<linearGradient id="paint4_linear_5_2025" x1="187.637" y1="98.5656" x2="203.627" y2="114.556" gradientUnits="userSpaceOnUse">
<stop stop-color="#6E008B" stop-opacity="0.5"/>
<stop offset="0.5" stop-color="#C846CB" stop-opacity="0"/>
</linearGradient>
<linearGradient id="paint5_linear_5_2025" x1="202.121" y1="118.347" x2="194.611" y2="125.856" gradientUnits="userSpaceOnUse">
<stop offset="0.14" stop-color="#6A2BEA" stop-opacity="0"/>
<stop offset="0.34" stop-color="#642DE4" stop-opacity="0.03"/>
<stop offset="0.55" stop-color="#5131D3" stop-opacity="0.12"/>
<stop offset="0.76" stop-color="#3139B7" stop-opacity="0.27"/>
<stop offset="0.98" stop-color="#054490" stop-opacity="0.48"/>
<stop offset="1" stop-color="#00458B" stop-opacity="0.5"/>
</linearGradient>
<linearGradient id="paint6_linear_5_2025" x1="190.074" y1="124.805" x2="192.251" y2="127.401" gradientUnits="userSpaceOnUse">
<stop stop-color="#960E18" stop-opacity="0.6"/>
<stop offset="0.19" stop-color="#AC1624" stop-opacity="0.48"/>
<stop offset="0.58" stop-color="#E42C41" stop-opacity="0.16"/>
<stop offset="0.75" stop-color="#FF3750" stop-opacity="0"/>
</linearGradient>
<clipPath id="clip0_5_2025">
<rect width="620" height="450" rx="15" fill="white"/>
</clipPath>
</defs>
</svg>
