<svg width="242" height="195" viewBox="0 0 242 195" fill="none" xmlns="http://www.w3.org/2000/svg">
<g opacity="0.5">
<path fill-rule="evenodd" clip-rule="evenodd" d="M106.146 11.3187C137.923 9.46531 165.959 35.2181 184.266 61.6622C201.121 86.0101 206.292 116.966 196.418 144.989C187.567 170.106 161.997 179.045 137.394 188.389C116.376 196.371 94.6227 196.786 73.1628 190.125C44.9358 181.363 10.0173 175.572 1.98749 146.725C-6.19355 117.336 19.9038 92.6531 38.4431 68.6061C57.317 44.1252 75.5825 13.1013 106.146 11.3187Z" fill="#D9BFFF"/>
</g>
<path d="M141.597 85.519C141.374 83.3649 141.137 81.2108 140.937 78.755C140.405 72.2926 139.07 63.1089 138.101 57.2137C138.008 56.6824 137.943 56.1725 137.886 55.6627C137.584 53.2932 137.247 50.6005 134.656 48.6044C131.576 46.2348 126.961 46.0194 123.3 46.0912C118.756 46.1917 114.98 46.0912 111.326 46.0912C107.113 46.0122 102.756 45.9332 97.3721 46.0912C84.559 46.5292 74.6244 46.8882 63.3833 47.4483C57.5547 47.7427 46.9955 48.949 41.7985 51.0385C32.5099 54.8298 35.8263 78.8771 37.6854 89.0374C37.8936 90.1791 38.0587 91.4142 38.2453 92.7138C38.9631 98.092 39.8461 104.203 43.8802 107.47C48.4455 111.182 53.4559 111.778 59.3851 111.778H61.4237C64.5677 111.728 67.4893 111.663 70.2888 111.606C73.8348 111.527 77.1798 111.455 80.489 111.419C82.9798 111.419 85.5137 111.419 88.0189 111.419C93.1298 111.419 98.4129 111.419 103.466 111.211C107.228 111.067 110.587 111.053 113.839 111.038C116.488 111.038 124.972 110.406 132.15 109.846C138.317 109.365 142.946 104.007 142.53 97.8335C142.207 92.8933 141.834 87.7521 141.597 85.519Z" fill="#9059FF"/>
<path fill-rule="evenodd" clip-rule="evenodd" d="M53.5727 98.1624C55.5575 98.3542 57.5509 98.4446 59.545 98.4353C62.8921 98.4353 66.2508 98.2184 69.5499 98.0052C69.8521 97.9858 70.1543 97.9664 70.4558 97.947L70.6187 97.9355C74.337 97.6735 78.1831 97.402 81.8548 97.4588C82.2445 97.4753 82.6228 97.3209 82.8884 97.0351C83.1612 96.7608 83.3112 96.3874 83.3047 96.0011C83.276 93.8111 82.4721 85.2376 82.4362 84.8786C82.3694 84.1362 81.7456 83.5689 81.0005 83.5718C80.9604 83.5725 80.8369 83.5739 80.6438 83.5754C78.7258 83.5955 69.8909 83.6852 66.1991 83.9595L61.9281 84.3042C61.7336 84.3193 61.539 84.3343 61.3438 84.3501C57.1187 84.6812 52.7659 85.0222 48.4977 85.0222H48.3183C47.8976 85.0237 47.4985 85.2104 47.2272 85.532C46.9523 85.8552 46.8338 86.2838 46.9042 86.7025C47.0405 87.4844 47.131 88.3188 47.22 89.1309C47.225 89.1761 47.2293 89.2206 47.2344 89.2659C47.6363 92.9925 48.1388 97.6239 53.5727 98.1624ZM49.9922 88.071C49.9843 88.0079 49.9771 87.944 49.9692 87.8801C54.068 87.8154 58.1739 87.4851 62.165 87.1476C63.5626 87.0234 64.9788 86.9085 66.4145 86.803C69.537 86.5732 76.7295 86.4368 79.7013 86.4368L79.7207 86.6493C79.9044 88.7008 80.2303 92.3391 80.3689 94.5579C77.1164 94.5859 73.7965 94.8156 70.5721 95.0382C70.4666 95.0454 70.3603 95.0533 70.2548 95.0605L70.2232 95.0626C64.8065 95.4425 59.2119 95.8345 53.8598 95.3046C51.0244 95.0246 50.5507 93.2654 50.0913 88.9571C50.0618 88.6606 50.0274 88.369 49.9922 88.071Z" fill="#E7DFFF"/>
<path d="M91.6935 94.4807C91.5033 94.4814 91.3145 94.4419 91.1408 94.3658C90.789 94.2179 90.5105 93.9372 90.367 93.5846C90.2227 93.2313 90.2248 92.8357 90.3727 92.4846C91.5212 89.7344 94.2346 86.4745 96.7757 85.7996C97.5552 85.5403 98.4137 85.7278 99.0152 86.2878C99.2263 86.491 99.395 86.7352 99.5105 87.0059C100.839 85.8067 102.08 85.1892 103.229 85.1677C103.845 85.1253 104.441 85.3946 104.815 85.8857C105.44 86.7546 105.153 87.8244 104.765 88.9661L104.88 88.8225C105.705 87.8244 106.717 86.5679 108.311 86.6684C109.383 86.7948 110.353 87.3685 110.981 88.2481C111.234 88.1734 111.476 88.065 111.699 87.925C112.319 87.459 113.196 87.5695 113.682 88.1749C114.166 88.7802 114.083 89.6612 113.494 90.1653C112.819 90.6385 112.062 90.9824 111.261 91.1777L110.91 91.2926C110.296 91.4944 109.624 91.2625 109.266 90.7254C108.548 89.6411 108.167 89.5334 108.167 89.5334C107.778 89.8723 107.427 90.2529 107.119 90.6679C106.323 91.6301 105.332 92.822 103.832 93.0015C103.077 93.1394 102.306 92.8658 101.808 92.2835C101.054 91.3285 101.377 90.0791 101.808 88.8297C100.813 89.6993 99.9262 90.6859 99.166 91.7665C98.7662 92.3101 98.0412 92.5025 97.4246 92.2275C96.808 91.9532 96.4663 91.2854 96.6034 90.6248L96.6608 90.3807C96.78 89.8759 96.8711 89.3654 96.9336 88.8512C95.2051 90.0253 93.8563 91.6768 93.0502 93.6047C92.8205 94.1475 92.2821 94.4944 91.6935 94.4807Z" fill="#0083B3"/>
<path d="M140.519 74.5627C140.074 70.5273 139.407 65.58 138.639 60.6398C138.506 59.7667 137.748 59.1255 136.866 59.1391C132.099 59.2038 127.261 59.4335 122.581 59.6561C117.391 59.9003 112.022 60.1516 106.789 60.1803C90.4083 60.2808 76.9349 60.6901 63.1097 61.5159C54.9768 61.9969 42.3575 62.5858 37.3113 62.8155C36.3924 62.8522 35.6574 63.591 35.6244 64.5101C35.488 69.3612 35.7012 74.2159 36.2632 79.0362C36.3587 79.9351 37.1174 80.6173 38.0219 80.6158C38.0958 80.623 38.1705 80.623 38.2444 80.6158C47.1526 79.4885 56.6636 79.3018 65.8517 79.1151C69.7064 79.0361 73.6831 78.9572 77.5163 78.8064C85.2113 78.5048 93.0571 78.2535 100.637 78.0093C113.17 77.6072 126.127 77.1908 138.875 76.5732C139.362 76.5467 139.817 76.3205 140.132 75.9486C140.453 75.5637 140.594 75.0589 140.519 74.5627Z" fill="#432F71"/>
<path d="M205.882 120.725C205.635 118.341 205.373 115.958 205.151 113.241C204.563 106.091 203.086 95.9296 202.014 89.4071C201.911 88.8192 201.839 88.2551 201.776 87.691C201.442 85.0693 201.069 82.0901 198.202 79.8815C194.794 77.2598 189.688 77.0215 185.637 77.1009C180.61 77.2121 176.432 77.1009 172.39 77.1009C167.728 77.0135 162.907 76.9261 156.95 77.1009C142.774 77.5855 131.782 77.9827 119.345 78.6024C112.896 78.9281 101.213 80.2628 95.4628 82.5747C85.1858 86.7694 88.855 113.376 90.912 124.617C91.1423 125.881 91.325 127.247 91.5315 128.685C92.3257 134.636 93.3026 141.396 97.766 145.011C102.817 149.118 108.361 149.778 114.921 149.778H117.176C120.655 149.722 123.888 149.651 126.985 149.587C130.908 149.5 134.609 149.42 138.271 149.381C141.027 149.381 143.83 149.381 146.602 149.381C152.257 149.381 158.102 149.381 163.693 149.15C167.855 148.991 171.572 148.975 175.17 148.96C178.1 148.96 187.488 148.26 195.43 147.641C202.253 147.108 207.375 141.179 206.914 134.35C206.557 128.884 206.144 123.195 205.882 120.725Z" fill="#C9EFFD"/>
<path fill-rule="evenodd" clip-rule="evenodd" d="M108.49 134.714C110.686 134.926 112.891 135.026 115.097 135.015C118.801 135.015 122.517 134.776 126.167 134.54C126.501 134.518 126.836 134.497 127.169 134.475L127.35 134.463C131.464 134.173 135.719 133.872 139.781 133.935C140.213 133.953 140.631 133.782 140.925 133.466C141.227 133.163 141.393 132.75 141.386 132.322C141.354 129.899 140.464 120.413 140.425 120.016C140.351 119.195 139.661 118.567 138.836 118.57C138.792 118.571 138.655 118.573 138.442 118.574C136.319 118.596 126.544 118.696 122.46 118.999L117.734 119.381C117.519 119.397 117.304 119.414 117.088 119.431C112.413 119.798 107.597 120.175 102.874 120.175H102.676C102.211 120.177 101.769 120.383 101.469 120.739C101.165 121.097 101.034 121.571 101.111 122.034C101.262 122.899 101.362 123.822 101.461 124.721C101.466 124.771 101.471 124.82 101.477 124.87C101.921 128.993 102.477 134.118 108.49 134.714ZM104.528 123.548C104.519 123.478 104.511 123.408 104.503 123.337C109.038 123.265 113.58 122.9 117.996 122.527C119.543 122.389 121.11 122.262 122.698 122.145C126.153 121.891 134.111 121.74 137.399 121.74L137.42 121.975C137.623 124.245 137.984 128.271 138.137 130.725C134.539 130.756 130.866 131.011 127.298 131.257C127.181 131.265 127.064 131.274 126.947 131.282L126.912 131.284C120.919 131.704 114.729 132.138 108.807 131.552C105.67 131.242 105.146 129.295 104.638 124.529C104.605 124.201 104.567 123.878 104.528 123.548Z" fill="#0083B3"/>
<path d="M150.667 130.64C150.457 130.641 150.248 130.597 150.056 130.513C149.667 130.349 149.358 130.039 149.2 129.649C149.04 129.258 149.042 128.82 149.206 128.431C150.477 125.389 153.479 121.782 156.29 121.035C157.153 120.748 158.103 120.956 158.768 121.575C159.002 121.8 159.188 122.07 159.316 122.37C160.786 121.043 162.16 120.36 163.43 120.336C164.112 120.289 164.771 120.587 165.185 121.13C165.876 122.092 165.559 123.275 165.13 124.539L165.257 124.38C166.17 123.275 167.29 121.885 169.053 121.996C170.24 122.136 171.313 122.771 172.008 123.744C172.287 123.661 172.555 123.541 172.802 123.387C173.487 122.871 174.459 122.993 174.996 123.663C175.532 124.333 175.439 125.308 174.787 125.865C174.041 126.389 173.203 126.769 172.317 126.985L171.928 127.113C171.25 127.336 170.506 127.079 170.11 126.485C169.315 125.285 168.894 125.166 168.894 125.166C168.464 125.541 168.075 125.962 167.735 126.421C166.853 127.486 165.757 128.805 164.097 129.003C163.263 129.156 162.409 128.853 161.858 128.209C161.024 127.152 161.381 125.77 161.858 124.388C160.757 125.35 159.776 126.441 158.935 127.637C158.493 128.238 157.69 128.451 157.008 128.147C156.326 127.843 155.948 127.105 156.1 126.374L156.163 126.104C156.295 125.545 156.396 124.98 156.465 124.411C154.553 125.71 153.06 127.538 152.168 129.671C151.914 130.271 151.319 130.655 150.667 130.64Z" fill="#0083B3"/>
<path d="M204.689 108.602C204.197 104.137 203.458 98.6635 202.608 93.1976C202.461 92.2316 201.624 91.5221 200.647 91.5372C195.373 91.6087 190.02 91.863 184.842 92.1092C179.1 92.3793 173.159 92.6574 167.369 92.6892C149.246 92.8004 134.338 93.2533 119.042 94.1669C110.043 94.6992 96.0812 95.3506 90.4979 95.6049C89.4814 95.6454 88.6681 96.4629 88.6316 97.4798C88.4807 102.847 88.7165 108.218 89.3384 113.552C89.444 114.546 90.2835 115.301 91.2842 115.299C91.366 115.307 91.4486 115.307 91.5304 115.299C101.387 114.052 111.91 113.846 122.076 113.639C126.341 113.552 130.74 113.464 134.982 113.297C143.495 112.964 152.176 112.686 160.563 112.416C174.43 111.971 188.765 111.51 202.87 110.827C203.409 110.797 203.912 110.547 204.26 110.135C204.616 109.71 204.772 109.151 204.689 108.602Z" fill="#432F71"/>
<path d="M97.4694 35.6225C97.5479 37.6207 97.4727 39.0061 97.4694 42.5664C97.4686 42.8778 97.4694 42.2546 97.4694 42.5664C97.4678 45.4011 97.4039 47.6924 97.4694 49.5103C97.5018 50.4132 98.3122 51.2791 99.2054 51.2463C100.099 51.2135 100.974 50.4132 100.941 49.5103C100.878 47.7433 100.94 45.3634 100.941 42.5664C100.941 42.8777 100.941 42.2555 100.941 42.5664C100.945 38.9623 101.021 37.6792 100.941 35.6225C100.906 34.7197 100.098 33.8508 99.2054 33.8865C98.3122 33.9222 97.4338 34.7197 97.4694 35.6225Z" fill="#FCD400"/>
<path d="M93.9999 44.3024C94.8889 44.3493 96.1619 44.2668 97.4718 44.3024C97.1672 44.2943 97.64 44.3069 97.4718 44.3024C100.167 44.3736 101.254 44.1773 102.68 44.3024C103.532 44.3772 104.339 43.4001 104.416 42.5664C104.492 41.7327 103.533 40.9052 102.68 40.8304C101.168 40.6977 100.232 40.9034 97.4718 40.8304C97.168 40.8224 97.64 40.8349 97.4718 40.8304C96.1875 40.7955 94.8556 40.8756 93.9999 40.8304C93.1449 40.7853 92.3096 41.7305 92.2639 42.5664C92.2174 43.4022 93.1449 44.2573 93.9999 44.3024Z" fill="#FCD400"/>
<path d="M199.895 117.214C201.081 117.165 201.227 117.166 203.367 117.214C203.702 117.222 204.915 117.21 205.103 117.214C206.8 117.249 207.406 117.268 208.575 117.214C209.465 117.171 210.352 116.394 210.311 115.478C210.27 114.562 209.464 113.7 208.575 113.742C207.493 113.793 206.735 113.776 205.103 113.742C204.917 113.738 203.702 113.75 203.367 113.742C201.161 113.693 201.17 113.689 199.895 113.742C199.005 113.778 198.123 114.561 198.159 115.478C198.194 116.394 199.004 117.251 199.895 117.214Z" fill="#EAF3F3"/>
<path d="M205.101 120.686C205.119 119.865 205.094 118.385 205.101 117.214C205.099 117.574 205.101 117.013 205.101 117.214C205.114 114.494 205.031 113.447 205.101 112.006C205.143 111.119 204.273 110.312 203.365 110.27C202.455 110.228 201.671 111.118 201.629 112.006C201.556 113.508 201.642 114.448 201.629 117.214C201.627 117.574 201.629 117.014 201.629 117.214C201.622 118.369 201.646 119.886 201.629 120.686C201.609 121.573 202.455 122.403 203.365 122.422C204.274 122.441 205.081 121.573 205.101 120.686Z" fill="#EAF3F3"/>
<path d="M187.74 16.5266C187.784 17.4677 187.648 18.548 187.74 19.9986C187.727 19.794 187.754 20.2034 187.74 19.9986C187.965 23.5404 187.74 24.9582 187.74 26.9425C187.74 27.7765 188.697 28.6785 189.476 28.6785C190.256 28.6785 191.212 27.7765 191.212 26.9425C191.212 24.8675 191.441 23.608 191.212 19.9986C191.199 19.7941 191.226 20.2028 191.212 19.9986C191.122 18.5646 191.255 17.4454 191.212 16.5266C191.173 15.6936 190.254 14.7489 189.476 14.7906C188.698 14.8323 187.701 15.6937 187.74 16.5266Z" fill="#90BFFF"/>
<path d="M186.006 23.4705C187.652 23.646 188.297 23.6425 191.214 23.4705C191.897 23.4302 192.569 23.4891 192.95 23.4705C193.686 23.4344 194.104 23.4705 194.686 23.4705C195.557 23.4705 196.422 22.5775 196.422 21.7345C196.422 20.8915 195.557 19.9985 194.686 19.9985C194.044 19.9985 193.734 19.9601 192.95 19.9985C192.555 20.0178 191.909 19.9576 191.214 19.9985C188.478 20.1598 187.412 20.1486 186.006 19.9985C185.14 19.9062 184.365 20.8966 184.27 21.7345C184.174 22.5724 185.14 23.3782 186.006 23.4705Z" fill="#90BFFF"/>
<path d="M47.1262 158.877C47.1699 159.818 47.0338 160.899 47.1262 162.349C47.1135 162.145 47.1389 162.555 47.1262 162.349C47.3513 165.891 47.1262 167.309 47.1262 169.293C47.1262 170.127 48.0832 171.029 48.8622 171.029C49.6418 171.029 50.5982 170.127 50.5982 169.293C50.5982 167.218 50.8275 165.959 50.5982 162.349C50.5855 162.145 50.6116 162.553 50.5982 162.349C50.5078 160.915 50.6412 159.796 50.5982 158.877C50.5593 158.044 49.6411 157.1 48.8622 157.141C48.0839 157.184 47.0874 158.044 47.1262 158.877Z" fill="#90BFFF"/>
<path d="M45.3905 165.821C47.0356 165.996 47.682 165.993 50.5984 165.821C50.9998 165.797 52.1096 165.833 52.3344 165.821C53.3597 165.764 53.348 165.821 54.0704 165.821C54.9411 165.821 55.8064 164.926 55.8064 164.085C55.8064 163.244 54.9411 162.349 54.0704 162.349C53.2762 162.349 53.4141 162.289 52.3344 162.349C52.1049 162.361 51.0038 162.325 50.5984 162.349C47.8626 162.51 46.7966 162.499 45.3905 162.349C44.5245 162.257 43.7499 163.249 43.6545 164.085C43.5591 164.921 44.5245 165.729 45.3905 165.821Z" fill="#90BFFF"/>
<path fill-rule="evenodd" clip-rule="evenodd" d="M205.1 79.0219C205.213 80.8096 206.684 80.806 206.836 79.0219C207.19 74.8789 209.289 72.3323 212.044 72.0779C211.813 72.0932 212.264 72.0743 212.044 72.0779C213.874 71.9526 213.878 70.342 212.044 70.342C211.801 70.342 212.278 70.3238 212.044 70.342C209.114 70.3659 207.495 70.3671 206.836 66.87C206.805 66.708 206.914 65.5611 206.836 65.134C206.763 64.7396 206.885 65.3811 206.836 65.134C206.502 63.4668 205.188 63.4349 205.1 65.134C205.087 65.3847 205.113 64.7 205.1 65.134C205.083 65.7193 205.131 66.5721 205.1 66.87C205.025 67.5919 205.479 67.931 205.1 68.606C204.432 69.7944 201.891 70.3753 199.892 70.342C198.064 70.3122 198.071 71.9113 199.892 72.0779C202.255 72.2946 203.092 73.2827 203.364 73.8139C204.199 75.4698 204.981 77.1529 205.1 79.0219ZM212.044 70.342C211.846 70.3557 212.228 70.3398 212.044 70.342C211.874 70.2746 212.262 70.3391 212.044 70.342ZM212.044 72.0779C211.86 72.0779 212.217 72.0634 212.044 72.0779C211.89 72.1519 212.246 72.0613 212.044 72.0779ZM205.1 72.0779C205.689 71.654 204.7 70.9543 205.1 70.342C205.53 71.1239 206.172 71.6062 206.836 72.0779C206.242 72.6207 205.525 73.0545 205.1 73.8139C204.962 73.4914 205.258 72.3917 205.1 72.0779C205.596 72.4446 204.832 71.5562 205.1 72.0779Z" fill="#FCD400"/>
<path fill-rule="evenodd" clip-rule="evenodd" d="M29.7658 115.478C31.597 115.354 31.6013 113.742 29.7658 113.742C29.5269 113.742 29.9962 113.724 29.7658 113.742C26.8174 113.766 25.22 113.796 24.5579 110.27C24.5287 110.115 24.6318 108.938 24.5579 108.534C24.4853 108.137 24.6069 108.781 24.5579 108.534C24.2251 106.866 22.9101 106.834 22.8219 108.534C22.8091 108.784 22.8347 108.102 22.8219 108.534C22.8055 109.108 22.8511 109.977 22.8219 110.27C22.7486 111.004 23.2031 111.325 22.8219 112.006C22.152 113.194 19.6066 113.782 17.6139 113.742C15.7856 113.706 15.7934 115.307 17.6139 115.478C19.9807 115.701 20.8135 116.683 21.0859 117.214C21.918 118.87 22.701 120.552 22.8219 122.422C22.9385 124.208 24.405 124.204 24.5579 122.422C24.912 118.274 27.0059 115.728 29.7658 115.478C29.982 115.474 29.539 115.493 29.7658 115.478ZM29.7658 113.742C29.5703 113.755 29.9472 113.739 29.7658 113.742C29.598 113.676 29.9806 113.739 29.7658 113.742ZM29.7658 115.478C29.5852 115.478 29.9358 115.464 29.7658 115.478C29.6129 115.549 29.9642 115.462 29.7658 115.478ZM22.8219 115.478C23.4107 115.054 22.4215 114.355 22.8219 113.742C23.2507 114.524 23.8937 115.007 24.5579 115.478C23.9641 116.021 23.2479 116.453 22.8219 117.214C22.6846 116.891 22.9798 115.791 22.8219 115.478C23.3183 115.845 22.5538 114.954 22.8219 115.478Z" fill="#EAF3F3"/>
<path d="M123.511 21.7345C123.511 20.8991 122.734 19.9985 121.775 19.9985C120.816 19.9985 120.039 20.8991 120.039 21.7345C120.039 22.5701 120.816 23.4705 121.775 23.4705C122.734 23.4705 123.511 22.5701 123.511 21.7345Z" fill="#90BFFF"/>
<path d="M236.349 99.8537C236.349 99.0178 235.572 98.1177 234.613 98.1177C233.654 98.1177 232.877 99.0178 232.877 99.8537C232.877 100.69 233.654 101.59 234.613 101.59C235.572 101.59 236.349 100.69 236.349 99.8537Z" fill="#90BFFF"/>
<path d="M231.141 44.3024C231.141 43.4651 230.364 42.5664 229.405 42.5664C228.446 42.5664 227.669 43.4651 227.669 44.3024C227.669 45.1398 228.446 46.0384 229.405 46.0384C230.364 46.0384 231.141 45.1398 231.141 44.3024Z" fill="#EAF3F3"/>
<path d="M241.557 58.1901C241.557 57.3545 240.78 56.4541 239.821 56.4541C238.862 56.4541 238.085 57.3545 238.085 58.1901C238.085 59.0256 238.862 59.9261 239.821 59.9261C240.78 59.9261 241.557 59.0256 241.557 58.1901Z" fill="#4E6AF0"/>
<path d="M220.725 9.58272C220.725 8.74718 219.949 7.84674 218.989 7.84674C218.03 7.84674 217.253 8.74718 217.253 9.58272C217.253 10.4183 218.03 11.3187 218.989 11.3187C219.949 11.3187 220.725 10.4183 220.725 9.58272Z" fill="#FCD400"/>
<path d="M14.1434 132.838C14.1434 132 13.3656 131.102 12.4074 131.102C11.4482 131.102 10.6714 132 10.6714 132.838C10.6714 133.675 11.4482 134.574 12.4074 134.574C13.3656 134.574 14.1434 133.675 14.1434 132.838Z" fill="#FCD400"/>
<path d="M66.2225 47.7746C66.2225 46.8806 65.4456 46.0386 64.4865 46.0386C63.5282 46.0386 62.7505 46.8806 62.7505 47.7746C62.7505 48.6685 63.5282 49.5105 64.4865 49.5105C65.4456 49.5105 66.2225 48.6685 66.2225 47.7746Z" fill="#EAF3F3"/>
<path d="M76.6385 11.3185C76.6385 10.4266 75.8616 9.58252 74.9025 9.58252C73.9442 9.58252 73.1665 10.4266 73.1665 11.3185C73.1665 12.2104 73.9442 13.0545 74.9025 13.0545C75.8616 13.0545 76.6385 12.2104 76.6385 11.3185Z" fill="#4E6AF0"/>
<path d="M170.382 25.2066C170.382 24.4207 169.605 23.4706 168.646 23.4706C167.687 23.4706 166.91 24.4207 166.91 25.2066C166.91 25.9925 167.687 26.9425 168.646 26.9425C169.605 26.9425 170.382 25.9925 170.382 25.2066Z" fill="#EAF3F3"/>
<path d="M153.022 2.63881C153.022 1.80153 152.245 0.902832 151.286 0.902832C150.328 0.902832 149.55 1.80153 149.55 2.63881C149.55 3.47618 150.328 4.3748 151.286 4.3748C152.245 4.3748 153.022 3.47618 153.022 2.63881Z" fill="#FCD400"/>
<path d="M222.462 157.141C222.462 156.305 221.685 155.405 220.726 155.405C219.767 155.405 218.99 156.305 218.99 157.141C218.99 157.976 219.767 158.877 220.726 158.877C221.685 158.877 222.462 157.976 222.462 157.141Z" fill="#FCD400"/>
<path d="M36.7107 77.2863C36.7107 76.4222 35.9339 75.5503 34.9748 75.5503C34.0165 75.5503 33.2388 76.4222 33.2388 77.2863C33.2388 78.1504 34.0165 79.0223 34.9748 79.0223C35.9339 79.0223 36.7107 78.1504 36.7107 77.2863Z" fill="#90BFFF"/>
<path d="M210.309 134.574C210.309 133.709 209.532 132.838 208.573 132.838C207.614 132.838 206.837 133.709 206.837 134.574C206.837 135.437 207.614 136.309 208.573 136.309C209.532 136.309 210.309 135.437 210.309 134.574Z" fill="#4E6AF0"/>
<path d="M50.5994 124.157C50.5994 123.291 49.8217 122.421 48.8634 122.421C47.9043 122.421 47.1274 123.291 47.1274 124.157C47.1274 125.023 47.9043 125.893 48.8634 125.893C49.8217 125.893 50.5994 125.023 50.5994 124.157Z" fill="#4E6AF0"/>
<path d="M192.95 96.382C192.95 95.5179 192.173 94.646 191.214 94.646C190.255 94.646 189.478 95.5179 189.478 96.382C189.478 97.2453 190.255 98.118 191.214 98.118C192.173 98.118 192.95 97.2453 192.95 96.382Z" fill="#EAF3F3"/>
<path d="M19.3514 157.141C19.3514 156.277 18.5736 155.405 17.6154 155.405C16.6562 155.405 15.8794 156.277 15.8794 157.141C15.8794 158.005 16.6562 158.877 17.6154 158.877C18.5736 158.877 19.3514 158.005 19.3514 157.141Z" fill="#EAF3F3"/>
</svg>
