<svg width="176" height="184" viewBox="0 0 176 184" fill="none" xmlns="http://www.w3.org/2000/svg">
<path fill-rule="evenodd" clip-rule="evenodd" d="M91.2711 89.3449C89.273 90.2198 87.3658 91.0544 85.3773 91.9248C86.901 95.2673 88.3111 98.3583 89.7816 101.582C91.9399 100.488 93.8836 99.5029 95.9603 98.4499C94.3435 95.3105 92.8581 92.4257 91.2711 89.3449ZM31.732 43.3952C31.4968 45.4269 30.7888 48.8219 30.7612 52.2223C30.5949 72.303 45.6842 88.9857 66.1824 91.0759C79.3361 92.4174 90.8465 88.3412 100.214 78.9653C115.184 63.9809 115.742 39.9285 100.211 24.7409C88.5335 13.3215 74.3168 10.4554 58.9707 15.1587C45.5266 19.2799 36.4918 28.4701 31.732 43.3952ZM87.2914 105.567C88.8444 108.758 90.27 111.705 91.7102 114.646C97.2689 125.987 102.791 137.345 108.407 148.657C112.032 155.958 115.707 163.238 119.551 170.424C120.817 172.79 122.658 174.857 124.286 177.024C125.423 178.539 126.882 178.596 128.563 177.918C130.635 177.084 132.226 175.701 133.605 174.022C121.29 149.629 111.599 124.175 101.774 98.5224C96.699 100.99 91.8313 103.359 87.2914 105.567ZM93.5135 88.1368C95.2699 91.2291 96.9167 94.1284 98.6243 97.1337C99.2728 96.8894 99.9247 96.6263 100.589 96.3969C102.12 95.8679 102.757 96.0544 103.563 97.4837C104.149 98.5237 104.616 99.6386 105.06 100.75C110.603 114.626 115.949 128.584 121.727 142.363C125.463 151.274 129.81 159.929 133.919 168.682C134.494 169.905 135.254 171.045 135.966 172.198C136.957 173.803 136.945 174.674 135.833 176.132C135.737 176.258 135.622 176.371 135.509 176.483C133.191 178.774 130.347 180.179 127.31 181.185C125.4 181.818 123.804 180.86 122.619 179.497C120.947 177.574 119.187 175.634 117.981 173.42C114.471 166.963 111.094 160.427 107.889 153.814C101.196 140.008 95.1135 125.902 87.5665 112.518C86.4271 110.498 85.2225 108.517 84.0986 106.491C83.41 105.248 83.5172 104.914 84.755 104.187C85.6456 103.664 86.5861 103.228 87.6527 102.675C86.0421 99.3203 84.4696 96.0459 82.8572 92.6861C81.8211 92.8994 80.8966 93.1117 79.9634 93.2819C62.9077 96.4003 48.361 91.851 37.1851 78.4447C29.22 68.8891 26.4473 57.6051 28.9995 45.39C32.449 28.878 42.6247 18.1702 58.4638 12.6987C67.0608 9.72806 75.8032 9.63951 84.3955 12.285C98.5398 16.6419 108.396 25.7633 112.786 40.0765C116.22 51.2739 114.544 62.0747 108.875 72.2373C105.555 78.1899 100.983 83.0532 95.2859 86.8332C94.7577 87.1832 94.2639 87.5836 93.5135 88.1368Z" fill="black"/>
<path fill-rule="evenodd" clip-rule="evenodd" d="M38.0729 44.0939C35.3701 53.4306 36.237 62.3254 41.5209 70.5698C46.0861 77.69 52.1965 82.9318 60.7188 84.5712C69.7842 86.3158 78.6029 85.2301 86.7758 80.8333C98.3919 74.5828 104.877 64.8879 105.167 51.5328C105.351 43.0618 102.472 35.6707 96.0954 29.9021C90.6856 25.0089 84.2942 21.77 77.4626 19.3541C76.505 19.0154 75.5192 18.551 74.6762 19.7478C74.5136 19.9787 73.6117 19.8863 73.166 19.6854C71.3064 18.8483 69.43 18.936 67.5328 19.4195C65.598 19.914 63.634 20.3366 61.7528 20.9913C50.2566 24.9862 41.6234 31.944 38.0729 44.0939ZM106.981 60.9171C104.326 69.6764 99.7635 75.8325 93.0348 80.5953C89.4521 83.1321 85.2884 84.3098 81.5619 86.4479C80.8479 86.8575 79.8665 86.7952 79.013 86.9708C73.8356 88.0362 68.6575 88.5392 63.3445 87.9225C54.2356 86.8639 47.037 82.522 41.4955 75.4409C33.1107 64.7279 31.6818 52.8834 36.4018 40.2288C40.2414 29.9355 48.0462 23.7103 57.8441 19.6194C60.5641 18.4839 63.3672 17.536 66.1656 16.6044C69.4279 15.5197 72.863 15.4095 76.0993 16.2631C84.7999 18.5558 92.6508 22.6618 99.1289 28.9459C106.385 35.982 108.815 44.8931 108.028 54.7719C107.838 57.1448 107.232 59.4844 106.981 60.9171Z" fill="black"/>
<path fill-rule="evenodd" clip-rule="evenodd" d="M97.7261 61.7752C98.6931 58.5426 95.4005 54.2945 92.1932 54.5206C91.3931 54.5763 90.4866 55.0249 89.8796 55.5717C87.4447 57.7652 86.9208 60.7221 88.2671 63.8071C89.3612 66.3174 91.9356 67.2385 94.431 66.0485C96.3366 65.1405 97.0599 63.3719 97.7261 61.7752ZM100.191 62.0567C99.437 64.3453 98.4285 66.2968 96.6005 67.7602C92.6532 70.9202 87.1442 69.4015 85.4858 64.6365C84.3118 61.2619 84.6215 58.0775 86.6818 55.0531C89.1168 51.4782 92.6878 51.298 95.927 53.08C97.0198 53.6816 97.9836 54.6029 98.8466 55.5274C100.638 57.4451 101.102 59.6979 100.191 62.0567Z" fill="black"/>
<path fill-rule="evenodd" clip-rule="evenodd" d="M95.2106 45.0888C95.6088 43.9361 94.922 42.6046 93.7447 42.2482C92.7256 41.9386 91.6515 42.398 91.3823 43.256C91.033 44.3761 91.9192 45.8173 93.1906 46.1978C94.1448 46.4834 94.8648 46.0891 95.2106 45.0888ZM97.7588 45.8452C97.065 48.2814 95.1306 49.4829 92.8806 48.8763C90.0824 48.1204 88.1809 45.0079 88.9212 42.3926C89.4762 40.4326 92.0872 39.3354 94.5154 40.0425C97.062 40.7828 98.479 43.3178 97.7588 45.8452Z" fill="black"/>
</svg>
