<svg width="24" height="25" viewBox="0 0 24 25" fill="none" xmlns="http://www.w3.org/2000/svg">
<path d="M9.98771 18.681C9.72252 18.681 9.4682 18.5756 9.28071 18.388L6.28071 15.388C6.09855 15.1994 5.99776 14.9468 6.00004 14.6846C6.00232 14.4224 6.10749 14.1716 6.29289 13.9862C6.4783 13.8008 6.72911 13.6956 6.99131 13.6934C7.25351 13.6911 7.50611 13.7919 7.69471 13.974L9.85171 16.131L16.1677 7.10804C16.3208 6.89349 16.5524 6.74804 16.8121 6.70334C17.0719 6.65863 17.3388 6.71828 17.5548 6.86931C17.7708 7.02034 17.9184 7.25054 17.9656 7.50985C18.0128 7.76916 17.9557 8.03661 17.8067 8.25404L10.8067 18.254C10.7234 18.3745 10.6147 18.4751 10.4882 18.5489C10.3617 18.6227 10.2205 18.6678 10.0747 18.681C10.0457 18.6825 10.0167 18.6825 9.98771 18.681Z" fill="#3D3D3D"/>
</svg>
