<svg width="184" height="176" viewBox="0 0 184 176" fill="none" xmlns="http://www.w3.org/2000/svg">
<g clip-path="url(#clip0_327_1722)">
<path d="M161.92 103.54C174.83 97.5702 182.93 84.4602 182.48 70.2402C182.16 48.8402 164.56 31.7502 143.16 32.0702C142.68 32.0702 142.21 32.0902 141.73 32.1202C132.37 13.2602 113.07 1.38022 92.0102 1.50022C63.3102 1.11022 39.2602 23.1202 37.1102 51.7402C21.3102 48.2702 5.69017 58.2602 2.22017 74.0602C1.81017 75.9402 1.58017 77.8602 1.54017 79.7802C0.86017 92.6002 9.56017 104.03 22.1002 106.77" stroke="#010101" stroke-width="3" stroke-linecap="round" stroke-linejoin="round"/>
<path d="M92.0102 174.23C119.265 174.23 141.36 152.135 141.36 124.88C141.36 97.6245 119.265 75.5298 92.0102 75.5298C64.7549 75.5298 42.6602 97.6245 42.6602 124.88C42.6602 152.135 64.7549 174.23 92.0102 174.23Z" stroke="#010101" stroke-width="3" stroke-linecap="round" stroke-linejoin="round"/>
<path d="M76.5898 112.88C76.5898 104.36 83.4898 97.46 92.0098 97.46C100.53 97.46 107.43 104.36 107.43 112.88C107.43 121.4 100.53 128.3 92.0098 128.3V136.52" stroke="#010101" stroke-width="3" stroke-linecap="round" stroke-linejoin="round"/>
<path d="M92.0102 152.98C90.8702 152.98 89.9502 153.9 89.9502 155.04C89.9502 156.18 90.8702 157.1 92.0102 157.1C93.1502 157.1 94.0702 156.18 94.0702 155.04C94.0702 153.9 93.1502 152.98 92.0102 152.98Z" stroke="#010101" stroke-width="3" stroke-linecap="round" stroke-linejoin="round"/>
</g>
<defs>
<clipPath id="clip0_327_1722">
<rect width="184" height="175.72" fill="white"/>
</clipPath>
</defs>
</svg>
