<svg width="136" height="135" viewBox="0 0 136 135" fill="none" xmlns="http://www.w3.org/2000/svg">
<g clip-path="url(#clip0_1393_62146)">
<path d="M48.902 41.9401C54.2613 36.6001 54.2613 27.9481 48.902 22.6141L34.3315 8.11805C28.9662 2.78405 20.2733 2.78405 14.9141 8.11805L6.92047 16.0681C0.0119623 22.9561 -1.07314 33.7321 4.32225 41.8501C27.8389 77.0821 58.1917 107.292 93.5903 130.698C101.753 136.068 112.58 134.988 119.506 128.106L127.494 120.156C132.853 114.816 132.853 106.164 127.494 100.83L112.935 86.3281C107.576 80.9881 98.8772 80.9881 93.512 86.3281L88.6591 91.1641C72.3705 77.8261 57.4261 62.9521 44.0251 46.7401L48.9081 41.9341L48.902 41.9401Z" stroke="#010101" stroke-width="3" stroke-miterlimit="10"/>
<path d="M74.873 38.364C87.3457 38.364 97.4553 48.426 97.4553 60.84" stroke="#010101" stroke-width="3" stroke-miterlimit="10"/>
<path d="M74.873 19.6321C97.7386 19.6321 116.276 38.0821 116.276 60.8401" stroke="#010101" stroke-width="3" stroke-miterlimit="10"/>
<path d="M74.873 0.899902C108.132 0.899902 135.096 27.7379 135.096 60.8399" stroke="#010101" stroke-width="3" stroke-miterlimit="10"/>
</g>
<defs>
<clipPath id="clip0_1393_62146">
<rect width="136" height="135" fill="white"/>
</clipPath>
</defs>
</svg>
