<svg width="140" height="153" viewBox="0 0 140 153" fill="none" xmlns="http://www.w3.org/2000/svg">
<g clip-path="url(#clip0_1403_86997)">
<path d="M112.446 69.8338C112.458 93.2796 93.4608 112.294 70.0142 112.31H70.0017C46.4471 111.92 27.6076 92.6192 27.7904 69.0654C27.7987 46.5624 45.7907 28.1921 68.2943 27.7103C68.905 27.6854 69.5198 27.6729 70.1305 27.6729C93.3694 27.5441 112.317 46.2759 112.446 69.5098C112.446 69.6178 112.446 69.7258 112.446 69.8379V69.8338Z" stroke="#010101" stroke-width="3" stroke-linecap="round" stroke-linejoin="round"/>
<path d="M68.2935 27.7103C46.2095 51.6296 46.2095 82.8422 68.2935 112.285" stroke="#010101" stroke-width="3" stroke-linecap="round" stroke-linejoin="round"/>
<path d="M71.9531 27.7103C94.0413 51.6296 94.0413 82.8297 71.9531 112.269" stroke="#010101" stroke-width="3" stroke-linecap="round" stroke-linejoin="round"/>
<path d="M27.6719 69.9917H112.327" stroke="#010101" stroke-width="3" stroke-linecap="round" stroke-linejoin="round"/>
<path d="M1.625 22.9506V72.6706C2.0155 106.325 23.3974 136.151 55.1483 147.336L62.4474 150.031C67.3244 151.821 72.6793 151.821 77.5564 150.031L84.8554 147.336C116.606 136.151 137.984 106.325 138.379 72.6706V22.9506C138.366 18.9592 135.973 15.3582 132.297 13.7965C112.568 5.5687 91.3775 1.42778 69.9998 1.6313C48.6262 1.42778 27.4353 5.5687 7.70682 13.7965C4.03031 15.3582 1.63746 18.9592 1.625 22.9506Z" stroke="#010101" stroke-width="3" stroke-linecap="round" stroke-linejoin="round"/>
</g>
<defs>
<clipPath id="clip0_1403_86997">
<rect width="140" height="153" fill="white"/>
</clipPath>
</defs>
</svg>
