<svg width="22" height="22" viewBox="0 0 22 22" fill="none" xmlns="http://www.w3.org/2000/svg">
<path fill-rule="evenodd" clip-rule="evenodd" d="M12 19C7.58172 19 4 15.4183 4 11C4 6.58172 7.58172 3 12 3C16.4183 3 20 6.58172 20 11C19.9952 15.4163 16.4163 18.9952 12 19ZM16.5324 12.7674C15.3474 11.3999 13.7066 13.24 11.9998 13.24C10.294 13.24 8.65207 11.3999 7.46711 12.7674C7.13111 13.1549 7.10423 13.7194 7.39207 14.1427C8.39671 15.6211 10.0767 16.6 11.9998 16.6C13.9228 16.6 15.6028 15.6211 16.6074 14.1427C16.8964 13.7194 16.8684 13.1549 16.5324 12.7674V12.7674ZM12 12.2C13.8779 12.2 15.4 10.6779 15.4 8.79999C15.4 6.92206 13.8779 5.39999 12 5.39999C10.122 5.39999 8.59998 6.92206 8.59998 8.79999C8.59998 10.6779 10.122 12.2 12 12.2Z" fill="white"/>
</svg>
