<svg width="48" height="48" viewBox="0 0 48 48" fill="none" xmlns="http://www.w3.org/2000/svg">
<rect width="48" height="48" fill="#7542E5"/>
<g clip-path="url(#clip0_1_100)">
<path d="M16.7144 14.375H31.2854C32.5454 14.375 33.5702 15.3998 33.5702 16.6598V31.2308C33.5702 32.4908 32.5454 33.5156 31.2854 33.5156H16.7144C15.4544 33.5156 14.4296 32.4908 14.4296 31.2308L14.4296 16.6598C14.4296 15.3998 15.4544 14.375 16.7144 14.375Z" fill="white" fill-opacity="0.2"/>
<path d="M16.7144 14.375L31.2854 14.375C32.5454 14.375 33.5702 15.3998 33.5702 16.6598V23.9453H14.4296V16.6598C14.4296 15.3998 15.4544 14.375 16.7144 14.375Z" fill="white" fill-opacity="0.2"/>
<path d="M37.125 24.8203H10.875C9.78976 24.8203 9.78943 23.1797 10.875 23.1797H37.125C38.2102 23.1797 38.2105 24.8203 37.125 24.8203Z" fill="white"/>
<path d="M37.1249 24.8203H23.9999V23.1797H37.1249C38.2101 23.1797 38.2105 24.8203 37.1249 24.8203Z" fill="white"/>
<path d="M36.3593 16.9453V13.0265C36.3593 12.2623 35.7376 11.6406 34.9735 11.6406H31.0546C29.9701 11.6406 29.9685 10 31.0546 10H34.9735C36.6423 10 37.9999 11.3577 37.9999 13.0265V16.9453C37.9999 18.0299 36.3593 18.0314 36.3593 16.9453Z" fill="white"/>
<path d="M34.9735 37.9999H31.0546C29.9701 37.9999 29.9685 36.3593 31.0546 36.3593H34.9735C35.7377 36.3593 36.3593 35.7376 36.3593 34.9734V31.0546C36.3593 29.97 37.9999 29.9685 37.9999 31.0546V34.9734C37.9999 36.6422 36.6423 37.9999 34.9735 37.9999Z" fill="white"/>
<path d="M10 16.9453V13.0265C10 11.3577 11.3577 10 13.0264 10H16.9453C18.0299 10 18.0314 11.6406 16.9453 11.6406H13.0264C12.2623 11.6406 11.6406 12.2623 11.6406 13.0265V16.9453C11.6406 18.0299 10 18.0314 10 16.9453Z" fill="white"/>
<path d="M16.9452 37.9999H13.0263C11.3576 37.9999 9.99991 36.6422 9.99991 34.9734V31.0546C9.99991 29.97 11.6405 29.9685 11.6405 31.0546V34.9734C11.6405 35.7376 12.2622 36.3593 13.0263 36.3593H16.9452C18.0298 36.3593 18.0313 37.9999 16.9452 37.9999Z" fill="white"/>
<path d="M31.2854 33.5157H28.6837C27.5991 33.5157 27.5976 31.875 28.6837 31.875H31.2854C31.6407 31.875 31.9298 31.586 31.9298 31.2307V28.629C31.9298 27.5444 33.5704 27.5429 33.5704 28.629V31.2307C33.5704 32.4906 32.5453 33.5157 31.2854 33.5157Z" fill="white"/>
<path d="M31.9298 19.2617V16.66C31.9298 16.3046 31.6407 16.0156 31.2854 16.0156H28.6837C27.5991 16.0156 27.5976 14.375 28.6837 14.375H31.2854C32.5453 14.375 33.5704 15.4 33.5704 16.66V19.2617C33.5704 20.3462 31.9298 20.3478 31.9298 19.2617Z" fill="white"/>
<path d="M14.4296 19.2617V16.66C14.4296 15.4 15.4547 14.375 16.7145 14.375H19.3163C20.4009 14.375 20.4024 16.0156 19.3163 16.0156H16.7145C16.3592 16.0156 16.0702 16.3046 16.0702 16.66V19.2617C16.0702 20.3462 14.4296 20.3478 14.4296 19.2617Z" fill="white"/>
<path d="M19.3164 33.5157H16.7146C15.4547 33.5157 14.4297 32.4906 14.4297 31.2307V28.629C14.4297 27.5444 16.0703 27.5429 16.0703 28.629V31.2307C16.0703 31.586 16.3594 31.875 16.7146 31.875H19.3164C20.4009 31.875 20.4025 33.5157 19.3164 33.5157Z" fill="white"/>
</g>
<defs>
<clipPath id="clip0_1_100">
<rect width="28" height="28" fill="white" transform="translate(10 10)"/>
</clipPath>
</defs>
</svg>
