<svg width="193" height="127" viewBox="0 0 193 127" fill="none" xmlns="http://www.w3.org/2000/svg">
<g clip-path="url(#clip0_130_360)">
<path d="M148 11H47V5C47 2.24164 49.3493 0 52 0H143C145.667 0 148 2.25836 148 5V11V11Z" fill="white"/>
<path d="M148 44V62C148 64.6613 145.651 67 143 67H52C49.3327 67 47 64.6452 47 62V51" stroke="#191919" stroke-width="0.812974" stroke-miterlimit="10" stroke-linecap="round" stroke-linejoin="round"/>
<path d="M84 0H142C144.651 0 147 2.38725 147 5V39" stroke="#191919" stroke-width="0.812974" stroke-miterlimit="10" stroke-linecap="round" stroke-linejoin="round"/>
<path d="M133 67V11H61V76V102H104H119H126C129.987 102 133 98.9995 133 95V67Z" fill="white"/>
<path d="M47 15V5C47 2.38095 49.4241 0 52 0H65" stroke="#191919" stroke-width="0.812974" stroke-miterlimit="10" stroke-linecap="round" stroke-linejoin="round"/>
<path d="M47 44V24" stroke="#191919" stroke-width="0.812974" stroke-miterlimit="10" stroke-linecap="round" stroke-linejoin="round"/>
<path d="M72 0H80" stroke="#191919" stroke-width="0.812974" stroke-miterlimit="10" stroke-linecap="round" stroke-linejoin="round"/>
<path d="M96 11H47" stroke="#191919" stroke-width="0.812974" stroke-miterlimit="10" stroke-linecap="round" stroke-linejoin="round"/>
<path d="M147 11H105" stroke="#191919" stroke-width="0.812974" stroke-miterlimit="10" stroke-linecap="round" stroke-linejoin="round"/>
<path d="M53 8C54.1046 8 55 7.10457 55 6C55 4.89543 54.1046 4 53 4C51.8954 4 51 4.89543 51 6C51 7.10457 51.8954 8 53 8Z" fill="#191919"/>
<path d="M60 8C61.1046 8 62 7.10457 62 6C62 4.89543 61.1046 4 60 4C58.8954 4 58 4.89543 58 6C58 7.10457 58.8954 8 60 8Z" fill="#191919"/>
<path d="M67 8C68.1046 8 69 7.10457 69 6C69 4.89543 68.1046 4 67 4C65.8954 4 65 4.89543 65 6C65 7.10457 65.8954 8 67 8Z" fill="#191919"/>
<path d="M75 55H116" stroke="#191919" stroke-width="0.812974" stroke-miterlimit="10" stroke-linecap="round" stroke-linejoin="round"/>
<path d="M75 61H93" stroke="#191919" stroke-width="0.812974" stroke-miterlimit="10" stroke-linecap="round" stroke-linejoin="round"/>
<path d="M75 58H116" stroke="#191919" stroke-width="0.812974" stroke-miterlimit="10" stroke-linecap="round" stroke-linejoin="round"/>
<path d="M126 102H104V83C104 79.0137 106.933 76 111 76C113.042 76 115.666 76.6927 117 78C118.334 79.3073 119 81.0149 119 83V95C119 98.9702 121.966 101.952 126 102Z" fill="#191919"/>
<path d="M126 102H104V83C104 79.0137 106.933 76 111 76C113.042 76 115.666 76.6927 117 78C118.334 79.3073 119 81.0149 119 83V95C119 98.9702 121.966 101.952 126 102Z" stroke="#191919" stroke-width="0.812974" stroke-miterlimit="10" stroke-linecap="round" stroke-linejoin="round"/>
<path d="M131 99C130.936 99.0971 131.064 98.9029 131 99C130.856 99.1781 130.16 99.8381 130 100C129.872 100.13 130.144 99.8867 130 100C129.952 100.032 130.048 99.9676 130 100C129.92 100.065 130.096 100.935 130 101C129.904 101.065 129.08 100.935 129 101C128.856 101.097 129.144 100.919 129 101C128.92 101.049 129.096 100.951 129 101C128.68 101.178 128.352 101.887 128 102C127.728 102.097 127.288 101.951 127 102C126.952 102.016 127.032 101.984 127 102C126.92 102.016 126.08 101.984 126 102C125.648 102.049 125.352 102 125 102V102C121.092 101.951 118 98.9664 118 95V83C118 80.9925 117.297 79.3113 116 78C114.703 76.6887 112.97 76 111 76C107.044 76 104 79.0012 104 83V102H61V11" stroke="#191919" stroke-width="0.812974" stroke-miterlimit="10" stroke-linecap="round" stroke-linejoin="round"/>
<path d="M133 11V88" stroke="#191919" stroke-width="0.812974" stroke-miterlimit="10" stroke-linecap="round" stroke-linejoin="round"/>
<path d="M118 95V83" stroke="#191919" stroke-width="0.812974" stroke-miterlimit="10" stroke-linecap="round" stroke-linejoin="round"/>
<path d="M108 76C107.518 76.403 107.37 76.4842 107 77C105.199 78.3056 104 80.5983 104 83V120C104 123.981 100.972 127 97 127C95.0059 127 92.3026 126.306 91 125C89.6974 123.694 89 121.983 89 120V115H32V83C32 79.0186 35.0279 76 39 76H108Z" fill="white"/>
<path d="M65 81H95" stroke="#191919" stroke-width="0.812974" stroke-miterlimit="10" stroke-linecap="round" stroke-linejoin="round"/>
<path d="M75 25H116" stroke="#191919" stroke-width="0.812974" stroke-miterlimit="10" stroke-linecap="round" stroke-linejoin="round"/>
<path d="M75 41H116" stroke="#191919" stroke-width="0.812974" stroke-miterlimit="10" stroke-linecap="round" stroke-linejoin="round"/>
<path d="M75 31H93" stroke="#191919" stroke-width="0.812974" stroke-miterlimit="10" stroke-linecap="round" stroke-linejoin="round"/>
<path d="M75 47H93" stroke="#191919" stroke-width="0.812974" stroke-miterlimit="10" stroke-linecap="round" stroke-linejoin="round"/>
<path d="M75 28H116" stroke="#191919" stroke-width="0.812974" stroke-miterlimit="10" stroke-linecap="round" stroke-linejoin="round"/>
<path d="M75 44H116" stroke="#191919" stroke-width="0.812974" stroke-miterlimit="10" stroke-linecap="round" stroke-linejoin="round"/>
<path d="M77 89H96" stroke="#191919" stroke-width="0.812974" stroke-miterlimit="10" stroke-linecap="round" stroke-linejoin="round"/>
<path d="M47 89H72" stroke="#191919" stroke-width="0.812974" stroke-miterlimit="10" stroke-linecap="round" stroke-linejoin="round"/>
<path d="M62 96H69H86" fill="#191919"/>
<path d="M62 96H69H86" stroke="#191919" stroke-width="0.812974" stroke-miterlimit="10" stroke-linecap="round" stroke-linejoin="round"/>
<path d="M41 96H55" stroke="#191919" stroke-width="0.812974" stroke-miterlimit="10" stroke-linecap="round" stroke-linejoin="round"/>
<path d="M83 103H95" stroke="#191919" stroke-width="0.812974" stroke-miterlimit="10" stroke-linecap="round" stroke-linejoin="round"/>
<path d="M41 103H79" stroke="#191919" stroke-width="0.812974" stroke-miterlimit="10" stroke-linecap="round" stroke-linejoin="round"/>
<path d="M41 110H72" stroke="#191919" stroke-width="0.812974" stroke-miterlimit="10" stroke-linecap="round" stroke-linejoin="round"/>
<path d="M104 118V83C104 81.4284 104.138 80.1867 105 79C105.367 78.4868 105.521 78.4009 106 78C107.229 76.9897 109.292 76 111 76H92" stroke="#191919" stroke-width="0.812974" stroke-miterlimit="10" stroke-linecap="round" stroke-linejoin="round"/>
<path d="M32 87V83C32 78.9387 35.0173 76 39 76H86" stroke="#191919" stroke-width="0.812974" stroke-miterlimit="10" stroke-linecap="round" stroke-linejoin="round"/>
<path d="M102 125C100.68 126.497 99.1417 127 97 127C95.0032 127 93.3043 126.318 92 125C90.6957 123.682 89 122.002 89 120V115H32V96" stroke="#191919" stroke-width="0.812974" stroke-miterlimit="10" stroke-linecap="round" stroke-linejoin="round"/>
<path d="M97 127H25C21.0259 127 18 124 18 120V115H90V120C90 122.008 90.6967 123.688 92 125C93.3033 126.312 95.0049 127 97 127Z" fill="white"/>
<path d="M97 127H25C21.0259 127 18 124 18 120V115H90V120C90 122.008 90.6967 123.688 92 125C93.3033 126.312 95.0049 127 97 127Z" fill="#191919"/>
<path d="M97 127H25C21.0259 127 18 124 18 120V115H90V120C90 122.008 90.6967 123.688 92 125C93.3033 126.312 95.0049 127 97 127Z" stroke="#191919" stroke-width="0.812974" stroke-miterlimit="10" stroke-linecap="round" stroke-linejoin="round"/>
<path d="M117.017 72H117" stroke="#191919" stroke-width="0.812974" stroke-miterlimit="10" stroke-linecap="round" stroke-linejoin="round"/>
<path d="M165.067 70.3888C163.683 69.3413 161.493 69.6314 159.996 71.1462C158.483 72.6609 158.193 74.8525 159.239 76.2223C147.117 85.5044 129.697 84.5858 118.621 73.4989C117.993 72.8704 117.397 72.2097 116.833 71.549C128.956 81.8141 147.149 81.2178 158.595 69.7603C170.042 58.3027 170.638 40.0931 160.382 27.9426C161.059 28.5066 161.703 29.1029 162.33 29.7314C173.423 40.8183 174.341 58.2544 165.067 70.3888Z" fill="#191919" stroke="#191919" stroke-width="0.812974" stroke-miterlimit="10" stroke-linecap="round" stroke-linejoin="round"/>
<path d="M160.415 27.9265C159.851 27.2497 159.256 26.6051 158.612 25.9766C146.537 13.8906 126.944 13.8906 114.87 25.9766C102.795 38.0627 102.795 57.6743 114.87 69.7603C115.498 70.3888 116.158 70.985 116.818 71.549C128.973 81.8141 147.149 81.2017 158.596 69.7442C170.059 58.3027 170.654 40.0931 160.415 27.9265Z" fill="#CB9EFF"/>
<path d="M105.838 49.4397C106.208 56.8364 109.219 64.1041 114.854 69.7604C115.481 70.3889 116.142 70.9851 116.802 71.5491C128.957 81.8142 147.149 81.2179 158.596 69.7604C170.042 58.3028 170.638 40.0932 160.399 27.9427C159.835 27.2659 159.24 26.6213 158.612 25.9929C149.789 17.162 136.958 14.777 125.978 18.854" stroke="#191919" stroke-width="0.812974" stroke-miterlimit="10" stroke-linecap="round" stroke-linejoin="round"/>
<path d="M120.198 64.3943C111.07 55.2572 111.07 40.4639 120.198 31.3269C129.327 22.1899 144.106 22.1899 153.234 31.3269C153.862 31.9554 154.458 32.6161 155.005 33.309C145.829 25.9929 132.434 26.5731 123.95 35.0816C115.465 43.5741 114.869 56.9815 122.179 66.1669C121.502 65.619 120.842 65.0389 120.198 64.3943Z" fill="#191919" stroke="#191919" stroke-width="0.812974" stroke-miterlimit="10" stroke-linecap="round" stroke-linejoin="round"/>
<path d="M153.25 64.3941C144.766 72.8865 131.371 73.4828 122.195 66.1667C114.885 56.9813 115.465 43.5739 123.966 35.0814C132.45 26.589 145.845 25.9927 155.021 33.3088C162.33 42.4942 161.735 55.9016 153.25 64.3941Z" fill="white"/>
<path d="M154.953 49.66C154.953 49.66 148.541 56.3357 139.181 56.3357C129.821 56.3357 123.409 49.66 123.409 49.66C123.409 49.66 129.821 42.9844 139.181 42.9844C148.541 42.9844 154.953 49.66 154.953 49.66Z" fill="white"/>
<path d="M150.576 46.2407C153.35 47.8961 154.953 49.5514 154.953 49.5514C154.953 49.5514 148.54 56.1728 139.178 56.1728C133.152 56.1728 128.342 53.4177 125.686 51.4614" stroke="#191919" stroke-width="0.812974" stroke-miterlimit="10" stroke-linecap="round" stroke-linejoin="round"/>
<path d="M123.409 49.4972C123.409 49.4972 129.835 42.8215 139.216 42.8215C140.505 42.8215 141.748 42.9499 142.921 43.1717" stroke="#191919" stroke-width="0.812974" stroke-miterlimit="10" stroke-linecap="round" stroke-linejoin="round"/>
<path d="M135.279 39.4311C136.481 39.2066 137.777 39.0767 139.154 39.0767C146.403 39.0767 151.376 42.8215 151.376 42.8215" stroke="#191919" stroke-width="0.812974" stroke-miterlimit="10" stroke-linecap="round" stroke-linejoin="round"/>
<path d="M126.987 42.8217C126.987 42.8217 129.01 41.3128 132.352 40.2166" stroke="#191919" stroke-width="0.812974" stroke-miterlimit="10" stroke-linecap="round" stroke-linejoin="round"/>
<path d="M143.734 55.5216C146.52 55.5216 148.774 53.2612 148.774 50.4683C148.774 49.6635 148.585 48.8943 148.243 48.2197C147.936 49.131 147.074 49.7937 146.047 49.7937C144.773 49.7937 143.734 48.7523 143.734 47.4741C143.734 46.6694 144.147 45.9475 144.773 45.5333C144.442 45.4623 144.088 45.4268 143.734 45.4268C140.948 45.4268 138.693 47.6872 138.693 50.4801C138.705 53.2612 140.96 55.5216 143.734 55.5216Z" fill="#191919" stroke="#191919" stroke-width="0.812974" stroke-miterlimit="10" stroke-linecap="round" stroke-linejoin="round"/>
<path d="M148.115 68.2938C139.968 72.8543 129.665 72.1453 122.178 66.1828C114.869 56.9974 115.449 43.59 123.949 35.0975C132.434 26.6051 145.829 26.0088 155.005 33.3249C159.835 39.3841 161.22 47.2803 159.159 54.3868" stroke="#191919" stroke-width="0.812974" stroke-miterlimit="10" stroke-linecap="round" stroke-linejoin="round"/>
<path d="M155.118 62.2832C154.538 63.0084 153.927 63.7174 153.25 64.3942C152.671 64.9744 152.075 65.5061 151.463 66.0057" stroke="#191919" stroke-width="0.812974" stroke-miterlimit="10" stroke-linecap="round" stroke-linejoin="round"/>
<path d="M191.808 93.6263C190.376 92.5305 187.349 93.578 184.853 96.0596C182.374 98.5413 181.328 101.571 182.422 103.021L159.481 76.5286C159.384 76.4319 159.304 76.3352 159.223 76.2385C158.177 74.8527 158.466 72.6611 159.98 71.1624C161.493 69.6476 163.683 69.3414 165.051 70.405C165.164 70.4856 165.26 70.5662 165.341 70.6629L191.808 93.6263Z" fill="#CB9EFF"/>
<path d="M179.38 82.8133L191.824 93.6102C190.392 92.5144 187.365 93.5619 184.87 96.0435C182.39 98.5252 181.344 101.555 182.439 103.005L159.481 76.5286C159.384 76.4319 159.304 76.3352 159.223 76.2385C158.177 74.8527 158.466 72.6611 159.98 71.1624C161.493 69.6476 163.683 69.3414 165.051 70.405C165.164 70.4856 165.26 70.5662 165.341 70.6629L173.793 77.995" stroke="#191919" stroke-width="0.812974" stroke-miterlimit="10" stroke-linecap="round" stroke-linejoin="round"/>
<path d="M192.002 93.7871L191.809 93.6262" stroke="#191919" stroke-width="0.812974" stroke-miterlimit="10" stroke-linecap="round" stroke-linejoin="round"/>
<path d="M182.6 103.198L182.439 103.005" stroke="#191919" stroke-width="0.812974" stroke-miterlimit="10" stroke-linecap="round" stroke-linejoin="round"/>
<path d="M189.732 100.926C187.14 103.521 183.936 104.536 182.6 103.198C182.535 103.134 182.487 103.069 182.439 103.005C181.344 101.571 182.391 98.5412 184.87 96.0434C187.349 93.5618 190.376 92.5143 191.825 93.6101C191.889 93.6585 191.954 93.7229 192.018 93.7713C193.354 95.1249 192.34 98.3317 189.732 100.926Z" fill="#191919" stroke="#191919" stroke-width="0.812974" stroke-miterlimit="10" stroke-linecap="round" stroke-linejoin="round"/>
<path d="M64.8324 37.1603C62.7073 36.8219 61.3549 34.9848 61.3549 33.0511C61.3549 32.2292 61.5964 31.3913 62.1438 30.65C64.3172 27.6365 61.8218 24.043 58.7951 24.043C57.9901 24.043 57.1691 24.2847 56.3802 24.8648C53.8848 26.6697 50.3751 25.2032 49.876 22.1736C49.5057 19.8531 47.6382 18.6929 45.7868 18.6929C43.9353 18.6929 42.0839 19.8531 41.6975 22.1736C41.3594 24.3008 39.5241 25.6544 37.6083 25.6544C36.7872 25.6544 35.95 25.4127 35.1933 24.8648C32.1827 22.6893 28.5926 25.1871 28.5926 28.2167C28.5926 29.0224 28.8341 29.8442 29.4136 30.6339C29.9449 31.3751 30.2025 32.2131 30.2025 33.035C30.2025 34.9526 28.8502 36.7897 26.725 37.1442C24.4067 37.5148 23.2476 39.3842 23.2476 41.2373C23.2476 43.0905 24.4067 44.9437 26.725 45.3305C28.8502 45.6689 30.2025 47.506 30.2025 49.4397C30.2025 50.2616 29.961 51.0995 29.4136 51.8408C27.2402 54.8543 29.7356 58.4479 32.7623 58.4479C33.5512 58.4479 34.3884 58.2061 35.1772 57.626C37.6727 55.8212 41.1823 57.2876 41.6814 60.3172C42.4381 64.9582 49.1032 64.9582 49.8599 60.3172C50.198 58.19 52.0333 56.8364 53.9492 56.8364C54.7702 56.8364 55.6074 57.0781 56.3641 57.626C59.3747 59.8015 62.9649 57.3037 62.9649 54.2741C62.9649 53.4684 62.7234 52.6466 62.1438 51.8569C61.6125 51.1157 61.3549 50.2777 61.3549 49.4558C61.3549 47.5382 62.7073 45.7011 64.8324 45.3466C67.1507 44.976 68.3099 43.1067 68.3099 41.2535C68.3099 39.4003 67.1507 37.531 64.8324 37.1603ZM45.7707 48.4245C41.8102 48.4245 38.6064 45.2177 38.6064 41.2535C38.6064 37.2892 41.8102 34.0824 45.7707 34.0824C49.7311 34.0824 52.9349 37.2892 52.9349 41.2535C52.9349 45.2177 49.7311 48.4245 45.7707 48.4245Z" fill="#CB9EFF"/>
<path d="M61.3067 33.0672C61.3067 32.2453 61.5482 31.4074 62.0955 30.6661C64.269 27.6526 61.7735 24.0591 58.7469 24.0591C57.9419 24.0591 57.1208 24.3008 56.3319 24.8809C53.8365 26.6858 50.3269 25.2193 49.8278 22.1898C49.4253 19.8531 47.5738 18.6929 45.7224 18.6929C43.871 18.6929 42.0195 19.8531 41.6332 22.1736C41.2951 24.3008 39.4597 25.6544 37.5439 25.6544C36.7228 25.6544 35.8857 25.4127 35.129 24.8648C33.2454 23.5112 31.1363 23.9785 29.8323 25.2516" stroke="#191919" stroke-width="0.812974" stroke-miterlimit="10" stroke-linecap="round" stroke-linejoin="round"/>
<path d="M39.0413 57.1265C40.3453 57.6261 41.3918 58.7702 41.6333 60.3334C42.3899 64.9744 49.0551 64.9744 49.8118 60.3334C50.1499 58.2062 51.9852 56.8526 53.901 56.8526C54.7221 56.8526 55.5593 57.0943 56.3159 57.6422C59.3265 59.8177 62.9167 57.3199 62.9167 54.2903C62.9167 53.4846 62.6752 52.6628 62.0956 51.8731C61.5644 51.1319 61.3068 50.2939 61.3068 49.472C61.3068 47.5544 62.6591 45.7173 64.7843 45.3628" stroke="#191919" stroke-width="0.812974" stroke-miterlimit="10" stroke-linecap="round" stroke-linejoin="round"/>
<path d="M29.3492 30.6499C29.8805 31.3912 30.1381 32.2291 30.1381 33.051C30.1381 34.9686 28.7857 36.8057 26.6606 37.1602C24.3423 37.5309 23.1831 39.4002 23.1831 41.2534C23.1831 43.1066 24.3423 44.9598 26.6606 45.3465C28.7857 45.6849 30.1381 47.522 30.1381 49.4558C30.1381 50.2776 29.8966 51.1156 29.3492 51.8569C27.4495 54.4997 29.1238 57.5776 31.6031 58.3027" stroke="#191919" stroke-width="0.812974" stroke-miterlimit="10" stroke-linecap="round" stroke-linejoin="round"/>
<path d="M51.663 45.2661C50.3751 47.1677 48.2017 48.4246 45.7224 48.4246C41.7619 48.4246 38.5581 45.2178 38.5581 41.2536C38.5581 37.2893 41.7619 34.0825 45.7224 34.0825C48.6524 34.0825 51.164 35.839 52.2748 38.3529" stroke="#191919" stroke-width="0.812974" stroke-miterlimit="10" stroke-linecap="round" stroke-linejoin="round"/>
<path d="M43.5973 70.4695C43.5168 70.4695 43.4363 70.4695 43.3397 70.4695C41.134 70.5984 39.3148 68.8419 39.3148 66.6664C39.3148 66.5858 39.3148 66.5214 39.3148 66.4408C39.4597 63.943 37.4634 62.396 35.467 62.396C34.163 62.396 32.8589 63.0406 32.1184 64.507C31.1041 66.5375 28.5282 67.2304 26.6285 65.9735C23.8594 64.1525 20.7039 66.4086 20.7039 69.1481C20.7039 69.841 20.8971 70.55 21.3639 71.243C21.7825 71.8876 21.9918 72.6127 21.9918 73.3218C21.9918 74.7076 21.2351 76.0613 19.8989 76.7381C16.2765 78.559 17.645 83.9575 21.5732 83.9575C21.6537 83.9575 21.7342 83.9575 21.8308 83.9575C24.0203 83.8286 25.8557 85.5851 25.8557 87.7605C25.8557 87.8411 25.8557 87.9056 25.8557 87.9861C25.7108 90.4839 27.7071 92.0309 29.7034 92.0309C31.0075 92.0309 32.3116 91.3864 33.0521 89.9199C33.7283 88.5824 35.0807 87.825 36.4652 87.825C37.1736 87.825 37.8981 88.0345 38.542 88.4535C41.3111 90.2744 44.4666 88.0184 44.4666 85.2789C44.4666 84.5859 44.2734 83.8769 43.8065 83.184C43.388 82.5394 43.1787 81.8142 43.1787 81.1052C43.1787 79.7193 43.9353 78.3657 45.2716 77.6889C48.894 75.8679 47.5416 70.4695 43.5973 70.4695ZM32.5852 81.8948C30.0093 81.8948 27.9164 79.7999 27.9164 77.2215C27.9164 74.6432 30.0093 72.5483 32.5852 72.5483C35.1612 72.5483 37.2541 74.6432 37.2541 77.2215C37.2541 79.7999 35.1612 81.8948 32.5852 81.8948Z" fill="#CB9EFF"/>
<path d="M43.0015 88.1151C43.8708 87.406 44.4504 86.3264 44.4504 85.15C44.4504 84.457 44.2572 83.748 43.7903 83.0551C43.3717 82.4105 43.1624 81.6853 43.1624 80.9763C43.1624 79.5904 43.9191 78.2368 45.2554 77.5599C48.8777 75.739 47.5093 70.3406 43.581 70.3406C43.5005 70.3406 43.42 70.3406 43.3234 70.3406C41.1178 70.4695 39.2986 68.713 39.2986 66.5375C39.2986 66.4569 39.2986 66.3925 39.2986 66.3119C39.4435 63.8141 37.4471 62.2671 35.4508 62.2671C34.1468 62.2671 32.8427 62.9117 32.1021 64.3781C31.3133 65.9574 29.5745 66.7309 27.9485 66.4086" stroke="#191919" stroke-width="0.812974" stroke-miterlimit="10" stroke-linecap="round" stroke-linejoin="round"/>
<path d="M25.8397 87.6477C25.8397 87.7283 25.8397 87.7927 25.8397 87.8733C25.6948 90.3711 27.6911 91.9181 29.6875 91.9181C30.9915 91.9181 32.2956 91.2735 33.0362 89.8071C33.7123 88.4695 35.0647 87.7122 36.4492 87.7122C36.8839 87.7122 37.3186 87.7927 37.7372 87.9378" stroke="#191919" stroke-width="0.812974" stroke-miterlimit="10" stroke-linecap="round" stroke-linejoin="round"/>
<path d="M22.3138 65.9573C21.3479 66.6663 20.7039 67.8105 20.7039 69.0352C20.7039 69.7281 20.8971 70.4372 21.364 71.1301C21.7826 71.7747 21.9919 72.4998 21.9919 73.2089C21.9919 74.5948 21.2352 75.9484 19.8989 76.6252" stroke="#191919" stroke-width="0.812974" stroke-miterlimit="10" stroke-linecap="round" stroke-linejoin="round"/>
<path d="M29.816 73.3219C30.5888 72.7578 31.5386 72.4194 32.569 72.4194C35.1449 72.4194 37.2378 74.5143 37.2378 77.0927C37.2378 79.6711 35.1449 81.766 32.569 81.766C29.9931 81.766 27.9001 79.6711 27.9001 77.0927" stroke="#191919" stroke-width="0.812974" stroke-miterlimit="10" stroke-linecap="round" stroke-linejoin="round"/>
<path d="M8.24305 49.1174L11.8332 53.2589L1.0144 56.0145L11.1892 59.8015L5.89253 65.635L15.3107 62.96L15.52 65.9573L19.1585 64.0396" stroke="#191919" stroke-width="0.812974" stroke-miterlimit="10" stroke-linecap="round" stroke-linejoin="round"/>
<path d="M20.108 45.2983L16.3247 40.9635L14.924 46.5392L0.402344 39.9966L6.03714 46.5553" stroke="#191919" stroke-width="0.812974" stroke-miterlimit="10" stroke-linecap="round" stroke-linejoin="round"/>
<path d="M165.921 23.3661L173.31 15.9695" stroke="#191919" stroke-width="0.812974" stroke-miterlimit="10" stroke-linecap="round" stroke-linejoin="round"/>
<path d="M168.706 28.3617L173.648 26.9436" stroke="#191919" stroke-width="0.812974" stroke-miterlimit="10" stroke-linecap="round" stroke-linejoin="round"/>
<path d="M160.93 20.5783L162.346 15.6311" stroke="#191919" stroke-width="0.812974" stroke-miterlimit="10" stroke-linecap="round" stroke-linejoin="round"/>
<path d="M144.09 92.5466H111.344V113.834H144.09V92.5466Z" fill="#AB71FF"/>
<path d="M137.151 92.4983H111.344V113.786H119.49" stroke="#191919" stroke-width="0.812974" stroke-miterlimit="10" stroke-linecap="round" stroke-linejoin="round"/>
<path d="M144.106 103.005V92.4983" stroke="#191919" stroke-width="0.812974" stroke-miterlimit="10" stroke-linecap="round" stroke-linejoin="round"/>
<path d="M119.49 108.274L127.234 103.005L119.49 97.7515" stroke="#191919" stroke-width="0.812974" stroke-miterlimit="10" stroke-linecap="round" stroke-linejoin="round"/>
<path d="M128.264 108.532H135.959" stroke="#191919" stroke-width="0.812974" stroke-miterlimit="10" stroke-linecap="round" stroke-linejoin="round"/>
</g>
<defs>
<clipPath id="clip0_130_360">
<rect width="193" height="127" fill="white"/>
</clipPath>
</defs>
</svg>
