<svg xmlns="http://www.w3.org/2000/svg" viewBox="0 0 87.8 87.8"><g fill="#7542E5"><path d="M43.7 16.1c-9.5 0-17.1 7.7-17.1 17.2 0 6.2 3.4 11.9 8.8 15 .2.1.3.1.5.1.6 0 1.1-.5 1.1-1.1 0-.4-.2-.7-.5-.9-7.3-4-9.9-13.1-5.9-20.4s13.1-9.9 20.4-5.9c2.3 1.3 4.2 3.1 5.6 5.3.3.5 1 .7 1.5.4.5-.3.7-1 .3-1.5-3.2-5.2-8.8-8.2-14.7-8.2zM49.1 49.4c.1 0 .2 0 .4-.1 5.1-1.8 9.1-5.9 10.7-11.1.2-.6-.1-1.2-.7-1.3-.6-.2-1.2.2-1.3.7-1.4 4.5-4.9 8.1-9.3 9.7-.6.2-.9.8-.7 1.4 0 .4.4.7.9.7zM29.7 68c12.6 7.4 28.8 3.7 36.9-8.4 1.7-2.4 1.5-5.7-.4-7.9-4-4.6-9-2.5-13.8-.5-3.2 1.4-6.6 2.7-9.9 2.3-.6-.1-1.1.4-1.2.9s.4 1.1.9 1.2c3.8.4 7.5-1 11-2.5 5.2-2.2 8.5-3.3 11.3 0 1.3 1.5 1.4 3.6.3 5.2-7.4 11.2-22.3 14.6-33.9 7.8-.5-.3-1.2-.2-1.5.3s-.2 1.2.3 1.6c.1-.1.1 0 0 0zM32.6 50.2c-3.9-1.5-8-2.4-11.4 1.5-1.9 2.2-2.1 5.5-.4 7.9.3.5.7.9 1 1.4.2.3.5.4.8.4.2 0 .5-.1.7-.2.5-.4.6-1 .2-1.5-.3-.4-.6-.8-.9-1.3-1.1-1.6-1-3.8.3-5.3 2.4-2.7 5.1-2.4 9-.9.5.2 1.2-.1 1.4-.6.2-.6-.1-1.2-.7-1.4z"/><path d="M43.9 0C19.6 0 0 19.7 0 43.9s19.6 43.9 43.9 43.9 43.9-19.7 43.9-43.9S68.2 0 43.9 0zM4.3 43.9C4.2 22.1 21.9 4.3 43.8 4.3c10.3 0 20.3 4 27.7 11.2l-56 56C8.3 64.1 4.3 54.2 4.3 43.9zm39.6 39.7c-9.3 0-18.2-3.2-25.3-9.2l55.8-55.8c14 16.8 11.8 41.8-5 55.8-7.2 6-16.2 9.2-25.5 9.2z"/><path d="M16.6 67.5c.3 0 .5-.1.7-.2.5-.4.5-1.1.1-1.5-12-14.6-10-36.2 4.6-48.3 12.7-10.4 31-10.4 43.6 0 .4.4 1.1.4 1.5-.1.4-.4.4-1.1-.1-1.5l-.1-.1C51.4 3 28.4 5.2 15.6 20.8c-11.1 13.5-11.1 32.9 0 46.3.4.2.7.4 1 .4zM74.1 23.5c-.3-.5-1-.6-1.5-.3s-.6 1-.3 1.5.7 1 1 1.6c9.7 16.3 4.4 37.3-11.8 47-10.8 6.5-24.3 6.5-35.2 0-.5-.3-.9-.6-1.4-.9s-1.2-.2-1.5.3-.2 1.2.3 1.5l1.5.9c17.3 10.4 39.6 4.8 50-12.5 6.9-11.5 6.9-26 0-37.5-.4-.5-.8-1.1-1.1-1.6z"/></g></svg>