<svg xmlns="http://www.w3.org/2000/svg" viewBox="0 0 96.1 73.7"><path fill="none" d="M3.8 20.6c0 1.7 1.4 3.1 3.1 3.1h40.3v-6.2H6.9c-1.7 0-3.1 1.4-3.1 3.1z"/><circle fill="none" cx="76.4" cy="19.7" r="10.2"/><path fill="none" d="M58.3 23.7h2.5l1 2.3c3.5 8.1 12.9 11.9 21 8.4s11.9-12.9 8.4-21S78.3 1.5 70.2 5c-4.3 1.8-7.6 5.4-9 9.9l-.8 2.6h-2.8v6.2h.7zM76.4 7.6c6.7 0 12.1 5.4 12.1 12.1s-5.4 12.1-12.1 12.1-12.1-5.4-12.1-12.1c.1-6.7 5.5-12.1 12.1-12.1zM86.8 51.2h-79c-1 0-1.9.8-1.9 1.9v15c0 1 .9 1.9 1.9 1.9h79c1 0 1.9-.8 1.9-1.9V53c0-1-.9-1.8-1.9-1.8zM22.4 62.5l-1.1 1.9c-.1.2-.4.3-.7.2 0 0-.1 0-.1-.1l-2.4-1.8.4 3c0 .3-.2.5-.4.6H15.8c-.1 0-.3-.1-.4-.2-.1-.1-.1-.2-.1-.4l.4-3-2.5 1.8c-.1.1-.3.1-.4.1-.1 0-.3-.1-.3-.2l-1-1.9c-.1-.1-.1-.3 0-.4 0-.1.1-.2.3-.3l2.8-1.2-2.9-1.2-.3-.3c-.1-.1-.1-.3 0-.4l1.1-1.8c.1-.1.2-.2.3-.2s.3 0 .4.1l2.4 1.8-.4-3c0-.1 0-.3.1-.4.1-.1.2-.2.4-.2h2.4c.3 0 .5.2.5.5v.1l-.4 3 2.4-1.8c.1-.1.3-.1.4-.1.1 0 .3.1.3.2l1 1.9c.1.1.1.3 0 .4l-.3.3-2.8 1.2 2.8 1.2.3.3c.1 0 .1.1.1.3zm15.4 0l-1.1 1.9c-.1.1-.2.2-.3.2s-.3 0-.4-.1l-2.4-1.8.4 3c0 .1 0 .3-.1.4s-.2.2-.4.2h-2.2c-.1 0-.3-.1-.4-.2-.1-.1-.1-.2-.1-.4l.4-3-2.5 1.8c-.1.1-.3.1-.4.1-.1 0-.3-.1-.3-.2l-1-1.9c-.1-.1-.1-.3 0-.4 0-.1.2-.2.3-.3l2.8-1.2-2.8-1.2c-.3-.1-.4-.4-.3-.6v-.1l1.1-1.8c.1-.1.2-.2.3-.2s.3 0 .4.1l2.4 1.8-.4-3c0-.1 0-.3.1-.4.1-.1.2-.2.4-.2h2.2c.1 0 .3.1.4.2.1.1.1.2.1.4l-.4 3 2.4-1.8c.1-.1.3-.1.4-.1.1 0 .3.1.3.2l1 1.9c.1.1.1.3 0 .4l-.3.3-2.8 1.2 2.8 1.2.3.3c.2 0 .2.1.1.3zm15.1 0l-1.1 1.9c-.1.1-.2.2-.3.2-.1 0-.3 0-.4-.1l-2.4-1.8.4 3c0 .3-.2.5-.4.6H46.4c-.1 0-.3-.1-.4-.2s-.1-.2-.1-.4l.4-3-2.4 1.8c-.1.1-.3.1-.4.1s-.3-.1-.3-.2l-1-1.9c-.1-.1-.1-.3 0-.4 0-.1.1-.2.3-.3l2.8-1.2-2.8-1.2c-.3-.1-.4-.4-.3-.6v-.1l1-1.8c.1-.1.2-.2.3-.2.1 0 .3 0 .4.1l2.4 1.8-.4-3c0-.1 0-.3.1-.4.1-.1.2-.2.4-.2h2.2c.3 0 .5.2.5.5v.1l-.4 3 2.4-1.9c.1-.1.3-.1.4-.1s.3.1.3.2l1 1.9c.1.1.1.3 0 .4l-.3.3-2.8 1.2 2.8 1.2.3.3c.1.1.1.2.1.4zm15 0l-1.1 1.9c-.1.1-.2.2-.3.2-.1 0-.3 0-.4-.1l-2.4-1.8.4 3c0 .3-.2.5-.4.6H61.4c-.1 0-.3-.1-.4-.2s-.1-.2-.1-.4l.4-3-2.4 1.8c-.1.1-.3.1-.4.1s-.3-.1-.3-.2l-1-1.9c-.1-.2-.1-.3-.1-.4s.1-.2.3-.3l2.7-1.2-2.8-1.2c-.3-.1-.4-.4-.3-.6v-.1l1.1-1.8c.1-.1.2-.2.3-.2.1 0 .3 0 .4.1l2.4 1.8-.4-3c0-.1 0-.3.1-.4.1-.1.2-.2.4-.2h2.2c.3 0 .5.2.5.5v.1l-.4 3 2.4-1.9c.1-.1.3-.1.4-.1s.3.1.3.2l1 1.9c.1.1.1.3 0 .4l-.3.3-2.8 1.2 2.8 1.2.3.3c.2.1.2.2.2.4zM83 66.2H71.7v-1.9H83v1.9z"/><g fill="#7542E5"><path d="M19.8 27.6v9.5c0 .5-.4.9-.9.9s-.9-.4-.9-.9v-5.7c0-.5-.4-.9-.9-.9s-.9.4-.9.9V33h-4.4v-1.6c0-.5-.4-.9-.9-.9s-.9.4-.9.9v5.7c0 .5-.5.9-1 .9s-.9-.4-.9-.9v-9.4-.2h-1c-.3 0-.6 0-.9-.1V37.1c-.1 1.6 1.1 2.9 2.7 3s2.9-1.1 3-2.7v-2.5h4.5v2.2c-.1 1.6 1.1 2.9 2.7 3 1.6.1 2.9-1.1 3-2.7V27.7v-.2h-1.9c-.4 0-.4.1-.4.1zM47.2 23.7H6.9c-1.7.1-3.2-1.2-3.3-2.9-.1-1.7 1.2-3.2 2.9-3.3H47.2v-3.8H6.9c-3.8-.1-6.9 3-6.9 6.7-.1 3.5 2.6 6.5 6 6.9.3.1.6.1.9.1h40.3v-3.7zM76.4 0c-8.6 0-16.2 5.6-18.8 13.7v3.8h2.8l.8-2.6C63.9 6.5 72.9 1.8 81.3 4.5s13.1 11.7 10.4 20.1S80 37.7 71.6 35c-4.4-1.4-8-4.7-9.9-9l-1-2.3h-3.1v3.8h.6c4.3 10 15.9 14.7 25.9 10.5 10-4.3 14.7-15.9 10.5-25.9C91.5 4.7 84.4 0 76.4 0z"/><path d="M76.4 31.9c6.7 0 12.1-5.4 12.1-12.1S83.1 7.7 76.4 7.7s-12.1 5.4-12.1 12.1c0 6.6 5.5 12 12.1 12.1zm0-22.4c5.6 0 10.2 4.6 10.2 10.2S82 29.9 76.4 29.9s-10.2-4.6-10.2-10.2S70.8 9.5 76.4 9.5zM57.6 23.7v-10c0-1.5-1.2-2.6-2.7-2.6-1.2 0-2.3.8-2.6 2-.3-1.4-1.8-2.3-3.2-2-1.2.3-2.1 1.4-2 2.6v13.8c0 1.5 1.2 2.7 2.6 2.7 1.2 0 2.3-.8 2.6-2 .4 1.4 1.8 2.3 3.2 1.9 1.2-.3 2-1.3 2-2.6l.1-3.8zm-7 3.7c0 .4-.3.8-.8.8-.4 0-.8-.3-.8-.8V13.7c0-.4.4-.8.8-.8s.8.3.8.8v13.7zm5.2 0c0 .4-.3.8-.8.8-.4 0-.8-.3-.8-.8V13.7c0-.4.4-.8.8-.8s.8.3.8.8v13.7zM86.8 47.4h-79c-3.1 0-5.7 2.5-5.7 5.6v15.1c0 3.1 2.5 5.6 5.6 5.6h79c3.1 0 5.6-2.5 5.6-5.6V53c.1-3.1-2.4-5.6-5.5-5.6zm1.9 20.7c0 1-.8 1.9-1.9 1.9h-79c-1 0-1.9-.8-1.9-1.9V53c0-1 .9-1.9 1.9-1.9h79c1 0 1.9.8 1.9 1.9v15.1z"/><path d="M19.3 60.6l2.8-1.2.3-.3c.1-.1.1-.3 0-.4l-1-1.9c-.1-.1-.2-.2-.3-.2s-.3 0-.4.1l-2.4 1.8.4-3c0-.3-.2-.5-.4-.6H16c-.1 0-.3.1-.4.2-.1.1-.1.2-.1.4l.4 3-2.4-1.8c-.1-.1-.3-.1-.4-.1-.1 0-.3.1-.3.2l-1.1 1.8c-.1.1-.1.3 0 .4 0 .1.1.2.3.3l2.8 1.2-2.8 1.2c-.1 0-.2.2-.3.3-.1.1-.1.3 0 .4l1 1.9c.1.1.2.2.3.2s.3 0 .4-.1l2.5-1.8-.4 3c0 .1 0 .3.1.4s.2.2.4.2h2.1c.3 0 .5-.2.5-.5v-.1l-.4-3 2.4 1.8c.2.2.5.1.7-.1 0 0 0-.1.1-.1l1.1-1.8c.1-.1.1-.3 0-.4 0-.1-.1-.3-.3-.3l-2.9-1.1zM34.8 60.6l2.8-1.2.3-.3c.1-.1.1-.3 0-.4l-1.1-1.8c-.1-.1-.2-.2-.3-.2s-.3 0-.4.1l-2.4 1.8.4-3c0-.1 0-.3-.1-.4-.1-.1-.2-.2-.4-.2h-2.2c-.1 0-.3.1-.4.2-.1.1-.1.2-.1.4l.4 3-2.4-1.8c-.1-.1-.3-.1-.4-.1l-.3.3-1.1 1.8c-.1.2-.1.5.2.7h.1l2.8 1.2-2.8 1.2-.3.3c-.1.1-.1.3 0 .4l1 1.9c.1.1.2.2.3.2s.3 0 .4-.1l2.5-1.8-.4 3c0 .1 0 .3.1.4s.2.2.4.2h2.2c.1 0 .3-.1.4-.2.1-.1.1-.2.1-.4l-.4-3 2.4 1.8c.1.1.3.1.4.1.1 0 .3-.1.3-.2l1.1-1.9c.1-.1.1-.3 0-.4 0-.1-.1-.2-.3-.3l-2.8-1.3zM49.8 60.6l2.8-1.2.3-.3c.1-.1.1-.3 0-.4l-1-1.9c-.1-.1-.2-.2-.3-.2-.1 0-.3 0-.4.1l-2.4 1.8.4-3c0-.3-.2-.5-.4-.6H46.5c-.1 0-.3.1-.4.2-.1.1-.1.2-.1.4l.4 3-2.4-1.8c-.1-.1-.3-.1-.4-.1s-.3.1-.3.3l-1.1 1.8c-.1.2-.1.5.2.7h.1l2.8 1.2-2.8 1.2c-.1 0-.2.2-.3.3-.1.1-.1.3 0 .4l1 1.9c.1.1.2.2.3.2.1 0 .3 0 .4-.1l2.4-1.8-.4 3c0 .1 0 .3.1.4s.2.2.4.2h2.2c.3 0 .5-.2.5-.5v-.1l-.4-3 2.4 1.8c.1.1.3.1.4.1s.3-.1.3-.2l1.1-1.9c.1-.1.1-.3 0-.4 0-.1-.1-.2-.3-.3l-2.8-1.2zM64.9 60.6l2.8-1.2.3-.3c.1-.1.1-.3 0-.4l-1-1.9c-.1-.1-.2-.2-.3-.2-.1 0-.3 0-.4.1l-2.5 1.8.4-3c0-.3-.2-.5-.4-.6H61.5c-.1 0-.3.1-.4.2-.1.1-.1.2-.1.4l.4 3-2.4-1.8c-.1-.1-.3-.1-.4-.1s-.3.1-.3.2l-1.2 1.8c-.1.2-.1.5.2.7h.1l2.8 1.2-2.8 1.2c-.1 0-.2.2-.3.3-.1.1-.1.3 0 .4l1 1.9c.1.1.2.2.3.2.1 0 .3 0 .4-.1l2.4-1.8-.4 3c0 .1 0 .3.1.4s.2.2.4.2h2.2c.3 0 .5-.2.5-.5v-.1l-.4-3 2.5 1.8c.1.1.3.1.4.1s.3-.1.3-.2l1.1-1.9c.1-.1.1-.3 0-.4 0-.1-.1-.2-.3-.3l-2.7-1.1zM71.7 64.3H83v1.9H71.7v-1.9z"/></g></svg>