<svg xmlns="http://www.w3.org/2000/svg" width="56" height="39" viewBox="0 0 56 39">
  <g fill="none" fill-rule="evenodd">
    <path d="M52.1469565,25.1208696 L4.06,25.1208696 C3.43074386,25.1274592 2.92224178,25.6359613 2.91565217,26.2652174 L2.91565217,35.3956522 C2.92224178,36.0249083 3.43074386,36.5334104 4.06,36.54 L52.1469565,36.54 C52.7762127,36.5334104 53.2847147,36.0249083 53.2913043,35.3956522 L53.2913043,26.2652174 C53.2847147,25.6359613 52.7762127,25.1274592 52.1469565,25.1208696 L52.1469565,25.1208696 Z M12.9469565,31.9869565 L12.2773913,33.1191304 C12.2329122,33.1955864 12.1573713,33.2489094 12.0704348,33.2652174 C11.9851977,33.281073 11.8971879,33.2612708 11.8269565,33.2104348 L10.3904348,32.0965217 L10.6217391,33.9226087 C10.6324822,34.0104091 10.6059951,34.0986993 10.5486957,34.166087 C10.4877557,34.2290208 10.4049252,34.2660765 10.3173913,34.2695652 L9.00869565,34.2695652 C8.92267815,34.2671213 8.84136331,34.2297604 8.78347826,34.166087 C8.72464903,34.0993152 8.69601428,34.0112083 8.70434783,33.9226087 L8.93565217,32.0965217 L7.44434783,33.2226087 C7.37287897,33.2758447 7.28197802,33.2957985 7.19478261,33.2773913 C7.10863296,33.2588326 7.03510046,33.2031262 6.99391304,33.1252174 L6.35478261,31.9930435 C6.3216275,31.9152702 6.3216275,31.8273385 6.35478261,31.7495652 C6.38214209,31.6666921 6.44442576,31.5999596 6.52521739,31.5669565 L8.23565217,30.8486957 L6.52521739,30.1121739 C6.44539263,30.0746861 6.38398025,30.0066938 6.35478261,29.9234783 C6.32848793,29.8397911 6.33958098,29.7488281 6.38521739,29.673913 L7.03652174,28.56 C7.0810104,28.4842464 7.15606312,28.4314121 7.24238318,28.4150813 C7.32870324,28.3987505 7.4178695,28.4205163 7.48695652,28.4747826 L8.96,29.5947826 L8.72869565,27.7686957 C8.72170353,27.6831266 8.74785276,27.5981416 8.80173913,27.5313043 C8.84860701,27.4582316 8.92343042,27.4076158 9.00869565,27.3913043 L10.3478261,27.3913043 C10.435973,27.3920835 10.5198019,27.4295859 10.5791304,27.4947826 C10.6361283,27.5599257 10.6626917,27.6462568 10.6521739,27.7321739 L10.4208696,29.5582609 L11.9,28.4504348 C11.9699228,28.3989187 12.0582288,28.3790498 12.1434783,28.3956522 C12.2296279,28.4142108 12.3031604,28.4699173 12.3443478,28.5478261 L12.9834783,29.68 C13.0169578,29.7598199 13.0169578,29.8497453 12.9834783,29.9295652 C12.9523525,30.0101431 12.8912859,30.0755716 12.8130435,30.1121739 L11.1026087,30.8182609 L12.7826087,31.5547826 C12.8634003,31.5877857 12.925684,31.6545182 12.9530435,31.7373913 C12.9902628,31.8169314 12.9880093,31.9093255 12.9469565,31.9869565 L12.9469565,31.9869565 Z M22.3269565,31.9869565 L21.6573913,33.1191304 C21.6125957,33.1943087 21.5381495,33.2470876 21.4523814,33.264473 C21.3666133,33.2818584 21.2774911,33.2622353 21.2069565,33.2104348 L19.7704348,32.0965217 L20.0017391,33.9226087 C20.0100727,34.0112083 19.9814379,34.0993152 19.9226087,34.166087 C19.8647236,34.2297604 19.7834088,34.2671213 19.6973913,34.2695652 L18.3886957,34.2695652 C18.3008631,34.2673724 18.2175643,34.2301071 18.1573913,34.166087 C18.1000918,34.0986993 18.0736048,34.0104091 18.0843478,33.9226087 L18.3156522,32.0965217 L16.8182609,33.2226087 C16.7493752,33.2763564 16.6600507,33.2964544 16.5747826,33.2773913 C16.488633,33.2588326 16.4151005,33.2031262 16.373913,33.1252174 L15.7652174,31.9930435 C15.7320623,31.9152702 15.7320623,31.8273385 15.7652174,31.7495652 C15.7925769,31.6666921 15.8548605,31.5999596 15.9356522,31.5669565 L17.646087,30.8486957 L15.9356522,30.1121739 C15.8530147,30.0785901 15.7902459,30.009096 15.7652174,29.9234783 C15.729542,29.8441147 15.729542,29.7532766 15.7652174,29.673913 L16.4226087,28.56 C16.4663187,28.4854735 16.53911,28.4325344 16.6234783,28.413913 C16.7095579,28.3997856 16.7976521,28.4218091 16.8669565,28.4747826 L18.346087,29.5947826 L18.1147826,27.7686957 C18.1050347,27.6828484 18.1315043,27.5968224 18.1878261,27.5313043 C18.2462202,27.4648287 18.3306528,27.4270562 18.4191304,27.4278145 L19.7278261,27.4278145 C19.8145342,27.4271903 19.8970453,27.4651008 19.9530435,27.5313043 C20.0122351,27.5954302 20.0410517,27.68188 20.0321739,27.7686957 L19.8008696,29.5947826 L21.28,28.4869565 C21.3499228,28.4354404 21.4382288,28.4155716 21.5234783,28.4321739 C21.6096279,28.4507326 21.6831604,28.506439 21.7243478,28.5843478 L22.3330435,29.7165217 C22.3783374,29.7925486 22.3875312,29.8847634 22.3581393,29.9682364 C22.3287474,30.0517094 22.2638052,30.11782 22.1808696,30.1486957 L20.4765217,30.8547826 L22.1808696,31.5669565 C22.2644728,31.597731 22.3294677,31.6649671 22.3573913,31.7495652 C22.3808318,31.8294745 22.3697972,31.9155448 22.3269565,31.9869565 L22.3269565,31.9869565 Z M31.4878261,31.9869565 L30.8182609,33.1191304 C30.7737817,33.1955864 30.6982409,33.2489094 30.6113043,33.2652174 C30.5260673,33.281073 30.4380575,33.2612708 30.3678261,33.2104348 L28.9313043,32.0965217 L29.1626087,33.9226087 C29.1709422,34.0112083 29.1423075,34.0993152 29.0834783,34.166087 C29.0255932,34.2297604 28.9442784,34.2671213 28.8582609,34.2695652 L27.5495652,34.2695652 C27.4617327,34.2673724 27.3784338,34.2301071 27.3182609,34.166087 C27.2609614,34.0986993 27.2344744,34.0104091 27.2452174,33.9226087 L27.4765217,32.0965217 L25.9791304,33.2226087 C25.9102448,33.2763564 25.8209202,33.2964544 25.7356522,33.2773913 C25.6585987,33.24847 25.5969206,33.1889947 25.5652174,33.1130435 L24.9565217,31.9808696 C24.9233666,31.9030963 24.9233666,31.8151646 24.9565217,31.7373913 C24.9838812,31.6545182 25.0461649,31.5877857 25.1269565,31.5547826 L26.7826087,30.8365217 L25.0721739,30.1 C24.9895364,30.0664162 24.9267676,29.9969221 24.9017391,29.9113043 C24.8660637,29.8319408 24.8660637,29.7411027 24.9017391,29.6617391 L25.5652174,28.5478261 C25.6089274,28.4732996 25.6817187,28.4203605 25.766087,28.4017391 C25.8521666,28.3876116 25.9402608,28.4096352 26.0095652,28.4626087 L27.4886957,29.5826087 L27.2573913,27.7565217 C27.2476434,27.6706745 27.274113,27.5846485 27.3304348,27.5191304 C27.3888289,27.4526548 27.4732615,27.4148823 27.5617391,27.4156406 L28.8704348,27.4156406 C28.9571429,27.4150164 29.039654,27.4529269 29.0956522,27.5191304 C29.1548438,27.5832563 29.1836604,27.6697061 29.1747826,27.7565217 L28.9434783,29.5826087 L30.4347826,28.4747826 C30.5047054,28.4232665 30.5930114,28.4033976 30.6782609,28.42 C30.7644105,28.4385587 30.837943,28.4942651 30.8791304,28.5721739 L31.4878261,29.7043478 C31.53312,29.7803747 31.5423138,29.8725895 31.5129219,29.9560625 C31.48353,30.0395355 31.4185878,30.1056461 31.3356522,30.1365217 L29.6313043,30.8426087 L31.3356522,31.5547826 C31.4192554,31.5855571 31.4842503,31.6527932 31.5121739,31.7373913 C31.5411191,31.8201165 31.5322148,31.9113858 31.4878261,31.9869565 Z M40.6182609,31.9869565 L39.9486957,33.1191304 C39.9042165,33.1955864 39.8286757,33.2489094 39.7417391,33.2652174 C39.6565021,33.281073 39.5684923,33.2612708 39.4982609,33.2104348 L38.0617391,32.0965217 L38.2930435,33.9226087 C38.301377,34.0112083 38.2727423,34.0993152 38.213913,34.166087 C38.156028,34.2297604 38.0747132,34.2671213 37.9886957,34.2695652 L36.7104348,34.2695652 C36.6226022,34.2673724 36.5393034,34.2301071 36.4791304,34.166087 C36.421831,34.0986993 36.3953439,34.0104091 36.406087,33.9226087 L36.6373913,32.0965217 L35.14,33.2226087 C35.0711144,33.2763564 34.9817898,33.2964544 34.8965217,33.2773913 C34.8079905,33.2561386 34.7340149,33.1956131 34.6956522,33.1130435 L34.0869565,31.9808696 C34.0538014,31.9030963 34.0538014,31.8151646 34.0869565,31.7373913 C34.114316,31.6545182 34.1765997,31.5877857 34.2573913,31.5547826 L35.9130435,30.8365217 L34.2026087,30.1 C34.1214618,30.0643202 34.0594388,29.9956518 34.0321739,29.9113043 C33.9993651,29.8313508 33.9993651,29.7416926 34.0321739,29.6617391 L34.6956522,28.5478261 C34.7373625,28.4706982 34.8115071,28.4163808 34.8976216,28.3998657 C34.9837362,28.3833505 35.0727152,28.406384 35.14,28.4626087 L36.6191304,29.5826087 L36.3878261,27.7565217 C36.3780782,27.6706745 36.4045477,27.5846485 36.4608696,27.5191304 C36.5192637,27.4526548 36.6036963,27.4148823 36.6921739,27.4156406 L38.0008696,27.4156406 C38.0875777,27.4150164 38.1700888,27.4529269 38.226087,27.5191304 C38.2852786,27.5832563 38.3140951,27.6697061 38.3052174,27.7565217 L38.073913,29.5826087 L39.5652174,28.4747826 C39.6351402,28.4232665 39.7234462,28.4033976 39.8086957,28.42 C39.8948453,28.4385587 39.9683778,28.4942651 40.0095652,28.5721739 L40.6486957,29.7043478 C40.6939896,29.7803747 40.7031833,29.8725895 40.6737914,29.9560625 C40.6443995,30.0395355 40.5794574,30.1056461 40.4965217,30.1365217 L38.7921739,30.8426087 L40.4965217,31.5547826 C40.580125,31.5855571 40.6451199,31.6527932 40.6730435,31.7373913 C40.7019887,31.8201165 40.6930844,31.9113858 40.6486957,31.9869565 L40.6182609,31.9869565 Z M49.7486957,31.9869565 L49.0791304,33.1191304 C49.0346513,33.1955864 48.9591105,33.2489094 48.8721739,33.2652174 C48.7869369,33.281073 48.6989271,33.2612708 48.6286957,33.2104348 L47.1921739,32.0965217 L47.4234783,33.9226087 C47.4318118,34.0112083 47.4031771,34.0993152 47.3443478,34.166087 C47.2864628,34.2297604 47.2051479,34.2671213 47.1191304,34.2695652 L45.8104348,34.2695652 C45.7226022,34.2673724 45.6393034,34.2301071 45.5791304,34.166087 C45.521831,34.0986993 45.4953439,34.0104091 45.506087,33.9226087 L45.7373913,32.0965217 L44.24,33.2226087 C44.1711144,33.2763564 44.0817898,33.2964544 43.9965217,33.2773913 C43.9103721,33.2588326 43.8368396,33.2031262 43.7956522,33.1252174 L43.1869565,31.9930435 C43.1538014,31.9152702 43.1538014,31.8273385 43.1869565,31.7495652 C43.214316,31.6666921 43.2765997,31.5999596 43.3573913,31.5669565 L45.0678261,30.8486957 L43.3573913,30.1121739 C43.2762444,30.0764941 43.2142214,30.0078258 43.1869565,29.9234783 C43.1541477,29.8435247 43.1541477,29.7538666 43.1869565,29.673913 L43.8443478,28.56 C43.8860582,28.4828721 43.9602027,28.4285547 44.0463173,28.4120396 C44.1324318,28.3955245 44.2214108,28.4185579 44.2886957,28.4747826 L45.7678261,29.5947826 L45.5365217,27.7686957 C45.5267738,27.6828484 45.5532434,27.5968224 45.6095652,27.5313043 C45.6679593,27.4648287 45.7523919,27.4270562 45.8408696,27.4278145 L47.1495652,27.4278145 C47.2362733,27.4271903 47.3187844,27.4651008 47.3747826,27.5313043 C47.4339742,27.5954302 47.4627908,27.68188 47.453913,27.7686957 L47.2226087,29.5947826 L48.7017391,28.4869565 C48.7716619,28.4354404 48.859968,28.4155716 48.9452174,28.4321739 C49.031367,28.4507326 49.1048995,28.506439 49.146087,28.5843478 L49.7547826,29.7165217 C49.8000765,29.7925486 49.8092703,29.8847634 49.7798784,29.9682364 C49.7504865,30.0517094 49.6855443,30.11782 49.6026087,30.1486957 L47.8982609,30.8547826 L49.6026087,31.5669565 C49.6862119,31.597731 49.7512068,31.6649671 49.7791304,31.7495652 C49.8219711,31.820977 49.8330058,31.9070472 49.8095652,31.9869565 L49.7486957,31.9869565 Z"/>
    <path fill="#7542E5" fill-rule="nonzero" d="M52.1469565,22.8260816 L4.06,22.8260816 C3.1462711,22.8244712 2.26932445,23.1858997 1.62207902,23.8308621 C0.974833592,24.4758244 0.610308588,25.3514885 0.608695652,26.2652174 L0.608695652,35.3956522 C0.615373825,37.2888966 2.14849466,38.8220175 4.04173913,38.8286957 L52.1286957,38.8286957 C54.0219401,38.8220175 55.555061,37.2888966 55.5617391,35.3956522 L55.5617391,26.2652174 C55.5584761,24.376672 54.0354311,22.8427674 52.1469565,22.8260816 L52.1469565,22.8260816 Z M53.2913043,35.426087 C53.2847147,36.0553431 52.7762127,36.5638452 52.1469565,36.5704348 L4.06,36.5704348 C3.43074386,36.5638452 2.92224178,36.0553431 2.91565217,35.426087 L2.91565217,26.2956522 C2.92224178,25.666396 3.43074386,25.157894 4.06,25.1513043 L52.1469565,25.1513043 C52.7762127,25.157894 53.2847147,25.666396 53.2913043,26.2956522 L53.2913043,35.426087 Z"/>
    <path fill="#7542E5" fill-rule="nonzero" d="M11.0965217 30.8426087L12.7826087 30.1365217C12.8608512 30.0999194 12.9219177 30.034491 12.9530435 29.953913 12.986523 29.8740931 12.986523 29.7841677 12.9530435 29.7043478L12.313913 28.5721739C12.2727256 28.4942651 12.1991931 28.4385587 12.1130435 28.42 12.027794 28.4033976 11.939488 28.4232665 11.8695652 28.4747826L10.3904348 29.5826087 10.6217391 27.7565217C10.6322569 27.6706046 10.6056935 27.5842735 10.5486957 27.5191304 10.5009271 27.452003 10.428867 27.4061466 10.3478261 27.3913043L9.00869565 27.3913043C8.92054878 27.3920835 8.8367198 27.4295859 8.7773913 27.4947826 8.72350494 27.5616198 8.69735571 27.6466048 8.70434783 27.7321739L8.93565217 29.5582609 7.4626087 28.4382609C7.39352167 28.3839946 7.30435542 28.3622287 7.21803536 28.3785595 7.13171529 28.3948904 7.05666257 28.4477247 7.01217391 28.5234783L6.36086957 29.6373913C6.31523316 29.7123063 6.3041401 29.8032694 6.33043478 29.8869565 6.35963243 29.9701721 6.42104481 30.0381643 6.50086957 30.0756522L8.21130435 30.8121739 6.50086957 31.5304348C6.42007793 31.5634379 6.35779426 31.6301704 6.33043478 31.7130435 6.29727967 31.7908168 6.29727967 31.8787484 6.33043478 31.9565217L6.96956522 33.0886957C7.01075264 33.1666045 7.08428514 33.2223109 7.17043478 33.2408696 7.2576302 33.2592768 7.34853114 33.2393229 7.42 33.186087L8.91130435 32.06 8.68 33.886087C8.67166645 33.9746866 8.7003012 34.0627935 8.75913043 34.1295652 8.81701548 34.1932386 8.89833033 34.2305995 8.98434783 34.2330435L10.3478261 34.2330435C10.43536 34.2295548 10.5181904 34.1924991 10.5791304 34.1295652 10.6364299 34.0621775 10.6629169 33.9738874 10.6521739 33.886087L10.4208696 32.06 11.8573913 33.173913C11.9276227 33.2247491 12.0156325 33.2445513 12.1008696 33.2286957 12.1878061 33.2123876 12.2633469 33.1590647 12.3078261 33.0826087L12.9773913 31.9504348C13.0165143 31.8718462 13.0165143 31.7794581 12.9773913 31.7008696 12.9500318 31.6179965 12.8877482 31.551264 12.8069565 31.5182609L11.0965217 30.8426087zM20.4765217 30.8426087L22.1808696 30.1365217C22.2638052 30.1056461 22.3287474 30.0395355 22.3581393 29.9560625 22.3875312 29.8725895 22.3783374 29.7803747 22.3330435 29.7043478L21.7243478 28.5721739C21.6831604 28.4942651 21.6096279 28.4385587 21.5234783 28.42 21.4382288 28.4033976 21.3499228 28.4232665 21.28 28.4747826L19.7704348 29.5826087 20.0017391 27.7565217C20.0106169 27.6697061 19.9818003 27.5832563 19.9226087 27.5191304 19.8666105 27.4529269 19.7840994 27.4150164 19.6973913 27.4156406L18.3886957 27.4156406C18.300218 27.4148823 18.2157854 27.4526548 18.1573913 27.5191304 18.1010695 27.5846485 18.0745999 27.6706745 18.0843478 27.7565217L18.3156522 29.5826087 16.8365217 28.4626087C16.7672173 28.4096352 16.6791232 28.3876116 16.5930435 28.4017391 16.5086752 28.4203605 16.4358839 28.4732996 16.3921739 28.5478261L15.7347826 29.6617391C15.6991072 29.7411027 15.6991072 29.8319408 15.7347826 29.9113043 15.7598111 29.9969221 15.8225799 30.0664162 15.9052174 30.1L17.6156522 30.8365217 15.9052174 31.5547826C15.8244258 31.5877857 15.7621421 31.6545182 15.7347826 31.7373913 15.7016275 31.8151646 15.7016275 31.9030963 15.7347826 31.9808696L16.3434783 33.1130435C16.3846657 33.1909523 16.4581982 33.2466587 16.5443478 33.2652174 16.6296159 33.2842805 16.7189405 33.2641825 16.7878261 33.2104348L18.2852174 32.0843478 18.053913 33.9104348C18.04317 33.9982352 18.069657 34.0865253 18.1269565 34.153913 18.1871295 34.2179332 18.2704283 34.2551985 18.3582609 34.2573913L19.6669565 34.2573913C19.752974 34.2549473 19.8342889 34.2175865 19.8921739 34.153913 19.9510031 34.0871413 19.9796379 33.9990344 19.9713043 33.9104348L19.74 32.0843478 21.1765217 33.1982609C21.2470563 33.2500614 21.3361785 33.2696845 21.4219466 33.2522991 21.5077148 33.2349137 21.5821609 33.1821348 21.6269565 33.1069565L22.2965217 31.9747826C22.3329979 31.8955927 22.3329979 31.8044073 22.2965217 31.7252174 22.2685981 31.6406193 22.2036032 31.5733832 22.12 31.5426087L20.4765217 30.8426087zM29.6373913 30.8426087L31.3417391 30.1365217C31.4246748 30.1056461 31.4896169 30.0395355 31.5190088 29.9560625 31.5484007 29.8725895 31.539207 29.7803747 31.493913 29.7043478L30.8852174 28.5721739C30.84403 28.4942651 30.7704975 28.4385587 30.6843478 28.42 30.5990984 28.4033976 30.5107923 28.4232665 30.4408696 28.4747826L28.9313043 29.5826087 29.1626087 27.7565217C29.1714864 27.6697061 29.1426699 27.5832563 29.0834783 27.5191304 29.0274801 27.4529269 28.944969 27.4150164 28.8582609 27.4156406L27.5495652 27.4156406C27.4610876 27.4148823 27.376655 27.4526548 27.3182609 27.5191304 27.261939 27.5846485 27.2354695 27.6706745 27.2452174 27.7565217L27.4765217 29.5826087 25.9973913 28.4626087C25.9280869 28.4096352 25.8399927 28.3876116 25.753913 28.4017391 25.6695447 28.4203605 25.5967535 28.4732996 25.5530435 28.5478261L24.8956522 29.6617391C24.8599767 29.7411027 24.8599767 29.8319408 24.8956522 29.9113043 24.9206806 29.9969221 24.9834495 30.0664162 25.066087 30.1L26.7826087 30.8365217 25.0721739 31.5547826C24.9913823 31.5877857 24.9290986 31.6545182 24.9017391 31.7373913 24.868584 31.8151646 24.868584 31.9030963 24.9017391 31.9808696L25.5104348 33.1130435C25.5516222 33.1909523 25.6251547 33.2466587 25.7113043 33.2652174 25.7965724 33.2842805 25.885897 33.2641825 25.9547826 33.2104348L27.4521739 32.0843478 27.2208696 33.9104348C27.2101265 33.9982352 27.2366136 34.0865253 27.293913 34.153913 27.354086 34.2179332 27.4373848 34.2551985 27.5252174 34.2573913L28.833913 34.2573913C28.9199305 34.2549473 29.0012454 34.2175865 29.0591304 34.153913 29.1179597 34.0871413 29.1465944 33.9990344 29.1382609 33.9104348L28.9069565 32.0843478 30.3434783 33.1982609C30.4137097 33.2490969 30.5017195 33.2688991 30.5869565 33.2530435 30.6738931 33.2367355 30.7494339 33.1834125 30.793913 33.1069565L31.4634783 31.9747826C31.4999544 31.8955927 31.4999544 31.8044073 31.4634783 31.7252174 31.4355547 31.6406193 31.3705598 31.5733832 31.2869565 31.5426087L29.6373913 30.8426087zM38.7982609 30.8426087L40.5026087 30.1365217C40.5855443 30.1056461 40.6504865 30.0395355 40.6798784 29.9560625 40.7092703 29.8725895 40.7000765 29.7803747 40.6547826 29.7043478L40.0156522 28.5721739C39.9744648 28.4942651 39.9009323 28.4385587 39.8147826 28.42 39.7295332 28.4033976 39.6412271 28.4232665 39.5713043 28.4747826L38.0921739 29.5826087 38.3234783 27.7565217C38.332356 27.6697061 38.3035394 27.5832563 38.2443478 27.5191304 38.1883497 27.4529269 38.1058386 27.4150164 38.0191304 27.4156406L36.7104348 27.4156406C36.6219572 27.4148823 36.5375245 27.4526548 36.4791304 27.5191304 36.4228086 27.5846485 36.3963391 27.6706745 36.406087 27.7565217L36.6373913 29.5826087 35.1582609 28.4626087C35.090976 28.406384 35.0019971 28.3833505 34.9158825 28.3998657 34.829768 28.4163808 34.7556234 28.4706982 34.713913 28.5478261L34.0869565 29.6617391C34.0541477 29.7416926 34.0541477 29.8313508 34.0869565 29.9113043 34.1142214 29.9956518 34.1762444 30.0643202 34.2573913 30.1L35.9130435 30.8365217 34.2026087 31.5547826C34.1218171 31.5877857 34.0595334 31.6545182 34.0321739 31.7373913 33.9990188 31.8151646 33.9990188 31.9030963 34.0321739 31.9808696L34.6408696 33.1130435C34.682057 33.1909523 34.7555895 33.2466587 34.8417391 33.2652174 34.9270072 33.2842805 35.0163318 33.2641825 35.0852174 33.2104348L36.5826087 32.0843478 36.3513043 33.9104348C36.3405613 33.9982352 36.3670484 34.0865253 36.4243478 34.153913 36.4845208 34.2179332 36.5678196 34.2551985 36.6556522 34.2573913L37.9643478 34.2573913C38.0503653 34.2549473 38.1316802 34.2175865 38.1895652 34.153913 38.2483944 34.0871413 38.2770292 33.9990344 38.2686957 33.9104348L38.0373913 32.0843478 39.473913 33.1982609C39.5441445 33.2490969 39.6321543 33.2688991 39.7173913 33.2530435 39.8043278 33.2367355 39.8798687 33.1834125 39.9243478 33.1069565L40.593913 31.9747826C40.6303892 31.8955927 40.6303892 31.8044073 40.593913 31.7252174 40.5659894 31.6406193 40.5009946 31.5733832 40.4173913 31.5426087L38.7982609 30.8426087zM47.9591304 30.8426087L49.6634783 30.1365217C49.7464139 30.1056461 49.8113561 30.0395355 49.840748 29.9560625 49.8701399 29.8725895 49.8609461 29.7803747 49.8156522 29.7043478L49.2069565 28.5721739C49.1657691 28.4942651 49.0922366 28.4385587 49.006087 28.42 48.9208375 28.4033976 48.8325315 28.4232665 48.7626087 28.4747826L47.2834783 29.5826087 47.5147826 27.7565217C47.5236604 27.6697061 47.4948438 27.5832563 47.4356522 27.5191304 47.379654 27.4529269 47.2971429 27.4150164 47.2104348 27.4156406L45.9017391 27.4156406C45.8132615 27.4148823 45.7288289 27.4526548 45.6704348 27.5191304 45.614113 27.5846485 45.5876434 27.6706745 45.5973913 27.7565217L45.8286957 29.5826087 44.3495652 28.4626087C44.2822804 28.406384 44.1933014 28.3833505 44.1071869 28.3998657 44.0210723 28.4163808 43.9469278 28.4706982 43.9052174 28.5478261L43.2173913 29.6617391C43.1845825 29.7416926 43.1845825 29.8313508 43.2173913 29.9113043 43.2446562 29.9956518 43.3066792 30.0643202 43.3878261 30.1L45.0982609 30.8365217 43.3878261 31.5547826C43.3070345 31.5877857 43.2447508 31.6545182 43.2173913 31.7373913 43.1842362 31.8151646 43.1842362 31.9030963 43.2173913 31.9808696L43.826087 33.1130435C43.8672744 33.1909523 43.9408069 33.2466587 44.0269565 33.2652174 44.1122246 33.2842805 44.2015492 33.2641825 44.2704348 33.2104348L45.7678261 32.0843478 45.5365217 33.9104348C45.5257787 33.9982352 45.5522657 34.0865253 45.6095652 34.153913 45.6697382 34.2179332 45.753037 34.2551985 45.8408696 34.2573913L47.1495652 34.2573913C47.2355827 34.2549473 47.3168976 34.2175865 47.3747826 34.153913 47.4336118 34.0871413 47.4622466 33.9990344 47.453913 33.9104348L47.2226087 32.0843478 48.6956522 33.2104348C48.7658836 33.2612708 48.8538934 33.281073 48.9391304 33.2652174 49.026067 33.2489094 49.1016078 33.1955864 49.146087 33.1191304L49.8156522 31.9869565C49.8521283 31.9077666 49.8521283 31.8165812 49.8156522 31.7373913 49.7877286 31.6527932 49.7227337 31.5855571 49.6391304 31.5547826L47.9591304 30.8426087zM51.9521739.0973913043L3.86521739.0973913043C1.97197292.104069478.438852086 1.63719031.432173913 3.53043478L.432173913 12.6913043C.435511248 14.5869255 1.96960514 16.1237394 3.86521739 16.1304348L51.9521739 16.1304348C53.8501637 16.1270844 55.387954 14.5892941 55.3913043 12.6913043L55.3913043 3.53043478C55.384609 1.63482253 53.847795.100728639 51.9521739.0973913043L51.9521739.0973913043zM53.0965217 12.6913043C53.0899321 13.3205605 52.58143 13.8290626 51.9521739 13.8356522L3.86521739 13.8356522C3.23596126 13.8290626 2.72745917 13.3205605 2.72086957 12.6913043L2.72086957 3.53043478C2.72745917 2.90117865 3.23596126 2.39267657 3.86521739 2.38608696L51.9521739 2.38608696C52.58143 2.39267657 53.0899321 2.90117865 53.0965217 3.53043478L53.0965217 12.6913043z"/>
    <path fill="#7542E5" fill-rule="nonzero" d="M10.9017391 8.11391304L12.6121739 7.40173913C12.6929655 7.36873604 12.7552492 7.30200354 12.7826087 7.21913043 12.818868 7.14202087 12.818868 7.05276174 12.7826087 6.97565217L12.173913 5.84347826C12.1301347 5.76525174 12.0546777 5.70976863 11.9669565 5.69130435 11.8816884 5.67224121 11.7923639 5.69233923 11.7234783 5.74608696L10.2443478 6.85391304 10.4756522 5.02782609C10.4856527 4.94009034 10.4592526 4.85209025 10.4026087 4.78434783 10.3424357 4.72032765 10.2591369 4.68306238 10.1713043 4.68086957L8.81391304 4.68086957C8.72789554 4.68331353 8.6465807 4.7206744 8.58869565 4.78434783 8.52925053 4.85054988 8.50246518 4.9398344 8.51565217 5.02782609L8.74086957 6.85391304 7.26782609 5.73391304C7.19759468 5.68307699 7.10958487 5.66327478 7.02434783 5.67913043 6.9388906 5.69883898 6.86457925 5.75129404 6.8173913 5.82521739L6.16608696 6.93913043C6.11966362 7.01377015 6.10852746 7.10508666 6.13565217 7.18869565 6.16502781 7.27035609 6.22664399 7.33637342 6.30608696 7.37130435L8.01652174 8.11391304 6.31217391 8.82608696C6.23198033 8.86019899 6.16981808 8.92644797 6.14087429 9.00864833 6.1119305 9.09084869 6.11887095 9.1814296 6.16 9.25826087L6.79913043 10.3904348C6.84031785 10.4683436 6.91385036 10.52405 7 10.5426087 7.0871722 10.5587508 7.17716871 10.5389955 7.24956522 10.4878261L8.74086957 9.36173913 8.51565217 11.1878261C8.50165157 11.2740172 8.52866338 11.3618056 8.58869565 11.4252174 8.64469382 11.4914209 8.72720492 11.5293314 8.81391304 11.5287036L10.1226087 11.5287036C10.2100721 11.529328 10.2935799 11.4923002 10.3518334 11.4270562 10.410087 11.3618123 10.4374547 11.2746595 10.4269565 11.1878261L10.1956522 9.36173913 11.6382609 10.4695652C11.7061285 10.5254542 11.7955552 10.5478109 11.8817391 10.5304348 11.9661074 10.5118134 12.0388987 10.4588743 12.0826087 10.3843478L12.7826087 9.25826087C12.8190848 9.17907095 12.8190848 9.08788558 12.7826087 9.00869565 12.7553438 8.92434815 12.6933208 8.85567985 12.6121739 8.82L10.9017391 8.11391304zM20.2817391 8.11391304L21.9921739 7.40173913C22.0729655 7.36873604 22.1352492 7.30200354 22.1626087 7.21913043 22.1957638 7.14135713 22.1957638 7.05342548 22.1626087 6.97565217L21.553913 5.84347826C21.5127256 5.76556946 21.4391931 5.70986301 21.3530435 5.69130435 21.2677754 5.67224121 21.1784508 5.69233923 21.1095652 5.74608696L19.6304348 6.85391304 19.8617391 5.02782609C19.8684677 4.94041246 19.8424307 4.85362238 19.7886957 4.78434783 19.7277557 4.72141399 19.6449252 4.68435825 19.5573913 4.68086957L18.193913 4.68086957C18.1063792 4.68435825 18.0235487 4.72141399 17.9626087 4.78434783 17.9059648 4.85209025 17.8795647 4.94009034 17.8895652 5.02782609L18.1208696 6.85391304 16.6417391 5.73391304C16.572196 5.68232367 16.4839705 5.66279868 16.3991532 5.68022689 16.314336 5.69765509 16.2409576 5.75038634 16.1973913 5.82521739L15.546087 6.93913043C15.5096108 7.01832036 15.5096108 7.10950573 15.546087 7.18869565 15.5754626 7.27035609 15.6370788 7.33637342 15.7165217 7.37130435L17.4269565 8.11391304 15.7165217 8.82608696C15.6382793 8.86268928 15.5772127 8.92811774 15.546087 9.00869565 15.5126074 9.08851556 15.5126074 9.17844096 15.546087 9.25826087L16.1547826 10.3904348C16.19597 10.4683436 16.2695025 10.52405 16.3556522 10.5426087 16.4409016 10.5592111 16.5292077 10.5393422 16.5991304 10.4878261L18.0965217 9.36173913 17.8652174 11.1878261C17.8575806 11.2734642 17.8838025 11.3586855 17.9382609 11.4252174 17.9975894 11.4904141 18.0814183 11.5279165 18.1695652 11.5287035L19.4782609 11.5287035C19.564969 11.5293314 19.6474801 11.4914209 19.7034783 11.4252174 19.7626699 11.3610915 19.7914864 11.2746418 19.7826087 11.1878261L19.5513043 9.36173913 20.9878261 10.4695652C21.0560841 10.5246752 21.1451426 10.5469398 21.2313043 10.5304348 21.3173227 10.5119937 21.3920793 10.4592244 21.4382609 10.3843478L22.1078261 9.25217391C22.1443022 9.17298399 22.1443022 9.08179862 22.1078261 9.0026087 22.0786284 8.91939315 22.0172161 8.85140087 21.9373913 8.81391304L20.2817391 8.11391304zM29.4426087 8.11391304L31.1530435 7.40173913C31.2338351 7.36873604 31.2961188 7.30200354 31.3234783 7.21913043 31.3566334 7.14135713 31.3566334 7.05342548 31.3234783 6.97565217L30.7147826 5.84347826C30.6735952 5.76556946 30.6000627 5.70986301 30.513913 5.69130435 30.428645 5.67224121 30.3393204 5.69233923 30.2704348 5.74608696L28.7913043 6.85391304 29.0226087 5.02782609C29.0326092 4.94009034 29.0062092 4.85209025 28.9495652 4.78434783 28.8886252 4.72141399 28.8057947 4.68435825 28.7182609 4.68086957L27.3547826 4.68086957C27.2672487 4.68435825 27.1844183 4.72141399 27.1234783 4.78434783 27.0697432 4.85362238 27.0437062 4.94041246 27.0504348 5.02782609L27.2817391 6.85391304 25.8086957 5.72782609C25.7384642 5.67699003 25.6504544 5.65718782 25.5652174 5.67304348 25.4782809 5.6893515 25.40274 5.74267444 25.3582609 5.81913043L24.7069565 6.93304348C24.6704804 7.0122334 24.6704804 7.10341877 24.7069565 7.1826087 24.7363322 7.26426913 24.7979483 7.33028647 24.8773913 7.36521739L26.5878261 8.10782609 24.8773913 8.82C24.7991488 8.85660232 24.7380823 8.92203078 24.7069565 9.0026087 24.673477 9.0824286 24.673477 9.17235401 24.7069565 9.25217391L25.3156522 10.3843478C25.3568396 10.4622566 25.4303721 10.5179631 25.5165217 10.5365217 25.6017712 10.5531241 25.6900772 10.5332552 25.76 10.4817391L27.2573913 9.35565217 27.026087 11.1817391C27.0184501 11.2673772 27.0446721 11.3525986 27.0991304 11.4191304 27.1584589 11.4843271 27.2422879 11.5218296 27.3304348 11.5226087L28.6391304 11.5226087C28.7272773 11.5218296 28.8111063 11.4843271 28.8704348 11.4191304 28.9248931 11.3525986 28.9511151 11.2673772 28.9434783 11.1817391L28.7121739 9.35565217 30.1486957 10.4634783C30.2169536 10.5185882 30.3060122 10.5408528 30.3921739 10.5243478 30.4781923 10.5059067 30.5529489 10.4531374 30.5991304 10.3782609L31.2686957 9.24608696C31.3051718 9.16689703 31.3051718 9.07571166 31.2686957 8.99652174 31.239498 8.91330619 31.1780856 8.84531392 31.0982609 8.80782609L29.4426087 8.11391304zM38.6034783 8.11391304L40.313913 7.40173913C40.3947047 7.36873604 40.4569883 7.30200354 40.4843478 7.21913043 40.5175029 7.14135713 40.5175029 7.05342548 40.4843478 6.97565217L39.8756522 5.84347826C39.8344648 5.76556946 39.7609323 5.70986301 39.6747826 5.69130435 39.5895145 5.67224121 39.50019 5.69233923 39.4313043 5.74608696L37.9521739 6.85391304 38.1834783 5.02782609C38.1934787 4.94009034 38.1670787 4.85209025 38.1104348 4.78434783 38.0494948 4.72141399 37.9666643 4.68435825 37.8791304 4.68086957L36.5217391 4.68086957C36.4342053 4.68435825 36.3513748 4.72141399 36.2904348 4.78434783 36.2366998 4.85362238 36.2106627 4.94041246 36.2173913 5.02782609L36.4486957 6.85391304 34.9756522 5.73391304C34.9054208 5.68307699 34.817411 5.66327478 34.7321739 5.67913043 34.6461555 5.69757151 34.571399 5.75034086 34.5252174 5.82521739L33.873913 6.93913043C33.8374369 7.01832036 33.8374369 7.10950573 33.873913 7.18869565 33.9032887 7.27035609 33.9649049 7.33637342 34.0443478 7.37130435L35.7547826 8.11391304 34.0443478 8.82608696C33.9661054 8.86268928 33.9050388 8.92811774 33.873913 9.00869565 33.8404335 9.08851556 33.8404335 9.17844096 33.873913 9.25826087L34.5130435 10.3904348C34.5542309 10.4683436 34.6277634 10.52405 34.713913 10.5426087 34.8010725 10.5580591 34.8908036 10.538362 34.9634783 10.4878261L36.4547826 9.36173913 36.2234783 11.1878261C36.2146005 11.2746418 36.2434171 11.3610915 36.3026087 11.4252174 36.3497153 11.5036079 36.4308101 11.5554185 36.5217391 11.5652174L37.8304348 11.5652174C37.9185817 11.5644382 38.0024106 11.5269358 38.0617391 11.4617391 38.1161975 11.3952073 38.1424194 11.3099859 38.1347826 11.2243478L37.9034783 9.39826087 39.34 10.506087C39.408258 10.5611969 39.4973165 10.5834615 39.5834783 10.5669565 39.6694966 10.5485154 39.7442532 10.4957461 39.7904348 10.4208696L40.46 9.28869565C40.5090219 9.21499427 40.5203074 9.12245309 40.4904348 9.03913043 40.4612371 8.95591489 40.3998248 8.88792261 40.32 8.85043478L38.6034783 8.11391304zM47.7643478 8.11391304L49.4747826 7.40173913C49.5555742 7.36873604 49.6178579 7.30200354 49.6452174 7.21913043 49.6783725 7.14135713 49.6783725 7.05342548 49.6452174 6.97565217L49.0365217 5.84347826C48.9953343 5.76556946 48.9218018 5.70986301 48.8356522 5.69130435 48.7503841 5.67224121 48.6610595 5.69233923 48.5921739 5.74608696L47.1130435 6.85391304 47.3443478 5.02782609C47.3543483 4.94009034 47.3279483 4.85209025 47.2713043 4.78434783 47.2103643 4.72141399 47.1275339 4.68435825 47.04 4.68086957L45.6521739 4.68086957C45.5661564 4.68331353 45.4848416 4.7206744 45.4269565 4.78434783 45.3687581 4.85147758 45.3402133 4.93930769 45.3478261 5.02782609L45.5791304 6.85391304 44.1304348 5.72782609C44.0602034 5.67699003 43.9721936 5.65718782 43.8869565 5.67304348 43.8009382 5.69148456 43.7261816 5.7442539 43.68 5.81913043L43.0286957 6.93304348C42.9922195 7.0122334 42.9922195 7.10341877 43.0286957 7.1826087 43.0580713 7.26426913 43.1196875 7.33028647 43.1991304 7.36521739L44.9095652 8.10782609 43.1991304 8.82C43.120888 8.85660232 43.0598214 8.92203078 43.0286957 9.0026087 42.9952161 9.0824286 42.9952161 9.17235401 43.0286957 9.25217391L43.6373913 10.3843478C43.6785787 10.4622566 43.7521112 10.5179631 43.8382609 10.5365217 43.9254203 10.5519722 44.0151514 10.5322751 44.0878261 10.4817391L45.5791304 9.35565217 45.3478261 11.1817391C45.3389483 11.2685548 45.3677649 11.3550045 45.4269565 11.4191304 45.4738904 11.5014732 45.5578503 11.5559337 45.6521739 11.5652174L46.9608696 11.5652174C47.0490164 11.5644382 47.1328454 11.5269358 47.1921739 11.4617391 47.2491717 11.3965961 47.2757352 11.3102649 47.2652174 11.2243478L47.033913 9.39826087 48.4704348 10.506087C48.5386928 10.5611969 48.6277513 10.5834615 48.713913 10.5669565 48.7999314 10.5485154 48.874688 10.4957461 48.9208696 10.4208696L49.5904348 9.28869565C49.6295578 9.21010708 49.6295578 9.11771901 49.5904348 9.03913043 49.5612371 8.95591489 49.4998248 8.88792261 49.42 8.85043478L47.7643478 8.11391304z"/>
  </g>
</svg>
