<svg xmlns="http://www.w3.org/2000/svg" viewBox="0 0 129.8 88.4"><path fill="none" d="M112.9 75.2c1 0 1.9-.8 1.9-1.9V5.6c0-1-.8-1.9-1.9-1.9h-96c-1 0-1.9.8-1.9 1.9v67.7c0 1 .9 1.8 1.9 1.8l96 .1zm-92.2-3.7c-1 0-1.9-.8-1.9-1.9V9.4c0-1 .8-1.9 1.9-1.9h88.4c1 0 1.9.9 1.9 1.9v60.2c0 1-.8 1.9-1.9 1.9H20.7z"/><path fill="none" d="M109.1 14.1H20.7v-1.9h88.4V9.4H20.7v60.2h88.4V14.1zM73.4 55.9c-1.1 0-1.9-.8-1.9-1.8l-.2-5.5-8 8c-1.1 1.2-2.7 2-4.4 2-.6 0-1.3-.2-1.9-.4-1-.3-1.9-.9-2.7-1.6L48.8 51c-.7-.7-.7-1.9 0-2.7.7-.7 1.9-.7 2.7 0l5.5 5.5c.9 1 2.4 1.1 3.4.3l.3-.3 7.8-7.8h-4.9c-1 0-1.9-.8-1.9-1.9 0-1 .8-1.9 1.9-1.9h9.3c1 0 1.8.8 1.9 1.8l.4 9.8c0 1.2-.8 2.1-1.8 2.1zm6.4-23.4c-.7.7-1.9.7-2.7 0L71.6 27c-.9-1-2.4-1.1-3.4-.2l-.2.2-7.8 7.8h4.9c1 0 1.9.8 1.9 1.9 0 1-.8 1.9-1.9 1.9h-9.4c-1 0-1.8-.8-1.9-1.8l-.4-9.8c0-1 .8-1.9 1.8-2s1.9.8 2 1.8l.2 5.5 8-8c1.6-1.7 4-2.4 6.2-1.6 1 .3 1.9.9 2.7 1.6l5.5 5.5c.8.7.8 1.9 0 2.7 0-.1 0 0 0 0zM22.9 79L3.8 82.2v2.5h122.3v-2.5L106.9 79h-84zm48.6 4.7H58.3c-.5 0-.9-.4-.9-.9s.4-.9.9-.9h13.2c.5 0 .9.4.9.9s-.4.9-.9.9z"/><g fill="#7542E5"><path d="M72.9 42.3h-9.4c-1 0-1.9.8-1.9 1.9 0 1 .8 1.9 1.9 1.9h4.9l-7.8 7.8c-.9 1-2.4 1.1-3.4.3l-.3-.3-5.5-5.5c-.7-.7-1.9-.7-2.7 0-.7.7-.7 1.9 0 2.7l5.5 5.5c.8.7 1.7 1.3 2.7 1.6.6.2 1.3.3 1.9.3 1.7 0 3.2-.8 4.4-2l8-8 .2 5.5c0 1 .9 1.8 1.9 1.8h.1c1 0 1.9-.9 1.8-2l-.4-9.8c-.1-1-.9-1.7-1.9-1.7zM74.3 24.3c-.8-.7-1.7-1.3-2.7-1.6-2.2-.7-4.7-.1-6.2 1.6l-8 8-.2-5.5c0-1-.9-1.8-2-1.8-1 0-1.8.9-1.8 2l.4 9.8c0 1 .9 1.8 1.9 1.8h9.4c1 0 1.9-.8 1.9-1.9 0-1-.8-1.9-1.9-1.9h-4.9L68 27c.9-1 2.4-1.1 3.4-.2l.2.2 5.5 5.5c.7.7 1.9.7 2.7 0 .7-.7.7-1.9 0-2.7l-5.5-5.5z"/><path d="M118.5 73.3V5.6c0-3.1-2.5-5.6-5.6-5.6h-96c-3.1 0-5.6 2.5-5.6 5.6v67.7c0 1.3.5 2.6 1.3 3.6L0 79v9.4h129.8V79l-12.6-2.1c.9-1 1.3-2.3 1.3-3.6zM16.9 75.2c-1 0-1.9-.8-1.9-1.9V5.6c0-1 .8-1.9 1.9-1.9h96c1 0 1.9.8 1.9 1.9v67.7c0 1-.9 1.8-1.9 1.8l-96 .1zM126 84.6H3.8v-2.4L22.9 79h84l19.1 3.2v2.4z"/><path d="M111 69.6V9.4c0-1-.8-1.9-1.9-1.9H20.7c-1 0-1.9.9-1.9 1.9v60.2c0 1 .8 1.9 1.9 1.9h88.4c1 0 1.9-.9 1.9-1.9zM20.7 9.4h88.4v2.8H20.7v1.9h88.4v55.5H20.7V9.4zM71.5 81.8H58.3c-.5 0-.9.4-.9.9s.4.9.9.9h13.2c.5 0 .9-.4.9-.9s-.4-.9-.9-.9z"/></g></svg>