<svg xmlns="http://www.w3.org/2000/svg" viewBox="0 0 62.1 78.5"><g fill="none"><path d="M17.1 23c.2-7.7 6.6-13.7 14.3-13.5 7.4.2 13.3 6.1 13.5 13.5v6.7h5.9V23c0-10.9-8.9-19.8-19.8-19.8S11.2 12.1 11.2 23v6.7h5.9V23zM58.4 70.1l-.2-32H3.6l.2 32h54.6zM41 51.5l1.1-1.8c.1-.2.4-.3.7-.2h.1l2.4 1.8-.4-3c0-.1 0-.3.2-.4.1-.1.2-.2.4-.2h2.2c.1 0 .3.1.4.2.1.1.1.2.1.4l-.4 3 2.4-1.8c.1-.1.3-.1.4-.1s.3.1.3.2l1 1.9c.1.1.1.3 0 .4l-.3.3-2.8 1.2 2.8 1.2.3.3c0 .1 0 .3-.1.4l-1.1 1.9c-.1.1-.2.2-.3.2-.1 0-.3 0-.4-.1l-2.4-1.8.4 3c0 .1 0 .3-.1.4-.1.1-.2.2-.4.2h-2.1c-.1 0-.3-.1-.4-.2-.1-.1-.1-.3-.1-.4l.4-3-2.4 1.8c-.1.1-.3.1-.4.1s-.3-.1-.3-.2l-1-1.9c-.1-.1-.1-.3 0-.4 0-.1.1-.2.3-.3l2.8-1.2-2.8-1.2-.3-.3c-.2 0-.2-.2-.2-.4zm-15 0l1.1-1.8c.1-.1.2-.2.3-.2.1 0 .3 0 .4.1l2.4 1.8-.4-3c0-.1 0-.3.2-.4.1-.1.2-.2.4-.2h2.2c.1 0 .3.1.4.2.1.1.1.2.1.4l-.4 3 2.3-1.8c.1-.1.3-.1.4-.1s.3.1.3.2l1 1.9c.1.1.1.3 0 .4l-.3.3-2.8 1.2 2.8 1.2c.3.1.4.4.3.6v.1l-1 1.9c-.1.1-.2.2-.3.2-.1 0-.3 0-.4-.1l-2.4-1.8.4 3c0 .3-.2.5-.4.6H30.3c-.3 0-.5-.2-.5-.5v-.1l.4-3-2.4 1.8c-.1.1-.3.1-.4.1s-.3-.1-.3-.2l-1-1.9c-.1-.1-.1-.3 0-.4 0-.1.1-.2.3-.3l2.7-1.2-2.8-1.2-.3-.3c-.1-.2-.1-.3 0-.5zm-14.4-1.8c.1-.1.2-.2.3-.2s.3 0 .4.1l2.4 1.8-.4-3c0-.1 0-.3.1-.4.1-.1.2-.2.4-.2H17c.3 0 .5.2.5.5v.1l-.4 3 2.4-1.8c.1-.1.3-.1.4-.1.1 0 .3.1.3.2l1 1.9c.1.1.1.3 0 .4l-.3.3-2.8 1.2 2.8 1.2.3.3c.1.1.1.3 0 .4l-.9 1.8c-.1.1-.2.2-.3.2s-.3 0-.4-.1l-2.4-1.8.4 3c0 .1 0 .3-.1.4-.1.1-.2.2-.4.2h-2.2c-.1 0-.3-.1-.4-.2-.1-.1-.1-.3-.1-.4l.4-3-2.5 1.8c-.1.1-.3.1-.4.1-.1 0-.3-.1-.3-.2l-1-1.9c-.1-.1-.1-.3 0-.4 0-.1.1-.3.3-.3l2.8-1.2-2.9-1.2c-.3-.1-.4-.4-.3-.7v-.1l1.1-1.7zM3.8 72v2.8l54.6-.1V72H3.8zM58.2 36.3v-2.7H3.6v2.7h54.6z"/><path d="M31 12.9c-5.6 0-10.2 4.5-10.2 10.1v6.7h20.3V23c0-5.5-4.5-10.1-10.1-10.1z"/></g><path fill="#7542E5" d="M58.3 29.8h-3.8v-6.7c-.3-13-11-23.3-24-23.1C17.9.2 7.7 10.4 7.4 23v6.7H3.6c-2 0-3.6 1.7-3.6 3.7l.1 41.4c0 2 1.6 3.7 3.7 3.7h54.6c2 0 3.7-1.6 3.7-3.7L62 33.4c-.1-2-1.7-3.6-3.7-3.6zM11.2 23C11.2 12.1 20 3.2 31 3.2S50.8 12.1 50.8 23v6.7h-5.9V23c-.2-7.7-6.6-13.7-14.3-13.5-7.4.2-13.3 6.1-13.5 13.5v6.7h-5.9V23zm29.9 6.8H20.8v-6.7c.2-5.6 4.9-10 10.5-9.8 5.4.2 9.7 4.5 9.8 9.8v6.7zm17.1 3.7v2.7H3.6v-2.7h54.6zm0 4.6l.2 32H3.8l-.2-32h54.6zM3.8 74.8V72h54.5v2.7l-54.5.1z"/><path fill="#7542E5" d="M10.8 52.3l2.8 1.2-2.8 1.2c-.1 0-.2.2-.3.3s-.1.3 0 .4l1 1.9c.1.1.2.2.3.2s.3 0 .4-.1l2.5-1.8-.4 3c0 .1 0 .3.1.4.1.1.2.2.4.2H17c.1 0 .3-.1.4-.2.1-.1.1-.3.1-.4l-.4-3 2.4 1.8c.1.1.3.1.4.1.1 0 .3-.1.3-.2l1.1-1.9c.1-.1.1-.3 0-.4 0-.1-.1-.2-.3-.3l-2.8-1.2 2.8-1.2.3-.3c.1-.1.1-.3 0-.4l-1-1.9c-.1-.1-.2-.2-.3-.2s-.3 0-.4.1l-2.4 1.8.4-3c0-.3-.2-.5-.4-.6H14.9c-.1 0-.3.1-.4.2-.1.1-.1.2-.1.4l.4 3-2.4-1.8c-.1-.1-.3-.1-.4-.1-.1 0-.3.1-.3.2l-1.1 1.8c-.2.3-.1.6.2.8 0-.1 0-.1 0 0zM29 53.5l-2.8 1.2-.3.3c-.1.1-.1.3 0 .4l1 1.9c.1.1.2.2.3.2.1 0 .3 0 .4-.1l2.4-1.8-.4 3c0 .3.2.5.4.6H32.3c.3 0 .5-.2.5-.5v-.1l-.4-3 2.5 1.8c.1.1.3.1.4.1s.3-.1.3-.2l1.1-1.9c.1-.2.1-.5-.2-.7h-.1l-2.8-1.2 2.8-1.2.3-.3c.1-.1.1-.3 0-.4l-1-1.9c-.1-.1-.2-.2-.3-.2-.1 0-.3 0-.4.1l-2.6 1.8.4-3c0-.1 0-.3-.1-.4-.1-.1-.2-.2-.4-.2h-2.2c-.1 0-.2.1-.3.2-.1.1-.1.2-.1.4l.4 3-2.4-1.8c-.1-.1-.3-.1-.4-.1s-.3.1-.3.2l-1 1.8c-.1.1-.1.3 0 .4 0 .1.1.2.3.3l2.7 1.3zM44.1 53.5l-2.8 1.2-.3.3c-.1.1-.1.3 0 .4l1 1.9c.1.1.2.2.3.2.1 0 .3 0 .4-.1l2.4-1.8-.4 3c0 .1 0 .3.1.4.1.1.2.2.4.2h2.2c.1 0 .3-.1.4-.2.1-.1.1-.3.1-.4l-.4-3 2.4 1.8c.1.1.3.1.4.1s.3-.1.3-.2l1.1-1.9c.1-.1.1-.3.1-.4 0-.1-.1-.2-.3-.3l-2.8-1.2 2.8-1.2.3-.3c.1-.1.1-.3 0-.4l-1-1.9c-.1-.1-.2-.2-.3-.2-.1 0-.3 0-.4.1l-2.4 1.8.4-3c0-.1 0-.3-.1-.4-.1-.1-.2-.2-.4-.2h-2.2c-.1 0-.3.1-.4.2-.1.1-.1.2-.1.4l.4 3-2.4-1.8c-.2-.2-.5-.1-.7.1v.1L41 51.5c-.1.1-.1.3 0 .4 0 .1.1.2.3.3l2.8 1.3z"/></svg>
