<svg width="32" height="26" viewBox="0 0 32 26" fill="none" xmlns="http://www.w3.org/2000/svg">
<path opacity="0.5" fill-rule="evenodd" clip-rule="evenodd" d="M13.7157 1.32953C17.8637 1.08892 21.5209 4.32369 23.9106 7.75674C26.1108 10.9177 26.9726 14.9785 25.6836 18.6165C24.5283 21.8773 21.1382 23.1658 17.9266 24.3788C15.1829 25.4151 12.3061 25.4653 9.50476 24.6005C5.82007 23.463 1.24458 22.5831 0.196384 18.8381C-0.871552 15.0227 2.65211 11.9867 5.0722 8.86488C7.53596 5.68669 9.72593 1.56096 13.7157 1.32953Z" fill="#D9BFFF"/>
<path d="M21 8.99901C21 8.62736 20.79 8.29226 20.466 8.13995C18.7381 7.36618 16.8782 6.98235 15.0003 7.00062C13.1164 6.98235 11.2565 7.36618 9.53459 8.13386C9.2046 8.28617 8.99461 8.62127 9.00061 8.98683V13.6398H9.00001C8.99401 16.7288 10.8599 19.5009 13.6918 20.6268L14.3277 20.8766C14.7537 21.0411 15.2211 21.0411 15.6531 20.8766L16.289 20.6207C19.1209 19.4936 20.9862 16.7214 20.9802 13.6325L21 8.99901ZM18.9001 11.7188L15.2763 16.733C15.1443 16.9097 14.9463 17.0194 14.7243 17.0376C14.7003 17.0376 14.6823 17.0376 14.6643 17.0376V17.037C14.4603 17.037 14.2743 16.9517 14.1304 16.8116L11.3825 14.0194C11.0945 13.7147 11.1005 13.2334 11.4005 12.941C11.6885 12.6546 12.1505 12.6546 12.4384 12.941L14.4423 14.9759C14.4963 15.0307 14.5923 15.0307 14.6523 14.9759C14.6523 14.9698 14.6583 14.9637 14.6643 14.9576L17.6642 10.7963C17.9042 10.4491 18.3721 10.3699 18.7081 10.6136C19.0441 10.8573 19.1221 11.3325 18.8821 11.6737C18.8761 11.6737 18.8701 11.6798 18.8641 11.6859L18.9001 11.7188Z" fill="#9059FF"/>
<path d="M12.6064 4.43246C12.6166 4.6876 12.6068 4.86438 12.6064 5.31897C12.6063 5.35873 12.6064 5.27916 12.6064 5.31897C12.6062 5.6809 12.5978 5.97337 12.6064 6.20548C12.6106 6.32076 12.7118 6.4313 12.828 6.42711C12.9442 6.42292 13.0538 6.32076 13.0496 6.20548C13.0414 5.97986 13.0494 5.67609 13.0496 5.31897C13.0495 5.35871 13.0496 5.27927 13.0496 5.31897C13.0501 4.8588 13.0601 4.69507 13.0496 4.43246C13.045 4.31718 12.9441 4.20628 12.828 4.21083C12.7118 4.21539 12.6017 4.31718 12.6064 4.43246Z" fill="#FCD400"/>
<path d="M12.1628 5.54075C12.2763 5.54685 12.4387 5.53613 12.606 5.54075C12.5671 5.53971 12.6275 5.54134 12.606 5.54075C12.9503 5.55001 13.0887 5.52449 13.2709 5.54075C13.3798 5.55047 13.4827 5.42749 13.4925 5.31913C13.5022 5.21077 13.3799 5.10722 13.2709 5.0975C13.0777 5.08025 12.9586 5.10698 12.606 5.0975C12.5672 5.09646 12.6275 5.09809 12.606 5.0975C12.442 5.09297 12.2721 5.10337 12.1628 5.0975C12.0536 5.09164 11.947 5.21048 11.9411 5.31913C11.9352 5.42777 12.0536 5.53489 12.1628 5.54075Z" fill="#FCD400"/>
<path d="M25.9034 15.0707C26.0549 15.0643 26.0735 15.0645 26.3467 15.0707C26.3895 15.0718 26.5443 15.0703 26.5683 15.0707C26.785 15.0753 26.8623 15.0778 27.0115 15.0707C27.1253 15.0652 27.2384 14.9686 27.2332 14.8491C27.228 14.7296 27.1252 14.622 27.0115 14.6274C26.8734 14.6341 26.7767 14.6319 26.5683 14.6274C26.5446 14.6269 26.3894 14.6285 26.3467 14.6274C26.065 14.621 26.0663 14.6205 25.9034 14.6274C25.7898 14.6322 25.6772 14.7295 25.6818 14.8491C25.6863 14.9686 25.7897 15.0756 25.9034 15.0707Z" fill="#EAF3F3"/>
<path d="M26.7903 15.5139C26.7927 15.4091 26.7895 15.2203 26.7903 15.0707C26.7901 15.1167 26.7904 15.0451 26.7903 15.0707C26.792 14.7234 26.7813 14.5898 26.7903 14.4058C26.7959 14.2925 26.6859 14.1895 26.5687 14.1841C26.4513 14.1788 26.3526 14.2924 26.3471 14.4058C26.3377 14.5976 26.3488 14.7176 26.3471 15.0707C26.3469 15.1167 26.3472 15.0452 26.3471 15.0707C26.3462 15.2182 26.3493 15.4117 26.3471 15.5139C26.3445 15.6273 26.4513 15.7332 26.5687 15.7355C26.6861 15.738 26.7878 15.6273 26.7903 15.5139Z" fill="#EAF3F3"/>
<path d="M24.3525 1.99463C24.3583 2.11478 24.3403 2.25267 24.3525 2.43788C24.3508 2.41176 24.3543 2.46403 24.3525 2.43788C24.3824 2.89009 24.3525 3.07104 24.3525 3.32439C24.3525 3.43088 24.4706 3.54602 24.5741 3.54602C24.6777 3.54602 24.7957 3.43088 24.7957 3.32439C24.7957 3.05945 24.8262 2.89873 24.7957 2.43788C24.794 2.41177 24.7975 2.46396 24.7957 2.43788C24.7837 2.25479 24.8015 2.11193 24.7957 1.99463C24.7905 1.88826 24.6775 1.76767 24.5741 1.773C24.4707 1.77832 24.3472 1.88827 24.3525 1.99463Z" fill="#90BFFF"/>
<path d="M24.1307 2.88108C24.3409 2.90449 24.423 2.90401 24.7956 2.88108C24.8829 2.87571 24.9686 2.88357 25.0172 2.88108C25.1112 2.87627 25.1646 2.88108 25.2388 2.88108C25.3501 2.88108 25.4604 2.77185 25.4604 2.65945C25.4604 2.54706 25.3501 2.43783 25.2388 2.43783C25.1569 2.43783 25.1173 2.4327 25.0172 2.43783C24.9668 2.4404 24.8843 2.43237 24.7956 2.43783C24.4461 2.45933 24.3103 2.45783 24.1307 2.43783C24.0201 2.42551 23.9212 2.54774 23.909 2.65945C23.8969 2.77117 24.0201 2.86877 24.1307 2.88108Z" fill="#90BFFF"/>
<path d="M5.9575 20.6113C5.96331 20.7314 5.94522 20.8694 5.9575 21.0546C5.95581 21.0285 5.95919 21.0808 5.9575 21.0546C5.9874 21.5068 5.9575 21.6877 5.9575 21.9411C5.9575 22.0475 6.07566 22.1627 6.17913 22.1627C6.28269 22.1627 6.40075 22.0475 6.40075 21.9411C6.40075 21.6762 6.43121 21.5154 6.40075 21.0546C6.39907 21.0285 6.40253 21.0806 6.40075 21.0546C6.38876 20.8715 6.40647 20.7287 6.40075 20.6113C6.3956 20.505 6.28259 20.3844 6.17913 20.3897C6.07575 20.3951 5.95234 20.505 5.9575 20.6113Z" fill="#90BFFF"/>
<path d="M5.73565 21.4979C5.94579 21.5213 6.028 21.5209 6.40053 21.4979C6.45181 21.4947 6.59345 21.4995 6.62216 21.4979C6.75312 21.4902 6.75151 21.4979 6.84379 21.4979C6.955 21.4979 7.06542 21.3887 7.06542 21.2762C7.06542 21.1638 6.955 21.0546 6.84379 21.0546C6.74234 21.0546 6.76007 21.0466 6.62216 21.0546C6.59285 21.0562 6.45231 21.0513 6.40053 21.0546C6.05107 21.0761 5.91527 21.0746 5.73565 21.0546C5.62504 21.0423 5.52621 21.1645 5.51402 21.2762C5.50183 21.388 5.62504 21.4855 5.73565 21.4979Z" fill="#90BFFF"/>
<path fill-rule="evenodd" clip-rule="evenodd" d="M26.5685 10.1949C26.5841 10.4366 26.9908 10.4361 27.0118 10.1949C27.0605 9.63499 27.2975 9.34281 27.6767 9.30843C27.6449 9.31049 27.7069 9.30794 27.6767 9.30843C27.9285 9.29149 27.9291 8.86517 27.6767 8.86517C27.6433 8.86517 27.7089 8.86273 27.6767 8.86517C27.2734 8.86841 27.1024 8.89458 27.0118 8.42192C27.0076 8.40003 27.0226 8.25802 27.0118 8.20029C27.0018 8.14699 27.0185 8.23368 27.0118 8.20029C26.9659 7.97495 26.5807 7.97064 26.5685 8.20029C26.5667 8.23418 26.5703 8.14163 26.5685 8.20029C26.5662 8.2794 26.5727 8.38165 26.5685 8.42192C26.5583 8.51949 26.6207 8.55232 26.5685 8.64355C26.4765 8.80417 26.1787 8.86968 25.9036 8.86517C25.6521 8.86116 25.653 9.2859 25.9036 9.30843C26.2289 9.33772 26.3094 9.45826 26.3469 9.53006C26.4618 9.75386 26.5522 9.94234 26.5685 10.1949ZM27.6767 8.86517C27.6494 8.86704 27.702 8.86488 27.6767 8.86517C27.6533 8.85607 27.7067 8.86478 27.6767 8.86517ZM27.6767 9.30843C27.6513 9.30843 27.7005 9.30647 27.6767 9.30843C27.6554 9.31842 27.7045 9.30618 27.6767 9.30843ZM26.5685 9.0868C26.6496 9.0295 26.735 8.94794 26.7902 8.86517C26.8493 8.97086 26.9205 9.02304 27.0118 9.0868C26.93 9.16016 26.8487 9.42741 26.7902 9.53006C26.7712 9.48647 26.8119 9.35084 26.7902 9.30843C26.7533 9.23791 26.6368 9.13636 26.5685 9.0868Z" fill="#FCD400"/>
<path fill-rule="evenodd" clip-rule="evenodd" d="M3.96236 15.0708C4.21443 15.0541 4.21501 14.6275 3.96236 14.6275C3.92946 14.6275 3.99407 14.6251 3.96236 14.6275C3.5565 14.6309 3.38861 14.6609 3.29747 14.1843C3.29346 14.1634 3.30765 14.0173 3.29747 13.9626C3.28749 13.9091 3.30423 13.996 3.29747 13.9626C3.25166 13.7373 2.86635 13.733 2.85422 13.9626C2.85245 13.9964 2.85598 13.9043 2.85422 13.9626C2.85196 14.0403 2.85823 14.1447 2.85422 14.1843C2.84413 14.2835 2.90669 14.3139 2.85422 14.4059C2.762 14.5665 2.46362 14.6329 2.18933 14.6275C1.93765 14.6227 1.93873 15.0477 2.18933 15.0708C2.51511 15.1009 2.5951 15.2207 2.63259 15.2924C2.74712 15.5162 2.83757 15.7046 2.85422 15.9573C2.87027 16.1987 3.27642 16.1982 3.29747 15.9573C3.34622 15.3968 3.58244 15.1046 3.96236 15.0708C3.99211 15.0703 3.93113 15.0728 3.96236 15.0708ZM3.96236 14.6275C3.93544 14.6293 3.98732 14.6272 3.96236 14.6275C3.93925 14.6187 3.99192 14.6271 3.96236 14.6275ZM3.96236 15.0708C3.93749 15.0708 3.98575 15.0689 3.96236 15.0708C3.94131 15.0804 3.98967 15.0686 3.96236 15.0708ZM2.85422 14.8492C2.93527 14.7919 3.02073 14.7104 3.07584 14.6275C3.13487 14.7333 3.20604 14.7855 3.29747 14.8492C3.21573 14.9226 3.13448 15.1897 3.07584 15.2924C3.05695 15.2488 3.09758 15.1131 3.07584 15.0708C3.03894 15.0001 2.92254 14.8988 2.85422 14.8492Z" fill="#EAF3F3"/>
<path d="M15.9306 2.65949C15.9306 2.55283 15.8314 2.43787 15.7089 2.43787C15.5866 2.43787 15.4873 2.55283 15.4873 2.65949C15.4873 2.76617 15.5866 2.88112 15.7089 2.88112C15.8314 2.88112 15.9306 2.76617 15.9306 2.65949Z" fill="#90BFFF"/>
<path d="M30.7792 12.8543C30.7792 12.7476 30.6799 12.6327 30.5576 12.6327C30.4351 12.6327 30.3359 12.7476 30.3359 12.8543C30.3359 12.961 30.4351 13.0759 30.5576 13.0759C30.6799 13.0759 30.7792 12.961 30.7792 12.8543Z" fill="#90BFFF"/>
<path d="M30.1146 5.54072C30.1146 5.43383 30.0154 5.31909 29.893 5.31909C29.7706 5.31909 29.6714 5.43383 29.6714 5.54072C29.6714 5.64762 29.7706 5.76235 29.893 5.76235C30.0154 5.76235 30.1146 5.64762 30.1146 5.54072Z" fill="#EAF3F3"/>
<path d="M31.4447 7.53535C31.4447 7.42868 31.3454 7.31372 31.2231 7.31372C31.1006 7.31372 31.0015 7.42868 31.0015 7.53535C31.0015 7.64202 31.1006 7.75698 31.2231 7.75698C31.3454 7.75698 31.4447 7.64202 31.4447 7.53535Z" fill="#4E6AF0"/>
<path d="M28.7846 1.1081C28.7846 1.00143 28.6854 0.886475 28.5629 0.886475C28.4405 0.886475 28.3413 1.00143 28.3413 1.1081C28.3413 1.21477 28.4405 1.32973 28.5629 1.32973C28.6854 1.32973 28.7846 1.21477 28.7846 1.1081Z" fill="#FCD400"/>
<path d="M1.74648 17.2869C1.74648 17.18 1.64719 17.0653 1.52485 17.0653C1.4024 17.0653 1.30322 17.18 1.30322 17.2869C1.30322 17.3939 1.4024 17.5086 1.52485 17.5086C1.64719 17.5086 1.74648 17.3939 1.74648 17.2869Z" fill="#FCD400"/>
<path d="M8.6166 6.20564C8.6166 6.09151 8.51742 5.98401 8.39497 5.98401C8.27263 5.98401 8.17334 6.09151 8.17334 6.20564C8.17334 6.31977 8.27263 6.42726 8.39497 6.42726C8.51742 6.42726 8.6166 6.31977 8.6166 6.20564Z" fill="#EAF3F3"/>
<path d="M9.94667 1.32978C9.94667 1.21592 9.8475 1.10815 9.72505 1.10815C9.60271 1.10815 9.50342 1.21592 9.50342 1.32978C9.50342 1.44365 9.60271 1.55141 9.72505 1.55141C9.8475 1.55141 9.94667 1.44365 9.94667 1.32978Z" fill="#4E6AF0"/>
<path d="M22.1361 3.10273C22.1361 3.0024 22.0369 2.8811 21.9145 2.8811C21.7922 2.8811 21.6929 3.0024 21.6929 3.10273C21.6929 3.20306 21.7922 3.32436 21.9145 3.32436C22.0369 3.32436 22.1361 3.20306 22.1361 3.10273Z" fill="#EAF3F3"/>
<path d="M19.9198 0.221628C19.9198 0.114734 19.8206 0 19.6982 0C19.5759 0 19.4766 0.114734 19.4766 0.221628C19.4766 0.328532 19.5759 0.443256 19.6982 0.443256C19.8206 0.443256 19.9198 0.328532 19.9198 0.221628Z" fill="#FCD400"/>
<path d="M29.0067 20.3898C29.0067 20.2831 28.9076 20.1682 28.7851 20.1682C28.6627 20.1682 28.5635 20.2831 28.5635 20.3898C28.5635 20.4965 28.6627 20.6115 28.7851 20.6115C28.9076 20.6115 29.0067 20.4965 29.0067 20.3898Z" fill="#FCD400"/>
<path d="M4.62734 9.97334C4.62734 9.86302 4.52816 9.75171 4.40571 9.75171C4.28337 9.75171 4.18408 9.86302 4.18408 9.97334C4.18408 10.0837 4.28337 10.195 4.40571 10.195C4.52816 10.195 4.62734 10.0837 4.62734 9.97334Z" fill="#90BFFF"/>
<path d="M27.455 17.5085C27.455 17.3982 27.3557 17.2869 27.2333 17.2869C27.1109 17.2869 27.0117 17.3982 27.0117 17.5085C27.0117 17.6187 27.1109 17.7301 27.2333 17.7301C27.3557 17.7301 27.455 17.6187 27.455 17.5085Z" fill="#4E6AF0"/>
<path d="M6.40078 15.9572C6.40078 15.8467 6.30149 15.7356 6.17915 15.7356C6.0567 15.7356 5.95752 15.8467 5.95752 15.9572C5.95752 16.0678 6.0567 16.1789 6.17915 16.1789C6.30149 16.1789 6.40078 16.0678 6.40078 15.9572Z" fill="#4E6AF0"/>
<path d="M25.017 12.4112C25.017 12.3009 24.9178 12.1896 24.7954 12.1896C24.6729 12.1896 24.5737 12.3009 24.5737 12.4112C24.5737 12.5214 24.6729 12.6328 24.7954 12.6328C24.9178 12.6328 25.017 12.5214 25.017 12.4112Z" fill="#EAF3F3"/>
<path d="M2.41152 20.3898C2.41152 20.2795 2.31223 20.1682 2.18989 20.1682C2.06744 20.1682 1.96826 20.2795 1.96826 20.3898C1.96826 20.5001 2.06744 20.6115 2.18989 20.6115C2.31223 20.6115 2.41152 20.5001 2.41152 20.3898Z" fill="#EAF3F3"/>
</svg>
