<svg width="24" height="24" viewBox="0 0 24 24" fill="none" xmlns="http://www.w3.org/2000/svg">
<path d="M9 5H8C6.34315 5 5 6.34315 5 8V16C5 17.6569 6.34315 19 8 19H16C17.6569 19 19 17.6569 19 16V15C19 14.4477 18.5523 14 18 14C17.4477 14 17 14.4477 17 15V16C17 16.5523 16.5523 17 16 17H8C7.44772 17 7 16.5523 7 16V8C7 7.44772 7.44772 7 8 7H9C9.55228 7 10 6.55228 10 6C10 5.44772 9.55228 5 9 5Z" fill="#592ACB"/>
<path d="M18.935 5.618C18.7805 5.24435 18.4163 5.00047 18.012 5H13.012C12.4597 5 12.012 5.44772 12.012 6C12.012 6.55228 12.4597 7 13.012 7H15.598L12.305 10.293C11.9145 10.6837 11.9147 11.317 12.3055 11.7075C12.6962 12.098 13.3295 12.0977 13.72 11.707L17.013 8.414V11C17.013 11.5523 17.4607 12 18.013 12C18.5652 12 19.013 11.5523 19.013 11V6C19.0126 5.86885 18.9864 5.73905 18.936 5.618H18.935Z" fill="#592ACB"/>
</svg>
