<?xml version="1.0" encoding="UTF-8"?>
<svg width="24" height="24" fill="none" version="1.1" viewBox="0 0 24 24" xmlns="http://www.w3.org/2000/svg">
 <path d="m12 19.143c3.9449 0 7.1428-3.198 7.1428-7.1429 0-3.9449-3.198-7.1428-7.1428-7.1428-3.9449 0-7.1428 3.198-7.1428 7.1428 0 3.9449 3.198 7.1429 7.1428 7.1429z" clip-rule="evenodd" fill-rule="evenodd" stroke="#592acb" stroke-linecap="round" stroke-linejoin="round" stroke-width="2"/>
 <path d="m9.9214 9.8571c0.34674-0.98568 1.3538-1.5776 2.3837-1.4009 1.0299 0.17665 1.7822 1.0703 1.7806 2.1152 0 1.4285-2.1429 2.1429-2.1429 2.1429" stroke="#592acb" stroke-linecap="round" stroke-linejoin="round" stroke-width="2"/>
 <path d="m12 16.286c0.39449 0 0.71429-0.3198 0.71429-0.71426 0-0.39446-0.3198-0.71426-0.71429-0.71426-0.39449 0-0.71428 0.3198-0.71428 0.71426 0 0.39446 0.31979 0.71426 0.71428 0.71426z" clip-rule="evenodd" fill="#592acb" fill-rule="evenodd" stroke-width=".85714"/>
</svg>
