<svg width="24" height="24" viewBox="0 0 24 24" fill="none" xmlns="http://www.w3.org/2000/svg">
<path fill-rule="evenodd" clip-rule="evenodd" d="M16.2649 6.33395C15.8376 6.03969 15.2504 6.14437 14.958 6.56833C14.6632 6.99573 14.7678 7.58336 15.1919 7.87589L15.1928 7.8765C16.7786 8.98288 17.7194 10.7902 17.7194 12.7087C17.7194 15.9728 15.0641 18.6281 11.8 18.6281C8.53668 18.6281 5.88062 15.9914 5.88062 12.7265C5.88062 10.808 6.82137 9.00069 8.40717 7.89432L8.40806 7.8937C8.83222 7.60118 8.93679 7.01355 8.64204 6.58615C8.34954 6.16203 7.762 6.05743 7.33461 6.35208C5.25087 7.79338 4 10.1905 4 12.7265C4 17.0348 7.49175 20.5265 11.8 20.5265C16.1083 20.5265 19.6 17.0348 19.6 12.7265C19.6 10.1909 18.3494 7.79337 16.2649 6.33395ZM11.8001 12.2236C12.3132 12.2236 12.7404 11.7964 12.7404 11.2833V4.94031C12.7404 4.42716 12.3132 4 11.8001 4C11.2869 4 10.8597 4.42716 10.8597 4.94031V11.2655C10.8597 11.7985 11.2889 12.2236 11.8001 12.2236Z" fill="#592ACB"/>
</svg>
