<?xml version="1.0" encoding="utf-8"?>
<!-- Generator: Adobe Illustrator 24.0.3, SVG Export Plug-In . SVG Version: 6.00 Build 0)  -->
<svg version="1.1" id="Layer_1" xmlns="http://www.w3.org/2000/svg" xmlns:xlink="http://www.w3.org/1999/xlink" x="0px" y="0px"
	 viewBox="0 0 224 224" style="enable-background:new 0 0 224 224;" xml:space="preserve">
<style type="text/css">
	.st0{fill:none;}
	.st1{fill:#EF4154;}
	.st2{fill:#FFFFFF;}
</style>
<rect class="st0" width="224" height="224"/>
<g>
	<g>
		<path class="st1" d="M196.7,19.3H28.1C17.1,19.3,8,27.8,8,38.7v62.4c0,56.6,46.8,103.6,104.4,103.6c57.2,0,103.6-47,103.6-103.6
			V38.7C216,27.7,207.3,19.3,196.7,19.3z M171.4,96.7l-49.6,46.7c-2.6,2.9-6.5,4.1-9.5,4.1c-3.7,0-7.3-1.1-10.2-4.1L53.3,96.7
			c-5.2-5.4-5.8-14.6,0-20.4c5.4-5.2,14.6-5.8,20.1,0l39,37.5l39.8-37.5c5.2-5.8,14.3-5.2,19.3,0C176.6,82,176.6,91.2,171.4,96.7z"
			/>
	</g>
	<path class="st2" d="M171.4,96.7l-49.6,46.7c-2.6,2.9-6.5,4.1-9.5,4.1c-3.7,0-7.3-1.1-10.2-4.1L53.3,96.7c-5.2-5.4-5.8-14.6,0-20.4
		c5.4-5.2,14.6-5.8,20.1,0l39,37.5l39.8-37.5c5.2-5.8,14.3-5.2,19.3,0C176.6,82,176.6,91.2,171.4,96.7z"/>
</g>
</svg>
