<?xml version="1.0" encoding="UTF-8"?>
<svg width="77.126" height="77.126" data-name="Layer 1" version="1.1" viewBox="0 0 77.126 77.126" xmlns="http://www.w3.org/2000/svg">
 <defs>
  <linearGradient id="b" x1="3.39" x2="73.6" y1="42.56" y2="42.56" gradientTransform="matrix(1 0 0 -1 .072125 81.126)" gradientUnits="userSpaceOnUse">
   <stop stop-color="#9059ff" offset="0"/>
   <stop stop-color="#f770ff" offset="1"/>
  </linearGradient>
 </defs>
 <path d="m70.262 16.826-28.4-16a6.81 6.81 0 0 0-6.5 0l-28.5 16a6.68 6.68 0 0 0-3.4 5.8v31.9a6.56 6.56 0 0 0 3.4 5.8l28.4 15.9a6.29 6.29 0 0 0 3.3 0.9 6.56 6.56 0 0 0 3.3-0.9l28.4-15.9a6.68 6.68 0 0 0 3.4-5.8v-31.9a6.38 6.38 0 0 0-3.4-5.8z" fill="url(#b)"/>
 <path d="m18.762 46.926-1.7 1a2.62 2.62 0 0 0-1 3.6 2.65 2.65 0 0 0 2.3 1.4 3.08 3.08 0 0 0 1.3-0.3l1.7-1a2.62 2.62 0 0 0 1-3.6 2.57 2.57 0 0 0-3.6-1.1zm10.4-5.9-3.5 2a2.62 2.62 0 0 0-1 3.6 2.65 2.65 0 0 0 2.3 1.4 3.08 3.08 0 0 0 1.3-0.3l3.5-2a2.62 2.62 0 0 0 1-3.6 2.57 2.57 0 0 0-3.6-1.1zm14.1-4.89a2.36 2.36 0 0 0-1.4-1.2v-20.11a2.69 2.69 0 0 0-2.7-2.7 2.61 2.61 0 0 0-2.6 2.7v20.2a2.36 2.36 0 0 0-1.4 1.2 2.66 2.66 0 0 0-0.1 2.3 2.66 2.66 0 0 0 0.1 2.3 2.36 2.36 0 0 0 1.4 1.2v20.2a2.7 2.7 0 0 0 5.4 0v-20.3a2.36 2.36 0 0 0 1.4-1.2 2.66 2.66 0 0 0 0.1-2.3 3.08 3.08 0 0 0-0.2-2.29zm6.81-6.91-3.5 2a2.62 2.62 0 0 0-1 3.6 2.65 2.65 0 0 0 2.3 1.4 3.08 3.08 0 0 0 1.3-0.3l3.5-2a2.62 2.62 0 0 0 1-3.6 2.57 2.57 0 0 0-3.6-1.1zm8.29 1a3.08 3.08 0 0 0 1.3-0.3l1.7-1a2.642 2.642 0 1 0-2.6-4.6l-1.7 1a2.62 2.62 0 0 0-1 3.6 2.56 2.56 0 0 0 2.3 1.3zm3 17.7-1.7-1a2.642 2.642 0 0 0-2.6 4.6l1.7 1a3.08 3.08 0 0 0 1.3 0.3 2.65 2.65 0 0 0 2.3-1.4 2.47 2.47 0 0 0-1-3.5zm-8.7-4.9-3.5-2a2.642 2.642 0 1 0-2.6 4.6l3.5 2a3.08 3.08 0 0 0 1.3 0.3 2.65 2.65 0 0 0 2.3-1.4 2.45 2.45 0 0 0-1-3.5zm-27-9.2 3.5 2a3.08 3.08 0 0 0 1.3 0.3 2.65 2.65 0 0 0 2.3-1.4 2.62 2.62 0 0 0-1-3.6l-3.5-2a2.62 2.62 0 0 0-3.6 1 2.8 2.8 0 0 0 1 3.7zm-4.3-8.5-1.7-1a2.642 2.642 0 1 0-2.6 4.6l1.7 1a3.08 3.08 0 0 0 1.3 0.3 2.65 2.65 0 0 0 2.3-1.4 2.53 2.53 0 0 0-1-3.5z" fill="#20133a"/>
</svg>
