<svg width="243" height="195" viewBox="0 0 243 195" fill="none" xmlns="http://www.w3.org/2000/svg">
<g opacity="0.5">
<path fill-rule="evenodd" clip-rule="evenodd" d="M106.59 11.3185C138.366 9.4651 166.403 35.2179 184.71 61.662C201.565 86.0098 206.736 116.966 196.861 144.989C188.011 170.106 162.441 179.045 137.838 188.389C116.819 196.371 95.0666 196.786 73.6066 190.125C45.3796 181.363 10.4612 175.572 2.43134 146.725C-5.7497 117.335 20.3476 92.6529 38.887 68.6059C57.7609 44.125 76.0263 13.1011 106.59 11.3185Z" fill="#D9BFFF"/>
</g>
<path d="M97.9143 35.6223C97.9927 37.6205 97.9175 39.0059 97.9143 42.5662C97.9134 42.8776 97.9143 42.2544 97.9143 42.5662C97.9126 45.4008 97.8487 47.6922 97.9143 49.5101C97.9466 50.413 98.757 51.2789 99.6502 51.2461C100.543 51.2133 101.419 50.413 101.386 49.5101C101.323 47.7431 101.385 45.3631 101.386 42.5662C101.385 42.8774 101.386 42.2553 101.386 42.5662C101.389 38.9621 101.466 37.679 101.386 35.6223C101.351 34.7194 100.543 33.8506 99.6502 33.8863C98.757 33.922 97.8787 34.7194 97.9143 35.6223Z" fill="#FCD400"/>
<path d="M94.4447 44.3021C95.3337 44.349 96.6067 44.2666 97.9167 44.3021C97.612 44.2941 98.0849 44.3067 97.9167 44.3021C100.612 44.3734 101.698 44.177 103.125 44.3021C103.977 44.3769 104.784 43.3999 104.861 42.5661C104.937 41.7325 103.978 40.905 103.125 40.8302C101.612 40.6975 100.677 40.9031 97.9167 40.8302C97.6128 40.8222 98.0849 40.8347 97.9167 40.8302C96.6323 40.7953 95.3004 40.8753 94.4447 40.8302C93.5898 40.7851 92.7544 41.7303 92.7087 42.5661C92.6622 43.402 93.5898 44.257 94.4447 44.3021Z" fill="#FCD400"/>
<path d="M200.339 117.213C201.525 117.164 201.671 117.166 203.811 117.213C204.146 117.222 205.359 117.21 205.547 117.213C207.244 117.249 207.85 117.268 209.018 117.213C209.909 117.171 210.796 116.394 210.754 115.477C210.714 114.562 209.908 113.7 209.018 113.741C207.937 113.793 207.179 113.775 205.547 113.741C205.361 113.737 204.145 113.75 203.811 113.741C201.605 113.692 201.614 113.688 200.339 113.741C199.449 113.778 198.567 114.561 198.603 115.477C198.638 116.394 199.448 117.251 200.339 117.213Z" fill="#EAF3F3"/>
<path d="M205.544 120.685C205.563 119.864 205.538 118.385 205.544 117.213C205.543 117.574 205.545 117.013 205.544 117.213C205.558 114.494 205.474 113.447 205.544 112.006C205.587 111.119 204.717 110.311 203.808 110.27C202.899 110.228 202.115 111.118 202.072 112.006C202 113.508 202.086 114.448 202.072 117.213C202.071 117.574 202.073 117.014 202.072 117.213C202.066 118.369 202.09 119.885 202.072 120.685C202.053 121.573 202.899 122.403 203.808 122.421C204.718 122.441 205.525 121.573 205.544 120.685Z" fill="#EAF3F3"/>
<path d="M188.185 16.5264C188.229 17.4675 188.093 18.5478 188.185 19.9984C188.172 19.7938 188.198 20.2032 188.185 19.9984C188.41 23.5401 188.185 24.958 188.185 26.9423C188.185 27.7763 189.142 28.6783 189.921 28.6783C190.701 28.6783 191.657 27.7763 191.657 26.9423C191.657 24.8673 191.886 23.6078 191.657 19.9984C191.644 19.7939 191.67 20.2026 191.657 19.9984C191.567 18.5643 191.7 17.4452 191.657 16.5264C191.617 15.6934 190.699 14.7487 189.921 14.7904C189.143 14.8321 188.145 15.6934 188.185 16.5264Z" fill="#90BFFF"/>
<path d="M186.45 23.4704C188.096 23.6459 188.741 23.6424 191.658 23.4704C192.341 23.4301 193.013 23.489 193.393 23.4704C194.129 23.4343 194.548 23.4704 195.129 23.4704C196.001 23.4704 196.865 22.5775 196.865 21.7344C196.865 20.8914 196.001 19.9984 195.129 19.9984C194.488 19.9984 194.177 19.96 193.393 19.9984C192.999 20.0178 192.352 19.9575 191.658 19.9984C188.922 20.1597 187.856 20.1485 186.45 19.9984C185.584 19.9061 184.809 20.8965 184.714 21.7344C184.618 22.5723 185.584 23.3781 186.45 23.4704Z" fill="#90BFFF"/>
<path d="M47.57 158.877C47.6138 159.818 47.4776 160.899 47.57 162.349C47.5573 162.145 47.5827 162.554 47.57 162.349C47.7951 165.891 47.57 167.309 47.57 169.293C47.57 170.127 48.527 171.029 49.306 171.029C50.0857 171.029 51.042 170.127 51.042 169.293C51.042 167.218 51.2713 165.958 51.042 162.349C51.0293 162.144 51.0554 162.553 51.042 162.349C50.9517 160.915 51.085 159.796 51.042 158.877C51.0032 158.044 50.085 157.1 49.306 157.141C48.5277 157.183 47.5312 158.044 47.57 158.877Z" fill="#90BFFF"/>
<path d="M45.8343 165.821C47.4794 165.996 48.1259 165.993 51.0423 165.821C51.4437 165.797 52.5535 165.833 52.7783 165.821C53.8035 165.764 53.7918 165.821 54.5142 165.821C55.3849 165.821 56.2502 164.926 56.2502 164.085C56.2502 163.244 55.3849 162.349 54.5142 162.349C53.7201 162.349 53.8579 162.289 52.7783 162.349C52.5488 162.361 51.4476 162.325 51.0423 162.349C48.3065 162.51 47.2405 162.499 45.8343 162.349C44.9684 162.257 44.1938 163.249 44.0983 164.085C44.0029 164.921 44.9684 165.729 45.8343 165.821Z" fill="#90BFFF"/>
<path fill-rule="evenodd" clip-rule="evenodd" d="M205.543 79.0218C205.656 80.8095 207.127 80.8059 207.279 79.0218C207.633 74.8788 209.732 72.3322 212.487 72.0778C212.256 72.0931 212.707 72.0742 212.487 72.0778C214.317 71.9525 214.321 70.3419 212.487 70.3419C212.244 70.3419 212.721 70.3237 212.487 70.3419C209.557 70.3658 207.937 70.367 207.279 66.8699C207.248 66.7079 207.357 65.561 207.279 65.1339C207.206 64.7396 207.328 65.381 207.279 65.1339C206.945 63.4667 205.631 63.4348 205.543 65.1339C205.529 65.3847 205.556 64.6999 205.543 65.1339C205.526 65.7192 205.574 66.572 205.543 66.8699C205.468 67.5918 205.922 67.9309 205.543 68.6059C204.874 69.7943 202.333 70.3752 200.335 70.3419C198.507 70.3122 198.514 71.9112 200.335 72.0778C202.698 72.2945 203.535 73.2826 203.807 73.8138C204.642 75.4697 205.424 77.1528 205.543 79.0218ZM212.487 70.3419C212.288 70.3556 212.671 70.3397 212.487 70.3419C212.317 70.2745 212.705 70.339 212.487 70.3419ZM212.487 72.0778C212.303 72.0778 212.66 72.0634 212.487 72.0778C212.333 72.1518 212.689 72.0612 212.487 72.0778ZM205.543 72.0778C206.132 71.6539 205.143 70.9542 205.543 70.3419C205.972 71.1238 206.615 71.6061 207.279 72.0778C206.685 72.6206 205.968 73.0544 205.543 73.8138C205.405 73.4914 205.701 72.3916 205.543 72.0778C206.039 72.4445 205.275 71.5561 205.543 72.0778Z" fill="#FCD400"/>
<path fill-rule="evenodd" clip-rule="evenodd" d="M30.2097 115.477C32.0409 115.354 32.0452 113.741 30.2097 113.741C29.9707 113.741 30.4401 113.723 30.2097 113.741C27.2612 113.766 25.6638 113.796 25.0017 110.269C24.9726 110.115 25.0757 108.938 25.0017 108.533C24.9292 108.137 25.0508 108.781 25.0017 108.533C24.6689 106.866 23.3539 106.834 23.2657 108.533C23.2529 108.784 23.2785 108.102 23.2657 108.533C23.2494 109.108 23.2949 109.977 23.2657 110.269C23.1925 111.004 23.6469 111.325 23.2657 112.005C22.5958 113.194 20.0504 113.781 18.0578 113.741C16.2294 113.706 16.2373 115.306 18.0578 115.477C20.4245 115.701 21.2574 116.683 21.5298 117.213C22.3618 118.869 23.1448 120.552 23.2657 122.421C23.3824 124.208 24.8488 124.204 25.0017 122.421C25.3559 118.274 27.4497 115.727 30.2097 115.477C30.4259 115.474 29.9828 115.493 30.2097 115.477ZM30.2097 113.741C30.0141 113.754 30.391 113.739 30.2097 113.741C30.0418 113.676 30.4244 113.739 30.2097 113.741ZM30.2097 115.477C30.029 115.477 30.3796 115.464 30.2097 115.477C30.0568 115.548 30.4081 115.461 30.2097 115.477ZM23.2657 115.477C23.8546 115.053 22.8654 114.355 23.2657 113.741C23.6946 114.524 24.3375 115.006 25.0017 115.477C24.4079 116.021 23.6917 116.453 23.2657 117.213C23.1285 116.891 23.4236 115.79 23.2657 115.477C23.7621 115.845 22.9976 114.954 23.2657 115.477Z" fill="#EAF3F3"/>
<path d="M123.954 21.7344C123.954 20.8989 123.178 19.9984 122.218 19.9984C121.26 19.9984 120.482 20.8989 120.482 21.7344C120.482 22.5699 121.26 23.4704 122.218 23.4704C123.178 23.4704 123.954 22.5699 123.954 21.7344Z" fill="#90BFFF"/>
<path d="M236.792 99.8536C236.792 99.0178 236.015 98.1176 235.056 98.1176C234.097 98.1176 233.32 99.0178 233.32 99.8536C233.32 100.689 234.097 101.59 235.056 101.59C236.015 101.59 236.792 100.689 236.792 99.8536Z" fill="#90BFFF"/>
<path d="M231.585 44.3022C231.585 43.4649 230.808 42.5662 229.849 42.5662C228.89 42.5662 228.113 43.4649 228.113 44.3022C228.113 45.1395 228.89 46.0382 229.849 46.0382C230.808 46.0382 231.585 45.1395 231.585 44.3022Z" fill="#EAF3F3"/>
<path d="M242.001 58.19C242.001 57.3545 241.224 56.454 240.265 56.454C239.306 56.454 238.529 57.3545 238.529 58.19C238.529 59.0256 239.306 59.926 240.265 59.926C241.224 59.926 242.001 59.0256 242.001 58.19Z" fill="#4E6AF0"/>
<path d="M221.169 9.58251C221.169 8.74697 220.392 7.84653 219.433 7.84653C218.474 7.84653 217.697 8.74697 217.697 9.58251C217.697 10.4181 218.474 11.3185 219.433 11.3185C220.392 11.3185 221.169 10.4181 221.169 9.58251Z" fill="#FCD400"/>
<path d="M14.5872 132.837C14.5872 132 13.8095 131.101 12.8512 131.101C11.8921 131.101 11.1152 132 11.1152 132.837C11.1152 133.675 11.8921 134.573 12.8512 134.573C13.8095 134.573 14.5872 133.675 14.5872 132.837Z" fill="#FCD400"/>
<path d="M66.6673 47.7741C66.6673 46.8802 65.8904 46.0381 64.9313 46.0381C63.973 46.0381 63.1953 46.8802 63.1953 47.7741C63.1953 48.6681 63.973 49.5101 64.9313 49.5101C65.8904 49.5101 66.6673 48.6681 66.6673 47.7741Z" fill="#EAF3F3"/>
<path d="M77.0833 11.3185C77.0833 10.4266 76.3064 9.58252 75.3473 9.58252C74.389 9.58252 73.6113 10.4266 73.6113 11.3185C73.6113 12.2104 74.389 13.0545 75.3473 13.0545C76.3064 13.0545 77.0833 12.2104 77.0833 11.3185Z" fill="#4E6AF0"/>
<path d="M170.825 25.2064C170.825 24.4205 170.049 23.4704 169.089 23.4704C168.131 23.4704 167.354 24.4205 167.354 25.2064C167.354 25.9923 168.131 26.9423 169.089 26.9423C170.049 26.9423 170.825 25.9923 170.825 25.2064Z" fill="#EAF3F3"/>
<path d="M153.466 2.63859C153.466 1.8013 152.689 0.902603 151.73 0.902603C150.772 0.902603 149.994 1.8013 149.994 2.63859C149.994 3.47595 150.772 4.37457 151.73 4.37457C152.689 4.37457 153.466 3.47595 153.466 2.63859Z" fill="#FCD400"/>
<path d="M222.906 157.141C222.906 156.305 222.129 155.405 221.17 155.405C220.21 155.405 219.434 156.305 219.434 157.141C219.434 157.976 220.21 158.877 221.17 158.877C222.129 158.877 222.906 157.976 222.906 157.141Z" fill="#FCD400"/>
<path d="M37.1556 77.2858C37.1556 76.4218 36.3787 75.5499 35.4196 75.5499C34.4613 75.5499 33.6836 76.4218 33.6836 77.2858C33.6836 78.1499 34.4613 79.0218 35.4196 79.0218C36.3787 79.0218 37.1556 78.1499 37.1556 77.2858Z" fill="#90BFFF"/>
<path d="M210.753 134.573C210.753 133.709 209.975 132.837 209.017 132.837C208.058 132.837 207.281 133.709 207.281 134.573C207.281 135.437 208.058 136.309 209.017 136.309C209.975 136.309 210.753 135.437 210.753 134.573Z" fill="#4E6AF0"/>
<path d="M51.0423 124.157C51.0423 123.291 50.2646 122.421 49.3063 122.421C48.3472 122.421 47.5703 123.291 47.5703 124.157C47.5703 125.023 48.3472 125.893 49.3063 125.893C50.2646 125.893 51.0423 125.023 51.0423 124.157Z" fill="#4E6AF0"/>
<path d="M193.394 96.3816C193.394 95.5176 192.617 94.6457 191.658 94.6457C190.699 94.6457 189.922 95.5176 189.922 96.3816C189.922 97.2449 190.699 98.1176 191.658 98.1176C192.617 98.1176 193.394 97.2449 193.394 96.3816Z" fill="#EAF3F3"/>
<path d="M19.7942 157.141C19.7942 156.277 19.0165 155.405 18.0582 155.405C17.0991 155.405 16.3223 156.277 16.3223 157.141C16.3223 158.004 17.0991 158.877 18.0582 158.877C19.0165 158.877 19.7942 158.004 19.7942 157.141Z" fill="#EAF3F3"/>
<path d="M203.809 33.1503H134.37C130.978 33.1503 127.426 36.7386 127.426 40.0942V88.7018C127.426 92.0574 130.978 93.9097 134.37 93.9097H203.809C207.201 93.9097 210.753 92.0574 210.753 88.7018V40.0942C210.753 36.7386 207.201 33.1503 203.809 33.1503ZM134.37 33.1503H203.809C206.897 33.1503 210.753 37.0391 210.753 40.0942V88.7018C210.753 91.7569 206.897 93.9097 203.809 93.9097H134.37C131.281 93.9097 127.426 91.7569 127.426 88.7018V40.0942C127.426 37.0391 131.281 33.1503 134.37 33.1503Z" fill="#140B28"/>
<path d="M209.016 35.6223H137.841C134.647 35.6223 132.633 37.5959 132.633 40.8302V91.1737C132.633 94.4081 134.647 96.3817 137.841 96.3817H209.016C212.21 96.3817 214.224 94.4081 214.224 91.1737V40.8302C214.224 37.5959 212.21 35.6223 209.016 35.6223Z" fill="#140B28"/>
<path d="M203.809 32.1503H132.634C129.44 32.1503 127.426 34.1239 127.426 37.3583V87.7018C127.426 90.9361 129.44 92.9097 132.634 92.9097H203.809C207.003 92.9097 209.017 90.9361 209.017 87.7018V37.3583C209.017 34.1239 207.003 32.1503 203.809 32.1503Z" fill="white"/>
<path d="M156.652 41.19C157.939 40.7656 159.448 41.0595 160.261 41.9986C160.714 42.5217 160.786 43.1568 160.48 43.8138C160.213 44.3876 159.658 44.9881 158.818 45.6363C158.48 45.8969 158.093 46.167 157.658 46.4467L157.615 46.4737L157.631 46.4856C158.912 47.4631 160.119 47.6542 161.63 47.2753L161.765 47.2405C162.224 47.1189 162.583 46.994 163.374 46.6833L164.157 46.3734C165.605 45.8026 166.434 45.5479 167.442 45.4291C168.842 45.2641 170.187 45.492 171.573 46.2011C177.557 49.2634 180.591 49.7313 185.033 48.092C185.278 48.0015 185.55 48.1269 185.641 48.3721C185.731 48.6173 185.606 48.8894 185.361 48.9798C182.875 49.8971 180.783 50.1605 178.576 49.8201L178.451 49.8003C176.413 49.4661 174.229 48.6236 171.142 47.0435C169.926 46.4215 168.769 46.2256 167.553 46.369L167.473 46.3787C166.588 46.4916 165.812 46.7359 164.436 47.2805L163.744 47.5551C162.846 47.908 162.47 48.0366 161.914 48.1798C160.114 48.6431 158.597 48.413 157.057 47.2381C156.963 47.1663 156.867 47.0872 156.772 47.002L156.763 46.9942L156.722 47.0187L156.586 47.0976C155.079 47.9678 153.144 48.9225 150.778 49.9645L150.664 50.0149C150.424 50.12 150.145 50.0111 150.04 49.7719C149.935 49.5326 150.044 49.2534 150.283 49.1484L150.498 49.0539C152.737 48.0648 154.575 47.1586 156.009 46.338L156.088 46.2923L156.068 46.2693C155.561 45.6643 155.128 44.968 154.947 44.4069L154.935 44.3696C154.474 42.8676 155.233 41.6583 156.652 41.19ZM159.546 42.6181C159.003 41.9918 157.896 41.7762 156.949 42.0887C155.989 42.4055 155.541 43.1188 155.84 44.092C155.982 44.5553 156.393 45.1973 156.861 45.7407L156.912 45.7988L156.941 45.7805C157.418 45.4819 157.835 45.1958 158.193 44.9225L158.24 44.887C159.625 43.8188 159.961 43.0972 159.546 42.6181Z" fill="#9059FF"/>
<path d="M136.105 84.2298H200.336C200.94 84.2298 202.072 83.1061 202.072 82.4938V58.1901C202.072 57.5778 200.94 56.4541 200.336 56.4541H136.105C135.501 56.4541 134.369 57.5778 134.369 58.1901V82.4938C134.369 83.1061 135.501 84.2298 136.105 84.2298Z" fill="#F770FF"/>
<path d="M196.867 61.662H139.58V63.398H196.867V61.662Z" fill="white"/>
<path d="M196.867 68.6059H139.58V70.3419H196.867V68.6059Z" fill="white"/>
<path d="M184.712 75.5499H139.577V77.2858H184.712V75.5499Z" fill="white"/>
<path fill-rule="evenodd" clip-rule="evenodd" d="M136.105 51.2461H143.049C143.682 51.2461 144.785 50.1436 144.785 49.5101V42.5662C144.785 41.9328 143.682 40.8302 143.049 40.8302H136.105C135.472 40.8302 134.369 41.9328 134.369 42.5662V49.5101C134.369 50.1436 135.472 51.2461 136.105 51.2461Z" fill="#9059FF"/>
<path d="M160.405 59.926H52.7737C47.8811 59.926 44.0938 63.7082 44.0938 68.6059V143.253C44.0938 148.151 47.8811 151.933 52.7737 151.933H160.405C165.297 151.933 169.085 148.151 169.085 143.253V68.6059C169.085 63.7082 165.297 59.926 160.405 59.926Z" fill="#140B28"/>
<path d="M153.461 54.7181H45.8303C40.9378 54.7181 37.1504 58.5002 37.1504 63.398V138.045C37.1504 142.943 40.9378 146.725 45.8303 146.725H153.461C158.354 146.725 162.141 142.943 162.141 138.045V63.398C162.141 58.5002 158.354 54.7181 153.461 54.7181Z" fill="white"/>
<path d="M80.1382 67.261C81.9051 66.678 83.9786 67.0817 85.0957 68.3717C85.7179 69.0903 85.8166 69.9628 85.3965 70.8654C85.0296 71.6536 84.2674 72.4784 83.1128 73.3689C82.6487 73.7269 82.1176 74.0979 81.5194 74.482L81.4611 74.5192L81.4822 74.5355C83.2425 75.8782 84.8999 76.1408 86.9766 75.6203L87.1616 75.5725C87.7921 75.4054 88.2853 75.2338 89.3722 74.8071L90.4468 74.3814C92.4359 73.5972 93.575 73.2474 94.9595 73.0842C96.8827 72.8576 98.7313 73.1707 100.635 74.1446C108.855 78.3514 113.023 78.9941 119.125 76.7422C119.462 76.6179 119.835 76.7902 119.96 77.127C120.084 77.4637 119.912 77.8375 119.575 77.9618C116.161 79.2219 113.286 79.5837 110.254 79.116L110.083 79.0888C107.283 78.6298 104.284 77.4724 100.042 75.3019C98.3726 74.4475 96.7833 74.1783 95.1117 74.3753L95.0023 74.3887C93.7863 74.5438 92.7213 74.8794 90.831 75.6274L89.8795 76.0046C88.646 76.4894 88.13 76.666 87.3657 76.8628C84.893 77.4992 82.8096 77.1831 80.6937 75.5692C80.5645 75.4706 80.4336 75.3619 80.3025 75.2449L80.2906 75.2342L80.2334 75.2679L80.0469 75.3762C77.9769 76.5716 75.3188 77.8831 72.0689 79.3144L71.9115 79.3837C71.5828 79.528 71.1993 79.3785 71.055 79.0498C70.9107 78.7211 71.0602 78.3376 71.3889 78.1933L71.6835 78.0636C74.7598 76.7048 77.2843 75.46 79.2538 74.3327L79.3626 74.27L79.3359 74.2384C78.6397 73.4073 78.0446 72.4508 77.7952 71.68L77.779 71.6288C77.1459 69.5655 78.1889 67.9042 80.1382 67.261ZM84.1129 69.2228C83.3679 68.3625 81.8466 68.0663 80.5456 68.4956C79.2268 68.9307 78.6116 69.9105 79.0219 71.2475C79.2172 71.8839 79.7815 72.7658 80.4253 73.5122L80.495 73.5921L80.5352 73.567C81.1899 73.1567 81.7633 72.7638 82.2552 72.3883L82.3189 72.3395C84.2214 70.8721 84.6828 69.8809 84.1129 69.2228Z" fill="#9059FF"/>
<path d="M49.3024 132.837H148.253C149.167 132.837 149.989 132.02 149.989 131.101V92.9097C149.989 91.9913 149.167 91.1737 148.253 91.1737H49.3024C48.3889 91.1737 47.5664 91.9913 47.5664 92.9097V131.101C47.5664 132.02 48.3889 132.837 49.3024 132.837Z" fill="#F770FF"/>
<path d="M139.573 99.8536H56.2457C55.5938 99.8536 54.5098 100.849 54.5098 101.59C54.5098 102.33 55.5938 103.326 56.2457 103.326H139.573C140.225 103.326 141.309 102.33 141.309 101.59C141.309 100.849 140.225 99.8536 139.573 99.8536Z" fill="white"/>
<path d="M139.573 110.27H56.2457C55.5938 110.27 54.5098 111.265 54.5098 112.006C54.5098 112.746 55.5938 113.741 56.2457 113.741H139.573C140.225 113.741 141.309 112.746 141.309 112.006C141.309 111.265 140.225 110.27 139.573 110.27Z" fill="white"/>
<path d="M120.477 120.685H56.2457C55.5984 120.685 54.5098 121.681 54.5098 122.421C54.5098 123.162 55.5984 124.157 56.2457 124.157H120.477C121.124 124.157 122.213 123.162 122.213 122.421C122.213 121.681 121.124 120.685 120.477 120.685Z" fill="white"/>
<path fill-rule="evenodd" clip-rule="evenodd" d="M49.3024 82.4938H61.4543C62.4044 82.4938 63.1903 81.708 63.1903 80.7578V68.6059C63.1903 67.6558 62.4044 66.87 61.4543 66.87H49.3024C48.3523 66.87 47.5664 67.6558 47.5664 68.6059V80.7578C47.5664 81.708 48.3523 82.4938 49.3024 82.4938Z" fill="#9059FF"/>
<path d="M199.469 133.705C199.469 152.973 184.222 168.425 165.617 168.425C147.013 168.425 131.766 152.973 131.766 133.705C131.766 114.438 147.013 98.9856 165.617 98.9856C184.222 98.9856 199.469 114.438 199.469 133.705Z" fill="#9059FF" stroke="#9059FF" stroke-width="8.67991"/>
<path fill-rule="evenodd" clip-rule="evenodd" d="M151.723 142.849C149.472 136.993 148.972 129.574 149.323 120.379L165.616 116.138L181.909 120.379C182.26 129.574 181.759 136.993 179.509 142.849C177.268 148.68 173.187 153.224 165.616 156.306C158.045 153.224 153.963 148.68 151.723 142.849ZM146.161 117.72L165.616 112.656L185.071 117.72C186.152 138.535 183.774 153.163 165.616 159.914C147.458 153.163 145.08 138.535 146.161 117.72ZM155.887 125.496L165.615 122.783V148.099C156.536 144.483 155.347 136.647 155.887 125.496Z" fill="#F9F9FA"/>
</svg>
