<svg width="13" height="16" viewBox="0 0 13 16" fill="none" xmlns="http://www.w3.org/2000/svg">
<path d="M6.34318 0C4.66148 0.00194853 3.04922 0.658938 1.86007 1.82685C0.670925 2.99476 0.0019907 4.57823 6.7485e-06 6.22991C-0.00200744 7.57966 0.446901 8.89279 1.27787 9.96786C1.27787 9.96786 1.45086 10.1916 1.47912 10.2239L6.34318 15.858L11.2096 10.221C11.2349 10.191 11.4085 9.96786 11.4085 9.96786L11.4091 9.96616C12.2396 8.89156 12.6883 7.57905 12.6864 6.22991C12.6844 4.57823 12.0154 2.99476 10.8263 1.82685C9.63715 0.658938 8.02489 0.00194853 6.34318 0ZM6.34318 8.49533C5.88698 8.49533 5.44102 8.36247 5.0617 8.11354C4.68238 7.86461 4.38674 7.5108 4.21215 7.09685C4.03757 6.6829 3.99189 6.2274 4.08089 5.78795C4.1699 5.3485 4.38958 4.94484 4.71216 4.62802C5.03475 4.31119 5.44575 4.09543 5.89319 4.00802C6.34062 3.92061 6.80441 3.96547 7.22588 4.13693C7.64736 4.3084 8.00761 4.59876 8.26106 4.97131C8.51451 5.34386 8.64979 5.78185 8.64979 6.22991C8.64903 6.83051 8.40577 7.40629 7.97336 7.83098C7.54095 8.25567 6.9547 8.49459 6.34318 8.49533Z" fill="#D647C1"/>
</svg>
