<svg width="620" height="620" viewBox="0 0 620 620" fill="none" xmlns="http://www.w3.org/2000/svg">
<g clip-path="url(#clip0_1942_16480)">
<rect width="620" height="620" rx="15.5" fill="#ECDFFF"/>
<mask id="path-2-inside-1_1942_16480" fill="white">
<path d="M538.911 150.058C544.946 150.058 549.839 154.95 549.839 160.985V233.835C549.839 239.871 544.946 244.763 538.911 244.763V150.058Z"/>
</mask>
<path d="M538.911 150.058C544.946 150.058 549.839 154.95 549.839 160.985V233.835C549.839 239.871 544.946 244.763 538.911 244.763V150.058Z" fill="url(#paint0_linear_1942_16480)"/>
<path d="M537.697 160.985V233.835H561.981V160.985H537.697ZM551.053 244.763V150.058H526.77V244.763H551.053ZM537.697 233.835C537.697 233.165 538.241 232.621 538.911 232.621V256.905C551.652 256.905 561.981 246.576 561.981 233.835H537.697ZM538.911 162.199C538.241 162.199 537.697 161.656 537.697 160.985H561.981C561.981 148.244 551.652 137.916 538.911 137.916V162.199Z" fill="#BFBFC7" mask="url(#path-2-inside-1_1942_16480)"/>
<path d="M476.77 47.1111H122.718C91.0672 47.1111 65.4092 72.7691 65.4092 104.42V825.637C65.4092 857.288 91.0672 882.946 122.718 882.946H476.77C508.421 882.946 534.079 857.288 534.079 825.637V104.42C534.079 72.7691 508.421 47.1111 476.77 47.1111Z" fill="#F9F9FA" stroke="#BFBFC7" stroke-width="9.71336" stroke-miterlimit="10"/>
<path d="M197.618 115.398L193.479 113.028L184.031 107.618L183.737 107.449C182.188 106.567 180.289 106.567 178.74 107.449L178.446 107.619L165.16 115.229L164.866 115.4C163.325 116.282 162.372 117.92 162.367 119.696V135.591C162.373 137.367 163.325 139.005 164.866 139.888L178.45 147.667C179.446 148.239 180.716 147.902 181.297 146.912C181.574 146.437 181.649 145.871 181.505 145.34C181.362 144.809 181.012 144.358 180.534 144.087L167.248 136.478C166.807 136.227 166.534 135.758 166.533 135.25V120.037C166.534 119.529 166.807 119.06 167.248 118.808L169.6 117.46L180.52 111.194C180.962 110.942 181.503 110.942 181.945 111.194L195.236 118.805C195.675 119.058 195.947 119.525 195.949 120.032V135.255C195.947 135.764 195.674 136.232 195.233 136.484L190.737 139.059L188.468 135.638C190.756 133.611 192.066 130.702 192.067 127.645C192.067 121.718 187.207 116.896 181.231 116.896C175.255 116.896 170.395 121.718 170.395 127.645C170.395 133.573 175.255 138.395 181.231 138.395C182.478 138.396 183.715 138.182 184.889 137.763L188.336 142.96C188.389 143.039 188.448 143.115 188.51 143.187L188.547 143.224C188.62 143.303 188.699 143.375 188.784 143.44C188.804 143.456 188.823 143.474 188.846 143.49C188.939 143.557 189.037 143.617 189.139 143.669L189.21 143.7C189.302 143.741 189.396 143.776 189.492 143.805L189.557 143.825C189.666 143.853 189.778 143.871 189.89 143.88H189.983C190.015 143.88 190.046 143.88 190.079 143.88C190.142 143.88 190.205 143.872 190.267 143.866C190.296 143.866 190.324 143.866 190.353 143.866C190.472 143.85 190.589 143.824 190.703 143.787C190.734 143.778 190.763 143.765 190.794 143.753C190.885 143.72 190.974 143.681 191.059 143.636C191.078 143.625 191.1 143.62 191.119 143.608L197.618 139.894C199.161 139.009 200.113 137.369 200.117 135.591V119.694C200.112 117.919 199.159 116.281 197.618 115.398ZM174.562 127.645C174.539 124.943 176.149 122.494 178.64 121.444C181.13 120.394 184.008 120.951 185.927 122.854C187.846 124.757 188.427 127.63 187.398 130.129C186.369 132.628 183.934 134.259 181.231 134.259C177.565 134.27 174.582 131.311 174.562 127.645Z" fill="url(#paint1_linear_1942_16480)"/>
<path d="M197.618 115.398L193.479 113.028L184.031 107.618L183.737 107.449C182.188 106.567 180.289 106.567 178.74 107.449L178.446 107.619L165.16 115.229L164.866 115.4C163.325 116.282 162.372 117.92 162.367 119.696V135.591C162.373 137.367 163.325 139.005 164.866 139.888L178.45 147.667C179.446 148.239 180.716 147.902 181.297 146.912C181.574 146.437 181.649 145.871 181.505 145.34C181.362 144.809 181.012 144.358 180.534 144.087L167.248 136.478C166.807 136.227 166.534 135.758 166.533 135.25V120.037C166.534 119.529 166.807 119.06 167.248 118.808L169.6 117.46L180.52 111.194C180.962 110.942 181.503 110.942 181.945 111.194L195.236 118.805C195.675 119.058 195.947 119.525 195.949 120.032V135.255C195.947 135.764 195.674 136.232 195.233 136.484L190.737 139.059L188.468 135.638C190.756 133.611 192.066 130.702 192.067 127.645C192.067 121.718 187.207 116.896 181.231 116.896C175.255 116.896 170.395 121.718 170.395 127.645C170.395 133.573 175.255 138.395 181.231 138.395C182.478 138.396 183.715 138.182 184.889 137.763L188.336 142.96C188.389 143.039 188.448 143.115 188.51 143.187L188.547 143.224C188.62 143.303 188.699 143.375 188.784 143.44C188.804 143.456 188.823 143.474 188.846 143.49C188.939 143.557 189.037 143.617 189.139 143.669L189.21 143.7C189.302 143.741 189.396 143.776 189.492 143.805L189.557 143.825C189.666 143.853 189.778 143.871 189.89 143.88H189.983C190.015 143.88 190.046 143.88 190.079 143.88C190.142 143.88 190.205 143.872 190.267 143.866C190.296 143.866 190.324 143.866 190.353 143.866C190.472 143.85 190.589 143.824 190.703 143.787C190.734 143.778 190.763 143.765 190.794 143.753C190.885 143.72 190.974 143.681 191.059 143.636C191.078 143.625 191.1 143.62 191.119 143.608L197.618 139.894C199.161 139.009 200.113 137.369 200.117 135.591V119.694C200.112 117.919 199.159 116.281 197.618 115.398ZM174.562 127.645C174.539 124.943 176.149 122.494 178.64 121.444C181.13 120.394 184.008 120.951 185.927 122.854C187.846 124.757 188.427 127.63 187.398 130.129C186.369 132.628 183.934 134.259 181.231 134.259C177.565 134.27 174.582 131.311 174.562 127.645Z" fill="url(#paint2_linear_1942_16480)"/>
<path d="M197.616 115.398L193.477 113.028L187.704 109.724C186.377 108.966 184.754 108.942 183.405 109.659L180.517 111.194C180.959 110.942 181.501 110.942 181.943 111.194L195.233 118.805C195.673 119.058 195.944 119.525 195.946 120.032V135.256C195.946 135.764 195.672 136.233 195.23 136.484L190.735 139.059L191.436 140.18C192.275 141.518 194.022 141.954 195.391 141.167L197.616 139.894C199.161 139.012 200.114 137.369 200.114 135.591V119.694C200.112 117.918 199.159 116.279 197.616 115.398Z" fill="url(#paint3_linear_1942_16480)"/>
<path d="M195.946 120.037V127.422H200.114V119.694C200.112 117.918 199.159 116.279 197.616 115.398L193.477 113.028L187.704 109.724C186.377 108.966 184.754 108.942 183.405 109.659L180.517 111.194C180.96 110.943 181.501 110.943 181.943 111.194L195.233 118.805C195.674 119.059 195.946 119.528 195.946 120.037Z" fill="url(#paint4_linear_1942_16480)"/>
<path opacity="0.9" d="M195.946 128.611V135.255C195.945 135.764 195.672 136.233 195.23 136.484L190.734 139.059L191.435 140.18C192.274 141.518 194.021 141.954 195.39 141.166L197.615 139.894C199.16 139.012 200.114 137.369 200.114 135.59V128.611H195.946Z" fill="url(#paint5_linear_1942_16480)"/>
<path opacity="0.9" d="M190.415 138.577L188.465 135.638C187.421 136.57 186.205 137.292 184.886 137.763L186.96 140.892C188.131 140.145 189.283 139.374 190.415 138.577Z" fill="url(#paint6_linear_1942_16480)"/>
<path d="M217.451 138.188V117.441H221.89L228.323 129.158L234.725 117.441H239.195V138.188H234.725V125.263L228.323 136.98L221.89 125.263V138.188H217.451ZM250.793 138.55C246.142 138.55 242.246 134.806 242.246 130.366C242.246 125.927 246.142 122.213 250.793 122.213C255.413 122.213 259.279 125.927 259.279 130.366C259.279 134.806 255.413 138.55 250.793 138.55ZM250.793 134.836C253.118 134.836 255.081 132.782 255.081 130.366C255.081 127.95 253.118 125.927 250.793 125.927C248.437 125.927 246.474 127.95 246.474 130.366C246.474 132.782 248.437 134.836 250.793 134.836ZM261.352 138.188V135.077L269.203 126.32H261.563V122.575H274.941V125.685L267.089 134.443H275.002V138.188H261.352ZM280.108 120.431C278.749 120.431 277.692 119.344 277.692 118.015C277.692 116.777 278.749 115.659 280.108 115.659C281.407 115.659 282.464 116.777 282.464 118.015C282.464 119.344 281.407 120.431 280.108 120.431ZM277.873 138.188V122.575H282.282V138.188H277.873ZM285.916 138.188V117.079H290.325V138.188H285.916ZM293.958 138.188V117.079H298.367V138.188H293.958ZM308.976 122.213C313.053 122.213 315.831 124.779 315.831 128.856V138.188H311.573V136.618C310.456 137.886 308.674 138.55 306.983 138.55C303.661 138.55 301.094 136.557 301.094 133.567C301.094 130.487 303.963 128.373 307.587 128.373C308.855 128.373 310.244 128.645 311.573 129.158V128.856C311.573 127.195 310.546 125.746 307.979 125.746C306.53 125.746 305.171 126.229 303.932 126.863L302.453 123.934C304.657 122.817 306.801 122.213 308.976 122.213ZM307.979 135.5C309.67 135.5 311.271 134.715 311.573 133.265V131.816C310.576 131.454 309.429 131.242 308.221 131.242C306.62 131.242 305.352 132.178 305.352 133.447C305.352 134.715 306.469 135.5 307.979 135.5ZM328.245 138.188V117.441H331.295L338.573 131.001L345.851 117.441H348.901V138.188H345.851V123.42L338.573 136.98L331.295 123.42V138.188H328.245ZM360.467 138.55C355.997 138.55 352.222 134.806 352.222 130.366C352.222 125.927 355.997 122.213 360.467 122.213C364.906 122.213 368.651 125.927 368.651 130.366C368.651 134.806 364.906 138.55 360.467 138.55ZM360.467 135.953C363.275 135.953 365.661 133.416 365.661 130.366C365.661 127.346 363.275 124.81 360.467 124.81C357.598 124.81 355.212 127.346 355.212 130.366C355.212 133.416 357.598 135.953 360.467 135.953ZM379.444 122.213C382.887 122.213 385.303 124.719 385.303 128.252V138.188H382.374V128.766C382.374 126.44 380.894 124.81 378.78 124.81C376.606 124.81 374.733 126.229 374.492 128.071V138.188H371.502V122.575H374.492V124.84C375.428 123.3 377.33 122.213 379.444 122.213ZM390.413 119.978C389.386 119.978 388.601 119.132 388.601 118.166C388.601 117.23 389.386 116.384 390.413 116.384C391.379 116.384 392.195 117.23 392.195 118.166C392.195 119.132 391.379 119.978 390.413 119.978ZM388.903 138.188V122.575H391.893V138.188H388.903ZM402.879 135.379L403.966 137.433C403.12 138.128 401.973 138.55 400.855 138.55C398.439 138.55 396.748 136.799 396.748 134.292V125.112H394.393V122.575H396.748V118.287H399.677V122.575H403.362V125.112H399.677V134.081C399.677 135.168 400.402 135.953 401.278 135.953C401.942 135.953 402.546 135.712 402.879 135.379ZM413.765 138.55C409.295 138.55 405.52 134.806 405.52 130.366C405.52 125.927 409.295 122.213 413.765 122.213C418.204 122.213 421.949 125.927 421.949 130.366C421.949 134.806 418.204 138.55 413.765 138.55ZM413.765 135.953C416.573 135.953 418.959 133.416 418.959 130.366C418.959 127.346 416.573 124.81 413.765 124.81C410.896 124.81 408.51 127.346 408.51 130.366C408.51 133.416 410.896 135.953 413.765 135.953ZM427.941 125.565C428.937 123.511 431.051 122.213 433.739 122.213V124.81C430.508 124.81 428.212 126.591 427.941 129.309V138.188H424.951V122.575H427.941V125.565Z" fill="black"/>
<path d="M89.26 189.184C89.26 185.96 91.8738 183.346 95.098 183.346H504.395C507.619 183.346 510.233 185.96 510.233 189.184V628.637C510.233 631.861 507.619 634.475 504.395 634.475H95.098C91.8738 634.475 89.26 631.861 89.26 628.637V189.184Z" fill="white"/>
<path d="M95.098 182.981C91.6723 182.981 88.8951 185.758 88.8951 189.184V628.637C88.8951 632.062 91.6723 634.839 95.098 634.839H504.395C507.82 634.839 510.598 632.062 510.598 628.637V189.184C510.598 185.758 507.82 182.981 504.395 182.981H95.098Z" stroke="black" stroke-opacity="0.1" stroke-width="0.729753"/>
<path d="M173.667 419V403.283H178.978C180.211 403.283 181.218 403.506 182.001 403.951C182.789 404.391 183.372 404.987 183.751 405.739C184.129 406.491 184.319 407.33 184.319 408.256C184.319 409.182 184.129 410.024 183.751 410.781C183.377 411.538 182.799 412.142 182.016 412.592C181.234 413.037 180.231 413.26 179.008 413.26H175.202V411.571H178.947C179.791 411.571 180.469 411.425 180.98 411.134C181.492 410.842 181.863 410.448 182.093 409.952C182.329 409.451 182.446 408.885 182.446 408.256C182.446 407.627 182.329 407.064 182.093 406.568C181.863 406.071 181.49 405.683 180.973 405.401C180.456 405.115 179.771 404.972 178.916 404.972H175.57V419H173.667ZM190.608 419.276C189.861 419.276 189.183 419.135 188.574 418.854C187.965 418.567 187.482 418.156 187.124 417.618C186.765 417.076 186.586 416.421 186.586 415.654C186.586 414.979 186.719 414.431 186.985 414.012C187.251 413.587 187.607 413.254 188.052 413.014C188.497 412.774 188.988 412.594 189.526 412.477C190.068 412.354 190.613 412.257 191.16 412.185C191.876 412.093 192.457 412.024 192.902 411.978C193.352 411.927 193.68 411.842 193.884 411.725C194.094 411.607 194.199 411.402 194.199 411.111V411.049C194.199 410.292 193.992 409.704 193.578 409.284C193.168 408.865 192.547 408.655 191.713 408.655C190.848 408.655 190.17 408.844 189.679 409.223C189.188 409.602 188.843 410.006 188.643 410.435L186.924 409.822C187.231 409.105 187.64 408.548 188.152 408.149C188.669 407.744 189.231 407.463 189.84 407.304C190.454 407.141 191.058 407.059 191.651 407.059C192.03 407.059 192.465 407.105 192.956 407.197C193.452 407.284 193.931 407.466 194.391 407.742C194.857 408.018 195.243 408.435 195.55 408.993C195.857 409.55 196.01 410.297 196.01 411.234V419H194.199V417.404H194.107C193.984 417.659 193.78 417.933 193.493 418.225C193.207 418.516 192.825 418.764 192.35 418.969C191.874 419.174 191.293 419.276 190.608 419.276ZM190.884 417.649C191.6 417.649 192.204 417.508 192.695 417.227C193.191 416.946 193.565 416.582 193.815 416.137C194.071 415.692 194.199 415.224 194.199 414.733V413.075C194.122 413.167 193.954 413.252 193.693 413.329C193.437 413.4 193.14 413.464 192.802 413.52C192.47 413.572 192.145 413.618 191.828 413.659C191.516 413.694 191.262 413.725 191.068 413.751C190.597 413.812 190.157 413.912 189.748 414.05C189.344 414.183 189.017 414.385 188.766 414.656C188.52 414.922 188.397 415.285 188.397 415.746C188.397 416.375 188.63 416.851 189.096 417.173C189.567 417.491 190.163 417.649 190.884 417.649ZM207.665 409.852L206.038 410.313C205.936 410.042 205.785 409.778 205.586 409.522C205.391 409.261 205.125 409.046 204.787 408.878C204.45 408.709 204.017 408.624 203.49 408.624C202.769 408.624 202.168 408.791 201.687 409.123C201.211 409.451 200.973 409.868 200.973 410.374C200.973 410.824 201.137 411.18 201.465 411.441C201.792 411.702 202.304 411.919 202.999 412.093L204.749 412.523C205.803 412.779 206.588 413.17 207.105 413.697C207.622 414.219 207.88 414.892 207.88 415.715C207.88 416.391 207.686 416.994 207.297 417.526C206.913 418.058 206.376 418.478 205.685 418.785C204.995 419.092 204.191 419.245 203.276 419.245C202.073 419.245 201.078 418.984 200.29 418.463C199.503 417.941 199.004 417.178 198.794 416.176L200.513 415.746C200.677 416.38 200.986 416.856 201.442 417.173C201.902 417.491 202.503 417.649 203.245 417.649C204.089 417.649 204.759 417.47 205.256 417.112C205.757 416.749 206.008 416.314 206.008 415.807C206.008 415.398 205.864 415.055 205.578 414.779C205.291 414.498 204.851 414.288 204.258 414.15L202.293 413.689C201.214 413.433 200.421 413.037 199.914 412.5C199.413 411.958 199.162 411.28 199.162 410.466C199.162 409.801 199.349 409.213 199.723 408.701C200.101 408.19 200.615 407.788 201.265 407.496C201.92 407.205 202.662 407.059 203.49 407.059C204.657 407.059 205.573 407.315 206.238 407.826C206.908 408.338 207.384 409.013 207.665 409.852ZM218.956 409.852L217.329 410.313C217.226 410.042 217.076 409.778 216.876 409.522C216.682 409.261 216.416 409.046 216.078 408.878C215.74 408.709 215.308 408.624 214.781 408.624C214.06 408.624 213.458 408.791 212.978 409.123C212.502 409.451 212.264 409.868 212.264 410.374C212.264 410.824 212.428 411.18 212.755 411.441C213.082 411.702 213.594 411.919 214.29 412.093L216.04 412.523C217.093 412.779 217.879 413.17 218.395 413.697C218.912 414.219 219.171 414.892 219.171 415.715C219.171 416.391 218.976 416.994 218.587 417.526C218.204 418.058 217.666 418.478 216.976 418.785C216.285 419.092 215.482 419.245 214.566 419.245C213.364 419.245 212.369 418.984 211.581 418.463C210.793 417.941 210.294 417.178 210.084 416.176L211.803 415.746C211.967 416.38 212.277 416.856 212.732 417.173C213.192 417.491 213.794 417.649 214.535 417.649C215.38 417.649 216.05 417.47 216.546 417.112C217.047 416.749 217.298 416.314 217.298 415.807C217.298 415.398 217.155 415.055 216.868 414.779C216.582 414.498 216.142 414.288 215.548 414.15L213.584 413.689C212.504 413.433 211.711 413.037 211.205 412.5C210.703 411.958 210.453 411.28 210.453 410.466C210.453 409.801 210.64 409.213 211.013 408.701C211.392 408.19 211.906 407.788 212.556 407.496C213.21 407.205 213.952 407.059 214.781 407.059C215.947 407.059 216.863 407.315 217.528 407.826C218.199 408.338 218.674 409.013 218.956 409.852ZM224.567 419L220.976 407.212H222.879L225.427 416.237H225.55L228.067 407.212H230.001L232.487 416.206H232.61L235.158 407.212H237.061L233.469 419H231.689L229.11 409.944H228.926L226.348 419H224.567ZM243.843 419.245C242.779 419.245 241.845 418.992 241.042 418.486C240.244 417.979 239.619 417.271 239.169 416.36C238.724 415.449 238.502 414.385 238.502 413.167C238.502 411.94 238.724 410.868 239.169 409.952C239.619 409.036 240.244 408.325 241.042 407.819C241.845 407.312 242.779 407.059 243.843 407.059C244.907 407.059 245.838 407.312 246.636 407.819C247.439 408.325 248.064 409.036 248.509 409.952C248.959 410.868 249.184 411.94 249.184 413.167C249.184 414.385 248.959 415.449 248.509 416.36C248.064 417.271 247.439 417.979 246.636 418.486C245.838 418.992 244.907 419.245 243.843 419.245ZM243.843 417.618C244.651 417.618 245.316 417.411 245.838 416.997C246.36 416.582 246.746 416.038 246.997 415.362C247.247 414.687 247.373 413.955 247.373 413.167C247.373 412.38 247.247 411.645 246.997 410.965C246.746 410.285 246.36 409.735 245.838 409.315C245.316 408.896 244.651 408.686 243.843 408.686C243.034 408.686 242.369 408.896 241.847 409.315C241.326 409.735 240.939 410.285 240.689 410.965C240.438 411.645 240.313 412.38 240.313 413.167C240.313 413.955 240.438 414.687 240.689 415.362C240.939 416.038 241.326 416.582 241.847 416.997C242.369 417.411 243.034 417.618 243.843 417.618ZM251.949 419V407.212H253.698V408.993H253.821C254.036 408.41 254.425 407.936 254.987 407.573C255.55 407.21 256.185 407.028 256.891 407.028C257.024 407.028 257.19 407.031 257.389 407.036C257.589 407.041 257.74 407.049 257.842 407.059V408.901C257.781 408.885 257.64 408.862 257.42 408.832C257.205 408.796 256.978 408.778 256.737 408.778C256.164 408.778 255.653 408.898 255.202 409.139C254.757 409.374 254.404 409.701 254.143 410.121C253.887 410.535 253.76 411.008 253.76 411.541V419H251.949ZM264.081 419.245C263.099 419.245 262.232 418.997 261.48 418.501C260.728 418 260.139 417.294 259.715 416.383C259.29 415.467 259.078 414.385 259.078 413.137C259.078 411.899 259.29 410.824 259.715 409.914C260.139 409.003 260.73 408.3 261.487 407.803C262.245 407.307 263.119 407.059 264.112 407.059C264.879 407.059 265.486 407.187 265.931 407.443C266.381 407.693 266.724 407.98 266.959 408.302C267.199 408.619 267.386 408.88 267.519 409.085H267.673V403.283H269.484V419H267.734V417.189H267.519C267.386 417.404 267.197 417.675 266.951 418.002C266.706 418.324 266.355 418.613 265.9 418.869C265.445 419.12 264.838 419.245 264.081 419.245ZM264.327 417.618C265.053 417.618 265.667 417.429 266.169 417.051C266.67 416.667 267.051 416.137 267.312 415.462C267.573 414.782 267.703 413.996 267.703 413.106C267.703 412.226 267.576 411.456 267.32 410.796C267.064 410.131 266.685 409.614 266.184 409.246C265.683 408.873 265.064 408.686 264.327 408.686C263.559 408.686 262.92 408.883 262.408 409.277C261.902 409.666 261.521 410.195 261.265 410.865C261.014 411.53 260.889 412.277 260.889 413.106C260.889 413.945 261.017 414.707 261.273 415.393C261.533 416.073 261.917 416.616 262.424 417.02C262.935 417.419 263.57 417.618 264.327 417.618ZM281.402 409.852L279.775 410.313C279.672 410.042 279.521 409.778 279.322 409.522C279.128 409.261 278.862 409.046 278.524 408.878C278.186 408.709 277.754 408.624 277.227 408.624C276.506 408.624 275.904 408.791 275.424 409.123C274.948 409.451 274.71 409.868 274.71 410.374C274.71 410.824 274.874 411.18 275.201 411.441C275.528 411.702 276.04 411.919 276.736 412.093L278.485 412.523C279.539 412.779 280.325 413.17 280.841 413.697C281.358 414.219 281.617 414.892 281.617 415.715C281.617 416.391 281.422 416.994 281.033 417.526C280.65 418.058 280.112 418.478 279.422 418.785C278.731 419.092 277.928 419.245 277.012 419.245C275.81 419.245 274.815 418.984 274.027 418.463C273.239 417.941 272.74 417.178 272.53 416.176L274.249 415.746C274.413 416.38 274.723 416.856 275.178 417.173C275.638 417.491 276.24 417.649 276.981 417.649C277.826 417.649 278.496 417.47 278.992 417.112C279.493 416.749 279.744 416.314 279.744 415.807C279.744 415.398 279.601 415.055 279.314 414.779C279.028 414.498 278.588 414.288 277.994 414.15L276.03 413.689C274.95 413.433 274.157 413.037 273.651 412.5C273.149 411.958 272.899 411.28 272.899 410.466C272.899 409.801 273.085 409.213 273.459 408.701C273.838 408.19 274.352 407.788 275.001 407.496C275.656 407.205 276.398 407.059 277.227 407.059C278.393 407.059 279.309 407.315 279.974 407.826C280.644 408.338 281.12 409.013 281.402 409.852Z" fill="#6D6D6E"/>
<rect x="134" y="402.531" width="16.9195" height="16.9195" rx="3.07628" fill="#9059FF"/>
<path d="M432.259 417.316V415.75L439.165 404.822H440.301V407.247H439.534L434.315 415.505V415.627H443.616V417.316H432.259ZM439.657 420.539V416.84V416.111V404.822H441.468V420.539H439.657ZM447.874 408.751L450.698 413.571L453.522 408.751H455.609L451.803 414.645L455.609 420.539H453.522L450.698 415.965L447.874 420.539H445.786L449.531 414.645L445.786 408.751H447.874Z" fill="#6D6D6E"/>
<path d="M186.314 462.195H184.411C184.298 461.647 184.101 461.167 183.82 460.752C183.544 460.338 183.206 459.99 182.807 459.708C182.413 459.422 181.976 459.207 181.495 459.064C181.014 458.921 180.512 458.849 179.991 458.849C179.039 458.849 178.177 459.089 177.404 459.57C176.637 460.051 176.026 460.76 175.57 461.696C175.12 462.632 174.895 463.781 174.895 465.142C174.895 466.503 175.12 467.651 175.57 468.587C176.026 469.524 176.637 470.232 177.404 470.713C178.177 471.194 179.039 471.434 179.991 471.434C180.512 471.434 181.014 471.363 181.495 471.22C181.976 471.076 182.413 470.864 182.807 470.583C183.206 470.296 183.544 469.946 183.82 469.531C184.101 469.112 184.298 468.631 184.411 468.089H186.314C186.171 468.892 185.91 469.611 185.531 470.245C185.153 470.879 184.682 471.419 184.119 471.864C183.556 472.304 182.925 472.639 182.224 472.87C181.528 473.1 180.784 473.215 179.991 473.215C178.65 473.215 177.458 472.887 176.414 472.233C175.371 471.578 174.55 470.647 173.951 469.439C173.352 468.232 173.053 466.799 173.053 465.142C173.053 463.484 173.352 462.052 173.951 460.844C174.55 459.637 175.371 458.706 176.414 458.051C177.458 457.396 178.65 457.069 179.991 457.069C180.784 457.069 181.528 457.184 182.224 457.414C182.925 457.644 183.556 457.982 184.119 458.427C184.682 458.867 185.153 459.404 185.531 460.038C185.91 460.668 186.171 461.387 186.314 462.195ZM189.144 473V461.213H190.893V462.993H191.016C191.231 462.41 191.62 461.937 192.183 461.573C192.746 461.21 193.38 461.028 194.086 461.028C194.219 461.028 194.385 461.031 194.585 461.036C194.784 461.041 194.935 461.049 195.037 461.059V462.901C194.976 462.886 194.835 462.863 194.615 462.832C194.401 462.796 194.173 462.778 193.932 462.778C193.359 462.778 192.848 462.898 192.398 463.139C191.953 463.374 191.6 463.702 191.339 464.121C191.083 464.535 190.955 465.009 190.955 465.541V473H189.144ZM201.768 473.246C200.632 473.246 199.652 472.995 198.828 472.494C198.01 471.987 197.378 471.281 196.933 470.375C196.493 469.465 196.273 468.406 196.273 467.198C196.273 465.991 196.493 464.927 196.933 464.006C197.378 463.08 197.997 462.359 198.79 461.842C199.588 461.32 200.519 461.059 201.583 461.059C202.197 461.059 202.804 461.161 203.402 461.366C204.001 461.571 204.546 461.903 205.037 462.364C205.528 462.819 205.919 463.423 206.211 464.175C206.503 464.927 206.648 465.853 206.648 466.953V467.72H197.562V466.155H204.807C204.807 465.49 204.674 464.896 204.408 464.374C204.147 463.852 203.773 463.441 203.287 463.139C202.806 462.837 202.238 462.686 201.583 462.686C200.862 462.686 200.238 462.865 199.711 463.223C199.189 463.576 198.788 464.037 198.506 464.605C198.225 465.172 198.084 465.781 198.084 466.431V467.475C198.084 468.365 198.238 469.119 198.545 469.739C198.857 470.352 199.289 470.821 199.841 471.143C200.394 471.46 201.036 471.619 201.768 471.619C202.243 471.619 202.673 471.552 203.057 471.419C203.446 471.281 203.781 471.076 204.062 470.805C204.344 470.529 204.561 470.186 204.715 469.777L206.464 470.268C206.28 470.861 205.971 471.383 205.536 471.834C205.101 472.279 204.564 472.627 203.924 472.877C203.285 473.123 202.566 473.246 201.768 473.246ZM213.854 473.246C212.872 473.246 212.005 472.997 211.253 472.501C210.501 472 209.912 471.294 209.488 470.383C209.063 469.467 208.851 468.385 208.851 467.137C208.851 465.899 209.063 464.825 209.488 463.914C209.912 463.003 210.503 462.3 211.261 461.804C212.018 461.307 212.893 461.059 213.885 461.059C214.652 461.059 215.259 461.187 215.704 461.443C216.154 461.694 216.497 461.98 216.732 462.302C216.973 462.62 217.159 462.88 217.292 463.085H217.446V457.283H219.257V473H217.507V471.189H217.292C217.159 471.404 216.97 471.675 216.724 472.002C216.479 472.325 216.128 472.614 215.673 472.87C215.218 473.12 214.612 473.246 213.854 473.246ZM214.1 471.619C214.826 471.619 215.44 471.429 215.942 471.051C216.443 470.667 216.824 470.138 217.085 469.462C217.346 468.782 217.477 467.996 217.477 467.106C217.477 466.226 217.349 465.456 217.093 464.796C216.837 464.131 216.458 463.615 215.957 463.246C215.456 462.873 214.837 462.686 214.1 462.686C213.333 462.686 212.693 462.883 212.181 463.277C211.675 463.666 211.294 464.195 211.038 464.865C210.787 465.531 210.662 466.278 210.662 467.106C210.662 467.945 210.79 468.708 211.046 469.393C211.307 470.074 211.69 470.616 212.197 471.02C212.708 471.419 213.343 471.619 214.1 471.619ZM222.825 473V461.213H224.636V473H222.825ZM223.746 459.248C223.393 459.248 223.089 459.128 222.833 458.887C222.582 458.647 222.457 458.358 222.457 458.02C222.457 457.683 222.582 457.393 222.833 457.153C223.089 456.913 223.393 456.792 223.746 456.792C224.099 456.792 224.401 456.913 224.652 457.153C224.908 457.393 225.035 457.683 225.035 458.02C225.035 458.358 224.908 458.647 224.652 458.887C224.401 459.128 224.099 459.248 223.746 459.248ZM233.08 461.213V462.747H226.971V461.213H233.08ZM228.752 458.389H230.563V469.623C230.563 470.135 230.637 470.519 230.785 470.775C230.939 471.025 231.133 471.194 231.369 471.281C231.609 471.363 231.862 471.404 232.128 471.404C232.328 471.404 232.492 471.394 232.619 471.373C232.747 471.348 232.85 471.327 232.926 471.312L233.295 472.939C233.172 472.985 233.001 473.031 232.781 473.077C232.561 473.128 232.282 473.153 231.944 473.153C231.432 473.153 230.931 473.043 230.44 472.823C229.954 472.604 229.55 472.268 229.227 471.818C228.91 471.368 228.752 470.8 228.752 470.115V458.389ZM246.671 473.246C245.566 473.246 244.614 472.985 243.816 472.463C243.018 471.941 242.404 471.222 241.974 470.306C241.544 469.391 241.329 468.344 241.329 467.168C241.329 465.971 241.549 464.914 241.989 463.998C242.435 463.077 243.054 462.359 243.847 461.842C244.645 461.32 245.576 461.059 246.64 461.059C247.469 461.059 248.216 461.213 248.881 461.52C249.546 461.827 250.091 462.256 250.515 462.809C250.94 463.361 251.203 464.006 251.306 464.743H249.495C249.357 464.205 249.05 463.73 248.574 463.315C248.103 462.896 247.469 462.686 246.671 462.686C245.965 462.686 245.346 462.87 244.814 463.239C244.287 463.602 243.875 464.116 243.578 464.781C243.286 465.441 243.141 466.216 243.141 467.106C243.141 468.017 243.284 468.81 243.57 469.485C243.862 470.161 244.271 470.685 244.798 471.058C245.33 471.432 245.954 471.619 246.671 471.619C247.141 471.619 247.569 471.537 247.952 471.373C248.336 471.209 248.661 470.974 248.927 470.667C249.193 470.36 249.382 469.992 249.495 469.562H251.306C251.203 470.258 250.95 470.885 250.546 471.442C250.147 471.995 249.618 472.435 248.958 472.762C248.303 473.084 247.54 473.246 246.671 473.246ZM257.422 473.276C256.675 473.276 255.997 473.136 255.388 472.854C254.78 472.568 254.296 472.156 253.938 471.619C253.58 471.076 253.401 470.422 253.401 469.654C253.401 468.979 253.534 468.431 253.8 468.012C254.066 467.587 254.421 467.255 254.867 467.014C255.312 466.774 255.803 466.595 256.34 466.477C256.882 466.354 257.427 466.257 257.975 466.185C258.691 466.093 259.272 466.024 259.717 465.978C260.167 465.927 260.494 465.843 260.699 465.725C260.909 465.607 261.014 465.403 261.014 465.111V465.05C261.014 464.292 260.806 463.704 260.392 463.285C259.983 462.865 259.361 462.655 258.527 462.655C257.663 462.655 256.985 462.845 256.493 463.223C256.002 463.602 255.657 464.006 255.457 464.436L253.738 463.822C254.045 463.106 254.455 462.548 254.966 462.149C255.483 461.745 256.046 461.463 256.655 461.305C257.269 461.141 257.872 461.059 258.466 461.059C258.844 461.059 259.279 461.105 259.77 461.197C260.267 461.284 260.745 461.466 261.205 461.742C261.671 462.018 262.057 462.435 262.364 462.993C262.671 463.551 262.825 464.298 262.825 465.234V473H261.014V471.404H260.921C260.799 471.66 260.594 471.933 260.308 472.225C260.021 472.517 259.64 472.765 259.164 472.969C258.688 473.174 258.108 473.276 257.422 473.276ZM257.698 471.649C258.415 471.649 259.018 471.509 259.509 471.227C260.006 470.946 260.379 470.583 260.63 470.138C260.886 469.692 261.014 469.224 261.014 468.733V467.076C260.937 467.168 260.768 467.252 260.507 467.329C260.251 467.4 259.954 467.464 259.617 467.521C259.284 467.572 258.959 467.618 258.642 467.659C258.33 467.695 258.077 467.725 257.882 467.751C257.412 467.812 256.972 467.912 256.563 468.05C256.158 468.183 255.831 468.385 255.58 468.656C255.335 468.923 255.212 469.286 255.212 469.746C255.212 470.375 255.445 470.851 255.91 471.174C256.381 471.491 256.977 471.649 257.698 471.649ZM266.13 473V461.213H267.88V462.993H268.003C268.218 462.41 268.606 461.937 269.169 461.573C269.732 461.21 270.366 461.028 271.072 461.028C271.205 461.028 271.372 461.031 271.571 461.036C271.771 461.041 271.922 461.049 272.024 461.059V462.901C271.963 462.886 271.822 462.863 271.602 462.832C271.387 462.796 271.159 462.778 270.919 462.778C270.346 462.778 269.834 462.898 269.384 463.139C268.939 463.374 268.586 463.702 268.325 464.121C268.069 464.535 267.941 465.009 267.941 465.541V473H266.13ZM278.263 473.246C277.281 473.246 276.413 472.997 275.661 472.501C274.909 472 274.321 471.294 273.896 470.383C273.472 469.467 273.259 468.385 273.259 467.137C273.259 465.899 273.472 464.825 273.896 463.914C274.321 463.003 274.912 462.3 275.669 461.804C276.426 461.307 277.301 461.059 278.294 461.059C279.061 461.059 279.667 461.187 280.112 461.443C280.563 461.694 280.905 461.98 281.141 462.302C281.381 462.62 281.568 462.88 281.701 463.085H281.854V457.283H283.666V473H281.916V471.189H281.701C281.568 471.404 281.379 471.675 281.133 472.002C280.887 472.325 280.537 472.614 280.082 472.87C279.626 473.12 279.02 473.246 278.263 473.246ZM278.509 471.619C279.235 471.619 279.849 471.429 280.35 471.051C280.852 470.667 281.233 470.138 281.494 469.462C281.755 468.782 281.885 467.996 281.885 467.106C281.885 466.226 281.757 465.456 281.501 464.796C281.246 464.131 280.867 463.615 280.366 463.246C279.864 462.873 279.245 462.686 278.509 462.686C277.741 462.686 277.102 462.883 276.59 463.277C276.084 463.666 275.702 464.195 275.447 464.865C275.196 465.531 275.071 466.278 275.071 467.106C275.071 467.945 275.198 468.708 275.454 469.393C275.715 470.074 276.099 470.616 276.605 471.02C277.117 471.419 277.751 471.619 278.509 471.619ZM295.123 465.909V473H293.312V461.213H295.062V463.054H295.215C295.491 462.456 295.911 461.975 296.474 461.612C297.036 461.243 297.763 461.059 298.653 461.059C299.451 461.059 300.149 461.223 300.748 461.55C301.347 461.873 301.812 462.364 302.145 463.024C302.477 463.679 302.644 464.507 302.644 465.51V473H300.832V465.633C300.832 464.707 300.592 463.986 300.111 463.469C299.63 462.947 298.97 462.686 298.131 462.686C297.553 462.686 297.036 462.811 296.581 463.062C296.131 463.313 295.775 463.679 295.514 464.159C295.253 464.64 295.123 465.224 295.123 465.909ZM313.381 468.181V461.213H315.193V473H313.381V471.005H313.259C312.982 471.603 312.553 472.112 311.969 472.532C311.386 472.946 310.649 473.153 309.759 473.153C309.023 473.153 308.368 472.992 307.795 472.67C307.222 472.343 306.772 471.851 306.444 471.197C306.117 470.537 305.953 469.705 305.953 468.703V461.213H307.764V468.58C307.764 469.439 308.004 470.125 308.485 470.636C308.971 471.148 309.59 471.404 310.343 471.404C310.793 471.404 311.251 471.289 311.716 471.058C312.187 470.828 312.581 470.475 312.898 469.999C313.22 469.524 313.381 468.917 313.381 468.181ZM318.51 473V461.213H320.259V463.054H320.413C320.658 462.425 321.055 461.937 321.602 461.589C322.15 461.236 322.807 461.059 323.575 461.059C324.352 461.059 324.999 461.236 325.516 461.589C326.038 461.937 326.445 462.425 326.736 463.054H326.859C327.161 462.446 327.614 461.962 328.217 461.604C328.821 461.241 329.545 461.059 330.389 461.059C331.443 461.059 332.305 461.389 332.975 462.049C333.646 462.704 333.981 463.725 333.981 465.111V473H332.17V465.111C332.17 464.241 331.932 463.62 331.456 463.246C330.98 462.873 330.42 462.686 329.775 462.686C328.946 462.686 328.304 462.937 327.849 463.438C327.394 463.934 327.166 464.564 327.166 465.326V473H325.324V464.927C325.324 464.257 325.107 463.717 324.672 463.308C324.237 462.893 323.677 462.686 322.991 462.686C322.521 462.686 322.081 462.811 321.671 463.062C321.267 463.313 320.94 463.661 320.689 464.106C320.444 464.546 320.321 465.055 320.321 465.633V473H318.51ZM337.538 473V457.283H339.349V463.085H339.502C339.635 462.88 339.819 462.62 340.055 462.302C340.295 461.98 340.638 461.694 341.083 461.443C341.533 461.187 342.142 461.059 342.909 461.059C343.902 461.059 344.777 461.307 345.534 461.804C346.291 462.3 346.882 463.003 347.307 463.914C347.731 464.825 347.944 465.899 347.944 467.137C347.944 468.385 347.731 469.467 347.307 470.383C346.882 471.294 346.294 472 345.542 472.501C344.79 472.997 343.922 473.246 342.94 473.246C342.183 473.246 341.577 473.12 341.121 472.87C340.666 472.614 340.316 472.325 340.07 472.002C339.824 471.675 339.635 471.404 339.502 471.189H339.287V473H337.538ZM339.318 467.106C339.318 467.996 339.448 468.782 339.709 469.462C339.97 470.138 340.351 470.667 340.853 471.051C341.354 471.429 341.968 471.619 342.695 471.619C343.452 471.619 344.084 471.419 344.59 471.02C345.102 470.616 345.485 470.074 345.741 469.393C346.002 468.708 346.133 467.945 346.133 467.106C346.133 466.278 346.005 465.531 345.749 464.865C345.498 464.195 345.117 463.666 344.605 463.277C344.099 462.883 343.462 462.686 342.695 462.686C341.958 462.686 341.339 462.873 340.837 463.246C340.336 463.615 339.957 464.131 339.702 464.796C339.446 465.456 339.318 466.226 339.318 467.106ZM355.656 473.246C354.52 473.246 353.541 472.995 352.717 472.494C351.898 471.987 351.267 471.281 350.821 470.375C350.381 469.465 350.161 468.406 350.161 467.198C350.161 465.991 350.381 464.927 350.821 464.006C351.267 463.08 351.886 462.359 352.679 461.842C353.477 461.32 354.408 461.059 355.472 461.059C356.086 461.059 356.692 461.161 357.291 461.366C357.889 461.571 358.434 461.903 358.925 462.364C359.416 462.819 359.808 463.423 360.099 464.175C360.391 464.927 360.537 465.853 360.537 466.953V467.72H351.451V466.155H358.695C358.695 465.49 358.562 464.896 358.296 464.374C358.035 463.852 357.662 463.441 357.176 463.139C356.695 462.837 356.127 462.686 355.472 462.686C354.751 462.686 354.126 462.865 353.599 463.223C353.078 463.576 352.676 464.037 352.395 464.605C352.113 465.172 351.973 465.781 351.973 466.431V467.475C351.973 468.365 352.126 469.119 352.433 469.739C352.745 470.352 353.177 470.821 353.73 471.143C354.282 471.46 354.924 471.619 355.656 471.619C356.132 471.619 356.562 471.552 356.945 471.419C357.334 471.281 357.669 471.076 357.951 470.805C358.232 470.529 358.449 470.186 358.603 469.777L360.353 470.268C360.168 470.861 359.859 471.383 359.424 471.834C358.989 472.279 358.452 472.627 357.812 472.877C357.173 473.123 356.454 473.246 355.656 473.246ZM363.292 473V461.213H365.041V462.993H365.164C365.379 462.41 365.768 461.937 366.331 461.573C366.894 461.21 367.528 461.028 368.234 461.028C368.367 461.028 368.533 461.031 368.733 461.036C368.932 461.041 369.083 461.049 369.186 461.059V462.901C369.124 462.886 368.983 462.863 368.763 462.832C368.549 462.796 368.321 462.778 368.08 462.778C367.507 462.778 366.996 462.898 366.546 463.139C366.101 463.374 365.748 463.702 365.487 464.121C365.231 464.535 365.103 465.009 365.103 465.541V473H363.292ZM379.682 463.852L378.055 464.313C377.952 464.042 377.802 463.778 377.602 463.523C377.408 463.262 377.142 463.047 376.804 462.878C376.466 462.709 376.034 462.625 375.507 462.625C374.786 462.625 374.185 462.791 373.704 463.123C373.228 463.451 372.99 463.868 372.99 464.374C372.99 464.825 373.154 465.18 373.481 465.441C373.808 465.702 374.32 465.919 375.016 466.093L376.766 466.523C377.819 466.779 378.605 467.17 379.122 467.697C379.638 468.219 379.897 468.892 379.897 469.715C379.897 470.391 379.702 470.995 379.313 471.527C378.93 472.059 378.392 472.478 377.702 472.785C377.011 473.092 376.208 473.246 375.292 473.246C374.09 473.246 373.095 472.985 372.307 472.463C371.519 471.941 371.02 471.179 370.81 470.176L372.529 469.746C372.693 470.381 373.003 470.856 373.458 471.174C373.918 471.491 374.52 471.649 375.261 471.649C376.106 471.649 376.776 471.47 377.272 471.112C377.773 470.749 378.024 470.314 378.024 469.808C378.024 469.398 377.881 469.056 377.594 468.779C377.308 468.498 376.868 468.288 376.274 468.15L374.31 467.69C373.23 467.434 372.437 467.037 371.931 466.5C371.43 465.958 371.179 465.28 371.179 464.466C371.179 463.801 371.366 463.213 371.739 462.701C372.118 462.19 372.632 461.788 373.282 461.497C373.936 461.205 374.678 461.059 375.507 461.059C376.673 461.059 377.589 461.315 378.254 461.827C378.925 462.338 379.4 463.013 379.682 463.852Z" fill="#6D6D6E"/>
<rect x="134" y="456.531" width="16.9195" height="16.9195" rx="3.07628" fill="#C689FF"/>
<path d="M437.938 473.215C436.925 473.215 436.022 473.041 435.229 472.693C434.441 472.345 433.814 471.862 433.349 471.243C432.888 470.618 432.637 469.895 432.596 469.071H434.53C434.571 469.577 434.745 470.015 435.052 470.383C435.359 470.746 435.761 471.028 436.257 471.227C436.753 471.427 437.303 471.527 437.907 471.527C438.582 471.527 439.181 471.409 439.703 471.174C440.224 470.938 440.634 470.611 440.931 470.191C441.227 469.772 441.376 469.286 441.376 468.733C441.376 468.155 441.232 467.646 440.946 467.206C440.659 466.761 440.24 466.413 439.687 466.162C439.135 465.912 438.459 465.786 437.661 465.786H436.403V464.098H437.661C438.286 464.098 438.833 463.986 439.304 463.76C439.779 463.535 440.15 463.218 440.416 462.809C440.687 462.4 440.823 461.919 440.823 461.366C440.823 460.834 440.705 460.371 440.47 459.977C440.235 459.583 439.902 459.276 439.472 459.056C439.048 458.836 438.546 458.726 437.968 458.726C437.426 458.726 436.914 458.826 436.433 459.025C435.958 459.22 435.569 459.504 435.267 459.877C434.965 460.246 434.801 460.691 434.776 461.213H432.934C432.965 460.389 433.213 459.668 433.678 459.049C434.144 458.424 434.753 457.938 435.505 457.59C436.262 457.243 437.093 457.069 437.999 457.069C438.971 457.069 439.805 457.266 440.501 457.66C441.197 458.048 441.731 458.562 442.105 459.202C442.478 459.842 442.665 460.532 442.665 461.274C442.665 462.159 442.432 462.914 441.967 463.538C441.506 464.162 440.879 464.594 440.086 464.835V464.958C441.079 465.121 441.854 465.543 442.412 466.224C442.969 466.899 443.248 467.736 443.248 468.733C443.248 469.588 443.015 470.355 442.55 471.035C442.089 471.711 441.46 472.243 440.662 472.632C439.864 473.02 438.956 473.215 437.938 473.215ZM447.768 461.213L450.592 466.032L453.416 461.213H455.504L451.697 467.106L455.504 473H453.416L450.592 468.426L447.768 473H445.681L449.426 467.106L445.681 461.213H447.768Z" fill="#6D6D6E"/>
<path d="M173.667 526V510.283H179.162C180.257 510.283 181.16 510.473 181.871 510.851C182.582 511.225 183.111 511.729 183.459 512.363C183.807 512.992 183.981 513.691 183.981 514.458C183.981 515.133 183.861 515.691 183.62 516.131C183.385 516.571 183.073 516.919 182.684 517.175C182.3 517.431 181.883 517.62 181.433 517.743V517.896C181.914 517.927 182.398 518.096 182.884 518.403C183.37 518.71 183.776 519.15 184.104 519.723C184.431 520.296 184.595 520.996 184.595 521.825C184.595 522.613 184.416 523.322 184.058 523.951C183.7 524.58 183.134 525.079 182.362 525.447C181.589 525.816 180.584 526 179.346 526H173.667ZM175.57 524.312H179.346C180.589 524.312 181.472 524.071 181.993 523.59C182.52 523.104 182.784 522.516 182.784 521.825C182.784 521.293 182.648 520.802 182.377 520.352C182.106 519.897 181.72 519.533 181.218 519.262C180.717 518.986 180.124 518.848 179.438 518.848H175.57V524.312ZM175.57 517.19H179.1C179.673 517.19 180.19 517.078 180.651 516.852C181.116 516.627 181.484 516.31 181.756 515.901C182.032 515.492 182.17 515.011 182.17 514.458C182.17 513.768 181.93 513.182 181.449 512.701C180.968 512.215 180.205 511.972 179.162 511.972H175.57V517.19ZM190.945 526.276C190.198 526.276 189.52 526.136 188.912 525.854C188.303 525.568 187.819 525.156 187.461 524.619C187.103 524.076 186.924 523.422 186.924 522.654C186.924 521.979 187.057 521.431 187.323 521.012C187.589 520.587 187.945 520.255 188.39 520.014C188.835 519.774 189.326 519.595 189.863 519.477C190.406 519.354 190.95 519.257 191.498 519.185C192.214 519.093 192.795 519.024 193.24 518.978C193.69 518.927 194.017 518.843 194.222 518.725C194.432 518.607 194.537 518.403 194.537 518.111V518.05C194.537 517.292 194.33 516.704 193.915 516.285C193.506 515.865 192.884 515.655 192.05 515.655C191.186 515.655 190.508 515.845 190.017 516.223C189.526 516.602 189.18 517.006 188.981 517.436L187.262 516.822C187.569 516.106 187.978 515.548 188.49 515.149C189.006 514.745 189.569 514.463 190.178 514.305C190.792 514.141 191.396 514.059 191.989 514.059C192.368 514.059 192.802 514.105 193.294 514.197C193.79 514.284 194.268 514.466 194.729 514.742C195.194 515.018 195.58 515.435 195.887 515.993C196.194 516.551 196.348 517.298 196.348 518.234V526H194.537V524.404H194.445C194.322 524.66 194.117 524.933 193.831 525.225C193.544 525.517 193.163 525.765 192.687 525.969C192.212 526.174 191.631 526.276 190.945 526.276ZM191.222 524.649C191.938 524.649 192.542 524.509 193.033 524.227C193.529 523.946 193.902 523.583 194.153 523.138C194.409 522.692 194.537 522.224 194.537 521.733V520.076C194.46 520.168 194.291 520.252 194.03 520.329C193.774 520.4 193.478 520.464 193.14 520.521C192.808 520.572 192.483 520.618 192.165 520.659C191.853 520.695 191.6 520.725 191.406 520.751C190.935 520.812 190.495 520.912 190.086 521.05C189.682 521.183 189.354 521.385 189.104 521.656C188.858 521.923 188.735 522.286 188.735 522.746C188.735 523.375 188.968 523.851 189.433 524.174C189.904 524.491 190.5 524.649 191.222 524.649ZM201.465 518.909V526H199.653V514.213H201.403V516.054H201.557C201.833 515.456 202.252 514.975 202.815 514.612C203.378 514.243 204.104 514.059 204.995 514.059C205.793 514.059 206.491 514.223 207.09 514.55C207.688 514.873 208.154 515.364 208.486 516.024C208.819 516.679 208.985 517.507 208.985 518.51V526H207.174V518.633C207.174 517.707 206.934 516.986 206.453 516.469C205.972 515.947 205.312 515.686 204.473 515.686C203.895 515.686 203.378 515.811 202.923 516.062C202.472 516.313 202.117 516.679 201.856 517.159C201.595 517.64 201.465 518.224 201.465 518.909ZM213.983 521.703L213.952 519.462H214.321L219.478 514.213H221.718L216.224 519.769H216.07L213.983 521.703ZM212.295 526V510.283H214.106V526H212.295ZM219.784 526L215.18 520.168L216.469 518.909L222.087 526H219.784ZM233.596 526.276C232.849 526.276 232.171 526.136 231.562 525.854C230.953 525.568 230.47 525.156 230.112 524.619C229.754 524.076 229.575 523.422 229.575 522.654C229.575 521.979 229.708 521.431 229.974 521.012C230.24 520.587 230.595 520.255 231.04 520.014C231.486 519.774 231.977 519.595 232.514 519.477C233.056 519.354 233.601 519.257 234.148 519.185C234.865 519.093 235.445 519.024 235.89 518.978C236.341 518.927 236.668 518.843 236.873 518.725C237.083 518.607 237.187 518.403 237.187 518.111V518.05C237.187 517.292 236.98 516.704 236.566 516.285C236.157 515.865 235.535 515.655 234.701 515.655C233.836 515.655 233.159 515.845 232.667 516.223C232.176 516.602 231.831 517.006 231.631 517.436L229.912 516.822C230.219 516.106 230.629 515.548 231.14 515.149C231.657 514.745 232.22 514.463 232.829 514.305C233.442 514.141 234.046 514.059 234.64 514.059C235.018 514.059 235.453 514.105 235.944 514.197C236.44 514.284 236.919 514.466 237.379 514.742C237.845 515.018 238.231 515.435 238.538 515.993C238.845 516.551 238.998 517.298 238.998 518.234V526H237.187V524.404H237.095C236.973 524.66 236.768 524.933 236.481 525.225C236.195 525.517 235.814 525.765 235.338 525.969C234.862 526.174 234.281 526.276 233.596 526.276ZM233.872 524.649C234.588 524.649 235.192 524.509 235.683 524.227C236.18 523.946 236.553 523.583 236.804 523.138C237.06 522.692 237.187 522.224 237.187 521.733V520.076C237.111 520.168 236.942 520.252 236.681 520.329C236.425 520.4 236.128 520.464 235.791 520.521C235.458 520.572 235.133 520.618 234.816 520.659C234.504 520.695 234.251 520.725 234.056 520.751C233.586 520.812 233.146 520.912 232.736 521.05C232.332 521.183 232.005 521.385 231.754 521.656C231.509 521.923 231.386 522.286 231.386 522.746C231.386 523.375 231.619 523.851 232.084 524.174C232.555 524.491 233.151 524.649 233.872 524.649ZM247.093 526.246C245.988 526.246 245.036 525.985 244.238 525.463C243.44 524.941 242.826 524.222 242.396 523.306C241.966 522.391 241.752 521.344 241.752 520.168C241.752 518.971 241.972 517.914 242.412 516.998C242.857 516.077 243.476 515.359 244.269 514.842C245.067 514.32 245.998 514.059 247.062 514.059C247.891 514.059 248.638 514.213 249.303 514.52C249.968 514.827 250.513 515.256 250.937 515.809C251.362 516.361 251.626 517.006 251.728 517.743H249.917C249.779 517.205 249.472 516.73 248.996 516.315C248.525 515.896 247.891 515.686 247.093 515.686C246.387 515.686 245.768 515.87 245.236 516.239C244.709 516.602 244.297 517.116 244 517.781C243.708 518.441 243.563 519.216 243.563 520.106C243.563 521.017 243.706 521.81 243.992 522.485C244.284 523.161 244.693 523.685 245.22 524.058C245.752 524.432 246.376 524.619 247.093 524.619C247.563 524.619 247.991 524.537 248.374 524.373C248.758 524.209 249.083 523.974 249.349 523.667C249.615 523.36 249.804 522.992 249.917 522.562H251.728C251.626 523.258 251.372 523.885 250.968 524.442C250.569 524.995 250.04 525.435 249.38 525.762C248.725 526.084 247.962 526.246 247.093 526.246ZM259.164 526.246C258.059 526.246 257.107 525.985 256.309 525.463C255.511 524.941 254.897 524.222 254.468 523.306C254.038 522.391 253.823 521.344 253.823 520.168C253.823 518.971 254.043 517.914 254.483 516.998C254.928 516.077 255.547 515.359 256.34 514.842C257.138 514.32 258.069 514.059 259.133 514.059C259.962 514.059 260.709 514.213 261.374 514.52C262.039 514.827 262.584 515.256 263.009 515.809C263.433 516.361 263.697 517.006 263.799 517.743H261.988C261.85 517.205 261.543 516.73 261.067 516.315C260.597 515.896 259.962 515.686 259.164 515.686C258.458 515.686 257.839 515.87 257.307 516.239C256.78 516.602 256.368 517.116 256.071 517.781C255.78 518.441 255.634 519.216 255.634 520.106C255.634 521.017 255.777 521.81 256.064 522.485C256.355 523.161 256.765 523.685 257.292 524.058C257.824 524.432 258.448 524.619 259.164 524.619C259.635 524.619 260.062 524.537 260.446 524.373C260.829 524.209 261.154 523.974 261.42 523.667C261.686 523.36 261.876 522.992 261.988 522.562H263.799C263.697 523.258 263.444 523.885 263.039 524.442C262.64 524.995 262.111 525.435 261.451 525.762C260.796 526.084 260.034 526.246 259.164 526.246ZM271.235 526.246C270.171 526.246 269.238 525.992 268.434 525.486C267.636 524.979 267.012 524.271 266.562 523.36C266.117 522.449 265.894 521.385 265.894 520.168C265.894 518.94 266.117 517.868 266.562 516.952C267.012 516.036 267.636 515.325 268.434 514.819C269.238 514.312 270.171 514.059 271.235 514.059C272.3 514.059 273.231 514.312 274.029 514.819C274.832 515.325 275.456 516.036 275.901 516.952C276.351 517.868 276.577 518.94 276.577 520.168C276.577 521.385 276.351 522.449 275.901 523.36C275.456 524.271 274.832 524.979 274.029 525.486C273.231 525.992 272.3 526.246 271.235 526.246ZM271.235 524.619C272.044 524.619 272.709 524.411 273.231 523.997C273.753 523.583 274.139 523.038 274.389 522.362C274.64 521.687 274.765 520.956 274.765 520.168C274.765 519.38 274.64 518.646 274.389 517.965C274.139 517.285 273.753 516.735 273.231 516.315C272.709 515.896 272.044 515.686 271.235 515.686C270.427 515.686 269.762 515.896 269.24 516.315C268.718 516.735 268.332 517.285 268.081 517.965C267.831 518.646 267.705 519.38 267.705 520.168C267.705 520.956 267.831 521.687 268.081 522.362C268.332 523.038 268.718 523.583 269.24 523.997C269.762 524.411 270.427 524.619 271.235 524.619ZM286.77 521.181V514.213H288.581V526H286.77V524.005H286.647C286.371 524.603 285.941 525.112 285.358 525.532C284.774 525.946 284.038 526.153 283.147 526.153C282.411 526.153 281.756 525.992 281.183 525.67C280.61 525.343 280.16 524.851 279.832 524.197C279.505 523.537 279.341 522.705 279.341 521.703V514.213H281.152V521.58C281.152 522.439 281.393 523.125 281.874 523.636C282.36 524.148 282.979 524.404 283.731 524.404C284.181 524.404 284.639 524.289 285.104 524.058C285.575 523.828 285.969 523.475 286.286 522.999C286.609 522.524 286.77 521.917 286.77 521.181ZM293.709 518.909V526H291.898V514.213H293.648V516.054H293.801C294.077 515.456 294.497 514.975 295.06 514.612C295.622 514.243 296.349 514.059 297.239 514.059C298.037 514.059 298.735 514.223 299.334 514.55C299.933 514.873 300.398 515.364 300.731 516.024C301.063 516.679 301.23 517.507 301.23 518.51V526H299.418V518.633C299.418 517.707 299.178 516.986 298.697 516.469C298.216 515.947 297.556 515.686 296.717 515.686C296.139 515.686 295.622 515.811 295.167 516.062C294.717 516.313 294.361 516.679 294.1 517.159C293.839 517.64 293.709 518.224 293.709 518.909ZM309.665 514.213V515.747H303.557V514.213H309.665ZM305.337 511.389H307.148V522.623C307.148 523.135 307.222 523.519 307.371 523.775C307.524 524.025 307.719 524.194 307.954 524.281C308.194 524.363 308.448 524.404 308.714 524.404C308.913 524.404 309.077 524.394 309.205 524.373C309.333 524.348 309.435 524.327 309.512 524.312L309.88 525.939C309.757 525.985 309.586 526.031 309.366 526.077C309.146 526.128 308.867 526.153 308.53 526.153C308.018 526.153 307.517 526.043 307.025 525.823C306.539 525.604 306.135 525.268 305.813 524.818C305.496 524.368 305.337 523.8 305.337 523.115V511.389Z" fill="#6D6D6E"/>
<rect x="134" y="509.531" width="16.9195" height="16.9195" rx="3.07628" fill="#AB71FF"/>
<path d="M433.627 526V524.619L438.815 518.94C439.424 518.275 439.925 517.697 440.319 517.205C440.713 516.709 441.005 516.244 441.194 515.809C441.388 515.369 441.485 514.908 441.485 514.427C441.485 513.875 441.352 513.397 441.086 512.992C440.825 512.588 440.467 512.276 440.012 512.056C439.557 511.836 439.045 511.726 438.477 511.726C437.873 511.726 437.347 511.852 436.896 512.102C436.451 512.348 436.106 512.693 435.86 513.138C435.62 513.583 435.5 514.105 435.5 514.704H433.689C433.689 513.783 433.901 512.975 434.325 512.279C434.75 511.583 435.328 511.041 436.06 510.652C436.797 510.263 437.623 510.069 438.539 510.069C439.459 510.069 440.275 510.263 440.987 510.652C441.698 511.041 442.255 511.565 442.66 512.225C443.064 512.885 443.266 513.619 443.266 514.427C443.266 515.006 443.161 515.571 442.951 516.123C442.747 516.671 442.388 517.282 441.877 517.958C441.37 518.628 440.667 519.446 439.766 520.413L436.236 524.189V524.312H443.542V526H433.627ZM448.093 514.213L450.917 519.032L453.741 514.213H455.828L452.022 520.106L455.828 526H453.741L450.917 521.426L448.093 526H446.005L449.75 520.106L446.005 514.213H448.093Z" fill="#6D6D6E"/>
<path d="M186.928 571.142C186.928 572.799 186.629 574.232 186.03 575.439C185.432 576.647 184.611 577.578 183.567 578.233C182.523 578.887 181.331 579.215 179.991 579.215C178.65 579.215 177.458 578.887 176.415 578.233C175.371 577.578 174.55 576.647 173.951 575.439C173.353 574.232 173.053 572.799 173.053 571.142C173.053 569.484 173.353 568.052 173.951 566.844C174.55 565.637 175.371 564.706 176.415 564.051C177.458 563.396 178.65 563.069 179.991 563.069C181.331 563.069 182.523 563.396 183.567 564.051C184.611 564.706 185.432 565.637 186.03 566.844C186.629 568.052 186.928 569.484 186.928 571.142ZM185.086 571.142C185.086 569.781 184.859 568.632 184.403 567.696C183.953 566.76 183.342 566.051 182.569 565.57C181.802 565.089 180.942 564.849 179.991 564.849C179.039 564.849 178.177 565.089 177.405 565.57C176.637 566.051 176.026 566.76 175.571 567.696C175.12 568.632 174.895 569.781 174.895 571.142C174.895 572.503 175.12 573.651 175.571 574.587C176.026 575.524 176.637 576.232 177.405 576.713C178.177 577.194 179.039 577.434 179.991 577.434C180.942 577.434 181.802 577.194 182.569 576.713C183.342 576.232 183.953 575.524 184.403 574.587C184.859 573.651 185.086 572.503 185.086 571.142ZM195.009 567.213V568.747H188.9V567.213H195.009ZM190.681 564.389H192.492V575.623C192.492 576.135 192.566 576.519 192.714 576.775C192.868 577.025 193.062 577.194 193.298 577.281C193.538 577.363 193.791 577.404 194.057 577.404C194.257 577.404 194.421 577.394 194.549 577.373C194.676 577.348 194.779 577.327 194.855 577.312L195.224 578.939C195.101 578.985 194.93 579.031 194.71 579.077C194.49 579.128 194.211 579.153 193.873 579.153C193.362 579.153 192.86 579.043 192.369 578.823C191.883 578.604 191.479 578.268 191.157 577.818C190.839 577.368 190.681 576.8 190.681 576.115V564.389ZM199.798 571.909V579H197.987V563.283H199.798V569.054H199.951C200.227 568.446 200.642 567.962 201.194 567.604C201.752 567.241 202.494 567.059 203.42 567.059C204.223 567.059 204.926 567.22 205.53 567.543C206.134 567.86 206.602 568.348 206.934 569.008C207.272 569.663 207.441 570.497 207.441 571.51V579H205.63V571.633C205.63 570.697 205.387 569.973 204.901 569.461C204.42 568.944 203.752 568.686 202.898 568.686C202.304 568.686 201.772 568.811 201.302 569.062C200.836 569.313 200.468 569.679 200.197 570.159C199.931 570.64 199.798 571.224 199.798 571.909ZM215.696 579.246C214.561 579.246 213.581 578.995 212.757 578.494C211.939 577.987 211.307 577.281 210.862 576.375C210.422 575.465 210.202 574.406 210.202 573.198C210.202 571.991 210.422 570.927 210.862 570.006C211.307 569.08 211.926 568.359 212.719 567.842C213.517 567.32 214.448 567.059 215.512 567.059C216.126 567.059 216.732 567.161 217.331 567.366C217.93 567.571 218.474 567.903 218.966 568.364C219.457 568.819 219.848 569.423 220.14 570.175C220.431 570.927 220.577 571.853 220.577 572.953V573.72H211.491V572.155H218.735C218.735 571.49 218.602 570.896 218.336 570.374C218.075 569.852 217.702 569.441 217.216 569.139C216.735 568.837 216.167 568.686 215.512 568.686C214.791 568.686 214.167 568.865 213.64 569.223C213.118 569.576 212.716 570.037 212.435 570.605C212.154 571.172 212.013 571.781 212.013 572.431V573.475C212.013 574.365 212.166 575.119 212.473 575.739C212.785 576.352 213.218 576.821 213.77 577.143C214.323 577.46 214.965 577.619 215.696 577.619C216.172 577.619 216.602 577.552 216.986 577.419C217.374 577.281 217.71 577.076 217.991 576.805C218.272 576.529 218.49 576.186 218.643 575.777L220.393 576.268C220.209 576.861 219.899 577.383 219.464 577.834C219.029 578.279 218.492 578.627 217.853 578.877C217.213 579.123 216.494 579.246 215.696 579.246ZM223.332 579V567.213H225.082V568.993H225.205C225.419 568.41 225.808 567.937 226.371 567.573C226.934 567.21 227.568 567.028 228.274 567.028C228.407 567.028 228.573 567.031 228.773 567.036C228.973 567.041 229.123 567.049 229.226 567.059V568.901C229.164 568.886 229.024 568.863 228.804 568.832C228.589 568.796 228.361 568.778 228.121 568.778C227.548 568.778 227.036 568.898 226.586 569.139C226.141 569.374 225.788 569.702 225.527 570.121C225.271 570.535 225.143 571.009 225.143 571.541V579H223.332Z" fill="#6D6D6E"/>
<rect x="134" y="562.531" width="16.9195" height="16.9195" rx="3.07628" fill="#45278D"/>
<path d="M442.153 563.283V579H440.25V565.279H440.157L436.32 567.827V565.893L440.25 563.283H442.153ZM448.054 567.213L450.878 572.032L453.702 567.213H455.79L451.983 573.106L455.79 579H453.702L450.878 574.426L448.054 579H445.967L449.712 573.106L445.967 567.213H448.054Z" fill="#6D6D6E"/>
<path d="M173.667 366V350.283H183.152V351.972H175.57V357.282H182.661V358.971H175.57V364.312H183.275V366H173.667ZM186.337 366V354.213H188.087V356.054H188.24C188.486 355.425 188.882 354.937 189.43 354.589C189.977 354.236 190.634 354.059 191.402 354.059C192.18 354.059 192.827 354.236 193.343 354.589C193.865 354.937 194.272 355.425 194.564 356.054H194.686C194.988 355.446 195.441 354.962 196.045 354.604C196.648 354.241 197.372 354.059 198.216 354.059C199.27 354.059 200.132 354.389 200.803 355.049C201.473 355.704 201.808 356.725 201.808 358.111V366H199.997V358.111C199.997 357.241 199.759 356.62 199.283 356.246C198.807 355.873 198.247 355.686 197.603 355.686C196.774 355.686 196.132 355.937 195.676 356.438C195.221 356.934 194.993 357.564 194.993 358.326V366H193.152V357.927C193.152 357.257 192.934 356.717 192.499 356.308C192.064 355.893 191.504 355.686 190.819 355.686C190.348 355.686 189.908 355.811 189.499 356.062C189.095 356.313 188.767 356.661 188.516 357.106C188.271 357.546 188.148 358.055 188.148 358.633V366H186.337ZM208.588 366.276C207.841 366.276 207.163 366.136 206.554 365.854C205.946 365.568 205.462 365.156 205.104 364.619C204.746 364.076 204.567 363.422 204.567 362.654C204.567 361.979 204.7 361.431 204.966 361.012C205.232 360.587 205.587 360.255 206.033 360.014C206.478 359.774 206.969 359.595 207.506 359.477C208.048 359.354 208.593 359.257 209.141 359.185C209.857 359.093 210.437 359.024 210.883 358.978C211.333 358.927 211.66 358.843 211.865 358.725C212.075 358.607 212.179 358.403 212.179 358.111V358.05C212.179 357.292 211.972 356.704 211.558 356.285C211.149 355.865 210.527 355.655 209.693 355.655C208.828 355.655 208.151 355.845 207.659 356.223C207.168 356.602 206.823 357.006 206.623 357.436L204.904 356.822C205.211 356.106 205.621 355.548 206.132 355.149C206.649 354.745 207.212 354.463 207.821 354.305C208.435 354.141 209.038 354.059 209.632 354.059C210.01 354.059 210.445 354.105 210.936 354.197C211.433 354.284 211.911 354.466 212.371 354.742C212.837 355.018 213.223 355.435 213.53 355.993C213.837 356.551 213.991 357.298 213.991 358.234V366H212.179V364.404H212.087C211.965 364.66 211.76 364.933 211.473 365.225C211.187 365.517 210.806 365.765 210.33 365.969C209.854 366.174 209.274 366.276 208.588 366.276ZM208.864 364.649C209.581 364.649 210.184 364.509 210.675 364.227C211.172 363.946 211.545 363.583 211.796 363.138C212.052 362.692 212.179 362.224 212.179 361.733V360.076C212.103 360.168 211.934 360.252 211.673 360.329C211.417 360.4 211.12 360.464 210.783 360.521C210.45 360.572 210.125 360.618 209.808 360.659C209.496 360.695 209.243 360.725 209.048 360.751C208.578 360.812 208.138 360.912 207.729 361.05C207.324 361.183 206.997 361.385 206.746 361.656C206.501 361.923 206.378 362.286 206.378 362.746C206.378 363.375 206.611 363.851 207.076 364.174C207.547 364.491 208.143 364.649 208.864 364.649ZM217.296 366V354.213H219.107V366H217.296ZM218.217 352.248C217.864 352.248 217.56 352.128 217.304 351.887C217.053 351.647 216.928 351.358 216.928 351.02C216.928 350.683 217.053 350.393 217.304 350.153C217.56 349.913 217.864 349.792 218.217 349.792C218.57 349.792 218.872 349.913 219.123 350.153C219.378 350.393 219.506 350.683 219.506 351.02C219.506 351.358 219.378 351.647 219.123 351.887C218.872 352.128 218.57 352.248 218.217 352.248ZM224.235 350.283V366H222.424V350.283H224.235ZM237.099 366.276C236.352 366.276 235.674 366.136 235.066 365.854C234.457 365.568 233.973 365.156 233.615 364.619C233.257 364.076 233.078 363.422 233.078 362.654C233.078 361.979 233.211 361.431 233.477 361.012C233.743 360.587 234.099 360.255 234.544 360.014C234.989 359.774 235.48 359.595 236.017 359.477C236.559 359.354 237.104 359.257 237.652 359.185C238.368 359.093 238.949 359.024 239.394 358.978C239.844 358.927 240.171 358.843 240.376 358.725C240.586 358.607 240.691 358.403 240.691 358.111V358.05C240.691 357.292 240.483 356.704 240.069 356.285C239.66 355.865 239.038 355.655 238.204 355.655C237.34 355.655 236.662 355.845 236.171 356.223C235.679 356.602 235.334 357.006 235.135 357.436L233.416 356.822C233.723 356.106 234.132 355.548 234.643 355.149C235.16 354.745 235.723 354.463 236.332 354.305C236.946 354.141 237.549 354.059 238.143 354.059C238.521 354.059 238.956 354.105 239.447 354.197C239.944 354.284 240.422 354.466 240.882 354.742C241.348 355.018 241.734 355.435 242.041 355.993C242.348 356.551 242.502 357.298 242.502 358.234V366H240.691V364.404H240.599C240.476 364.66 240.271 364.933 239.985 365.225C239.698 365.517 239.317 365.765 238.841 365.969C238.365 366.174 237.785 366.276 237.099 366.276ZM237.375 364.649C238.092 364.649 238.695 364.509 239.187 364.227C239.683 363.946 240.056 363.583 240.307 363.138C240.563 362.692 240.691 362.224 240.691 361.733V360.076C240.614 360.168 240.445 360.252 240.184 360.329C239.928 360.4 239.632 360.464 239.294 360.521C238.961 360.572 238.637 360.618 238.319 360.659C238.007 360.695 237.754 360.725 237.56 360.751C237.089 360.812 236.649 360.912 236.24 361.05C235.835 361.183 235.508 361.385 235.257 361.656C235.012 361.923 234.889 362.286 234.889 362.746C234.889 363.375 235.122 363.851 235.587 364.174C236.058 364.491 236.654 364.649 237.375 364.649ZM250.258 366.246C249.276 366.246 248.409 365.997 247.657 365.501C246.905 365 246.316 364.294 245.892 363.383C245.467 362.467 245.255 361.385 245.255 360.137C245.255 358.899 245.467 357.825 245.892 356.914C246.316 356.003 246.907 355.3 247.664 354.804C248.422 354.307 249.296 354.059 250.289 354.059C251.056 354.059 251.663 354.187 252.108 354.443C252.558 354.694 252.901 354.98 253.136 355.302C253.377 355.62 253.563 355.88 253.696 356.085H253.85V350.283H255.661V366H253.911V364.189H253.696C253.563 364.404 253.374 364.675 253.128 365.002C252.883 365.325 252.532 365.614 252.077 365.87C251.622 366.12 251.015 366.246 250.258 366.246ZM250.504 364.619C251.23 364.619 251.844 364.429 252.346 364.051C252.847 363.667 253.228 363.138 253.489 362.462C253.75 361.782 253.88 360.996 253.88 360.106C253.88 359.226 253.753 358.456 253.497 357.796C253.241 357.131 252.862 356.615 252.361 356.246C251.86 355.873 251.241 355.686 250.504 355.686C249.736 355.686 249.097 355.883 248.585 356.277C248.079 356.666 247.698 357.195 247.442 357.865C247.191 358.531 247.066 359.278 247.066 360.106C247.066 360.945 247.194 361.708 247.45 362.393C247.71 363.074 248.094 363.616 248.601 364.02C249.112 364.419 249.747 364.619 250.504 364.619ZM263.68 366.246C262.698 366.246 261.831 365.997 261.079 365.501C260.327 365 259.738 364.294 259.314 363.383C258.889 362.467 258.677 361.385 258.677 360.137C258.677 358.899 258.889 357.825 259.314 356.914C259.738 356.003 260.329 355.3 261.086 354.804C261.844 354.307 262.718 354.059 263.711 354.059C264.478 354.059 265.085 354.187 265.53 354.443C265.98 354.694 266.323 354.98 266.558 355.302C266.799 355.62 266.985 355.88 267.118 356.085H267.272V350.283H269.083V366H267.333V364.189H267.118C266.985 364.404 266.796 364.675 266.55 365.002C266.305 365.325 265.954 365.614 265.499 365.87C265.044 366.12 264.437 366.246 263.68 366.246ZM263.926 364.619C264.652 364.619 265.266 364.429 265.768 364.051C266.269 363.667 266.65 363.138 266.911 362.462C267.172 361.782 267.302 360.996 267.302 360.106C267.302 359.226 267.175 358.456 266.919 357.796C266.663 357.131 266.284 356.615 265.783 356.246C265.282 355.873 264.663 355.686 263.926 355.686C263.158 355.686 262.519 355.883 262.007 356.277C261.501 356.666 261.12 357.195 260.864 357.865C260.613 358.531 260.488 359.278 260.488 360.106C260.488 360.945 260.616 361.708 260.872 362.393C261.132 363.074 261.516 363.616 262.023 364.02C262.534 364.419 263.169 364.619 263.926 364.619ZM272.651 366V354.213H274.401V355.993H274.524C274.739 355.41 275.127 354.937 275.69 354.573C276.253 354.21 276.887 354.028 277.593 354.028C277.726 354.028 277.893 354.031 278.092 354.036C278.292 354.041 278.443 354.049 278.545 354.059V355.901C278.484 355.886 278.343 355.863 278.123 355.832C277.908 355.796 277.68 355.778 277.44 355.778C276.867 355.778 276.355 355.898 275.905 356.139C275.46 356.374 275.107 356.702 274.846 357.121C274.59 357.535 274.462 358.009 274.462 358.541V366H272.651ZM285.275 366.246C284.139 366.246 283.16 365.995 282.336 365.494C281.517 364.987 280.886 364.281 280.44 363.375C280 362.465 279.78 361.406 279.78 360.198C279.78 358.991 280 357.927 280.44 357.006C280.886 356.08 281.505 355.359 282.298 354.842C283.096 354.32 284.027 354.059 285.091 354.059C285.705 354.059 286.311 354.161 286.91 354.366C287.508 354.571 288.053 354.903 288.544 355.364C289.035 355.819 289.427 356.423 289.718 357.175C290.01 357.927 290.156 358.853 290.156 359.953V360.72H281.07V359.155H288.314C288.314 358.49 288.181 357.896 287.915 357.374C287.654 356.852 287.281 356.441 286.795 356.139C286.314 355.837 285.746 355.686 285.091 355.686C284.37 355.686 283.745 355.865 283.218 356.223C282.697 356.576 282.295 357.037 282.014 357.605C281.732 358.172 281.592 358.781 281.592 359.431V360.475C281.592 361.365 281.745 362.119 282.052 362.739C282.364 363.352 282.796 363.821 283.349 364.143C283.901 364.46 284.544 364.619 285.275 364.619C285.751 364.619 286.181 364.552 286.564 364.419C286.953 364.281 287.288 364.076 287.57 363.805C287.851 363.529 288.069 363.186 288.222 362.777L289.972 363.268C289.787 363.861 289.478 364.383 289.043 364.834C288.608 365.279 288.071 365.627 287.432 365.877C286.792 366.123 286.073 366.246 285.275 366.246ZM301.26 356.852L299.633 357.313C299.531 357.042 299.38 356.778 299.181 356.523C298.986 356.262 298.72 356.047 298.382 355.878C298.045 355.709 297.613 355.625 297.086 355.625C296.364 355.625 295.763 355.791 295.282 356.123C294.806 356.451 294.568 356.868 294.568 357.374C294.568 357.825 294.732 358.18 295.06 358.441C295.387 358.702 295.899 358.919 296.594 359.093L298.344 359.523C299.398 359.779 300.183 360.17 300.7 360.697C301.217 361.219 301.475 361.892 301.475 362.715C301.475 363.391 301.281 363.995 300.892 364.527C300.508 365.059 299.971 365.478 299.28 365.785C298.59 366.092 297.786 366.246 296.871 366.246C295.668 366.246 294.673 365.985 293.885 365.463C293.098 364.941 292.599 364.179 292.389 363.176L294.108 362.746C294.272 363.381 294.581 363.856 295.037 364.174C295.497 364.491 296.098 364.649 296.84 364.649C297.684 364.649 298.354 364.47 298.851 364.112C299.352 363.749 299.603 363.314 299.603 362.808C299.603 362.398 299.459 362.056 299.173 361.779C298.886 361.498 298.446 361.288 297.853 361.15L295.888 360.69C294.809 360.434 294.016 360.037 293.509 359.5C293.008 358.958 292.757 358.28 292.757 357.466C292.757 356.801 292.944 356.213 293.318 355.701C293.696 355.19 294.21 354.788 294.86 354.497C295.515 354.205 296.257 354.059 297.086 354.059C298.252 354.059 299.168 354.315 299.833 354.827C300.503 355.338 300.979 356.013 301.26 356.852ZM312.551 356.852L310.924 357.313C310.822 357.042 310.671 356.778 310.471 356.523C310.277 356.262 310.011 356.047 309.673 355.878C309.335 355.709 308.903 355.625 308.376 355.625C307.655 355.625 307.054 355.791 306.573 356.123C306.097 356.451 305.859 356.868 305.859 357.374C305.859 357.825 306.023 358.18 306.35 358.441C306.678 358.702 307.189 358.919 307.885 359.093L309.635 359.523C310.689 359.779 311.474 360.17 311.991 360.697C312.507 361.219 312.766 361.892 312.766 362.715C312.766 363.391 312.571 363.995 312.182 364.527C311.799 365.059 311.262 365.478 310.571 365.785C309.88 366.092 309.077 366.246 308.161 366.246C306.959 366.246 305.964 365.985 305.176 365.463C304.388 364.941 303.889 364.179 303.68 363.176L305.399 362.746C305.562 363.381 305.872 363.856 306.327 364.174C306.788 364.491 307.389 364.649 308.13 364.649C308.975 364.649 309.645 364.47 310.141 364.112C310.642 363.749 310.893 363.314 310.893 362.808C310.893 362.398 310.75 362.056 310.463 361.779C310.177 361.498 309.737 361.288 309.143 361.15L307.179 360.69C306.099 360.434 305.306 360.037 304.8 359.5C304.299 358.958 304.048 358.28 304.048 357.466C304.048 356.801 304.235 356.213 304.608 355.701C304.987 355.19 305.501 354.788 306.151 354.497C306.805 354.205 307.547 354.059 308.376 354.059C309.543 354.059 310.458 354.315 311.123 354.827C311.794 355.338 312.269 356.013 312.551 356.852Z" fill="#6D6D6E"/>
<path d="M432.259 362.777V361.211L439.165 350.283H440.301V352.708H439.534L434.315 360.966V361.089H443.616V362.777H432.259ZM439.657 366V362.301V361.572V350.283H441.468V366H439.657ZM447.874 354.213L450.698 359.032L453.522 354.213H455.609L451.803 360.106L455.609 366H453.522L450.698 361.426L447.874 366H445.786L449.531 360.106L445.786 354.213H447.874Z" fill="#6D6D6E"/>
<rect x="134" y="349.532" width="16.9195" height="16.9195" rx="3.07628" fill="#592ACB"/>
<path d="M146.525 258L139.694 235.439H144.948L149.119 250.578L154.111 235.439H159.365L164.357 250.578L168.527 235.439H173.782L166.951 258H162.091L156.771 242.5L151.418 258H146.525ZM182.858 254.158C184.204 254.158 185.846 253.534 186.766 252.647L189.82 255.767C188.309 257.343 185.386 258.394 182.891 258.394C177.833 258.394 173.892 254.683 173.892 249.462C173.892 244.339 177.669 240.628 182.628 240.628C187.948 240.628 191.068 244.667 191.068 251.071H178.818C179.377 252.91 180.854 254.158 182.858 254.158ZM182.825 244.864C181.019 244.864 179.508 245.915 178.884 247.623H186.47C186.01 245.948 184.762 244.864 182.825 244.864ZM209.165 240.102V241.022H212.843V244.897H209.165V258H204.567V244.897H202.235V241.022H204.567V239.544C204.567 236.49 206.669 234.355 209.657 234.355C211.037 234.355 212.58 234.946 213.565 235.833L212.416 238.756C212.087 238.427 211.431 238.198 210.774 238.198C209.887 238.198 209.165 238.986 209.165 240.102ZM224.268 258.394C219.211 258.394 214.974 254.322 214.974 249.494C214.974 244.667 219.211 240.628 224.268 240.628C229.292 240.628 233.496 244.667 233.496 249.494C233.496 254.322 229.292 258.394 224.268 258.394ZM224.268 254.355C226.797 254.355 228.931 252.122 228.931 249.494C228.931 246.867 226.797 244.667 224.268 244.667C221.706 244.667 219.572 246.867 219.572 249.494C219.572 252.122 221.706 254.355 224.268 254.355ZM248.004 241.022H252.799V258H248.004V255.865C246.986 257.409 245.081 258.394 242.881 258.394C239.203 258.394 236.576 255.668 236.576 251.826V241.022H241.206V250.808C241.206 252.91 242.52 254.355 244.425 254.355C246.428 254.355 247.971 252.91 247.971 251.071L248.004 251.169V241.022ZM266.731 240.628C270.409 240.628 273.037 243.353 273.037 247.196V258H268.406V248.214C268.406 246.112 267.093 244.667 265.188 244.667C263.185 244.667 261.641 246.112 261.641 247.951L261.608 247.852V258H256.814V241.022H261.608V243.156C262.626 241.613 264.531 240.628 266.731 240.628ZM289.761 235.045H294.555V258H289.761V255.57C288.414 257.343 286.444 258.394 284.046 258.394C279.515 258.394 276.231 254.716 276.231 249.494C276.231 244.306 279.515 240.628 284.046 240.628C286.444 240.628 288.414 241.679 289.761 243.452V235.045ZM285.426 254.355C287.954 254.355 289.761 252.352 289.761 249.494C289.761 246.67 287.954 244.667 285.426 244.667C282.766 244.667 280.894 246.67 280.894 249.494C280.894 252.352 282.766 254.355 285.426 254.355ZM311.811 263.911C310.399 263.911 308.691 263.484 307.542 262.86L308.56 259.576C309.381 260.036 310.235 260.332 310.793 260.332C311.713 260.332 312.435 260.036 312.796 259.412L313.387 258.164L306.327 241.022H311.286L315.752 252.943L319.988 241.022H324.881L317.919 258.854C316.638 262.171 314.471 263.911 311.811 263.911ZM335.135 258.394C330.077 258.394 325.841 254.322 325.841 249.494C325.841 244.667 330.077 240.628 335.135 240.628C340.159 240.628 344.363 244.667 344.363 249.494C344.363 254.322 340.159 258.394 335.135 258.394ZM335.135 254.355C337.663 254.355 339.798 252.122 339.798 249.494C339.798 246.867 337.663 244.667 335.135 244.667C332.573 244.667 330.438 246.867 330.438 249.494C330.438 252.122 332.573 254.355 335.135 254.355ZM358.871 241.022H363.665V258H358.871V255.865C357.853 257.409 355.948 258.394 353.748 258.394C350.07 258.394 347.443 255.668 347.443 251.826V241.022H352.073V250.808C352.073 252.91 353.387 254.355 355.291 254.355C357.294 254.355 358.838 252.91 358.838 251.071L358.871 251.169V241.022ZM372.573 244.174C373.69 241.974 375.792 240.628 378.386 240.628V244.667C374.839 244.667 372.573 246.703 372.573 249.889V258H367.779V241.022H372.573V244.174ZM403 235.045H407.795V258H403V255.57C401.654 257.343 399.684 258.394 397.286 258.394C392.754 258.394 389.47 254.716 389.47 249.494C389.47 244.306 392.754 240.628 397.286 240.628C399.684 240.628 401.654 241.679 403 243.452V235.045ZM398.666 254.355C401.194 254.355 403 252.352 403 249.494C403 246.67 401.194 244.667 398.666 244.667C396.005 244.667 394.134 246.67 394.134 249.494C394.134 252.352 396.005 254.355 398.666 254.355ZM419.59 240.628C424.023 240.628 427.044 243.419 427.044 247.852V258H422.414V256.292C421.199 257.672 419.261 258.394 417.422 258.394C413.81 258.394 411.018 256.227 411.018 252.976C411.018 249.626 414.138 247.327 418.079 247.327C419.458 247.327 420.969 247.623 422.414 248.181V247.852C422.414 246.046 421.297 244.47 418.506 244.47C416.93 244.47 415.452 244.995 414.105 245.685L412.496 242.5C414.894 241.285 417.225 240.628 419.59 240.628ZM418.506 255.077C420.345 255.077 422.085 254.223 422.414 252.647V251.071C421.33 250.677 420.082 250.447 418.769 250.447C417.028 250.447 415.649 251.465 415.649 252.844C415.649 254.223 416.864 255.077 418.506 255.077ZM440.018 253.796L441.167 256.916C440.182 257.803 438.639 258.394 437.259 258.394C434.271 258.394 432.169 256.259 432.169 253.205V244.897H429.837V241.022H432.169V236.359H436.767V241.022H440.445V244.897H436.767V252.45C436.767 253.567 437.489 254.355 438.376 254.355C439.033 254.355 439.689 254.125 440.018 253.796ZM451.756 240.628C456.189 240.628 459.211 243.419 459.211 247.852V258H454.58V256.292C453.365 257.672 451.428 258.394 449.589 258.394C445.976 258.394 443.185 256.227 443.185 252.976C443.185 249.626 446.305 247.327 450.245 247.327C451.625 247.327 453.135 247.623 454.58 248.181V247.852C454.58 246.046 453.464 244.47 450.672 244.47C449.096 244.47 447.618 244.995 446.272 245.685L444.663 242.5C447.06 241.285 449.392 240.628 451.756 240.628ZM450.672 255.077C452.511 255.077 454.252 254.223 454.58 252.647V251.071C453.497 250.677 452.249 250.447 450.935 250.447C449.194 250.447 447.815 251.465 447.815 252.844C447.815 254.223 449.03 255.077 450.672 255.077ZM155.306 277.69C153.828 277.69 152.679 276.508 152.679 275.063C152.679 273.717 153.828 272.501 155.306 272.501C156.718 272.501 157.868 273.717 157.868 275.063C157.868 276.508 156.718 277.69 155.306 277.69ZM152.876 297V280.022H157.671V297H152.876ZM171.675 279.628C175.354 279.628 177.981 282.353 177.981 286.196V297H173.35V287.214C173.35 285.112 172.037 283.667 170.132 283.667C168.129 283.667 166.585 285.112 166.585 286.951L166.552 286.852V297H161.758V280.022H166.552V282.156C167.57 280.613 169.475 279.628 171.675 279.628ZM234.343 274.045H239.138V297H234.343V294.57C232.997 296.343 231.027 297.394 228.629 297.394C224.097 297.394 220.813 293.716 220.813 288.494C220.813 283.306 224.097 279.628 228.629 279.628C231.027 279.628 232.997 280.679 234.343 282.452V274.045ZM230.009 293.355C232.537 293.355 234.343 291.352 234.343 288.494C234.343 285.67 232.537 283.667 230.009 283.667C227.348 283.667 225.477 285.67 225.477 288.494C225.477 291.352 227.348 293.355 230.009 293.355ZM250.933 279.628C255.366 279.628 258.387 282.419 258.387 286.852V297H253.757V295.292C252.542 296.672 250.604 297.394 248.765 297.394C245.153 297.394 242.361 295.227 242.361 291.976C242.361 288.626 245.481 286.327 249.422 286.327C250.801 286.327 252.312 286.623 253.757 287.181V286.852C253.757 285.046 252.64 283.47 249.849 283.47C248.273 283.47 246.795 283.995 245.448 284.685L243.839 281.5C246.237 280.285 248.568 279.628 250.933 279.628ZM249.849 294.077C251.688 294.077 253.428 293.223 253.757 291.647V290.071C252.673 289.677 251.425 289.447 250.112 289.447C248.371 289.447 246.992 290.465 246.992 291.844C246.992 293.223 248.207 294.077 249.849 294.077ZM271.361 292.796L272.51 295.916C271.525 296.803 269.982 297.394 268.602 297.394C265.614 297.394 263.512 295.259 263.512 292.205V283.897H261.18V280.022H263.512V275.359H268.11V280.022H271.788V283.897H268.11V291.45C268.11 292.567 268.832 293.355 269.719 293.355C270.376 293.355 271.032 293.125 271.361 292.796ZM283.099 279.628C287.532 279.628 290.554 282.419 290.554 286.852V297H285.923V295.292C284.708 296.672 282.771 297.394 280.932 297.394C277.319 297.394 274.528 295.227 274.528 291.976C274.528 288.626 277.648 286.327 281.588 286.327C282.968 286.327 284.478 286.623 285.923 287.181V286.852C285.923 285.046 284.807 283.47 282.015 283.47C280.439 283.47 278.961 283.995 277.615 284.685L276.006 281.5C278.403 280.285 280.735 279.628 283.099 279.628ZM282.015 294.077C283.854 294.077 285.595 293.223 285.923 291.647V290.071C284.84 289.677 283.592 289.447 282.278 289.447C280.538 289.447 279.158 290.465 279.158 291.844C279.158 293.223 280.373 294.077 282.015 294.077ZM314.243 279.628C318.775 279.628 322.059 283.306 322.059 288.494C322.059 293.716 318.775 297.394 314.243 297.394C311.878 297.394 309.908 296.376 308.561 294.603V297H303.767V274.045H308.561V282.386C309.908 280.646 311.878 279.628 314.243 279.628ZM312.863 293.355C315.523 293.355 317.395 291.352 317.395 288.494C317.395 285.67 315.523 283.667 312.863 283.667C310.532 283.667 308.824 285.375 308.561 287.838V289.151C308.824 291.647 310.532 293.355 312.863 293.355ZM330.241 283.174C331.357 280.974 333.459 279.628 336.054 279.628V283.667C332.507 283.667 330.241 285.703 330.241 288.889V297H325.446V280.022H330.241V283.174ZM346.832 293.158C348.179 293.158 349.821 292.534 350.74 291.647L353.794 294.767C352.284 296.343 349.361 297.394 346.865 297.394C341.808 297.394 337.867 293.683 337.867 288.462C337.867 283.339 341.644 279.628 346.603 279.628C351.923 279.628 355.042 283.667 355.042 290.071H342.793C343.351 291.91 344.829 293.158 346.832 293.158ZM346.8 283.864C344.993 283.864 343.483 284.915 342.859 286.623H350.445C349.985 284.948 348.737 283.864 346.8 283.864ZM365.872 279.628C370.305 279.628 373.327 282.419 373.327 286.852V297H368.696V295.292C367.481 296.672 365.544 297.394 363.705 297.394C360.092 297.394 357.301 295.227 357.301 291.976C357.301 288.626 360.421 286.327 364.361 286.327C365.741 286.327 367.251 286.623 368.696 287.181V286.852C368.696 285.046 367.58 283.47 364.788 283.47C363.212 283.47 361.734 283.995 360.388 284.685L358.779 281.5C361.176 280.285 363.508 279.628 365.872 279.628ZM364.788 294.077C366.627 294.077 368.368 293.223 368.696 291.647V290.071C367.613 289.677 366.365 289.447 365.051 289.447C363.311 289.447 361.931 290.465 361.931 291.844C361.931 293.223 363.146 294.077 364.788 294.077ZM385.676 297.394C380.652 297.394 376.416 293.322 376.416 288.494C376.416 283.667 380.685 279.628 385.709 279.628C388.468 279.628 390.734 280.744 392.376 282.518L389.19 285.243C388.336 284.291 386.99 283.667 385.676 283.667C383.181 283.667 381.079 285.867 381.079 288.462C381.079 291.122 383.181 293.355 385.709 293.355C387.023 293.355 388.402 292.698 389.289 291.713L392.474 294.406C390.799 296.245 388.501 297.394 385.676 297.394ZM405.178 279.628C408.856 279.628 411.484 282.353 411.484 286.196V297H406.853V287.214C406.853 285.112 405.54 283.667 403.635 283.667C401.632 283.667 400.088 285.112 400.088 286.951V297H395.294V274.045H400.088V282.091C401.139 280.613 403.011 279.628 405.178 279.628ZM423.544 293.158C424.891 293.158 426.533 292.534 427.452 291.647L430.506 294.767C428.996 296.343 426.073 297.394 423.577 297.394C418.52 297.394 414.579 293.683 414.579 288.462C414.579 283.339 418.356 279.628 423.314 279.628C428.634 279.628 431.754 283.667 431.754 290.071H419.505C420.063 291.91 421.541 293.158 423.544 293.158ZM423.511 283.864C421.705 283.864 420.195 284.915 419.571 286.623H427.157C426.697 284.948 425.449 283.864 423.511 283.864ZM441.369 297.394C438.643 297.394 435.753 296.475 433.717 294.833L435.786 291.516C437.297 292.599 439.201 293.42 441.467 293.42C442.748 293.42 443.668 292.895 443.668 292.14C443.668 291.089 442.42 290.76 440.679 290.301C437.198 289.447 434.505 288.494 434.472 285.145C434.44 281.927 437.1 279.628 441.106 279.628C443.536 279.628 445.934 280.482 447.805 281.729L445.868 285.145C444.324 284.192 442.551 283.634 441.106 283.634C439.924 283.634 439.103 284.061 439.103 284.652C439.103 285.572 439.793 285.834 442.091 286.458C445.014 287.214 448.265 288.199 448.265 291.91C448.265 295.259 445.54 297.394 441.369 297.394Z" fill="black"/>
<path d="M201.381 297V292.402H190.38L189.92 288.659L200.363 274.472H206.241V288.33H209.23V292.402H206.241V297H201.381ZM195.01 288.33H201.381V279.595L195.01 288.33Z" fill="#592ACB"/>
</g>
<defs>
<linearGradient id="paint0_linear_1942_16480" x1="544.375" y1="150.058" x2="544.375" y2="244.763" gradientUnits="userSpaceOnUse">
<stop stop-color="#8060FE"/>
<stop offset="1" stop-color="#626BFA"/>
</linearGradient>
<linearGradient id="paint1_linear_1942_16480" x1="188.815" y1="112.034" x2="170.287" y2="144.124" gradientUnits="userSpaceOnUse">
<stop stop-color="#FF980E"/>
<stop offset="0.21" stop-color="#FF7139"/>
<stop offset="0.36" stop-color="#FF5854"/>
<stop offset="0.46" stop-color="#FF4F5E"/>
<stop offset="0.69" stop-color="#FF3750"/>
<stop offset="0.86" stop-color="#F92261"/>
<stop offset="1" stop-color="#F5156C"/>
</linearGradient>
<linearGradient id="paint2_linear_1942_16480" x1="188.815" y1="112.034" x2="170.287" y2="144.124" gradientUnits="userSpaceOnUse">
<stop stop-color="#FFF44F" stop-opacity="0.8"/>
<stop offset="0.09" stop-color="#FFF44F" stop-opacity="0.7"/>
<stop offset="0.75" stop-color="#FFF44F" stop-opacity="0"/>
</linearGradient>
<linearGradient id="paint3_linear_1942_16480" x1="190.316" y1="149.288" x2="190.316" y2="109.53" gradientUnits="userSpaceOnUse">
<stop stop-color="#3A8EE6"/>
<stop offset="0.24" stop-color="#5C79F0"/>
<stop offset="0.63" stop-color="#9059FF"/>
<stop offset="1" stop-color="#C139E6"/>
</linearGradient>
<linearGradient id="paint4_linear_1942_16480" x1="183.557" y1="109.386" x2="200.08" y2="125.909" gradientUnits="userSpaceOnUse">
<stop stop-color="#6E008B" stop-opacity="0.5"/>
<stop offset="0.5" stop-color="#C846CB" stop-opacity="0"/>
</linearGradient>
<linearGradient id="paint5_linear_1942_16480" x1="198.523" y1="129.826" x2="190.764" y2="137.586" gradientUnits="userSpaceOnUse">
<stop offset="0.14" stop-color="#6A2BEA" stop-opacity="0"/>
<stop offset="0.34" stop-color="#642DE4" stop-opacity="0.03"/>
<stop offset="0.55" stop-color="#5131D3" stop-opacity="0.12"/>
<stop offset="0.76" stop-color="#3139B7" stop-opacity="0.27"/>
<stop offset="0.98" stop-color="#054490" stop-opacity="0.48"/>
<stop offset="1" stop-color="#00458B" stop-opacity="0.5"/>
</linearGradient>
<linearGradient id="paint6_linear_1942_16480" x1="186.075" y1="136.5" x2="188.325" y2="139.182" gradientUnits="userSpaceOnUse">
<stop stop-color="#960E18" stop-opacity="0.6"/>
<stop offset="0.19" stop-color="#AC1624" stop-opacity="0.48"/>
<stop offset="0.58" stop-color="#E42C41" stop-opacity="0.16"/>
<stop offset="0.75" stop-color="#FF3750" stop-opacity="0"/>
</linearGradient>
<clipPath id="clip0_1942_16480">
<rect width="620" height="620" rx="15.5" fill="white"/>
</clipPath>
</defs>
</svg>
