<svg width="165" height="137" viewBox="0 0 165 137" fill="none" xmlns="http://www.w3.org/2000/svg">
<g clip-path="url(#clip0_327_1711)">
<path d="M71.9785 64.9895H8.83821C4.96316 64.9895 1.82568 61.8451 1.82568 57.9738V8.84188C1.82568 4.97057 4.96866 1.82617 8.83821 1.82617H156.156C160.031 1.82617 163.169 4.97057 163.169 8.84188V44.0801" stroke="black" stroke-width="3" stroke-linecap="round" stroke-linejoin="round"/>
<path d="M29.8867 19.3706V47.4444" stroke="black" stroke-width="3" stroke-linecap="round" stroke-linejoin="round"/>
<path d="M41.622 25.709L18.157 41.1061" stroke="black" stroke-width="3" stroke-linecap="round" stroke-linejoin="round"/>
<path d="M41.5616 41.2001L18.2122 25.6157" stroke="black" stroke-width="3" stroke-linecap="round" stroke-linejoin="round"/>
<path d="M71.9785 19.3706V47.4444" stroke="black" stroke-width="3" stroke-linecap="round" stroke-linejoin="round"/>
<path d="M83.7138 25.709L60.2488 41.1061" stroke="black" stroke-width="3" stroke-linecap="round" stroke-linejoin="round"/>
<path d="M83.6476 41.2001L60.3037 25.6157" stroke="black" stroke-width="3" stroke-linecap="round" stroke-linejoin="round"/>
<path d="M149.144 79.0317H100.034C96.1611 79.0317 93.0215 82.1728 93.0215 86.0474V128.158C93.0215 132.033 96.1611 135.174 100.034 135.174H149.144C153.017 135.174 156.156 132.033 156.156 128.158V86.0474C156.156 82.1728 153.017 79.0317 149.144 79.0317Z" stroke="black" stroke-width="3" stroke-linecap="round" stroke-linejoin="round"/>
<path d="M124.589 116.313C129.432 116.313 133.357 112.385 133.357 107.54C133.357 102.696 129.432 98.7681 124.589 98.7681C119.746 98.7681 115.821 102.696 115.821 107.54C115.821 112.385 119.746 116.313 124.589 116.313Z" stroke="black" stroke-width="3" stroke-linecap="round" stroke-linejoin="round"/>
<path d="M142.126 68.4974C142.126 58.8054 134.271 50.9526 124.589 50.9526C114.907 50.9526 107.052 58.8109 107.052 68.4974V79.0265" stroke="black" stroke-width="3" stroke-linecap="round" stroke-linejoin="round"/>
</g>
<defs>
<clipPath id="clip0_327_1711">
<rect width="165" height="137" fill="white"/>
</clipPath>
</defs>
</svg>
