<svg width="22" height="22" viewBox="0 0 22 22" fill="none" xmlns="http://www.w3.org/2000/svg">
<path d="M17.6929 15.0119L12.7399 5.10586C12.5739 4.77358 12.3185 4.49411 12.0025 4.29878C11.6866 4.10346 11.3224 4 10.9509 4C10.5795 4 10.2153 4.10346 9.89934 4.29878C9.58336 4.49411 9.32802 4.77358 9.16194 5.10586L4.20894 15.0159C4.0575 15.3206 3.98633 15.659 4.00217 15.999C4.01801 16.3389 4.12033 16.6692 4.29946 16.9586C4.47858 17.2479 4.72858 17.4868 5.0258 17.6526C5.32302 17.8183 5.65762 17.9055 5.99794 17.9059H15.9029C16.2439 17.906 16.5792 17.819 16.8771 17.6531C17.1749 17.4872 17.4255 17.2479 17.6048 16.9579C17.7842 16.668 17.8864 16.337 17.9018 15.9964C17.9172 15.6557 17.8453 15.3169 17.6929 15.0119V15.0119ZM9.95094 7.90586C9.95094 7.64065 10.0563 7.38629 10.2438 7.19876C10.4314 7.01122 10.6857 6.90586 10.9509 6.90586C11.2162 6.90586 11.4705 7.01122 11.658 7.19876C11.8456 7.38629 11.9509 7.64065 11.9509 7.90586V11.9059C11.9509 12.1711 11.8456 12.4254 11.658 12.613C11.4705 12.8005 11.2162 12.9059 10.9509 12.9059C10.6857 12.9059 10.4314 12.8005 10.2438 12.613C10.0563 12.4254 9.95094 12.1711 9.95094 11.9059V7.90586ZM10.9509 16.1559C10.7037 16.1559 10.462 16.0826 10.2565 15.9452C10.0509 15.8078 9.8907 15.6126 9.79609 15.3842C9.70148 15.1558 9.67673 14.9045 9.72496 14.662C9.77319 14.4195 9.89224 14.1968 10.0671 14.022C10.2419 13.8472 10.4646 13.7281 10.7071 13.6799C10.9496 13.6317 11.2009 13.6564 11.4293 13.751C11.6577 13.8456 11.8529 14.0058 11.9903 14.2114C12.1276 14.417 12.2009 14.6586 12.2009 14.9059C12.2009 15.2374 12.0692 15.5553 11.8348 15.7897C11.6004 16.0242 11.2825 16.1559 10.9509 16.1559V16.1559Z" fill="white"/>
</svg>
