<svg width="400" height="200" viewBox="0 0 400 200" fill="none" xmlns="http://www.w3.org/2000/svg">
<rect width="400" height="200" fill="#E7DFFF"/>
<path d="M251.43 62.7794L238.558 55.4068L209.173 38.5818L208.259 38.0562C203.441 35.3146 197.536 35.3146 192.718 38.0562L191.804 38.5864L150.484 62.2538L149.57 62.784C144.778 65.528 141.815 70.6221 141.8 76.1443V125.577C141.817 131.1 144.779 136.195 149.57 138.942L191.818 163.135C194.914 164.912 198.864 163.864 200.671 160.786C201.531 159.308 201.765 157.548 201.319 155.898C200.873 154.248 199.786 152.844 198.299 152.001L156.98 128.338C155.607 127.555 154.757 126.097 154.754 124.517V77.2046C154.757 75.6241 155.607 74.1666 156.98 73.3837L164.293 69.1922L198.253 49.7025C199.628 48.9208 201.313 48.9208 202.687 49.7025L244.02 73.3743C245.387 74.1602 246.232 75.6147 246.237 77.1912V124.535C246.234 126.115 245.384 127.573 244.011 128.356L230.029 136.364L222.972 125.723C230.087 119.421 234.162 110.373 234.166 100.868C234.166 82.4336 219.05 67.4369 200.466 67.4369C181.881 67.4369 166.765 82.4336 166.765 100.868C166.765 119.301 181.881 134.298 200.466 134.298C204.343 134.301 208.191 133.636 211.842 132.333L222.561 148.495C222.728 148.741 222.91 148.978 223.104 149.203L223.219 149.318C223.445 149.561 223.691 149.786 223.955 149.989C224.019 150.04 224.078 150.094 224.147 150.145C224.437 150.354 224.742 150.54 225.061 150.703L225.28 150.799C225.565 150.926 225.858 151.035 226.158 151.123L226.359 151.187C226.699 151.273 227.046 151.33 227.397 151.356H227.684C227.785 151.356 227.881 151.356 227.982 151.356C228.178 151.356 228.375 151.333 228.567 151.315C228.658 151.315 228.745 151.315 228.836 151.315C229.206 151.264 229.57 151.182 229.924 151.068C230.02 151.041 230.112 150.999 230.208 150.963C230.49 150.86 230.765 150.738 231.03 150.597C231.09 150.565 231.158 150.547 231.218 150.51L251.43 138.96C256.226 136.209 259.189 131.107 259.2 125.577V76.1396C259.184 70.6174 256.222 65.5234 251.43 62.7794ZM179.724 100.868C179.653 92.4625 184.662 84.8463 192.407 81.5809C200.152 78.3155 209.102 80.047 215.07 85.9653C221.038 91.8836 222.845 100.819 219.645 108.591C216.445 116.363 208.871 121.436 200.466 121.436C189.064 121.469 179.787 112.269 179.724 100.868Z" fill="#7542E5"/>
</svg>
