<svg width="120" height="120" viewBox="0 0 120 120" fill="none" xmlns="http://www.w3.org/2000/svg">
<g clip-path="url(#clip0_2026_38)">
<rect width="120" height="120" fill="white"/>
<path opacity="0.5" fill-rule="evenodd" clip-rule="evenodd" d="M44.7366 -74.5215C92.1351 -77.2709 133.925 -40.3079 161.231 -1.07922C186.373 35.0397 196.221 81.4422 181.491 123.013C168.29 160.273 129.552 174.997 92.8543 188.858C61.5025 200.699 28.6295 201.272 -3.38113 191.39C-45.485 178.392 -97.768 168.338 -109.746 125.546C-121.949 81.9466 -81.6845 47.2558 -54.0307 11.5836C-25.8779 -24.7332 -0.853561 -71.877 44.7366 -74.5215Z" fill="#D9BFFF"/>
<path opacity="0.2" fill-rule="evenodd" clip-rule="evenodd" d="M-117.09 247.336C-149.308 231.15 -162.76 190.975 -165.827 154.807C-168.651 121.507 -157.511 87.2498 -132.042 65.5006C-109.214 46.0068 -78.1456 51.0288 -48.7476 55.8445C-23.6322 59.9591 -1.79402 72.0618 15.5075 90.7141C38.2649 115.247 68.8343 141.708 60.4662 174.4C51.9402 207.708 12.2885 215.238 -19.442 228.201C-51.7454 241.399 -86.1016 262.905 -117.09 247.336Z" fill="url(#paint0_radial_2026_38)"/>
<path opacity="0.2" fill-rule="evenodd" clip-rule="evenodd" d="M99.4974 21.4207C77.5728 -7.20243 83.0012 -49.2213 96.025 -83.1013C108.016 -114.296 132.989 -140.258 165.396 -148.712C194.443 -156.29 220.205 -138.213 244.554 -121.051C265.357 -106.389 279.724 -85.9695 287.152 -61.6368C296.922 -29.6322 312.879 7.51688 291.084 33.2798C268.877 59.528 229.914 48.9998 195.707 46.8164C160.883 44.5941 120.586 48.9517 99.4974 21.4207Z" fill="url(#paint1_radial_2026_38)"/>
<g clip-path="url(#clip1_2026_38)">
<path d="M94.5578 36.8826L85.9321 31.9548L66.2397 20.7089L65.6269 20.3576C62.3986 18.525 58.441 18.525 55.2126 20.3576L54.5998 20.7119L26.9097 36.5313L26.2971 36.8857C23.0855 38.7198 21.1001 42.1248 21.0898 45.8158V78.8568C21.1009 82.5485 23.0859 85.9539 26.2971 87.7899L54.6091 103.961C56.6838 105.149 59.3309 104.448 60.5423 102.39C61.1186 101.403 61.2749 100.227 60.9763 99.1235C60.6776 98.0205 59.9488 97.0824 58.9526 96.5185L31.2623 80.7022C30.3422 80.1789 29.7731 79.2046 29.7706 78.1481V46.5245C29.7731 45.468 30.3422 44.4939 31.2623 43.9706L36.1632 41.169L58.9218 28.142C59.843 27.6194 60.9721 27.6194 61.893 28.142L89.5925 43.9643C90.5083 44.4896 91.0745 45.4618 91.0781 46.5155V78.1602C91.0757 79.2167 90.5065 80.1911 89.5864 80.7143L80.2165 86.0669L75.487 78.9546C80.2553 74.7421 82.986 68.6942 82.9885 62.341C82.9885 50.0196 72.859 39.9957 60.4045 39.9957C47.95 39.9957 37.8204 50.0196 37.8204 62.341C37.8204 74.6622 47.95 84.6861 60.4045 84.6861C63.0026 84.6881 65.5815 84.2437 68.0283 83.3723L75.2114 94.1752C75.3235 94.34 75.4451 94.498 75.5758 94.6487L75.6524 94.7252C75.8041 94.8881 75.9689 95.0384 76.1456 95.1742C76.1885 95.2079 76.2283 95.2444 76.2742 95.278C76.4686 95.4177 76.6734 95.5424 76.8869 95.6509L77.0339 95.715C77.2248 95.8002 77.4212 95.8728 77.622 95.9318L77.7568 95.9746C77.9848 96.0322 78.2174 96.0701 78.4521 96.0876H78.645C78.7124 96.0876 78.7767 96.0876 78.8441 96.0876C78.9759 96.0876 79.1076 96.0724 79.2362 96.0603C79.2975 96.0603 79.3558 96.0603 79.4169 96.0603C79.6644 96.0264 79.9083 95.971 80.1459 95.8953C80.2104 95.8769 80.2715 95.8493 80.3358 95.8249C80.5251 95.7563 80.7092 95.6746 80.8872 95.5805C80.927 95.5592 80.9731 95.5469 81.0129 95.5224L94.5578 87.8023C97.7722 85.9636 99.7578 82.5528 99.765 78.8568V45.8126C99.7546 42.1216 97.7693 38.7168 94.5578 36.8826ZM46.5042 62.341C46.457 56.723 49.8137 51.6322 55.004 49.4496C60.1941 47.267 66.1918 48.4244 70.1914 52.3802C74.1911 56.336 75.4018 62.3083 73.2573 67.5033C71.1128 72.6982 66.0372 76.0891 60.4045 76.0891C52.7638 76.111 46.5464 69.9616 46.5042 62.341Z" fill="#9059FF"/>
</g>
</g>
<defs>
<radialGradient id="paint0_radial_2026_38" cx="0" cy="0" r="1" gradientTransform="matrix(-152.345 -48.3046 33.5582 -156.257 -85.327 122.477)" gradientUnits="userSpaceOnUse">
<stop stop-color="#B833E1"/>
<stop offset="0.371" stop-color="#9059FF"/>
<stop offset="0.614" stop-color="#5B6DF8"/>
<stop offset="1" stop-color="#0090ED"/>
</radialGradient>
<radialGradient id="paint1_radial_2026_38" cx="0" cy="0" r="1" gradientTransform="matrix(-111.737 -88.0483 76.9928 -119.623 64.4065 -58.1022)" gradientUnits="userSpaceOnUse">
<stop stop-color="#B833E1"/>
<stop offset="0.371" stop-color="#9059FF"/>
<stop offset="0.614" stop-color="#5B6DF8"/>
<stop offset="1" stop-color="#0090ED"/>
</radialGradient>
<clipPath id="clip0_2026_38">
<rect width="120" height="120" fill="white"/>
</clipPath>
<clipPath id="clip1_2026_38">
<rect width="80.5907" height="88.16" fill="white" transform="translate(21.0898 16.92)"/>
</clipPath>
</defs>
</svg>
