<svg width="48" height="48" viewBox="0 0 48 48" fill="none" xmlns="http://www.w3.org/2000/svg">
<rect width="48" height="48" fill="#7542E5"/>
<path d="M35.1409 15.858L32.3253 14.2452L25.8973 10.5648L25.6973 10.4498C24.6435 9.85007 23.3516 9.85007 22.2978 10.4498L22.0978 10.5658L13.0591 15.743L12.8592 15.859C11.8108 16.4592 11.1628 17.5736 11.1594 18.7816V29.595C11.163 30.8032 11.811 31.9177 12.8592 32.5185L22.1008 37.8108C22.778 38.1996 23.6421 37.9703 24.0375 37.2968C24.2257 36.9737 24.2767 36.5887 24.1792 36.2277C24.0817 35.8667 23.8438 35.5597 23.5186 35.3752L14.4799 30.1989C14.1796 30.0277 13.9938 29.7088 13.993 29.363V19.0135C13.9938 18.6678 14.1796 18.3489 14.4799 18.1777L16.0797 17.2608L23.5086 12.9974C23.8093 12.8264 24.1778 12.8264 24.4784 12.9974L33.5201 18.1756C33.8191 18.3476 34.0039 18.6657 34.0051 19.0106V29.367C34.0043 29.7127 33.8185 30.0316 33.5182 30.2029L30.4596 31.9546L28.9158 29.627C30.4723 28.2483 31.3636 26.269 31.3645 24.1898C31.3645 20.1573 28.058 16.8768 23.9925 16.8768C19.9271 16.8768 16.6206 20.1573 16.6206 24.1898C16.6206 28.2222 19.9271 31.5027 23.9925 31.5027C24.8406 31.5034 25.6824 31.358 26.4811 31.0727L28.8258 34.6082C28.8624 34.6622 28.9021 34.7139 28.9448 34.7632L28.9698 34.7882C29.0193 34.8416 29.0731 34.8907 29.1308 34.9352C29.1448 34.9462 29.1578 34.9582 29.1727 34.9692C29.2362 35.0149 29.3031 35.0557 29.3728 35.0912L29.4207 35.1122C29.483 35.1401 29.5472 35.1638 29.6127 35.1831L29.6567 35.1971C29.7311 35.216 29.8071 35.2284 29.8837 35.2341H29.9466C29.9686 35.2341 29.9896 35.2341 30.0116 35.2341C30.0546 35.2341 30.0976 35.2291 30.1396 35.2252C30.1596 35.2252 30.1786 35.2252 30.1986 35.2252C30.2794 35.2141 30.359 35.196 30.4366 35.1712C30.4576 35.1652 30.4776 35.1561 30.4986 35.1481C30.5603 35.1257 30.6204 35.099 30.6785 35.0682C30.6915 35.0612 30.7066 35.0571 30.7196 35.0491L35.1409 32.5226C36.1902 31.9208 36.8383 30.8046 36.8406 29.595V18.7805C36.8373 17.5726 36.1892 16.4583 35.1409 15.858ZM19.4552 24.1898C19.4398 22.3512 20.5355 20.6851 22.2297 19.9708C23.9239 19.2565 25.8817 19.6353 27.1872 20.9299C28.4928 22.2245 28.888 24.1791 28.188 25.8793C27.488 27.5794 25.8312 28.6892 23.9925 28.6892C21.4985 28.6963 19.469 26.6838 19.4552 24.1898Z" fill="white" fill-opacity="0.8"/>
</svg>
