<svg width="600" height="450" viewBox="0 0 600 450" fill="none" xmlns="http://www.w3.org/2000/svg">
<rect width="600" height="450" rx="15" fill="#ECDFFF"/>
<g filter="url(#filter0_d_5_2047)">
<g clip-path="url(#clip0_5_2047)">
<rect x="46" y="46" width="507.821" height="358.053" rx="5.95103" fill="white"/>
<rect width="525.674" height="28.7633" transform="translate(40.0491 42.0332)" fill="#C9C3D2"/>
<circle cx="57.3644" cy="57.3651" r="3.09949" fill="#592ACB"/>
<circle cx="67.696" cy="57.3651" r="3.09949" fill="#592ACB"/>
<circle cx="78.0277" cy="57.3651" r="3.09949" fill="#592ACB"/>
<path d="M108.613 226.8H96.0962V231.301H107.43V235.67H96.0962V240.631H108.613V245H91.2341V222.431H108.613V226.8ZM118.522 245.394C115.795 245.394 112.904 244.474 110.867 242.832L112.937 239.514C114.448 240.598 116.354 241.419 118.62 241.419C119.902 241.419 120.821 240.893 120.821 240.138C120.821 239.087 119.573 238.758 117.832 238.298C114.35 237.444 111.656 236.491 111.623 233.14C111.59 229.921 114.251 227.621 118.259 227.621C120.69 227.621 123.088 228.475 124.961 229.724L123.023 233.14C121.479 232.188 119.705 231.629 118.259 231.629C117.076 231.629 116.255 232.056 116.255 232.648C116.255 233.567 116.945 233.83 119.245 234.454C122.168 235.21 125.421 236.196 125.421 239.908C125.421 243.259 122.694 245.394 118.522 245.394ZM142.085 245L136.303 228.015H141.001L144.22 238.594L147.571 228.015H151.546L154.897 238.594L158.117 228.015H162.815L157.033 245H152.729L149.575 234.323L146.389 245H142.085ZM167.835 225.683C166.357 225.683 165.207 224.5 165.207 223.055C165.207 221.708 166.357 220.492 167.835 220.492C169.248 220.492 170.398 221.708 170.398 223.055C170.398 224.5 169.248 225.683 167.835 225.683ZM165.404 245V228.015H170.2V245H165.404ZM179.184 231.169C180.301 228.968 182.404 227.621 184.999 227.621V231.662C181.451 231.662 179.184 233.699 179.184 236.886V245H174.388V228.015H179.184V231.169ZM200.447 222.036H205.243V245H200.447V242.569C199.1 244.343 197.129 245.394 194.731 245.394C190.197 245.394 186.912 241.715 186.912 236.491C186.912 231.301 190.197 227.621 194.731 227.621C197.129 227.621 199.1 228.673 200.447 230.447V222.036ZM196.111 241.353C198.64 241.353 200.447 239.349 200.447 236.491C200.447 233.666 198.64 231.662 196.111 231.662C193.449 231.662 191.577 233.666 191.577 236.491C191.577 239.349 193.449 241.353 196.111 241.353ZM228.452 227.621C232.131 227.621 234.759 230.348 234.759 234.192V245H230.127V235.21C230.127 233.108 228.813 231.662 226.908 231.662C224.904 231.662 223.36 233.108 223.36 234.947L223.327 234.849V245H218.531V228.015H223.327V230.151C224.345 228.607 226.251 227.621 228.452 227.621ZM246.398 227.621C250.833 227.621 253.855 230.414 253.855 234.849V245H249.223V243.292C248.007 244.671 246.069 245.394 244.229 245.394C240.616 245.394 237.823 243.226 237.823 239.974C237.823 236.623 240.944 234.323 244.886 234.323C246.266 234.323 247.777 234.619 249.223 235.177V234.849C249.223 233.042 248.106 231.465 245.313 231.465C243.737 231.465 242.258 231.991 240.911 232.68L239.302 229.494C241.7 228.278 244.032 227.621 246.398 227.621ZM245.313 242.076C247.153 242.076 248.894 241.222 249.223 239.645V238.068C248.139 237.674 246.89 237.444 245.576 237.444C243.835 237.444 242.455 238.462 242.455 239.842C242.455 241.222 243.671 242.076 245.313 242.076ZM266.209 245.394C261.183 245.394 256.945 241.321 256.945 236.491C256.945 231.662 261.216 227.621 266.242 227.621C269.002 227.621 271.268 228.738 272.911 230.512L269.724 233.239C268.87 232.286 267.523 231.662 266.209 231.662C263.712 231.662 261.61 233.863 261.61 236.458C261.61 239.119 263.712 241.353 266.242 241.353C267.556 241.353 268.936 240.696 269.823 239.711L273.01 242.405C271.334 244.244 269.034 245.394 266.209 245.394ZM285.718 227.621C289.398 227.621 292.026 230.348 292.026 234.192V245H287.394V235.21C287.394 233.108 286.08 231.662 284.174 231.662C282.17 231.662 280.626 233.108 280.626 234.947V245H275.83V222.036H280.626V230.085C281.678 228.607 283.55 227.621 285.718 227.621ZM91.4312 280V257.431H99.5128C107.102 257.431 112.489 262.096 112.489 268.699C112.489 275.302 107.102 280 99.5128 280H91.4312ZM96.2604 275.598H100.137C104.441 275.598 107.496 272.74 107.496 268.699C107.496 264.691 104.441 261.833 100.137 261.833H96.2604V275.598ZM123.683 262.621C128.118 262.621 131.141 265.414 131.141 269.849V280H126.509V278.292C125.293 279.671 123.355 280.394 121.515 280.394C117.901 280.394 115.109 278.226 115.109 274.974C115.109 271.623 118.23 269.323 122.172 269.323C123.552 269.323 125.063 269.619 126.509 270.177V269.849C126.509 268.042 125.392 266.465 122.599 266.465C121.022 266.465 119.544 266.991 118.197 267.68L116.587 264.494C118.986 263.278 121.318 262.621 123.683 262.621ZM122.599 277.076C124.439 277.076 126.18 276.222 126.509 274.645V273.068C125.425 272.674 124.176 272.444 122.862 272.444C121.121 272.444 119.741 273.462 119.741 274.842C119.741 276.222 120.957 277.076 122.599 277.076ZM144.119 275.795L145.269 278.916C144.284 279.803 142.739 280.394 141.36 280.394C138.37 280.394 136.268 278.259 136.268 275.204V266.892H133.935V263.015H136.268V258.35H140.867V263.015H144.546V266.892H140.867V274.448C140.867 275.565 141.59 276.353 142.477 276.353C143.134 276.353 143.791 276.123 144.119 275.795ZM156.289 276.156C157.636 276.156 159.278 275.532 160.198 274.645L163.254 277.766C161.742 279.343 158.819 280.394 156.322 280.394C151.263 280.394 147.32 276.682 147.32 271.458C147.32 266.334 151.098 262.621 156.059 262.621C161.381 262.621 164.502 266.662 164.502 273.068H152.248C152.807 274.908 154.285 276.156 156.289 276.156ZM156.256 266.859C154.449 266.859 152.938 267.91 152.314 269.619H159.903C159.443 267.943 158.194 266.859 156.256 266.859ZM177.57 262.621C181.249 262.621 183.877 265.348 183.877 269.192V280H179.245V270.21C179.245 268.108 177.931 266.662 176.026 266.662C174.022 266.662 172.478 268.108 172.478 269.947L172.445 269.849V280H167.648V263.015H172.445V265.151C173.463 263.607 175.369 262.621 177.57 262.621ZM187.926 280V257.036H192.723V280H187.926ZM204.925 276.156C206.272 276.156 207.915 275.532 208.835 274.645L211.89 277.766C210.379 279.343 207.455 280.394 204.958 280.394C199.899 280.394 195.957 276.682 195.957 271.458C195.957 266.334 199.735 262.621 204.695 262.621C210.017 262.621 213.138 266.662 213.138 273.068H200.885C201.443 274.908 202.921 276.156 204.925 276.156ZM204.893 266.859C203.086 266.859 201.574 267.91 200.95 269.619H208.539C208.079 267.943 206.831 266.859 204.893 266.859ZM223.972 262.621C228.407 262.621 231.43 265.414 231.43 269.849V280H226.797V278.292C225.582 279.671 223.644 280.394 221.804 280.394C218.19 280.394 215.398 278.226 215.398 274.974C215.398 271.623 218.519 269.323 222.461 269.323C223.841 269.323 225.352 269.619 226.797 270.177V269.849C226.797 268.042 225.68 266.465 222.888 266.465C221.311 266.465 219.833 266.991 218.486 267.68L216.876 264.494C219.274 263.278 221.607 262.621 223.972 262.621ZM222.888 277.076C224.728 277.076 226.469 276.222 226.797 274.645V273.068C225.713 272.674 224.465 272.444 223.151 272.444C221.41 272.444 220.03 273.462 220.03 274.842C220.03 276.222 221.245 277.076 222.888 277.076ZM251.997 263.015L245.394 270.539L251.931 280H246.412L242.207 273.627L240.17 275.828V280H235.374V257.036H240.17V270.341L246.478 263.015H251.997ZM260.614 280.394C257.887 280.394 254.996 279.474 252.959 277.832L255.029 274.514C256.54 275.598 258.445 276.419 260.712 276.419C261.993 276.419 262.913 275.893 262.913 275.138C262.913 274.087 261.665 273.758 259.924 273.298C256.441 272.444 253.747 271.491 253.715 268.14C253.682 264.921 256.343 262.621 260.351 262.621C262.782 262.621 265.18 263.475 267.053 264.724L265.114 268.14C263.57 267.188 261.796 266.629 260.351 266.629C259.168 266.629 258.347 267.056 258.347 267.648C258.347 268.567 259.037 268.83 261.336 269.454C264.26 270.21 267.512 271.196 267.512 274.908C267.512 278.259 264.786 280.394 260.614 280.394ZM292.193 263.015H297.022V278.193C297.022 282.562 293.244 285.651 287.889 285.651C284.899 285.651 282.074 284.698 280.399 283.384L282.074 280C283.191 280.986 285.162 281.61 287.133 281.61C290.221 281.61 292.193 280.197 292.193 277.996V276.123C290.846 277.766 288.809 278.752 286.575 278.752C282.304 278.752 279.052 275.401 279.052 270.67C279.052 265.939 282.304 262.621 286.575 262.621C288.875 262.621 291.043 263.705 292.193 265.315V263.015ZM288.086 274.711C290.484 274.711 292.193 273.035 292.193 270.67C292.193 268.305 290.484 266.662 288.086 266.662C285.688 266.662 283.98 268.305 283.98 270.67C283.98 273.035 285.688 274.711 288.086 274.711ZM309.256 276.156C310.603 276.156 312.246 275.532 313.166 274.645L316.221 277.766C314.71 279.343 311.786 280.394 309.289 280.394C304.23 280.394 300.288 276.682 300.288 271.458C300.288 266.334 304.066 262.621 309.026 262.621C314.349 262.621 317.469 266.662 317.469 273.068H305.216C305.774 274.908 307.252 276.156 309.256 276.156ZM309.224 266.859C307.417 266.859 305.906 267.91 305.281 269.619H312.87C312.41 267.943 311.162 266.859 309.224 266.859ZM327.088 280.394C324.361 280.394 321.47 279.474 319.433 277.832L321.503 274.514C323.014 275.598 324.919 276.419 327.186 276.419C328.467 276.419 329.387 275.893 329.387 275.138C329.387 274.087 328.139 273.758 326.398 273.298C322.915 272.444 320.222 271.491 320.189 268.14C320.156 264.921 322.817 262.621 326.825 262.621C329.256 262.621 331.654 263.475 333.527 264.724L331.588 268.14C330.044 267.188 328.27 266.629 326.825 266.629C325.642 266.629 324.821 267.056 324.821 267.648C324.821 268.567 325.511 268.83 327.81 269.454C330.734 270.21 333.987 271.196 333.987 274.908C333.987 278.259 331.26 280.394 327.088 280.394ZM348.473 263.015H353.269V280H348.473V277.865C347.454 279.409 345.549 280.394 343.348 280.394C339.668 280.394 337.04 277.668 337.04 273.824V263.015H341.672V272.805C341.672 274.908 342.987 276.353 344.892 276.353C346.896 276.353 348.44 274.908 348.44 273.068L348.473 273.167V263.015ZM365.696 280.394C360.669 280.394 356.432 276.321 356.432 271.491C356.432 266.662 360.702 262.621 365.729 262.621C368.488 262.621 370.755 263.738 372.398 265.512L369.211 268.239C368.357 267.286 367.01 266.662 365.696 266.662C363.199 266.662 361.097 268.863 361.097 271.458C361.097 274.119 363.199 276.353 365.729 276.353C367.043 276.353 368.423 275.696 369.31 274.711L372.496 277.405C370.821 279.244 368.521 280.394 365.696 280.394ZM385.205 262.621C388.885 262.621 391.513 265.348 391.513 269.192V280H386.881V270.21C386.881 268.108 385.566 266.662 383.661 266.662C381.657 266.662 380.113 268.108 380.113 269.947V280H375.317V257.036H380.113V265.085C381.164 263.607 383.037 262.621 385.205 262.621ZM404.498 275.795L405.648 278.916C404.662 279.803 403.118 280.394 401.738 280.394C398.749 280.394 396.646 278.259 396.646 275.204V266.892H394.314V263.015H396.646V258.35H401.245V263.015H404.925V266.892H401.245V274.448C401.245 275.565 401.968 276.353 402.855 276.353C403.512 276.353 404.169 276.123 404.498 275.795ZM420.554 280.394C418.845 280.394 417.498 279.014 417.498 277.339C417.498 275.795 418.845 274.415 420.554 274.415C422.163 274.415 423.478 275.795 423.478 277.339C423.478 279.014 422.163 280.394 420.554 280.394ZM429.095 280.394C427.387 280.394 426.04 279.014 426.04 277.339C426.04 275.795 427.387 274.415 429.095 274.415C430.705 274.415 432.019 275.795 432.019 277.339C432.019 279.014 430.705 280.394 429.095 280.394ZM437.637 280.394C435.928 280.394 434.582 279.014 434.582 277.339C434.582 275.795 435.928 274.415 437.637 274.415C439.247 274.415 440.561 275.795 440.561 277.339C440.561 279.014 439.247 280.394 437.637 280.394Z" fill="#0C0C0D"/>
<rect x="89.4242" y="311.895" width="423.385" height="44.6304" rx="22.3152" fill="#EAEAEA"/>
<rect x="88.2179" y="311.895" width="91.0062" height="44.7842" rx="22.3921" fill="url(#paint0_radial_5_2047)"/>
<path d="M115.607 331.349C118.451 331.349 120.802 333.185 120.802 336.231C120.802 339.388 118.272 341.56 114.913 341.56C110.412 341.56 108.374 338.336 108.374 333.857C108.374 329.065 111.173 325.639 115.428 325.639C117.354 325.639 118.899 326.289 120.153 327.296L118.585 329.804C117.645 329.02 116.727 328.55 115.45 328.55C113.457 328.55 112.091 330.207 111.8 332.805C112.763 331.887 114.152 331.349 115.607 331.349ZM114.734 338.761C116.368 338.761 117.398 337.619 117.398 336.387C117.398 334.91 116.144 334.036 114.644 334.036C113.368 334.036 112.338 334.73 111.89 335.828C112.181 337.709 113.01 338.761 114.734 338.761ZM126.458 333.633C124.174 333.633 122.629 331.909 122.629 329.715C122.629 327.498 124.174 325.751 126.48 325.751C128.809 325.751 130.309 327.52 130.309 329.692C130.309 331.909 128.742 333.633 126.458 333.633ZM124.644 341.291L135.347 325.908H137.721L127.018 341.291H124.644ZM126.48 331.707C127.421 331.707 128.115 330.924 128.115 329.692C128.115 328.505 127.421 327.699 126.458 327.699C125.517 327.699 124.846 328.483 124.846 329.692C124.846 330.901 125.562 331.707 126.48 331.707ZM135.862 341.538C133.556 341.538 132.011 339.791 132.011 337.597C132.011 335.402 133.578 333.656 135.862 333.656C138.169 333.656 139.691 335.425 139.691 337.597C139.691 339.813 138.102 341.538 135.862 341.538ZM135.862 339.589C136.825 339.589 137.497 338.806 137.497 337.597C137.497 336.387 136.78 335.581 135.862 335.581C134.877 335.581 134.205 336.365 134.205 337.597C134.205 338.783 134.9 339.589 135.862 339.589Z" fill="white"/>
<rect x="164.232" y="131.895" width="27.7758" height="27.7758" rx="13.8879" fill="#592ACB"/>
<path d="M175.798 152.738C175.49 152.738 175.196 152.616 174.978 152.398L171.501 148.921C171.29 148.702 171.173 148.41 171.176 148.106C171.178 147.802 171.3 147.511 171.515 147.296C171.73 147.081 172.021 146.959 172.325 146.957C172.629 146.954 172.921 147.071 173.14 147.282L175.64 149.782L182.961 139.324C183.138 139.075 183.407 138.907 183.708 138.855C184.009 138.803 184.318 138.872 184.569 139.047C184.819 139.222 184.99 139.489 185.045 139.79C185.099 140.09 185.033 140.4 184.861 140.652L176.747 152.243C176.65 152.383 176.524 152.499 176.378 152.585C176.231 152.67 176.068 152.723 175.899 152.738C175.865 152.74 175.831 152.74 175.798 152.738V152.738Z" fill="white"/>
<rect x="192.008" y="144.047" width="83.3275" height="3.47198" fill="#D9BFFF"/>
<rect x="275.336" y="131.895" width="27.7758" height="27.7758" rx="13.8879" fill="#592ACB"/>
<path d="M286.901 152.738C286.594 152.738 286.299 152.616 286.082 152.398L282.604 148.921C282.393 148.702 282.276 148.41 282.279 148.106C282.282 147.802 282.403 147.511 282.618 147.296C282.833 147.081 283.124 146.959 283.428 146.957C283.732 146.954 284.025 147.071 284.243 147.282L286.743 149.782L294.064 139.324C294.242 139.075 294.51 138.907 294.811 138.855C295.112 138.803 295.422 138.872 295.672 139.047C295.922 139.222 296.093 139.489 296.148 139.79C296.203 140.09 296.137 140.4 295.964 140.652L287.85 152.243C287.754 152.383 287.628 152.499 287.481 152.585C287.334 152.67 287.171 152.723 287.002 152.738C286.968 152.74 286.935 152.74 286.901 152.738V152.738Z" fill="white"/>
<rect x="303.111" y="144.047" width="41.6638" height="3.47198" fill="#D9BFFF"/>
<rect x="344.775" y="144.047" width="39.0598" height="3.47198" fill="#D9BFFF"/>
<rect x="382.099" y="130.159" width="31.2478" height="31.2478" rx="15.6239" fill="#592ACB"/>
<rect x="382.099" y="130.159" width="31.2478" height="31.2478" rx="15.6239" stroke="#D9BFFF" stroke-width="3.47198"/>
<path d="M404.423 151.257L400.244 147.078C401.002 146.013 401.333 144.701 401.169 143.403C401.006 142.105 400.361 140.916 399.362 140.071C398.363 139.226 397.084 138.788 395.777 138.842C394.47 138.897 393.231 139.441 392.306 140.366C391.381 141.291 390.837 142.529 390.783 143.836C390.728 145.143 391.167 146.423 392.011 147.422C392.856 148.421 394.045 149.066 395.343 149.229C396.641 149.393 397.953 149.062 399.019 148.304L403.197 152.483C403.361 152.64 403.58 152.728 403.807 152.726C404.034 152.724 404.252 152.633 404.412 152.472C404.573 152.311 404.664 152.094 404.666 151.867C404.668 151.64 404.581 151.421 404.423 151.257ZM396.011 147.537C395.325 147.537 394.655 147.334 394.085 146.953C393.515 146.572 393.07 146.03 392.808 145.397C392.546 144.764 392.477 144.067 392.611 143.394C392.745 142.722 393.075 142.104 393.559 141.619C394.044 141.134 394.662 140.804 395.334 140.671C396.007 140.537 396.704 140.605 397.337 140.868C397.971 141.13 398.512 141.575 398.893 142.145C399.274 142.715 399.477 143.385 399.477 144.07C399.477 144.99 399.112 145.871 398.462 146.522C397.812 147.172 396.93 147.537 396.011 147.537Z" fill="white"/>
<path d="M155.418 178.613V171.038H156.79V177.463H160.127V178.613H155.418ZM163.737 178.724C162.072 178.724 161.014 177.552 161.014 175.795C161.014 174.034 162.072 172.858 163.737 172.858C165.401 172.858 166.459 174.034 166.459 175.795C166.459 177.552 165.401 178.724 163.737 178.724ZM163.744 177.652C164.65 177.652 165.102 176.831 165.102 175.791C165.102 174.752 164.65 173.92 163.744 173.92C162.823 173.92 162.372 174.752 162.372 175.791C162.372 176.831 162.823 177.652 163.744 177.652ZM172.086 174.434L170.865 174.567C170.762 174.193 170.436 173.857 169.819 173.857C169.26 173.857 168.835 174.123 168.838 174.508C168.835 174.837 169.064 175.037 169.641 175.166L170.61 175.373C171.683 175.606 172.204 176.102 172.208 176.912C172.204 177.988 171.202 178.724 169.782 178.724C168.387 178.724 167.51 178.107 167.344 177.064L168.65 176.938C168.764 177.448 169.164 177.715 169.778 177.715C170.414 177.715 170.836 177.422 170.836 177.034C170.836 176.712 170.592 176.501 170.07 176.387L169.101 176.183C168.01 175.958 167.499 175.41 167.503 174.582C167.499 173.531 168.431 172.858 169.8 172.858C171.132 172.858 171.901 173.472 172.086 174.434ZM174.651 171.038V178.613H173.312V171.038H174.651ZM178.543 178.724C176.831 178.724 175.784 177.589 175.784 175.806C175.784 174.053 176.845 172.858 178.473 172.858C179.871 172.858 181.07 173.735 181.07 175.728V176.139H177.112C177.123 177.112 177.696 177.681 178.562 177.681C179.139 177.681 179.583 177.43 179.764 176.949L181.014 177.089C180.777 178.077 179.867 178.724 178.543 178.724ZM177.115 175.236H179.786C179.779 174.463 179.261 173.901 178.491 173.901C177.692 173.901 177.156 174.511 177.115 175.236ZM184.673 180.862C183.227 180.862 182.409 180.222 182.165 179.427L183.371 179.135C183.534 179.468 183.889 179.849 184.695 179.849C185.457 179.849 186.012 179.505 186.012 178.669V177.593H185.946C185.738 178.01 185.283 178.532 184.311 178.532C183.001 178.532 181.969 177.607 181.969 175.754C181.969 173.886 183.001 172.858 184.314 172.858C185.317 172.858 185.742 173.461 185.946 173.871H186.019V172.932H187.34V178.706C187.34 180.16 186.208 180.862 184.673 180.862ZM184.684 177.482C185.539 177.482 186.019 176.831 186.019 175.747C186.019 174.67 185.546 173.957 184.684 173.957C183.793 173.957 183.334 174.715 183.334 175.747C183.334 176.794 183.8 177.482 184.684 177.482ZM191.227 178.724C189.515 178.724 188.468 177.589 188.468 175.806C188.468 174.053 189.53 172.858 191.157 172.858C192.555 172.858 193.754 173.735 193.754 175.728V176.139H189.796C189.807 177.112 190.38 177.681 191.246 177.681C191.823 177.681 192.267 177.43 192.448 176.949L193.698 177.089C193.462 178.077 192.552 178.724 191.227 178.724ZM189.8 175.236H192.47C192.463 174.463 191.945 173.901 191.176 173.901C190.377 173.901 189.84 174.511 189.8 175.236ZM196.226 175.284V178.613H194.887V172.932H196.166V173.897H196.233C196.492 173.265 197.076 172.858 197.927 172.858C199.1 172.858 199.876 173.635 199.873 174.996V178.613H198.534V175.203C198.534 174.445 198.119 173.99 197.428 173.99C196.721 173.99 196.226 174.463 196.226 175.284Z" fill="#592ACB"/>
<path d="M256.249 171.038V178.613H254.877V171.038H256.249ZM259.015 175.284V178.613H257.676V172.932H258.956V173.897H259.023C259.282 173.265 259.866 172.858 260.717 172.858C261.889 172.858 262.666 173.635 262.662 174.996V178.613H261.323V175.203C261.323 174.445 260.909 173.99 260.217 173.99C259.511 173.99 259.015 174.463 259.015 175.284ZM266.901 172.932V173.968H265.721V178.613H264.382V173.968H263.543V172.932H264.382V172.396C264.382 171.249 265.17 170.683 266.158 170.683C266.62 170.683 267.001 170.779 267.175 170.838L266.905 171.874C266.794 171.841 266.616 171.793 266.406 171.793C265.906 171.793 265.721 172.041 265.721 172.484V172.932H266.901ZM270.214 178.724C268.55 178.724 267.492 177.552 267.492 175.795C267.492 174.034 268.55 172.858 270.214 172.858C271.879 172.858 272.937 174.034 272.937 175.795C272.937 177.552 271.879 178.724 270.214 178.724ZM270.222 177.652C271.128 177.652 271.579 176.831 271.579 175.791C271.579 174.752 271.128 173.92 270.222 173.92C269.301 173.92 268.85 174.752 268.85 175.791C268.85 176.831 269.301 177.652 270.222 177.652ZM279.172 178.724C277.46 178.724 276.413 177.589 276.413 175.806C276.413 174.053 277.474 172.858 279.102 172.858C280.5 172.858 281.698 173.735 281.698 175.728V176.139H277.741C277.752 177.112 278.325 177.681 279.191 177.681C279.768 177.681 280.211 177.43 280.393 176.949L281.643 177.089C281.406 178.077 280.496 178.724 279.172 178.724ZM277.744 175.236H280.415C280.408 174.463 279.89 173.901 279.12 173.901C278.321 173.901 277.785 174.511 277.744 175.236ZM282.831 178.613V172.932H284.17V178.613H282.831ZM283.504 172.126C283.075 172.126 282.728 171.8 282.728 171.401C282.728 170.997 283.075 170.672 283.504 170.672C283.93 170.672 284.277 170.997 284.277 171.401C284.277 171.8 283.93 172.126 283.504 172.126ZM286.886 175.284V178.613H285.547V172.932H286.827V173.897H286.893C287.152 173.265 287.737 172.858 288.587 172.858C289.76 172.858 290.537 173.635 290.533 174.996V178.613H289.194V175.203C289.194 174.445 288.78 173.99 288.088 173.99C287.382 173.99 286.886 174.463 286.886 175.284ZM294.365 180.862C292.919 180.862 292.101 180.222 291.857 179.427L293.063 179.135C293.226 179.468 293.581 179.849 294.387 179.849C295.149 179.849 295.704 179.505 295.704 178.669V177.593H295.637C295.43 178.01 294.975 178.532 294.003 178.532C292.693 178.532 291.661 177.607 291.661 175.754C291.661 173.886 292.693 172.858 294.006 172.858C295.009 172.858 295.434 173.461 295.637 173.871H295.711V172.932H297.032V178.706C297.032 180.16 295.9 180.862 294.365 180.862ZM294.376 177.482C295.231 177.482 295.711 176.831 295.711 175.747C295.711 174.67 295.238 173.957 294.376 173.957C293.485 173.957 293.026 174.715 293.026 175.747C293.026 176.794 293.492 177.482 294.376 177.482ZM300.919 178.724C299.207 178.724 298.16 177.589 298.16 175.806C298.16 174.053 299.222 172.858 300.849 172.858C302.247 172.858 303.446 173.735 303.446 175.728V176.139H299.488C299.499 177.112 300.072 177.681 300.938 177.681C301.515 177.681 301.959 177.43 302.14 176.949L303.39 177.089C303.154 178.077 302.244 178.724 300.919 178.724ZM299.492 175.236H302.162C302.155 174.463 301.637 173.901 300.868 173.901C300.069 173.901 299.532 174.511 299.492 175.236ZM304.638 178.613V171.038H305.977V173.871H306.032C306.236 173.461 306.654 172.858 307.656 172.858C308.969 172.858 310.001 173.886 310.001 175.78C310.001 177.652 308.999 178.713 307.66 178.713C306.683 178.713 306.243 178.133 306.032 177.718H305.954V178.613H304.638ZM305.951 175.773C305.951 176.875 306.432 177.615 307.286 177.615C308.17 177.615 308.636 176.838 308.636 175.773C308.636 174.715 308.177 173.957 307.286 173.957C306.424 173.957 305.951 174.67 305.951 175.773ZM313.655 178.724C311.942 178.724 310.895 177.589 310.895 175.806C310.895 174.053 311.957 172.858 313.584 172.858C314.982 172.858 316.181 173.735 316.181 175.728V176.139H312.223C312.234 177.112 312.808 177.681 313.673 177.681C314.25 177.681 314.694 177.43 314.875 176.949L316.125 177.089C315.889 178.077 314.979 178.724 313.655 178.724ZM312.227 175.236H314.897C314.89 174.463 314.372 173.901 313.603 173.901C312.804 173.901 312.267 174.511 312.227 175.236ZM318.653 175.284V178.613H317.314V172.932H318.593V173.897H318.66C318.919 173.265 319.503 172.858 320.354 172.858C321.527 172.858 322.303 173.635 322.3 174.996V178.613H320.961V175.203C320.961 174.445 320.546 173.99 319.855 173.99C319.148 173.99 318.653 174.463 318.653 175.284Z" fill="#592ACB"/>
<path d="M357.021 178.613H354.454V171.038H357.073C359.329 171.038 360.698 172.459 360.698 174.818C360.698 177.186 359.329 178.613 357.021 178.613ZM355.826 177.426H356.955C358.534 177.426 359.337 176.561 359.337 174.818C359.337 173.084 358.534 172.226 356.995 172.226H355.826V177.426ZM363.577 178.728C362.494 178.728 361.676 178.136 361.676 177.019C361.676 175.739 362.73 175.41 363.833 175.292C364.835 175.185 365.238 175.166 365.238 174.781V174.759C365.238 174.201 364.898 173.883 364.276 173.883C363.622 173.883 363.244 174.215 363.111 174.604L361.861 174.426C362.157 173.391 363.074 172.858 364.269 172.858C365.353 172.858 366.577 173.309 366.577 174.811V178.613H365.29V177.833H365.246C365.001 178.31 364.469 178.728 363.577 178.728ZM363.925 177.744C364.731 177.744 365.242 177.208 365.242 176.575V175.906C365.068 176.046 364.365 176.135 364.014 176.183C363.415 176.268 362.967 176.483 362.967 176.997C362.967 177.489 363.366 177.744 363.925 177.744ZM370.76 172.932V173.968H369.64V176.905C369.64 177.445 369.91 177.563 370.246 177.563C370.413 177.563 370.564 177.53 370.638 177.511L370.864 178.558C370.72 178.606 370.457 178.68 370.076 178.691C369.07 178.721 368.293 178.195 368.301 177.126V173.968H367.494V172.932H368.301V171.571H369.64V172.932H370.76ZM374.334 178.724C372.622 178.724 371.575 177.589 371.575 175.806C371.575 174.053 372.637 172.858 374.264 172.858C375.662 172.858 376.861 173.735 376.861 175.728V176.139H372.903C372.914 177.112 373.487 177.681 374.353 177.681C374.93 177.681 375.374 177.43 375.555 176.949L376.805 177.089C376.569 178.077 375.659 178.724 374.334 178.724ZM372.907 175.236H375.577C375.57 174.463 375.052 173.901 374.283 173.901C373.484 173.901 372.947 174.511 372.907 175.236ZM379.333 175.284V178.613H377.994V172.932H379.273V173.897H379.34C379.599 173.265 380.183 172.858 381.034 172.858C382.207 172.858 382.983 173.635 382.98 174.996V178.613H381.641V175.203C381.641 174.445 381.226 173.99 380.535 173.99C379.828 173.99 379.333 174.463 379.333 175.284ZM385.68 171.038V178.613H384.341V171.038H385.68ZM389.572 178.724C387.859 178.724 386.813 177.589 386.813 175.806C386.813 174.053 387.874 172.858 389.502 172.858C390.9 172.858 392.098 173.735 392.098 175.728V176.139H388.14C388.152 177.112 388.725 177.681 389.59 177.681C390.167 177.681 390.611 177.43 390.792 176.949L392.043 177.089C391.806 178.077 390.896 178.724 389.572 178.724ZM388.144 175.236H390.815C390.807 174.463 390.289 173.901 389.52 173.901C388.721 173.901 388.185 174.511 388.144 175.236ZM394.866 178.728C393.782 178.728 392.965 178.136 392.965 177.019C392.965 175.739 394.019 175.41 395.121 175.292C396.123 175.185 396.527 175.166 396.527 174.781V174.759C396.527 174.201 396.186 173.883 395.565 173.883C394.91 173.883 394.533 174.215 394.4 174.604L393.15 174.426C393.445 173.391 394.363 172.858 395.558 172.858C396.641 172.858 397.866 173.309 397.866 174.811V178.613H396.578V177.833H396.534C396.29 178.31 395.757 178.728 394.866 178.728ZM395.214 177.744C396.02 177.744 396.53 177.208 396.53 176.575V175.906C396.356 176.046 395.654 176.135 395.302 176.183C394.703 176.268 394.256 176.483 394.256 176.997C394.256 177.489 394.655 177.744 395.214 177.744ZM399.212 178.613V171.038H400.551V175.214H400.643L402.685 172.932H404.25L402.049 175.384L404.379 178.613H402.778L401.039 176.183L400.551 176.705V178.613H399.212ZM409.633 174.434L408.412 174.567C408.308 174.193 407.983 173.857 407.365 173.857C406.807 173.857 406.381 174.123 406.385 174.508C406.381 174.837 406.611 175.037 407.188 175.166L408.157 175.373C409.229 175.606 409.751 176.102 409.755 176.912C409.751 177.988 408.749 178.724 407.328 178.724C405.934 178.724 405.057 178.107 404.891 177.064L406.196 176.938C406.311 177.448 406.71 177.715 407.324 177.715C407.961 177.715 408.382 177.422 408.382 177.034C408.382 176.712 408.138 176.501 407.617 176.387L406.648 176.183C405.556 175.958 405.046 175.41 405.05 174.582C405.046 173.531 405.978 172.858 407.347 172.858C408.678 172.858 409.448 173.472 409.633 174.434ZM416.32 172.932V173.968H415.14V178.613H413.801V173.968H412.961V172.932H413.801V172.396C413.801 171.249 414.589 170.683 415.577 170.683C416.039 170.683 416.42 170.779 416.594 170.838L416.324 171.874C416.213 171.841 416.035 171.793 415.824 171.793C415.325 171.793 415.14 172.041 415.14 172.484V172.932H416.32ZM417.369 178.613V172.932H418.708V178.613H417.369ZM418.042 172.126C417.613 172.126 417.265 171.8 417.265 171.401C417.265 170.997 417.613 170.672 418.042 170.672C418.467 170.672 418.815 170.997 418.815 171.401C418.815 171.8 418.467 172.126 418.042 172.126ZM421.424 175.284V178.613H420.085V172.932H421.364V173.897H421.431C421.69 173.265 422.274 172.858 423.125 172.858C424.298 172.858 425.074 173.635 425.071 174.996V178.613H423.732V175.203C423.732 174.445 423.317 173.99 422.626 173.99C421.919 173.99 421.424 174.463 421.424 175.284ZM428.54 178.713C427.201 178.713 426.199 177.652 426.199 175.78C426.199 173.886 427.231 172.858 428.544 172.858C429.546 172.858 429.964 173.461 430.168 173.871H430.223V171.038H431.566V178.613H430.249V177.718H430.168C429.957 178.133 429.517 178.713 428.54 178.713ZM428.914 177.615C429.768 177.615 430.249 176.875 430.249 175.773C430.249 174.67 429.775 173.957 428.914 173.957C428.022 173.957 427.564 174.715 427.564 175.773C427.564 176.838 428.03 177.615 428.914 177.615ZM435.508 178.724C433.795 178.724 432.748 177.589 432.748 175.806C432.748 174.053 433.81 172.858 435.437 172.858C436.836 172.858 438.034 173.735 438.034 175.728V176.139H434.076C434.087 177.112 434.661 177.681 435.526 177.681C436.103 177.681 436.547 177.43 436.728 176.949L437.979 177.089C437.742 178.077 436.832 178.724 435.508 178.724ZM434.08 175.236H436.751C436.743 174.463 436.225 173.901 435.456 173.901C434.657 173.901 434.121 174.511 434.08 175.236ZM440.506 175.284V178.613H439.167V172.932H440.447V173.897H440.513C440.772 173.265 441.357 172.858 442.207 172.858C443.38 172.858 444.157 173.635 444.153 174.996V178.613H442.814V175.203C442.814 174.445 442.4 173.99 441.708 173.99C441.001 173.99 440.506 174.463 440.506 175.284Z" fill="#592ACB"/>
</g>
</g>
<defs>
<filter id="filter0_d_5_2047" x="34.0979" y="38.0653" width="531.625" height="381.858" filterUnits="userSpaceOnUse" color-interpolation-filters="sRGB">
<feFlood flood-opacity="0" result="BackgroundImageFix"/>
<feColorMatrix in="SourceAlpha" type="matrix" values="0 0 0 0 0 0 0 0 0 0 0 0 0 0 0 0 0 0 127 0" result="hardAlpha"/>
<feOffset dy="3.96735"/>
<feGaussianBlur stdDeviation="5.95103"/>
<feComposite in2="hardAlpha" operator="out"/>
<feColorMatrix type="matrix" values="0 0 0 0 0 0 0 0 0 0 0 0 0 0 0 0 0 0 0.08 0"/>
<feBlend mode="normal" in2="BackgroundImageFix" result="effect1_dropShadow_5_2047"/>
<feBlend mode="normal" in="SourceGraphic" in2="effect1_dropShadow_5_2047" result="shape"/>
</filter>
<radialGradient id="paint0_radial_5_2047" cx="0" cy="0" r="1" gradientUnits="userSpaceOnUse" gradientTransform="translate(179.224 311.895) rotate(153.798) scale(101.429 80.3648)">
<stop stop-color="#9D62FC"/>
<stop offset="1" stop-color="#FD3296"/>
</radialGradient>
<clipPath id="clip0_5_2047">
<rect x="46" y="46" width="507.821" height="358.053" rx="5.95103" fill="white"/>
</clipPath>
</defs>
</svg>
