<svg width="1074" height="577" viewBox="0 0 1074 577" fill="none" xmlns="http://www.w3.org/2000/svg">
<g clip-path="url(#clip0_316_1744)">
<path opacity="0.05" d="M347.8 513.487C167.995 536.185 28.4318 522.756 -43 482.06V788.835C48.7371 828.12 175.855 831.173 251.782 828.12C382.049 822.882 768.568 729.472 927.579 746.059C1019.2 755.616 1046.23 762.645 1116.56 788.835V482.06C1020.66 442.252 900.873 438.701 852.966 441.902C696.964 450.418 515.985 487.298 347.8 513.487Z" fill="#C689FF"/>
<path fill-rule="evenodd" clip-rule="evenodd" d="M588.915 579.844C585.451 532.22 599.472 500.362 630.979 484.27C678.239 460.131 687.405 495.963 759.038 501.587C806.794 505.336 827.48 531.422 821.097 579.844H588.915Z" fill="#E7E7E7"/>
<path fill-rule="evenodd" clip-rule="evenodd" d="M809.729 577H1074C1034.46 399.667 998.623 311 966.491 311C918.295 311 900.65 366.21 874.213 387.533C847.775 408.855 832.404 418.27 789.177 402.901C745.951 387.533 656 394.05 656 445.552C656 479.887 668.641 523.647 693.923 576.832L809.729 577Z" fill="#E7DFFF"/>
</g>
<defs>
<clipPath id="clip0_316_1744">
<rect width="1074" height="577" fill="white"/>
</clipPath>
</defs>
</svg>
