<svg width="143" height="143" viewBox="0 0 143 143" fill="none" xmlns="http://www.w3.org/2000/svg">
<g clip-path="url(#clip0_1564_75570)">
<path d="M13.2656 116.65V67.6079" stroke="#010101" stroke-width="2.0028" stroke-linecap="round" stroke-linejoin="round"/>
<path d="M7.12988 116.65H37.7861" stroke="#010101" stroke-width="2.0028" stroke-linecap="round" stroke-linejoin="round"/>
<path d="M1.00098 141.177H141.998" stroke="#010101" stroke-width="2.0028" stroke-linecap="round" stroke-linejoin="round"/>
<path d="M1.00098 128.914H141.998" stroke="#010101" stroke-width="2.0028" stroke-linecap="round" stroke-linejoin="round"/>
<path d="M7.12988 67.6079H37.7861" stroke="#010101" stroke-width="2.0028" stroke-linecap="round" stroke-linejoin="round"/>
<path d="M56.1719 116.65H86.8281" stroke="#010101" stroke-width="2.0028" stroke-linecap="round" stroke-linejoin="round"/>
<path d="M56.1719 67.6079H86.8281" stroke="#010101" stroke-width="2.0028" stroke-linecap="round" stroke-linejoin="round"/>
<path d="M31.6504 116.65V67.6079" stroke="#010101" stroke-width="2.0028" stroke-linecap="round" stroke-linejoin="round"/>
<path d="M62.3066 116.65V67.6079" stroke="#010101" stroke-width="2.0028" stroke-linecap="round" stroke-linejoin="round"/>
<path d="M80.6992 116.65V67.6079" stroke="#010101" stroke-width="2.0028" stroke-linecap="round" stroke-linejoin="round"/>
<path d="M105.221 116.65H135.87" stroke="#010101" stroke-width="2.0028" stroke-linecap="round" stroke-linejoin="round"/>
<path d="M105.221 67.6079H135.87" stroke="#010101" stroke-width="2.0028" stroke-linecap="round" stroke-linejoin="round"/>
<path d="M111.349 116.65V67.6079" stroke="#010101" stroke-width="2.0028" stroke-linecap="round" stroke-linejoin="round"/>
<path d="M129.741 116.65V67.6079" stroke="#010101" stroke-width="2.0028" stroke-linecap="round" stroke-linejoin="round"/>
<path d="M8.02486 49.8632C6.68966 50.898 6.44265 52.8273 7.4841 54.1625C8.06491 54.9102 8.9595 55.3509 9.90749 55.3509H133.126C134.822 55.3509 136.197 53.9889 136.197 52.2932C136.197 51.3453 135.764 50.4507 135.022 49.8699L73.5765 1.64908C72.4683 0.781199 70.9128 0.781199 69.7979 1.64908L8.02486 49.8632Z" stroke="#010101" stroke-width="2.0028" stroke-linecap="round" stroke-linejoin="round"/>
</g>
<defs>
<clipPath id="clip0_1564_75570">
<rect width="143" height="142.179" fill="white"/>
</clipPath>
</defs>
</svg>
