<svg width="24" height="24" viewBox="0 0 24 24" fill="none" xmlns="http://www.w3.org/2000/svg">
<path d="M12.9962 6.5C12.9962 6.5 13.4242 8.93 14.2452 9.751C15.0662 10.572 17.4962 11 17.4962 11C17.4962 11 15.0662 11.394 14.2452 12.215C13.4242 13.036 12.9962 15.5 12.9962 15.5C12.9962 15.5 12.6022 13.036 11.7812 12.215C10.9602 11.394 8.4962 11 8.4962 11C8.4962 11 10.9602 10.572 11.7812 9.751C12.6022 8.93 12.9962 6.5 12.9962 6.5ZM12.9962 4.5H12.9822C12.5097 4.50336 12.0536 4.67392 11.6949 4.98144C11.3361 5.28895 11.0978 5.71356 11.0222 6.18C10.9117 6.92696 10.6895 7.65307 10.3632 8.334C9.66434 8.67492 8.91897 8.9108 8.1512 9.034C7.6851 9.11555 7.263 9.35972 6.95994 9.72312C6.65687 10.0865 6.49247 10.5456 6.49595 11.0188C6.49943 11.4919 6.67056 11.9486 6.97894 12.3075C7.28731 12.6664 7.71295 12.9043 8.1802 12.979C8.93638 13.0893 9.67205 13.311 10.3632 13.637C10.6893 14.3288 10.911 15.0652 11.0212 15.822C11.0973 16.2887 11.3364 16.7134 11.696 17.0206C12.0555 17.3278 12.5123 17.4977 12.9852 17.5H12.9962C13.4673 17.5001 13.9233 17.334 14.2838 17.0309C14.6444 16.7278 14.8864 16.3071 14.9672 15.843C15.0906 15.0762 15.3264 14.3319 15.6672 13.634C16.3483 13.3081 17.0743 13.086 17.8212 12.975C18.2878 12.8994 18.7125 12.6611 19.0201 12.3022C19.3277 11.9433 19.4982 11.4871 19.5014 11.0144C19.5047 10.5418 19.3404 10.0832 19.0378 9.72017C18.7352 9.35709 18.3137 9.11294 17.8482 9.031C17.0903 8.9078 16.3552 8.67185 15.6672 8.331C15.3269 7.64279 15.0909 6.90773 14.9672 6.15C14.8849 5.6872 14.6423 5.26816 14.2819 4.96643C13.9214 4.6647 13.4663 4.49956 12.9962 4.5V4.5ZM6.4962 19C6.37793 18.9991 6.2638 18.9563 6.17408 18.8793C6.08437 18.8022 6.02489 18.6958 6.0062 18.579C5.95638 18.1602 5.82017 17.7564 5.6062 17.393C5.24281 17.179 4.83896 17.0428 4.4202 16.993C4.30355 16.9741 4.19735 16.9146 4.12043 16.8249C4.04351 16.7352 4.00085 16.6211 4.00001 16.503C3.99917 16.3848 4.04021 16.2702 4.11585 16.1794C4.19148 16.0886 4.29683 16.0275 4.4132 16.007C4.83463 15.95 5.24013 15.8081 5.6052 15.59C5.81712 15.2311 5.95326 14.8326 6.0052 14.419C6.02434 14.3024 6.08416 14.1964 6.17403 14.1197C6.26391 14.043 6.37805 14.0006 6.4962 14C6.61366 14.0001 6.72734 14.0415 6.8173 14.117C6.90726 14.1926 6.96777 14.2973 6.9882 14.413C7.0455 14.8303 7.1874 15.2315 7.4052 15.592C7.76607 15.8081 8.16665 15.9496 8.5832 16.008C8.69895 16.0291 8.80355 16.0904 8.8786 16.181C8.95364 16.2716 8.99432 16.3858 8.99349 16.5034C8.99265 16.6211 8.95035 16.7347 8.87402 16.8242C8.7977 16.9138 8.69224 16.9735 8.5762 16.993C8.16201 17.0436 7.76289 17.1798 7.4042 17.393C7.18692 17.7584 7.04544 18.1638 6.9882 18.585C6.96819 18.701 6.90786 18.8063 6.81786 18.8822C6.72786 18.9581 6.61395 18.9998 6.4962 19ZM5.9962 8C5.87807 7.99916 5.76406 7.95652 5.67437 7.87964C5.58468 7.80276 5.5251 7.69661 5.5062 7.58C5.46931 7.29264 5.37945 7.01461 5.2412 6.76C4.9866 6.62175 4.70856 6.5319 4.4212 6.495C4.30455 6.47614 4.19835 6.41658 4.12143 6.32687C4.04451 6.23717 4.00185 6.12312 4.00101 6.00496C4.00017 5.88679 4.04121 5.77215 4.11685 5.68137C4.19248 5.59058 4.29783 5.52951 4.4142 5.509C4.70442 5.46773 4.98468 5.37386 5.2412 5.232C5.37829 4.97999 5.46714 4.70461 5.5032 4.42C5.52219 4.30288 5.5822 4.19633 5.67251 4.11939C5.76283 4.04245 5.87756 4.00013 5.9962 4C6.11352 4.00005 6.22708 4.04134 6.31702 4.11666C6.40696 4.19197 6.46756 4.29652 6.4882 4.412C6.52959 4.69949 6.62384 4.97683 6.7662 5.23C7.01908 5.37103 7.29564 5.46457 7.5822 5.506C7.69795 5.52711 7.80255 5.58836 7.8776 5.67898C7.95264 5.7696 7.99332 5.88378 7.99249 6.00144C7.99165 6.1191 7.94935 6.23269 7.87302 6.32223C7.7967 6.41178 7.69124 6.47154 7.5752 6.491C7.29067 6.52843 7.01563 6.61864 6.7642 6.757C6.62234 7.01353 6.52847 7.29378 6.4872 7.584C6.46743 7.70005 6.40734 7.80539 6.31752 7.88149C6.22771 7.95759 6.11392 7.99955 5.9962 8V8Z" fill="white"/>
</svg>
