<svg width="119" height="96" viewBox="0 0 119 96" fill="none" xmlns="http://www.w3.org/2000/svg">
<g opacity="0.5">
<path fill-rule="evenodd" clip-rule="evenodd" d="M52 5.0001C67.6219 4.09364 81.0002 16.0665 90 29.0001C98.2864 40.9085 101.854 56.2942 97 70.0001C92.6489 82.2846 80.0952 87.4303 68 92.0001C57.6668 95.9042 46.5502 96.2582 36 93.0001C22.123 88.7147 4.94764 85.1087 0.999988 71.0001C-3.022 56.6258 9.88562 44.7613 19 33.0001C28.2788 21.0267 36.974 5.87199 52 5.0001Z" fill="#D9BFFF"/>
</g>
<path d="M48 17C48.0452 17.9209 48.0019 18.3593 48 20C47.9995 20.1435 48 19.8563 48 20C47.9991 21.3063 47.9622 22.1623 48 23C48.0186 23.4161 48.4855 24.0151 49 24C49.5145 23.9849 50.0186 23.4161 50 23C49.9636 22.1857 49.9991 21.289 50 20C49.9995 20.1435 50 19.8567 50 20C50.0019 18.3391 50.0461 17.9478 50 17C49.9795 16.584 49.5141 15.9836 49 16C48.4855 16.0165 47.9795 16.584 48 17Z" fill="#FCD400"/>
<path d="M46 21C46.439 21.0271 47.3532 20.9796 48 21C47.8496 20.9954 48.083 21.0027 48 21C49.3307 21.0411 49.2958 20.928 50 21C50.421 21.0431 50.9621 20.4803 51 20C51.0375 19.5198 50.4214 19.0431 50 19C49.2533 18.9236 49.3628 19.0421 48 19C47.85 18.9955 48.083 19.0027 48 19C47.3658 18.98 46.4225 19.0261 46 19C45.5779 18.9741 45.0226 19.5186 45 20C44.977 20.4815 45.5779 20.9741 46 21Z" fill="#FCD400"/>
<path d="M98 57C98.5859 56.9718 98.9436 56.9728 100 57C99.9072 56.9981 100.166 57.0048 100 57C100.838 57.0206 101.423 57.0316 102 57C102.44 56.9756 103.02 56.5281 103 56C102.98 55.4725 102.439 54.9761 102 55C101.466 55.0297 100.806 55.0196 100 55C99.9084 54.9976 100.165 55.0048 100 55C98.911 54.9718 98.6298 54.9694 98 55C97.5606 55.0211 96.9825 55.472 97 56C97.0175 56.5281 97.5602 57.0216 98 57Z" fill="#EAF3F3"/>
<path d="M102 59.0001C102.01 58.5947 101.996 57.5786 102 57.0001C101.999 57.178 102 56.9012 102 57.0001C102.008 55.6573 101.96 55.7116 102 55.0001C102.025 54.5622 101.524 54.0208 101 54.0001C100.476 53.9795 100.025 54.5618 100 55.0001C99.9582 55.7418 100.008 55.6347 100 57.0001C99.999 57.178 100 56.9016 100 57.0001C99.9962 57.5707 100.01 58.6051 100 59.0001C99.9886 59.4384 100.476 59.991 101 60.0001C101.524 60.0096 101.989 59.4384 102 59.0001Z" fill="#EAF3F3"/>
<path d="M92 8.00011C92.0252 8.47446 91.9472 9.26897 92 10.0001C91.9927 9.89701 92.0077 10.1033 92 10.0001C92.1297 11.7853 92 12 92 13.0001C92 13.4205 92.5512 14.0001 93 14.0001C93.4492 14.0001 94 13.4205 94 13.0001C94 11.9542 94.1321 11.8194 94 10.0001C93.9927 9.89704 94.0077 10.1031 94 10.0001C93.948 9.27731 94.0248 8.46319 94 8.00011C93.9772 7.58023 93.4483 6.97906 93 7.00011C92.5516 7.02112 91.9772 7.58027 92 8.00011Z" fill="#90BFFF"/>
<path d="M91 11C91.8127 11.1011 91.5599 11.0991 93 11C93.3376 10.9768 93.8123 11.0107 94 11C94.3633 10.9792 94.713 11 95 11C95.4303 11 96 10.4856 96 10C96 9.5144 95.4303 9.00002 95 9.00002C94.6834 9.00002 94.3871 8.97786 94 9.00002C93.8053 9.01114 93.3431 8.97646 93 9.00002C91.6491 9.09292 91.6943 9.08645 91 9.00002C90.5724 8.94683 90.0471 9.51735 90 10C89.9529 10.4827 90.5724 10.9468 91 11Z" fill="#90BFFF"/>
<path d="M23 78.0001C23.0252 78.4743 22.9468 79.269 23 80.0001C22.9927 79.8973 23.0073 80.1036 23 80.0001C23.1297 81.7855 23 81.9999 23 83.0001C23 83.4203 23.5513 84.0001 24 84.0001C24.4491 84.0001 25 83.4203 25 83.0001C25 81.9542 25.1321 81.8193 25 80.0001C24.9927 79.897 25.0077 80.1029 25 80.0001C24.948 79.2774 25.0248 78.4633 25 78.0001C24.9777 77.5803 24.4487 76.9792 24 77.0001C23.5517 77.0214 22.9777 77.5803 23 78.0001Z" fill="#90BFFF"/>
<path d="M22 82.0001C22.8123 82.1009 22.56 82.0991 24 82.0001C24.1982 81.9865 24.889 82.0071 25 82.0001C25.5062 81.9672 25.6433 82.0001 26 82.0001C26.4299 82.0001 27 81.4845 27 81.0001C27 80.5157 26.4299 80.0001 26 80.0001C25.6079 80.0001 25.5331 79.9654 25 80.0001C24.8867 80.0071 24.2002 79.986 24 80.0001C22.6492 80.0926 22.6943 80.0864 22 80.0001C21.5724 79.947 21.0471 80.5187 21 81.0001C20.9529 81.4814 21.5724 81.947 22 82.0001Z" fill="#90BFFF"/>
<path fill-rule="evenodd" clip-rule="evenodd" d="M100 38C100.058 38.9269 101.922 38.925 102 38C102.181 35.8521 102.59 35.1319 104 35C103.882 35.0079 104.113 34.9981 104 35C104.937 34.935 104.939 33 104 33C103.876 33 104.12 32.9906 104 33C102.5 33.0124 102.337 33.8131 102 32C101.984 31.916 102.04 31.2214 102 31C101.963 30.7956 102.025 31.1281 102 31C101.829 30.1356 100.045 30.1191 100 31C99.9931 31.13 100.007 30.775 100 31C99.9913 31.3035 100.016 31.8456 100 32C99.9618 32.3743 100.194 31.6501 100 32C99.6577 32.6161 99.0233 33.0173 98 33C97.0641 32.9846 97.0677 34.9136 98 35C99.2101 35.1123 98.8605 35.7246 99 36C99.4275 36.8585 99.9392 37.0311 100 38ZM104 33C103.898 33.0071 104.094 32.9989 104 33C103.913 32.9651 104.112 32.9985 104 33ZM104 35C103.906 35 104.088 34.9925 104 35C103.921 35.0383 104.103 34.9914 104 35ZM100 34C100.302 33.7802 100.795 33.3175 101 33C101.22 33.4054 101.66 33.7554 102 34C101.696 34.2814 101.218 35.6063 101 36C100.929 35.8328 101.081 35.1627 101 35C100.863 34.7295 100.254 34.1901 100 34Z" fill="#FCD400"/>
<path fill-rule="evenodd" clip-rule="evenodd" d="M15 57C15.9376 56.9361 15.9398 55 15 55C14.8776 55 15.118 54.9906 15 55C13.4903 55.0128 13.339 55.8282 13 54C12.9851 53.92 13.0379 53.2097 13 53C12.9628 52.7945 13.0251 53.1281 13 53C12.8296 52.1355 11.0451 52.1189 11 53C10.9934 53.1296 11.0065 52.7761 11 53C10.9916 53.2979 11.0149 53.8482 11 54C10.9625 54.3806 11.1952 53.6472 11 54C10.657 54.6162 10.0203 55.0207 8.99999 55C8.0638 54.9816 8.0678 56.9113 8.99999 57C10.2118 57.1157 9.86053 57.725 9.99999 58C10.426 58.8585 10.9381 59.0307 11 60C11.0597 60.9261 12.9217 60.9243 13 60C13.1813 57.8498 13.5868 57.1296 15 57C15.1107 56.9981 14.8838 57.0079 15 57ZM15 55C14.8999 55.0068 15.0928 54.9989 15 55C14.9141 54.9662 15.11 54.9985 15 55ZM15 57C14.9075 57 15.087 56.9929 15 57C14.9217 57.0368 15.1016 56.9917 15 57ZM11 56C11.3015 55.7802 11.795 55.3179 12 55C12.2196 55.4058 12.6599 55.7558 13 56C12.6959 56.2818 12.2181 57.6059 12 58C11.9297 57.8328 12.0808 57.1623 12 57C11.8627 56.7287 11.2542 56.1905 11 56Z" fill="#EAF3F3"/>
<path d="M61 10.0001C61 9.5188 60.5525 9.00006 60 9.00006C59.448 9.00006 59 9.5188 59 10.0001C59 10.4814 59.448 11.0001 60 11.0001C60.5525 11.0001 61 10.4814 61 10.0001Z" fill="#90BFFF"/>
<path d="M117 49.0001C117 48.5186 116.552 48.0001 116 48.0001C115.447 48.0001 115 48.5186 115 49.0001C115 49.4815 115.447 50.0001 116 50.0001C116.552 50.0001 117 49.4815 117 49.0001Z" fill="#90BFFF"/>
<path d="M114 21.0001C114 20.5177 113.552 20.0001 113 20.0001C112.447 20.0001 112 20.5177 112 21.0001C112 21.4824 112.447 22.0001 113 22.0001C113.552 22.0001 114 21.4824 114 21.0001Z" fill="#EAF3F3"/>
<path d="M119 29.0001C119 28.5188 118.552 28.0001 118 28.0001C117.447 28.0001 117 28.5188 117 29.0001C117 29.4814 117.447 30.0001 118 30.0001C118.552 30.0001 119 29.4814 119 29.0001Z" fill="#4E6AF0"/>
<path d="M109 4.00006C109 3.51875 108.553 3.00006 108 3.00006C107.447 3.00006 107 3.51875 107 4.00006C107 4.48137 107.447 5.00006 108 5.00006C108.553 5.00006 109 4.48137 109 4.00006Z" fill="#FCD400"/>
<path d="M7 66.0001C7 65.5175 6.552 65.0001 6 65.0001C5.4475 65.0001 5 65.5175 5 66.0001C5 66.4826 5.4475 67.0001 6 67.0001C6.552 67.0001 7 66.4826 7 66.0001Z" fill="#FCD400"/>
<path d="M33 24.0001C33 23.4851 32.5525 23.0001 32 23.0001C31.448 23.0001 31 23.4851 31 24.0001C31 24.515 31.448 25.0001 32 25.0001C32.5525 25.0001 33 24.515 33 24.0001Z" fill="#EAF3F3"/>
<path d="M38 5.00006C38 4.48629 37.5525 4.00006 37 4.00006C36.448 4.00006 36 4.48629 36 5.00006C36 5.51383 36.448 6.00006 37 6.00006C37.5525 6.00006 38 5.51383 38 5.00006Z" fill="#4E6AF0"/>
<path d="M84 12.0001C84 11.5474 83.5525 11.0001 83 11.0001C82.448 11.0001 82 11.5474 82 12.0001C82 12.4528 82.448 13.0001 83 13.0001C83.5525 13.0001 84 12.4528 84 12.0001Z" fill="#EAF3F3"/>
<path d="M76 1.00006C76 0.517747 75.5525 6.10352e-05 75 6.10352e-05C74.448 6.10352e-05 74 0.517747 74 1.00006C74 1.48242 74.448 2.00006 75 2.00006C75.5525 2.00006 76 1.48242 76 1.00006Z" fill="#FCD400"/>
<path d="M110 77.0001C110 76.5186 109.553 76.0001 109 76.0001C108.447 76.0001 108 76.5186 108 77.0001C108 77.4811 108.447 78.0001 109 78.0001C109.553 78.0001 110 77.4811 110 77.0001Z" fill="#FCD400"/>
<path d="M18 38.0001C18 37.5023 17.5525 37.0001 17 37.0001C16.448 37.0001 16 37.5023 16 38.0001C16 38.4978 16.448 39.0001 17 39.0001C17.5525 39.0001 18 38.4978 18 38.0001Z" fill="#90BFFF"/>
<path d="M104 67.0001C104 66.5023 103.552 66.0001 103 66.0001C102.447 66.0001 102 66.5023 102 67.0001C102 67.4974 102.447 68.0001 103 68.0001C103.552 68.0001 104 67.4974 104 67.0001Z" fill="#4E6AF0"/>
<path d="M25 61.0001C25 60.5012 24.552 60.0001 24 60.0001C23.4475 60.0001 23 60.5012 23 61.0001C23 61.4989 23.4475 62.0001 24 62.0001C24.552 62.0001 25 61.4989 25 61.0001Z" fill="#4E6AF0"/>
<path d="M95 47.0001C95 46.5023 94.5525 46.0001 94 46.0001C93.4475 46.0001 93 46.5023 93 47.0001C93 47.4974 93.4475 48.0001 94 48.0001C94.5525 48.0001 95 47.4974 95 47.0001Z" fill="#EAF3F3"/>
<path d="M10 77.0001C10 76.5023 9.552 76.0001 9 76.0001C8.4475 76.0001 8 76.5023 8 77.0001C8 77.4974 8.4475 78.0001 9 78.0001C9.552 78.0001 10 77.4974 10 77.0001Z" fill="#EAF3F3"/>
<path d="M93 21.0001H59C57.4343 21.0001 56 22.4563 56 24.0001V47.0001C56 48.5438 57.4343 50.0001 59 50.0001H93C94.5657 50.0001 96 48.5438 96 47.0001V24.0001C96 22.4563 94.5657 21.0001 93 21.0001Z" fill="#140B28"/>
<path d="M91 19.0001H57C55.4343 19.0001 54 20.4563 54 22.0001V45.0001C54 46.5438 55.4343 48.0001 57 48.0001H91C92.5657 48.0001 94 46.5438 94 45.0001V22.0001C94 20.4563 92.5657 19.0001 91 19.0001Z" fill="white"/>
<path d="M91 19.0001H57C55.3717 19.0001 54 20.3432 54 22.0001V46.0001C54 47.6569 55.3717 49.0001 57 49.0001H91C92.6283 49.0001 94 47.6569 94 46.0001V22.0001C94 20.3432 92.6283 19.0001 91 19.0001ZM57 19.0001H91C92.4825 19.0001 94 20.4916 94 22.0001V46.0001C94 47.5085 92.4825 49.0001 91 49.0001H57C55.5175 49.0001 54 47.5085 54 46.0001V22.0001C54 20.4916 55.5175 19.0001 57 19.0001Z" fill="#140B28"/>
<path d="M58 43.0001H89C89.2943 43.0001 90 42.2866 90 42.0001V31.0001C90 30.7135 89.2943 30.0001 89 30.0001H58C57.7057 30.0001 57 30.7135 57 31.0001V42.0001C57 42.2866 57.7057 43.0001 58 43.0001Z" fill="#F770FF"/>
<path d="M87 33H59V34H87V33Z" fill="white"/>
<path d="M87 37H59V38H87V37Z" fill="white"/>
<path d="M81 40H59V41H81V40Z" fill="white"/>
<path fill-rule="evenodd" clip-rule="evenodd" d="M58 28.0001H61C61.304 28.0001 62 27.3041 62 27.0001V24.0001C62 23.696 61.304 23.0001 61 23.0001H58C57.6959 23.0001 57 23.696 57 24.0001V27.0001C57 27.3041 57.6959 28.0001 58 28.0001Z" fill="#9059FF"/>
<path d="M68 23.0001C68.7212 22.7657 69.544 23.4815 70 24.0001C70.254 24.2889 70.1715 24.6373 70 25.0001C69.8502 25.3169 69.4712 25.6421 69 26.0001C68.8105 26.144 68.2442 25.8457 68 26.0001C68.7185 26.5398 70.1524 26.2093 71 26.0001C70.5563 26.1716 71.2573 25.9329 71 26.0001H72C72.8119 25.6848 73.4349 25.0657 74 25.0001C74.7849 24.909 75.2232 25.6086 76 26.0001C79.3553 27.6911 81.5095 27.9053 84 27.0001C83.9493 26.8647 84.1375 26.9501 84 27.0001C84.0507 27.1355 84.1375 26.9501 84 27.0001C82.6064 27.5066 81.2377 28.1881 80 28.0001C78.8572 27.8156 77.7312 26.8725 76 26.0001C75.3185 25.6566 74.6823 25.9209 74 26.0001C73.5036 26.0624 72.7716 25.6994 72 26.0001V27.0001C71.4965 27.195 71.3119 26.921 71 27.0001C69.9907 27.2559 68.8636 26.6488 68 26.0001C67.9472 25.9604 68.0535 26.0471 68 26.0001C67.1551 26.4806 65.3265 27.4247 64 28.0001C63.8658 28.0581 64.0589 28.1322 64 28.0001C63.9411 27.8679 63.8658 27.0581 64 27.0001C65.2556 26.4539 66.1961 26.4532 67 26.0001C66.7158 25.666 67.1018 25.3099 67 25.0001C66.7416 24.1707 67.2043 23.2586 68 23.0001ZM69 24.0001C68.6959 23.6543 68.531 23.8275 68 24.0001C67.4617 24.175 66.8325 24.4627 67 25.0001C67.0797 25.2559 67.7372 25.7 68 26.0001C68.2672 25.8352 68.7992 25.151 69 25.0001C69.7765 24.4102 69.2326 24.2646 69 24.0001Z" fill="#9059FF"/>
<path d="M70 32.0001H18C15.6514 32.0001 14 33.6578 14 36.0001V72.0001C14 74.3423 15.6514 76.0001 18 76.0001H70C72.3486 76.0001 74 74.3423 74 72.0001V36.0001C74 33.6578 72.3486 32.0001 70 32.0001Z" fill="#140B28"/>
<path d="M67 30.0001H15C12.6514 30.0001 11 31.6578 11 34.0001V70.0001C11 72.3423 12.6514 74.0001 15 74.0001H67C69.3486 74.0001 71 72.3423 71 70.0001V34.0001C71 31.6578 69.3486 30.0001 67 30.0001Z" fill="white"/>
<path d="M67 30.0001H15C12.5576 30.0001 11 31.57 11 34.0001V70.0001C11 72.4301 12.5576 74.0001 15 74.0001H67C69.4424 74.0001 71 72.4301 71 70.0001V34.0001C71 31.57 69.4424 30.0001 67 30.0001ZM15 30.0001H67C69.2237 30.0001 71 31.7876 71 34.0001V70.0001C71 72.2125 69.2237 74.0001 67 74.0001H15C12.7763 74.0001 11 72.2125 11 70.0001V34.0001C11 31.7876 12.7763 30.0001 15 30.0001Z" fill="#140B28"/>
<path d="M17 67.0001H64C64.437 67.0001 65 66.4409 65 66.0001V48.0001C65 47.5592 64.437 47.0001 64 47.0001H17C16.563 47.0001 16 47.5592 16 48.0001V66.0001C16 66.4409 16.563 67.0001 17 67.0001Z" fill="#F770FF"/>
<path d="M59 51H20C19.692 51 19 50.7867 19 51V52C19 52.2134 19.692 52 20 52H59C59.308 52 60 52.2134 60 52V51C60 50.7867 59.308 51 59 51Z" fill="white"/>
<path d="M59 56H20C19.692 56 19 55.7867 19 56V57C19 57.2134 19.692 57 20 57H59C59.308 57 60 57.2134 60 57V56C60 55.7867 59.308 56 59 56Z" fill="white"/>
<path d="M51 61H20C19.6845 61 19 60.7867 19 61V62C19 62.2134 19.6845 62 20 62H51C51.3155 62 52 62.2134 52 62V61C52 60.7867 51.3155 61 51 61Z" fill="white"/>
<path fill-rule="evenodd" clip-rule="evenodd" d="M17 43.0001H22C22.4257 43.0001 23 42.4258 23 42.0001V37.0001C23 36.5744 22.4257 36.0001 22 36.0001H17C16.5743 36.0001 16 36.5744 16 37.0001V42.0001C16 42.4258 16.5743 43.0001 17 43.0001Z" fill="#9059FF"/>
<path d="M32 35.0001C33.0818 34.6251 34.3161 35.1704 35 36.0001C35.381 36.4623 35.2572 36.4196 35 37.0001C34.7754 37.507 33.7069 38.4274 33 39.0001C32.7158 39.2303 32.3663 39.753 32 40.0001C33.0777 40.8637 34.7286 41.3349 36 41.0001C36.386 40.8927 36.3345 40.2745 37 40.0001H38C39.2178 39.4957 40.1523 39.105 41 39.0001C42.1774 38.8543 42.8348 39.3737 44 40.0001C49.033 42.7057 51.2642 42.4484 55 41.0001C55.2062 40.9201 55.9239 41.7835 56 42.0001C56.0761 42.2167 56.2062 41.9201 56 42.0001C53.9096 42.8105 51.8565 43.3008 50 43.0001C48.2858 42.7049 46.5968 41.396 44 40.0001C42.9778 39.4506 42.0234 39.8734 41 40.0001C40.2555 40.0998 39.1573 40.519 38 41.0001C37.2448 41.3119 36.4679 40.8736 36 41.0001C34.4861 41.4094 33.2955 42.0381 32 41.0001C31.9209 40.9367 32.0803 40.0753 32 40.0001C30.7327 40.7689 28.9897 42.0795 27 43.0001C26.7988 43.0929 26.0884 43.2115 26 43.0001C25.9116 42.7887 25.7988 42.0929 26 42.0001C27.8834 41.1262 29.7942 40.7251 31 40.0001C30.5738 39.4656 30.1527 38.4959 30 38.0001C29.6124 36.673 30.8065 35.4138 32 35.0001ZM34 36.0001C33.5439 35.4468 32.7966 35.724 32 36.0001C31.1926 36.28 30.7488 37.1402 31 38.0001C31.1196 38.4094 31.6059 38.52 32 39.0001C32.4008 38.7362 32.6988 38.2416 33 38.0001C34.1648 37.0563 34.3489 36.4234 34 36.0001Z" fill="#9059FF"/>
<circle cx="72.5" cy="67.5001" r="17.0112" fill="#9059FF" stroke="#9059FF" stroke-width="2.97761"/>
<rect x="66.2978" y="66.2978" width="12.4045" height="3.40448" fill="#F9F9FA" stroke="#F9F9FA" stroke-width="0.595522"/>
</svg>
