<svg width="267" height="234" viewBox="0 0 267 234" fill="none" xmlns="http://www.w3.org/2000/svg">
<circle cx="143.318" cy="97.879" r="78.5443" fill="#9059FF"/>
<circle cx="152.104" cy="21.9184" r="7.75106" fill="#F374FF"/>
<ellipse cx="106.113" cy="63.7742" rx="3.10042" ry="3.10043" fill="#F374FF"/>
<circle cx="227.547" cy="131.466" r="2.5837" fill="#ECECEC"/>
<circle cx="240.982" cy="79.7934" r="2.5837" fill="#F374FF"/>
<circle cx="40.4882" cy="92.1949" r="4.65064" fill="#F374FF"/>
<ellipse cx="206.36" cy="26.5692" rx="3.10042" ry="3.10043" fill="#ECECEC"/>
<ellipse cx="69.9416" cy="44.1382" rx="3.10042" ry="3.10043" fill="#ECECEC"/>
<ellipse cx="119.548" cy="18.3018" rx="3.10042" ry="3.10043" fill="#ECECEC"/>
<ellipse cx="149.519" cy="198.126" rx="3.10042" ry="3.10043" fill="#F374FF"/>
<circle cx="96.8118" cy="184.691" r="2.06696" fill="#9059FF"/>
<circle cx="29.6362" cy="209.494" r="2.06696" fill="#9059FF"/>
<circle cx="79.2437" cy="200.193" r="2.06696" fill="#FCD400"/>
<ellipse cx="203.26" cy="103.046" rx="6.20085" ry="6.20086" fill="#F374FF"/>
<ellipse cx="250.799" cy="111.314" rx="6.20085" ry="6.20086" fill="#ECECEC"/>
<path fill-rule="evenodd" clip-rule="evenodd" d="M61.6973 152.366C48.1267 165.937 42.0351 183.916 43.7112 200.569L109.9 134.38C93.2467 132.704 75.268 138.796 61.6973 152.366ZM91.9148 182.583C78.3441 196.154 60.3651 202.246 43.7114 200.569L109.901 134.38C111.577 151.034 105.486 169.013 91.9148 182.583Z" fill="#FCD400"/>
<path d="M68.8818 113.766H85.904C87.2817 113.766 88.2468 115.127 87.7917 116.427L78.9228 141.766C78.436 143.157 76.663 143.562 75.6209 142.52L68.6392 135.538C68.2641 135.163 67.7554 134.952 67.225 134.952H51.6956C49.9138 134.952 49.0214 132.798 50.2814 131.538L67.4676 114.352C67.8427 113.977 68.3514 113.766 68.8818 113.766Z" fill="#F374FF"/>
<path d="M131.612 172.879V155.857C131.612 154.479 130.252 153.514 128.951 153.969L103.612 162.838C102.221 163.325 101.816 165.098 102.858 166.14L109.84 173.122C110.215 173.497 110.426 174.006 110.426 174.536V190.065C110.426 191.847 112.58 192.74 113.84 191.48L131.026 174.293C131.401 173.918 131.612 173.41 131.612 172.879Z" fill="#F374FF"/>
<path fill-rule="evenodd" clip-rule="evenodd" d="M106.839 81.5621C84.289 104.113 75.2143 135.036 79.6151 164.325L189.602 54.3378C160.313 49.9369 129.39 59.0117 106.839 81.5621ZM162.378 137.101C184.929 114.551 194.004 83.6271 189.602 54.3377L79.6146 164.326C108.904 168.727 139.828 159.652 162.378 137.101Z" fill="white"/>
<path d="M68.3071 162.781L68.3071 172.767C68.3071 174.955 70.065 176.737 72.2528 176.767L82.3701 176.904C83.7272 176.923 85.0011 176.252 85.7536 175.122L109.794 139.03C110.609 137.805 110.448 136.176 109.407 135.135C108.35 134.077 106.686 133.93 105.458 134.786L70.0191 159.5C68.9464 160.248 68.3071 161.474 68.3071 162.781Z" fill="#F374FF"/>
<circle cx="154.17" cy="87.0273" r="10.8515" fill="#9059FF"/>
<circle cx="172.256" cy="71.0086" r="5.16739" fill="#9059FF"/>
<circle cx="127.3" cy="114.931" r="19.1193" fill="#9059FF"/>
<rect x="77.1754" y="27.602" width="14.4687" height="2.06696" rx="1.03348" fill="#F374FF"/>
<rect x="83.3766" y="35.8704" width="14.4687" height="2.06696" rx="1.03348" transform="rotate(-90 83.3766 35.8704)" fill="#F374FF"/>
<rect x="243.565" y="14.3156" width="12.4017" height="1.77167" rx="0.885836" fill="#ECECEC"/>
<rect x="248.88" y="21.4017" width="12.4017" height="1.77168" rx="0.88584" transform="rotate(-90 248.88 21.4017)" fill="#ECECEC"/>
<rect x="60.6398" y="207.427" width="7.23433" height="1.03348" rx="0.516739" fill="#ECECEC"/>
<rect x="63.7408" y="211.561" width="7.23433" height="1.03348" rx="0.516739" transform="rotate(-90 63.7408 211.561)" fill="#ECECEC"/>
<rect x="39.9707" y="212.89" width="10.3348" height="1.47639" rx="0.738196" fill="#FCD400"/>
<rect x="44.4005" y="218.795" width="10.3348" height="1.47639" rx="0.738197" transform="rotate(-90 44.4005 218.795)" fill="#FCD400"/>
<rect x="24.4687" y="198.127" width="7.23433" height="1.03348" rx="0.516739" fill="#ECECEC"/>
<rect x="27.5693" y="202.261" width="7.23433" height="1.03348" rx="0.516739" transform="rotate(-90 27.5693 202.261)" fill="#ECECEC"/>
<rect x="10" y="215.695" width="7.23433" height="1.03348" rx="0.516739" fill="#FCD400"/>
<rect x="13.1009" y="219.829" width="7.23433" height="1.03348" rx="0.516739" transform="rotate(-90 13.1009 219.829)" fill="#FCD400"/>
<rect x="47.2051" y="191.923" width="7.23433" height="1.03348" rx="0.516739" fill="white"/>
<rect x="50.3054" y="196.057" width="7.23433" height="1.03348" rx="0.516739" transform="rotate(-90 50.3054 196.057)" fill="white"/>
<rect x="60.6398" y="187.348" width="13.4352" height="1.91932" rx="0.95966" fill="white"/>
<rect x="66.3982" y="195.026" width="13.4352" height="1.91932" rx="0.95966" transform="rotate(-90 66.3982 195.026)" fill="white"/>
<rect x="28.603" y="177.457" width="7.23433" height="1.03348" rx="0.516739" fill="#FCD400"/>
<rect x="31.703" y="181.59" width="7.23433" height="1.03348" rx="0.516739" transform="rotate(-90 31.703 181.59)" fill="#FCD400"/>
<rect x="167.088" y="14.7575" width="6.20085" height="0.885836" rx="0.442918" fill="#ECECEC"/>
<rect x="169.746" y="18.3014" width="6.20086" height="0.88584" rx="0.44292" transform="rotate(-90 169.746 18.3014)" fill="#ECECEC"/>
<rect x="218.76" y="12.6895" width="6.20085" height="0.885836" rx="0.442918" fill="#F374FF"/>
<rect x="221.418" y="16.2327" width="6.20086" height="0.88584" rx="0.44292" transform="rotate(-90 221.418 16.2327)" fill="#F374FF"/>
<rect x="230.131" y="44.4335" width="17.5691" height="2.50987" rx="1.25494" fill="#ECECEC"/>
<rect x="237.66" y="54.4728" width="17.5691" height="2.50987" rx="1.25494" transform="rotate(-90 237.66 54.4728)" fill="#ECECEC"/>
<rect x="176.39" y="143.352" width="14.4687" height="2.06696" rx="1.03348" fill="#F374FF"/>
<rect x="182.591" y="151.62" width="14.4687" height="2.06696" rx="1.03348" transform="rotate(-90 182.591 151.62)" fill="#F374FF"/>
<ellipse cx="48.2385" cy="171.255" rx="3.10042" ry="3.10043" fill="#9059FF"/>
<ellipse cx="27.5691" cy="221.897" rx="3.10042" ry="3.10043" fill="#FCD400"/>
</svg>
