<svg width="143" height="114" viewBox="0 0 143 114" fill="none" xmlns="http://www.w3.org/2000/svg">
<path opacity="0.5" fill-rule="evenodd" clip-rule="evenodd" d="M62.3861 5.99987C81.1021 4.91423 97.6038 19.5097 108.386 34.9999C118.314 49.2622 122.202 67.5848 116.386 83.9999C111.173 98.7126 95.8769 104.527 81.3861 110C69.0063 114.676 56.0259 114.902 43.3861 111C26.7605 105.867 6.11565 101.897 1.3861 84.9999C-3.4325 67.7842 12.4665 54.0859 23.3861 39.9999C34.5028 25.6597 44.384 7.0441 62.3861 5.99987Z" fill="#D9BFFF"/>
<path d="M116.386 54.0001C114.143 36.1212 102.856 22.5791 87.3858 20.0001C79.9171 18.7497 68.7509 18.466 58.3858 22.0001C48.1926 25.4735 41.2276 32.1533 37.3858 42.0001C31.318 57.5433 32.37 75.583 41.3858 88.0001C47.1528 95.928 60.8149 102 74.3858 102C81.4677 102 88.5328 100.194 94.3858 96.0001C111.756 88.1417 118.328 69.4651 116.386 54.0001Z" fill="#9059FF"/>
<path d="M61.9067 100L61.9067 97.1781L61.9067 80.9183C62.1037 79.0223 61.2033 77.1797 59.5865 76.17L53.5075 72.3739L50.107 69.783C49.4233 69.2621 48.9932 68.4751 48.924 67.6184C48.7894 65.9516 50.0315 64.4913 51.6983 64.3567L50.6558 63.3C49.9775 62.6123 49.6913 61.629 49.8947 60.6847C50.2278 59.1378 51.7519 58.1539 53.2988 58.487C52.3629 57.9467 51.7509 56.9822 51.6607 55.9053C51.5086 54.0895 52.8572 52.4943 54.673 52.3422L55.2657 52.2925L54.9478 51.6786C54.5426 50.896 54.3623 50.0164 54.427 49.1375C54.6202 46.5126 56.9047 44.5412 59.5296 44.7344L64.9515 45.1333C66.9783 45.2824 68.9452 45.8877 70.7052 46.9038L80.907 52.7938L84.4314 41.7208C85.2349 39.1963 87.0319 37.108 89.4084 35.9372C89.8019 35.7433 90.2441 35.6708 90.6789 35.7288C91.8901 35.8905 92.741 37.0034 92.5793 38.2146L88.866 66.0373C88.8644 66.0492 88.8629 66.0611 88.8613 66.073L86.6975 82.623L86.6992 97.1781L86.6992 100" stroke="white"/>
<path d="M69.9441 52.5544C71.8624 53.662 72.8428 55.8842 72.3675 58.0478C72.0395 59.5408 70.6424 60.5231 69.157 60.367C69.5652 61.4316 69.4344 62.676 68.7007 63.6562C67.8441 64.8006 66.5048 65.3949 65.1585 65.3413C65.5645 66.352 65.4268 67.5466 64.6948 68.4551C63.5355 69.894 61.5649 70.3516 59.9078 69.6177C60.0442 70.439 59.7996 71.312 59.1716 71.9514C57.8632 73.2836 55.8267 73.5725 54.2013 72.6632L54.1521 72.6352L51.025 69.9085L51.0697 69.6097L54.6916 71.7009C55.899 72.3979 57.4249 72.19 58.4018 71.1954C59.0281 70.5578 59.0188 69.5333 58.3812 68.907C58.2977 68.825 58.2056 68.7523 58.1065 68.6902L58.0564 68.6601L55.2391 67.0335L55.2757 66.97L51.5704 64.78L52.1159 63.6562L60.0598 68.4864C61.3265 69.2176 62.937 68.9171 63.8546 67.7782C64.5389 66.9288 64.428 65.6966 63.6188 64.9818C63.5036 64.9306 63.39 64.8739 63.2782 64.8115L63.2226 64.78L53.2068 58.4542L53.7522 57.7375L62.1249 62.9003L62.309 63.0097L63.8279 63.8096C63.9514 63.8809 64.0698 63.9606 64.1823 64.0481C65.4764 64.5584 66.9808 64.1535 67.8369 63.0097C68.616 61.9688 68.4038 60.4935 67.3629 59.7144C67.3068 59.6725 67.249 59.633 67.1894 59.5963L67.1293 59.5604L64.0575 57.7869L64.0859 57.7375L55.934 52.9998L55.9341 51.9089L68.5171 59.05C68.6854 59.1472 68.8677 59.2179 69.0576 59.2596C70.0792 59.484 71.0892 58.8378 71.3136 57.8163C71.684 56.1304 70.9324 54.3994 69.4536 53.5176L69.4046 53.4888L64.1084 50.4311L64.6478 49.4967L69.9441 52.5544Z" fill="white"/>
<path d="M68.288 73.2098C70.3154 64.8457 75.1777 60.0699 82.8097 58.9764" stroke="white"/>
<path d="M57.3855 20.0001C57.4316 21.1513 57.3874 21.949 57.3855 24.0001C57.385 24.1795 57.3855 23.8205 57.3855 24.0001C57.3845 25.6332 57.347 26.9528 57.3855 28.0001C57.4045 28.5203 57.861 29.019 58.3855 29.0001C58.91 28.9812 59.4045 28.5203 59.3855 28.0001C59.3484 26.9821 59.3845 25.6115 59.3855 24.0001C59.385 24.1794 59.3855 23.821 59.3855 24.0001C59.3874 21.9238 59.4325 21.185 59.3855 20.0001C59.3646 19.48 58.9095 18.9796 58.3855 19.0001C57.861 19.0207 57.3646 19.48 57.3855 20.0001Z" fill="#FCD400"/>
<path d="M55.3857 25C55.8981 25.0275 56.6308 24.9791 57.3857 25C57.2102 24.9953 57.4827 25.0026 57.3857 25C58.939 25.0417 59.5638 24.9266 60.3857 25C60.8771 25.0438 61.3415 24.4889 61.3857 24C61.4295 23.5111 60.8776 23.0438 60.3857 23C59.5142 22.9221 58.9765 23.0428 57.3857 23C57.2106 22.9953 57.4827 23.0026 57.3857 23C56.6455 22.9795 55.8789 23.0265 55.3857 23C54.893 22.9735 54.4121 23.5098 54.3857 24C54.3589 24.4902 54.893 24.9735 55.3857 25Z" fill="#FCD400"/>
<path d="M117.385 68.0001C118.069 67.9713 118.153 67.9722 119.385 68.0001C119.579 68.005 120.277 67.9981 120.385 68.0001C121.363 68.0211 121.712 68.0323 122.385 68.0001C122.899 67.9752 123.409 67.5394 123.385 67.0001C123.362 66.4613 122.898 65.9757 122.385 66.0001C121.762 66.0304 121.326 66.0201 120.385 66.0001C120.278 65.9976 119.578 66.005 119.385 66.0001C118.115 65.9713 118.12 65.9688 117.385 66.0001C116.873 66.0216 116.365 66.4608 116.385 67.0001C116.406 67.5394 116.872 68.0221 117.385 68.0001Z" fill="#EAF3F3"/>
<path d="M121.385 69.9998C121.396 69.5268 121.381 68.6748 121.385 67.9998C121.384 68.2074 121.386 67.8845 121.385 67.9998C121.393 66.433 121.345 65.83 121.385 64.9998C121.41 64.4888 120.914 64.0239 120.385 63.9998C119.856 63.9758 119.41 64.4884 119.385 64.9998C119.343 65.8652 119.393 66.4066 119.385 67.9998C119.384 68.2074 119.386 67.8849 119.385 67.9998C119.381 68.6656 119.395 69.5389 119.385 69.9998C119.374 70.5113 119.856 70.9892 120.385 70.9998C120.915 71.011 121.374 70.5113 121.385 69.9998Z" fill="#EAF3F3"/>
<path d="M110.386 8.99979C110.412 9.54196 110.331 10.1641 110.386 10.9998C110.378 10.8819 110.394 11.1178 110.386 10.9998C110.521 13.0402 110.386 13.8567 110.386 14.9998C110.386 15.4803 110.919 15.9998 111.386 15.9998C111.853 15.9998 112.386 15.4803 112.386 14.9998C112.386 13.8044 112.523 13.0792 112.386 10.9998C112.378 10.882 112.394 11.1175 112.386 10.9998C112.332 10.1737 112.412 9.52908 112.386 8.99979C112.362 8.51988 111.852 7.97574 111.386 7.99979C110.919 8.02381 110.362 8.51993 110.386 8.99979Z" fill="#90BFFF"/>
<path d="M109.386 13C110.334 13.1056 110.705 13.1035 112.386 13C112.78 12.9758 113.167 13.0112 113.386 13C113.81 12.9783 114.051 13 114.386 13C114.888 13 115.386 12.5072 115.386 12C115.386 11.4929 114.888 11 114.386 11C114.016 11 113.837 10.9769 113.386 11C113.158 11.0116 112.786 10.9754 112.386 11C110.809 11.097 110.196 11.0903 109.386 11C108.886 10.9445 108.441 11.496 108.386 12C108.331 12.5041 108.886 12.9445 109.386 13Z" fill="#90BFFF"/>
<path d="M27.3859 92.9998C27.4122 93.5418 27.3305 94.1641 27.3859 94.9998C27.3783 94.8823 27.3936 95.1181 27.3859 94.9998C27.5208 97.0404 27.3859 97.8566 27.3859 98.9998C27.3859 99.48 27.9191 99.9998 28.3859 99.9998C28.8532 99.9998 29.3859 99.48 29.3859 98.9998C29.3859 97.8044 29.5234 97.0791 29.3859 94.9998C29.3783 94.8819 29.394 95.1172 29.3859 94.9998C29.3318 94.1737 29.4117 93.5292 29.3859 92.9998C29.3627 92.52 28.8528 91.9759 28.3859 91.9998C27.9195 92.0241 27.3627 92.52 27.3859 92.9998Z" fill="#90BFFF"/>
<path d="M26.3856 97C27.3338 97.1056 27.7047 97.1038 29.3856 97C29.617 96.9858 30.2561 97.0074 30.3856 97C30.9765 96.9656 30.9693 97 31.3856 97C31.8874 97 32.3856 96.5073 32.3856 96C32.3856 95.4927 31.8874 95 31.3856 95C30.9279 95 31.0079 94.9637 30.3856 95C30.2533 95.0074 29.6192 94.9853 29.3856 95C27.8088 95.0969 27.1961 95.0905 26.3856 95C25.8865 94.9445 25.4406 95.4959 25.3856 96C25.3306 96.5041 25.8865 96.9445 26.3856 97Z" fill="#90BFFF"/>
<path fill-rule="evenodd" clip-rule="evenodd" d="M120.386 45.9999C120.456 47.0901 122.291 47.0879 122.386 45.9999C122.606 43.4733 123.675 42.155 125.386 41.9999C125.242 42.0091 125.522 41.9977 125.386 41.9999C126.522 41.9234 126.525 39.9999 125.386 39.9999C125.235 39.9999 125.531 39.9888 125.386 39.9999C123.566 40.0144 122.795 40.1326 122.386 37.9999C122.367 37.9011 122.434 37.2603 122.386 36.9999C122.341 36.7594 122.416 37.1505 122.386 36.9999C122.179 35.9831 120.441 35.9637 120.386 36.9999C120.377 37.1528 120.394 36.7352 120.386 36.9999C120.375 37.3568 120.405 37.8182 120.386 37.9999C120.339 38.4401 120.621 38.5882 120.386 38.9999C119.971 39.7246 118.627 40.0202 117.386 39.9999C116.251 39.9817 116.255 41.8982 117.386 41.9999C118.854 42.132 119.217 42.6759 119.386 42.9999C119.904 44.0097 120.312 44.8601 120.386 45.9999ZM125.386 39.9999C125.263 40.0083 125.5 39.9985 125.386 39.9999C125.28 39.9588 125.521 39.9981 125.386 39.9999ZM125.386 41.9999C125.271 41.9999 125.493 41.991 125.386 41.9999C125.29 42.0449 125.511 41.9897 125.386 41.9999ZM120.386 40.9999C120.752 40.7413 121.137 40.3733 121.386 39.9999C121.653 40.4767 121.974 40.7122 122.386 40.9999C122.017 41.3309 121.65 42.5367 121.386 42.9999C121.3 42.8032 121.484 42.1912 121.386 41.9999C121.219 41.6817 120.694 41.2235 120.386 40.9999Z" fill="#FCD400"/>
<path fill-rule="evenodd" clip-rule="evenodd" d="M18.386 68C19.5234 67.9248 19.526 66 18.386 66C18.2376 66 18.5291 65.9889 18.386 66C16.5548 66.015 15.7972 66.1504 15.386 64C15.3679 63.9058 15.4319 63.2466 15.386 63C15.3409 62.7582 15.4165 63.1507 15.386 63C15.1793 61.9831 13.4408 61.9636 13.386 63C13.3781 63.1524 13.394 62.7366 13.386 63C13.3758 63.3504 13.4041 63.8214 13.386 64C13.3405 64.4476 13.6227 64.585 13.386 65C12.9699 65.7247 11.6236 66.0243 10.386 66C9.25041 65.9783 9.25527 67.8957 10.386 68C11.8559 68.1361 12.2168 68.6765 12.386 69C12.9028 70.0098 13.3109 70.8598 13.386 72C13.4584 73.0893 15.291 73.0871 15.386 72C15.606 69.4708 16.6718 68.1524 18.386 68C18.5203 67.9977 18.2451 68.0092 18.386 68ZM18.386 66C18.2645 66.0079 18.4986 65.9986 18.386 66C18.2818 65.9602 18.5194 65.9982 18.386 66ZM18.386 68C18.2738 68 18.4916 67.9916 18.386 68C18.291 68.0433 18.5092 67.9902 18.386 68ZM13.386 67C13.7517 66.7414 14.1373 66.3738 14.386 66C14.6523 66.4772 14.9735 66.7127 15.386 67C15.0172 67.3314 14.6506 68.5364 14.386 69C14.3008 68.8033 14.4841 68.1909 14.386 68C14.2195 67.6809 13.6943 67.224 13.386 67Z" fill="#EAF3F3"/>
<path d="M72.3857 12C72.3857 11.5187 71.9382 11 71.3857 11C70.8337 11 70.3857 11.5187 70.3857 12C70.3857 12.4813 70.8337 13 71.3857 13C71.9382 13 72.3857 12.4813 72.3857 12Z" fill="#90BFFF"/>
<path d="M139.386 58C139.386 57.5185 138.938 57 138.386 57C137.833 57 137.386 57.5185 137.386 58C137.386 58.4815 137.833 59 138.386 59C138.938 59 139.386 58.4815 139.386 58Z" fill="#90BFFF"/>
<path d="M136.386 25C136.386 24.5177 135.938 24 135.386 24C134.833 24 134.386 24.5177 134.386 25C134.386 25.4824 134.833 26 135.386 26C135.938 26 136.386 25.4824 136.386 25Z" fill="#EAF3F3"/>
<path d="M142.386 34C142.386 33.5187 141.938 33 141.386 33C140.833 33 140.386 33.5187 140.386 34C140.386 34.4813 140.833 35 141.386 35C141.938 35 142.386 34.4813 142.386 34Z" fill="#4E6AF0"/>
<path d="M130.386 5C130.386 4.51869 129.938 4 129.386 4C128.833 4 128.386 4.51869 128.386 5C128.386 5.48131 128.833 6 129.386 6C129.938 6 130.386 5.48131 130.386 5Z" fill="#FCD400"/>
<path d="M8.38574 78C8.38574 77.5175 7.93774 77 7.38574 77C6.83324 77 6.38574 77.5175 6.38574 78C6.38574 78.4825 6.83324 79 7.38574 79C7.93774 79 8.38574 78.4825 8.38574 78Z" fill="#FCD400"/>
<path d="M39.3857 28C39.3857 27.485 38.9382 27 38.3857 27C37.8337 27 37.3857 27.485 37.3857 28C37.3857 28.515 37.8337 29 38.3857 29C38.9382 29 39.3857 28.515 39.3857 28Z" fill="#EAF3F3"/>
<path d="M45.3857 6C45.3857 5.48623 44.9382 5 44.3857 5C43.8337 5 43.3857 5.48623 43.3857 6C43.3857 6.51377 43.8337 7 44.3857 7C44.9382 7 45.3857 6.51377 45.3857 6Z" fill="#4E6AF0"/>
<path d="M100.386 14C100.386 13.5473 99.9382 13 99.3857 13C98.8337 13 98.3857 13.5473 98.3857 14C98.3857 14.4527 98.8337 15 99.3857 15C99.9382 15 100.386 14.4527 100.386 14Z" fill="#EAF3F3"/>
<path d="M90.3857 1C90.3857 0.517686 89.9382 0 89.3857 0C88.8337 0 88.3857 0.517686 88.3857 1C88.3857 1.48236 88.8337 2 89.3857 2C89.9382 2 90.3857 1.48236 90.3857 1Z" fill="#FCD400"/>
<path d="M131.386 92C131.386 91.5185 130.938 91 130.386 91C129.833 91 129.386 91.5185 129.386 92C129.386 92.481 129.833 93 130.386 93C130.938 93 131.386 92.481 131.386 92Z" fill="#FCD400"/>
<path d="M21.3857 45C21.3857 44.5023 20.9382 44 20.3857 44C19.8337 44 19.3857 44.5023 19.3857 45C19.3857 45.4977 19.8337 46 20.3857 46C20.9382 46 21.3857 45.4977 21.3857 45Z" fill="#90BFFF"/>
<path d="M124.386 79C124.386 78.5023 123.938 78 123.386 78C122.833 78 122.386 78.5023 122.386 79C122.386 79.4973 122.833 80 123.386 80C123.938 80 124.386 79.4973 124.386 79Z" fill="#4E6AF0"/>
<path d="M29.3857 72C29.3857 71.5011 28.9377 71 28.3857 71C27.8332 71 27.3857 71.5011 27.3857 72C27.3857 72.4989 27.8332 73 28.3857 73C28.9377 73 29.3857 72.4989 29.3857 72Z" fill="#4E6AF0"/>
<path d="M113.386 56C113.386 55.5023 112.938 55 112.386 55C111.833 55 111.386 55.5023 111.386 56C111.386 56.4973 111.833 57 112.386 57C112.938 57 113.386 56.4973 113.386 56Z" fill="#EAF3F3"/>
<path d="M11.3857 92C11.3857 91.5023 10.9377 91 10.3857 91C9.83324 91 9.38574 91.5023 9.38574 92C9.38574 92.4973 9.83324 93 10.3857 93C10.9377 93 11.3857 92.4973 11.3857 92Z" fill="#EAF3F3"/>
</svg>
