<svg width="145" height="114" viewBox="0 0 145 114" fill="none" xmlns="http://www.w3.org/2000/svg">
<path opacity="0.5" fill-rule="evenodd" clip-rule="evenodd" d="M62.0004 6.00036C80.7164 4.91472 97.218 19.5102 108 35.0004C117.928 49.2626 121.816 67.5853 116 84.0004C110.787 98.7131 95.4912 104.527 81.0004 110C68.6205 114.676 55.6402 114.902 43.0004 111C26.3748 105.868 5.7299 101.898 1.00036 85.0004C-3.81824 67.7847 12.0807 54.0864 23.0004 40.0004C34.117 25.6601 43.9983 7.04459 62.0004 6.00036Z" fill="#D9BFFF"/>
<path d="M116 53.9997C113.757 36.1207 102.47 22.5786 87 19.9997C79.5313 18.7493 68.3651 18.4655 58 21.9997C47.8068 25.473 40.8418 32.1528 37 41.9997C30.9322 57.5428 31.9843 75.5825 41 87.9997C46.767 95.9275 60.4291 102 74 102C81.082 102 88.1471 100.194 94 95.9997C111.37 88.1413 117.942 69.4646 116 53.9997Z" fill="#9059FF"/>
<path d="M74 40V80" stroke="white" stroke-width="2"/>
<path fill-rule="evenodd" clip-rule="evenodd" d="M58 46L74 40L90 46C90 46 90 52 90 60C90 68 80 80 74 80C68 80 58 68 58 60C58 52 58 46 58 46Z" stroke="white" stroke-width="2" stroke-linecap="round" stroke-linejoin="round"/>
<path d="M56.9997 19.9996C57.0458 21.1509 57.0016 21.9485 56.9997 23.9996C56.9993 24.179 56.9997 23.82 56.9997 23.9996C56.9988 25.6327 56.9613 26.9523 56.9997 27.9996C57.0187 28.5198 57.4753 29.0185 57.9997 28.9996C58.5242 28.9807 59.0187 28.5198 58.9997 27.9996C58.9627 26.9816 58.9988 25.611 58.9997 23.9996C58.9993 24.1789 58.9997 23.8205 58.9997 23.9996C59.0016 21.9233 59.0468 21.1845 58.9997 19.9996C58.9788 19.4795 58.5237 18.9791 57.9997 18.9996C57.4753 19.0202 56.9788 19.4795 56.9997 19.9996Z" fill="#FCD400"/>
<path d="M55 25.0005C55.5124 25.028 56.245 24.9796 57 25.0005C56.8244 24.9957 57.0969 25.0031 57 25.0005C58.5532 25.0422 59.178 24.9271 60 25.0005C60.4914 25.0443 60.9558 24.4894 61 24.0005C61.0438 23.5115 60.4918 23.0443 60 23.0005C59.1285 22.9226 58.5907 23.0433 57 23.0005C56.8249 22.9958 57.0969 23.0031 57 23.0005C56.2598 22.98 55.4932 23.0269 55 23.0005C54.5073 22.974 54.0263 23.5103 54 24.0005C53.9732 24.4907 54.5073 24.974 55 25.0005Z" fill="#FCD400"/>
<path d="M117 68.0001C117.683 67.9713 117.767 67.9722 119 68.0001C119.193 68.005 119.891 67.9981 120 68.0001C120.978 68.0211 121.326 68.0323 122 68.0001C122.513 67.9752 123.023 67.5394 123 67.0001C122.976 66.4613 122.512 65.9757 122 66.0001C121.376 66.0304 120.94 66.0201 120 66.0001C119.893 65.9976 119.193 66.005 119 66.0001C117.729 65.9713 117.734 65.9688 117 66.0001C116.487 66.0216 115.979 66.4608 116 67.0001C116.02 67.5394 116.486 68.0221 117 68.0001Z" fill="#EAF3F3"/>
<path d="M121 69.9998C121.01 69.5268 120.996 68.6748 121 67.9998C120.999 68.2074 121 67.8845 121 67.9998C121.007 66.433 120.959 65.83 121 64.9998C121.025 64.4888 120.529 64.0239 120 63.9998C119.47 63.9758 119.025 64.4884 119 64.9998C118.957 65.8652 119.007 66.4066 119 67.9998C118.999 68.2074 119 67.8849 119 67.9998C118.996 68.6656 119.01 69.5389 119 69.9998C118.988 70.5113 119.47 70.9892 120 70.9998C120.529 71.011 120.988 70.5113 121 69.9998Z" fill="#EAF3F3"/>
<path d="M110 8.99979C110.026 9.54196 109.945 10.1641 110 10.9998C109.992 10.8819 110.008 11.1178 110 10.9998C110.135 13.0402 110 13.8567 110 14.9998C110 15.4803 110.533 15.9998 111 15.9998C111.467 15.9998 112 15.4803 112 14.9998C112 13.8044 112.137 13.0792 112 10.9998C111.992 10.882 112.008 11.1175 112 10.9998C111.946 10.1737 112.026 9.52908 112 8.99979C111.976 8.51988 111.466 7.97574 111 7.99979C110.534 8.02381 109.976 8.51993 110 8.99979Z" fill="#90BFFF"/>
<path d="M109 12.9995C109.949 13.1051 110.319 13.103 112 12.9995C112.394 12.9753 112.781 13.0107 113 12.9995C113.424 12.9778 113.665 12.9995 114 12.9995C114.502 12.9995 115 12.5067 115 11.9995C115 11.4924 114.502 10.9995 114 10.9995C113.63 10.9995 113.452 10.9764 113 10.9995C112.773 11.0112 112.4 10.9749 112 10.9995C110.423 11.0966 109.81 11.0898 109 10.9995C108.501 10.944 108.055 11.4955 108 11.9995C107.945 12.5036 108.501 12.944 109 12.9995Z" fill="#90BFFF"/>
<path d="M27.0002 92.9998C27.0264 93.5418 26.9448 94.1641 27.0002 94.9998C26.9926 94.8823 27.0078 95.1181 27.0002 94.9998C27.1351 97.0404 27.0002 97.8566 27.0002 98.9998C27.0002 99.48 27.5333 99.9998 28.0002 99.9998C28.4675 99.9998 29.0002 99.48 29.0002 98.9998C29.0002 97.8044 29.1376 97.0791 29.0002 94.9998C28.9926 94.8819 29.0082 95.1172 29.0002 94.9998C28.9461 94.1737 29.026 93.5292 29.0002 92.9998C28.9769 92.52 28.4671 91.9759 28.0002 91.9998C27.5338 92.0241 26.9769 92.52 27.0002 92.9998Z" fill="#90BFFF"/>
<path d="M25.9999 96.9995C26.948 97.1051 27.319 97.1033 28.9999 96.9995C29.2312 96.9853 29.8703 97.0069 29.9999 96.9995C30.5908 96.9651 30.5835 96.9995 30.9999 96.9995C31.5017 96.9995 31.9999 96.5068 31.9999 95.9995C31.9999 95.4922 31.5017 94.9995 30.9999 94.9995C30.5421 94.9995 30.6221 94.9632 29.9999 94.9995C29.8676 95.0069 29.2335 94.9848 28.9999 94.9995C27.4231 95.0964 26.8103 95.09 25.9999 94.9995C25.5008 94.944 25.0549 95.4954 24.9999 95.9995C24.9449 96.5036 25.5008 96.944 25.9999 96.9995Z" fill="#90BFFF"/>
<path fill-rule="evenodd" clip-rule="evenodd" d="M120 46.0003C120.07 47.0906 121.906 47.0884 122 46.0003C122.22 43.4738 123.289 42.1555 125 42.0003C124.857 42.0096 125.137 41.9981 125 42.0003C126.137 41.9239 126.139 40.0003 125 40.0003C124.849 40.0003 125.145 39.9893 125 40.0003C123.18 40.0149 122.409 40.133 122 38.0003C121.981 37.9016 122.049 37.2608 122 37.0003C121.955 36.7598 122.031 37.151 122 37.0003C121.793 35.9836 120.055 35.9641 120 37.0003C119.992 37.1533 120.008 36.7357 120 37.0003C119.989 37.3573 120.019 37.8187 120 38.0003C119.954 38.4406 120.235 38.5887 120 39.0003C119.585 39.7251 118.241 40.0207 117 40.0003C115.865 39.9822 115.869 41.8987 117 42.0003C118.468 42.1325 118.831 42.6764 119 43.0003C119.519 44.0102 119.926 44.8606 120 46.0003ZM125 40.0003C124.877 40.0087 125.114 39.999 125 40.0003C124.895 39.9592 125.136 39.9986 125 40.0003ZM125 42.0003C124.886 42.0003 125.107 41.9915 125 42.0003C124.904 42.0454 125.126 41.9902 125 42.0003ZM120 41.0003C120.366 40.7418 120.751 40.3738 121 40.0003C121.267 40.4772 121.588 40.7126 122 41.0003C121.631 41.3314 121.264 42.5372 121 43.0003C120.914 42.8037 121.098 42.1917 121 42.0003C120.834 41.6822 120.308 41.224 120 41.0003Z" fill="#FCD400"/>
<path fill-rule="evenodd" clip-rule="evenodd" d="M18.0003 68.0004C19.1376 67.9253 19.1403 66.0004 18.0003 66.0004C17.8519 66.0004 18.1434 65.9894 18.0003 66.0004C16.169 66.0155 15.4115 66.1509 15.0003 64.0004C14.9822 63.9063 15.0462 63.247 15.0003 63.0004C14.9552 62.7587 15.0307 63.1511 15.0003 63.0004C14.7935 61.9836 13.055 61.9641 13.0003 63.0004C12.9923 63.1529 13.0082 62.7371 13.0003 63.0004C12.9901 63.3509 13.0184 63.8219 13.0003 64.0004C12.9548 64.4481 13.237 64.5855 13.0003 65.0004C12.5842 65.7252 11.2379 66.0247 10.0003 66.0004C8.86467 65.9788 8.86953 67.8961 10.0003 68.0004C11.4702 68.1366 11.8311 68.6769 12.0003 69.0004C12.517 70.0103 12.9252 70.8603 13.0003 72.0004C13.0727 73.0898 14.9053 73.0876 15.0003 72.0004C15.2202 69.4713 16.2861 68.1529 18.0003 68.0004C18.1345 67.9982 17.8594 68.0097 18.0003 68.0004ZM18.0003 66.0004C17.8788 66.0084 18.1129 65.9991 18.0003 66.0004C17.896 65.9607 18.1337 65.9987 18.0003 66.0004ZM18.0003 68.0004C17.8881 68.0004 18.1058 67.992 18.0003 68.0004C17.9053 68.0438 18.1235 67.9907 18.0003 68.0004ZM13.0003 67.0004C13.366 66.7419 13.7516 66.3743 14.0003 66.0004C14.2666 66.4777 14.5877 66.7132 15.0003 67.0004C14.6314 67.3319 14.2648 68.5369 14.0003 69.0004C13.915 68.8038 14.0983 68.1914 14.0003 68.0004C13.8337 67.6814 13.3086 67.2245 13.0003 67.0004Z" fill="#EAF3F3"/>
<path d="M72 12C72 11.5187 71.5525 11 71 11C70.448 11 70 11.5187 70 12C70 12.4813 70.448 13 71 13C71.5525 13 72 12.4813 72 12Z" fill="#90BFFF"/>
<path d="M139 58C139 57.5185 138.552 57 138 57C137.447 57 137 57.5185 137 58C137 58.4815 137.447 59 138 59C138.552 59 139 58.4815 139 58Z" fill="#90BFFF"/>
<path d="M136 25C136 24.5177 135.552 24 135 24C134.447 24 134 24.5177 134 25C134 25.4824 134.447 26 135 26C135.552 26 136 25.4824 136 25Z" fill="#EAF3F3"/>
<path d="M142 34C142 33.5187 141.552 33 141 33C140.447 33 140 33.5187 140 34C140 34.4813 140.447 35 141 35C141.552 35 142 34.4813 142 34Z" fill="#4E6AF0"/>
<path d="M130 5C130 4.51869 129.553 4 129 4C128.447 4 128 4.51869 128 5C128 5.48131 128.447 6 129 6C129.553 6 130 5.48131 130 5Z" fill="#FCD400"/>
<path d="M8 78C8 77.5175 7.552 77 7 77C6.4475 77 6 77.5175 6 78C6 78.4825 6.4475 79 7 79C7.552 79 8 78.4825 8 78Z" fill="#FCD400"/>
<path d="M39 28C39 27.485 38.5525 27 38 27C37.448 27 37 27.485 37 28C37 28.515 37.448 29 38 29C38.5525 29 39 28.515 39 28Z" fill="#EAF3F3"/>
<path d="M45 6C45 5.48623 44.5525 5 44 5C43.448 5 43 5.48623 43 6C43 6.51377 43.448 7 44 7C44.5525 7 45 6.51377 45 6Z" fill="#4E6AF0"/>
<path d="M100 14C100 13.5473 99.5525 13 99 13C98.448 13 98 13.5473 98 14C98 14.4527 98.448 15 99 15C99.5525 15 100 14.4527 100 14Z" fill="#EAF3F3"/>
<path d="M90 1C90 0.517686 89.5525 0 89 0C88.448 0 88 0.517686 88 1C88 1.48236 88.448 2 89 2C89.5525 2 90 1.48236 90 1Z" fill="#FCD400"/>
<path d="M131 92C131 91.5185 130.553 91 130 91C129.447 91 129 91.5185 129 92C129 92.481 129.447 93 130 93C130.553 93 131 92.481 131 92Z" fill="#FCD400"/>
<path d="M21 45C21 44.5023 20.5525 44 20 44C19.448 44 19 44.5023 19 45C19 45.4977 19.448 46 20 46C20.5525 46 21 45.4977 21 45Z" fill="#90BFFF"/>
<path d="M124 79C124 78.5023 123.552 78 123 78C122.447 78 122 78.5023 122 79C122 79.4973 122.447 80 123 80C123.552 80 124 79.4973 124 79Z" fill="#4E6AF0"/>
<path d="M29 72C29 71.5011 28.552 71 28 71C27.4475 71 27 71.5011 27 72C27 72.4989 27.4475 73 28 73C28.552 73 29 72.4989 29 72Z" fill="#4E6AF0"/>
<path d="M113 56C113 55.5023 112.553 55 112 55C111.447 55 111 55.5023 111 56C111 56.4973 111.447 57 112 57C112.553 57 113 56.4973 113 56Z" fill="#EAF3F3"/>
<path d="M11 92C11 91.5023 10.552 91 10 91C9.4475 91 9 91.5023 9 92C9 92.4973 9.4475 93 10 93C10.552 93 11 92.4973 11 92Z" fill="#EAF3F3"/>
</svg>
