<svg xmlns="http://www.w3.org/2000/svg" width="24" height="24" viewBox="0 0 24 24">
  <path fill="#7542E5" d="M19.5,-2.22044605e-16 L4.5,-2.22044605e-16 C2.0171139,0.0057732181 0.0057732181,2.0171139 0,4.5 L0,16.5 C0.0074133025,18.9822042 2.0177958,20.9925867 4.5,21 L19.5,21 C21.9835691,20.995871 23.995871,18.9835691 24,16.5 L24,4.5 C23.9901343,2.0188166 21.9811834,0.00986565717 19.5,-2.22044605e-16 Z M4.5,3 L19.5,3 C20.3284271,3 21,3.67157288 21,4.5 L21,6 L3,6 L3,4.5 C3,3.67157288 3.67157288,3 4.5,3 Z M19.5,18 L4.5,18 C3.67157288,18 3,17.1941125 3,16.2 L3,9 L21,9 L21,16.2 C21,17.1941125 20.3284271,18 19.5,18 Z" transform="translate(0 2)"/>
</svg>
