<svg width="200" height="160" viewBox="0 0 200 160" fill="none" xmlns="http://www.w3.org/2000/svg">
<path opacity="0.5" fill-rule="evenodd" clip-rule="evenodd" d="M87.2786 8.42715C113.569 6.90212 136.749 27.4047 151.896 49.164C165.841 69.1985 171.303 94.9366 163.133 117.995C155.811 138.662 134.324 146.83 113.968 154.518C96.5781 161.086 78.3444 161.404 60.5889 155.923C37.2347 148.713 8.23447 143.136 1.59079 119.4C-5.17799 95.2168 17.1556 75.9745 32.4946 56.1876C48.1104 36.0436 61.9908 9.89399 87.2786 8.42715Z" fill="#D9BFFF"/>
<path d="M80.2541 28.0937C80.3189 29.7108 80.2568 30.8313 80.2541 33.7125C80.2535 33.9645 80.2541 33.4602 80.2541 33.7125C80.2528 36.0065 80.2001 37.8602 80.2541 39.3314C80.2808 40.0621 80.9221 40.7627 81.6588 40.7361C82.3956 40.7096 83.0903 40.0621 83.0636 39.3314C83.0115 37.9014 83.0622 35.976 83.0636 33.7125C83.0636 33.4609 83.0629 33.9644 83.0636 33.7125C83.0662 30.7959 83.1296 29.7581 83.0636 28.0937C83.0342 27.363 82.3949 26.6601 81.6588 26.6889C80.9221 26.7179 80.2248 27.363 80.2541 28.0937Z" fill="#FCD400"/>
<path d="M77.4436 35.1184C78.1633 35.157 79.1925 35.0891 80.253 35.1184C80.3892 35.1221 80.0064 35.1117 80.253 35.1184C82.4348 35.177 83.3125 35.0153 84.4671 35.1184C85.1574 35.18 85.8097 34.4005 85.8719 33.7136C85.9334 33.0268 85.158 32.3705 84.4671 32.3089C83.2429 32.1996 82.4875 32.369 80.253 32.3089C80.007 32.3024 80.3892 32.3127 80.253 32.3089C79.2132 32.2802 78.1363 32.3461 77.4436 32.3089C76.7514 32.2718 76.0759 33.025 76.0388 33.7136C76.0012 34.4022 76.7514 35.0812 77.4436 35.1184Z" fill="#FCD400"/>
<path d="M164.536 95.5205C165.496 95.4801 165.613 95.4814 167.345 95.5205C167.617 95.5274 168.598 95.5178 168.75 95.5205C170.123 95.5501 170.613 95.5658 171.559 95.5205C172.28 95.4855 172.997 94.8734 172.964 94.1158C172.931 93.3589 172.279 92.6768 171.559 92.7111C170.684 92.7537 170.071 92.7392 168.75 92.7111C168.6 92.7077 167.616 92.718 167.345 92.7111C165.56 92.6706 165.568 92.6672 164.536 92.7111C163.815 92.7413 163.102 93.3583 163.131 94.1158C163.16 94.8734 163.815 95.5514 164.536 95.5205Z" fill="#EAF3F3"/>
<path d="M170.154 98.3302C170.169 97.6657 170.149 96.4689 170.154 95.5207C170.155 95.3587 170.153 95.8123 170.154 95.5207C170.165 93.3198 170.097 92.4727 170.154 91.3066C170.189 90.5888 169.493 89.9357 168.75 89.9018C168.006 89.868 167.38 90.5881 167.345 91.3066C167.286 92.5222 167.356 93.2827 167.345 95.5207C167.344 95.8123 167.346 95.3593 167.345 95.5207C167.34 96.4559 167.359 97.6826 167.345 98.3302C167.329 99.0486 168.006 99.7199 168.75 99.7349C169.493 99.7505 170.138 99.0486 170.154 98.3302Z" fill="#EAF3F3"/>
<path d="M154.703 12.642C154.74 13.4036 154.626 14.2776 154.703 15.4514C154.714 15.6172 154.692 15.2859 154.703 15.4514C154.892 18.3176 154.703 19.4645 154.703 21.0703C154.703 21.7452 155.452 22.475 156.107 22.475C156.764 22.475 157.512 21.7452 157.512 21.0703C157.512 19.3911 157.705 18.3724 157.512 15.4514C157.501 15.286 157.523 15.6167 157.512 15.4514C157.436 14.2909 157.548 13.3855 157.512 12.642C157.479 11.9679 156.763 11.2035 156.107 11.2373C155.452 11.271 154.669 11.9679 154.703 12.642Z" fill="#90BFFF"/>
<path d="M153.298 18.2608C154.631 18.4091 155.151 18.4061 157.512 18.2608C158.066 18.2267 158.609 18.2765 158.917 18.2608C159.513 18.2303 159.851 18.2608 160.322 18.2608C161.027 18.2608 161.727 17.5685 161.727 16.8561C161.727 16.1437 161.027 15.4513 160.322 15.4513C159.803 15.4513 159.552 15.4188 158.917 15.4513C158.598 15.4677 158.075 15.4168 157.512 15.4513C155.297 15.5876 154.437 15.5781 153.298 15.4513C152.597 15.3733 151.971 16.148 151.893 16.8561C151.816 17.5641 152.597 18.1827 153.298 18.2608Z" fill="#90BFFF"/>
<path d="M38.1115 130.638C38.1483 131.4 38.0336 132.274 38.1115 133.448C38.1222 133.614 38.1008 133.283 38.1115 133.448C38.301 136.314 38.1115 137.461 38.1115 139.067C38.1115 139.741 38.8604 140.471 39.5162 140.471C40.1726 140.471 40.9209 139.741 40.9209 139.067C40.9209 137.387 41.114 136.369 40.9209 133.448C40.9102 133.282 40.9322 133.613 40.9209 133.448C40.8449 132.287 40.9571 131.382 40.9209 130.638C40.8882 129.964 40.172 129.2 39.5162 129.233C38.861 129.268 38.0788 129.964 38.1115 130.638Z" fill="#90BFFF"/>
<path d="M36.7067 136.257C38.0386 136.406 38.5596 136.403 40.9208 136.257C41.2458 136.237 42.1436 136.268 42.3255 136.257C43.1556 136.209 43.1454 136.257 43.7302 136.257C44.4351 136.257 45.135 135.565 45.135 134.853C45.135 134.14 44.4351 133.448 43.7302 133.448C43.0873 133.448 43.1996 133.397 42.3255 133.448C42.1397 133.458 41.249 133.427 40.9208 133.448C38.7059 133.584 37.8451 133.575 36.7067 133.448C36.0056 133.37 35.3792 134.144 35.3019 134.853C35.2247 135.561 36.0056 136.179 36.7067 136.257Z" fill="#90BFFF"/>
<path fill-rule="evenodd" clip-rule="evenodd" d="M168.75 64.6173C168.849 66.1488 171.427 66.1457 171.56 64.6173C171.869 61.0682 173.371 59.2163 175.774 58.9984C175.966 58.9953 175.572 59.0115 175.774 58.9984C177.37 58.891 177.374 56.189 175.774 56.189C175.562 56.189 175.978 56.1735 175.774 56.189C173.218 56.2095 172.134 56.3754 171.56 53.3796C171.533 53.2408 171.628 52.3407 171.56 51.9748C171.496 51.637 171.602 52.1865 171.56 51.9748C171.269 50.5466 168.827 50.5193 168.75 51.9748C168.738 52.1896 168.761 51.603 168.75 51.9748C168.735 52.4763 168.777 53.1243 168.75 53.3796C168.685 53.998 169.081 54.2061 168.75 54.7843C168.167 55.8023 166.279 56.2175 164.536 56.189C162.942 56.1635 162.948 58.8556 164.536 58.9984C166.598 59.184 167.108 59.9481 167.345 60.4031C168.074 61.8217 168.647 63.0163 168.75 64.6173ZM175.774 56.189C175.934 56.1871 175.601 56.2008 175.774 56.189V56.189C175.626 56.1313 175.964 56.1865 175.774 56.189ZM175.774 58.9984C175.925 58.986 175.613 58.9984 175.774 58.9984V58.9984C175.639 59.0617 175.95 58.9841 175.774 58.9984ZM168.75 57.5937C169.264 57.2305 169.806 56.7136 170.155 56.189C170.53 56.8588 170.981 57.1896 171.56 57.5937C171.042 58.0587 170.526 59.7526 170.155 60.4031C170.035 60.1269 170.293 59.2672 170.155 58.9984C169.921 58.5515 169.183 57.9078 168.75 57.5937Z" fill="#FCD400"/>
<path fill-rule="evenodd" clip-rule="evenodd" d="M25.4679 95.521C27.0656 95.4154 27.0693 92.7115 25.4679 92.7115C25.2595 92.7115 25.669 92.696 25.4679 92.7115C22.8956 92.7326 21.8314 92.9229 21.2538 89.9021C21.2284 89.7699 21.3183 88.8438 21.2538 88.4974C21.1905 88.1578 21.2966 88.7091 21.2538 88.4974C20.9634 87.0689 18.5213 87.0416 18.4444 88.4974C18.4332 88.7115 18.4555 88.1274 18.4444 88.4974C18.4301 88.9897 18.4698 89.6513 18.4444 89.9021C18.3805 90.5309 18.7769 90.7239 18.4444 91.3068C17.8599 92.3249 15.9687 92.7457 14.2302 92.7115C12.635 92.6811 12.6418 95.3745 14.2302 95.521C16.2951 95.7122 16.802 96.4713 17.0396 96.9257C17.7656 98.3442 18.3389 99.5382 18.4444 101.14C18.5461 102.67 21.1204 102.667 21.2538 101.14C21.5628 97.587 23.06 95.7351 25.4679 95.521C25.6566 95.5179 25.27 95.534 25.4679 95.521ZM25.4679 92.7115C25.6262 92.7097 25.2973 92.7227 25.4679 92.7115V92.7115C25.3215 92.6557 25.6553 92.709 25.4679 92.7115ZM25.4679 95.521C25.6162 95.5092 25.3104 95.521 25.4679 95.521V95.521C25.3346 95.5818 25.6411 95.5073 25.4679 95.521ZM18.4444 94.1162C18.9581 93.7531 19.4998 93.2367 19.8491 92.7115C20.2232 93.382 20.6743 93.7127 21.2538 94.1162C20.7357 94.5818 20.2207 96.2745 19.8491 96.9257C19.7293 96.6494 19.9868 95.7891 19.8491 95.521C19.6152 95.0727 18.8774 94.431 18.4444 94.1162Z" fill="#EAF3F3"/>
<path d="M101.324 16.8564V16.8564C101.324 16.1804 100.695 15.4517 99.9189 15.4517C99.1435 15.4517 98.5142 16.1804 98.5142 16.8564V16.8564C98.5142 17.5325 99.1435 18.2611 99.9189 18.2611C100.695 18.2611 101.324 17.5325 101.324 16.8564Z" fill="#90BFFF"/>
<path d="M195.44 81.4732V81.4732C195.44 80.7969 194.811 80.0685 194.035 80.0685C193.259 80.0685 192.63 80.7969 192.63 81.4732V81.4732C192.63 82.1495 193.259 82.8779 194.035 82.8779C194.811 82.8779 195.44 82.1495 195.44 81.4732Z" fill="#90BFFF"/>
<path d="M191.226 35.1176V35.1176C191.226 34.4401 190.597 33.7129 189.821 33.7129C189.045 33.7129 188.417 34.4401 188.417 35.1176V35.1176C188.417 35.7952 189.045 36.5223 189.821 36.5223C190.597 36.5223 191.226 35.7952 191.226 35.1176Z" fill="#EAF3F3"/>
<path d="M199.654 47.7601V47.7601C199.654 47.084 199.025 46.3554 198.249 46.3554C197.473 46.3554 196.844 47.084 196.844 47.7601V47.7601C196.844 48.4362 197.473 49.1648 198.249 49.1648C199.025 49.1648 199.654 48.4362 199.654 47.7601Z" fill="#4E6AF0"/>
<path d="M182.797 7.02322V7.02322C182.797 6.34712 182.169 5.6185 181.393 5.6185C180.617 5.6185 179.988 6.34712 179.988 7.02322V7.02322C179.988 7.69932 180.617 8.42794 181.393 8.42794C182.169 8.42794 182.797 7.69932 182.797 7.02322Z" fill="#FCD400"/>
<path d="M11.4217 109.568V109.568C11.4217 108.89 10.7924 108.163 10.017 108.163C9.24092 108.163 8.6123 108.89 8.6123 109.568V109.568C8.6123 110.245 9.24092 110.972 10.017 110.972C10.7924 110.972 11.4217 110.245 11.4217 109.568Z" fill="#FCD400"/>
<path d="M54.968 39.3321V39.3321C54.968 38.6087 54.3394 37.9274 53.5633 37.9274C52.7879 37.9274 52.1586 38.6087 52.1586 39.3321V39.3321C52.1586 40.0555 52.7879 40.7368 53.5633 40.7368C54.3394 40.7368 54.968 40.0555 54.968 39.3321Z" fill="#EAF3F3"/>
<path d="M63.3965 8.4284V8.4284C63.3965 7.7067 62.7679 7.02368 61.9918 7.02368C61.2164 7.02368 60.5871 7.7067 60.5871 8.4284V8.4284C60.5871 9.1501 61.2164 9.83312 61.9918 9.83312C62.7679 9.83312 63.3965 9.1501 63.3965 8.4284Z" fill="#4E6AF0"/>
<path d="M140.656 19.6658V19.6658C140.656 19.0298 140.027 18.261 139.251 18.261C138.476 18.261 137.846 19.0298 137.846 19.6658V19.6658C137.846 20.3017 138.476 21.0705 139.251 21.0705C140.027 21.0705 140.656 20.3017 140.656 19.6658Z" fill="#EAF3F3"/>
<path d="M126.609 1.40453V1.40453C126.609 0.727019 125.98 -0.000183105 125.204 -0.000183105C124.429 -0.000183105 123.799 0.727019 123.799 1.40453V1.40453C123.799 2.08211 124.429 2.80925 125.204 2.80925C125.98 2.80925 126.609 2.08211 126.609 1.40453Z" fill="#FCD400"/>
<path d="M184.202 129.234V129.234C184.202 128.558 183.573 127.829 182.797 127.829C182.021 127.829 181.393 128.558 181.393 129.234V129.234C181.393 129.91 182.021 130.639 182.797 130.639C183.573 130.639 184.202 129.91 184.202 129.234Z" fill="#FCD400"/>
<path d="M29.683 63.212V63.212C29.683 62.5128 29.0544 61.8073 28.2783 61.8073C27.5028 61.8073 26.8735 62.5128 26.8735 63.212V63.212C26.8735 63.9112 27.5028 64.6167 28.2783 64.6167C29.0544 64.6167 29.683 63.9112 29.683 63.212Z" fill="#90BFFF"/>
<path d="M174.369 110.973V110.973C174.369 110.274 173.74 109.568 172.964 109.568C172.188 109.568 171.559 110.274 171.559 110.973V110.973C171.559 111.671 172.188 112.377 172.964 112.377C173.74 112.377 174.369 111.671 174.369 110.973Z" fill="#4E6AF0"/>
<path d="M40.9208 101.14V101.14C40.9208 100.439 40.2915 99.7349 39.5161 99.7349C38.74 99.7349 38.1114 100.439 38.1114 101.14V101.14C38.1114 101.84 38.74 102.544 39.5161 102.544C40.2915 102.544 40.9208 101.84 40.9208 101.14Z" fill="#4E6AF0"/>
<path d="M158.917 78.6639V78.6639C158.917 77.9647 158.288 77.2592 157.512 77.2592C156.736 77.2592 156.108 77.9647 156.108 78.6639V78.6639C156.108 79.3624 156.736 80.0686 157.512 80.0686C158.288 80.0686 158.917 79.3624 158.917 78.6639Z" fill="#EAF3F3"/>
<path d="M15.6363 129.234V129.234C15.6363 128.535 15.007 127.829 14.2316 127.829C13.4555 127.829 12.8268 128.535 12.8268 129.234V129.234C12.8268 129.933 13.4555 130.639 14.2316 130.639C15.007 130.639 15.6363 129.933 15.6363 129.234Z" fill="#EAF3F3"/>
<path fill-rule="evenodd" clip-rule="evenodd" d="M70.0426 71.7763L63.6871 52.5528C63.6871 52.5528 60.976 45.3418 64.8099 42.994C69.2586 40.2699 76.1303 44.0722 76.1303 44.0722L106.427 60.8123C106.427 60.8123 95 64.2716 70.0426 71.7763Z" fill="#952BB9"/>
<path fill-rule="evenodd" clip-rule="evenodd" d="M10.467 78.9118L26.8958 117.801L77.2321 101.045L80.1021 128.494C80.1021 128.494 80.7652 139.476 87.1746 140.223C93.5834 140.969 99.2798 136.029 103.824 127.05C108.367 118.07 117.996 88.4602 117.996 88.4602L152.165 78.3758C152.165 78.3758 161.669 75.3855 160.056 68.8777C158.443 62.3693 135.285 56.8661 135.285 56.8661C135.285 56.8661 126.023 54.6934 114.793 58.2406C103.563 61.7867 34.376 82.4536 34.376 82.4536L19.4028 71.8434C19.4028 71.8434 15.5368 69.0147 11.6929 70.8895C7.84951 72.7649 10.467 78.9118 10.467 78.9118Z" fill="#F770FF"/>
<path fill-rule="evenodd" clip-rule="evenodd" d="M43.8074 94.833C45.0653 100.109 53.7698 98.2713 52.5745 92.9221C51.4189 87.7522 42.5186 89.4286 43.8074 94.833Z" fill="white"/>
<path fill-rule="evenodd" clip-rule="evenodd" d="M60.5599 88.7768C61.8178 94.0525 70.5223 92.2151 69.327 86.8658C68.1715 81.696 59.2711 83.3724 60.5599 88.7768Z" fill="white"/>
<path fill-rule="evenodd" clip-rule="evenodd" d="M78.4366 83.4879C79.6944 88.763 88.3989 86.9256 87.2036 81.5764C86.0475 76.4066 77.1478 78.0835 78.4366 83.4879Z" fill="white"/>
<path fill-rule="evenodd" clip-rule="evenodd" d="M99.0085 77.1295C100.266 82.4052 108.971 80.5678 107.776 75.2186C106.62 70.0487 97.7197 71.7251 99.0085 77.1295Z" fill="white"/>
<path fill-rule="evenodd" clip-rule="evenodd" d="M119.447 71.6689C120.705 76.944 129.409 75.1065 128.214 69.7573C127.058 64.5875 118.158 66.2645 119.447 71.6689Z" fill="white"/>
<path opacity="0.7" fill-rule="evenodd" clip-rule="evenodd" d="M136.689 52.3897C136.094 51.4809 135.51 50.1011 136.194 49.2891C136.598 48.8092 137.282 48.8472 137.772 49.1897C138.262 49.5322 138.604 50.1095 138.931 50.6694C138.407 49.3757 137.872 48.0321 137.835 46.592C137.798 45.1518 138.401 43.5817 139.528 43.117C140.695 42.6351 141.939 43.4524 142.946 44.3138C145.098 46.1527 147.044 48.3432 148.716 50.807C148.61 50.0337 148.505 49.2406 148.628 48.471C148.751 47.7012 149.153 46.9476 149.769 46.706C150.379 46.4664 151.04 46.7688 151.613 47.1186C153.586 48.3219 155.294 50.1555 156.517 52.3834C156.335 52.3834 156.604 52.6838 156.423 52.6838L136.689 52.3897Z" fill="#9059FF"/>
<path opacity="0.7" fill-rule="evenodd" clip-rule="evenodd" d="M57.4817 31.4161C58.0764 30.5072 58.6607 29.1275 57.977 28.3154C57.5729 27.8355 56.8889 27.8736 56.3987 28.2161C55.9084 28.5586 55.5666 29.1359 55.2402 29.6958C55.764 28.4021 56.2984 27.0585 56.3356 25.6183C56.3728 24.1782 55.7696 22.608 54.6432 22.1434C53.4756 21.6615 52.2322 22.4788 51.2244 23.3402C49.0728 25.1791 47.1265 27.3696 45.4547 29.8334C45.5603 29.0601 45.666 28.2669 45.5429 27.4973C45.4197 26.7276 45.0179 25.9739 44.402 25.7324C43.7913 25.4928 43.1311 25.7952 42.5578 26.1449C40.5847 27.3483 38.8768 29.1819 37.6539 31.4098C37.8353 31.4098 37.5664 31.7102 37.7478 31.7102L57.4817 31.4161Z" fill="#F68FFF"/>
</svg>
