<svg width="258" height="156" viewBox="0 0 258 156" fill="none" xmlns="http://www.w3.org/2000/svg">
<path d="M218.04 129.617V13.4359C218.035 9.87404 216.617 6.45949 214.096 3.94086C211.576 1.42222 208.159 0.00503976 204.594 0H21.891C18.3265 0.00504117 14.9095 1.42222 12.389 3.94086C9.86858 6.45949 8.45036 9.87404 8.44531 13.4359V129.617C8.45036 133.179 9.86858 136.594 12.389 139.112C14.9095 141.631 18.3265 143.048 21.891 143.053H204.594C208.159 143.048 211.576 141.631 214.096 139.112C216.617 136.594 218.035 133.179 218.04 129.617ZM21.891 141.472C18.7457 141.469 15.7303 140.218 13.5062 137.996C11.2822 135.773 10.031 132.76 10.0272 129.617V13.4359C10.031 10.2929 11.2822 7.27969 13.5062 5.05723C15.7303 2.83477 18.7457 1.58451 21.891 1.58069H204.594C207.74 1.58451 210.755 2.83477 212.979 5.05723C215.203 7.27969 216.454 10.2929 216.458 13.4359V129.617C216.454 132.76 215.203 135.773 212.979 137.996C210.755 140.218 207.74 141.469 204.594 141.472H21.891Z" fill="#3F3D56"/>
<path d="M19.8208 118.678L31.4692 125.496L63.6075 70.5894L51.9591 63.7713L19.8208 118.678Z" fill="#E6E6E6"/>
<path d="M5.57201 136.483L10.2849 128.716L21.7665 129.08L27.1859 139.435L22.807 146.651C26.2018 146.229 29.3792 144.756 31.8939 142.437C34.4086 140.118 36.1343 137.07 36.8293 133.721C37.5243 130.372 37.1536 126.889 35.7693 123.761C34.3849 120.632 32.0563 118.016 29.1099 116.277C26.1634 114.539 22.7469 113.766 19.3393 114.067C15.9317 114.368 12.7039 115.728 10.1084 117.956C7.51293 120.184 5.67991 123.169 4.86637 126.491C4.05283 129.814 4.29957 133.307 5.57194 136.483L5.57201 136.483Z" fill="#E6E6E6"/>
<path d="M61.846 43.1329L57.1784 50.927L62.8612 60.9102L74.5483 60.8678L78.8852 53.6261C80.0971 56.8251 80.2776 60.323 79.4012 63.6294C78.5248 66.9358 76.6355 69.8849 73.9983 72.0634C71.361 74.2418 68.108 75.5402 64.6953 75.7767C61.2826 76.0131 57.8813 75.1757 54.9684 73.3818C52.0554 71.5879 49.7768 68.9275 48.452 65.7736C47.1272 62.6197 46.8226 59.1304 47.581 55.7949C48.3394 52.4594 50.1226 49.445 52.6808 47.1743C55.239 44.9035 58.4438 43.4904 61.846 43.1329L61.846 43.1329Z" fill="#E6E6E6"/>
<path d="M226.912 131.177L239.088 125.352L211.63 67.9606L199.455 73.7857L226.912 131.177Z" fill="#E6E6E6"/>
<path d="M233.671 152.957L229.881 144.7L236.618 135.396L248.23 136.712L251.752 144.383C253.306 141.335 253.866 137.877 253.355 134.495C252.845 131.113 251.288 127.976 248.904 125.523C246.52 123.07 243.427 121.425 240.061 120.818C236.694 120.211 233.222 120.673 230.131 122.138C227.04 123.604 224.485 126 222.824 128.991C221.164 131.982 220.481 135.417 220.871 138.815C221.261 142.214 222.705 145.405 225.001 147.941C227.296 150.477 230.328 152.23 233.671 152.957L233.671 152.957Z" fill="#E6E6E6"/>
<path d="M187.905 54.0301L191.743 62.2642L203.196 63.1536L209.712 53.4511L206.145 45.8005C209.474 46.5899 212.472 48.401 214.719 50.9801C216.966 53.5591 218.349 56.7767 218.675 60.1818C219.001 63.5868 218.253 67.0086 216.536 69.9674C214.819 72.9261 212.219 75.2735 209.101 76.6804C205.982 78.0873 202.502 78.4831 199.147 77.8125C195.793 77.1418 192.733 75.4383 190.395 72.9407C188.058 70.4432 186.561 67.2767 186.115 63.8854C185.668 60.4941 186.294 57.048 187.905 54.0301L187.905 54.0301Z" fill="#E6E6E6"/>
<path d="M216.323 20.8667H10.1624C9.95294 20.8667 9.75204 20.7812 9.60391 20.629C9.45578 20.4768 9.37256 20.2704 9.37256 20.0552C9.37256 19.84 9.45578 19.6336 9.60391 19.4814C9.75204 19.3292 9.95294 19.2437 10.1624 19.2437H216.323C216.532 19.2437 216.733 19.3292 216.881 19.4814C217.029 19.6336 217.113 19.84 217.113 20.0552C217.113 20.2704 217.029 20.4768 216.881 20.629C216.733 20.7812 216.532 20.8667 216.323 20.8667Z" fill="#3F3D56"/>
<path d="M23.5157 15.0704C25.6925 15.0704 27.4572 13.2538 27.4572 11.013C27.4572 8.77214 25.6925 6.95557 23.5157 6.95557C21.3389 6.95557 19.5742 8.77214 19.5742 11.013C19.5742 13.2538 21.3389 15.0704 23.5157 15.0704Z" fill="#6C63FF"/>
<path d="M36.731 15.0704C38.9079 15.0704 40.6725 13.2538 40.6725 11.013C40.6725 8.77214 38.9079 6.95557 36.731 6.95557C34.5542 6.95557 32.7896 8.77214 32.7896 11.013C32.7896 13.2538 34.5542 15.0704 36.731 15.0704Z" fill="#6C63FF"/>
<path d="M50.1783 15.0704C52.3551 15.0704 54.1198 13.2538 54.1198 11.013C54.1198 8.77214 52.3551 6.95557 50.1783 6.95557C48.0015 6.95557 46.2368 8.77214 46.2368 11.013C46.2368 13.2538 48.0015 15.0704 50.1783 15.0704Z" fill="#6C63FF"/>
<path d="M93.9964 57.4995H87.6829C86.7061 57.4995 85.7694 57.1086 85.0787 56.4129C84.388 55.7172 84 54.7737 84 53.7898C84 52.806 84.388 51.8624 85.0787 51.1667C85.7694 50.471 86.7061 50.0802 87.6829 50.0802H93.9964C94.9732 50.0802 95.9099 50.471 96.6006 51.1667C97.2913 51.8624 97.6793 52.806 97.6793 53.7898C97.6793 54.7737 97.2913 55.7172 96.6006 56.4129C95.9099 57.1086 94.9732 57.4995 93.9964 57.4995Z" fill="#CCCCCC"/>
<path d="M137.754 73.0335H131.333C130.34 73.0335 129.387 72.6427 128.685 71.947C127.982 71.2513 127.588 70.3078 127.588 69.3239C127.588 68.34 127.982 67.3965 128.685 66.7008C129.387 66.0051 130.34 65.6143 131.333 65.6143H137.754C138.747 65.6143 139.7 66.0051 140.402 66.7008C141.104 67.3965 141.499 68.34 141.499 69.3239C141.499 70.3078 141.104 71.2513 140.402 71.947C139.7 72.6427 138.747 73.0335 137.754 73.0335Z" fill="#CCCCCC"/>
<path d="M157.925 73.0335H151.505C150.511 73.0335 149.559 72.6427 148.856 71.947C148.154 71.2513 147.759 70.3078 147.759 69.3239C147.759 68.34 148.154 67.3965 148.856 66.7008C149.559 66.0051 150.511 65.6143 151.505 65.6143H157.925C158.918 65.6143 159.871 66.0051 160.573 66.7008C161.276 67.3965 161.67 68.34 161.67 69.3239C161.67 70.3078 161.276 71.2513 160.573 71.947C159.871 72.6427 158.918 73.0335 157.925 73.0335Z" fill="#CCCCCC"/>
<path d="M178.328 73.0335H171.908C170.915 73.0335 169.962 72.6427 169.26 71.947C168.557 71.2513 168.163 70.3078 168.163 69.3239C168.163 68.34 168.557 67.3965 169.26 66.7008C169.962 66.0051 170.915 65.6143 171.908 65.6143H178.328C179.322 65.6143 180.274 66.0051 180.977 66.7008C181.679 67.3965 182.074 68.34 182.074 69.3239C182.074 70.3078 181.679 71.2513 180.977 71.947C180.274 72.6427 179.322 73.0335 178.328 73.0335Z" fill="#CCCCCC"/>
<path d="M138.253 57.7313H108.576C107.592 57.7313 106.649 57.3405 105.953 56.6448C105.258 55.9491 104.867 55.0055 104.867 54.0217C104.867 53.0378 105.258 52.0942 105.953 51.3985C106.649 50.7029 107.592 50.312 108.576 50.312H138.253C139.237 50.312 140.181 50.7029 140.877 51.3985C141.572 52.0942 141.963 53.0378 141.963 54.0217C141.963 55.0055 141.572 55.9491 140.877 56.6448C140.181 57.3405 139.237 57.7313 138.253 57.7313Z" fill="#CCCCCC"/>
<path d="M117.595 72.8018H87.7328C86.7428 72.8018 85.7934 72.3987 85.0933 71.6813C84.3933 70.9638 84 69.9908 84 68.9762C84 67.9616 84.3933 66.9886 85.0933 66.2711C85.7934 65.5537 86.7428 65.1506 87.7328 65.1506H117.595C118.585 65.1506 119.535 65.5537 120.235 66.2711C120.935 66.9886 121.328 67.9616 121.328 68.9762C121.328 69.9908 120.935 70.9638 120.235 71.6813C119.535 72.3987 118.585 72.8018 117.595 72.8018Z" fill="#CCCCCC"/>
<path d="M176.257 57.7313H153.344C152.355 57.7313 151.406 57.3405 150.707 56.6448C150.007 55.9491 149.614 55.0055 149.614 54.0217C149.614 53.0378 150.007 52.0942 150.707 51.3985C151.406 50.7029 152.355 50.312 153.344 50.312H176.257C177.246 50.312 178.195 50.7029 178.894 51.3985C179.594 52.0942 179.987 53.0378 179.987 54.0217C179.987 55.0055 179.594 55.9491 178.894 56.6448C178.195 57.3405 177.246 57.7313 176.257 57.7313Z" fill="#CCCCCC"/>
<path d="M93.9964 89.0314H87.6829C86.7061 89.0314 85.7694 88.6283 85.0787 87.9109C84.388 87.1935 84 86.2204 84 85.2058C84 84.1912 84.388 83.2182 85.0787 82.5008C85.7694 81.7833 86.7061 81.3803 87.6829 81.3803H93.9964C94.9732 81.3803 95.9099 81.7833 96.6006 82.5008C97.2913 83.2182 97.6793 84.1912 97.6793 85.2058C97.6793 86.2204 97.2913 87.1935 96.6006 87.9109C95.9099 88.6283 94.9732 89.0314 93.9964 89.0314Z" fill="#CCCCCC"/>
<path d="M138.253 89.2633H108.576C107.592 89.2633 106.649 88.8602 105.953 88.1428C105.258 87.4253 104.867 86.4523 104.867 85.4377C104.867 84.4231 105.258 83.45 105.953 82.7326C106.649 82.0152 107.592 81.6121 108.576 81.6121H138.253C139.237 81.6121 140.181 82.0152 140.877 82.7326C141.572 83.45 141.963 84.4231 141.963 85.4377C141.963 86.4523 141.572 87.4253 140.877 88.1428C140.181 88.8602 139.237 89.2633 138.253 89.2633Z" fill="#CCCCCC"/>
<path d="M176.257 89.2633H153.344C152.355 89.2633 151.406 88.8602 150.707 88.1428C150.007 87.4253 149.614 86.4523 149.614 85.4377C149.614 84.4231 150.007 83.45 150.707 82.7326C151.406 82.0152 152.355 81.6121 153.344 81.6121H176.257C177.246 81.6121 178.195 82.0152 178.894 82.7326C179.594 83.45 179.987 84.4231 179.987 85.4377C179.987 86.4523 179.594 87.4253 178.894 88.1428C178.195 88.8602 177.246 89.2633 176.257 89.2633Z" fill="#CCCCCC"/>
<path d="M166.076 101.667C166.077 100.653 166.472 99.6807 167.174 98.9635C167.876 98.2463 168.828 97.8429 169.821 97.8418H176.242C177.235 97.8418 178.187 98.2449 178.89 98.9623C179.592 99.6797 179.987 100.653 179.987 101.667C179.987 102.682 179.592 103.655 178.89 104.372C178.187 105.09 177.235 105.493 176.242 105.493H169.821C168.828 105.492 167.876 105.088 167.174 104.371C166.472 103.654 166.077 102.682 166.076 101.667Z" fill="#CCCCCC"/>
<path d="M121.792 101.899C121.793 100.885 122.187 99.9126 122.887 99.1954C123.586 98.4782 124.535 98.0748 125.525 98.0737H155.387C156.377 98.0737 157.327 98.4767 158.027 99.1941C158.727 99.9116 159.12 100.885 159.12 101.899C159.12 102.914 158.727 103.887 158.027 104.604C157.327 105.322 156.377 105.725 155.387 105.725H125.525C124.535 105.724 123.586 105.32 122.887 104.603C122.187 103.886 121.793 102.913 121.792 101.899Z" fill="#CCCCCC"/>
<path d="M84 101.899C84.0011 100.885 84.3944 99.9126 85.0937 99.1954C85.793 98.4782 86.7411 98.0748 87.73 98.0737H110.643C111.632 98.0737 112.581 98.4767 113.28 99.1941C113.98 99.9116 114.373 100.885 114.373 101.899C114.373 102.914 113.98 103.887 113.28 104.604C112.581 105.322 111.632 105.725 110.643 105.725H87.73C86.7411 105.724 85.793 105.32 85.0937 104.603C84.3944 103.886 84.0011 102.913 84 101.899Z" fill="#CCCCCC"/>
</svg>
