<svg width="437" height="359" viewBox="0 0 437 359" fill="none" xmlns="http://www.w3.org/2000/svg">
<path opacity="0.19" fill-rule="evenodd" clip-rule="evenodd" d="M209.584 0.189327C271.828 -3.41666 326.708 45.0626 362.567 96.5133C395.583 143.886 408.515 204.745 389.173 259.268C371.836 308.136 320.965 327.448 272.773 345.627C231.601 361.158 188.432 361.909 146.395 348.949C91.1035 331.901 22.4446 318.714 6.71546 262.589C-9.30982 205.407 43.5657 159.908 79.8812 113.121C116.852 65.4896 149.714 3.65776 209.584 0.189327Z" fill="#CB9EFF"/>
<g opacity="0.5">
<path fill-rule="evenodd" clip-rule="evenodd" d="M371.497 31.3863C369.821 28.8571 367.301 24.539 369.228 22.2793C370.367 20.9439 372.385 21.3263 373.767 22.2793C375.149 23.2324 377.385 25.2748 378.305 26.8328C376.829 23.2329 373.871 17.1799 373.767 13.1724C373.662 9.16498 377.4 5.35857 380.574 4.06551C383.866 2.72465 386.811 6.2219 389.651 8.61897C395.716 13.7361 400.824 19.9767 405.536 26.8328C405.238 24.681 405.189 22.1442 405.536 20.0026C405.883 17.8608 406.069 16.1213 407.805 15.4492C409.527 14.7824 412.997 14.4759 414.613 15.4492C420.174 18.7977 424.782 25.1867 428.228 31.3863C428.74 31.3863 427.717 31.3863 428.228 31.3863H371.497Z" fill="#F770FF"/>
<path fill-rule="evenodd" clip-rule="evenodd" d="M48.4412 99.3577C49.869 97.1614 52.0152 93.4114 50.3739 91.4491C49.4039 90.2894 47.6855 90.6215 46.5086 91.4491C45.3316 92.2768 43.4269 94.0504 42.6434 95.4034C43.9008 92.2772 46.4193 87.0207 46.5086 83.5405C46.5979 80.0604 43.4146 76.7548 40.7108 75.6319C37.9076 74.4675 35.3995 77.5045 32.9803 79.5862C27.8152 84.03 23.4652 89.4495 19.4519 95.4034C19.7055 93.5347 19.7475 91.3318 19.4519 89.472C19.1564 87.6119 18.9978 86.1014 17.5193 85.5177C16.0533 84.9386 13.0976 84.6724 11.7214 85.5177C6.98488 88.4256 3.06123 93.9739 0.125701 99.3577C-0.30974 99.3577 0.561142 99.3577 0.125701 99.3577H48.4412Z" fill="#F770FF"/>
</g>
<path fill-rule="evenodd" clip-rule="evenodd" d="M390.167 242.453C389.041 240.727 387.348 237.781 388.643 236.239C389.408 235.328 390.764 235.589 391.692 236.239C392.62 236.89 394.123 238.283 394.741 239.346C393.749 236.89 391.762 232.76 391.692 230.026C391.621 227.291 394.132 224.694 396.265 223.812C398.476 222.897 400.454 225.283 402.362 226.919C406.436 230.41 409.868 234.668 413.033 239.346C412.833 237.878 412.8 236.147 413.033 234.686C413.266 233.224 413.391 232.038 414.557 231.579C415.714 231.124 418.045 230.915 419.131 231.579C422.867 233.864 425.961 238.223 428.277 242.453C428.62 242.453 427.933 242.453 428.277 242.453H390.167Z" fill="#FF7139"/>
<path d="M429.734 200.185C429.769 200.901 429.661 201.723 429.734 202.827C429.724 202.672 429.744 202.983 429.734 202.827C429.912 205.522 429.734 206.601 429.734 208.111C429.734 208.745 430.438 209.431 431.055 209.431C431.672 209.431 432.376 208.745 432.376 208.111C432.376 206.532 432.557 205.574 432.376 202.827C432.366 202.671 432.386 202.982 432.376 202.827C432.304 201.736 432.41 200.884 432.376 200.185C432.345 199.551 431.672 198.833 431.055 198.864C430.439 198.896 429.703 199.551 429.734 200.185Z" fill="#90BFFF"/>
<path d="M428.413 205.468C429.665 205.607 430.155 205.605 432.375 205.468C432.681 205.449 433.525 205.477 433.696 205.468C434.477 205.422 434.467 205.468 435.017 205.468C435.68 205.468 436.338 204.817 436.338 204.147C436.338 203.477 435.68 202.826 435.017 202.826C434.413 202.826 434.518 202.778 433.696 202.826C433.522 202.836 432.684 202.807 432.375 202.826C430.293 202.954 429.483 202.945 428.413 202.826C427.754 202.753 427.165 203.481 427.092 204.147C427.019 204.813 427.754 205.394 428.413 205.468Z" fill="#90BFFF"/>
<path fill-rule="evenodd" clip-rule="evenodd" d="M417.846 167.164C419.348 167.064 419.352 164.522 417.846 164.522C417.65 164.522 418.035 164.507 417.846 164.522C415.427 164.542 414.426 164.72 413.883 161.88C413.859 161.756 413.944 160.885 413.883 160.559C413.824 160.24 413.924 160.758 413.883 160.559C413.61 159.216 411.314 159.19 411.242 160.559C411.231 160.76 411.252 160.211 411.242 160.559C411.228 161.022 411.265 161.644 411.242 161.88C411.181 162.471 411.554 162.653 411.242 163.201C410.692 164.158 408.914 164.554 407.279 164.522C405.779 164.493 405.785 167.026 407.279 167.164C409.22 167.343 409.697 168.057 409.921 168.484C410.603 169.818 411.142 170.941 411.242 172.447C411.337 173.886 413.758 173.883 413.883 172.447C414.174 169.106 415.582 167.365 417.846 167.164C418.023 167.161 417.66 167.176 417.846 167.164ZM417.846 164.522C417.686 164.532 417.995 164.52 417.846 164.522C417.708 164.469 418.022 164.519 417.846 164.522ZM417.846 167.164C417.698 167.164 417.985 167.152 417.846 167.164C417.721 167.221 418.009 167.151 417.846 167.164ZM411.242 165.843C411.725 165.501 412.234 165.016 412.562 164.522C412.914 165.152 413.338 165.463 413.883 165.843C413.396 166.28 412.912 167.872 412.562 168.484C412.45 168.225 412.692 167.416 412.562 167.164C412.342 166.742 411.649 166.139 411.242 165.843Z" fill="#EAF3F3"/>
<path d="M404.637 180.372C404.637 179.734 404.045 179.051 403.316 179.051C402.586 179.051 401.995 179.734 401.995 180.372C401.995 181.009 402.586 181.693 403.316 181.693C404.045 181.693 404.637 181.009 404.637 180.372Z" fill="#FCD400"/>
<path d="M432.376 172.446C432.376 171.787 431.784 171.125 431.055 171.125C430.325 171.125 429.734 171.787 429.734 172.446C429.734 173.105 430.325 173.767 431.055 173.767C431.784 173.767 432.376 173.105 432.376 172.446Z" fill="#4E6AF0"/>
<path d="M408.6 198.864C408.6 198.206 408.008 197.543 407.279 197.543C406.549 197.543 405.958 198.206 405.958 198.864C405.958 199.521 406.549 200.185 407.279 200.185C408.008 200.185 408.6 199.521 408.6 198.864Z" fill="#EAF3F3"/>
<path d="M62.9138 72.0494C62.9484 72.7654 62.8406 73.5874 62.9138 74.6912C62.9037 74.5361 62.9238 74.8475 62.9138 74.6912C63.0919 77.3867 62.9138 78.4648 62.9138 79.9748C62.9138 80.6092 63.618 81.2957 64.2347 81.2957C64.8519 81.2957 65.5555 80.6092 65.5555 79.9748C65.5555 78.3958 65.7371 77.4378 65.5555 74.6912C65.5455 74.5355 65.5662 74.8464 65.5555 74.6912C65.484 73.6001 65.5896 72.7487 65.5555 72.0494C65.5248 71.4157 64.8513 70.6969 64.2347 70.7285C63.6185 70.7607 62.883 71.4157 62.9138 72.0494Z" fill="#90BFFF"/>
<path d="M61.5925 77.332C62.8449 77.4715 63.3349 77.4691 65.5552 77.332C65.8608 77.3132 66.7049 77.3417 66.8761 77.332C67.6566 77.2865 67.647 77.332 68.197 77.332C68.8598 77.332 69.5178 76.6813 69.5178 76.0111C69.5178 75.341 68.8598 74.6902 68.197 74.6902C67.5924 74.6902 67.698 74.6423 66.8761 74.6902C66.7013 74.6999 65.8638 74.6708 65.5552 74.6902C63.4724 74.8182 62.663 74.8097 61.5925 74.6902C60.9332 74.6169 60.3442 75.3453 60.2716 76.0111C60.1989 76.677 60.9332 77.2586 61.5925 77.332Z" fill="#90BFFF"/>
<path fill-rule="evenodd" clip-rule="evenodd" d="M51.0257 39.0278C52.528 38.9285 52.5315 36.386 51.0257 36.386C50.8296 36.386 51.2147 36.3714 51.0257 36.386C48.6068 36.4058 47.6062 36.5847 47.063 33.7442C47.0391 33.6199 47.1237 32.749 47.063 32.4233C47.0035 32.104 47.1032 32.6224 47.063 32.4233C46.7899 31.0801 44.4936 31.0544 44.4212 32.4233C44.4107 32.6247 44.4317 32.0754 44.4212 32.4233C44.4078 32.8862 44.4451 33.5084 44.4212 33.7442C44.3611 34.3355 44.7339 34.517 44.4212 35.0651C43.8716 36.0224 42.0933 36.4181 40.4585 36.386C38.9585 36.3574 38.965 38.89 40.4585 39.0278C42.4002 39.2076 42.8769 39.9214 43.1003 40.3487C43.7829 41.6825 44.322 42.8053 44.4212 44.3113C44.5169 45.7503 46.9376 45.7474 47.063 44.3113C47.3535 40.9706 48.7614 39.2292 51.0257 39.0278C51.203 39.0249 50.8396 39.04 51.0257 39.0278ZM51.0257 36.386C50.8652 36.3965 51.1744 36.3842 51.0257 36.386C50.888 36.3334 51.2019 36.3837 51.0257 36.386ZM51.0257 39.0278C50.8775 39.0278 51.1651 39.0167 51.0257 39.0278C50.9002 39.085 51.1885 39.0149 51.0257 39.0278ZM44.4212 37.7069C44.9043 37.3654 45.4136 36.8798 45.7421 36.386C46.0939 37.0164 46.5181 37.3274 47.063 37.7069C46.5758 38.1447 46.0916 39.7363 45.7421 40.3487C45.6295 40.0889 45.8716 39.28 45.7421 39.0278C45.5221 38.6063 44.8284 38.0028 44.4212 37.7069Z" fill="#EAF3F3"/>
<path d="M37.8166 52.2359C37.8166 51.5986 37.2248 50.915 36.4957 50.915C35.7659 50.915 35.1748 51.5986 35.1748 52.2359C35.1748 52.8733 35.7659 53.5568 36.4957 53.5568C37.2248 53.5568 37.8166 52.8733 37.8166 52.2359Z" fill="#FCD400"/>
<path d="M65.5549 44.3102C65.5549 43.6512 64.9631 42.9893 64.234 42.9893C63.5042 42.9893 62.9131 43.6512 62.9131 44.3102C62.9131 44.9691 63.5042 45.631 64.234 45.631C64.9631 45.631 65.5549 44.9691 65.5549 44.3102Z" fill="#4E6AF0"/>
<path d="M41.7785 70.7281C41.7785 70.0706 41.1867 69.4072 40.4576 69.4072C39.7278 69.4072 39.1367 70.0706 39.1367 70.7281C39.1367 71.385 39.7278 72.049 40.4576 72.049C41.1867 72.049 41.7785 71.385 41.7785 70.7281Z" fill="#EAF3F3"/>
<g clip-path="url(#clip0_613_37326)">
<path d="M281.42 113.164L211.96 213.582L220.7 212.777L168.03 160.107C165.73 157.807 162.05 157.807 159.865 159.992C157.565 162.177 157.565 165.857 159.75 168.042L212.305 220.712C214.835 223.242 218.975 222.782 221.045 219.907L290.39 119.489C292.115 116.844 291.54 113.279 288.895 111.439C286.25 109.599 282.685 110.174 280.845 112.819L281.42 113.164Z" fill="#9059FF"/>
<path d="M102.25 79.3547V167.1C102.135 227.705 139.28 282.215 195.86 304.295L208.05 309.01C217.48 312.69 228.06 312.69 237.605 309.01L249.795 304.18C306.26 282.1 343.52 227.59 343.405 166.87V79.0097C343.405 69.8097 338.115 61.4147 329.835 57.6197C295.91 42.6697 259.455 35.1947 222.54 35.5397C185.74 35.1947 149.17 42.6697 115.475 57.5047C106.965 61.4147 101.675 69.6947 101.79 78.8947L102.25 79.3547ZM113.635 79.2397C113.52 74.5247 116.28 70.2697 120.535 68.3147C152.62 54.1697 187.58 46.9247 222.77 47.2697C258.075 46.9247 292.92 54.0547 325.235 68.1997C329.26 70.0397 332.02 74.2947 332.02 79.0097L331.905 166.87C331.905 222.76 297.635 273.015 245.54 293.37L233.235 298.085C226.335 300.615 218.745 300.615 211.96 297.97L199.655 293.14C147.445 272.785 113.175 222.53 113.29 166.525V78.6647L113.635 79.2397Z" fill="#9059FF"/>
</g>
<defs>
<clipPath id="clip0_613_37326">
<rect width="276" height="276" fill="white" transform="translate(85 36)"/>
</clipPath>
</defs>
</svg>
