<svg xmlns="http://www.w3.org/2000/svg" width="24" height="24" viewBox="0 0 24 24">
  <path fill="#7542E5" d="M12,0 C5.372583,-4.05812251e-16 8.11624501e-16,5.372583 0,12 C-8.11624501e-16,18.627417 5.372583,24 12,24 C18.627417,24 24,18.627417 24,12 C23.9925602,5.37566713 18.6243329,0.00743982682 12,0 Z M12,21 C7.02943725,21 3,16.9705627 3,12 C3,7.02943725 7.02943725,3 12,3 C16.9705627,3 21,7.02943725 21,12 C20.9942139,16.9681641 16.9681641,20.9942139 12,21 Z M17.25,12 L12,12 L12,6.75 C12,6.33578644 11.6642136,6 11.25,6 C10.8357864,6 10.5,6.33578644 10.5,6.75 L10.5,12.75 C10.5,13.1642136 10.8357864,13.5 11.25,13.5 L17.25,13.5 C17.6642136,13.5 18,13.1642136 18,12.75 C18,12.3357864 17.6642136,12 17.25,12 Z"/>
</svg>
