<svg width="24" height="24" viewBox="0 0 24 24" fill="none" xmlns="http://www.w3.org/2000/svg">
<path fill-rule="evenodd" clip-rule="evenodd" d="M6.423 5H17.577C18.9145 5.00165 19.9983 6.0855 20 7.423V13.577C19.9983 14.9145 18.9145 15.9983 17.577 16H17V19C16.9999 19.4227 16.7341 19.7996 16.3361 19.9417C15.938 20.0837 15.4936 19.9601 15.226 19.633L12.26 16H6.423C5.0855 15.9983 4.00165 14.9145 4 13.577V7.423C4.00165 6.0855 5.0855 5.00165 6.423 5ZM17.8761 13.8761C17.9554 13.7968 18 13.6892 18 13.577V7.423C18 7.18938 17.8106 7 17.577 7H6.423C6.18938 7 6 7.18938 6 7.423V13.577C6 13.6892 6.04457 13.7968 6.12389 13.8761C6.20322 13.9554 6.31081 14 6.423 14H12.734C13.0343 13.9997 13.3189 14.1345 13.509 14.367L15 16.194V15C15 14.4477 15.4477 14 16 14H17.577C17.6892 14 17.7968 13.9554 17.8761 13.8761ZM15.5 9H8.5C8.22386 9 8 9.22386 8 9.5C8 9.77614 8.22386 10 8.5 10H15.5C15.7761 10 16 9.77614 16 9.5C16 9.22386 15.7761 9 15.5 9ZM8.5 11H15.5C15.7761 11 16 11.2239 16 11.5C16 11.7761 15.7761 12 15.5 12H8.5C8.22386 12 8 11.7761 8 11.5C8 11.2239 8.22386 11 8.5 11Z" fill="#592ACB"/>
</svg>
