<svg width="56" height="31" viewBox="0 0 56 31" fill="none" xmlns="http://www.w3.org/2000/svg">
<mask id="mask0_317_14159" style="mask-type:alpha" maskUnits="userSpaceOnUse" x="0" y="0" width="56" height="31">
<path fill-rule="evenodd" clip-rule="evenodd" d="M0.500488 0H55.5V30.5778H0.500488V0Z" fill="white"/>
</mask>
<g mask="url(#mask0_317_14159)">
<path fill-rule="evenodd" clip-rule="evenodd" d="M52.0904 30.5778H3.90992C2.02697 30.5778 0.500488 29.0513 0.500488 27.1682V3.40943C0.500488 1.52648 2.02697 0 3.90992 0H52.0904C53.9735 0 55.5 1.52648 55.5 3.40943V27.1682C55.5 29.0513 53.9735 30.5778 52.0904 30.5778Z" fill="#AB71FF"/>
</g>
<mask id="path-3-inside-1_317_14159" fill="white">
<path fill-rule="evenodd" clip-rule="evenodd" d="M28.9667 21C27.1579 21 25.3472 20.34 23.7512 19.015L2.58629 1.4433C2.49917 1.37104 2.47426 1.22185 2.53074 1.11015C2.58711 0.998298 2.70348 0.966362 2.79061 1.03878L23.9555 18.6103C27.1145 21.2331 31.1502 21.1445 34.237 18.385L53.2051 1.42966C53.29 1.35349 53.4073 1.38033 53.4667 1.48964C53.5261 1.59879 53.5051 1.74887 53.42 1.82504L34.452 18.7804C32.7989 20.2581 30.8838 21 28.9667 21Z"/>
</mask>
<path fill-rule="evenodd" clip-rule="evenodd" d="M28.9667 21C27.1579 21 25.3472 20.34 23.7512 19.015L2.58629 1.4433C2.49917 1.37104 2.47426 1.22185 2.53074 1.11015C2.58711 0.998298 2.70348 0.966362 2.79061 1.03878L23.9555 18.6103C27.1145 21.2331 31.1502 21.1445 34.237 18.385L53.2051 1.42966C53.29 1.35349 53.4073 1.38033 53.4667 1.48964C53.5261 1.59879 53.5051 1.74887 53.42 1.82504L34.452 18.7804C32.7989 20.2581 30.8838 21 28.9667 21Z" fill="#321C64"/>
<path d="M23.7512 19.015L21.8349 21.3232L21.835 21.3233L23.7512 19.015ZM2.58629 1.4433L4.50261 -0.864881L4.50156 -0.865757L2.58629 1.4433ZM2.53074 1.11015L5.2079 2.46397L5.20976 2.46029L2.53074 1.11015ZM2.79061 1.03878L0.87299 3.34589L0.874296 3.34697L2.79061 1.03878ZM23.9555 18.6103L25.8719 16.3022L25.8719 16.3021L23.9555 18.6103ZM34.237 18.385L32.2376 16.1483L32.2375 16.1484L34.237 18.385ZM53.2051 1.42966L55.2044 3.66633L55.2083 3.66279L53.2051 1.42966ZM53.4667 1.48964L50.8309 2.92231L50.8317 2.92382L53.4667 1.48964ZM53.42 1.82504L55.4193 4.0617L55.4202 4.0609L53.42 1.82504ZM34.452 18.7804L32.4527 16.5437L32.4526 16.5438L34.452 18.7804ZM28.9667 18C27.9145 18 26.7704 17.6224 25.6675 16.7068L21.835 21.3233C23.9241 23.0576 26.4012 24 28.9667 24V18ZM25.6675 16.7068L4.50261 -0.864881L0.669975 3.75149L21.8349 21.3232L25.6675 16.7068ZM4.50156 -0.865757C5.12237 -0.350821 5.381 0.301695 5.46377 0.797887C5.54854 1.30604 5.49494 1.89635 5.2079 2.46397L-0.146413 -0.243674C-0.740477 0.931076 -0.646253 2.65974 0.67103 3.75237L4.50156 -0.865757ZM5.20976 2.46029C4.9184 3.03842 4.33912 3.65237 3.44348 3.89829C2.50261 4.15664 1.54884 3.90764 0.87299 3.34589L4.70822 -1.26833C3.94524 -1.9025 2.88973 -2.17173 1.8548 -1.88756C0.865108 -1.61581 0.199458 -0.929972 -0.14827 -0.239996L5.20976 2.46029ZM0.874296 3.34697L22.0392 20.9185L25.8719 16.3021L4.70691 -1.26941L0.874296 3.34697ZM22.0391 20.9185C26.3558 24.5025 32.0565 24.3583 36.2364 20.6215L32.2375 16.1484C30.2438 17.9307 27.8731 17.9638 25.8719 16.3022L22.0391 20.9185ZM36.2363 20.6217L55.2044 3.66633L51.2057 -0.807008L32.2376 16.1483L36.2363 20.6217ZM55.2083 3.66279C54.5671 4.23801 53.6324 4.53358 52.6755 4.31433C51.7591 4.10439 51.1468 3.5035 50.8309 2.92231L56.1025 0.056964C55.7272 -0.633532 55.0265 -1.30249 54.0154 -1.53414C52.9637 -1.77509 51.9279 -1.45486 51.2018 -0.803464L55.2083 3.66279ZM50.8317 2.92382C50.5226 2.35597 50.4557 1.7623 50.5262 1.25601C50.5953 0.759832 50.8327 0.114397 51.4198 -0.410823L55.4202 4.0609C56.6652 2.94711 56.7445 1.23652 56.1017 0.0554456L50.8317 2.92382ZM51.4207 -0.411624L32.4527 16.5437L36.4514 21.017L55.4193 4.0617L51.4207 -0.411624ZM32.4526 16.5438C31.2976 17.5763 30.0793 18 28.9667 18V24C31.6882 24 34.3003 22.9399 36.4514 21.017L32.4526 16.5438Z" fill="#321C64" mask="url(#path-3-inside-1_317_14159)"/>
</svg>
