<svg width="24" height="24" viewBox="0 0 24 24" fill="none" xmlns="http://www.w3.org/2000/svg">
<path fill-rule="evenodd" clip-rule="evenodd" d="M14.95 6.00006H18C18.5523 6.00006 19 6.44778 19 7.00006C19 7.55235 18.5523 8.00006 18 8.00006V17.0001C18 18.6569 16.6569 20.0001 15 20.0001H10C8.34315 20.0001 7 18.6569 7 17.0001V8.00006C6.44772 8.00006 6 7.55235 6 7.00006C6 6.44778 6.44772 6.00006 7 6.00006H10.05C10.2866 4.8349 11.3111 3.99756 12.5 3.99756C13.6889 3.99756 14.7134 4.8349 14.95 6.00006ZM13.891 6.00006C13.6847 5.40666 13.1282 5.00658 12.5 5.00006C11.8718 5.00658 11.3153 5.40666 11.109 6.00006H13.891ZM16 17.0001C16 17.5523 15.5523 18.0001 15 18.0001H10C9.44772 18.0001 9 17.5523 9 17.0001V8.00006H16V17.0001ZM11 15.5001C11 15.7762 10.7761 16.0001 10.5 16.0001C10.2239 16.0001 10 15.7762 10 15.5001V9.50006C10 9.22392 10.2239 9.00006 10.5 9.00006C10.7761 9.00006 11 9.22392 11 9.50006V15.5001ZM13 15.5001C13 15.7762 12.7761 16.0001 12.5 16.0001C12.2239 16.0001 12 15.7762 12 15.5001V9.50006C12 9.22392 12.2239 9.00006 12.5 9.00006C12.7761 9.00006 13 9.22392 13 9.50006V15.5001ZM14.5 16.0001C14.7761 16.0001 15 15.7762 15 15.5001V9.50006C15 9.22392 14.7761 9.00006 14.5 9.00006C14.2239 9.00006 14 9.22392 14 9.50006V15.5001C14 15.7762 14.2239 16.0001 14.5 16.0001Z" fill="#3D3D3D"/>
</svg>
