<svg width="40" height="40" viewBox="0 0 40 40" fill="none" xmlns="http://www.w3.org/2000/svg">
<path fill-rule="evenodd" clip-rule="evenodd" d="M15 10.8333C17.0252 11.3895 18.7162 12.5 20 12.5C21.2748 12.5 22.9937 11.3819 25 10.8333C26.4908 10.4257 38.3333 7.49997 38.3333 16.6666C38.3333 28.3333 32.5 30 29.1666 30C25.8333 30 22.5 25.8333 20 25.8333C17.5 25.8333 14.1666 30 10.8333 30C7.49996 30 1.66663 28.3333 1.66663 16.6666C1.66663 7.49997 13.5193 10.4267 15 10.8333Z" stroke="#321C64" stroke-width="2"/>
<path fill-rule="evenodd" clip-rule="evenodd" d="M24.1666 19.1666C24.1666 19.1666 25 18.3333 26.6666 18.3333C28.3333 18.3333 30 19.1666 30 19.1666C30 19.1666 28.3333 20 26.6666 20C25 20 24.1666 19.1666 24.1666 19.1666Z" stroke="#9059FF" stroke-width="2" stroke-linecap="round" stroke-linejoin="round"/>
<path fill-rule="evenodd" clip-rule="evenodd" d="M10 19.2457C10 19.2457 11.6667 18.3333 13.3333 18.3333C15 18.3333 15.8333 19.2457 15.8333 19.2457C15.8333 19.2457 15 20 13.3333 20C11.6667 20 10 19.2457 10 19.2457Z" stroke="#9059FF" stroke-width="2" stroke-linecap="round" stroke-linejoin="round"/>
</svg>
