<svg width="20" height="20" viewBox="0 0 20 20" fill="none" xmlns="http://www.w3.org/2000/svg">
<path fill-rule="evenodd" clip-rule="evenodd" d="M9.99996 18.3334C14.6023 18.3334 18.3333 14.6024 18.3333 10C18.3333 5.39765 14.6023 1.66669 9.99996 1.66669C5.39759 1.66669 1.66663 5.39765 1.66663 10C1.66663 14.6024 5.39759 18.3334 9.99996 18.3334Z" stroke="#592ACB" stroke-width="2" stroke-linecap="round" stroke-linejoin="round"/>
<path d="M7.57495 7.50003C7.97948 6.35007 9.15444 5.65954 10.3559 5.86563C11.5574 6.07172 12.4351 7.11433 12.4333 8.33337C12.4333 10 9.93328 10.8334 9.93328 10.8334" stroke="#592ACB" stroke-width="2" stroke-linecap="round" stroke-linejoin="round"/>
<path fill-rule="evenodd" clip-rule="evenodd" d="M9.99996 15C10.4602 15 10.8333 14.6269 10.8333 14.1667C10.8333 13.7065 10.4602 13.3334 9.99996 13.3334C9.53972 13.3334 9.16663 13.7065 9.16663 14.1667C9.16663 14.6269 9.53972 15 9.99996 15Z" fill="#592ACB"/>
</svg>
