<svg width="116" height="24" viewBox="0 0 116 24" fill="none" xmlns="http://www.w3.org/2000/svg">
<path fill-rule="evenodd" clip-rule="evenodd" d="M12 4.05128C11.1504 4.05128 10.4616 4.74007 10.4616 5.58974C10.4616 6.43941 11.1504 7.12821 12 7.12821C12.8497 7.12821 13.5385 6.43941 13.5385 5.58974C13.5385 4.74007 12.8497 4.05128 12 4.05128ZM8.41028 5.58974C8.41028 3.60718 10.0175 2 12 2C13.9826 2 15.5898 3.60718 15.5898 5.58974C15.5898 7.5723 13.9826 9.17949 12 9.17949C11.3818 9.17949 10.8001 9.0232 10.2922 8.74799L8.74799 10.2922C8.86454 10.5073 8.95976 10.7356 9.03082 10.9743H14.9692C15.4105 9.49155 16.7841 8.41028 18.4102 8.41028C20.3928 8.41028 22 10.0175 22 12C22 13.9826 20.3928 15.5898 18.4102 15.5898C17.792 15.5898 17.2103 15.4335 16.7024 15.1583L15.1583 16.7024C15.4335 17.2103 15.5898 17.792 15.5898 18.4102C15.5898 20.3928 13.9826 22 12 22C10.0175 22 8.41028 20.3928 8.41028 18.4102C8.41028 16.4277 10.0175 14.8205 12 14.8205C12.6182 14.8205 13.1999 14.9768 13.7078 15.252L15.252 13.7078C15.1354 13.4927 15.0402 13.2644 14.9691 13.0256H9.03085C8.58955 14.5085 7.21593 15.5898 5.58974 15.5898C3.60718 15.5898 2 13.9826 2 12C2 10.0175 3.60718 8.41028 5.58974 8.41028C6.20794 8.41028 6.78964 8.56655 7.2975 8.84173L8.84173 7.2975C8.56655 6.78964 8.41028 6.20794 8.41028 5.58974ZM10.4616 18.4102C10.4616 17.5606 11.1504 16.8718 12 16.8718C12.8497 16.8718 13.5385 17.5606 13.5385 18.4102C13.5385 19.2599 12.8497 19.9487 12 19.9487C11.1504 19.9487 10.4616 19.2599 10.4616 18.4102ZM5.58974 10.4616C4.74007 10.4616 4.05128 11.1504 4.05128 12C4.05128 12.8497 4.74007 13.5385 5.58974 13.5385C6.43941 13.5385 7.12821 12.8497 7.12821 12C7.12821 11.1504 6.43941 10.4616 5.58974 10.4616ZM16.8718 12C16.8718 11.1504 17.5606 10.4616 18.4102 10.4616C19.2599 10.4616 19.9487 11.1504 19.9487 12C19.9487 12.8497 19.2599 13.5385 18.4102 13.5385C17.5606 13.5385 16.8718 12.8497 16.8718 12Z" fill="black"/>
<path d="M29.2 16H31.075V9.11499L34.465 15.4L37.87 9.11499V16H39.73V5.69499H37.87L34.465 11.98L31.075 5.69499H29.2V16ZM45.7042 16.18C47.9542 16.18 49.8592 14.32 49.8592 12.115C49.8592 9.90999 47.9542 8.06499 45.7042 8.06499C43.4542 8.06499 41.5492 9.90999 41.5492 12.115C41.5492 14.32 43.4542 16.18 45.7042 16.18ZM45.7042 14.62C44.4142 14.62 43.3342 13.48 43.3342 12.115C43.3342 10.765 44.4142 9.62499 45.7042 9.62499C46.9792 9.62499 48.0592 10.765 48.0592 12.115C48.0592 13.48 46.9792 14.62 45.7042 14.62ZM51.1314 16H57.6864V14.395H53.5164L57.6414 9.57999L57.6564 8.24499H51.2214V9.84999H55.2414L51.1314 14.665V16ZM60.2719 7.07499C60.8419 7.07499 61.3069 6.57999 61.3069 6.02499C61.3069 5.46999 60.8419 4.98999 60.2719 4.98999C59.6869 4.98999 59.2219 5.46999 59.2219 6.02499C59.2219 6.57999 59.6869 7.07499 60.2719 7.07499ZM59.3419 16H61.1719V8.24499H59.3419V16ZM63.1945 16H65.0245V5.51499H63.1945V16ZM67.047 16H68.877V5.51499H67.047V16ZM74.2745 8.06499C73.2995 8.06499 72.2795 8.33499 71.1845 8.87499L71.8145 10.15C72.4745 9.81999 73.1795 9.56499 73.9145 9.56499C75.3245 9.56499 75.8195 10.435 75.8195 11.335V11.545C75.1145 11.275 74.3495 11.125 73.6445 11.125C71.9045 11.125 70.4795 12.175 70.4795 13.705C70.4795 15.205 71.7245 16.18 73.3745 16.18C74.2745 16.18 75.2495 15.79 75.8195 15.07V16H77.6045V11.335C77.6045 9.36999 76.3295 8.06499 74.2745 8.06499ZM73.7795 14.845C72.9095 14.845 72.2645 14.38 72.2645 13.645C72.2645 12.91 72.9995 12.4 73.9145 12.4C74.6045 12.4 75.2495 12.505 75.8195 12.7V13.57C75.6095 14.395 74.6645 14.845 73.7795 14.845ZM91.7391 5.69499L88.4691 13.51L85.1991 5.69499H83.1291L87.4341 16H89.5191L93.8241 5.69499H91.7391ZM95.188 16H97.063V12.535H99.673C101.878 12.535 103.528 11.125 103.528 9.11499C103.528 7.10499 101.878 5.69499 99.673 5.69499H95.188V16ZM97.063 10.81V7.41999H99.463C100.738 7.41999 101.623 8.06499 101.623 9.11499C101.623 10.165 100.738 10.81 99.463 10.81H97.063ZM105.138 16H107.013V8.75499L112.458 16H114.318V5.69499H112.458V12.94L107.013 5.69499H105.138V16Z" fill="black"/>
</svg>
