<svg width="416" height="92" viewBox="0 0 416 92" fill="none" xmlns="http://www.w3.org/2000/svg">
<g clip-path="url(#clip0_3119_7268)">
<path d="M78.7209 20.0705L45.2529 0.984767C44.0772 0.338517 42.7607 0 41.4229 0C40.0851 0 38.7685 0.338517 37.5929 0.984767L4.00698 20.0705C2.79452 20.7622 1.78491 21.767 1.08105 22.9823C0.377197 24.1977 0.00425503 25.5802 0.000235088 26.989V65.0411C-0.010641 66.453 0.356047 67.8415 1.06143 69.0595C1.76682 70.2775 2.78463 71.2796 4.00698 71.9597L37.4751 90.9261C38.6485 91.6407 39.9946 92.0123 41.364 91.9997C42.7312 91.9962 44.0732 91.6258 45.2529 90.9261L78.7209 71.9597C79.9334 71.268 80.943 70.2632 81.6469 69.0478C82.3507 67.8325 82.7237 66.4499 82.7277 65.0411V26.989C82.7623 25.5726 82.4056 24.1745 81.6977 22.9522C80.9898 21.7299 79.9589 20.7318 78.7209 20.0705Z" fill="url(#paint0_linear_3119_7268)"/>
<path d="M18.0312 55.9787L16.0279 57.1716C15.6694 57.3726 15.354 57.644 15.1002 57.9697C14.8464 58.2954 14.6592 58.669 14.5495 59.0687C14.4398 59.4684 14.4098 59.8862 14.4613 60.2978C14.5128 60.7094 14.6447 61.1064 14.8494 61.4658C15.1126 61.9639 15.5028 62.3816 15.9795 62.6753C16.4561 62.969 17.0019 63.128 17.5598 63.1358C18.0902 63.1313 18.6131 63.0091 19.0918 62.778L21.0952 61.5851C21.4537 61.384 21.769 61.1127 22.0228 60.787C22.2766 60.4613 22.4639 60.0877 22.5735 59.688C22.6832 59.2883 22.7132 58.8705 22.6617 58.4589C22.6102 58.0473 22.4783 57.6503 22.2737 57.2908C22.0917 56.9119 21.8344 56.575 21.5181 56.3011C21.2017 56.0273 20.8329 55.8224 20.4348 55.6993C20.0367 55.5762 19.6178 55.5374 19.2043 55.5855C18.7907 55.6336 18.3914 55.7674 18.0312 55.9787ZM30.2871 48.9409L26.1626 51.3266C25.8041 51.5276 25.4887 51.799 25.2349 52.1247C24.9811 52.4504 24.7939 52.824 24.6842 53.2237C24.5745 53.6234 24.5445 54.0412 24.596 54.4528C24.6475 54.8644 24.7794 55.2614 24.9841 55.6208C25.2473 56.1189 25.6375 56.5366 26.1142 56.8303C26.5908 57.124 27.1366 57.283 27.6945 57.2908C28.2249 57.2863 28.7478 57.1641 29.2265 56.933L33.3511 54.5473C33.7096 54.3462 34.0249 54.0749 34.2787 53.7492C34.5326 53.4235 34.7198 53.0498 34.8295 52.6501C34.9392 52.2504 34.9691 51.8326 34.9176 51.421C34.8662 51.0095 34.7342 50.6124 34.5296 50.253C34.3476 49.874 34.0904 49.5371 33.774 49.2633C33.4576 48.9894 33.0888 48.7846 32.6907 48.6614C32.2926 48.5383 31.8737 48.4996 31.4602 48.5476C31.0466 48.5957 30.6473 48.7296 30.2871 48.9409ZM46.9033 43.1078C46.7373 42.7693 46.5057 42.4681 46.2222 42.2222C45.9388 41.9763 45.6093 41.7907 45.2535 41.6764V17.688C45.2551 17.2646 45.1738 16.8451 45.0145 16.4536C44.8551 16.0622 44.6208 15.7065 44.325 15.4071C44.0293 15.1077 43.6779 14.8706 43.2911 14.7093C42.9044 14.548 42.49 14.4657 42.0717 14.4673C41.6597 14.4687 41.2521 14.5538 40.8733 14.7176C40.4944 14.8815 40.1519 15.1207 39.8661 15.4211C39.5803 15.7215 39.3571 16.077 39.2096 16.4664C39.0622 16.8558 38.9935 17.2712 39.0077 17.688V41.7837C38.6519 41.898 38.3224 42.0837 38.039 42.3296C37.7555 42.5755 37.5239 42.8767 37.3579 43.2151C37.1365 43.6343 37.0109 44.0985 36.9905 44.5734C36.9701 45.0482 37.0554 45.5217 37.24 45.9587C37.0554 46.3958 36.9701 46.8692 36.9905 47.3441C37.0109 47.8189 37.1365 48.2831 37.3579 48.7023C37.5239 49.0407 37.7555 49.3419 38.039 49.5878C38.3224 49.8338 38.6519 50.0194 39.0077 50.1337V74.2294C39.0077 75.0836 39.3429 75.9028 39.9396 76.5068C40.5363 77.1108 41.3456 77.4501 42.1895 77.4501C43.0334 77.4501 43.8427 77.1108 44.4394 76.5068C45.0361 75.9028 45.3713 75.0836 45.3713 74.2294V50.0144C45.7272 49.9001 46.0566 49.7145 46.3401 49.4686C46.6235 49.2226 46.8552 48.9215 47.0212 48.583C47.2426 48.1638 47.3681 47.6997 47.3885 47.2248C47.4089 46.7499 47.3237 46.2765 47.139 45.8394C47.4117 44.9322 47.3272 43.9534 46.9033 43.1078ZM54.9286 34.8651L50.804 37.2509C50.4455 37.4519 50.1302 37.7232 49.8764 38.049C49.6226 38.3747 49.4354 38.7483 49.3257 39.148C49.216 39.5477 49.186 39.9655 49.2375 40.3771C49.289 40.7887 49.4209 41.1857 49.6256 41.5451C49.8887 42.0432 50.279 42.4609 50.7556 42.7546C51.2323 43.0483 51.778 43.2073 52.336 43.2151C52.8664 43.2106 53.3893 43.0884 53.868 42.8573L57.9926 40.4716C58.3511 40.2705 58.6664 39.9992 58.9202 39.6735C59.174 39.3477 59.3612 38.9741 59.4709 38.5744C59.5806 38.1747 59.6106 37.7569 59.5591 37.3453C59.5076 36.9338 59.3757 36.5367 59.171 36.1773C58.989 35.7983 58.7318 35.4614 58.4154 35.1876C58.0991 34.9137 57.7303 34.7089 57.3322 34.5857C56.9341 34.4626 56.5152 34.4239 56.1016 34.4719C55.6881 34.52 55.2888 34.6539 54.9286 34.8651ZM64.698 36.058C65.2283 36.0534 65.7513 35.9313 66.23 35.7001L68.2333 34.5073C68.5914 34.3048 68.9063 34.0326 69.1602 33.7065C69.414 33.3804 69.6016 33.0068 69.7124 32.607C69.8231 32.2073 69.8547 31.7894 69.8054 31.3772C69.7561 30.9651 69.6268 30.5669 69.425 30.2055C69.2232 29.8441 68.9528 29.5266 68.6294 29.2712C68.306 29.0159 67.936 28.8278 67.5405 28.7176C67.1451 28.6075 66.732 28.5775 66.3251 28.6294C65.9182 28.6813 65.5254 28.8141 65.1694 29.0202L63.166 30.213C62.8075 30.4141 62.4922 30.6854 62.2384 31.0111C61.9846 31.3368 61.7973 31.7104 61.6876 32.1102C61.578 32.5099 61.548 32.9277 61.5995 33.3392C61.651 33.7508 61.7829 34.1479 61.9875 34.5073C62.2573 34.9908 62.6523 35.3907 63.1299 35.6639C63.6075 35.9372 64.1496 36.0734 64.698 36.058ZM68.2333 57.1716L66.23 55.9787C65.5114 55.5722 64.6631 55.4703 63.8706 55.6953C63.078 55.9202 62.4057 56.4537 62.0006 57.1791C61.5956 57.9044 61.4908 58.7626 61.7092 59.5659C61.9276 60.3692 62.4514 61.0524 63.166 61.4658L65.1694 62.6587C65.6481 62.8899 66.171 63.012 66.7014 63.0166C67.2593 63.0087 67.8051 62.8497 68.2817 62.556C68.7584 62.2623 69.1486 61.8447 69.4118 61.3466C69.6227 60.9985 69.7597 60.61 69.8144 60.2055C69.869 59.801 69.84 59.3894 69.7292 58.9969C69.6184 58.6043 69.4282 58.2393 69.1707 57.9251C68.9132 57.6109 68.594 57.3543 68.2333 57.1716ZM57.9808 51.3266L53.8562 48.9409C53.5001 48.7348 53.1074 48.602 52.7005 48.5501C52.2935 48.4982 51.8805 48.5282 51.4851 48.6383C51.0896 48.7485 50.7196 48.9366 50.3962 49.1919C50.0728 49.4473 49.8024 49.7648 49.6006 50.1262C49.3988 50.4876 49.2695 50.8858 49.2202 51.2979C49.1709 51.7101 49.2025 52.128 49.3132 52.5277C49.424 52.9275 49.6116 53.3011 49.8654 53.6272C50.1192 53.9533 50.4342 54.2255 50.7922 54.428L54.9168 56.8137C55.3955 57.0449 55.9185 57.167 56.4488 57.1716C57.0068 57.1637 57.5525 57.0047 58.0292 56.711C58.5059 56.4173 58.8961 55.9997 59.1593 55.5016C59.3737 55.1545 59.5138 54.7658 59.5704 54.3604C59.627 53.9551 59.5988 53.5423 59.4877 53.1487C59.3766 52.7551 59.1851 52.3895 58.9255 52.0756C58.6659 51.7617 58.344 51.5065 57.9808 51.3266ZM26.1626 40.3523L30.2871 42.738C30.7658 42.9691 31.2888 43.0913 31.8191 43.0959C32.3771 43.088 32.9228 42.929 33.3995 42.6353C33.8762 42.3416 34.2664 41.924 34.5296 41.4259C34.7342 41.0664 34.8662 40.6694 34.9176 40.2578C34.9691 39.8463 34.9392 39.4284 34.8295 39.0287C34.7198 38.629 34.5326 38.2554 34.2787 37.9297C34.0249 37.604 33.7096 37.3327 33.3511 37.1316L29.2265 34.7459C28.8715 34.5387 28.4792 34.4052 28.0726 34.353C27.666 34.3009 27.2532 34.3313 26.8583 34.4423C26.4635 34.5533 26.0944 34.7428 25.7726 34.9998C25.4508 35.2567 25.1828 35.5759 24.9841 35.9387C24.5893 36.6882 24.4914 37.5617 24.7104 38.3816C24.9293 39.2015 25.4486 39.9062 26.1626 40.3523ZM21.0952 30.213L19.0918 29.0202C18.7358 28.8141 18.343 28.6813 17.9361 28.6294C17.5292 28.5775 17.1161 28.6075 16.7207 28.7176C16.3252 28.8278 15.9552 29.0159 15.6318 29.2712C15.3084 29.5266 15.038 29.8441 14.8362 30.2055C14.6344 30.5669 14.5051 30.9651 14.4558 31.3772C14.4065 31.7894 14.4381 32.2073 14.5488 32.607C14.6596 33.0068 14.8472 33.3804 15.101 33.7065C15.3549 34.0326 15.6698 34.3048 16.0279 34.5073L18.0312 35.7001C18.5099 35.9313 19.0329 36.0534 19.5632 36.058C20.1212 36.0502 20.6669 35.8911 21.1436 35.5974C21.6203 35.3037 22.0105 34.8861 22.2737 34.388C22.4742 34.0373 22.6028 33.6493 22.652 33.2471C22.7012 32.845 22.6699 32.4369 22.5599 32.0473C22.4499 31.6577 22.2635 31.2945 22.0119 30.9793C21.7603 30.6642 21.4485 30.4036 21.0952 30.213Z" fill="#20133A"/>
<path d="M134.85 35.3002V28.6502H108.4V63.0002H115.8V49.4002H133.05V42.7502H115.8V35.3002H134.85ZM143.039 33.6002C145.189 33.6002 146.939 31.8002 146.939 29.6002C146.939 27.5502 145.189 25.7002 143.039 25.7002C140.789 25.7002 139.039 27.5502 139.039 29.6002C139.039 31.8002 140.789 33.6002 143.039 33.6002ZM139.339 63.0002H146.639V37.1502H139.339V63.0002ZM159.813 41.9502V37.1502H152.513V63.0002H159.813V50.6502C159.813 45.8002 163.263 42.7002 168.663 42.7002V36.5502C164.713 36.5502 161.513 38.6002 159.813 41.9502ZM184.574 57.1502C181.524 57.1502 179.274 55.2502 178.424 52.4502H197.074C197.074 42.7002 192.324 36.5502 184.224 36.5502C176.674 36.5502 170.924 42.2002 170.924 50.0002C170.924 57.9502 176.924 63.6002 184.624 63.6002C188.424 63.6002 192.874 62.0002 195.174 59.6002L190.524 54.8502C189.124 56.2002 186.624 57.1502 184.574 57.1502ZM184.524 43.0002C187.474 43.0002 189.374 44.6502 190.074 47.2002H178.524C179.474 44.6002 181.774 43.0002 184.524 43.0002ZM210.163 35.7502C210.163 34.0502 211.263 32.8502 212.613 32.8502C213.613 32.8502 214.613 33.2002 215.113 33.7002L216.863 29.2502C215.363 27.9002 213.012 27.0002 210.913 27.0002C206.363 27.0002 203.163 30.2502 203.163 34.9002V37.1502H199.613V43.0502H203.163V63.0002H210.163V43.0502H215.763V37.1502H210.163V35.7502ZM232.658 63.6002C240.308 63.6002 246.708 57.4002 246.708 50.0502C246.708 42.7002 240.308 36.5502 232.658 36.5502C224.958 36.5502 218.508 42.7002 218.508 50.0502C218.508 57.4002 224.958 63.6002 232.658 63.6002ZM232.658 57.4502C228.758 57.4502 225.508 54.0502 225.508 50.0502C225.508 46.0502 228.758 42.7002 232.658 42.7002C236.508 42.7002 239.758 46.0502 239.758 50.0502C239.758 54.0502 236.508 57.4502 232.658 57.4502ZM275.497 63.0002L265.997 49.7002L275.047 37.1502H267.347L262.147 44.3502L256.997 37.1502H249.097L258.197 49.8502L248.697 63.0002H256.397L262.047 55.2002L267.647 63.0002H275.497Z" fill="black"/>
<path d="M317.45 39.4998C317.45 33.1498 312.1 28.6498 305.05 28.6498H290.95V62.9998H294.15V50.2998H304.1L313.05 62.9998H316.75L307.65 50.0998C313.4 49.1498 317.45 45.0498 317.45 39.4998ZM294.15 31.6998H304.5C310.25 31.6998 314.25 34.6998 314.25 39.4998C314.25 44.2498 310.25 47.2498 304.5 47.2498H294.15V31.6998ZM334.174 60.7498C328.874 60.7498 324.924 56.6498 324.374 51.2998H346.224C346.224 42.3998 341.624 36.5498 333.974 36.5498C326.974 36.5498 321.224 42.3498 321.224 49.9998C321.224 57.7498 327.274 63.5998 334.174 63.5998C337.974 63.5998 342.524 61.9998 344.724 59.5998L342.774 57.4998C340.974 59.4498 337.424 60.7498 334.174 60.7498ZM334.074 39.3998C339.524 39.3998 342.724 43.2498 343.124 48.4498H324.424C325.074 43.0998 329.024 39.3998 334.074 39.3998ZM351.861 62.9998H354.961V28.0498H351.861V62.9998ZM372.404 36.5498C369.854 36.5498 366.654 37.2498 363.254 39.0498L364.504 41.5998C366.854 40.2998 369.554 39.2998 372.154 39.2998C377.954 39.2998 379.654 43.4498 379.654 47.2498V48.2998C376.904 47.3998 373.804 46.7498 371.004 46.7498C365.204 46.7498 360.754 50.2498 360.754 55.3498C360.754 60.3498 364.754 63.5998 370.154 63.5998C373.654 63.5998 377.754 61.9498 379.654 58.8998V62.9998H382.754V47.2498C382.754 40.9998 379.204 36.5498 372.404 36.5498ZM370.654 60.7998C366.804 60.7998 363.804 58.6498 363.804 55.1998C363.804 51.8498 367.154 49.4498 371.454 49.4498C374.354 49.4498 377.204 49.9998 379.654 50.7498V54.8998C378.654 58.8998 374.254 60.7998 370.654 60.7998ZM393.323 71.9998C396.923 71.9498 399.423 70.2998 401.073 66.1998L412.973 37.1498H409.623L400.573 59.6998L391.023 37.1498H387.623L398.973 63.3998L397.423 66.7498C396.473 68.4498 395.123 69.1498 393.223 69.1498C392.123 69.1498 390.973 68.8998 390.023 68.3998L389.223 71.1498C390.423 71.6998 391.873 71.9998 393.323 71.9998Z" fill="black"/>
</g>
<defs>
<linearGradient id="paint0_linear_3119_7268" x1="0.000235088" y1="46.0032" x2="82.7395" y2="46.0032" gradientUnits="userSpaceOnUse">
<stop stop-color="#9059FF"/>
<stop offset="1" stop-color="#F770FF"/>
</linearGradient>
<clipPath id="clip0_3119_7268">
<rect width="416" height="92" fill="white"/>
</clipPath>
</defs>
</svg>
