<svg xmlns="http://www.w3.org/2000/svg" xml:space="preserve" id="Layer_1" x="0" y="0" version="1.1" viewBox="0 0 2000 571.9">
  <g id="g10">
    <path fill="#fff" id="path4" d="M746.2 254.1c-36.6 0-59.4 27.2-59.4 74.3 0 43.3 20 76.6 58.8 76.6 37.2 0 61.6-30 61.6-77.7 0-50.5-27.2-73.2-61-73.2z"/>
    <path fill="#fff" id="path6" d="M1727.2 380c0 16.1 7.8 28.9 29.4 28.9 25.5 0 52.7-18.3 54.4-59.9-11.6-1.7-24.4-3.3-36.1-3.3-25.5-.1-47.7 7.1-47.7 34.3z"/>
    <path fill="#fff" id="path8" d="M0 0v571.9h2000V0H0zm581.9 454.4H477V313.5c0-43.3-14.4-59.9-42.7-59.9-34.4 0-48.3 24.4-48.3 59.4v87h33.3v54.4H314.5V313.5c0-43.3-14.4-59.9-42.7-59.9-34.4 0-48.3 24.4-48.3 59.4v87h47.7v54.4H118.7V400H152V258.5h-33.3v-54.4h104.8v37.7c15-26.6 41.1-42.7 76-42.7 36.1 0 69.3 17.2 81.6 53.8 13.9-33.3 42.2-53.8 81.6-53.8 44.9 0 86 27.2 86 86.5V400H582v54.4zm161.5 5.5c-77.1 0-130.4-47.1-130.4-127 0-73.2 44.4-133.7 134.3-133.7S881 259.6 881 329.5c0 79.9-57.7 130.4-137.6 130.4zm403.5-5.5H928.3l-7.2-37.7 137.6-158.1h-78.2l-11.1 38.8-51.6-5.6 8.9-87.7h219.7l5.6 37.7L1013.2 400h81l11.7-38.8 56.6 5.5-15.6 87.7zm142.8 0h-74.9v-89.9h74.9v89.9zm0-160.4h-74.9v-89.9h74.9V294zm46.8 160.4 108.2-381.7h70.5L1407 454.4h-70.5zm145.4 0L1590 72.7h70.5l-108.2 381.7h-70.4zm384 5.5c-33.3 0-51.6-19.4-54.9-49.9-14.4 25.5-39.9 49.9-80.4 49.9-36.1 0-77.1-19.4-77.1-71.6 0-61.6 59.4-76 116.5-76 13.9 0 28.3.6 41.1 2.2v-8.3c0-25.5-.6-56-41.1-56-15 0-26.6 1.1-38.3 7.2l-8.1 28.2-57.1-6.1 9.8-57.6c43.8-17.8 66-22.7 107.1-22.7 53.8 0 99.3 27.7 99.3 84.9v108.7c0 14.4 5.6 19.4 17.2 19.4 3.3 0 6.7-.6 10.5-1.7l.6 37.7c-13.5 7.3-29.6 11.7-45.1 11.7z"/>
  </g>
</svg>
