<svg width="400" height="200" viewBox="0 0 400 200" fill="none" xmlns="http://www.w3.org/2000/svg">
<rect width="400" height="200" fill="#E7DFFF"/>
<path opacity="0.5" fill-rule="evenodd" clip-rule="evenodd" d="M186.858 24.7831C214.407 23.1851 238.696 44.6683 254.566 67.4684C269.179 88.4612 274.902 115.43 266.342 139.592C258.669 161.248 236.154 169.806 214.825 177.862C196.603 184.744 177.497 185.077 158.892 179.333C134.421 171.779 104.033 165.935 97.072 141.064C89.9795 115.724 113.381 95.5613 129.454 74.8279C145.817 53.7205 160.361 26.3201 186.858 24.7831Z" fill="#C689FF"/>
<path d="M266.341 95.4337C263.039 69.1175 246.427 49.1847 223.656 45.3888C212.662 43.5483 196.227 43.1307 180.97 48.3326C165.967 53.445 155.715 63.277 150.06 77.7707C141.129 100.649 142.678 127.202 155.948 145.479C164.436 157.148 184.546 166.085 204.521 166.085C214.945 166.085 225.344 163.427 233.959 157.254C259.526 145.687 269.2 118.197 266.341 95.4337Z" fill="#7542E5"/>
<path d="M237.968 89.0001V123C237.968 125.949 235.916 129 232.973 129H179.018C176.075 129 174.022 125.949 174.022 123V89.0001" stroke="white" stroke-width="4" stroke-linecap="round" stroke-linejoin="round"/>
<path d="M237.968 89.0068V86.0001C237.968 83.0513 235.916 81.0001 232.973 81.0001H179.018C176.075 81.0001 174.022 83.0513 174.022 86.0001V89.0068L201.734 106.37C204.325 107.993 207.614 107.993 210.205 106.37L237.968 89.0068Z" fill="white" fill-opacity="0.2" stroke="white" stroke-width="4" stroke-linecap="round" stroke-linejoin="round"/>
<path d="M179.498 45.3888C179.566 47.0833 179.501 48.2573 179.498 51.2764C179.497 51.5405 179.498 51.012 179.498 51.2764C179.496 53.6801 179.441 55.6225 179.498 57.164C179.526 57.9297 180.198 58.6638 180.97 58.6359C181.742 58.6081 182.47 57.9297 182.442 57.164C182.387 55.6656 182.44 53.6482 182.442 51.2764C182.441 51.5403 182.442 51.0127 182.442 51.2764C182.444 48.2202 182.511 47.1328 182.442 45.3888C182.411 44.6232 181.741 43.8866 180.97 43.9169C180.198 43.9472 179.467 44.6232 179.498 45.3888Z" fill="#FFBD4F"/>
<path d="M176.554 52.7495C177.309 52.79 178.387 52.7189 179.498 52.7495C179.24 52.7426 179.641 52.7535 179.498 52.7495C181.784 52.811 182.704 52.6415 183.914 52.7495C184.637 52.8141 185.321 51.9973 185.386 51.2776C185.45 50.558 184.638 49.8703 183.914 49.8057C182.631 49.6912 181.84 49.8687 179.498 49.8057C179.241 49.7988 179.641 49.8096 179.498 49.8057C178.409 49.7756 177.28 49.8447 176.554 49.8057C175.829 49.7668 175.121 50.5561 175.083 51.2776C175.043 51.9992 175.829 52.7106 176.554 52.7495Z" fill="#FFBD4F"/>
<path d="M267.812 116.041C268.819 115.999 268.942 116 270.756 116.041C271.041 116.048 272.069 116.038 272.228 116.041C273.667 116.072 274.18 116.089 275.172 116.041C275.927 116.004 276.679 115.363 276.644 114.569C276.609 113.776 275.926 113.061 275.172 113.097C274.254 113.142 273.612 113.127 272.228 113.097C272.071 113.094 271.04 113.104 270.756 113.097C268.886 113.055 268.894 113.051 267.812 113.097C267.058 113.129 266.31 113.775 266.34 114.569C266.37 115.363 267.057 116.073 267.812 116.041Z" fill="white"/>
<path d="M273.7 118.985C273.715 118.288 273.694 117.034 273.7 116.041C273.698 116.346 273.7 115.871 273.7 116.041C273.711 113.735 273.64 112.847 273.7 111.625C273.736 110.873 273.007 110.189 272.228 110.153C271.448 110.118 270.793 110.872 270.756 111.625C270.694 112.899 270.767 113.696 270.756 116.041C270.755 116.346 270.757 115.872 270.756 116.041C270.75 117.021 270.771 118.306 270.756 118.985C270.739 119.737 271.448 120.441 272.228 120.456C273.007 120.473 273.683 119.737 273.7 118.985Z" fill="white"/>
<path d="M257.509 29.1983C257.548 29.9963 257.429 30.9121 257.509 32.1421C257.498 31.9687 257.521 32.3158 257.509 32.1421C257.708 35.1454 257.509 36.3472 257.509 38.0298C257.509 38.737 258.294 39.5017 258.981 39.5017C259.669 39.5017 260.453 38.737 260.453 38.0298C260.453 36.2702 260.656 35.2028 260.453 32.1421C260.442 31.9687 260.465 32.3153 260.453 32.1421C260.374 30.9261 260.491 29.9774 260.453 29.1983C260.418 28.4919 259.668 27.691 258.981 27.7264C258.295 27.7618 257.475 28.492 257.509 29.1983Z" fill="#9059FF"/>
<path d="M256.037 35.0852C257.434 35.2407 257.979 35.2375 260.453 35.0852C261.033 35.0496 261.602 35.1017 261.925 35.0852C262.549 35.0533 262.904 35.0852 263.397 35.0852C264.136 35.0852 264.869 34.3598 264.869 33.6133C264.869 32.8669 264.136 32.1414 263.397 32.1414C262.853 32.1414 262.59 32.1074 261.925 32.1414C261.59 32.1585 261.043 32.1052 260.453 32.1414C258.132 32.2842 257.23 32.2743 256.037 32.1414C255.303 32.0596 254.646 32.8714 254.565 33.6133C254.484 34.3553 255.303 35.0035 256.037 35.0852Z" fill="#9059FF"/>
<path d="M135.341 152.839C135.38 153.636 135.26 154.552 135.341 155.782C135.33 155.61 135.353 155.957 135.341 155.782C135.54 158.786 135.341 159.987 135.341 161.67C135.341 162.377 136.126 163.142 136.813 163.142C137.501 163.142 138.285 162.377 138.285 161.67C138.285 159.911 138.487 158.843 138.285 155.782C138.274 155.609 138.297 155.955 138.285 155.782C138.205 154.567 138.323 153.618 138.285 152.839C138.251 152.132 137.5 151.332 136.813 151.367C136.127 151.403 135.307 152.132 135.341 152.839Z" fill="#9059FF"/>
<path d="M133.869 158.726C135.265 158.881 135.811 158.878 138.285 158.726C138.625 158.705 139.566 158.736 139.757 158.726C140.626 158.675 140.616 158.726 141.228 158.726C141.967 158.726 142.7 158 142.7 157.254C142.7 156.507 141.967 155.782 141.228 155.782C140.555 155.782 140.672 155.728 139.757 155.782C139.562 155.793 138.629 155.76 138.285 155.782C135.964 155.924 135.062 155.915 133.869 155.782C133.134 155.7 132.478 156.512 132.397 157.254C132.316 157.996 133.134 158.644 133.869 158.726Z" fill="#9059FF"/>
<path fill-rule="evenodd" clip-rule="evenodd" d="M272.229 83.6594C272.332 85.2642 275.034 85.2609 275.173 83.6594C275.497 79.9406 277.071 78.0001 279.588 77.7718C279.377 77.7855 279.789 77.7685 279.588 77.7718C281.261 77.6593 281.265 74.828 279.588 74.828C279.367 74.828 279.802 74.8117 279.588 74.828C276.91 74.8494 275.775 75.0233 275.173 71.8842C275.145 71.7388 275.244 70.7956 275.173 70.4122C275.106 70.0583 275.218 70.634 275.173 70.4122C274.868 68.9157 272.31 68.887 272.229 70.4122C272.217 70.6373 272.241 70.0227 272.229 70.4122C272.213 70.9376 272.257 71.6167 272.229 71.8842C272.161 72.5322 272.575 72.7502 272.229 73.3561C271.618 74.4228 269.64 74.8579 267.813 74.828C266.142 74.8013 266.149 77.6222 267.813 77.7718C269.974 77.9663 270.508 78.7669 270.757 79.2437C271.52 80.7301 272.12 81.9818 272.229 83.6594ZM279.588 74.828C279.407 74.8403 279.757 74.826 279.588 74.828C279.433 74.7675 279.788 74.8254 279.588 74.828ZM279.588 77.7718C279.42 77.7718 279.746 77.7588 279.588 77.7718C279.447 77.8381 279.773 77.7568 279.588 77.7718ZM272.229 76.2999C272.767 75.9193 273.335 75.3776 273.701 74.828C274.094 75.5299 274.566 75.8764 275.173 76.2999C274.63 76.7871 274.09 78.562 273.701 79.2437C273.575 78.9542 273.845 78.0535 273.701 77.7718C273.456 77.3034 272.682 76.629 272.229 76.2999Z" fill="#FFBD4F"/>
<path fill-rule="evenodd" clip-rule="evenodd" d="M122.094 116.042C123.768 115.931 123.772 113.098 122.094 113.098C121.876 113.098 122.305 113.081 122.094 113.098C119.399 113.12 118.284 113.319 117.678 110.154C117.652 110.015 117.746 109.045 117.678 108.682C117.612 108.326 117.723 108.904 117.678 108.682C117.374 107.185 114.815 107.157 114.735 108.682C114.723 108.906 114.746 108.294 114.735 108.682C114.72 109.198 114.761 109.891 114.735 110.154C114.668 110.813 115.083 111.015 114.735 111.626C114.122 112.693 112.141 113.133 110.319 113.098C108.647 113.066 108.655 115.888 110.319 116.042C112.483 116.242 113.014 117.037 113.263 117.513C114.023 119 114.624 120.251 114.735 121.929C114.841 123.533 117.539 123.529 117.678 121.929C118.002 118.206 119.571 116.266 122.094 116.042C122.292 116.038 121.887 116.055 122.094 116.042ZM122.094 113.098C121.915 113.109 122.26 113.096 122.094 113.098C121.941 113.039 122.291 113.095 122.094 113.098ZM122.094 116.042C121.929 116.042 122.25 116.029 122.094 116.042C121.954 116.105 122.276 116.027 122.094 116.042ZM114.735 114.57C115.273 114.189 115.841 113.648 116.207 113.098C116.599 113.8 117.071 114.147 117.678 114.57C117.136 115.057 116.596 116.831 116.207 117.513C116.081 117.224 116.351 116.323 116.207 116.042C115.961 115.572 115.188 114.899 114.735 114.57Z" fill="white"/>
<path d="M201.577 33.614C201.577 32.9056 200.918 32.1421 200.105 32.1421C199.293 32.1421 198.633 32.9056 198.633 33.614C198.633 34.3224 199.293 35.0859 200.105 35.0859C200.918 35.0859 201.577 34.3224 201.577 33.614Z" fill="#9059FF"/>
<path d="M300.195 101.322C300.195 100.613 299.535 99.8499 298.723 99.8499C297.91 99.8499 297.251 100.613 297.251 101.322C297.251 102.031 297.91 102.794 298.723 102.794C299.535 102.794 300.195 102.031 300.195 101.322Z" fill="#9059FF"/>
<path d="M295.779 52.7488C295.779 52.0389 295.12 51.2769 294.307 51.2769C293.494 51.2769 292.835 52.0389 292.835 52.7488C292.835 53.4588 293.494 54.2207 294.307 54.2207C295.12 54.2207 295.779 53.4588 295.779 52.7488Z" fill="white"/>
<path d="M304.61 65.996C304.61 65.2876 303.951 64.5241 303.139 64.5241C302.325 64.5241 301.667 65.2876 301.667 65.996C301.667 66.7045 302.325 67.4679 303.139 67.4679C303.951 67.4679 304.61 66.7045 304.61 65.996Z" fill="#C689FF"/>
<path d="M286.948 23.3106C286.948 22.6022 286.289 21.8387 285.476 21.8387C284.662 21.8387 284.004 22.6022 284.004 23.3106C284.004 24.019 284.662 24.7825 285.476 24.7825C286.289 24.7825 286.948 24.019 286.948 23.3106Z" fill="#FFBD4F"/>
<path d="M107.375 130.76C107.375 130.05 106.715 129.288 105.903 129.288C105.09 129.288 104.431 130.05 104.431 130.76C104.431 131.47 105.09 132.232 105.903 132.232C106.715 132.232 107.375 131.47 107.375 130.76Z" fill="#FFBD4F"/>
<path d="M153.004 57.1645C153.004 56.4066 152.345 55.6926 151.532 55.6926C150.72 55.6926 150.06 56.4066 150.06 57.1645C150.06 57.9225 150.72 58.6364 151.532 58.6364C152.345 58.6364 153.004 57.9225 153.004 57.1645Z" fill="white"/>
<path d="M161.835 24.7825C161.835 24.0263 161.177 23.3106 160.363 23.3106C159.551 23.3106 158.892 24.0263 158.892 24.7825C158.892 25.5387 159.551 26.2544 160.363 26.2544C161.177 26.2544 161.835 25.5387 161.835 24.7825Z" fill="#C689FF"/>
<path d="M242.79 36.5578C242.79 35.8915 242.132 35.0859 241.318 35.0859C240.506 35.0859 239.847 35.8915 239.847 36.5578C239.847 37.2242 240.506 38.0298 241.318 38.0298C242.132 38.0298 242.79 37.2242 242.79 36.5578Z" fill="white"/>
<path d="M228.071 17.423C228.071 16.7131 227.413 15.9511 226.599 15.9511C225.787 15.9511 225.127 16.7131 225.127 17.423C225.127 18.133 225.787 18.8949 226.599 18.8949C227.413 18.8949 228.071 18.133 228.071 17.423Z" fill="#FFBD4F"/>
<path d="M288.42 151.367C288.42 150.658 287.761 149.895 286.948 149.895C286.134 149.895 285.476 150.658 285.476 151.367C285.476 152.075 286.134 152.839 286.948 152.839C287.761 152.839 288.42 152.075 288.42 151.367Z" fill="#FFBD4F"/>
<path d="M126.51 82.187C126.51 81.4544 125.851 80.7151 125.038 80.7151C124.225 80.7151 123.566 81.4544 123.566 82.187C123.566 82.9196 124.225 83.6589 125.038 83.6589C125.851 83.6589 126.51 82.9196 126.51 82.187Z" fill="#9059FF"/>
<path d="M278.116 132.232C278.116 131.499 277.457 130.76 276.644 130.76C275.831 130.76 275.172 131.499 275.172 132.232C275.172 132.964 275.831 133.704 276.644 133.704C277.457 133.704 278.116 132.964 278.116 132.232Z" fill="#C689FF"/>
<path d="M138.285 121.928C138.285 121.194 137.625 120.457 136.813 120.457C136 120.457 135.341 121.194 135.341 121.928C135.341 122.663 136 123.4 136.813 123.4C137.625 123.4 138.285 122.663 138.285 121.928Z" fill="#C689FF"/>
<path d="M261.925 98.378C261.925 97.6453 261.266 96.9061 260.453 96.9061C259.64 96.9061 258.981 97.6453 258.981 98.378C258.981 99.11 259.64 99.8499 260.453 99.8499C261.266 99.8499 261.925 99.11 261.925 98.378Z" fill="white"/>
<path d="M111.79 151.367C111.79 150.634 111.131 149.895 110.319 149.895C109.505 149.895 108.847 150.634 108.847 151.367C108.847 152.099 109.505 152.839 110.319 152.839C111.131 152.839 111.79 152.099 111.79 151.367Z" fill="white"/>
</svg>
