<svg width="214" height="191" viewBox="0 0 214 191" fill="none" xmlns="http://www.w3.org/2000/svg">
<path d="M214 129.617V13.4359C213.995 9.87404 212.577 6.45949 210.056 3.94086C207.536 1.42222 204.119 0.00503976 200.554 0H17.851C14.2865 0.00504117 10.8695 1.42222 8.34901 3.94086C5.82854 6.45949 4.41032 9.87404 4.40527 13.4359V129.617C4.41032 133.179 5.82854 136.594 8.34901 139.112C10.8695 141.631 14.2865 143.048 17.851 143.053H200.554C204.119 143.048 207.536 141.631 210.056 139.112C212.577 136.594 213.995 133.179 214 129.617ZM17.851 141.472C14.7057 141.469 11.6903 140.218 9.46619 137.996C7.24211 135.773 5.99095 132.76 5.98713 129.617V13.4359C5.99095 10.2929 7.24211 7.27969 9.46619 5.05723C11.6903 2.83477 14.7057 1.58451 17.851 1.58069H200.554C203.7 1.58451 206.715 2.83477 208.939 5.05723C211.163 7.27969 212.414 10.2929 212.418 13.4359V129.617C212.414 132.76 211.163 135.773 208.939 137.996C206.715 140.218 203.7 141.469 200.554 141.472H17.851Z" fill="#3F3D56"/>
<path d="M212.283 20.8667H6.12264C5.91315 20.8667 5.71224 20.7812 5.56411 20.629C5.41598 20.4768 5.33276 20.2704 5.33276 20.0552C5.33276 19.84 5.41598 19.6336 5.56411 19.4814C5.71224 19.3292 5.91315 19.2437 6.12264 19.2437H212.283C212.492 19.2437 212.693 19.3292 212.841 19.4814C212.989 19.6336 213.073 19.84 213.073 20.0552C213.073 20.2704 212.989 20.4768 212.841 20.629C212.693 20.7812 212.492 20.8667 212.283 20.8667Z" fill="#3F3D56"/>
<path d="M19.4757 15.0704C21.6525 15.0704 23.4172 13.2538 23.4172 11.013C23.4172 8.77214 21.6525 6.95557 19.4757 6.95557C17.2988 6.95557 15.5342 8.77214 15.5342 11.013C15.5342 13.2538 17.2988 15.0704 19.4757 15.0704Z" fill="#6C63FF"/>
<path d="M32.691 15.0704C34.8678 15.0704 36.6325 13.2538 36.6325 11.013C36.6325 8.77214 34.8678 6.95557 32.691 6.95557C30.5142 6.95557 28.7495 8.77214 28.7495 11.013C28.7495 13.2538 30.5142 15.0704 32.691 15.0704Z" fill="#6C63FF"/>
<path d="M46.1385 15.0704C48.3153 15.0704 50.08 13.2538 50.08 11.013C50.08 8.77214 48.3153 6.95557 46.1385 6.95557C43.9617 6.95557 42.197 8.77214 42.197 11.013C42.197 13.2538 43.9617 15.0704 46.1385 15.0704Z" fill="#6C63FF"/>
<path d="M106.911 57.4995H100.597C99.6204 57.4995 98.6837 57.1086 97.993 56.4129C97.3023 55.7172 96.9143 54.7737 96.9143 53.7898C96.9143 52.806 97.3023 51.8624 97.993 51.1667C98.6837 50.471 99.6204 50.0802 100.597 50.0802H106.911C107.887 50.0802 108.824 50.471 109.515 51.1667C110.206 51.8624 110.594 52.806 110.594 53.7898C110.594 54.7737 110.206 55.7172 109.515 56.4129C108.824 57.1086 107.887 57.4995 106.911 57.4995Z" fill="#CCCCCC"/>
<path d="M150.668 73.0335H144.248C143.254 73.0335 142.302 72.6427 141.599 71.947C140.897 71.2513 140.502 70.3078 140.502 69.3239C140.502 68.34 140.897 67.3965 141.599 66.7008C142.302 66.0051 143.254 65.6143 144.248 65.6143H150.668C151.662 65.6143 152.614 66.0051 153.317 66.7008C154.019 67.3965 154.414 68.34 154.414 69.3239C154.414 70.3078 154.019 71.2513 153.317 71.947C152.614 72.6427 151.662 73.0335 150.668 73.0335Z" fill="#CCCCCC"/>
<path d="M170.84 73.0335H164.419C163.426 73.0335 162.473 72.6427 161.771 71.947C161.068 71.2513 160.674 70.3078 160.674 69.3239C160.674 68.34 161.068 67.3965 161.771 66.7008C162.473 66.0051 163.426 65.6143 164.419 65.6143H170.84C171.833 65.6143 172.786 66.0051 173.488 66.7008C174.19 67.3965 174.585 68.34 174.585 69.3239C174.585 70.3078 174.19 71.2513 173.488 71.947C172.786 72.6427 171.833 73.0335 170.84 73.0335Z" fill="#CCCCCC"/>
<path d="M191.243 73.0335H184.822C183.829 73.0335 182.876 72.6427 182.174 71.947C181.471 71.2513 181.077 70.3078 181.077 69.3239C181.077 68.34 181.471 67.3965 182.174 66.7008C182.876 66.0051 183.829 65.6143 184.822 65.6143H191.243C192.236 65.6143 193.189 66.0051 193.891 66.7008C194.593 67.3965 194.988 68.34 194.988 69.3239C194.988 70.3078 194.593 71.2513 193.891 71.947C193.189 72.6427 192.236 73.0335 191.243 73.0335Z" fill="#CCCCCC"/>
<path d="M151.168 57.7313H121.491C120.507 57.7313 119.563 57.3405 118.868 56.6448C118.172 55.9491 117.781 55.0055 117.781 54.0217C117.781 53.0378 118.172 52.0942 118.868 51.3985C119.563 50.7029 120.507 50.312 121.491 50.312H151.168C152.152 50.312 153.095 50.7029 153.791 51.3985C154.487 52.0942 154.878 53.0378 154.878 54.0217C154.878 55.0055 154.487 55.9491 153.791 56.6448C153.095 57.3405 152.152 57.7313 151.168 57.7313Z" fill="#CCCCCC"/>
<path d="M130.51 72.8018H100.647C99.6571 72.8018 98.7077 72.3987 98.0076 71.6813C97.3076 70.9638 96.9143 69.9908 96.9143 68.9762C96.9143 67.9616 97.3076 66.9886 98.0076 66.2711C98.7077 65.5537 99.6571 65.1506 100.647 65.1506H130.51C131.5 65.1506 132.449 65.5537 133.149 66.2711C133.849 66.9886 134.243 67.9616 134.243 68.9762C134.243 69.9908 133.849 70.9638 133.149 71.6813C132.449 72.3987 131.5 72.8018 130.51 72.8018Z" fill="#CCCCCC"/>
<path d="M91.8136 72.8017H51.0075C49.6547 72.8017 48.3573 72.0811 47.4007 70.7984C46.4441 69.5157 45.9067 67.776 45.9067 65.962C45.9067 64.148 46.4441 62.4084 47.4007 61.1257C48.3573 59.843 49.6547 59.1224 51.0075 59.1224H91.8136C93.1664 59.1224 94.4638 59.843 95.4204 61.1257C96.3769 62.4084 96.9143 64.148 96.9143 65.962C96.9143 67.776 96.3769 69.5157 95.4204 70.7984C94.4638 72.0811 93.1664 72.8017 91.8136 72.8017Z" fill="#CCCCCC"/>
<path d="M189.172 57.7313H166.259C165.27 57.7313 164.321 57.3405 163.621 56.6448C162.922 55.9491 162.529 55.0055 162.529 54.0217C162.529 53.0378 162.922 52.0942 163.621 51.3985C164.321 50.7029 165.27 50.312 166.259 50.312H189.172C190.161 50.312 191.11 50.7029 191.809 51.3985C192.509 52.0942 192.902 53.0378 192.902 54.0217C192.902 55.0055 192.509 55.9491 191.809 56.6448C191.11 57.3405 190.161 57.7313 189.172 57.7313Z" fill="#CCCCCC"/>
<path d="M106.911 89.0314H100.597C99.6204 89.0314 98.6837 88.6283 97.993 87.9109C97.3023 87.1935 96.9143 86.2204 96.9143 85.2058C96.9143 84.1912 97.3023 83.2182 97.993 82.5007C98.6837 81.7833 99.6204 81.3802 100.597 81.3802H106.911C107.887 81.3802 108.824 81.7833 109.515 82.5007C110.206 83.2182 110.594 84.1912 110.594 85.2058C110.594 86.2204 110.206 87.1935 109.515 87.9109C108.824 88.6283 107.887 89.0314 106.911 89.0314Z" fill="#CCCCCC"/>
<path d="M90.476 92.2773H77.8489C75.8954 92.2773 74.0219 91.7033 72.6406 90.6815C71.2592 89.6597 70.4832 88.2738 70.4832 86.8288C70.4832 85.3837 71.2592 83.9979 72.6406 82.9761C74.0219 81.9543 75.8954 81.3802 77.8489 81.3802H90.476C92.4295 81.3802 94.303 81.9543 95.6844 82.9761C97.0657 83.9979 97.8418 85.3837 97.8418 86.8288C97.8418 88.2738 97.0657 89.6597 95.6844 90.6815C94.303 91.7033 92.4295 92.2773 90.476 92.2773Z" fill="#CCCCCC"/>
<path d="M151.168 89.2633H121.491C120.507 89.2633 119.563 88.8602 118.868 88.1428C118.172 87.4253 117.781 86.4523 117.781 85.4377C117.781 84.4231 118.172 83.45 118.868 82.7326C119.563 82.0152 120.507 81.6121 121.491 81.6121H151.168C152.152 81.6121 153.095 82.0152 153.791 82.7326C154.487 83.45 154.878 84.4231 154.878 85.4377C154.878 86.4523 154.487 87.4253 153.791 88.1428C153.095 88.8602 152.152 89.2633 151.168 89.2633Z" fill="#CCCCCC"/>
<path d="M189.172 89.2633H166.259C165.27 89.2633 164.321 88.8602 163.621 88.1428C162.922 87.4253 162.529 86.4523 162.529 85.4377C162.529 84.4231 162.922 83.45 163.621 82.7326C164.321 82.0152 165.27 81.6121 166.259 81.6121H189.172C190.161 81.6121 191.11 82.0152 191.809 82.7326C192.509 83.45 192.902 84.4231 192.902 85.4377C192.902 86.4523 192.509 87.4253 191.809 88.1428C191.11 88.8602 190.161 89.2633 189.172 89.2633Z" fill="#CCCCCC"/>
<path d="M178.99 101.667C178.992 100.653 179.387 99.6807 180.089 98.9635C180.791 98.2463 181.743 97.8429 182.736 97.8418H189.156C190.15 97.8418 191.102 98.2449 191.805 98.9623C192.507 99.6797 192.902 100.653 192.902 101.667C192.902 102.682 192.507 103.655 191.805 104.372C191.102 105.09 190.15 105.493 189.156 105.493H182.736C181.743 105.492 180.791 105.088 180.089 104.371C179.387 103.654 178.992 102.682 178.99 101.667Z" fill="#CCCCCC"/>
<path d="M134.706 101.899C134.707 100.885 135.101 99.9126 135.801 99.1954C136.501 98.4782 137.449 98.0748 138.439 98.0737H168.302C169.292 98.0737 170.241 98.4767 170.941 99.1942C171.641 99.9116 172.035 100.885 172.035 101.899C172.035 102.914 171.641 103.887 170.941 104.604C170.241 105.322 169.292 105.725 168.302 105.725H138.439C137.449 105.724 136.501 105.32 135.801 104.603C135.101 103.886 134.707 102.913 134.706 101.899Z" fill="#CCCCCC"/>
<path d="M96.9143 101.899C96.9154 100.885 97.3088 99.9126 98.008 99.1954C98.7073 98.4782 99.6554 98.0748 100.644 98.0737H123.557C124.546 98.0737 125.495 98.4767 126.195 99.1942C126.894 99.9116 127.287 100.885 127.287 101.899C127.287 102.914 126.894 103.887 126.195 104.604C125.495 105.322 124.546 105.725 123.557 105.725H100.644C99.6554 105.724 98.7073 105.32 98.008 104.603C97.3088 103.886 96.9154 102.913 96.9143 101.899Z" fill="#CCCCCC"/>
<path d="M88.072 110.62L79.1338 116.65L97.8033 144.322L106.742 138.292L88.072 110.62Z" fill="#EBEBEB"/>
<path d="M33.3344 39.1511C25.8676 44.1919 20.063 51.3333 16.6543 59.6725C13.2456 68.0117 12.3858 77.1744 14.1835 86.0022C15.9813 94.8299 20.356 102.927 26.7545 109.269C33.1531 115.61 41.2882 119.913 50.1316 121.632C58.975 123.352 68.1296 122.41 76.4383 118.928C84.7469 115.445 91.8364 109.577 96.8108 102.066C101.785 94.555 104.421 85.7377 104.385 76.7287C104.349 67.7198 101.643 58.9238 96.6086 51.4526C93.2635 46.4881 88.9728 42.2315 83.9817 38.9262C78.9907 35.6208 73.3971 33.3315 67.5208 32.189C61.6445 31.0466 55.6007 31.0734 49.7348 32.268C43.8688 33.4626 38.2959 35.8015 33.3344 39.1511ZM78.9504 106.772C73.0507 110.755 66.1025 112.898 58.9846 112.931C51.8668 112.964 44.8989 110.885 38.9626 106.958C33.0262 103.03 28.3879 97.4307 25.6345 90.8668C22.8811 84.303 22.1361 77.07 23.4939 70.0827C24.8517 63.0955 28.2513 56.6678 33.2625 51.6129C38.2738 46.5579 44.6717 43.1027 51.6469 41.6843C58.6221 40.2659 65.8613 40.948 72.4488 43.6443C79.0363 46.3407 84.6761 50.9301 88.655 56.8322C93.9876 64.7424 95.961 74.4465 94.1412 83.8112C92.3214 93.1759 86.8574 101.435 78.9504 106.772Z" fill="#A6A6A6"/>
<path d="M94.7535 120.536L88.7587 124.58C86.6828 125.981 86.1354 128.799 87.5359 130.875L109.801 163.877C111.202 165.952 114.02 166.5 116.096 165.099L122.09 161.055C124.166 159.654 124.714 156.836 123.313 154.76L101.048 121.759C99.6477 119.683 96.8294 119.135 94.7535 120.536Z" fill="#263238"/>
</svg>
