<?xml version="1.0" encoding="UTF-8" standalone="no"?>
<svg
   width="953"
   height="578"
   viewBox="0 0 953 578"
   fill="none"
   version="1.1"
   id="svg60"
   xmlns="http://www.w3.org/2000/svg"
   xmlns:svg="http://www.w3.org/2000/svg">
  <defs
     id="defs64" />
  <g
     id="g775">
    <path
       d="M799.947 69.8943C801.027 42.8533 783.317 20.1882 760.391 19.2705C737.465 18.3528 718.004 39.5299 716.923 66.5709C715.843 93.6119 733.553 116.277 756.479 117.195C779.405 118.112 798.867 96.9353 799.947 69.8943Z"
       fill="#EBEBEB"
       id="path2" />
    <path
       d="M787.319 69.5954C786.141 94.2218 769.727 113.817 749.477 116.213C751.646 116.742 753.861 117.061 756.09 117.167C779.012 118.345 798.641 97.3862 799.937 70.3501C801.233 43.314 783.708 20.4618 760.786 19.2834C758.787 19.1833 756.782 19.2497 754.794 19.482C774.356 24.2352 788.482 45.2206 787.319 69.5954Z"
       fill="#E0E0E0"
       id="path4" />
    <path
       d="M462.956 573.078C489.855 570.442 510.626 557.716 509.349 544.653C508.072 531.59 485.23 523.136 458.33 525.772C431.431 528.407 410.66 541.134 411.937 554.197C413.214 567.26 436.056 575.713 462.956 573.078Z"
       fill="#EBEBEB"
       id="path6" />
    <path
       d="M461.096 565.936C436.547 567.883 416.125 560.64 412.501 549.347C412.114 550.594 411.927 551.894 411.946 553.2C412.17 566.36 434.166 575.31 461.096 573.179C488.025 571.047 509.691 558.681 509.466 545.52C509.444 544.369 509.253 543.226 508.897 542.131C505.339 553.795 485.354 564.056 461.096 565.936Z"
       fill="#E0E0E0"
       id="path8" />
    <path
       d="M73.7116 497.25C87.4035 485.77 87.5518 463.376 74.0429 447.232C60.5339 431.087 38.4833 427.306 24.7914 438.787C11.0995 450.267 10.9512 472.66 24.4601 488.805C37.969 504.949 60.0197 508.73 73.7116 497.25Z"
       fill="#EBEBEB"
       id="path10" />
    <path
       d="M32.0748 482.582C44.5078 497.146 63.9246 501.462 77.5348 493.293C76.4483 494.646 75.2395 495.896 73.9239 497.026C60.3666 508.651 38.3178 505.09 24.6811 489.082C11.0444 473.075 10.9782 450.62 24.5356 438.996C25.7221 437.981 26.992 437.069 28.3316 436.268C18.5571 448.422 19.8136 468.124 32.0748 482.582Z"
       fill="#E0E0E0"
       id="path12" />
    <path
       d="M69.8005 282.76C70.0016 269.029 62.5619 257.787 53.1834 257.649C43.8049 257.511 36.0392 268.531 35.838 282.262C35.6369 295.993 43.0766 307.235 52.4551 307.373C61.8336 307.511 69.5994 296.491 69.8005 282.76Z"
       fill="#EBEBEB"
       id="path14" />
    <path
       d="M41.0039 282.111C40.7262 294.622 46.8237 305.175 54.9978 307.147C54.1281 307.328 53.2404 307.408 52.3524 307.386C42.9747 307.108 35.6075 295.748 35.9117 282.018C36.2159 268.288 44.0461 257.378 53.4238 257.656C54.2445 257.679 55.0604 257.79 55.8575 257.987C47.6702 259.642 41.2685 269.731 41.0039 282.111Z"
       fill="#E0E0E0"
       id="path16" />
    <path
       d="M907.683 435.781C900.58 449.207 904.059 464.975 915.473 470.973C926.888 476.971 941.926 470.973 949.003 457.534C956.079 444.096 952.627 428.34 941.225 422.329C929.824 416.318 914.812 422.343 907.683 435.781Z"
       fill="#EBEBEB"
       id="path18" />
    <path
       d="M942.707 454.291C949.188 442.044 946.86 427.811 937.76 420.899C938.956 421.27 940.116 421.748 941.225 422.329C952.627 428.34 956.119 444.096 949.003 457.534C941.887 470.973 926.875 476.984 915.473 471.013C914.475 470.491 913.523 469.884 912.629 469.199C923.449 472.482 936.292 466.405 942.707 454.291Z"
       fill="#E0E0E0"
       id="path20" />
    <path
       d="M253.296 67.7286C260.26 47.8564 252.243 26.9495 235.389 21.0316C218.536 15.1137 199.228 26.4258 192.264 46.2979C185.3 66.17 193.318 87.077 210.171 92.9949C227.025 98.9128 246.333 87.6007 253.296 67.7286Z"
       fill="#EBEBEB"
       id="path22" />
    <path
       d="M199.076 48.4776C192.873 66.6297 199.076 85.5496 213.096 93.0567C211.384 92.8138 209.697 92.4149 208.057 91.8651C191.14 86.1322 182.926 65.3851 189.751 45.4059C196.576 25.4268 215.781 13.9742 232.698 19.6938C234.174 20.2019 235.606 20.8261 236.983 21.5607C221.442 19.3761 205.213 30.4977 199.076 48.4776Z"
       fill="#E0E0E0"
       id="path24" />
    <path
       d="M664.139 55.2697L669.707 58.5797C669.871 58.6813 670.004 58.8252 670.093 58.9961C670.181 59.1671 670.223 59.3588 670.212 59.5512C670.201 59.7436 670.139 59.9295 670.031 60.0894C669.924 60.2492 669.775 60.3772 669.601 60.4598L663.702 63.4123C663.517 63.5051 663.362 63.6472 663.253 63.8228L659.8 69.463C659.708 69.6314 659.572 69.7719 659.407 69.8698C659.242 69.9676 659.053 70.0192 658.861 70.0192C658.669 70.0192 658.481 69.9676 658.316 69.8698C658.15 69.7719 658.015 69.6314 657.922 69.463L655.105 63.6374C655.016 63.4534 654.873 63.301 654.695 63.2005L649.14 59.864C648.976 59.7624 648.843 59.6185 648.754 59.4476C648.665 59.2766 648.624 59.0849 648.635 58.8925C648.646 58.7001 648.708 58.5142 648.816 58.3544C648.923 58.1945 649.072 58.0665 649.245 57.9839L655.145 55.0314C655.329 54.9386 655.485 54.7966 655.594 54.621L659.033 48.994C659.127 48.8259 659.265 48.6859 659.431 48.5885C659.597 48.4912 659.786 48.4398 659.979 48.4398C660.171 48.4398 660.361 48.4912 660.527 48.5885C660.693 48.6859 660.83 48.8259 660.925 48.994L663.742 54.8196C663.83 55.0036 663.967 55.1594 664.139 55.2697Z"
       fill="#E0E0E0"
       id="path26" />
    <path
       d="M125.959 534.399L131.527 537.709C131.691 537.81 131.824 537.954 131.913 538.125C132.001 538.296 132.043 538.488 132.032 538.68C132.021 538.873 131.959 539.059 131.851 539.218C131.744 539.378 131.595 539.506 131.421 539.589L125.522 542.541C125.337 542.634 125.182 542.776 125.073 542.952L121.62 548.592C121.522 548.758 121.381 548.893 121.213 548.986C121.044 549.078 120.854 549.123 120.662 549.116C120.47 549.109 120.283 549.051 120.121 548.947C119.959 548.843 119.829 548.698 119.742 548.526L116.925 542.7C116.832 542.519 116.69 542.368 116.515 542.263L110.96 538.953C110.796 538.852 110.663 538.708 110.574 538.537C110.485 538.366 110.444 538.174 110.455 537.982C110.466 537.79 110.528 537.604 110.636 537.444C110.743 537.284 110.892 537.156 111.065 537.073L116.965 534.108C117.152 534.019 117.309 533.876 117.414 533.697L120.853 528.07C120.946 527.902 121.082 527.761 121.247 527.663C121.412 527.566 121.6 527.514 121.792 527.514C121.984 527.514 122.173 527.566 122.338 527.663C122.503 527.761 122.639 527.902 122.731 528.07L125.562 533.909C125.641 534.109 125.779 534.28 125.959 534.399Z"
       fill="#E0E0E0"
       id="path28" />
    <path
       d="M616.853 530.467L622.422 533.777C622.585 533.878 622.718 534.022 622.807 534.193C622.896 534.364 622.937 534.556 622.926 534.748C622.915 534.94 622.853 535.126 622.746 535.286C622.638 535.446 622.49 535.574 622.316 535.657L616.417 538.622C616.229 538.711 616.072 538.854 615.967 539.033L612.515 544.66C612.423 544.828 612.287 544.969 612.121 545.067C611.956 545.164 611.768 545.216 611.576 545.216C611.384 545.216 611.195 545.164 611.03 545.067C610.865 544.969 610.729 544.828 610.637 544.66L607.819 538.821C607.726 538.64 607.584 538.488 607.409 538.384L601.854 535.074C601.691 534.973 601.558 534.829 601.469 534.658C601.38 534.487 601.339 534.295 601.35 534.103C601.36 533.91 601.423 533.724 601.53 533.564C601.638 533.405 601.786 533.277 601.96 533.194L607.859 530.241C608.044 530.149 608.199 530.007 608.309 529.831L611.748 524.191C611.842 524.023 611.979 523.883 612.146 523.785C612.312 523.688 612.501 523.637 612.693 523.637C612.886 523.637 613.075 523.688 613.241 523.785C613.408 523.883 613.545 524.023 613.639 524.191L616.456 530.016C616.543 530.202 616.68 530.358 616.853 530.467Z"
       fill="#E0E0E0"
       id="path30" />
    <path
       d="M859.113 525.687L864.668 529.01C864.833 529.109 864.967 529.25 865.058 529.42C865.148 529.589 865.191 529.78 865.181 529.971C865.172 530.163 865.11 530.349 865.004 530.508C864.897 530.668 864.749 530.795 864.576 530.877L858.663 533.856C858.478 533.948 858.322 534.09 858.214 534.266L854.775 539.893C854.682 540.062 854.546 540.202 854.381 540.3C854.216 540.398 854.027 540.45 853.836 540.45C853.644 540.45 853.455 540.398 853.29 540.3C853.125 540.202 852.989 540.062 852.896 539.893L850.066 534.068C849.983 533.881 849.844 533.724 849.669 533.618L844.114 530.308C843.95 530.207 843.816 530.064 843.726 529.894C843.636 529.724 843.594 529.532 843.603 529.34C843.613 529.148 843.674 528.962 843.78 528.801C843.886 528.641 844.033 528.511 844.207 528.428L850.106 525.475C850.29 525.382 850.446 525.24 850.555 525.065L854.007 519.424C854.106 519.259 854.246 519.123 854.415 519.031C854.584 518.939 854.774 518.894 854.966 518.901C855.158 518.907 855.345 518.966 855.507 519.069C855.668 519.173 855.799 519.319 855.886 519.491L858.716 525.316C858.811 525.475 858.948 525.603 859.113 525.687Z"
       fill="#E0E0E0"
       id="path32" />
    <path
       d="M265.619 119.444L271.174 122.754C271.338 122.855 271.472 122.997 271.562 123.168C271.652 123.338 271.695 123.529 271.685 123.722C271.676 123.914 271.615 124.1 271.508 124.261C271.402 124.421 271.255 124.55 271.082 124.634L265.169 127.6C264.984 127.692 264.828 127.834 264.72 128.01L261.281 133.637C261.188 133.806 261.052 133.946 260.887 134.044C260.722 134.142 260.534 134.194 260.342 134.194C260.15 134.194 259.961 134.142 259.796 134.044C259.631 133.946 259.495 133.806 259.403 133.637L256.572 127.798C256.484 127.618 256.347 127.466 256.175 127.362L250.62 124.052C250.456 123.951 250.322 123.808 250.232 123.638C250.142 123.468 250.1 123.276 250.109 123.084C250.119 122.892 250.18 122.705 250.286 122.545C250.392 122.384 250.539 122.255 250.713 122.171L256.625 119.219C256.803 119.122 256.954 118.981 257.061 118.808L260.514 113.168C260.606 113 260.742 112.859 260.907 112.761C261.072 112.664 261.261 112.612 261.453 112.612C261.645 112.612 261.833 112.664 261.998 112.761C262.163 112.859 262.299 113 262.392 113.168L265.222 118.994C265.304 119.182 265.443 119.339 265.619 119.444Z"
       fill="#E0E0E0"
       id="path34" />
    <path
       d="M301.133 7.60572L306.688 10.9157C306.851 11.0173 306.985 11.1612 307.073 11.3321C307.162 11.5031 307.203 11.6948 307.192 11.8872C307.182 12.0796 307.119 12.2655 307.012 12.4254C306.904 12.5852 306.756 12.7132 306.582 12.7958L300.683 15.7616C300.495 15.85 300.338 15.993 300.233 16.172L296.794 21.799C296.7 21.9671 296.563 22.107 296.396 22.2044C296.23 22.3018 296.041 22.3531 295.849 22.3531C295.656 22.3531 295.467 22.3018 295.301 22.2044C295.134 22.107 294.997 21.9671 294.903 21.799L292.086 15.9602C291.994 15.7821 291.857 15.6314 291.689 15.5232L286.12 12.2C285.957 12.0984 285.824 11.9545 285.735 11.7836C285.646 11.6126 285.605 11.4209 285.616 11.2285C285.627 11.0361 285.689 10.8502 285.796 10.6904C285.904 10.5305 286.052 10.4025 286.226 10.3199L292.125 7.3674C292.31 7.27457 292.466 7.13256 292.575 6.95696L296.027 1.31672C296.12 1.14829 296.255 1.0078 296.421 0.909947C296.586 0.812093 296.774 0.760468 296.966 0.760468C297.158 0.760468 297.347 0.812093 297.512 0.909947C297.677 1.0078 297.813 1.14829 297.905 1.31672L300.723 7.14232C300.807 7.33608 300.951 7.49822 301.133 7.60572Z"
       fill="#E0E0E0"
       id="path36" />
    <path
       d="M121.012 56.3157L123.816 57.9972C123.902 58.0439 123.973 58.1128 124.023 58.1966C124.073 58.2805 124.099 58.3763 124.099 58.4738C124.099 58.5714 124.073 58.6671 124.023 58.751C123.973 58.8349 123.902 58.9038 123.816 58.9504L120.827 60.4598C120.735 60.5035 120.657 60.5724 120.602 60.6584L118.856 63.5183C118.808 63.6036 118.737 63.6745 118.653 63.7239C118.568 63.7732 118.471 63.7992 118.373 63.7992C118.275 63.7992 118.179 63.7732 118.094 63.7239C118.009 63.6745 117.939 63.6036 117.891 63.5183L116.462 60.5657C116.418 60.4735 116.35 60.3955 116.264 60.3407L113.433 58.6592C113.348 58.6125 113.276 58.5436 113.226 58.4597C113.177 58.3758 113.15 58.2801 113.15 58.1825C113.15 58.085 113.177 57.9892 113.226 57.9054C113.276 57.8215 113.348 57.7526 113.433 57.7059L116.436 56.1965C116.528 56.1528 116.606 56.084 116.66 55.9979L118.406 53.1381C118.453 53.0524 118.522 52.9809 118.606 52.9311C118.689 52.8813 118.785 52.855 118.883 52.855C118.98 52.855 119.076 52.8813 119.159 52.9311C119.243 52.9809 119.312 53.0524 119.359 53.1381L120.8 56.0906C120.843 56.1877 120.918 56.2671 121.012 56.3157Z"
       fill="#E0E0E0"
       id="path38" />
    <path
       d="M435.555 40.004L438.372 41.6855C438.458 41.7321 438.529 41.8011 438.579 41.8849C438.629 41.9688 438.655 42.0646 438.655 42.1621C438.655 42.2597 438.629 42.3554 438.579 42.4393C438.529 42.5232 438.458 42.5921 438.372 42.6387L435.383 44.1349C435.287 44.1793 435.209 44.2537 435.158 44.3467L433.32 47.2065C433.273 47.2922 433.204 47.3637 433.121 47.4135C433.037 47.4633 432.941 47.4896 432.844 47.4896C432.746 47.4896 432.651 47.4633 432.567 47.4135C432.483 47.3637 432.414 47.2922 432.368 47.2065L430.939 44.254C430.895 44.1618 430.827 44.0838 430.741 44.0289L427.91 42.3475C427.825 42.3008 427.753 42.2319 427.703 42.148C427.654 42.0641 427.627 41.9684 427.627 41.8708C427.627 41.7733 427.654 41.6775 427.703 41.5937C427.753 41.5098 427.825 41.4409 427.91 41.3942L430.913 39.8981C431.005 39.849 431.083 39.7758 431.138 39.6862L432.883 36.8264C432.93 36.7407 432.999 36.6692 433.083 36.6194C433.166 36.5696 433.262 36.5433 433.36 36.5433C433.457 36.5433 433.553 36.5696 433.636 36.6194C433.72 36.6692 433.789 36.7407 433.836 36.8264L435.264 39.7921C435.336 39.8917 435.438 39.9659 435.555 40.004Z"
       fill="#E0E0E0"
       id="path40" />
    <path
       d="M697.205 21.468L700.036 23.1495C700.121 23.1962 700.193 23.2651 700.243 23.349C700.292 23.4328 700.319 23.5286 700.319 23.6261C700.319 23.7237 700.292 23.8194 700.243 23.9033C700.193 23.9872 700.121 24.0561 700.036 24.1028L697.033 25.5989C696.941 25.6479 696.863 25.7211 696.809 25.8107L695.063 28.6706C695.016 28.7562 694.947 28.8277 694.863 28.8775C694.779 28.9273 694.684 28.9536 694.586 28.9536C694.489 28.9536 694.393 28.9273 694.31 28.8775C694.226 28.8277 694.157 28.7562 694.11 28.6706L692.682 25.7048C692.633 25.6121 692.56 25.5343 692.47 25.4797L689.653 23.7982C689.567 23.7516 689.496 23.6827 689.446 23.5988C689.396 23.5149 689.37 23.4192 689.37 23.3216C689.37 23.2241 689.396 23.1283 689.446 23.0444C689.496 22.9606 689.567 22.8917 689.653 22.845L692.642 21.3488C692.738 21.3044 692.817 21.2301 692.867 21.137L694.626 18.2772C694.673 18.1915 694.742 18.12 694.825 18.0702C694.909 18.0204 695.005 17.9941 695.102 17.9941C695.2 17.9941 695.295 18.0204 695.379 18.0702C695.463 18.12 695.532 18.1915 695.578 18.2772L697.007 21.2297C697.048 21.3268 697.117 21.4096 697.205 21.468Z"
       fill="#E0E0E0"
       id="path42" />
    <path
       d="M877.908 30.6036L880.725 32.2851C880.811 32.3317 880.882 32.4007 880.932 32.4845C880.982 32.5684 881.008 32.6642 881.008 32.7617C881.008 32.8593 880.982 32.955 880.932 33.0389C880.882 33.1228 880.811 33.1917 880.725 33.2383L877.736 34.708C877.643 34.757 877.566 34.8302 877.511 34.9198L875.765 37.7797C875.717 37.865 875.646 37.9359 875.562 37.9853C875.477 38.0346 875.381 38.0606 875.283 38.0606C875.184 38.0606 875.088 38.0346 875.003 37.9853C874.918 37.9359 874.848 37.865 874.8 37.7797L873.371 34.8139C873.328 34.7217 873.259 34.6437 873.173 34.5888L870.342 32.9073C870.257 32.8607 870.185 32.7918 870.136 32.7079C870.086 32.624 870.06 32.5283 870.06 32.4307C870.06 32.3332 870.086 32.2374 870.136 32.1535C870.185 32.0697 870.257 32.0007 870.342 31.9541L873.345 30.4579C873.441 30.4135 873.519 30.3392 873.57 30.2461L875.316 27.3863C875.362 27.3006 875.431 27.2291 875.515 27.1793C875.599 27.1295 875.694 27.1032 875.792 27.1032C875.889 27.1032 875.985 27.1295 876.069 27.1793C876.152 27.2291 876.221 27.3006 876.268 27.3863L877.736 30.3785C877.768 30.4697 877.829 30.5484 877.908 30.6036Z"
       fill="#E0E0E0"
       id="path44" />
    <path
       d="M554.926 558.787L558.233 560.72C558.332 560.777 558.414 560.859 558.471 560.958C558.528 561.056 558.558 561.168 558.558 561.283C558.558 561.397 558.528 561.509 558.471 561.608C558.414 561.707 558.332 561.789 558.233 561.845L554.754 563.62C554.645 563.678 554.554 563.765 554.49 563.871L552.479 567.221C552.422 567.32 552.341 567.402 552.242 567.459C552.143 567.517 552.031 567.547 551.917 567.547C551.803 567.547 551.691 567.517 551.592 567.459C551.494 567.402 551.412 567.32 551.355 567.221L549.662 563.778C549.604 563.677 549.522 563.59 549.424 563.527L546.104 561.594C546.005 561.539 545.922 561.458 545.864 561.36C545.807 561.263 545.776 561.151 545.776 561.038C545.776 560.924 545.807 560.813 545.864 560.715C545.922 560.617 546.005 560.537 546.104 560.482L549.583 558.694C549.691 558.641 549.783 558.559 549.847 558.456L551.857 555.093C551.914 554.994 551.996 554.912 552.095 554.854C552.194 554.797 552.306 554.767 552.42 554.767C552.534 554.767 552.646 554.797 552.744 554.854C552.843 554.912 552.925 554.994 552.982 555.093L554.675 558.535C554.73 558.643 554.818 558.731 554.926 558.787Z"
       fill="#E0E0E0"
       id="path46" />
    <path
       d="M900.79 318.785L904.11 320.718C904.209 320.773 904.292 320.854 904.35 320.952C904.407 321.05 904.438 321.161 904.438 321.275C904.438 321.388 904.407 321.5 904.35 321.597C904.292 321.695 904.209 321.776 904.11 321.831L900.632 323.618C900.52 323.673 900.427 323.761 900.367 323.87L898.357 327.219C898.3 327.318 898.218 327.401 898.119 327.458C898.021 327.515 897.908 327.545 897.794 327.545C897.68 327.545 897.568 327.515 897.47 327.458C897.371 327.401 897.289 327.318 897.232 327.219L895.539 323.777C895.484 323.669 895.396 323.581 895.288 323.525L891.981 321.592C891.882 321.537 891.799 321.457 891.742 321.359C891.684 321.261 891.654 321.15 891.654 321.036C891.654 320.923 891.684 320.811 891.742 320.713C891.799 320.616 891.882 320.535 891.981 320.48L895.46 318.693C895.569 318.634 895.66 318.547 895.724 318.441L897.735 315.091C897.792 314.992 897.874 314.91 897.972 314.853C898.071 314.796 898.183 314.766 898.297 314.766C898.411 314.766 898.523 314.796 898.622 314.853C898.721 314.91 898.802 314.992 898.859 315.091L900.552 318.534C900.606 318.639 900.689 318.726 900.79 318.785Z"
       fill="#E0E0E0"
       id="path48" />
    <path
       d="M47.1674 348.258L49.8128 349.833C49.8926 349.878 49.959 349.944 50.0053 350.023C50.0515 350.102 50.0759 350.192 50.0759 350.283C50.0759 350.375 50.0515 350.465 50.0053 350.544C49.959 350.623 49.8926 350.689 49.8128 350.734L46.9822 352.15C46.8967 352.198 46.8241 352.267 46.7706 352.349L45.1173 354.997C45.0724 355.077 45.0071 355.143 44.9281 355.19C44.8491 355.236 44.7591 355.26 44.6676 355.26C44.576 355.26 44.4861 355.236 44.4071 355.19C44.328 355.143 44.2627 355.077 44.2179 354.997L42.8952 352.203C42.8471 352.118 42.779 352.045 42.6968 351.991L40.0515 350.403C39.9716 350.358 39.9052 350.292 39.8589 350.213C39.8127 350.134 39.7883 350.044 39.7883 349.952C39.7883 349.861 39.8127 349.771 39.8589 349.692C39.9052 349.613 39.9716 349.547 40.0515 349.502L42.882 348.086C42.9731 348.045 43.0477 347.975 43.0936 347.887L44.7469 345.239C44.7887 345.155 44.8528 345.085 44.9323 345.036C45.0117 344.987 45.1032 344.961 45.1966 344.961C45.29 344.961 45.3816 344.987 45.461 345.036C45.5405 345.085 45.6046 345.155 45.6464 345.239L46.969 348.033C47.0194 348.12 47.0869 348.197 47.1674 348.258Z"
       fill="#E0E0E0"
       id="path50" />
    <path
       d="M328.419 545.136L331.065 546.725C331.145 546.77 331.211 546.836 331.257 546.915C331.303 546.994 331.328 547.084 331.328 547.175C331.328 547.267 331.303 547.357 331.257 547.436C331.211 547.515 331.145 547.581 331.065 547.626L328.234 549.042C328.146 549.087 328.073 549.156 328.023 549.241L326.369 551.889C326.324 551.969 326.259 552.035 326.18 552.082C326.101 552.128 326.011 552.152 325.92 552.152C325.828 552.152 325.738 552.128 325.659 552.082C325.58 552.035 325.515 551.969 325.47 551.889L324.147 549.095C324.099 549.01 324.031 548.937 323.949 548.883L321.303 547.295C321.224 547.25 321.157 547.184 321.111 547.105C321.065 547.026 321.04 546.936 321.04 546.844C321.04 546.753 321.065 546.663 321.111 546.584C321.157 546.505 321.224 546.439 321.303 546.394L324.134 544.978C324.225 544.937 324.3 544.867 324.346 544.779L325.999 542.131C326.044 542.051 326.109 541.985 326.188 541.938C326.267 541.892 326.357 541.868 326.449 541.868C326.54 541.868 326.63 541.892 326.709 541.938C326.788 541.985 326.853 542.051 326.898 542.131L328.221 544.925C328.266 545.013 328.334 545.086 328.419 545.136Z"
       fill="#E0E0E0"
       id="path52" />
    <path
       d="M835.517 480.366L838.162 481.955C838.242 482 838.308 482.065 838.354 482.145C838.401 482.224 838.425 482.314 838.425 482.405C838.425 482.497 838.401 482.587 838.354 482.666C838.308 482.745 838.242 482.811 838.162 482.856L835.331 484.272C835.243 484.317 835.17 484.386 835.12 484.471L833.466 487.119C833.422 487.199 833.356 487.265 833.277 487.312C833.198 487.358 833.108 487.382 833.017 487.382C832.925 487.382 832.835 487.358 832.756 487.312C832.677 487.265 832.612 487.199 832.567 487.119L831.244 484.325C831.205 484.237 831.141 484.164 831.059 484.113L828.414 482.525C828.334 482.48 828.268 482.414 828.221 482.335C828.175 482.256 828.151 482.166 828.151 482.074C828.151 481.983 828.175 481.893 828.221 481.814C828.268 481.734 828.334 481.669 828.414 481.624L831.244 480.208C831.335 480.167 831.41 480.097 831.456 480.009L833.109 477.361C833.154 477.281 833.219 477.215 833.298 477.168C833.377 477.122 833.467 477.098 833.559 477.098C833.65 477.098 833.74 477.122 833.819 477.168C833.898 477.215 833.964 477.281 834.009 477.361L835.331 480.141C835.37 480.233 835.434 480.311 835.517 480.366Z"
       fill="#E0E0E0"
       id="path54" />
    <path
       d="M779.25 543.256L781.895 544.845C781.975 544.89 782.042 544.955 782.088 545.035C782.134 545.114 782.159 545.204 782.159 545.295C782.159 545.387 782.134 545.477 782.088 545.556C782.042 545.635 781.975 545.701 781.895 545.746L779.065 547.162C778.974 547.202 778.899 547.272 778.853 547.361L777.2 550.009C777.155 550.089 777.09 550.155 777.011 550.202C776.932 550.248 776.842 550.272 776.75 550.272C776.659 550.272 776.569 550.248 776.49 550.202C776.411 550.155 776.345 550.089 776.301 550.009L774.978 547.215C774.929 547.133 774.861 547.065 774.78 547.017L772.134 545.428C772.054 545.383 771.988 545.317 771.942 545.238C771.895 545.159 771.871 545.069 771.871 544.978C771.871 544.886 771.895 544.796 771.942 544.717C771.988 544.638 772.054 544.572 772.134 544.527L774.965 543.111C775.05 543.063 775.123 542.994 775.176 542.912L776.83 540.264C776.875 540.184 776.94 540.118 777.019 540.071C777.098 540.025 777.188 540.001 777.279 540.001C777.371 540.001 777.461 540.025 777.54 540.071C777.619 540.118 777.684 540.184 777.729 540.264L779.052 543.058C779.102 543.139 779.169 543.207 779.25 543.256Z"
       fill="#E0E0E0"
       id="path56" />
    <path
       d="M836.138 138.205L839.022 139.926C839.107 139.975 839.178 140.045 839.227 140.13C839.276 140.215 839.302 140.311 839.302 140.41C839.302 140.508 839.276 140.604 839.227 140.689C839.178 140.774 839.107 140.844 839.022 140.893L835.953 142.429C835.86 142.478 835.783 142.551 835.728 142.64L833.929 145.567C833.881 145.652 833.81 145.723 833.726 145.772C833.641 145.821 833.545 145.847 833.447 145.847C833.348 145.847 833.252 145.821 833.167 145.772C833.082 145.723 833.012 145.652 832.964 145.567L831.443 142.508C831.398 142.412 831.324 142.333 831.231 142.283L828.348 140.562C828.259 140.514 828.185 140.444 828.134 140.357C828.082 140.271 828.055 140.172 828.055 140.072C828.055 139.971 828.082 139.873 828.134 139.787C828.185 139.7 828.259 139.63 828.348 139.582L831.416 138.059C831.51 138.006 831.587 137.928 831.641 137.834L833.427 134.922C833.474 134.833 833.545 134.759 833.631 134.707C833.717 134.656 833.816 134.629 833.916 134.629C834.016 134.629 834.115 134.656 834.201 134.707C834.287 134.759 834.358 134.833 834.405 134.922L835.874 137.94C835.897 138 835.932 138.055 835.978 138.101C836.023 138.146 836.078 138.182 836.138 138.205Z"
       fill="#E0E0E0"
       id="path58" />
  </g>
  <g
     id="g896"
     transform="translate(-976.14371,238.17674)">
    <g
       id="g639"
       transform="translate(1105.7352,-147.50595)">
      <path
         d="m 648.829,70.57 1.323,0.8606 c 0.042,0.0209 0.077,0.053 0.101,0.0928 0.025,0.0397 0.038,0.0856 0.038,0.1323 0,0.0468 -0.013,0.0926 -0.038,0.1323 -0.024,0.0398 -0.059,0.0719 -0.101,0.0928 l -1.402,0.6752 c -0.047,0.0213 -0.085,0.0589 -0.106,0.1059 l -0.794,1.324 c -0.022,0.0414 -0.056,0.0759 -0.097,0.1 -0.04,0.024 -0.087,0.0367 -0.134,0.0367 -0.047,0 -0.094,-0.0127 -0.134,-0.0367 -0.041,-0.0241 -0.075,-0.0586 -0.098,-0.1 l -0.727,-1.4431 c -0.024,-0.0448 -0.061,-0.0816 -0.106,-0.1059 l -1.322,-0.8606 c -0.042,-0.0209 -0.077,-0.053 -0.102,-0.0928 -0.024,-0.0397 -0.037,-0.0856 -0.037,-0.1323 0,-0.0468 0.013,-0.0926 0.037,-0.1323 0.025,-0.0398 0.06,-0.0719 0.102,-0.0928 l 1.415,-0.6752 c 0.045,-0.0244 0.081,-0.0612 0.106,-0.106 l 0.793,-1.324 c 0.021,-0.0418 0.053,-0.077 0.093,-0.1016 0.04,-0.0245 0.085,-0.0376 0.132,-0.0376 0.047,0 0.093,0.0131 0.132,0.0376 0.04,0.0246 0.072,0.0598 0.093,0.1016 l 0.741,1.4432 c 0.019,0.0438 0.051,0.0808 0.092,0.1059 z"
         fill="#cb9eff"
         id="path293" />
      <path
         d="m 649.914,270.706 1.322,0.86 c 0.042,0.021 0.077,0.053 0.102,0.093 0.025,0.04 0.037,0.086 0.037,0.133 0,0.046 -0.012,0.092 -0.037,0.132 -0.025,0.04 -0.06,0.072 -0.102,0.093 l -1.402,0.675 c -0.047,0.02 -0.085,0.058 -0.105,0.106 l -0.794,1.324 c -0.023,0.041 -0.056,0.076 -0.097,0.1 -0.041,0.024 -0.087,0.036 -0.134,0.036 -0.048,0 -0.094,-0.012 -0.135,-0.036 -0.041,-0.024 -0.074,-0.059 -0.097,-0.1 l -0.727,-1.443 c -0.029,-0.042 -0.065,-0.078 -0.106,-0.106 l -1.323,-0.848 c -0.041,-0.023 -0.076,-0.056 -0.1,-0.097 -0.024,-0.041 -0.036,-0.087 -0.036,-0.134 0,-0.048 0.012,-0.094 0.036,-0.135 0.024,-0.041 0.059,-0.074 0.1,-0.097 l 1.415,-0.675 c 0.041,-0.024 0.077,-0.055 0.106,-0.093 l 0.781,-1.324 c 0.022,-0.041 0.056,-0.076 0.097,-0.1 0.04,-0.024 0.087,-0.037 0.134,-0.037 0.047,0 0.094,0.013 0.134,0.037 0.041,0.024 0.075,0.059 0.098,0.1 l 0.727,1.443 c 0.029,0.037 0.065,0.069 0.106,0.093 z"
         fill="#cb9eff"
         id="path295" />
      <path
         d="m 704.844,178.992 2.645,1.589 c 0.08,0.045 0.147,0.11 0.193,0.19 0.046,0.079 0.071,0.169 0.071,0.26 0,0.092 -0.025,0.182 -0.071,0.261 -0.046,0.079 -0.113,0.145 -0.193,0.19 l -2.79,1.416 c -0.093,0.044 -0.17,0.113 -0.225,0.199 l -1.64,2.648 c -0.045,0.08 -0.111,0.146 -0.19,0.193 -0.079,0.046 -0.169,0.07 -0.26,0.07 -0.092,0 -0.182,-0.024 -0.261,-0.07 -0.079,-0.047 -0.144,-0.113 -0.189,-0.193 l -1.323,-2.781 c -0.039,-0.087 -0.103,-0.161 -0.185,-0.211 l -2.645,-1.589 c -0.08,-0.045 -0.146,-0.111 -0.193,-0.19 -0.046,-0.079 -0.07,-0.169 -0.07,-0.26 0,-0.092 0.024,-0.182 0.07,-0.261 0.047,-0.079 0.113,-0.145 0.193,-0.19 l 2.83,-1.416 c 0.092,-0.04 0.166,-0.11 0.212,-0.199 L 702.476,176 c 0.045,-0.08 0.111,-0.146 0.19,-0.193 0.079,-0.046 0.169,-0.07 0.26,-0.07 0.092,0 0.182,0.024 0.261,0.07 0.079,0.047 0.144,0.113 0.189,0.193 l 1.323,2.794 c 0.027,0.079 0.077,0.149 0.145,0.198 z"
         fill="#cb9eff"
         id="path297" />
      <path
         d="m 634.068,85.5577 2.645,1.655 c 0.081,0.043 0.148,0.107 0.194,0.1851 0.047,0.0781 0.072,0.1674 0.072,0.2585 0,0.091 -0.025,0.1804 -0.072,0.2585 -0.046,0.0781 -0.113,0.142 -0.194,0.185 l -2.737,1.324 c -0.086,0.0482 -0.159,0.1163 -0.212,0.1986 l -1.534,2.648 c -0.045,0.0799 -0.11,0.1464 -0.19,0.1927 -0.079,0.0463 -0.168,0.0707 -0.26,0.0707 -0.092,0 -0.182,-0.0244 -0.261,-0.0707 -0.079,-0.0463 -0.144,-0.1128 -0.189,-0.1927 l -1.415,-2.8201 c -0.048,-0.0856 -0.116,-0.1583 -0.198,-0.2119 l -2.646,-1.655 c -0.08,-0.0449 -0.146,-0.1102 -0.192,-0.1893 -0.047,-0.0791 -0.071,-0.1691 -0.071,-0.2608 0,-0.0917 0.024,-0.1817 0.071,-0.2608 0.046,-0.0791 0.112,-0.1445 0.192,-0.1894 l 2.751,-1.324 c 0.084,-0.0398 0.153,-0.1046 0.199,-0.1853 l 1.547,-2.648 c 0.043,-0.0803 0.107,-0.1474 0.185,-0.1942 0.078,-0.0468 0.167,-0.0715 0.258,-0.0715 0.091,0 0.181,0.0247 0.259,0.0715 0.078,0.0468 0.142,0.1139 0.185,0.1942 l 1.428,2.8068 c 0.039,0.0913 0.103,0.1695 0.185,0.2251 z"
         fill="#cb9eff"
         id="path299" />
      <path
         d="m 5.69568,163.435 2.02369,1.324 c 0.06077,0.033 0.11151,0.082 0.14687,0.142 0.03536,0.059 0.05403,0.127 0.05403,0.196 0,0.069 -0.01867,0.137 -0.05403,0.197 -0.03536,0.059 -0.0861,0.108 -0.14687,0.141 l -2.10304,0.979 c -0.06766,0.03 -0.12353,0.081 -0.15873,0.146 l -1.20362,1.973 c -0.03291,0.061 -0.08162,0.111 -0.14099,0.147 -0.05937,0.035 -0.12718,0.054 -0.19628,0.054 -0.06911,0 -0.13693,-0.019 -0.1963,-0.054 -0.05936,-0.036 -0.10808,-0.086 -0.14099,-0.147 L 2.53451,166.388 C 2.49629,166.319 2.44183,166.259 2.3758,166.216 l -2.01046,-1.324 c -0.060441,-0.035 -0.110646,-0.085 -0.145555,-0.146 -0.034908,-0.06 -0.053281,-0.129 -0.053281,-0.198 0,-0.07 0.018373,-0.139 0.053281,-0.199 0.034909,-0.061 0.085114,-0.111 0.145555,-0.146 l 2.08982,-0.966 c 0.06956,-0.027 0.12636,-0.079 0.15872,-0.146 l 1.20362,-1.973 c 0.03291,-0.06 0.08163,-0.111 0.14099,-0.147 0.05937,-0.035 0.1272,-0.054 0.1963,-0.054 0.0691,0 0.13691,0.019 0.19628,0.054 0.05937,0.036 0.10808,0.087 0.14099,0.147 l 1.05814,2.145 c 0.0336,0.069 0.08357,0.128 0.14548,0.172 z"
         fill="#cb9eff"
         id="path301" />
      <path
         d="m 49.5024,209.312 1.9576,1.125 c 0.0583,0.03 0.1072,0.076 0.1413,0.132 0.0341,0.056 0.0522,0.121 0.0522,0.186 0,0.066 -0.0181,0.13 -0.0522,0.186 -0.0341,0.056 -0.083,0.102 -0.1413,0.132 l -1.9311,1.006 c -0.0609,0.035 -0.1112,0.085 -0.1455,0.146 l -1.0317,1.906 c -0.032,0.058 -0.079,0.107 -0.136,0.14 -0.0569,0.034 -0.1219,0.052 -0.188,0.052 -0.0662,0 -0.1311,-0.018 -0.1881,-0.052 -0.057,-0.033 -0.104,-0.082 -0.136,-0.14 L 46.619,212.159 C 46.5896,212.091 46.5384,212.035 46.4735,212 l -1.9443,-1.112 c -0.0583,-0.031 -0.1072,-0.076 -0.1413,-0.132 -0.0342,-0.056 -0.0522,-0.121 -0.0522,-0.186 0,-0.066 0.018,-0.13 0.0522,-0.186 0.0341,-0.056 0.083,-0.102 0.1413,-0.132 l 1.9311,-1.006 c 0.058,-0.038 0.1075,-0.088 0.1455,-0.146 l 1.0317,-1.906 c 0.03,-0.059 0.0755,-0.108 0.1315,-0.142 0.056,-0.034 0.1203,-0.052 0.1859,-0.052 0.0656,0 0.1299,0.018 0.1859,0.052 0.056,0.034 0.1015,0.083 0.1316,0.142 l 1.0845,1.972 c 0.0344,0.061 0.0847,0.112 0.1455,0.146 z"
         fill="#cb9eff"
         id="path303" />
      <path
         d="m 108.096,57.4624 1.958,1.1254 c 0.055,0.033 0.1,0.0796 0.132,0.1353 0.031,0.0556 0.048,0.1185 0.048,0.1825 0,0.064 -0.017,0.1269 -0.048,0.1825 -0.032,0.0557 -0.077,0.1023 -0.132,0.1353 l -1.931,1.0062 c -0.062,0.0259 -0.114,0.0727 -0.146,0.1324 l -1.045,1.9198 c -0.03,0.0583 -0.075,0.1073 -0.131,0.1414 -0.056,0.0342 -0.12,0.0523 -0.186,0.0523 -0.066,0 -0.13,-0.0181 -0.186,-0.0523 -0.056,-0.0341 -0.101,-0.0831 -0.131,-0.1414 l -1.085,-1.986 c -0.034,-0.0609 -0.085,-0.1113 -0.145,-0.1457 L 103.11,59.038 c -0.058,-0.0321 -0.106,-0.0791 -0.14,-0.1361 -0.033,-0.0571 -0.051,-0.1221 -0.051,-0.1883 0,-0.0662 0.018,-0.1312 0.051,-0.1883 0.034,-0.057 0.082,-0.104 0.14,-0.1361 l 1.931,-1.0062 c 0.056,-0.0298 0.103,-0.076 0.132,-0.1324 l 1.045,-1.9198 c 0.03,-0.0584 0.076,-0.1073 0.132,-0.1415 0.056,-0.0341 0.12,-0.0522 0.186,-0.0522 0.065,0 0.13,0.0181 0.186,0.0522 0.056,0.0342 0.101,0.0831 0.131,0.1415 l 1.085,1.9728 c 0.044,0.0605 0.098,0.1141 0.158,0.1588 z"
         fill="#cb9eff"
         id="path305" />
      <path
         d="m 260.124,25.276 1.957,1.1254 c 0.059,0.0301 0.108,0.0756 0.142,0.1317 0.034,0.056 0.052,0.1204 0.052,0.1861 0,0.0656 -0.018,0.13 -0.052,0.186 -0.034,0.0561 -0.083,0.1017 -0.142,0.1317 l -1.931,1.0063 c -0.032,0.0133 -0.062,0.033 -0.087,0.058 -0.025,0.0251 -0.045,0.0548 -0.058,0.0876 l -1.045,1.9066 c -0.03,0.0583 -0.076,0.1073 -0.132,0.1414 -0.056,0.0342 -0.12,0.0523 -0.186,0.0523 -0.065,0 -0.129,-0.0181 -0.185,-0.0523 -0.056,-0.0341 -0.102,-0.0831 -0.132,-0.1414 l -1.085,-1.9728 c -0.029,-0.0677 -0.08,-0.1236 -0.145,-0.1589 l -1.958,-1.1121 c -0.058,-0.0301 -0.107,-0.0757 -0.141,-0.1317 -0.034,-0.0561 -0.052,-0.1205 -0.052,-0.1861 0,-0.0656 0.018,-0.13 0.052,-0.1861 0.034,-0.056 0.083,-0.1016 0.141,-0.1316 l 1.931,-1.0063 c 0.058,-0.038 0.108,-0.0876 0.146,-0.1456 l 1.032,-1.9198 c 0.033,-0.0549 0.079,-0.1003 0.135,-0.1318 0.055,-0.0315 0.118,-0.048 0.182,-0.048 0.064,0 0.127,0.0165 0.182,0.048 0.056,0.0315 0.103,0.0769 0.136,0.1318 l 1.084,1.9727 c 0.036,0.0676 0.091,0.123 0.159,0.1589 z"
         fill="#cb9eff"
         id="path307" />
      <path
         d="m 35.2176,216.62 3.8754,2.225 c 0.1267,0.058 0.234,0.151 0.3092,0.269 0.0752,0.117 0.1152,0.253 0.1152,0.393 0,0.139 -0.04,0.276 -0.1152,0.393 -0.0752,0.117 -0.1825,0.211 -0.3092,0.269 l -3.8225,1.999 c -0.1235,0.06 -0.2252,0.157 -0.291,0.278 l -2.0633,3.8 c -0.0536,0.132 -0.1452,0.244 -0.2629,0.323 -0.1178,0.08 -0.2565,0.122 -0.3985,0.122 -0.1419,0 -0.2806,-0.042 -0.3984,-0.122 -0.1177,-0.079 -0.2093,-0.191 -0.2629,-0.323 l -2.1559,-3.972 c -0.0684,-0.126 -0.1688,-0.231 -0.291,-0.305 l -3.8887,-2.224 c -0.1314,-0.054 -0.2438,-0.145 -0.323,-0.263 -0.0791,-0.118 -0.1214,-0.257 -0.1214,-0.399 0,-0.142 0.0423,-0.281 0.1214,-0.399 0.0792,-0.118 0.1916,-0.209 0.323,-0.263 l 3.8358,-1.999 c 0.1171,-0.064 0.2135,-0.161 0.2777,-0.278 l 2.0634,-3.8 c 0.058,-0.127 0.1512,-0.234 0.2684,-0.31 0.1173,-0.075 0.2536,-0.115 0.3929,-0.115 0.1393,0 0.2757,0.04 0.3929,0.115 0.1173,0.076 0.2104,0.183 0.2685,0.31 l 2.1559,3.972 c 0.0703,0.128 0.1759,0.234 0.3042,0.304 z"
         fill="#cb9eff"
         id="path309" />
      <path
         d="m 236.305,4.96585 3.875,2.22431 c 0.113,0.0613 0.208,0.15213 0.274,0.26283 0.066,0.11071 0.101,0.23719 0.101,0.36608 0,0.12888 -0.035,0.25536 -0.101,0.36607 -0.066,0.11071 -0.161,0.20151 -0.274,0.26281 l -3.822,1.99925 c -0.121,0.064 -0.222,0.1603 -0.291,0.278 l -2.064,3.7999 c -0.061,0.1134 -0.152,0.2081 -0.262,0.2741 -0.111,0.066 -0.237,0.1008 -0.366,0.1008 -0.129,0 -0.255,-0.0348 -0.366,-0.1008 -0.11,-0.066 -0.201,-0.1607 -0.262,-0.2741 l -2.156,-3.972 c -0.069,-0.1218 -0.169,-0.2225 -0.291,-0.2913 L 226.424,8.064 C 226.298,8.00591 226.19,7.91266 226.115,7.79531 226.04,7.67796 226,7.54144 226,7.402 c 0,-0.13943 0.04,-0.27595 0.115,-0.3933 0.075,-0.11735 0.183,-0.21061 0.309,-0.2687 l 3.836,-1.99923 c 0.12,-0.06019 0.218,-0.15775 0.278,-0.27805 l 2.063,-3.799872 c 0.058,-0.126762 0.151,-0.234195 0.269,-0.309505 0.117,-0.075309 0.253,-0.115336 0.393,-0.115336 0.139,0 0.275,0.040027 0.393,0.115336 0.117,0.07531 0.21,0.182743 0.268,0.309505 l 2.156,3.972002 c 0.046,0.12747 0.123,0.2413 0.225,0.331 z"
         fill="#cb9eff"
         id="path311" />
      <path
         d="m 232.083,382.756 3.876,2.224 c 0.113,0.062 0.207,0.152 0.273,0.263 0.066,0.111 0.101,0.237 0.101,0.366 0,0.129 -0.035,0.256 -0.101,0.366 -0.066,0.111 -0.16,0.202 -0.273,0.263 l -3.836,1.999 c -0.12,0.061 -0.218,0.158 -0.278,0.278 l -1.984,3.8 c -0.058,0.127 -0.151,0.234 -0.268,0.31 -0.118,0.075 -0.254,0.115 -0.393,0.115 -0.139,0 -0.276,-0.04 -0.393,-0.115 -0.117,-0.076 -0.21,-0.183 -0.269,-0.31 l -2.155,-3.972 c -0.069,-0.122 -0.17,-0.222 -0.291,-0.291 l -3.876,-2.224 c -0.126,-0.058 -0.234,-0.152 -0.309,-0.269 -0.075,-0.117 -0.115,-0.254 -0.115,-0.393 0,-0.14 0.04,-0.276 0.115,-0.394 0.075,-0.117 0.183,-0.21 0.309,-0.268 l 3.836,-2 c 0.123,-0.06 0.225,-0.157 0.291,-0.278 l 2.063,-3.799 c 0.061,-0.114 0.152,-0.209 0.263,-0.275 0.11,-0.066 0.237,-0.1 0.365,-0.1 0.129,0 0.256,0.034 0.366,0.1 0.111,0.066 0.202,0.161 0.263,0.275 l 2.156,3.972 c 0.053,0.141 0.144,0.265 0.264,0.357 z"
         fill="#cb9eff"
         id="path313" />
      <path
         d="m 593.158,313.723 3.875,2.224 c 0.127,0.058 0.234,0.151 0.31,0.269 0.075,0.117 0.115,0.254 0.115,0.393 0,0.139 -0.04,0.276 -0.115,0.393 -0.076,0.118 -0.183,0.211 -0.31,0.269 l -3.809,1.933 c -0.121,0.064 -0.221,0.16 -0.291,0.278 l -2.063,3.8 c -0.054,0.131 -0.145,0.244 -0.263,0.323 -0.118,0.079 -0.257,0.122 -0.399,0.122 -0.141,0 -0.28,-0.043 -0.398,-0.122 -0.118,-0.079 -0.209,-0.192 -0.263,-0.323 l -2.156,-3.972 c -0.069,-0.122 -0.169,-0.223 -0.291,-0.291 l -3.888,-2.225 c -0.127,-0.058 -0.234,-0.151 -0.31,-0.268 -0.075,-0.118 -0.115,-0.254 -0.115,-0.394 0,-0.139 0.04,-0.276 0.115,-0.393 0.076,-0.117 0.183,-0.211 0.31,-0.269 l 3.835,-1.999 c 0.12,-0.06 0.218,-0.158 0.278,-0.278 l 2.063,-3.8 c 0.058,-0.127 0.152,-0.234 0.269,-0.309 0.117,-0.076 0.253,-0.116 0.393,-0.116 0.139,0 0.275,0.04 0.393,0.116 0.117,0.075 0.21,0.182 0.268,0.309 l 2.156,3.972 c 0.053,0.149 0.156,0.275 0.291,0.358 z"
         fill="#cb9eff"
         id="path315" />
      <path
         d="m 539.788,26.1896 2.527,1.4564 c 0.075,0.0392 0.137,0.0982 0.181,0.1706 0.044,0.0723 0.067,0.1553 0.067,0.2398 0,0.0846 -0.023,0.1675 -0.067,0.2399 -0.044,0.0723 -0.106,0.1313 -0.181,0.1706 l -2.5,1.324 c -0.077,0.0443 -0.141,0.1082 -0.185,0.1853 l -1.323,2.4759 c -0.041,0.0745 -0.101,0.1366 -0.175,0.1798 -0.073,0.0433 -0.156,0.0661 -0.242,0.0661 -0.085,0 -0.168,-0.0228 -0.241,-0.0661 -0.074,-0.0432 -0.134,-0.1053 -0.175,-0.1798 l -1.402,-2.5553 c -0.041,-0.0798 -0.106,-0.1447 -0.185,-0.1854 L 533.36,28.255 c -0.075,-0.0392 -0.137,-0.0982 -0.181,-0.1706 -0.044,-0.0723 -0.067,-0.1553 -0.067,-0.2398 0,-0.0846 0.023,-0.1675 0.067,-0.2399 0.044,-0.0723 0.106,-0.1313 0.181,-0.1706 l 2.5,-1.324 c 0.08,-0.0406 0.145,-0.1055 0.185,-0.1853 l 1.323,-2.4759 c 0.041,-0.0745 0.102,-0.1366 0.175,-0.1798 0.073,-0.0433 0.157,-0.0661 0.242,-0.0661 0.085,0 0.168,0.0228 0.241,0.0661 0.074,0.0432 0.134,0.1053 0.175,0.1798 l 1.402,2.5553 c 0.041,0.0798 0.106,0.1447 0.185,0.1854 z"
         fill="#cb9eff"
         id="path317" />
    </g>
  </g>
</svg>
