<svg width="52" height="56" viewBox="0 0 52 56" fill="none" xmlns="http://www.w3.org/2000/svg">
<g opacity="0.9">
<path d="M48.063 11.716L42.4318 8.49048L29.5757 1.12957L29.1758 0.899599C27.0682 -0.299866 24.4844 -0.299866 22.3768 0.899599L21.9769 1.13156L3.89954 11.486L3.49959 11.718C1.40293 12.9185 0.106779 15.1471 0.100098 17.5631V39.1899C0.107303 41.6063 1.40321 43.8353 3.49959 45.0371L21.9829 55.6215C23.3374 56.3991 25.0655 55.9406 25.8563 54.5937C26.2326 53.9473 26.3346 53.1773 26.1396 52.4553C25.9446 51.7333 25.4689 51.1193 24.8184 50.7502L6.74112 40.3978C6.14042 40.0552 5.76891 39.4175 5.76726 38.726V18.0271C5.76891 17.3356 6.14042 16.6978 6.74112 16.3553L24.7984 5.99485C25.3998 5.65282 26.1368 5.65282 26.7382 5.99485L44.8215 16.3513C45.4194 16.6951 45.789 17.3313 45.7913 18.0211V38.734C45.7897 39.4255 45.4182 40.0632 44.8175 40.4058L38.7004 43.9092L35.6128 39.2539C38.7258 36.4967 40.5086 32.538 40.5101 28.3795C40.5101 20.3147 33.8971 13.7537 25.7663 13.7537C17.6355 13.7537 11.0225 20.3147 11.0225 28.3795C11.0225 36.4443 17.6355 43.0054 25.7663 43.0054C27.4625 43.0068 29.1462 42.7159 30.7436 42.1455L35.4329 49.2165C35.5061 49.3243 35.5855 49.4278 35.6708 49.5264L35.7208 49.5764C35.8198 49.6832 35.9275 49.7815 36.0428 49.8704C36.0708 49.8924 36.0968 49.9163 36.1268 49.9383C36.2536 50.0298 36.3873 50.1113 36.5267 50.1823L36.6227 50.2243C36.7474 50.2801 36.8756 50.3276 37.0066 50.3663L37.0946 50.3943C37.2435 50.432 37.3954 50.4568 37.5486 50.4683H37.6745C37.7185 50.4683 37.7605 50.4683 37.8045 50.4683C37.8905 50.4683 37.9765 50.4583 38.0605 50.4503C38.1005 50.4503 38.1385 50.4503 38.1785 50.4503C38.3399 50.4281 38.4992 50.392 38.6544 50.3423C38.6964 50.3303 38.7364 50.3123 38.7784 50.2963C38.9019 50.2513 39.0221 50.1978 39.1383 50.1363C39.1643 50.1223 39.1943 50.1143 39.2203 50.0983L48.063 45.0451C50.1615 43.8416 51.4577 41.6091 51.4625 39.1899V17.5611C51.4558 15.1451 50.1597 12.9165 48.063 11.716ZM16.6916 28.3795C16.6608 24.7024 18.8522 21.3702 22.2406 19.9417C25.629 18.5131 29.5446 19.2706 32.1557 21.8599C34.7668 24.4491 35.5572 28.3582 34.1572 31.7585C32.7572 35.1588 29.4435 37.3782 25.7663 37.3782C20.7782 37.3926 16.7192 33.3676 16.6916 28.3795Z" fill="url(#paint0_linear_1276_4346)"/>
<path d="M48.063 11.716L42.4318 8.49048L29.5757 1.12957L29.1758 0.899599C27.0682 -0.299866 24.4844 -0.299866 22.3768 0.899599L21.9769 1.13156L3.89954 11.486L3.49959 11.718C1.40293 12.9185 0.106779 15.1471 0.100098 17.5631V39.1899C0.107303 41.6063 1.40321 43.8353 3.49959 45.0371L21.9829 55.6215C23.3374 56.3991 25.0655 55.9406 25.8563 54.5937C26.2326 53.9473 26.3346 53.1773 26.1396 52.4553C25.9446 51.7333 25.4689 51.1193 24.8184 50.7502L6.74112 40.3978C6.14042 40.0552 5.76891 39.4175 5.76726 38.726V18.0271C5.76891 17.3356 6.14042 16.6978 6.74112 16.3553L24.7984 5.99485C25.3998 5.65282 26.1368 5.65282 26.7382 5.99485L44.8215 16.3513C45.4194 16.6951 45.789 17.3313 45.7913 18.0211V38.734C45.7897 39.4255 45.4182 40.0632 44.8175 40.4058L38.7004 43.9092L35.6128 39.2539C38.7258 36.4967 40.5086 32.538 40.5101 28.3795C40.5101 20.3147 33.8971 13.7537 25.7663 13.7537C17.6355 13.7537 11.0225 20.3147 11.0225 28.3795C11.0225 36.4443 17.6355 43.0054 25.7663 43.0054C27.4625 43.0068 29.1462 42.7159 30.7436 42.1455L35.4329 49.2165C35.5061 49.3243 35.5855 49.4278 35.6708 49.5264L35.7208 49.5764C35.8198 49.6832 35.9275 49.7815 36.0428 49.8704C36.0708 49.8924 36.0968 49.9163 36.1268 49.9383C36.2536 50.0298 36.3873 50.1113 36.5267 50.1823L36.6227 50.2243C36.7474 50.2801 36.8756 50.3276 37.0066 50.3663L37.0946 50.3943C37.2435 50.432 37.3954 50.4568 37.5486 50.4683H37.6745C37.7185 50.4683 37.7605 50.4683 37.8045 50.4683C37.8905 50.4683 37.9765 50.4583 38.0605 50.4503C38.1005 50.4503 38.1385 50.4503 38.1785 50.4503C38.3399 50.4281 38.4992 50.392 38.6544 50.3423C38.6964 50.3303 38.7364 50.3123 38.7784 50.2963C38.9019 50.2513 39.0221 50.1978 39.1383 50.1363C39.1643 50.1223 39.1943 50.1143 39.2203 50.0983L48.063 45.0451C50.1615 43.8416 51.4577 41.6091 51.4625 39.1899V17.5611C51.4558 15.1451 50.1597 12.9165 48.063 11.716ZM16.6916 28.3795C16.6608 24.7024 18.8522 21.3702 22.2406 19.9417C25.629 18.5131 29.5446 19.2706 32.1557 21.8599C34.7668 24.4491 35.5572 28.3582 34.1572 31.7585C32.7572 35.1588 29.4435 37.3782 25.7663 37.3782C20.7782 37.3926 16.7192 33.3676 16.6916 28.3795Z" fill="url(#paint1_linear_1276_4346)"/>
<path d="M48.063 11.716L42.4318 8.49048L34.577 3.99508C32.7716 2.9638 30.5634 2.93058 28.7278 3.90709L24.7984 5.99485C25.3998 5.65282 26.1368 5.65282 26.7382 5.99485L44.8215 16.3513C45.4194 16.6951 45.789 17.3313 45.7913 18.0211V38.734C45.7897 39.4255 45.4182 40.0632 44.8175 40.4058L38.7004 43.9092L39.6542 45.435C40.7962 47.2552 43.1725 47.8477 45.0354 46.7767L48.063 45.0451C50.1649 43.8449 51.4625 41.6103 51.4625 39.1899V17.5611C51.4595 15.1441 50.1624 12.9138 48.063 11.716Z" fill="url(#paint2_linear_1276_4346)"/>
<path d="M45.7913 18.027V28.0755H51.4625L51.4625 17.5611C51.4595 15.1441 50.1624 12.9138 48.063 11.716L42.4318 8.49048L34.577 3.99508C32.7716 2.9638 30.5634 2.93058 28.7278 3.90709L24.7984 5.99485C25.3998 5.65282 26.1368 5.65282 26.7382 5.99485L44.8215 16.3513C45.4213 16.6962 45.7911 17.3351 45.7913 18.027Z" fill="url(#paint3_linear_1276_4346)"/>
<path d="M45.7914 29.6934L45.7913 38.734C45.7897 39.4255 45.4182 40.0632 44.8175 40.4058L38.7004 43.9092L39.6542 45.435C40.7962 47.2552 43.1725 47.8477 45.0354 46.7767L48.063 45.0451C50.1649 43.8449 51.4625 41.6103 51.4625 39.1899L51.4625 29.6934H45.7914Z" fill="url(#paint4_linear_1276_4346)"/>
<path d="M38.2644 43.2533L35.6108 39.2539C34.1895 40.523 32.536 41.5049 30.7415 42.1455L33.5631 46.4029C35.1562 45.387 36.7233 44.3372 38.2644 43.2533Z" fill="url(#paint5_linear_1276_4346)"/>
</g>
<defs>
<linearGradient id="paint0_linear_1276_4346" x1="36.0857" y1="7.13868" x2="10.8757" y2="50.8011" gradientUnits="userSpaceOnUse">
<stop stop-color="#FF980E"/>
<stop offset="0.21" stop-color="#FF7139"/>
<stop offset="0.36" stop-color="#FF5854"/>
<stop offset="0.46" stop-color="#FF4F5E"/>
<stop offset="0.69" stop-color="#FF3750"/>
<stop offset="0.86" stop-color="#F92261"/>
<stop offset="1" stop-color="#F5156C"/>
</linearGradient>
<linearGradient id="paint1_linear_1276_4346" x1="36.0857" y1="7.13868" x2="10.8757" y2="50.8011" gradientUnits="userSpaceOnUse">
<stop stop-color="#FFF44F" stop-opacity="0.8"/>
<stop offset="0.09" stop-color="#FFF44F" stop-opacity="0.7"/>
<stop offset="0.75" stop-color="#FFF44F" stop-opacity="0"/>
</linearGradient>
<linearGradient id="paint2_linear_1276_4346" x1="25.7813" y1="69.3522" x2="25.7813" y2="0.677455" gradientUnits="userSpaceOnUse">
<stop stop-color="#3A8EE6"/>
<stop offset="0.24" stop-color="#5C79F0"/>
<stop offset="0.63" stop-color="#9059FF"/>
<stop offset="1" stop-color="#C139E6"/>
</linearGradient>
<linearGradient id="paint3_linear_1276_4346" x1="8.06601" y1="0.760419" x2="58.0652" y2="43.5473" gradientUnits="userSpaceOnUse">
<stop stop-color="#6E008B" stop-opacity="0.5"/>
<stop offset="0.5" stop-color="#C846CB" stop-opacity="0"/>
</linearGradient>
<linearGradient id="paint4_linear_1276_4346" x1="42.7529" y1="5.25712" x2="10.1029" y2="46.5931" gradientUnits="userSpaceOnUse">
<stop offset="0.14" stop-color="#6A2BEA" stop-opacity="0"/>
<stop offset="0.34" stop-color="#642DE4" stop-opacity="0.03"/>
<stop offset="0.55" stop-color="#5131D3" stop-opacity="0.12"/>
<stop offset="0.76" stop-color="#3139B7" stop-opacity="0.27"/>
<stop offset="0.98" stop-color="#054490" stop-opacity="0.48"/>
<stop offset="1" stop-color="#00458B" stop-opacity="0.5"/>
</linearGradient>
<linearGradient id="paint5_linear_1276_4346" x1="32.3593" y1="40.4276" x2="35.4201" y2="44.0768" gradientUnits="userSpaceOnUse">
<stop stop-color="#960E18" stop-opacity="0.6"/>
<stop offset="0.19" stop-color="#AC1624" stop-opacity="0.48"/>
<stop offset="0.58" stop-color="#E42C41" stop-opacity="0.16"/>
<stop offset="0.75" stop-color="#FF3750" stop-opacity="0"/>
</linearGradient>
</defs>
</svg>
