<svg width="114" height="54" viewBox="0 0 114 54" fill="none" xmlns="http://www.w3.org/2000/svg">
<g id="Group 2035">
<g id="Vector">
<path fill-rule="evenodd" clip-rule="evenodd" d="M0.371094 20.3332C0.371094 19.4127 1.12558 18.6665 2.05628 18.6665H39.1304C40.0611 18.6665 40.8155 19.4127 40.8155 20.3332C40.8155 21.2536 40.0611 21.9998 39.1304 21.9998H2.05628C1.12558 21.9998 0.371094 21.2536 0.371094 20.3332Z" fill="#3AD4B3"/>
<path fill-rule="evenodd" clip-rule="evenodd" d="M15.5378 30.3332C15.5378 29.4127 16.2922 28.6665 17.2229 28.6665L39.1304 28.6665C40.0611 28.6665 40.8155 29.4127 40.8155 30.3332C40.8155 31.2536 40.0611 31.9998 39.1304 31.9998L17.2229 31.9998C16.2922 31.9998 15.5378 31.2536 15.5378 30.3332Z" fill="#3AD4B3"/>
</g>
<path id="Union" fill-rule="evenodd" clip-rule="evenodd" d="M55.7044 7.01108C55.796 7.00369 55.8886 6.99992 55.9822 6.99992H103.167C103.261 6.99992 103.354 7.00369 103.445 7.01108L85.5328 24.7267C82.2423 27.981 76.9073 27.981 73.6168 24.7267L55.7044 7.01108ZM52.6118 13.3806V43.6666C52.6118 45.5075 54.1208 46.9999 55.9822 46.9999H103.167C105.029 46.9999 106.538 45.5075 106.538 43.6666V13.3806L90.2993 29.4407C84.3763 35.2986 74.7733 35.2986 68.8504 29.4407L52.6118 13.3806ZM55.9822 0.333252C50.398 0.333252 45.8711 4.8104 45.8711 10.3333V43.6666C45.8711 49.1894 50.398 53.6666 55.9822 53.6666H103.167C108.752 53.6666 113.279 49.1894 113.279 43.6666V10.3333C113.279 4.8104 108.752 0.333252 103.167 0.333252H55.9822Z" fill="url(#paint0_radial_1182_11893)"/>
</g>
<defs>
<radialGradient id="paint0_radial_1182_11893" cx="0" cy="0" r="1" gradientUnits="userSpaceOnUse" gradientTransform="translate(113.279 0.333252) rotate(-38.3514) scale(85.9547 83.6502)">
<stop stop-color="#B833E1"/>
<stop offset="0.371" stop-color="#9059FF"/>
<stop offset="0.614" stop-color="#5B6DF8"/>
<stop offset="1" stop-color="#0090ED"/>
</radialGradient>
</defs>
</svg>
