<svg width="234" height="200" viewBox="0 0 234 200" fill="none" xmlns="http://www.w3.org/2000/svg">
<path opacity="0.5" fill-rule="evenodd" clip-rule="evenodd" d="M104.651 19.0746C136.083 17.2514 163.796 41.7631 181.904 67.7772C198.576 91.7293 205.106 122.5 195.339 150.068C186.584 174.776 160.896 184.541 136.56 193.732C115.769 201.585 93.9699 201.965 72.7426 195.412C44.8215 186.792 10.1505 180.125 2.20772 151.747C-5.88464 122.835 20.8161 99.8303 39.1545 76.1742C57.8239 52.0913 74.4185 20.8283 104.651 19.0746Z" fill="#D9BFFF"/>
<path d="M104.609 36.7762C104.674 38.4252 104.611 39.5677 104.609 42.5057C104.608 42.7626 104.609 42.2484 104.609 42.5057C104.607 44.8448 104.555 46.735 104.609 48.2351C104.636 48.9802 105.277 49.6945 106.014 49.6674C106.751 49.6404 107.446 48.9802 107.42 48.2351C107.367 46.777 107.418 44.8137 107.42 42.5057C107.419 42.7625 107.42 42.2491 107.42 42.5057C107.422 39.5316 107.486 38.4735 107.42 36.7762C107.39 36.0313 106.751 35.3145 106.014 35.3439C105.277 35.3734 104.579 36.0313 104.609 36.7762Z" fill="#8829D2"/>
<path d="M102.129 43.9255C102.828 43.9642 103.827 43.8962 104.857 43.9255C104.617 43.9189 104.989 43.9293 104.857 43.9255C106.975 43.9843 107.827 43.8223 108.948 43.9255C109.618 43.9872 110.251 43.2065 110.311 42.5185C110.371 41.8306 109.618 41.1732 108.948 41.1115C107.759 41.002 107.026 41.1717 104.857 41.1115C104.618 41.1049 104.989 41.1152 104.857 41.1115C103.847 41.0827 102.802 41.1487 102.129 41.1115C101.458 41.0743 100.802 41.8288 100.766 42.5185C100.729 43.2082 101.458 43.8883 102.129 43.9255Z" fill="#8829D2"/>
<path d="M169.108 126.102C170.256 126.053 170.396 126.055 172.467 126.102C172.791 126.11 173.964 126.098 174.146 126.102C175.788 126.137 176.374 126.156 177.505 126.102C178.367 126.06 179.224 125.328 179.184 124.422C179.145 123.517 178.366 122.702 177.505 122.743C176.458 122.794 175.725 122.776 174.146 122.743C173.966 122.739 172.791 122.751 172.467 122.743C170.332 122.694 170.342 122.69 169.108 122.743C168.247 122.779 167.394 123.516 167.428 124.422C167.463 125.328 168.246 126.138 169.108 126.102Z" fill="#EAF3F3"/>
<path d="M175.825 129.463C175.843 128.669 175.819 127.238 175.825 126.104C175.824 126.453 175.826 125.911 175.825 126.104C175.838 123.473 175.757 122.46 175.825 121.066C175.867 120.208 175.034 119.427 174.146 119.387C173.257 119.346 172.508 120.207 172.467 121.066C172.396 122.519 172.479 123.429 172.467 126.104C172.465 126.453 172.467 125.911 172.467 126.104C172.46 127.222 172.483 128.689 172.467 129.463C172.447 130.322 173.257 131.125 174.146 131.142C175.035 131.161 175.806 130.322 175.825 129.463Z" fill="#EAF3F3"/>
<path d="M179.539 24.1162C179.583 25.0267 179.447 26.0716 179.539 27.475C179.527 27.2771 179.553 27.6732 179.539 27.475C179.766 30.9017 179.539 32.2729 179.539 34.1926C179.539 34.9996 180.435 35.872 181.219 35.872C182.004 35.872 182.898 34.9996 182.898 34.1926C182.898 32.185 183.129 30.9672 182.898 27.475C182.885 27.2772 182.912 27.6727 182.898 27.475C182.807 26.0876 182.942 25.0051 182.898 24.1162C182.858 23.3103 182.002 22.3964 181.219 22.4368C180.436 22.4772 179.5 23.3103 179.539 24.1162Z" fill="#90BFFF"/>
<path d="M177.86 30.8384C179.454 31.0157 180.076 31.0121 182.899 30.8384C183.561 30.7976 184.21 30.8572 184.578 30.8384C185.29 30.8019 185.695 30.8384 186.257 30.8384C187.101 30.8384 187.937 30.0107 187.937 29.159C187.937 28.3072 187.101 27.4796 186.257 27.4796C185.637 27.4796 185.337 27.4407 184.578 27.4796C184.196 27.4991 183.571 27.4382 182.899 27.4796C180.25 27.6425 179.222 27.6311 177.86 27.4796C177.022 27.3863 176.273 28.3124 176.181 29.159C176.089 30.0055 177.022 30.7451 177.86 30.8384Z" fill="#90BFFF"/>
<path d="M66.6962 176.454C66.7403 177.365 66.6032 178.41 66.6962 179.813C66.6834 179.616 66.709 180.012 66.6962 179.813C66.9228 183.24 66.6962 184.611 66.6962 186.531C66.6962 187.337 67.5916 188.21 68.3756 188.21C69.1604 188.21 70.055 187.337 70.055 186.531C70.055 184.523 70.2858 183.305 70.055 179.813C70.0422 179.615 70.0685 180.011 70.055 179.813C69.9641 178.426 70.0983 177.344 70.055 176.454C70.016 175.649 69.1597 174.735 68.3756 174.775C67.5923 174.816 66.6572 175.649 66.6962 176.454Z" fill="#90BFFF"/>
<path d="M65.0167 183.171C66.6091 183.349 67.2321 183.346 70.0549 183.171C70.4435 183.147 71.5168 183.184 71.7343 183.171C72.7267 183.113 72.7145 183.171 73.4137 183.171C74.2565 183.171 75.0931 182.344 75.0931 181.492C75.0931 180.64 74.2565 179.812 73.4137 179.812C72.645 179.812 72.7794 179.752 71.7343 179.812C71.5122 179.825 70.4473 179.788 70.0549 179.812C67.4069 179.975 66.3778 179.964 65.0167 179.812C64.1786 179.719 63.4297 180.645 63.3373 181.492C63.245 182.338 64.1786 183.078 65.0167 183.171Z" fill="#90BFFF"/>
<path fill-rule="evenodd" clip-rule="evenodd" d="M206.551 90.9044C206.669 92.7354 209.751 92.7317 209.91 90.9044C210.279 86.6613 212.075 84.4473 214.948 84.1868C214.707 84.2024 215.177 84.1831 214.948 84.1868C216.856 84.0584 216.861 80.828 214.948 80.828C214.695 80.828 215.192 80.8095 214.948 80.828C211.892 80.8525 210.597 81.0509 209.91 77.4692C209.878 77.3033 209.991 76.2273 209.91 75.7898C209.834 75.3859 209.961 76.0428 209.91 75.7898C209.562 74.0823 206.643 74.0496 206.551 75.7898C206.537 76.0466 206.564 75.3453 206.551 75.7898C206.533 76.3893 206.583 77.1641 206.551 77.4692C206.473 78.2086 206.946 78.4574 206.551 79.1486C205.854 80.3657 203.597 80.8622 201.513 80.828C199.606 80.7976 199.614 84.0161 201.513 84.1868C203.978 84.4087 204.587 85.3222 204.871 85.8662C205.742 87.5621 206.427 88.9903 206.551 90.9044ZM214.948 80.828C214.741 80.8421 215.14 80.8258 214.948 80.828C214.771 80.759 215.176 80.8251 214.948 80.828ZM214.948 84.1868C214.756 84.1868 215.128 84.172 214.948 84.1868C214.787 84.2625 215.159 84.1698 214.948 84.1868ZM206.551 82.5074C207.165 82.0732 207.813 81.4552 208.23 80.828C208.678 81.6288 209.218 82.0243 209.91 82.5074C209.29 83.0633 208.674 85.0884 208.23 85.8662C208.086 85.536 208.395 84.5082 208.23 84.1868C207.951 83.6525 207.068 82.883 206.551 82.5074Z" fill="#8829D2"/>
<path fill-rule="evenodd" clip-rule="evenodd" d="M19.1707 114.749C21.0808 114.622 21.0852 111.39 19.1707 111.39C18.9215 111.39 19.411 111.371 19.1707 111.39C16.0953 111.415 14.8231 111.642 14.1325 108.031C14.1021 107.873 14.2096 106.766 14.1325 106.352C14.0568 105.946 14.1837 106.605 14.1325 106.352C13.7854 104.644 10.8657 104.611 10.7737 106.352C10.7603 106.608 10.7871 105.909 10.7737 106.352C10.7566 106.94 10.8041 107.731 10.7737 108.031C10.6973 108.783 11.1713 109.013 10.7737 109.71C10.0749 110.927 7.81395 111.431 5.7355 111.39C3.82839 111.353 3.83655 114.573 5.7355 114.749C8.20413 114.977 8.8102 115.885 9.0943 116.428C9.96218 118.124 10.6476 119.551 10.7737 121.466C10.8954 123.296 13.973 123.292 14.1325 121.466C14.5019 117.219 16.2919 115.005 19.1707 114.749C19.3962 114.745 18.9341 114.764 19.1707 114.749ZM19.1707 111.39C18.9667 111.403 19.3599 111.387 19.1707 111.39C18.9956 111.323 19.3947 111.387 19.1707 111.39ZM19.1707 114.749C18.9823 114.749 19.348 114.734 19.1707 114.749C19.0112 114.821 19.3777 114.732 19.1707 114.749ZM10.7737 113.069C11.3879 112.635 12.0355 112.018 12.4531 111.39C12.9004 112.191 13.4397 112.587 14.1325 113.069C13.5131 113.626 12.8974 115.649 12.4531 116.428C12.3099 116.098 12.6178 115.069 12.4531 114.749C12.1735 114.213 11.2915 113.445 10.7737 113.069Z" fill="#E9F3F3"/>
<path fill-rule="evenodd" clip-rule="evenodd" d="M148.864 189.241C150.774 189.115 150.779 185.882 148.864 185.882C148.615 185.882 149.105 185.863 148.864 185.882C145.789 185.907 144.517 186.135 143.826 182.523C143.796 182.365 143.903 181.258 143.826 180.844C143.751 180.438 143.877 181.097 143.826 180.844C143.479 179.136 140.559 179.103 140.467 180.844C140.454 181.1 140.481 180.401 140.467 180.844C140.45 181.432 140.498 182.223 140.467 182.523C140.391 183.275 140.865 183.506 140.467 184.203C139.769 185.42 137.508 185.923 135.429 185.882C133.522 185.846 133.53 189.066 135.429 189.241C137.898 189.469 138.504 190.377 138.788 190.92C139.656 192.616 140.341 194.044 140.467 195.958C140.589 197.788 143.667 197.784 143.826 195.958C144.196 191.711 145.986 189.497 148.864 189.241C149.09 189.237 148.628 189.256 148.864 189.241ZM148.864 185.882C148.66 185.895 149.054 185.88 148.864 185.882C148.689 185.815 149.088 185.879 148.864 185.882ZM148.864 189.241C148.676 189.241 149.042 189.227 148.864 189.241C148.705 189.313 149.071 189.224 148.864 189.241ZM140.467 187.561C141.082 187.127 141.729 186.51 142.147 185.882C142.594 186.684 143.133 187.079 143.826 187.561C143.207 188.118 142.591 190.142 142.147 190.92C142.004 190.59 142.311 189.561 142.147 189.241C141.867 188.705 140.985 187.938 140.467 187.561Z" fill="#AF85FF"/>
<path d="M97.2501 27.4724C97.2501 26.6641 96.4986 25.793 95.5707 25.793C94.6437 25.793 93.8913 26.6641 93.8913 27.4724C93.8913 28.2807 94.6437 29.1518 95.5707 29.1518C96.4986 29.1518 97.2501 28.2807 97.2501 27.4724Z" fill="#90BFFF"/>
<path d="M176.704 88.5916C176.704 87.783 175.952 86.9122 175.025 86.9122C174.097 86.9122 173.345 87.783 173.345 88.5916C173.345 89.4002 174.097 90.271 175.025 90.271C175.952 90.271 176.704 89.4002 176.704 88.5916Z" fill="#90BFFF"/>
<path d="M223.205 50.9935C223.205 50.1835 222.452 49.3141 221.525 49.3141C220.597 49.3141 219.846 50.1835 219.846 50.9935C219.846 51.8036 220.597 52.6729 221.525 52.6729C222.452 52.6729 223.205 51.8036 223.205 50.9935Z" fill="#EAF3F3"/>
<path d="M233.28 66.1039C233.28 65.2956 232.528 64.4245 231.601 64.4245C230.673 64.4245 229.922 65.2956 229.922 66.1039C229.922 66.9122 230.673 67.7833 231.601 67.7833C232.528 67.7833 233.28 66.9122 233.28 66.1039Z" fill="#4E6AF0"/>
<path d="M213.128 17.4C213.128 16.5917 212.376 15.7206 211.448 15.7206C210.52 15.7206 209.769 16.5917 209.769 17.4C209.769 18.2084 210.52 19.0794 211.448 19.0794C212.376 19.0794 213.128 18.2084 213.128 17.4Z" fill="#8829D2"/>
<path d="M7.8549 143.03C7.8549 142.22 7.10252 141.351 6.17549 141.351C5.24763 141.351 4.49609 142.22 4.49609 143.03C4.49609 143.84 5.24763 144.71 6.17549 144.71C7.10252 144.71 7.8549 143.84 7.8549 143.03Z" fill="#8829D2"/>
<path d="M60.3025 56.024C60.3025 55.1592 59.551 54.3446 58.6231 54.3446C57.6961 54.3446 56.9437 55.1592 56.9437 56.024C56.9437 56.8888 57.6961 57.7034 58.6231 57.7034C59.551 57.7034 60.3025 56.8888 60.3025 56.024Z" fill="#EAF3F3"/>
<path d="M70.3789 19.0806C70.3789 18.2178 69.6274 17.4012 68.6995 17.4012C67.7725 17.4012 67.0201 18.2178 67.0201 19.0806C67.0201 19.9435 67.7725 20.76 68.6995 20.76C69.6274 20.76 70.3789 19.9435 70.3789 19.0806Z" fill="#4E6AF0"/>
<path d="M162.746 32.5142C162.746 31.754 161.994 30.8348 161.066 30.8348C160.139 30.8348 159.387 31.754 159.387 32.5142C159.387 33.2745 160.139 34.1936 161.066 34.1936C161.994 34.1936 162.746 33.2745 162.746 32.5142Z" fill="#EAF3F3"/>
<path d="M145.952 10.6851C145.952 9.87514 145.201 9.00574 144.273 9.00574C143.346 9.00574 142.593 9.87514 142.593 10.6851C142.593 11.4952 143.346 12.3645 144.273 12.3645C145.201 12.3645 145.952 11.4952 145.952 10.6851Z" fill="#8829D2"/>
<path d="M214.807 163.508C214.807 162.699 214.056 161.828 213.128 161.828C212.2 161.828 211.448 162.699 211.448 163.508C211.448 164.316 212.2 165.187 213.128 165.187C214.056 165.187 214.807 164.316 214.807 163.508Z" fill="#8829D2"/>
<path d="M15.3072 76.1763C15.3072 75.3404 14.5556 74.4969 13.6278 74.4969C12.7007 74.4969 11.9484 75.3404 11.9484 76.1763C11.9484 77.0122 12.7007 77.8557 13.6278 77.8557C14.5556 77.8557 15.3072 77.0122 15.3072 76.1763Z" fill="#90BFFF"/>
<path d="M175.561 151.622C175.561 150.786 174.809 149.943 173.882 149.943C172.954 149.943 172.202 150.786 172.202 151.622C172.202 152.458 172.954 153.302 173.882 153.302C174.809 153.302 175.561 152.458 175.561 151.622Z" fill="#4E6AF0"/>
<path d="M41.0925 132.522C41.0925 131.685 40.3401 130.843 39.4131 130.843C38.4852 130.843 37.7337 131.685 37.7337 132.522C37.7337 133.36 38.4852 134.202 39.4131 134.202C40.3401 134.202 41.0925 133.36 41.0925 132.522Z" fill="#4E6AF0"/>
<path d="M217.769 130.615C217.769 129.779 217.018 128.935 216.09 128.935C215.162 128.935 214.411 129.779 214.411 130.615C214.411 131.45 215.162 132.294 216.09 132.294C217.018 132.294 217.769 131.45 217.769 130.615Z" fill="#EAF3F3"/>
<path d="M13.2793 163.508C13.2793 162.672 12.5269 161.828 11.5999 161.828C10.672 161.828 9.92047 162.672 9.92047 163.508C9.92047 164.343 10.672 165.187 11.5999 165.187C12.5269 165.187 13.2793 164.343 13.2793 163.508Z" fill="#EAF3F3"/>
<g clip-path="url(#clip0_960_28209)">
<path d="M70.9266 156.532C71.2173 156.84 71.4868 157.158 71.7684 157.473C91.7406 177.712 124.476 178.381 145.35 158.739C152.817 151.711 158.046 142.761 160.468 132.856C161.831 127.279 162.279 121.55 161.798 115.827C159.048 87.4131 131.088 59.6713 130.807 59.3957C124.706 53.1491 121.744 51.8774 116.993 53.4519C112.161 55.0507 109.469 60.1981 110.865 65.0398L111.059 65.282L113.787 68.204C114.099 68.537 114.271 68.9488 114.32 69.3727L128.53 87.1951C129.03 87.8219 129.117 88.6818 128.76 89.3964C128.718 89.4842 124.318 98.3651 124.158 106.819C123.921 119.206 127.891 132.396 127.93 132.529C128.257 133.613 127.649 134.761 126.562 135.091C125.475 135.421 124.327 134.809 123.997 133.725C123.828 133.162 119.8 119.773 120.049 106.74C120.191 99.1857 123.231 91.6371 124.521 88.7606L107.946 67.9678L74.3815 32.0081C70.8237 28.2263 64.8405 28.0537 61.0465 31.6236C57.2525 35.1935 57.0618 41.1767 60.6196 44.9586L95.4044 81.9235C96.1826 82.7501 96.1432 84.0491 95.3166 84.8273C94.49 85.6055 93.191 85.5661 92.4128 84.7395L48.7138 38.3032C45.156 34.5213 39.1728 34.3487 35.3788 37.9187C31.5848 41.4886 31.3941 47.4718 34.9519 51.2536L78.6479 97.6899C79.426 98.5165 79.3867 99.8155 78.56 100.594C77.7334 101.372 76.4344 101.332 75.6563 100.506L38.5066 61.0248C34.9488 57.2429 28.9657 57.0703 25.1717 60.6402C21.3777 64.2101 21.1869 70.1933 24.7447 73.9752L61.8943 113.456C62.6725 114.283 62.6332 115.582 61.8065 116.36C60.9799 117.138 59.6809 117.099 58.9028 116.272L33.5015 89.2783C29.9437 85.4965 23.9605 85.3239 20.1665 88.8938C16.5269 92.3184 16.212 97.9533 19.3308 101.747C19.4822 101.893 19.6396 102.029 19.788 102.186L70.9266 156.532Z" fill="#A952DD"/>
<path d="M109.203 174.13C108.87 174.13 108.534 174.127 108.2 174.121C94.0873 173.863 80.8795 168.216 71.0114 158.218L70.9781 158.182C70.8691 158.061 70.7632 157.943 70.6572 157.821C70.4906 157.634 70.3241 157.443 70.1515 157.258L19.0159 102.913C18.9372 102.831 18.8554 102.756 18.7737 102.68C18.7131 102.625 18.6526 102.568 18.595 102.51L18.5133 102.423C15.0251 98.1774 15.4308 91.8975 19.4398 88.1247C23.6607 84.1551 30.3131 84.3459 34.2736 88.5547L59.6749 115.549C59.8566 115.742 60.1049 115.854 60.3683 115.861C60.6347 115.87 60.8861 115.773 61.0798 115.591C61.2736 115.409 61.3857 115.161 61.3917 114.898C61.4008 114.631 61.3039 114.38 61.1222 114.186L23.9726 74.705C20.0121 70.4961 20.224 63.8438 24.445 59.8742C26.4858 57.9545 29.1534 56.9431 31.9573 57.0219C34.7641 57.1036 37.3621 58.2694 39.2788 60.3041L76.4284 99.7853C76.8039 100.185 77.4337 100.203 77.8334 99.8277C78.0271 99.646 78.1392 99.3977 78.1452 99.1343C78.1543 98.8678 78.0574 98.6165 77.8758 98.4227L34.1798 51.9804C32.2631 49.9456 31.2578 47.278 31.3486 44.4741C31.4395 41.6703 32.6113 39.0693 34.6521 37.1496C38.873 33.18 45.5254 33.3707 49.4859 37.5796L93.1819 84.0158C93.3636 84.2096 93.6119 84.3216 93.8753 84.3277C94.1418 84.3398 94.3931 84.2399 94.5869 84.0582C94.9866 83.6827 95.0047 83.0529 94.6293 82.6533L59.8445 45.6883C55.8839 41.4795 56.0959 34.8272 60.3168 30.8576C64.5347 26.888 71.1901 27.0787 75.1506 31.2875L108.745 67.2805L125.75 88.6092L125.487 89.1996C124.218 92.0307 121.248 99.4128 121.108 106.765C120.863 119.558 124.842 132.862 125.011 133.422C125.087 133.674 125.26 133.883 125.496 134.01C125.729 134.134 125.999 134.161 126.253 134.083C126.777 133.922 127.073 133.365 126.916 132.841C126.877 132.72 122.856 119.452 123.098 106.804C123.261 98.2774 127.622 89.3147 127.806 88.9392C127.985 88.5819 127.942 88.1641 127.7 87.8613L113.299 69.7997L113.266 69.4969C113.248 69.3455 113.19 69.1245 113.012 68.9337L110.229 65.9482L109.905 65.5424L109.848 65.3396C108.279 59.8954 111.271 54.2331 116.66 52.4497C121.841 50.7359 125.184 52.1287 131.564 58.66C131.833 58.9234 160.06 86.8833 162.851 115.73C163.345 121.58 162.888 127.424 161.498 133.114C159.027 143.218 153.695 152.347 146.077 159.517C136.033 168.967 122.974 174.136 109.206 174.136L109.203 174.13ZM72.5375 156.747C92.0313 176.48 124.363 177.031 144.623 157.967C151.942 151.078 157.065 142.309 159.436 132.605C160.771 127.14 161.21 121.526 160.738 115.915C158.022 87.8583 130.341 60.4253 130.062 60.1527C123.849 53.7911 121.326 53.131 117.324 54.4572C113.084 55.8591 110.698 60.2648 111.825 64.5493L111.858 64.5887L114.556 67.4803C114.935 67.8861 115.192 68.3796 115.313 68.9246L129.354 86.5351C130.107 87.4798 130.244 88.7909 129.702 89.8718C129.526 90.2291 125.366 98.78 125.211 106.84C124.981 118.949 128.899 132.087 128.939 132.217C129.438 133.865 128.509 135.606 126.868 136.108C126.071 136.35 125.229 136.269 124.494 135.878C123.761 135.488 123.222 134.833 122.98 134.037C122.807 133.462 118.735 119.845 118.986 106.722C119.125 99.4522 121.859 92.2215 123.289 88.9211L107.138 68.6642L73.6003 32.7349C70.4452 29.383 65.1342 29.2316 61.7672 32.3988C58.4001 35.569 58.2275 40.877 61.3857 44.2349L96.1705 81.1999C97.3483 82.4504 97.2878 84.4246 96.0373 85.6025C95.4317 86.1717 94.6414 86.4715 93.8087 86.4472C92.976 86.423 92.2039 86.0748 91.6346 85.4692L47.9417 39.0299C44.7836 35.675 39.4726 35.5206 36.1055 38.6908C34.4765 40.2229 33.5378 42.3031 33.4682 44.5408C33.3955 46.7784 34.1979 48.904 35.724 50.527L79.42 96.9632C79.9892 97.5688 80.289 98.3621 80.2648 99.1918C80.2406 100.024 79.8923 100.794 79.2868 101.366C78.0362 102.544 76.062 102.483 74.8842 101.233L37.7345 61.7515C36.2085 60.1285 34.1343 59.1989 31.8967 59.1354C29.656 59.0718 27.5274 59.8802 25.8954 61.4124C22.5283 64.5826 22.3557 69.8906 25.5138 73.2485L62.6635 112.73C63.2327 113.335 63.5325 114.129 63.5082 114.958C63.484 115.791 63.1358 116.56 62.5302 117.132C61.9246 117.701 61.1343 118.007 60.3017 117.977C59.469 117.953 58.6969 117.605 58.1276 116.999L32.7264 90.0051C29.5682 86.6471 24.2572 86.4957 20.8872 89.6659C17.7018 92.6636 17.3627 97.6415 20.106 101.027C20.1393 101.06 20.1756 101.09 20.2089 101.124C20.327 101.233 20.4421 101.342 20.5541 101.46L71.6958 155.805C71.8865 156.008 72.0682 156.214 72.2499 156.42C72.3437 156.529 72.4406 156.635 72.5375 156.744V156.747Z" fill="black"/>
<path d="M58.8362 165.561C59.1117 165.652 59.3933 165.667 59.6597 165.618C60.2562 165.512 60.7771 165.089 60.9799 164.471C61.2706 163.578 60.7831 162.618 59.8899 162.327C47.9477 158.439 37.4075 150.639 30.2071 140.366C29.6681 139.596 28.6084 139.409 27.8393 139.948C27.0702 140.487 26.8825 141.546 27.4214 142.316C35.0427 153.189 46.2006 161.443 58.8362 165.558V165.561Z" fill="#D028BF"/>
<path d="M59.363 166.097C59.1359 166.097 58.9119 166.061 58.6939 165.991C45.9645 161.846 34.7248 153.531 27.046 142.576C26.7159 142.104 26.5888 141.534 26.6887 140.965C26.7886 140.396 27.1035 139.905 27.5728 139.575C28.0422 139.245 28.6114 139.118 29.1807 139.215C29.7499 139.315 30.2435 139.63 30.5735 140.102C37.7194 150.294 48.1779 158.033 60.0261 161.891C61.1556 162.26 61.7763 163.478 61.4069 164.607C61.1616 165.364 60.5197 165.921 59.7355 166.061C59.6113 166.082 59.4872 166.094 59.36 166.094L59.363 166.097ZM28.8082 140.096C28.5539 140.096 28.3086 140.175 28.0967 140.323C27.8242 140.514 27.6425 140.802 27.585 141.129C27.5274 141.456 27.6001 141.786 27.7909 142.058C35.3546 152.85 46.4308 161.043 58.9755 165.128C59.1723 165.191 59.3751 165.207 59.578 165.17C60.0322 165.089 60.4016 164.768 60.547 164.329C60.7589 163.675 60.4016 162.972 59.7476 162.757C47.7146 158.839 37.0896 150.978 29.8317 140.626C29.6409 140.353 29.3533 140.172 29.0263 140.114C28.9536 140.102 28.8809 140.096 28.8082 140.096Z" fill="black"/>
<path d="M58.597 180.373C58.8725 180.464 59.1541 180.479 59.4206 180.431C60.0171 180.325 60.5379 179.901 60.7407 179.283C61.0314 178.39 60.5439 177.43 59.6507 177.14C42.3521 171.508 27.0823 160.211 16.6541 145.331C16.1152 144.562 15.0554 144.374 14.2863 144.913C13.5172 145.452 13.3295 146.512 13.8685 147.281C24.7205 162.76 40.605 174.514 58.597 180.373Z" fill="#D028BF"/>
<path d="M59.1268 180.912C58.8997 180.912 58.6726 180.876 58.4577 180.806C40.3719 174.917 24.4026 163.105 13.496 147.545C13.166 147.075 13.0388 146.503 13.1387 145.937C13.2386 145.371 13.5535 144.877 14.0229 144.547C14.4952 144.217 15.0645 144.09 15.6307 144.19C16.1969 144.29 16.6905 144.605 17.0205 145.077C27.3942 159.877 42.5823 171.114 59.7869 176.716C60.9163 177.085 61.5371 178.302 61.1677 179.432C60.9194 180.189 60.2805 180.746 59.4962 180.885C59.3721 180.906 59.248 180.919 59.1208 180.919L59.1268 180.912ZM15.2583 145.059C15.0039 145.059 14.7586 145.138 14.5467 145.286C14.2742 145.477 14.0925 145.764 14.035 146.091C13.9774 146.418 14.0501 146.748 14.2409 147.021C25.0354 162.421 40.8382 174.112 58.7393 179.941C58.9361 180.004 59.1389 180.019 59.3418 179.983C59.796 179.901 60.1654 179.58 60.3077 179.141C60.5197 178.487 60.1624 177.785 59.5084 177.57C42.119 171.907 26.7644 160.55 16.2787 145.589C16.0879 145.316 15.8033 145.135 15.4732 145.077C15.4006 145.065 15.3279 145.059 15.2552 145.059H15.2583Z" fill="black"/>
<path d="M93.1002 18.5703C104.979 22.6459 115.398 30.6123 122.435 40.9951C122.819 41.5613 123.482 41.8217 124.115 41.7188C124.351 41.6794 124.585 41.5916 124.796 41.4462C125.575 40.9194 125.778 39.8626 125.251 39.0845C117.802 28.0931 106.777 19.6633 94.2054 15.3486C93.3182 15.0458 92.3523 15.5181 92.0464 16.4053C91.7406 17.2925 92.216 18.2584 93.1032 18.5642L93.1002 18.5703Z" fill="#D028BF"/>
<path d="M123.843 42.1972C123.134 42.1972 122.459 41.8459 122.056 41.2525C115.074 30.9484 104.736 23.0455 92.9518 19.0033C91.8285 18.6187 91.2289 17.3894 91.6135 16.266C92.001 15.1427 93.2274 14.5431 94.3507 14.9277C107.013 19.2727 118.123 27.7661 125.623 38.8362C125.947 39.3116 126.065 39.8869 125.956 40.4501C125.847 41.0163 125.526 41.5038 125.048 41.8278C124.787 42.0064 124.497 42.1215 124.185 42.1699C124.07 42.1881 123.958 42.1972 123.843 42.1972ZM93.2455 18.1403C105.218 22.2492 115.716 30.2762 122.807 40.7407C123.08 41.1404 123.561 41.3494 124.04 41.2706C124.218 41.2403 124.385 41.1737 124.536 41.0708C124.812 40.8831 124.999 40.6015 125.06 40.2744C125.124 39.9474 125.054 39.6174 124.869 39.3418C117.475 28.4322 106.532 20.0661 94.0509 15.7815C93.403 15.5575 92.6914 15.9057 92.4673 16.5567C92.2433 17.2047 92.5915 17.9162 93.2425 18.1403H93.2455Z" fill="black"/>
<path d="M93.5695 3.76367C110.774 9.66812 125.865 21.2045 136.06 36.2473C136.445 36.8135 137.108 37.0739 137.741 36.9709C137.977 36.9316 138.21 36.8438 138.422 36.6984C139.2 36.1716 139.403 35.1148 138.876 34.3366C128.273 18.6883 112.573 6.68864 94.6747 0.544982C93.7875 0.239162 92.8216 0.714546 92.5157 1.60173C92.2099 2.48891 92.6853 3.45482 93.5725 3.76064L93.5695 3.76367Z" fill="#D028BF"/>
<path d="M137.471 37.4463C136.763 37.4463 136.088 37.0951 135.685 36.5016C125.544 21.5406 110.535 10.0648 93.4242 4.19365C92.3008 3.8091 91.7013 2.57976 92.0858 1.4564C92.4734 0.333043 93.6997 -0.269514 94.8231 0.118061C112.815 6.292 128.594 18.3553 139.255 34.0853C139.579 34.5607 139.697 35.136 139.588 35.6992C139.479 36.2654 139.158 36.7529 138.68 37.0769C138.419 37.2556 138.128 37.3706 137.817 37.4191C137.702 37.4372 137.589 37.4463 137.474 37.4463H137.471ZM93.7179 3.33372C111.016 9.26845 126.189 20.8684 136.436 35.9929C136.708 36.3926 137.19 36.5985 137.668 36.5228C137.847 36.4925 138.013 36.4259 138.165 36.323C138.44 36.1352 138.628 35.8536 138.689 35.5266C138.752 35.1996 138.683 34.8696 138.498 34.594C127.949 19.0244 112.334 7.08532 94.5263 0.974963C93.8783 0.750897 93.1668 1.09911 92.9427 1.75011C92.7187 2.39809 93.0669 3.10965 93.7179 3.33372Z" fill="black"/>
</g>
<defs>
<clipPath id="clip0_960_28209">
<rect width="149.937" height="180.912" fill="white" transform="translate(13.1054)"/>
</clipPath>
</defs>
</svg>
