<svg width="44" height="44" viewBox="0 0 44 44" fill="none" xmlns="http://www.w3.org/2000/svg">
<path fill-rule="evenodd" clip-rule="evenodd" d="M21.4054 6.51573C21.7908 6.38359 22.2093 6.38359 22.5946 6.51573L35.428 10.9157C36.169 11.1698 36.6667 11.8666 36.6667 12.65V22.9166C36.6667 24.7717 36.0428 26.7117 35.1439 28.5049C34.235 30.318 32.9858 32.0992 31.5918 33.6678C30.1994 35.2346 28.621 36.636 27.0255 37.6597C25.4688 38.6585 23.7107 39.4166 22 39.4166C20.2894 39.4166 18.5312 38.6585 16.9745 37.6597C15.379 36.636 13.8007 35.2346 12.4083 33.6678C11.0143 32.0992 9.76513 30.318 8.85623 28.5049C7.95729 26.7117 7.33337 24.7717 7.33337 22.9166V12.6508C7.33337 11.8674 7.8311 11.1698 8.57211 10.9157L21.4054 6.51573ZM11 13.9595V22.9166C11 23.9949 11.3787 25.3549 12.1341 26.8617C12.8795 28.3486 13.9363 29.8674 15.1491 31.2321C16.3635 32.5986 17.6927 33.7639 18.9546 34.5736C20.2553 35.4081 21.3045 35.75 22 35.75C22.6956 35.75 23.7448 35.4081 25.0455 34.5736C26.3074 33.7639 27.6366 32.5986 28.851 31.2321C30.0638 29.8674 31.1206 28.3486 31.866 26.8617C32.6214 25.3549 33 23.9949 33 22.9166V13.9595L22 10.1881L11 13.9595Z" fill="url(#paint0_radial_1318_3952)"/>
<path d="M22.0005 21.4294C21.5141 21.4294 21.0477 21.6226 20.7038 21.9665C20.3599 22.3104 20.1667 22.7768 20.1667 23.2632V28.7645C20.1667 29.2509 20.3599 29.7173 20.7038 30.0612C21.0477 30.4051 21.5141 30.5983 22.0005 30.5983C22.4868 30.5983 22.9533 30.4051 23.2972 30.0612C23.6411 29.7173 23.8343 29.2509 23.8343 28.7645V23.2632C23.8343 22.7768 23.6411 22.3104 23.2972 21.9665C22.9533 21.6226 22.4868 21.4294 22.0005 21.4294Z" fill="url(#paint1_radial_1318_3952)"/>
<path d="M22 19.7083C23.2657 19.7083 24.2917 18.6823 24.2917 17.4166C24.2917 16.151 23.2657 15.125 22 15.125C20.7344 15.125 19.7084 16.151 19.7084 17.4166C19.7084 18.6823 20.7344 19.7083 22 19.7083Z" fill="url(#paint2_radial_1318_3952)"/>
<defs>
<radialGradient id="paint0_radial_1318_3952" cx="0" cy="0" r="1" gradientUnits="userSpaceOnUse" gradientTransform="translate(36.6667 6.41663) rotate(-48.3665) scale(44.1525 43.848)">
<stop stop-color="#B833E1"/>
<stop offset="0.371" stop-color="#9059FF"/>
<stop offset="0.614" stop-color="#5B6DF8"/>
<stop offset="1" stop-color="#0090ED"/>
</radialGradient>
<radialGradient id="paint1_radial_1318_3952" cx="0" cy="0" r="1" gradientUnits="userSpaceOnUse" gradientTransform="translate(36.6667 6.41663) rotate(-48.3665) scale(44.1525 43.848)">
<stop stop-color="#B833E1"/>
<stop offset="0.371" stop-color="#9059FF"/>
<stop offset="0.614" stop-color="#5B6DF8"/>
<stop offset="1" stop-color="#0090ED"/>
</radialGradient>
<radialGradient id="paint2_radial_1318_3952" cx="0" cy="0" r="1" gradientUnits="userSpaceOnUse" gradientTransform="translate(36.6667 6.41663) rotate(-48.3665) scale(44.1525 43.848)">
<stop stop-color="#B833E1"/>
<stop offset="0.371" stop-color="#9059FF"/>
<stop offset="0.614" stop-color="#5B6DF8"/>
<stop offset="1" stop-color="#0090ED"/>
</radialGradient>
</defs>
</svg>
