<svg width="620" height="450" viewBox="0 0 620 450" fill="none" xmlns="http://www.w3.org/2000/svg">
<g clip-path="url(#clip0_10_2145)">
<mask id="mask0_10_2145" style="mask-type:luminance" maskUnits="userSpaceOnUse" x="0" y="0" width="620" height="450">
<path d="M605 0H15C6.71573 0 0 6.71573 0 15V435C0 443.284 6.71573 450 15 450H605C613.284 450 620 443.284 620 435V15C620 6.71573 613.284 0 605 0Z" fill="white"/>
</mask>
<g mask="url(#mask0_10_2145)">
<path d="M605 0H15C6.71573 0 0 6.71573 0 15V435C0 443.284 6.71573 450 15 450H605C613.284 450 620 443.284 620 435V15C620 6.71573 613.284 0 605 0Z" fill="#ECDFFF"/>
<path d="M531.529 137.926C537.369 137.926 542.104 142.66 542.104 148.501V219.001C542.104 224.841 537.369 229.576 531.529 229.576V137.926Z" fill="url(#paint0_linear_10_2145)"/>
<mask id="mask1_10_2145" style="mask-type:luminance" maskUnits="userSpaceOnUse" x="531" y="137" width="12" height="93">
<path d="M531.529 137.926C537.369 137.926 542.104 142.66 542.104 148.501V219.001C542.104 224.841 537.369 229.576 531.529 229.576V137.926Z" fill="white"/>
</mask>
<g mask="url(#mask1_10_2145)">
<path d="M531.529 229.576H519.779V241.326H531.529V229.576ZM531.529 137.926V126.176H519.779V137.926H531.529ZM530.354 148.501V219.001H553.854V148.501H530.354ZM543.279 229.576V137.926H519.779V229.576H543.279ZM530.354 219.001C530.354 218.352 530.88 217.826 531.529 217.826V241.326C543.858 241.326 553.854 231.331 553.854 219.001H530.354ZM531.529 149.676C530.88 149.676 530.354 149.15 530.354 148.501H553.854C553.854 136.171 543.858 126.176 531.529 126.176V149.676Z" fill="#BFBFC7"/>
</g>
<path d="M471.296 38.3H128.664C98.0346 38.3 73.2043 63.1304 73.2043 93.7603V791.712C73.2043 822.342 98.0346 847.173 128.664 847.173H471.296C501.925 847.173 526.756 822.342 526.756 791.712V93.7603C526.756 63.1304 501.925 38.3 471.296 38.3Z" fill="#F9F9FA" stroke="#BFBFC7" stroke-width="9.40003" stroke-miterlimit="10"/>
<path d="M201.245 94.3841L197.24 92.09L188.096 86.8545L187.811 86.691C186.312 85.8378 184.474 85.8378 182.975 86.691L182.691 86.8559L169.833 94.2206L169.549 94.3855C168.058 95.2394 167.136 96.8245 167.131 98.5429V113.925C167.136 115.644 168.058 117.229 169.549 118.084L182.695 125.612C183.659 126.165 184.888 125.839 185.45 124.881C185.718 124.421 185.79 123.873 185.652 123.36C185.513 122.846 185.175 122.41 184.712 122.147L171.855 114.784C171.427 114.54 171.163 114.087 171.162 113.595V98.8729C171.163 98.381 171.427 97.9274 171.855 97.6838L174.13 96.3796L184.698 90.315C185.126 90.0717 185.65 90.0717 186.077 90.315L198.939 97.681C199.364 97.9255 199.627 98.378 199.629 98.8686V113.601C199.628 114.092 199.364 114.546 198.936 114.79L194.586 117.282L192.39 113.97C194.604 112.009 195.872 109.194 195.873 106.236C195.873 100.5 191.169 95.8334 185.386 95.8334C179.603 95.8334 174.9 100.5 174.9 106.236C174.9 111.972 179.603 116.639 185.386 116.639C186.593 116.64 187.79 116.433 188.926 116.027L192.262 121.056C192.314 121.133 192.37 121.207 192.431 121.277L192.466 121.312C192.537 121.388 192.613 121.458 192.695 121.521C192.715 121.537 192.734 121.554 192.755 121.57C192.845 121.635 192.94 121.693 193.04 121.743L193.108 121.773C193.196 121.813 193.288 121.847 193.381 121.874L193.443 121.894C193.549 121.921 193.657 121.939 193.766 121.947H193.856C193.887 121.947 193.917 121.947 193.948 121.947C194.01 121.947 194.071 121.94 194.13 121.934C194.159 121.934 194.186 121.934 194.214 121.934C194.329 121.918 194.442 121.892 194.553 121.857C194.583 121.849 194.611 121.836 194.641 121.824C194.729 121.792 194.814 121.754 194.897 121.711C194.916 121.701 194.937 121.695 194.955 121.684L201.245 118.089C202.737 117.233 203.659 115.646 203.663 113.925V98.5415C203.658 96.8231 202.736 95.238 201.245 94.3841ZM178.932 106.236C178.91 103.621 180.469 101.251 182.879 100.235C185.289 99.2186 188.073 99.7573 189.931 101.599C191.788 103.441 192.35 106.221 191.354 108.639C190.358 111.058 188.002 112.636 185.386 112.636C181.838 112.647 178.951 109.784 178.932 106.236Z" fill="url(#paint1_linear_10_2145)"/>
<path d="M201.245 94.3841L197.24 92.09L188.096 86.8545L187.811 86.691C186.312 85.8378 184.474 85.8378 182.975 86.691L182.691 86.8559L169.833 94.2206L169.549 94.3855C168.058 95.2394 167.136 96.8245 167.131 98.5429V113.925C167.136 115.644 168.058 117.229 169.549 118.084L182.695 125.612C183.659 126.165 184.888 125.839 185.45 124.881C185.718 124.421 185.79 123.873 185.652 123.36C185.513 122.846 185.175 122.41 184.712 122.147L171.855 114.784C171.427 114.54 171.163 114.087 171.162 113.595V98.8729C171.163 98.381 171.427 97.9274 171.855 97.6838L174.13 96.3796L184.698 90.315C185.126 90.0717 185.65 90.0717 186.077 90.315L198.939 97.681C199.364 97.9255 199.627 98.378 199.629 98.8686V113.601C199.628 114.092 199.364 114.546 198.936 114.79L194.586 117.282L192.39 113.97C194.604 112.009 195.872 109.194 195.873 106.236C195.873 100.5 191.169 95.8334 185.386 95.8334C179.603 95.8334 174.9 100.5 174.9 106.236C174.9 111.972 179.603 116.639 185.386 116.639C186.593 116.64 187.79 116.433 188.926 116.027L192.262 121.056C192.314 121.133 192.37 121.207 192.431 121.277L192.466 121.312C192.537 121.388 192.613 121.458 192.695 121.521C192.715 121.537 192.734 121.554 192.755 121.57C192.845 121.635 192.94 121.693 193.04 121.743L193.108 121.773C193.196 121.813 193.288 121.847 193.381 121.874L193.443 121.894C193.549 121.921 193.657 121.939 193.766 121.947H193.856C193.887 121.947 193.917 121.947 193.948 121.947C194.01 121.947 194.071 121.94 194.13 121.934C194.159 121.934 194.186 121.934 194.214 121.934C194.329 121.918 194.442 121.892 194.553 121.857C194.583 121.849 194.611 121.836 194.641 121.824C194.729 121.792 194.814 121.754 194.897 121.711C194.916 121.701 194.937 121.695 194.955 121.684L201.245 118.089C202.737 117.233 203.659 115.646 203.663 113.925V98.5415C203.658 96.8231 202.736 95.238 201.245 94.3841ZM178.932 106.236C178.91 103.621 180.469 101.251 182.879 100.235C185.289 99.2186 188.073 99.7573 189.931 101.599C191.788 103.441 192.35 106.221 191.354 108.639C190.358 111.058 188.002 112.636 185.386 112.636C181.838 112.647 178.951 109.784 178.932 106.236Z" fill="url(#paint2_linear_10_2145)"/>
<path d="M201.242 94.384L197.237 92.0899L191.651 88.8926C190.366 88.1591 188.796 88.1355 187.49 88.83L184.696 90.3149C185.123 90.0716 185.647 90.0716 186.075 90.3149L198.937 97.6809C199.362 97.9254 199.625 98.378 199.627 98.8685V113.601C199.626 114.093 199.362 114.546 198.934 114.79L194.583 117.281L195.262 118.367C196.074 119.661 197.764 120.083 199.089 119.321L201.242 118.089C202.737 117.236 203.66 115.646 203.66 113.925V98.5414C203.658 96.8223 202.736 95.236 201.242 94.384Z" fill="url(#paint3_linear_10_2145)"/>
<path d="M199.627 98.8728V106.02H203.66V98.5414C203.658 96.8223 202.736 95.2359 201.242 94.384L197.237 92.0899L191.651 88.8926C190.366 88.1591 188.796 88.1355 187.49 88.83L184.696 90.3149C185.123 90.0725 185.647 90.0725 186.075 90.3149L198.937 97.6809C199.364 97.9262 199.627 98.3807 199.627 98.8728Z" fill="url(#paint4_linear_10_2145)"/>
<path opacity="0.9" d="M199.626 107.171V113.601C199.626 114.093 199.361 114.547 198.934 114.79L194.583 117.282L195.261 118.367C196.073 119.661 197.764 120.083 199.089 119.321L201.242 118.089C202.737 117.236 203.66 115.646 203.66 113.925V107.171H199.626Z" fill="url(#paint5_linear_10_2145)"/>
<path opacity="0.9" d="M194.274 116.815L192.387 113.97C191.376 114.873 190.2 115.572 188.924 116.027L190.93 119.055C192.064 118.333 193.178 117.586 194.274 116.815Z" fill="url(#paint6_linear_10_2145)"/>
<path d="M220.438 116.31V96.2321H224.734L230.959 107.571L237.155 96.2321H241.48V116.31H237.155V103.801L230.959 115.141L224.734 103.801V116.31H220.438ZM252.704 116.661C248.203 116.661 244.433 113.037 244.433 108.74C244.433 104.444 248.203 100.85 252.704 100.85C257.175 100.85 260.916 104.444 260.916 108.74C260.916 113.037 257.175 116.661 252.704 116.661ZM252.704 113.066C254.954 113.066 256.854 111.078 256.854 108.74C256.854 106.402 254.954 104.444 252.704 104.444C250.424 104.444 248.525 106.402 248.525 108.74C248.525 111.078 250.424 113.066 252.704 113.066ZM262.922 116.31V113.3L270.521 104.824H263.127V101.2H276.074V104.211L268.475 112.686H276.132V116.31H262.922ZM281.074 99.1254C279.758 99.1254 278.736 98.0733 278.736 96.7874C278.736 95.5891 279.758 94.5078 281.074 94.5078C282.33 94.5078 283.353 95.5891 283.353 96.7874C283.353 98.0733 282.33 99.1254 281.074 99.1254ZM278.911 116.31V101.2H283.178V116.31H278.911ZM286.694 116.31V95.8814H290.961V116.31H286.694ZM294.477 116.31V95.8814H298.744V116.31H294.477ZM309.01 100.85C312.956 100.85 315.644 103.334 315.644 107.279V116.31H311.524V114.79C310.442 116.018 308.718 116.661 307.081 116.661C303.867 116.661 301.382 114.732 301.382 111.838C301.382 108.857 304.159 106.812 307.666 106.812C308.893 106.812 310.238 107.075 311.524 107.571V107.279C311.524 105.672 310.53 104.269 308.046 104.269C306.643 104.269 305.328 104.737 304.13 105.35L302.698 102.515C304.831 101.434 306.906 100.85 309.01 100.85ZM308.046 113.709C309.682 113.709 311.231 112.949 311.524 111.546V110.143C310.559 109.793 309.449 109.588 308.28 109.588C306.731 109.588 305.503 110.494 305.503 111.721C305.503 112.949 306.584 113.709 308.046 113.709ZM327.658 116.31V96.2321H330.61L337.653 109.354L344.696 96.2321H347.648V116.31H344.696V102.019L337.653 115.141L330.61 102.019V116.31H327.658ZM358.84 116.661C354.515 116.661 350.862 113.037 350.862 108.74C350.862 104.444 354.515 100.85 358.84 100.85C363.136 100.85 366.76 104.444 366.76 108.74C366.76 113.037 363.136 116.661 358.84 116.661ZM358.84 114.147C361.558 114.147 363.867 111.692 363.867 108.74C363.867 105.818 361.558 103.363 358.84 103.363C356.064 103.363 353.755 105.818 353.755 108.74C353.755 111.692 356.064 114.147 358.84 114.147ZM377.206 100.85C380.537 100.85 382.875 103.275 382.875 106.695V116.31H380.04V107.192C380.04 104.941 378.608 103.363 376.563 103.363C374.458 103.363 372.646 104.737 372.413 106.519V116.31H369.519V101.2H372.413V103.392C373.319 101.902 375.16 100.85 377.206 100.85ZM387.82 98.687C386.827 98.687 386.067 97.8687 386.067 96.9335C386.067 96.0275 386.827 95.2092 387.82 95.2092C388.755 95.2092 389.545 96.0275 389.545 96.9335C389.545 97.8687 388.755 98.687 387.82 98.687ZM386.359 116.31V101.2H389.252V116.31H386.359ZM399.884 113.592L400.936 115.579C400.118 116.251 399.007 116.661 397.926 116.661C395.588 116.661 393.951 114.965 393.951 112.54V103.655H391.672V101.2H393.951V97.0504H396.786V101.2H400.352V103.655H396.786V112.335C396.786 113.387 397.487 114.147 398.335 114.147C398.978 114.147 399.562 113.913 399.884 113.592ZM410.419 116.661C406.094 116.661 402.44 113.037 402.44 108.74C402.44 104.444 406.094 100.85 410.419 100.85C414.715 100.85 418.339 104.444 418.339 108.74C418.339 113.037 414.715 116.661 410.419 116.661ZM410.419 114.147C413.137 114.147 415.446 111.692 415.446 108.74C415.446 105.818 413.137 103.363 410.419 103.363C407.643 103.363 405.334 105.818 405.334 108.74C405.334 111.692 407.643 114.147 410.419 114.147ZM424.137 104.094C425.102 102.106 427.148 100.85 429.749 100.85V103.363C426.622 103.363 424.4 105.087 424.137 107.718V116.31H421.244V101.2H424.137V104.094Z" fill="black"/>
<path d="M96.406 165.79C96.406 162.67 98.9355 160.141 102.056 160.141H497.795C500.916 160.141 503.445 162.67 503.445 165.79V651.862C503.445 654.982 500.916 657.512 497.795 657.512H102.056C98.9354 657.512 96.406 654.982 96.406 651.862V165.79Z" fill="white"/>
<path d="M102.056 159.788C98.7404 159.788 96.0529 162.475 96.0529 165.79V651.862C96.0529 655.177 98.7404 657.865 102.056 657.865H497.795C501.111 657.865 503.798 655.177 503.798 651.862V165.79C503.798 162.475 501.111 159.788 497.795 159.788H102.056Z" stroke="black" stroke-opacity="0.1" stroke-width="0.706212"/>
<path d="M141.763 273.703H146.878L138.198 295H133.083L124.403 273.703H129.549L135.656 288.707L141.763 273.703ZM154.959 295.372C150.185 295.372 146.186 291.528 146.186 286.971C146.186 282.414 150.185 278.601 154.959 278.601C159.702 278.601 163.67 282.414 163.67 286.971C163.67 291.528 159.702 295.372 154.959 295.372ZM154.959 291.559C157.346 291.559 159.361 289.451 159.361 286.971C159.361 284.491 157.346 282.414 154.959 282.414C152.541 282.414 150.526 284.491 150.526 286.971C150.526 289.451 152.541 291.559 154.959 291.559ZM175.164 291.032L176.249 293.977C175.319 294.814 173.862 295.372 172.56 295.372C169.739 295.372 167.755 293.357 167.755 290.474V282.631H165.554V278.973H167.755V274.571H172.095V278.973H175.567V282.631H172.095V289.761C172.095 290.815 172.777 291.559 173.614 291.559C174.234 291.559 174.854 291.342 175.164 291.032ZM183.61 281.949C184.664 279.872 186.648 278.601 189.097 278.601V282.414C185.749 282.414 183.61 284.336 183.61 287.343V295H179.084V278.973H183.61V281.949ZM199.272 291.373C200.543 291.373 202.093 290.784 202.961 289.947L205.844 292.892C204.418 294.38 201.659 295.372 199.303 295.372C194.529 295.372 190.809 291.869 190.809 286.94C190.809 282.104 194.374 278.601 199.055 278.601C204.077 278.601 207.022 282.414 207.022 288.459H195.459C195.986 290.195 197.381 291.373 199.272 291.373ZM199.241 282.6C197.536 282.6 196.11 283.592 195.521 285.204H202.682C202.248 283.623 201.07 282.6 199.241 282.6ZM237.807 278.601C241.155 278.601 243.728 281.174 243.728 284.801V295.031H239.388V285.576C239.388 283.716 238.21 282.414 236.536 282.414C234.738 282.414 233.436 283.623 233.436 285.328V295.031H229.096V285.576C229.096 283.716 227.918 282.414 226.275 282.414C224.446 282.414 223.175 283.623 223.175 285.328V295H218.649V278.973H223.175V281.081C223.95 279.562 225.531 278.601 227.515 278.601C229.716 278.601 231.607 279.717 232.599 281.515C233.436 279.748 235.42 278.601 237.807 278.601ZM255.406 295.372C250.632 295.372 246.633 291.528 246.633 286.971C246.633 282.414 250.632 278.601 255.406 278.601C260.149 278.601 264.117 282.414 264.117 286.971C264.117 291.528 260.149 295.372 255.406 295.372ZM255.406 291.559C257.793 291.559 259.808 289.451 259.808 286.971C259.808 284.491 257.793 282.414 255.406 282.414C252.988 282.414 250.973 284.491 250.973 286.971C250.973 289.451 252.988 291.559 255.406 291.559ZM275.611 291.032L276.696 293.977C275.766 294.814 274.309 295.372 273.007 295.372C270.186 295.372 268.202 293.357 268.202 290.474V282.631H266.001V278.973H268.202V274.571H272.542V278.973H276.014V282.631H272.542V289.761C272.542 290.815 273.224 291.559 274.061 291.559C274.681 291.559 275.301 291.342 275.611 291.032ZM300.155 273.331H304.681V295H300.155V292.706C298.884 294.38 297.024 295.372 294.761 295.372C290.483 295.372 287.383 291.9 287.383 286.971C287.383 282.073 290.483 278.601 294.761 278.601C297.024 278.601 298.884 279.593 300.155 281.267V273.331ZM296.063 291.559C298.45 291.559 300.155 289.668 300.155 286.971C300.155 284.305 298.45 282.414 296.063 282.414C293.552 282.414 291.785 284.305 291.785 286.971C291.785 289.668 293.552 291.559 296.063 291.559ZM316.218 291.373C317.489 291.373 319.039 290.784 319.907 289.947L322.79 292.892C321.364 294.38 318.605 295.372 316.249 295.372C311.475 295.372 307.755 291.869 307.755 286.94C307.755 282.104 311.32 278.601 316.001 278.601C321.023 278.601 323.968 282.414 323.968 288.459H312.405C312.932 290.195 314.327 291.373 316.218 291.373ZM316.187 282.6C314.482 282.6 313.056 283.592 312.467 285.204H319.628C319.194 283.623 318.016 282.6 316.187 282.6ZM345.577 278.601C349.855 278.601 352.955 282.073 352.955 286.971C352.955 291.9 349.855 295.372 345.577 295.372C343.345 295.372 341.485 294.411 340.214 292.737V300.332H335.688V278.973H340.214V281.205C341.485 279.562 343.345 278.601 345.577 278.601ZM344.275 291.559C346.786 291.559 348.553 289.668 348.553 286.971C348.553 284.305 346.786 282.414 344.275 282.414C342.074 282.414 340.462 284.026 340.214 286.351V287.591C340.462 289.947 342.074 291.559 344.275 291.559ZM363.314 278.601C367.499 278.601 370.351 281.236 370.351 285.421V295H365.98V293.388C364.833 294.69 363.004 295.372 361.268 295.372C357.858 295.372 355.223 293.326 355.223 290.257C355.223 287.095 358.168 284.925 361.888 284.925C363.19 284.925 364.616 285.204 365.98 285.731V285.421C365.98 283.716 364.926 282.228 362.291 282.228C360.803 282.228 359.408 282.724 358.137 283.375L356.618 280.368C358.881 279.221 361.082 278.601 363.314 278.601ZM362.291 292.241C364.027 292.241 365.67 291.435 365.98 289.947V288.459C364.957 288.087 363.779 287.87 362.539 287.87C360.896 287.87 359.594 288.831 359.594 290.133C359.594 291.435 360.741 292.241 362.291 292.241ZM380.18 295.372C377.607 295.372 374.879 294.504 372.957 292.954L374.91 289.823C376.336 290.846 378.134 291.621 380.273 291.621C381.482 291.621 382.35 291.125 382.35 290.412C382.35 289.42 381.172 289.11 379.529 288.676C376.243 287.87 373.701 286.971 373.67 283.809C373.639 280.771 376.15 278.601 379.932 278.601C382.226 278.601 384.489 279.407 386.256 280.585L384.427 283.809C382.97 282.91 381.296 282.383 379.932 282.383C378.816 282.383 378.041 282.786 378.041 283.344C378.041 284.212 378.692 284.46 380.862 285.049C383.621 285.762 386.69 286.692 386.69 290.195C386.69 293.357 384.117 295.372 380.18 295.372ZM395.74 295.372C393.167 295.372 390.439 294.504 388.517 292.954L390.47 289.823C391.896 290.846 393.694 291.621 395.833 291.621C397.042 291.621 397.91 291.125 397.91 290.412C397.91 289.42 396.732 289.11 395.089 288.676C391.803 287.87 389.261 286.971 389.23 283.809C389.199 280.771 391.71 278.601 395.492 278.601C397.786 278.601 400.049 279.407 401.816 280.585L399.987 283.809C398.53 282.91 396.856 282.383 395.492 282.383C394.376 282.383 393.601 282.786 393.601 283.344C393.601 284.212 394.252 284.46 396.422 285.049C399.181 285.762 402.25 286.692 402.25 290.195C402.25 293.357 399.677 295.372 395.74 295.372ZM412.851 291.373C414.122 291.373 415.672 290.784 416.54 289.947L419.423 292.892C417.997 294.38 415.238 295.372 412.882 295.372C408.108 295.372 404.388 291.869 404.388 286.94C404.388 282.104 407.953 278.601 412.634 278.601C417.656 278.601 420.601 282.414 420.601 288.459H409.038C409.565 290.195 410.96 291.373 412.851 291.373ZM412.82 282.6C411.115 282.6 409.689 283.592 409.1 285.204H416.261C415.827 283.623 414.649 282.6 412.82 282.6ZM137.578 312.973H142.135V327.295C142.135 331.418 138.57 334.332 133.517 334.332C130.696 334.332 128.03 333.433 126.449 332.193L128.03 329C129.084 329.93 130.944 330.519 132.804 330.519C135.718 330.519 137.578 329.186 137.578 327.109V325.342C136.307 326.892 134.385 327.822 132.277 327.822C128.247 327.822 125.178 324.66 125.178 320.196C125.178 315.732 128.247 312.601 132.277 312.601C134.447 312.601 136.493 313.624 137.578 315.143V312.973ZM133.703 324.009C135.966 324.009 137.578 322.428 137.578 320.196C137.578 317.964 135.966 316.414 133.703 316.414C131.44 316.414 129.828 317.964 129.828 320.196C129.828 322.428 131.44 324.009 133.703 324.009ZM146.116 329V307.331H150.642V329H146.116ZM161.753 312.601C165.938 312.601 168.79 315.236 168.79 319.421V329H164.419V327.388C163.272 328.69 161.443 329.372 159.707 329.372C156.297 329.372 153.662 327.326 153.662 324.257C153.662 321.095 156.607 318.925 160.327 318.925C161.629 318.925 163.055 319.204 164.419 319.731V319.421C164.419 317.716 163.365 316.228 160.73 316.228C159.242 316.228 157.847 316.724 156.576 317.375L155.057 314.368C157.32 313.221 159.521 312.601 161.753 312.601ZM160.73 326.241C162.466 326.241 164.109 325.435 164.419 323.947V322.459C163.396 322.087 162.218 321.87 160.978 321.87C159.335 321.87 158.033 322.831 158.033 324.133C158.033 325.435 159.18 326.241 160.73 326.241ZM178.619 329.372C176.046 329.372 173.318 328.504 171.396 326.954L173.349 323.823C174.775 324.846 176.573 325.621 178.712 325.621C179.921 325.621 180.789 325.125 180.789 324.412C180.789 323.42 179.611 323.11 177.968 322.676C174.682 321.87 172.14 320.971 172.109 317.809C172.078 314.771 174.589 312.601 178.371 312.601C180.665 312.601 182.928 313.407 184.695 314.585L182.866 317.809C181.409 316.91 179.735 316.383 178.371 316.383C177.255 316.383 176.48 316.786 176.48 317.344C176.48 318.212 177.131 318.46 179.301 319.049C182.06 319.762 185.129 320.692 185.129 324.195C185.129 327.357 182.556 329.372 178.619 329.372ZM194.18 329.372C191.607 329.372 188.879 328.504 186.957 326.954L188.91 323.823C190.336 324.846 192.134 325.621 194.273 325.621C195.482 325.621 196.35 325.125 196.35 324.412C196.35 323.42 195.172 323.11 193.529 322.676C190.243 321.87 187.701 320.971 187.67 317.809C187.639 314.771 190.15 312.601 193.932 312.601C196.226 312.601 198.489 313.407 200.256 314.585L198.427 317.809C196.97 316.91 195.296 316.383 193.932 316.383C192.816 316.383 192.041 316.786 192.041 317.344C192.041 318.212 192.692 318.46 194.862 319.049C197.621 319.762 200.69 320.692 200.69 324.195C200.69 327.357 198.117 329.372 194.18 329.372ZM211.29 325.373C212.561 325.373 214.111 324.784 214.979 323.947L217.862 326.892C216.436 328.38 213.677 329.372 211.321 329.372C206.547 329.372 202.827 325.869 202.827 320.94C202.827 316.104 206.392 312.601 211.073 312.601C216.095 312.601 219.04 316.414 219.04 322.459H207.477C208.004 324.195 209.399 325.373 211.29 325.373ZM211.259 316.6C209.554 316.6 208.128 317.592 207.539 319.204H214.7C214.266 317.623 213.088 316.6 211.259 316.6ZM228.116 329.372C225.543 329.372 222.815 328.504 220.893 326.954L222.846 323.823C224.272 324.846 226.07 325.621 228.209 325.621C229.418 325.621 230.286 325.125 230.286 324.412C230.286 323.42 229.108 323.11 227.465 322.676C224.179 321.87 221.637 320.971 221.606 317.809C221.575 314.771 224.086 312.601 227.868 312.601C230.162 312.601 232.425 313.407 234.192 314.585L232.363 317.809C230.906 316.91 229.232 316.383 227.868 316.383C226.752 316.383 225.977 316.786 225.977 317.344C225.977 318.212 226.628 318.46 228.798 319.049C231.557 319.762 234.626 320.692 234.626 324.195C234.626 327.357 232.053 329.372 228.116 329.372ZM249.629 307.331H254.155V329H249.629V326.706C248.358 328.38 246.498 329.372 244.235 329.372C239.957 329.372 236.857 325.9 236.857 320.971C236.857 316.073 239.957 312.601 244.235 312.601C246.498 312.601 248.358 313.593 249.629 315.267V307.331ZM245.537 325.559C247.924 325.559 249.629 323.668 249.629 320.971C249.629 318.305 247.924 316.414 245.537 316.414C243.026 316.414 241.259 318.305 241.259 320.971C241.259 323.668 243.026 325.559 245.537 325.559ZM266.001 329.372C261.227 329.372 257.228 325.528 257.228 320.971C257.228 316.414 261.227 312.601 266.001 312.601C270.744 312.601 274.712 316.414 274.712 320.971C274.712 325.528 270.744 329.372 266.001 329.372ZM266.001 325.559C268.388 325.559 270.403 323.451 270.403 320.971C270.403 318.491 268.388 316.414 266.001 316.414C263.583 316.414 261.568 318.491 261.568 320.971C261.568 323.451 263.583 325.559 266.001 325.559ZM286.207 325.032L287.292 327.977C286.362 328.814 284.905 329.372 283.603 329.372C280.782 329.372 278.798 327.357 278.798 324.474V316.631H276.597V312.973H278.798V308.571H283.138V312.973H286.61V316.631H283.138V323.761C283.138 324.815 283.82 325.559 284.657 325.559C285.277 325.559 285.897 325.342 286.207 325.032ZM297.97 329.372C293.227 329.372 289.228 325.528 289.228 320.971C289.228 316.414 293.258 312.601 298.001 312.601C300.605 312.601 302.744 313.655 304.294 315.329L301.287 317.902C300.481 317.003 299.21 316.414 297.97 316.414C295.614 316.414 293.63 318.491 293.63 320.94C293.63 323.451 295.614 325.559 298.001 325.559C299.241 325.559 300.543 324.939 301.38 324.009L304.387 326.551C302.806 328.287 300.636 329.372 297.97 329.372ZM314.651 329.372C309.877 329.372 305.878 325.528 305.878 320.971C305.878 316.414 309.877 312.601 314.651 312.601C319.394 312.601 323.362 316.414 323.362 320.971C323.362 325.528 319.394 329.372 314.651 329.372ZM314.651 325.559C317.038 325.559 319.053 323.451 319.053 320.971C319.053 318.491 317.038 316.414 314.651 316.414C312.233 316.414 310.218 318.491 310.218 320.971C310.218 323.451 312.233 325.559 314.651 325.559ZM345.489 312.601C348.837 312.601 351.41 315.174 351.41 318.801V329.031H347.07V319.576C347.07 317.716 345.892 316.414 344.218 316.414C342.42 316.414 341.118 317.623 341.118 319.328V329.031H336.778V319.576C336.778 317.716 335.6 316.414 333.957 316.414C332.128 316.414 330.857 317.623 330.857 319.328V329H326.331V312.973H330.857V315.081C331.632 313.562 333.213 312.601 335.197 312.601C337.398 312.601 339.289 313.717 340.281 315.515C341.118 313.748 343.102 312.601 345.489 312.601ZM357.787 329.372C356.175 329.372 354.904 328.07 354.904 326.489C354.904 325.032 356.175 323.73 357.787 323.73C359.306 323.73 360.546 325.032 360.546 326.489C360.546 328.07 359.306 329.372 357.787 329.372ZM372.049 329.372C367.306 329.372 363.307 325.528 363.307 320.971C363.307 316.414 367.337 312.601 372.08 312.601C374.684 312.601 376.823 313.655 378.373 315.329L375.366 317.902C374.56 317.003 373.289 316.414 372.049 316.414C369.693 316.414 367.709 318.491 367.709 320.94C367.709 323.451 369.693 325.559 372.08 325.559C373.32 325.559 374.622 324.939 375.459 324.009L378.466 326.551C376.885 328.287 374.715 329.372 372.049 329.372ZM388.73 329.372C383.956 329.372 379.957 325.528 379.957 320.971C379.957 316.414 383.956 312.601 388.73 312.601C393.473 312.601 397.441 316.414 397.441 320.971C397.441 325.528 393.473 329.372 388.73 329.372ZM388.73 325.559C391.117 325.559 393.132 323.451 393.132 320.971C393.132 318.491 391.117 316.414 388.73 316.414C386.312 316.414 384.297 318.491 384.297 320.971C384.297 323.451 386.312 325.559 388.73 325.559ZM419.568 312.601C422.916 312.601 425.489 315.174 425.489 318.801V329.031H421.149V319.576C421.149 317.716 419.971 316.414 418.297 316.414C416.499 316.414 415.197 317.623 415.197 319.328V329.031H410.857V319.576C410.857 317.716 409.679 316.414 408.036 316.414C406.207 316.414 404.936 317.623 404.936 319.328V329H400.41V312.973H404.936V315.081C405.711 313.562 407.292 312.601 409.276 312.601C411.477 312.601 413.368 313.717 414.36 315.515C415.197 313.748 417.181 312.601 419.568 312.601ZM133.145 346.601C137.33 346.601 140.182 349.236 140.182 353.421V363H135.811V361.388C134.664 362.69 132.835 363.372 131.099 363.372C127.689 363.372 125.054 361.326 125.054 358.257C125.054 355.095 127.999 352.925 131.719 352.925C133.021 352.925 134.447 353.204 135.811 353.731V353.421C135.811 351.716 134.757 350.228 132.122 350.228C130.634 350.228 129.239 350.724 127.968 351.375L126.449 348.368C128.712 347.221 130.913 346.601 133.145 346.601ZM132.122 360.241C133.858 360.241 135.501 359.435 135.811 357.947V356.459C134.788 356.087 133.61 355.87 132.37 355.87C130.727 355.87 129.425 356.831 129.425 358.133C129.425 359.435 130.572 360.241 132.122 360.241ZM164.466 341.083L159.878 345.175H156.809L160.405 340.339L164.466 341.083ZM160.219 359.373C161.49 359.373 163.04 358.784 163.908 357.947L166.791 360.892C165.365 362.38 162.606 363.372 160.25 363.372C155.476 363.372 151.756 359.869 151.756 354.94C151.756 350.104 155.321 346.601 160.002 346.601C165.024 346.601 167.969 350.414 167.969 356.459H156.406C156.933 358.195 158.328 359.373 160.219 359.373ZM160.188 350.6C158.483 350.6 157.057 351.592 156.468 353.204H163.629C163.195 351.623 162.017 350.6 160.188 350.6ZM179.463 359.032L180.548 361.977C179.618 362.814 178.161 363.372 176.859 363.372C174.038 363.372 172.054 361.357 172.054 358.474V350.631H169.853V346.973H172.054V342.571H176.394V346.973H179.866V350.631H176.394V357.761C176.394 358.815 177.076 359.559 177.913 359.559C178.533 359.559 179.153 359.342 179.463 359.032ZM195.193 341.083L190.605 345.175H187.536L191.132 340.339L195.193 341.083ZM190.946 359.373C192.217 359.373 193.767 358.784 194.635 357.947L197.518 360.892C196.092 362.38 193.333 363.372 190.977 363.372C186.203 363.372 182.483 359.869 182.483 354.94C182.483 350.104 186.048 346.601 190.729 346.601C195.751 346.601 198.696 350.414 198.696 356.459H187.133C187.66 358.195 189.055 359.373 190.946 359.373ZM190.915 350.6C189.21 350.6 187.784 351.592 187.195 353.204H194.356C193.922 351.623 192.744 350.6 190.915 350.6ZM217.981 359.373C219.252 359.373 220.802 358.784 221.67 357.947L224.553 360.892C223.127 362.38 220.368 363.372 218.012 363.372C213.238 363.372 209.518 359.869 209.518 354.94C209.518 350.104 213.083 346.601 217.764 346.601C222.786 346.601 225.731 350.414 225.731 356.459H214.168C214.695 358.195 216.09 359.373 217.981 359.373ZM217.95 350.6C216.245 350.6 214.819 351.592 214.23 353.204H221.391C220.957 351.623 219.779 350.6 217.95 350.6ZM243.89 363H239.023L235.551 358.164L232.048 363H227.274L233.164 354.847L227.522 346.973H232.42L235.613 351.437L238.837 346.973H243.611L238 354.754L243.89 363ZM256.24 346.601C260.518 346.601 263.618 350.073 263.618 354.971C263.618 359.9 260.518 363.372 256.24 363.372C254.008 363.372 252.148 362.411 250.877 360.737V368.332H246.351V346.973H250.877V349.205C252.148 347.562 254.008 346.601 256.24 346.601ZM254.938 359.559C257.449 359.559 259.216 357.668 259.216 354.971C259.216 352.305 257.449 350.414 254.938 350.414C252.737 350.414 251.125 352.026 250.877 354.351V355.591C251.125 357.947 252.737 359.559 254.938 359.559ZM274.69 363.372C269.916 363.372 265.917 359.528 265.917 354.971C265.917 350.414 269.916 346.601 274.69 346.601C279.433 346.601 283.401 350.414 283.401 354.971C283.401 359.528 279.433 363.372 274.69 363.372ZM274.69 359.559C277.077 359.559 279.092 357.451 279.092 354.971C279.092 352.491 277.077 350.414 274.69 350.414C272.272 350.414 270.257 352.491 270.257 354.971C270.257 357.451 272.272 359.559 274.69 359.559ZM292.477 363.372C289.904 363.372 287.176 362.504 285.254 360.954L287.207 357.823C288.633 358.846 290.431 359.621 292.57 359.621C293.779 359.621 294.647 359.125 294.647 358.412C294.647 357.42 293.469 357.11 291.826 356.676C288.54 355.87 285.998 354.971 285.967 351.809C285.936 348.771 288.447 346.601 292.229 346.601C294.523 346.601 296.786 347.407 298.553 348.585L296.724 351.809C295.267 350.91 293.593 350.383 292.229 350.383C291.113 350.383 290.338 350.786 290.338 351.344C290.338 352.212 290.989 352.46 293.159 353.049C295.918 353.762 298.987 354.692 298.987 358.195C298.987 361.357 296.414 363.372 292.477 363.372ZM313.835 341.083L309.247 345.175H306.178L309.774 340.339L313.835 341.083ZM309.588 359.373C310.859 359.373 312.409 358.784 313.277 357.947L316.16 360.892C314.734 362.38 311.975 363.372 309.619 363.372C304.845 363.372 301.125 359.869 301.125 354.94C301.125 350.104 304.69 346.601 309.371 346.601C314.393 346.601 317.338 350.414 317.338 356.459H305.775C306.302 358.195 307.697 359.373 309.588 359.373ZM309.557 350.6C307.852 350.6 306.426 351.592 305.837 353.204H312.998C312.564 351.623 311.386 350.6 309.557 350.6Z" fill="black"/>
<path d="M195.828 195H158.31C156.482 195 155 196.482 155 198.31V198.31C155 200.139 156.482 201.621 158.31 201.621H195.828C197.656 201.621 199.138 200.139 199.138 198.31C199.138 196.482 197.656 195 195.828 195Z" fill="#592ACB"/>
<path d="M248.794 195H211.276C209.448 195 207.966 196.482 207.966 198.31V198.31C207.966 200.139 209.448 201.621 211.276 201.621H248.794C250.622 201.621 252.104 200.139 252.104 198.31C252.104 196.482 250.622 195 248.794 195Z" fill="#592ACB"/>
<path d="M386.724 195H264.241C262.413 195 260.931 196.482 260.931 198.31V198.31C260.931 200.139 262.413 201.621 264.241 201.621H386.724C388.552 201.621 390.034 200.139 390.034 198.31C390.034 196.482 388.552 195 386.724 195Z" fill="#D9BFFF"/>
<path d="M439.69 195H402.172C400.344 195 398.862 196.482 398.862 198.31V198.31C398.862 200.139 400.344 201.621 402.172 201.621H439.69C441.518 201.621 443 200.139 443 198.31C443 196.482 441.518 195 439.69 195Z" fill="#9E9E9E"/>
<path d="M471 388H128C125.791 388 124 389.791 124 392V424C124 426.209 125.791 428 128 428H471C473.209 428 475 426.209 475 424V392C475 389.791 473.209 388 471 388Z" fill="#592ACB"/>
<path d="M228.348 412H226.218L223.788 408.535H221.793V412H219.918V401.695H224.403C226.608 401.695 228.258 403.105 228.258 405.115C228.258 406.675 227.253 407.875 225.768 408.34L228.348 412ZM221.793 403.42V406.81H224.193C225.468 406.81 226.353 406.165 226.353 405.115C226.353 404.065 225.468 403.42 224.193 403.42H221.793ZM235.442 401.425L233.252 403.375H231.977L233.732 401.095L235.442 401.425ZM233.507 410.56C234.227 410.56 235.082 410.23 235.517 409.78L236.672 410.98C235.997 411.7 234.647 412.18 233.522 412.18C231.302 412.18 229.472 410.485 229.472 408.1C229.472 405.775 231.212 404.065 233.417 404.065C235.817 404.065 237.212 405.88 237.212 408.745H231.362C231.587 409.81 232.397 410.56 233.507 410.56ZM233.492 405.685C232.472 405.685 231.647 406.33 231.377 407.35H235.457C235.247 406.375 234.587 405.685 233.492 405.685ZM241.663 412.18C240.478 412.18 239.203 411.76 238.273 411.01L239.098 409.735C239.848 410.275 240.718 410.635 241.693 410.635C242.428 410.635 242.938 410.32 242.938 409.84C242.938 409.24 242.263 409.045 241.378 408.805C239.698 408.37 238.633 407.89 238.618 406.51C238.618 405.055 239.818 404.065 241.543 404.065C242.608 404.065 243.673 404.44 244.513 404.995L243.748 406.33C243.013 405.865 242.218 405.625 241.543 405.625C240.898 405.625 240.403 405.88 240.403 406.315C240.403 406.81 240.808 406.96 241.993 407.305C243.298 407.665 244.708 408.115 244.708 409.735C244.708 411.22 243.478 412.18 241.663 412.18ZM250.048 412.18C247.798 412.18 245.893 410.32 245.893 408.115C245.893 405.91 247.798 404.065 250.048 404.065C252.298 404.065 254.203 405.91 254.203 408.115C254.203 410.32 252.298 412.18 250.048 412.18ZM250.048 410.62C251.323 410.62 252.403 409.48 252.403 408.115C252.403 406.765 251.323 405.625 250.048 405.625C248.758 405.625 247.678 406.765 247.678 408.115C247.678 409.48 248.758 410.62 250.048 410.62ZM261.041 404.245H262.871V412H261.041V410.965C260.561 411.685 259.661 412.18 258.641 412.18C256.946 412.18 255.761 410.935 255.761 409.18V404.245H257.531V408.82C257.531 409.87 258.206 410.62 259.166 410.62C260.126 410.62 260.921 409.975 261.041 409.15V404.245ZM270.782 401.515H272.612V412H270.782V410.8C270.167 411.67 269.237 412.18 268.097 412.18C266.042 412.18 264.542 410.5 264.542 408.115C264.542 405.745 266.042 404.065 268.097 404.065C269.237 404.065 270.167 404.575 270.782 405.445V401.515ZM268.592 410.62C269.882 410.62 270.782 409.57 270.782 408.115C270.782 406.66 269.882 405.625 268.592 405.625C267.287 405.625 266.357 406.66 266.357 408.115C266.357 409.57 267.287 410.62 268.592 410.62ZM276.547 405.745C277.042 404.71 278.047 404.065 279.322 404.065V405.625C277.657 405.625 276.547 406.615 276.547 408.085V412H274.717V404.245H276.547V405.745ZM284.293 410.56C285.013 410.56 285.868 410.23 286.303 409.78L287.458 410.98C286.783 411.7 285.433 412.18 284.308 412.18C282.088 412.18 280.258 410.485 280.258 408.1C280.258 405.775 281.998 404.065 284.203 404.065C286.603 404.065 287.998 405.88 287.998 408.745H282.148C282.373 409.81 283.183 410.56 284.293 410.56ZM284.278 405.685C283.258 405.685 282.433 406.33 282.163 407.35H286.243C286.033 406.375 285.373 405.685 284.278 405.685ZM293.833 412V401.515H295.663V412H293.833ZM301.3 410.56C302.02 410.56 302.875 410.23 303.31 409.78L304.465 410.98C303.79 411.7 302.44 412.18 301.315 412.18C299.095 412.18 297.265 410.485 297.265 408.1C297.265 405.775 299.005 404.065 301.21 404.065C303.61 404.065 305.005 405.88 305.005 408.745H299.155C299.38 409.81 300.19 410.56 301.3 410.56ZM301.285 405.685C300.265 405.685 299.44 406.33 299.17 407.35H303.25C303.04 406.375 302.38 405.685 301.285 405.685ZM315.414 404.065C317.469 404.065 318.969 405.745 318.969 408.115C318.969 410.5 317.469 412.18 315.414 412.18C314.259 412.18 313.329 411.655 312.714 410.77V414.58H310.884V404.245H312.714V405.475C313.329 404.59 314.259 404.065 315.414 404.065ZM314.919 410.62C316.224 410.62 317.154 409.57 317.154 408.115C317.154 406.66 316.224 405.625 314.919 405.625C313.629 405.625 312.729 406.66 312.729 408.115C312.729 409.57 313.629 410.62 314.919 410.62ZM322.5 405.745C322.995 404.71 324 404.065 325.275 404.065V405.625C323.61 405.625 322.5 406.615 322.5 408.085V412H320.67V404.245H322.5V405.745ZM330.19 412.18C327.94 412.18 326.035 410.32 326.035 408.115C326.035 405.91 327.94 404.065 330.19 404.065C332.44 404.065 334.345 405.91 334.345 408.115C334.345 410.32 332.44 412.18 330.19 412.18ZM330.19 410.62C331.465 410.62 332.545 409.48 332.545 408.115C332.545 406.765 331.465 405.625 330.19 405.625C328.9 405.625 327.82 406.765 327.82 408.115C327.82 409.48 328.9 410.62 330.19 410.62ZM340.507 404.065C342.562 404.065 344.062 405.745 344.062 408.115C344.062 410.5 342.562 412.18 340.507 412.18C339.352 412.18 338.422 411.655 337.807 410.77V412H335.977V401.515H337.807V405.475C338.422 404.59 339.352 404.065 340.507 404.065ZM340.012 410.62C341.317 410.62 342.247 409.57 342.247 408.115C342.247 406.66 341.317 405.625 340.012 405.625C338.722 405.625 337.822 406.66 337.822 408.115C337.822 409.57 338.722 410.62 340.012 410.62ZM345.717 412V401.515H347.547V412H345.717ZM354.37 403.375H353.095L350.905 401.425L352.615 401.095L354.37 403.375ZM353.185 410.56C353.905 410.56 354.76 410.23 355.195 409.78L356.35 410.98C355.675 411.7 354.325 412.18 353.2 412.18C350.98 412.18 349.15 410.485 349.15 408.1C349.15 405.775 350.89 404.065 353.095 404.065C355.495 404.065 356.89 405.88 356.89 408.745H351.04C351.265 409.81 352.075 410.56 353.185 410.56ZM353.17 405.685C352.15 405.685 351.325 406.33 351.055 407.35H355.135C354.925 406.375 354.265 405.685 353.17 405.685ZM367.431 404.065C369.051 404.065 370.266 405.31 370.266 407.065V412H368.481V407.365C368.481 406.345 367.866 405.625 366.981 405.625C365.976 405.625 365.286 406.3 365.286 407.245V412H363.501V407.365C363.501 406.345 362.886 405.625 361.986 405.625C360.996 405.625 360.291 406.3 360.291 407.245V412H358.461V404.245H360.291V405.295C360.681 404.545 361.476 404.065 362.451 404.065C363.546 404.065 364.446 404.62 364.926 405.535C365.301 404.635 366.276 404.065 367.431 404.065ZM375.861 410.56C376.581 410.56 377.436 410.23 377.871 409.78L379.026 410.98C378.351 411.7 377.001 412.18 375.876 412.18C373.656 412.18 371.826 410.485 371.826 408.1C371.826 405.775 373.566 404.065 375.771 404.065C378.171 404.065 379.566 405.88 379.566 408.745H373.716C373.941 409.81 374.751 410.56 375.861 410.56ZM375.846 405.685C374.826 405.685 374.001 406.33 373.731 407.35H377.811C377.601 406.375 376.941 405.685 375.846 405.685Z" fill="white"/>
</g>
<path d="M286.179 220V210.37H292.15V211.621H287.632V214.555H291.723V215.801H287.632V220H286.179ZM297.947 217.005V212.777H299.358V220H297.975V218.749H297.9C297.566 219.52 296.828 220.094 295.742 220.094C294.355 220.094 293.372 219.163 293.372 217.371V212.777H294.778V217.202C294.778 218.185 295.38 218.815 296.25 218.815C297.04 218.815 297.952 218.232 297.947 217.005ZM301.247 220V212.777H302.653V220H301.247ZM301.957 211.663C301.468 211.663 301.068 211.287 301.068 210.826C301.068 210.365 301.468 209.984 301.957 209.984C302.441 209.984 302.846 210.365 302.846 210.826C302.846 211.287 302.441 211.663 301.957 211.663ZM307.916 212.777V213.906H306.435V217.879C306.435 218.693 306.844 218.843 307.3 218.843C307.525 218.843 307.699 218.801 307.793 218.782L308.047 219.944C307.883 220.005 307.582 220.089 307.135 220.094C306.025 220.118 305.024 219.483 305.029 218.171V213.906H303.971V212.777H305.029V211.047H306.435V212.777H307.916ZM312.506 220.146C310.376 220.146 309.069 218.679 309.069 216.436C309.069 214.216 310.395 212.683 312.408 212.683C314.044 212.683 315.605 213.704 315.605 216.313V216.812H310.47C310.508 218.204 311.317 218.984 312.52 218.984C313.32 218.984 313.931 218.636 314.185 217.955L315.516 218.194C315.196 219.37 314.082 220.146 312.506 220.146ZM310.475 215.759H314.227C314.223 214.654 313.508 213.845 312.417 213.845C311.274 213.845 310.531 214.734 310.475 215.759ZM323.373 220.141C321.619 220.141 320.354 218.74 320.354 216.403C320.354 214.061 321.638 212.683 323.382 212.683C324.727 212.683 325.207 213.502 325.461 213.948H325.545V210.37H326.951V220H325.578V218.876H325.461C325.207 219.337 324.69 220.141 323.373 220.141ZM323.683 218.942C324.897 218.942 325.569 217.908 325.569 216.389C325.569 214.879 324.911 213.878 323.683 213.878C322.414 213.878 321.774 214.955 321.774 216.389C321.774 217.837 322.428 218.942 323.683 218.942ZM332.071 220.146C329.941 220.146 328.634 218.679 328.634 216.436C328.634 214.216 329.96 212.683 331.972 212.683C333.609 212.683 335.17 213.704 335.17 216.313V216.812H330.035C330.072 218.204 330.881 218.984 332.085 218.984C332.884 218.984 333.496 218.636 333.75 217.955L335.08 218.194C334.761 219.37 333.646 220.146 332.071 220.146ZM330.04 215.759H333.792C333.787 214.654 333.072 213.845 331.982 213.845C330.839 213.845 330.096 214.734 330.04 215.759ZM340.234 220V212.777H341.583V213.953H341.673C341.974 213.158 342.684 212.683 343.638 212.683C344.602 212.683 345.265 213.163 345.58 213.953H345.656C346.004 213.182 346.784 212.683 347.823 212.683C349.13 212.683 350.052 213.506 350.052 215.157V220H348.646V215.288C348.646 214.31 348.035 213.897 347.292 213.897C346.375 213.897 345.844 214.527 345.844 215.397V220H344.442V215.199C344.442 214.414 343.902 213.897 343.121 213.897C342.322 213.897 341.64 214.574 341.64 215.547V220H340.234ZM354.979 220.146C352.943 220.146 351.612 218.655 351.612 216.422C351.612 214.174 352.943 212.683 354.979 212.683C357.015 212.683 358.346 214.174 358.346 216.422C358.346 218.655 357.015 220.146 354.979 220.146ZM354.984 218.966C356.305 218.966 356.926 217.804 356.926 216.417C356.926 215.034 356.305 213.859 354.984 213.859C353.653 213.859 353.032 215.034 353.032 216.417C353.032 217.804 353.653 218.966 354.984 218.966ZM363.286 212.777V213.906H361.805V217.879C361.805 218.693 362.214 218.843 362.67 218.843C362.896 218.843 363.07 218.801 363.164 218.782L363.418 219.944C363.254 220.005 362.953 220.089 362.506 220.094C361.396 220.118 360.395 219.483 360.399 218.171V213.906H359.341V212.777H360.399V211.047H361.805V212.777H363.286ZM370.138 214.541L368.863 214.766C368.699 214.282 368.294 213.798 367.42 213.798C366.62 213.798 366.018 214.193 366.023 214.748C366.018 215.237 366.362 215.505 367.156 215.693L368.304 215.956C369.63 216.262 370.279 216.892 370.279 217.912C370.279 219.219 369.07 220.146 367.326 220.146C365.703 220.146 364.641 219.426 364.406 218.147L365.764 217.94C365.934 218.65 366.475 219.013 367.316 219.013C368.238 219.013 368.835 218.575 368.835 218.016C368.835 217.564 368.511 217.254 367.815 217.099L366.592 216.831C365.238 216.53 364.617 215.848 364.617 214.823C364.617 213.544 365.774 212.683 367.406 212.683C368.967 212.683 369.846 213.417 370.138 214.541ZM292.209 240.141C290.455 240.141 289.19 238.74 289.19 236.403C289.19 234.061 290.474 232.683 292.219 232.683C293.563 232.683 294.043 233.502 294.297 233.948H294.382V230.37H295.788V240H294.415V238.876H294.297C294.043 239.337 293.526 240.141 292.209 240.141ZM292.52 238.942C293.733 238.942 294.405 237.908 294.405 236.389C294.405 234.879 293.747 233.878 292.52 233.878C291.25 233.878 290.611 234.955 290.611 236.389C290.611 237.837 291.264 238.942 292.52 238.942ZM300.907 240.146C298.777 240.146 297.47 238.679 297.47 236.436C297.47 234.216 298.796 232.683 300.808 232.683C302.445 232.683 304.006 233.704 304.006 236.313V236.812H298.871C298.909 238.204 299.717 238.984 300.921 238.984C301.721 238.984 302.332 238.636 302.586 237.955L303.917 238.194C303.597 239.37 302.482 240.146 300.907 240.146ZM298.876 235.759H302.628C302.623 234.654 301.909 233.845 300.818 233.845C299.675 233.845 298.932 234.734 298.876 235.759ZM309.07 242.708V232.777H310.443V233.948H310.561C310.81 233.502 311.294 232.683 312.634 232.683C314.379 232.683 315.667 234.061 315.667 236.403C315.667 238.74 314.398 240.141 312.649 240.141C311.332 240.141 310.815 239.337 310.561 238.876H310.476V242.708H309.07ZM310.448 236.389C310.448 237.908 311.125 238.942 312.333 238.942C313.589 238.942 314.247 237.837 314.247 236.389C314.247 234.955 313.608 233.878 312.333 233.878C311.106 233.878 310.448 234.879 310.448 236.389ZM319.344 240.16C317.971 240.16 316.904 239.379 316.904 237.959C316.904 236.318 318.305 235.961 319.674 235.801C320.971 235.65 321.498 235.66 321.498 235.147V235.114C321.498 234.296 321.033 233.821 320.125 233.821C319.18 233.821 318.653 234.315 318.446 234.828L317.125 234.527C317.595 233.21 318.799 232.683 320.106 232.683C321.254 232.683 322.909 233.102 322.909 235.204V240H321.536V239.013H321.479C321.211 239.553 320.539 240.16 319.344 240.16ZM319.65 239.031C320.821 239.031 321.503 238.251 321.503 237.395V236.464C321.301 236.666 320.219 236.788 319.763 236.85C318.949 236.958 318.282 237.226 318.282 237.978C318.282 238.674 318.855 239.031 319.65 239.031ZM330.194 234.541L328.919 234.766C328.755 234.282 328.35 233.798 327.476 233.798C326.676 233.798 326.074 234.193 326.079 234.748C326.074 235.237 326.418 235.505 327.212 235.693L328.36 235.956C329.686 236.262 330.335 236.892 330.335 237.912C330.335 239.219 329.126 240.146 327.382 240.146C325.759 240.146 324.697 239.426 324.462 238.147L325.821 237.94C325.99 238.65 326.531 239.013 327.372 239.013C328.294 239.013 328.891 238.575 328.891 238.016C328.891 237.564 328.567 237.254 327.871 237.099L326.648 236.831C325.294 236.53 324.673 235.848 324.673 234.823C324.673 233.544 325.83 232.683 327.462 232.683C329.023 232.683 329.902 233.417 330.194 234.541ZM337.293 234.541L336.018 234.766C335.854 234.282 335.449 233.798 334.575 233.798C333.775 233.798 333.174 234.193 333.178 234.748C333.174 235.237 333.517 235.505 334.312 235.693L335.459 235.956C336.785 236.262 337.434 236.892 337.434 237.912C337.434 239.219 336.225 240.146 334.481 240.146C332.859 240.146 331.796 239.426 331.561 238.147L332.92 237.94C333.089 238.65 333.63 239.013 334.471 239.013C335.393 239.013 335.99 238.575 335.99 238.016C335.99 237.564 335.666 237.254 334.97 237.099L333.747 236.831C332.393 236.53 331.772 235.848 331.772 234.823C331.772 233.544 332.929 232.683 334.561 232.683C336.122 232.683 337.001 233.417 337.293 234.541ZM342.092 240.146C339.962 240.146 338.655 238.679 338.655 236.436C338.655 234.216 339.981 232.683 341.994 232.683C343.63 232.683 345.191 233.704 345.191 236.313V236.812H340.056C340.094 238.204 340.903 238.984 342.107 238.984C342.906 238.984 343.517 238.636 343.771 237.955L345.102 238.194C344.782 239.37 343.668 240.146 342.092 240.146ZM340.061 235.759H343.813C343.809 234.654 343.094 233.845 342.003 233.845C340.86 233.845 340.118 234.734 340.061 235.759ZM350.665 235.185C350.665 232.829 351.295 230.864 352.489 229.19H353.777C352.851 230.431 352.122 232.951 352.122 235.185C352.122 237.423 352.851 239.944 353.777 241.185H352.489C351.295 239.511 350.665 237.545 350.665 235.185ZM355.241 240V238.947L358.5 235.571C359.534 234.475 360.042 233.864 360.042 233.013C360.042 232.053 359.299 231.451 358.321 231.451C357.282 231.451 356.614 232.129 356.619 233.163H355.232C355.232 231.404 356.548 230.238 358.349 230.238C360.164 230.238 361.424 231.423 361.424 232.97C361.424 234.047 360.921 234.898 359.158 236.68L357.244 238.683V238.754H361.58V240H355.241ZM366.084 235.19C366.084 237.545 365.454 239.511 364.26 241.185H362.971C363.898 239.944 364.627 237.423 364.627 235.19C364.627 232.951 363.898 230.431 362.971 229.19H364.26C365.454 230.864 366.084 232.829 366.084 235.19Z" fill="#592ACB"/>
</g>
<defs>
<linearGradient id="paint0_linear_10_2145" x1="536.816" y1="137.926" x2="536.816" y2="229.576" gradientUnits="userSpaceOnUse">
<stop stop-color="#8060FE"/>
<stop offset="1" stop-color="#626BFA"/>
</linearGradient>
<linearGradient id="paint1_linear_10_2145" x1="192.726" y1="91.1285" x2="174.795" y2="122.183" gradientUnits="userSpaceOnUse">
<stop stop-color="#FF980E"/>
<stop offset="0.21" stop-color="#FF7139"/>
<stop offset="0.36" stop-color="#FF5854"/>
<stop offset="0.46" stop-color="#FF4F5E"/>
<stop offset="0.69" stop-color="#FF3750"/>
<stop offset="0.86" stop-color="#F92261"/>
<stop offset="1" stop-color="#F5156C"/>
</linearGradient>
<linearGradient id="paint2_linear_10_2145" x1="192.726" y1="91.1285" x2="174.795" y2="122.183" gradientUnits="userSpaceOnUse">
<stop stop-color="#FFF44F" stop-opacity="0.8"/>
<stop offset="0.09" stop-color="#FFF44F" stop-opacity="0.7"/>
<stop offset="0.75" stop-color="#FFF44F" stop-opacity="0"/>
</linearGradient>
<linearGradient id="paint3_linear_10_2145" x1="194.178" y1="127.181" x2="194.178" y2="88.7048" gradientUnits="userSpaceOnUse">
<stop stop-color="#3A8EE6"/>
<stop offset="0.24" stop-color="#5C79F0"/>
<stop offset="0.63" stop-color="#9059FF"/>
<stop offset="1" stop-color="#C139E6"/>
</linearGradient>
<linearGradient id="paint4_linear_10_2145" x1="187.637" y1="88.5656" x2="203.627" y2="104.556" gradientUnits="userSpaceOnUse">
<stop stop-color="#6E008B" stop-opacity="0.5"/>
<stop offset="0.5" stop-color="#C846CB" stop-opacity="0"/>
</linearGradient>
<linearGradient id="paint5_linear_10_2145" x1="202.121" y1="108.347" x2="194.611" y2="115.856" gradientUnits="userSpaceOnUse">
<stop offset="0.14" stop-color="#6A2BEA" stop-opacity="0"/>
<stop offset="0.34" stop-color="#642DE4" stop-opacity="0.03"/>
<stop offset="0.55" stop-color="#5131D3" stop-opacity="0.12"/>
<stop offset="0.76" stop-color="#3139B7" stop-opacity="0.27"/>
<stop offset="0.98" stop-color="#054490" stop-opacity="0.48"/>
<stop offset="1" stop-color="#00458B" stop-opacity="0.5"/>
</linearGradient>
<linearGradient id="paint6_linear_10_2145" x1="190.074" y1="114.805" x2="192.251" y2="117.401" gradientUnits="userSpaceOnUse">
<stop stop-color="#960E18" stop-opacity="0.6"/>
<stop offset="0.19" stop-color="#AC1624" stop-opacity="0.48"/>
<stop offset="0.58" stop-color="#E42C41" stop-opacity="0.16"/>
<stop offset="0.75" stop-color="#FF3750" stop-opacity="0"/>
</linearGradient>
<clipPath id="clip0_10_2145">
<rect width="620" height="450" fill="white"/>
</clipPath>
</defs>
</svg>
