<svg xmlns="http://www.w3.org/2000/svg" viewBox="0 0 66.3 90"><path fill="none" d="M18.2 31c3.6 0 6.4-2.9 6.4-6.4s-2.9-6.4-6.4-6.4c-3.6 0-6.4 2.9-6.4 6.4 0 3.6 2.9 6.4 6.4 6.4zm-4-5.8c.4-.4 1.1-.4 1.5 0l1 .9 3.8-5.4c.3-.5 1-.6 1.5-.3s.6 1 .3 1.5l-4.6 6.4c-.2.3-.5.4-.8.4h-.1c-.3 0-.6-.1-.8-.3l-1.8-1.7c-.4-.4-.4-1 0-1.5z"/><path fill="none" d="M62.1 16.4h-7.9c-2.3 0-4.2-1.9-4.2-4.2v-8H4.3v81.4h57.9l-.1-69.2zM39.4 31.5c.3.5.2 1.1-.2 1.5l-15 10.7c-.3.2-.7.3-1 .1l-5.9-2-6 4c-.2.1-.4.2-.6.2-.6 0-1.1-.4-1.1-1 0-.4.2-.8.5-1l6.4-4.3c.3-.2.6-.2.9-.1l5.9 2 14.6-10.4c.5-.3 1.2-.2 1.5.3zM18.2 16c4.7 0 8.6 3.8 8.6 8.6s-3.8 8.6-8.6 8.6-8.6-3.8-8.6-8.6c0-4.7 3.9-8.6 8.6-8.6zm16.1 53.6H10.7c-.6 0-1.1-.5-1.1-1.1s.5-1.1 1.1-1.1h23.6c.6 0 1.1.5 1.1 1.1-.1.6-.5 1.1-1.1 1.1zm21.4-4.3h-45c-.6-.1-1-.6-1-1.2 0-.5.5-.9 1-1h45c.6.1 1 .6 1 1.2-.1.6-.5 1-1 1zm0-4.3h-45c-.6 0-1.1-.5-1.1-1.1s.5-1.1 1.1-1.1h45c.6 0 1.1.5 1.1 1.1 0 .7-.5 1.1-1.1 1.1zm0-4.2h-45c-.6-.1-1-.6-1-1.2 0-.5.5-.9 1-1h45c.6.1 1 .6 1 1.2-.1.5-.5.9-1 1zm0-4.3h-45c-.6 0-1.1-.5-1.1-1.1s.5-1.1 1.1-1.1h45c.6 0 1.1.5 1.1 1.1s-.5 1.1-1.1 1.1z"/><path fill="none" d="M54.2 14.2h7.6l-9.6-9.6v7.6c0 1.1.9 2 2 2z"/><g fill="#7542E5"><path d="M55.7 50.3h-45c-.6 0-1.1.5-1.1 1.1s.5 1.1 1.1 1.1h45c.6 0 1.1-.5 1.1-1.1s-.5-1.1-1.1-1.1zM55.7 54.6h-45c-.6.1-1 .6-1 1.2 0 .5.5.9 1 1h45c.6-.1 1-.6 1-1.2-.1-.5-.5-.9-1-1zM55.7 58.9h-45c-.6 0-1.1.5-1.1 1.1s.5 1.1 1.1 1.1h45c.6 0 1.1-.5 1.1-1.1s-.5-1.1-1.1-1.1zM55.7 63.2h-45c-.6.1-1 .6-1 1.2 0 .5.5.9 1 1h45c.6-.1 1-.6 1-1.2-.1-.6-.5-1-1-1zM34.3 67.5H10.7c-.6 0-1.1.5-1.1 1.1s.5 1.1 1.1 1.1h23.6c.6 0 1.1-.5 1.1-1.1-.1-.7-.5-1.1-1.1-1.1z"/><path d="M2.1 90h62.1c1.2 0 2.1-1 2.1-2.1v-75L53.6 0H2.1C.9 0 0 1 0 2.1v85.7C0 89 .9 90 2.1 90zM52.2 4.6l9.6 9.6h-7.6c-1.1 0-2-.9-2-2V4.6zM4.3 4.3H50v8c0 2.3 1.9 4.1 4.2 4.1h8v69.3H4.3V4.3z"/><path d="M16.1 28.6c.2.2.5.3.8.3h.1c.3 0 .6-.2.8-.4l4.6-6.4c.3-.5.2-1.2-.3-1.5s-1.2-.2-1.5.3l-3.8 5.4-1-.9c-.4-.4-1.1-.4-1.5 0-.4.4-.4 1.1 0 1.5l1.8 1.7zM17.5 39.7c-.3-.1-.7-.1-1 .1l-6.4 4.3c-.5.3-.7.9-.4 1.5.2.4.6.6 1 .5.2 0 .4-.1.6-.2l6-4 5.9 2c.3.1.7.1 1-.1l15-10.8c.5-.3.6-1 .2-1.5-.3-.5-1-.6-1.5-.2L23.4 41.6l-5.9-1.9z"/><path d="M18.2 33.2c4.7 0 8.6-3.8 8.6-8.6S23 16 18.2 16s-8.6 3.8-8.6 8.6 3.9 8.6 8.6 8.6zm0-15c3.6 0 6.4 2.9 6.4 6.4S21.7 31 18.2 31s-6.4-2.9-6.4-6.4 2.9-6.4 6.4-6.4z"/></g></svg>