<svg xmlns="http://www.w3.org/2000/svg" viewBox="0 0 95.8 72.7"><path fill="none" d="M50 25.9c.6-1.9 1.6-3.6 2.9-5.1 1.5-1.3 3.2-2.3 5.1-2.8-1.9-.6-3.6-1.6-5.1-2.9-1.3-1.5-2.3-3.2-2.9-5.1-.6 1.9-1.6 3.6-2.9 5.1-1.5 1.3-3.2 2.3-5.1 2.9 1.9.6 3.6 1.6 5.1 2.8 1.3 1.5 2.3 3.2 2.9 5.1zM34.1 8c.2-.4.4-.8.7-1.1s.7-.6 1.1-.7c-.8-.3-1.5-1-1.8-1.8-.2.4-.4.8-.7 1.1s-.7.6-1.1.7c.8.3 1.4 1 1.8 1.8zM31.6 32.8c.2-.3.4-.6.6-.8.3-.2.5-.5.8-.6-.3-.2-.6-.4-.8-.6-.2-.2-.5-.5-.6-.8-.2.3-.4.6-.6.8-.2.2-.5.5-.8.6.3.2.6.4.8.6.2.2.4.5.6.8zM57.9 56.3h2.5l1 2.3a16.1 16.1 0 0021 8.5 16.1 16.1 0 008.5-21 16.1 16.1 0 00-21-8.5c-4.3 1.8-7.6 5.4-9 9.9l-.8 2.6h-2.8v6.2h.6zm18.2-16c6.7 0 12.1 5.4 12.1 12.1s-5.4 12.1-12.1 12.1S64 59.1 64 52.4s5.5-12.1 12.1-12.1zM3.5 53.2c0 1.7 1.4 3.1 3.1 3.1h40.2v-6.2H6.6c-1.7.1-3.1 1.4-3.1 3.1z"/><circle fill="none" cx="76.1" cy="52.4" r="10.2"/><g fill="#7542E5"><path d="M19.5 60.3v9.4c0 .5-.4 1-1 1s-1-.4-1-1V64c0-.5-.4-.9-.9-.9s-.9.4-.9.9v1.6h-4.4V64c0-.5-.4-.9-.9-.9s-.9.4-.9.9v5.7c0 .5-.4 1-.9 1-.6 0-1-.4-1-1v-9.4-.2h-1c-.3 0-.6 0-.9-.1V69.7c-.1 1.6 1.1 2.9 2.7 3 1.6.1 2.9-1.1 3-2.7v-2.5h4.4v2.2c0 1.6 1.3 2.8 2.8 2.8 1.6 0 2.8-1.3 2.8-2.8v-9.4-.2h-1.9c-.1.1 0 .1 0 .2zM46.8 56.3H6.6c-1.7.1-3.2-1.2-3.3-2.9s1.2-3.2 2.9-3.3H46.9v-3.8H6.6c-3.8.1-6.8 3.3-6.6 7.1.1 3.6 3 6.5 6.6 6.6h40.3l-.1-3.7zM76.1 32.6c-8.6 0-16.2 5.6-18.8 13.7v3.8h2.8l.8-2.6c2.7-8.4 11.7-13.1 20.1-10.4s13.1 11.7 10.4 20.1-11.7 13.1-20.1 10.4c-4.4-1.4-8-4.7-9.9-9l-1-2.3h-3.1v3.8h.6c4.3 10 15.9 14.7 25.9 10.5s14.7-15.9 10.5-25.9c-3.1-7.3-10.2-12.1-18.2-12.1z"/><path d="M76.1 64.5c6.7 0 12.1-5.4 12.1-12.1s-5.4-12.1-12.1-12.1S64 45.7 64 52.4c0 6.7 5.5 12.1 12.1 12.1zm0-22.3c5.6 0 10.2 4.6 10.2 10.2s-4.6 10.2-10.2 10.2S65.9 58 65.9 52.4c0-5.7 4.6-10.2 10.2-10.2zM57.3 56.3v-10c0-1.5-1.2-2.7-2.6-2.7-1.2 0-2.3.8-2.6 2-.4-1.4-1.8-2.3-3.2-1.9-1.2.3-2 1.3-2 2.6v13.8c0 1.5 1.2 2.6 2.7 2.6 1.2 0 2.3-.8 2.6-2 .3 1.4 1.8 2.3 3.2 2 1.2-.3 2.1-1.4 2-2.6l-.1-3.8zm-7 3.8c0 .4-.4.8-.8.8s-.8-.3-.8-.8V46.4c0-.4.4-.8.8-.8s.8.3.8.8v13.7zm5.2 0c0 .4-.4.7-.9.7-.4 0-.6-.3-.7-.7V46.4c0-.4.4-.7.9-.7.4 0 .6.3.7.7v13.7zM48.1 33.6c.1.9.9 1.6 1.8 1.6s1.7-.7 1.8-1.6c.5-3 2-8.5 3.7-10.2s7.1-3.1 10.1-3.6c1-.2 1.7-1.1 1.5-2.2-.1-.8-.8-1.4-1.5-1.5-3-.5-8.3-2-10.1-3.7s-3.2-7.1-3.7-10.1c-.2-.9-.9-1.6-1.8-1.6s-1.7.7-1.8 1.6c-.5 3-1.9 8.3-3.6 10s-7.2 3.2-10.2 3.7c-1 .2-1.7 1.1-1.5 2.2.1.8.8 1.4 1.5 1.5 3 .5 8.4 1.9 10.2 3.6s3.1 7.3 3.6 10.3zM47.2 15c1.3-1.5 2.3-3.2 2.9-5.1.6 1.9 1.6 3.6 2.9 5.1 1.5 1.3 3.2 2.3 5.1 2.9-1.9.6-3.6 1.6-5.1 2.8-1.3 1.5-2.3 3.2-2.9 5.1-.6-1.9-1.6-3.6-2.9-5.1-1.5-1.3-3.2-2.3-5.1-2.8 1.8-.6 3.6-1.6 5.1-2.9zM22.5 31.4c0 .9.7 1.7 1.6 1.8 1.6.3 3.7.9 4.2 1.4.8 1.3 1.2 2.7 1.4 4.2.1.9.9 1.6 1.8 1.6s1.8-.6 1.9-1.6c.2-1.5.7-2.9 1.5-4.2 1.3-.8 2.7-1.2 4.2-1.4.9-.1 1.6-.9 1.6-1.8s-.6-1.7-1.6-1.9c-1.5-.2-2.9-.7-4.2-1.5-.7-1.3-1.2-2.7-1.4-4.2-.2-.9-.9-1.5-1.8-1.5s-1.7.7-1.8 1.6c-.2 1.5-.9 3.7-1.4 4.2-1.3.8-2.7 1.3-4.2 1.5-1.1 0-1.8.8-1.8 1.8zm8.5-.7c.2-.2.5-.5.6-.8.2.3.4.6.6.8.3.2.5.5.8.6-.3.2-.6.4-.8.6-.2.2-.5.5-.6.8-.2-.3-.4-.6-.7-.8-.2-.2-.5-.5-.8-.6.4-.2.6-.4.9-.6zM32 8.2c.6 1 1 2.1 1.1 3.2.1.5.5.8.9.8.5 0 .8-.3.9-.8.2-1.1.6-2.2 1.2-3.2 1-.6 2.1-1 3.2-1.1.5-.1.9-.6.8-1.1-.1-.4-.4-.7-.8-.8-1.1-.2-2.2-.6-3.2-1.2-.6-1-1-2.1-1.2-3.2-.1-.4-.5-.8-.9-.8-.5 0-.9.3-.9.8C33 1.9 32.6 3 32 4c-1 .6-2.1 1-3.2 1.2-.5.1-.9.6-.8 1.1.1.4.4.7.8.8 1.1.1 2.2.5 3.2 1.1zm1.3-2.8c.3-.3.6-.7.7-1.1.3.8 1 1.5 1.8 1.8-.4.2-.8.4-1.1.7s-.6.7-.7 1.1c-.3-.8-1-1.5-1.8-1.8.4-.1.8-.4 1.1-.7z"/></g></svg>