<svg xmlns="http://www.w3.org/2000/svg" viewBox="0 0 84 57.2"><path fill="none" d="M14.8 51.1L2.5 53.2v1.6h79.1v-1.6l-12.4-2.1H14.8zm31.5 3.1h-8.5c-.3 0-.6-.3-.6-.6s.3-.6.6-.6h8.5c.3 0 .6.3.6.6s-.3.6-.6.6zM70.6 9.1H13.4V7.9h57.2V6.1H13.4v39h57.2v-36zM28.4 26.3l-.6 1c-.1.1-.1.1-.2.1s-.1 0-.2-.1l-1.3-1 .2 1.6c0 .1 0 .1-.1.2s-.1.1-.2.1h-1.2c-.1 0-.1-.1-.2-.1-.1-.1-.1-.1-.1-.2l.2-1.6-1.3 1c-.1.1-.3.1-.4-.1l-.6-1V26c0-.1.1-.1.1-.1l1.5-.6-1.5-.6c-.1 0-.1-.1-.1-.2v-.2l.6-1c.1-.1.3-.2.4-.1h.1l1.3 1-.2-1.6c0-.1 0-.1.1-.2s.1-.1.2-.1h1.2c.1 0 .1.1.2.1.1.1.1.1.1.2l-.2 1.6 1.3-1c.1-.1.1-.1.2-.1s.1.1.2.1l.6 1v.2c0 .1-.1.1-.1.1l-1.5.6 1.5.6c.1 0 .1.1.1.1-.1.3-.1.4-.1.5zm2.5 4.1c-.6 0-1.2-.5-1.1-1.2 0-.6.5-1.2 1.2-1.1.6 0 1.1.5 1.2 1.2-.2.6-.7 1.1-1.3 1.1zm8.3-4.1l-.6 1c-.1.1-.1.1-.2.1s-.1 0-.2-.1l-1.3-1 .2 1.6c0 .1 0 .1-.1.2s-.1.1-.2.1h-1.2c-.1 0-.3-.1-.3-.3v-.1l.2-1.6-1.3 1c-.1.1-.1.1-.2.1s0 0 0-.1l-.6-1V26c0-.1.1-.1.1-.1l1.5-.6-1.4-.6c-.1 0-.1-.1-.1-.2v-.2l.6-1c.1-.1.1-.1.2-.1s.1 0 .2.1l1.3 1-.2-1.6c0-.1 0-.1.1-.2s.1-.1.2-.1H37c.1 0 .1.1.2.1.1.1.1.1.1.2l-.3 1.4 1.3-1c.1-.1.1-.1.2-.1s.1.1.2.1l.6 1c.1.1 0 .3-.1.4l-1.5.6 1.5.6c.1 0 .1.1.1.1 0 .3 0 .4-.1.5zm2.5 4.1c-.6 0-1.2-.5-1.1-1.2 0-.6.5-1.2 1.2-1.1.6 0 1.1.5 1.2 1.2-.2.6-.7 1.1-1.3 1.1zm8.3-4.1l-.6 1c-.1.1-.1.1-.2.1s-.1 0-.2-.1l-1.3-1L48 28c0 .1 0 .1-.1.2s-.1.1-.2.1h-1.2c-.1 0-.3-.1-.3-.3v-.1l.2-1.6-1.3 1c-.1.1-.1.1-.2.1s-.1-.1-.2-.1l-.6-1v-.2c0-.1.1-.1.1-.1l1.5-.6-1.5-.6c-.1 0-.1-.1-.1-.2v-.2l.6-1c.1-.1.1-.1.2-.1s.1 0 .2.1l1.3 1-.2-1.6c0-.1 0-.1.1-.2s.1-.1.2-.1h1.2c.1 0 .1.1.2.1.1.1.1.1.1.2l-.2 1.6 1.3-1c.1-.1.1-.1.2-.1s.1.1.2.1l.6 1c.1.1.1.3-.1.4h-.1l-1.5.6 1.5.6c.1-.1.1 0 .1 0 .1.1.1.2 0 .3zm2.5 4.1c-.6 0-1.2-.5-1.1-1.2 0-.6.5-1.2 1.2-1.1.6 0 1.1.5 1.1 1.2-.1.6-.6 1.1-1.2 1.1zm8.3-4.1l-.6 1c-.1.1-.1.1-.2.1s-.1 0-.2-.1l-1.3-1 .2 1.6c0 .1 0 .1-.1.2s-.1.1-.2.1h-1.2c-.1 0-.1 0-.2-.1s-.1-.1-.1-.2l.2-1.6-1.3 1c-.1.1-.1.1-.2.1s-.1-.1-.2-.1l-.6-1v-.2c0-.1.1-.1.1-.1l1.5-.6-1.5-.6c-.1 0-.1-.1-.1-.2v-.2l.6-1c.1-.1.1-.1.2-.1s.1 0 .2.1l1.3 1-.2-1.6c0-.1 0-.1.1-.2s.1-.1.2-.1h1.2c.1 0 .1.1.2.1.1.1.1.1.1.2l-.2 1.6 1.3-1c.1-.1.1-.1.2-.1s.1.1.2.1l.6 1v.2c0 .1-.1.1-.1.1l-1.5.6 1.5.6c.1 0 .1.1.1.1v.3z"/><path fill="none" d="M73.1 48.7c.6 0 1.2-.5 1.2-1.2V3.6c0-.6-.5-1.2-1.2-1.2H10.9c-.6 0-1.2.5-1.2 1.2v43.8c0 .6.6 1.2 1.2 1.2l62.2.1zm-59.7-2.4c-.6 0-1.2-.5-1.2-1.2v-39c0-.6.5-1.2 1.2-1.2h57.2c.6 0 1.2.6 1.2 1.2v39c0 .6-.5 1.2-1.2 1.2H13.4z"/><g fill="#7542E5"><path d="M76.7 47.4V3.6c0-2-1.6-3.6-3.6-3.6H10.9c-2 0-3.6 1.6-3.6 3.6v43.8c0 .8.3 1.7.8 2.3L0 51.1v6.1h84v-6.1l-8.2-1.4c.6-.6.9-1.4.9-2.3zm-65.8 1.3c-.6 0-1.2-.5-1.2-1.2V3.6c0-.6.5-1.2 1.2-1.2H73c.6 0 1.2.5 1.2 1.2v43.8c0 .6-.6 1.2-1.2 1.2l-62.1.1zm70.6 6h-79v-1.6L14.9 51h54.4l12.4 2.1v1.6z"/><path d="M71.8 45V6c0-.6-.5-1.2-1.2-1.2H13.4c-.6 0-1.2.6-1.2 1.2v39c0 .6.5 1.2 1.2 1.2h57.2c.7.1 1.2-.5 1.2-1.2zM13.4 6.1h57.2v1.8H13.4v1.2h57.2V45H13.4V6.1zM46.3 52.9h-8.5c-.3 0-.6.3-.6.6s.3.6.6.6h8.5c.3 0 .6-.3.6-.6s-.3-.6-.6-.6z"/><path d="M48.4 25.3l1.5-.6c.1-.1.2-.2.1-.3v-.1l-.6-1c-.1-.1-.1-.1-.2-.1s-.1 0-.2.1l-1.3 1 .2-1.6c0-.1 0-.1-.1-.2s-.1-.1-.2-.1h-1.2c-.1 0-.1.1-.2.1-.1.1-.1.1-.1.2l.2 1.6-1.3-1c-.1-.1-.1-.1-.2-.1s-.1.1-.2.1l-.6 1v.2c0 .1.1.1.1.2l1.5.6-1.3.7c-.1 0-.1.1-.1.1v.2l.6 1c.1.1.1.1.2.1s.1 0 .2-.1l1.3-1-.2 1.7c0 .1.1.3.2.3h1.3c.1 0 .1-.1.2-.1.1-.1.1-.1.1-.2l-.2-1.6 1.3 1c.1.1.1.1.2.1s.1-.1.2-.1l.6-1v-.2c0-.1-.1-.1-.1-.1l-1.7-.8zM37.6 25.3l1.5-.6c.1-.1.2-.2.1-.4l-.6-1c-.1-.1-.1-.1-.2-.1s-.1 0-.2.1l-1.3 1 .2-1.6c0-.1 0-.1-.1-.2s-.1-.1-.2-.1h-1.2c-.1 0-.1.1-.2.1-.1.1-.1.1-.1.2l.2 1.6-1.3-1c-.1-.1-.1-.1-.2-.1s-.1.1-.2.1l-.6 1v.2c0 .1.1.1.1.2l1.5.6-1.3.7c-.1 0-.1.1-.1.1v.2l.6 1c.1.1.1.1.2.1s.1 0 .2-.1l1.3-1-.2 1.7c0 .1.1.3.2.3H37c.1 0 .1-.1.2-.1.1-.1.1-.1.1-.2l-.3-1.5 1.3 1c.1.1.1.1.2.1s.1-.1.2-.1l.6-1v-.2c0-.1-.1-.1-.1-.1l-1.6-.9zM26.8 25.3l1.5-.6c.1 0 .1-.1.1-.1v-.2l-.6-1c-.1-.1-.1-.1-.2-.1s-.1 0-.2.1l-1.3 1 .2-1.6c0-.1 0-.1-.1-.2s-.1-.1-.2-.1h-1.2c-.1 0-.1.1-.2.1-.1.1-.1.1-.1.2l.2 1.6-1.3-1c-.1-.1-.3-.1-.4.1v.1l-.6 1v.2c0 .1.1.1.1.2l1.5.6-1.5.6c-.1 0-.1.1-.1.1v.2l.6 1c.1.1.3.2.4.1l1.3-1-.2 1.6c0 .1 0 .1.1.2s.1.1.2.1H26c.1 0 .1-.1.2-.1.1-.1.1-.1.1-.2l-.2-1.6 1.3 1c.1.1.1.1.2.1s.1-.1.2-.1l.6-1v-.2c0-.1-.1-.1-.1-.1l-1.5-1zM59.2 25.3l1.5-.6c.1 0 .1-.1.1-.1v-.2l-.6-1c-.1-.1-.1-.1-.2-.1s-.1 0-.2.1l-1.3 1 .2-1.6c0-.1 0-.1-.1-.2s-.1-.1-.2-.1h-1.2c-.1 0-.1.1-.2.1-.1.1-.1.1-.1.2l.2 1.6-1.3-1c-.1-.1-.1-.1-.2-.1s-.1.1-.2.1l-.6 1v.2c0 .1.1.1.1.2l1.5.6-1.3.6c-.1 0-.1.1-.1.1v.2l.6 1c.1.1.1.1.2.1s.1 0 .2-.1l1.3-1-.2 1.6c0 .1 0 .1.1.2s.1.1.2.1h1.2c.1 0 .1-.1.2-.1.1-.1.1-.1.1-.2l-.2-1.6 1.3 1c.1.1.1.1.2.1s.1-.1.2-.1l.6-1v-.2c0-.1-.2-.1-.3-.1l-1.5-.7z"/><circle cx="30.9" cy="29.3" r="1.2"/><circle cx="41.7" cy="29.3" r="1.2"/><circle cx="52.5" cy="29.3" r="1.2"/></g></svg>