<svg xmlns="http://www.w3.org/2000/svg" xmlns:xlink="http://www.w3.org/1999/xlink" viewBox="0 0 2054 611"><defs><linearGradient id="a" x1="698" y1="-233.04" x2="697.83" y2="-233.07" gradientTransform="translate(-1333831.31 142234.83) scale(1911.93 608.83)" gradientUnits="userSpaceOnUse"><stop offset="0" stop-color="#592acb"/><stop offset="1" stop-color="#312a65"/></linearGradient><linearGradient id="b" x1="697.66" y1="-232.63" x2="697.78" y2="-232.63" gradientTransform="translate(-1432994 76286.08) scale(2054 325.79)" gradientUnits="userSpaceOnUse"><stop offset="0" stop-color="#9059ff"/><stop offset="1" stop-color="#b739c6"/></linearGradient><linearGradient id="c" x1="698.42" y1="-232.78" x2="698.66" y2="-232.78" gradientTransform="translate(-1432994 76286.08) scale(2054 325.79)" gradientUnits="userSpaceOnUse"><stop offset="0" stop-color="#ff8748"/><stop offset="0.13" stop-color="#fe7852"/><stop offset="0.5" stop-color="#fc546a"/><stop offset="0.81" stop-color="#fa3d79"/><stop offset="1" stop-color="#fa357f"/></linearGradient></defs><title>landing-opacity2</title><path d="M2054,611H1449.2a906.2,906.2,0,0,0,272.3-374.4C1776.7,95,1910.3,6.1,2054,0ZM0,611V192A900.38,900.38,0,0,0,284.7,611Z" fill="#312a65" opacity="0.78" style="isolation:isolate"/><path d="M0,611V2.2A906.34,906.34,0,0,0,142.4,315.9,916.48,916.48,0,0,0,489.3,611Zm1297.5,0a903,903,0,0,0,115.8-68.3c159.1-110.3,376.1-78.5,498.6,68.3Z" opacity="0.56" fill="url(#a)" style="isolation:isolate"/><path d="M0,611V386.8A1158,1158,0,0,0,125.8,517.9a1172.7,1172.7,0,0,0,119,93.1Z" fill="url(#b)"/><path d="M2054,610.6H1555.3A1148.66,1148.66,0,0,0,1756,435.5c80.3-88.4,187.2-139,298-150.7Z" fill="url(#c)"/></svg>