<svg width="2054" height="611" xmlns="http://www.w3.org/2000/svg">
  <defs>
    <linearGradient x1="37.554%" y1="52.295%" x2="20.41%" y2="48.646%" id="a">
      <stop stop-color="#592ACB" offset="0%"/>
      <stop stop-color="#312A65" offset="100%"/>
    </linearGradient>
    <linearGradient x1="0%" y1="36.092%" x2="100%" y2="36.092%" id="b">
      <stop stop-color="#9059FF" offset="0%"/>
      <stop stop-color="#E31587" offset="100%"/>
    </linearGradient>
  </defs>
  <g fill="none">
    <path d="M2054 611h-604.78c118.04-96.268 213.418-223.11 272.324-374.413C1776.666 95.006 1910.264 6.058 2054 0v611zM0 611V191.96C52.165 353.894 150.023 500.19 284.688 611H0z" fill="#312A65"/>
    <path d="M0 611V2.168c26.083 109.38 73.202 215.893 142.374 313.692C234.578 446.224 354.874 545.434 489.3 611H0zm1297.493 0c39.682-19.595 78.39-42.327 115.796-68.255 159.106-110.284 376.056-78.476 498.644 68.255h-614.44z" fill="url(#a)"/>
    <path d="M2054 611h-498.679c72.06-49.396 139.506-107.784 200.679-175.083 80.314-88.358 187.202-138.974 298-150.707V611zM0 611V386.758c37.818 46.2 79.76 90.085 125.797 131.149C163.91 551.9 203.668 582.927 244.785 611H0z" fill="url(#b)"/>
  </g>
</svg>
