<svg width="600" height="450" viewBox="0 0 600 450" fill="none" xmlns="http://www.w3.org/2000/svg">
<rect width="600" height="450" rx="15" fill="#ECDFFF"/>
<g filter="url(#filter0_d_1092_11480)">
<g clip-path="url(#clip0_1092_11480)">
<rect x="46" y="46" width="507.821" height="358.053" rx="5.95103" fill="white"/>
<rect width="525.674" height="28.7633" transform="translate(40.0491 42.0332)" fill="#C9C3D2"/>
<circle cx="57.3644" cy="57.3651" r="3.09949" fill="#592ACB"/>
<circle cx="67.6961" cy="57.3651" r="3.09949" fill="#592ACB"/>
<circle cx="78.0277" cy="57.3651" r="3.09949" fill="#592ACB"/>
<path d="M110.321 248H104.802L99.6441 240.674H96.0632V248H91.2339V225.431H101.385C106.28 225.431 109.894 228.584 109.894 233.052C109.894 236.403 107.857 239.031 104.769 240.115L110.321 248ZM96.0632 229.866V236.239H100.86C103.258 236.239 104.9 234.991 104.9 233.052C104.9 231.114 103.258 229.866 100.86 229.866H96.0632ZM121.383 244.156C122.73 244.156 124.373 243.532 125.293 242.645L128.348 245.766C126.837 247.343 123.913 248.394 121.416 248.394C116.357 248.394 112.415 244.682 112.415 239.458C112.415 234.334 116.193 230.621 121.153 230.621C126.476 230.621 129.596 234.662 129.596 241.068H117.343C117.901 242.908 119.379 244.156 121.383 244.156ZM121.351 234.859C119.544 234.859 118.033 235.91 117.408 237.619H124.997C124.537 235.943 123.289 234.859 121.351 234.859ZM141.153 248.394C136.127 248.394 131.889 244.321 131.889 239.491C131.889 234.662 136.159 230.621 141.186 230.621C143.945 230.621 146.212 231.738 147.855 233.512L144.668 236.239C143.814 235.286 142.467 234.662 141.153 234.662C138.656 234.662 136.554 236.863 136.554 239.458C136.554 242.119 138.656 244.353 141.186 244.353C142.5 244.353 143.88 243.696 144.767 242.711L147.953 245.405C146.278 247.244 143.978 248.394 141.153 248.394ZM160.662 230.621C164.342 230.621 166.97 233.348 166.97 237.192V248H162.338V238.21C162.338 236.108 161.024 234.662 159.118 234.662C157.114 234.662 155.57 236.108 155.57 237.947V248H150.774V225.036H155.57V233.085C156.621 231.607 158.494 230.621 160.662 230.621ZM179.035 244.156C180.382 244.156 182.025 243.532 182.944 242.645L186 245.766C184.488 247.343 181.565 248.394 179.068 248.394C174.009 248.394 170.066 244.682 170.066 239.458C170.066 234.334 173.844 230.621 178.805 230.621C184.127 230.621 187.248 234.662 187.248 241.068H174.994C175.553 242.908 177.031 244.156 179.035 244.156ZM179.002 234.859C177.195 234.859 175.684 235.91 175.06 237.619H182.649C182.189 235.943 180.94 234.859 179.002 234.859ZM195.289 234.169C196.406 231.968 198.509 230.621 201.104 230.621V234.662C197.556 234.662 195.289 236.699 195.289 239.886V248H190.493V231.015H195.289V234.169ZM212.183 248.394C207.156 248.394 202.918 244.321 202.918 239.491C202.918 234.662 207.189 230.621 212.216 230.621C214.975 230.621 217.242 231.738 218.885 233.512L215.698 236.239C214.844 235.286 213.497 234.662 212.183 234.662C209.686 234.662 207.583 236.863 207.583 239.458C207.583 242.119 209.686 244.353 212.216 244.353C213.53 244.353 214.909 243.696 215.796 242.711L218.983 245.405C217.308 247.244 215.008 248.394 212.183 248.394ZM231.692 230.621C235.371 230.621 238 233.348 238 237.192V248H233.367V238.21C233.367 236.108 232.053 234.662 230.148 234.662C228.144 234.662 226.6 236.108 226.6 237.947V248H221.804V225.036H226.6V233.085C227.651 231.607 229.524 230.621 231.692 230.621ZM250.065 244.156C251.412 244.156 253.054 243.532 253.974 242.645L257.029 245.766C255.518 247.343 252.594 248.394 250.098 248.394C245.038 248.394 241.096 244.682 241.096 239.458C241.096 234.334 244.874 230.621 249.835 230.621C255.157 230.621 258.278 234.662 258.278 241.068H246.024C246.582 242.908 248.061 244.156 250.065 244.156ZM250.032 234.859C248.225 234.859 246.714 235.91 246.09 237.619H253.679C253.219 235.943 251.97 234.859 250.032 234.859ZM283.379 225.036H288.176V248H283.379V245.569C282.032 247.343 280.061 248.394 277.663 248.394C273.129 248.394 269.844 244.715 269.844 239.491C269.844 234.301 273.129 230.621 277.663 230.621C280.061 230.621 282.032 231.673 283.379 233.447V225.036ZM279.043 244.353C281.572 244.353 283.379 242.349 283.379 239.491C283.379 236.666 281.572 234.662 279.043 234.662C276.382 234.662 274.509 236.666 274.509 239.491C274.509 242.349 276.382 244.353 279.043 244.353ZM300.402 244.156C301.749 244.156 303.391 243.532 304.311 242.645L307.366 245.766C305.855 247.343 302.931 248.394 300.435 248.394C295.375 248.394 291.433 244.682 291.433 239.458C291.433 234.334 295.211 230.621 300.172 230.621C305.494 230.621 308.615 234.662 308.615 241.068H296.361C296.919 242.908 298.398 244.156 300.402 244.156ZM300.369 234.859C298.562 234.859 297.051 235.91 296.427 237.619H304.015C303.555 235.943 302.307 234.859 300.369 234.859ZM103.783 260.036H108.58V283H103.783V280.569C102.437 282.343 100.465 283.394 98.0672 283.394C93.5336 283.394 90.2484 279.715 90.2484 274.491C90.2484 269.301 93.5336 265.621 98.0672 265.621C100.465 265.621 102.437 266.673 103.783 268.447V260.036ZM99.447 279.353C101.977 279.353 103.783 277.349 103.783 274.491C103.783 271.666 101.977 269.662 99.447 269.662C96.7859 269.662 94.9134 271.666 94.9134 274.491C94.9134 277.349 96.7859 279.353 99.447 279.353ZM121.134 283.394C116.075 283.394 111.837 279.321 111.837 274.491C111.837 269.662 116.075 265.621 121.134 265.621C126.161 265.621 130.366 269.662 130.366 274.491C130.366 279.321 126.161 283.394 121.134 283.394ZM121.134 279.353C123.664 279.353 125.799 277.119 125.799 274.491C125.799 271.863 123.664 269.662 121.134 269.662C118.572 269.662 116.437 271.863 116.437 274.491C116.437 277.119 118.572 279.353 121.134 279.353ZM143.434 265.621C147.114 265.621 149.742 268.348 149.742 272.192V283H145.11V273.21C145.11 271.108 143.795 269.662 141.89 269.662C139.886 269.662 138.342 271.108 138.342 272.947L138.309 272.849V283H133.513V266.015H138.309V268.151C139.328 266.607 141.233 265.621 143.434 265.621ZM163.614 265.621C167.293 265.621 169.921 268.348 169.921 272.192V283H165.289V273.21C165.289 271.108 163.975 269.662 162.07 269.662C160.066 269.662 158.522 271.108 158.522 272.947L158.489 272.849V283H153.692V266.015H158.489V268.151C159.507 266.607 161.413 265.621 163.614 265.621ZM186.487 259.774L181.625 264.11H178.373L182.184 258.985L186.487 259.774ZM181.987 279.156C183.333 279.156 184.976 278.532 185.896 277.645L188.951 280.766C187.44 282.343 184.516 283.394 182.019 283.394C176.96 283.394 173.018 279.682 173.018 274.458C173.018 269.334 176.796 265.621 181.757 265.621C187.079 265.621 190.2 269.662 190.2 276.068H177.946C178.504 277.908 179.983 279.156 181.987 279.156ZM181.954 269.859C180.147 269.859 178.636 270.91 178.011 272.619H185.6C185.14 270.943 183.892 269.859 181.954 269.859ZM201.46 279.156C202.807 279.156 204.45 278.532 205.37 277.645L208.425 280.766C206.914 282.343 203.99 283.394 201.493 283.394C196.434 283.394 192.492 279.682 192.492 274.458C192.492 269.334 196.27 265.621 201.23 265.621C206.552 265.621 209.673 269.662 209.673 276.068H197.42C197.978 277.908 199.456 279.156 201.46 279.156ZM201.428 269.859C199.621 269.859 198.109 270.91 197.485 272.619H205.074C204.614 270.943 203.366 269.859 201.428 269.859ZM219.292 283.394C216.565 283.394 213.674 282.474 211.637 280.832L213.707 277.514C215.218 278.598 217.123 279.419 219.39 279.419C220.671 279.419 221.591 278.893 221.591 278.138C221.591 277.087 220.343 276.758 218.602 276.298C215.119 275.444 212.426 274.491 212.393 271.14C212.36 267.921 215.021 265.621 219.029 265.621C221.46 265.621 223.858 266.475 225.731 267.724L223.792 271.14C222.248 270.188 220.474 269.629 219.029 269.629C217.846 269.629 217.025 270.056 217.025 270.648C217.025 271.567 217.715 271.83 220.014 272.454C222.938 273.21 226.191 274.196 226.191 277.908C226.191 281.259 223.464 283.394 219.292 283.394ZM246.6 279.156C247.947 279.156 249.589 278.532 250.509 277.645L253.565 280.766C252.053 282.343 249.13 283.394 246.633 283.394C241.574 283.394 237.631 279.682 237.631 274.458C237.631 269.334 241.409 265.621 246.37 265.621C251.692 265.621 254.813 269.662 254.813 276.068H242.559C243.118 277.908 244.596 279.156 246.6 279.156ZM246.567 269.859C244.76 269.859 243.249 270.91 242.625 272.619H250.214C249.754 270.943 248.505 269.859 246.567 269.859ZM274.057 283H268.899L265.22 277.875L261.507 283H256.448L262.69 274.36L256.711 266.015H261.902L265.285 270.746L268.702 266.015H273.761L267.815 274.261L274.057 283ZM287.145 265.621C291.679 265.621 294.964 269.301 294.964 274.491C294.964 279.715 291.679 283.394 287.145 283.394C284.78 283.394 282.809 282.376 281.462 280.602V288.651H276.666V266.015H281.462V268.381C282.809 266.64 284.78 265.621 287.145 265.621ZM285.766 279.353C288.427 279.353 290.299 277.349 290.299 274.491C290.299 271.666 288.427 269.662 285.766 269.662C283.433 269.662 281.725 271.37 281.462 273.834V275.148C281.725 277.645 283.433 279.353 285.766 279.353ZM306.697 283.394C301.638 283.394 297.4 279.321 297.4 274.491C297.4 269.662 301.638 265.621 306.697 265.621C311.724 265.621 315.929 269.662 315.929 274.491C315.929 279.321 311.724 283.394 306.697 283.394ZM306.697 279.353C309.227 279.353 311.362 277.119 311.362 274.491C311.362 271.863 309.227 269.662 306.697 269.662C304.135 269.662 302 271.863 302 274.491C302 277.119 304.135 279.353 306.697 279.353ZM325.548 283.394C322.821 283.394 319.93 282.474 317.893 280.832L319.963 277.514C321.474 278.598 323.379 279.419 325.646 279.419C326.927 279.419 327.847 278.893 327.847 278.138C327.847 277.087 326.599 276.758 324.858 276.298C321.375 275.444 318.682 274.491 318.649 271.14C318.616 267.921 321.277 265.621 325.285 265.621C327.716 265.621 330.114 266.475 331.987 267.724L330.048 271.14C328.504 270.188 326.73 269.629 325.285 269.629C324.102 269.629 323.281 270.056 323.281 270.648C323.281 271.567 323.971 271.83 326.27 272.454C329.194 273.21 332.447 274.196 332.447 277.908C332.447 281.259 329.72 283.394 325.548 283.394ZM348.181 259.774L343.319 264.11H340.067L343.878 258.985L348.181 259.774ZM343.68 279.156C345.027 279.156 346.67 278.532 347.59 277.645L350.645 280.766C349.134 282.343 346.21 283.394 343.713 283.394C338.654 283.394 334.712 279.682 334.712 274.458C334.712 269.334 338.49 265.621 343.45 265.621C348.773 265.621 351.893 269.662 351.893 276.068H339.64C340.198 277.908 341.676 279.156 343.68 279.156ZM343.648 269.859C341.841 269.859 340.33 270.91 339.705 272.619H347.294C346.834 270.943 345.586 269.859 343.648 269.859ZM363.154 279.156C364.501 279.156 366.144 278.532 367.064 277.645L370.119 280.766C368.608 282.343 365.684 283.394 363.187 283.394C358.128 283.394 354.186 279.682 354.186 274.458C354.186 269.334 357.964 265.621 362.924 265.621C368.246 265.621 371.367 269.662 371.367 276.068H359.113C359.672 277.908 361.15 279.156 363.154 279.156ZM363.121 269.859C361.315 269.859 359.803 270.91 359.179 272.619H366.768C366.308 270.943 365.06 269.859 363.121 269.859ZM380.986 283.394C378.259 283.394 375.368 282.474 373.331 280.832L375.401 277.514C376.912 278.598 378.817 279.419 381.084 279.419C382.365 279.419 383.285 278.893 383.285 278.138C383.285 277.087 382.037 276.758 380.296 276.298C376.813 275.444 374.119 274.491 374.087 271.14C374.054 267.921 376.715 265.621 380.723 265.621C383.154 265.621 385.552 266.475 387.425 267.724L385.486 271.14C383.942 270.188 382.168 269.629 380.723 269.629C379.54 269.629 378.719 270.056 378.719 270.648C378.719 271.567 379.409 271.83 381.708 272.454C384.632 273.21 387.884 274.196 387.884 277.908C387.884 281.259 385.158 283.394 380.986 283.394ZM393.829 283.394C392.121 283.394 390.774 282.014 390.774 280.339C390.774 278.795 392.121 277.415 393.829 277.415C395.439 277.415 396.753 278.795 396.753 280.339C396.753 282.014 395.439 283.394 393.829 283.394ZM402.371 283.394C400.662 283.394 399.315 282.014 399.315 280.339C399.315 278.795 400.662 277.415 402.371 277.415C403.98 277.415 405.295 278.795 405.295 280.339C405.295 282.014 403.98 283.394 402.371 283.394ZM410.912 283.394C409.204 283.394 407.857 282.014 407.857 280.339C407.857 278.795 409.204 277.415 410.912 277.415C412.522 277.415 413.836 278.795 413.836 280.339C413.836 282.014 412.522 283.394 410.912 283.394Z" fill="#0C0C0D"/>
<rect x="89.4242" y="320.895" width="423.385" height="44.6304" rx="22.3152" fill="#EAEAEA"/>
<rect x="88.2179" y="320.895" width="91.0062" height="44.7842" rx="22.3921" fill="url(#paint0_radial_1092_11480)"/>
<path d="M115.607 340.349C118.451 340.349 120.802 342.185 120.802 345.231C120.802 348.388 118.272 350.56 114.913 350.56C110.412 350.56 108.374 347.336 108.374 342.857C108.374 338.065 111.173 334.639 115.428 334.639C117.354 334.639 118.899 335.289 120.153 336.296L118.585 338.804C117.645 338.02 116.727 337.55 115.45 337.55C113.457 337.55 112.091 339.207 111.8 341.805C112.763 340.887 114.152 340.349 115.607 340.349ZM114.734 347.761C116.368 347.761 117.398 346.619 117.398 345.387C117.398 343.91 116.144 343.036 114.644 343.036C113.368 343.036 112.338 343.73 111.89 344.828C112.181 346.709 113.01 347.761 114.734 347.761ZM126.458 342.633C124.174 342.633 122.629 340.909 122.629 338.715C122.629 336.498 124.174 334.751 126.48 334.751C128.809 334.751 130.309 336.52 130.309 338.692C130.309 340.909 128.742 342.633 126.458 342.633ZM124.644 350.291L135.347 334.908H137.721L127.018 350.291H124.644ZM126.48 340.707C127.421 340.707 128.115 339.924 128.115 338.692C128.115 337.505 127.421 336.699 126.458 336.699C125.517 336.699 124.846 337.483 124.846 338.692C124.846 339.901 125.562 340.707 126.48 340.707ZM135.862 350.538C133.556 350.538 132.011 348.791 132.011 346.597C132.011 344.402 133.578 342.656 135.862 342.656C138.169 342.656 139.691 344.425 139.691 346.597C139.691 348.813 138.102 350.538 135.862 350.538ZM135.862 348.589C136.825 348.589 137.497 347.806 137.497 346.597C137.497 345.387 136.78 344.581 135.862 344.581C134.877 344.581 134.205 345.365 134.205 346.597C134.205 347.783 134.9 348.589 135.862 348.589Z" fill="white"/>
<rect x="164.232" y="131.895" width="27.7758" height="27.7758" rx="13.8879" fill="#592ACB"/>
<path d="M175.798 152.738C175.49 152.738 175.196 152.616 174.978 152.398L171.501 148.921C171.29 148.702 171.173 148.41 171.176 148.106C171.178 147.802 171.3 147.511 171.515 147.296C171.73 147.081 172.021 146.959 172.325 146.957C172.629 146.954 172.921 147.071 173.14 147.282L175.64 149.782L182.961 139.324C183.138 139.075 183.407 138.907 183.708 138.855C184.009 138.803 184.318 138.872 184.569 139.047C184.819 139.222 184.99 139.489 185.045 139.79C185.099 140.09 185.033 140.4 184.861 140.652L176.747 152.243C176.65 152.383 176.524 152.499 176.378 152.585C176.231 152.67 176.068 152.723 175.899 152.738C175.865 152.74 175.831 152.74 175.798 152.738Z" fill="white"/>
<rect x="192.008" y="144.046" width="83.3275" height="3.47198" fill="#D9BFFF"/>
<rect x="275.336" y="131.895" width="27.7758" height="27.7758" rx="13.8879" fill="#592ACB"/>
<path d="M286.901 152.738C286.594 152.738 286.299 152.616 286.082 152.398L282.604 148.921C282.393 148.702 282.276 148.41 282.279 148.106C282.282 147.802 282.403 147.511 282.618 147.296C282.833 147.081 283.124 146.959 283.428 146.957C283.732 146.954 284.025 147.071 284.243 147.282L286.743 149.782L294.064 139.324C294.242 139.075 294.51 138.907 294.811 138.855C295.112 138.803 295.422 138.872 295.672 139.047C295.922 139.222 296.093 139.489 296.148 139.79C296.203 140.09 296.137 140.4 295.964 140.652L287.85 152.243C287.754 152.383 287.628 152.499 287.481 152.585C287.334 152.67 287.171 152.723 287.002 152.738C286.968 152.74 286.935 152.74 286.901 152.738Z" fill="white"/>
<rect x="303.111" y="144.046" width="41.6638" height="3.47198" fill="#D9BFFF"/>
<rect x="344.775" y="144.046" width="39.0598" height="3.47198" fill="#D9BFFF"/>
<rect x="382.099" y="130.159" width="31.2478" height="31.2478" rx="15.6239" fill="#592ACB"/>
<rect x="382.099" y="130.159" width="31.2478" height="31.2478" rx="15.6239" stroke="#D9BFFF" stroke-width="3.47198"/>
<path d="M404.423 151.257L400.244 147.078C401.002 146.013 401.333 144.701 401.169 143.403C401.006 142.105 400.361 140.916 399.362 140.071C398.363 139.226 397.084 138.788 395.777 138.842C394.47 138.897 393.231 139.441 392.306 140.366C391.381 141.291 390.837 142.529 390.783 143.836C390.728 145.143 391.167 146.423 392.011 147.422C392.856 148.421 394.045 149.066 395.343 149.229C396.641 149.393 397.953 149.062 399.019 148.304L403.197 152.483C403.361 152.64 403.58 152.728 403.807 152.726C404.034 152.724 404.251 152.633 404.412 152.472C404.573 152.311 404.664 152.094 404.666 151.867C404.668 151.64 404.581 151.421 404.423 151.257ZM396.011 147.537C395.325 147.537 394.655 147.334 394.085 146.953C393.515 146.572 393.07 146.03 392.808 145.397C392.546 144.764 392.477 144.067 392.611 143.394C392.745 142.722 393.075 142.104 393.559 141.619C394.044 141.134 394.662 140.804 395.334 140.671C396.007 140.537 396.704 140.605 397.337 140.868C397.971 141.13 398.512 141.575 398.893 142.145C399.274 142.715 399.477 143.385 399.477 144.07C399.477 144.99 399.112 145.871 398.462 146.522C397.812 147.172 396.93 147.537 396.011 147.537Z" fill="white"/>
<path d="M154.034 176.981H152.651C152.492 176.074 151.771 175.553 150.85 175.553C149.61 175.553 148.737 176.504 148.737 178.212C148.737 179.951 149.618 180.872 150.846 180.872C151.752 180.872 152.477 180.373 152.651 179.485L154.034 179.492C153.823 180.938 152.629 182.104 150.827 182.104C148.83 182.104 147.358 180.657 147.358 178.212C147.358 175.764 148.848 174.321 150.827 174.321C152.507 174.321 153.801 175.298 154.034 176.981ZM157.71 182.111C156.045 182.111 154.988 180.938 154.988 179.181C154.988 177.421 156.045 176.245 157.71 176.245C159.374 176.245 160.432 177.421 160.432 179.181C160.432 180.938 159.374 182.111 157.71 182.111ZM157.717 181.038C158.624 181.038 159.075 180.217 159.075 179.178C159.075 178.138 158.624 177.306 157.717 177.306C156.796 177.306 156.345 178.138 156.345 179.178C156.345 180.217 156.796 181.038 157.717 181.038ZM161.569 182V176.319H162.849V177.284H162.915C163.152 176.637 163.721 176.245 164.483 176.245C165.249 176.245 165.8 176.64 166.018 177.284H166.078C166.329 176.651 166.958 176.245 167.783 176.245C168.826 176.245 169.558 176.918 169.558 178.186V182H168.216V178.394C168.216 177.691 167.787 177.373 167.246 177.373C166.599 177.373 166.218 177.817 166.218 178.457V182H164.905V178.338C164.905 177.754 164.517 177.373 163.951 177.373C163.374 177.373 162.908 177.846 162.908 178.545V182H161.569ZM170.917 182V176.319H172.196V177.284H172.263C172.5 176.637 173.069 176.245 173.831 176.245C174.597 176.245 175.148 176.64 175.366 177.284H175.426C175.677 176.651 176.306 176.245 177.131 176.245C178.174 176.245 178.906 176.918 178.906 178.186V182H177.563V178.394C177.563 177.691 177.134 177.373 176.594 177.373C175.947 177.373 175.566 177.817 175.566 178.457V182H174.253V178.338C174.253 177.754 173.865 177.373 173.299 177.373C172.722 177.373 172.256 177.846 172.256 178.545V182H170.917ZM182.78 182.111C181.067 182.111 180.02 180.975 180.02 179.193C180.02 177.439 181.082 176.245 182.71 176.245C184.108 176.245 185.306 177.121 185.306 179.115V179.525H181.348C181.359 180.498 181.933 181.068 182.798 181.068C183.375 181.068 183.819 180.816 184 180.336L185.251 180.476C185.014 181.464 184.104 182.111 182.78 182.111ZM181.352 178.623H184.023C184.015 177.85 183.497 177.288 182.728 177.288C181.929 177.288 181.393 177.898 181.352 178.623ZM187.778 178.671V182H186.439V176.319H187.719V177.284H187.785C188.044 176.651 188.629 176.245 189.479 176.245C190.652 176.245 191.429 177.021 191.425 178.383V182H190.086V178.59C190.086 177.831 189.672 177.376 188.98 177.376C188.273 177.376 187.778 177.85 187.778 178.671ZM195.264 182.111C193.567 182.111 192.542 180.901 192.542 179.181C192.542 177.447 193.592 176.245 195.257 176.245C196.644 176.245 197.606 177.055 197.698 178.286H196.418C196.315 177.739 195.919 177.325 195.275 177.325C194.451 177.325 193.899 178.013 193.899 179.159C193.899 180.321 194.439 181.02 195.275 181.02C195.864 181.02 196.304 180.668 196.418 180.058H197.698C197.602 181.264 196.692 182.111 195.264 182.111ZM201.313 182.111C199.6 182.111 198.553 180.975 198.553 179.193C198.553 177.439 199.615 176.245 201.243 176.245C202.641 176.245 203.839 177.121 203.839 179.115V179.525H199.881C199.892 180.498 200.466 181.068 201.331 181.068C201.908 181.068 202.352 180.816 202.533 180.336L203.784 180.476C203.547 181.464 202.637 182.111 201.313 182.111ZM199.885 178.623H202.556C202.548 177.85 202.03 177.288 201.261 177.288C200.462 177.288 199.926 177.898 199.885 178.623ZM204.972 182V176.319H206.27V177.265H206.329C206.537 176.607 207.08 176.237 207.731 176.237C207.879 176.237 208.09 176.252 208.212 176.274V177.506C208.097 177.469 207.816 177.428 207.591 177.428C206.855 177.428 206.311 177.939 206.311 178.66V182H204.972Z" fill="#592ACB"/>
<path d="M256.283 176.507C256.213 175.864 255.673 175.483 254.855 175.483C253.997 175.483 253.487 175.901 253.483 176.47C253.476 177.103 254.149 177.365 254.77 177.513L255.481 177.691C256.62 177.961 257.704 178.56 257.707 179.873C257.704 181.208 256.649 182.115 254.833 182.115C253.069 182.115 251.948 181.268 251.893 179.762H253.243C253.298 180.557 253.964 180.942 254.822 180.942C255.717 180.942 256.331 180.509 256.335 179.862C256.331 179.274 255.791 179.019 254.974 178.812L254.112 178.59C252.865 178.268 252.092 177.643 252.092 176.555C252.089 175.216 253.283 174.321 254.874 174.321C256.487 174.321 257.578 175.227 257.604 176.507H256.283ZM260.506 182.115C259.423 182.115 258.605 181.523 258.605 180.406C258.605 179.126 259.659 178.797 260.762 178.678C261.764 178.571 262.167 178.553 262.167 178.168V178.146C262.167 177.587 261.827 177.269 261.205 177.269C260.551 177.269 260.173 177.602 260.04 177.99L258.79 177.813C259.086 176.777 260.003 176.245 261.198 176.245C262.282 176.245 263.506 176.696 263.506 178.198V182H262.219V181.22H262.175C261.93 181.697 261.398 182.115 260.506 182.115ZM260.854 181.131C261.66 181.131 262.171 180.594 262.171 179.962V179.292C261.997 179.433 261.294 179.522 260.943 179.57C260.344 179.655 259.896 179.869 259.896 180.384C259.896 180.876 260.296 181.131 260.854 181.131ZM264.853 182V176.319H266.191V182H264.853ZM265.526 175.512C265.097 175.512 264.749 175.187 264.749 174.787C264.749 174.384 265.097 174.059 265.526 174.059C265.951 174.059 266.299 174.384 266.299 174.787C266.299 175.187 265.951 175.512 265.526 175.512ZM272.059 177.82L270.838 177.953C270.735 177.58 270.409 177.243 269.791 177.243C269.233 177.243 268.807 177.51 268.811 177.894C268.807 178.223 269.037 178.423 269.614 178.553L270.583 178.76C271.656 178.993 272.177 179.488 272.181 180.299C272.177 181.375 271.175 182.111 269.754 182.111C268.36 182.111 267.483 181.493 267.317 180.45L268.623 180.324C268.737 180.835 269.137 181.101 269.751 181.101C270.387 181.101 270.809 180.809 270.809 180.421C270.809 180.099 270.564 179.888 270.043 179.773L269.074 179.57C267.983 179.344 267.472 178.797 267.476 177.968C267.472 176.918 268.404 176.245 269.773 176.245C271.104 176.245 271.874 176.859 272.059 177.82ZM273.285 182V176.319H274.624V182H273.285ZM273.958 175.512C273.529 175.512 273.181 175.187 273.181 174.787C273.181 174.384 273.529 174.059 273.958 174.059C274.384 174.059 274.731 174.384 274.731 174.787C274.731 175.187 274.384 175.512 273.958 175.512ZM276.001 182V176.319H277.299V177.265H277.358C277.565 176.607 278.109 176.237 278.76 176.237C278.908 176.237 279.119 176.252 279.241 176.274V177.506C279.126 177.469 278.845 177.428 278.62 177.428C277.884 177.428 277.34 177.939 277.34 178.66V182H276.001ZM284.823 182.1C283.484 182.1 282.481 181.038 282.481 179.167C282.481 177.273 283.513 176.245 284.826 176.245C285.829 176.245 286.247 176.848 286.45 177.258H286.506V174.425H287.848V182H286.531V181.105H286.45C286.239 181.519 285.799 182.1 284.823 182.1ZM285.196 181.001C286.051 181.001 286.531 180.262 286.531 179.159C286.531 178.057 286.058 177.343 285.196 177.343C284.305 177.343 283.846 178.101 283.846 179.159C283.846 180.225 284.312 181.001 285.196 181.001ZM291.753 182.111C290.089 182.111 289.031 180.938 289.031 179.181C289.031 177.421 290.089 176.245 291.753 176.245C293.418 176.245 294.476 177.421 294.476 179.181C294.476 180.938 293.418 182.111 291.753 182.111ZM291.761 181.038C292.667 181.038 293.118 180.217 293.118 179.178C293.118 178.138 292.667 177.306 291.761 177.306C290.84 177.306 290.388 178.138 290.388 179.178C290.388 180.217 290.84 181.038 291.761 181.038ZM296.951 178.671V182H295.612V176.319H296.892V177.284H296.958C297.217 176.651 297.802 176.245 298.653 176.245C299.825 176.245 300.602 177.021 300.598 178.383V182H299.259V178.59C299.259 177.831 298.845 177.376 298.153 177.376C297.447 177.376 296.951 177.85 296.951 178.671ZM303.298 178.671V182H301.959V176.319H303.239V177.284H303.306C303.565 176.651 304.149 176.245 305 176.245C306.172 176.245 306.949 177.021 306.945 178.383V182H305.606V178.59C305.606 177.831 305.192 177.376 304.5 177.376C303.794 177.376 303.298 177.85 303.298 178.671ZM310.822 182.111C309.109 182.111 308.062 180.975 308.062 179.193C308.062 177.439 309.124 176.245 310.751 176.245C312.15 176.245 313.348 177.121 313.348 179.115V179.525H309.39C309.401 180.498 309.975 181.068 310.84 181.068C311.417 181.068 311.861 180.816 312.042 180.336L313.293 180.476C313.056 181.464 312.146 182.111 310.822 182.111ZM309.394 178.623H312.065C312.057 177.85 311.539 177.288 310.77 177.288C309.971 177.288 309.435 177.898 309.394 178.623ZM310.2 175.571L311.029 173.881H312.338L311.203 175.571H310.2ZM316.996 182.111C315.283 182.111 314.237 180.975 314.237 179.193C314.237 177.439 315.298 176.245 316.926 176.245C318.324 176.245 319.522 177.121 319.522 179.115V179.525H315.565C315.576 180.498 316.149 181.068 317.015 181.068C317.592 181.068 318.035 180.816 318.217 180.336L319.467 180.476C319.23 181.464 318.32 182.111 316.996 182.111ZM315.568 178.623H318.239C318.231 177.85 317.714 177.288 316.944 177.288C316.145 177.288 315.609 177.898 315.568 178.623ZM325.145 177.82L323.925 177.953C323.821 177.58 323.496 177.243 322.878 177.243C322.32 177.243 321.894 177.51 321.898 177.894C321.894 178.223 322.124 178.423 322.701 178.553L323.67 178.76C324.742 178.993 325.264 179.488 325.268 180.299C325.264 181.375 324.261 182.111 322.841 182.111C321.447 182.111 320.57 181.493 320.404 180.45L321.709 180.324C321.824 180.835 322.223 181.101 322.837 181.101C323.474 181.101 323.895 180.809 323.895 180.421C323.895 180.099 323.651 179.888 323.13 179.773L322.161 179.57C321.069 179.344 320.559 178.797 320.563 177.968C320.559 176.918 321.491 176.245 322.86 176.245C324.191 176.245 324.961 176.859 325.145 177.82Z" fill="#592ACB"/>
<path d="M357.31 175.575V174.425H363.354V175.575H361.012V182H359.651V175.575H357.31ZM363.87 182V176.319H365.168V177.265H365.227C365.434 176.607 365.978 176.237 366.629 176.237C366.777 176.237 366.988 176.252 367.11 176.274V177.506C366.995 177.469 366.714 177.428 366.488 177.428C365.752 177.428 365.208 177.939 365.208 178.66V182H363.87ZM370.244 182.111C368.579 182.111 367.521 180.938 367.521 179.181C367.521 177.421 368.579 176.245 370.244 176.245C371.908 176.245 372.966 177.421 372.966 179.181C372.966 180.938 371.908 182.111 370.244 182.111ZM370.251 181.038C371.157 181.038 371.608 180.217 371.608 179.178C371.608 178.138 371.157 177.306 370.251 177.306C369.33 177.306 368.879 178.138 368.879 179.178C368.879 180.217 369.33 181.038 370.251 181.038ZM377.724 179.611V176.319H379.063V182H377.764V180.99H377.705C377.446 181.626 376.847 182.074 375.996 182.074C374.879 182.074 374.102 181.301 374.102 179.936V176.319H375.441V179.729C375.441 180.45 375.87 180.905 376.514 180.905C377.106 180.905 377.724 180.476 377.724 179.611ZM385.514 176.319L383.491 182H382.011L379.988 176.319H381.416L382.722 180.539H382.781L384.09 176.319H385.514ZM388.763 182.111C387.05 182.111 386.003 180.975 386.003 179.193C386.003 177.439 387.065 176.245 388.692 176.245C390.091 176.245 391.289 177.121 391.289 179.115V179.525H387.331C387.342 180.498 387.916 181.068 388.781 181.068C389.358 181.068 389.802 180.816 389.983 180.336L391.234 180.476C390.997 181.464 390.087 182.111 388.763 182.111ZM387.335 178.623H390.006C389.998 177.85 389.48 177.288 388.711 177.288C387.912 177.288 387.376 177.898 387.335 178.623ZM392.422 182V176.319H393.72V177.265H393.779C393.986 176.607 394.53 176.237 395.181 176.237C395.329 176.237 395.54 176.252 395.662 176.274V177.506C395.547 177.469 395.266 177.428 395.041 177.428C394.305 177.428 393.761 177.939 393.761 178.66V182H392.422ZM401.244 182.1C399.905 182.1 398.902 181.038 398.902 179.167C398.902 177.273 399.934 176.245 401.247 176.245C402.25 176.245 402.668 176.848 402.871 177.258H402.927V174.425H404.269V182H402.952V181.105H402.871C402.66 181.519 402.22 182.1 401.244 182.1ZM401.617 181.001C402.472 181.001 402.952 180.262 402.952 179.159C402.952 178.057 402.479 177.343 401.617 177.343C400.726 177.343 400.267 178.101 400.267 179.159C400.267 180.225 400.733 181.001 401.617 181.001ZM408.174 182.111C406.51 182.111 405.452 180.938 405.452 179.181C405.452 177.421 406.51 176.245 408.174 176.245C409.839 176.245 410.897 177.421 410.897 179.181C410.897 180.938 409.839 182.111 408.174 182.111ZM408.182 181.038C409.088 181.038 409.539 180.217 409.539 179.178C409.539 178.138 409.088 177.306 408.182 177.306C407.261 177.306 406.809 178.138 406.809 179.178C406.809 180.217 407.261 181.038 408.182 181.038ZM413.372 178.671V182H412.033V176.319H413.313V177.284H413.379C413.638 176.651 414.223 176.245 415.074 176.245C416.246 176.245 417.023 177.021 417.019 178.383V182H415.68V178.59C415.68 177.831 415.266 177.376 414.574 177.376C413.868 177.376 413.372 177.85 413.372 178.671ZM419.719 178.671V182H418.38V176.319H419.66V177.284H419.727C419.986 176.651 420.57 176.245 421.421 176.245C422.593 176.245 423.37 177.021 423.366 178.383V182H422.027V178.59C422.027 177.831 421.613 177.376 420.921 177.376C420.215 177.376 419.719 177.85 419.719 178.671ZM427.243 182.111C425.53 182.111 424.483 180.975 424.483 179.193C424.483 177.439 425.545 176.245 427.172 176.245C428.571 176.245 429.769 177.121 429.769 179.115V179.525H425.811C425.822 180.498 426.396 181.068 427.261 181.068C427.838 181.068 428.282 180.816 428.463 180.336L429.714 180.476C429.477 181.464 428.567 182.111 427.243 182.111ZM425.815 178.623H428.486C428.478 177.85 427.96 177.288 427.191 177.288C426.392 177.288 425.856 177.898 425.815 178.623ZM426.621 175.571L427.45 173.881H428.759L427.624 175.571H426.621ZM433.417 182.111C431.704 182.111 430.658 180.975 430.658 179.193C430.658 177.439 431.719 176.245 433.347 176.245C434.745 176.245 435.943 177.121 435.943 179.115V179.525H431.986C431.997 180.498 432.57 181.068 433.435 181.068C434.013 181.068 434.456 180.816 434.638 180.336L435.888 180.476C435.651 181.464 434.741 182.111 433.417 182.111ZM431.989 178.623H434.66C434.652 177.85 434.135 177.288 433.365 177.288C432.566 177.288 432.03 177.898 431.989 178.623ZM441.566 177.82L440.346 177.953C440.242 177.58 439.917 177.243 439.299 177.243C438.741 177.243 438.315 177.51 438.319 177.894C438.315 178.223 438.545 178.423 439.122 178.553L440.091 178.76C441.163 178.993 441.685 179.488 441.689 180.299C441.685 181.375 440.682 182.111 439.262 182.111C437.868 182.111 436.991 181.493 436.825 180.45L438.13 180.324C438.245 180.835 438.644 181.101 439.258 181.101C439.895 181.101 440.316 180.809 440.316 180.421C440.316 180.099 440.072 179.888 439.551 179.773L438.582 179.57C437.49 179.344 436.98 178.797 436.984 177.968C436.98 176.918 437.912 176.245 439.281 176.245C440.612 176.245 441.382 176.859 441.566 177.82ZM378.428 196.111C376.716 196.111 375.669 194.975 375.669 193.193C375.669 191.439 376.73 190.245 378.358 190.245C379.756 190.245 380.954 191.121 380.954 193.115V193.525H376.997C377.008 194.498 377.581 195.068 378.447 195.068C379.024 195.068 379.468 194.816 379.649 194.336L380.899 194.476C380.662 195.464 379.752 196.111 378.428 196.111ZM377 192.623H379.671C379.664 191.85 379.146 191.288 378.376 191.288C377.577 191.288 377.041 191.898 377 192.623ZM383.07 190.319L384.217 192.416L385.382 190.319H386.799L385.086 193.159L386.828 196H385.419L384.217 193.955L383.026 196H381.605L383.337 193.159L381.65 190.319H383.07ZM387.834 198.131V190.319H389.151V191.258H389.229C389.432 190.848 389.85 190.245 390.853 190.245C392.166 190.245 393.198 191.273 393.198 193.167C393.198 195.038 392.195 196.1 390.856 196.1C389.88 196.1 389.44 195.519 389.229 195.105H389.173V198.131H387.834ZM389.147 193.159C389.147 194.262 389.628 195.001 390.483 195.001C391.367 195.001 391.833 194.225 391.833 193.159C391.833 192.101 391.374 191.343 390.483 191.343C389.621 191.343 389.147 192.057 389.147 193.159ZM396.822 196.111C395.158 196.111 394.1 194.938 394.1 193.181C394.1 191.421 395.158 190.245 396.822 190.245C398.487 190.245 399.545 191.421 399.545 193.181C399.545 194.938 398.487 196.111 396.822 196.111ZM396.83 195.038C397.736 195.038 398.187 194.217 398.187 193.178C398.187 192.138 397.736 191.306 396.83 191.306C395.909 191.306 395.458 192.138 395.458 193.178C395.458 194.217 395.909 195.038 396.83 195.038ZM405.172 191.82L403.951 191.953C403.848 191.58 403.522 191.243 402.904 191.243C402.346 191.243 401.92 191.51 401.924 191.894C401.92 192.223 402.15 192.423 402.727 192.553L403.696 192.76C404.769 192.993 405.29 193.488 405.294 194.299C405.29 195.375 404.288 196.111 402.867 196.111C401.473 196.111 400.596 195.493 400.43 194.45L401.735 194.324C401.85 194.835 402.25 195.101 402.864 195.101C403.5 195.101 403.922 194.809 403.922 194.421C403.922 194.099 403.677 193.888 403.156 193.773L402.187 193.57C401.096 193.344 400.585 192.797 400.589 191.968C400.585 190.918 401.517 190.245 402.886 190.245C404.217 190.245 404.987 190.859 405.172 191.82ZM408.913 196.111C407.201 196.111 406.154 194.975 406.154 193.193C406.154 191.439 407.215 190.245 408.843 190.245C410.241 190.245 411.439 191.121 411.439 193.115V193.525H407.482C407.493 194.498 408.066 195.068 408.932 195.068C409.509 195.068 409.952 194.816 410.134 194.336L411.384 194.476C411.147 195.464 410.237 196.111 408.913 196.111ZM407.485 192.623H410.156C410.149 191.85 409.631 191.288 408.861 191.288C408.062 191.288 407.526 191.898 407.485 192.623ZM408.292 189.571L409.12 187.881H410.43L409.294 189.571H408.292ZM415.087 196.111C413.375 196.111 412.328 194.975 412.328 193.193C412.328 191.439 413.39 190.245 415.017 190.245C416.415 190.245 417.614 191.121 417.614 193.115V193.525H413.656C413.667 194.498 414.24 195.068 415.106 195.068C415.683 195.068 416.127 194.816 416.308 194.336L417.558 194.476C417.321 195.464 416.412 196.111 415.087 196.111ZM413.66 192.623H416.33C416.323 191.85 415.805 191.288 415.036 191.288C414.237 191.288 413.7 191.898 413.66 192.623ZM423.237 191.82L422.016 191.953C421.913 191.58 421.587 191.243 420.969 191.243C420.411 191.243 419.986 191.51 419.989 191.894C419.986 192.223 420.215 192.423 420.792 192.553L421.761 192.76C422.834 192.993 423.355 193.488 423.359 194.299C423.355 195.375 422.353 196.111 420.932 196.111C419.538 196.111 418.661 195.493 418.495 194.45L419.801 194.324C419.915 194.835 420.315 195.101 420.929 195.101C421.565 195.101 421.987 194.809 421.987 194.421C421.987 194.099 421.743 193.888 421.221 193.773L420.252 193.57C419.161 193.344 418.65 192.797 418.654 191.968C418.65 190.918 419.582 190.245 420.951 190.245C422.283 190.245 423.052 190.859 423.237 191.82Z" fill="#592ACB"/>
</g>
</g>
<defs>
<filter id="filter0_d_1092_11480" x="34.0979" y="38.0653" width="531.625" height="381.858" filterUnits="userSpaceOnUse" color-interpolation-filters="sRGB">
<feFlood flood-opacity="0" result="BackgroundImageFix"/>
<feColorMatrix in="SourceAlpha" type="matrix" values="0 0 0 0 0 0 0 0 0 0 0 0 0 0 0 0 0 0 127 0" result="hardAlpha"/>
<feOffset dy="3.96735"/>
<feGaussianBlur stdDeviation="5.95103"/>
<feComposite in2="hardAlpha" operator="out"/>
<feColorMatrix type="matrix" values="0 0 0 0 0 0 0 0 0 0 0 0 0 0 0 0 0 0 0.08 0"/>
<feBlend mode="normal" in2="BackgroundImageFix" result="effect1_dropShadow_1092_11480"/>
<feBlend mode="normal" in="SourceGraphic" in2="effect1_dropShadow_1092_11480" result="shape"/>
</filter>
<radialGradient id="paint0_radial_1092_11480" cx="0" cy="0" r="1" gradientUnits="userSpaceOnUse" gradientTransform="translate(179.224 320.895) rotate(153.798) scale(101.429 80.3648)">
<stop stop-color="#9D62FC"/>
<stop offset="1" stop-color="#FD3296"/>
</radialGradient>
<clipPath id="clip0_1092_11480">
<rect x="46" y="46" width="507.821" height="358.053" rx="5.95103" fill="white"/>
</clipPath>
</defs>
</svg>
