<svg width="39" height="45" viewBox="0 0 39 45" fill="none" xmlns="http://www.w3.org/2000/svg">
<g clip-path="url(#clip0_23_5664)">
<path d="M0.715576 0.177979H38.374C38.3729 15.0173 38.3744 29.8569 38.3733 44.6962H0.715576V0.177979ZM23.2086 4.73915C22.5423 5.00937 21.9118 5.38672 21.4095 5.89863C20.7904 6.50765 20.3901 7.3109 20.2159 8.14937C20.0987 8.67166 20.0673 9.2084 20.0791 9.74217V28.1607C20.0639 28.9732 20.177 29.798 20.4922 30.5534C20.7269 31.122 21.0852 31.6425 21.5418 32.0624C22.2626 32.746 23.201 33.1626 24.1588 33.4195C25.1899 33.6912 26.2599 33.7898 27.3246 33.8065C28.3501 33.8191 29.3849 33.7561 30.382 33.5077C31.167 33.3139 31.9316 32.9936 32.5628 32.4895C33.1763 32.0109 33.6291 31.3511 33.8967 30.6316C34.1817 29.8673 34.2761 29.0474 34.2758 28.2374C34.2739 25.857 34.2784 23.4761 34.2735 21.0952C32.2884 21.0975 30.3037 21.0934 28.3187 21.0975C28.3179 23.5024 28.3183 25.907 28.3183 28.3119C28.3236 28.6033 28.3247 28.9043 28.2053 29.1767C28.0783 29.4525 27.774 29.6089 27.4739 29.6182C27.1837 29.633 26.8465 29.6149 26.6333 29.3951C26.4168 29.1964 26.3703 28.888 26.3582 28.6118C26.3567 22.1606 26.3586 15.7097 26.357 9.25844C26.3559 9.02714 26.3933 8.78508 26.5268 8.58937C26.676 8.35028 26.9712 8.23278 27.2487 8.22981C27.5525 8.20646 27.8886 8.27652 28.0949 8.51264C28.3126 8.771 28.3289 9.12314 28.3183 9.44303V13.1509C28.3232 14.0958 28.3085 15.0414 28.3259 15.9862C30.3087 15.9821 32.2915 15.987 34.2743 15.9836C34.2773 13.8044 34.2746 11.6252 34.2758 9.446C34.2675 8.59604 34.1446 7.73347 33.7984 6.94838C33.5274 6.33751 33.1143 5.78223 32.5806 5.36671C31.9679 4.87 31.2222 4.55715 30.4595 4.35661C29.5108 4.11308 28.5266 4.03857 27.5491 4.03561C26.08 4.04969 24.581 4.19277 23.2086 4.73915M4.82707 4.25357C4.82745 14.0624 4.82669 23.8716 4.82745 33.6805C6.91986 33.6879 9.01265 33.6838 11.1051 33.6823C11.1039 30.4474 11.1051 27.2125 11.1047 23.9776C11.1103 23.4135 11.0933 22.8489 11.1134 22.2855C11.401 22.2888 11.6886 22.2855 11.9766 22.2862C12.6694 22.2807 13.3649 22.3107 14.0547 22.2303C14.7743 22.1532 15.4917 21.9978 16.1524 21.7017C16.6078 21.4941 17.038 21.2216 17.388 20.8662C17.9746 20.3076 18.3446 19.5614 18.54 18.7893C18.7445 18.0153 18.7755 17.2109 18.7622 16.4155V9.92714C18.7702 9.34629 18.7528 8.76247 18.6511 8.18867C18.4992 7.27013 18.1416 6.35604 17.4779 5.67474C16.9805 5.1506 16.3315 4.78067 15.6433 4.55381C14.6723 4.23355 13.6382 4.15089 12.6196 4.16534C10.0301 4.16201 7.44069 4.17202 4.85164 4.16053C4.84559 4.18351 4.83312 4.23021 4.82707 4.25357M8.62372 35.6165C8.30359 35.8389 8.15618 36.22 8.07454 36.5821C7.95699 37.1537 7.94716 37.7394 7.94754 38.3202C7.95813 38.8603 7.97249 39.41 8.13539 39.9304C8.2348 40.2303 8.41244 40.5331 8.71368 40.6744C9.11318 40.8671 9.58526 40.8686 10.0139 40.783C10.0694 40.674 10.1832 40.7489 10.2652 40.687C10.5971 40.5261 10.7687 40.1725 10.8356 39.8315C10.91 39.4259 10.9312 39.0045 10.8658 38.5971C10.5642 38.6034 10.2633 38.5767 9.96209 38.5845C9.9912 38.8788 9.99838 39.1761 9.97645 39.4712C9.95756 39.6535 9.94697 39.8492 9.84152 40.0072C9.73683 40.1747 9.50135 40.1917 9.32749 40.1354C9.17064 40.0843 9.106 39.9152 9.07236 39.7714C8.99072 39.4037 9.01189 39.0252 8.98808 38.6527C8.99337 38.2453 8.97598 37.838 9.00093 37.4313C9.01038 37.0666 9.00887 36.6959 9.1094 36.3415C9.13473 36.2674 9.16648 36.1933 9.21901 36.134C9.33203 36.025 9.52025 36.0105 9.65934 36.0758C9.77878 36.1228 9.81393 36.2552 9.85135 36.3638C9.9277 36.7189 9.92127 37.0862 9.89141 37.4465C10.2036 37.4462 10.5158 37.4261 10.828 37.4183C10.8703 36.9431 10.8866 36.4364 10.6859 35.9909C10.5389 35.6543 10.179 35.4578 9.82036 35.4167C9.41669 35.3715 8.96956 35.3807 8.62372 35.6165M19.6565 35.5105C19.3212 35.6406 19.1088 35.9586 19.0022 36.2837C18.8397 36.7852 18.8049 37.316 18.7879 37.8387C18.7804 38.4941 18.7664 39.1609 18.9369 39.8003C19.0257 40.131 19.1912 40.4701 19.4981 40.6551C19.8054 40.8304 20.1785 40.8619 20.5251 40.8167C20.8055 40.7808 21.002 40.5565 21.1374 40.3308C21.2167 40.4568 21.2791 40.5939 21.3679 40.7144C21.4824 40.7674 21.6219 40.7226 21.7459 40.7426C21.7693 40.7061 21.7805 40.6633 21.778 40.6203C21.7769 39.7447 21.7742 38.8695 21.7791 37.994C21.3078 37.9877 20.8361 37.9888 20.3648 37.9925C20.3674 38.2435 20.3459 38.4963 20.3769 38.7461C20.5515 38.7413 20.7269 38.7446 20.9019 38.7435C20.8883 39.1435 20.9548 39.5698 20.7741 39.9438C20.6638 40.1673 20.3663 40.201 20.1482 40.1343C20.0318 40.098 19.977 39.9819 19.9419 39.877C19.864 39.6257 19.8557 39.3611 19.8398 39.1009C19.8213 38.5567 19.8285 38.0122 19.8311 37.468C19.8515 37.064 19.8281 36.6433 19.9729 36.2581C20.0655 35.9823 20.5368 35.9512 20.6384 36.2363C20.7738 36.5773 20.7443 36.9546 20.7284 37.3127C21.0417 37.3494 21.3592 37.2949 21.6748 37.3068C21.6994 36.8453 21.7092 36.3515 21.484 35.9312C21.3471 35.6584 21.0603 35.4849 20.7609 35.4319C20.3958 35.37 20.005 35.3748 19.6565 35.5105M24.4298 35.5479C24.1237 35.698 23.9388 36.0061 23.839 36.3163C23.6932 36.7726 23.6675 37.2549 23.6421 37.7297C23.6368 38.3465 23.6251 38.9689 23.737 39.5787C23.8013 39.9193 23.9146 40.2737 24.1792 40.5176C24.423 40.7444 24.7688 40.8241 25.0958 40.8327C25.4564 40.8478 25.8547 40.8097 26.1359 40.5647C26.4701 40.2885 26.546 39.8344 26.5816 39.4308C26.5918 39.1583 26.6141 38.8792 26.56 38.6108C26.2595 38.5889 25.9519 38.5775 25.6491 38.5908C25.688 38.8443 25.6691 39.1023 25.6722 39.3581C25.662 39.5772 25.6525 39.8125 25.5338 40.0053C25.4136 40.1977 25.1302 40.1992 24.9465 40.1024C24.7624 39.9616 24.7503 39.7154 24.7205 39.5071C24.6747 39.0645 24.6891 38.6182 24.6861 38.1742C24.688 37.6534 24.6751 37.13 24.7424 36.6125C24.7681 36.4461 24.7979 36.2696 24.9076 36.1343C25.0776 35.9749 25.4231 36.0109 25.501 36.2485C25.6461 36.6303 25.5898 37.0492 25.589 37.448C25.8978 37.4439 26.2062 37.4287 26.515 37.4176C26.5714 36.9494 26.5687 36.4535 26.3873 36.0102C26.2448 35.6639 25.8797 35.4627 25.5157 35.4167C25.1525 35.3763 24.7617 35.3785 24.4298 35.5479M28.3497 35.3971C28.0673 35.4093 27.7714 35.4697 27.5488 35.6502C27.2778 35.8597 27.1421 36.1892 27.0589 36.508C26.913 37.114 26.9093 37.7408 26.9138 38.3602C26.9244 38.871 26.9504 39.3881 27.0945 39.8819C27.1821 40.1747 27.3329 40.4731 27.6055 40.6399C27.8768 40.8163 28.2151 40.8378 28.5315 40.8356C28.8614 40.8304 29.2122 40.7593 29.4598 40.5305C29.7285 40.2766 29.8426 39.913 29.9175 39.5642C30.0021 39.0927 30.0327 38.6123 30.0252 38.1338C30.0316 37.6393 30.0055 37.1415 29.9095 36.6551C29.8336 36.2971 29.7032 35.923 29.4136 35.6762C29.1241 35.4274 28.7193 35.3826 28.3497 35.3971M4.83198 35.4771C4.81724 37.2211 4.83728 38.9663 4.82178 40.7107C4.92156 40.7559 5.03344 40.7337 5.13927 40.7381C5.36756 40.7329 5.59623 40.7467 5.82376 40.7326C5.82679 40.704 5.83321 40.6473 5.83623 40.6188C5.83321 39.9905 5.84039 39.3618 5.83283 38.7335C6.10497 38.7102 6.38239 38.7502 6.65037 38.6831C6.9671 38.6242 7.26154 38.4318 7.40932 38.1464C7.62023 37.746 7.63383 37.2801 7.61342 36.8394C7.5847 36.4535 7.4698 36.0383 7.15571 35.7803C6.89 35.5627 6.53433 35.4897 6.19606 35.4782C5.74137 35.4756 5.28668 35.4786 4.83198 35.4771M11.3413 35.4764C11.342 37.2293 11.3383 38.9819 11.3432 40.7348C11.5669 40.7422 11.7907 40.7348 12.0144 40.7385C12.0987 40.7378 12.1864 40.747 12.2662 40.7137C12.2548 39.9897 12.2646 39.2654 12.2609 38.5411C12.2688 38.03 12.2405 37.5188 12.2597 37.008C12.282 37.1845 12.2809 37.3635 12.3089 37.5399C12.4585 38.6082 12.6679 39.6676 12.8376 40.7326C13.1245 40.7389 13.4125 40.7459 13.6994 40.73C13.8313 39.9023 13.9878 39.0782 14.1193 38.2505C14.1915 37.8157 14.2183 37.375 14.2716 36.9387C14.2698 38.2046 14.2614 39.4715 14.2697 40.7381C14.5748 40.7374 14.8794 40.7404 15.1844 40.7363C15.1905 38.983 15.1848 37.2297 15.1871 35.4764C14.7622 35.4827 14.337 35.4697 13.9126 35.4819C13.8559 35.6135 13.8593 35.7648 13.8241 35.9041C13.6348 36.9687 13.4465 38.0337 13.2576 39.0983C13.0414 37.8954 12.8395 36.6896 12.64 35.4838C12.2072 35.4697 11.7741 35.4819 11.3413 35.4764M16.539 35.4779C16.2726 36.895 15.9921 38.3095 15.7155 39.7247C15.6614 40.0635 15.5665 40.3964 15.534 40.7381C15.8417 40.7415 16.1494 40.7311 16.457 40.7429C16.5561 40.4301 16.5746 40.0965 16.6441 39.7759C16.9091 39.7725 17.174 39.7714 17.439 39.7762C17.5032 40.098 17.5486 40.4238 17.6299 40.7418C17.9749 40.7289 18.3208 40.7481 18.6662 40.7318C18.633 40.4412 18.5513 40.1584 18.4984 39.8711C18.1938 38.4284 17.8933 36.9847 17.5871 35.542C17.5883 35.4312 17.4575 35.4634 17.3846 35.4586C17.103 35.4704 16.8176 35.4345 16.539 35.4779M30.4285 35.476C30.427 37.2304 30.4228 38.9848 30.4307 40.7392C30.7369 40.7229 31.0491 40.767 31.3511 40.7155C31.3443 39.4563 31.3458 38.1968 31.3462 36.938C31.3685 37.3883 31.4376 37.8346 31.5102 38.2794C31.6444 39.0875 31.7888 39.8941 31.9267 40.7018C31.9566 40.7626 32.0329 40.7311 32.0866 40.7385C32.3198 40.7266 32.5557 40.7589 32.7866 40.7211C32.9344 39.8348 33.1011 38.9515 33.2375 38.0633C33.2984 37.6878 33.3067 37.3064 33.3588 36.9305C33.3724 37.2823 33.3634 37.6348 33.3554 37.9866C33.3588 38.9025 33.3498 39.8185 33.3596 40.7341C33.6638 40.7422 33.9685 40.7359 34.2731 40.7385C34.2777 38.9848 34.2765 37.2308 34.2735 35.4771C33.8479 35.4775 33.4223 35.4775 32.9967 35.4779C32.8902 35.9898 32.8074 36.5061 32.7163 37.021C32.6906 37.1767 32.652 37.3312 32.6577 37.4903C32.6494 37.4995 32.6328 37.5177 32.6244 37.527C32.536 38.0507 32.4396 38.5738 32.344 39.0964C32.1331 37.8913 31.9328 36.6844 31.7241 35.479C31.2925 35.4745 30.8605 35.4801 30.4285 35.476M22.2353 39.5887C22.2331 39.9686 22.2365 40.3485 22.2342 40.7289C22.532 40.7492 22.8314 40.7315 23.13 40.7385C23.1976 40.7352 23.2736 40.7511 23.3326 40.7088C23.3175 40.3363 23.3292 39.963 23.3273 39.5901C22.9633 39.5827 22.5993 39.5838 22.2353 39.5887V39.5887Z" fill="#9E9E9E"/>
<path d="M11.1092 8.41848C11.6002 8.41514 12.1248 8.43998 12.5579 8.69278C12.8361 8.84994 12.9986 9.14463 13.0701 9.4434C13.1464 9.74735 13.1306 10.0624 13.1328 10.3727C13.1328 12.3124 13.1328 14.2526 13.1324 16.1923C13.1385 16.6123 13.1306 17.0638 12.8974 17.4318C12.6857 17.774 12.2756 17.9326 11.8882 17.9871C11.6313 18.0292 11.3706 18.0448 11.1103 18.0338C11.0971 15.789 11.1085 13.5438 11.1047 11.2986C11.1077 10.3386 11.099 9.37853 11.1092 8.41848V8.41848ZM28.1905 36.1351C28.2858 36.0324 28.4392 36.055 28.5594 36.0027C28.621 36.0806 28.7329 36.101 28.7858 36.1873C28.872 36.313 28.9068 36.4646 28.9264 36.6132C28.9983 37.1173 28.9752 37.6274 28.9794 38.1352C28.9756 38.6419 28.999 39.152 28.9215 39.655C28.8902 39.8196 28.8524 40.0112 28.7008 40.1113C28.5674 40.1814 28.3962 40.1817 28.2593 40.1217C28.0703 40.0086 28.0401 39.7758 28.005 39.5812C27.9377 38.9896 27.9562 38.3936 27.9536 37.8001C27.9509 37.4295 27.963 37.0592 27.9985 36.6903C28.0246 36.4972 28.0503 36.2848 28.1905 36.1351V36.1351ZM5.83472 36.1788C6.04373 36.1391 6.30226 36.1599 6.42963 36.3508C6.57553 36.5839 6.57893 36.8723 6.58006 37.1381C6.56759 37.3998 6.55625 37.6934 6.36349 37.8969C6.22213 38.027 6.01727 37.9977 5.84001 37.9999C5.83018 37.3931 5.83963 36.786 5.83472 36.1788V36.1788ZM16.7824 39.0534C16.8391 38.3246 16.9786 37.604 17.0255 36.8746C17.1098 37.6007 17.2118 38.3254 17.2987 39.0515C17.1264 39.0552 16.9544 39.0541 16.7824 39.0534Z" fill="#9E9E9E"/>
<path d="M38.3733 0.177734H38.3979V44.696H38.3726C38.3737 29.8567 38.3722 15.017 38.3733 0.177734ZM23.2079 4.73891C24.5803 4.19253 26.0793 4.04945 27.5484 4.03536C28.5258 4.03833 29.51 4.11283 30.4587 4.35637C31.2215 4.55691 31.9672 4.86976 32.5799 5.36646C33.1136 5.78199 33.5267 6.33726 33.7977 6.94814C34.1439 7.73323 34.2667 8.59579 34.275 9.44576C34.2739 11.625 34.2766 13.8042 34.2735 15.9834C32.2907 15.9867 30.3079 15.9819 28.3251 15.986C28.3077 15.0411 28.3225 14.0955 28.3176 13.1507V9.44279C28.3282 9.1229 28.3119 8.77075 28.0942 8.51239C27.8878 8.27627 27.5518 8.20621 27.2479 8.22957C26.9705 8.23253 26.6753 8.35004 26.526 8.58912C26.3926 8.78484 26.3552 9.02689 26.3563 9.25819C26.3578 15.7094 26.3559 22.1603 26.3574 28.6116C26.3695 28.8877 26.416 29.1961 26.6326 29.3948C26.8458 29.6146 27.1829 29.6328 27.4732 29.618C27.7733 29.6087 28.0776 29.4523 28.2046 29.1765C28.324 28.904 28.3229 28.6031 28.3176 28.3117C28.3176 25.9068 28.3172 23.5022 28.3179 21.0972C30.303 21.0931 32.2877 21.0972 34.2728 21.095C34.2777 23.4759 34.2732 25.8567 34.275 28.2372C34.2754 29.0471 34.1809 29.8671 33.8959 30.6314C33.6283 31.3509 33.1755 32.0107 32.5621 32.4892C31.9309 32.9933 31.1663 33.3136 30.3813 33.5075C29.3842 33.7558 28.3493 33.8188 27.3239 33.8062C26.2592 33.7896 25.1892 33.691 24.1581 33.4193C23.2003 33.1624 22.2618 32.7457 21.541 32.0622C21.0845 31.6422 20.7262 31.1218 20.4914 30.5532C20.1762 29.7977 20.0632 28.973 20.0783 28.1605V9.74193C20.0666 9.20815 20.098 8.67141 20.2151 8.14913C20.3894 7.31066 20.7897 6.5074 21.4088 5.89838C21.9111 5.38648 22.5415 5.00913 23.2079 4.73891V4.73891ZM4.82634 4.25332C4.83238 4.22997 4.84486 4.18326 4.8509 4.16028C7.43996 4.17177 10.0294 4.16176 12.6188 4.1651C13.6374 4.15064 14.6715 4.2333 15.6425 4.55357C16.3308 4.78042 16.9798 5.15036 17.4772 5.67449C18.1409 6.3558 18.4984 7.26989 18.6504 8.18842C18.7521 8.76223 18.7694 9.34604 18.7615 9.92689V16.4152C18.7747 17.2107 18.7437 18.0151 18.5393 18.789C18.3438 19.5611 17.9738 20.3073 17.3872 20.8659C17.0372 21.2214 16.6071 21.4938 16.1517 21.7014C15.491 21.9976 14.7736 22.1529 14.054 22.23C13.3642 22.3104 12.6687 22.2804 11.9759 22.286C11.6879 22.2852 11.4003 22.2886 11.1126 22.2852C11.0926 22.8487 11.1096 23.4132 11.1039 23.9774C11.1043 27.2123 11.1032 30.4472 11.1043 33.6821C9.01191 33.6835 6.91912 33.6876 4.82671 33.6802C4.82596 23.8714 4.82671 14.0622 4.82634 4.25332M11.1085 8.41787C11.0983 9.37792 11.107 10.338 11.1039 11.298C11.1077 13.5432 11.0964 15.7884 11.1096 18.0332C11.3697 18.044 11.6312 18.0288 11.8875 17.9865C12.2749 17.932 12.685 17.7734 12.8966 17.4312C13.1298 17.0632 13.1378 16.6117 13.1317 16.1917C13.1321 14.2519 13.1321 12.3118 13.1321 10.3721C13.1298 10.0618 13.1457 9.74674 13.0694 9.44279C12.9979 9.14402 12.8354 8.84934 12.5572 8.69217C12.1241 8.43937 11.5995 8.41453 11.1085 8.41787V8.41787ZM8.62299 35.6162C8.96882 35.3805 9.41596 35.3712 9.81962 35.4165C10.1783 35.4576 10.5381 35.6541 10.6852 35.9906C10.8859 36.4362 10.8696 36.9429 10.8273 37.4181C10.5151 37.4259 10.2029 37.4459 9.89068 37.4463C9.92054 37.086 9.92696 36.7186 9.85062 36.3635C9.8132 36.2549 9.77805 36.1226 9.65861 36.0755C9.51952 36.0103 9.33129 36.0247 9.21828 36.1337C9.16574 36.193 9.13399 36.2672 9.10867 36.3413C9.00813 36.6957 9.00964 37.0663 9.0002 37.4311C8.97525 37.8377 8.99264 38.2451 8.98734 38.6525C9.01116 39.025 8.98999 39.4034 9.07163 39.7712C9.10527 39.915 9.1699 40.084 9.32676 40.1352C9.50062 40.1915 9.73609 40.1745 9.84079 40.0069C9.94624 39.849 9.95682 39.6533 9.97572 39.4709C9.99764 39.1759 9.99046 38.8786 9.96136 38.5843C10.2626 38.5765 10.5635 38.6032 10.8651 38.5969C10.9305 39.0042 10.9093 39.4257 10.8348 39.8312C10.7679 40.1722 10.5963 40.5259 10.2645 40.6867C10.1825 40.7486 10.0687 40.6738 10.0131 40.7827C9.58453 40.8684 9.11245 40.8669 8.71294 40.6741C8.41171 40.5329 8.23406 40.2301 8.13466 39.9302C7.97175 39.4098 7.95739 38.86 7.94681 38.32C7.94643 37.7391 7.95626 37.1534 8.0738 36.5819C8.15545 36.2197 8.30285 35.8387 8.62299 35.6162V35.6162ZM19.6558 35.5102C20.0042 35.3746 20.3951 35.3697 20.7602 35.4317C21.0595 35.4847 21.3464 35.6581 21.4832 35.931C21.7085 36.3513 21.6987 36.845 21.6741 37.3065C21.3585 37.2947 21.041 37.3492 20.7277 37.3125C20.7435 36.9544 20.773 36.577 20.6377 36.236C20.536 35.951 20.0647 35.9821 19.9721 36.2579C19.8274 36.643 19.8508 37.0637 19.8304 37.4678C19.8277 38.0119 19.8206 38.5565 19.8391 39.1006C19.855 39.3608 19.8633 39.6255 19.9411 39.8768C19.9763 39.9817 20.0311 40.0977 20.1475 40.1341C20.3656 40.2008 20.663 40.167 20.7734 39.9435C20.9541 39.5695 20.8875 39.1432 20.9012 38.7433C20.7262 38.7444 20.5508 38.741 20.3762 38.7459C20.3452 38.496 20.3667 38.2432 20.3641 37.9923C20.8354 37.9886 21.3071 37.9875 21.7784 37.9938C21.7735 38.8693 21.7761 39.7445 21.7773 40.62C21.7798 40.6631 21.7686 40.7058 21.7451 40.7423C21.6212 40.7223 21.4817 40.7672 21.3672 40.7142C21.2784 40.5937 21.216 40.4565 21.1366 40.3305C21.0013 40.5563 20.8048 40.7805 20.5243 40.8165C20.1777 40.8617 19.8047 40.8302 19.4974 40.6549C19.1905 40.4699 19.0249 40.1307 18.9361 39.8001C18.7657 39.1607 18.7796 38.4938 18.7872 37.8385C18.8042 37.3158 18.839 36.785 19.0015 36.2835C19.1081 35.9584 19.3205 35.6403 19.6558 35.5102V35.5102ZM24.4291 35.5477C24.7609 35.3783 25.1517 35.376 25.515 35.4165C25.8789 35.4624 26.2441 35.6637 26.3866 36.0099C26.568 36.4532 26.5706 36.9492 26.5143 37.4174C26.2055 37.4285 25.8971 37.4437 25.5883 37.4478C25.589 37.0489 25.6454 36.63 25.5002 36.2483C25.4224 36.0106 25.0769 35.9747 24.9068 36.1341C24.7972 36.2694 24.7674 36.4458 24.7416 36.6123C24.6744 37.1297 24.6872 37.6531 24.6853 38.1739C24.6884 38.618 24.674 39.0643 24.7197 39.5069C24.7496 39.7152 24.7617 39.9613 24.9458 40.1022C25.1294 40.1989 25.4129 40.1974 25.5331 40.0051C25.6518 39.8123 25.6612 39.5769 25.6714 39.3579C25.6684 39.1021 25.6873 38.8441 25.6484 38.5906C25.9511 38.5772 26.2588 38.5887 26.5593 38.6106C26.6133 38.8789 26.591 39.1581 26.5808 39.4305C26.5453 39.8342 26.4693 40.2883 26.1352 40.5644C25.854 40.8094 25.4556 40.8476 25.095 40.8324C24.7681 40.8239 24.4223 40.7442 24.1785 40.5173C23.9139 40.2734 23.8005 39.9191 23.7363 39.5784C23.6244 38.9686 23.6361 38.3463 23.6414 37.7295C23.6667 37.2546 23.6924 36.7724 23.8383 36.3161C23.9381 36.0058 24.1229 35.6978 24.4291 35.5477V35.5477ZM28.3489 35.3968C28.7186 35.3824 29.1234 35.4272 29.4129 35.6759C29.7024 35.9228 29.8328 36.2968 29.9088 36.6549C30.0048 37.1412 30.0309 37.639 30.0245 38.1335C30.032 38.6121 30.0014 39.0925 29.9167 39.564C29.8419 39.9128 29.7278 40.2764 29.459 40.5303C29.2115 40.759 28.8607 40.8302 28.5307 40.8354C28.2144 40.8376 27.8761 40.8161 27.6047 40.6397C27.3322 40.4728 27.1814 40.1745 27.0937 39.8816C26.9497 39.3879 26.9236 38.8708 26.9131 38.36C26.9085 37.7406 26.9123 37.1138 27.0582 36.5077C27.1413 36.1889 27.277 35.8594 27.548 35.65C27.7707 35.4695 28.0666 35.409 28.3489 35.3968M28.1898 36.1345C28.0496 36.2842 28.0239 36.4966 27.9978 36.6897C27.9623 37.0586 27.9502 37.4289 27.9528 37.7995C27.9555 38.393 27.937 38.989 28.0042 39.5806C28.0394 39.7752 28.0696 40.008 28.2586 40.1211C28.3954 40.1811 28.5666 40.1808 28.7001 40.1107C28.8516 40.0106 28.8894 39.819 28.9208 39.6544C28.9983 39.1514 28.9748 38.6413 28.9786 38.1346C28.9745 37.6268 28.9975 37.1167 28.9257 36.6126C28.9061 36.464 28.8713 36.3124 28.7851 36.1867C28.7322 36.1004 28.6203 36.08 28.5587 36.0021C28.4385 36.0544 28.2851 36.0318 28.1898 36.1345V36.1345ZM4.83125 35.4769C5.28594 35.4784 5.74063 35.4754 6.19532 35.478C6.5336 35.4895 6.88927 35.5625 7.15497 35.7801C7.46906 36.0381 7.58396 36.4532 7.61269 36.8391C7.6331 37.2798 7.61949 37.7458 7.40859 38.1461C7.2608 38.4315 6.96637 38.6239 6.64964 38.6829C6.38166 38.7499 6.10423 38.7099 5.8321 38.7333C5.83966 39.3616 5.83248 39.9902 5.8355 40.6185C5.83248 40.6471 5.82605 40.7038 5.82303 40.7323C5.59549 40.7464 5.36683 40.7327 5.13853 40.7379C5.0327 40.7334 4.92083 40.7557 4.82104 40.7105C4.83654 38.9661 4.81651 37.2209 4.83125 35.4769M5.83399 36.1782C5.8389 36.7854 5.82945 37.3925 5.83928 37.9993C6.01655 37.9971 6.2214 38.0264 6.36276 37.8963C6.55552 37.6928 6.56686 37.3992 6.57933 37.1375C6.5782 36.8717 6.5748 36.5833 6.4289 36.3502C6.30153 36.1593 6.043 36.1385 5.83399 36.1782V36.1782ZM11.3406 35.4761C11.7733 35.4817 12.2065 35.4695 12.6392 35.4835C12.8388 36.6894 13.0406 37.8952 13.2568 39.098C13.4458 38.0334 13.634 36.9685 13.8234 35.9039C13.8585 35.7645 13.8551 35.6133 13.9118 35.4817C14.3363 35.4695 14.7615 35.4824 15.1863 35.4761C15.1841 37.2294 15.1897 38.9827 15.1837 40.736C14.8787 40.7401 14.574 40.7371 14.269 40.7379C14.2607 39.4713 14.269 38.2043 14.2709 36.9385C14.2176 37.3747 14.1908 37.8155 14.1186 38.2503C13.9871 39.078 13.8306 39.902 13.6987 40.7297C13.4118 40.7457 13.1238 40.7386 12.8369 40.7323C12.6672 39.6674 12.4578 38.608 12.3081 37.5397C12.2802 37.3632 12.2813 37.1842 12.259 37.0078C12.2397 37.5186 12.2681 38.0297 12.2601 38.5409C12.2639 39.2652 12.2541 39.9895 12.2654 40.7134C12.1857 40.7468 12.098 40.7375 12.0137 40.7383C11.7899 40.7345 11.5662 40.742 11.3424 40.7345C11.3375 38.9816 11.3413 37.2291 11.3406 35.4761V35.4761ZM16.5383 35.4776C16.8169 35.4342 17.1022 35.4702 17.3838 35.4583C17.4568 35.4632 17.5875 35.4309 17.5864 35.5417C17.8926 36.9844 18.193 38.4282 18.4977 39.8709C18.5506 40.1581 18.6322 40.441 18.6655 40.7316C18.32 40.7479 17.9742 40.7286 17.6291 40.7416C17.5479 40.4235 17.5025 40.0977 17.4382 39.776C17.1733 39.7712 16.9083 39.7723 16.6434 39.7756C16.5738 40.0962 16.5553 40.4299 16.4563 40.7427C16.1486 40.7308 15.841 40.7412 15.5333 40.7379C15.5658 40.3961 15.6607 40.0633 15.7147 39.7245C15.9914 38.3092 16.2718 36.8947 16.5383 35.4776M16.7817 39.0528C16.9537 39.0535 17.1257 39.0546 17.298 39.0509C17.2111 38.3248 17.109 37.6001 17.0248 36.874C16.9779 37.6034 16.8384 38.324 16.7817 39.0528ZM30.4277 35.4758C30.8598 35.4798 31.2918 35.4743 31.7234 35.4787C31.932 36.6842 32.1324 37.8911 32.3433 39.0962C32.4389 38.5735 32.5353 38.0505 32.6237 37.5267C32.632 37.5174 32.6487 37.4993 32.657 37.49C32.6513 37.331 32.6899 37.1764 32.7156 37.0207C32.8066 36.5059 32.8894 35.9895 32.996 35.4776C33.4216 35.4772 33.8472 35.4772 34.2728 35.4769C34.2758 37.2305 34.2769 38.9846 34.2724 40.7383C33.9678 40.7357 33.6631 40.742 33.3589 40.7338C33.349 39.8182 33.3581 38.9023 33.3547 37.9864C33.3626 37.6346 33.3717 37.2821 33.3581 36.9303C33.3059 37.3062 33.2976 37.6876 33.2368 38.0631C33.1003 38.9512 32.9336 39.8345 32.7859 40.7208C32.5549 40.7586 32.3191 40.7264 32.0859 40.7383C32.0322 40.7308 31.9559 40.7623 31.926 40.7016C31.788 39.8939 31.6437 39.0873 31.5095 38.2792C31.4369 37.8344 31.3677 37.3881 31.3454 36.9377C31.3451 38.1965 31.3435 39.4561 31.3504 40.7153C31.0484 40.7668 30.7362 40.7227 30.43 40.739C30.4221 38.9846 30.4262 37.2302 30.4277 35.4758V35.4758ZM22.2346 39.5884C22.5986 39.5836 22.9626 39.5825 23.3266 39.5899C23.3284 39.9628 23.3167 40.3361 23.3318 40.7086C23.2729 40.7509 23.1969 40.7349 23.1293 40.7383C22.8307 40.7312 22.5313 40.749 22.2335 40.7286C22.2357 40.3483 22.2323 39.9684 22.2346 39.5884V39.5884Z" fill="white"/>
</g>
<defs>
<clipPath id="clip0_23_5664">
<rect width="38.0291" height="44.8744" fill="white" transform="translate(0.541748)"/>
</clipPath>
</defs>
</svg>
