<svg width="67" height="45" viewBox="0 0 67 45" fill="none" xmlns="http://www.w3.org/2000/svg">
<g clip-path="url(#clip0_23_5657)">
<path d="M33.8741 0.38623H0.788757V11.0611H11.7411V33.0779H22.9217V11.0611H33.8741V0.38623ZM44.8265 0.38623H66.9594V11.0611H44.8265V0.38623ZM44.8265 21.8358V11.0611H33.8741V33.0779H66.9594V21.8516L44.8265 21.8358Z" fill="#9E9E9E"/>
<path d="M5.35421 37.5255V44.1973H3.52881V37.5255H0.79071V36.1911H7.63595V37.5255H5.35421ZM12.763 41.5286H8.9669C9.02713 42.4181 9.66808 42.826 10.2727 42.826C10.7323 42.826 11.1188 42.7266 11.3609 42.4548L12.5456 43.4536C12.0379 44.0896 11.1188 44.4717 10.2727 44.4717C8.44711 44.4717 7.28639 43.2192 7.28639 41.263C7.28639 39.3658 8.50735 38.0381 10.1158 38.0381C11.8086 38.0381 12.7875 39.37 12.7875 41.1378C12.7875 41.3747 12.7754 41.5286 12.763 41.5286V41.5286ZM10.0311 39.531C9.42644 39.531 9.05178 39.7494 8.99131 40.639H11.1676C11.1193 39.7494 10.7807 39.531 10.0311 39.531V39.531ZM16.765 44.4891C15.1084 44.4891 13.791 43.1692 13.791 41.2719C13.791 39.3747 15.0726 38.043 16.8376 38.043C18.0467 38.043 18.8204 38.6206 19.3525 39.4103L18.2525 40.4942C17.8776 39.9756 17.4787 39.6102 16.8017 39.6102C16.0036 39.6102 15.4838 40.2583 15.4838 41.2715C15.4838 42.2618 16.0036 42.9219 16.8017 42.9219C17.4543 42.9219 17.8655 42.6392 18.3011 42.1324L19.3648 43.1102C18.7478 43.9117 18.0222 44.4891 16.765 44.4891V44.4891ZM24.2927 44.1973V41.0126C24.2927 39.9053 24.0753 39.5753 23.3859 39.5753C22.6966 39.5753 22.4673 39.9055 22.4673 40.9779V44.1977H20.6419V36.5828L22.4673 35.769V38.5861C22.4673 38.2914 23.1986 38.0441 23.8635 38.0441C25.4838 38.0441 26.1181 39.1281 26.1181 40.8721V44.1977L24.2927 44.1973Z" fill="#9E9E9E"/>
<path d="M32.7829 38.5145C32.4805 37.9492 31.997 37.6189 31.2356 37.6189C29.966 37.6189 29.2409 38.7033 29.2409 40.2349C29.2409 41.7196 29.9784 42.8509 31.2477 42.8509C32.01 42.8509 32.4572 42.5329 32.9042 41.8023L34.331 42.627C33.751 43.7936 32.7347 44.4888 31.1998 44.4888C28.9872 44.4888 27.4997 42.8385 27.4997 40.2345C27.4997 37.7245 29.0469 35.9805 31.2596 35.9805C32.8559 35.9805 33.8231 36.7347 34.3545 37.8066L32.7829 38.5145V38.5145ZM38.9974 40.0699C38.7314 39.8339 38.4621 39.6691 38.0875 39.6691C37.4351 39.6691 37.0691 39.9409 37.0691 41.0124V44.1971H35.2437V37.9701H37.0691V38.5854C37.5255 38.2908 37.7253 38.0435 38.3179 38.0435C38.8617 38.0435 39.2436 38.2552 39.4611 38.4793L38.9974 40.0699V40.0699ZM44.3707 44.1419V43.9471C43.9144 44.2415 43.6394 44.4891 42.9745 44.4891C41.354 44.4891 40.7199 43.4047 40.7199 41.6611V37.9703H42.089V41.5192C42.089 42.627 42.5346 42.957 43.2241 42.957C43.9123 42.957 44.3707 42.6265 44.3707 41.5541V37.9701H46.1961V44.1971H44.2991L44.3707 44.1419ZM50.9878 44.1973V41.0126C50.9878 39.9053 50.8844 39.5753 50.1949 39.5753C49.5067 39.5753 49.3906 39.9055 49.3906 40.9779V44.1977H47.5652V37.9707H49.3906V38.5861C49.3906 38.2914 50.0078 38.0441 50.6727 38.0441C52.2932 38.0441 52.8132 39.1281 52.8132 40.8721V44.1977L50.9878 44.1973ZM57.2288 44.4891C55.5723 44.4891 54.255 43.1692 54.255 41.2719C54.255 39.3747 55.5367 38.043 57.3016 38.043C58.5112 38.043 59.2847 38.6206 59.8163 39.4103L58.717 40.4942C58.3416 39.9756 57.9432 39.6102 57.2665 39.6102C56.4678 39.6102 55.9478 40.2583 55.9478 41.2715C55.9478 42.2618 56.4678 42.9219 57.2665 42.9219C57.9184 42.9219 58.3302 42.6392 58.7656 42.1324L59.8293 43.1102C59.2112 43.9117 58.4863 44.4891 57.2288 44.4891V44.4891ZM64.6783 44.3596V41.0126C64.6783 39.9053 64.4608 39.5753 63.7713 39.5753C63.0831 39.5753 62.8529 39.9055 62.8529 40.9779V44.1977H61.0275V36.5828L62.8529 35.769V38.5861C62.8529 38.2914 63.5842 38.0441 64.2491 38.0441C65.8696 38.0441 66.5037 39.1281 66.5037 40.8721V44.1977H64.7212L64.6783 44.3596V44.3596Z" fill="#9E9E9E"/>
</g>
<defs>
<clipPath id="clip0_23_5657">
<rect width="66.1707" height="44.1138" fill="white" transform="translate(0.79071 0.380371)"/>
</clipPath>
</defs>
</svg>
