<svg width="620" height="450" viewBox="0 0 620 450" fill="none" xmlns="http://www.w3.org/2000/svg">
<g clip-path="url(#clip0_4_1992)">
<rect width="620" height="450" rx="15" fill="#ECDFFF"/>
<mask id="path-2-inside-1_4_1992" fill="white">
<path d="M531.529 137.926V137.926C537.369 137.926 542.104 142.66 542.104 148.501V219.001C542.104 224.841 537.369 229.576 531.529 229.576V229.576V137.926Z"/>
</mask>
<path d="M531.529 137.926V137.926C537.369 137.926 542.104 142.66 542.104 148.501V219.001C542.104 224.841 537.369 229.576 531.529 229.576V229.576V137.926Z" fill="url(#paint0_linear_4_1992)"/>
<path d="M530.354 148.501V219.001H553.854V148.501H530.354ZM543.279 229.576V137.926H519.779V229.576H543.279ZM530.354 219.001C530.354 218.352 530.88 217.826 531.529 217.826V241.326C543.858 241.326 553.854 231.331 553.854 219.001H530.354ZM531.529 149.676C530.88 149.676 530.354 149.15 530.354 148.501H553.854C553.854 136.171 543.858 126.176 531.529 126.176V149.676Z" fill="#BFBFC7" mask="url(#path-2-inside-1_4_1992)"/>
<path d="M471.296 38.3H128.664C98.0346 38.3 73.2043 63.1304 73.2043 93.7602V791.712C73.2043 822.342 98.0346 847.173 128.664 847.173H471.296C501.925 847.173 526.756 822.342 526.756 791.712V93.7602C526.756 63.1304 501.925 38.3 471.296 38.3Z" fill="#F9F9FA" stroke="#BFBFC7" stroke-width="9.40003" stroke-miterlimit="10"/>
<path d="M201.245 104.382L197.239 102.088L188.096 96.8526L187.811 96.689C186.312 95.8359 184.474 95.8359 182.975 96.689L182.691 96.854L169.833 104.219L169.549 104.384C168.058 105.237 167.136 106.823 167.131 108.541V123.923C167.136 125.642 168.058 127.227 169.549 128.082L182.695 135.61C183.659 136.163 184.888 135.837 185.45 134.879C185.718 134.419 185.79 133.872 185.652 133.358C185.513 132.844 185.175 132.408 184.712 132.145L171.854 124.782C171.427 124.538 171.163 124.085 171.162 123.593V108.871C171.163 108.379 171.427 107.925 171.854 107.682L174.13 106.378L184.698 100.313C185.125 100.07 185.65 100.07 186.077 100.313L198.939 107.679C199.364 107.924 199.627 108.376 199.629 108.867V123.599C199.628 124.091 199.364 124.544 198.936 124.788L194.585 127.28L192.389 123.969C194.604 122.007 195.872 119.192 195.873 116.234C195.873 110.498 191.169 105.831 185.386 105.831C179.603 105.831 174.9 110.498 174.9 116.234C174.9 121.97 179.603 126.637 185.386 126.637C186.593 126.638 187.79 126.431 188.926 126.025L192.261 131.054C192.314 131.131 192.37 131.205 192.431 131.275L192.466 131.31C192.537 131.386 192.613 131.456 192.695 131.519C192.715 131.535 192.734 131.552 192.755 131.568C192.845 131.633 192.94 131.691 193.039 131.741L193.108 131.771C193.196 131.811 193.288 131.845 193.381 131.872L193.443 131.892C193.549 131.919 193.657 131.937 193.766 131.945H193.856C193.887 131.945 193.917 131.945 193.948 131.945C194.009 131.945 194.071 131.938 194.13 131.932C194.159 131.932 194.186 131.932 194.214 131.932C194.329 131.916 194.442 131.89 194.553 131.855C194.583 131.847 194.611 131.834 194.641 131.822C194.729 131.79 194.814 131.752 194.897 131.709C194.915 131.699 194.937 131.693 194.955 131.682L201.245 128.087C202.737 127.231 203.659 125.644 203.663 123.923V108.54C203.658 106.821 202.736 105.236 201.245 104.382ZM178.932 116.234C178.91 113.619 180.468 111.249 182.878 110.233C185.288 109.217 188.073 109.755 189.931 111.597C191.788 113.439 192.35 116.219 191.354 118.637C190.358 121.056 188.002 122.634 185.386 122.634C181.838 122.645 178.951 119.782 178.932 116.234Z" fill="url(#paint1_linear_4_1992)"/>
<path d="M201.245 104.382L197.239 102.088L188.096 96.8526L187.811 96.689C186.312 95.8359 184.474 95.8359 182.975 96.689L182.691 96.854L169.833 104.219L169.549 104.384C168.058 105.237 167.136 106.823 167.131 108.541V123.923C167.136 125.642 168.058 127.227 169.549 128.082L182.695 135.61C183.659 136.163 184.888 135.837 185.45 134.879C185.718 134.419 185.79 133.872 185.652 133.358C185.513 132.844 185.175 132.408 184.712 132.145L171.854 124.782C171.427 124.538 171.163 124.085 171.162 123.593V108.871C171.163 108.379 171.427 107.925 171.854 107.682L174.13 106.378L184.698 100.313C185.125 100.07 185.65 100.07 186.077 100.313L198.939 107.679C199.364 107.924 199.627 108.376 199.629 108.867V123.599C199.628 124.091 199.364 124.544 198.936 124.788L194.585 127.28L192.389 123.969C194.604 122.007 195.872 119.192 195.873 116.234C195.873 110.498 191.169 105.831 185.386 105.831C179.603 105.831 174.9 110.498 174.9 116.234C174.9 121.97 179.603 126.637 185.386 126.637C186.593 126.638 187.79 126.431 188.926 126.025L192.261 131.054C192.314 131.131 192.37 131.205 192.431 131.275L192.466 131.31C192.537 131.386 192.613 131.456 192.695 131.519C192.715 131.535 192.734 131.552 192.755 131.568C192.845 131.633 192.94 131.691 193.039 131.741L193.108 131.771C193.196 131.811 193.288 131.845 193.381 131.872L193.443 131.892C193.549 131.919 193.657 131.937 193.766 131.945H193.856C193.887 131.945 193.917 131.945 193.948 131.945C194.009 131.945 194.071 131.938 194.13 131.932C194.159 131.932 194.186 131.932 194.214 131.932C194.329 131.916 194.442 131.89 194.553 131.855C194.583 131.847 194.611 131.834 194.641 131.822C194.729 131.79 194.814 131.752 194.897 131.709C194.915 131.699 194.937 131.693 194.955 131.682L201.245 128.087C202.737 127.231 203.659 125.644 203.663 123.923V108.54C203.658 106.821 202.736 105.236 201.245 104.382ZM178.932 116.234C178.91 113.619 180.468 111.249 182.878 110.233C185.288 109.217 188.073 109.755 189.931 111.597C191.788 113.439 192.35 116.219 191.354 118.637C190.358 121.056 188.002 122.634 185.386 122.634C181.838 122.645 178.951 119.782 178.932 116.234Z" fill="url(#paint2_linear_4_1992)"/>
<path d="M201.242 104.382L197.237 102.088L191.651 98.8906C190.366 98.1571 188.796 98.1335 187.49 98.828L184.696 100.313C185.123 100.07 185.647 100.07 186.075 100.313L198.937 107.679C199.362 107.923 199.625 108.376 199.627 108.867V123.599C199.626 124.091 199.362 124.544 198.934 124.788L194.583 127.28L195.262 128.365C196.074 129.659 197.764 130.081 199.089 129.319L201.242 128.087C202.737 127.234 203.66 125.644 203.66 123.923V108.539C203.658 106.82 202.736 105.234 201.242 104.382Z" fill="url(#paint3_linear_4_1992)"/>
<path d="M199.627 108.871V116.018H203.66V108.539C203.658 106.82 202.736 105.234 201.242 104.382L197.237 102.088L191.651 98.8906C190.366 98.1571 188.796 98.1335 187.49 98.828L184.696 100.313C185.123 100.071 185.647 100.071 186.075 100.313L198.937 107.679C199.364 107.924 199.627 108.379 199.627 108.871Z" fill="url(#paint4_linear_4_1992)"/>
<path opacity="0.9" d="M199.626 117.169V123.599C199.626 124.091 199.361 124.545 198.933 124.788L194.583 127.28L195.261 128.365C196.073 129.659 197.763 130.081 199.088 129.319L201.242 128.087C202.737 127.234 203.66 125.645 203.66 123.923V117.169H199.626Z" fill="url(#paint5_linear_4_1992)"/>
<path opacity="0.9" d="M194.274 126.813L192.387 123.969C191.376 124.871 190.2 125.57 188.924 126.025L190.93 129.053C192.063 128.331 193.178 127.584 194.274 126.813Z" fill="url(#paint6_linear_4_1992)"/>
<path d="M220.438 126.308V106.23H224.734L230.959 117.569L237.155 106.23H241.48V126.308H237.155V113.799L230.959 125.139L224.734 113.799V126.308H220.438ZM252.704 126.659C248.203 126.659 244.433 123.035 244.433 118.739C244.433 114.442 248.203 110.848 252.704 110.848C257.175 110.848 260.916 114.442 260.916 118.739C260.916 123.035 257.175 126.659 252.704 126.659ZM252.704 123.064C254.954 123.064 256.854 121.077 256.854 118.739C256.854 116.4 254.954 114.442 252.704 114.442C250.424 114.442 248.525 116.4 248.525 118.739C248.525 121.077 250.424 123.064 252.704 123.064ZM262.922 126.308V123.298L270.521 114.822H263.127V111.198H276.074V114.209L268.475 122.684H276.132V126.308H262.922ZM281.074 109.123C279.758 109.123 278.736 108.071 278.736 106.785C278.736 105.587 279.758 104.506 281.074 104.506C282.33 104.506 283.353 105.587 283.353 106.785C283.353 108.071 282.33 109.123 281.074 109.123ZM278.911 126.308V111.198H283.178V126.308H278.911ZM286.694 126.308V105.879H290.961V126.308H286.694ZM294.477 126.308V105.879H298.743V126.308H294.477ZM309.01 110.848C312.956 110.848 315.644 113.332 315.644 117.277V126.308H311.524V124.788C310.442 126.016 308.718 126.659 307.081 126.659C303.867 126.659 301.382 124.73 301.382 121.836C301.382 118.855 304.159 116.81 307.666 116.81C308.893 116.81 310.238 117.073 311.524 117.569V117.277C311.524 115.67 310.53 114.267 308.046 114.267C306.643 114.267 305.328 114.735 304.13 115.348L302.697 112.514C304.831 111.432 306.906 110.848 309.01 110.848ZM308.046 123.707C309.682 123.707 311.231 122.947 311.524 121.544V120.141C310.559 119.791 309.449 119.586 308.28 119.586C306.731 119.586 305.503 120.492 305.503 121.719C305.503 122.947 306.584 123.707 308.046 123.707ZM327.658 126.308V106.23H330.609L337.653 119.352L344.696 106.23H347.648V126.308H344.696V112.017L337.653 125.139L330.609 112.017V126.308H327.658ZM358.84 126.659C354.515 126.659 350.862 123.035 350.862 118.739C350.862 114.442 354.515 110.848 358.84 110.848C363.136 110.848 366.76 114.442 366.76 118.739C366.76 123.035 363.136 126.659 358.84 126.659ZM358.84 124.145C361.558 124.145 363.867 121.69 363.867 118.739C363.867 115.816 361.558 113.361 358.84 113.361C356.064 113.361 353.755 115.816 353.755 118.739C353.755 121.69 356.064 124.145 358.84 124.145ZM377.205 110.848C380.537 110.848 382.875 113.273 382.875 116.693V126.308H380.04V117.19C380.04 114.939 378.608 113.361 376.563 113.361C374.458 113.361 372.646 114.735 372.413 116.517V126.308H369.519V111.198H372.413V113.39C373.319 111.9 375.16 110.848 377.205 110.848ZM387.82 108.685C386.827 108.685 386.067 107.867 386.067 106.932C386.067 106.026 386.827 105.207 387.82 105.207C388.755 105.207 389.545 106.026 389.545 106.932C389.545 107.867 388.755 108.685 387.82 108.685ZM386.359 126.308V111.198H389.252V126.308H386.359ZM399.884 123.59L400.936 125.577C400.118 126.249 399.007 126.659 397.926 126.659C395.588 126.659 393.951 124.963 393.951 122.538V113.653H391.672V111.198H393.951V107.048H396.786V111.198H400.351V113.653H396.786V122.333C396.786 123.385 397.487 124.145 398.335 124.145C398.978 124.145 399.562 123.911 399.884 123.59ZM410.419 126.659C406.094 126.659 402.44 123.035 402.44 118.739C402.44 114.442 406.094 110.848 410.419 110.848C414.715 110.848 418.339 114.442 418.339 118.739C418.339 123.035 414.715 126.659 410.419 126.659ZM410.419 124.145C413.137 124.145 415.446 121.69 415.446 118.739C415.446 115.816 413.137 113.361 410.419 113.361C407.643 113.361 405.334 115.816 405.334 118.739C405.334 121.69 407.643 124.145 410.419 124.145ZM424.137 114.092C425.102 112.104 427.148 110.848 429.749 110.848V113.361C426.622 113.361 424.4 115.085 424.137 117.716V126.308H421.244V111.198H424.137V114.092Z" fill="black"/>
<path d="M96.4061 175.79C96.4061 172.67 98.9355 170.141 102.056 170.141H497.795C500.916 170.141 503.445 172.67 503.445 175.79V661.862C503.445 664.982 500.916 667.512 497.795 667.512H102.056C98.9355 667.512 96.4061 664.982 96.4061 661.862V175.79Z" fill="white"/>
<path d="M497.795 169.788H102.056C98.7405 169.788 96.053 172.475 96.053 175.79V661.862C96.053 665.177 98.7405 667.865 102.056 667.865H497.795C501.111 667.865 503.798 665.177 503.798 661.862V175.79C503.798 172.475 501.111 169.788 497.795 169.788Z" stroke="black" stroke-opacity="0.1" stroke-width="0.706212"/>
<path d="M131.644 319V312.056L124.112 299.764H128.928L133.716 308.192L138.7 299.764H143.32L135.816 312.056V319H131.644ZM149.146 319.336C144.834 319.336 141.222 315.864 141.222 311.748C141.222 307.632 144.834 304.188 149.146 304.188C153.43 304.188 157.014 307.632 157.014 311.748C157.014 315.864 153.43 319.336 149.146 319.336ZM149.146 315.892C151.302 315.892 153.122 313.988 153.122 311.748C153.122 309.508 151.302 307.632 149.146 307.632C146.962 307.632 145.142 309.508 145.142 311.748C145.142 313.988 146.962 315.892 149.146 315.892ZM169.384 304.524H173.472V319H169.384V317.18C168.516 318.496 166.892 319.336 165.016 319.336C161.88 319.336 159.64 317.012 159.64 313.736V304.524H163.588V312.868C163.588 314.66 164.708 315.892 166.332 315.892C168.04 315.892 169.356 314.66 169.356 313.092L169.384 313.176V304.524ZM181.067 307.212C182.019 305.336 183.811 304.188 186.023 304.188V307.632C182.999 307.632 181.067 309.368 181.067 312.084V319H176.979V304.524H181.067V307.212ZM206.674 304.524H210.79V317.46C210.79 321.184 207.57 323.816 203.006 323.816C200.458 323.816 198.05 323.004 196.622 321.884L198.05 319C199.002 319.84 200.682 320.372 202.362 320.372C204.994 320.372 206.674 319.168 206.674 317.292V315.696C205.526 317.096 203.79 317.936 201.886 317.936C198.246 317.936 195.474 315.08 195.474 311.048C195.474 307.016 198.246 304.188 201.886 304.188C203.846 304.188 205.694 305.112 206.674 306.484V304.524ZM203.174 314.492C205.218 314.492 206.674 313.064 206.674 311.048C206.674 309.032 205.218 307.632 203.174 307.632C201.13 307.632 199.674 309.032 199.674 311.048C199.674 313.064 201.13 314.492 203.174 314.492ZM214.386 319V299.428H218.474V319H214.386ZM228.51 304.188C232.29 304.188 234.866 306.568 234.866 310.348V319H230.918V317.544C229.882 318.72 228.23 319.336 226.662 319.336C223.582 319.336 221.202 317.488 221.202 314.716C221.202 311.86 223.862 309.9 227.222 309.9C228.398 309.9 229.686 310.152 230.918 310.628V310.348C230.918 308.808 229.966 307.464 227.586 307.464C226.242 307.464 224.982 307.912 223.834 308.5L222.462 305.784C224.506 304.748 226.494 304.188 228.51 304.188ZM227.586 316.508C229.154 316.508 230.638 315.78 230.918 314.436V313.092C229.994 312.756 228.93 312.56 227.81 312.56C226.326 312.56 225.15 313.428 225.15 314.604C225.15 315.78 226.186 316.508 227.586 316.508ZM243.743 319.336C241.419 319.336 238.955 318.552 237.219 317.152L238.983 314.324C240.271 315.248 241.895 315.948 243.827 315.948C244.919 315.948 245.703 315.5 245.703 314.856C245.703 313.96 244.639 313.68 243.155 313.288C240.187 312.56 237.891 311.748 237.863 308.892C237.835 306.148 240.103 304.188 243.519 304.188C245.591 304.188 247.635 304.916 249.231 305.98L247.579 308.892C246.263 308.08 244.751 307.604 243.519 307.604C242.511 307.604 241.811 307.968 241.811 308.472C241.811 309.256 242.399 309.48 244.359 310.012C246.851 310.656 249.623 311.496 249.623 314.66C249.623 317.516 247.299 319.336 243.743 319.336ZM257.798 319.336C255.474 319.336 253.01 318.552 251.274 317.152L253.038 314.324C254.326 315.248 255.95 315.948 257.882 315.948C258.974 315.948 259.758 315.5 259.758 314.856C259.758 313.96 258.694 313.68 257.21 313.288C254.242 312.56 251.946 311.748 251.918 308.892C251.89 306.148 254.158 304.188 257.574 304.188C259.646 304.188 261.69 304.916 263.286 305.98L261.634 308.892C260.318 308.08 258.806 307.604 257.574 307.604C256.566 307.604 255.866 307.968 255.866 308.472C255.866 309.256 256.454 309.48 258.414 310.012C260.906 310.656 263.678 311.496 263.678 314.66C263.678 317.516 261.354 319.336 257.798 319.336ZM273.253 315.724C274.401 315.724 275.801 315.192 276.585 314.436L279.189 317.096C277.901 318.44 275.409 319.336 273.281 319.336C268.969 319.336 265.609 316.172 265.609 311.72C265.609 307.352 268.829 304.188 273.057 304.188C277.593 304.188 280.253 307.632 280.253 313.092H269.809C270.285 314.66 271.545 315.724 273.253 315.724ZM273.225 307.8C271.685 307.8 270.397 308.696 269.865 310.152H276.333C275.941 308.724 274.877 307.8 273.225 307.8ZM288.451 319.336C286.127 319.336 283.663 318.552 281.927 317.152L283.691 314.324C284.979 315.248 286.603 315.948 288.535 315.948C289.627 315.948 290.411 315.5 290.411 314.856C290.411 313.96 289.347 313.68 287.863 313.288C284.895 312.56 282.599 311.748 282.571 308.892C282.543 306.148 284.811 304.188 288.227 304.188C290.299 304.188 292.343 304.916 293.939 305.98L292.287 308.892C290.971 308.08 289.459 307.604 288.227 307.604C287.219 307.604 286.519 307.968 286.519 308.472C286.519 309.256 287.107 309.48 289.067 310.012C291.559 310.656 294.331 311.496 294.331 314.66C294.331 317.516 292.007 319.336 288.451 319.336ZM307.881 299.428H311.969V319H307.881V316.928C306.733 318.44 305.053 319.336 303.009 319.336C299.145 319.336 296.345 316.2 296.345 311.748C296.345 307.324 299.145 304.188 303.009 304.188C305.053 304.188 306.733 305.084 307.881 306.596V299.428ZM304.185 315.892C306.341 315.892 307.881 314.184 307.881 311.748C307.881 309.34 306.341 307.632 304.185 307.632C301.917 307.632 300.321 309.34 300.321 311.748C300.321 314.184 301.917 315.892 304.185 315.892ZM322.67 319.336C318.358 319.336 314.746 315.864 314.746 311.748C314.746 307.632 318.358 304.188 322.67 304.188C326.954 304.188 330.538 307.632 330.538 311.748C330.538 315.864 326.954 319.336 322.67 319.336ZM322.67 315.892C324.826 315.892 326.646 313.988 326.646 311.748C326.646 309.508 324.826 307.632 322.67 307.632C320.486 307.632 318.666 309.508 318.666 311.748C318.666 313.988 320.486 315.892 322.67 315.892ZM340.92 315.416L341.9 318.076C341.06 318.832 339.744 319.336 338.568 319.336C336.02 319.336 334.228 317.516 334.228 314.912V307.828H332.24V304.524H334.228V300.548H338.148V304.524H341.284V307.828H338.148V314.268C338.148 315.22 338.764 315.892 339.52 315.892C340.08 315.892 340.64 315.696 340.92 315.416ZM351.544 319.336C347.26 319.336 343.648 315.864 343.648 311.748C343.648 307.632 347.288 304.188 351.572 304.188C353.924 304.188 355.856 305.14 357.256 306.652L354.54 308.976C353.812 308.164 352.664 307.632 351.544 307.632C349.416 307.632 347.624 309.508 347.624 311.72C347.624 313.988 349.416 315.892 351.572 315.892C352.692 315.892 353.868 315.332 354.624 314.492L357.34 316.788C355.912 318.356 353.952 319.336 351.544 319.336ZM366.611 319.336C362.299 319.336 358.687 315.864 358.687 311.748C358.687 307.632 362.299 304.188 366.611 304.188C370.895 304.188 374.479 307.632 374.479 311.748C374.479 315.864 370.895 319.336 366.611 319.336ZM366.611 315.892C368.767 315.892 370.587 313.988 370.587 311.748C370.587 309.508 368.767 307.632 366.611 307.632C364.427 307.632 362.607 309.508 362.607 311.748C362.607 313.988 364.427 315.892 366.611 315.892ZM394.465 304.188C397.489 304.188 399.813 306.512 399.813 309.788V319.028H395.893V310.488C395.893 308.808 394.829 307.632 393.317 307.632C391.693 307.632 390.517 308.724 390.517 310.264V319.028H386.597V310.488C386.597 308.808 385.533 307.632 384.049 307.632C382.397 307.632 381.249 308.724 381.249 310.264V319H377.161V304.524H381.249V306.428C381.949 305.056 383.377 304.188 385.169 304.188C387.157 304.188 388.865 305.196 389.761 306.82C390.517 305.224 392.309 304.188 394.465 304.188ZM405.573 319.336C404.117 319.336 402.969 318.16 402.969 316.732C402.969 315.416 404.117 314.24 405.573 314.24C406.945 314.24 408.065 315.416 408.065 316.732C408.065 318.16 406.945 319.336 405.573 319.336ZM418.454 319.336C414.17 319.336 410.558 315.864 410.558 311.748C410.558 307.632 414.198 304.188 418.482 304.188C420.834 304.188 422.766 305.14 424.166 306.652L421.45 308.976C420.722 308.164 419.574 307.632 418.454 307.632C416.326 307.632 414.534 309.508 414.534 311.72C414.534 313.988 416.326 315.892 418.482 315.892C419.602 315.892 420.778 315.332 421.534 314.492L424.25 316.788C422.822 318.356 420.862 319.336 418.454 319.336ZM433.521 319.336C429.209 319.336 425.597 315.864 425.597 311.748C425.597 307.632 429.209 304.188 433.521 304.188C437.805 304.188 441.389 307.632 441.389 311.748C441.389 315.864 437.805 319.336 433.521 319.336ZM433.521 315.892C435.677 315.892 437.497 313.988 437.497 311.748C437.497 309.508 435.677 307.632 433.521 307.632C431.337 307.632 429.517 309.508 429.517 311.748C429.517 313.988 431.337 315.892 433.521 315.892ZM461.375 304.188C464.399 304.188 466.723 306.512 466.723 309.788V319.028H462.803V310.488C462.803 308.808 461.739 307.632 460.227 307.632C458.603 307.632 457.427 308.724 457.427 310.264V319.028H453.507V310.488C453.507 308.808 452.443 307.632 450.959 307.632C449.307 307.632 448.159 308.724 448.159 310.264V319H444.071V304.524H448.159V306.428C448.859 305.056 450.287 304.188 452.079 304.188C454.067 304.188 455.775 305.196 456.671 306.82C457.427 305.224 459.219 304.188 461.375 304.188ZM134.724 338.188C138.588 338.188 141.388 341.324 141.388 345.748C141.388 350.2 138.588 353.336 134.724 353.336C132.708 353.336 131.028 352.468 129.88 350.956V357.816H125.792V338.524H129.88V340.54C131.028 339.056 132.708 338.188 134.724 338.188ZM133.548 349.892C135.816 349.892 137.412 348.184 137.412 345.748C137.412 343.34 135.816 341.632 133.548 341.632C131.56 341.632 130.104 343.088 129.88 345.188V346.308C130.104 348.436 131.56 349.892 133.548 349.892ZM150.744 338.188C154.524 338.188 157.1 340.568 157.1 344.348V353H153.152V351.544C152.116 352.72 150.464 353.336 148.896 353.336C145.816 353.336 143.436 351.488 143.436 348.716C143.436 345.86 146.096 343.9 149.456 343.9C150.632 343.9 151.92 344.152 153.152 344.628V344.348C153.152 342.808 152.2 341.464 149.82 341.464C148.476 341.464 147.216 341.912 146.068 342.5L144.696 339.784C146.74 338.748 148.728 338.188 150.744 338.188ZM149.82 350.508C151.388 350.508 152.872 349.78 153.152 348.436V347.092C152.228 346.756 151.164 346.56 150.044 346.56C148.56 346.56 147.384 347.428 147.384 348.604C147.384 349.78 148.42 350.508 149.82 350.508ZM165.978 353.336C163.654 353.336 161.19 352.552 159.454 351.152L161.218 348.324C162.506 349.248 164.13 349.948 166.062 349.948C167.154 349.948 167.938 349.5 167.938 348.856C167.938 347.96 166.874 347.68 165.39 347.288C162.422 346.56 160.126 345.748 160.098 342.892C160.07 340.148 162.338 338.188 165.754 338.188C167.826 338.188 169.87 338.916 171.466 339.98L169.814 342.892C168.498 342.08 166.986 341.604 165.754 341.604C164.746 341.604 164.046 341.968 164.046 342.472C164.046 343.256 164.634 343.48 166.594 344.012C169.086 344.656 171.858 345.496 171.858 348.66C171.858 351.516 169.534 353.336 165.978 353.336ZM180.033 353.336C177.709 353.336 175.245 352.552 173.509 351.152L175.273 348.324C176.561 349.248 178.185 349.948 180.117 349.948C181.209 349.948 181.993 349.5 181.993 348.856C181.993 347.96 180.929 347.68 179.445 347.288C176.477 346.56 174.181 345.748 174.153 342.892C174.125 340.148 176.393 338.188 179.809 338.188C181.881 338.188 183.925 338.916 185.521 339.98L183.869 342.892C182.553 342.08 181.041 341.604 179.809 341.604C178.801 341.604 178.101 341.968 178.101 342.472C178.101 343.256 178.689 343.48 180.649 344.012C183.141 344.656 185.913 345.496 185.913 348.66C185.913 351.516 183.589 353.336 180.033 353.336ZM192.295 353L187.367 338.524H191.371L194.115 347.54L196.971 338.524H200.359L203.215 347.54L205.959 338.524H209.963L205.035 353H201.367L198.679 343.9L195.963 353H192.295ZM218.627 353.336C214.315 353.336 210.703 349.864 210.703 345.748C210.703 341.632 214.315 338.188 218.627 338.188C222.911 338.188 226.495 341.632 226.495 345.748C226.495 349.864 222.911 353.336 218.627 353.336ZM218.627 349.892C220.783 349.892 222.603 347.988 222.603 345.748C222.603 343.508 220.783 341.632 218.627 341.632C216.443 341.632 214.623 343.508 214.623 345.748C214.623 347.988 216.443 349.892 218.627 349.892ZM233.349 341.212C234.301 339.336 236.093 338.188 238.305 338.188V341.632C235.281 341.632 233.349 343.368 233.349 346.084V353H229.261V338.524H233.349V341.212ZM251.471 333.428H255.559V353H251.471V350.928C250.323 352.44 248.643 353.336 246.599 353.336C242.735 353.336 239.935 350.2 239.935 345.748C239.935 341.324 242.735 338.188 246.599 338.188C248.643 338.188 250.323 339.084 251.471 340.596V333.428ZM247.775 349.892C249.931 349.892 251.471 348.184 251.471 345.748C251.471 343.34 249.931 341.632 247.775 341.632C245.507 341.632 243.911 343.34 243.911 345.748C243.911 348.184 245.507 349.892 247.775 349.892ZM270.608 353L265.68 338.524H269.684L272.428 347.54L275.284 338.524H278.672L281.528 347.54L284.272 338.524H288.276L283.348 353H279.68L276.992 343.9L274.276 353H270.608ZM296.979 338.188C300.759 338.188 303.335 340.568 303.335 344.348V353H299.387V351.544C298.351 352.72 296.699 353.336 295.131 353.336C292.051 353.336 289.671 351.488 289.671 348.716C289.671 345.86 292.331 343.9 295.691 343.9C296.867 343.9 298.155 344.152 299.387 344.628V344.348C299.387 342.808 298.435 341.464 296.055 341.464C294.711 341.464 293.451 341.912 292.303 342.5L290.931 339.784C292.975 338.748 294.963 338.188 296.979 338.188ZM296.055 350.508C297.623 350.508 299.107 349.78 299.387 348.436V347.092C298.463 346.756 297.399 346.56 296.279 346.56C294.795 346.56 293.619 347.428 293.619 348.604C293.619 349.78 294.655 350.508 296.055 350.508ZM312.212 353.336C309.888 353.336 307.424 352.552 305.688 351.152L307.452 348.324C308.74 349.248 310.364 349.948 312.296 349.948C313.388 349.948 314.172 349.5 314.172 348.856C314.172 347.96 313.108 347.68 311.624 347.288C308.656 346.56 306.36 345.748 306.332 342.892C306.304 340.148 308.572 338.188 311.988 338.188C314.06 338.188 316.104 338.916 317.7 339.98L316.048 342.892C314.732 342.08 313.22 341.604 311.988 341.604C310.98 341.604 310.28 341.968 310.28 342.472C310.28 343.256 310.868 343.48 312.828 344.012C315.32 344.656 318.092 345.496 318.092 348.66C318.092 351.516 315.768 353.336 312.212 353.336ZM335.487 349.724C336.635 349.724 338.035 349.192 338.819 348.436L341.423 351.096C340.135 352.44 337.643 353.336 335.515 353.336C331.203 353.336 327.843 350.172 327.843 345.72C327.843 341.352 331.063 338.188 335.291 338.188C339.827 338.188 342.487 341.632 342.487 347.092H332.043C332.519 348.66 333.779 349.724 335.487 349.724ZM335.459 341.8C333.919 341.8 332.631 342.696 332.099 344.152H338.567C338.175 342.724 337.111 341.8 335.459 341.8ZM358.889 353H354.493L351.357 348.632L348.193 353H343.881L349.201 345.636L344.105 338.524H348.529L351.413 342.556L354.325 338.524H358.637L353.569 345.552L358.889 353ZM370.044 338.188C373.908 338.188 376.708 341.324 376.708 345.748C376.708 350.2 373.908 353.336 370.044 353.336C368.028 353.336 366.348 352.468 365.2 350.956V357.816H361.112V338.524H365.2V340.54C366.348 339.056 368.028 338.188 370.044 338.188ZM368.868 349.892C371.136 349.892 372.732 348.184 372.732 345.748C372.732 343.34 371.136 341.632 368.868 341.632C366.88 341.632 365.424 343.088 365.2 345.188V346.308C365.424 348.436 366.88 349.892 368.868 349.892ZM386.709 353.336C382.397 353.336 378.785 349.864 378.785 345.748C378.785 341.632 382.397 338.188 386.709 338.188C390.993 338.188 394.577 341.632 394.577 345.748C394.577 349.864 390.993 353.336 386.709 353.336ZM386.709 349.892C388.865 349.892 390.685 347.988 390.685 345.748C390.685 343.508 388.865 341.632 386.709 341.632C384.525 341.632 382.705 343.508 382.705 345.748C382.705 347.988 384.525 349.892 386.709 349.892ZM402.775 353.336C400.451 353.336 397.987 352.552 396.251 351.152L398.015 348.324C399.303 349.248 400.927 349.948 402.859 349.948C403.951 349.948 404.735 349.5 404.735 348.856C404.735 347.96 403.671 347.68 402.187 347.288C399.219 346.56 396.923 345.748 396.895 342.892C396.867 340.148 399.135 338.188 402.551 338.188C404.623 338.188 406.667 338.916 408.263 339.98L406.611 342.892C405.295 342.08 403.783 341.604 402.551 341.604C401.543 341.604 400.843 341.968 400.843 342.472C400.843 343.256 401.431 343.48 403.391 344.012C405.883 344.656 408.655 345.496 408.655 348.66C408.655 351.516 406.331 353.336 402.775 353.336ZM418.229 349.724C419.377 349.724 420.777 349.192 421.561 348.436L424.165 351.096C422.877 352.44 420.385 353.336 418.257 353.336C413.945 353.336 410.585 350.172 410.585 345.72C410.585 341.352 413.805 338.188 418.033 338.188C422.569 338.188 425.229 341.632 425.229 347.092H414.785C415.261 348.66 416.521 349.724 418.229 349.724ZM418.201 341.8C416.661 341.8 415.373 342.696 414.841 344.152H421.309C420.917 342.724 419.853 341.8 418.201 341.8ZM438.803 333.428H442.891V353H438.803V350.928C437.655 352.44 435.975 353.336 433.931 353.336C430.067 353.336 427.267 350.2 427.267 345.748C427.267 341.324 430.067 338.188 433.931 338.188C435.975 338.188 437.655 339.084 438.803 340.596V333.428ZM435.107 349.892C437.263 349.892 438.803 348.184 438.803 345.748C438.803 343.34 437.263 341.632 435.107 341.632C432.839 341.632 431.243 343.34 431.243 345.748C431.243 348.184 432.839 349.892 435.107 349.892Z" fill="black"/>
<rect x="155" y="205" width="44.1379" height="6.62069" rx="3.31034" fill="#592ACB"/>
<rect x="207.965" y="205" width="44.1379" height="6.62069" rx="3.31034" fill="#592ACB"/>
<rect x="260.931" y="205" width="129.103" height="6.62069" rx="3.31034" fill="#D9BFFF"/>
<path d="M301.829 235.448V225.818H303.282V234.197H307.646V235.448H301.829ZM312.304 235.594C310.174 235.594 308.866 234.127 308.866 231.884C308.866 229.665 310.192 228.132 312.205 228.132C313.841 228.132 315.402 229.152 315.402 231.762V232.26H310.268C310.305 233.652 311.114 234.433 312.318 234.433C313.117 234.433 313.728 234.085 313.982 233.403L315.313 233.643C314.993 234.818 313.879 235.594 312.304 235.594ZM310.272 231.207H314.025C314.02 230.102 313.305 229.293 312.214 229.293C311.072 229.293 310.329 230.182 310.272 231.207ZM319.064 235.608C317.691 235.608 316.624 234.828 316.624 233.407C316.624 231.766 318.025 231.409 319.393 231.249C320.691 231.099 321.218 231.108 321.218 230.596V230.563C321.218 229.744 320.752 229.27 319.845 229.27C318.9 229.27 318.373 229.763 318.166 230.276L316.845 229.975C317.315 228.658 318.519 228.132 319.826 228.132C320.973 228.132 322.628 228.55 322.628 230.652V235.448H321.255V234.461H321.199C320.931 235.002 320.259 235.608 319.064 235.608ZM319.37 234.48C320.541 234.48 321.223 233.699 321.223 232.843V231.912C321.02 232.114 319.939 232.237 319.483 232.298C318.669 232.406 318.002 232.674 318.002 233.426C318.002 234.122 318.575 234.48 319.37 234.48ZM324.501 235.448V225.818H325.907V231.282H326.029L328.907 228.226H330.59L327.666 231.324L330.788 235.448H329.062L326.608 232.185L325.907 232.886V235.448H324.501ZM334.687 235.594C332.557 235.594 331.25 234.127 331.25 231.884C331.25 229.665 332.576 228.132 334.588 228.132C336.225 228.132 337.786 229.152 337.786 231.762V232.26H332.651C332.689 233.652 333.498 234.433 334.701 234.433C335.501 234.433 336.112 234.085 336.366 233.403L337.697 233.643C337.377 234.818 336.262 235.594 334.687 235.594ZM332.656 231.207H336.408C336.404 230.102 335.689 229.293 334.598 229.293C333.455 229.293 332.712 230.182 332.656 231.207ZM342.05 235.589C340.296 235.589 339.031 234.188 339.031 231.851C339.031 229.509 340.315 228.132 342.059 228.132C343.404 228.132 343.884 228.95 344.137 229.397H344.222V225.818H345.628V235.448H344.255V234.324H344.137C343.884 234.785 343.366 235.589 342.05 235.589ZM342.36 234.39C343.573 234.39 344.246 233.356 344.246 231.837C344.246 230.328 343.587 229.326 342.36 229.326C341.09 229.326 340.451 230.403 340.451 231.837C340.451 233.285 341.105 234.39 342.36 234.39ZM281.208 258.157V248.226H282.581V249.397H282.699C282.948 248.95 283.432 248.132 284.772 248.132C286.517 248.132 287.805 249.509 287.805 251.851C287.805 254.188 286.536 255.589 284.786 255.589C283.47 255.589 282.953 254.785 282.699 254.324H282.614V258.157H281.208ZM282.586 251.837C282.586 253.356 283.263 254.39 284.471 254.39C285.727 254.39 286.385 253.285 286.385 251.837C286.385 250.403 285.746 249.326 284.471 249.326C283.244 249.326 282.586 250.328 282.586 251.837ZM291.482 255.608C290.109 255.608 289.042 254.828 289.042 253.407C289.042 251.766 290.443 251.409 291.811 251.249C293.109 251.099 293.636 251.108 293.636 250.596V250.563C293.636 249.744 293.17 249.27 292.263 249.27C291.318 249.27 290.791 249.763 290.584 250.276L289.263 249.975C289.733 248.658 290.937 248.132 292.244 248.132C293.391 248.132 295.047 248.55 295.047 250.652V255.448H293.674V254.461H293.617C293.349 255.002 292.677 255.608 291.482 255.608ZM291.788 254.48C292.959 254.48 293.641 253.699 293.641 252.843V251.912C293.438 252.114 292.357 252.237 291.901 252.298C291.087 252.406 290.42 252.674 290.42 253.426C290.42 254.122 290.993 254.48 291.788 254.48ZM302.331 249.989L301.057 250.215C300.893 249.73 300.488 249.246 299.614 249.246C298.814 249.246 298.212 249.641 298.217 250.196C298.212 250.685 298.556 250.953 299.35 251.141L300.498 251.404C301.824 251.71 302.473 252.34 302.473 253.36C302.473 254.668 301.264 255.594 299.52 255.594C297.897 255.594 296.835 254.875 296.599 253.596L297.958 253.389C298.128 254.099 298.668 254.461 299.51 254.461C300.432 254.461 301.029 254.023 301.029 253.464C301.029 253.013 300.704 252.702 300.009 252.547L298.786 252.279C297.432 251.978 296.811 251.296 296.811 250.271C296.811 248.992 297.968 248.132 299.599 248.132C301.161 248.132 302.04 248.865 302.331 249.989ZM309.431 249.989L308.156 250.215C307.992 249.73 307.587 249.246 306.713 249.246C305.913 249.246 305.311 249.641 305.316 250.196C305.311 250.685 305.655 250.953 306.449 251.141L307.597 251.404C308.923 251.71 309.572 252.34 309.572 253.36C309.572 254.668 308.363 255.594 306.619 255.594C304.996 255.594 303.934 254.875 303.699 253.596L305.058 253.389C305.227 254.099 305.768 254.461 306.609 254.461C307.531 254.461 308.128 254.023 308.128 253.464C308.128 253.013 307.804 252.702 307.108 252.547L305.885 252.279C304.531 251.978 303.91 251.296 303.91 250.271C303.91 248.992 305.067 248.132 306.699 248.132C308.26 248.132 309.139 248.865 309.431 249.989ZM312.683 255.448L310.558 248.226H312.011L313.426 253.53H313.497L314.917 248.226H316.37L317.781 253.506H317.851L319.257 248.226H320.71L318.589 255.448H317.155L315.688 250.234H315.58L314.113 255.448H312.683ZM324.867 255.594C322.831 255.594 321.5 254.103 321.5 251.87C321.5 249.622 322.831 248.132 324.867 248.132C326.903 248.132 328.233 249.622 328.233 251.87C328.233 254.103 326.903 255.594 324.867 255.594ZM324.871 254.414C326.193 254.414 326.813 253.252 326.813 251.865C326.813 250.483 326.193 249.307 324.871 249.307C323.541 249.307 322.92 250.483 322.92 251.865C322.92 253.252 323.541 254.414 324.871 254.414ZM329.803 255.448V248.226H331.162V249.373H331.237C331.5 248.597 332.224 248.118 333.071 248.118C333.25 248.118 333.527 248.132 333.668 248.15V249.495C333.555 249.462 333.226 249.411 332.934 249.411C331.938 249.411 331.209 250.092 331.209 251.038V255.448H329.803ZM337.33 255.589C335.576 255.589 334.311 254.188 334.311 251.851C334.311 249.509 335.595 248.132 337.339 248.132C338.684 248.132 339.164 248.95 339.418 249.397H339.502V245.818H340.908V255.448H339.535V254.324H339.418C339.164 254.785 338.646 255.589 337.33 255.589ZM337.64 254.39C338.853 254.39 339.526 253.356 339.526 251.837C339.526 250.328 338.867 249.326 337.64 249.326C336.371 249.326 335.731 250.403 335.731 251.837C335.731 253.285 336.385 254.39 337.64 254.39ZM348.327 249.989L347.053 250.215C346.888 249.73 346.484 249.246 345.609 249.246C344.81 249.246 344.208 249.641 344.213 250.196C344.208 250.685 344.551 250.953 345.346 251.141L346.493 251.404C347.819 251.71 348.468 252.34 348.468 253.36C348.468 254.668 347.26 255.594 345.515 255.594C343.893 255.594 342.83 254.875 342.595 253.596L343.954 253.389C344.123 254.099 344.664 254.461 345.506 254.461C346.427 254.461 347.025 254.023 347.025 253.464C347.025 253.013 346.7 252.702 346.004 252.547L344.782 252.279C343.427 251.978 342.807 251.296 342.807 250.271C342.807 248.992 343.963 248.132 345.595 248.132C347.156 248.132 348.036 248.865 348.327 249.989ZM353.927 250.633C353.927 248.277 354.558 246.312 355.752 244.638H357.04C356.114 245.879 355.385 248.4 355.385 250.633C355.385 252.871 356.114 255.392 357.04 256.633H355.752C354.558 254.959 353.927 252.994 353.927 250.633ZM358.504 255.448V254.395L361.762 251.019C362.797 249.923 363.305 249.312 363.305 248.461C363.305 247.502 362.562 246.9 361.584 246.9C360.545 246.9 359.877 247.577 359.882 248.611H358.494C358.494 246.853 359.811 245.686 361.612 245.686C363.427 245.686 364.687 246.871 364.687 248.418C364.687 249.495 364.184 250.346 362.421 252.128L360.507 254.132V254.202H364.842V255.448H358.504ZM369.347 250.638C369.347 252.994 368.717 254.959 367.523 256.633H366.234C367.161 255.392 367.889 252.871 367.889 250.638C367.889 248.4 367.161 245.879 366.234 244.638H367.523C368.717 246.312 369.347 248.277 369.347 250.638Z" fill="#592ACB"/>
<rect x="398.862" y="205" width="44.1379" height="6.62069" rx="3.31034" fill="#9E9E9E"/>
<rect x="124" y="388" width="351" height="40" rx="4" fill="#592ACB"/>
<path d="M266.82 410.29H272.115V412H264.96V401.695H266.82V410.29ZM277.189 410.56C277.909 410.56 278.764 410.23 279.199 409.78L280.354 410.98C279.679 411.7 278.329 412.18 277.204 412.18C274.984 412.18 273.154 410.485 273.154 408.1C273.154 405.775 274.894 404.065 277.099 404.065C279.499 404.065 280.894 405.88 280.894 408.745H275.044C275.269 409.81 276.079 410.56 277.189 410.56ZM277.174 405.685C276.154 405.685 275.329 406.33 275.059 407.35H279.139C278.929 406.375 278.269 405.685 277.174 405.685ZM286.35 410.335L286.875 411.565C286.44 411.94 285.81 412.18 285.225 412.18C283.935 412.18 283.035 411.25 283.035 409.945V405.76H281.91V404.245H283.035V402.115H284.82V404.245H286.575V405.76H284.82V409.72C284.82 410.245 285.15 410.62 285.585 410.62C285.9 410.62 286.185 410.5 286.35 410.335ZM289.226 406L288.506 405.46C288.956 405.01 289.256 404.53 289.376 404.05C288.746 404.05 288.236 403.51 288.236 402.865C288.236 402.235 288.761 401.695 289.406 401.695C290.171 401.695 290.666 402.385 290.666 403.33C290.666 404.14 290.231 404.92 289.226 406ZM295.409 412.18C294.224 412.18 292.949 411.76 292.019 411.01L292.844 409.735C293.594 410.275 294.464 410.635 295.439 410.635C296.174 410.635 296.684 410.32 296.684 409.84C296.684 409.24 296.009 409.045 295.124 408.805C293.444 408.37 292.379 407.89 292.364 406.51C292.364 405.055 293.564 404.065 295.289 404.065C296.354 404.065 297.419 404.44 298.259 404.995L297.494 406.33C296.759 405.865 295.964 405.625 295.289 405.625C294.644 405.625 294.149 405.88 294.149 406.315C294.149 406.81 294.554 406.96 295.739 407.305C297.044 407.665 298.454 408.115 298.454 409.735C298.454 411.22 297.224 412.18 295.409 412.18ZM306.632 403.6V404.245H308.387V405.76H306.632V412H304.847V405.76H303.722V404.245H304.847V403.435C304.847 402.13 305.747 401.2 307.037 401.2C307.622 401.2 308.252 401.44 308.687 401.815L308.162 402.985C307.997 402.82 307.712 402.7 307.397 402.7C306.962 402.7 306.632 403.075 306.632 403.6ZM310.773 403.075C310.188 403.075 309.723 402.58 309.723 402.025C309.723 401.47 310.188 400.99 310.773 400.99C311.343 400.99 311.808 401.47 311.808 402.025C311.808 402.58 311.343 403.075 310.773 403.075ZM309.843 412V404.245H311.673V412H309.843ZM320.806 412H318.781L316.891 409.405L314.986 412H312.991L315.901 408.04L313.126 404.245H315.136L316.906 406.66L318.676 404.245H320.671L317.896 408.025L320.806 412ZM327.282 403.075C326.697 403.075 326.232 402.58 326.232 402.025C326.232 401.47 326.697 400.99 327.282 400.99C327.852 400.99 328.317 401.47 328.317 402.025C328.317 402.58 327.852 403.075 327.282 403.075ZM326.352 412V404.245H328.182V412H326.352ZM334.075 410.335L334.6 411.565C334.165 411.94 333.535 412.18 332.95 412.18C331.66 412.18 330.76 411.25 330.76 409.945V405.76H329.635V404.245H330.76V402.115H332.545V404.245H334.3V405.76H332.545V409.72C332.545 410.245 332.875 410.62 333.31 410.62C333.625 410.62 333.91 410.5 334.075 410.335Z" fill="white"/>
</g>
<defs>
<linearGradient id="paint0_linear_4_1992" x1="536.816" y1="137.926" x2="536.816" y2="229.576" gradientUnits="userSpaceOnUse">
<stop stop-color="#8060FE"/>
<stop offset="1" stop-color="#626BFA"/>
</linearGradient>
<linearGradient id="paint1_linear_4_1992" x1="192.726" y1="101.127" x2="174.795" y2="132.181" gradientUnits="userSpaceOnUse">
<stop stop-color="#FF980E"/>
<stop offset="0.21" stop-color="#FF7139"/>
<stop offset="0.36" stop-color="#FF5854"/>
<stop offset="0.46" stop-color="#FF4F5E"/>
<stop offset="0.69" stop-color="#FF3750"/>
<stop offset="0.86" stop-color="#F92261"/>
<stop offset="1" stop-color="#F5156C"/>
</linearGradient>
<linearGradient id="paint2_linear_4_1992" x1="192.726" y1="101.127" x2="174.795" y2="132.181" gradientUnits="userSpaceOnUse">
<stop stop-color="#FFF44F" stop-opacity="0.8"/>
<stop offset="0.09" stop-color="#FFF44F" stop-opacity="0.7"/>
<stop offset="0.75" stop-color="#FFF44F" stop-opacity="0"/>
</linearGradient>
<linearGradient id="paint3_linear_4_1992" x1="194.178" y1="137.179" x2="194.178" y2="98.7029" gradientUnits="userSpaceOnUse">
<stop stop-color="#3A8EE6"/>
<stop offset="0.24" stop-color="#5C79F0"/>
<stop offset="0.63" stop-color="#9059FF"/>
<stop offset="1" stop-color="#C139E6"/>
</linearGradient>
<linearGradient id="paint4_linear_4_1992" x1="187.637" y1="98.5636" x2="203.627" y2="114.554" gradientUnits="userSpaceOnUse">
<stop stop-color="#6E008B" stop-opacity="0.5"/>
<stop offset="0.5" stop-color="#C846CB" stop-opacity="0"/>
</linearGradient>
<linearGradient id="paint5_linear_4_1992" x1="202.121" y1="118.345" x2="194.611" y2="125.854" gradientUnits="userSpaceOnUse">
<stop offset="0.14" stop-color="#6A2BEA" stop-opacity="0"/>
<stop offset="0.34" stop-color="#642DE4" stop-opacity="0.03"/>
<stop offset="0.55" stop-color="#5131D3" stop-opacity="0.12"/>
<stop offset="0.76" stop-color="#3139B7" stop-opacity="0.27"/>
<stop offset="0.98" stop-color="#054490" stop-opacity="0.48"/>
<stop offset="1" stop-color="#00458B" stop-opacity="0.5"/>
</linearGradient>
<linearGradient id="paint6_linear_4_1992" x1="190.074" y1="124.803" x2="192.251" y2="127.399" gradientUnits="userSpaceOnUse">
<stop stop-color="#960E18" stop-opacity="0.6"/>
<stop offset="0.19" stop-color="#AC1624" stop-opacity="0.48"/>
<stop offset="0.58" stop-color="#E42C41" stop-opacity="0.16"/>
<stop offset="0.75" stop-color="#FF3750" stop-opacity="0"/>
</linearGradient>
<clipPath id="clip0_4_1992">
<rect width="620" height="450" rx="15" fill="white"/>
</clipPath>
</defs>
</svg>
