<svg width="80" height="80" viewBox="0 0 80 80" fill="none" xmlns="http://www.w3.org/2000/svg">
<rect width="80" height="80" fill="white"/>
<path d="M38.1722 70C20.2941 70 10.021 60.0628 10 42.9707C10.021 26.1506 20.3781 15 38.4453 15C55.147 15 65.0209 25.2929 64.9999 40.1674C65.0209 50.4393 61.5545 57.7197 52.4789 58.2218C47.605 58.5774 45.6722 56.6109 45.21 53.7239H44.9579C43.9705 56.2552 39.6848 58.2427 34.9159 57.9707C28.2773 57.6151 22.647 52.5732 22.605 42.7197C22.647 33.0126 28.6974 28.431 34.3067 27.6151C39.0336 26.9038 43.4873 28.6402 44.2016 30.4812H44.4957V28.1381H51.0714V48.5565C51.0924 50.5021 51.9747 51.59 53.4243 51.59C56.3235 51.59 57.8361 47.8661 57.815 39.6862C57.8361 26.5481 48.4453 21.7364 38.3403 21.7364C24.3697 21.7364 17.521 30.7531 17.479 42.7197C17.521 55.9414 24.958 63.1799 38.6554 63.1799C43.4873 63.1799 48.3193 61.9665 50.5672 61.046L52.647 67.113C50.0209 68.5983 44.1596 70 38.1722 70ZM37.2058 51.0879C42.3529 51.0879 44.1596 48.0962 44.0966 42.4059C44.0756 37.3849 42.4789 34.5816 37.1638 34.5816C32.5 34.5816 29.8739 37.6987 29.8529 42.4686C29.8739 46.9038 31.7227 51.0879 37.2058 51.0879Z" fill="url(#paint0_radial_1182_12932)"/>
<ellipse cx="66.6667" cy="20.0002" rx="11.6667" ry="11.6667" fill="#3AD4B3"/>
<path fill-rule="evenodd" clip-rule="evenodd" d="M66.6667 13.3335C67.5871 13.3335 68.3333 14.0797 68.3333 15.0002V18.3335H71.6667C72.5871 18.3335 73.3333 19.0797 73.3333 20.0002C73.3333 20.9206 72.5871 21.6668 71.6667 21.6668H68.3333V25.0002C68.3333 25.9206 67.5871 26.6668 66.6667 26.6668C65.7462 26.6668 65 25.9206 65 25.0002V21.6668H61.6667C60.7462 21.6668 60 20.9206 60 20.0002C60 19.0797 60.7462 18.3335 61.6667 18.3335H65V15.0002C65 14.0797 65.7462 13.3335 66.6667 13.3335Z" fill="white"/>
<defs>
<radialGradient id="paint0_radial_1182_12932" cx="0" cy="0" r="1" gradientUnits="userSpaceOnUse" gradientTransform="translate(65 15) rotate(-45) scale(77.7817)">
<stop stop-color="#B833E1"/>
<stop offset="0.371" stop-color="#9059FF"/>
<stop offset="0.614" stop-color="#5B6DF8"/>
<stop offset="1" stop-color="#0090ED"/>
</radialGradient>
</defs>
</svg>
