<svg width="583" height="129" viewBox="0 0 583 129" fill="none" xmlns="http://www.w3.org/2000/svg">
<path fill-rule="evenodd" clip-rule="evenodd" d="M1.99998 128C0.702732 126.061 -0.491329 123.733 0.999985 122C1.88131 120.976 2.93071 121.269 3.99998 122C5.06943 122.731 6.28807 123.805 6.99998 125C5.85746 122.239 4.08111 119.073 3.99998 116C3.91886 112.927 9.38583 101.184 26 114C29.6011 116.778 32.1978 125.497 45 128C44.6043 128 45.3956 129 45 129L1.99998 128Z" fill="#C9EFFD"/>
<g opacity="0.5">
<path fill-rule="evenodd" clip-rule="evenodd" d="M440 88C442.335 84.3981 444.684 79.218 442 76C440.414 74.0981 437.925 73.6427 436 75C434.075 76.3573 432.281 78.7812 431 81C433.056 75.8732 434.854 70.7072 435 65C435.146 59.2928 426.905 37.1981 397 61C390.518 66.159 385.044 83.3517 362 88C362.712 88 361.288 89 362 89L440 88Z" fill="#C9EFFD"/>
</g>
<path fill-rule="evenodd" clip-rule="evenodd" d="M157 107C154.665 103.398 152.316 98.218 155 95C156.586 93.0981 159.075 92.6427 161 94C162.925 95.3573 164.719 97.7812 166 100C163.943 94.8732 162.146 89.7072 162 84C161.854 78.2928 170.095 56.1981 200 80C206.482 85.159 211.956 102.352 235 107C234.288 107 235.712 108 235 108L157 107Z" fill="#C9EFFD"/>
<path fill-rule="evenodd" clip-rule="evenodd" d="M581 120C582.557 117.599 583.79 114.145 582 112C580.942 110.732 579.283 111.095 578 112C576.717 112.905 575.854 114.521 575 116C576.371 112.582 577.903 108.805 578 105C578.097 101.195 571.937 86.1321 552 102C547.679 105.439 544.363 116.901 529 120C529.475 120 528.525 121 529 121L581 120Z" fill="#C9EFFD"/>
<mask id="mask0_257_17184" style="mask-type:alpha" maskUnits="userSpaceOnUse" x="223" y="23" width="149" height="83">
<path fill-rule="evenodd" clip-rule="evenodd" d="M223 23H372V106H223V23Z" fill="white"/>
</mask>
<g mask="url(#mask0_257_17184)">
<path fill-rule="evenodd" clip-rule="evenodd" d="M362 106H233C227.899 106 223 101.111 223 96V33C223 27.8889 227.899 23 233 23H362C367.101 23 372 27.8889 372 33V96C372 101.111 367.101 106 362 106Z" fill="#F770FF"/>
</g>
<path fill-rule="evenodd" clip-rule="evenodd" d="M300 67C294.974 67 290.434 65.9048 286 63L226 24C225.758 23.8416 225.843 23.2449 226 23C226.157 22.7548 226.758 22.8412 227 23L286 62C294.777 67.7501 305.424 67.0499 314 61L367 24C367.236 23.833 367.835 23.7604 368 24C368.165 24.2393 368.237 24.833 368 25L314 62C309.407 65.2397 305.326 67 300 67Z" fill="#26154D"/>
<mask id="mask1_257_17184" style="mask-type:alpha" maskUnits="userSpaceOnUse" x="339" y="0" width="56" height="57">
<path fill-rule="evenodd" clip-rule="evenodd" d="M339 0H395V57H339V0Z" fill="white"/>
</mask>
<g mask="url(#mask1_257_17184)">
<path fill-rule="evenodd" clip-rule="evenodd" d="M395 28C395 43.7401 382.464 57 367 57C351.536 57 339 43.7401 339 28C339 12.2601 351.536 0 367 0C382.464 0 395 12.2601 395 28Z" fill="#9059FF"/>
</g>
<path fill-rule="evenodd" clip-rule="evenodd" d="M363 38C363 36.6944 364.103 34.9114 365 34C365.897 33.0886 366.706 32 368 32C369.307 32 370.103 33.0886 371 34C371.897 34.9114 373 36.6944 373 38C373 39.3059 371.897 39.0883 371 40C370.103 40.9114 369.307 42 368 42C366.706 42 365.897 40.9114 365 40C364.103 39.0883 363 39.3059 363 38ZM367 31C366.616 31 367.391 30.42 367 30C366.609 29.58 366.512 27.9826 366 27C365.218 25.5002 364.41 24.5448 364 23C363.59 21.4552 363 19.4995 363 18C363 16.009 363.129 15.0991 364 14C364.871 12.9013 366.437 12 368 12C369.563 12 371.141 12.9013 372 14C372.858 15.0991 373 16.009 373 18C373 19.2281 373.275 20.7464 373 22C372.724 23.2543 371.551 24.6812 371 26C370.398 27.435 369.551 28.2891 369 29C368.449 29.7112 367.499 31 367 31Z" fill="white"/>
</svg>
