<svg width="249" height="157" viewBox="0 0 249 157" fill="none" xmlns="http://www.w3.org/2000/svg">
<g opacity="0.5">
<path fill-rule="evenodd" clip-rule="evenodd" d="M133.996 3.00014C160.668 1.44439 184.202 23.0619 199.568 45.2596C213.716 65.6978 218.056 91.6831 209.768 115.206C202.339 136.29 180.875 143.794 160.224 151.637C142.582 158.337 124.323 158.686 106.31 153.094C82.6162 145.739 53.3062 140.878 46.5661 116.664C39.699 91.9932 61.6047 71.2741 77.1664 51.0885C93.0089 30.5387 108.341 4.49654 133.996 3.00014Z" fill="#D9BFFF"/>
</g>
<path d="M204.599 87.2774C205.489 87.2407 205.598 87.2419 207.204 87.2774C207.456 87.2836 208.365 87.2749 208.507 87.2774C209.78 87.3042 210.235 87.3185 211.112 87.2774C211.78 87.2456 212.445 86.6626 212.414 85.9748C212.384 85.2876 211.78 84.641 211.112 84.6721C210.3 84.7107 209.731 84.6977 208.507 84.6721C208.367 84.669 207.455 84.6784 207.204 84.6721C205.549 84.6354 205.556 84.6322 204.599 84.6721C203.931 84.6995 203.269 85.2869 203.296 85.9748C203.323 86.6626 203.93 87.3055 204.599 87.2774Z" fill="#EAF3F3"/>
<path d="M208.506 89.8828C208.519 89.2667 208.501 88.1566 208.506 87.2775C208.504 87.5478 208.506 87.1272 208.506 87.2775C208.515 85.2368 208.453 84.4508 208.506 83.3695C208.538 82.704 207.885 82.0982 207.203 82.0669C206.52 82.0355 205.932 82.7034 205.9 83.3695C205.846 84.4967 205.91 85.2024 205.9 87.2775C205.899 87.5478 205.901 87.1278 205.9 87.2775C205.895 88.1445 205.913 89.2824 205.9 89.8828C205.885 90.5489 206.52 91.1715 207.203 91.1854C207.886 91.1999 208.491 90.5489 208.506 89.8828Z" fill="#EAF3F3"/>
<path d="M205.075 42.9269C205.108 43.6331 205.006 44.4437 205.075 45.5322C205.066 45.3787 205.085 45.6859 205.075 45.5322C205.244 48.1899 205.075 49.2538 205.075 50.7428C205.075 51.3686 205.793 52.0455 206.378 52.0455C206.963 52.0455 207.681 51.3686 207.681 50.7428C207.681 49.1857 207.853 48.2407 207.681 45.5322C207.671 45.3788 207.691 45.6855 207.681 45.5322C207.613 44.4561 207.713 43.6163 207.681 42.9269C207.651 42.3018 206.962 41.5929 206.378 41.6243C205.794 41.6555 205.046 42.3019 205.075 42.9269Z" fill="#90BFFF"/>
<path d="M203.437 47.8925C204.672 48.0243 205.157 48.0216 207.345 47.8925C207.858 47.8623 208.363 47.9065 208.648 47.8925C209.2 47.8655 209.514 47.8925 209.95 47.8925C210.604 47.8925 211.253 47.2225 211.253 46.5899C211.253 45.9573 210.604 45.2872 209.95 45.2872C209.469 45.2872 209.236 45.2584 208.648 45.2872C208.352 45.3017 207.867 45.2565 207.345 45.2872C205.292 45.4083 204.492 45.3998 203.437 45.2872C202.787 45.2179 202.206 45.9611 202.135 46.5899C202.063 47.2186 202.787 47.8232 203.437 47.8925Z" fill="#90BFFF"/>
<path d="M89.9637 118.541C89.9965 119.247 89.8943 120.058 89.9637 121.146C89.9541 120.993 89.9732 121.3 89.9637 121.146C90.1326 123.804 89.9637 124.868 89.9637 126.357C89.9637 126.982 90.6818 127.66 91.2663 127.66C91.8514 127.66 92.569 126.982 92.569 126.357C92.569 124.8 92.741 123.855 92.569 121.146C92.5594 120.993 92.579 121.299 92.569 121.146C92.5012 120.07 92.6013 119.231 92.569 118.541C92.5398 117.916 91.8508 117.207 91.2663 117.238C90.6823 117.27 89.9345 117.916 89.9637 118.541Z" fill="#90BFFF"/>
<path d="M88.6618 123.752C89.8963 123.883 90.3813 123.881 92.5698 123.752C92.871 123.734 93.7037 123.761 93.8724 123.752C94.6417 123.709 94.633 123.752 95.1751 123.752C95.8284 123.752 96.4777 123.08 96.4777 122.449C96.4777 121.818 95.8284 121.146 95.1751 121.146C94.5791 121.146 94.6826 121.101 93.8724 121.146C93.7002 121.155 92.8739 121.128 92.5698 121.146C90.5169 121.267 89.717 121.259 88.6618 121.146C88.012 121.077 87.4308 121.822 87.3592 122.449C87.2876 123.076 88.012 123.683 88.6618 123.752Z" fill="#90BFFF"/>
<path fill-rule="evenodd" clip-rule="evenodd" d="M174.344 88.5716C174.429 89.9132 175.532 89.9104 175.646 88.5716C175.912 85.4628 177.487 83.5519 179.554 83.3611C179.381 83.3725 179.719 83.3583 179.554 83.3611C180.928 83.267 180.931 82.0584 179.554 82.0584C179.372 82.0584 179.73 82.0448 179.554 82.0584C177.356 82.0763 176.141 82.0773 175.646 79.4531C175.623 79.3316 175.705 78.471 175.646 78.1505C175.592 77.8545 175.683 78.3358 175.646 78.1505C175.396 76.8994 174.41 76.8755 174.344 78.1505C174.334 78.3386 174.353 77.8248 174.344 78.1505C174.331 78.5897 174.367 79.2296 174.344 79.4531C174.288 79.9948 174.628 80.2493 174.344 80.7558C173.842 81.6475 171.935 82.0834 170.436 82.0584C169.064 82.0361 169.07 83.236 170.436 83.3611C172.209 83.5236 172.837 84.2651 173.041 84.6637C173.668 85.9062 174.255 87.1692 174.344 88.5716ZM179.554 82.0584C179.405 82.0687 179.693 82.0568 179.554 82.0584C179.427 82.0078 179.718 82.0562 179.554 82.0584ZM179.554 83.3611C179.416 83.3611 179.684 83.3502 179.554 83.3611C179.439 83.4165 179.706 83.3485 179.554 83.3611ZM174.344 83.3611C174.786 83.0429 174.043 82.5179 174.344 82.0584C174.666 82.6451 175.149 83.007 175.646 83.3611C175.201 83.7683 174.663 84.0938 174.344 84.6637C174.24 84.4217 174.462 83.5965 174.344 83.3611C174.716 83.6362 174.143 82.9695 174.344 83.3611Z" fill="#FCD400"/>
<path fill-rule="evenodd" clip-rule="evenodd" d="M76.9366 85.9748C78.3107 85.8823 78.3139 84.6721 76.9366 84.6721C76.7573 84.6721 77.1095 84.6585 76.9366 84.6721C74.7241 84.6906 73.5254 84.713 73.0286 82.0668C73.0068 81.951 73.0841 81.0676 73.0286 80.7642C72.9742 80.4667 73.0655 80.9496 73.0286 80.7642C72.7789 79.5129 71.7922 79.489 71.726 80.7642C71.7164 80.9518 71.7356 80.4401 71.726 80.7642C71.7137 81.1954 71.7479 81.8471 71.726 82.0668C71.671 82.6177 72.012 82.8588 71.726 83.3695C71.2233 84.2613 69.3133 84.702 67.818 84.6721C66.4461 84.6455 66.4519 85.8464 67.818 85.9748C69.594 86.1423 70.219 86.8794 70.4233 87.2774C71.0477 88.52 71.6353 89.7823 71.726 91.1854C71.8135 92.5259 72.9139 92.5231 73.0286 91.1854C73.2944 88.0732 74.8655 86.1624 76.9366 85.9748C77.0988 85.9721 76.7663 85.9862 76.9366 85.9748ZM76.9366 84.6721C76.7898 84.6819 77.0727 84.6705 76.9366 84.6721C76.8106 84.6232 77.0977 84.67 76.9366 84.6721ZM76.9366 85.9748C76.801 85.9748 77.0641 85.9644 76.9366 85.9748C76.8218 86.0281 77.0855 85.9628 76.9366 85.9748ZM71.726 85.9748C72.1678 85.6566 71.4255 85.1322 71.726 84.6721C72.0478 85.2594 72.5302 85.6213 73.0286 85.9748C72.583 86.3826 72.0456 86.707 71.726 87.2774C71.623 87.0354 71.8444 86.2097 71.726 85.9748C72.0985 86.2505 71.5248 85.5821 71.726 85.9748Z" fill="#EAF3F3"/>
<path d="M122.359 50.683C122.359 50.056 121.776 49.3803 121.056 49.3803C120.337 49.3803 119.753 50.056 119.753 50.683C119.753 51.3099 120.337 51.9856 121.056 51.9856C121.776 51.9856 122.359 51.3099 122.359 50.683Z" fill="#90BFFF"/>
<path d="M82.451 78.0386C82.451 77.4114 81.8674 76.7359 81.1484 76.7359C80.4286 76.7359 79.8457 77.4114 79.8457 78.0386C79.8457 78.6658 80.4286 79.3412 81.1484 79.3412C81.8674 79.3412 82.451 78.6658 82.451 78.0386Z" fill="#90BFFF"/>
<path d="M78.5445 36.3538C78.5445 35.7255 77.9609 35.0511 77.2419 35.0511C76.5221 35.0511 75.9392 35.7255 75.9392 36.3538C75.9392 36.9821 76.5221 37.6564 77.2419 37.6564C77.9609 37.6564 78.5445 36.9821 78.5445 36.3538Z" fill="#EAF3F3"/>
<path d="M86.359 46.775C86.359 46.1481 85.7754 45.4724 85.0563 45.4724C84.3366 45.4724 83.7537 46.1481 83.7537 46.775C83.7537 47.402 84.3366 48.0777 85.0563 48.0777C85.7754 48.0777 86.359 47.402 86.359 46.775Z" fill="#4E6AF0"/>
<path d="M139.154 1.30265C139.154 0.675674 138.571 0 137.851 0C137.132 0 136.549 0.675674 136.549 1.30265C136.549 1.92962 137.132 2.6053 137.851 2.6053C138.571 2.6053 139.154 1.92962 139.154 1.30265Z" fill="#FCD400"/>
<path d="M65.2135 99.0013C65.2135 98.3727 64.6299 97.6986 63.9108 97.6986C63.1911 97.6986 62.6082 98.3727 62.6082 99.0013C62.6082 99.6298 63.1911 100.304 63.9108 100.304C64.6299 100.304 65.2135 99.6298 65.2135 99.0013Z" fill="#FCD400"/>
<path d="M104.294 35.1715C104.294 34.5007 103.711 33.8689 102.991 33.8689C102.272 33.8689 101.689 34.5007 101.689 35.1715C101.689 35.8423 102.272 36.4742 102.991 36.4742C103.711 36.4742 104.294 35.8423 104.294 35.1715Z" fill="#EAF3F3"/>
<path d="M112.109 7.81589C112.109 7.14663 111.526 6.51324 110.807 6.51324C110.087 6.51324 109.504 7.14663 109.504 7.81589C109.504 8.48515 110.087 9.11854 110.807 9.11854C111.526 9.11854 112.109 8.48515 112.109 7.81589Z" fill="#4E6AF0"/>
<path d="M182.452 18.2371C182.452 17.6474 181.869 16.9344 181.149 16.9344C180.43 16.9344 179.847 17.6474 179.847 18.2371C179.847 18.8268 180.43 19.5397 181.149 19.5397C181.869 19.5397 182.452 18.8268 182.452 18.2371Z" fill="#EAF3F3"/>
<path d="M144.502 36.3538C144.502 35.7255 143.919 35.0511 143.2 35.0511C142.481 35.0511 141.897 35.7255 141.897 36.3538C141.897 36.9821 142.481 37.6564 143.2 37.6564C143.919 37.6564 144.502 36.9821 144.502 36.3538Z" fill="#FCD400"/>
<path d="M193.921 118.87C193.921 118.243 193.339 117.567 192.619 117.567C191.899 117.567 191.316 118.243 191.316 118.87C191.316 119.497 191.899 120.173 192.619 120.173C193.339 120.173 193.921 119.497 193.921 118.87Z" fill="#FCD400"/>
<path d="M82.148 57.3165C82.148 56.6681 81.5651 56.0139 80.8454 56.0139C80.1263 56.0139 79.5427 56.6681 79.5427 57.3165C79.5427 57.9649 80.1263 58.6192 80.8454 58.6192C81.5651 58.6192 82.148 57.9649 82.148 57.3165Z" fill="#90BFFF"/>
<path d="M122.359 91.1213C122.359 90.4729 121.775 89.8186 121.056 89.8186C120.336 89.8186 119.753 90.4729 119.753 91.1213C119.753 91.7691 120.336 92.4239 121.056 92.4239C121.775 92.4239 122.359 91.7691 122.359 91.1213Z" fill="#4E6AF0"/>
<path d="M92.5682 92.488C92.5682 91.8382 91.9846 91.1854 91.2655 91.1854C90.5458 91.1854 89.9629 91.8382 89.9629 92.488C89.9629 93.1379 90.5458 93.7907 91.2655 93.7907C91.9846 93.7907 92.5682 93.1379 92.5682 92.488Z" fill="#4E6AF0"/>
<path d="M199.388 71.6457C199.388 70.9973 198.805 70.343 198.085 70.343C197.365 70.343 196.782 70.9973 196.782 71.6457C196.782 72.2935 197.365 72.9483 198.085 72.9483C198.805 72.9483 199.388 72.2935 199.388 71.6457Z" fill="#EAF3F3"/>
<path d="M69.1229 117.238C69.1229 116.59 68.5393 115.936 67.8202 115.936C67.1005 115.936 66.5176 116.59 66.5176 117.238C66.5176 117.886 67.1005 118.541 67.8202 118.541C68.5393 118.541 69.1229 117.886 69.1229 117.238Z" fill="#EAF3F3"/>
<path d="M70.4195 46.0596H69.3726C68.7944 46.0596 68.3257 46.5299 68.3257 47.11V54.4623C68.3257 55.0423 68.7944 55.5126 69.3726 55.5126H70.4195C70.9977 55.5126 71.4664 55.0423 71.4664 54.4623V47.11C71.4664 46.5299 70.9977 46.0596 70.4195 46.0596Z" fill="#CB9EFF"/>
<path d="M74.8157 42.2784H73.7688C73.1906 42.2784 72.7219 42.7486 72.7219 43.3287V50.681C72.7219 51.2611 73.1906 51.7313 73.7688 51.7313H74.8157C75.3939 51.7313 75.8627 51.2611 75.8627 50.681V43.3287C75.8627 42.7486 75.3939 42.2784 74.8157 42.2784Z" fill="#45278D"/>
<path fill-rule="evenodd" clip-rule="evenodd" d="M63.092 55.6935L95.8604 37.9721V136.073H63.092V55.6935Z" fill="#9059FF"/>
<path d="M116.067 37.9721H95.8611V136.073H116.067V37.9721Z" fill="#7542E5"/>
<path fill-rule="evenodd" clip-rule="evenodd" d="M165.028 44.5442H194.967V135.823L170.14 135.823L147.502 135.823H123.404L116.102 135.823L116.102 93.4698H123.404V81.7861H147.502V93.4698H165.028V44.5442Z" fill="#F6B8FF"/>
<rect x="177.442" y="56.2279" width="5.84186" height="5.84186" fill="#7542E5"/>
<rect x="177.442" y="66.4511" width="5.84186" height="5.84186" fill="#7542E5"/>
<rect x="177.442" y="76.6744" width="5.84186" height="5.84186" fill="#7542E5"/>
<rect x="143.851" y="111.726" width="5.11163" height="5.11163" fill="#7542E5"/>
<rect x="154.805" y="111.726" width="5.11163" height="5.11163" fill="#7542E5"/>
<rect x="167.219" y="111.726" width="5.11163" height="5.11163" fill="#7542E5"/>
<rect x="178.172" y="111.726" width="5.11163" height="5.11163" fill="#7542E5"/>
<rect x="127.056" y="113.186" width="12.414" height="22.6372" fill="#7542E5"/>
<path fill-rule="evenodd" clip-rule="evenodd" d="M78.8998 123.364H80.1561C81.8906 123.364 83.2968 124.774 83.2968 126.515V136.073H75.759V126.515C75.759 124.774 77.1652 123.364 78.8998 123.364Z" fill="#CB9EFF"/>
<path d="M70.4424 62.7514H67.9298C66.5422 62.7514 65.4172 63.88 65.4172 65.2722V69.0534C65.4172 70.4456 66.5422 71.5742 67.9298 71.5742H70.4424C71.8301 71.5742 72.955 70.4456 72.955 69.0534V65.2722C72.955 63.88 71.8301 62.7514 70.4424 62.7514Z" fill="#CB9EFF"/>
<path d="M70.6282 93.0092H68.1156C66.728 93.0092 65.603 94.1378 65.603 95.53V99.3112C65.603 100.703 66.728 101.832 68.1156 101.832H70.6282C72.0159 101.832 73.1408 100.703 73.1408 99.3112V95.53C73.1408 94.1378 72.0159 93.0092 70.6282 93.0092Z" fill="#F68FFF"/>
<path d="M70.6282 77.8846H68.1156C66.728 77.8846 65.603 79.0132 65.603 80.4054V84.1865C65.603 85.5787 66.728 86.7073 68.1156 86.7073H70.6282C72.0159 86.7073 73.1408 85.5787 73.1408 84.1865V80.4054C73.1408 79.0132 72.0159 77.8846 70.6282 77.8846Z" fill="#CB9EFF"/>
<path d="M80.7842 62.6548H78.2716C76.884 62.6548 75.759 63.7834 75.759 65.1756V68.9568C75.759 70.349 76.884 71.4776 78.2716 71.4776H80.7842C82.1719 71.4776 83.2968 70.349 83.2968 68.9568V65.1756C83.2968 63.7834 82.1719 62.6548 80.7842 62.6548Z" fill="#CB9EFF"/>
<path d="M80.7842 93.0092H78.2716C76.884 93.0092 75.759 94.1378 75.759 95.53V99.3112C75.759 100.703 76.884 101.832 78.2716 101.832H80.7842C82.1719 101.832 83.2968 100.703 83.2968 99.3112V95.53C83.2968 94.1378 82.1719 93.0092 80.7842 93.0092Z" fill="#CB9EFF"/>
<path d="M80.7842 77.8846H78.2716C76.884 77.8846 75.759 79.0132 75.759 80.4054V84.1865C75.759 85.5787 76.884 86.7073 78.2716 86.7073H80.7842C82.1719 86.7073 83.2968 85.5787 83.2968 84.1865V80.4054C83.2968 79.0132 82.1719 77.8846 80.7842 77.8846Z" fill="#CB9EFF"/>
<path d="M90.8335 62.6548H88.3209C86.9333 62.6548 85.8083 63.7834 85.8083 65.1756V68.9568C85.8083 70.349 86.9333 71.4776 88.3209 71.4776H90.8335C92.2212 71.4776 93.3461 70.349 93.3461 68.9568V65.1756C93.3461 63.7834 92.2212 62.6548 90.8335 62.6548Z" fill="#F68FFF"/>
<path d="M90.8335 93.0092H88.3209C86.9333 93.0092 85.8083 94.1378 85.8083 95.53V99.3112C85.8083 100.703 86.9333 101.832 88.3209 101.832H90.8335C92.2212 101.832 93.3461 100.703 93.3461 99.3112V95.53C93.3461 94.1378 92.2212 93.0092 90.8335 93.0092Z" fill="#CB9EFF"/>
<path d="M90.8335 77.8846H88.3209C86.9333 77.8846 85.8083 79.0132 85.8083 80.4054V84.1865C85.8083 85.5787 86.9333 86.7073 88.3209 86.7073H90.8335C92.2212 86.7073 93.3461 85.5787 93.3461 84.1865V80.4054C93.3461 79.0132 92.2212 77.8846 90.8335 77.8846Z" fill="#CB9EFF"/>
<path d="M109.366 62.6548H102.666C101.047 62.6548 99.7344 63.9715 99.7344 65.5958V68.5367C99.7344 70.1609 101.047 71.4776 102.666 71.4776H109.366C110.985 71.4776 112.297 70.1609 112.297 68.5367V65.5958C112.297 63.9715 110.985 62.6548 109.366 62.6548Z" fill="#D9BFFF"/>
<path d="M109.366 93.0092H102.666C101.047 93.0092 99.7344 94.3259 99.7344 95.9502V98.8911C99.7344 100.515 101.047 101.832 102.666 101.832H109.366C110.985 101.832 112.297 100.515 112.297 98.8911V95.9502C112.297 94.3259 110.985 93.0092 109.366 93.0092Z" fill="#D9BFFF"/>
<path d="M109.366 44.3791H102.666C101.047 44.3791 99.7344 45.6958 99.7344 47.32V53.4119C99.7344 55.0361 101.047 56.3528 102.666 56.3528H109.366C110.985 56.3528 112.297 55.0361 112.297 53.4119V47.32C112.297 45.6958 110.985 44.3791 109.366 44.3791Z" fill="#D9BFFF"/>
<path d="M109.366 77.8846H102.666C101.047 77.8846 99.7344 79.2013 99.7344 80.8255V83.7664C99.7344 85.3906 101.047 86.7073 102.666 86.7073H109.366C110.985 86.7073 112.297 85.3906 112.297 83.7664V80.8255C112.297 79.2013 110.985 77.8846 109.366 77.8846Z" fill="#D9BFFF"/>
<path d="M70.6282 108.239H68.1156C66.728 108.239 65.603 109.368 65.603 110.76V114.541C65.603 115.933 66.728 117.062 68.1156 117.062H70.6282C72.0159 117.062 73.1408 115.933 73.1408 114.541V110.76C73.1408 109.368 72.0159 108.239 70.6282 108.239Z" fill="#CB9EFF"/>
<path d="M70.6282 123.469H68.1156C66.728 123.469 65.603 124.597 65.603 125.99V129.771C65.603 131.163 66.728 132.292 68.1156 132.292H70.6282C72.0159 132.292 73.1408 131.163 73.1408 129.771V125.99C73.1408 124.597 72.0159 123.469 70.6282 123.469Z" fill="#CB9EFF"/>
<path d="M80.7842 108.239H78.2716C76.884 108.239 75.759 109.368 75.759 110.76V114.541C75.759 115.933 76.884 117.062 78.2716 117.062H80.7842C82.1719 117.062 83.2968 115.933 83.2968 114.541V110.76C83.2968 109.368 82.1719 108.239 80.7842 108.239Z" fill="#CB9EFF"/>
<path d="M90.8335 108.239H88.3209C86.9333 108.239 85.8083 109.368 85.8083 110.76V114.541C85.8083 115.933 86.9333 117.062 88.3209 117.062H90.8335C92.2212 117.062 93.3461 115.933 93.3461 114.541V110.76C93.3461 109.368 92.2212 108.239 90.8335 108.239Z" fill="#CB9EFF"/>
<path d="M90.8335 123.469H88.3209C86.9333 123.469 85.8083 124.597 85.8083 125.99V129.771C85.8083 131.163 86.9333 132.292 88.3209 132.292H90.8335C92.2212 132.292 93.3461 131.163 93.3461 129.771V125.99C93.3461 124.597 92.2212 123.469 90.8335 123.469Z" fill="#CB9EFF"/>
<path d="M109.366 108.239H102.666C101.047 108.239 99.7344 109.556 99.7344 111.18V114.121C99.7344 115.745 101.047 117.062 102.666 117.062H109.366C110.985 117.062 112.297 115.745 112.297 114.121V111.18C112.297 109.556 110.985 108.239 109.366 108.239Z" fill="#D9BFFF"/>
<path d="M109.366 123.469H102.666C101.047 123.469 99.7344 124.785 99.7344 126.41V129.351C99.7344 130.975 101.047 132.292 102.666 132.292H109.366C110.985 132.292 112.297 130.975 112.297 129.351V126.41C112.297 124.785 110.985 123.469 109.366 123.469Z" fill="#D9BFFF"/>
<path fill-rule="evenodd" clip-rule="evenodd" d="M83.0785 19.5285C83.7194 18.5426 84.6828 16.8593 83.9461 15.9785C83.5107 15.4579 82.7393 15.607 82.211 15.9785C81.6827 16.35 80.8277 17.1462 80.476 17.7535C81.0405 16.3502 82.171 13.9907 82.211 12.4285C82.2511 10.8664 80.8222 9.38259 79.6085 8.87854C78.3503 8.35586 77.2244 9.71913 76.1385 10.6535C73.82 12.6483 71.8674 15.0809 70.066 17.7535C70.1798 16.9147 70.1986 15.9258 70.066 15.091C69.9333 14.2561 69.8621 13.578 69.1985 13.316C68.5404 13.0561 67.2137 12.9366 66.5959 13.316C64.4698 14.6213 62.7086 17.1118 61.3909 19.5285C61.1954 19.5285 61.5864 19.5285 61.3909 19.5285H83.0785Z" fill="#F6B8FF"/>
<path fill-rule="evenodd" clip-rule="evenodd" d="M248.274 91.309V92.0864H216.133V91.9246C216.133 90.7466 216.631 89.679 217.437 88.9072C218.243 88.1346 219.355 87.657 220.585 87.657C221.897 87.657 223.076 88.202 223.891 89.0675V87.9243C223.891 86.115 224.656 84.477 225.893 83.2912C227.13 82.1053 228.838 81.3724 230.725 81.3724C233.841 81.3724 236.467 83.3714 237.291 86.1031C238.442 85.2592 239.879 84.7563 241.439 84.7563C245.214 84.7563 248.274 87.6904 248.274 91.309Z" fill="#D9BFFF"/>
<path fill-rule="evenodd" clip-rule="evenodd" d="M40.1981 47.6847V48.6666H0.725586V48.4622C0.725586 46.9743 1.33727 45.6257 2.32709 44.6508C3.31673 43.6749 4.68338 43.0717 6.19332 43.0717C7.80491 43.0717 9.25277 43.7601 10.2535 44.8533V43.4093C10.2535 41.1239 11.1935 39.0548 12.7116 37.557C14.2306 36.059 16.3288 35.1332 18.6466 35.1332C22.4722 35.1332 25.6983 37.6582 26.7094 41.1089C28.1228 40.0428 29.8877 39.4075 31.8041 39.4075C36.4395 39.4075 40.1981 43.1139 40.1981 47.6847Z" fill="#D9BFFF"/>
<path fill-rule="evenodd" clip-rule="evenodd" d="M195.567 32.1132C194.815 30.9779 193.684 29.0396 194.549 28.0253C195.06 27.4259 195.966 27.5975 196.586 28.0253C197.206 28.4531 198.21 29.3699 198.623 30.0693C197.96 28.4534 196.633 25.7363 196.586 23.9375C196.539 22.1386 198.217 20.43 199.642 19.8496C201.119 19.2477 202.441 20.8176 203.716 21.8935C206.438 24.1905 208.731 26.9918 210.846 30.0693C210.713 29.1034 210.691 27.9647 210.846 27.0034C211.002 26.0419 211.086 25.2612 211.865 24.9594C212.638 24.6601 214.195 24.5226 214.921 24.9594C217.417 26.4625 219.485 29.3304 221.032 32.1132C221.262 32.1132 220.803 32.1132 221.032 32.1132H195.567Z" fill="#F770FF"/>
</svg>
