<svg width="249" height="157" viewBox="0 0 249 157" fill="none" xmlns="http://www.w3.org/2000/svg">
<g opacity="0.5">
<path fill-rule="evenodd" clip-rule="evenodd" d="M133.995 3.00011C160.668 1.44436 184.202 23.0619 199.568 45.2596C213.716 65.6977 218.056 91.6831 209.768 115.206C202.339 136.29 180.875 143.794 160.224 151.637C142.582 158.337 124.323 158.686 106.309 153.094C82.6161 145.739 53.3061 140.878 46.5659 116.663C39.6989 91.9931 61.6046 71.274 77.1663 51.0885C93.0088 30.5386 108.34 4.49651 133.995 3.00011Z" fill="#D9BFFF"/>
</g>
<path d="M204.599 87.2776C205.489 87.2408 205.598 87.2421 207.204 87.2776C207.456 87.2838 208.365 87.2751 208.507 87.2776C209.78 87.3044 210.235 87.3187 211.112 87.2776C211.78 87.2458 212.445 86.6628 212.414 85.975C212.384 85.2877 211.78 84.6412 211.112 84.6723C210.3 84.7109 209.731 84.6978 208.507 84.6723C208.367 84.6692 207.455 84.6785 207.204 84.6723C205.549 84.6355 205.556 84.6324 204.599 84.6723C203.931 84.6997 203.269 85.2871 203.296 85.975C203.323 86.6628 203.93 87.3056 204.599 87.2776Z" fill="#EAF3F3"/>
<path d="M208.506 89.8829C208.519 89.2668 208.501 88.1567 208.506 87.2776C208.504 87.5479 208.506 87.1273 208.506 87.2776C208.515 85.2369 208.453 84.4509 208.506 83.3696C208.538 82.7041 207.885 82.0984 207.203 82.067C206.52 82.0356 205.932 82.7035 205.9 83.3696C205.846 84.4968 205.91 85.2025 205.9 87.2776C205.899 87.5479 205.901 87.1279 205.9 87.2776C205.895 88.1447 205.913 89.2825 205.9 89.8829C205.885 90.549 206.52 91.1716 207.203 91.1855C207.886 91.2 208.491 90.549 208.506 89.8829Z" fill="#EAF3F3"/>
<path d="M205.075 42.9267C205.108 43.6329 205.006 44.4435 205.075 45.532C205.066 45.3785 205.085 45.6857 205.075 45.532C205.244 48.1897 205.075 49.2536 205.075 50.7426C205.075 51.3684 205.793 52.0452 206.378 52.0452C206.963 52.0452 207.681 51.3684 207.681 50.7426C207.681 49.1855 207.853 48.2404 207.681 45.532C207.671 45.3786 207.691 45.6853 207.681 45.532C207.613 44.4559 207.713 43.6161 207.681 42.9267C207.651 42.3016 206.962 41.5927 206.378 41.624C205.794 41.6553 205.046 42.3017 205.075 42.9267Z" fill="#90BFFF"/>
<path d="M203.437 47.8925C204.672 48.0243 205.157 48.0216 207.345 47.8925C207.858 47.8623 208.363 47.9065 208.648 47.8925C209.2 47.8655 209.514 47.8925 209.95 47.8925C210.604 47.8925 211.253 47.2225 211.253 46.5899C211.253 45.9573 210.604 45.2872 209.95 45.2872C209.469 45.2872 209.236 45.2584 208.648 45.2872C208.352 45.3017 207.867 45.2565 207.345 45.2872C205.292 45.4083 204.492 45.3998 203.437 45.2872C202.787 45.2179 202.206 45.9611 202.135 46.5899C202.063 47.2186 202.787 47.8232 203.437 47.8925Z" fill="#90BFFF"/>
<path d="M89.9638 118.541C89.9966 119.247 89.8944 120.058 89.9638 121.146C89.9543 120.993 89.9733 121.3 89.9638 121.146C90.1327 123.804 89.9638 124.868 89.9638 126.357C89.9638 126.982 90.6819 127.659 91.2664 127.659C91.8515 127.659 92.5691 126.982 92.5691 126.357C92.5691 124.8 92.7412 123.855 92.5691 121.146C92.5596 120.993 92.5791 121.299 92.5691 121.146C92.5013 120.07 92.6014 119.231 92.5691 118.541C92.54 117.916 91.851 117.207 91.2664 117.238C90.6824 117.27 89.9347 117.916 89.9638 118.541Z" fill="#90BFFF"/>
<path d="M88.6618 123.752C89.8963 123.883 90.3813 123.881 92.5698 123.752C92.871 123.734 93.7037 123.761 93.8724 123.752C94.6417 123.709 94.633 123.752 95.1751 123.752C95.8284 123.752 96.4777 123.08 96.4777 122.449C96.4777 121.818 95.8284 121.147 95.1751 121.147C94.5791 121.147 94.6826 121.101 93.8724 121.147C93.7002 121.156 92.8739 121.128 92.5698 121.147C90.5169 121.267 89.717 121.259 88.6618 121.147C88.012 121.077 87.4308 121.822 87.3592 122.449C87.2876 123.076 88.012 123.683 88.6618 123.752Z" fill="#90BFFF"/>
<path fill-rule="evenodd" clip-rule="evenodd" d="M174.344 88.5716C174.429 89.9131 175.532 89.9104 175.646 88.5716C175.912 85.4628 177.487 83.5519 179.554 83.361C179.381 83.3724 179.719 83.3583 179.554 83.361C180.927 83.2669 180.931 82.0584 179.554 82.0584C179.372 82.0584 179.73 82.0448 179.554 82.0584C177.356 82.0763 176.14 82.0773 175.646 79.4531C175.623 79.3315 175.705 78.4709 175.646 78.1504C175.592 77.8545 175.683 78.3358 175.646 78.1504C175.396 76.8993 174.41 76.8754 174.344 78.1504C174.334 78.3386 174.353 77.8248 174.344 78.1504C174.331 78.5896 174.367 79.2295 174.344 79.4531C174.288 79.9948 174.628 80.2492 174.344 80.7557C173.842 81.6475 171.935 82.0834 170.436 82.0584C169.064 82.0361 169.07 83.236 170.436 83.361C172.209 83.5236 172.837 84.2651 173.041 84.6637C173.668 85.9062 174.255 87.1692 174.344 88.5716ZM179.554 82.0584C179.405 82.0687 179.692 82.0567 179.554 82.0584C179.427 82.0078 179.718 82.0562 179.554 82.0584ZM179.554 83.361C179.416 83.361 179.684 83.3501 179.554 83.361C179.438 83.4165 179.706 83.3485 179.554 83.361ZM174.344 83.361C174.786 83.0429 174.043 82.5179 174.344 82.0584C174.666 82.6451 175.148 83.007 175.646 83.361C175.201 83.7683 174.663 84.0938 174.344 84.6637C174.24 84.4217 174.462 83.5965 174.344 83.361C174.716 83.6362 174.142 82.9695 174.344 83.361Z" fill="#FCD400"/>
<path fill-rule="evenodd" clip-rule="evenodd" d="M76.9367 85.975C78.3108 85.8825 78.314 84.6723 76.9367 84.6723C76.7574 84.6723 77.1096 84.6587 76.9367 84.6723C74.7243 84.6908 73.5256 84.7132 73.0288 82.067C73.0069 81.9512 73.0843 81.0678 73.0288 80.7644C72.9743 80.4669 73.0656 80.9498 73.0288 80.7644C72.779 79.5131 71.7923 79.4891 71.7261 80.7644C71.7165 80.952 71.7357 80.4403 71.7261 80.7644C71.7138 81.1956 71.748 81.8473 71.7261 82.067C71.6711 82.6179 72.0121 82.859 71.7261 83.3697C71.2234 84.2615 69.3134 84.7022 67.8182 84.6723C66.4462 84.6457 66.4521 85.8466 67.8182 85.975C69.5941 86.1424 70.2191 86.8795 70.4235 87.2776C71.0478 88.5202 71.6354 89.7825 71.7261 91.1856C71.8136 92.526 72.914 92.5233 73.0288 91.1856C73.2945 88.0733 74.8657 86.1626 76.9367 85.975C77.0989 85.9722 76.7665 85.9864 76.9367 85.975ZM76.9367 84.6723C76.79 84.6821 77.0728 84.6707 76.9367 84.6723C76.8108 84.6234 77.0979 84.6701 76.9367 84.6723ZM76.9367 85.975C76.8012 85.975 77.0642 85.9646 76.9367 85.975C76.822 86.0283 77.0856 85.963 76.9367 85.975ZM71.7261 85.975C72.168 85.6568 71.4257 85.1324 71.7261 84.6723C72.0479 85.2596 72.5303 85.6215 73.0288 85.975C72.5832 86.3828 72.0458 86.7072 71.7261 87.2776C71.6231 87.0356 71.8446 86.2099 71.7261 85.975C72.0986 86.2507 71.5249 85.5823 71.7261 85.975Z" fill="#EAF3F3"/>
<path d="M122.359 50.683C122.359 50.0561 121.776 49.3804 121.056 49.3804C120.337 49.3804 119.753 50.0561 119.753 50.683C119.753 51.31 120.337 51.9857 121.056 51.9857C121.776 51.9857 122.359 51.31 122.359 50.683Z" fill="#90BFFF"/>
<path d="M82.451 78.0385C82.451 77.4113 81.8674 76.7358 81.1484 76.7358C80.4286 76.7358 79.8457 77.4113 79.8457 78.0385C79.8457 78.6657 80.4286 79.3411 81.1484 79.3411C81.8674 79.3411 82.451 78.6657 82.451 78.0385Z" fill="#90BFFF"/>
<path d="M78.5445 36.3539C78.5445 35.7256 77.9609 35.0513 77.2419 35.0513C76.5221 35.0513 75.9392 35.7256 75.9392 36.3539C75.9392 36.9823 76.5221 37.6566 77.2419 37.6566C77.9609 37.6566 78.5445 36.9823 78.5445 36.3539Z" fill="#EAF3F3"/>
<path d="M86.3588 46.7748C86.3588 46.1478 85.7753 45.4722 85.0562 45.4722C84.3365 45.4722 83.7535 46.1478 83.7535 46.7748C83.7535 47.4018 84.3365 48.0775 85.0562 48.0775C85.7753 48.0775 86.3588 47.4018 86.3588 46.7748Z" fill="#4E6AF0"/>
<path d="M139.154 1.30265C139.154 0.675674 138.571 0 137.851 0C137.132 0 136.549 0.675674 136.549 1.30265C136.549 1.92962 137.132 2.6053 137.851 2.6053C138.571 2.6053 139.154 1.92962 139.154 1.30265Z" fill="#FCD400"/>
<path d="M65.2135 99.0014C65.2135 98.3728 64.6299 97.6987 63.9108 97.6987C63.1911 97.6987 62.6082 98.3728 62.6082 99.0014C62.6082 99.63 63.1911 100.304 63.9108 100.304C64.6299 100.304 65.2135 99.63 65.2135 99.0014Z" fill="#FCD400"/>
<path d="M104.294 35.1713C104.294 34.5005 103.711 33.8687 102.991 33.8687C102.272 33.8687 101.689 34.5005 101.689 35.1713C101.689 35.8421 102.272 36.4739 102.991 36.4739C103.711 36.4739 104.294 35.8421 104.294 35.1713Z" fill="#EAF3F3"/>
<path d="M112.109 7.81583C112.109 7.14657 111.526 6.51318 110.806 6.51318C110.087 6.51318 109.504 7.14657 109.504 7.81583C109.504 8.48509 110.087 9.11848 110.806 9.11848C111.526 9.11848 112.109 8.48509 112.109 7.81583Z" fill="#4E6AF0"/>
<path d="M182.452 18.2372C182.452 17.6475 181.869 16.9346 181.149 16.9346C180.43 16.9346 179.847 17.6475 179.847 18.2372C179.847 18.8269 180.43 19.5399 181.149 19.5399C181.869 19.5399 182.452 18.8269 182.452 18.2372Z" fill="#EAF3F3"/>
<path d="M144.502 36.3539C144.502 35.7256 143.919 35.0513 143.2 35.0513C142.481 35.0513 141.897 35.7256 141.897 36.3539C141.897 36.9823 142.481 37.6566 143.2 37.6566C143.919 37.6566 144.502 36.9823 144.502 36.3539Z" fill="#FCD400"/>
<path d="M193.921 118.87C193.921 118.243 193.339 117.567 192.619 117.567C191.899 117.567 191.316 118.243 191.316 118.87C191.316 119.497 191.899 120.173 192.619 120.173C193.339 120.173 193.921 119.497 193.921 118.87Z" fill="#FCD400"/>
<path d="M82.148 57.3163C82.148 56.6679 81.5651 56.0137 80.8454 56.0137C80.1263 56.0137 79.5427 56.6679 79.5427 57.3163C79.5427 57.9647 80.1263 58.619 80.8454 58.619C81.5651 58.619 82.148 57.9647 82.148 57.3163Z" fill="#90BFFF"/>
<path d="M122.359 91.1215C122.359 90.4731 121.775 89.8188 121.056 89.8188C120.336 89.8188 119.753 90.4731 119.753 91.1215C119.753 91.7693 120.336 92.4241 121.056 92.4241C121.775 92.4241 122.359 91.7693 122.359 91.1215Z" fill="#4E6AF0"/>
<path d="M92.5681 92.4882C92.5681 91.8383 91.9845 91.1855 91.2654 91.1855C90.5457 91.1855 89.9628 91.8383 89.9628 92.4882C89.9628 93.138 90.5457 93.7908 91.2654 93.7908C91.9845 93.7908 92.5681 93.138 92.5681 92.4882Z" fill="#4E6AF0"/>
<path d="M199.388 71.6459C199.388 70.9975 198.805 70.3433 198.085 70.3433C197.365 70.3433 196.782 70.9975 196.782 71.6459C196.782 72.2937 197.365 72.9486 198.085 72.9486C198.805 72.9486 199.388 72.2937 199.388 71.6459Z" fill="#EAF3F3"/>
<path d="M69.1229 117.238C69.1229 116.59 68.5393 115.936 67.8202 115.936C67.1005 115.936 66.5176 116.59 66.5176 117.238C66.5176 117.886 67.1005 118.541 67.8202 118.541C68.5393 118.541 69.1229 117.886 69.1229 117.238Z" fill="#EAF3F3"/>
<path d="M70.4194 46.0596H69.3725C68.7943 46.0596 68.3256 46.5298 68.3256 47.1099V54.4622C68.3256 55.0423 68.7943 55.5125 69.3725 55.5125H70.4194C70.9976 55.5125 71.4663 55.0423 71.4663 54.4622V47.1099C71.4663 46.5298 70.9976 46.0596 70.4194 46.0596Z" fill="#CB9EFF"/>
<path d="M74.8156 42.2783H73.7687C73.1905 42.2783 72.7218 42.7486 72.7218 43.3286V50.6809C72.7218 51.261 73.1905 51.7313 73.7687 51.7313H74.8156C75.3938 51.7313 75.8625 51.261 75.8625 50.6809V43.3286C75.8625 42.7486 75.3938 42.2783 74.8156 42.2783Z" fill="#45278D"/>
<path fill-rule="evenodd" clip-rule="evenodd" d="M63.092 55.6936L95.8604 37.9722V136.073H63.092V55.6936Z" fill="#9059FF"/>
<path d="M116.067 37.9722H95.8612V136.073H116.067V37.9722Z" fill="#7542E5"/>
<path fill-rule="evenodd" clip-rule="evenodd" d="M165.028 44.5444H194.967V135.824L170.14 135.824L147.502 135.824H123.404L116.102 135.824L116.102 93.47H123.404V81.7863H147.502V93.47H165.028V44.5444Z" fill="#F6B8FF"/>
<rect x="177.442" y="56.228" width="5.84186" height="5.84186" fill="#7542E5"/>
<rect x="177.442" y="66.4512" width="5.84186" height="5.84186" fill="#7542E5"/>
<rect x="177.442" y="76.6743" width="5.84186" height="5.84186" fill="#7542E5"/>
<rect x="143.851" y="111.726" width="5.11163" height="5.11163" fill="#7542E5"/>
<rect x="154.805" y="111.726" width="5.11163" height="5.11163" fill="#7542E5"/>
<rect x="167.219" y="111.726" width="5.11163" height="5.11163" fill="#7542E5"/>
<rect x="178.172" y="111.726" width="5.11163" height="5.11163" fill="#7542E5"/>
<rect x="127.056" y="113.186" width="12.414" height="22.6372" fill="#7542E5"/>
<path fill-rule="evenodd" clip-rule="evenodd" d="M78.8998 123.364H80.1561C81.8906 123.364 83.2968 124.775 83.2968 126.515V136.073H75.759V126.515C75.759 124.775 77.1652 123.364 78.8998 123.364Z" fill="#CB9EFF"/>
<path d="M70.4424 62.7515H67.9298C66.5422 62.7515 65.4172 63.8801 65.4172 65.2723V69.0534C65.4172 70.4456 66.5422 71.5742 67.9298 71.5742H70.4424C71.8301 71.5742 72.955 70.4456 72.955 69.0534V65.2723C72.955 63.8801 71.8301 62.7515 70.4424 62.7515Z" fill="#CB9EFF"/>
<path d="M70.6283 93.0093H68.1157C66.7281 93.0093 65.6031 94.1379 65.6031 95.5301V99.3112C65.6031 100.703 66.7281 101.832 68.1157 101.832H70.6283C72.016 101.832 73.1409 100.703 73.1409 99.3112V95.5301C73.1409 94.1379 72.016 93.0093 70.6283 93.0093Z" fill="#F68FFF"/>
<path d="M70.6283 77.8848H68.1157C66.7281 77.8848 65.6031 79.0134 65.6031 80.4056V84.1867C65.6031 85.5789 66.7281 86.7075 68.1157 86.7075H70.6283C72.016 86.7075 73.1409 85.5789 73.1409 84.1867V80.4056C73.1409 79.0134 72.016 77.8848 70.6283 77.8848Z" fill="#CB9EFF"/>
<path d="M80.7842 62.6548H78.2716C76.884 62.6548 75.759 63.7834 75.759 65.1756V68.9567C75.759 70.3489 76.884 71.4775 78.2716 71.4775H80.7842C82.1719 71.4775 83.2968 70.3489 83.2968 68.9567V65.1756C83.2968 63.7834 82.1719 62.6548 80.7842 62.6548Z" fill="#CB9EFF"/>
<path d="M80.7842 93.0093H78.2716C76.884 93.0093 75.759 94.1379 75.759 95.5301V99.3112C75.759 100.703 76.884 101.832 78.2716 101.832H80.7842C82.1719 101.832 83.2968 100.703 83.2968 99.3112V95.5301C83.2968 94.1379 82.1719 93.0093 80.7842 93.0093Z" fill="#CB9EFF"/>
<path d="M80.7842 77.8848H78.2716C76.884 77.8848 75.759 79.0134 75.759 80.4056V84.1867C75.759 85.5789 76.884 86.7075 78.2716 86.7075H80.7842C82.1719 86.7075 83.2968 85.5789 83.2968 84.1867V80.4056C83.2968 79.0134 82.1719 77.8848 80.7842 77.8848Z" fill="#CB9EFF"/>
<path d="M90.8334 62.6548H88.3208C86.9332 62.6548 85.8082 63.7834 85.8082 65.1756V68.9567C85.8082 70.3489 86.9332 71.4775 88.3208 71.4775H90.8334C92.2211 71.4775 93.346 70.3489 93.346 68.9567V65.1756C93.346 63.7834 92.2211 62.6548 90.8334 62.6548Z" fill="#F68FFF"/>
<path d="M90.8334 93.0093H88.3208C86.9332 93.0093 85.8082 94.1379 85.8082 95.5301V99.3112C85.8082 100.703 86.9332 101.832 88.3208 101.832H90.8334C92.2211 101.832 93.346 100.703 93.346 99.3112V95.5301C93.346 94.1379 92.2211 93.0093 90.8334 93.0093Z" fill="#CB9EFF"/>
<path d="M90.8334 77.8848H88.3208C86.9332 77.8848 85.8082 79.0134 85.8082 80.4056V84.1867C85.8082 85.5789 86.9332 86.7075 88.3208 86.7075H90.8334C92.2211 86.7075 93.346 85.5789 93.346 84.1867V80.4056C93.346 79.0134 92.2211 77.8848 90.8334 77.8848Z" fill="#CB9EFF"/>
<path d="M109.366 62.6548H102.666C101.047 62.6548 99.7344 63.9715 99.7344 65.5957V68.5366C99.7344 70.1608 101.047 71.4775 102.666 71.4775H109.366C110.985 71.4775 112.297 70.1608 112.297 68.5366V65.5957C112.297 63.9715 110.985 62.6548 109.366 62.6548Z" fill="#D9BFFF"/>
<path d="M109.366 93.0093H102.666C101.047 93.0093 99.7344 94.326 99.7344 95.9502V98.8911C99.7344 100.515 101.047 101.832 102.666 101.832H109.366C110.985 101.832 112.297 100.515 112.297 98.8911V95.9502C112.297 94.326 110.985 93.0093 109.366 93.0093Z" fill="#D9BFFF"/>
<path d="M109.366 44.3794H102.666C101.047 44.3794 99.7344 45.6961 99.7344 47.3203V53.4122C99.7344 55.0364 101.047 56.3531 102.666 56.3531H109.366C110.985 56.3531 112.297 55.0364 112.297 53.4122V47.3203C112.297 45.6961 110.985 44.3794 109.366 44.3794Z" fill="#D9BFFF"/>
<path d="M109.366 77.8848H102.666C101.047 77.8848 99.7344 79.2015 99.7344 80.8257V83.7666C99.7344 85.3908 101.047 86.7075 102.666 86.7075H109.366C110.985 86.7075 112.297 85.3908 112.297 83.7666V80.8257C112.297 79.2015 110.985 77.8848 109.366 77.8848Z" fill="#D9BFFF"/>
<path d="M70.6283 108.239H68.1157C66.7281 108.239 65.6031 109.368 65.6031 110.76V114.541C65.6031 115.933 66.7281 117.062 68.1157 117.062H70.6283C72.016 117.062 73.1409 115.933 73.1409 114.541V110.76C73.1409 109.368 72.016 108.239 70.6283 108.239Z" fill="#CB9EFF"/>
<path d="M70.6283 123.469H68.1157C66.7281 123.469 65.6031 124.597 65.6031 125.99V129.771C65.6031 131.163 66.7281 132.292 68.1157 132.292H70.6283C72.016 132.292 73.1409 131.163 73.1409 129.771V125.99C73.1409 124.597 72.016 123.469 70.6283 123.469Z" fill="#CB9EFF"/>
<path d="M80.7842 108.239H78.2716C76.884 108.239 75.759 109.368 75.759 110.76V114.541C75.759 115.933 76.884 117.062 78.2716 117.062H80.7842C82.1719 117.062 83.2968 115.933 83.2968 114.541V110.76C83.2968 109.368 82.1719 108.239 80.7842 108.239Z" fill="#CB9EFF"/>
<path d="M90.8334 108.239H88.3208C86.9332 108.239 85.8082 109.368 85.8082 110.76V114.541C85.8082 115.933 86.9332 117.062 88.3208 117.062H90.8334C92.2211 117.062 93.346 115.933 93.346 114.541V110.76C93.346 109.368 92.2211 108.239 90.8334 108.239Z" fill="#CB9EFF"/>
<path d="M90.8334 123.469H88.3208C86.9332 123.469 85.8082 124.597 85.8082 125.99V129.771C85.8082 131.163 86.9332 132.292 88.3208 132.292H90.8334C92.2211 132.292 93.346 131.163 93.346 129.771V125.99C93.346 124.597 92.2211 123.469 90.8334 123.469Z" fill="#CB9EFF"/>
<path d="M109.366 108.239H102.666C101.047 108.239 99.7344 109.556 99.7344 111.18V114.121C99.7344 115.745 101.047 117.062 102.666 117.062H109.366C110.985 117.062 112.297 115.745 112.297 114.121V111.18C112.297 109.556 110.985 108.239 109.366 108.239Z" fill="#D9BFFF"/>
<path d="M109.366 123.469H102.666C101.047 123.469 99.7344 124.785 99.7344 126.41V129.351C99.7344 130.975 101.047 132.292 102.666 132.292H109.366C110.985 132.292 112.297 130.975 112.297 129.351V126.41C112.297 124.785 110.985 123.469 109.366 123.469Z" fill="#D9BFFF"/>
<path fill-rule="evenodd" clip-rule="evenodd" d="M83.0787 19.5284C83.7195 18.5425 84.6829 16.8592 83.9462 15.9784C83.5108 15.4578 82.7394 15.6069 82.2112 15.9784C81.6828 16.3499 80.8279 17.1461 80.4762 17.7534C81.0406 16.3501 82.1711 13.9906 82.2112 12.4284C82.2512 10.8663 80.8223 9.3825 79.6086 8.87845C78.3504 8.35577 77.2246 9.71904 76.1386 10.6534C73.8202 12.6482 71.8675 15.0808 70.0661 17.7534C70.1799 16.9146 70.1987 15.9257 70.0661 15.0909C69.9334 14.256 69.8623 13.5779 69.1986 13.3159C68.5405 13.056 67.2138 12.9365 66.5961 13.3159C64.4699 14.6212 62.7087 17.1117 61.391 19.5284C61.1956 19.5284 61.5865 19.5284 61.391 19.5284H83.0787Z" fill="#F6B8FF"/>
<path fill-rule="evenodd" clip-rule="evenodd" d="M248.274 91.3092V92.0865H216.133V91.9247C216.133 90.7468 216.631 89.6791 217.437 88.9073C218.243 88.1348 219.355 87.6572 220.585 87.6572C221.897 87.6572 223.076 88.2022 223.891 89.0676V87.9244C223.891 86.1152 224.656 84.4772 225.893 83.2914C227.13 82.1054 228.838 81.3726 230.725 81.3726C233.841 81.3726 236.467 83.3715 237.291 86.1033C238.442 85.2593 239.879 84.7564 241.439 84.7564C245.214 84.7564 248.274 87.6906 248.274 91.3092Z" fill="#D9BFFF"/>
<path fill-rule="evenodd" clip-rule="evenodd" d="M40.1981 47.6848V48.6667H0.725586V48.4623C0.725586 46.9744 1.33727 45.6258 2.32709 44.6509C3.31673 43.675 4.68338 43.0718 6.19332 43.0718C7.80491 43.0718 9.25277 43.7602 10.2535 44.8534V43.4094C10.2535 41.124 11.1935 39.0549 12.7116 37.5571C14.2306 36.059 16.3288 35.1333 18.6466 35.1333C22.4722 35.1333 25.6983 37.6583 26.7094 41.109C28.1228 40.0429 29.8877 39.4076 31.8041 39.4076C36.4395 39.4076 40.1981 43.1139 40.1981 47.6848Z" fill="#D9BFFF"/>
<path fill-rule="evenodd" clip-rule="evenodd" d="M195.567 32.1132C194.815 30.9779 193.684 29.0396 194.549 28.0253C195.06 27.4259 195.966 27.5975 196.586 28.0253C197.206 28.4531 198.21 29.3699 198.623 30.0693C197.96 28.4534 196.633 25.7363 196.586 23.9375C196.539 22.1386 198.217 20.43 199.642 19.8496C201.119 19.2477 202.441 20.8176 203.716 21.8935C206.438 24.1905 208.731 26.9918 210.846 30.0693C210.713 29.1034 210.691 27.9647 210.846 27.0034C211.002 26.0419 211.086 25.2612 211.865 24.9594C212.638 24.6601 214.196 24.5226 214.921 24.9594C217.417 26.4625 219.485 29.3304 221.033 32.1132C221.262 32.1132 220.803 32.1132 221.033 32.1132H195.567Z" fill="#F770FF"/>
</svg>
