<svg width="168" height="32" viewBox="0 0 168 32" fill="none" xmlns="http://www.w3.org/2000/svg">
<g opacity="0.9">
<path d="M27.4074 6.69486L24.1896 4.8517L16.8432 0.645466L16.6147 0.514057C15.4103 -0.171352 13.9339 -0.171352 12.7295 0.514057L12.501 0.646608L2.17111 6.56345L1.94257 6.696C0.744474 7.382 0.00381791 8.65549 0 10.0361V22.3942C0.00411722 23.775 0.744638 25.0487 1.94257 25.7355L12.5044 31.7837C13.2785 32.2281 14.266 31.966 14.7178 31.1964C14.9328 30.827 14.9911 30.387 14.8797 29.9745C14.7683 29.5619 14.4965 29.211 14.1248 29.0001L3.79487 23.0844C3.45161 22.8887 3.23932 22.5243 3.23838 22.1291V10.3012C3.23932 9.90604 3.45161 9.54162 3.79487 9.34589L14.1133 3.42563C14.457 3.23018 14.8781 3.23018 15.2217 3.42563L25.5551 9.34361C25.8968 9.54006 26.1079 9.90363 26.1093 10.2978V22.1337C26.1083 22.5288 25.896 22.8933 25.5528 23.089L22.0573 25.091L20.293 22.4308C22.0718 20.8552 23.0906 18.5932 23.0914 16.2169C23.0914 11.6084 19.3126 7.85926 14.6664 7.85926C10.0202 7.85926 6.24136 11.6084 6.24136 16.2169C6.24136 20.8253 10.0202 24.5745 14.6664 24.5745C15.6356 24.5753 16.5978 24.4091 17.5106 24.0831L20.1902 28.1237C20.232 28.1853 20.2774 28.2445 20.3261 28.3008L20.3547 28.3294C20.4113 28.3904 20.4728 28.4466 20.5387 28.4973C20.5547 28.5099 20.5695 28.5236 20.5867 28.5362C20.6592 28.5884 20.7356 28.6351 20.8152 28.6756L20.8701 28.6996C20.9413 28.7315 21.0146 28.7586 21.0894 28.7807L21.1397 28.7967C21.2248 28.8183 21.3116 28.8324 21.3991 28.839H21.4711C21.4962 28.839 21.5202 28.839 21.5454 28.839C21.5945 28.839 21.6437 28.8333 21.6916 28.8287C21.7145 28.8287 21.7362 28.8287 21.7591 28.8287C21.8513 28.816 21.9423 28.7954 22.031 28.767C22.055 28.7602 22.0779 28.7499 22.1019 28.7407C22.1724 28.715 22.2412 28.6845 22.3076 28.6493C22.3224 28.6413 22.3396 28.6368 22.3544 28.6276L27.4074 25.74C28.6065 25.0523 29.3472 23.7766 29.3499 22.3942V10.0349C29.3461 8.65435 28.6055 7.38086 27.4074 6.69486ZM9.48088 16.2169C9.46329 14.1157 10.7155 12.2116 12.6517 11.3952C14.588 10.5789 16.8254 11.0118 18.3175 12.4914C19.8095 13.9709 20.2612 16.2047 19.4612 18.1477C18.6612 20.0907 16.7677 21.359 14.6664 21.359C11.816 21.3672 9.49662 19.0672 9.48088 16.2169Z" fill="url(#paint0_linear_1_386)"/>
<path d="M27.4074 6.69486L24.1896 4.8517L16.8432 0.645466L16.6147 0.514057C15.4103 -0.171352 13.9339 -0.171352 12.7295 0.514057L12.501 0.646608L2.17111 6.56345L1.94257 6.696C0.744474 7.382 0.00381791 8.65549 0 10.0361V22.3942C0.00411722 23.775 0.744638 25.0487 1.94257 25.7355L12.5044 31.7837C13.2785 32.2281 14.266 31.966 14.7178 31.1964C14.9328 30.827 14.9911 30.387 14.8797 29.9745C14.7683 29.5619 14.4965 29.211 14.1248 29.0001L3.79487 23.0844C3.45161 22.8887 3.23932 22.5243 3.23838 22.1291V10.3012C3.23932 9.90604 3.45161 9.54162 3.79487 9.34589L14.1133 3.42563C14.457 3.23018 14.8781 3.23018 15.2217 3.42563L25.5551 9.34361C25.8968 9.54006 26.1079 9.90363 26.1093 10.2978V22.1337C26.1083 22.5288 25.896 22.8933 25.5528 23.089L22.0573 25.091L20.293 22.4308C22.0718 20.8552 23.0906 18.5932 23.0914 16.2169C23.0914 11.6084 19.3126 7.85926 14.6664 7.85926C10.0202 7.85926 6.24136 11.6084 6.24136 16.2169C6.24136 20.8253 10.0202 24.5745 14.6664 24.5745C15.6356 24.5753 16.5978 24.4091 17.5106 24.0831L20.1902 28.1237C20.232 28.1853 20.2774 28.2445 20.3261 28.3008L20.3547 28.3294C20.4113 28.3904 20.4728 28.4466 20.5387 28.4973C20.5547 28.5099 20.5695 28.5236 20.5867 28.5362C20.6592 28.5884 20.7356 28.6351 20.8152 28.6756L20.8701 28.6996C20.9413 28.7315 21.0146 28.7586 21.0894 28.7807L21.1397 28.7967C21.2248 28.8183 21.3116 28.8324 21.3991 28.839H21.4711C21.4962 28.839 21.5202 28.839 21.5454 28.839C21.5945 28.839 21.6437 28.8333 21.6916 28.8287C21.7145 28.8287 21.7362 28.8287 21.7591 28.8287C21.8513 28.816 21.9423 28.7954 22.031 28.767C22.055 28.7602 22.0779 28.7499 22.1019 28.7407C22.1724 28.715 22.2412 28.6845 22.3076 28.6493C22.3224 28.6413 22.3396 28.6368 22.3544 28.6276L27.4074 25.74C28.6065 25.0523 29.3472 23.7766 29.3499 22.3942V10.0349C29.3461 8.65435 28.6055 7.38086 27.4074 6.69486ZM9.48088 16.2169C9.46329 14.1157 10.7155 12.2116 12.6517 11.3952C14.588 10.5789 16.8254 11.0118 18.3175 12.4914C19.8095 13.9709 20.2612 16.2047 19.4612 18.1477C18.6612 20.0907 16.7677 21.359 14.6664 21.359C11.816 21.3672 9.49662 19.0672 9.48088 16.2169Z" fill="url(#paint1_linear_1_386)"/>
<path d="M27.4074 6.69486L24.1896 4.8517L19.7011 2.2829C18.6694 1.6936 17.4076 1.67462 16.3587 2.23262L14.1133 3.42563C14.457 3.23018 14.8781 3.23018 15.2217 3.42563L25.5551 9.34361C25.8968 9.54006 26.1079 9.90363 26.1093 10.2978V22.1337C26.1083 22.5288 25.896 22.8933 25.5528 23.089L22.0573 25.091L22.6024 25.9628C23.2549 27.003 24.6128 27.3416 25.6773 26.7296L27.4074 25.74C28.6084 25.0542 29.3499 23.7773 29.3499 22.3942V10.0349C29.3483 8.65377 28.607 7.37929 27.4074 6.69486Z" fill="url(#paint2_linear_1_386)"/>
<path d="M26.1093 10.3011V16.0432H29.3499L29.3499 10.0349C29.3483 8.65377 28.607 7.37929 27.4074 6.69486L24.1896 4.8517L19.7011 2.2829C18.6694 1.6936 17.4076 1.67462 16.3587 2.23262L14.1133 3.42563C14.457 3.23018 14.8781 3.23018 15.2217 3.42563L25.5551 9.34361C25.8978 9.54067 26.1091 9.90579 26.1093 10.3011Z" fill="url(#paint3_linear_1_386)"/>
<path d="M26.1093 16.9676L26.1093 22.1337C26.1083 22.5288 25.896 22.8933 25.5528 23.089L22.0573 25.091L22.6024 25.9628C23.2549 27.003 24.6128 27.3416 25.6773 26.7296L27.4074 25.74C28.6084 25.0542 29.3499 23.7773 29.3499 22.3942L29.35 16.9676H26.1093Z" fill="url(#paint4_linear_1_386)"/>
<path d="M21.8082 24.7162L20.2918 22.4308C19.4797 23.156 18.5348 23.7171 17.5094 24.0831L19.1217 26.5159C20.0321 25.9354 20.9275 25.3355 21.8082 24.7162Z" fill="url(#paint5_linear_1_386)"/>
</g>
<path d="M34.4692 23.9999V9.98391H36.9877L40.9769 15.7631L45.1132 9.98391H47.5215V23.9999H44.9846V14.1695L40.9586 19.8143L37.0429 14.2655V23.9999H34.4692Z" fill="white"/>
<path d="M54.454 24.2111C51.4758 24.2111 49.2146 21.7919 49.2146 18.8159C49.2146 15.8207 51.4758 13.4207 54.454 13.4207C57.4137 13.4207 59.7117 15.8207 59.7117 18.8159C59.7117 21.7919 57.4505 24.2111 54.454 24.2111ZM54.4723 21.6959C55.9798 21.6959 57.1931 20.4095 57.1931 18.7967C57.1931 17.1839 55.9798 15.8975 54.4723 15.8975C52.9465 15.8975 51.7516 17.1839 51.7516 18.7967C51.7516 20.4095 52.9465 21.6959 54.4723 21.6959Z" fill="white"/>
<path d="M60.6702 23.9999V21.6383L66.2036 15.9359H60.7805V13.6319H69.3288V15.9935L63.8138 21.6767H69.4024V23.9999H60.6702Z" fill="white"/>
<path d="M71.1422 23.9999V13.6319H73.7343V23.9999H71.1422ZM70.8113 10.7135C70.8113 9.71511 71.4915 8.98551 72.4291 8.98551C73.4034 8.98551 74.0652 9.71511 74.0652 10.7135C74.0652 11.6927 73.4034 12.4031 72.4291 12.4031C71.4731 12.4031 70.8113 11.6927 70.8113 10.7135Z" fill="white"/>
<path d="M75.7201 23.9999V8.87031H78.2571V23.9999H75.7201Z" fill="white"/>
<path d="M80.2801 23.9999V8.87031H82.8171V23.9999H80.2801Z" fill="white"/>
<path d="M87.8931 24.2111C85.7238 24.2111 84.437 22.9439 84.437 21.1199C84.437 18.9695 86.1466 17.6447 88.9042 17.6447H91.5146V17.5103C91.5146 16.3967 90.7977 15.6287 89.3638 15.6287C88.2424 15.6287 87.4886 16.1279 87.0291 16.9919L84.6943 15.7823C85.7054 14.3999 87.1577 13.4207 89.3821 13.4207C92.3051 13.4207 93.978 15.0143 93.978 17.6255V23.9999H91.533V22.4063C90.8161 23.4815 89.4557 24.2111 87.8931 24.2111ZM88.6284 22.0223C89.8417 22.0223 91.0367 21.2543 91.533 20.1407V19.5839H89.1983C87.6909 19.5839 87.0842 20.0831 87.0842 20.8895C87.0842 21.6383 87.5806 22.0223 88.6284 22.0223Z" fill="white"/>
<path d="M99.1793 9.98391H100.705L105.466 16.8767L110.412 9.98391H111.864V23.9999H110.375V12.4607L105.448 19.3727L100.687 12.6143V23.9999H99.1793V9.98391Z" fill="white"/>
<path d="M119.339 24.2111C118.604 24.2111 117.923 24.0767 117.298 23.8079C116.673 23.5263 116.128 23.1423 115.662 22.6559C115.209 22.1695 114.847 21.5999 114.578 20.9471C114.32 20.2943 114.191 19.5839 114.191 18.8159C114.191 18.0607 114.32 17.3567 114.578 16.7039C114.847 16.0383 115.215 15.4623 115.681 14.9759C116.146 14.4895 116.692 14.1119 117.317 13.8431C117.942 13.5615 118.616 13.4207 119.339 13.4207C120.062 13.4207 120.736 13.5615 121.361 13.8431C121.998 14.1119 122.55 14.4895 123.016 14.9759C123.481 15.4623 123.843 16.0383 124.1 16.7039C124.37 17.3567 124.505 18.0607 124.505 18.8159C124.505 19.5711 124.37 20.2751 124.1 20.9279C123.843 21.5807 123.481 22.1503 123.016 22.6367C122.55 23.1231 122.004 23.5071 121.379 23.7887C120.754 24.0703 120.074 24.2111 119.339 24.2111ZM119.339 22.7135C119.854 22.7135 120.332 22.6175 120.773 22.4255C121.226 22.2207 121.612 21.9455 121.931 21.5999C122.262 21.2415 122.519 20.8255 122.703 20.3519C122.887 19.8783 122.979 19.3663 122.979 18.8159C122.979 18.2655 122.887 17.7535 122.703 17.2799C122.519 16.7935 122.262 16.3775 121.931 16.0319C121.6 15.6735 121.214 15.3983 120.773 15.2063C120.332 15.0015 119.854 14.8991 119.339 14.8991C118.824 14.8991 118.346 15.0015 117.905 15.2063C117.464 15.3983 117.078 15.6735 116.747 16.0319C116.428 16.3775 116.177 16.7935 115.993 17.2799C115.809 17.7535 115.717 18.2655 115.717 18.8159C115.717 19.3791 115.809 19.8975 115.993 20.3711C116.177 20.8447 116.428 21.2543 116.747 21.5999C117.078 21.9455 117.464 22.2207 117.905 22.4255C118.346 22.6175 118.824 22.7135 119.339 22.7135Z" fill="white"/>
<path d="M126.767 13.6319H128.238V15.3599C128.581 14.7839 129.047 14.3167 129.635 13.9583C130.236 13.5999 130.922 13.4207 131.694 13.4207C132.344 13.4207 132.926 13.5295 133.441 13.7471C133.968 13.9519 134.415 14.2591 134.783 14.6687C135.15 15.0655 135.432 15.5519 135.628 16.1279C135.824 16.7039 135.922 17.3567 135.922 18.0863V23.9999H134.397V18.1631C134.397 17.1519 134.139 16.3455 133.624 15.7439C133.11 15.1423 132.368 14.8415 131.4 14.8415C130.959 14.8415 130.548 14.9247 130.168 15.0911C129.788 15.2575 129.458 15.4943 129.176 15.8015C128.894 16.0959 128.673 16.4543 128.514 16.8767C128.355 17.2863 128.275 17.7407 128.275 18.2399V23.9999H126.767V13.6319Z" fill="white"/>
<path d="M138.545 13.6319H140.071V23.9999H138.545V13.6319ZM138.122 10.4447C138.122 10.0863 138.232 9.79191 138.453 9.56151C138.686 9.31831 138.968 9.19671 139.299 9.19671C139.654 9.19671 139.942 9.31831 140.163 9.56151C140.383 9.79191 140.493 10.0863 140.493 10.4447C140.493 10.8031 140.383 11.1039 140.163 11.3471C139.942 11.5775 139.654 11.6927 139.299 11.6927C138.955 11.6927 138.673 11.5775 138.453 11.3471C138.232 11.1039 138.122 10.8031 138.122 10.4447Z" fill="white"/>
<path d="M141.898 13.6319H143.829V11.3471L145.318 10.3487V13.6319H148.222V15.0335H145.318V20.8319C145.318 21.4975 145.446 21.9711 145.704 22.2527C145.973 22.5343 146.323 22.6751 146.752 22.6751C147.168 22.6751 147.548 22.5087 147.891 22.1759L148.682 23.4239C148.4 23.6543 148.094 23.8335 147.763 23.9615C147.432 24.0895 147.058 24.1535 146.641 24.1535C145.722 24.1535 145.024 23.8975 144.546 23.3855C144.068 22.8607 143.829 22.0223 143.829 20.8703V15.0335H141.898V13.6319Z" fill="white"/>
<path d="M154.544 24.2111C153.809 24.2111 153.129 24.0767 152.504 23.8079C151.878 23.5263 151.333 23.1423 150.867 22.6559C150.414 22.1695 150.052 21.5999 149.783 20.9471C149.525 20.2943 149.397 19.5839 149.397 18.8159C149.397 18.0607 149.525 17.3567 149.783 16.7039C150.052 16.0383 150.42 15.4623 150.886 14.9759C151.351 14.4895 151.897 14.1119 152.522 13.8431C153.147 13.5615 153.821 13.4207 154.544 13.4207C155.267 13.4207 155.941 13.5615 156.566 13.8431C157.204 14.1119 157.755 14.4895 158.221 14.9759C158.687 15.4623 159.048 16.0383 159.305 16.7039C159.575 17.3567 159.71 18.0607 159.71 18.8159C159.71 19.5711 159.575 20.2751 159.305 20.9279C159.048 21.5807 158.687 22.1503 158.221 22.6367C157.755 23.1231 157.21 23.5071 156.585 23.7887C155.96 24.0703 155.279 24.2111 154.544 24.2111ZM154.544 22.7135C155.059 22.7135 155.537 22.6175 155.978 22.4255C156.431 22.2207 156.818 21.9455 157.136 21.5999C157.467 21.2415 157.724 20.8255 157.908 20.3519C158.092 19.8783 158.184 19.3663 158.184 18.8159C158.184 18.2655 158.092 17.7535 157.908 17.2799C157.724 16.7935 157.467 16.3775 157.136 16.0319C156.805 15.6735 156.419 15.3983 155.978 15.2063C155.537 15.0015 155.059 14.8991 154.544 14.8991C154.029 14.8991 153.551 15.0015 153.11 15.2063C152.669 15.3983 152.283 15.6735 151.952 16.0319C151.633 16.3775 151.382 16.7935 151.198 17.2799C151.014 17.7535 150.923 18.2655 150.923 18.8159C150.923 19.3791 151.014 19.8975 151.198 20.3711C151.382 20.8447 151.633 21.2543 151.952 21.5999C152.283 21.9455 152.669 22.2207 153.11 22.4255C153.551 22.6175 154.029 22.7135 154.544 22.7135Z" fill="white"/>
<path d="M161.973 13.6319H163.425V15.5903C163.633 14.8991 163.976 14.3743 164.454 14.0159C164.945 13.6575 165.545 13.4783 166.256 13.4783C166.967 13.4783 167.518 13.6063 167.911 13.8623L167.285 15.3599C167.151 15.2575 166.979 15.1807 166.771 15.1295C166.575 15.0655 166.342 15.0335 166.072 15.0335C165.239 15.0335 164.595 15.2959 164.142 15.8207C163.688 16.3327 163.462 17.1647 163.462 18.3167V23.9999H161.973V13.6319Z" fill="white"/>
<defs>
<linearGradient id="paint0_linear_1_386" x1="20.5632" y1="4.07924" x2="6.15749" y2="29.0292" gradientUnits="userSpaceOnUse">
<stop stop-color="#FF980E"/>
<stop offset="0.21" stop-color="#FF7139"/>
<stop offset="0.36" stop-color="#FF5854"/>
<stop offset="0.46" stop-color="#FF4F5E"/>
<stop offset="0.69" stop-color="#FF3750"/>
<stop offset="0.86" stop-color="#F92261"/>
<stop offset="1" stop-color="#F5156C"/>
</linearGradient>
<linearGradient id="paint1_linear_1_386" x1="20.5632" y1="4.07924" x2="6.15749" y2="29.0292" gradientUnits="userSpaceOnUse">
<stop stop-color="#FFF44F" stop-opacity="0.8"/>
<stop offset="0.09" stop-color="#FFF44F" stop-opacity="0.7"/>
<stop offset="0.75" stop-color="#FFF44F" stop-opacity="0"/>
</linearGradient>
<linearGradient id="paint2_linear_1_386" x1="14.675" y1="39.6298" x2="14.675" y2="0.387117" gradientUnits="userSpaceOnUse">
<stop stop-color="#3A8EE6"/>
<stop offset="0.24" stop-color="#5C79F0"/>
<stop offset="0.63" stop-color="#9059FF"/>
<stop offset="1" stop-color="#C139E6"/>
</linearGradient>
<linearGradient id="paint3_linear_1_386" x1="4.55195" y1="0.434525" x2="33.1229" y2="24.8842" gradientUnits="userSpaceOnUse">
<stop stop-color="#6E008B" stop-opacity="0.5"/>
<stop offset="0.5" stop-color="#C846CB" stop-opacity="0"/>
</linearGradient>
<linearGradient id="paint4_linear_1_386" x1="24.373" y1="3.00407" x2="5.71589" y2="26.6247" gradientUnits="userSpaceOnUse">
<stop offset="0.14" stop-color="#6A2BEA" stop-opacity="0"/>
<stop offset="0.34" stop-color="#642DE4" stop-opacity="0.03"/>
<stop offset="0.55" stop-color="#5131D3" stop-opacity="0.12"/>
<stop offset="0.76" stop-color="#3139B7" stop-opacity="0.27"/>
<stop offset="0.98" stop-color="#054490" stop-opacity="0.48"/>
<stop offset="1" stop-color="#00458B" stop-opacity="0.5"/>
</linearGradient>
<linearGradient id="paint5_linear_1_386" x1="18.4338" y1="23.1015" x2="20.1829" y2="25.1868" gradientUnits="userSpaceOnUse">
<stop stop-color="#960E18" stop-opacity="0.6"/>
<stop offset="0.19" stop-color="#AC1624" stop-opacity="0.48"/>
<stop offset="0.58" stop-color="#E42C41" stop-opacity="0.16"/>
<stop offset="0.75" stop-color="#FF3750" stop-opacity="0"/>
</linearGradient>
</defs>
</svg>
