<svg xmlns="http://www.w3.org/2000/svg" viewBox="0 0 87.8 87.9"><g fill="#7542E5"><path d="M34.3 69.7h19.3c3 0 5.4-2.4 5.4-5.3V38.6c0-.6-.5-1.1-1.1-1.1s-1.1.5-1.1 1.1v25.7c0 1.8-1.4 3.2-3.2 3.2H34.3c-1.1 0-2.2-.6-2.8-1.6-.2-.6-.8-.9-1.3-.7-.6.2-.9.8-.7 1.3 0 .1.1.3.2.4.9 1.7 2.6 2.8 4.6 2.8zM53.5 18.3H34.3c-3 0-5.4 2.4-5.4 5.3v30c0 .6.5 1.1 1.1 1.1s1.1-.5 1.1-1.1v-30c0-1.8 1.4-3.2 3.2-3.2h19.3c1.8 0 3.2 1.4 3.2 3.2v2.2c0 .6.5 1.1 1.1 1.1s1.1-.5 1.1-1.1v-2.2c-.1-2.9-2.5-5.3-5.5-5.3z"/><path d="M51.4 22.5h-15c-1.8 0-3.2 1.4-3.2 3.2v23.6c0 .6.5 1.1 1.1 1.1s1.1-.5 1.1-1.1V29h17.1v.3c0 .6.5 1.1 1.1 1.1s1.1-.5 1.1-1.1v-3.5c-.1-1.8-1.5-3.3-3.3-3.3zm-16.1 4.3v-1.1c0-.6.5-1.1 1.1-1.1h15c.6 0 1.1.5 1.1 1.1v1.1H35.3zM34.9 62.9c.5.3 1 .4 1.5.4h15c1.8 0 3.2-1.4 3.2-3.2V43.6c0-.6-.5-1.1-1.1-1.1s-1.1.5-1.1 1.1v16.5c0 .6-.5 1.1-1.1 1.1h-15c-.2 0-.4 0-.5-.1-.5-.3-1.2-.1-1.5.4-.1.4 0 1.1.6 1.4z"/><path d="M38.2 60c1 0 1.8-.8 1.8-1.8s-.8-1.8-1.8-1.8-1.8.8-1.8 1.8.8 1.8 1.8 1.8zM43.9 60c1 0 1.8-.8 1.8-1.8s-.8-1.8-1.8-1.8-1.8.8-1.8 1.8.8 1.8 1.8 1.8zM49.6 60c1 0 1.8-.8 1.8-1.8s-.8-1.8-1.8-1.8-1.8.8-1.8 1.8.8 1.8 1.8 1.8zM41.8 64.3c-.6 0-1.1.5-1.1 1.1s.5 1.1 1.1 1.1h3.7c.6 0 1.1-.5 1.1-1.1s-.5-1.1-1.1-1.1h-3.7z"/><path d="M43.9 0C19.6 0 0 19.7 0 43.9s19.6 44 43.9 44S87.8 68.2 87.8 44c0-24.3-19.6-44-43.9-44zM4.3 44C4.2 22.1 21.9 4.4 43.8 4.3c10.3 0 20.3 4 27.7 11.2l-56 56C8.3 64.2 4.3 54.3 4.3 44zm39.6 39.6c-9.3 0-18.2-3.2-25.3-9.2l55.8-55.8c14 16.8 11.8 41.8-5 55.8-7.2 6-16.2 9.3-25.5 9.2z"/><path d="M16.6 67.5c.6 0 1.1-.5 1.1-1 0-.3-.1-.5-.3-.7-12-14.6-10-36.2 4.6-48.3 12.7-10.4 31-10.4 43.6 0 .4.4 1.1.4 1.5-.1.4-.4.4-1.1-.1-1.5l-.1-.1C51.4 3 28.4 5.2 15.6 20.8c-11.1 13.5-11.1 32.9 0 46.3.4.3.7.4 1 .4zM74.1 23.5c-.3-.5-1-.6-1.5-.3s-.6 1-.3 1.5.7 1 1 1.6c9.7 16.3 4.4 37.3-11.8 47-10.8 6.5-24.3 6.5-35.2 0-.5-.3-.9-.6-1.4-.9s-1.2-.2-1.5.3-.2 1.1.3 1.5l1.5.9c17.3 10.4 39.6 4.8 50-12.5 6.9-11.5 6.9-26 0-37.5-.4-.5-.8-1-1.1-1.6z"/></g></svg>