<svg xmlns="http://www.w3.org/2000/svg" viewBox="0 0 55.3 89.9"><path fill="none" d="M22.2 34.8c.1-3.1 2.7-5.5 5.8-5.4 2.9.1 5.2 2.5 5.4 5.4v2.3H35v-2.3c-.1-4-3.5-7.1-7.5-7-3.8.1-6.8 3.2-7 7v2.3h1.6l.1-2.3zM37.9 54.1V39H17.8v15.1h20.1z"/><path fill="none" d="M27.8 31.2c-2 0-3.6 1.6-3.6 3.5V37h7.1v-2.3c.1-1.9-1.5-3.5-3.5-3.5z"/><path fill="none" d="M45.1 15.3H10.3v-2h34.8v-3.1H10.3v65.4h34.8V15.3zM17.4 37h1.1v-2.3c0-5.1 4.2-9.3 9.3-9.3s9.3 4.2 9.3 9.3V37h1.1c.9 0 1.7.8 1.7 1.7v15.8c0 .9-.8 1.7-1.7 1.7H17.5c-.9 0-1.7-.8-1.7-1.7V38.7c0-.9.7-1.7 1.6-1.7zm0 34.5c-1.7 0-3.1-1.4-3.1-3.1s1.4-3.1 3.1-3.1c1.7 0 3.1 1.4 3.1 3.1s-1.4 3.1-3.1 3.1zm10.3 0c-1.7 0-3.1-1.4-3.1-3.1s1.4-3.1 3.1-3.1 3.1 1.4 3.1 3.1c-.1 1.7-1.4 3.1-3.1 3.1zm10.2 0c-1.7 0-3.1-1.4-3.1-3.1s1.4-3.1 3.1-3.1 3.1 1.4 3.1 3.1c0 1.8-1.4 3.1-3.1 3.1z"/><path fill="none" d="M6.2 85.9h43c1.1 0 2-.9 2-2V6.1c0-1.1-.9-2-2-2h-43c-1.1 0-2 .9-2 2v77.7c0 1.1.9 2 2 2.1zm24.6-2h-6.1c-1.1 0-2-.9-2-2s.9-2 2-2h6.1c1.1 0 2 .9 2 2s-.9 2-2 2zM8.3 10.2c0-1.1.9-2 2-2h34.8c1.1 0 2 .9 2 2v65.4c0 1.1-.9 2-2 2H10.3c-1.1 0-2-.9-2-2V10.2z"/><g fill="#7542E5"><path d="M6.2 89.9h43c3.4 0 6.1-2.8 6.1-6.1V6.1c0-3.4-2.8-6.1-6.2-6.1h-43C2.7 0 0 2.8 0 6.1v77.7c.1 3.4 2.8 6.2 6.2 6.1zm-2-83.8c0-1.1.9-2 2-2h43c1.1 0 2 .9 2 2v77.7c0 1.1-.9 2-2 2h-43c-1.1 0-2-.9-2-2V6.1z"/><path d="M10.3 77.7h34.8c1.1 0 2-.9 2-2V10.2c0-1.1-.9-2-2-2H10.3c-1.1 0-2 .9-2 2v65.4c0 1.1.9 2.1 2 2.1zm0-67.5h34.8v3.1H10.3v2h34.8v60.3H10.3V10.2z"/><circle cx="17.5" cy="68.5" r="3.1"/><circle cx="27.7" cy="68.5" r="3.1"/><circle cx="37.9" cy="68.5" r="3.1"/><path d="M30.8 79.7h-6.1c-1.1 0-2 .9-2 2s.9 2 2 2h6.1c1.1 0 2-.9 2-2s-.9-2-2-2zM17.5 56.2h20.8c.9 0 1.7-.8 1.7-1.7V38.7c0-.9-.8-1.7-1.7-1.7h-1.2v-2.3c0-5.1-4.2-9.3-9.3-9.3-5.1 0-9.3 4.2-9.3 9.3V37h-1.1c-.9 0-1.7.8-1.7 1.7v15.8c0 .9.8 1.7 1.8 1.7-.1 0 0 0 0 0zm3.1-21.4c.1-4 3.5-7.1 7.5-7 3.8.1 6.8 3.2 7 7v2.3h-1.6v-2.3c-.1-3.1-2.7-5.5-5.8-5.4-2.9.1-5.2 2.5-5.4 5.4v2.3h-1.6l-.1-2.3zM31.4 37h-7.1v-2.3c0-2 1.6-3.6 3.6-3.6s3.6 1.6 3.6 3.6l-.1 2.3zm6.5 2v15.1H17.8V39h20.1z"/></g></svg>