<svg xmlns="http://www.w3.org/2000/svg" viewBox="0 0 106.9 64"><path fill="none" d="M101.2 3.8h-79c-1 0-1.9.8-1.9 1.9v15c0 1 .8 1.9 1.9 1.9h79c1 0 1.9-.8 1.9-1.9v-15c0-1.1-.9-1.9-1.9-1.9zM36.8 15.1L35.7 17c-.1.1-.2.2-.3.2s-.3 0-.4-.1l-2.4-1.8.4 3c0 .1 0 .3-.1.4s-.2.2-.4.2h-2.2c-.1 0-.3-.1-.4-.2-.1-.1-.1-.2-.1-.4l.4-3-2.5 1.8c-.1.1-.3.1-.4.1-.1 0-.3-.1-.3-.2l-1-1.9c-.1-.1-.1-.3 0-.4l.3-.3 2.8-1.2-2.9-1.2c-.3-.1-.4-.4-.3-.7v-.1L27 9.4c.1-.1.2-.2.3-.2s.3 0 .4.1l2.4 1.8-.4-3c0-.1 0-.3.1-.4.1-.1.2-.2.4-.2h2.2c.3 0 .5.2.5.5v.1l-.4 3 2.4-1.8c.2-.2.5-.1.7.1v.1l1 1.9c.1.1.1.3 0 .4 0 .1-.1.3-.3.3l-2.8 1.2 2.8 1.2.3.3c.2 0 .2.1.2.3zm15.4 0L51.1 17c-.1.1-.2.2-.3.2-.1 0-.3 0-.4-.1L48 15.3l.4 3c0 .1 0 .3-.1.4s-.2.2-.4.2h-2.2c-.1 0-.3-.1-.4-.2s-.1-.2-.1-.4l.4-3-2.5 1.8c-.1.1-.3.1-.4.1-.1 0-.3-.1-.3-.2l-1-1.9c-.1-.1-.1-.3 0-.4 0-.1.1-.2.3-.3l2.7-1.2-2.8-1.2-.3-.3c-.1-.1-.1-.3 0-.4l1.1-1.8c.1-.1.2-.2.3-.2s.3 0 .4.1l2.4 1.8-.4-3c0-.3.2-.5.4-.6H47.8c.3 0 .5.2.5.5v.1l-.4 3 2.4-1.8c.1-.1.3-.1.4-.1s.3.1.3.2l1 1.9c.1.2.1.5-.2.7h-.1l-2.8 1.2 2.8 1.2.3.3c.2 0 .3.1.2.3zm15 0L66.1 17c-.1.1-.2.2-.3.2-.1 0-.3 0-.4-.1L63 15.3l.4 3c0 .1 0 .3-.1.4s-.2.2-.4.2h-2.1c-.1 0-.3-.1-.4-.2s-.1-.2-.1-.4l.4-3-2.5 1.8c-.1.1-.3.1-.4.1s-.3-.1-.3-.2l-1-1.9c-.1-.1-.1-.3 0-.4l.3-.3 2.8-1.2-2.9-1.2-.3-.3c-.1-.1-.1-.3 0-.4l1.1-1.8c.1-.1.2-.2.3-.2.1 0 .3 0 .4.1l2.4 1.8-.4-3c0-.3.2-.5.4-.6H62.9c.3 0 .5.2.5.5v.1l-.4 3 2.4-1.8c.1-.1.3-.1.4-.1s.3.1.3.2l1.1 1.9c.1.1.1.3 0 .4 0 .1-.1.2-.3.3l-2.8 1.2 2.8 1.2.3.3c.1 0 .1.1 0 .3zm15 0L81.1 17c-.1.1-.2.2-.3.2-.1 0-.3 0-.4-.1L78 15.3l.4 3c0 .1 0 .3-.1.4s-.2.2-.4.2h-2.1c-.1 0-.3-.1-.4-.2s-.1-.2-.1-.4l.4-3-2.5 1.8c-.1.1-.3.1-.4.1s-.3-.1-.3-.2l-1-1.9c-.1-.1-.1-.3 0-.4l.3-.3 2.8-1.2-2.9-1.2-.3-.3c-.1-.1-.1-.3 0-.4l1.1-1.8c.1-.1.2-.2.3-.2.1 0 .3 0 .4.1l2.4 1.8-.4-3c0-.1 0-.3.1-.4.1-.1.2-.2.4-.2h2.2c.3 0 .5.2.5.5v.1l-.4 3 2.4-1.8c.1-.1.3-.1.4-.1s.3.1.3.2l1 1.9c.1.1.1.3 0 .4 0 .1-.1.2-.3.3L79 13.3l2.8 1.2.3.3c.2 0 .2.1.1.3zM101.2 41.4h-79c-1 0-1.9.8-1.9 1.9v15c0 1 .8 1.9 1.9 1.9h79c1 0 1.9-.8 1.9-1.9v-15c0-1-.9-1.9-1.9-1.9zM36.8 52.7l-1.1 1.9c-.1.1-.2.2-.3.2s-.3 0-.4-.1l-2.4-1.8.4 3c0 .3-.2.5-.4.6H30.3c-.1 0-.3-.1-.4-.2-.1-.1-.1-.3-.1-.4l.4-3-2.5 1.8c-.1.1-.3.1-.4.1-.1 0-.3-.1-.3-.2l-1-1.9c-.1-.1-.1-.3 0-.4 0-.1.1-.2.3-.3l2.8-1.2-2.8-1.2-.3-.3c-.1-.1-.1-.3 0-.4l1-1.9c.1-.1.2-.2.3-.2s.3 0 .4.1l2.4 1.8-.4-3c0-.1 0-.3.1-.4.1-.1.2-.2.4-.2h2.2c.1 0 .3.1.4.2.1.1.1.2.1.4l-.4 3 2.4-1.8c.1-.1.3-.1.4-.1.1 0 .3.1.3.2l1 1.9c.1.2 0 .6-.2.7l-2.8 1.2 2.8 1.2.3.3c.2.1.2.3.1.4zm15.4 0l-1.1 1.9c-.1.1-.2.2-.3.2-.1 0-.3 0-.4-.1L48 52.9l.4 3c0 .3-.2.5-.4.6H45.7c-.3 0-.5-.2-.5-.5v-.1l.4-3-2.5 1.8c-.1.1-.3.1-.4.1-.1 0-.3-.1-.3-.2l-1-1.9c-.1-.1-.1-.3 0-.4 0-.1.1-.2.3-.3l2.7-1.2-2.8-1.2-.3-.3c-.1-.1-.1-.3 0-.4l1.2-1.9c.1-.1.2-.2.3-.2s.3 0 .4.1l2.4 1.8-.4-3c0-.1 0-.3.1-.4.1-.1.2-.2.4-.2h2.2c.1 0 .3.1.4.2.1.1.1.2.1.4l-.4 3 2.4-1.8c.1-.1.3-.1.4-.1s.3.1.3.2l1 1.9c.1.1.1.3 0 .4 0 .1-.1.2-.3.3L49 50.8l2.9 1.2.3.3c.1.1.1.3 0 .4zm15 0l-1.1 1.9c-.1.1-.2.2-.3.2-.1 0-.3 0-.4-.1L63 52.9l.4 3c0 .3-.2.5-.4.6h-2.2c-.3 0-.5-.2-.5-.5v-.1l.4-3-2.5 1.8c-.1.1-.3.1-.4.1s-.3-.1-.3-.2l-1-1.9c-.1-.1-.1-.3 0-.4 0-.1.1-.2.3-.3l2.8-1.2-2.8-1.2-.3-.3c-.1-.1-.1-.3 0-.4l1-1.9c.1-.1.2-.2.3-.2.1 0 .3 0 .4.1l2.4 1.8-.4-3c0-.1 0-.3.1-.4.1-.1.2-.2.4-.2h2.2c.1 0 .3.1.4.2.1.1.1.2.1.4l-.4 3 2.4-1.8c.1-.1.3-.1.4-.1s.3.1.3.2l1.1 1.9c.1.1.1.3 0 .4 0 .1-.1.2-.3.3l-2.8 1.2 2.8 1.2c.1 0 .2.2.3.3.1.1.1.3 0 .4zm15 0l-1.1 1.9c-.1.1-.2.2-.3.2-.1 0-.3 0-.4-.1L78 52.9l.4 3c0 .3-.2.5-.4.6h-2.2c-.1 0-.3-.1-.4-.2s-.1-.3-.1-.4l.4-3-2.5 1.8c-.1.1-.3.1-.4.1s-.3-.1-.3-.2l-1-1.9c-.1-.1-.1-.3 0-.4 0-.1.1-.2.3-.3l2.8-1.2-2.8-1.2-.3-.3c-.1-.1-.1-.3 0-.4l1-1.9c.1-.1.2-.2.3-.2.1 0 .3 0 .4.1l2.4 1.8-.4-3c0-.1 0-.3.1-.4.1-.1.2-.2.4-.2h2.2c.1 0 .3.1.4.2.1.1.1.2.1.4l-.4 3 2.4-1.8c.1-.1.3-.1.4-.1s.3.1.3.2l1 1.9c.1.1.1.3 0 .4 0 .1-.1.2-.3.3L79 50.8l2.9 1.2c.1 0 .2.2.3.3v.4zm15 0l-1.1 1.9c-.1.1-.2.2-.3.2-.1 0-.3 0-.4-.1L93 52.9l.4 3c0 .3-.2.5-.4.6H90.7c-.1 0-.3-.1-.4-.2s-.1-.3-.1-.4l.4-3-2.5 1.8c-.1.1-.3.1-.4.1s-.3-.1-.3-.2l-1-1.9c-.1-.1-.1-.3 0-.4 0-.1.1-.2.3-.3l2.8-1.2-2.8-1.2-.3-.3c-.1-.1-.1-.3 0-.4l1.2-1.9c.1-.1.2-.2.3-.2.1 0 .3 0 .4.1l2.4 1.8-.4-3c0-.1 0-.3.1-.4.1-.1.2-.2.4-.2H93c.1 0 .3.1.4.2.1.1.1.2.1.4l-.4 3 2.4-1.8c.1-.1.3-.1.4-.1s.3.1.3.2l1 1.9c.1.1.1.3 0 .4 0 .1-.1.2-.3.3l-2.8 1.2L97 52c.1 0 .2.2.3.3.1.1.1.3-.1.4.1 0 0 0 0 0z"/><g fill="#7542E5"><path d="M5.4 3.8c-2.2-.1-4.2 1-5.3 2.9-.1.2-.1.4 0 .6.1.2.2.4.4.5l.9.4c.4.1.7 0 .9-.3.6-1.1 1.8-1.8 3-1.8 1.8 0 3 1 3 2.5s-.8 2-1.7 2.8c-1.8 1.2-2.9 3.3-2.8 5.5 0 .2.1.4.2.5s.3.2.5.2h.9c.4 0 .7-.3.8-.7.1-2.2 1.2-3 2.3-4 1.5-.9 2.4-2.5 2.4-4.3 0-2.9-2.3-4.8-5.5-4.8zM6.8 20.7c0-1-.8-1.8-1.8-1.8s-1.8.8-1.8 1.8.8 1.8 1.8 1.8c1 .1 1.8-.8 1.8-1.8zM101.2 0h-79c-3.1 0-5.6 2.5-5.6 5.6v15.1c0 3.1 2.5 5.6 5.6 5.7h79c3.1 0 5.6-2.5 5.7-5.7v-15c-.1-3.2-2.6-5.7-5.7-5.7zm1.9 20.7c0 1-.8 1.9-1.9 1.9h-79c-1 0-1.9-.8-1.9-1.9v-15c0-1 .8-1.9 1.9-1.9h79c1 0 1.9.8 1.9 1.9v15z"/><path d="M33.8 13.2l2.8-1.2c.1 0 .2-.2.3-.3.1-.1.1-.3 0-.4l-1-1.9c-.1-.2-.4-.3-.7-.2h-.1L32.6 11l.4-3c0-.3-.2-.5-.4-.6H30.3c-.1 0-.3.1-.4.2-.1.1-.1.3-.1.4l.4 3-2.4-1.8c-.1-.1-.3-.1-.4-.1-.1 0-.3.1-.3.2L26 11.1c-.1.2-.1.5.2.7h.1l2.8 1.2-2.8 1.2-.3.3c-.1.1-.1.3 0 .4l1 1.9c.1.1.2.2.3.2s.3 0 .4-.1l2.5-1.8-.4 3c0 .1 0 .3.1.4s.2.2.4.2h2.1c.1 0 .3-.1.4-.2.1-.1.1-.2.1-.4l-.4-3 2.4 1.8c.1.1.3.1.4.1.1 0 .3-.1.3-.2l1.1-1.9c.1-.1.1-.3 0-.4 0-.1-.2-.3-.3-.3l-2.6-1zM49.2 13.2L52 12c.3-.1.4-.4.3-.7v-.1l-1-1.9c-.1-.1-.2-.2-.3-.2-.1 0-.3 0-.4.1L48.2 11l.4-3c0-.3-.2-.5-.4-.6H45.9c-.3 0-.5.2-.5.5V8l.4 3-2.4-1.8c-.1-.1-.3-.1-.4-.1-.1 0-.3.1-.3.2l-1.3 1.9c-.1.1-.1.3 0 .4 0 .1.1.2.3.3l2.7 1.2-2.8 1.2-.3.3c-.1.1-.1.3 0 .4l1 1.9c.1.1.2.2.3.2s.3 0 .4-.1l2.5-1.8-.4 3c0 .1 0 .3.1.4s.2.2.4.2h2.2c.1 0 .3-.1.4-.2s.1-.2.1-.4l-.4-3 2.5 1.8c.1.1.3.1.4.1s.3-.1.3-.2l1.1-1.9c.1-.1.1-.3 0-.4 0-.1-.1-.3-.3-.3l-2.7-1.1zM64.2 13.2L67 12l.3-.3c.1-.1.1-.3 0-.4l-1.1-1.9c-.1-.1-.2-.2-.3-.2-.1 0-.3 0-.4.1l-2.4 1.8.4-3c0-.3-.2-.5-.4-.6H60.8c-.3 0-.5.2-.5.5v.1l.4 3-2.4-1.8c-.1-.1-.3-.1-.4-.1s-.3.1-.3.2l-1.2 1.8c-.1.1-.1.3 0 .4 0 .1.1.2.3.3l2.8 1.2-2.8 1.2-.3.3c-.1.1-.1.3 0 .4l1 1.9c.1.1.2.2.3.2.1 0 .3 0 .4-.1l2.5-1.8-.4 3c0 .1 0 .3.1.4s.2.2.4.2h2.2c.1 0 .3-.1.4-.2s.1-.2.1-.4l-.4-3 2.4 1.8c.1.1.3.1.4.1s.3-.1.3-.2l1.1-1.9c.1-.1.1-.3 0-.4 0-.1-.1-.3-.3-.3l-2.7-1.1zM79.3 13.2l2.8-1.2.3-.3c.1-.1.1-.3 0-.4l-1-1.9c-.1-.1-.2-.2-.3-.2-.1 0-.3 0-.4.1l-2.4 1.8.4-3c0-.3-.2-.5-.4-.6H76c-.1 0-.3.1-.4.2-.1.1-.1.3-.1.4l.4 3-2.4-1.8c-.1-.1-.3-.1-.4-.1s-.3.1-.3.2l-1.1 1.8c-.1.1-.1.3 0 .4 0 .1.1.2.3.3l2.8 1.2-2.8 1.2-.3.3c-.1.1-.1.3 0 .4l1 1.9c.1.1.2.2.3.2.1 0 .3 0 .4-.1l2.5-1.8-.4 3c0 .1 0 .3.1.4s.2.2.4.2h2.2c.1 0 .3-.1.4-.2s.1-.2.1-.4l-.4-3 2.1 1.8c.1.1.3.1.4.1s.3-.1.3-.2l1.1-1.9c.1-.1.1-.3 0-.4 0-.1-.1-.3-.3-.3l-2.6-1.1zM101.2 37.6h-79c-3.1 0-5.6 2.5-5.6 5.7v15c0 3.1 2.5 5.7 5.6 5.7h79c3.1 0 5.6-2.5 5.7-5.6v-15c0-3.2-2.5-5.7-5.7-5.8zm1.9 20.7c0 1-.8 1.9-1.9 1.9h-79c-1 0-1.9-.8-1.9-1.9v-15c0-1 .8-1.9 1.9-1.9h79c1 0 1.9.8 1.9 1.9v15z"/><path d="M33.8 50.8l2.8-1.2c.3-.1.4-.4.3-.7l-1-1.9c-.1-.1-.2-.2-.3-.2s-.3 0-.4.1l-2.5 1.8.4-3c0-.1 0-.3-.1-.4-.1-.1-.2-.2-.4-.2h-2.2c-.1 0-.3.1-.4.2-.1.1-.1.2-.1.4l.4 3-2.4-1.8c-.1-.1-.3-.1-.4-.1-.1 0-.3.1-.3.2l-1.1 1.8c-.1.1-.1.3 0 .4 0 .1.1.3.3.3l2.8 1.2-3 1.3-.3.3c-.1.1-.1.3 0 .4l1 1.9c.1.1.2.2.3.2s.3 0 .4-.1l2.5-1.8-.4 3c0 .1 0 .3.1.4s.2.2.4.2h2.2c.3 0 .5-.2.5-.5v-.1l-.4-3 2.4 1.8c.1.1.3.1.4.1.1 0 .3-.1.3-.2l1.1-1.9c.1-.1.1-.3 0-.4 0-.1-.2-.2-.3-.3l-2.6-1.2zM49.2 50.8l2.8-1.2.3-.3c.1-.1.1-.3 0-.4l-1-1.9c-.1-.1-.2-.2-.3-.2-.1 0-.3 0-.4.1l-2.4 1.8.4-3c0-.1 0-.3-.1-.4-.1-.1-.2-.2-.4-.2h-2.2c-.1 0-.3.1-.4.2-.1.1-.1.2-.1.4l.4 3-2.4-1.8c-.1-.1-.3-.1-.4-.1-.1 0-.3.1-.3.2l-1.3 1.9c-.1.1-.1.3 0 .4 0 .1.1.3.3.3l2.7 1.2-2.8 1.2-.3.3c-.1.1-.1.3 0 .4l1 1.9c.1.1.2.2.3.2s.3 0 .4-.1l2.5-1.8-.4 3c0 .3.2.5.4.6H47.8c.3 0 .5-.2.5-.5v-.1l-.4-3 2.5 1.8c.1.1.3.1.4.1s.3-.1.3-.2l1.1-1.9c.1-.1.1-.3 0-.4 0-.1-.1-.2-.3-.3l-2.7-1.2zM64.2 50.8l2.8-1.2.3-.3c.1-.1.1-.3 0-.4L66.2 47c-.1-.1-.2-.2-.3-.2-.1 0-.3 0-.4.1l-2.4 1.8.4-3c0-.1 0-.3-.1-.4-.1-.1-.2-.2-.4-.2h-2.2c-.1 0-.3.1-.4.2-.1.1-.1.2-.1.4l.4 3-2.4-1.8c-.1-.1-.3-.1-.4-.1s-.3.1-.3.2l-1.2 1.9c-.1.1-.1.3 0 .4 0 .1.1.3.3.3l2.8 1.2-2.8 1.2-.3.3c-.1.1-.1.3 0 .4l1 1.9c.1.1.2.2.3.2.1 0 .3 0 .4-.1l2.5-1.8-.4 3c0 .3.2.5.4.6H62.9c.3 0 .5-.2.5-.5v-.1l-.4-3 2.4 1.8c.1.1.3.1.4.1s.3-.1.3-.2l1.1-1.9c.1-.1.1-.3 0-.4 0-.1-.1-.3-.3-.3l-2.7-1.2zM79.3 50.8l2.8-1.2.3-.3c.1-.1.1-.3 0-.4l-1-1.9c-.1-.1-.2-.2-.3-.2-.1 0-.3 0-.4.1l-2.4 1.8.4-3c0-.1 0-.3-.1-.4-.1-.1-.2-.2-.4-.2H76c-.1 0-.3.1-.4.2-.1.1-.1.2-.1.4l.4 3-2.4-1.8c-.1-.1-.3-.1-.4-.1s-.3.1-.3.2l-1.1 1.8c-.1.1-.1.3 0 .4 0 .1.1.3.3.3l2.8 1.2-3.1 1.3-.3.3c-.1.1-.1.3 0 .4l1 1.9c.1.1.2.2.3.2.1 0 .3 0 .4-.1l2.5-1.8-.4 3c0 .1 0 .3.1.4s.2.2.4.2h2.2c.3 0 .5-.2.5-.5v-.1l-.4-3 2.4 1.8c.1.1.3.1.4.1s.3-.1.3-.2l1.1-1.9c.1-.1.1-.3 0-.4 0-.1-.1-.3-.3-.3l-2.6-1.2zM94.3 50.8l2.8-1.2.3-.3c.1-.1.1-.3 0-.4l-1-1.9c-.1-.1-.2-.2-.3-.2-.1 0-.3 0-.4.1l-2.4 1.8.4-3c0-.1 0-.3-.1-.4-.1-.1-.2-.2-.4-.2H91c-.1 0-.3.1-.4.2-.1.1-.1.2-.1.4l.4 3-2.4-1.8c-.1-.1-.3-.1-.4-.1s-.3.1-.3.2l-1.1 1.8c-.1.1-.1.3 0 .4 0 .1.1.3.3.3l2.8 1.2-2.9 1.2-.3.3c-.1.1-.1.3 0 .4l1 1.9c.1.1.2.2.3.2.1 0 .3 0 .4-.1l2.5-1.8-.4 3c0 .1 0 .3.1.4s.2.2.4.2h2.2c.3 0 .5-.2.5-.5v-.1l-.4-3 2.4 1.8c.1.1.3.1.4.1s.3-.1.3-.2l1.2-1.9c.1-.1.1-.3 0-.4 0-.1-.1-.3-.3-.3l-2.9-1.1zM5.4 41.4c-2.2-.1-4.2 1-5.3 2.9-.1.2-.1.4 0 .6.1.2.2.4.4.4l.9.4c.3.1.7 0 .9-.3.6-1.1 1.8-1.8 3-1.8 1.8 0 3 1.1 3 2.5s-.8 2-1.7 2.8c-1.8 1.2-2.9 3.3-2.8 5.5 0 .2.1.4.2.6.1.1.3.2.5.2h.9c.4 0 .7-.3.8-.7.1-2.2 1.2-3 2.3-4 1.5-.9 2.4-2.5 2.4-4.3 0-2.8-2.3-4.8-5.5-4.8zM5 56.5c-1 0-1.9.8-1.9 1.8s.8 1.9 1.8 1.9 1.9-.8 1.9-1.8v-.1c0-.9-.8-1.7-1.8-1.8z"/></g></svg>