<svg width="584" height="129" viewBox="0 0 584 129" fill="none" xmlns="http://www.w3.org/2000/svg">
<path fill-rule="evenodd" clip-rule="evenodd" d="M2.25443 128C0.951567 126.047 -0.243336 123.744 1.25443 122C2.13957 120.969 3.18053 121.264 4.25443 122C5.32851 122.735 6.53944 123.797 7.25443 125C6.10696 122.221 4.33591 119.093 4.25443 116C4.17296 112.906 9.56838 101.098 26.2544 114C29.8711 116.796 32.3969 125.48 45.2544 128C44.8571 128 45.6518 129 45.2544 129L2.25443 128Z" fill="#C9EFFD"/>
<g opacity="0.5">
<path fill-rule="evenodd" clip-rule="evenodd" d="M440.558 87.9991C442.882 84.3797 445.229 79.2329 442.558 75.9991C440.98 74.088 438.473 73.6352 436.558 74.9991C434.643 76.363 432.833 78.7695 431.558 80.9991C433.604 75.8473 435.413 70.7342 435.558 64.9991C435.703 59.2641 427.316 37.0809 397.558 60.9991C391.108 66.1834 385.488 83.3281 362.558 87.9991C363.267 87.9991 361.849 88.9991 362.558 88.9991L440.558 87.9991Z" fill="#C9EFFD"/>
</g>
<path fill-rule="evenodd" clip-rule="evenodd" d="M157.558 106.999C155.235 103.38 152.887 98.2329 155.558 94.9991C157.137 93.088 159.643 92.6352 161.558 93.9991C163.474 95.363 165.283 97.7695 166.558 99.9991C164.512 94.8473 162.703 89.7342 162.558 83.9991C162.413 78.2641 170.8 56.0809 200.558 79.9991C207.008 85.1834 212.628 102.328 235.558 106.999C234.849 106.999 236.267 107.999 235.558 107.999L157.558 106.999Z" fill="#C9EFFD"/>
<path fill-rule="evenodd" clip-rule="evenodd" d="M581.559 120C583.115 117.61 584.348 114.135 582.559 112C581.502 110.738 579.842 111.099 578.559 112C577.276 112.901 576.413 114.528 575.559 116C576.929 112.598 578.462 108.787 578.559 105C578.656 101.213 572.488 86.2052 552.559 102C548.239 105.423 544.915 116.915 529.559 120C530.033 120 529.084 121 529.559 121L581.559 120Z" fill="#C9EFFD"/>
<mask id="mask0_247_3049" style="mask-type:alpha" maskUnits="userSpaceOnUse" x="223" y="23" width="150" height="83">
<path fill-rule="evenodd" clip-rule="evenodd" d="M223.559 23H372.559V106H223.559V23Z" fill="white"/>
</mask>
<g mask="url(#mask0_247_3049)">
<path fill-rule="evenodd" clip-rule="evenodd" d="M362.559 106H233.559C228.457 106 223.559 101.111 223.559 96V33C223.559 27.8889 228.457 23 233.559 23H362.559C367.66 23 372.559 27.8889 372.559 33V96C372.559 101.111 367.66 106 362.559 106Z" fill="#F770FF"/>
</g>
<path fill-rule="evenodd" clip-rule="evenodd" d="M300.558 67.0003C295.543 67.0003 290.983 65.895 286.558 63.0003L226.558 24.0003C226.317 23.8424 226.402 23.2444 226.558 23.0003C226.714 22.7559 227.317 22.8421 227.558 23.0003L286.558 62.0003C295.316 67.7305 306 67.0292 314.558 61.0003L367.558 24.0003C367.794 23.8339 368.393 23.7615 368.558 24.0003C368.723 24.2388 368.794 24.8339 368.558 25.0003L314.558 62.0003C309.975 65.2288 305.873 67.0003 300.558 67.0003Z" fill="#26154D"/>
</svg>
