
<svg width="225" height="143" viewBox="0 0 225 143" fill="none" xmlns="http://www.w3.org/2000/svg">
<g opacity="0.5">
<path fill-rule="evenodd" clip-rule="evenodd" d="M121.131 2.7269C145.374 1.31286 166.764 20.9613 180.73 41.137C193.589 59.7135 197.535 83.3318 190.001 104.712C183.249 123.875 163.741 130.696 144.971 137.824C128.935 143.915 112.339 144.231 95.9668 139.149C74.4316 132.464 47.7914 128.046 41.6652 106.037C35.4237 83.6136 55.334 64.7818 69.4782 46.4349C83.8776 27.757 97.8128 4.087 121.131 2.7269Z" fill="#D9BFFF"/>
</g>
<path d="M185.303 79.3273C186.112 79.2939 186.211 79.2951 187.671 79.3273C187.899 79.333 188.726 79.3251 188.855 79.3273C190.012 79.3517 190.425 79.3647 191.223 79.3273C191.83 79.2985 192.435 78.7685 192.407 78.1433C192.379 77.5187 191.829 76.931 191.223 76.9594C190.485 76.9945 189.968 76.9826 188.855 76.9594C188.728 76.9565 187.899 76.965 187.671 76.9594C186.166 76.9259 186.173 76.9231 185.303 76.9594C184.696 76.9843 184.094 77.5182 184.119 78.1433C184.143 78.7685 184.695 79.3528 185.303 79.3273Z" fill="#EAF3F3"/>
<path d="M188.854 81.6954C188.866 81.1354 188.849 80.1265 188.854 79.3274C188.853 79.5731 188.854 79.1908 188.854 79.3274C188.863 77.4726 188.806 76.7582 188.854 75.7754C188.883 75.1705 188.29 74.6199 187.67 74.5914C187.05 74.5629 186.515 75.1699 186.486 75.7754C186.436 76.7999 186.495 77.4413 186.486 79.3274C186.485 79.5731 186.486 79.1914 186.486 79.3274C186.481 80.1155 186.498 81.1497 186.486 81.6954C186.472 82.3008 187.05 82.8667 187.67 82.8794C188.29 82.8925 188.84 82.3008 188.854 81.6954Z" fill="#EAF3F3"/>
<path d="M185.736 39.0167C185.766 39.6585 185.673 40.3953 185.736 41.3847C185.727 41.2452 185.745 41.5243 185.736 41.3847C185.889 43.8003 185.736 44.7673 185.736 46.1206C185.736 46.6895 186.389 47.3046 186.92 47.3046C187.452 47.3046 188.104 46.6895 188.104 46.1206C188.104 44.7054 188.26 43.8464 188.104 41.3847C188.095 41.2452 188.113 41.524 188.104 41.3847C188.042 40.4066 188.133 39.6433 188.104 39.0167C188.077 38.4485 187.451 37.8042 186.92 37.8327C186.389 37.8611 185.709 38.4486 185.736 39.0167Z" fill="#90BFFF"/>
<path d="M184.247 43.53C185.37 43.6498 185.81 43.6473 187.799 43.53C188.265 43.5025 188.724 43.5427 188.983 43.53C189.485 43.5054 189.771 43.53 190.167 43.53C190.761 43.53 191.351 42.921 191.351 42.346C191.351 41.7711 190.761 41.1621 190.167 41.1621C189.73 41.1621 189.518 41.1358 188.983 41.1621C188.714 41.1752 188.273 41.1342 187.799 41.1621C185.933 41.272 185.206 41.2644 184.247 41.1621C183.656 41.0991 183.128 41.7746 183.063 42.346C182.998 42.9175 183.656 43.4671 184.247 43.53Z" fill="#90BFFF"/>
<path d="M81.1099 107.743C81.1397 108.385 81.0468 109.122 81.1099 110.111C81.1012 109.972 81.1185 110.251 81.1099 110.111C81.2634 112.527 81.1099 113.494 81.1099 114.847C81.1099 115.416 81.7626 116.031 82.2938 116.031C82.8256 116.031 83.4778 115.416 83.4778 114.847C83.4778 113.432 83.6342 112.573 83.4778 110.111C83.4692 109.972 83.487 110.25 83.4778 110.111C83.4162 109.133 83.5072 108.37 83.4778 107.743C83.4514 107.175 82.8251 106.531 82.2938 106.559C81.763 106.588 81.0834 107.175 81.1099 107.743Z" fill="#90BFFF"/>
<path d="M79.9265 112.479C81.0485 112.599 81.4894 112.597 83.4785 112.479C83.7522 112.463 84.5092 112.488 84.6625 112.479C85.3617 112.44 85.3538 112.479 85.8465 112.479C86.4403 112.479 87.0304 111.869 87.0304 111.295C87.0304 110.722 86.4403 110.111 85.8465 110.111C85.3048 110.111 85.3988 110.07 84.6625 110.111C84.5059 110.12 83.7549 110.095 83.4785 110.111C81.6126 110.221 80.8855 110.213 79.9265 110.111C79.3359 110.048 78.8076 110.725 78.7425 111.295C78.6774 111.865 79.3359 112.416 79.9265 112.479Z" fill="#90BFFF"/>
<path fill-rule="evenodd" clip-rule="evenodd" d="M157.804 80.5037C157.881 81.723 158.884 81.7206 158.988 80.5037C159.23 77.6781 160.661 75.9412 162.54 75.7678C162.382 75.7781 162.69 75.7653 162.54 75.7678C163.788 75.6823 163.791 74.5838 162.54 74.5838C162.375 74.5838 162.7 74.5714 162.54 74.5838C160.541 74.6001 159.437 74.6009 158.988 72.2158C158.967 72.1053 159.041 71.3231 158.988 71.0318C158.938 70.7628 159.021 71.2003 158.988 71.0318C158.76 69.8947 157.864 69.8729 157.804 71.0318C157.795 71.2028 157.813 70.7358 157.804 71.0318C157.792 71.431 157.825 72.0126 157.804 72.2158C157.753 72.7082 158.062 72.9394 157.804 73.3998C157.348 74.2103 155.615 74.6065 154.252 74.5838C153.005 74.5635 153.01 75.6541 154.252 75.7678C155.864 75.9155 156.434 76.5895 156.62 76.9517C157.189 78.0811 157.723 79.2291 157.804 80.5037ZM162.54 74.5838C162.405 74.5932 162.666 74.5823 162.54 74.5838C162.424 74.5378 162.689 74.5818 162.54 74.5838ZM162.54 75.7678C162.414 75.7678 162.658 75.7579 162.54 75.7678C162.435 75.8182 162.678 75.7564 162.54 75.7678ZM157.804 75.7678C158.206 75.4786 157.531 75.0014 157.804 74.5838C158.097 75.1171 158.535 75.446 158.988 75.7678C158.583 76.1379 158.094 76.4338 157.804 76.9517C157.71 76.7318 157.912 75.9818 157.804 75.7678C158.142 76.0178 157.621 75.4119 157.804 75.7678Z" fill="#FCD400"/>
<path fill-rule="evenodd" clip-rule="evenodd" d="M69.2693 78.1435C70.5182 78.0595 70.5211 76.9595 69.2693 76.9595C69.1063 76.9595 69.4264 76.9472 69.2693 76.9595C67.2584 76.9763 66.1689 76.9967 65.7173 74.5915C65.6974 74.4863 65.7678 73.6834 65.7173 73.4076C65.6678 73.1372 65.7508 73.5761 65.7173 73.4076C65.4903 72.2702 64.5935 72.2485 64.5333 73.4076C64.5246 73.5781 64.542 73.113 64.5333 73.4076C64.5222 73.7995 64.5532 74.3919 64.5333 74.5915C64.4834 75.0922 64.7933 75.3114 64.5333 75.7755C64.0764 76.5861 62.3404 76.9867 60.9813 76.9595C59.7343 76.9353 59.7397 78.0269 60.9813 78.1435C62.5955 78.2958 63.1636 78.9657 63.3493 79.3275C63.9168 80.4569 64.4509 81.6043 64.5333 82.8795C64.6129 84.0979 65.613 84.0954 65.7173 82.8795C65.9589 80.0508 67.3869 78.314 69.2693 78.1435C69.4167 78.141 69.1146 78.1539 69.2693 78.1435ZM69.2693 76.9595C69.1359 76.9684 69.393 76.958 69.2693 76.9595C69.1548 76.915 69.4158 76.9575 69.2693 76.9595ZM69.2693 78.1435C69.1461 78.1435 69.3852 78.1341 69.2693 78.1435C69.165 78.192 69.4046 78.1326 69.2693 78.1435ZM64.5333 78.1435C64.9349 77.8544 64.2603 77.3777 64.5333 76.9595C64.8258 77.4933 65.2643 77.8222 65.7173 78.1435C65.3123 78.5142 64.8238 78.809 64.5333 79.3275C64.4397 79.1076 64.641 78.357 64.5333 78.1435C64.8719 78.3941 64.3505 77.7867 64.5333 78.1435Z" fill="#EAF3F3"/>
<path d="M110.554 46.0662C110.554 45.4964 110.024 44.8822 109.37 44.8822C108.716 44.8822 108.186 45.4964 108.186 46.0662C108.186 46.6361 108.716 47.2502 109.37 47.2502C110.024 47.2502 110.554 46.6361 110.554 46.0662Z" fill="#90BFFF"/>
<path d="M74.2816 70.9301C74.2816 70.36 73.7511 69.7461 73.0976 69.7461C72.4434 69.7461 71.9136 70.36 71.9136 70.9301C71.9136 71.5002 72.4434 72.1141 73.0976 72.1141C73.7511 72.1141 74.2816 71.5002 74.2816 70.9301Z" fill="#90BFFF"/>
<path d="M70.7308 33.0424C70.7308 32.4713 70.2003 31.8584 69.5468 31.8584C68.8926 31.8584 68.3628 32.4713 68.3628 33.0424C68.3628 33.6135 68.8926 34.2264 69.5468 34.2264C70.2003 34.2264 70.7308 33.6135 70.7308 33.0424Z" fill="#EAF3F3"/>
<path d="M77.8333 42.5143C77.8333 41.9444 77.3029 41.3303 76.6493 41.3303C75.9952 41.3303 75.4653 41.9444 75.4653 42.5143C75.4653 43.0842 75.9952 43.6983 76.6493 43.6983C77.3029 43.6983 77.8333 43.0842 77.8333 42.5143Z" fill="#4E6AF0"/>
<path d="M125.819 1.18399C125.819 0.614128 125.29 0 124.635 0C123.981 0 123.451 0.614128 123.451 1.18399C123.451 1.75386 123.981 2.36798 124.635 2.36798C125.29 2.36798 125.819 1.75386 125.819 1.18399Z" fill="#FCD400"/>
<path d="M58.6143 89.9833C58.6143 89.412 58.0839 88.7993 57.4303 88.7993C56.7762 88.7993 56.2463 89.412 56.2463 89.9833C56.2463 90.5546 56.7762 91.1673 57.4303 91.1673C58.0839 91.1673 58.6143 90.5546 58.6143 89.9833Z" fill="#FCD400"/>
<path d="M94.1348 31.9677C94.1348 31.358 93.605 30.7837 92.9508 30.7837C92.2973 30.7837 91.7668 31.358 91.7668 31.9677C91.7668 32.5774 92.2973 33.1517 92.9508 33.1517C93.605 33.1517 94.1348 32.5774 94.1348 31.9677Z" fill="#EAF3F3"/>
<path d="M101.238 7.10404C101.238 6.49574 100.708 5.92004 100.054 5.92004C99.4005 5.92004 98.8701 6.49574 98.8701 7.10404C98.8701 7.71233 99.4005 8.28803 100.054 8.28803C100.708 8.28803 101.238 7.71233 101.238 7.10404Z" fill="#4E6AF0"/>
<path d="M165.173 16.5758C165.173 16.0398 164.643 15.3918 163.989 15.3918C163.335 15.3918 162.805 16.0398 162.805 16.5758C162.805 17.1118 163.335 17.7598 163.989 17.7598C164.643 17.7598 165.173 17.1118 165.173 16.5758Z" fill="#EAF3F3"/>
<path d="M130.68 33.0424C130.68 32.4713 130.151 31.8584 129.496 31.8584C128.843 31.8584 128.312 32.4713 128.312 33.0424C128.312 33.6135 128.843 34.2264 129.496 34.2264C130.151 34.2264 130.68 33.6135 130.68 33.0424Z" fill="#FCD400"/>
<path d="M175.598 108.042C175.598 107.472 175.068 106.858 174.414 106.858C173.76 106.858 173.23 107.472 173.23 108.042C173.23 108.612 173.76 109.226 174.414 109.226C175.068 109.226 175.598 108.612 175.598 108.042Z" fill="#FCD400"/>
<path d="M74.0059 52.0956C74.0059 51.5063 73.4761 50.9116 72.8219 50.9116C72.1684 50.9116 71.6379 51.5063 71.6379 52.0956C71.6379 52.6849 72.1684 53.2796 72.8219 53.2796C73.4761 53.2796 74.0059 52.6849 74.0059 52.0956Z" fill="#90BFFF"/>
<path d="M110.554 82.821C110.554 82.2316 110.024 81.637 109.37 81.637C108.716 81.637 108.186 82.2316 108.186 82.821C108.186 83.4097 108.716 84.0049 109.37 84.0049C110.024 84.0049 110.554 83.4097 110.554 82.821Z" fill="#4E6AF0"/>
<path d="M83.4771 84.0634C83.4771 83.4727 82.9467 82.8794 82.2931 82.8794C81.639 82.8794 81.1091 83.4727 81.1091 84.0634C81.1091 84.654 81.639 85.2474 82.2931 85.2474C82.9467 85.2474 83.4771 84.654 83.4771 84.0634Z" fill="#4E6AF0"/>
<path d="M180.566 65.1195C180.566 64.5302 180.037 63.9355 179.382 63.9355C178.728 63.9355 178.198 64.5302 178.198 65.1195C178.198 65.7083 178.728 66.3035 179.382 66.3035C180.037 66.3035 180.566 65.7083 180.566 65.1195Z" fill="#EAF3F3"/>
<path d="M62.1673 106.559C62.1673 105.97 61.6369 105.375 60.9833 105.375C60.3292 105.375 59.7993 105.97 59.7993 106.559C59.7993 107.148 60.3292 107.743 60.9833 107.743C61.6369 107.743 62.1673 107.148 62.1673 106.559Z" fill="#EAF3F3"/>
<path d="M63.3455 41.8639H62.3939C61.8684 41.8639 61.4424 42.2913 61.4424 42.8185V49.5011C61.4424 50.0284 61.8684 50.4558 62.3939 50.4558H63.3455C63.871 50.4558 64.297 50.0284 64.297 49.5011V42.8185C64.297 42.2913 63.871 41.8639 63.3455 41.8639Z" fill="#CB9EFF"/>
<path d="M67.3411 38.4271H66.3895C65.864 38.4271 65.438 38.8545 65.438 39.3818V46.0644C65.438 46.5916 65.864 47.019 66.3895 47.019H67.3411C67.8666 47.019 68.2926 46.5916 68.2926 46.0644V39.3818C68.2926 38.8545 67.8666 38.4271 67.3411 38.4271Z" fill="#45278D"/>
<path fill-rule="evenodd" clip-rule="evenodd" d="M56.6855 50.6204L86.4691 34.5132V123.678H56.6855V50.6204Z" fill="#9059FF"/>
<path d="M104.834 34.5132H86.4695V123.678H104.834V34.5132Z" fill="#7542E5"/>
<path fill-rule="evenodd" clip-rule="evenodd" d="M149.336 40.4866H176.549V123.451L153.982 123.451L133.407 123.451H111.504L104.867 123.451L104.867 84.9556H111.504V74.3362H133.407V84.9556H149.336V40.4866Z" fill="#F6B8FF"/>
<rect x="160.619" y="51.106" width="5.30973" height="5.30973" fill="#7542E5"/>
<rect x="160.619" y="60.3981" width="5.30973" height="5.30973" fill="#7542E5"/>
<rect x="160.619" y="69.6901" width="5.30973" height="5.30973" fill="#7542E5"/>
<rect x="130.088" y="101.548" width="4.64601" height="4.64601" fill="#7542E5"/>
<rect x="140.044" y="101.548" width="4.64601" height="4.64601" fill="#7542E5"/>
<rect x="151.327" y="101.548" width="4.64601" height="4.64601" fill="#7542E5"/>
<rect x="161.283" y="101.548" width="4.64601" height="4.64601" fill="#7542E5"/>
<rect x="114.823" y="102.876" width="11.2832" height="20.5752" fill="#7542E5"/>
<path fill-rule="evenodd" clip-rule="evenodd" d="M71.0531 112.126H72.195C73.7716 112.126 75.0497 113.409 75.0497 114.99V123.678H68.1985V114.99C68.1985 113.409 69.4766 112.126 71.0531 112.126Z" fill="#CB9EFF"/>
<path d="M63.3663 57.0353H61.0825C59.8213 57.0353 58.7988 58.0611 58.7988 59.3264V62.7632C58.7988 64.0286 59.8213 65.0544 61.0825 65.0544H63.3663C64.6275 65.0544 65.65 64.0286 65.65 62.7632V59.3264C65.65 58.0611 64.6275 57.0353 63.3663 57.0353Z" fill="#CB9EFF"/>
<path d="M63.5352 84.537H61.2515C59.9902 84.537 58.9678 85.5628 58.9678 86.8282V90.2649C58.9678 91.5303 59.9902 92.5561 61.2515 92.5561H63.5352C64.7965 92.5561 65.8189 91.5303 65.8189 90.2649V86.8282C65.8189 85.5628 64.7965 84.537 63.5352 84.537Z" fill="#F68FFF"/>
<path d="M63.5352 70.7899H61.2515C59.9902 70.7899 58.9678 71.8157 58.9678 73.0811V76.5178C58.9678 77.7832 59.9902 78.809 61.2515 78.809H63.5352C64.7965 78.809 65.8189 77.7832 65.8189 76.5178V73.0811C65.8189 71.8157 64.7965 70.7899 63.5352 70.7899Z" fill="#CB9EFF"/>
<path d="M72.7659 56.9476H70.4822C69.2209 56.9476 68.1985 57.9734 68.1985 59.2388V62.6756C68.1985 63.9409 69.2209 64.9667 70.4822 64.9667H72.7659C74.0272 64.9667 75.0497 63.9409 75.0497 62.6756V59.2388C75.0497 57.9734 74.0272 56.9476 72.7659 56.9476Z" fill="#CB9EFF"/>
<path d="M72.7659 84.537H70.4822C69.2209 84.537 68.1985 85.5628 68.1985 86.8282V90.2649C68.1985 91.5303 69.2209 92.5561 70.4822 92.5561H72.7659C74.0272 92.5561 75.0497 91.5303 75.0497 90.2649V86.8282C75.0497 85.5628 74.0272 84.537 72.7659 84.537Z" fill="#CB9EFF"/>
<path d="M72.7659 70.7899H70.4822C69.2209 70.7899 68.1985 71.8157 68.1985 73.0811V76.5178C68.1985 77.7832 69.2209 78.809 70.4822 78.809H72.7659C74.0272 78.809 75.0497 77.7832 75.0497 76.5178V73.0811C75.0497 71.8157 74.0272 70.7899 72.7659 70.7899Z" fill="#CB9EFF"/>
<path d="M81.9 56.9476H79.6162C78.355 56.9476 77.3325 57.9734 77.3325 59.2388V62.6756C77.3325 63.9409 78.355 64.9667 79.6162 64.9667H81.9C83.1612 64.9667 84.1837 63.9409 84.1837 62.6756V59.2388C84.1837 57.9734 83.1612 56.9476 81.9 56.9476Z" fill="#F68FFF"/>
<path d="M81.9 84.537H79.6162C78.355 84.537 77.3325 85.5628 77.3325 86.8282V90.2649C77.3325 91.5303 78.355 92.5561 79.6162 92.5561H81.9C83.1612 92.5561 84.1837 91.5303 84.1837 90.2649V86.8282C84.1837 85.5628 83.1612 84.537 81.9 84.537Z" fill="#CB9EFF"/>
<path d="M81.9 70.7899H79.6162C78.355 70.7899 77.3325 71.8157 77.3325 73.0811V76.5178C77.3325 77.7832 78.355 78.809 79.6162 78.809H81.9C83.1612 78.809 84.1837 77.7832 84.1837 76.5178V73.0811C84.1837 71.8157 83.1612 70.7899 81.9 70.7899Z" fill="#CB9EFF"/>
<path d="M98.7443 56.9476H92.6543C91.1829 56.9476 89.99 58.1444 89.99 59.6207V62.2937C89.99 63.77 91.1829 64.9667 92.6543 64.9667H98.7443C100.216 64.9667 101.409 63.77 101.409 62.2937V59.6207C101.409 58.1444 100.216 56.9476 98.7443 56.9476Z" fill="#D9BFFF"/>
<path d="M98.7443 84.537H92.6543C91.1829 84.537 89.99 85.7337 89.99 87.21V89.883C89.99 91.3593 91.1829 92.5561 92.6543 92.5561H98.7443C100.216 92.5561 101.409 91.3593 101.409 89.883V87.21C101.409 85.7337 100.216 84.537 98.7443 84.537Z" fill="#D9BFFF"/>
<path d="M98.7443 40.3364H92.6543C91.1829 40.3364 89.99 41.5332 89.99 43.0095V48.5465C89.99 50.0227 91.1829 51.2195 92.6543 51.2195H98.7443C100.216 51.2195 101.409 50.0227 101.409 48.5465V43.0095C101.409 41.5332 100.216 40.3364 98.7443 40.3364Z" fill="#D9BFFF"/>
<path d="M98.7443 70.7899H92.6543C91.1829 70.7899 89.99 71.9867 89.99 73.4629V76.136C89.99 77.6123 91.1829 78.809 92.6543 78.809H98.7443C100.216 78.809 101.409 77.6123 101.409 76.136V73.4629C101.409 71.9867 100.216 70.7899 98.7443 70.7899Z" fill="#D9BFFF"/>
<path d="M63.5352 98.3794H61.2515C59.9902 98.3794 58.9678 99.4052 58.9678 100.671V104.107C58.9678 105.373 59.9902 106.398 61.2515 106.398H63.5352C64.7965 106.398 65.8189 105.373 65.8189 104.107V100.671C65.8189 99.4052 64.7965 98.3794 63.5352 98.3794Z" fill="#CB9EFF"/>
<path d="M63.5352 112.222H61.2515C59.9902 112.222 58.9678 113.248 58.9678 114.513V117.95C58.9678 119.215 59.9902 120.241 61.2515 120.241H63.5352C64.7965 120.241 65.8189 119.215 65.8189 117.95V114.513C65.8189 113.248 64.7965 112.222 63.5352 112.222Z" fill="#CB9EFF"/>
<path d="M72.7659 98.3794H70.4822C69.2209 98.3794 68.1985 99.4052 68.1985 100.671V104.107C68.1985 105.373 69.2209 106.398 70.4822 106.398H72.7659C74.0272 106.398 75.0497 105.373 75.0497 104.107V100.671C75.0497 99.4052 74.0272 98.3794 72.7659 98.3794Z" fill="#CB9EFF"/>
<path d="M81.9 98.3794H79.6162C78.355 98.3794 77.3325 99.4052 77.3325 100.671V104.107C77.3325 105.373 78.355 106.398 79.6162 106.398H81.9C83.1612 106.398 84.1837 105.373 84.1837 104.107V100.671C84.1837 99.4052 83.1612 98.3794 81.9 98.3794Z" fill="#CB9EFF"/>
<path d="M81.9 112.222H79.6162C78.355 112.222 77.3325 113.248 77.3325 114.513V117.95C77.3325 119.215 78.355 120.241 79.6162 120.241H81.9C83.1612 120.241 84.1837 119.215 84.1837 117.95V114.513C84.1837 113.248 83.1612 112.222 81.9 112.222Z" fill="#CB9EFF"/>
<path d="M98.7443 98.3794H92.6543C91.1829 98.3794 89.99 99.5762 89.99 101.052V103.725C89.99 105.202 91.1829 106.398 92.6543 106.398H98.7443C100.216 106.398 101.409 105.202 101.409 103.725V101.052C101.409 99.5762 100.216 98.3794 98.7443 98.3794Z" fill="#D9BFFF"/>
<path d="M98.7443 112.222H92.6543C91.1829 112.222 89.99 113.419 89.99 114.895V117.568C89.99 119.044 91.1829 120.241 92.6543 120.241H98.7443C100.216 120.241 101.409 119.044 101.409 117.568V114.895C101.409 113.419 100.216 112.222 98.7443 112.222Z" fill="#D9BFFF"/>
<path fill-rule="evenodd" clip-rule="evenodd" d="M74.8516 17.7496C75.4341 16.8536 76.3097 15.3236 75.64 14.523C75.2443 14.0499 74.5432 14.1854 74.0631 14.523C73.5829 14.8607 72.8058 15.5843 72.4861 16.1363C72.9991 14.8609 74.0266 12.7163 74.0631 11.2964C74.0995 9.87657 72.8008 8.52795 71.6976 8.06981C70.554 7.59474 69.5307 8.83383 68.5437 9.68312C66.4364 11.4961 64.6616 13.7072 63.0243 16.1363C63.1277 15.3739 63.1449 14.4752 63.0243 13.7164C62.9037 12.9575 62.839 12.3412 62.2358 12.1031C61.6377 11.8668 60.4318 11.7582 59.8703 12.1031C57.9379 13.2895 56.3371 15.5531 55.1394 17.7496C54.9618 17.7496 55.3171 17.7496 55.1394 17.7496H74.8516Z" fill="#F6B8FF"/>
<path fill-rule="evenodd" clip-rule="evenodd" d="M225 82.9917V83.6982H195.786V83.5512C195.786 82.4805 196.239 81.5101 196.971 80.8086C197.704 80.1064 198.715 79.6724 199.833 79.6724C201.025 79.6724 202.097 80.1677 202.838 80.9543V79.9153C202.838 78.2708 203.533 76.782 204.657 75.7042C205.781 74.6263 207.334 73.9602 209.049 73.9602C211.881 73.9602 214.269 75.7771 215.017 78.26C216.063 77.4929 217.369 77.0358 218.787 77.0358C222.218 77.0358 225 79.7027 225 82.9917Z" fill="#D9BFFF"/>
<path fill-rule="evenodd" clip-rule="evenodd" d="M35.877 43.3412V44.2337H0V44.0479C0 42.6955 0.555965 41.4697 1.45563 40.5836C2.35512 39.6966 3.59729 39.1483 4.96969 39.1483C6.43448 39.1483 7.75045 39.7741 8.66005 40.7676V39.4552C8.66005 37.378 9.51442 35.4974 10.8942 34.136C12.2749 32.7744 14.1819 31.933 16.2886 31.933C19.7657 31.933 22.698 34.228 23.617 37.3643C24.9016 36.3953 26.5058 35.818 28.2476 35.818C32.4608 35.818 35.877 39.1867 35.877 43.3412Z" fill="#D9BFFF"/>
<path fill-rule="evenodd" clip-rule="evenodd" d="M177.094 29.188C176.41 28.1561 175.382 26.3944 176.168 25.4725C176.633 24.9276 177.456 25.0836 178.02 25.4725C178.583 25.8613 179.496 26.6946 179.871 27.3302C179.269 25.8615 178.062 23.3919 178.02 21.757C177.977 20.122 179.502 18.569 180.797 18.0414C182.14 17.4944 183.341 18.9212 184.5 19.8992C186.975 21.9869 189.059 24.533 190.981 27.3302C190.86 26.4523 190.84 25.4173 190.981 24.5436C191.123 23.6697 191.199 22.9601 191.907 22.6858C192.609 22.4138 194.025 22.2887 194.684 22.6858C196.953 24.052 198.833 26.6586 200.239 29.188C200.448 29.188 200.031 29.188 200.239 29.188H177.094Z" fill="#F770FF"/>
</svg>
