<svg width="592" height="296" viewBox="0 0 592 296" fill="none" xmlns="http://www.w3.org/2000/svg">
<g clip-path="url(#clip0_242_370)">
<path d="M592 0H0V296H592V0Z" fill="url(#paint0_radial_242_370)"/>
<path fill-rule="evenodd" clip-rule="evenodd" d="M113.5 94.8892C107.765 94.8892 103.116 99.5348 103.116 105.265C103.116 110.996 107.765 115.642 113.5 115.642C119.235 115.642 123.885 110.996 123.885 105.265C123.885 99.5348 119.235 94.8892 113.5 94.8892ZM89.2694 105.265C89.2694 91.8939 100.118 81.0542 113.5 81.0542C126.883 81.0542 137.731 91.8939 137.731 105.265C137.731 118.637 126.883 129.477 113.5 129.477C109.327 129.477 105.401 128.423 101.972 126.567L91.5489 136.982C92.3356 138.432 92.9784 139.972 93.458 141.582H133.542C136.521 131.582 145.793 124.289 156.769 124.289C170.151 124.289 181 135.129 181 148.5C181 161.872 170.151 172.712 156.769 172.712C152.596 172.712 148.67 171.658 145.241 169.801L134.819 180.216C136.676 183.641 137.731 187.565 137.731 191.734C137.731 205.106 126.883 215.946 113.5 215.946C100.118 215.946 89.2694 205.106 89.2694 191.734C89.2694 178.363 100.118 167.523 113.5 167.523C117.673 167.523 121.599 168.577 125.028 170.433L135.451 160.018C134.664 158.568 134.021 157.028 133.541 155.417H93.4582C90.4795 165.419 81.2075 172.712 70.2307 172.712C56.8485 172.712 46 161.872 46 148.5C46 135.129 56.8485 124.289 70.2307 124.289C74.4036 124.289 78.3301 125.343 81.7581 127.199L92.1817 116.784C90.3242 113.358 89.2694 109.435 89.2694 105.265ZM103.116 191.734C103.116 186.004 107.765 181.358 113.5 181.358C119.235 181.358 123.885 186.004 123.885 191.734C123.885 197.465 119.235 202.111 113.5 202.111C107.765 202.111 103.116 197.465 103.116 191.734ZM70.2307 138.124C64.4955 138.124 59.8461 142.77 59.8461 148.5C59.8461 154.231 64.4955 158.877 70.2307 158.877C75.966 158.877 80.6154 154.231 80.6154 148.5C80.6154 142.77 75.966 138.124 70.2307 138.124ZM146.385 148.5C146.385 142.77 151.034 138.124 156.769 138.124C162.504 138.124 167.154 142.77 167.154 148.5C167.154 154.231 162.504 158.877 156.769 158.877C151.034 158.877 146.385 154.231 146.385 148.5Z" fill="white"/>
<path d="M485.585 81.2207C487.541 81.2207 489.467 81.716 491.186 82.6611L540.136 110.576C541.947 111.543 543.455 113.003 544.49 114.791C545.526 116.578 546.047 118.622 545.997 120.694V176.349C545.991 178.41 545.445 180.432 544.416 182.209C543.386 183.987 541.91 185.457 540.136 186.468L491.186 214.208C489.461 215.232 487.498 215.774 485.499 215.779C483.496 215.797 481.527 215.254 479.811 214.208L430.861 186.468C429.073 185.474 427.584 184.007 426.552 182.227C425.521 180.445 424.984 178.414 425 176.349V120.694C425.006 118.633 425.552 116.612 426.581 114.835C427.611 113.057 429.087 111.587 430.861 110.576L479.983 82.6611C481.702 81.7159 483.628 81.2207 485.585 81.2207ZM483.884 93C483.155 93.0025 482.435 93.1527 481.765 93.4414C481.094 93.7302 480.489 94.1513 479.983 94.6807C479.478 95.2101 479.083 95.8372 478.822 96.5234C478.561 97.2095 478.44 97.9415 478.465 98.6758V141.142C477.836 141.343 477.253 141.671 476.752 142.104C476.25 142.538 475.84 143.068 475.547 143.665C475.155 144.404 474.933 145.222 474.897 146.059C474.861 146.895 475.012 147.73 475.338 148.5C475.012 149.27 474.861 150.105 474.897 150.942C474.933 151.778 475.155 152.597 475.547 153.335C475.84 153.932 476.25 154.463 476.752 154.896C477.253 155.329 477.836 155.657 478.465 155.858V198.324C478.465 199.829 479.058 201.273 480.113 202.338C481.168 203.402 482.6 204 484.092 204C485.585 204 487.016 203.402 488.072 202.338C489.127 201.273 489.72 199.829 489.72 198.324V155.648C490.35 155.446 490.932 155.119 491.434 154.687C491.935 154.253 492.345 153.722 492.638 153.125C493.03 152.386 493.252 151.568 493.288 150.731C493.324 149.894 493.173 149.06 492.847 148.29C493.329 146.691 493.18 144.966 492.43 143.476C492.136 142.879 491.727 142.348 491.225 141.915C490.724 141.481 490.141 141.154 489.512 140.953V98.6758C489.515 97.9298 489.371 97.1907 489.089 96.501C488.807 95.8112 488.393 95.1839 487.87 94.6562C487.348 94.1287 486.725 93.7111 486.041 93.4268C485.357 93.1426 484.624 92.9972 483.884 93ZM445.616 165.667C444.912 165.45 444.17 165.381 443.439 165.466C442.707 165.551 442.001 165.787 441.365 166.159L437.821 168.261C437.186 168.616 436.629 169.094 436.18 169.668C435.731 170.242 435.4 170.9 435.206 171.605C435.012 172.309 434.959 173.047 435.05 173.771C435.141 174.496 435.374 175.196 435.736 175.829C436.202 176.707 436.892 177.443 437.735 177.961C438.578 178.479 439.543 178.759 440.53 178.773C441.468 178.765 442.394 178.549 443.241 178.142L446.784 176.04C447.417 175.685 447.975 175.207 448.424 174.633C448.873 174.059 449.204 173.401 449.398 172.696C449.592 171.992 449.645 171.256 449.554 170.53C449.463 169.805 449.23 169.105 448.868 168.472C448.547 167.804 448.091 167.21 447.532 166.727C446.972 166.245 446.319 165.884 445.616 165.667ZM526.613 166.159C525.342 165.443 523.841 165.263 522.44 165.66C521.038 166.056 519.849 166.996 519.132 168.275C518.416 169.553 518.232 171.066 518.618 172.481C519.004 173.897 519.93 175.101 521.194 175.829L524.737 177.932C525.584 178.339 526.51 178.554 527.448 178.563C528.433 178.549 529.4 178.268 530.243 177.751C531.085 177.233 531.776 176.497 532.241 175.619C532.614 175.006 532.856 174.321 532.953 173.608C533.049 172.896 532.998 172.17 532.802 171.479C532.606 170.787 532.27 170.143 531.814 169.589C531.359 169.036 530.794 168.583 530.157 168.261L526.613 166.159ZM467.292 153.263C466.588 153.046 465.847 152.979 465.117 153.063C464.385 153.147 463.678 153.383 463.041 153.756L455.746 157.96C455.112 158.315 454.554 158.793 454.105 159.367C453.656 159.941 453.325 160.599 453.131 161.304C452.937 162.008 452.884 162.744 452.975 163.47C453.066 164.195 453.299 164.895 453.661 165.528C454.127 166.406 454.818 167.142 455.661 167.66C456.503 168.178 457.469 168.458 458.455 168.472C459.393 168.464 460.318 168.248 461.165 167.841L468.46 163.636C469.094 163.282 469.652 162.804 470.101 162.23C470.55 161.656 470.882 160.997 471.076 160.293C471.27 159.588 471.322 158.852 471.231 158.127C471.14 157.401 470.906 156.702 470.544 156.068C470.223 155.4 469.768 154.807 469.208 154.324C468.648 153.841 467.996 153.48 467.292 153.263ZM502.683 153.067C501.963 152.976 501.233 153.028 500.535 153.223C499.835 153.417 499.18 153.748 498.608 154.198C498.036 154.648 497.557 155.208 497.201 155.845C496.845 156.482 496.615 157.183 496.528 157.91C496.44 158.636 496.496 159.373 496.692 160.077C496.888 160.782 497.22 161.44 497.669 162.015C498.118 162.59 498.675 163.069 499.308 163.426L506.603 167.631C507.45 168.038 508.375 168.253 509.313 168.261C510.3 168.248 511.265 167.967 512.108 167.45C512.951 166.932 513.641 166.196 514.107 165.318C514.486 164.707 514.734 164.022 514.834 163.307C514.934 162.593 514.884 161.865 514.688 161.172C514.491 160.478 514.153 159.834 513.693 159.28C513.234 158.727 512.665 158.277 512.023 157.96L504.727 153.756C504.098 153.393 503.403 153.159 502.683 153.067ZM510.875 128.456C510.171 128.239 509.43 128.171 508.7 128.256C507.968 128.341 507.261 128.577 506.624 128.949L499.329 133.154C498.696 133.508 498.137 133.986 497.688 134.56C497.239 135.134 496.908 135.793 496.714 136.497C496.52 137.201 496.467 137.938 496.558 138.663C496.649 139.388 496.884 140.088 497.245 140.722C497.71 141.599 498.401 142.337 499.244 142.854C500.086 143.371 501.053 143.651 502.039 143.665C502.977 143.657 503.902 143.441 504.748 143.034L512.043 138.83C512.677 138.475 513.235 137.997 513.684 137.423C514.133 136.849 514.465 136.19 514.659 135.486C514.853 134.782 514.905 134.045 514.814 133.32C514.723 132.595 514.49 131.895 514.128 131.261C513.806 130.593 513.351 130 512.791 129.517C512.232 129.034 511.579 128.674 510.875 128.456ZM459.124 128.046C458.405 127.954 457.675 128.008 456.976 128.204C456.278 128.399 455.625 128.734 455.056 129.187C454.487 129.639 454.013 130.202 453.661 130.841C452.963 132.162 452.79 133.701 453.177 135.146C453.564 136.591 454.484 137.833 455.746 138.619L463.041 142.824C463.887 143.231 464.812 143.447 465.75 143.455C466.737 143.441 467.702 143.161 468.546 142.643C469.389 142.125 470.079 141.389 470.544 140.511C470.906 139.878 471.14 139.178 471.231 138.453C471.322 137.728 471.27 136.991 471.076 136.287C470.882 135.582 470.55 134.924 470.101 134.35C469.652 133.776 469.094 133.298 468.46 132.943L461.165 128.739C460.537 128.374 459.843 128.138 459.124 128.046ZM441.196 117.959C440.476 117.868 439.745 117.921 439.046 118.115C438.346 118.309 437.692 118.64 437.12 119.09C436.548 119.54 436.07 120.1 435.713 120.737C435.356 121.374 435.127 122.076 435.04 122.802C434.953 123.528 435.009 124.265 435.204 124.969C435.4 125.674 435.732 126.332 436.181 126.907C436.63 127.482 437.187 127.961 437.821 128.318L441.365 130.42C442.211 130.828 443.136 131.043 444.074 131.051C445.06 131.037 446.027 130.757 446.869 130.239C447.712 129.722 448.403 128.986 448.868 128.108C449.223 127.49 449.45 126.806 449.537 126.097C449.624 125.389 449.568 124.669 449.374 123.983C449.179 123.296 448.849 122.656 448.404 122.101C447.959 121.545 447.408 121.086 446.784 120.75L443.241 118.648C442.611 118.285 441.915 118.051 441.196 117.959ZM528.931 118.115C528.231 117.921 527.501 117.868 526.782 117.959C526.062 118.051 525.367 118.285 524.737 118.648L521.194 120.75C520.559 121.104 520.002 121.583 519.553 122.157C519.104 122.731 518.773 123.389 518.579 124.094C518.385 124.798 518.332 125.534 518.423 126.26C518.514 126.985 518.747 127.685 519.109 128.318C519.586 129.17 520.285 129.875 521.13 130.357C521.974 130.838 522.933 131.078 523.903 131.051C524.841 131.043 525.766 130.828 526.613 130.42L530.157 128.318C530.789 127.961 531.346 127.482 531.796 126.907C532.244 126.332 532.576 125.674 532.772 124.969C532.968 124.265 533.024 123.528 532.937 122.802C532.849 122.076 532.621 121.374 532.264 120.737C531.907 120.1 531.429 119.54 530.857 119.09C530.285 118.64 529.63 118.309 528.931 118.115Z" fill="white"/>
<path d="M349.056 108.616L335.782 101.013L305.478 83.6625L304.536 83.1205C299.568 80.2932 293.477 80.2932 288.51 83.1205L287.567 83.6673L244.956 108.074L244.013 108.621C239.071 111.451 236.016 116.704 236 122.399V173.376C236.017 179.072 239.072 184.326 244.013 187.159L287.581 212.108C290.774 213.941 294.847 212.86 296.711 209.685C297.598 208.162 297.838 206.347 297.379 204.645C296.919 202.943 295.798 201.496 294.265 200.626L251.654 176.223C250.238 175.416 249.362 173.913 249.358 172.283V123.492C249.362 121.862 250.238 120.359 251.654 119.552L259.196 115.229L294.217 95.1307C295.635 94.3245 297.372 94.3245 298.79 95.1307L341.415 119.542C342.824 120.353 343.695 121.853 343.701 123.478V172.302C343.697 173.931 342.821 175.435 341.405 176.242L326.987 184.5L319.709 173.527C327.046 167.028 331.248 157.697 331.252 147.895C331.252 128.885 315.665 113.419 296.499 113.419C277.334 113.419 261.746 128.885 261.746 147.895C261.746 166.905 277.334 182.37 296.499 182.37C300.497 182.373 304.466 181.687 308.231 180.343L319.284 197.01C319.457 197.265 319.644 197.508 319.845 197.741L319.963 197.859C320.197 198.11 320.45 198.342 320.722 198.552C320.788 198.604 320.849 198.66 320.92 198.712C321.219 198.927 321.534 199.12 321.863 199.287L322.089 199.386C322.383 199.517 322.685 199.63 322.994 199.72L323.202 199.787C323.552 199.875 323.91 199.934 324.271 199.961H324.568C324.672 199.961 324.771 199.961 324.875 199.961C325.077 199.961 325.28 199.937 325.478 199.919C325.572 199.919 325.662 199.919 325.756 199.919C326.137 199.866 326.512 199.781 326.878 199.664C326.977 199.636 327.071 199.593 327.17 199.555C327.461 199.45 327.745 199.324 328.019 199.178C328.08 199.146 328.151 199.127 328.212 199.089L349.056 187.178C354.002 184.341 357.058 179.079 357.069 173.376V122.394C357.053 116.699 353.998 111.446 349.056 108.616ZM275.109 147.895C275.036 139.227 280.201 131.373 288.189 128.005C296.175 124.638 305.405 126.423 311.56 132.527C317.714 138.63 319.577 147.844 316.277 155.859C312.977 163.874 305.167 169.106 296.499 169.106C284.741 169.14 275.174 159.652 275.109 147.895Z" fill="white"/>
</g>
<defs>
<radialGradient id="paint0_radial_242_370" cx="0" cy="0" r="1" gradientUnits="userSpaceOnUse" gradientTransform="translate(592 -5.29288e-06) rotate(-26.5651) scale(661.876 529.501)">
<stop stop-color="#B833E1"/>
<stop offset="0.371" stop-color="#9059FF"/>
<stop offset="0.614" stop-color="#5B6DF8"/>
<stop offset="1" stop-color="#0090ED"/>
</radialGradient>
<clipPath id="clip0_242_370">
<rect width="592" height="296" fill="white"/>
</clipPath>
</defs>
</svg>
