<svg width="64" height="64" viewBox="0 0 64 64" fill="none" xmlns="http://www.w3.org/2000/svg">
<g clip-path="url(#clip0_242_358)">
<path d="M64 0H0V64H64V0Z" fill="url(#paint0_radial_242_358)"/>
<path fill-rule="evenodd" clip-rule="evenodd" d="M16.5 35.5641C15.438 35.5641 14.577 36.4251 14.577 37.4872C14.577 38.5493 15.438 39.4103 16.5 39.4103C17.5621 39.4103 18.4231 38.5493 18.4231 37.4872C18.4231 36.4251 17.5621 35.5641 16.5 35.5641ZM12.0129 37.4872C12.0129 35.009 14.0219 33 16.5 33C18.9782 33 20.9872 35.009 20.9872 37.4872C20.9872 39.9654 18.9782 41.9744 16.5 41.9744C15.7272 41.9744 15.0001 41.779 14.3653 41.435L12.435 43.3653C12.5807 43.6341 12.6997 43.9195 12.7885 44.2179H20.2115C20.7631 42.3644 22.4801 41.0129 24.5128 41.0129C26.991 41.0129 29 43.0219 29 45.5C29 47.9782 26.991 49.9872 24.5128 49.9872C23.74 49.9872 23.0129 49.7919 22.378 49.4479L20.4479 51.378C20.7919 52.0129 20.9872 52.74 20.9872 53.5128C20.9872 55.991 18.9782 58 16.5 58C14.0219 58 12.0129 55.991 12.0129 53.5128C12.0129 51.0346 14.0219 49.0256 16.5 49.0256C17.2728 49.0256 17.9999 49.221 18.6347 49.565L20.565 47.6347C20.4192 47.3659 20.3002 47.0805 20.2114 46.782H12.7886C12.2369 48.6356 10.5199 49.9872 8.48717 49.9872C6.00897 49.9872 4 47.9782 4 45.5C4 43.0219 6.00897 41.0129 8.48717 41.0129C9.25992 41.0129 9.98705 41.2082 10.6219 41.5522L12.5522 39.6219C12.2082 38.9871 12.0129 38.2599 12.0129 37.4872ZM14.577 53.5128C14.577 52.4508 15.438 51.5897 16.5 51.5897C17.5621 51.5897 18.4231 52.4508 18.4231 53.5128C18.4231 54.5749 17.5621 55.4359 16.5 55.4359C15.438 55.4359 14.577 54.5749 14.577 53.5128ZM8.48717 43.577C7.42509 43.577 6.5641 44.438 6.5641 45.5C6.5641 46.5621 7.42509 47.4231 8.48717 47.4231C9.54926 47.4231 10.4103 46.5621 10.4103 45.5C10.4103 44.438 9.54926 43.577 8.48717 43.577ZM22.5897 45.5C22.5897 44.438 23.4508 43.577 24.5128 43.577C25.5749 43.577 26.4359 44.438 26.4359 45.5C26.4359 46.5621 25.5749 47.4231 24.5128 47.4231C23.4508 47.4231 22.5897 46.5621 22.5897 45.5Z" fill="white"/>
<path d="M47.5167 33C47.8883 33 48.2545 33.0939 48.5811 33.2734L57.8858 38.5801C58.23 38.7639 58.5172 39.0411 58.7139 39.3809C58.9109 39.7205 59.0096 40.11 59.0001 40.5039V51.083C58.9989 51.4746 58.8948 51.8586 58.6993 52.1963C58.5035 52.5343 58.223 52.8137 57.8858 53.0059L48.5811 58.2793C48.2533 58.4739 47.88 58.5772 47.5001 58.5781C47.1194 58.5815 46.7451 58.4781 46.419 58.2793L37.1143 53.0059C36.7745 52.8169 36.4911 52.5387 36.295 52.2002C36.0991 51.8616 35.9971 51.4754 36.0001 51.083V40.5039C36.0012 40.1121 36.1052 39.7274 36.3008 39.3896C36.4966 39.0517 36.7771 38.7722 37.1143 38.5801L46.4512 33.2734C46.778 33.0938 47.1447 33 47.5167 33ZM47.1934 35.2393C47.0548 35.2397 46.9175 35.2684 46.7901 35.3232C46.6627 35.3781 46.5473 35.4581 46.4512 35.5586C46.3554 35.6591 46.2801 35.778 46.2305 35.9082C46.1809 36.0387 46.1584 36.1787 46.1631 36.3184V44.3896C46.0436 44.4278 45.9332 44.491 45.838 44.5732C45.7425 44.6557 45.6642 44.7566 45.6085 44.8701C45.5341 45.0105 45.4923 45.1662 45.4854 45.3252C45.4786 45.484 45.5065 45.6428 45.5684 45.7891C45.5066 45.9353 45.4786 46.094 45.4854 46.2529C45.4923 46.4118 45.5339 46.5677 45.6085 46.708C45.6642 46.8214 45.7426 46.9226 45.838 47.0049C45.9331 47.087 46.0438 47.1493 46.1631 47.1875V55.2598C46.1632 55.5458 46.2761 55.82 46.4766 56.0225C46.6771 56.2246 46.949 56.3388 47.2325 56.3389C47.5163 56.3389 47.7886 56.2247 47.9893 56.0225C48.1898 55.8201 48.3028 55.5458 48.3028 55.2598V47.1475C48.4223 47.1091 48.5327 47.047 48.628 46.9648C48.7232 46.8823 48.8018 46.7815 48.8575 46.668C48.932 46.5275 48.9737 46.372 48.9805 46.2129C48.9874 46.0538 48.9585 45.8954 48.8965 45.749C48.9882 45.4451 48.96 45.1172 48.8174 44.834C48.7616 44.7206 48.6843 44.6194 48.5889 44.5371C48.4937 44.4546 48.3823 44.3927 48.2628 44.3545V36.3184C48.2633 36.1765 48.2363 36.0354 48.1827 35.9043C48.1291 35.7732 48.0506 35.654 47.9512 35.5537C47.8519 35.4535 47.7334 35.3744 47.6036 35.3203C47.4736 35.2663 47.334 35.2387 47.1934 35.2393ZM39.5049 49.0137C39.3659 49.0298 39.2314 49.0748 39.1104 49.1455L38.4376 49.5449C38.3169 49.6124 38.2104 49.7034 38.1251 49.8125C38.0398 49.9215 37.9774 50.0467 37.9405 50.1807C37.9036 50.3145 37.8929 50.455 37.9102 50.5928C37.9275 50.7304 37.9724 50.8632 38.0411 50.9834C38.1296 51.1503 38.2607 51.2902 38.421 51.3887C38.5812 51.4871 38.7646 51.5403 38.9522 51.543C39.1304 51.5414 39.3059 51.5002 39.4669 51.4229L40.1407 51.0234C40.2612 50.956 40.3678 50.865 40.4532 50.7559C40.5383 50.6469 40.6009 50.5215 40.6378 50.3877C40.6745 50.254 40.6843 50.1144 40.6671 49.9766C40.6498 49.8387 40.606 49.7053 40.5372 49.585C40.4762 49.4582 40.3893 49.3456 40.2833 49.2539C40.1769 49.1623 40.0528 49.093 39.919 49.0518C39.7852 49.0105 39.6439 48.9975 39.5049 49.0137ZM55.3155 49.1455C55.074 49.0094 54.7888 48.9754 54.5225 49.0508C54.256 49.1261 54.0299 49.3047 53.8936 49.5479C53.7575 49.7908 53.7226 50.0785 53.796 50.3477C53.8694 50.6165 54.0452 50.8451 54.2852 50.9834L54.959 51.3838C55.1199 51.461 55.2956 51.5012 55.4737 51.5029C55.6611 51.5003 55.8447 51.4469 56.0049 51.3486C56.1652 51.2502 56.2964 51.1103 56.3848 50.9434C56.4559 50.8269 56.5021 50.697 56.5206 50.5615C56.5388 50.426 56.5295 50.2878 56.4923 50.1562C56.455 50.0248 56.3904 49.9031 56.3038 49.7979C56.2173 49.6928 56.1105 49.6061 55.9893 49.5449L55.3155 49.1455ZM43.626 46.6562C43.4869 46.6722 43.3526 46.7172 43.2315 46.7881L41.8448 47.5869C41.7243 47.6544 41.6176 47.7454 41.5323 47.8545C41.447 47.9635 41.3846 48.0887 41.3477 48.2227C41.3108 48.3565 41.3001 48.4968 41.3174 48.6348C41.3348 48.7724 41.3796 48.9052 41.4483 49.0254C41.5369 49.1923 41.668 49.3322 41.8282 49.4307C41.9884 49.5291 42.1718 49.5823 42.3594 49.585C42.5377 49.5834 42.7141 49.5422 42.8751 49.4648L44.2618 48.666C44.3822 48.5987 44.488 48.5075 44.5733 48.3984C44.6586 48.2894 44.722 48.164 44.7589 48.0303C44.7956 47.8965 44.8054 47.7567 44.7881 47.6191C44.7709 47.4812 44.7261 47.348 44.6573 47.2275C44.5963 47.1006 44.5098 46.9873 44.4034 46.8955C44.297 46.8038 44.1728 46.7356 44.0391 46.6943C43.9054 46.6531 43.7648 46.6402 43.626 46.6562ZM50.7667 46.6572C50.6299 46.6399 50.4913 46.6495 50.3585 46.6865C50.2254 46.7234 50.101 46.7865 49.9923 46.8721C49.8836 46.9575 49.7925 47.0636 49.7247 47.1846C49.6571 47.3056 49.6133 47.4391 49.5967 47.5771C49.58 47.7151 49.5908 47.8555 49.628 47.9893C49.6652 48.1232 49.7283 48.2482 49.8135 48.3574C49.8989 48.4667 50.0048 48.5581 50.1251 48.626L51.5118 49.4258C51.6727 49.5031 51.8492 49.5434 52.0274 49.5449C52.2149 49.5424 52.3985 49.4888 52.5587 49.3906C52.7187 49.2922 52.85 49.1521 52.9385 48.9854C53.0104 48.8693 53.0572 48.7392 53.0762 48.6035C53.0952 48.4678 53.0861 48.329 53.0489 48.1973C53.0114 48.0654 52.9468 47.9431 52.8594 47.8379C52.7722 47.7328 52.6641 47.6472 52.5421 47.5869L51.1553 46.7881C51.0358 46.7191 50.9035 46.6747 50.7667 46.6572ZM51.9102 41.9404C51.7711 41.9566 51.6368 42.0016 51.5157 42.0723L50.129 42.8721C50.0087 42.9393 49.9027 43.0298 49.8174 43.1387C49.7321 43.2477 49.6688 43.3731 49.6319 43.5068C49.595 43.6407 49.5853 43.7811 49.6026 43.9189C49.6199 44.0567 49.6647 44.1901 49.7335 44.3105C49.8218 44.4769 49.9525 44.6167 50.1124 44.7148C50.2726 44.8133 50.457 44.8675 50.6446 44.8701C50.8228 44.8686 50.9985 44.8273 51.1592 44.75L52.546 43.9502C52.6662 43.8828 52.7722 43.7924 52.8575 43.6836C52.9427 43.5746 53.0061 43.4491 53.043 43.3154C53.0799 43.1816 53.0896 43.0411 53.0723 42.9033C53.055 42.7655 53.0113 42.6322 52.9424 42.5117C52.8813 42.3849 52.7948 42.2724 52.6885 42.1807C52.5824 42.0889 52.458 42.02 52.3243 41.9785C52.1905 41.9373 52.0492 41.9243 51.9102 41.9404ZM42.4864 41.9004C42.3498 41.883 42.211 41.8934 42.0782 41.9307C41.9456 41.9677 41.8211 42.0311 41.713 42.1172C41.605 42.2032 41.5152 42.3104 41.4483 42.4316C41.3157 42.6827 41.283 42.9754 41.3565 43.25C41.4301 43.5247 41.6047 43.7607 41.8448 43.9102L43.2315 44.71C43.3922 44.7872 43.568 44.8286 43.7462 44.8301C43.9336 44.8274 44.1171 44.7741 44.2774 44.6758C44.4375 44.5774 44.5689 44.4372 44.6573 44.2705C44.7261 44.1502 44.7709 44.0167 44.7881 43.8789C44.8054 43.7411 44.7957 43.6006 44.7589 43.4668C44.722 43.3329 44.6586 43.2077 44.5733 43.0986C44.4881 42.9898 44.382 42.8994 44.2618 42.832L42.8751 42.0322C42.7557 41.9628 42.6231 41.9179 42.4864 41.9004ZM39.0792 39.9834C38.9423 39.9661 38.8029 39.9758 38.67 40.0127C38.5369 40.0496 38.4125 40.1127 38.3038 40.1982C38.1951 40.2838 38.104 40.3907 38.0362 40.5117C37.9685 40.6327 37.9248 40.7665 37.9083 40.9043C37.8918 41.042 37.9026 41.1819 37.9395 41.3154C37.9768 41.4494 38.0397 41.5753 38.1251 41.6846C38.2104 41.7939 38.3171 41.8843 38.4376 41.9521L39.1104 42.3516C39.2712 42.4291 39.4477 42.4702 39.626 42.4717C39.8135 42.469 39.9972 42.4158 40.1573 42.3174C40.3175 42.2191 40.4488 42.0789 40.5372 41.9121C40.6045 41.7948 40.6476 41.6649 40.6641 41.5303C40.6807 41.3957 40.6698 41.2583 40.6329 41.1279C40.5958 40.9976 40.5337 40.8758 40.4493 40.7705C40.3647 40.6648 40.2595 40.5775 40.1407 40.5137L39.4669 40.1143C39.3473 40.0454 39.2156 40.0009 39.0792 39.9834ZM55.3477 39.9834C55.2109 40.0009 55.0788 40.0453 54.959 40.1143L54.2852 40.5137C54.1646 40.5809 54.059 40.6722 53.9737 40.7812C53.8884 40.8904 53.825 41.0154 53.7881 41.1494C53.7513 41.2832 53.7416 41.4235 53.7589 41.5615C53.7762 41.6991 53.8201 41.832 53.8887 41.9521C53.9794 42.1141 54.1129 42.2482 54.2735 42.3398C54.4338 42.4311 54.6157 42.4767 54.7999 42.4717C54.9782 42.4702 55.1545 42.4291 55.3155 42.3516L55.9893 41.9521C56.1094 41.8843 56.2154 41.7937 56.3008 41.6846C56.386 41.5753 56.4491 41.4494 56.4864 41.3154C56.5235 41.1819 56.5341 41.042 56.5176 40.9043C56.5009 40.7664 56.4575 40.6327 56.3897 40.5117C56.3219 40.3906 56.2309 40.2838 56.1221 40.1982C56.0134 40.1127 55.8888 40.0496 55.7559 40.0127C55.623 39.9759 55.4844 39.9662 55.3477 39.9834Z" fill="white"/>
<path d="M42.412 11.2304L39.8981 9.7904L34.1588 6.50427L33.9802 6.40161C33.0393 5.86613 31.8859 5.86613 30.945 6.40161L30.7664 6.50517L22.6962 11.1277L22.5176 11.2313C21.5816 11.7672 21.003 12.7621 21 13.8407V23.4955C21.0032 24.5743 21.5817 25.5693 22.5176 26.1058L30.7691 30.831C31.3738 31.1782 32.1453 30.9735 32.4983 30.3722C32.6663 30.0837 32.7118 29.7399 32.6248 29.4176C32.5377 29.0953 32.3254 28.8212 32.035 28.6564L23.9647 24.0348C23.6966 23.8818 23.5307 23.5971 23.53 23.2884V14.0478C23.5307 13.7391 23.6966 13.4544 23.9647 13.3015L25.3931 12.4829L32.026 8.67627C32.2945 8.52358 32.6236 8.52358 32.892 8.67627L40.9649 13.2997C41.2318 13.4532 41.3968 13.7372 41.3979 14.0452V23.292C41.3972 23.6007 41.2313 23.8854 40.9632 24.0383L38.2323 25.6024L36.8539 23.5241C38.2436 22.2931 39.0395 20.5259 39.0402 18.6695C39.0402 15.0691 36.088 12.14 32.4581 12.14C28.8283 12.14 25.8761 15.0691 25.8761 18.6695C25.8761 22.2698 28.8283 25.1989 32.4581 25.1989C33.2153 25.1994 33.967 25.0696 34.6801 24.8149L36.7736 27.9716C36.8063 28.0198 36.8417 28.066 36.8798 28.11L36.9021 28.1323C36.9463 28.18 36.9944 28.2239 37.0458 28.2636C37.0584 28.2734 37.07 28.2841 37.0833 28.2939C37.14 28.3347 37.1997 28.3711 37.2619 28.4028L37.3048 28.4216C37.3604 28.4465 37.4176 28.4677 37.4761 28.4849L37.5154 28.4975C37.5819 28.5143 37.6497 28.5254 37.7181 28.5305H37.7743C37.7939 28.5305 37.8127 28.5305 37.8323 28.5305C37.8707 28.5305 37.9091 28.526 37.9466 28.5225C37.9645 28.5225 37.9814 28.5225 37.9993 28.5225C38.0714 28.5126 38.1425 28.4964 38.2117 28.4743C38.2305 28.4689 38.2483 28.4608 38.2671 28.4537C38.3222 28.4336 38.3759 28.4098 38.4278 28.3823C38.4394 28.3761 38.4528 28.3725 38.4644 28.3653L42.412 26.1094C43.3489 25.5722 43.9276 24.5755 43.9297 23.4955V13.8398C43.9266 12.7612 43.348 11.7663 42.412 11.2304ZM28.4069 18.6695C28.3932 17.0278 29.3715 15.5403 30.8842 14.9025C32.3968 14.2648 34.1449 14.6029 35.3105 15.7588C36.4762 16.9148 36.8291 18.6599 36.2041 20.1779C35.5791 21.6959 34.0998 22.6867 32.4581 22.6867C30.2313 22.6932 28.4193 20.8963 28.4069 18.6695Z" fill="white"/>
</g>
<defs>
<radialGradient id="paint0_radial_242_358" cx="0" cy="0" r="1" gradientUnits="userSpaceOnUse" gradientTransform="translate(64) rotate(-45) scale(90.5097)">
<stop stop-color="#B833E1"/>
<stop offset="0.371" stop-color="#9059FF"/>
<stop offset="0.614" stop-color="#5B6DF8"/>
<stop offset="1" stop-color="#0090ED"/>
</radialGradient>
<clipPath id="clip0_242_358">
<rect width="64" height="64" fill="white"/>
</clipPath>
</defs>
</svg>
