<svg width="70" height="69" viewBox="0 0 70 69" fill="none" xmlns="http://www.w3.org/2000/svg">
<path fill-rule="evenodd" clip-rule="evenodd" d="M15.5288 16.1067C15.113 26.4691 15.7061 34.8295 18.3751 41.4297C21.0322 48.0007 25.8731 53.1213 34.8519 56.5938C43.8307 53.1213 48.6715 48.0007 51.3287 41.4297C53.9976 34.8295 54.5907 26.4691 54.175 16.1067L34.8519 11.3282L15.5288 16.1067ZM34.8519 7.40454L11.7785 13.1105C10.4967 36.5682 13.3168 53.052 34.8519 60.6599C56.387 53.052 59.2071 36.5682 57.9253 13.1105L34.8519 7.40454Z" fill="#E21587"/>
<path d="M27.1211 33.2614L32.7565 38.8968C33.1892 39.3296 33.9056 39.2756 34.2687 38.7829L44.8798 24.3821" stroke="#E21587" stroke-width="2.5" stroke-linecap="round"/>
</svg>
