<svg width="70" height="72" viewBox="0 0 70 72" fill="none" xmlns="http://www.w3.org/2000/svg">
<path fill-rule="evenodd" clip-rule="evenodd" d="M15.5288 16.8559C15.113 27.7003 15.7061 36.4495 18.3751 43.3568C21.0322 50.2333 25.8731 55.5922 34.8519 59.2261C43.8307 55.5922 48.6715 50.2333 51.3287 43.3568C53.9976 36.4495 54.5907 27.7003 54.175 16.8559L34.8519 11.8552L15.5288 16.8559ZM34.8519 7.74902L11.7785 13.7203C10.4967 38.2691 13.3168 55.5196 34.8519 63.4814C56.387 55.5196 59.2071 38.2691 57.9253 13.7203L34.8519 7.74902Z" fill="#E21587"/>
<path d="M15.4043 16.3722L15.0442 16.4654L15.03 16.8371C14.6137 27.6957 15.2021 36.5305 17.9095 43.5373C20.619 50.5495 25.565 56.0069 34.6651 59.6899L34.8527 59.7658L35.0403 59.6899C44.1404 56.0069 49.0863 50.5495 51.7959 43.5373C54.5033 36.5305 55.0917 27.6957 54.6754 16.8371L54.6612 16.4654L54.3011 16.3722L34.978 11.3714L34.8527 11.339L34.7274 11.3714L15.4043 16.3722Z" fill="#E21587" stroke="#E21587"/>
<path d="M27.1211 32.8427L32.7565 38.4781C33.1892 38.9109 33.9056 38.8569 34.2687 38.3642L44.8798 23.9634" stroke="#FFDFF0" stroke-width="2.5" stroke-linecap="round"/>
</svg>
