<svg width="127" height="94" xmlns="http://www.w3.org/2000/svg" xmlns:xlink="http://www.w3.org/1999/xlink"><defs><path id="a" d="M.272.77h74.453v34.684H.272z"/><path d="M.1.772a12.635 12.635 0 0 0 2.076 2.286l.036-.002c1.331 0 2.67.654 4.423 1.948l1.19.934c.498.217.92.557 1.239.974l.206.164a3.06 3.06 0 0 1-.788-1.37A7.616 7.616 0 0 0 4.837.947C4.014.631 3.139.428 2.212.428 1.469.43.769.563.1.772" id="c"/><path id="d" d="M.748 3.635L4.042 6.93l.184.183 3.583-2.815-.184-.182L3.81.297z"/><linearGradient x1="50%" y1="0%" x2="50%" y2="100%" id="f"><stop stop-color="#FFF" stop-opacity=".5" offset="0%"/><stop stop-opacity=".5" offset="100%"/></linearGradient><path d="M17.092 1.417a4.475 4.475 0 0 1-3.235 3.241 1.5 1.5 0 0 0-1.145 1.453c0 .686.47 1.284 1.138 1.45a4.478 4.478 0 0 1 3.242 3.239c.17.673.766 1.145 1.453 1.145a1.5 1.5 0 0 0 1.45-1.141 4.475 4.475 0 0 1 3.24-3.241 1.502 1.502 0 0 0 1.143-1.452c0-.686-.472-1.283-1.14-1.451a4.48 4.48 0 0 1-3.242-3.237A1.498 1.498 0 0 0 18.545.279c-.687 0-1.283.47-1.453 1.138m11.054 5.294a8.88 8.88 0 0 1-6.468 6.45 1.65 1.65 0 0 0-1.24 1.6 1.641 1.641 0 0 0 1.253 1.57 8.925 8.925 0 0 1 6.46 6.464 1.65 1.65 0 0 0 1.584 1.242c.753 0 1.404-.52 1.585-1.252a8.913 8.913 0 0 1 6.445-6.452 1.64 1.64 0 0 0 1.263-1.586 1.64 1.64 0 0 0-1.254-1.585A8.918 8.918 0 0 1 31.317 6.7a1.651 1.651 0 0 0-1.586-1.242c-.752 0-1.405.52-1.585 1.254m-16.352 7.61A13.968 13.968 0 0 1 1.679 24.442C.854 24.645.296 25.34.29 26.17c-.007.82.558 1.542 1.381 1.757a13.969 13.969 0 0 1 10.122 10.114c.2.82.916 1.392 1.738 1.392.828 0 1.529-.555 1.746-1.383A13.972 13.972 0 0 1 25.41 27.924c.814-.212 1.378-.933 1.37-1.754-.003-.83-.561-1.525-1.38-1.725a13.968 13.968 0 0 1-10.121-10.118c-.205-.818-.92-1.388-1.74-1.388-.827 0-1.528.553-1.745 1.381" id="e"/></defs><g fill="none" fill-rule="evenodd"><path d="M52.673 59c-.371 0-.673-.224-.673-.5s.302-.5.673-.5h6.654c.371 0 .673.224.673.5s-.302.5-.673.5h-6.654zM40.25 59h-1.5c-.414 0-.75-.224-.75-.5s.336-.5.75-.5h1.5c.414 0 .75.224.75.5s-.336.5-.75.5M33.25 59h-4.5c-.414 0-.75-.224-.75-.5s.336-.5.75-.5h4.5c.414 0 .75.224.75.5s-.336.5-.75.5M0 58h17.28c.397 0 .72.224.72.5s-.323.5-.72.5H0M0 66h59.589c.779 0 1.411-.67 1.411-1.5s-.632-1.5-1.411-1.5H0M59.3 74h-5.6c-.386 0-.7-.224-.7-.5s.314-.5.7-.5h5.6c.386 0 .7.224.7.5s-.314.5-.7.5M43.273 74H28.727c-.401 0-.727-.224-.727-.5s.326-.5.727-.5h14.546c.401 0 .727.224.727.5s-.326.5-.727.5M19.333 74h-2.666c-.368 0-.667-.224-.667-.5s.299-.5.667-.5h2.666c.368 0 .667.224.667.5s-.299.5-.667.5M0 73h11.294c.39 0 .706.224.706.5s-.316.5-.706.5H0" fill-opacity=".5" fill="#EAEAEE"/><path d="M124.112 87.818a1.33 1.33 0 0 1-.76-.239L89.672 64.17 55.995 87.58a1.326 1.326 0 0 1-1.367.093 1.305 1.305 0 0 1-.712-1.159V50.372c0-4.236 3.489-7.682 7.778-7.682h55.961c4.29 0 7.778 3.446 7.778 7.682v36.142c0 .486-.274.934-.712 1.159a1.354 1.354 0 0 1-.608.145" fill="#FFF"/><path d="M117.654 41.387H61.693c-5.017 0-9.098 4.03-9.098 8.986v36.14c0 .974.55 1.867 1.424 2.316a2.672 2.672 0 0 0 2.736-.183l32.918-22.882 32.92 22.882a2.666 2.666 0 0 0 2.735.182 2.601 2.601 0 0 0 1.425-2.314V50.373c0-4.956-4.083-8.986-9.099-8.986m0 2.606c3.568 0 6.458 2.856 6.458 6.38v36.14l-34.44-23.936-34.437 23.937V50.373c0-3.524 2.891-6.38 6.458-6.38h55.961" fill="#0A84FF"/><path d="M61.247 92.276c-.2 0-.393-.025-.583-.054l-.16-.02a2.405 2.405 0 0 1-.443-.082c.056.02.15.048.268.063a7.865 7.865 0 0 1-4.232-1.839c-.041-.027-.08-.059-.112-.084a1.24 1.24 0 0 1-.16-.161 6.528 6.528 0 0 1-.655-.652 7.717 7.717 0 0 1-1.278-2.164.807.807 0 0 1-.042-.09 1.494 1.494 0 0 1-.064-.207.765.765 0 0 1-.03-.303 1.3 1.3 0 0 1 .497-.993l.043.054c1.655-1.92 7.938-6.89 29.802-23.205 2.19-1.64 3.837-2.34 5.502-2.34 1.675 0 3.283.675 5.556 2.332 21.719 16.197 28.092 21.228 29.81 23.192l.03-.042c.53.384.712 1.106.405 1.68a.523.523 0 0 0-.03.054c-1.215 2.96-4.056 4.86-7.285 4.86h-56.84z" fill="#FFF"/><g transform="translate(52.152 58.126)"><mask id="b" fill="#fff"><use xlink:href="#a"/></mask><path d="M37.449.77c-2.487 0-4.58 1.316-6.303 2.604-.071.054-7.609 5.681-15.016 11.318-4.358 3.316-7.822 5.99-10.297 7.946a134.998 134.998 0 0 0-3.419 2.775c-1.19 1.015-2.42 2.063-2.086 3.64.038.208.104.416.196.617.354.898.85 1.732 1.473 2.478.257.308.517.547.737.744a2.795 2.795 0 0 0 .393.35 9.14 9.14 0 0 0 4.73 2.087 2.312 2.312 0 0 0 .434.054l.018.003c.18.027.452.068.787.068h56.836c3.745 0 7.04-2.186 8.476-5.594.212-.387.314-.807.317-1.224.043-1.335-1.065-2.28-2.14-3.198a125.163 125.163 0 0 0-3.423-2.779c-2.476-1.96-5.946-4.637-10.31-7.958-7.418-5.643-14.966-11.273-15.04-11.33C42.032 2.077 39.908.77 37.45.77m0 2.607c1.438 0 2.878.698 4.772 2.077 0 0 30.107 22.455 29.843 23.154l.02.015c-.01.018-.029.031-.038.05a6.546 6.546 0 0 1-6.114 4.176H9.096c-.214 0-.411-.05-.62-.07h-.083c-.02-.003-.038-.014-.06-.017a6.512 6.512 0 0 1-3.579-1.578c-.02-.016-.043-.023-.061-.04l.01-.008c-.23-.207-.47-.408-.668-.646a6.424 6.424 0 0 1-1.098-1.89c-.004-.005-.01-.009-.012-.014l.006-.005c-.253-.69 29.81-23.127 29.81-23.127 1.857-1.39 3.28-2.077 4.708-2.077" fill="#0A84FF" mask="url(#b)"/></g><g><path d="M90.375 51.64c.04-.027.076-.055.117-.08-.04.025-.08.052-.117.08M93.111 63.501l-.023-.025c-.03.049-.057.1-.088.147l.111-.122z" fill="#0A84FF"/><path d="M89.584 74.509c-1.654-.01-3.239-.684-5.47-2.33L54.812 49.173a1.295 1.295 0 0 1-.426-1.444c.119-.342.765-2.092 1.848-3.031a6.574 6.574 0 0 1 1.077-.733L84.543 23.09c2.089-1.544 3.643-2.192 5.215-2.183 1.583.009 3.094.651 5.219 2.219l25.983 20.397c.87.308 1.616.855 2.326 1.698 1.501 1.783 1.722 2.923 1.753 3.229.046.446-.144.886-.504 1.162L95.046 72.217c-2.189 1.62-3.817 2.3-5.461 2.292h-.001z" fill="#FFF"/><path d="M78.38 56.994l2.471-2.471a5.398 5.398 0 0 1 1.64-1.11c.412-1.302 1.342-3.264 2.955-4.966-2.795-.209-5.663.745-7.795 2.877l-4.438 4.44-3.549 3.548-.183.183 3.583 2.815.184-.184 5.132-5.132zM93 63.87c.031-.048.058-.1.088-.147a9.884 9.884 0 0 0 1.568-5.355 9.88 9.88 0 0 0-1.996-5.965c-2.53.463-3.132 2.454-3.269 3.268.47.814.74 1.73.74 2.697 0 .7-.138 1.377-.389 2.01a5.412 5.412 0 0 1-1.203 1.833l-1.68 1.682-4.998 4.997-.184.184 3.288 2.583c.11.082.205.137.312.214l.196-.195 4.454-4.454L93 63.869z" fill="#0A84FF"/></g><g fill="#0A84FF"><path d="M87.074 48.71c-.18.15-.356.312-.529.477a11.81 11.81 0 0 0-2.07 2.847 10.04 10.04 0 0 0-1.002 4.341c0 2.331.82 4.655 2.442 6.521.7-.702 1.435-1.468 1.947-2.077.53-.628.76-1.27.858-1.77a5.388 5.388 0 0 1-.728-2.674c0-.692.135-1.361.382-1.986.06-.15.14-.29.21-.436.08-.166.168-.335.272-.505.037-.06.079-.118.121-.177a4.777 4.777 0 0 1 1.397-1.385l.117-.08c.125-.077.263-.142.4-.21.25-.132.506-.249.771-.34 1.903-.653 4.096-.24 5.61 1.274l8.82 8.82c.126.127.225.274.336.41.056.067.113.132.165.201l3.566-2.802c-.052-.068-.1-.14-.154-.207a9.977 9.977 0 0 0-.714-.799l-8.82-8.821a9.921 9.921 0 0 0-7.039-2.91 9.927 9.927 0 0 0-6.358 2.287"/></g><path d="M89.604 19.274c-2.37 0-4.354 1.246-5.983 2.466 0 0-27.953 21.562-28.282 21.85-1.292 1.134-2.013 3.04-2.203 3.598a2.585 2.585 0 0 0 .87 2.884l29.403 22.81a.985.985 0 0 0 .063.048c1.733 1.263 3.833 2.555 6.267 2.555 2.459 0 4.528-1.303 6.229-2.575l29.393-22.803a2.59 2.59 0 0 0 .994-2.33c-.057-.511-.37-1.916-2.075-3.917-.805-.946-28.597-22.094-28.597-22.094l-.063-.047c-1.66-1.21-3.672-2.445-6.016-2.445m0 2.608c1.34 0 2.684.65 4.448 1.935 0 0 27.519 20.912 28.208 21.72 1.37 1.61 1.47 2.52 1.47 2.52L94.373 70.834c-1.829 1.368-3.23 2.043-4.634 2.043-1.418 0-2.837-.686-4.7-2.043l-29.402-22.81s.587-1.722 1.457-2.485c.25-.22 28.122-21.72 28.122-21.72 1.732-1.295 3.057-1.936 4.388-1.936" fill="#0A84FF"/><g><g transform="translate(68.91 1.348)"><use fill="#D8D8D8" xlink:href="#e"/><use fill="url(#f)" xlink:href="#e"/><use fill="#0A84FF" xlink:href="#e"/></g></g><g fill="#FFF"><path d="M87.454.313c-1.29 0-2.411.88-2.726 2.14a3.16 3.16 0 0 1-2.288 2.281A2.809 2.809 0 0 0 80.31 7.46c0 1.29.88 2.411 2.138 2.727a3.155 3.155 0 0 1 2.283 2.288 2.809 2.809 0 0 0 2.724 2.131 2.81 2.81 0 0 0 2.726-2.139 3.16 3.16 0 0 1 2.288-2.282A2.81 2.81 0 0 0 94.6 7.459a2.81 2.81 0 0 0-2.14-2.726 3.164 3.164 0 0 1-2.282-2.289A2.809 2.809 0 0 0 87.454.313m0 2.626c.077 0 .153.05.18.15a5.796 5.796 0 0 0 4.19 4.191c.2.05.2.308 0 .358a5.798 5.798 0 0 0-4.19 4.191c-.027.1-.103.15-.18.15s-.153-.05-.179-.15a5.8 5.8 0 0 0-4.19-4.191c-.2-.05-.2-.308 0-.358a5.798 5.798 0 0 0 4.19-4.191c.026-.1.102-.15.179-.15"/><path d="M98.64 5.491a2.95 2.95 0 0 0-2.863 2.265 7.554 7.554 0 0 1-5.493 5.475c-1.351.357-2.261 1.543-2.248 2.891a2.957 2.957 0 0 0 2.263 2.835 7.596 7.596 0 0 1 5.483 5.498c.355 1.333 1.529 2.243 2.864 2.243a2.951 2.951 0 0 0 2.863-2.262 7.6 7.6 0 0 1 5.5-5.485 2.942 2.942 0 0 0 2.24-2.856 2.95 2.95 0 0 0-2.263-2.862 7.598 7.598 0 0 1-5.484-5.5c-.353-1.33-1.526-2.242-2.862-2.242m0 2.626c.135 0 .27.088.316.263a10.27 10.27 0 0 0 7.405 7.405c.35.085.35.535 0 .62a10.27 10.27 0 0 0-7.405 7.404c-.042.176-.176.263-.31.263-.136 0-.27-.087-.318-.263a10.266 10.266 0 0 0-7.404-7.403c-.35-.086-.35-.536 0-.63a10.22 10.22 0 0 0 7.404-7.396c.044-.175.176-.263.312-.263"/><path d="M82.449 12.975a3.125 3.125 0 0 0-3.013 2.356 12.668 12.668 0 0 1-9.18 9.19 3.112 3.112 0 0 0-2.37 2.99c-.01 1.421.96 2.669 2.356 3.032a12.668 12.668 0 0 1 9.19 9.18 3.106 3.106 0 0 0 3.01 2.37c1.413 0 2.653-.968 3.012-2.355a12.67 12.67 0 0 1 9.18-9.19c1.41-.368 2.38-1.616 2.37-3.038-.009-1.418-.99-2.649-2.388-2.994a12.656 12.656 0 0 1-9.158-9.17 3.106 3.106 0 0 0-3.01-2.371m0 2.626c.2 0 .401.13.465.39 1.378 5.427 5.647 9.704 11.074 11.074.523.13.523.8 0 .936-5.427 1.378-9.704 5.648-11.074 11.075-.068.26-.27.391-.471.391-.2 0-.4-.13-.463-.39-1.38-5.428-5.65-9.705-11.075-11.076-.522-.135-.522-.806 0-.936 5.425-1.376 9.704-5.647 11.075-11.074.066-.26.269-.39.47-.39"/></g></g></svg>
