<svg id="confirm-sending" xmlns="http://www.w3.org/2000/svg" viewBox="0 0 126.75 90.81"><g fill="#eaeaee" fill-opacity=".5" id="motion-lines"><path d="M38.75 59h1.5c.41 0 .75-.22.75-.5s-.34-.5-.75-.5h-1.5c-.41 0-.75.22-.75.5s.34.5.75.5zm-10 0h4.5c.41 0 .75-.22.75-.5s-.34-.5-.75-.5h-4.5c-.41 0-.75.22-.75.5s.34.5.75.5zM18 58.5c0-.28-.32-.5-.72-.5H0v1h17.28c.4 0 .72-.22.72-.5zM43.27 73H28.73c-.4 0-.73.22-.73.5s.33.5.73.5h14.54c.4 0 .73-.22.73-.5s-.33-.5-.73-.5zm-23.94 0h-2.66c-.37 0-.67.22-.67.5s.3.5.67.5h2.66c.37 0 .67-.22.67-.5s-.3-.5-.67-.5zm-8.04 0H0v1h11.29c.39 0 .71-.22.71-.5s-.32-.5-.71-.5z" transform="translate(0 -2.77)"/><path d="M0 60.23h52.6v3H0z"/><path d="M52 58.5c0 .26.26.46.6.49V58c-.34 0-.6.24-.6.5z" transform="translate(0 -2.77)"/></g><path d="M126.75 50.37a8.78 8.78 0 0 0-.86-3.79 10.06 10.06 0 0 0-1.74-2.72c-.8-1-28.59-22.09-28.59-22.09l-.07-.05a10.45 10.45 0 0 0-6-2.45 10.13 10.13 0 0 0-6 2.47s-28 21.56-28.29 21.85a7.09 7.09 0 0 0-1.5 2 8.82 8.82 0 0 0-1.41 4.78v36.14a2.57 2.57 0 0 0 0 .67 3 3 0 0 0 .2.62A9 9 0 0 0 54 90.27a7.55 7.55 0 0 0 .74.75l.19.19.2.16a9.17 9.17 0 0 0 4.73 2.09h.44a4.78 4.78 0 0 0 .79.07H118a9.12 9.12 0 0 0 8.43-5.53 2.59 2.59 0 0 0 .32-1.23 2.29 2.29 0 0 0 0-.25zm-2.64 32.78c-.74-.63-1.72-1.41-2.92-2.37-2.48-2-6-4.63-10.31-8l-7.56-5.72L124.11 51zM57 45.54c.25-.22 28.12-21.72 28.12-21.72 1.73-1.3 3.06-1.94 4.39-1.94s2.68.65 4.45 1.94c0 0 27.51 20.91 28.2 21.72a5.57 5.57 0 0 1 1.47 2.52l-13.81 10.69c-.17-.2-9.35-9.42-9.35-9.42a10 10 0 0 0-13.4-.62c-.18.15-.35.31-.52.48A11.78 11.78 0 0 0 84.47 52c-.15.32-.28.64-.4 1a10.13 10.13 0 0 0-.6 3.39 9.94 9.94 0 0 0 2.44 6.52c.7-.71 1.44-1.47 2-2.08a3.92 3.92 0 0 0 .86-1.77 5.4 5.4 0 0 1-.77-2.68 5.5 5.5 0 0 1 .38-2c.06-.15.14-.29.21-.44a5.14 5.14 0 0 1 .28-.5.94.94 0 0 1 .12-.18 4.69 4.69 0 0 1 1.39-1.38l.12-.08a3 3 0 0 1 .4-.21 4.75 4.75 0 0 1 .77-.34 5.41 5.41 0 0 1 5.61 1.27l8.82 8.82c.06.06.1.12.15.18l-5.09 4L99 67.14l-4.75 3.69c-1.83 1.37-3.23 2-4.64 2a7.12 7.12 0 0 1-3.87-1.47l4.19-4.19 3.07-3.3.09-.15a9.91 9.91 0 0 0-.43-11.32 3.89 3.89 0 0 0-3.27 3.27 5.39 5.39 0 0 1 .74 2.7 5.49 5.49 0 0 1-.39 2 5.38 5.38 0 0 1-1.2 1.83l-1.68 1.68-4.76 4.77-2-1.56-2.14-1.67-4.5-3.49 7.41-7.41a5.73 5.73 0 0 1 1.64-1.11 13.29 13.29 0 0 1 3-5 9.94 9.94 0 0 0-7.8 2.87L69.9 59.1 55.51 48A7 7 0 0 1 57 45.54zm-2 5.35l20.77 16.16c-2.33 1.76-5 3.76-7.61 5.77-4.36 3.31-12.48 9.68-13.22 10.3zm69.07 35.91A6.54 6.54 0 0 1 118 91H61.12a46.9 46.9 0 0 1-5.06-2.36A6.32 6.32 0 0 1 55 86.73c-.18-.48 14.1-11.32 22.95-18l5.37 4.16a.18.18 0 0 0 .07.05c1.73 1.26 3.83 2.56 6.26 2.56s4.53-1.31 6.23-2.58l5.33-4.14c8.88 6.68 23.1 17.48 22.92 18z" transform="translate(0 -2.77)" fill="#0a84ff" id="envelope-and-links"/><g id="stars"><path id="path-8" d="M88 2.39a4.49 4.49 0 0 1-3.25 3.24 1.5 1.5 0 0 0-1.14 1.45 1.49 1.49 0 0 0 1.13 1.45A4.5 4.5 0 0 1 88 11.77a1.49 1.49 0 0 0 2.9 0 4.49 4.49 0 0 1 3.24-3.25 1.49 1.49 0 0 0 1.14-1.45 1.5 1.5 0 0 0-1.15-1.44 4.47 4.47 0 0 1-3.24-3.24 1.49 1.49 0 0 0-2.9 0M99 7.68a8.86 8.86 0 0 1-6.47 6.45 1.66 1.66 0 0 0-1.24 1.6 1.65 1.65 0 0 0 1.25 1.57A8.93 8.93 0 0 1 99 23.77a1.66 1.66 0 0 0 1.59 1.24 1.63 1.63 0 0 0 1.58-1.25 8.93 8.93 0 0 1 6.45-6.46 1.63 1.63 0 0 0 0-3.17 8.9 8.9 0 0 1-6.46-6.46 1.63 1.63 0 0 0-3.17 0m-16.3 7.62a14 14 0 0 1-10.12 10.12 1.8 1.8 0 0 0-1.39 1.73 1.83 1.83 0 0 0 1.39 1.76 14 14 0 0 1 10.12 10.11 1.79 1.79 0 0 0 3.48 0A14 14 0 0 1 96.3 28.9a1.81 1.81 0 0 0 1.37-1.76 1.76 1.76 0 0 0-1.38-1.72A14 14 0 0 1 86.17 15.3a1.79 1.79 0 0 0-3.48 0" fill="#0a84ff" stroke="#fff" stroke-linejoin="round" stroke-width="2.5"/></g></svg>
