<svg width="127px" height="94px" viewBox="0 0 127 94" xmlns="http://www.w3.org/2000/svg" xmlns:xlink="http://www.w3.org/1999/xlink">
  <defs>
    <polygon id="path-1" points="0.272369907 0.76910101 74.7250505 0.76910101 74.7250505 35.4541515 0.272369907 35.4541515"></polygon>
    <path d="M0.10040404,0.772121212 C0.697878788,1.62040404 1.39646465,2.38464646 2.17646465,3.05828283 C2.18828283,3.05828283 2.20010101,3.05565657 2.21191919,3.05565657 C3.54343434,3.05565657 4.88151515,3.70959596 6.63454545,5.00434343 L7.82424242,5.9379798 C8.32323232,6.15464646 8.74474747,6.49474747 9.06383838,6.91232323 L9.27,7.07646465 C8.90494949,6.70616162 8.62393939,6.24393939 8.48212121,5.70686869 C7.95949495,3.65444444 6.62272727,1.95 4.83686869,0.945454545 C4.01353535,0.631616162 3.1389899,0.429393939 2.21191919,0.429393939 C1.46868687,0.429393939 0.768787879,0.563333333 0.10040404,0.772121212" id="path-3"></path>
    <polygon id="path-5" points="0.748484848 3.63535354 4.04181818 6.93 4.22565657 7.11252525 7.80919192 4.29848485 7.62535354 4.1159596 3.80939394 0.297373737"></polygon>
    <linearGradient x1="50%" y1="0%" x2="50%" y2="100%" id="confirmGradient">
        <stop stop-color="#FFFFFF" stop-opacity="0.5" offset="0%"></stop>
        <stop stop-color="#000000" stop-opacity="0.5" offset="100%"></stop>
    </linearGradient>
    <path d="M17.0923232,1.41747475 C16.6891919,3.01292929 15.4456566,4.25383838 13.8567677,4.65828283 C13.1818182,4.82636364 12.7117172,5.42383838 12.7117172,6.11060606 C12.7117172,6.79737374 13.1818182,7.39484848 13.850202,7.56161616 C15.4456566,7.96737374 16.6891919,9.20828283 17.0923232,10.799798 C17.2617172,11.4734343 17.8578788,11.9448485 18.5446465,11.9448485 C19.230101,11.9448485 19.8288889,11.4734343 19.9956566,10.8037374 C20.400101,9.20828283 21.6423232,7.96737374 23.2351515,7.56292929 C23.9061616,7.39484848 24.3775758,6.79606061 24.3775758,6.11060606 C24.3775758,5.42515152 23.9061616,4.82767677 23.2377778,4.65959596 C21.6423232,4.25383838 20.400101,3.01292929 19.9956566,1.42272727 C19.8288889,0.749090909 19.230101,0.278989899 18.5446465,0.278989899 C17.8578788,0.278989899 17.2617172,0.749090909 17.0923232,1.41747475 M28.1462626,6.71070707 C27.3465657,9.88717172 24.8739394,12.3571717 21.6777778,13.1608081 C20.9411111,13.3551515 20.4329293,14.0143434 20.4381818,14.760202 C20.4460606,15.5060606 20.9647475,16.1521212 21.6909091,16.3307071 C24.8660606,17.1356566 27.34,19.609596 28.150202,22.7952525 C28.3419192,23.5266667 28.9945455,24.0374747 29.7351515,24.0374747 C30.4875758,24.0374747 31.1388889,23.5174747 31.320101,22.7847475 C32.1263636,19.609596 34.600303,17.1356566 37.7649495,16.3333333 C38.5081818,16.1508081 39.0281818,15.4981818 39.0281818,14.7470707 C39.0281818,13.9959596 38.5081818,13.3433333 37.7741414,13.1621212 C34.600303,12.3584848 32.1263636,9.88454545 31.3174747,6.69888889 C31.1244444,5.96616162 30.4718182,5.45666667 29.7312121,5.45666667 C28.9787879,5.45666667 28.3261616,5.97666667 28.1462626,6.71070707 M11.7938384,14.320303 C10.5384848,19.2983838 6.65686869,23.1786869 1.67878788,24.4432323 C0.854141414,24.6454545 0.296060606,25.340101 0.290808081,26.17 C0.284242424,26.9907071 0.848888889,27.7116162 1.67222222,27.9269697 C6.65161616,29.1836364 10.5279798,33.0639394 11.7938384,38.0407071 C11.9947475,38.860101 12.710404,39.4326263 13.5324242,39.4326263 C14.359697,39.4326263 15.0609091,38.8784848 15.2775758,38.049899 C16.5329293,33.0718182 20.4145455,29.1928283 25.409697,27.9243434 C26.2238384,27.7116162 26.7884848,26.9907071 26.7806061,26.17 C26.7766667,25.340101 26.2185859,24.6454545 25.3991919,24.4445455 C20.4211111,23.1865657 16.5434343,19.3075758 15.2788889,14.3268687 C15.0740404,13.5087879 14.359697,12.9388889 13.5389899,12.9388889 C12.7117172,12.9388889 12.0105051,13.4917172 11.7938384,14.320303" id="path-8"></path>
  </defs>
  <g  stroke="none" stroke-width="1" fill="none" fill-rule="evenodd">
    <g transform="translate(-512.000000, -306.000000)">
      <g transform="translate(386.000000, 213.000000)">
        <g transform="translate(123.000000, 92.000000)">
          <g transform="translate(3.000000, 1.000000)">
            <g id="Group-12" transform="translate(0.000000, 41.055000)">
              <path d="M52.6733004,17.945 C52.3016386,17.945 52,17.721 52,17.445 C52,17.169 52.3016386,16.945 52.6733004,16.945 L59.3266996,16.945 C59.6983614,16.945 60,17.169 60,17.445 C60,17.721 59.6983614,17.945 59.3266996,17.945 L52.6733004,17.945 Z" id="Fill-1" fill-opacity="0.5" fill="#EAEAEE"></path>
              <path d="M40.25,17.945 L38.75,17.945 C38.336,17.945 38,17.721 38,17.445 C38,17.169 38.336,16.945 38.75,16.945 L40.25,16.945 C40.664,16.945 41,17.169 41,17.445 C41,17.721 40.664,17.945 40.25,17.945" id="Fill-3" fill-opacity="0.5" fill="#EAEAEE"></path>
              <path d="M33.25,17.945 L28.75,17.945 C28.336,17.945 28,17.721 28,17.445 C28,17.169 28.336,16.945 28.75,16.945 L33.25,16.945 C33.664,16.945 34,17.169 34,17.445 C34,17.721 33.664,17.945 33.25,17.945" id="Fill-5" fill-opacity="0.5" fill="#EAEAEE"></path>
              <path d="M0,16.945 L17.28,16.945 C17.67744,16.945 18,17.169 18,17.445 C18,17.721 17.67744,17.945 17.28,17.945 L0,17.945" id="Fill-7" fill-opacity="0.5" fill="#EAEAEE"></path>
              <path d="M0,24.945 L59.5885915,24.945 C60.367689,24.945 61,24.2745 61,23.445 C61,22.6155 60.367689,21.945 59.5885915,21.945 L0,21.945" id="Fill-9" fill-opacity="0.5" fill="#EAEAEE"></path>
              <path d="M59.3,32.945 L53.7,32.945 C53.3136,32.945 53,32.721 53,32.445 C53,32.169 53.3136,31.945 53.7,31.945 L59.3,31.945 C59.6864,31.945 60,32.169 60,32.445 C60,32.721 59.6864,32.945 59.3,32.945" id="Fill-13" fill-opacity="0.5" fill="#EAEAEE"></path>
              <path d="M43.2727273,32.945 L28.7272727,32.945 C28.3258182,32.945 28,32.721 28,32.445 C28,32.169 28.3258182,31.945 28.7272727,31.945 L43.2727273,31.945 C43.6741818,31.945 44,32.169 44,32.445 C44,32.721 43.6741818,32.945 43.2727273,32.945" id="Fill-15" fill-opacity="0.5" fill="#EAEAEE"></path>
              <path d="M19.3333333,32.945 L16.6666667,32.945 C16.2986667,32.945 16,32.721 16,32.445 C16,32.169 16.2986667,31.945 16.6666667,31.945 L19.3333333,31.945 C19.7013333,31.945 20,32.169 20,32.445 C20,32.721 19.7013333,32.945 19.3333333,32.945" id="Fill-17" fill-opacity="0.5" fill="#EAEAEE"></path>
              <path d="M0,31.945 L11.2941176,31.945 C11.6837647,31.945 12,32.169 12,32.445 C12,32.721 11.6837647,32.945 11.2941176,32.945 L0,32.945" id="Fill-19" fill-opacity="0.5" fill="#EAEAEE"></path>
              <path d="M124.112293,46.7633636 C123.844414,46.7633636 123.577848,46.6819495 123.35199,46.5243737 L89.672798,23.1151818 L55.9936061,46.5243737 C55.7690606,46.6819495 55.5011818,46.7633636 55.2346162,46.7633636 C55.0271414,46.7633636 54.8183535,46.7147778 54.6266364,46.6176061 C54.1893636,46.3930606 53.9149192,45.9452828 53.9149192,45.4594242 L53.9149192,9.31679798 C53.9149192,5.08063636 57.4039091,1.6349798 61.692596,1.6349798 L117.654313,1.6349798 C121.944313,1.6349798 125.43199,5.08063636 125.43199,9.31679798 L125.43199,45.4594242 C125.43199,45.9452828 125.157545,46.3930606 124.720273,46.6176061 C124.527242,46.7147778 124.318455,46.7633636 124.112293,46.7633636" id="Fill-3" fill="#FFFFFF"></path>
              <path d="M117.654313,0.331828283 L61.692596,0.331828283 C56.6764343,0.331828283 52.5952222,4.36182828 52.5952222,9.31758586 L52.5952222,45.458899 C52.5952222,46.4319293 53.1441111,47.3248586 54.0186566,47.7739495 C54.4020909,47.9696061 54.8183535,48.0667778 55.2346162,48.0667778 C55.7703737,48.0667778 56.3008788,47.9052626 56.7552222,47.5914242 L89.672798,24.708798 L122.593,47.5914242 C123.044717,47.9052626 123.577848,48.0667778 124.112293,48.0667778 C124.527242,48.0667778 124.946131,47.9696061 125.328253,47.7726364 C126.204111,47.3248586 126.753,46.4319293 126.753,45.458899 L126.753,9.31758586 C126.753,4.36182828 122.670475,0.331828283 117.654313,0.331828283 M117.654313,2.93839394 C121.222091,2.93839394 124.112293,5.79445455 124.112293,9.31758586 L124.112293,45.458899 L89.672798,21.5218283 L55.2346162,45.458899 L55.2346162,9.31758586 C55.2346162,5.79445455 58.1261313,2.93839394 61.692596,2.93839394 L117.654313,2.93839394" id="Fill-5" fill="#0A84FF"></path>
              <path d="M61.2467879,51.2207879 C61.0471919,51.2207879 60.8541616,51.1958384 60.6637576,51.1669495 L60.5048687,51.1472525 C60.3919394,51.1367475 60.1673939,51.1026061 60.0610303,51.0645253 C60.1174949,51.0842222 60.2107273,51.1131111 60.3289091,51.1275556 C58.7439596,50.942404 57.2824444,50.3068485 56.0966869,49.2891717 C56.0559798,49.261596 56.0165859,49.2300808 55.9850707,49.2051313 C55.9259798,49.1565455 55.8734545,49.1013939 55.8248687,49.0436162 C55.5950707,48.8387677 55.367899,48.6273535 55.1696162,48.392303 C54.6246667,47.7383636 54.1939596,47.0108889 53.8919394,46.2282626 C53.8761818,46.1993737 53.8617374,46.1678586 53.8499192,46.1376566 C53.8236566,46.0706869 53.8013333,45.9997778 53.7855758,45.9314949 C53.7593131,45.8369495 53.7435556,45.7397778 53.7566869,45.6281616 C53.7645657,45.2499798 53.9392121,44.8836162 54.2530505,44.6354343 L54.2963838,44.6892727 C55.9509293,42.7681616 62.2342626,37.7992727 84.097899,21.4836162 C86.288202,19.8435152 87.9348687,19.1436162 89.5999192,19.1436162 C91.2754747,19.1436162 92.8827475,19.8185657 95.1557778,21.4757374 C116.87497,37.6732121 123.247596,42.7038182 124.965172,44.6682626 L124.995374,44.6262424 C125.525879,45.0096768 125.708404,45.731899 125.401131,46.3057374 C125.390626,46.3228081 125.380121,46.3398788 125.370929,46.3595758 C124.156283,49.3193737 121.314667,51.2207879 118.085677,51.2207879 L61.2467879,51.2207879 Z" id="Fill-7" fill="#FFFFFF"></path>
              <g id="Group-11" transform="translate(52.151515, 17.070707)">
                <mask id="mask-2" fill="white">
                    <use xlink:href="#path-1"></use>
                </mask>
                <g id="Clip-10"></g>
                <path d="M37.448798,0.76910101 C34.9617273,0.76910101 32.868596,2.08617172 31.1457677,3.37435354 C31.0748586,3.42819192 23.5374848,9.0549596 16.1301111,14.6922323 C11.7718283,18.0078889 8.30778788,20.6814242 5.83253535,22.6379899 C4.34607071,23.8145556 3.19576768,24.7481919 2.41445455,25.4126364 C1.22344444,26.4276869 -0.00564646465,27.4755657 0.327888889,29.0526364 C0.365969697,29.2614242 0.431626263,29.468899 0.523545455,29.6698081 C0.878090909,30.5679899 1.37445455,31.4018283 1.99687879,32.1476869 C2.25425253,32.4562727 2.51425253,32.6952626 2.73354545,32.8922323 C2.79526263,32.959202 2.86091919,33.0222323 2.92920202,33.0839495 C2.98829293,33.1364747 3.05657576,33.1903131 3.12617172,33.2415253 C4.45637374,34.3721313 6.08728283,35.0930404 7.85607071,35.329404 C7.92960606,35.3451616 8.00314141,35.3582929 8.07142424,35.3661717 C8.1449596,35.3753636 8.21849495,35.3806162 8.29071717,35.3832424 L8.30910101,35.3858687 C8.489,35.4134444 8.76081818,35.4541515 9.09566667,35.4541515 L65.9319293,35.4541515 C69.6769798,35.4541515 72.9729394,33.2677879 74.4081919,29.8602121 C74.6196061,29.4728384 74.7220303,29.0526364 74.7246566,28.6363737 C74.7679899,27.3009192 73.6597071,26.3554646 72.5842525,25.4375859 C71.8029394,24.7705152 70.6513232,23.8355657 69.1622323,22.659 C66.6856667,20.6998081 63.2163737,18.0223333 58.8528384,14.7014242 C51.4336465,9.05758586 43.8857677,3.42819192 43.8122323,3.37172727 C42.0329394,2.07566667 39.9082929,0.76910101 37.448798,0.76910101 M37.448798,3.37566667 C38.8866768,3.37566667 40.3271818,4.07425253 42.2207172,5.4530404 C42.2207172,5.4530404 72.3281919,27.9075859 72.0642525,28.6074848 L72.0839495,28.6219293 C72.0734444,28.6403131 72.0550606,28.6534444 72.0458687,28.6718283 C71.1030404,31.1076869 68.7315253,32.8475859 65.9319293,32.8475859 L9.09566667,32.8475859 C8.88162626,32.8475859 8.68465657,32.7976869 8.47586869,32.7779899 L8.39314141,32.7779899 C8.37213131,32.7753636 8.35506061,32.7635455 8.33273737,32.7609192 C6.96314141,32.6020303 5.73142424,32.0439495 4.75445455,31.1825354 C4.73475758,31.1667778 4.71112121,31.1602121 4.69273737,31.1431414 L4.70324242,31.1352626 C4.47344444,30.9277879 4.23314141,30.7268788 4.03485859,30.489202 C3.56738384,29.9311212 3.19445455,29.2929394 2.93708081,28.5996061 C2.93314141,28.5943535 2.92788889,28.5904141 2.92526263,28.5851616 L2.93051515,28.5799091 C2.67839394,27.889202 32.7412222,5.4530404 32.7412222,5.4530404 C34.5979899,4.06374747 36.0214242,3.37566667 37.448798,3.37566667" id="Fill-9" fill="#0A84FF" mask="url(#mask-2)"></path>
              </g>
            </g>
            <g id="Group-15" transform="translate(87.292929, 18.731768)">
                <mask id="mask-4" fill="white">
                    <use xlink:href="#path-3"></use>
                </mask>
                <g id="Clip-14"></g>
            </g>
            <g id="Group-26" transform="translate(53.464646, 20.044899)">
                <path d="M36.9101515,31.5943333 C36.9495455,31.5680707 36.9863131,31.5404949 37.0270202,31.5142323 C36.9876263,31.5404949 36.9482323,31.5667576 36.9101515,31.5943333" id="Fill-16" fill="#0A84FF"></path>
                <path d="M39.6467172,43.4561111 L39.6230808,43.4311616 C39.5928788,43.4797475 39.5666162,43.5309596 39.535101,43.5782323 L39.6467172,43.4561111 Z" id="Fill-18" fill="#0A84FF"></path>
                <path d="M36.1189899,54.4638283 C34.4657576,54.4533232 32.8808081,53.7796869 30.649798,52.1343333 L1.34727273,29.1282727 C0.911313131,28.7842323 0.739292929,28.2064545 0.921818182,27.6838283 C1.04,27.3424141 1.68606061,25.5920101 2.76939394,24.6531212 C3.0530303,24.4075657 3.40626263,24.1685758 3.84616162,23.9203939 L31.0778788,3.04554545 C33.1670707,1.50130303 34.7218182,0.852616162 36.2936364,0.861808081 C37.8759596,0.871 39.3873737,1.51312121 41.5120202,3.081 L67.4949495,23.4778687 C68.3655556,23.7864545 69.1114141,24.3327172 69.8218182,25.1757475 C71.3227273,26.9589798 71.5433333,28.0987778 71.5748485,28.4047374 C71.6208081,28.851202 71.430404,29.291101 71.0706061,29.5668586 L41.5816162,52.1724141 C39.3926263,53.7915051 37.7643434,54.4730202 36.120303,54.4638283 L36.1189899,54.4638283 Z" id="Fill-20" fill="#FFFFFF"></path>
                <path d="M24.9150909,36.9494141 L27.386404,34.478101 C27.8722626,33.9922424 28.4329697,33.6324444 29.0265051,33.3685051 C29.4388283,32.0658788 30.3685253,30.1040606 31.9810505,28.4022424 C29.1867071,28.1934545 26.3188283,29.1467879 24.186303,31.2793131 L19.7479192,35.7190101 L16.1998384,39.2670909 L16.016,39.4496162 L19.5995354,42.2649697 L19.7833737,42.0811313 L24.9150909,36.9494141 Z" id="Fill-22" fill="#0A84FF"></path>
                <path d="M39.5352323,43.8241818 C39.5667475,43.7769091 39.5930101,43.725697 39.6232121,43.6784242 C40.6395758,42.0934747 41.1910909,40.2511515 41.1910909,38.3234747 C41.1910909,36.1397374 40.4833131,34.0715556 39.1951313,32.3579192 C36.6647273,32.8214545 36.0633131,34.8121616 35.9267475,35.626303 C36.3955354,36.4404444 36.6660404,37.3570101 36.6660404,38.3234747 C36.6660404,39.0233737 36.5281616,39.6996364 36.2773535,40.3325657 C36.0068485,41.0101414 35.6063434,41.6351919 35.0745253,42.165697 L33.3937172,43.8478182 L28.3959394,48.845596 L28.212101,49.0294343 L31.5001818,51.6123636 C31.6104848,51.6937778 31.7050303,51.7489293 31.8127071,51.826404 L32.0083636,51.6307475 L36.4625051,47.1766061 L39.5352323,43.8241818 Z" id="Fill-24" fill="#0A84FF"></path>
            </g>
            <g id="Group-29" transform="translate(83.353535, 46.307525)" fill="#0A84FF">
                <path d="M3.72070707,2.40171717 C3.54080808,2.55272727 3.36484848,2.71424242 3.19151515,2.87969697 C2.2710101,3.80414141 1.59343434,4.82181818 1.12070707,5.72656566 C0.968383838,6.04040404 0.835757576,6.36080808 0.717575758,6.68515152 C0.326262626,7.77767677 0.118787879,8.92141414 0.118787879,10.0677778 C0.118787879,12.3985859 0.939494949,14.7228283 2.56121212,16.5887879 C3.26111111,15.8862626 3.99646465,15.1207071 4.50858586,14.5114141 C5.03777778,13.8837374 5.26757576,13.2416162 5.36606061,12.7413131 C4.90515152,11.9311111 4.63858586,11.0237374 4.63858586,10.0677778 C4.63858586,9.37575758 4.77383838,8.70606061 5.02070707,8.0810101 C5.07979798,7.93131313 5.15989899,7.79080808 5.23080808,7.64505051 C5.31090909,7.47959596 5.39888889,7.31020202 5.50262626,7.14080808 C5.53939394,7.08040404 5.58141414,7.02262626 5.62343434,6.96353535 C5.95565657,6.45929293 6.41,5.97474747 7.02060606,5.57818182 C7.06,5.55060606 7.09808081,5.52434343 7.13747475,5.49939394 C7.26222222,5.42191919 7.40010101,5.35626263 7.53666667,5.28929293 C7.78747475,5.15666667 8.04353535,5.03979798 8.30878788,4.94787879 C10.2115152,4.29525253 12.4044444,4.70757576 13.9184848,6.22292929 L22.7387879,15.0432323 C22.8648485,15.1692929 22.9633333,15.3163636 23.0749495,15.4529293 C23.130101,15.519899 23.1878788,15.5842424 23.2390909,15.6538384 L26.8055556,12.8516162 C26.7530303,12.7833333 26.7057576,12.7111111 26.6519192,12.6441414 C26.4286869,12.3683838 26.1923232,12.0991919 25.9375758,11.8457576 L17.1172727,3.02414141 C15.1764646,1.08333333 12.6276768,0.114242424 10.0788889,0.114242424 C7.8189899,0.112929293 5.55777778,0.875858586 3.72070707,2.40171717" id="Fill-27"></path>
            </g>
          <g id="Group-32" transform="translate(90.232323, 64.378232)">
              <mask id="mask-6" fill="white">
                <use xlink:href="#path-5"></use>
              </mask>
              <g id="Clip-31"></g>
            </g>
            <path d="M89.6041212,19.2738283 C87.2339192,19.2738283 85.2497778,20.5199899 83.6214949,21.7398889 C83.6214949,21.7398889 55.6675556,43.3015051 55.3392727,43.5903939 C54.0471515,44.7236263 53.3262424,46.6302929 53.1358384,47.1883737 C52.7773535,48.2349394 53.1266465,49.3904949 54.0064444,50.0720101 L83.4087677,72.8824141 C83.4297778,72.8994848 83.4507879,72.9152424 83.471798,72.9296869 C85.2051313,74.1929192 87.3048283,75.4850404 89.7393737,75.4850404 C92.1975556,75.4850404 94.2670505,74.1824141 95.9675556,72.9099899 L125.360687,50.1074646 C126.076343,49.5533232 126.453212,48.6722121 126.354727,47.7766566 C126.298263,47.2658485 125.984424,45.860798 124.27998,43.8595859 C123.47503,42.9141313 95.6826061,21.7661515 95.6826061,21.7661515 C95.661596,21.7503939 95.6405859,21.7346364 95.6195758,21.7188788 C93.9597778,20.5094848 91.9480606,19.2738283 89.6041212,19.2738283 M89.6041212,21.8817071 C90.9448283,21.8817071 92.2881616,22.5317071 94.051697,23.8172626 C94.051697,23.8172626 121.57099,44.7288788 122.260384,45.5377677 C123.62998,47.1476667 123.729778,48.0576667 123.729778,48.0576667 L94.3734141,70.8326162 C92.5442222,72.200899 91.1431111,72.8758485 89.7393737,72.8758485 C88.3211919,72.8758485 86.901697,72.1903939 85.0396768,70.8326162 L55.6373535,48.0222121 C55.6373535,48.0222121 56.2243232,46.300697 57.0936162,45.5377677 C57.3444242,45.3171616 85.2156364,23.8172626 85.2156364,23.8172626 C86.9476566,22.5225152 88.2726061,21.8817071 89.6041212,21.8817071" id="Fill-33" fill="#0A84FF"></path>
            <g id="Group-37" transform="translate(68.909091, 1.347929)">
              <mask id="mask-9" fill="white">
                <use xlink:href="#path-8"></use>
              </mask>
              <g id="Clip-36">
                <use fill="#D8D8D8" xlink:href="#path-8"></use>
                <use fill="url(#confirmGradient)" xlink:href="#path-8"></use>
                <use fill="#0A84FF" xlink:href="#path-8"></use>
              </g>
            </g>
            <g id="Group-44" transform="translate(67.595960, 0.034798)" fill="#FFFFFF">
              <path d="M19.8576465,0.27820202 C18.5681515,0.27820202 17.4467374,1.158 17.1315859,2.41729293 C16.8479495,3.53608081 15.9707778,4.41325253 14.8441111,4.69951515 C13.592697,5.0120404 12.712899,6.13345455 12.712899,7.42426263 C12.712899,8.71507071 13.592697,9.83517172 14.8506768,10.1516364 C15.9707778,10.4339596 16.8479495,11.3111313 17.1342121,12.4391111 C17.4467374,13.6905253 18.5681515,14.5703232 19.8576465,14.5703232 C21.1484545,14.5703232 22.2698687,13.6905253 22.5837071,12.4312323 C22.8686566,11.3111313 23.7458283,10.4339596 24.8724949,10.1490101 C26.1239091,9.83517172 27.0037071,8.71507071 27.0037071,7.42426263 C27.0037071,6.13345455 26.1239091,5.0120404 24.8646162,4.69820202 C23.7458283,4.41325253 22.8686566,3.53608081 22.5823939,2.40941414 C22.2698687,1.158 21.1484545,0.27820202 19.8576465,0.27820202 M19.8576465,2.90446465 C19.9351212,2.90446465 20.0112828,2.95436364 20.0375455,3.05416162 C20.5575455,5.11183838 22.1713838,6.72436364 24.2277475,7.24567677 C24.4273434,7.29557576 24.4273434,7.55294949 24.2277475,7.60284848 C22.1713838,8.12416162 20.5575455,9.738 20.0375455,11.7943636 C20.0112828,11.8941616 19.9351212,11.9440606 19.8576465,11.9440606 C19.7814848,11.9440606 19.7053232,11.8941616 19.6790606,11.7943636 C19.1590606,9.738 17.5439091,8.12416162 15.4888586,7.60284848 C15.2892626,7.55294949 15.2892626,7.29557576 15.4888586,7.24567677 C17.5439091,6.72436364 19.1590606,5.11183838 19.6790606,3.05416162 C19.7053232,2.95436364 19.7814848,2.90446465 19.8576465,2.90446465" id="Fill-38"></path>
              <path d="M31.0436869,5.45627273 C29.6859091,5.45627273 28.5080303,6.38728283 28.1810606,7.72142424 C27.504798,10.409404 25.3972222,12.5143535 22.6882323,13.1958687 C21.3370202,13.5530404 20.4270202,14.738798 20.4401515,16.0873838 C20.4532828,17.4333434 21.3842929,18.5980909 22.7026768,18.9224343 C25.3893434,19.6039495 27.4995455,21.7141515 28.1863131,24.4205152 C28.5408586,25.7533434 29.714798,26.6633434 31.0502525,26.6633434 C32.4080303,26.6633434 33.5859091,25.7323333 33.9128788,24.4008182 C34.5943939,21.7141515 36.704596,19.6039495 39.4122727,18.9158687 C40.7227778,18.5954646 41.6537879,17.4175859 41.6537879,16.0598081 C41.6537879,14.7020303 40.7227778,13.5254646 39.3899495,13.1984949 C36.704596,12.5169798 34.5943939,10.4080909 33.9063131,7.69910101 C33.5530808,6.36758586 32.3804545,5.45627273 31.0436869,5.45627273 M31.0436869,8.08253535 C31.1789394,8.08253535 31.3141919,8.17051515 31.3601515,8.34516162 C32.2819697,11.9720303 35.1380303,14.829404 38.764899,15.7499091 C39.1141919,15.8352626 39.1141919,16.2856667 38.764899,16.3710202 C35.1380303,17.2928384 32.2819697,20.1475859 31.3601515,23.7744545 C31.3181313,23.9504141 31.1841919,24.0370808 31.0502525,24.0370808 C30.9136869,24.0370808 30.7797475,23.9504141 30.7324747,23.7744545 C29.8119697,20.1475859 26.9559091,17.2928384 23.3277273,16.3710202 C22.9784343,16.2856667 22.9784343,15.8352626 23.3277273,15.7420303 C26.9637879,14.829404 29.8185354,11.9720303 30.7324747,8.34516162 C30.7758081,8.17051515 30.9084343,8.08253535 31.0436869,8.08253535" id="Fill-40"></path>
              <path d="M14.8526465,12.940202 C13.4397172,12.940202 12.2001212,13.9079798 11.8403232,15.2959596 C10.6965859,19.8236364 7.1800202,23.3375758 2.66022222,24.4852525 C1.28143434,24.8266667 0.299212121,26.0570707 0.290020202,27.4752525 C0.280828283,28.8973737 1.24991919,30.1448485 2.64577778,30.5085859 C7.17345455,31.6523232 10.6887071,35.1675758 11.8363838,39.6873737 C12.1791111,41.0766667 13.4173939,42.0588889 14.8460808,42.0588889 C16.2590101,42.0588889 17.4986061,41.089798 17.858404,39.7031313 C19.0021414,35.1754545 22.5187071,31.660202 27.0371919,30.5125253 C28.4488081,30.1448485 29.417899,28.8973737 29.4087071,27.4752525 C29.3995152,26.0570707 28.4172929,24.8266667 27.0201212,24.4813131 C22.5252727,23.3454545 19.0100202,19.830202 17.8623434,15.310404 C17.5196162,13.9211111 16.2800202,12.940202 14.8526465,12.940202 M14.8526465,15.5664646 C15.0522424,15.5664646 15.2531515,15.6964646 15.3174949,15.9564646 C16.6949697,21.3836364 20.9639596,25.6605051 26.3911313,27.030101 C26.9137576,27.160101 26.9137576,27.8311111 26.3911313,27.9663636 C20.9639596,29.3438384 16.6870909,33.6141414 15.3174949,39.0413131 C15.2492121,39.3013131 15.0469899,39.4326263 14.8460808,39.4326263 C14.6464848,39.4326263 14.4455758,39.3013131 14.3825455,39.0413131 C13.0037576,33.6141414 8.73345455,29.3372727 3.30759596,27.9663636 C2.78628283,27.8311111 2.78628283,27.160101 3.30759596,27.030101 C8.73345455,25.6539394 13.0116364,21.3836364 14.3825455,15.9564646 C14.4495152,15.6964646 14.6517374,15.5664646 14.8526465,15.5664646" id="Fill-42"></path>
            </g>
          </g>
        </g>
      </g>
    </g>
  </g>
</svg>
