
<!-- This Source Code Form is subject to the terms of the Mozilla Public
   - License, v. 2.0. If a copy of the MPL was not distributed with this
   - file, You can obtain one at http://mozilla.org/MPL/2.0/. -->
<svg width="24" height="24" viewBox="0 0 24 24" fill="none" xmlns="http://www.w3.org/2000/svg"><path fill-rule="evenodd" clip-rule="evenodd" d="M4 12.5C4 8.365 7.38 5 11.566 5a7.566 7.566 0 0 1 7.137 5H15a1 1 0 1 0 0 2h6a1 1 0 0 0 1-1V5a1 1 0 1 0-2 0v3.012A9.574 9.574 0 0 0 11.566 3C6.29 3 2 7.246 2 12.5S6.29 22 11.566 22c2.346 0 4.498-.84 6.163-2.233a1 1 0 1 0-1.284-1.534A7.572 7.572 0 0 1 11.566 20C7.38 20 4 16.635 4 12.5z" fill="#0C0C0D" fill-opacity=".8"></path></svg>
