
<svg style="display:block; width:0; height:0;">
  <symbol id="subscribe" width="137" height="73" xmlns="http://www.w3.org/2000/svg"><g fill="none" fill-rule="evenodd"><path d="M55.399 40.826c-.39 0-.707-.236-.707-.527 0-.291.317-.527.707-.527h6.979c.39 0 .706.236.706.527 0 .29-.316.527-.706.527h-6.98zM42.367 40.826h-1.573c-.435 0-.787-.236-.787-.527 0-.291.352-.527.787-.527h1.573c.434 0 .787.236.787.527 0 .29-.353.527-.787.527M35.024 40.826h-4.72c-.434 0-.787-.236-.787-.527 0-.291.353-.527.787-.527h4.72c.435 0 .787.236.787.527 0 .29-.352.527-.787.527M.147 39.772h18.126c.417 0 .755.236.755.527 0 .29-.338.527-.755.527H.147M.147 48.207h62.505c.818 0 1.48-.707 1.48-1.582 0-.875-.662-1.582-1.48-1.582H.147M62.35 56.641h-5.874c-.406 0-.735-.236-.735-.527 0-.29.33-.527.735-.527h5.874c.405 0 .734.236.734.527 0 .291-.329.527-.734.527M45.538 56.641H30.28c-.42 0-.763-.236-.763-.527 0-.29.342-.527.763-.527h15.258c.42 0 .763.236.763.527 0 .291-.342.527-.763.527M20.427 56.641h-2.798c-.386 0-.699-.236-.699-.527 0-.29.313-.527.7-.527h2.797c.386 0 .699.236.699.527 0 .291-.313.527-.7.527M.147 55.587h11.847c.409 0 .74.236.74.527 0 .291-.331.527-.74.527H.147" fill-opacity=".5" fill="#EAEAEE"/><path d="M71.611 34.904V11.199c0-2.895 2.334-5.241 5.214-5.241h45.105c2.88 0 5.215 2.346 5.215 5.24v23.706" stroke="#0A84FF" stroke-width="3"/><path d="M92.481 6.033c2.704-2.99 5.492-4.485 8.365-4.485s5.456 1.495 7.75 4.485" stroke="#0A84FF" stroke-width="3"/><path d="M64.657 29.755l5.682-4.759M134.325 29.755l-5.682-4.759" stroke="#0A84FF" stroke-width="3" stroke-linecap="square"/><path d="M81.455 16.246h34.691M81.455 24.153h32.153M81.455 32.06h30.514" stroke="#0A84FF" stroke-width="3" stroke-linecap="round"/><path d="M65.182 31.337l18.88 12.652M134.413 31.337L115.53 43.989" stroke="#0A84FF" stroke-width="3" stroke-linecap="square"/><path d="M64.915 64.375c-.64.608-.837.828-1.006 1.089a1.99 1.99 0 0 0-.278.647c-.072.303-.096.596-.096 1.48v1.159c0 1.218.988 2.207 2.207 2.207h67.062a2.207 2.207 0 0 0 2.206-2.207v-1.257c0-.86-.021-1.144-.087-1.437a1.98 1.98 0 0 0-.256-.626c-.157-.255-.34-.474-.942-1.088L110.16 40.279c-3.228-3.297-4.813-4.398-6.927-5.075a9.398 9.398 0 0 0-5.499-.098c-2.137.6-3.76 1.644-7.104 4.823L64.915 64.375z" stroke="#0A84FF" stroke-width="3"/><path d="M63.608 31.864v35.848M134.937 31.864v35.848" stroke="#0A84FF" stroke-width="3" stroke-linecap="square"/></g></symbol>
  <symbol id="Mozilla" data-name="Mozilla" xmlns="http://www.w3.org/2000/svg" viewBox="0 0 2000 571.9"><title>Mozilla</title><rect width="2000" height="571.9" fill="#ffffff"/><path fill="#000000" d="M1910.2,410.5a38.17,38.17,0,0,1-10.5,1.7c-11.7,0-17.2-5-17.2-19.4V284.1c0-57.1-45.5-84.9-99.3-84.9-41.1,0-63.2,5-107.1,22.7l-9.8,57.6,57.1,6.1,8.1-28.2c11.7-6.1,23.3-7.2,38.3-7.2,40.5,0,41.1,30.5,41.1,56v8.3c-12.8-1.7-27.2-2.2-41.1-2.2-57.1,0-116.5,14.4-116.5,76,0,52.1,41,71.6,77.1,71.6,40.5,0,66-24.4,80.4-49.9,3.3,30.5,21.6,49.9,54.9,49.9a95.62,95.62,0,0,0,44.9-11.7Zm-153.6-1.6c-21.6,0-29.4-12.8-29.4-28.9,0-27.2,22.2-34.4,47.7-34.4,11.6,0,24.4,1.7,36.1,3.3C1809.3,390.6,1782.1,408.9,1756.6,408.9ZM1660.5,72.7,1552.3,454.4h-70.5L1590,72.7Zm-145.3,0L1407,454.4h-70.4L1444.8,72.7h70.4ZM1214.8,204.2h74.9V294h-74.9Zm0,160.3h74.9v89.9h-74.9Zm-109-3.3,56.6,5.5-15.5,87.7H928.3l-7.2-37.7,137.6-158.1H980.5l-11.1,38.8-51.6-5.6,8.9-87.7h219.7l5.6,37.7L1013.2,400h81Zm-358.5-162c-89.9,0-134.3,60.5-134.3,133.7,0,79.9,53.3,127,130.4,127,79.9,0,137.6-50.5,137.6-130.4C881,259.6,837.1,199.2,747.3,199.2ZM745.6,405c-38.8,0-58.8-33.3-58.8-76.6,0-47.2,22.7-74.3,59.4-74.3,33.8,0,61,22.7,61,73.2C807.2,375,782.8,405,745.6,405Zm-197-5h33.3v54.4H477V313.5c0-43.3-14.4-59.9-42.7-59.9C399.9,253.6,386,278,386,313v87h33.3v54.4H314.5V313.5c0-43.3-14.4-59.9-42.7-59.9-34.4,0-48.3,24.4-48.3,59.4v87h47.7v54.4H118.7V400H152V258.5H118.7V204.1H223.5v37.7c15-26.6,41.1-42.7,76-42.7,36.1,0,69.3,17.2,81.6,53.8,13.9-33.3,42.2-53.8,81.6-53.8,44.9,0,86,27.2,86,86.5V400Z"/></symbol>
  <symbol id="GitHub" xmlns="http://www.w3.org/2000/svg" viewBox="0 0 38.96 38"><path fill="#fff" d="M19.48 0a19.49 19.49 0 0 0-6.16 38c1 .18 1.33-.43 1.33-.94v-3.32c-5.44 1.15-6.59-2.64-6.59-2.64a5.14 5.14 0 0 0-2.16-2.85c-1.77-1.21.13-1.18.13-1.18a4.1 4.1 0 0 1 3 2 4.16 4.16 0 0 0 5.67 1.62 4.18 4.18 0 0 1 1.23-2.61c-4.32-.49-8.87-2.16-8.87-9.63a7.51 7.51 0 0 1 2-5.22 7 7 0 0 1 .19-5.16s1.63-.52 5.35 2a18.37 18.37 0 0 1 9.76 0c3.72-2.52 5.35-2 5.35-2a7 7 0 0 1 .19 5.16 7.51 7.51 0 0 1 2 5.22c0 7.49-4.56 9.13-8.9 9.62a4.64 4.64 0 0 1 1.32 3.6v5.35c0 .64.35 1.12 1.34.93A19.48 19.48 0 0 0 19.48 0z"/></symbol>
  <symbol id="facebook" width="9" height="21" xmlns="http://www.w3.org/2000/svg"><path d="M9 6.5H5.933V4.418c0-.782.505-.962.852-.962h2.167V.014L5.975 0C2.665 0 1.91 2.568 1.91 4.21V6.5H0v3.545h1.91v10.032h4.023V10.045h2.714L9 6.501" fill="#D7D7DB" fill-rule="evenodd"/></symbol>
  <symbol id="twitter" width="24" height="20" xmlns="http://www.w3.org/2000/svg"><path d="M19.2 3.918c-.019-.006-.032-.025-.05-.038-.897-.846-1.952-1.25-3.165-1.2l-.038-.088c.013-.007.02-.007.026-.007 1.099-.259 1.75-.518 1.945-.802.07-.227-.013-.354-.253-.385-.556.07-1.067.19-1.522.373.581-.373.802-.638.676-.771-.568.019-1.181.31-1.825.884.24-.41.328-.631.265-.67a5.09 5.09 0 0 0-.802.69 12.262 12.262 0 0 0-1.175 1.509l-.019.038c-.77 1.263-1.307 2.526-1.63 3.814l-.12.095-.025.025a6.082 6.082 0 0 0-1.68-1.471c-.783-.518-1.705-1.005-2.766-1.478a24.22 24.22 0 0 0-3.524-1.49c-.006 1.338.644 2.406 1.939 3.182v.026a4.042 4.042 0 0 0-1.326.195c.082 1.245.96 2.097 2.614 2.571l-.006.025c-.65-.038-1.187.19-1.604.663.543 1.074 1.51 1.592 2.905 1.548-.272.145-.493.303-.632.48-.259.265-.34.58-.259.947.304.543.84.796 1.636.758l.044.057-.025.025c-1.37 1.421-3.019 2.065-4.958 1.926l-.031.02C2.634 15.361 1.37 14.786 0 13.65c1.377 1.995 3.202 3.435 5.463 4.338 2.59.86 5.173.923 7.756.184h.044c2.508-.727 4.63-2.224 6.385-4.485.809-1.187 1.314-2.317 1.516-3.397 1.308.044 2.255-.335 2.836-1.144l-.013-.019c-.435.152-1.288.108-2.551-.151v-.145c0-.007 0-.007.006 0 1.383-.158 2.198-.607 2.463-1.352-.966.379-1.92.385-2.86.032-.171-1.314-1.784-2.508-2.845-3.594" fill="#D7D7DB"/></symbol>
  <symbol id="confirm-sending" xmlns="http://www.w3.org/2000/svg" viewBox="0 0 126.75 90.81"><g fill="#eaeaee" fill-opacity=".5" id="motion-lines"><path d="M38.75 59h1.5c.41 0 .75-.22.75-.5s-.34-.5-.75-.5h-1.5c-.41 0-.75.22-.75.5s.34.5.75.5zM28.75 59h4.5c.41 0 .75-.22.75-.5s-.34-.5-.75-.5h-4.5c-.41 0-.75.22-.75.5s.34.5.75.5zM18 58.5c0-.28-.32-.5-.72-.5H0v1h17.28c.4 0 .72-.22.72-.5zM43.27 73H28.73c-.4 0-.73.22-.73.5s.33.5.73.5h14.54c.4 0 .73-.22.73-.5s-.33-.5-.73-.5zM19.33 73h-2.66c-.37 0-.67.22-.67.5s.3.5.67.5h2.66c.37 0 .67-.22.67-.5s-.3-.5-.67-.5zM11.29 73H0v1h11.29c.39 0 .71-.22.71-.5s-.32-.5-.71-.5z" transform="translate(0 -2.77)"/><path d="M0 60.23h52.6v3H0z"/><path d="M52 58.5c0 .26.26.46.6.49V58c-.34 0-.6.24-.6.5z" transform="translate(0 -2.77)"/></g><path d="M126.75 50.37a8.78 8.78 0 0 0-.86-3.79 10.06 10.06 0 0 0-1.74-2.72c-.8-1-28.59-22.09-28.59-22.09l-.07-.05a10.45 10.45 0 0 0-6-2.45 10.13 10.13 0 0 0-6 2.47s-28 21.56-28.29 21.85a7.09 7.09 0 0 0-1.5 2 8.82 8.82 0 0 0-1.41 4.78v36.14a2.57 2.57 0 0 0 0 .67 3 3 0 0 0 .2.62A9 9 0 0 0 54 90.27a7.55 7.55 0 0 0 .74.75l.19.19.2.16a9.17 9.17 0 0 0 4.73 2.09h.44a4.78 4.78 0 0 0 .79.07H118a9.12 9.12 0 0 0 8.43-5.53 2.59 2.59 0 0 0 .32-1.23 2.29 2.29 0 0 0 0-.25zm-2.64 32.78c-.74-.63-1.72-1.41-2.92-2.37-2.48-2-6-4.63-10.31-8l-7.56-5.72L124.11 51zM57 45.54c.25-.22 28.12-21.72 28.12-21.72 1.73-1.3 3.06-1.94 4.39-1.94s2.68.65 4.45 1.94c0 0 27.51 20.91 28.2 21.72a5.57 5.57 0 0 1 1.47 2.52l-13.81 10.69c-.17-.2-9.35-9.42-9.35-9.42a10 10 0 0 0-13.4-.62c-.18.15-.35.31-.52.48A11.78 11.78 0 0 0 84.47 52c-.15.32-.28.64-.4 1a10.13 10.13 0 0 0-.6 3.39 9.94 9.94 0 0 0 2.44 6.52c.7-.71 1.44-1.47 2-2.08a3.92 3.92 0 0 0 .86-1.77 5.4 5.4 0 0 1-.77-2.68 5.5 5.5 0 0 1 .38-2c.06-.15.14-.29.21-.44a5.14 5.14 0 0 1 .28-.5.94.94 0 0 1 .12-.18 4.69 4.69 0 0 1 1.39-1.38l.12-.08a3 3 0 0 1 .4-.21 4.75 4.75 0 0 1 .77-.34 5.41 5.41 0 0 1 5.61 1.27l8.82 8.82c.06.06.1.12.15.18l-5.09 4L99 67.14l-4.75 3.69c-1.83 1.37-3.23 2-4.64 2a7.12 7.12 0 0 1-3.87-1.47l4.19-4.19 3.07-3.3.09-.15a9.91 9.91 0 0 0-.43-11.32 3.89 3.89 0 0 0-3.27 3.27 5.39 5.39 0 0 1 .74 2.7 5.49 5.49 0 0 1-.39 2 5.38 5.38 0 0 1-1.2 1.83l-1.68 1.68-4.76 4.77-2-1.56-2.14-1.67-4.5-3.49 7.41-7.41a5.73 5.73 0 0 1 1.64-1.11 13.29 13.29 0 0 1 3-5 9.94 9.94 0 0 0-7.8 2.87L69.9 59.1 55.51 48A7 7 0 0 1 57 45.54zm-2 5.35l20.77 16.16c-2.33 1.76-5 3.76-7.61 5.77-4.36 3.31-12.48 9.68-13.22 10.3zm69.07 35.91A6.54 6.54 0 0 1 118 91H61.12a46.9 46.9 0 0 1-5.06-2.36A6.32 6.32 0 0 1 55 86.73c-.18-.48 14.1-11.32 22.95-18l5.37 4.16a.18.18 0 0 0 .07.05c1.73 1.26 3.83 2.56 6.26 2.56s4.53-1.31 6.23-2.58l5.33-4.14c8.88 6.68 23.1 17.48 22.92 18z" transform="translate(0 -2.77)" fill="#0a84ff" id="envelope-and-links"/><g id="stars"><path id="path-8" d="M88 2.39a4.49 4.49 0 0 1-3.25 3.24 1.5 1.5 0 0 0-1.14 1.45 1.49 1.49 0 0 0 1.13 1.45A4.5 4.5 0 0 1 88 11.77a1.49 1.49 0 0 0 2.9 0 4.49 4.49 0 0 1 3.24-3.25 1.49 1.49 0 0 0 1.14-1.45 1.5 1.5 0 0 0-1.15-1.44 4.47 4.47 0 0 1-3.24-3.24 1.49 1.49 0 0 0-2.9 0M99 7.68a8.86 8.86 0 0 1-6.47 6.45 1.66 1.66 0 0 0-1.24 1.6 1.65 1.65 0 0 0 1.25 1.57A8.93 8.93 0 0 1 99 23.77a1.66 1.66 0 0 0 1.59 1.24 1.63 1.63 0 0 0 1.58-1.25 8.93 8.93 0 0 1 6.45-6.46 1.63 1.63 0 0 0 0-3.17 8.9 8.9 0 0 1-6.46-6.46 1.63 1.63 0 0 0-3.17 0m-16.3 7.62a14 14 0 0 1-10.12 10.12 1.8 1.8 0 0 0-1.39 1.73 1.83 1.83 0 0 0 1.39 1.76 14 14 0 0 1 10.12 10.11 1.79 1.79 0 0 0 3.48 0A14 14 0 0 1 96.3 28.9a1.81 1.81 0 0 0 1.37-1.76 1.76 1.76 0 0 0-1.38-1.72A14 14 0 0 1 86.17 15.3a1.79 1.79 0 0 0-3.48 0" fill="#0a84ff" stroke="#fff" stroke-linejoin="round" stroke-width="2.5"/></g></symbol>
</svg>
