
<svg style="display:block; width:0; height:0;">
  <symbol id="subscribe" width="137" height="73" xmlns="http://www.w3.org/2000/svg"><g fill="none" fill-rule="evenodd"><path d="M55.399 40.826c-.39 0-.707-.236-.707-.527 0-.291.317-.527.707-.527h6.979c.39 0 .706.236.706.527 0 .29-.316.527-.706.527h-6.98zM42.367 40.826h-1.573c-.435 0-.787-.236-.787-.527 0-.291.352-.527.787-.527h1.573c.434 0 .787.236.787.527 0 .29-.353.527-.787.527M35.024 40.826h-4.72c-.434 0-.787-.236-.787-.527 0-.291.353-.527.787-.527h4.72c.435 0 .787.236.787.527 0 .29-.352.527-.787.527M.147 39.772h18.126c.417 0 .755.236.755.527 0 .29-.338.527-.755.527H.147M.147 48.207h62.505c.818 0 1.48-.707 1.48-1.582 0-.875-.662-1.582-1.48-1.582H.147M62.35 56.641h-5.874c-.406 0-.735-.236-.735-.527 0-.29.33-.527.735-.527h5.874c.405 0 .734.236.734.527 0 .291-.329.527-.734.527M45.538 56.641H30.28c-.42 0-.763-.236-.763-.527 0-.29.342-.527.763-.527h15.258c.42 0 .763.236.763.527 0 .291-.342.527-.763.527M20.427 56.641h-2.798c-.386 0-.699-.236-.699-.527 0-.29.313-.527.7-.527h2.797c.386 0 .699.236.699.527 0 .291-.313.527-.7.527M.147 55.587h11.847c.409 0 .74.236.74.527 0 .291-.331.527-.74.527H.147" fill-opacity=".5" fill="#EAEAEE"/><path d="M71.611 34.904V11.199c0-2.895 2.334-5.241 5.214-5.241h45.105c2.88 0 5.215 2.346 5.215 5.24v23.706" stroke="#0A84FF" stroke-width="3"/><path d="M92.481 6.033c2.704-2.99 5.492-4.485 8.365-4.485s5.456 1.495 7.75 4.485" stroke="#0A84FF" stroke-width="3"/><path d="M64.657 29.755l5.682-4.759M134.325 29.755l-5.682-4.759" stroke="#0A84FF" stroke-width="3" stroke-linecap="square"/><path d="M81.455 16.246h34.691M81.455 24.153h32.153M81.455 32.06h30.514" stroke="#0A84FF" stroke-width="3" stroke-linecap="round"/><path d="M65.182 31.337l18.88 12.652M134.413 31.337L115.53 43.989" stroke="#0A84FF" stroke-width="3" stroke-linecap="square"/><path d="M64.915 64.375c-.64.608-.837.828-1.006 1.089a1.99 1.99 0 0 0-.278.647c-.072.303-.096.596-.096 1.48v1.159c0 1.218.988 2.207 2.207 2.207h67.062a2.207 2.207 0 0 0 2.206-2.207v-1.257c0-.86-.021-1.144-.087-1.437a1.98 1.98 0 0 0-.256-.626c-.157-.255-.34-.474-.942-1.088L110.16 40.279c-3.228-3.297-4.813-4.398-6.927-5.075a9.398 9.398 0 0 0-5.499-.098c-2.137.6-3.76 1.644-7.104 4.823L64.915 64.375z" stroke="#0A84FF" stroke-width="3"/><path d="M63.608 31.864v35.848M134.937 31.864v35.848" stroke="#0A84FF" stroke-width="3" stroke-linecap="square"/></g></symbol>
  <symbol id="Mozilla" data-name="Mozilla" xmlns="http://www.w3.org/2000/svg" viewBox="0 0 2000 571.9"><title>Mozilla</title><rect width="2000" height="571.9" fill="#ffffff"/><path fill="#000000" d="M1910.2,410.5a38.17,38.17,0,0,1-10.5,1.7c-11.7,0-17.2-5-17.2-19.4V284.1c0-57.1-45.5-84.9-99.3-84.9-41.1,0-63.2,5-107.1,22.7l-9.8,57.6,57.1,6.1,8.1-28.2c11.7-6.1,23.3-7.2,38.3-7.2,40.5,0,41.1,30.5,41.1,56v8.3c-12.8-1.7-27.2-2.2-41.1-2.2-57.1,0-116.5,14.4-116.5,76,0,52.1,41,71.6,77.1,71.6,40.5,0,66-24.4,80.4-49.9,3.3,30.5,21.6,49.9,54.9,49.9a95.62,95.62,0,0,0,44.9-11.7Zm-153.6-1.6c-21.6,0-29.4-12.8-29.4-28.9,0-27.2,22.2-34.4,47.7-34.4,11.6,0,24.4,1.7,36.1,3.3C1809.3,390.6,1782.1,408.9,1756.6,408.9ZM1660.5,72.7,1552.3,454.4h-70.5L1590,72.7Zm-145.3,0L1407,454.4h-70.4L1444.8,72.7h70.4ZM1214.8,204.2h74.9V294h-74.9Zm0,160.3h74.9v89.9h-74.9Zm-109-3.3,56.6,5.5-15.5,87.7H928.3l-7.2-37.7,137.6-158.1H980.5l-11.1,38.8-51.6-5.6,8.9-87.7h219.7l5.6,37.7L1013.2,400h81Zm-358.5-162c-89.9,0-134.3,60.5-134.3,133.7,0,79.9,53.3,127,130.4,127,79.9,0,137.6-50.5,137.6-130.4C881,259.6,837.1,199.2,747.3,199.2ZM745.6,405c-38.8,0-58.8-33.3-58.8-76.6,0-47.2,22.7-74.3,59.4-74.3,33.8,0,61,22.7,61,73.2C807.2,375,782.8,405,745.6,405Zm-197-5h33.3v54.4H477V313.5c0-43.3-14.4-59.9-42.7-59.9C399.9,253.6,386,278,386,313v87h33.3v54.4H314.5V313.5c0-43.3-14.4-59.9-42.7-59.9-34.4,0-48.3,24.4-48.3,59.4v87h47.7v54.4H118.7V400H152V258.5H118.7V204.1H223.5v37.7c15-26.6,41.1-42.7,76-42.7,36.1,0,69.3,17.2,81.6,53.8,13.9-33.3,42.2-53.8,81.6-53.8,44.9,0,86,27.2,86,86.5V400Z"/></symbol>
  <symbol id="GitHub" xmlns="http://www.w3.org/2000/svg" viewBox="0 0 38.96 38"><path fill="#fff" d="M19.48 0a19.49 19.49 0 0 0-6.16 38c1 .18 1.33-.43 1.33-.94v-3.32c-5.44 1.15-6.59-2.64-6.59-2.64a5.14 5.14 0 0 0-2.16-2.85c-1.77-1.21.13-1.18.13-1.18a4.1 4.1 0 0 1 3 2 4.16 4.16 0 0 0 5.67 1.62 4.18 4.18 0 0 1 1.23-2.61c-4.32-.49-8.87-2.16-8.87-9.63a7.51 7.51 0 0 1 2-5.22 7 7 0 0 1 .19-5.16s1.63-.52 5.35 2a18.37 18.37 0 0 1 9.76 0c3.72-2.52 5.35-2 5.35-2a7 7 0 0 1 .19 5.16 7.51 7.51 0 0 1 2 5.22c0 7.49-4.56 9.13-8.9 9.62a4.64 4.64 0 0 1 1.32 3.6v5.35c0 .64.35 1.12 1.34.93A19.48 19.48 0 0 0 19.48 0z"/></symbol>
  <symbol id="facebook-round" width="50" height="50" xmlns="http://www.w3.org/2000/svg"><path d="M25 50C11.193 50 0 38.807 0 25S11.193 0 25 0s25 11.193 25 25-11.193 25-25 25zm4-28.5h-3.067v-2.083c0-.782.505-.962.852-.962h2.167v-3.441L25.975 15c-3.31 0-4.064 2.568-4.064 4.21v2.29H20v3.545h1.91v10.032h4.023V25.045h2.714L29 21.501z" fill="#FFF" fill-rule="evenodd"/></symbol>
  <symbol id="facebook" width="9" height="21" xmlns="http://www.w3.org/2000/svg"><path d="M9 6.5H5.933V4.418c0-.782.505-.962.852-.962h2.167V.014L5.975 0C2.665 0 1.91 2.568 1.91 4.21V6.5H0v3.545h1.91v10.032h4.023V10.045h2.714L9 6.501" fill="#D7D7DB" fill-rule="evenodd"/></symbol>
  <symbol id="twitter-round" width="50" height="50" xmlns="http://www.w3.org/2000/svg"><path d="M25 50C11.193 50 0 38.807 0 25S11.193 0 25 0s25 11.193 25 25-11.193 25-25 25zm7.2-31.082c-.019-.006-.032-.025-.05-.038-.897-.846-1.952-1.25-3.165-1.2l-.038-.088c.013-.007.02-.007.026-.007 1.099-.259 1.75-.518 1.945-.802.07-.227-.013-.354-.253-.385-.556.07-1.067.19-1.522.373.581-.373.802-.638.676-.771-.568.019-1.181.31-1.825.884.24-.41.328-.631.265-.67a5.09 5.09 0 0 0-.802.69 12.262 12.262 0 0 0-1.175 1.509l-.019.038c-.77 1.263-1.307 2.526-1.63 3.814l-.12.095-.025.025a6.082 6.082 0 0 0-1.68-1.471c-.783-.518-1.705-1.005-2.766-1.478a24.22 24.22 0 0 0-3.524-1.49c-.006 1.338.644 2.406 1.939 3.182v.026a4.042 4.042 0 0 0-1.326.195c.082 1.245.96 2.097 2.614 2.571l-.006.025c-.65-.038-1.187.19-1.604.663.543 1.074 1.51 1.592 2.905 1.548-.272.145-.493.303-.632.48-.259.265-.34.58-.259.947.304.543.84.796 1.636.758l.044.057-.025.025c-1.37 1.421-3.019 2.065-4.958 1.926l-.031.02c-1.181-.007-2.444-.582-3.815-1.718 1.377 1.995 3.202 3.435 5.463 4.338 2.59.86 5.173.923 7.756.184h.044c2.508-.727 4.63-2.224 6.385-4.485.809-1.187 1.314-2.317 1.516-3.397 1.308.044 2.255-.335 2.836-1.144l-.013-.019c-.435.152-1.288.108-2.551-.151v-.145c0-.007 0-.007.006 0 1.383-.158 2.198-.607 2.463-1.352-.966.379-1.92.385-2.86.032-.171-1.314-1.784-2.508-2.845-3.594h1z" fill="#FFF" fill-rule="evenodd"/></symbol>
  <symbol id="twitter" width="24" height="20" xmlns="http://www.w3.org/2000/svg"><path d="M19.2 3.918c-.019-.006-.032-.025-.05-.038-.897-.846-1.952-1.25-3.165-1.2l-.038-.088c.013-.007.02-.007.026-.007 1.099-.259 1.75-.518 1.945-.802.07-.227-.013-.354-.253-.385-.556.07-1.067.19-1.522.373.581-.373.802-.638.676-.771-.568.019-1.181.31-1.825.884.24-.41.328-.631.265-.67a5.09 5.09 0 0 0-.802.69 12.262 12.262 0 0 0-1.175 1.509l-.019.038c-.77 1.263-1.307 2.526-1.63 3.814l-.12.095-.025.025a6.082 6.082 0 0 0-1.68-1.471c-.783-.518-1.705-1.005-2.766-1.478a24.22 24.22 0 0 0-3.524-1.49c-.006 1.338.644 2.406 1.939 3.182v.026a4.042 4.042 0 0 0-1.326.195c.082 1.245.96 2.097 2.614 2.571l-.006.025c-.65-.038-1.187.19-1.604.663.543 1.074 1.51 1.592 2.905 1.548-.272.145-.493.303-.632.48-.259.265-.34.58-.259.947.304.543.84.796 1.636.758l.044.057-.025.025c-1.37 1.421-3.019 2.065-4.958 1.926l-.031.02C2.634 15.361 1.37 14.786 0 13.65c1.377 1.995 3.202 3.435 5.463 4.338 2.59.86 5.173.923 7.756.184h.044c2.508-.727 4.63-2.224 6.385-4.485.809-1.187 1.314-2.317 1.516-3.397 1.308.044 2.255-.335 2.836-1.144l-.013-.019c-.435.152-1.288.108-2.551-.151v-.145c0-.007 0-.007.006 0 1.383-.158 2.198-.607 2.463-1.352-.966.379-1.92.385-2.86.032-.171-1.314-1.784-2.508-2.845-3.594" fill="#D7D7DB"/></symbol>
  <symbol id="confirm-sending" width="127" height="94" xmlns="http://www.w3.org/2000/svg" xmlns:xlink="http://www.w3.org/1999/xlink"><defs><path id="a" d="M.272.77h74.453v34.684H.272z"/><path d="M.1.772a12.635 12.635 0 0 0 2.076 2.286l.036-.002c1.331 0 2.67.654 4.423 1.948l1.19.934c.498.217.92.557 1.239.974l.206.164a3.06 3.06 0 0 1-.788-1.37A7.616 7.616 0 0 0 4.837.947C4.014.631 3.139.428 2.212.428 1.469.43.769.563.1.772" id="c"/><path id="d" d="M.748 3.635L4.042 6.93l.184.183 3.583-2.815-.184-.182L3.81.297z"/><linearGradient x1="50%" y1="0%" x2="50%" y2="100%" id="f"><stop stop-color="#FFF" stop-opacity=".5" offset="0%"/><stop stop-opacity=".5" offset="100%"/></linearGradient><path d="M17.092 1.417a4.475 4.475 0 0 1-3.235 3.241 1.5 1.5 0 0 0-1.145 1.453c0 .686.47 1.284 1.138 1.45a4.478 4.478 0 0 1 3.242 3.239c.17.673.766 1.145 1.453 1.145a1.5 1.5 0 0 0 1.45-1.141 4.475 4.475 0 0 1 3.24-3.241 1.502 1.502 0 0 0 1.143-1.452c0-.686-.472-1.283-1.14-1.451a4.48 4.48 0 0 1-3.242-3.237A1.498 1.498 0 0 0 18.545.279c-.687 0-1.283.47-1.453 1.138m11.054 5.294a8.88 8.88 0 0 1-6.468 6.45 1.65 1.65 0 0 0-1.24 1.6 1.641 1.641 0 0 0 1.253 1.57 8.925 8.925 0 0 1 6.46 6.464 1.65 1.65 0 0 0 1.584 1.242c.753 0 1.404-.52 1.585-1.252a8.913 8.913 0 0 1 6.445-6.452 1.64 1.64 0 0 0 1.263-1.586 1.64 1.64 0 0 0-1.254-1.585A8.918 8.918 0 0 1 31.317 6.7a1.651 1.651 0 0 0-1.586-1.242c-.752 0-1.405.52-1.585 1.254m-16.352 7.61A13.968 13.968 0 0 1 1.679 24.442C.854 24.645.296 25.34.29 26.17c-.007.82.558 1.542 1.381 1.757a13.969 13.969 0 0 1 10.122 10.114c.2.82.916 1.392 1.738 1.392.828 0 1.529-.555 1.746-1.383A13.972 13.972 0 0 1 25.41 27.924c.814-.212 1.378-.933 1.37-1.754-.003-.83-.561-1.525-1.38-1.725a13.968 13.968 0 0 1-10.121-10.118c-.205-.818-.92-1.388-1.74-1.388-.827 0-1.528.553-1.745 1.381" id="e"/></defs><g fill="none" fill-rule="evenodd"><path d="M52.673 59c-.371 0-.673-.224-.673-.5s.302-.5.673-.5h6.654c.371 0 .673.224.673.5s-.302.5-.673.5h-6.654zM40.25 59h-1.5c-.414 0-.75-.224-.75-.5s.336-.5.75-.5h1.5c.414 0 .75.224.75.5s-.336.5-.75.5M33.25 59h-4.5c-.414 0-.75-.224-.75-.5s.336-.5.75-.5h4.5c.414 0 .75.224.75.5s-.336.5-.75.5M0 58h17.28c.397 0 .72.224.72.5s-.323.5-.72.5H0M0 66h59.589c.779 0 1.411-.67 1.411-1.5s-.632-1.5-1.411-1.5H0M59.3 74h-5.6c-.386 0-.7-.224-.7-.5s.314-.5.7-.5h5.6c.386 0 .7.224.7.5s-.314.5-.7.5M43.273 74H28.727c-.401 0-.727-.224-.727-.5s.326-.5.727-.5h14.546c.401 0 .727.224.727.5s-.326.5-.727.5M19.333 74h-2.666c-.368 0-.667-.224-.667-.5s.299-.5.667-.5h2.666c.368 0 .667.224.667.5s-.299.5-.667.5M0 73h11.294c.39 0 .706.224.706.5s-.316.5-.706.5H0" fill-opacity=".5" fill="#EAEAEE"/><path d="M124.112 87.818a1.33 1.33 0 0 1-.76-.239L89.672 64.17 55.995 87.58a1.326 1.326 0 0 1-1.367.093 1.305 1.305 0 0 1-.712-1.159V50.372c0-4.236 3.489-7.682 7.778-7.682h55.961c4.29 0 7.778 3.446 7.778 7.682v36.142c0 .486-.274.934-.712 1.159a1.354 1.354 0 0 1-.608.145" fill="#FFF"/><path d="M117.654 41.387H61.693c-5.017 0-9.098 4.03-9.098 8.986v36.14c0 .974.55 1.867 1.424 2.316a2.672 2.672 0 0 0 2.736-.183l32.918-22.882 32.92 22.882a2.666 2.666 0 0 0 2.735.182 2.601 2.601 0 0 0 1.425-2.314V50.373c0-4.956-4.083-8.986-9.099-8.986m0 2.606c3.568 0 6.458 2.856 6.458 6.38v36.14l-34.44-23.936-34.437 23.937V50.373c0-3.524 2.891-6.38 6.458-6.38h55.961" fill="#0A84FF"/><path d="M61.247 92.276c-.2 0-.393-.025-.583-.054l-.16-.02a2.405 2.405 0 0 1-.443-.082c.056.02.15.048.268.063a7.865 7.865 0 0 1-4.232-1.839c-.041-.027-.08-.059-.112-.084a1.24 1.24 0 0 1-.16-.161 6.528 6.528 0 0 1-.655-.652 7.717 7.717 0 0 1-1.278-2.164.807.807 0 0 1-.042-.09 1.494 1.494 0 0 1-.064-.207.765.765 0 0 1-.03-.303 1.3 1.3 0 0 1 .497-.993l.043.054c1.655-1.92 7.938-6.89 29.802-23.205 2.19-1.64 3.837-2.34 5.502-2.34 1.675 0 3.283.675 5.556 2.332 21.719 16.197 28.092 21.228 29.81 23.192l.03-.042c.53.384.712 1.106.405 1.68a.523.523 0 0 0-.03.054c-1.215 2.96-4.056 4.86-7.285 4.86h-56.84z" fill="#FFF"/><g transform="translate(52.152 58.126)"><mask id="b" fill="#fff"><use xlink:href="#a"/></mask><path d="M37.449.77c-2.487 0-4.58 1.316-6.303 2.604-.071.054-7.609 5.681-15.016 11.318-4.358 3.316-7.822 5.99-10.297 7.946a134.998 134.998 0 0 0-3.419 2.775c-1.19 1.015-2.42 2.063-2.086 3.64.038.208.104.416.196.617.354.898.85 1.732 1.473 2.478.257.308.517.547.737.744a2.795 2.795 0 0 0 .393.35 9.14 9.14 0 0 0 4.73 2.087 2.312 2.312 0 0 0 .434.054l.018.003c.18.027.452.068.787.068h56.836c3.745 0 7.04-2.186 8.476-5.594.212-.387.314-.807.317-1.224.043-1.335-1.065-2.28-2.14-3.198a125.163 125.163 0 0 0-3.423-2.779c-2.476-1.96-5.946-4.637-10.31-7.958-7.418-5.643-14.966-11.273-15.04-11.33C42.032 2.077 39.908.77 37.45.77m0 2.607c1.438 0 2.878.698 4.772 2.077 0 0 30.107 22.455 29.843 23.154l.02.015c-.01.018-.029.031-.038.05a6.546 6.546 0 0 1-6.114 4.176H9.096c-.214 0-.411-.05-.62-.07h-.083c-.02-.003-.038-.014-.06-.017a6.512 6.512 0 0 1-3.579-1.578c-.02-.016-.043-.023-.061-.04l.01-.008c-.23-.207-.47-.408-.668-.646a6.424 6.424 0 0 1-1.098-1.89c-.004-.005-.01-.009-.012-.014l.006-.005c-.253-.69 29.81-23.127 29.81-23.127 1.857-1.39 3.28-2.077 4.708-2.077" fill="#0A84FF" mask="url(#b)"/></g><g><path d="M90.375 51.64c.04-.027.076-.055.117-.08-.04.025-.08.052-.117.08M93.111 63.501l-.023-.025c-.03.049-.057.1-.088.147l.111-.122z" fill="#0A84FF"/><path d="M89.584 74.509c-1.654-.01-3.239-.684-5.47-2.33L54.812 49.173a1.295 1.295 0 0 1-.426-1.444c.119-.342.765-2.092 1.848-3.031a6.574 6.574 0 0 1 1.077-.733L84.543 23.09c2.089-1.544 3.643-2.192 5.215-2.183 1.583.009 3.094.651 5.219 2.219l25.983 20.397c.87.308 1.616.855 2.326 1.698 1.501 1.783 1.722 2.923 1.753 3.229.046.446-.144.886-.504 1.162L95.046 72.217c-2.189 1.62-3.817 2.3-5.461 2.292h-.001z" fill="#FFF"/><path d="M78.38 56.994l2.471-2.471a5.398 5.398 0 0 1 1.64-1.11c.412-1.302 1.342-3.264 2.955-4.966-2.795-.209-5.663.745-7.795 2.877l-4.438 4.44-3.549 3.548-.183.183 3.583 2.815.184-.184 5.132-5.132zM93 63.87c.031-.048.058-.1.088-.147a9.884 9.884 0 0 0 1.568-5.355 9.88 9.88 0 0 0-1.996-5.965c-2.53.463-3.132 2.454-3.269 3.268.47.814.74 1.73.74 2.697 0 .7-.138 1.377-.389 2.01a5.412 5.412 0 0 1-1.203 1.833l-1.68 1.682-4.998 4.997-.184.184 3.288 2.583c.11.082.205.137.312.214l.196-.195 4.454-4.454L93 63.869z" fill="#0A84FF"/></g><g fill="#0A84FF"><path d="M87.074 48.71c-.18.15-.356.312-.529.477a11.81 11.81 0 0 0-2.07 2.847 10.04 10.04 0 0 0-1.002 4.341c0 2.331.82 4.655 2.442 6.521.7-.702 1.435-1.468 1.947-2.077.53-.628.76-1.27.858-1.77a5.388 5.388 0 0 1-.728-2.674c0-.692.135-1.361.382-1.986.06-.15.14-.29.21-.436.08-.166.168-.335.272-.505.037-.06.079-.118.121-.177a4.777 4.777 0 0 1 1.397-1.385l.117-.08c.125-.077.263-.142.4-.21.25-.132.506-.249.771-.34 1.903-.653 4.096-.24 5.61 1.274l8.82 8.82c.126.127.225.274.336.41.056.067.113.132.165.201l3.566-2.802c-.052-.068-.1-.14-.154-.207a9.977 9.977 0 0 0-.714-.799l-8.82-8.821a9.921 9.921 0 0 0-7.039-2.91 9.927 9.927 0 0 0-6.358 2.287"/></g><path d="M89.604 19.274c-2.37 0-4.354 1.246-5.983 2.466 0 0-27.953 21.562-28.282 21.85-1.292 1.134-2.013 3.04-2.203 3.598a2.585 2.585 0 0 0 .87 2.884l29.403 22.81a.985.985 0 0 0 .063.048c1.733 1.263 3.833 2.555 6.267 2.555 2.459 0 4.528-1.303 6.229-2.575l29.393-22.803a2.59 2.59 0 0 0 .994-2.33c-.057-.511-.37-1.916-2.075-3.917-.805-.946-28.597-22.094-28.597-22.094l-.063-.047c-1.66-1.21-3.672-2.445-6.016-2.445m0 2.608c1.34 0 2.684.65 4.448 1.935 0 0 27.519 20.912 28.208 21.72 1.37 1.61 1.47 2.52 1.47 2.52L94.373 70.834c-1.829 1.368-3.23 2.043-4.634 2.043-1.418 0-2.837-.686-4.7-2.043l-29.402-22.81s.587-1.722 1.457-2.485c.25-.22 28.122-21.72 28.122-21.72 1.732-1.295 3.057-1.936 4.388-1.936" fill="#0A84FF"/><g><g transform="translate(68.91 1.348)"><use fill="#D8D8D8" xlink:href="#e"/><use fill="url(#f)" xlink:href="#e"/><use fill="#0A84FF" xlink:href="#e"/></g></g><g fill="#FFF"><path d="M87.454.313c-1.29 0-2.411.88-2.726 2.14a3.16 3.16 0 0 1-2.288 2.281A2.809 2.809 0 0 0 80.31 7.46c0 1.29.88 2.411 2.138 2.727a3.155 3.155 0 0 1 2.283 2.288 2.809 2.809 0 0 0 2.724 2.131 2.81 2.81 0 0 0 2.726-2.139 3.16 3.16 0 0 1 2.288-2.282A2.81 2.81 0 0 0 94.6 7.459a2.81 2.81 0 0 0-2.14-2.726 3.164 3.164 0 0 1-2.282-2.289A2.809 2.809 0 0 0 87.454.313m0 2.626c.077 0 .153.05.18.15a5.796 5.796 0 0 0 4.19 4.191c.2.05.2.308 0 .358a5.798 5.798 0 0 0-4.19 4.191c-.027.1-.103.15-.18.15s-.153-.05-.179-.15a5.8 5.8 0 0 0-4.19-4.191c-.2-.05-.2-.308 0-.358a5.798 5.798 0 0 0 4.19-4.191c.026-.1.102-.15.179-.15"/><path d="M98.64 5.491a2.95 2.95 0 0 0-2.863 2.265 7.554 7.554 0 0 1-5.493 5.475c-1.351.357-2.261 1.543-2.248 2.891a2.957 2.957 0 0 0 2.263 2.835 7.596 7.596 0 0 1 5.483 5.498c.355 1.333 1.529 2.243 2.864 2.243a2.951 2.951 0 0 0 2.863-2.262 7.6 7.6 0 0 1 5.5-5.485 2.942 2.942 0 0 0 2.24-2.856 2.95 2.95 0 0 0-2.263-2.862 7.598 7.598 0 0 1-5.484-5.5c-.353-1.33-1.526-2.242-2.862-2.242m0 2.626c.135 0 .27.088.316.263a10.27 10.27 0 0 0 7.405 7.405c.35.085.35.535 0 .62a10.27 10.27 0 0 0-7.405 7.404c-.042.176-.176.263-.31.263-.136 0-.27-.087-.318-.263a10.266 10.266 0 0 0-7.404-7.403c-.35-.086-.35-.536 0-.63a10.22 10.22 0 0 0 7.404-7.396c.044-.175.176-.263.312-.263"/><path d="M82.449 12.975a3.125 3.125 0 0 0-3.013 2.356 12.668 12.668 0 0 1-9.18 9.19 3.112 3.112 0 0 0-2.37 2.99c-.01 1.421.96 2.669 2.356 3.032a12.668 12.668 0 0 1 9.19 9.18 3.106 3.106 0 0 0 3.01 2.37c1.413 0 2.653-.968 3.012-2.355a12.67 12.67 0 0 1 9.18-9.19c1.41-.368 2.38-1.616 2.37-3.038-.009-1.418-.99-2.649-2.388-2.994a12.656 12.656 0 0 1-9.158-9.17 3.106 3.106 0 0 0-3.01-2.371m0 2.626c.2 0 .401.13.465.39 1.378 5.427 5.647 9.704 11.074 11.074.523.13.523.8 0 .936-5.427 1.378-9.704 5.648-11.074 11.075-.068.26-.27.391-.471.391-.2 0-.4-.13-.463-.39-1.38-5.428-5.65-9.705-11.075-11.076-.522-.135-.522-.806 0-.936 5.425-1.376 9.704-5.647 11.075-11.074.066-.26.269-.39.47-.39"/></g></g></symbol>
</svg>
