<?xml version="1.0" encoding="UTF-8"?>
<svg width="137px" height="73px" viewBox="0 0 137 73" version="1.1" xmlns="http://www.w3.org/2000/svg" xmlns:xlink="http://www.w3.org/1999/xlink">
    <!-- Generator: Sketch 51.1 (57501) - http://www.bohemiancoding.com/sketch -->
    <title>Subscribe Icon</title>
    <desc>Created with Sketch.</desc>
    <defs></defs>
    <g id="Page-1" stroke="none" stroke-width="1" fill="none" fill-rule="evenodd">
        <g id="Homepage" transform="translate(-205.000000, -624.000000)">
            <g id="Hero-Space" transform="translate(199.000000, 248.000000)">
                <g id="Subscribe" transform="translate(1.000000, 331.000000)">
                    <g id="Subscribe-Icon" transform="translate(2.000000, 31.000000)">
                        <path d="M58.3985669,54.826087 C58.0087118,54.826087 57.6923077,54.589913 57.6923077,54.298913 C57.6923077,54.007913 58.0087118,53.7717391 58.3985669,53.7717391 L65.3776569,53.7717391 C65.767512,53.7717391 66.0839161,54.007913 66.0839161,54.298913 C66.0839161,54.589913 65.767512,54.826087 65.3776569,54.826087 L58.3985669,54.826087 Z" id="Fill-1" fill-opacity="0.5" fill="#EAEAEE" fill-rule="evenodd"></path>
                        <path d="M45.3671329,54.826087 L43.7937063,54.826087 C43.3594406,54.826087 43.006993,54.589913 43.006993,54.298913 C43.006993,54.007913 43.3594406,53.7717391 43.7937063,53.7717391 L45.3671329,53.7717391 C45.8013986,53.7717391 46.1538462,54.007913 46.1538462,54.298913 C46.1538462,54.589913 45.8013986,54.826087 45.3671329,54.826087" id="Fill-3" fill-opacity="0.5" fill="#EAEAEE" fill-rule="evenodd"></path>
                        <path d="M38.0244755,54.826087 L33.3041958,54.826087 C32.8699301,54.826087 32.5174825,54.589913 32.5174825,54.298913 C32.5174825,54.007913 32.8699301,53.7717391 33.3041958,53.7717391 L38.0244755,53.7717391 C38.4587413,53.7717391 38.8111888,54.007913 38.8111888,54.298913 C38.8111888,54.589913 38.4587413,54.826087 38.0244755,54.826087" id="Fill-5" fill-opacity="0.5" fill="#EAEAEE" fill-rule="evenodd"></path>
                        <path d="M3.14685315,53.7717391 L21.2727273,53.7717391 C21.6896224,53.7717391 22.027972,54.007913 22.027972,54.298913 C22.027972,54.589913 21.6896224,54.826087 21.2727273,54.826087 L3.14685315,54.826087" id="Fill-7" fill-opacity="0.5" fill="#EAEAEE" fill-rule="evenodd"></path>
                        <path d="M3.14685315,62.2065217 L65.6523687,62.2065217 C66.4696038,62.2065217 67.1328671,61.4995815 67.1328671,60.625 C67.1328671,59.7504185 66.4696038,59.0434783 65.6523687,59.0434783 L3.14685315,59.0434783" id="Fill-9" fill-opacity="0.5" fill="#EAEAEE" fill-rule="evenodd"></path>
                        <path d="M65.3496503,70.6413043 L59.4755245,70.6413043 C59.0702098,70.6413043 58.7412587,70.4051304 58.7412587,70.1141304 C58.7412587,69.8231304 59.0702098,69.5869565 59.4755245,69.5869565 L65.3496503,69.5869565 C65.754965,69.5869565 66.0839161,69.8231304 66.0839161,70.1141304 C66.0839161,70.4051304 65.754965,70.6413043 65.3496503,70.6413043" id="Fill-13" fill-opacity="0.5" fill="#EAEAEE" fill-rule="evenodd"></path>
                        <path d="M48.5378258,70.6413043 L33.280356,70.6413043 C32.8592498,70.6413043 32.5174825,70.4051304 32.5174825,70.1141304 C32.5174825,69.8231304 32.8592498,69.5869565 33.280356,69.5869565 L48.5378258,69.5869565 C48.958932,69.5869565 49.3006993,69.8231304 49.3006993,70.1141304 C49.3006993,70.4051304 48.958932,70.6413043 48.5378258,70.6413043" id="Fill-15" fill-opacity="0.5" fill="#EAEAEE" fill-rule="evenodd"></path>
                        <path d="M23.4265734,70.6413043 L20.6293706,70.6413043 C20.2433566,70.6413043 19.9300699,70.4051304 19.9300699,70.1141304 C19.9300699,69.8231304 20.2433566,69.5869565 20.6293706,69.5869565 L23.4265734,69.5869565 C23.8125874,69.5869565 24.1258741,69.8231304 24.1258741,70.1141304 C24.1258741,70.4051304 23.8125874,70.6413043 23.4265734,70.6413043" id="Fill-17" fill-opacity="0.5" fill="#EAEAEE" fill-rule="evenodd"></path>
                        <path d="M3.14685315,69.5869565 L14.9938297,69.5869565 C15.4025504,69.5869565 15.7342657,69.8231304 15.7342657,70.1141304 C15.7342657,70.4051304 15.4025504,70.6413043 14.9938297,70.6413043 L3.14685315,70.6413043" id="Fill-19" fill-opacity="0.5" fill="#EAEAEE" fill-rule="evenodd"></path>
                        <path d="M74.6110433,48.9036756 L74.6110433,25.1986467 C74.6110433,22.3040546 76.9454747,19.9576128 79.8252505,19.9576128 L124.92972,19.9576128 C127.809496,19.9576128 130.145413,22.3040546 130.145413,25.1986467 L130.145413,48.9036756" id="Stroke-42" stroke="#0A84FF" stroke-width="3"></path>
                        <path d="M95.481179,20.0326087 C98.184823,17.0425442 100.973148,15.5475119 103.846154,15.5475119 C106.71916,15.5475119 109.30227,17.0425442 111.595485,20.0326087" id="Stroke-42-Copy" stroke="#0A84FF" stroke-width="3"></path>
                        <path d="M67.6573427,43.7554348 L73.3394253,38.9960043" id="Line-2" stroke="#0A84FF" stroke-width="3" stroke-linecap="square"></path>
                        <path d="M131.643357,43.7554348 L137.325439,38.9960043" id="Line-2-Copy" stroke="#0A84FF" stroke-width="3" stroke-linecap="square" transform="translate(134.484398, 41.375720) scale(-1, 1) translate(-134.484398, -41.375720) "></path>
                        <path d="M84.4551812,30.245513 L119.146227,30.245513" id="Stroke-44" stroke="#0A84FF" stroke-width="3" stroke-linecap="round"></path>
                        <path d="M84.4551812,38.1527506 L116.608221,38.1527506" id="Stroke-46" stroke="#0A84FF" stroke-width="3" stroke-linecap="round"></path>
                        <path d="M84.4551812,46.0599883 L114.969215,46.0599883" id="Stroke-48" stroke="#0A84FF" stroke-width="3" stroke-linecap="round"></path>
                        <path d="M68.1818182,45.3369565 L87.0629371,57.9891304" id="Line" stroke="#0A84FF" stroke-width="3" stroke-linecap="square"></path>
                        <path d="M118.531469,45.3369565 L137.412587,57.9891304" id="Line" stroke="#0A84FF" stroke-width="3" stroke-linecap="square" transform="translate(127.972028, 51.663043) scale(-1, 1) translate(-127.972028, -51.663043) "></path>
                        <path d="M67.9147769,78.3749442 C67.2748935,78.9832128 67.0783603,79.2028496 66.9088028,79.4640058 C66.7746085,79.6706949 66.6885575,79.8712205 66.631209,80.1108862 C66.5587479,80.413709 66.534965,80.7074776 66.534965,81.5903375 L66.534965,82.7497075 C66.534965,83.9684973 67.5229894,84.9565217 68.7417793,84.9565217 L135.803675,84.9565217 C137.022465,84.9565217 138.01049,83.9684973 138.01049,82.7497075 L138.01049,81.4929299 C138.01049,80.6332211 137.988843,80.3485464 137.922536,80.0562458 C137.870094,79.825062 137.791211,79.6317613 137.666931,79.4298935 C137.509795,79.174659 137.326087,78.9561192 136.724587,78.3418744 L113.160596,54.2786092 C109.93264,50.9822597 108.348186,49.8810893 106.233977,49.2041208 C104.419531,48.6231361 102.569288,48.5900072 100.735206,49.1056646 C98.5981183,49.7065132 96.9752586,50.7502562 93.6313669,53.928936 L67.9147769,78.3749442 Z" id="Rectangle-2" stroke="#0A84FF" stroke-width="3"></path>
                        <path d="M66.6083916,45.8641304 L66.6083916,81.7119565" id="Line-3" stroke="#0A84FF" stroke-width="3" stroke-linecap="square"></path>
                        <path d="M137.937063,45.8641304 L137.937063,81.7119565" id="Line-3" stroke="#0A84FF" stroke-width="3" stroke-linecap="square"></path>
                    </g>
                </g>
            </g>
        </g>
    </g>
</svg>