<svg width="137" height="73" xmlns="http://www.w3.org/2000/svg"><g fill="none" fill-rule="evenodd"><path d="M55.399 40.826c-.39 0-.707-.236-.707-.527 0-.291.317-.527.707-.527h6.979c.39 0 .706.236.706.527 0 .29-.316.527-.706.527h-6.98zM42.367 40.826h-1.573c-.435 0-.787-.236-.787-.527 0-.291.352-.527.787-.527h1.573c.434 0 .787.236.787.527 0 .29-.353.527-.787.527M35.024 40.826h-4.72c-.434 0-.787-.236-.787-.527 0-.291.353-.527.787-.527h4.72c.435 0 .787.236.787.527 0 .29-.352.527-.787.527M.147 39.772h18.126c.417 0 .755.236.755.527 0 .29-.338.527-.755.527H.147M.147 48.207h62.505c.818 0 1.48-.707 1.48-1.582 0-.875-.662-1.582-1.48-1.582H.147M62.35 56.641h-5.874c-.406 0-.735-.236-.735-.527 0-.29.33-.527.735-.527h5.874c.405 0 .734.236.734.527 0 .291-.329.527-.734.527M45.538 56.641H30.28c-.42 0-.763-.236-.763-.527 0-.29.342-.527.763-.527h15.258c.42 0 .763.236.763.527 0 .291-.342.527-.763.527M20.427 56.641h-2.798c-.386 0-.699-.236-.699-.527 0-.29.313-.527.7-.527h2.797c.386 0 .699.236.699.527 0 .291-.313.527-.7.527M.147 55.587h11.847c.409 0 .74.236.74.527 0 .291-.331.527-.74.527H.147" fill-opacity=".5" fill="#EAEAEE"/><path d="M71.611 34.904V11.199c0-2.895 2.334-5.241 5.214-5.241h45.105c2.88 0 5.215 2.346 5.215 5.24v23.706" stroke="#0A84FF" stroke-width="3"/><path d="M92.481 6.033c2.704-2.99 5.492-4.485 8.365-4.485s5.456 1.495 7.75 4.485" stroke="#0A84FF" stroke-width="3"/><path d="M64.657 29.755l5.682-4.759M134.325 29.755l-5.682-4.759" stroke="#0A84FF" stroke-width="3" stroke-linecap="square"/><path d="M81.455 16.246h34.691M81.455 24.153h32.153M81.455 32.06h30.514" stroke="#0A84FF" stroke-width="3" stroke-linecap="round"/><path d="M65.182 31.337l18.88 12.652M134.413 31.337L115.53 43.989" stroke="#0A84FF" stroke-width="3" stroke-linecap="square"/><path d="M64.915 64.375c-.64.608-.837.828-1.006 1.089a1.99 1.99 0 0 0-.278.647c-.072.303-.096.596-.096 1.48v1.159c0 1.218.988 2.207 2.207 2.207h67.062a2.207 2.207 0 0 0 2.206-2.207v-1.257c0-.86-.021-1.144-.087-1.437a1.98 1.98 0 0 0-.256-.626c-.157-.255-.34-.474-.942-1.088L110.16 40.279c-3.228-3.297-4.813-4.398-6.927-5.075a9.398 9.398 0 0 0-5.499-.098c-2.137.6-3.76 1.644-7.104 4.823L64.915 64.375z" stroke="#0A84FF" stroke-width="3"/><path d="M63.608 31.864v35.848M134.937 31.864v35.848" stroke="#0A84FF" stroke-width="3" stroke-linecap="square"/></g></svg>
