<?xml version="1.0" encoding="iso-8859-1"?>
<!-- Generator: Adobe Illustrator 19.0.0, SVG Export Plug-In . SVG Version: 6.00 Build 0)  -->
<svg version="1.1" id="Capa_1" xmlns="http://www.w3.org/2000/svg" xmlns:xlink="http://www.w3.org/1999/xlink" x="0px" y="0px"
	 viewBox="0 0 512 512" style="enable-background:new 0 0 512 512; fill: #082470;" xml:space="preserve">
<g>
	<g>
		<g>
			<path d="M509.501,386.499c-1.6-1.6-3.771-2.499-6.035-2.499h-34.133V85.333c-0.015-14.132-11.468-25.585-25.6-25.6H68.267
				c-14.132,0.015-25.585,11.468-25.6,25.6V384H8.533c-2.263-0.001-4.434,0.898-6.035,2.499c-1.6,1.6-2.499,3.771-2.499,6.035V409.6
				c0.028,23.553,19.114,42.639,42.667,42.667h426.667c23.553-0.028,42.639-19.114,42.667-42.667v-17.067
				C512.001,390.27,511.102,388.099,509.501,386.499z M59.733,85.333c0.005-4.711,3.822-8.529,8.533-8.533h375.467
				c4.711,0.005,8.529,3.822,8.533,8.533V384H331.525c-7.261-0.14-13.796,4.381-16.225,11.225c-0.436,1.289-1.183,2.451-2.175,3.383
				c-1.559,1.591-3.698,2.479-5.925,2.458H204.8c-3.681-0.008-6.945-2.371-8.1-5.867c-2.433-6.833-8.964-11.344-16.217-11.2H59.733
				V85.333z M494.933,409.6c-0.015,14.132-11.468,25.585-25.6,25.6H42.667c-14.132-0.015-25.585-11.468-25.6-25.6v-8.554
				l33.598-0.087c0.186,0.012,0.346,0.108,0.535,0.108c0.196,0,0.358-0.098,0.55-0.111l128.767-0.335
				c3.481,10.456,13.263,17.51,24.283,17.513h102.4c6.759,0.049,13.25-2.642,17.992-7.458c2.761-2.724,4.919-5.997,6.333-9.609
				h163.408V409.6z"/>
			<path d="M435.2,349.867V110.933c-0.011-9.421-7.645-17.056-17.067-17.067h-76.8c-4.713,0-8.533,3.82-8.533,8.533
				s3.821,8.533,8.533,8.533h76.8v238.933H93.867V110.933h76.8c4.713,0,8.533-3.821,8.533-8.533s-3.82-8.533-8.533-8.533h-76.8
				c-9.421,0.011-17.056,7.646-17.067,17.067v238.933c0.011,9.421,7.646,17.056,17.067,17.067h324.267
				C427.555,366.923,435.189,359.288,435.2,349.867z"/>
			<path d="M256,230.4c27.593,0.002,52.47-16.619,63.031-42.111c10.561-25.492,4.725-54.836-14.786-74.348
				c-19.511-19.512-48.854-25.349-74.347-14.79c-25.493,10.559-42.115,35.435-42.115,63.028
				C187.824,199.838,218.341,230.357,256,230.4z M256,111.025c20.69-0.002,39.344,12.461,47.263,31.575s3.544,41.118-11.086,55.749
				c-14.63,14.631-36.632,19.008-55.748,11.091c-19.116-7.917-31.579-26.57-31.579-47.261
				C204.879,133.941,227.762,111.056,256,111.025z"/>
			<path d="M241.434,185.279c1.6,1.601,3.77,2.5,6.033,2.5s4.433-0.899,6.033-2.5l25.6-25.6c2.155-2.156,2.997-5.297,2.208-8.242
				c-0.789-2.944-3.089-5.244-6.033-6.033c-2.944-0.789-6.086,0.053-8.242,2.208l-19.567,19.567l-2.5-2.5
				c-3.336-3.308-8.719-3.296-12.041,0.026c-3.322,3.322-3.333,8.705-0.025,12.041L241.434,185.279z"/>
			<path d="M145.067,213.333c-14.132,0.015-25.585,11.468-25.6,25.6V307.2c0.015,14.132,11.468,25.585,25.6,25.6h221.867
				c14.132-0.015,25.585-11.468,25.6-25.6v-68.267c-0.015-14.132-11.468-25.585-25.6-25.6H332.8c-4.713,0-8.533,3.82-8.533,8.533
				s3.821,8.533,8.533,8.533h34.133c4.711,0.005,8.529,3.822,8.533,8.533V307.2c-0.005,4.711-3.822,8.529-8.533,8.533H145.067
				c-4.711-0.005-8.529-3.822-8.533-8.533v-68.267c0.005-4.711,3.822-8.529,8.533-8.533H179.2c4.713,0,8.533-3.821,8.533-8.533
				s-3.82-8.533-8.533-8.533H145.067z"/>
			<path d="M204.363,267.232c0.716-2.147,0.549-4.491-0.463-6.516c-1.012-2.025-2.786-3.565-4.934-4.281
				c-2.148-0.716-4.492-0.549-6.516,0.464l-4.717,2.358V256c0-4.713-3.82-8.533-8.533-8.533s-8.533,3.82-8.533,8.533v3.258
				l-4.717-2.358c-2.729-1.375-5.984-1.187-8.536,0.494c-2.552,1.681-4.01,4.598-3.824,7.647s1.989,5.767,4.726,7.125l1.8,0.9
				l-1.8,0.9c-4.2,2.117-5.896,7.232-3.792,11.438s7.213,5.919,11.426,3.829l4.717-2.358v3.258c0,4.713,3.82,8.533,8.533,8.533
				s8.533-3.821,8.533-8.533v-3.258l4.717,2.358c4.213,2.09,9.323,0.378,11.426-3.829s0.407-9.321-3.792-11.438l-1.8-0.9l1.8-0.9
				C202.108,271.155,203.648,269.38,204.363,267.232z"/>
			<path d="M281.163,267.232c0.716-2.147,0.549-4.491-0.463-6.516c-1.011-2.026-2.786-3.567-4.933-4.283
				c-2.148-0.716-4.492-0.548-6.517,0.466l-4.717,2.358V256c0-4.713-3.82-8.533-8.533-8.533s-8.533,3.82-8.533,8.533v3.258
				l-4.717-2.358c-2.729-1.375-5.984-1.187-8.536,0.494c-2.552,1.681-4.01,4.598-3.824,7.647c0.186,3.05,1.989,5.767,4.726,7.125
				l1.8,0.9l-1.8,0.9c-4.2,2.117-5.896,7.232-3.792,11.438s7.213,5.919,11.426,3.829l4.717-2.358v3.258
				c0,4.713,3.82,8.533,8.533,8.533s8.533-3.821,8.533-8.533v-3.258l4.717,2.358c4.213,2.09,9.323,0.378,11.426-3.829
				s0.407-9.321-3.792-11.438l-1.8-0.9l1.8-0.9C278.908,271.155,280.448,269.38,281.163,267.232z"/>
			<path d="M311.014,257.394c-2.552,1.681-4.01,4.598-3.824,7.647c0.186,3.05,1.989,5.767,4.726,7.125l1.8,0.9l-1.8,0.9
				c-4.2,2.117-5.896,7.232-3.792,11.438s7.213,5.919,11.426,3.829l4.717-2.358v3.258c0,4.713,3.821,8.533,8.533,8.533
				c4.713,0,8.533-3.821,8.533-8.533v-3.258l4.717,2.358c4.213,2.09,9.323,0.378,11.426-3.829c2.103-4.206,0.407-9.321-3.792-11.438
				l-1.8-0.9l1.8-0.9c4.2-2.117,5.896-7.232,3.792-11.438c-2.103-4.206-7.213-5.919-11.426-3.829l-4.717,2.358V256
				c0.001-2.263-0.898-4.434-2.499-6.035c-1.6-1.6-3.771-2.499-6.035-2.499c-2.263-0.001-4.434,0.898-6.035,2.499
				c-1.6,1.6-2.499,3.771-2.499,6.035v3.258l-4.717-2.358C316.821,255.525,313.566,255.713,311.014,257.394z"/>
		</g>
	</g>
</g>
<g>
</g>
<g>
</g>
<g>
</g>
<g>
</g>
<g>
</g>
<g>
</g>
<g>
</g>
<g>
</g>
<g>
</g>
<g>
</g>
<g>
</g>
<g>
</g>
<g>
</g>
<g>
</g>
<g>
</g>
</svg>
