<?xml version="1.0" encoding="iso-8859-1"?>
<!-- Generator: Adobe Illustrator 19.0.0, SVG Export Plug-In . SVG Version: 6.00 Build 0)  -->
<svg version="1.1" id="Capa_1" xmlns="http://www.w3.org/2000/svg" xmlns:xlink="http://www.w3.org/1999/xlink" x="0px" y="0px"
	 viewBox="0 0 512.005 512.005" style="enable-background:new 0 0 512.005 512.005; fill: #24596F" xml:space="preserve">
<g>
	<g>
		<g>
			<path d="M366.738,285.286c-24.557,0.014-46.029,16.555-52.309,40.296c-6.279,23.741,4.207,48.734,25.546,60.888v44.075
				c0,14.782,11.983,26.765,26.765,26.765s26.765-11.983,26.765-26.765v-44.075c21.34-12.154,31.826-37.148,25.546-60.89
				C412.769,301.838,391.296,285.298,366.738,285.286z M381.512,373.436L381.512,373.436c-3.085,1.368-5.074,4.425-5.075,7.8v49.308
				c0,5.356-4.342,9.698-9.698,9.698s-9.698-4.342-9.698-9.698v-49.308c-0.001-3.375-1.99-6.432-5.075-7.8
				c-16.095-6.999-25.069-24.332-21.495-41.515s18.717-29.499,36.267-29.499s32.693,12.316,36.267,29.499
				C406.582,349.104,397.607,366.437,381.512,373.436z"/>
			<path d="M466.433,261.373v-64.763c0.217-27.035-10.229-53.066-29.075-72.45c-29.189-30.777-74.974-39.054-113.092-20.444V93.061
				c1.8-21.929-5.176-43.676-19.396-60.467c-18.975-21.625-49.775-32.592-91.537-32.592c-41.804,0-72.621,10.975-91.592,32.608
				c-14.208,16.792-21.165,38.538-19.342,60.458v50.042c-5.947,6.64-9.255,15.228-9.3,24.142v37.383
				c-0.003,11.156,5.102,21.699,13.854,28.617c6.398,24.465,17.486,47.455,32.65,67.692v31.175
				c0.033,9.344-5.039,17.961-13.225,22.467l-83.033,45.399C16.597,414.659-0.022,442.752,0,473.261v30.208
				c-0.001,2.263,0.898,4.434,2.499,6.035c1.6,1.6,3.771,2.499,6.035,2.499h358.229c59.486,0.071,112.987-36.182,134.969-91.458
				C523.714,365.269,509.722,302.174,466.433,261.373z M320.637,125.602c32.565-22.986,77.074-18.544,104.454,10.425h0
				c15.752,16.211,24.475,37.98,24.275,60.583v50.75c-6.147-4.276-12.624-8.056-19.371-11.304v-39.446
				c0.185-17.5-6.55-34.365-18.737-46.925c-12.405-13.296-30.097-20.363-48.249-19.274c-18.152,1.09-34.871,10.222-45.597,24.907
				c-9.085,11.84-13.969,26.368-13.884,41.292v39.447c-6.747,3.248-13.224,7.028-19.372,11.304l0.001-50.751
				C284.012,168.409,297.627,141.908,320.637,125.602z M412.929,196.611v32.479c-29.97-9.97-62.363-9.97-92.333,0v-32.479
				c-0.07-11.188,3.59-22.081,10.4-30.958c8.359-11.408,21.624-18.189,35.767-18.283c12.258-0.003,23.954,5.143,32.233,14.183
				C408.085,170.942,413.093,183.544,412.929,196.611z M17.067,494.936v-21.675c-0.019-24.273,13.197-46.626,34.475-58.308
				l83.025-45.392c13.661-7.498,22.139-21.858,22.104-37.442v-34.133c0.001-1.998-0.7-3.932-1.979-5.467
				c-15.134-19.61-25.987-42.176-31.858-66.242c-0.497-2.161-1.815-4.044-3.675-5.25c-5.591-3.578-8.979-9.754-8.992-16.392v-37.384
				c0.03-5.489,2.397-10.705,6.508-14.342c1.778-1.615,2.792-3.906,2.792-6.308V92.586c-0.001-0.362-0.024-0.724-0.071-1.084
				c-1.322-17.326,4.179-34.482,15.329-47.808c15.608-17.666,42.058-26.625,78.608-26.625c36.513,0,62.942,8.95,78.558,26.608
				c11.159,13.32,16.677,30.471,15.379,47.8c-0.046,0.368-0.07,0.738-0.071,1.108v21.939c-25.37,19.666-40.184,49.986-40.108,82.086
				v64.756c-34.079,32.025-50.598,78.534-44.353,124.881s34.484,86.826,75.824,108.688H17.067z M486.49,412.565
				c-18.968,49.627-66.599,82.397-119.728,82.371c-53.154,0.081-100.832-32.682-119.812-82.332
				c-18.98-49.65-5.316-105.863,34.337-141.26c0.265-0.232,0.513-0.483,0.742-0.75c9.938-8.868,21.236-16.082,33.463-21.367
				c32.714-14.228,69.87-14.222,102.579,0.017c12.204,5.279,23.482,12.482,33.404,21.333c0.12,0.137,0.257,0.26,0.386,0.39
				l0.012,0.012c0.118,0.119,0.227,0.243,0.352,0.356C491.827,306.753,505.458,362.938,486.49,412.565z"/>
		</g>
	</g>
</g>
<g>
</g>
<g>
</g>
<g>
</g>
<g>
</g>
<g>
</g>
<g>
</g>
<g>
</g>
<g>
</g>
<g>
</g>
<g>
</g>
<g>
</g>
<g>
</g>
<g>
</g>
<g>
</g>
<g>
</g>
</svg>
