<?xml version="1.0" encoding="iso-8859-1"?>
<!-- Generator: Adobe Illustrator 19.0.0, SVG Export Plug-In . SVG Version: 6.00 Build 0)  -->
<svg version="1.1" id="Capa_1" xmlns="http://www.w3.org/2000/svg" xmlns:xlink="http://www.w3.org/1999/xlink" x="0px" y="0px"
	 viewBox="0 0 512 512" style="enable-background:new 0 0 512 512; fill: #72164D;" xml:space="preserve">
<g>
	<g>
		<g>
			<path d="M443.733,247.467v-153.6c0-0.187-0.094-0.343-0.106-0.527c-0.112-2.057-0.957-4.006-2.384-5.493l-0.012-0.016
				L355.903,2.503l-0.016-0.012c-0.713-0.689-1.542-1.248-2.448-1.651c-0.247-0.115-0.503-0.18-0.761-0.272
				c-0.748-0.266-1.531-0.424-2.323-0.469C350.183,0.089,350.04,0,349.867,0H102.4C83.558,0.022,68.288,15.291,68.267,34.133V153.6
				c-18.842,0.021-34.112,15.291-34.133,34.133v290.133c0.022,18.842,15.291,34.112,34.133,34.133h375.467
				c18.842-0.022,34.112-15.291,34.133-34.133V281.6C477.845,262.758,462.576,247.488,443.733,247.467z M358.4,29.133l56.2,56.2
				h-39.133c-9.422-0.009-17.057-7.645-17.067-17.067V29.133z M68.267,494.933c-9.422-0.009-17.057-7.645-17.067-17.067V187.733
				c0.009-9.422,7.645-17.057,17.067-17.067h88.663c5.724-0.001,11.067,2.865,14.234,7.633l18.966,28.454
				c6.338,9.438,16.957,15.103,28.325,15.113h157.013c9.422,0.009,17.057,7.645,17.067,17.067v238.933
				c0.034,6.01,1.674,11.902,4.748,17.067H68.267z M375.467,204.8H218.454c-5.678-0.009-10.981-2.838-14.15-7.55l-18.942-28.417
				c-6.328-9.52-17.002-15.238-28.433-15.233H85.333V34.133c0.009-9.422,7.645-17.057,17.067-17.067h238.933v51.2
				c0.022,18.842,15.291,34.112,34.133,34.133h51.2v341.333c-0.009,9.422-7.645,17.057-17.067,17.067V238.933
				C409.578,220.091,394.309,204.822,375.467,204.8z M460.8,477.867c-0.009,9.422-7.645,17.057-17.067,17.067h-17.067
				c-9.422-0.009-17.057-7.645-17.067-17.067c18.842-0.022,34.112-15.291,34.133-34.133v-179.2
				c9.422,0.009,17.057,7.645,17.067,17.067V477.867z"/>
			<path d="M307.2,68.267H119.467c-4.713,0-8.533,3.82-8.533,8.533s3.82,8.533,8.533,8.533H307.2c4.713,0,8.533-3.82,8.533-8.533
				S311.913,68.267,307.2,68.267z"/>
			<path d="M307.2,102.4H119.467c-4.713,0-8.533,3.82-8.533,8.533s3.82,8.533,8.533,8.533H307.2c4.713,0,8.533-3.82,8.533-8.533
				S311.913,102.4,307.2,102.4z"/>
			<path d="M307.2,136.533H204.8c-4.713,0-8.533,3.82-8.533,8.533s3.82,8.533,8.533,8.533h102.4c4.713,0,8.533-3.821,8.533-8.533
				S311.913,136.533,307.2,136.533z"/>
			<path d="M307.2,170.667h-85.333c-4.713,0-8.533,3.82-8.533,8.533s3.82,8.533,8.533,8.533H307.2c4.713,0,8.533-3.82,8.533-8.533
				S311.913,170.667,307.2,170.667z"/>
			<path d="M318.138,268.821c-0.676-3.376-3.315-6.015-6.692-6.692l-29.817-5.962c-2.798-0.569-5.695,0.308-7.708,2.333l-85.004,85
				c-22.02-3.926-44.369,4.915-57.744,22.842c-13.375,17.927-15.484,41.869-5.45,61.858c10.035,19.99,30.494,32.602,52.86,32.587
				c17.489,0.019,34.087-7.716,45.319-21.121c11.233-13.405,15.944-31.1,12.864-48.316l13.442-13.446c1.6-1.6,2.5-3.77,2.5-6.033
				V356.55h15.321c4.713,0,8.533-3.82,8.533-8.533v-15.321h15.317c4.713,0,8.533-3.82,8.533-8.533v-15.317h15.321
				c2.557,0,4.979-1.147,6.599-3.124c1.621-1.977,2.269-4.577,1.767-7.084L318.138,268.821z M291.879,291.779
				c-4.713,0-8.533,3.82-8.533,8.533v15.317h-15.317c-4.713,0-8.533,3.82-8.533,8.533v15.321h-15.321
				c-4.713,0-8.533,3.82-8.533,8.533v20.321l-14.254,14.255c-2.159,2.159-3,5.306-2.208,8.254
				c5.258,19.712-4.393,40.355-22.89,48.96s-40.504,2.69-52.194-14.03c-11.69-16.72-9.69-39.419,4.743-53.838l0,0
				c7.892-7.87,18.583-12.289,29.729-12.288c3.666-0.001,7.315,0.482,10.854,1.438c2.948,0.784,6.091-0.057,8.254-2.208
				l85.083-85.083l19.763,3.95l2.804,14.033H291.879z"/>
			<path d="M169.4,377.331c-11.306,4.673-17.734,16.684-15.352,28.683c2.382,11.999,12.91,20.644,25.144,20.645v0
				c6.789,0.013,13.304-2.679,18.104-7.479v-0.004c8.662-8.638,10.014-22.194,3.228-32.373S180.705,372.658,169.4,377.331z
				 M182.46,408.958c-3.189,1.321-6.861,0.591-9.302-1.85c-1.606-1.598-2.51-3.77-2.51-6.035c0-2.266,0.903-4.438,2.51-6.035v0
				c2.441-2.441,6.112-3.171,9.302-1.85c3.19,1.321,5.269,4.433,5.269,7.886C187.729,404.525,185.65,407.637,182.46,408.958z"/>
		</g>
	</g>
</g>
<g>
</g>
<g>
</g>
<g>
</g>
<g>
</g>
<g>
</g>
<g>
</g>
<g>
</g>
<g>
</g>
<g>
</g>
<g>
</g>
<g>
</g>
<g>
</g>
<g>
</g>
<g>
</g>
<g>
</g>
</svg>
