<?xml version="1.0" encoding="iso-8859-1"?>
<!-- Generator: Adobe Illustrator 19.0.0, SVG Export Plug-In . SVG Version: 6.00 Build 0)  -->
<svg version="1.1" id="Capa_1" xmlns="http://www.w3.org/2000/svg" xmlns:xlink="http://www.w3.org/1999/xlink" x="0px" y="0px"
	 viewBox="0 0 512 512" style="enable-background:new 0 0 512 512; fill: #3D0E6C;" xml:space="preserve">
<g>
	<g>
		<g>
			<path d="M460.8,281.6h-42.667c-4.713,0-8.533,3.821-8.533,8.533c0,4.713,3.82,8.533,8.533,8.533H460.8
				c4.713,0,8.533-3.821,8.533-8.533C469.333,285.421,465.513,281.6,460.8,281.6z"/>
			<path d="M401.067,264.533H460.8c4.713,0,8.533-3.82,8.533-8.533c0-4.713-3.82-8.533-8.533-8.533h-59.733
				c-4.713,0-8.533,3.82-8.533,8.533C392.533,260.713,396.354,264.533,401.067,264.533z"/>
			<path d="M477.867,17.067H34.133C15.29,17.087,0.02,32.357,0,51.2v256c0.02,18.843,15.29,34.113,34.133,34.133h143.634
				c5.947,13.523,15.286,25.28,27.111,34.133h-68.345c-14.132,0.015-25.585,11.468-25.6,25.6v68.267
				c0.015,14.132,11.468,25.585,25.6,25.6h238.933c14.132-0.015,25.585-11.468,25.6-25.6v-68.267
				c-0.015-14.132-11.468-25.585-25.6-25.6h-68.345c11.826-8.853,21.165-20.611,27.111-34.133h143.634
				c18.843-0.02,34.113-15.29,34.133-34.133v-256C511.98,32.357,496.71,17.087,477.867,17.067z M375.467,392.533
				c4.711,0.005,8.529,3.822,8.533,8.533v68.267c-0.005,4.711-3.822,8.529-8.533,8.533H136.533
				c-4.711-0.005-8.529-3.823-8.533-8.533v-68.267c0.005-4.711,3.822-8.529,8.533-8.533h117.658
				c0.608,0.013,1.198,0.092,1.809,0.092s1.202-0.079,1.809-0.092H375.467z M257.81,375.467h-3.621
				c-37.362-0.991-66.991-31.822-66.496-69.194s30.932-67.407,68.307-67.407s67.811,30.036,68.307,67.407
				S295.172,374.476,257.81,375.467z M494.933,307.2c-0.011,9.421-7.645,17.056-17.067,17.067h-138.2
				c6.898-33.926-7.374-68.66-36.133-87.935c-28.759-19.275-66.31-19.275-95.069,0c-28.759,19.275-43.031,54.008-36.133,87.935
				H34.133c-9.421-0.011-17.056-7.645-17.067-17.067V136.533h477.867V307.2z M494.933,119.467H17.067V85.333h477.867V119.467z
				 M494.933,68.267H17.067V51.2c0.011-9.421,7.646-17.056,17.067-17.067h443.733c9.421,0.011,17.056,7.646,17.067,17.067V68.267z"
				/>
			<path d="M59.733,307.2h34.133c14.132-0.015,25.585-11.468,25.6-25.6v-17.067c-0.015-14.132-11.468-25.585-25.6-25.6H59.733
				c-14.132,0.015-25.585,11.468-25.6,25.6V281.6C34.149,295.732,45.601,307.185,59.733,307.2z M51.2,264.533
				c0.005-4.711,3.822-8.529,8.533-8.533h34.133c4.711,0.005,8.529,3.822,8.533,8.533V281.6c-0.005,4.711-3.822,8.529-8.533,8.533
				H59.733c-4.711-0.005-8.529-3.822-8.533-8.533V264.533z"/>
			<path d="M51.2,204.8H256c9.421-0.011,17.056-7.645,17.067-17.067v-17.067c-0.011-9.421-7.646-17.056-17.067-17.067H51.2
				c-9.421,0.011-17.056,7.646-17.067,17.067v17.067C34.144,197.155,41.779,204.789,51.2,204.8z M51.2,170.667H256l0.012,17.067
				H51.2V170.667z"/>
			<path d="M282.165,273.023c-3.06-0.189-5.986,1.278-7.665,3.843l-28.358,42.542l-9.709-9.708
				c-3.341-3.281-8.701-3.256-12.012,0.054c-3.311,3.311-3.335,8.671-0.054,12.012l17.067,17.067c1.6,1.601,3.77,2.5,6.033,2.5
				c0.279,0,0.558-0.017,0.842-0.042c2.544-0.252,4.84-1.631,6.258-3.758l34.133-51.2c1.722-2.536,1.951-5.802,0.6-8.554
				C287.949,275.028,285.225,273.212,282.165,273.023z"/>
			<path d="M204.363,429.366c0.716-2.147,0.549-4.491-0.463-6.516c-1.011-2.026-2.786-3.567-4.934-4.283
				c-2.148-0.716-4.492-0.548-6.516,0.466l-4.717,2.358v-3.258c0-4.713-3.82-8.533-8.533-8.533s-8.533,3.821-8.533,8.533v3.258
				l-4.717-2.358c-2.729-1.375-5.984-1.187-8.536,0.494s-4.01,4.598-3.824,7.647s1.989,5.767,4.726,7.125l1.8,0.9l-1.8,0.9
				c-4.2,2.117-5.896,7.232-3.792,11.438s7.213,5.919,11.426,3.829l4.717-2.358v3.258c0,4.713,3.82,8.533,8.533,8.533
				s8.533-3.82,8.533-8.533v-3.258l4.717,2.358c4.213,2.09,9.323,0.378,11.426-3.829s0.407-9.321-3.792-11.438l-1.8-0.9l1.8-0.9
				C202.108,433.288,203.648,431.513,204.363,429.366z"/>
			<path d="M247.467,418.133v3.258l-4.717-2.358c-2.729-1.375-5.984-1.187-8.536,0.494c-2.552,1.681-4.01,4.598-3.824,7.647
				c0.186,3.05,1.989,5.767,4.726,7.125l1.8,0.9l-1.8,0.9c-4.2,2.117-5.896,7.232-3.792,11.438s7.213,5.919,11.426,3.829
				l4.717-2.358v3.258c0,4.713,3.82,8.533,8.533,8.533s8.533-3.82,8.533-8.533v-3.258l4.717,2.358
				c4.213,2.09,9.323,0.378,11.426-3.829s0.407-9.321-3.792-11.438l-1.8-0.9l1.8-0.9c4.2-2.117,5.896-7.232,3.792-11.438
				s-7.213-5.919-11.426-3.829l-4.717,2.358v-3.258c0-4.713-3.82-8.533-8.533-8.533S247.467,413.421,247.467,418.133z"/>
			<path d="M311.917,434.3l1.8,0.9l-1.8,0.9c-2.025,1.012-3.564,2.787-4.28,4.934c-0.716,2.147-0.549,4.491,0.463,6.516
				c2.109,4.214,7.234,5.923,11.45,3.817l4.717-2.358v3.258c0,4.713,3.821,8.533,8.533,8.533c4.713,0,8.533-3.82,8.533-8.533v-3.258
				l4.717,2.358c4.213,2.09,9.323,0.378,11.426-3.829c2.103-4.206,0.407-9.321-3.792-11.438l-1.8-0.9l1.8-0.9
				c4.2-2.117,5.896-7.232,3.792-11.438s-7.213-5.919-11.426-3.829l-4.717,2.358v-3.258c0-4.713-3.821-8.533-8.533-8.533
				c-4.713,0-8.533,3.821-8.533,8.533v3.258l-4.717-2.358c-2.729-1.375-5.984-1.187-8.536,0.494s-4.01,4.598-3.824,7.647
				C307.377,430.225,309.18,432.942,311.917,434.3z"/>
		</g>
	</g>
</g>
<g>
</g>
<g>
</g>
<g>
</g>
<g>
</g>
<g>
</g>
<g>
</g>
<g>
</g>
<g>
</g>
<g>
</g>
<g>
</g>
<g>
</g>
<g>
</g>
<g>
</g>
<g>
</g>
<g>
</g>
</svg>
