<svg role="img" width="1202px" height="281px" viewBox="0 0 1202 281" xmlns="http://www.w3.org/2000/svg">
  <g stroke="none" stroke-width="1" fill="none" fill-rule="evenodd" fill-opacity="0.04">
    <g fill="#FFFFFF" fill-rule="nonzero">
      <g transform="translate(-205.000000, -655.000000)">
        <g transform="translate(808.500000, 703.500000) scale(-1, 1) rotate(-60.000000) translate(-808.500000, -703.500000) translate(399.000000, 7.000000)">
          <path d="M793.514608,1206.18988 C796.128018,1125.23788 157.764608,105.038581 157.764608,105.038581 C157.764608,105.038581 39.2274246,-145.431517 4.58142819,128.849288 C-18.0250845,307.853603 48.986047,494.595524 146.05258,613.893239 C196.597173,675.720036 253.713685,731.86847 316.395396,781.348888 C389.729422,886.672718 539.741597,1318.64213 505.994174,1372.18988 C455.568331,1452.20163 791.153889,1279.31465 793.514608,1206.18988 Z"></path>
          <path d="M818.878056,1136.12066 C818.878056,1136.12066 141.253994,89.7449271 141.253994,89.7449271 C141.253994,89.7449271 7.50079539,-6.62108676 16.1336354,186.857237 C20.2483812,279.076496 43.5365869,375.940941 99.8815393,468.016384 C263.410643,735.252504 525.631593,809.908312 701.364909,1059.88549 C773.411723,1162.37066 818.878056,1136.12066 818.878056,1136.12066 Z" opacity="0.786328125"></path>
          <path d="M676.742631,1195.80162 C571.649775,978.68671 440.54355,883.987653 316.395396,781.348888 C330.831228,801.559053 334.382443,808.690354 342.379894,821.769217 C427.90128,912.919688 545.089918,1109.66203 535.939697,1357.71519 C535.291192,1375.29552 704.741181,1262.63022 704.741181,1262.63022 C689.586738,1252.37358 687.474391,1217.97028 676.742631,1195.80162 Z"></path>
        </g>
      </g>
    </g>
  </g>
</svg>
