<svg width="1202" height="281" xmlns="http://www.w3.org/2000/svg"><g fill="#FFF" fill-rule="nonzero" fill-opacity=".04"><path d="M-29.912-29.221c68.8-42.74 1271.5 0 1271.5 0s276.182-22.58 55.971 144.565C1153.84 224.424 958.611 259.762 806.763 235.35a1101.8 1101.8 0 0 1-230.192-63.794C448.691 160.708-.412 246.78-29.912 302.78c-44.079 83.675-62.147-293.394 0-332z"/><path d="M18.088-86.221l1245 63.651s150.332 67.651-21.541 156.914c-81.922 42.546-177.453 70.81-285.365 68.052C642.984 194.393 447.22 4.63 142.866-22.57 18.088-33.72 18.088-86.22 18.088-86.22z" opacity=".786"/><path d="M37.47 66.712c240.574-17.544 388.14 48.647 539.101 104.843-24.72-2.396-32.672-1.906-47.997-2.293-121.7-28.488-350.678-31.605-560.923 100.346-14.9 9.351-2.055-193.73-2.055-193.73 16.46 7.997 47.31-7.376 71.875-9.166z"/></g></svg>
