<svg version="1.2" baseProfile="tiny" xmlns="http://www.w3.org/2000/svg" viewBox="0 0 54.5 27.5" overflow="scroll"><path fill="#158144" d="M0 4.9C3.9 3.2 11.9.1 11.9 0c-1.6 9.1-3.1 18.1-4.7 27.2H0c.2 0 0 0 2.9-18.4 0 0-2.1.1-2.9.1.1-1 0-3 0-4zM14.4 1.5c3.6-1.1 7.8-1.9 11.3 0 2.8 1.3 4.6 4.4 4 7.5-.8 4.4-4.6 7.4-6.5 11.3 2.4 0 4.9-.1 7.3 0-.5 2.3-.9 4.5-1.3 6.8-6.8.2-13.6.1-20.4.1 3.3-4.7 7.7-8.6 11-13.4.8-1.3 1.8-2.4 1-4.6-1-3-5.4-1.6-7.6-.3.1.1.7-4.9 1.2-7.4zM52.5 12.6c-2-2.6-5.5-3-8.6-2.7 2.3-3 4.5-6 6.7-9.1-2.7.1-.2 0-8.3.2-3.6 4.2-7.7 8.2-10.1 13.3-2.1 4.1-.4 9.7 3.8 11.7 4.8 2.4 11.3 2 15.4-1.6 3.3-2.9 4.3-8.5 1.1-11.8zm-12 9c-2.4-1.5-1.5-5.3.8-6.4 1.7-1.3 4.9-.5 5.1 1.8.7 3.2-3 6.1-5.9 4.6z"/></svg>