<svg version="1.2" baseProfile="tiny" id="Layer_1" xmlns="http://www.w3.org/2000/svg" xmlns:xlink="http://www.w3.org/1999/xlink" x="0px" y="0px" viewBox="0 0 54.5 27.5" overflow="scroll" xml:space="preserve"><path fill="#158144" d="M0,4.9C3.9,3.2,11.9,0.1,11.9,0c-1.6,9.1-3.1,18.1-4.7,27.2c-2.4,0-4.8,0-7.2,0c0.2,0,0,0,2.9-18.4 c0,0-2.1,0.1-2.9,0.1C0.1,7.9,0,5.9,0,4.9L0,4.9z"/><path fill="#158144" d="M14.4,1.5c3.6-1.1,7.8-1.9,11.3,0c2.8,1.3,4.6,4.4,4,7.5c-0.8,4.4-4.6,7.4-6.5,11.3c2.4,0,4.9-0.1,7.3,0 c-0.5,2.3-0.9,4.5-1.3,6.8c-6.8,0.2-13.6,0.1-20.4,0.1c3.3-4.7,7.7-8.6,11-13.4c0.8-1.3,1.8-2.4,1-4.6c-1-3-5.4-1.6-7.6-0.3 C13.3,9,13.9,4,14.4,1.5L14.4,1.5z"/><path fill="#158144" d="M52.5,12.6c-2-2.6-5.5-3-8.6-2.7c2.3-3,4.5-6,6.7-9.1c-2.7,0.1-0.2,0-8.3,0.2c-3.6,4.2-7.7,8.2-10.1,13.3 c-2.1,4.1-0.4,9.7,3.8,11.7c4.8,2.4,11.3,2,15.4-1.6C54.7,21.5,55.7,15.9,52.5,12.6z M40.5,21.6c-2.4-1.5-1.5-5.3,0.8-6.4 c1.7-1.3,4.9-0.5,5.1,1.8C47.1,20.2,43.4,23.1,40.5,21.6z"/></svg> 