<svg version="1.2" baseProfile="tiny" xmlns="http://www.w3.org/2000/svg" viewBox="0 0 147.1 146.3"><g fill="#2B9EE2"><path d="M144.9 23.2c-.1-3.6-2.5-6.7-5.8-7.9C114.9 3.9 87.8-1.6 61.1.4 42 2.3 23.2 7.4 6 16c-4 1.9-4.3 6.8-4.6 10.7-.8 22.8-4 46.3 3 68.5 3.1 10.2 9.6 19.2 17.9 25.8 13.6 10.7 29.4 18.3 45.5 24.5 3 1.3 6.3.8 9.3-.4 16.5-6.2 32.9-13.3 47-24.1 6.6-5.1 12.3-11.6 15.7-19.3 5.7-12.9 7-27.2 7.4-41.1-1-12.4-1.5-25-2.3-37.4zM139 76.6c-1.3 13.3-5.5 27.4-16.2 36.2-13.1 11.3-29.3 18.4-45.2 24.7-2.6.9-5.3 2.5-8.1 1.2-12.5-4.9-24.7-10.6-35.9-18.1-7.6-5.2-15-11.3-19.3-19.6-5.5-10.5-6.9-22.6-7.2-34.3C6.9 51.8 8 37 8.9 22.3 29.7 12.3 52.6 6.4 75.7 7c21.5.6 42.9 5.9 62.2 15.4.8 18 2.4 36.1 1.1 54.2z"/><path d="M64.6 21.9C50.4 23 36.4 26.4 23.3 32c-.7 15.5-2.3 31.2-.2 46.7 1.2 8.4 3.8 17.2 10.4 23.1 10.2 9.3 22.9 15.2 35.3 20.8 4.2 2.3 8.4-1 12.3-2.4-8.8-4.6-16.3-12.3-19.1-22-2.7-8.4-1.3-17.5 2.2-25.5l-4.8.6c-.5-2.3-.9-4.6-1.4-7 7.1-1.4 14.2-2.5 21.2-4 1.5 6.4 2.9 12.8 4.1 19.3-2.3.4-4.7.8-7 1.3l-.9-2.4c-1.4 4.9-2 10.3 0 15.1 3.2 9 12.7 15 22.2 14.6 5.7.2 9.9-4.1 14.1-7.3 8.8-6.9 11.5-18.5 12.3-29.1.7-13.9.2-27.9-.9-41.8-18.3-7.7-38.6-11.2-58.5-10.1zm35.7 22.7c-.4 6.6-9.3 10-14.1 5.5-4.8-3.8-3-12.2 2.8-14 5.4-2 12 2.6 11.3 8.5z"/></g></svg>