<svg version="1.2" baseProfile="tiny" id="Layer_1" xmlns="http://www.w3.org/2000/svg" xmlns:xlink="http://www.w3.org/1999/xlink" x="0px" y="0px" viewBox="0 0 147.1 146.3" xml:space="preserve"><g><path fill="#2B9EE2" d="M144.9,23.2c-0.1-3.6-2.5-6.7-5.8-7.9C114.9,3.9,87.8-1.6,61.1,0.4C42,2.3,23.2,7.4,6,16 c-4,1.9-4.3,6.8-4.6,10.7C0.6,49.5-2.6,73,4.4,95.2c3.1,10.2,9.6,19.2,17.9,25.8c13.6,10.7,29.4,18.3,45.5,24.5 c3,1.3,6.3,0.8,9.3-0.4c16.5-6.2,32.9-13.3,47-24.1c6.6-5.1,12.3-11.6,15.7-19.3c5.7-12.9,7-27.2,7.4-41.1 C146.2,48.2,145.7,35.6,144.9,23.2z M139,76.6c-1.3,13.3-5.5,27.4-16.2,36.2c-13.1,11.3-29.3,18.4-45.2,24.7 c-2.6,0.9-5.3,2.5-8.1,1.2c-12.5-4.9-24.7-10.6-35.9-18.1c-7.6-5.2-15-11.3-19.3-19.6C8.8,90.5,7.4,78.4,7.1,66.7 C6.9,51.8,8,37,8.9,22.3C29.7,12.3,52.6,6.4,75.7,7c21.5,0.6,42.9,5.9,62.2,15.4C138.7,40.4,140.3,58.5,139,76.6z"/><path fill="#2B9EE2" d="M64.6,21.9C50.4,23,36.4,26.4,23.3,32c-0.7,15.5-2.3,31.2-0.2,46.7c1.2,8.4,3.8,17.2,10.4,23.1 c10.2,9.3,22.9,15.2,35.3,20.8c4.2,2.3,8.4-1,12.3-2.4c-8.8-4.6-16.3-12.3-19.1-22c-2.7-8.4-1.3-17.5,2.2-25.5 c-1.6,0.2-3.2,0.4-4.8,0.6c-0.5-2.3-0.9-4.6-1.4-7c7.1-1.4,14.2-2.5,21.2-4c1.5,6.4,2.9,12.8,4.1,19.3c-2.3,0.4-4.7,0.8-7,1.3 c-0.3-0.8-0.6-1.6-0.9-2.4c-1.4,4.9-2,10.3,0,15.1c3.2,9,12.7,15,22.2,14.6c5.7,0.2,9.9-4.1,14.1-7.3c8.8-6.9,11.5-18.5,12.3-29.1 c0.7-13.9,0.2-27.9-0.9-41.8C104.8,24.3,84.5,20.8,64.6,21.9z M100.3,44.6c-0.4,6.6-9.3,10-14.1,5.5c-4.8-3.8-3-12.2,2.8-14 C94.4,34.1,101,38.7,100.3,44.6z"/></g></svg> 