<svg xmlns="http://www.w3.org/2000/svg" viewBox="0 0 262.1 29.6"><g fill="#13679B"><path d="M0 29.1L11 .5h4.1l11.7 28.6h-4.3l-3.3-8.7h-12L4 29.1H0zm8.3-11.7H18l-3-7.9c-.9-2.4-1.6-4.4-2-5.9-.4 1.8-.9 3.7-1.5 5.5l-3.2 8.3zM29.4 29.1V.5h3.5v10.3c1.6-1.9 3.7-2.9 6.2-2.9 1.5 0 2.9.3 4 .9s1.9 1.4 2.4 2.5.7 2.6.7 4.6V29h-3.5V16c0-1.8-.4-3-1.1-3.8S39.8 11 38.4 11c-1 0-2 .3-2.9.8-.9.5-1.6 1.3-2 2.2-.4.9-.6 2.2-.6 3.8v11.3h-3.5zM65.2 26.6c-1.3 1.1-2.6 1.9-3.8 2.3-1.2.5-2.5.7-3.9.7-2.3 0-4-.6-5.3-1.7-1.2-1.1-1.8-2.5-1.8-4.3 0-1 .2-1.9.7-2.8.5-.8 1.1-1.5 1.8-2s1.6-.9 2.5-1.2c.7-.2 1.7-.4 3.1-.5 2.8-.3 4.9-.7 6.3-1.2V15c0-1.4-.3-2.4-1-3-.9-.8-2.2-1.2-4-1.2-1.7 0-2.9.3-3.7.9-.8.6-1.4 1.6-1.7 3.1l-3.4-.5c.3-1.5.8-2.7 1.5-3.6.7-.9 1.8-1.6 3.1-2.1 1.4-.5 2.9-.7 4.7-.7 1.8 0 3.2.2 4.3.6 1.1.4 1.9.9 2.4 1.6.5.6.9 1.4 1.1 2.4.1.6.2 1.7.2 3.2v4.7c0 3.3.1 5.3.2 6.2.1.9.4 1.7.9 2.5h-3.7c-.2-.7-.4-1.6-.5-2.5zm-.3-7.9c-1.3.5-3.2 1-5.7 1.3-1.4.2-2.5.4-3.1.7-.6.3-1.1.6-1.4 1.1-.3.5-.5 1.1-.5 1.7 0 .9.4 1.7 1.1 2.3.7.6 1.7.9 3.1.9 1.4 0 2.6-.3 3.6-.9 1.1-.6 1.8-1.4 2.3-2.4.4-.8.6-2 .6-3.5v-1.2zM73 19.9l3.6-.3c.2 1.4.6 2.6 1.2 3.5.6.9 1.6 1.7 2.9 2.2 1.3.6 2.8.8 4.4.8 1.4 0 2.7-.2 3.8-.6 1.1-.4 1.9-1 2.5-1.8.5-.7.8-1.6.8-2.5 0-.9-.3-1.7-.8-2.4s-1.4-1.2-2.6-1.7c-.8-.3-2.5-.8-5.1-1.4-2.6-.6-4.5-1.2-5.5-1.8-1.4-.7-2.4-1.6-3.1-2.7-.7-1.1-1-2.2-1-3.6s.4-2.8 1.2-4.1c.8-1.3 2-2.2 3.6-2.9 1.6-.7 3.3-1 5.3-1 2.1 0 4 .3 5.6 1s2.9 1.7 3.7 3c.9 1.3 1.3 2.8 1.4 4.5l-3.6.3c-.2-1.8-.9-3.2-2-4.1-1.1-.9-2.8-1.4-5-1.4-2.3 0-4 .4-5 1.3-1 .8-1.6 1.9-1.6 3 0 1 .4 1.9 1.1 2.5.7.7 2.6 1.3 5.7 2s5.2 1.3 6.3 1.8c1.7.8 2.9 1.7 3.7 2.9.8 1.2 1.2 2.5 1.2 4.1 0 1.5-.4 3-1.3 4.3-.9 1.3-2.1 2.4-3.8 3.1-1.6.7-3.5 1.1-5.5 1.1-2.6 0-4.8-.4-6.5-1.1-1.8-.8-3.1-1.9-4.1-3.4-.9-.9-1.4-2.7-1.5-4.6zM100.5 29.1V.5h3.5v10.3c1.6-1.9 3.7-2.9 6.2-2.9 1.5 0 2.9.3 4 .9s1.9 1.4 2.4 2.5.7 2.6.7 4.6V29h-3.5V16c0-1.8-.4-3-1.1-3.8s-1.8-1.2-3.2-1.2c-1 0-2 .3-2.9.8-.9.5-1.6 1.3-2 2.2-.4.9-.6 2.2-.6 3.8v11.3h-3.5zM136.3 26.6c-1.3 1.1-2.6 1.9-3.8 2.3-1.2.5-2.5.7-3.9.7-2.3 0-4-.6-5.3-1.7-1.2-1.1-1.8-2.5-1.8-4.3 0-1 .2-1.9.7-2.8.5-.8 1.1-1.5 1.8-2s1.6-.9 2.5-1.2c.7-.2 1.7-.4 3.1-.5 2.8-.3 4.9-.7 6.3-1.2V15c0-1.4-.3-2.4-1-3-.9-.8-2.2-1.2-4-1.2-1.7 0-2.9.3-3.7.9-.8.6-1.4 1.6-1.7 3.1l-3.4-.5c.3-1.5.8-2.7 1.5-3.6.7-.9 1.8-1.6 3.1-2.1 1.4-.5 2.9-.7 4.7-.7 1.8 0 3.2.2 4.3.6 1.1.4 1.9.9 2.4 1.6.5.6.9 1.4 1.1 2.4.1.6.2 1.7.2 3.2v4.7c0 3.3.1 5.3.2 6.2.1.9.4 1.7.9 2.5H137c-.3-.7-.6-1.6-.7-2.5zm-.3-7.9c-1.3.5-3.2 1-5.7 1.3-1.4.2-2.5.4-3.1.7-.6.3-1.1.6-1.4 1.1-.3.5-.5 1.1-.5 1.7 0 .9.4 1.7 1.1 2.3.7.6 1.7.9 3.1.9 1.4 0 2.6-.3 3.6-.9 1.1-.6 1.8-1.4 2.3-2.4.4-.8.6-2 .6-3.5v-1.2zM145 29.1V8.4h3.2v3.1c.8-1.5 1.6-2.4 2.2-2.9s1.4-.7 2.3-.7c1.2 0 2.4.4 3.6 1.1l-1.2 3.3c-.9-.5-1.7-.8-2.6-.8-.8 0-1.5.2-2.1.7-.6.5-1 1.1-1.3 1.9-.4 1.3-.6 2.6-.6 4.1v10.9H145zM172.6 22.4l3.6.4c-.6 2.1-1.6 3.8-3.2 4.9s-3.5 1.8-5.9 1.8c-3 0-5.4-.9-7.2-2.8-1.8-1.9-2.7-4.5-2.7-7.9 0-3.5.9-6.2 2.7-8.1 1.8-1.9 4.1-2.9 7-2.9 2.8 0 5 .9 6.8 2.8 1.8 1.9 2.6 4.5 2.6 8v.9h-15.5c.1 2.3.8 4 1.9 5.2s2.6 1.8 4.3 1.8c1.3 0 2.4-.3 3.3-1 1-.5 1.7-1.6 2.3-3.1zM161 16.8h11.6c-.2-1.7-.6-3.1-1.3-3.9-1.1-1.4-2.6-2-4.4-2-1.6 0-3 .5-4.1 1.6-1.1 1-1.7 2.4-1.8 4.3zM181.6 29.1v-4h4v4h-4zM205.3 21.5l3.5.4c-.4 2.4-1.3 4.2-2.9 5.6s-3.5 2-5.7 2c-2.8 0-5.1-.9-6.8-2.8s-2.6-4.5-2.6-8c0-2.2.4-4.2 1.1-5.9s1.9-2.9 3.4-3.8 3.2-1.3 5-1.3c2.3 0 4.1.6 5.5 1.7 1.4 1.1 2.4 2.8 2.8 4.9l-3.6.7c-.3-1.4-.9-2.4-1.7-3.1s-1.8-1.1-3-1.1c-1.8 0-3.2.6-4.3 1.9s-1.7 3.3-1.7 6c0 2.8.5 4.8 1.6 6.1 1.1 1.3 2.5 1.9 4.2 1.9 1.4 0 2.5-.4 3.5-1.3.8-.8 1.4-2.1 1.7-3.9zM210.4 18.8c0-3.8 1.1-6.7 3.2-8.5 1.8-1.5 4-2.3 6.5-2.3 2.9 0 5.2.9 7 2.8 1.8 1.9 2.7 4.5 2.7 7.7 0 2.7-.4 4.8-1.2 6.3-.8 1.5-2 2.7-3.5 3.6s-3.2 1.3-5 1.3c-2.9 0-5.3-.9-7-2.8-1.8-2-2.7-4.6-2.7-8.1zm3.6 0c0 2.7.6 4.6 1.7 6 1.2 1.3 2.6 2 4.4 2 1.7 0 3.2-.7 4.4-2s1.7-3.4 1.7-6.1c0-2.6-.6-4.5-1.7-5.8-1.2-1.3-2.6-2-4.3-2-1.8 0-3.2.7-4.4 2-1.2 1.2-1.8 3.2-1.8 5.9zM234 29.1V8.4h3.1v2.9c.7-1 1.5-1.8 2.6-2.5 1.1-.6 2.3-.9 3.7-.9 1.5 0 2.8.3 3.8 1 1 .6 1.7 1.5 2.1 2.7 1.6-2.4 3.8-3.6 6.4-3.6 2.1 0 3.6.6 4.7 1.7s1.7 2.9 1.7 5.3v14.2h-3.5V16.1c0-1.4-.1-2.4-.3-3-.2-.6-.6-1.1-1.2-1.5-.6-.4-1.3-.6-2.1-.6-1.5 0-2.7.5-3.6 1.5-1 1-1.4 2.5-1.4 4.7v12.1h-3.5V15.6c0-1.6-.3-2.7-.9-3.5s-1.5-1.2-2.8-1.2c-1 0-1.9.3-2.7.8-.8.5-1.4 1.3-1.8 2.3-.4 1-.6 2.4-.6 4.3v10.8H234z"/></g></svg>