<svg xmlns="http://www.w3.org/2000/svg" xmlns:xlink="http://www.w3.org/1999/xlink" x="0px" y="0px" viewBox="0 0 262.1 29.6" xml:space="preserve"><g><path fill="#13679B" d="M0,29.1L11,0.5h4.1l11.7,28.6h-4.3l-3.3-8.7h-12L4,29.1H0z M8.3,17.4H18l-3-7.9c-0.9-2.4-1.6-4.4-2-5.9 c-0.4,1.8-0.9,3.7-1.5,5.5L8.3,17.4z"/><path fill="#13679B" d="M29.4,29.1V0.5h3.5v10.3c1.6-1.9,3.7-2.9,6.2-2.9c1.5,0,2.9,0.3,4,0.9s1.9,1.4,2.4,2.5 c0.5,1.1,0.7,2.6,0.7,4.6v13.1h-3.5V16c0-1.8-0.4-3-1.1-3.8s-1.8-1.2-3.2-1.2c-1,0-2,0.3-2.9,0.8c-0.9,0.5-1.6,1.3-2,2.2 c-0.4,0.9-0.6,2.2-0.6,3.8v11.3H29.4z"/><path fill="#13679B" d="M65.2,26.6c-1.3,1.1-2.6,1.9-3.8,2.3c-1.2,0.5-2.5,0.7-3.9,0.7c-2.3,0-4-0.6-5.3-1.7 c-1.2-1.1-1.8-2.5-1.8-4.3c0-1,0.2-1.9,0.7-2.8c0.5-0.8,1.1-1.5,1.8-2c0.7-0.5,1.6-0.9,2.5-1.2c0.7-0.2,1.7-0.4,3.1-0.5 c2.8-0.3,4.9-0.7,6.3-1.2c0-0.5,0-0.8,0-0.9c0-1.4-0.3-2.4-1-3c-0.9-0.8-2.2-1.2-4-1.2c-1.7,0-2.9,0.3-3.7,0.9 c-0.8,0.6-1.4,1.6-1.7,3.1L51,14.3c0.3-1.5,0.8-2.7,1.5-3.6c0.7-0.9,1.8-1.6,3.1-2.1c1.4-0.5,2.9-0.7,4.7-0.7 c1.8,0,3.2,0.2,4.3,0.6c1.1,0.4,1.9,0.9,2.4,1.6c0.5,0.6,0.9,1.4,1.1,2.4c0.1,0.6,0.2,1.7,0.2,3.2v4.7c0,3.3,0.1,5.3,0.2,6.2 c0.1,0.9,0.4,1.7,0.9,2.5h-3.7C65.5,28.4,65.3,27.5,65.2,26.6z M64.9,18.7c-1.3,0.5-3.2,1-5.7,1.3c-1.4,0.2-2.5,0.4-3.1,0.7 c-0.6,0.3-1.1,0.6-1.4,1.1c-0.3,0.5-0.5,1.1-0.5,1.7c0,0.9,0.4,1.7,1.1,2.3c0.7,0.6,1.7,0.9,3.1,0.9c1.4,0,2.6-0.3,3.6-0.9 c1.1-0.6,1.8-1.4,2.3-2.4c0.4-0.8,0.6-2,0.6-3.5V18.7z"/><path fill="#13679B" d="M73,19.9l3.6-0.3c0.2,1.4,0.6,2.6,1.2,3.5c0.6,0.9,1.6,1.7,2.9,2.2c1.3,0.6,2.8,0.8,4.4,0.8 c1.4,0,2.7-0.2,3.8-0.6c1.1-0.4,1.9-1,2.5-1.8c0.5-0.7,0.8-1.6,0.8-2.5c0-0.9-0.3-1.7-0.8-2.4c-0.5-0.7-1.4-1.2-2.6-1.7 c-0.8-0.3-2.5-0.8-5.1-1.4c-2.6-0.6-4.5-1.2-5.5-1.8c-1.4-0.7-2.4-1.6-3.1-2.7c-0.7-1.1-1-2.2-1-3.6c0-1.4,0.4-2.8,1.2-4.1 c0.8-1.3,2-2.2,3.6-2.9c1.6-0.7,3.3-1,5.3-1c2.1,0,4,0.3,5.6,1s2.9,1.7,3.7,3c0.9,1.3,1.3,2.8,1.4,4.5l-3.6,0.3 c-0.2-1.8-0.9-3.2-2-4.1c-1.1-0.9-2.8-1.4-5-1.4c-2.3,0-4,0.4-5,1.3c-1,0.8-1.6,1.9-1.6,3c0,1,0.4,1.9,1.1,2.5 c0.7,0.7,2.6,1.3,5.7,2c3.1,0.7,5.2,1.3,6.3,1.8c1.7,0.8,2.9,1.7,3.7,2.9c0.8,1.2,1.2,2.5,1.2,4.1c0,1.5-0.4,3-1.3,4.3 c-0.9,1.3-2.1,2.4-3.8,3.1c-1.6,0.7-3.5,1.1-5.5,1.1c-2.6,0-4.8-0.4-6.5-1.1c-1.8-0.8-3.1-1.9-4.1-3.4C73.6,23.6,73.1,21.8,73,19.9 z"/><path fill="#13679B" d="M100.5,29.1V0.5h3.5v10.3c1.6-1.9,3.7-2.9,6.2-2.9c1.5,0,2.9,0.3,4,0.9s1.9,1.4,2.4,2.5 c0.5,1.1,0.7,2.6,0.7,4.6v13.1h-3.5V16c0-1.8-0.4-3-1.1-3.8s-1.8-1.2-3.2-1.2c-1,0-2,0.3-2.9,0.8c-0.9,0.5-1.6,1.3-2,2.2 c-0.4,0.9-0.6,2.2-0.6,3.8v11.3H100.5z"/><path fill="#13679B" d="M136.3,26.6c-1.3,1.1-2.6,1.9-3.8,2.3c-1.2,0.5-2.5,0.7-3.9,0.7c-2.3,0-4-0.6-5.3-1.7 c-1.2-1.1-1.8-2.5-1.8-4.3c0-1,0.2-1.9,0.7-2.8c0.5-0.8,1.1-1.5,1.8-2c0.7-0.5,1.6-0.9,2.5-1.2c0.7-0.2,1.7-0.4,3.1-0.5 c2.8-0.3,4.9-0.7,6.3-1.2c0-0.5,0-0.8,0-0.9c0-1.4-0.3-2.4-1-3c-0.9-0.8-2.2-1.2-4-1.2c-1.7,0-2.9,0.3-3.7,0.9 c-0.8,0.6-1.4,1.6-1.7,3.1l-3.4-0.5c0.3-1.5,0.8-2.7,1.5-3.6c0.7-0.9,1.8-1.6,3.1-2.1c1.4-0.5,2.9-0.7,4.7-0.7 c1.8,0,3.2,0.2,4.3,0.6c1.1,0.4,1.9,0.9,2.4,1.6c0.5,0.6,0.9,1.4,1.1,2.4c0.1,0.6,0.2,1.7,0.2,3.2v4.7c0,3.3,0.1,5.3,0.2,6.2 c0.1,0.9,0.4,1.7,0.9,2.5H137C136.7,28.4,136.4,27.5,136.3,26.6z M136,18.7c-1.3,0.5-3.2,1-5.7,1.3c-1.4,0.2-2.5,0.4-3.1,0.7 c-0.6,0.3-1.1,0.6-1.4,1.1c-0.3,0.5-0.5,1.1-0.5,1.7c0,0.9,0.4,1.7,1.1,2.3c0.7,0.6,1.7,0.9,3.1,0.9c1.4,0,2.6-0.3,3.6-0.9 c1.1-0.6,1.8-1.4,2.3-2.4c0.4-0.8,0.6-2,0.6-3.5V18.7z"/><path fill="#13679B" d="M145,29.1V8.4h3.2v3.1c0.8-1.5,1.6-2.4,2.2-2.9s1.4-0.7,2.3-0.7c1.2,0,2.4,0.4,3.6,1.1l-1.2,3.3 c-0.9-0.5-1.7-0.8-2.6-0.8c-0.8,0-1.5,0.2-2.1,0.7c-0.6,0.5-1,1.1-1.3,1.9c-0.4,1.3-0.6,2.6-0.6,4.1v10.9H145z"/><path fill="#13679B" d="M172.6,22.4l3.6,0.4c-0.6,2.1-1.6,3.8-3.2,4.9s-3.5,1.8-5.9,1.8c-3,0-5.4-0.9-7.2-2.8 c-1.8-1.9-2.7-4.5-2.7-7.9c0-3.5,0.9-6.2,2.7-8.1c1.8-1.9,4.1-2.9,7-2.9c2.8,0,5,0.9,6.8,2.8c1.8,1.9,2.6,4.5,2.6,8 c0,0.2,0,0.5,0,0.9h-15.5c0.1,2.3,0.8,4,1.9,5.2s2.6,1.8,4.3,1.8c1.3,0,2.4-0.3,3.3-1C171.3,25,172,23.9,172.6,22.4z M161,16.8 h11.6c-0.2-1.7-0.6-3.1-1.3-3.9c-1.1-1.4-2.6-2-4.4-2c-1.6,0-3,0.5-4.1,1.6C161.7,13.5,161.1,14.9,161,16.8z"/><path fill="#13679B" d="M181.6,29.1v-4h4v4H181.6z"/><path fill="#13679B" d="M205.3,21.5l3.5,0.4c-0.4,2.4-1.3,4.2-2.9,5.6s-3.5,2-5.7,2c-2.8,0-5.1-0.9-6.8-2.8s-2.6-4.5-2.6-8 c0-2.2,0.4-4.2,1.1-5.9s1.9-2.9,3.4-3.8s3.2-1.3,5-1.3c2.3,0,4.1,0.6,5.5,1.7c1.4,1.1,2.4,2.8,2.8,4.9L205,15 c-0.3-1.4-0.9-2.4-1.7-3.1s-1.8-1.1-3-1.1c-1.8,0-3.2,0.6-4.3,1.9s-1.7,3.3-1.7,6c0,2.8,0.5,4.8,1.6,6.1c1.1,1.3,2.5,1.9,4.2,1.9 c1.4,0,2.5-0.4,3.5-1.3C204.4,24.6,205,23.3,205.3,21.5z"/><path fill="#13679B" d="M210.4,18.8c0-3.8,1.1-6.7,3.2-8.5c1.8-1.5,4-2.3,6.5-2.3c2.9,0,5.2,0.9,7,2.8c1.8,1.9,2.7,4.5,2.7,7.7 c0,2.7-0.4,4.8-1.2,6.3c-0.8,1.5-2,2.7-3.5,3.6s-3.2,1.3-5,1.3c-2.9,0-5.3-0.9-7-2.8C211.3,24.9,210.4,22.3,210.4,18.8z M214,18.8 c0,2.7,0.6,4.6,1.7,6c1.2,1.3,2.6,2,4.4,2c1.7,0,3.2-0.7,4.4-2s1.7-3.4,1.7-6.1c0-2.6-0.6-4.5-1.7-5.8c-1.2-1.3-2.6-2-4.3-2 c-1.8,0-3.2,0.7-4.4,2C214.6,14.1,214,16.1,214,18.8z"/><path fill="#13679B" d="M234,29.1V8.4h3.1v2.9c0.7-1,1.5-1.8,2.6-2.5c1.1-0.6,2.3-0.9,3.7-0.9c1.5,0,2.8,0.3,3.8,1 c1,0.6,1.7,1.5,2.1,2.7c1.6-2.4,3.8-3.6,6.4-3.6c2.1,0,3.6,0.6,4.7,1.7c1.1,1.1,1.7,2.9,1.7,5.3v14.2h-3.5V16.1 c0-1.4-0.1-2.4-0.3-3c-0.2-0.6-0.6-1.1-1.2-1.5c-0.6-0.4-1.3-0.6-2.1-0.6c-1.5,0-2.7,0.5-3.6,1.5c-1,1-1.4,2.5-1.4,4.7v12.1h-3.5 V15.6c0-1.6-0.3-2.7-0.9-3.5s-1.5-1.2-2.8-1.2c-1,0-1.9,0.3-2.7,0.8c-0.8,0.5-1.4,1.3-1.8,2.3c-0.4,1-0.6,2.4-0.6,4.3v10.8H234z"/></g></svg>