<?xml version="1.0" encoding="utf-8"?><svg version="1.1" id="Layer_1" xmlns="http://www.w3.org/2000/svg" xmlns:xlink="http://www.w3.org/1999/xlink" x="0px" y="0px" viewBox="0 0 1088.6 199.2" style="enable-background:new 0 0 1088.6 199.2;" xml:space="preserve"><style type="text/css">.st0{fill:#FFFFFF;}.st1{fill:#9CBE30;}</style><title>ancestry</title><path class="st0" d="M319.8,85.2c-12.1,1.5-19.7,5-24.7,10.1c-4,4-6.1,9.1-6.1,14.1c0,9.1,6.6,15.6,14.6,15.6c5,0,10.1-2,12.6-5c1-1,2-3,2-5L319.8,85.2L319.8,85.2z M340.5,139.2c-10.1,0-19.2-6.6-21.7-16.6c-5,9.1-14.6,16.6-27.2,16.6c-14.1,0-26.2-11.1-26.2-25.2c0-19.7,18.7-33.8,54-34.3v-5c0.5-14.1-7.6-22.7-21.7-22.7c-10.1,0-20.7,6.6-27.7,15.1c-0.5,0.5-3.5-2.5-3.5-3c9.1-18.2,25.7-28.2,42.9-28.2c19.7,0,33.8,14.1,33.3,37.8L341,113c0,9.1,4,13.1,8.6,13.1c5,0,8.6-4,10.6-9.6c0-0.5,3,1,3,1.5C363.2,131.7,353.1,139.2,340.5,139.2L340.5,139.2z M466.1,135.7h-26.7c-0.5,0-0.5-5,0-5c11.1-1.5,12.6-2.5,12.6-24.2V76.2c0-13.6-8.1-23.2-19.7-23.2c-8.1,0-15.6,4-19.2,9.1c-2.5,3-4,8.6-4,15.6v28.8c0,21.7,2.5,22.7,13.6,24.2c0,0,0.5,5,0,5h-51.5c-0.5,0-0.5-5-0.5-5c12.1-2,13.6-2.5,13.6-24.2V69.6c0-22.2-2.5-23.2-15.6-25.2c-1,0-0.5-5,0-5h38.3v22.2h0.5c8.6-16.1,21.7-25.7,37.8-25.7c18.2,0,32.3,14.1,32.3,37.3v32.8c0,21.7,2,22.7,14.1,24.2c1,0,0.5,5,0,5C484.2,135.7,473.1,135.7,466.1,135.7 M547.3,139.2c-30.3,0-49.9-23.7-49.9-50.9c0-29.3,19.7-52.5,52-52.5c15.1,0,22.7,5,27.2,5c2,0,4-1.5,5-4c0-0.5,6.1-0.5,6.1,0v36.3c0,0.5-6.1,0.5-6.1,0c-8.1-16.6-19.2-30.8-32.3-30.8c-16.1,0-25.7,17.2-25.7,40.9c0,25.2,13.1,41.9,31.3,41.9c12.1,0,25.7-8.6,31.3-18.2c0.5-1,4.5,1,4.5,2C584.1,126.1,567,139.2,547.3,139.2 M669.9,75.2v-7.1c0-15.6-7.6-24.7-17.2-24.7c-12.1,0-21.2,13.1-23.2,31.8L669.9,75.2L669.9,75.2z M629.5,86.8c0,21.7,12.1,38.3,32.8,38.3c12.1,0,24.2-8.1,30.8-18.2c0-0.5,4,1,4,2c-5.5,17.2-23.7,30.3-43.9,30.3c-31.8,0-50.4-23.2-50.4-50.9s19.7-52.5,53-52.5c25.2,0,41.9,16.6,43.4,39.3v7.1h-68.6C629.5,83.2,629.5,85.7,629.5,86.8L629.5,86.8z M749.6,139.2c-15.6,0-29.3-4-33.8-7.1c-0.5-0.5-2-13.6-2-26.7c0-0.5,6.1-1,6.1,0c8.1,17.7,19.7,27.7,32.3,27.7c10.6,0,18.2-5.5,18.2-14.1c0-10.1-12.1-14.6-24.2-20.2c-14.6-5.5-31.3-13.1-31.3-31.8c0-14.6,12.6-29.8,36.3-29.8c10.1,0,16.6,4,21.2,4c2,0,4-1.5,5.5-4c0-0.5,6.1-0.5,6.1,0v33.3c0,0.5-6.1,0.5-6.1,0c-8.1-15.1-17.7-25.7-29.3-25.7c-10.6,0-15.6,7.1-15.6,12.6c0,10.1,11.6,14.1,23.7,19.2c14.6,6.1,31.8,13.6,31.8,32.8C788.4,125.6,773.3,139.2,749.6,139.2 M799.5,49.9c-1.5,0-2-4-0.5-5c10.6-9.6,28.2-25.7,37.8-35.8c0.5-0.5,4,0,4,1v29.8h34.3c1,0,1,9.6,0,9.6h-34.3v56c0,12.6,7.6,18.2,15.6,18.2c6.1,0,12.6-5,15.6-11.1c0-0.5,4,1.5,4,2c-4,13.6-17.2,24.2-31.8,24.2c-15.6,0-28.2-10.1-28.2-29.8v-59L799.5,49.9L799.5,49.9z M958.9,66.1c-3,0-10.6-9.1-16.1-9.1c-2.5,0-5.5,1.5-8.1,4c-4,4-7.6,13.6-7.6,21.7v24.2c0,22.2,3.5,22.7,15.1,24.2c0,0,0.5,5,0,5h-53.5c-0.5,0-0.5-5,0-5c12.1-2,13.6-2.5,13.6-24.2V70.1c0-21.7-2.5-23.2-15.6-25.2c-1,0-0.5-5,0-5h38.8v25.2h1c1-3,3-6.6,4.5-10.1c7.1-11.6,15.6-18.7,24.7-18.7c8.6,0,15.6,6.6,15.6,13.6C972,58,961.4,66.1,958.9,66.1 M1063.3,79.2l-32.8,84.2c-11.6,29.8-22.2,35.8-36.3,35.8c-8.1,0-17.2-4-17.2-6.6c-0.5-4,5-18.7,8.1-18.7c1,0,13.1,5.5,19.2,5.5c8.6,0,14.1-5.5,18.7-17.7l6.1-16.1c-2-8.1-26.2-61-29.3-68.1c-6.1-14.1-10.1-25.2-14.1-29.3c-2.5-2.5-5-3.5-12.1-4.5c-0.5,0-0.5-5,0-5c6.6,0,20.2,0.5,27.7,0.5s20.7-0.5,27.2-0.5c0.5,0,0.5,5,0,5c-15.1,2-13.6,7.1-5.5,27.2l17.7,42.9l14.1-36.8c5-12.6,7.6-20.2,7.6-24.7c0-5.5-3.5-7.6-14.1-8.1c-0.5,0-0.5-5.5,0-5.5c7.1,0,16.1,0.5,22.2,0.5c4.5,0,9.1-0.5,17.7-0.5c0.5,0,1,5.5,0,5.5c-5.5,0.5-8.1,2-11.1,5C1072.9,53.5,1069.9,61.5,1063.3,79.2L1063.3,79.2z"/><path class="st1" d="M150.8,33.3c-17.7-19.2-35.3-16.1-38.3-15.6c1.5,0.5,3,33.8,21.7,51.4c12.6,11.6,38.3,7.6,38.3,7.6S168,52,150.8,33.3 M172,98.4c-5.6,0-28.2,2-43.4,20.7c-15.6,19.7-15.1,35.3-18.7,38.8c3,1,34.8,4,48.4-16.6C171.5,122.1,172,101.4,172,98.4 M33.8,84.7c3.5,0.5,15.6,16.1,37.3,18.2c23.7,2.5,31.8-9.6,32.3-9.6c0-1.5-19.2-22.2-40.4-22.2C48.4,71.6,33.8,84.7,33.8,84.7 M120.1,95.3c-0.5,0.5-20.2,26.7-66.6,19.7C16.1,109,2.5,88.3,0,87.8c3-4,31.3-26.7,64.1-26.2c32.3,1,56,19.2,56,19.2h20.7c-16.6-5-36.8-14.1-45.9-34.3C86.8,27.7,88.3,16.6,84.7,1c0,0,37.3-3,66.1,15.6c26.2,17.1,40.9,62.5,41.4,64.1h16.1L204.8,0L225,0.5c-3.5,21.2,1,172.5,0,172.5c-2,0.5-19.2,1.5-20.7-2.5c0,0,4-74.1,4.5-75.7h-15.6c0,1-1.5,42.9-33.3,65.1c-31.8,22.2-77.7,15.6-77.7,15.6c5.6-8.6,0-17.7,16.1-42.4c18.7-28.2,43.4-38.3,42.9-38.3C139.7,95.3,120.6,95.3,120.1,95.3"/></svg>