<svg xmlns="http://www.w3.org/2000/svg" viewBox="0 0 1088.6 199.2"><path d="M319.8 85.2c-12.1 1.5-19.7 5-24.7 10.1-4 4-6.1 9.1-6.1 14.1 0 9.1 6.6 15.6 14.6 15.6 5 0 10.1-2 12.6-5 1-1 2-3 2-5l1.6-29.8zm20.7 54c-10.1 0-19.2-6.6-21.7-16.6-5 9.1-14.6 16.6-27.2 16.6-14.1 0-26.2-11.1-26.2-25.2 0-19.7 18.7-33.8 54-34.3v-5c.5-14.1-7.6-22.7-21.7-22.7-10.1 0-20.7 6.6-27.7 15.1-.5.5-3.5-2.5-3.5-3 9.1-18.2 25.7-28.2 42.9-28.2 19.7 0 33.8 14.1 33.3 37.8L341 113c0 9.1 4 13.1 8.6 13.1 5 0 8.6-4 10.6-9.6 0-.5 3 1 3 1.5 0 13.7-10.1 21.2-22.7 21.2zm125.6-3.5h-26.7c-.5 0-.5-5 0-5 11.1-1.5 12.6-2.5 12.6-24.2V76.2c0-13.6-8.1-23.2-19.7-23.2-8.1 0-15.6 4-19.2 9.1-2.5 3-4 8.6-4 15.6v28.8c0 21.7 2.5 22.7 13.6 24.2 0 0 .5 5 0 5h-51.5c-.5 0-.5-5-.5-5 12.1-2 13.6-2.5 13.6-24.2V69.6c0-22.2-2.5-23.2-15.6-25.2-1 0-.5-5 0-5H407v22.2h.5c8.6-16.1 21.7-25.7 37.8-25.7 18.2 0 32.3 14.1 32.3 37.3V106c0 21.7 2 22.7 14.1 24.2 1 0 .5 5 0 5-7.5.5-18.6.5-25.6.5m81.2 3.5c-30.3 0-49.9-23.7-49.9-50.9 0-29.3 19.7-52.5 52-52.5 15.1 0 22.7 5 27.2 5 2 0 4-1.5 5-4 0-.5 6.1-.5 6.1 0v36.3c0 .5-6.1.5-6.1 0-8.1-16.6-19.2-30.8-32.3-30.8-16.1 0-25.7 17.2-25.7 40.9 0 25.2 13.1 41.9 31.3 41.9 12.1 0 25.7-8.6 31.3-18.2.5-1 4.5 1 4.5 2-6.6 17.2-23.7 30.3-43.4 30.3m122.6-64v-7.1c0-15.6-7.6-24.7-17.2-24.7-12.1 0-21.2 13.1-23.2 31.8h40.4zm-40.4 11.6c0 21.7 12.1 38.3 32.8 38.3 12.1 0 24.2-8.1 30.8-18.2 0-.5 4 1 4 2-5.5 17.2-23.7 30.3-43.9 30.3-31.8 0-50.4-23.2-50.4-50.9s19.7-52.5 53-52.5c25.2 0 41.9 16.6 43.4 39.3v7.1h-68.6c-1.1 1-1.1 3.5-1.1 4.6zm120.1 52.4c-15.6 0-29.3-4-33.8-7.1-.5-.5-2-13.6-2-26.7 0-.5 6.1-1 6.1 0 8.1 17.7 19.7 27.7 32.3 27.7 10.6 0 18.2-5.5 18.2-14.1 0-10.1-12.1-14.6-24.2-20.2-14.6-5.5-31.3-13.1-31.3-31.8 0-14.6 12.6-29.8 36.3-29.8 10.1 0 16.6 4 21.2 4 2 0 4-1.5 5.5-4 0-.5 6.1-.5 6.1 0v33.3c0 .5-6.1.5-6.1 0-8.1-15.1-17.7-25.7-29.3-25.7-10.6 0-15.6 7.1-15.6 12.6 0 10.1 11.6 14.1 23.7 19.2 14.6 6.1 31.8 13.6 31.8 32.8-.1 16.2-15.2 29.8-38.9 29.8m49.9-89.3c-1.5 0-2-4-.5-5 10.6-9.6 28.2-25.7 37.8-35.8.5-.5 4 0 4 1v29.8h34.3c1 0 1 9.6 0 9.6h-34.3v56c0 12.6 7.6 18.2 15.6 18.2 6.1 0 12.6-5 15.6-11.1 0-.5 4 1.5 4 2-4 13.6-17.2 24.2-31.8 24.2-15.6 0-28.2-10.1-28.2-29.8V50l-16.5-.1zm159.4 16.2c-3 0-10.6-9.1-16.1-9.1-2.5 0-5.5 1.5-8.1 4-4 4-7.6 13.6-7.6 21.7v24.2c0 22.2 3.5 22.7 15.1 24.2 0 0 .5 5 0 5h-53.5c-.5 0-.5-5 0-5 12.1-2 13.6-2.5 13.6-24.2V70.1c0-21.7-2.5-23.2-15.6-25.2-1 0-.5-5 0-5h38.8v25.2h1c1-3 3-6.6 4.5-10.1 7.1-11.6 15.6-18.7 24.7-18.7 8.6 0 15.6 6.6 15.6 13.6.7 8.1-9.9 16.2-12.4 16.2m104.4 13.1l-32.8 84.2c-11.6 29.8-22.2 35.8-36.3 35.8-8.1 0-17.2-4-17.2-6.6-.5-4 5-18.7 8.1-18.7 1 0 13.1 5.5 19.2 5.5 8.6 0 14.1-5.5 18.7-17.7l6.1-16.1c-2-8.1-26.2-61-29.3-68.1-6.1-14.1-10.1-25.2-14.1-29.3-2.5-2.5-5-3.5-12.1-4.5-.5 0-.5-5 0-5 6.6 0 20.2.5 27.7.5s20.7-.5 27.2-.5c.5 0 .5 5 0 5-15.1 2-13.6 7.1-5.5 27.2l17.7 42.9 14.1-36.8c5-12.6 7.6-20.2 7.6-24.7 0-5.5-3.5-7.6-14.1-8.1-.5 0-.5-5.5 0-5.5 7.1 0 16.1.5 22.2.5 4.5 0 9.1-.5 17.7-.5.5 0 1 5.5 0 5.5-5.5.5-8.1 2-11.1 5-4.2 4.3-7.2 12.3-13.8 30z" fill="#fff"/><path d="M150.8 33.3c-17.7-19.2-35.3-16.1-38.3-15.6 1.5.5 3 33.8 21.7 51.4 12.6 11.6 38.3 7.6 38.3 7.6S168 52 150.8 33.3M172 98.4c-5.6 0-28.2 2-43.4 20.7-15.6 19.7-15.1 35.3-18.7 38.8 3 1 34.8 4 48.4-16.6 13.2-19.2 13.7-39.9 13.7-42.9M33.8 84.7c3.5.5 15.6 16.1 37.3 18.2 23.7 2.5 31.8-9.6 32.3-9.6 0-1.5-19.2-22.2-40.4-22.2-14.6.5-29.2 13.6-29.2 13.6m86.3 10.6c-.5.5-20.2 26.7-66.6 19.7-37.4-6-51-26.7-53.5-27.2 3-4 31.3-26.7 64.1-26.2 32.3 1 56 19.2 56 19.2h20.7c-16.6-5-36.8-14.1-45.9-34.3C86.8 27.7 88.3 16.6 84.7 1c0 0 37.3-3 66.1 15.6 26.2 17.1 40.9 62.5 41.4 64.1h16.1L204.8 0l20.2.5c-3.5 21.2 1 172.5 0 172.5-2 .5-19.2 1.5-20.7-2.5 0 0 4-74.1 4.5-75.7h-15.6c0 1-1.5 42.9-33.3 65.1-31.8 22.2-77.7 15.6-77.7 15.6 5.6-8.6 0-17.7 16.1-42.4 18.7-28.2 43.4-38.3 42.9-38.3-1.5.5-20.6.5-21.1.5" fill="#9cbe30"/></svg>