<svg width="117" height="26" viewBox="0 0 117 26" xmlns="http://www.w3.org/2000/svg" xmlns:xlink="http://www.w3.org/1999/xlink"><title>apollo</title><defs><linearGradient x1="0%" y1="55.088%" y2="50%" id="b"><stop stop-color="#FAA960" offset="0%"/><stop stop-color="#F95664" offset="100%"/></linearGradient><path d="M99.439 9.264c0 1.908.65 3.476 1.95 4.706 1.294 1.23 2.788 1.845 4.482 1.845 1.838 0 3.389-.626 4.652-1.878 1.263-1.267 1.894-2.81 1.894-4.628 0-1.841-.624-3.384-1.871-4.628-1.24-1.252-2.776-1.878-4.607-1.878-1.823 0-3.362.626-4.617 1.878-1.256 1.237-1.883 2.764-1.883 4.583zm-2.796-.03c0-2.528.916-4.699 2.75-6.513C101.218.907 103.412 0 105.973 0c2.532 0 4.703.915 6.513 2.744 1.818 1.83 2.727 4.028 2.727 6.594 0 2.581-.913 4.771-2.739 6.57-1.833 1.806-4.046 2.71-6.638 2.71-2.294 0-4.353-.803-6.179-2.408-2.01-1.775-3.014-4.1-3.014-6.977zM85.62 0v16.039h7.791v2.595H82.865V0h2.756zM68.619 0v16.039h7.792v2.595H65.864V0h2.755zM43.73 9.264c0 1.908.65 3.476 1.952 4.706 1.293 1.23 2.787 1.845 4.48 1.845 1.839 0 3.39-.626 4.652-1.878 1.263-1.267 1.895-2.81 1.895-4.628 0-1.841-.624-3.384-1.872-4.628-1.24-1.252-2.776-1.878-4.606-1.878-1.823 0-3.362.626-4.618 1.878-1.255 1.237-1.883 2.764-1.883 4.583zm-2.796-.03c0-2.528.917-4.699 2.75-6.513C45.51.907 47.703 0 50.264 0c2.532 0 4.702.915 6.512 2.744 1.818 1.83 2.727 4.028 2.727 6.594 0 2.581-.912 4.771-2.738 6.57-1.833 1.806-4.046 2.71-6.639 2.71-2.293 0-4.353-.803-6.178-2.408-2.01-1.775-3.015-4.1-3.015-6.977zm-11.067-.726c1.613 0 2.92-1.345 2.92-3.003 0-1.658-1.307-3.003-2.92-3.003h-3.37v6.006h3.37zM30 0a5.441 5.441 0 0 1 5.44 5.306c.078 3.064-2.457 5.558-5.514 5.558h-3.425a.011.011 0 0 0-.011.011v7.731a.01.01 0 0 1-.01.011h-2.735a.01.01 0 0 1-.01-.01V0H30zM11.455 18.617L8.988 24l-2.572-5.383h5.039zm3.39 0L8.988 5.92 2.88 18.617H0L9.036 0l8.716 18.617h-2.907z" id="a"/></defs><g transform="translate(1)" fill="none" fill-rule="evenodd"><use fill="#000" filter="url(#filter-3)" xlink:href="#a"/><use fill="url(#b)" xlink:href="#a"/></g></svg>