<svg xmlns="http://www.w3.org/2000/svg" width="826.166" height="796.729"><path fill="#FFF" d="M376.173 1.74c11.36-.96 22.76-1.65 34.17-1.68a832.972 832.972 0 0 1-86.8 96.82c-18.37 17.43-37.74 33.86-58.62 48.23-11.89 8.31-24.63 15.32-36.63 23.48-46.22 30.84-86.1 71.18-115.94 118.09-25.86 40.76-44.43 86-55.82 132.87-5.6 22.64-9.51 45.67-12.84 68.75-3.35 25.6-1.69 51.5.04 77.16.86 11.01 1.88 22.01 2.92 33.01-43.25-80.97-56.78-177.03-39.12-267 13.52-70.72 46.76-137.38 94.4-191.29a415.517 415.517 0 0 1 79.32-69.61c57.75-38.94 125.48-63.05 194.92-68.83z"/><path fill="#FFF" d="M410.653 0c7.74.13 15.52-.33 23.22.78-6.53 21.24-11.85 42.83-16.62 64.53-4.5 20.09-10.54 39.95-19.59 58.5-15.6 32.67-40.96 60.11-70.89 80.22-29.9 20.04-57.49 43.66-81.14 70.83-23.57 27.13-42.91 57.98-56.78 91.15-17.41 41.94-26.24 87.11-28.61 132.36-1.1 24.35-.11 48.729.6 73.08 2.13 56.159 5.61 112.26 9.67 168.31-10.37-14.07-19-29.35-26.92-44.9-18.21-36.46-31.74-75.369-38.88-115.539-12.78-72.721-5.7-149.311 22.7-217.661 20.25-49.52 51.31-94.21 88.55-132.45 21.04-21.75 44.03-41.54 67.98-60.02 11.13-8.77 22.72-17.1 32.58-27.36 15.73-16.23 29.26-34.42 41.9-53.12 19.21-28.46 36.41-58.24 52.23-88.71z"/><path fill="#FFF" d="M441.163.92c38.93 2.99 77.64 10.55 114.31 24.15 68.261 24.78 129.7 67.94 176.141 123.77 45.02 53.8 75.93 119.39 88.109 188.52 12.67 69.97 6.561 143.22-17.489 210.14-30.351 84.24-89.271 157.79-164.78 205.899 4.479-22.329 10.899-44.229 16.79-66.22 3.7-13.05 7.14-26.189 11.55-39.03 3.87-12.229 6.06-26.04.7-38.18-2.471-5.96-7.43-11.95-14.33-12.32-6.95-.81-13.08 3.04-19.18 5.7 0-4.37-1.58-9.109.77-13.14 2.84-5.94 5.1-12.28 5.68-18.86 0-7.51-4.439-14.84-11.14-18.29 8.85-1.8 17.64-3.87 26.51-5.59-.97-3.49-2.03-6.939-3.189-10.37-10.58-4.77-21.101-9.67-31.65-14.51-4.22 2.02-8.43 4.05-12.64 6.07 4.359 6.76 8.71 13.54 13.02 20.33-5.34-1.37-11.1-1.851-16.27.409-7.54 2.641-13.53 8.391-18.07 14.82-1.17 1.83-2.91 3.12-4.78 4.18.351-11.39-.47-22.92-3.569-33.92-1.15-3.58-2.45-7.68-5.971-9.609-7.659-4.48-16.6-8.101-25.619-6.33-5.2.649-9.551 4.04-12.811 7.96-5 6.04-8.6 13.16-10.92 20.64-.31-14.26 1.03-28.46 1.71-42.67 1.61-30.05 3.64-60.07 4.88-90.14 1.311-13.05 3.21-26.03 4.75-39.05.9-8.31 2.78-16.59 2.061-24.99-.101-6.37-2.94-12.22-5.811-17.75-1.59-2.92-3.39-6.16-6.689-7.36-3.95-1.36-8.37-1.36-12.341-.15-2.979 1.34-4.46 4.46-5.949 7.16-2.21 4.41-5.051 8.53-6.58 13.26-7.21 22.34-7.641 46.06-12.69 68.85-7.74 56.6-15.43 113.22-22.78 169.87-4.27 26.24-11.12 52.38-10.3 79.17.09 10.5 5.15 19.95 7.62 29.96 9.21 33.51 11.65 69.51 3.17 103.43-12.47-6.29-24.01-14.239-35.71-21.83-29.83-19.92-58.39-41.93-83.98-67.119-8.86-8.891-17.61-18.091-23.94-29.021-12.47-20.97-19.25-44.729-24.15-68.47-8.15-41.07-10-83.13-9.02-124.9.26-10.31.75-20.609 1.54-30.88 20.67.51 41.31 1.74 61.99 1.63 16.35.98 32.74.5 49.07-.479 14.9-1.61 30.47.01 44.72-5.521 13.04-5.01 22.31-16.97 26.85-29.85 4.2-14.5-6.92-28.35-3.689-42.91 2.14-7.65 9.14-12.22 13.779-18.23 4.721-6.46 11.391-12.33 12.17-20.79.03-7.95-5.42-14.46-10.199-20.28 8.47-6.56 16.689-14.93 18.869-25.8 1.141-4.91-3.22-8.26-6-11.58-4.649-5.57-11.029-9.72-14.47-16.25-1.439-2.75.37-5.77 1.88-8.06 5.25-6.9 12.74-11.69 20.36-15.59 8.1-4.04 16.71-9.41 19.79-18.43 2.34-5.5.18-11.55-2.59-16.45-5.021-8.42-11.811-15.58-17.95-23.16-18.88-23.04-36.71-46.91-55.01-70.41 8.02.95 16.569 2.03 24.26-1.13 4.53-2 8.33-5.48 10.75-9.8-.59-.42-1.771-1.25-2.351-1.66-8.819 1.66-18.55 3.85-26.899-.72-7.99-3.97-11.12-13.23-11.75-21.57-1.561-21.03 3.8-41.99 1.21-63.01-.523-4.519-1.363-8.999-1.753-13.539z"/><path fill="#FFF" d="M594.193 561.07c5.979-4.37 13.38-7.671 20.939-6.15 5.83 1.31 11.88 3.979 15.42 9.01 3.61 5.601 2.221 12.55.271 18.47-.59-6.04.38-13.579-5.13-17.71-5.641-4.109-12.4-7.899-19.63-7.069-4.15.349-7.95 2.219-11.87 3.449z"/></svg>