<svg xmlns="http://www.w3.org/2000/svg" xmlns:xlink="http://www.w3.org/1999/xlink" x="0px" y="0px" width="826.166px" height="796.729px" viewBox="0 0 826.166 796.729" xml:space="preserve"><path fill="#FFFFFF" d="M376.173,1.74c11.36-0.96,22.76-1.65,34.17-1.68c-26.36,34.47-55.4,66.88-86.8,96.82 c-18.37,17.43-37.74,33.86-58.62,48.23c-11.89,8.31-24.63,15.32-36.63,23.48c-46.22,30.84-86.1,71.18-115.94,118.09 c-25.86,40.76-44.43,86-55.82,132.87c-5.6,22.64-9.51,45.67-12.84,68.75c-3.35,25.6-1.69,51.5,0.04,77.16 c0.86,11.01,1.88,22.01,2.92,33.01c-43.25-80.97-56.78-177.03-39.12-267c13.52-70.72,46.76-137.38,94.4-191.29 c23.34-26.45,50.06-49.9,79.32-69.61C239.003,31.63,306.733,7.52,376.173,1.74L376.173,1.74z"/><path fill="#FFFFFF" d="M410.653,0c7.74,0.13,15.52-0.33,23.22,0.78c-6.53,21.24-11.85,42.83-16.62,64.53 c-4.5,20.09-10.54,39.95-19.59,58.5c-15.6,32.67-40.96,60.11-70.89,80.22c-29.9,20.04-57.49,43.66-81.14,70.83 c-23.57,27.13-42.91,57.98-56.78,91.15c-17.41,41.94-26.24,87.11-28.61,132.36c-1.1,24.35-0.11,48.729,0.6,73.08 c2.13,56.159,5.61,112.26,9.67,168.31c-10.37-14.07-19-29.35-26.92-44.9c-18.21-36.46-31.74-75.369-38.88-115.539 c-12.78-72.721-5.7-149.311,22.7-217.661c20.25-49.52,51.31-94.21,88.55-132.45c21.04-21.75,44.03-41.54,67.98-60.02 c11.13-8.77,22.72-17.1,32.58-27.36c15.73-16.23,29.26-34.42,41.9-53.12C377.633,60.25,394.833,30.47,410.653,0L410.653,0z"/><path fill="#FFFFFF" d="M441.163,0.92c38.93,2.99,77.64,10.55,114.31,24.15c68.261,24.78,129.7,67.94,176.141,123.77 c45.02,53.8,75.93,119.39,88.109,188.52c12.67,69.97,6.561,143.22-17.489,210.14c-30.351,84.24-89.271,157.79-164.78,205.899 c4.479-22.329,10.899-44.229,16.79-66.22c3.7-13.05,7.14-26.189,11.55-39.03c3.87-12.229,6.06-26.04,0.7-38.18 c-2.471-5.96-7.43-11.95-14.33-12.32c-6.95-0.81-13.08,3.04-19.18,5.7c0-4.37-1.58-9.109,0.77-13.14c2.84-5.94,5.1-12.28,5.68-18.86 c0-7.51-4.439-14.84-11.14-18.29c8.85-1.8,17.64-3.87,26.51-5.59c-0.97-3.49-2.03-6.939-3.189-10.37 c-10.58-4.77-21.101-9.67-31.65-14.51c-4.22,2.02-8.43,4.05-12.64,6.07c4.359,6.76,8.71,13.54,13.02,20.33 c-5.34-1.37-11.1-1.851-16.27,0.409c-7.54,2.641-13.53,8.391-18.07,14.82c-1.17,1.83-2.91,3.12-4.78,4.18 c0.351-11.39-0.47-22.92-3.569-33.92c-1.15-3.58-2.45-7.68-5.971-9.609c-7.659-4.48-16.6-8.101-25.619-6.33 c-5.2,0.649-9.551,4.04-12.811,7.96c-5,6.04-8.6,13.16-10.92,20.64c-0.31-14.26,1.03-28.46,1.71-42.67 c1.61-30.05,3.64-60.07,4.88-90.14c1.311-13.05,3.21-26.03,4.75-39.05c0.9-8.31,2.78-16.59,2.061-24.99 c-0.101-6.37-2.94-12.22-5.811-17.75c-1.59-2.92-3.39-6.16-6.689-7.36c-3.95-1.36-8.37-1.36-12.341-0.15 c-2.979,1.34-4.46,4.46-5.949,7.16c-2.21,4.41-5.051,8.53-6.58,13.26c-7.21,22.34-7.641,46.06-12.69,68.85 c-7.74,56.6-15.43,113.22-22.78,169.87c-4.27,26.24-11.12,52.38-10.3,79.17c0.09,10.5,5.15,19.95,7.62,29.96 c9.21,33.51,11.65,69.51,3.17,103.43c-12.47-6.29-24.01-14.239-35.71-21.83c-29.83-19.92-58.39-41.93-83.98-67.119 c-8.86-8.891-17.61-18.091-23.94-29.021c-12.47-20.97-19.25-44.729-24.15-68.47c-8.15-41.07-10-83.13-9.02-124.9 c0.26-10.31,0.75-20.609,1.54-30.88c20.67,0.51,41.31,1.74,61.99,1.63c16.35,0.98,32.74,0.5,49.07-0.479 c14.9-1.61,30.47,0.01,44.72-5.521c13.04-5.01,22.31-16.97,26.85-29.85c4.2-14.5-6.92-28.35-3.689-42.91 c2.14-7.65,9.14-12.22,13.779-18.23c4.721-6.46,11.391-12.33,12.17-20.79c0.03-7.95-5.42-14.46-10.199-20.28 c8.47-6.56,16.689-14.93,18.869-25.8c1.141-4.91-3.22-8.26-6-11.58c-4.649-5.57-11.029-9.72-14.47-16.25 c-1.439-2.75,0.37-5.77,1.88-8.06c5.25-6.9,12.74-11.69,20.36-15.59c8.1-4.04,16.71-9.41,19.79-18.43 c2.34-5.5,0.18-11.55-2.59-16.45c-5.021-8.42-11.811-15.58-17.95-23.16c-18.88-23.04-36.71-46.91-55.01-70.41 c8.02,0.95,16.569,2.03,24.26-1.13c4.53-2,8.33-5.48,10.75-9.8c-0.59-0.42-1.771-1.25-2.351-1.66 c-8.819,1.66-18.55,3.85-26.899-0.72c-7.99-3.97-11.12-13.23-11.75-21.57c-1.561-21.03,3.8-41.99,1.21-63.01 C442.393,9.94,441.553,5.46,441.163,0.92L441.163,0.92z"/><path fill="#FFFFFF" d="M594.193,561.07c5.979-4.37,13.38-7.671,20.939-6.15c5.83,1.31,11.88,3.979,15.42,9.01 c3.61,5.601,2.221,12.55,0.271,18.47c-0.59-6.04,0.38-13.579-5.13-17.71c-5.641-4.109-12.4-7.899-19.63-7.069 C601.913,557.97,598.113,559.84,594.193,561.07L594.193,561.07z"/></svg> 