<svg xmlns="http://www.w3.org/2000/svg" width="227.9" height="77.4"><path fill="#72C0AA" d="M45.1 4.3c-.4-1.9 1.3-3.2 2.6-4.3 2.1 4.4 4.9 8.6 7 13-2.8.2-5.5 1-8.3 1.4-.4-3.2-.2-6.4-.2-9.6-.2-.2-.8-.4-1.1-.5z"/><path fill="#5B9D89" d="M45.1 4.3l1.2.4c0 3.2-.2 6.4.2 9.6-2 1-4.1 2.2-6.5 1.8.2-.9.5-2.7.7-3.6h.4c.3-.1.8-.2 1-.3-.6-3.1 1.4-5.5 3-7.9z"/><path fill="#7CC9AF" d="M12.7 13.3c5-4.5 11.5-6.7 18-8.3 4.7-1.4 9.7.4 14.4-.7-1.6 2.4-3.6 4.8-3 8-.3.1-.8.2-1 .3-.2-1-.5-2-.9-2.9-6.5 0-13.3 1.9-18.1 6.5-2.7 2.1-4.2 5.3-6.5 7.8l-1-.6c.7-2.2 1.2-4.4 1.1-6.7 0-.5-.1-1.5-.1-2l-.6-.4c-.6-.3-1.8-.8-2.3-1z"/><path fill="#68A5BC" d="M15 14.3l.6.3c0 .5.1 1.5.1 2-.7 1.7-1.4 3.3-2.3 4.9-1.8-1.5-3.6-3.2-5.1-5l1.2-1.2c1.7-.8 3.6-.8 5.5-1z"/><path fill="#73BAD2" d="M2.2 15.9c2-2 4.9-.9 7.3-.5l-1.2 1.2c1.6 1.8 3.3 3.4 5.1 5 .9-1.6 1.5-3.3 2.3-4.9 0 2.3-.5 4.6-1.1 6.7-.5 1.7-.9 3.3-1.4 5-2-2.4-3.8-5.1-6.5-6.8l-1-.7c-2-1-2.7-3.1-3.5-5z"/><path fill="#766259" d="M40.9 17.2c4.7 8.8 9.5 17.9 13.5 27-3.1-.9-6.7-2.6-9.3.4-2.2-1.4-4.4-2.8-6.7-4.1 2.4-.1 4.9 0 7.3-.1-1.4-3.7-2.9-7.5-4.8-11-1.1 3.5-2.1 7.3-4.5 10.2-.6-2-1.9-3.6-3.7-4.7l-.1-.1c2.7-5.9 5.7-11.6 8.3-17.6z"/><path fill="#76BFD5" d="M181 18.4c2.6 0 5.1.1 7.7 0-1 11.4-1 22.8-.5 34.2-1.9-3.2-2.6-6.8-3.5-10.3-1.3 2.8-2.1 5.8-2.7 8.9-.3-11 .9-22-1-32.8z"/><path fill="#92D4DA" d="M197.2 18.6c8.8-.3 18.8-.1 25.6 6.3 7.9 8.5 6.7 25.1-4.1 30.5 3.3-4 7.6-8.9 5.2-14.5-.8-.3-1.6-.5-2.5-.8.2-5-1-10.6-5.1-13.8-3.3-2.5-7.6-4.2-11.8-3.7-.4 7.2.1 14.5-.2 21.7-2.6-6.2-1.6-13.1-3.7-19.5-.8 1.5-1.5 3-2.1 4.6-.7-3.5-.7-7.2-1.3-10.8zM1.4 49.2c-3-9.5-1-20 4.4-28.3l1 .7c.7 1.4 1.4 3 .5 4.5-2.5 5.7-2.5 12.1-1 18.1-1.3-1.7-2.6-3.4-4-5-.3 3.3-.6 6.6-.9 10z"/><path fill="#70B5CE" d="M172.1 21.6c-5.9-4.6-13.9-3.2-20.9-3.2 2 7.2.9 14.7 1.3 22 .9-3.1 1.4-6.2 1.9-9.3 2.8 1.8 2.6 5.6 3.9 8.3 1.2.5 2.5.8 3.7 1.2 0 .3.1 1 .1 1.4 4.3-.2 9.6-1.6 11.8-5.8 2.1-4.7 1.8-10.8-1.8-14.6zm-4.9 14.7c-2 2.3-5.3 2.7-8.2 2.5.1-5.5-.1-11 .1-16.6 4.1-.9 8.6 1.5 9.3 5.8.1 2.8.8 6.1-1.2 8.3z"/><path fill="#957F71" d="M90.3 24.6c.5 1.7.7 3.4.7 5.1 2.1.4 4.3.3 6.5.4 0 1.2.1 2.4.1 3.6-2.2.2-4.4-.2-6.5.2-.4 4.4.2 8.9-.3 13.3-1.8-2.7-2.5-5.9-3.3-9-.7 1.3-1.4 2.7-2 4-.1-2.7 0-5.4 0-8-1.2-.3-2.4-.5-3.5-.7 2.8-2.8 5.6-5.8 8.3-8.9z"/><path fill="#73BAD2" d="M200.7 24.9c2 6.4 1 13.3 3.7 19.5 0 3.3-.2 6.7.3 10 3.4-.4 6.9-.9 9.9-2.7 4.3-2 6.8-6.8 6.9-11.4.8.3 1.6.5 2.5.8 2.5 5.5-1.9 10.5-5.2 14.5-6.3 4.2-14.4 2.7-21.6 3 1.9-9.5 1.3-19.3 1.4-29 .6-1.7 1.3-3.2 2.1-4.7z"/><path fill="#64AC9A" d="M8.8 24.7c1.3 1.8 3.3 3.1 4.4 4.9-1.9 4.1-1.9 8.7-1.6 13.1-1.9-3.8-1.7-8.5-5-11.4.8-2.1 1.3-4.4 2.2-6.6z"/><path fill="#826D62" d="M64.2 36.9c.6-6.8 9.4-9.1 14.8-6.3v5.1c-2.1-1.8-5.4-3.6-7.9-1.5-1.3.5-.9 2.2-1 3.4 2.1 4.1 7.2 5.7 9.1 10-1.8 1.5-4.3 0-6.3.9h-.2c-3.3-3.4-9.2-6-8.5-11.6z"/><path fill="#9F8879" d="M101.9 30.1c2-.6 4.2-.4 6.2.1 0 1.6 0 3.3.1 4.9 1.5-1.5 2.6-3.2 4.1-4.6 1.9-1.1 4.1-1.1 6.2-.8 0 1.9-.4 3.7-.6 5.6-1.5-.1-2.9-.4-4.3-1-1.9.6-3.9 1-5.5 2.1-.3 4.4.1 8.8-.2 13.2-1.5-2.4-2.7-5-3.7-7.7l-1.8 4.2c.2-5.3.3-10.7-.5-16z"/><path fill="#B49C8A" d="M125.3 32.1c4.8-3.2 11.6-3.7 16.3-.1 4.7 4.1 5.4 10.9 4 16.6-.7 1-.4 3.1-2.1 3.2-.5-4.3.8-9.2-1.8-13-.5-1.1-1.8-1.1-2.8-1.2-1.7-2.9-5.2-5.1-8.6-4.2-2 1.3-3.3 3.3-4.2 5.5.1-2.1.4-4.4-.6-6.4l-.2-.4z"/><path fill="#5F94A9" d="M152.6 40.4c.9-3.1 1.4-6.2 1.9-9.3 2.8 1.8 2.6 5.6 3.9 8.3 1.2.5 2.5.8 3.7 1.2 0 .3.1 1 .1 1.4-.8.1-2.3.4-3.1.6-.3 5.3.1 10.5 1.1 15.7-2.8.3-5.5 0-8.3.1.7-5.9.7-11.9.7-18z"/><path fill="#5B9781" d="M6.6 31.4c3.4 2.9 3.1 7.6 5 11.4 1.6 5.1 3.8 10.5 7.9 14.2-2.1-.3-4-1.2-5.8-2.3-.9-.7-1.7-1.4-2.5-2.1-.3-.4-.8-1.1-1.1-1.5-3.6-5.9-4.4-13-3.5-19.7z"/><path fill="#9F8879" d="M125.4 32.6c1 2 .8 4.2.6 6.4-.6 4.8-.3 10.5 3.7 14 2 1.7 5.6 2.9 7.5.5 4.3-3.9 4.1-10.9 1.6-15.7 1 .1 2.3.1 2.8 1.2 2.7 3.8 1.4 8.7 1.8 13 .2 1.5-1.3 2.5-2.2 3.5-4.5 4-11.8 4.2-16.5.4-6.5-5.9-6.3-17.9.7-23.3z"/><path fill="#56423E" d="M20 57.9c5.5-6.8 8.3-15.4 12.5-23 1.8 1.1 3.1 2.6 3.7 4.7 0 .3-.1.8-.1 1 .5 0 1.6 0 2.1-.1 2.3 1.3 4.5 2.6 6.7 4.1l1.2.8H33.4c-1.6 4.1-3.5 8.2-3.6 12.7-3.3.3-6.4-1-9.8-.2z"/><path fill="#826D62" d="M87.4 38.3c.8 3.1 1.5 6.3 3.3 9 .7 1.4.2 3.1.7 4.5 1.8 2.7 5.6 2 8.1.8-1 1.9-1 5.4-3.7 5.7-3.1.4-7.3 1-9.3-2-1.9-4.4-.9-9.3-1.1-13.9.6-1.5 1.3-2.8 2-4.1z"/><path fill="#79C2D6" d="M2.2 39.2c1.4 1.6 2.7 3.3 4 5 1 2.4 1.4 5.5 3.9 6.9.3.4.8 1.1 1.1 1.5-1.3 2.6-2.2 5.3-2.5 8.2-.8-.6-1.5-1.3-2-2.1-.1-.5-.2-1.6-.2-2.2-.5.1-1.5.2-2 .3-1.2-2.4-2.3-5-3.1-7.6.3-3.4.6-6.7.8-10z"/><path fill="#65524B" d="M45 44.6c2.6-3 6.2-1.3 9.3-.4l.4.3c2.1 4.7 4.6 9.3 7.4 13.6-3.3.3-6.6 0-9.9.1-.5-4.5-2.3-8.5-4.2-12.6-.5 0-1.4-.1-1.9-.1l-1.1-.9z"/><path fill="#8D796C" d="M104.4 42c1 2.7 2.2 5.2 3.7 7.7.1 2.9.7 5.7 1.2 8.5h-7.8c1.4-3.8 1.2-7.9 1.2-11.9.5-1.5 1.1-2.9 1.7-4.3z"/><path fill="#6AA9C1" d="M182 51.1c.6-3 1.4-6 2.7-8.9.9 3.5 1.6 7.1 3.5 10.3.1 2 .8 3.9 1 5.9-2.8.1-5.6 0-8.4.1.5-2.4.6-5 1.2-7.4z"/><path fill="#705C54" d="M72.9 48.4c2-.9 4.5.7 6.3-.9.9 3 .5 6.6-2 8.7-3.9 3.1-9.3 2.5-13.8 1.3 0-2.4-.3-4.9.3-7.3 2.1 2 4.8 4.7 8 3.9 2.5-.7 2.9-3.9 1.2-5.7z"/><path fill="#6DB0C9" d="M11.2 52.5c.8.7 1.7 1.4 2.5 2.1 1.9 4.2 6 7.2 10.1 9.1-3.5-.9-6.2 2.1-8.4 4.3 0 .5-.1 1.5-.2 2-3.3-1.7-6.2-4.6-6.2-8.5-.1-.2-.2-.7-.3-.9.3-2.8 1.2-5.5 2.5-8.1z"/><path fill="#83D0B7" d="M52.6 62.7c2.8-1.2 5.4-2.8 8.3-3.8.1 1.8.1 3.6 0 5.4-3.9-.1-7.7 1-11.5.9-.2-1.8 2.1-1.8 3.2-2.5z"/><path fill="#629AAE" d="M15.4 68.1c2.2-2.3 4.9-5.3 8.4-4.3 6 2.7 12.6 2 18.8.3-3.2 3-7.1 4.9-11 6.8 5.2 3.3 11.4 3.9 17.4 3.7-11.3 3.1-23.7 1.2-33.8-4.5.1-.5.2-1.5.2-2z"/><path fill="#7FCDB2" d="M51.9 72.6c2.5.1 5-.2 7.5-.3 0 .3.1 1 .1 1.3-2.5 1.3-5.1 2.3-7.5 3.8 0-1.7-.1-3.2-.1-4.8z"/></svg>