<svg xmlns="http://www.w3.org/2000/svg" xmlns:xlink="http://www.w3.org/1999/xlink" x="0px" y="0px" width="227.9px" height="77.4px" viewBox="0 0 227.9 77.4" xml:space="preserve"><path fill="#72C0AA" d="M45.1,4.3c-0.4-1.9,1.3-3.2,2.6-4.3c2.1,4.4,4.9,8.6,7,13c-2.8,0.2-5.5,1-8.3,1.4c-0.4-3.2-0.2-6.4-0.2-9.6 C46,4.6,45.4,4.4,45.1,4.3L45.1,4.3z"/><path fill="#5B9D89" d="M45.1,4.3c0.3,0.1,0.9,0.3,1.2,0.4c0,3.2-0.2,6.4,0.2,9.6c-2,1-4.1,2.2-6.5,1.8c0.2-0.9,0.5-2.7,0.7-3.6 l0.4,0c0.3-0.1,0.8-0.2,1-0.3C41.5,9.1,43.5,6.7,45.1,4.3L45.1,4.3z"/><path fill="#7CC9AF" d="M12.7,13.3C17.7,8.8,24.2,6.6,30.7,5c4.7-1.4,9.7,0.4,14.4-0.7c-1.6,2.4-3.6,4.8-3,8c-0.3,0.1-0.8,0.2-1,0.3 c-0.2-1-0.5-2-0.9-2.9c-6.5,0-13.3,1.9-18.1,6.5c-2.7,2.1-4.2,5.3-6.5,7.8l-1-0.6c0.7-2.2,1.2-4.4,1.1-6.7c0-0.5-0.1-1.5-0.1-2 L15,14.3C14.4,14,13.2,13.5,12.7,13.3L12.7,13.3z"/><path fill="#68A5BC" d="M15,14.3l0.6,0.3c0,0.5,0.1,1.5,0.1,2c-0.7,1.7-1.4,3.3-2.3,4.9c-1.8-1.5-3.6-3.2-5.1-5 c0.4-0.4,0.8-0.8,1.2-1.2C11.2,14.5,13.1,14.5,15,14.3L15,14.3z"/><path fill="#73BAD2" d="M2.2,15.9c2-2,4.9-0.9,7.3-0.5c-0.4,0.4-0.8,0.8-1.2,1.2c1.6,1.8,3.3,3.4,5.1,5c0.9-1.6,1.5-3.3,2.3-4.9 c0,2.3-0.5,4.6-1.1,6.7c-0.5,1.7-0.9,3.3-1.4,5c-2-2.4-3.8-5.1-6.5-6.8l-1-0.7C3.7,19.9,3,17.8,2.2,15.9L2.2,15.9z"/><path fill="#766259" d="M40.9,17.2c4.7,8.8,9.5,17.9,13.5,27c-3.1-0.9-6.7-2.6-9.3,0.4c-2.2-1.4-4.4-2.8-6.7-4.1 c2.4-0.1,4.9,0,7.3-0.1c-1.4-3.7-2.9-7.5-4.8-11c-1.1,3.5-2.1,7.3-4.5,10.2c-0.6-2-1.9-3.6-3.7-4.7l-0.1-0.1 C35.3,28.9,38.3,23.2,40.9,17.2L40.9,17.2z"/><path fill="#76BFD5" d="M181,18.4c2.6,0,5.1,0.1,7.7,0c-1,11.4-1,22.8-0.5,34.2c-1.9-3.2-2.6-6.8-3.5-10.3c-1.3,2.8-2.1,5.8-2.7,8.9 C181.7,40.2,182.9,29.2,181,18.4L181,18.4z"/><path fill="#92D4DA" d="M197.2,18.6c8.8-0.3,18.8-0.1,25.6,6.3c7.9,8.5,6.7,25.1-4.1,30.5c3.3-4,7.6-8.9,5.2-14.5 c-0.8-0.3-1.6-0.5-2.5-0.8c0.2-5-1-10.6-5.1-13.8c-3.3-2.5-7.6-4.2-11.8-3.7c-0.4,7.2,0.1,14.5-0.2,21.7c-2.6-6.2-1.6-13.1-3.7-19.5 c-0.8,1.5-1.5,3-2.1,4.6C197.8,25.9,197.8,22.2,197.2,18.6L197.2,18.6z"/><path fill="#92D4DA" d="M1.4,49.2c-3-9.5-1-20,4.4-28.3l1,0.7c0.7,1.4,1.4,3,0.5,4.5c-2.5,5.7-2.5,12.1-1,18.1c-1.3-1.7-2.6-3.4-4-5 C2,42.5,1.7,45.8,1.4,49.2L1.4,49.2z"/><g><path fill="#70B5CE" d="M172.1,21.6c-5.9-4.6-13.9-3.2-20.9-3.2c2,7.2,0.9,14.7,1.3,22c0.9-3.1,1.4-6.2,1.9-9.3 c2.8,1.8,2.6,5.6,3.9,8.3c1.2,0.5,2.5,0.8,3.7,1.2c0,0.3,0.1,1,0.1,1.4c4.3-0.2,9.6-1.6,11.8-5.8C176,31.5,175.7,25.4,172.1,21.6z M167.2,36.3c-2,2.3-5.3,2.7-8.2,2.5c0.1-5.5-0.1-11,0.1-16.6c4.1-0.9,8.6,1.5,9.3,5.8C168.5,30.8,169.2,34.1,167.2,36.3z"/></g><path fill="#957F71" d="M90.3,24.6c0.5,1.7,0.7,3.4,0.7,5.1c2.1,0.4,4.3,0.3,6.5,0.4c0,1.2,0.1,2.4,0.1,3.6 c-2.2,0.2-4.4-0.2-6.5,0.2c-0.4,4.4,0.2,8.9-0.3,13.3c-1.8-2.7-2.5-5.9-3.3-9c-0.7,1.3-1.4,2.7-2,4c-0.1-2.7,0-5.4,0-8 c-1.2-0.3-2.4-0.5-3.5-0.7C84.8,30.7,87.6,27.7,90.3,24.6L90.3,24.6z"/><path fill="#73BAD2" d="M200.7,24.9c2,6.4,1,13.3,3.7,19.5c0,3.3-0.2,6.7,0.3,10c3.4-0.4,6.9-0.9,9.9-2.7c4.3-2,6.8-6.8,6.9-11.4 c0.8,0.3,1.6,0.5,2.5,0.8c2.5,5.5-1.9,10.5-5.2,14.5c-6.3,4.2-14.4,2.7-21.6,3c1.9-9.5,1.3-19.3,1.4-29 C199.2,27.9,199.9,26.4,200.7,24.9L200.7,24.9z"/><path fill="#64AC9A" d="M8.8,24.7c1.3,1.8,3.3,3.1,4.4,4.9c-1.9,4.1-1.9,8.7-1.6,13.1c-1.9-3.8-1.7-8.5-5-11.4 C7.4,29.2,7.9,26.9,8.8,24.7L8.8,24.7z"/><path fill="#826D62" d="M64.2,36.9c0.6-6.8,9.4-9.1,14.8-6.3c0,1.7,0,3.4,0,5.1c-2.1-1.8-5.4-3.6-7.9-1.5c-1.3,0.5-0.9,2.2-1,3.4 c2.1,4.1,7.2,5.7,9.1,10c-1.8,1.5-4.3,0-6.3,0.9l-0.2,0C69.4,45.1,63.5,42.5,64.2,36.9L64.2,36.9z"/><path fill="#9F8879" d="M101.9,30.1c2-0.6,4.2-0.4,6.2,0.1c0,1.6,0,3.3,0.1,4.9c1.5-1.5,2.6-3.2,4.1-4.6c1.9-1.1,4.1-1.1,6.2-0.8 c0,1.9-0.4,3.7-0.6,5.6c-1.5-0.1-2.9-0.4-4.3-1c-1.9,0.6-3.9,1-5.5,2.1c-0.3,4.4,0.1,8.8-0.2,13.2c-1.5-2.4-2.7-5-3.7-7.7 c-0.6,1.4-1.2,2.8-1.8,4.2C102.6,40.8,102.7,35.4,101.9,30.1L101.9,30.1z"/><path fill="#B49C8A" d="M125.3,32.1c4.8-3.2,11.6-3.7,16.3-0.1c4.7,4.1,5.4,10.9,4,16.6c-0.7,1-0.4,3.1-2.1,3.2 c-0.5-4.3,0.8-9.2-1.8-13c-0.5-1.1-1.8-1.1-2.8-1.2c-1.7-2.9-5.2-5.1-8.6-4.2c-2,1.3-3.3,3.3-4.2,5.5c0.1-2.1,0.4-4.4-0.6-6.4 L125.3,32.1L125.3,32.1z"/><path fill="#5F94A9" d="M152.6,40.4c0.9-3.1,1.4-6.2,1.9-9.3c2.8,1.8,2.6,5.6,3.9,8.3c1.2,0.5,2.5,0.8,3.7,1.2c0,0.3,0.1,1,0.1,1.4 c-0.8,0.1-2.3,0.4-3.1,0.6c-0.3,5.3,0.1,10.5,1.1,15.7c-2.8,0.3-5.5,0-8.3,0.1C152.6,52.5,152.6,46.5,152.6,40.4L152.6,40.4z"/><path fill="#5B9781" d="M6.6,31.4c3.4,2.9,3.1,7.6,5,11.4c1.6,5.1,3.8,10.5,7.9,14.2c-2.1-0.3-4-1.2-5.8-2.3 c-0.9-0.7-1.7-1.4-2.5-2.1c-0.3-0.4-0.8-1.1-1.1-1.5C6.5,45.2,5.7,38.1,6.6,31.4L6.6,31.4z"/><path fill="#9F8879" d="M125.4,32.6c1,2,0.8,4.2,0.6,6.4c-0.6,4.8-0.3,10.5,3.7,14c2,1.7,5.6,2.9,7.5,0.5c4.3-3.9,4.1-10.9,1.6-15.7 c1,0.1,2.3,0.1,2.8,1.2c2.7,3.8,1.4,8.7,1.8,13c0.2,1.5-1.3,2.5-2.2,3.5c-4.5,4-11.8,4.2-16.5,0.4C118.2,50,118.4,38,125.4,32.6 L125.4,32.6z"/><path fill="#56423E" d="M20,57.9c5.5-6.8,8.3-15.4,12.5-23c1.8,1.1,3.1,2.6,3.7,4.7c0,0.3-0.1,0.8-0.1,1c0.5,0,1.6,0,2.1-0.1 c2.3,1.3,4.5,2.6,6.7,4.1l1.2,0.8c-4.3,0-8.5,0-12.7,0c-1.6,4.1-3.5,8.2-3.6,12.7C26.5,58.4,23.4,57.1,20,57.9L20,57.9z"/><path fill="#826D62" d="M87.4,38.3c0.8,3.1,1.5,6.3,3.3,9c0.7,1.4,0.2,3.1,0.7,4.5c1.8,2.7,5.6,2,8.1,0.8c-1,1.9-1,5.4-3.7,5.7 c-3.1,0.4-7.3,1-9.3-2c-1.9-4.4-0.9-9.3-1.1-13.9C86,40.9,86.7,39.6,87.4,38.3L87.4,38.3z"/><path fill="#79C2D6" d="M2.2,39.2c1.4,1.6,2.7,3.3,4,5c1,2.4,1.4,5.5,3.9,6.9c0.3,0.4,0.8,1.1,1.1,1.5c-1.3,2.6-2.2,5.3-2.5,8.2 c-0.8-0.6-1.5-1.3-2-2.1c-0.1-0.5-0.2-1.6-0.2-2.2c-0.5,0.1-1.5,0.2-2,0.3c-1.2-2.4-2.3-5-3.1-7.6C1.7,45.8,2,42.5,2.2,39.2 L2.2,39.2z"/><path fill="#65524B" d="M45,44.6c2.6-3,6.2-1.3,9.3-0.4l0.4,0.3c2.1,4.7,4.6,9.3,7.4,13.6c-3.3,0.3-6.6,0-9.9,0.1 c-0.5-4.5-2.3-8.5-4.2-12.6c-0.5,0-1.4-0.1-1.9-0.1L45,44.6L45,44.6z"/><path fill="#8D796C" d="M104.4,42c1,2.7,2.2,5.2,3.7,7.7c0.1,2.9,0.7,5.7,1.2,8.5c-2.6,0-5.2,0-7.8,0c1.4-3.8,1.2-7.9,1.2-11.9 C103.2,44.8,103.8,43.4,104.4,42L104.4,42z"/><path fill="#6AA9C1" d="M182,51.1c0.6-3,1.4-6,2.7-8.9c0.9,3.5,1.6,7.1,3.5,10.3c0.1,2,0.8,3.9,1,5.9c-2.8,0.1-5.6,0-8.4,0.1 C181.3,56.1,181.4,53.5,182,51.1L182,51.1z"/><path fill="#705C54" d="M72.9,48.4c2-0.9,4.5,0.7,6.3-0.9c0.9,3,0.5,6.6-2,8.7c-3.9,3.1-9.3,2.5-13.8,1.3c0-2.4-0.3-4.9,0.3-7.3 c2.1,2,4.8,4.7,8,3.9C74.2,53.4,74.6,50.2,72.9,48.4L72.9,48.4z"/><path fill="#6DB0C9" d="M11.2,52.5c0.8,0.7,1.7,1.4,2.5,2.1c1.9,4.2,6,7.2,10.1,9.1c-3.5-0.9-6.2,2.1-8.4,4.3c0,0.5-0.1,1.5-0.2,2 c-3.3-1.7-6.2-4.6-6.2-8.5c-0.1-0.2-0.2-0.7-0.3-0.9C9,57.8,9.9,55.1,11.2,52.5L11.2,52.5z"/><path fill="#83D0B7" d="M52.6,62.7c2.8-1.2,5.4-2.8,8.3-3.8c0.1,1.8,0.1,3.6,0,5.4c-3.9-0.1-7.7,1-11.5,0.9 C49.2,63.4,51.5,63.4,52.6,62.7L52.6,62.7z"/><path fill="#629AAE" d="M15.4,68.1c2.2-2.3,4.9-5.3,8.4-4.3c6,2.7,12.6,2,18.8,0.3c-3.2,3-7.1,4.9-11,6.8c5.2,3.3,11.4,3.9,17.4,3.7 c-11.3,3.1-23.7,1.2-33.8-4.5C15.3,69.6,15.4,68.6,15.4,68.1L15.4,68.1z"/><path fill="#7FCDB2" d="M51.9,72.6c2.5,0.1,5-0.2,7.5-0.3c0,0.3,0.1,1,0.1,1.3c-2.5,1.3-5.1,2.3-7.5,3.8 C52,75.7,51.9,74.2,51.9,72.6L51.9,72.6z"/></svg>