<svg version="1.1" id="Camada_1" xmlns="http://www.w3.org/2000/svg" xmlns:xlink="http://www.w3.org/1999/xlink" x="0px" y="0px" viewBox="0 0 990.2 339.5" style="enable-background:new 0 0 990.2 339.5;" xml:space="preserve"><style type="text/css">.st0{fill:#FFFFFF;}</style><g><g><g><path class="st0" d="M492.3,206.1H424l-9.2,28.9h-46l62.6-184H485l62.6,184h-46L492.3,206.1z M479.7,166.7l-21.6-67.6l-21.6,67.6L479.7,166.7L479.7,166.7z"/><path class="st0" d="M611.9,141.4v46.5c0,11.3,9.7,12.4,27.1,11.3v35.7c-51.5,5.3-66.5-10.2-66.5-47v-46.5h-21v-37.8h21v-25l39.4-11.8v36.8H639v37.8H611.9z"/></g><g><path class="st0" d="M656,43.1h39.4V235H656V43.1z"/><path class="st0" d="M859.2,103.6V235h-39.4v-12.4c-8.7,10-21.6,16-39.2,16c-34.4,0-62.8-30.2-62.8-69.4s28.4-69.4,62.8-69.4c17.6,0,30.5,6,39.2,16v-12.4h39.4V103.6z M819.8,169.3c0-19.7-13.1-32.1-31.3-32.1s-31.3,12.4-31.3,32.1s13.1,32.1,31.3,32.1S819.8,189,819.8,169.3z"/></g><g><path class="st0" d="M988.8,195.6c0,30.2-26.3,43.1-54.7,43.1c-26.3,0-46.3-10-56.5-31.3l34.2-19.4c3.4,10,10.8,15.5,22.3,15.5c9.5,0,14.2-2.9,14.2-8.1c0-14.5-64.7-6.8-64.7-52.3c0-28.6,24.2-43.1,51.5-43.1c21.3,0,40.2,9.5,51.3,28.1l-33.6,18.1c-3.7-6.8-8.9-11.6-17.6-11.6c-6.8,0-11,2.6-11,7.4C924.1,156.9,988.8,147,988.8,195.6z"/></g></g><path class="st0" d="M20.3,165.4c15.8,0.1,31.6,0,47.4,0.1c0.1-20.7,3.6-41.1,7.5-61.4C62.1,104.2,49,104.3,36,104C26.1,122.9,21.3,144.2,20.3,165.4 M47.6,83.7c11.4,0.3,22.8,0.4,34.2,0c6.1-18.1,15.3-35,26.6-50.3C84.4,44.7,63.1,62,47.6,83.7 M180.4,21.2c-0.4,20.9,0.1,41.7-0.2,62.6c18.8,0,37.7,0,56.5,0C226.1,57.5,209,30.1,180.4,21.2 M102.9,83.7c18.9,0.2,37.8,0.1,56.7,0.1c0-20.9,0.2-41.8-0.1-62.7C130.8,30.1,113.7,57.5,102.9,83.7 M139.6,2.8c43.2-8.1,89.2,1.9,125.6,26.4c-0.8,7.6-2,15-3.9,22.4c-9.3-7-19.3-13-29.7-18c8.5,11.8,15.9,24.4,21.8,37.7c-7.1,12.2-16.6,22.8-26.6,32.7c-15.5,0.2-31,0-46.5,0.1c-0.1,12.1,0,24.1-0.1,36.1c-6.9,4.9-13.8,9.9-20.7,14.9c-0.1-17,0.2-34-0.2-51.1c-21,0.1-41.9,0.1-62.9,0c-5.7,20-8.2,40.8-8.8,61.5c19.1,0,38.3-0.2,57.4,0.1c-8.5,6.7-17,13.3-25.2,20.3c-10.7-0.1-21.3-0.1-32,0.1c0.9,8.7,2.4,17.4,2.8,26.2c-4.3,7.3-10.9,13-16,19.8c-3.4-15.2-5.5-30.6-6.8-46.1c-15.5,0-31.1,0-46.6,0c1.7,17.8,6.9,35.1,14.8,51c1.6,2.5,2.3,6.2,5.3,7.4c8,0.6,16,0.2,24,0.2c-8.2,12.6-15.7,25.7-21.5,39.6C16.4,253.4-0.2,212.8,0,171.5c-0.9-38.7,12.8-77.2,36.8-107.4C62.3,32.2,99.5,9.8,139.6,2.8"/><path class="st0" d="M260.8,89.4c10.5-14.4,16.8-31.5,19.4-49.1c29.3,25.7,50.3,61.1,56.9,99.7c10,53.7-8.2,111.5-46.9,149.9c-2.6-6.6-4.9-13.3-4.9-20.5c-1-21.9,13-40.9,13.5-62.7c-6,25.4-25.9,44.4-32.7,69.4c-3.3,10.9-1.5,22.3,0.9,33.3c-12.1,7.9-24.9,14.9-38.6,19.8c-1.3-12.6-1.1-25.6,3.2-37.7c11.9-36.8,39.5-65.5,55.4-100.4c4.2-9.1,6.8-18.8,7.9-28.7c-4.7,13.2-11.3,25.9-20.6,36.5c-20.5,24-46.3,43.2-64.4,69.2c-14.9,20.6-23.4,45.6-24.1,71c-13.6,0.8-27.2,0.8-40.6-1.4c3.9-22.5,11.9-44.3,23.7-63.9c20.2-33.7,49.1-60.8,75.3-89.6c22.9-25.3,45.3-55.3,45.6-90.9c-4,14-10.1,27.5-19.1,39.1c-19.1,24.9-45.8,42.2-70.6,60.8c-28.5,20.8-56,44.1-75.7,73.7c-11.8,17.3-20.7,36.4-27.1,56.3c-14.9-6.8-28.5-16.3-40.8-27c11-27.4,27.3-52.5,47.9-73.7c26.5-28.4,58.8-50.2,90.1-72.8C218.4,132.1,243.3,114.1,260.8,89.4"/><g><path class="st0" d="M416.2,316.4c-4.4,3.1-9.8,4.9-15.9,4.9c-16,0-27.2-12.1-27.2-26.8v-0.1c0-14.7,11.3-27,27.3-27s27.2,12.1,27.2,26.8v0.1c0,5.9-1.9,11.5-5.3,16l6,5.1l-5.9,6.6L416.2,316.4z M409.4,310.4l-8.9-7.6l5.9-6.7l9,8.2c1.8-2.8,2.7-6.1,2.7-9.8v-0.1c0-10.1-7.4-18.5-17.7-18.5s-17.6,8.3-17.6,18.4v0.1c0,10.1,7.4,18.5,17.7,18.5C403.9,312.9,407,311.9,409.4,310.4z"/><path class="st0" d="M475.2,298.3v-30h9.2v29.6c0,9.7,5,14.9,13.2,14.9c8.1,0,13.1-4.9,13.1-14.5v-30h9.2v29.6c0,15.6-8.8,23.4-22.4,23.4C483.8,321.2,475.2,313.4,475.2,298.3z"/><path class="st0" d="M586.2,267.9h8.5l22.9,52.5h-9.7l-5.3-12.6H578l-5.4,12.6h-9.4L586.2,267.9z M599.3,299.7l-9-20.8l-8.9,20.8H599.3z"/><path class="st0" d="M663.7,268.3h8.5l27.9,36v-36h9v52.1h-7.7l-28.7-37v37.1h-9V268.3z"/><path class="st0" d="M772.6,276.8h-16.5v-8.5h42.3v8.5h-16.5v43.6h-9.2L772.6,276.8L772.6,276.8z"/><path class="st0" d="M844.4,298.3v-30h9.2v29.6c0,9.7,5,14.9,13.2,14.9c8.1,0,13.1-4.9,13.1-14.5v-30h9.2v29.6c0,15.6-8.8,23.4-22.4,23.4C853,321.2,844.4,313.4,844.4,298.3z"/><path class="st0" d="M938.8,268.3h9.8l15.9,24.6l15.9-24.6h9.8v52.1H981V283l-16.5,24.6h-0.3l-16.3-24.4v37.2h-9v-52.1H938.8z"/></g></g></svg>