<svg xmlns="http://www.w3.org/2000/svg" viewBox="0 0 1048.73 178.8"><defs><style>.a{isolation:isolate;}.b,.c{fill:#e43626;}.c{fill-rule:evenodd;}.d{fill:#333;}</style></defs><title>autocentrum-pl-logo</title><g class="a"><rect class="b" x="115.33" y="-10.6" width="22.11" height="126.43" transform="translate(-0.29 104.68) rotate(-45)"/></g><g class="a"><rect class="b" x="63.17" y="115.33" width="126.43" height="22.11" transform="translate(-52.45 126.28) rotate(-45)"/></g><g class="a"><rect class="b" x="54.02" y="112.59" width="22.11" height="52.51" transform="translate(-79.22 86.58) rotate(-45)"/></g><g class="a"><rect class="b" x="-10.6" y="41.56" width="126.43" height="22.11" transform="translate(-21.89 52.52) rotate(-45)"/></g><g class="a"><polygon class="c" points="66.49 84.47 74.33 92.31 52.29 114.34 66.9 128.95 88.94 106.92 96.78 114.76 101.62 79.63 66.49 84.47"/></g><g class="a"><path class="b" d="M223.37,53.69l-32.92,76.19h18.09l7.08-16.46h31.94l7.09,16.46h18.09L239.83,53.69H223.37Zm-1.31,44.8,9.59-22.13,9.48,22.13H222.06Zm102.46-2.72q0,9.16-4.2,14.44a13.77,13.77,0,0,1-11.39,5.29,13.92,13.92,0,0,1-11.45-5.29q-4.25-5.29-4.25-14.44V53.69h-17V96.3q0,16.46,9.21,25.4t23.49,8.94q14.28,0,23.44-8.88t9.16-25.45V53.69h-17V95.76ZM350.68,68.4h21.58v61.48h17V68.4h21.58V53.69H350.68V68.4Zm132.43-5.18q-11.55-11.28-28.45-11.28T426.22,63.22Q414.66,74.5,414.67,91.29t11.55,28.07q11.55,11.28,28.45,11.28t28.45-11.28q11.55-11.28,11.55-28.07T483.12,63.22ZM470.8,108.68a21.67,21.67,0,0,1-32.15,0,24.73,24.73,0,0,1-6.54-17.33A24.93,24.93,0,0,1,438.65,74a21.56,21.56,0,0,1,32.15,0,24.93,24.93,0,0,1,6.54,17.39A24.73,24.73,0,0,1,470.8,108.68Z" transform="translate(-0.1 -0.1)"/></g><g class="a"><path class="d" d="M545.36,68.18q12,0,20.06,10l10.57-12Q563.35,51.94,544.6,51.94q-16.79,0-28.39,11.34T504.6,91.56q0,17,11.39,28.07t29,11.12q17.6,0,30.57-14.61l-10.9-11.23a25.09,25.09,0,0,1-20.49,9.92,21.22,21.22,0,0,1-15.59-6.43q-6.43-6.43-6.43-17.06T529,74.45A23.37,23.37,0,0,1,545.36,68.18ZM603.79,99H637.9V84.53H603.79V68.84h37.93V53.69H586.78v76.19h56.14v-15H603.79V99Zm105.4,3.71L671.8,53.69H655.89v76.19h17V82.13l36.3,47.74h17V53.69h-17v49.05ZM736.44,68.4H758v61.48h17V68.4H796.6V53.69H736.44V68.4ZM868.65,79q0-13.3-7.58-19.29t-25.34-6H806.85v76.19h17V105.57h11.77l16.89,24.31h20.93l-19.29-27.25Q868.65,97.29,868.65,79Zm-20.49,9q-3.16,2.84-11.88,2.83H823.85V68.29h12.75q8.17,0,11.45,2.29T851.32,79Q851.32,85.19,848.16,88Zm82.95,7.74q0,9.16-4.2,14.44a13.77,13.77,0,0,1-11.39,5.29,13.92,13.92,0,0,1-11.45-5.29q-4.25-5.29-4.25-14.44V53.69h-17V96.3q0,16.46,9.21,25.4t23.49,8.94q14.28,0,23.43-8.88t9.16-25.45V53.69h-17V95.76Zm94.83-42.07-19.73,41.86L986.59,53.69h-23v76.19h17v-48l20.49,41.64h10.14l20.6-41.64v48h17V53.69h-22.89Z" transform="translate(-0.1 -0.1)"/></g></svg>