<svg xmlns="http://www.w3.org/2000/svg" viewBox="0 0 1048.73 178.8"><defs><style>.a{isolation:isolate}.b{fill:#e43626}</style></defs><g class="a"><path class="b" d="M73.765 15.634L89.4 0l89.4 89.4-15.634 15.634z"/></g><g class="a"><path class="b" d="M73.769 163.163l89.4-89.4 15.633 15.634-89.4 89.4z"/></g><g class="a"><path class="b" d="M38.591 127.995l15.634-15.634 37.13 37.13-15.634 15.634z"/></g><g class="a"><path class="b" d="M.002 89.403l89.4-89.4 15.634 15.634-89.4 89.4z"/></g><path fill-rule="evenodd" fill="#e43626" d="M66.49 84.47l7.84 7.84-22.04 22.03 14.61 14.61 22.04-22.03 7.84 7.84 4.84-35.13-35.13 4.84z"/><g class="a"><path class="b" d="M223.27 53.59l-32.92 76.19h18.09l7.08-16.46h31.94l7.09 16.46h18.09l-32.91-76.19h-16.46zm-1.31 44.8l9.59-22.13 9.48 22.13h-19.07zm102.46-2.72q0 9.16-4.2 14.44a13.77 13.77 0 0 1-11.39 5.29 13.92 13.92 0 0 1-11.45-5.29q-4.25-5.29-4.25-14.44V53.59h-17V96.2q0 16.46 9.21 25.4t23.49 8.94q14.28 0 23.44-8.88t9.16-25.45V53.59h-17v42.07zm26.16-27.37h21.58v61.48h17V68.3h21.58V53.59h-60.16V68.3zm132.43-5.18q-11.55-11.28-28.45-11.28t-28.44 11.28q-11.56 11.28-11.55 28.07t11.55 28.07q11.55 11.28 28.45 11.28t28.45-11.28q11.55-11.28 11.55-28.07t-11.55-28.07zm-12.31 45.46a21.67 21.67 0 0 1-32.15 0 24.73 24.73 0 0 1-6.54-17.33 24.93 24.93 0 0 1 6.54-17.35 21.56 21.56 0 0 1 32.15 0 24.93 24.93 0 0 1 6.54 17.39 24.73 24.73 0 0 1-6.54 17.29z"/></g><path d="M545.26 68.08q12 0 20.06 10l10.57-12q-12.64-14.24-31.39-14.24-16.79 0-28.39 11.34T504.5 91.46q0 17 11.39 28.07t29 11.12q17.6 0 30.57-14.61l-10.9-11.23a25.09 25.09 0 0 1-20.49 9.92 21.22 21.22 0 0 1-15.59-6.43q-6.43-6.43-6.43-17.06t6.85-16.89a23.37 23.37 0 0 1 16.36-6.27zm58.43 30.82h34.11V84.43h-34.11V68.74h37.93V53.59h-54.94v76.19h56.14v-15h-39.13V98.9zm105.4 3.71L671.7 53.59h-15.91v76.19h17V82.03l36.3 47.74h17V53.59h-17v49.05zm27.25-34.31h21.56v61.48h17V68.3h21.6V53.59h-60.16V68.3zm132.21 10.6q0-13.3-7.58-19.29t-25.34-6h-28.88v76.19h17v-24.33h11.77l16.89 24.31h20.93l-19.29-27.25q14.5-5.34 14.5-23.63zm-20.49 9q-3.16 2.84-11.88 2.83h-12.43V68.19h12.75q8.17 0 11.45 2.29t3.27 8.42q0 6.19-3.16 9zm82.95 7.74q0 9.16-4.2 14.44a13.77 13.77 0 0 1-11.39 5.29 13.92 13.92 0 0 1-11.45-5.29q-4.25-5.29-4.25-14.44V53.59h-17V96.2q0 16.46 9.21 25.4t23.49 8.94q14.28 0 23.43-8.88t9.16-25.45V53.59h-17v42.07zm94.83-42.07l-19.73 41.86-19.62-41.84h-23v76.19h17v-48l20.49 41.64h10.14l20.6-41.64v48h17V53.59h-22.89z" fill="#333"/></svg>