<svg version="1.2" baseProfile="tiny" xmlns="http://www.w3.org/2000/svg" viewBox="0 0 48.3 48.3"><path fill="#F6891F" d="M45.8 33.6c-1.4-1.4-3.2-2.2-5-2.5-1.5-.2-2.9-.9-4.1-2.1-1.6-1.6-2.3-3.7-2.1-5.8.1-1.6.1-3.3 0-4.7-.2-1.7.6-3.4 1.9-4.5.8-.6 1.7-1 2.6-1.2 1.4-.1 2.8-.8 3.9-1.8 2.5-2.5 2.5-6.6 0-9.1s-6.6-2.5-9.1 0c-1.1 1-1.7 2.4-1.8 3.7-.1 1.1-.7 2.2-1.6 3-1.2 1.2-2.8 1.8-4.3 1.6-2.9-.4-3.3-.4-6.4-.1-1.7.2-2.2-.5-2.6-1.3-.2-.4-.3-.9-.2-1.3.1-.7 0-1.4-.4-2-.8-1.5-2.7-2-4.2-1.1-1.5.8-2 2.7-1.1 4.2.4.6.9 1.1 1.5 1.3.5.2.9.6 1.2 1.1.4.7.7 1.5-.3 2.6-2.7 2.9-3.9 6.5-3.5 10.1.2 1.7-1.1 2.3-2.3 2.8-.7.2-1.4.3-2 .2-1-.2-2.1-.2-3 .3C.6 28.1-.3 30.8.7 33.1c1.1 2.3 3.8 3.2 6.1 2.1 1-.5 1.7-1.2 2.1-2.1.4-.7 1-1.3 1.8-1.7 1.1-.5 2.9-.6 3.8.1 2.6 2.2 5.9 3.2 9.1 2.9 2.2-.2 4.5.7 6.1 2.6.9 1 1.4 2.2 1.6 3.4.2 1.9 1 3.7 2.5 5.2 3.4 3.4 8.8 3.4 12.2 0 3.1-3.2 3.1-8.6-.2-12m-17.9-5.5c-3.2 3.2-8.5 3.2-11.8 0-3.2-3.2-3.2-8.5 0-11.8 3.2-3.2 8.5-3.2 11.8 0 3.2 3.2 3.2 8.5 0 11.8"/><path fill="#FFF" d="M22 17c-2.9 0-5.2 2.3-5.2 5.2 0 2 1.2 3.9 2.9 4.6 1.9.8 3.8-.2 3.8-2H22c-1.4 0-2.6-1.2-2.6-2.6 0-1.4 1.2-2.6 2.6-2.6 1.4 0 2.6 1.2 2.6 2.6v4.4c1.4 0 2.6-1.2 2.6-2.6v-1.8c0-2.9-2.3-5.2-5.2-5.2z"/></svg>