<svg version="1.2" baseProfile="tiny" id="Layer_1" xmlns="http://www.w3.org/2000/svg" xmlns:xlink="http://www.w3.org/1999/xlink" x="0px" y="0px" viewBox="0 0 48.3 48.3" xml:space="preserve"><path fill="#F6891F" d="M45.8,33.6c-1.4-1.4-3.2-2.2-5-2.5c-1.5-0.2-2.9-0.9-4.1-2.1c-1.6-1.6-2.3-3.7-2.1-5.8 c0.1-1.6,0.1-3.3,0-4.7c-0.2-1.7,0.6-3.4,1.9-4.5c0.8-0.6,1.7-1,2.6-1.2c1.4-0.1,2.8-0.8,3.9-1.8c2.5-2.5,2.5-6.6,0-9.1 c-2.5-2.5-6.6-2.5-9.1,0c-1.1,1-1.7,2.4-1.8,3.7c-0.1,1.1-0.7,2.2-1.6,3c-1.2,1.2-2.8,1.8-4.3,1.6c-2.9-0.4-3.3-0.4-6.4-0.1 c-1.7,0.2-2.2-0.5-2.6-1.3c-0.2-0.4-0.3-0.9-0.2-1.3c0.1-0.7,0-1.4-0.4-2c-0.8-1.5-2.7-2-4.2-1.1c-1.5,0.8-2,2.7-1.1,4.2 c0.4,0.6,0.9,1.1,1.5,1.3c0.5,0.2,0.9,0.6,1.2,1.1c0.4,0.7,0.7,1.5-0.3,2.6c-2.7,2.9-3.9,6.5-3.5,10.1c0.2,1.7-1.1,2.3-2.3,2.8 c-0.7,0.2-1.4,0.3-2,0.2c-1-0.2-2.1-0.2-3,0.3c-2.3,1.1-3.2,3.8-2.2,6.1c1.1,2.3,3.8,3.2,6.1,2.1c1-0.5,1.7-1.2,2.1-2.1 c0.4-0.7,1-1.3,1.8-1.7c1.1-0.5,2.9-0.6,3.8,0.1c2.6,2.2,5.9,3.2,9.1,2.9c2.2-0.2,4.5,0.7,6.1,2.6c0.9,1,1.4,2.2,1.6,3.4 c0.2,1.9,1,3.7,2.5,5.2c3.4,3.4,8.8,3.4,12.2,0C49.1,42.4,49.1,37,45.8,33.6 M27.9,28.1c-3.2,3.2-8.5,3.2-11.8,0 c-3.2-3.2-3.2-8.5,0-11.8c3.2-3.2,8.5-3.2,11.8,0C31.1,19.5,31.1,24.8,27.9,28.1"/><path fill="#FFFFFF" d="M22,17c-2.9,0-5.2,2.3-5.2,5.2c0,2,1.2,3.9,2.9,4.6c1.9,0.8,3.8-0.2,3.8-2c-0.1,0-1.5,0-1.5,0 c-1.4,0-2.6-1.2-2.6-2.6c0-1.4,1.2-2.6,2.6-2.6c1.4,0,2.6,1.2,2.6,2.6c0,0,0,1.8,0,1.8l0,0c0,0.9,0,1.7,0,2.6c1.4,0,2.6-1.2,2.6-2.6 c0,0,0-1.8,0-1.8C27.2,19.3,24.9,17,22,17z"/></svg>