<svg xmlns="http://www.w3.org/2000/svg" viewBox="0 0 1134.2 326.3"><style>.st4{fill:#ff3b00}</style><path d="M625.4 2.9c5.9-3.6 13.5-3.7 19.8-1.1 5.6 2.3 8.9 8.5 8.6 14.4v171c-.9 15.6-3.8 31.3-10.7 45.4-6.7 14.5-16.8 27.6-29.5 37.4-15.8 12.6-35.7 19.8-55.8 21.4-17.9 1.1-35.8-3.5-51.7-11.4-23.1-12.1-41.5-33.2-49.7-58-8.1-24.4-7-51.5 2.5-75.4 4.9-12 12.5-22.7 21.5-31.9 10-10.6 22.3-18.8 35.8-24.2 16.4-5.9 34.3-8.3 51.6-5.3 19 2.6 36.9 11.5 51.2 24.2.1-31.4 0-62.8 0-94.3 0-4.7 2.2-9.7 6.4-12.2zM542 120.5c-15.3 2.4-29.9 10.1-39.8 22.1-10.6 11.9-16.4 27.7-16.9 43.6-.1 15.3 4.3 30.8 13.8 43 9.6 12.4 23.2 22 38.7 25.3 16.1 3.8 33.6 1 47.8-7.3 14.1-8.5 25.3-21.9 30.1-37.8 5.8-17.9 4-38.1-5-54.8-7-12.6-17.9-23.3-31.2-29.1-11.7-5.2-24.9-7.1-37.5-5z" fill="#49b719"/><path d="M8.1 2.6C13.9.1 20.7.1 26.5 2.4c5 2 8.3 7.3 8.3 12.7.1 27.6-.1 55.2.1 82.7 12.8-13.4 28.3-24.2 45.5-31 34-12.6 73.7-10.7 105.3 7.5 27.7 15.9 49.8 42.1 58.9 72.9 3.6 12 5.6 24.5 6 37-.3 28.3-9 56.9-26.5 79.3-18.6 24.2-46.1 41.2-76.2 46.5-24.6 5-50.3 1-73.2-8.7C47.4 289.2 24.9 267 12.2 240c-7.1-15.6-11-32.7-11.7-49.8.1-30.4-.4-60.7-.3-91 .2-28-.5-56-.2-84.1C.2 9.9 3.2 4.7 8.1 2.6zm106.9 92c-13.1 1.5-25.9 5.8-37.1 12.8-10.6 6.5-19.3 15.5-26.7 25.4-23 32-21.5 79.3 3.3 109.8 7 8.6 15.4 16.2 24.8 22 17.9 10.8 39.8 15 60.5 11.6 17.9-2.8 34.9-11.3 47.7-24.1 14.6-13.9 24.4-32.8 27.3-52.8 2.8-16.8.3-34.2-6.1-49.9-6.6-15.4-17.7-28.8-31.1-38.8-17.8-13.1-40.7-18.6-62.6-16z" fill="#006fbc"/><path d="M742.2 63.7c34.8-23.9 80.7-29.3 120.6-16.4 46.6 15.2 83.4 56.8 93 104.9 2.1 10.2 3.4 20.6 3.5 31.1-.4 20-4.1 40-12.1 58.4-10.7 24.9-28.5 46.9-51.3 61.7-17.3 11.5-37.4 18.6-58 21.5-21.3 3.3-43.2.6-63.6-6.1-30.8-9.9-57.2-31.6-74-59.1-13.5-21.6-20.2-47-21.3-72.3-.4-22.6 4.2-45.4 13.7-66 11-23.3 28.5-43.1 49.5-57.7zm19.6 28.6c-16.9 11.3-30.8 27.3-39.1 46-6.6 15.4-9.9 32.2-9.5 49 1.1 18.3 5.8 36.6 15.4 52.4 10.6 17.9 26.5 32.7 45.4 41.5 15.6 7 32.7 11 49.9 10.3 15.3-1 30.3-5.2 44-12.1 17.2-9 31.9-22.7 41.8-39.4 9.6-15.9 14.5-34.3 15.6-52.8.5-26.1-7.5-52.8-24.4-72.9-12-14.8-28.2-26.1-46-32.8-30.6-10.7-66.2-7.3-93.1 10.8z" fill="#f70"/><path d="M325.5 108.1c17.9-6 38.2-5 55.3 3.1 15.7 7.4 28 20.8 35.8 36.2 5.7 11.8 8.2 24.9 8 37.9v61.1c0 5.3-2 11-6.8 13.8-4.7 3-10.6 2.6-16 2.1-6.8-1.1-10.9-7.7-11.9-14-12 8.1-26.6 12.8-41.2 12.4-18.6.1-37.1-7.6-50.3-20.8-11.8-11.2-19.9-26.3-22.7-42.4-3.3-16.7-.9-34.4 6.4-49.8 8.9-18.1 24.3-33.3 43.4-39.6zm15.7 28.7c-5.5 1.2-10.8 3.2-15.6 6.2-9.3 5.6-15.6 15.4-18.4 25.7-1.6 6.3-3.2 12.9-1.8 19.3 1.9 13.6 8.8 27.4 21.3 34.1 9.4 4.9 20.5 8.2 31 5.3 12.4-2.5 24-9.9 29.9-21.4 5-10.1 8-21.8 5.1-32.9-2.4-12.8-9.7-25.2-21.6-31.3-9.1-4.5-19.8-7.7-29.9-5z" fill="#00b9f4"/><path class="st4" d="M1013.2 122.7c24.5-19.9 62.2-21 88-3 11.7 8.1 21.1 19.8 26.8 32.9 12.7 29.4 5.5 66.7-18.9 87.9-20 19.3-51.5 24.3-77.1 14.3-14.2-5.4-26.1-15.8-34.7-28.2-14.7-21.4-17.1-50.3-6.9-74.1 5-11.6 13.1-21.7 22.8-29.8zm39.1 16.1c-10.5 1.9-20.7 6.9-27.4 15.4-6.4 8.3-9.5 18.7-10.2 29 .7 9.9 3.4 19.9 9.3 27.9 6.7 9.6 18 14.9 29.3 16.9 7.7 1.8 15.7-.5 23-3.1 11.5-4.3 20.7-13.9 24.4-25.7 2.3-7.3 4.4-15.1 2.5-22.6-2.2-13.6-9.9-26.9-22.7-33.1-8.7-4-18.7-6.9-28.2-4.7zM747.6 170c4.5-7.7 13.6-11.6 22.2-11.8 7.6.4 15.4 3.7 19.8 10.1 3.8 5.4 5.8 12.3 4.8 18.9-1.2 8.8-6.4 17.5-14.9 20.9-8.5 4-18.9 2.2-26.2-3.4-5.4-4.2-8.2-10.8-9.4-17.4-1-6 .8-12.1 3.7-17.3z"/></svg>