<svg xmlns="http://www.w3.org/2000/svg" width="110.9" height="34.5"><path fill="#FFF" d="M108.6 20c-.5-.4-1.6-1.2-2.2-1.7 1.3-1.8 3.2-3.1 4.5-4.9-.5-.6-1.5-1.7-2-2.3l-.1-.1c-3.1-3.3-8.8-4.5-12.3-1.3-1.3 1.2-2.5 2.7-2.5 2.7-3-2.4-6.4-4.9-10.5-4.5-3.8-.3-6.9 2.1-9.7 4.3-1.1-.8-2.3-1.6-3.4-2.4-.4-.4-1.4-1.2-1.8-1.7 1.4-.3 3.8.7 4.6-1 1.1-1.9.7-4.4-.1-6.3-1.6-1.3-3.8-.6-5.7-.7 0 2-.1 4.1.1 6.1.2 1.1.2 3.1.2 3.1s-7.1.2-9.9 1.2c.5.3-1.8-.9-2.3-1.2-.2-2.9-.2-5.8-.3-8.8H53c.1 2.6.2 5.1.2 7.7l-.7.3c-.4 0-1.1.1-1.5.2l-1.3-.3c-.6-2.1 0-3.4 2.4-3.3l.2-1.1c-1.5.3-2.5-.1-3-1.2.8-.1 2.3-.3 3-.4V.8c-1.7 0-3.3.1-5 .1 0 2.5 0 5.1.1 7.6-.8-1.4-2.3-1.5-3.7-1.5-.2-2.1 3.3-.6 3-2.9-.8 0-2.3-.1-3-.2-.5-2.5 4.1-.1 3.2-3-1.8 0-3.6.1-5.4.3.3 3.1 0 6.1-.2 9.2-.1.3-.4 1-.5 1.3-.3-.3-1-.8-1.3-1.1-1.1-.3-1.6-1.4-1.4-2.4l1.5 1.8 1.7-2.5c-.7 0-2.1 0-2.8-.1-.1-2-.1-4-.2-6-.6 0-1.7-.1-2.3-.1.1 2.6.2 5.3.3 7.9-.8-.2-1.6-.5-2.4-.7.1-2.1-1.4-5.5 1.8-5.9-.9-2.1-5.3-1.8-6.4.1 3.1.4 2.3 4 2 6.2H27.6c.4-2.1-1.2-5.2 1.4-6l.2-1.3c-2 0-4 .1-5.9.3l.4 1.2c.4.2 1.2.6 1.5.8.1 1.9.2 3.7.3 5.6-1.1.9-2.3 1.5-3.8 1.3.4 1.1.3 2-.4 2.8-.6-1.1-1.2-2.1-1.8-3.2l1.2-2c1.2.6 2.3 2.1 3.8 1.4-.8-2.5-1.5-5.1-2.1-7.7-.8 0-2.4.1-3.2.1-.5 2.5-1 5-1.1 7.5-.3-1.3-.7-2.7-1.6-3.8.2-.6.7-1.8.9-2.4-1.5-2-4.1-1.1-6.2-1.2 0 2.1 0 4.1-.1 6.2-.6-.1-1.8-.3-2.4-.3 0-1.8-.1-3.6-.5-5.3-2.8.3-5.4-.1-8.2-.2v31.8c3.2-.6 6.5-.2 9.6-1.4-.1-.7-.3-2-.4-2.7.3-4.3-.2-8.7.5-13 .4 0 1.1.1 1.4.2 1.3 4.4.8 9.1 1.7 13.6.1.5.3 1.6.4 2.2 2.9-.2 5.9-.1 8.7-.7.1-.5.2-1.6.3-2.2.5 0 1.3.1 1.8.1.2.5.5 1.4.7 1.8 5.5 2 11.8 1.5 16.5-2.1 0 .7 0 2.2.1 2.9 3 0 6-.2 9 .4-.1-2.3-1-4.9.6-6.8 1.9 1.2 2.4 3.9 4.7 4.6 5.8 3.5 13.3 3 18.6-1.1 4.1 3.2 9.2 2.7 14 3.5 2-.7 3.5-2.2 5.3-3.3 3.1 2.4 7.3 3 11.1 2.7 1.3-1 2.6-1.9 3.8-2.9 1.5-2.4 1.8-5.4 1.4-8.1-.4-.7-.8-1.5-1.2-2.2zM71.3 6.2c-.4.1-1.1.2-1.5.3-.1-1.7-.1-3.4-.1-5.1 2.5.1 1.3 3.1 1.6 4.8zM20.6 4.8c1.3.3 1.6 1 .8 2.2-1.2-.2-1.5-.9-.8-2.2zm-7.2-1.3c1.5-.5 2.1.1 1.6 1.7-1.5.6-2.1 0-1.6-1.7zm1.9 4.8c-1.6.5-2.2 0-1.7-1.7 1.6-.5 2.2.1 1.7 1.7z"/><path fill="#FFF" d="M56.3.3c1.7.1 3.4.2 5 .3L61.1 2c-1.3-.2-2.3.1-2.9 1.1.7.1 2.2.3 3 .4L61.1 5c-1.2.1-2.9-.1-2.4 1.5 1.2-.1 2.4.1 3.6.6C62 5 62 2.7 62 .4l2.3.1c0 1.9.1 3.8.2 5.8h2.3c.3.8.8 2.3 1 3.1-3.5-1.1-6.8-.3-9.9 1.3V9c-3.1-1.7-1.1-5.9-1.6-8.7z"/><path fill="#6B884A" d="M66.7 6.3h.8c.2 1.1.3 2.2.4 3.3 1.7 1 4.1 1.7 4 4.1-.3.2-.8.6-1 .8-.3-.5-.9-1.4-1.2-1.9L67.3 14c-1.1-1-1.6-2.4-2.4-3.7.1.8.4 2.2.5 3-1.5-.2-3-.4-4.5-.4-1.5.8-2.5 2.1-3.7 3.2-.7-1.9 1.2-3 2.1-4.4-.5-.3-1.4-.8-1.8-1-.5-.3-1.5-1-2-1.3.6-.1 1.7-.3 2.3-.5v1.7c3.1-1.5 6.4-2.4 9.9-1.3-.2-.7-.7-2.3-1-3z"/><path fill="#7A9E54" d="M9.7 10c3.9-1.1 9 .1 10.2 4.5.5 5.5.3 11.1.3 16.7-2 .1-4 .1-6 0-.1-4.6.1-9.2-.2-13.8-.1-1.8-1.9-1.9-3.2-2.3.3-1.4.6-2.7.6-4.1-.3-.2-.9-.5-1.2-.7l-.5-.3z"/><path fill="#759651" d="M43.2 10c3.2 0 6.5 1 9.3-1 .6.4 1.7 1.1 2.2 1.4-.7 1.4-1.8 3.6.3 4.2-.3-1.9.6-3.2 2.5-3.9.5.3 1.4.8 1.8 1-.9 1.4-2.8 2.5-2.1 4.4-.9.9-1.9 1.5-2.8 2.2-.5-.3-1.6-.8-2.1-1 0-.5.2-1.5.2-2-1.3-.2-2.4.1-3.4 1.2l-.1.1c-1.6-1.6-3.6-2.4-5.8-2.5-.1-1.4 0-2.7 0-4.1z"/><path fill="#475A32" d="M77.3 11.4c4-2.8 9.9-2.3 13.6.8-.1.5-.2 1.6-.3 2.2-.4-.1-1.3-.3-1.8-.3-.8.6-1.6 1.2-2.4 1.7-1.8-.7-3.7-.7-5.6-.9l-1.8 3c-.8.4-1.6.9-2.5 1.3.7 1.2 1.3 2.3 1.9 3.5 1.5 4.3 7 4.2 10.1 1.8l4.2 1.5c-1.5.7-3.1 1.4-4.6 2.1-1.5-1.3-3.6-1.8-5.6-1.4-1.6 1.1-2.9 2.5-4.3 3.8-1.1-.7-2.1-1.5-3.1-2.3 0-1.1-.3-2.1-.6-3.1-.8-.8-1.5-1.6-2.3-2.4l-1-1c-.3-1.5-.7-2.9-1.2-4.4l.3-.8c1.6.4 3.2.8 4.8.9-.1-.9-.3-1.7-.4-2.5.5-.2 1.5-.7 2-.9.3-.6.5-1.9.6-2.6z"/><path fill="#5B723F" d="M95.4 11.5c.3-.4.9-1.3 1.1-1.8-.1.2-.2.6-.3.8l1.8-.3c1.3 1.8 2.5 3.6 4.2 5.1-.5.3-1.7.8-2.2 1-.5 2-.1 4.2-.5 6.2-2.5-1.1-4.6-3.3-5.3-6.1 0-1.6 1.1-3.1 1.2-4.9z"/><path fill="#3A4B28" d="M98.1 10.3c3.8-1.6 8.1-.1 10.4 3.2-1.2 1.3-2.5 2.6-3.8 3.9-.6-.5-1.9-1.5-2.5-2-1.6-1.5-2.8-3.4-4.1-5.1z"/><path fill="#6E8C4D" d="M7.5 11.1c.7-.2 2-.6 2.7-.8.3.2.9.5 1.2.7 0 1.4-.2 2.8-.6 4.1C6.3 17 8 22.6 7.5 26.4c-2.1-1.1-4-.4-4.7 2-1.3-2.6.7-5.3-.1-8-.6-2.8-.4-5.8.1-8.6 1.5-.3 3.1-.5 4.7-.7z"/><path fill="#779753" d="M24 12.8c5-5.9 17-3.2 18 4.8-1.8-1-3.8-1.5-5.6-.3-1.1-3.1-4.5-2.2-7-1.9-1.9-.7-3.7-1.6-5.4-2.6z"/><path fill="#879E6B" d="M74.3 14.4c1-1 2-2 3.1-2.9-.1.7-.3 2-.4 2.7-.5.2-1.5.7-2 .9.1.8.3 1.7.4 2.5-1.6-.2-3.2-.5-4.8-.9l-.3.8c-.4-.8-.7-1.6-1.1-2.4-.4-.3-1.3-.8-1.8-1l1.3-.8c.3-.1.8-.4 1-.6.3.5.9 1.4 1.2 1.9.3-.2.8-.6 1-.8.8.1 1.6.3 2.4.6z"/><path fill="#83A759" d="M23.7 12.7l.3.1c1.7 1 3.5 1.9 5.3 2.6-.5.5-1.5 1.6-1.9 2.1 3 .2 6 .6 9-.2 1.8-1.2 3.9-.7 5.6.3.3.1.9.4 1.1.6 0 1.6.1 3.2.2 4.8-3.9-.5-15.5-.2-16.5-.2s-1.9.1-2.9.2c-.7-1.8-1.5-3.5-2.8-5 .3-2 1.5-3.7 2.6-5.3z"/><path fill="#5B723E" d="M90.9 12.2c3 2.6 3.9 6.7 3.7 10.5-5.4-.1-10.7.1-16.1 0-.6-1.2-1.3-2.3-1.9-3.5.8-.4 1.6-.9 2.5-1.3 1.8.6 3.6.6 5.4.8 1.6.7 5 1.8 5 1.8s1.4-4.3 1.2-6.1c.1-.6.2-1.7.2-2.2z"/><path fill="#73934D" d="M88.9 14c.5.1 1.4.3 1.8.3.2 1.8.5 3.8-.8 5.3l-.4.8c-2 .4-3.4-1.1-5-1.8-1.8-.2-3.7-.2-5.4-.8 3.1-.2 6.1-.2 9.2-.3-.5-.5-1.4-1.4-1.8-1.9.8-.4 1.6-1 2.4-1.6z"/><path fill="#8BAF62" d="M43.1 14.1c2.2.1 4.2 1 5.8 2.5-1.7.9-3.5 1.5-5.3 2-.3-1.5-.5-3-.5-4.5z"/><path fill="#485932" d="M43.7 18.6c1.8-.5 3.6-1.1 5.3-2l.2-.1c0 1.9 0 3.7.1 5.6l-1.7-.7c-.5-.2-1.4-.5-1.9-.7-.4 1.1-1.1 2-1.9 2.8 0-1.6 0-3.3-.1-4.9z"/><path fill="#212718" d="M99.5 22.6c.4-2.1 0-4.2.5-6.2 2.5 1.4 5.5 2.4 7.5 4.7-1.3 1.5-2.6 3-4.2 4.2-1-1.2-2.3-2.1-3.8-2.7z"/><path fill="#5B6F43" d="M52.3 17.3c.5.3 1.6.8 2.1 1 .4.2 1.2.5 1.6.6-.2 1.5-.1 3 .1 4.5-.7.5-2 1.6-2.7 2.1-1.1-1.2-1.8-2.6-1.9-4.4l2 .2c-.5-.1-1.4-.4-1.8-.6.2-.9.5-2.6.6-3.4z"/><path fill="#FF5353" d="M62.7 17.6c2.8-.8 5.7 3.3 3.3 5.3-1.1 1.3-3 1.7-4.3.5-2.2-1.5-1.5-5.1 1-5.8z"/><path fill="#769651" d="M21.2 18c1.2 1.5 2 3.3 2.8 5 1-.1 1.9-.2 2.9-.2 1.3 4.3 7 4.1 9.8 1.4 1.7.8 3.6 1.3 4.8 2.8-2.8 3.8-7.7 5.3-12.3 4.6 1.4 0 3.9.7 4.4-1.1-1-2.1-3.6.1-5.1.7l-.9.4c-1.2-2-3.8-2.3-5-4.3-1.8-2.7-2.1-6.2-1.4-9.3z"/><path fill="#84A75A" d="M45.5 20.7c.5.2 1.4.5 1.9.7l1.8 1.8c-.2 2 .1 4.1-1 5.9.2.3.7.9.9 1.2l-.3 1.2c-1.9-.4-3.8-.6-5.7-.2 0-2.6-.7-5.3.4-7.7 1-.8 1.6-1.8 2-2.9z"/><path fill="#323C24" d="M107.5 21c3 4.2 0 10.3-5 10.7-.5-1.9-.5-3.8-.2-5.7l1-.8c1.5-1.2 2.9-2.7 4.2-4.2z"/><path fill="#759450" d="M72.4 22.8c.8.8 1.6 1.6 2.3 2.4-1.1 1.6-2.2 3.3-3.7 4.5-.7-1.3-1.5-2.5-2.2-3.8.8-1.4 2.1-2.4 3.6-3.1z"/><path fill="#252C1B" d="M93.9 28.4c0-2 2.2-3.2 3.3-4.8 1.5 1.2 3 2.8 5.1 2.4-.3 1.9-.3 3.8.2 5.7-3.2.3-6.5-.8-8.6-3.3z"/><path fill="#54693A" d="M55.6 24.2l1-.6c.6 1.2 1.3 2.4 1.9 3.5 1.5.9 2.8 1.9 4.2 3 .7-.8 1.3-1.5 2-2.3.4.1 1.3.3 1.8.4.8-.7 1.6-1.4 2.4-2.2.8 1.3 1.5 2.5 2.2 3.8-4.1 3.2-10.8 3.9-14.6-.1-1.2-1.1-3.2-2-2.9-4l1.5.4c.2-.5.4-1.4.5-1.9z"/><path fill="#313C24" d="M78.5 30.6c1.4-1.3 2.7-2.7 4.3-3.8 2-.5 4 0 5.6 1.4 1.5-.8 3-1.5 4.6-2.1l.4 1.2c-3.4 4.6-9.9 5.5-14.9 3.3z"/><path fill="#5F7941" d="M28.6 31.2c1.4-.6 4-2.8 5.1-.7-.5 1.8-3 1.1-4.4 1.1l-.7-.4z"/><path fill="#85A95B" d="M1.4 4c2.1 0 4.2 0 6.2.1.2 2.3.1 4.6-.1 7-1.6.2-3.2.4-4.7.7-.5 2.8-.7 5.8-.1 8.6.8 2.7-1.1 5.4.1 8 .8-2.3 2.6-3.1 4.7-2 1 1.6.6 3.3-.2 4.9H1.7c-.1-4.9 0-9.9-.3-14.8.5-4.2.3-8.4 0-12.5z"/></svg>