<svg xmlns="http://www.w3.org/2000/svg" xmlns:xlink="http://www.w3.org/1999/xlink" x="0px" y="0px" width="110.9px" height="34.5px" viewBox="0 0 110.9 34.5" xml:space="preserve"><g><path fill="#FFFFFF" d="M108.6,20c-0.5-0.4-1.6-1.2-2.2-1.7c1.3-1.8,3.2-3.1,4.5-4.9c-0.5-0.6-1.5-1.7-2-2.3c0,0-0.1-0.1-0.1-0.1 c-3.1-3.3-8.8-4.5-12.3-1.3c-1.3,1.2-2.5,2.7-2.5,2.7c-3-2.4-6.4-4.9-10.5-4.5c-3.8-0.3-6.9,2.1-9.7,4.3c-1.1-0.8-2.3-1.6-3.4-2.4 C70,9.4,69,8.6,68.6,8.1c1.4-0.3,3.8,0.7,4.6-1c1.1-1.9,0.7-4.4-0.1-6.3c-1.6-1.3-3.8-0.6-5.7-0.7c0,2-0.1,4.1,0.1,6.1 c0.2,1.1,0.2,3.1,0.2,3.1s-7.1,0.2-9.9,1.2c0.5,0.3-1.8-0.9-2.3-1.2c-0.2-2.9-0.2-5.8-0.3-8.8l-2.2,0c0.1,2.6,0.2,5.1,0.2,7.7 l-0.7,0.3c-0.4,0-1.1,0.1-1.5,0.2l-1.3-0.3c-0.6-2.1,0-3.4,2.4-3.3L52.3,4c-1.5,0.3-2.5-0.1-3-1.2c0.8-0.1,2.3-0.3,3-0.4l0-1.6 c-1.7,0-3.3,0.1-5,0.1c0,2.5,0,5.1,0.1,7.6C46.6,7.1,45.1,7,43.7,7c-0.2-2.1,3.3-0.6,3-2.9c-0.8,0-2.3-0.1-3-0.2 c-0.5-2.5,4.1-0.1,3.2-3c-1.8,0-3.6,0.1-5.4,0.3c0.3,3.1,0,6.1-0.2,9.2c-0.1,0.3-0.4,1-0.5,1.3c-0.3-0.3-1-0.8-1.3-1.1 c-1.1-0.3-1.6-1.4-1.4-2.4l1.5,1.8l1.7-2.5c-0.7,0-2.1,0-2.8-0.1c-0.1-2-0.1-4-0.2-6c-0.6,0-1.7-0.1-2.3-0.1 c0.1,2.6,0.2,5.3,0.3,7.9c-0.8-0.2-1.6-0.5-2.4-0.7C34,6.4,32.5,3,35.7,2.6c-0.9-2.1-5.3-1.8-6.4,0.1c3.1,0.4,2.3,4,2,6.2 c-0.6,0-1.8,0-2.3,0l-1.4,0C28,6.8,26.4,3.7,29,2.9l0.2-1.3c-2,0-4,0.1-5.9,0.3l0.4,1.2c0.4,0.2,1.2,0.6,1.5,0.8 c0.1,1.9,0.2,3.7,0.3,5.6c-1.1,0.9-2.3,1.5-3.8,1.3c0.4,1.1,0.3,2-0.4,2.8c-0.6-1.1-1.2-2.1-1.8-3.2c0.3-0.5,0.9-1.5,1.2-2 c1.2,0.6,2.3,2.1,3.8,1.4c-0.8-2.5-1.5-5.1-2.1-7.7c-0.8,0-2.4,0.1-3.2,0.1c-0.5,2.5-1,5-1.1,7.5c-0.3-1.3-0.7-2.7-1.6-3.8 c0.2-0.6,0.7-1.8,0.9-2.4c-1.5-2-4.1-1.1-6.2-1.2c0,2.1,0,4.1-0.1,6.2c-0.6-0.1-1.8-0.3-2.4-0.3C8.7,6.4,8.6,4.6,8.2,2.9 C5.4,3.2,2.8,2.8,0,2.7C0,13.3,0,23.9,0,34.5c3.2-0.6,6.5-0.2,9.6-1.4c-0.1-0.7-0.3-2-0.4-2.7c0.3-4.3-0.2-8.7,0.5-13 c0.4,0,1.1,0.1,1.4,0.2c1.3,4.4,0.8,9.1,1.7,13.6c0.1,0.5,0.3,1.6,0.4,2.2c2.9-0.2,5.9-0.1,8.7-0.7c0.1-0.5,0.2-1.6,0.3-2.2 c0.5,0,1.3,0.1,1.8,0.1c0.2,0.5,0.5,1.4,0.7,1.8c5.5,2,11.8,1.5,16.5-2.1c0,0.7,0,2.2,0.1,2.9c3,0,6-0.2,9,0.4 c-0.1-2.3-1-4.9,0.6-6.8c1.9,1.2,2.4,3.9,4.7,4.6c5.8,3.5,13.3,3,18.6-1.1c4.1,3.2,9.2,2.7,14,3.5c2-0.7,3.5-2.2,5.3-3.3 c3.1,2.4,7.3,3,11.1,2.7c1.3-1,2.6-1.9,3.8-2.9c1.5-2.4,1.8-5.4,1.4-8.1C109.4,21.5,109,20.7,108.6,20z M71.3,6.2 c-0.4,0.1-1.1,0.2-1.5,0.3c-0.1-1.7-0.1-3.4-0.1-5.1C72.2,1.5,71,4.5,71.3,6.2z M20.6,4.8c1.3,0.3,1.6,1,0.8,2.2 C20.2,6.8,19.9,6.1,20.6,4.8z M13.4,3.5c1.5-0.5,2.1,0.1,1.6,1.7C13.5,5.8,12.9,5.2,13.4,3.5z M15.3,8.3c-1.6,0.5-2.2,0-1.7-1.7 C15.2,6.1,15.8,6.7,15.3,8.3z"/></g><path fill="#FFFFFF" d="M56.3,0.3c1.7,0.1,3.4,0.2,5,0.3l-0.2,1.4c-1.3-0.2-2.3,0.1-2.9,1.1c0.7,0.1,2.2,0.3,3,0.4l-0.1,1.5 c-1.2,0.1-2.9-0.1-2.4,1.5c1.2-0.1,2.4,0.1,3.6,0.6C62,5,62,2.7,62,0.4l2.3,0.1c0,1.9,0.1,3.8,0.2,5.8c0.6,0,1.7,0,2.3,0 c0.3,0.8,0.8,2.3,1,3.1c-3.5-1.1-6.8-0.3-9.9,1.3c0-0.4,0-1.3,0-1.7C54.8,7.3,56.8,3.1,56.3,0.3L56.3,0.3z"/><path fill="#6B884A" d="M66.7,6.3l0.8,0c0.2,1.1,0.3,2.2,0.4,3.3c1.7,1,4.1,1.7,4,4.1c-0.3,0.2-0.8,0.6-1,0.8 c-0.3-0.5-0.9-1.4-1.2-1.9L67.3,14c-1.1-1-1.6-2.4-2.4-3.7c0.1,0.8,0.4,2.2,0.5,3c-1.5-0.2-3-0.4-4.5-0.4c-1.5,0.8-2.5,2.1-3.7,3.2 c-0.7-1.9,1.2-3,2.1-4.4c-0.5-0.3-1.4-0.8-1.8-1c-0.5-0.3-1.5-1-2-1.3c0.6-0.1,1.7-0.3,2.3-0.5c0,0.4,0,1.3,0,1.7 c3.1-1.5,6.4-2.4,9.9-1.3C67.5,8.6,67,7,66.7,6.3L66.7,6.3z"/><path fill="#7A9E54" d="M9.7,10c3.9-1.1,9,0.1,10.2,4.5c0.5,5.5,0.3,11.1,0.3,16.7c-2,0.1-4,0.1-6,0c-0.1-4.6,0.1-9.2-0.2-13.8 c-0.1-1.8-1.9-1.9-3.2-2.3c0.3-1.4,0.6-2.7,0.6-4.1c-0.3-0.2-0.9-0.5-1.2-0.7L9.7,10L9.7,10z"/><path fill="#759651" d="M43.2,10c3.2,0,6.5,1,9.3-1c0.6,0.4,1.7,1.1,2.2,1.4C54,11.8,52.9,14,55,14.6c-0.3-1.9,0.6-3.2,2.5-3.9 c0.5,0.3,1.4,0.8,1.8,1c-0.9,1.4-2.8,2.5-2.1,4.4c-0.9,0.9-1.9,1.5-2.8,2.2c-0.5-0.3-1.6-0.8-2.1-1c0-0.5,0.2-1.5,0.2-2 c-1.3-0.2-2.4,0.1-3.4,1.2L49,16.6c-1.6-1.6-3.6-2.4-5.8-2.5C43.1,12.7,43.2,11.4,43.2,10L43.2,10z"/><path fill="#475A32" d="M77.3,11.4c4-2.8,9.9-2.3,13.6,0.8c-0.1,0.5-0.2,1.6-0.3,2.2c-0.4-0.1-1.3-0.3-1.8-0.3 c-0.8,0.6-1.6,1.2-2.4,1.7c-1.8-0.7-3.7-0.7-5.6-0.9c-0.6,1-1.2,2-1.8,3c-0.8,0.4-1.6,0.9-2.5,1.3c0.7,1.2,1.3,2.3,1.9,3.5 c1.5,4.3,7,4.2,10.1,1.8c1.4,0.5,2.8,1,4.2,1.5c-1.5,0.7-3.1,1.4-4.6,2.1c-1.5-1.3-3.6-1.8-5.6-1.4c-1.6,1.1-2.9,2.5-4.3,3.8 c-1.1-0.7-2.1-1.5-3.1-2.3c0-1.1-0.3-2.1-0.6-3.1c-0.8-0.8-1.5-1.6-2.3-2.4l-1-1c-0.3-1.5-0.7-2.9-1.2-4.4l0.3-0.8 c1.6,0.4,3.2,0.8,4.8,0.9c-0.1-0.9-0.3-1.7-0.4-2.5c0.5-0.2,1.5-0.7,2-0.9C77,13.4,77.2,12.1,77.3,11.4L77.3,11.4z"/><path fill="#5B723F" d="M95.4,11.5c0.3-0.4,0.9-1.3,1.1-1.8c-0.1,0.2-0.2,0.6-0.3,0.8l1.8-0.3c1.3,1.8,2.5,3.6,4.2,5.1 c-0.5,0.3-1.7,0.8-2.2,1c-0.5,2-0.1,4.2-0.5,6.2c-2.5-1.1-4.6-3.3-5.3-6.1C94.2,14.8,95.3,13.3,95.4,11.5L95.4,11.5z"/><path fill="#3A4B28" d="M98.1,10.3c3.8-1.6,8.1-0.1,10.4,3.2c-1.2,1.3-2.5,2.6-3.8,3.9c-0.6-0.5-1.9-1.5-2.5-2 C100.6,13.9,99.4,12,98.1,10.3L98.1,10.3z"/><path fill="#6E8C4D" d="M7.5,11.1c0.7-0.2,2-0.6,2.7-0.8c0.3,0.2,0.9,0.5,1.2,0.7c0,1.4-0.2,2.8-0.6,4.1C6.3,17,8,22.6,7.5,26.4 c-2.1-1.1-4-0.4-4.7,2c-1.3-2.6,0.7-5.3-0.1-8c-0.6-2.8-0.4-5.8,0.1-8.6C4.3,11.5,5.9,11.3,7.5,11.1L7.5,11.1z"/><path fill="#779753" d="M24,12.8c5-5.9,17-3.2,18,4.8c-1.8-1-3.8-1.5-5.6-0.3c-1.1-3.1-4.5-2.2-7-1.9C27.5,14.7,25.7,13.8,24,12.8 L24,12.8z"/><path fill="#879E6B" d="M74.3,14.4c1-1,2-2,3.1-2.9c-0.1,0.7-0.3,2-0.4,2.7c-0.5,0.2-1.5,0.7-2,0.9c0.1,0.8,0.3,1.7,0.4,2.5 c-1.6-0.2-3.2-0.5-4.8-0.9l-0.3,0.8c-0.4-0.8-0.7-1.6-1.1-2.4c-0.4-0.3-1.3-0.8-1.8-1l1.3-0.8c0.3-0.1,0.8-0.4,1-0.6 c0.3,0.5,0.9,1.4,1.2,1.9c0.3-0.2,0.8-0.6,1-0.8C72.7,13.9,73.5,14.1,74.3,14.4L74.3,14.4z"/><path fill="#83A759" d="M23.7,12.7l0.3,0.1c1.7,1,3.5,1.9,5.3,2.6c-0.5,0.5-1.5,1.6-1.9,2.1c3,0.2,6,0.6,9-0.2 c1.8-1.2,3.9-0.7,5.6,0.3c0.3,0.1,0.9,0.4,1.1,0.6c0,1.6,0.1,3.2,0.2,4.8c-3.9-0.5-15.5-0.2-16.5-0.2c-1,0-1.9,0.1-2.9,0.2 c-0.7-1.8-1.5-3.5-2.8-5C21.4,16,22.6,14.3,23.7,12.7L23.7,12.7z"/><path fill="#5B723E" d="M90.9,12.2c3,2.6,3.9,6.7,3.7,10.5c-5.4-0.1-10.7,0.1-16.1,0c-0.6-1.2-1.3-2.3-1.9-3.5 c0.8-0.4,1.6-0.9,2.5-1.3c1.8,0.6,3.6,0.6,5.4,0.8c1.6,0.7,5,1.8,5,1.8s1.4-4.3,1.2-6.1C90.8,13.8,90.9,12.7,90.9,12.2L90.9,12.2z" /><path fill="#73934D" d="M88.9,14c0.5,0.1,1.4,0.3,1.8,0.3c0.2,1.8,0.5,3.8-0.8,5.3l-0.4,0.8c-2,0.4-3.4-1.1-5-1.8 c-1.8-0.2-3.7-0.2-5.4-0.8c3.1-0.2,6.1-0.2,9.2-0.3c-0.5-0.5-1.4-1.4-1.8-1.9C87.3,15.2,88.1,14.6,88.9,14L88.9,14z"/><path fill="#8BAF62" d="M43.1,14.1c2.2,0.1,4.2,1,5.8,2.5c-1.7,0.9-3.5,1.5-5.3,2C43.3,17.1,43.1,15.6,43.1,14.1L43.1,14.1z"/><path fill="#485932" d="M43.7,18.6c1.8-0.5,3.6-1.1,5.3-2l0.2-0.1c0,1.9,0,3.7,0.1,5.6l-1.7-0.7c-0.5-0.2-1.4-0.5-1.9-0.7 c-0.4,1.1-1.1,2-1.9,2.8C43.8,21.9,43.8,20.2,43.7,18.6L43.7,18.6z"/><path fill="#212718" d="M99.5,22.6c0.4-2.1,0-4.2,0.5-6.2c2.5,1.4,5.5,2.4,7.5,4.7c-1.3,1.5-2.6,3-4.2,4.2 C102.3,24.1,101,23.2,99.5,22.6L99.5,22.6z"/><path fill="#5B6F43" d="M52.3,17.3c0.5,0.3,1.6,0.8,2.1,1c0.4,0.2,1.2,0.5,1.6,0.6c-0.2,1.5-0.1,3,0.1,4.5c-0.7,0.5-2,1.6-2.7,2.1 c-1.1-1.2-1.8-2.6-1.9-4.4l2,0.2c-0.5-0.1-1.4-0.4-1.8-0.6C51.9,19.8,52.2,18.1,52.3,17.3L52.3,17.3z"/><path fill="#FF5353" d="M62.7,17.6c2.8-0.8,5.7,3.3,3.3,5.3c-1.1,1.3-3,1.7-4.3,0.5C59.5,21.9,60.2,18.3,62.7,17.6L62.7,17.6z"/><path fill="#769651" d="M21.2,18c1.2,1.5,2,3.3,2.8,5c1-0.1,1.9-0.2,2.9-0.2c1.3,4.3,7,4.1,9.8,1.4c1.7,0.8,3.6,1.3,4.8,2.8 c-2.8,3.8-7.7,5.3-12.3,4.6c1.4,0,3.9,0.7,4.4-1.1c-1-2.1-3.6,0.1-5.1,0.7l-0.9,0.4c-1.2-2-3.8-2.3-5-4.3 C20.8,24.6,20.5,21.1,21.2,18L21.2,18z"/><path fill="#84A75A" d="M45.5,20.7c0.5,0.2,1.4,0.5,1.9,0.7c0.4,0.4,1.3,1.3,1.8,1.8c-0.2,2,0.1,4.1-1,5.9c0.2,0.3,0.7,0.9,0.9,1.2 l-0.3,1.2c-1.9-0.4-3.8-0.6-5.7-0.2c0-2.6-0.7-5.3,0.4-7.7C44.5,22.8,45.1,21.8,45.5,20.7L45.5,20.7z"/><path fill="#323C24" d="M107.5,21c3,4.2,0,10.3-5,10.7c-0.5-1.9-0.5-3.8-0.2-5.7l1-0.8C104.8,24,106.2,22.5,107.5,21L107.5,21z"/><path fill="#759450" d="M72.4,22.8c0.8,0.8,1.6,1.6,2.3,2.4c-1.1,1.6-2.2,3.3-3.7,4.5c-0.7-1.3-1.5-2.5-2.2-3.8 C69.6,24.5,70.9,23.5,72.4,22.8L72.4,22.8z"/><path fill="#252C1B" d="M93.9,28.4c0-2,2.2-3.2,3.3-4.8c1.5,1.2,3,2.8,5.1,2.4c-0.3,1.9-0.3,3.8,0.2,5.7C99.3,32,96,30.9,93.9,28.4 L93.9,28.4z"/><path fill="#54693A" d="M55.6,24.2l1-0.6c0.6,1.2,1.3,2.4,1.9,3.5c1.5,0.9,2.8,1.9,4.2,3c0.7-0.8,1.3-1.5,2-2.3 c0.4,0.1,1.3,0.3,1.8,0.4c0.8-0.7,1.6-1.4,2.4-2.2c0.8,1.3,1.5,2.5,2.2,3.8c-4.1,3.2-10.8,3.9-14.6-0.1c-1.2-1.1-3.2-2-2.9-4 l1.5,0.4C55.3,25.6,55.5,24.7,55.6,24.2L55.6,24.2z"/><path fill="#313C24" d="M78.5,30.6c1.4-1.3,2.7-2.7,4.3-3.8c2-0.5,4,0,5.6,1.4c1.5-0.8,3-1.5,4.6-2.1l0.4,1.2 C90,31.9,83.5,32.8,78.5,30.6L78.5,30.6z"/><path fill="#5F7941" d="M28.6,31.2c1.4-0.6,4-2.8,5.1-0.7c-0.5,1.8-3,1.1-4.4,1.1L28.6,31.2L28.6,31.2z"/><path fill="#85A95B" d="M1.4,4C3.5,4,5.6,4,7.6,4.1c0.2,2.3,0.1,4.6-0.1,7c-1.6,0.2-3.2,0.4-4.7,0.7c-0.5,2.8-0.7,5.8-0.1,8.6 c0.8,2.7-1.1,5.4,0.1,8c0.8-2.3,2.6-3.1,4.7-2c1,1.6,0.6,3.3-0.2,4.9c-1.9,0-3.7,0-5.6,0c-0.1-4.9,0-9.9-0.3-14.8 C1.9,12.3,1.7,8.1,1.4,4L1.4,4z"/></svg>