<svg xmlns="http://www.w3.org/2000/svg" xmlns:xlink="http://www.w3.org/1999/xlink" x="0px" y="0px" width="643.4px" height="368.6px" viewBox="0 0 643.4 368.6" xml:space="preserve"><g><path fill="#0066A4" d="M478.1,212.8c-3.4-16.3-9.8-29.8-19.2-42.1c-19.1-25.2-50-41.1-91.9-41.1c-65.1,0-105.1,44.2-117,90.8 c-10.6-32.9-39.1-55-69.2-64.4c22.7-16.5,34.5-40.1,34.5-67.1c0-25-10.4-47.8-27.9-62.6C161.9,4.4,127,0,84,0C51,0,38.6,0,0,0 v362.8c23.8,0,48.3-0.1,72.1,0c21.2,0.1,41.9,0,61.3-0.8c61.2-2.5,103-33.2,116.4-79.5c4.6,20.6,13.5,37.3,25,50 c23.6,25.9,57.7,36.1,92.1,36.1c42.3,0,73-12.3,93.9-31.1l-29.9-35.2c-15.1,11.4-34.4,18.1-56.2,18.1 c-42.6-0.1-61.4-27.1-63.1-53.1h166.5v95.5h62.4V1.8h-62.4V212.8z M64.1,49l17.3,0c16.7,0,30,1.8,39.5,5.5 c18.8,7.3,27.7,22.2,27.7,40.9c0,15.8-6,40.6-39.2,47.4c-5.6,1.1-13.6,1.8-24.9,1.8c-16,0-20.5,0-20.5,0V49z M134.6,309.7 c-7.8,1.4-17.4,1.7-25.1,1.7c-23.5,0-45.4,0-45.4,0l0-118.3c0,0,23.8,0,40.6,0c12.8,0,27.3,1.4,35.6,3.6 c28.5,7.5,44.9,27.9,44.9,55C185.2,279.7,170.2,303.3,134.6,309.7z M312.7,222.2c5.5-26.4,25-45.4,53.8-45.4c28.8,0,48,17,53,45.4 H312.7z"/><rect x="582.1" y="1.8" fill="#0066A4" width="61.3" height="360.9"/></g></svg>