<svg xmlns="http://www.w3.org/2000/svg" width="643.4" height="368.6"><g fill="#0066A4"><path d="M478.1 212.8c-3.4-16.3-9.8-29.8-19.2-42.1-19.1-25.2-50-41.1-91.9-41.1-65.1 0-105.1 44.2-117 90.8-10.6-32.9-39.1-55-69.2-64.4 22.7-16.5 34.5-40.1 34.5-67.1 0-25-10.4-47.8-27.9-62.6C161.9 4.4 127 0 84 0H0v362.8c23.8 0 48.3-.1 72.1 0 21.2.1 41.9 0 61.3-.8 61.2-2.5 103-33.2 116.4-79.5 4.6 20.6 13.5 37.3 25 50 23.6 25.9 57.7 36.1 92.1 36.1 42.3 0 73-12.3 93.9-31.1l-29.9-35.2c-15.1 11.4-34.4 18.1-56.2 18.1-42.6-.1-61.4-27.1-63.1-53.1h166.5v95.5h62.4V1.8h-62.4v211zM64.1 49h17.3c16.7 0 30 1.8 39.5 5.5 18.8 7.3 27.7 22.2 27.7 40.9 0 15.8-6 40.6-39.2 47.4-5.6 1.1-13.6 1.8-24.9 1.8H64V49zm70.5 260.7c-7.8 1.4-17.4 1.7-25.1 1.7H64.1V193.1h40.6c12.8 0 27.3 1.4 35.6 3.6 28.5 7.5 44.9 27.9 44.9 55 0 28-15 51.6-50.6 58zm178.1-87.5c5.5-26.4 25-45.4 53.8-45.4 28.8 0 48 17 53 45.4H312.7zM582.1 1.8h61.3v360.9h-61.3z"/></g></svg>