<svg xmlns="http://www.w3.org/2000/svg" xmlns:xlink="http://www.w3.org/1999/xlink" x="0px"
	 y="0px" width="296.5px" height="159.2px" viewBox="0 0 296.5 159.2" xml:space="preserve">
<g> <polygon fill="none" stroke="#D6D6D7" points="77,56 104,42.1 104,14.4 77,0.6 50,14.4 50,42.1 "/> <polygon fill="#D6D6D7" points="141,56 168,42.1 168,14.4 141,0.6 114,14.4 114,42.1 "/> <polygon fill="#D6D6D7" points="205,56 232,42.1 232,14.4 205,0.6 178,14.4 178,42.1 "/> <polygon fill="none" stroke="#D6D6D7" points="269,56 296,42.1 296,14.4 269,0.6 242,14.4 242,42.1 "/> <polygon fill="#D6D6D7" points="109,103.5 136,89.6 136,61.9 109,48.1 82,61.9 82,89.6 "/> <polygon fill="#D6D6D7" points="173,103.5 200,89.6 200,61.9 173,48.1 146,61.9 146,89.6 "/> <polygon fill="#D6D6D7" points="237,103.5 264,89.6 264,61.9 237,48.1 210,61.9 210,89.6 "/> <polygon fill="none" stroke="#D6D6D7" points="141,151 168,137.1 168,109.4 141,95.6 114,109.4 114,137.1 "/> <path fill="none" stroke="#000000" d="M8.8,126.4"/> <path fill="none" stroke="#000000" d="M35.8,112.5"/> <path fill="none" stroke="#000000" d="M0,159.2"/> <path fill="none" stroke="#000000" d="M27,145.4"/> <g> <polygon fill="#149B49" points="193.7,65.1 193.7,86.4 173,97.1 173,75.8 "/> <polygon fill="#1F5329" points="152.2,65.1 173,54.5 193.7,65.1 173,75.8 "/> </g> <g> <polygon fill="#149B49" points="129.7,65.1 129.7,86.4 109,97.1 109,75.8 "/> <polygon fill="#1F5329" points="88.2,65.1 109,54.5 129.7,65.1 109,75.8 "/> </g> <g> <polygon fill="#149B49" points="161.7,17.6 161.7,38.9 141,49.6 141,28.3 "/> <polygon fill="#1F5329" points="120.2,17.6 141,7 161.7,17.6 141,28.3 "/> </g></g><g> <g> <path fill="#1F5329" d="M91.9,71.7l6.3,3.2c1.2,0.6,2.2,1.2,2.8,1.6c0.6,0.4,1.2,0.9,1.6,1.5c0.5,0.6,0.9,1.2,1.2,1.9 c0.3,0.7,0.5,1.4,0.5,2.1c0,0.7-0.2,1.3-0.6,1.7c-0.4,0.4-0.9,0.6-1.6,0.6c1,0.8,1.7,1.6,2.2,2.5c0.5,0.9,0.8,1.8,0.8,2.8 c0,0.7-0.2,1.3-0.5,1.8c-0.3,0.5-0.8,0.8-1.4,0.9c-0.6,0.1-1.3,0-2.1-0.3c-0.5-0.2-1.8-0.8-3.8-1.8l-5.3-2.7V71.7z M95.1,75.9v3.6 l2.1,1.1c1.2,0.6,2,1,2.3,1.1c0.5,0.2,1,0.2,1.3,0.1c0.3-0.2,0.5-0.5,0.5-1c0-0.5-0.1-0.9-0.4-1.4c-0.3-0.4-0.7-0.8-1.2-1.2 c-0.3-0.2-1.2-0.7-2.7-1.4L95.1,75.9z M95.1,82.1v4.2l2.9,1.5c1.1,0.6,1.9,0.9,2.2,1c0.5,0.2,0.9,0.1,1.1,0 c0.3-0.2,0.4-0.5,0.4-1.1c0-0.5-0.1-0.9-0.3-1.4c-0.2-0.4-0.6-0.8-1-1.2c-0.4-0.4-1.4-0.9-2.8-1.7L95.1,82.1z"/> </g> <g> <path fill="#1F5329" d="M122.5,38.4V22.8l4.7,2.4l2.8,12.1l2.8-9.2l4.7,2.4v15.7l-2.9-1.5V32.3l-3.1,10.7l-3-1.6l-3.1-13.9v12.3 L122.5,38.4z"/> </g> <g> <path fill="#1F5329" d="M163.1,75.2l3.1,1.6v9.9c0,1.3-0.1,2.2-0.3,2.8c-0.3,0.8-0.9,1.2-1.7,1.3c-0.8,0.1-1.9-0.1-3.2-0.8 c-1.5-0.8-2.7-1.8-3.6-3.1s-1.3-2.8-1.3-4.4l3,1.2c0,0.9,0.2,1.6,0.4,2.1c0.3,0.7,0.9,1.3,1.6,1.6c0.7,0.4,1.2,0.4,1.5,0.2 c0.3-0.3,0.4-1,0.4-2.3V75.2z"/> </g></g></svg>