<svg xmlns="http://www.w3.org/2000/svg" width="296.5" height="159.2"><path fill="none" stroke="#D6D6D7" d="M77 56l27-13.9V14.4L77 .6 50 14.4v27.7z"/><path fill="#D6D6D7" d="M141 56l27-13.9V14.4L141 .6l-27 13.8v27.7zM205 56l27-13.9V14.4L205 .6l-27 13.8v27.7z"/><path fill="none" stroke="#D6D6D7" d="M269 56l27-13.9V14.4L269 .6l-27 13.8v27.7z"/><path fill="#D6D6D7" d="M109 103.5l27-13.9V61.9l-27-13.8-27 13.8v27.7zM173 103.5l27-13.9V61.9l-27-13.8-27 13.8v27.7zM237 103.5l27-13.9V61.9l-27-13.8-27 13.8v27.7z"/><path fill="none" stroke="#D6D6D7" d="M141 151l27-13.9v-27.7l-27-13.8-27 13.8v27.7z"/><path fill="#149B49" d="M193.7 65.1v21.3L173 97.1V75.8z"/><path fill="#1F5329" d="M152.2 65.1L173 54.5l20.7 10.6L173 75.8z"/><path fill="#149B49" d="M129.7 65.1v21.3L109 97.1V75.8z"/><path fill="#1F5329" d="M88.2 65.1L109 54.5l20.7 10.6L109 75.8z"/><g><path fill="#149B49" d="M161.7 17.6v21.3L141 49.6V28.3z"/><path fill="#1F5329" d="M120.2 17.6L141 7l20.7 10.6L141 28.3z"/></g><g><path fill="#1F5329" d="M91.9 71.7l6.3 3.2c1.2.6 2.2 1.2 2.8 1.6.6.4 1.2.9 1.6 1.5.5.6.9 1.2 1.2 1.9.3.7.5 1.4.5 2.1 0 .7-.2 1.3-.6 1.7-.4.4-.9.6-1.6.6 1 .8 1.7 1.6 2.2 2.5.5.9.8 1.8.8 2.8 0 .7-.2 1.3-.5 1.8s-.8.8-1.4.9c-.6.1-1.3 0-2.1-.3-.5-.2-1.8-.8-3.8-1.8L92 87.5V71.7zm3.2 4.2v3.6l2.1 1.1c1.2.6 2 1 2.3 1.1.5.2 1 .2 1.3.1.3-.2.5-.5.5-1s-.1-.9-.4-1.4c-.3-.4-.7-.8-1.2-1.2-.3-.2-1.2-.7-2.7-1.4l-1.9-.9zm0 6.2v4.2l2.9 1.5c1.1.6 1.9.9 2.2 1 .5.2.9.1 1.1 0 .3-.2.4-.5.4-1.1 0-.5-.1-.9-.3-1.4-.2-.4-.6-.8-1-1.2-.4-.4-1.4-.9-2.8-1.7l-2.5-1.3zM122.5 38.4V22.8l4.7 2.4 2.8 12.1 2.8-9.2 4.7 2.4v15.7l-2.9-1.5V32.3L131.5 43l-3-1.6-3.1-13.9v12.3l-2.9-1.4zM163.1 75.2l3.1 1.6v9.9c0 1.3-.1 2.2-.3 2.8-.3.8-.9 1.2-1.7 1.3-.8.1-1.9-.1-3.2-.8-1.5-.8-2.7-1.8-3.6-3.1s-1.3-2.8-1.3-4.4l3 1.2c0 .9.2 1.6.4 2.1.3.7.9 1.3 1.6 1.6.7.4 1.2.4 1.5.2.3-.3.4-1 .4-2.3V75.2z"/></g></svg>