<?xml version="1.0" encoding="utf-8"?>
<svg version="1.2" baseProfile="tiny" id="Layer_1" xmlns="http://www.w3.org/2000/svg" xmlns:xlink="http://www.w3.org/1999/xlink" x="0px" y="0px" viewBox="0 0 208.7 21.2" overflow="scroll" xml:space="preserve"><path fill="#FFFFFF" d="M0,0h11.5c1.9,0,3.4,0.5,4.4,1.5s1.5,2.2,1.5,3.7c0,1.2-0.4,2.3-1.1,3.2c-0.5,0.6-1.2,1.1-2.1,1.4c1.4,0.4,2.5,1,3.1,1.9c0.7,0.9,1,2,1,3.3c0,1.1-0.2,2.1-0.7,2.9s-1.1,1.5-2,2c-0.5,0.3-1.3,0.5-2.3,0.7c-1.4,0.2-2.3,0.3-2.7,0.3H0V0z M6.2,8.2h2.7c1,0,1.6-0.2,2-0.5s0.6-0.8,0.6-1.5c0-0.6-0.2-1.1-0.6-1.4c-0.4-0.3-1-0.5-2-0.5H6.2V8.2z M6.2,16.4h3.1c1.1,0,1.8-0.2,2.2-0.6c0.4-0.4,0.6-0.9,0.6-1.6c0-0.6-0.2-1.1-0.6-1.5c-0.4-0.4-1.2-0.6-2.3-0.6H6.2V16.4z"/><path fill="#FFFFFF" d="M21.4,0h5.5v3.9h-5.5V0z M21.4,5.7h5.5v15.1h-5.5V5.7z"/><path fill="#FFFFFF" d="M37,0v5.7h3V10h-3v5.4c0,0.6,0.1,1.1,0.2,1.3c0.2,0.3,0.5,0.5,0.9,0.5c0.4,0,1-0.1,1.7-0.4l0.4,4c-1.4,0.3-2.6,0.5-3.8,0.5c-1.4,0-2.4-0.2-3-0.6c-0.6-0.4-1.1-0.9-1.4-1.7c-0.3-0.8-0.5-2-0.5-3.7V10h-2V5.7h2V3L37,0z"/><path fill="#FFFFFF" d="M53.4,14.9l5.2,0.6c-0.3,1.1-0.8,2.1-1.4,3s-1.5,1.5-2.5,2c-1,0.5-2.3,0.7-3.9,0.7c-1.5,0-2.8-0.1-3.8-0.4c-1-0.3-1.9-0.8-2.6-1.4c-0.7-0.7-1.3-1.5-1.7-2.4C42.2,16,42,14.9,42,13.4c0-1.6,0.3-2.8,0.8-3.9c0.4-0.8,0.9-1.4,1.5-2c0.6-0.6,1.3-1,2-1.3c1.1-0.5,2.4-0.7,4.1-0.7c2.3,0,4.1,0.4,5.4,1.3c1.2,0.9,2.1,2.2,2.6,3.9l-5.2,0.7c-0.2-0.6-0.5-1.1-0.9-1.5c-0.4-0.3-1-0.5-1.7-0.5c-0.9,0-1.6,0.3-2.2,1c-0.6,0.7-0.8,1.7-0.8,3.1c0,1.2,0.3,2.2,0.8,2.8c0.6,0.6,1.3,1,2.1,1c0.7,0,1.3-0.2,1.8-0.6C52.8,16.3,53.2,15.7,53.4,14.9z"/><path fill="#FFFFFF" d="M60.5,13.3c0-2.3,0.7-4.2,2.2-5.7c1.5-1.5,3.5-2.2,6-2.2c2.9,0,5,0.9,6.5,2.6c1.2,1.4,1.8,3.2,1.8,5.2c0,2.3-0.7,4.2-2.2,5.7c-1.5,1.5-3.5,2.2-6.1,2.2c-2.3,0-4.2-0.6-5.6-1.8C61.4,17.8,60.5,15.8,60.5,13.3z M66,13.3c0,1.3,0.3,2.3,0.8,3s1.2,1,2,1c0.8,0,1.4-0.3,2-1s0.8-1.7,0.8-3.1c0-1.3-0.3-2.3-0.8-2.9c-0.5-0.6-1.1-1-1.9-1c-0.8,0-1.5,0.3-2,1C66.3,11,66,12,66,13.3z"/><path fill="#FFFFFF" d="M79.8,0h5.5v3.9h-5.5V0z M79.8,5.7h5.5v15.1h-5.5V5.7z"/><path fill="#FFFFFF" d="M88.9,5.7H94v2.5c0.8-1,1.5-1.7,2.3-2.2c0.8-0.4,1.7-0.6,2.9-0.6c1.5,0,2.7,0.5,3.6,1.4c0.9,1,1.3,2.4,1.3,4.4v9.6h-5.5v-8.3c0-0.9-0.2-1.6-0.5-2s-0.8-0.6-1.4-0.6c-0.7,0-1.2,0.3-1.6,0.8c-0.4,0.5-0.6,1.5-0.6,2.9v7.3h-5.5V5.7z"/><path fill="#FFFFFF" d="M117,0h15.1v4.5h-9v3.6h7.7v4.2h-7.7v8.5H117V0z"/><path fill="#FFFFFF" d="M133.4,13.3c0-2.3,0.7-4.2,2.2-5.7c1.5-1.5,3.5-2.2,6-2.2c2.9,0,5,0.9,6.5,2.6c1.2,1.4,1.8,3.2,1.8,5.2c0,2.3-0.7,4.2-2.2,5.7c-1.5,1.5-3.5,2.2-6.1,2.2c-2.3,0-4.2-0.6-5.6-1.8C134.3,17.8,133.4,15.8,133.4,13.3z M138.9,13.3c0,1.3,0.3,2.3,0.8,3s1.2,1,2,1c0.8,0,1.4-0.3,2-1s0.8-1.7,0.8-3.1c0-1.3-0.3-2.3-0.8-2.9c-0.5-0.6-1.1-1-1.9-1c-0.8,0-1.5,0.3-2,1C139.2,11,138.9,12,138.9,13.3z"/><path fill="#FFFFFF" d="M152.6,5.7h5.2v2.5c0.5-1.1,1-1.8,1.5-2.2c0.5-0.4,1.2-0.6,2-0.6c0.8,0,1.7,0.3,2.7,0.8l-1.7,4.1c-0.6-0.3-1.2-0.4-1.5-0.4c-0.7,0-1.3,0.3-1.7,0.9c-0.6,0.9-0.9,2.5-0.9,5v5.1h-5.5V5.7z"/><path fill="#FFFFFF" d="M180.9,20.9h-5.1v-2.4c-0.8,1-1.5,1.7-2.3,2.1s-1.7,0.6-2.9,0.6c-1.5,0-2.7-0.5-3.6-1.4s-1.3-2.4-1.3-4.4V5.7h5.5v8.3c0,0.9,0.2,1.6,0.5,2c0.3,0.4,0.8,0.6,1.4,0.6c0.7,0,1.2-0.3,1.6-0.8c0.4-0.5,0.6-1.5,0.6-2.9V5.7h5.5V20.9z"/><path fill="#FFFFFF" d="M184.3,5.7h5.1V8c0.7-0.9,1.5-1.6,2.2-2c0.8-0.4,1.7-0.6,2.7-0.6c1.1,0,2.1,0.2,2.7,0.6c0.7,0.4,1.2,1.1,1.6,1.9c0.9-1,1.7-1.7,2.4-2c0.7-0.4,1.6-0.5,2.6-0.5c1.5,0,2.7,0.5,3.6,1.4s1.3,2.5,1.3,4.5v9.5h-5.5v-8.6c0-0.7-0.1-1.2-0.4-1.5c-0.4-0.5-0.8-0.8-1.4-0.8c-0.6,0-1.2,0.2-1.6,0.7s-0.6,1.3-0.6,2.4v7.8h-5.5v-8.3c0-0.7,0-1.1-0.1-1.4c-0.1-0.4-0.3-0.7-0.6-0.9c-0.3-0.2-0.6-0.3-1-0.3c-0.6,0-1.2,0.3-1.6,0.8c-0.4,0.5-0.6,1.3-0.6,2.5v7.7h-5.5V5.7z"/></svg>