<svg version="1.2" baseProfile="tiny" xmlns="http://www.w3.org/2000/svg" viewBox="0 0 208.7 21.2" overflow="scroll"><path fill="#FFF" d="M0 0h11.5c1.9 0 3.4.5 4.4 1.5s1.5 2.2 1.5 3.7c0 1.2-.4 2.3-1.1 3.2-.5.6-1.2 1.1-2.1 1.4 1.4.4 2.5 1 3.1 1.9.7.9 1 2 1 3.3 0 1.1-.2 2.1-.7 2.9s-1.1 1.5-2 2c-.5.3-1.3.5-2.3.7-1.4.2-2.3.3-2.7.3H0V0zm6.2 8.2h2.7c1 0 1.6-.2 2-.5s.6-.8.6-1.5c0-.6-.2-1.1-.6-1.4-.4-.3-1-.5-2-.5H6.2v3.9zm0 8.2h3.1c1.1 0 1.8-.2 2.2-.6.4-.4.6-.9.6-1.6 0-.6-.2-1.1-.6-1.5-.4-.4-1.2-.6-2.3-.6h-3v4.3zM21.4 0h5.5v3.9h-5.5V0zm0 5.7h5.5v15.1h-5.5V5.7zM37 0v5.7h3V10h-3v5.4c0 .6.1 1.1.2 1.3.2.3.5.5.9.5s1-.1 1.7-.4l.4 4c-1.4.3-2.6.5-3.8.5-1.4 0-2.4-.2-3-.6-.6-.4-1.1-.9-1.4-1.7-.3-.8-.5-2-.5-3.7V10h-2V5.7h2V3L37 0zM53.4 14.9l5.2.6c-.3 1.1-.8 2.1-1.4 3s-1.5 1.5-2.5 2-2.3.7-3.9.7c-1.5 0-2.8-.1-3.8-.4-1-.3-1.9-.8-2.6-1.4-.7-.7-1.3-1.5-1.7-2.4-.5-1-.7-2.1-.7-3.6 0-1.6.3-2.8.8-3.9.4-.8.9-1.4 1.5-2 .6-.6 1.3-1 2-1.3 1.1-.5 2.4-.7 4.1-.7 2.3 0 4.1.4 5.4 1.3 1.2.9 2.1 2.2 2.6 3.9l-5.2.7c-.2-.6-.5-1.1-.9-1.5-.4-.3-1-.5-1.7-.5-.9 0-1.6.3-2.2 1-.6.7-.8 1.7-.8 3.1 0 1.2.3 2.2.8 2.8.6.6 1.3 1 2.1 1 .7 0 1.3-.2 1.8-.6.5-.4.9-1 1.1-1.8zM60.5 13.3c0-2.3.7-4.2 2.2-5.7 1.5-1.5 3.5-2.2 6-2.2 2.9 0 5 .9 6.5 2.6 1.2 1.4 1.8 3.2 1.8 5.2 0 2.3-.7 4.2-2.2 5.7-1.5 1.5-3.5 2.2-6.1 2.2-2.3 0-4.2-.6-5.6-1.8-1.7-1.5-2.6-3.5-2.6-6zm5.5 0c0 1.3.3 2.3.8 3s1.2 1 2 1 1.4-.3 2-1 .8-1.7.8-3.1c0-1.3-.3-2.3-.8-2.9-.5-.6-1.1-1-1.9-1-.8 0-1.5.3-2 1-.6.7-.9 1.7-.9 3zM79.8 0h5.5v3.9h-5.5V0zm0 5.7h5.5v15.1h-5.5V5.7zM88.9 5.7H94v2.5c.8-1 1.5-1.7 2.3-2.2.8-.4 1.7-.6 2.9-.6 1.5 0 2.7.5 3.6 1.4.9 1 1.3 2.4 1.3 4.4v9.6h-5.5v-8.3c0-.9-.2-1.6-.5-2s-.8-.6-1.4-.6c-.7 0-1.2.3-1.6.8-.4.5-.6 1.5-.6 2.9v7.3H89V5.7zM117 0h15.1v4.5h-9v3.6h7.7v4.2h-7.7v8.5H117V0zM133.4 13.3c0-2.3.7-4.2 2.2-5.7 1.5-1.5 3.5-2.2 6-2.2 2.9 0 5 .9 6.5 2.6 1.2 1.4 1.8 3.2 1.8 5.2 0 2.3-.7 4.2-2.2 5.7-1.5 1.5-3.5 2.2-6.1 2.2-2.3 0-4.2-.6-5.6-1.8-1.7-1.5-2.6-3.5-2.6-6zm5.5 0c0 1.3.3 2.3.8 3s1.2 1 2 1 1.4-.3 2-1 .8-1.7.8-3.1c0-1.3-.3-2.3-.8-2.9-.5-.6-1.1-1-1.9-1-.8 0-1.5.3-2 1-.6.7-.9 1.7-.9 3zM152.6 5.7h5.2v2.5c.5-1.1 1-1.8 1.5-2.2.5-.4 1.2-.6 2-.6s1.7.3 2.7.8l-1.7 4.1c-.6-.3-1.2-.4-1.5-.4-.7 0-1.3.3-1.7.9-.6.9-.9 2.5-.9 5v5.1h-5.5V5.7zM180.9 20.9h-5.1v-2.4c-.8 1-1.5 1.7-2.3 2.1s-1.7.6-2.9.6c-1.5 0-2.7-.5-3.6-1.4s-1.3-2.4-1.3-4.4V5.7h5.5V14c0 .9.2 1.6.5 2 .3.4.8.6 1.4.6.7 0 1.2-.3 1.6-.8.4-.5.6-1.5.6-2.9V5.7h5.5v15.2zM184.3 5.7h5.1V8c.7-.9 1.5-1.6 2.2-2 .8-.4 1.7-.6 2.7-.6 1.1 0 2.1.2 2.7.6.7.4 1.2 1.1 1.6 1.9.9-1 1.7-1.7 2.4-2 .7-.4 1.6-.5 2.6-.5 1.5 0 2.7.5 3.6 1.4s1.3 2.5 1.3 4.5v9.5H203v-8.6c0-.7-.1-1.2-.4-1.5-.4-.5-.8-.8-1.4-.8-.6 0-1.2.2-1.6.7s-.6 1.3-.6 2.4v7.8h-5.5v-8.3c0-.7 0-1.1-.1-1.4-.1-.4-.3-.7-.6-.9-.3-.2-.6-.3-1-.3-.6 0-1.2.3-1.6.8-.4.5-.6 1.3-.6 2.5v7.7h-5.5V5.7z"/></svg>