<svg xmlns="http://www.w3.org/2000/svg" width="237.867" height="118.933" viewBox="0 0 223 111.5"><g fill="#ee4f1e"><path d="M116.062 75.088c-11.078 0-17.19-6.565-17.19-14.747 0-3.328.154-28.063.154-28.063-3.624 0-5.407-1.902-5.407-4.28 0-2.377 1.889-4.577 4.987-4.577 0 0 .005-8.27.005-11.694 0-3.902 3.028-7.135 6.944-7.135s7.025 3.233 7.025 7.135c0 2.948-.257 7.015-.248 11.518.327-.002 3.123-.002 7.229-.053 3.808-.044 5.359 2.083 5.359 4.748 0 2.663-2.052 4.52-4.724 4.532-2.478.01-7.95-.02-7.95-.02-.25 7.89-.484 17.398-.484 25.008 0 2.744 1.894 5.881 6.478 5.881 10.505 0 13.532-10.603 13.532-30.584 0-2.662 2.102-4.757 4.777-4.757 2.675 0 4.774 2.095 4.774 4.757 0 26.16-6.642 42.333-25.263 42.333"/><path d="M160.913 33.218c.005-.015 4.473-3.058 7.148-3.058 2.674 0 2.28.468 2.28 3.13 0 28.54-5.164 41.858-23.635 41.858-8.026 0-15.521-5.991-15.521-13.316 0-2.854.477-8.56.477-11.415 0-27.589-.427-33.42-.427-41.506 0-3.9 3.245-7.384 7.161-7.384 3.92 0 6.807 3.13 6.807 7.029 0 8.087-.875 19.847-1.126 50.301-.02 2.551 1.222 4.344 4.522 4.344 10.315 0 11.91-13.067 12.314-29.983"/><path d="M196.09 85.866c-8.81 1.9-19.845 4.678-19.718 10.102.12 5.088 5.373 6.014 9.752 5.11 9.093-1.882 10.15-7.353 9.966-15.212zm-1.7-15.626s-3.882 5.088-13.718 4.844c-13.043-.327-19.087-10.682-19.727-21.334-.484-8.072-.267-13.778-.267-19.01 0-3.9 2.599-7.056 6.515-7.056 3.916 0 6.216 3.233 6.216 7.133 0 5.231-.318 9.826-.376 15.532-.069 6.886 2.285 12.952 8.015 12.935 5.5-.015 11.54-2.332 11.688-14.126.073-5.706-.124-9.11-.124-14.341 0-3.9 2.72-7.133 6.637-7.133 3.913 0 6.633 3.233 6.633 7.133 0 5.231-.426 10.415-.426 18.502 0 0-.243 16.333.333 19.95 1.795-.6 4.386-2.353 7.133-6.61 1.658-2.57 4.826-3.12 6.78-1.982 2.688 1.565 2.593 4.628 1.587 6.864-2.594 5.773-5.968 9.306-14.5 12.23.024 9.793-.658 24.24-18.762 26.85-15.507 2.237-22.52-6.753-22.543-14.406-.035-12.082 12.038-15.6 29.465-19.988l-.559-5.987M70.486 61.837c0-3.332-.37-30.105-.37-30.105 0-3.902 2.515-7.205 6.432-7.205 3.914 0 6.516 3.528 6.378 7.253-.47 12.537-.662 20.791-.662 25.158 0 2.529 1.38 6.402 5.462 6.402 9.448 0 11.399-8.755 11.399-29.892 0-2.663 2.657-4.755 5.333-4.755 2.674 0 4.774 2.092 4.774 4.755 0 31.981-5.563 41.676-23.653 41.676-7.353 0-15.093-4.633-15.093-13.287"/><path d="M33.678 63.128c-6.047.106-9.903-2.28-10.171-7.546-.103-1.975-.07-3.667.024-4.935.585-7.693 5.431-12.677 10.761-13.74 6.63-1.32 11.047 1.699 11.047 10.346 0 5.843-1.627 15.7-11.663 15.875zm41.074-36.151c-2.595 0-2.762.537-4.481 3.228 0 11.816-1.218 24.7-16.403 31.706 10.19-18.505.274-37.846-15.348-37.846-7.505 0-11.996 2.675-15.051 5.165 0-5.721.191-15.878.191-15.878 0-7.054-2.48-12.698-11.123-12.82C7.535.46 3.825 2.746 1.51 7.914.673 9.85.982 11.957 2.632 12.91c1.363.788 3.607.204 4.719-1.273.74-.922 1.157-1.12 1.8-1.05 1.064.113 1.102 1.82 1.145 2.908.03.836.849 10.811.4 42.05 0 8.606 6.77 19.66 22.982 19.66 29.678 0 47.474-14.035 47.474-44.668 0-2.58-3.806-3.561-6.4-3.561M76.538 4.626c3.952 0 7.147 3.182 7.147 7.12s-3.195 7.12-7.147 7.12c-3.955 0-7.15-3.182-7.15-7.12s3.195-7.12 7.15-7.12"/></g></svg>