<?xml version="1.0" encoding="UTF-8" standalone="no"?><svg xmlns:dc="http://purl.org/dc/elements/1.1/" xmlns:cc="http://creativecommons.org/ns#" xmlns:rdf="http://www.w3.org/1999/02/22-rdf-syntax-ns#" xmlns:svg="http://www.w3.org/2000/svg" xmlns="http://www.w3.org/2000/svg" xmlns:sodipodi="http://sodipodi.sourceforge.net/DTD/sodipodi-0.dtd" xmlns:inkscape="http://www.inkscape.org/namespaces/inkscape" width="62.935539mm" height="31.467669mm" viewBox="0 0 222.99994 111.49961" id="svg2" version="1.1" inkscape:version="0.91 r13725" sodipodi:docname="dessin.svg"><defs id="defs4" /><sodipodi:namedview id="base" pagecolor="#ffffff" bordercolor="#666666" borderopacity="1.0" inkscape:pageopacity="0.0" inkscape:pageshadow="2" inkscape:zoom="4" inkscape:cx="123.57895" inkscape:cy="67.952808" inkscape:document-units="px" inkscape:current-layer="layer1" showgrid="false" fit-margin-top="0" fit-margin-left="0" fit-margin-right="0" fit-margin-bottom="0" inkscape:window-width="1858" inkscape:window-height="1057" inkscape:window-x="-8" inkscape:window-y="-8" inkscape:window-maximized="1" /><metadata id="metadata7"><rdf:RDF><cc:Work rdf:about=""><dc:format>image/svg+xml</dc:format><dc:type rdf:resource="http://purl.org/dc/dcmitype/StillImage" /><dc:title></dc:title></cc:Work></rdf:RDF></metadata><g inkscape:label="Calque 1" inkscape:groupmode="layer" id="layer1" transform="translate(-345.65478,-500.73546)"><path d="m 461.71698,575.82391 c -11.07771,0 -17.18928,-6.56506 -17.18928,-14.74735 0,-3.32854 0.15315,-28.06265 0.15315,-28.06265 -3.62365,0 -5.40727,-1.90266 -5.40727,-4.28014 0,-2.37755 1.88916,-4.57775 4.9876,-4.57775 0,0 0.005,-8.26881 0.005,-11.69371 0,-3.90156 3.02727,-7.13498 6.94355,-7.13498 3.91569,0 7.02458,3.23342 7.02458,7.13498 0,2.94813 -0.25671,7.0154 -0.24738,11.51824 0.32641,-0.002 3.12298,-0.002 7.22887,-0.053 3.80835,-0.0442 5.35877,2.08303 5.35877,4.7483 0,2.66277 -2.05172,4.52002 -4.72372,4.53165 -2.47816,0.01 -7.94982,-0.0196 -7.94982,-0.0196 -0.24934,7.89028 -0.48397,17.39789 -0.48397,25.00717 0,2.74439 1.89343,5.88151 6.47789,5.88151 10.5046,0 13.53187,-10.60277 13.53187,-30.58435 0,-2.66219 2.10203,-4.75686 4.77653,-4.75686 2.67509,0 4.77403,2.09467 4.77403,4.75686 0,26.16 -6.6411,42.3333 -25.263,42.3333" style="fill:#ee4f1e;fill-opacity:1;fill-rule:nonzero;stroke:none" id="path94" inkscape:connector-curvature="0" /><path d="m 506.56826,533.95323 c 0.005,-0.0148 4.47216,-3.05794 7.14725,-3.05794 2.67449,0 2.28118,0.46776 2.28118,3.13034 0,28.53936 -5.16488,41.85777 -23.63585,41.85777 -8.02649,0 -15.52102,-5.99136 -15.52102,-13.31595 0,-2.85425 0.47662,-8.56087 0.47662,-11.41512 0,-27.58841 -0.42655,-33.41956 -0.42655,-41.50623 0,-3.8991 3.24511,-7.38408 7.16138,-7.38408 3.91879,0 6.80675,3.13035 6.80675,7.02949 0,8.08658 -0.87491,19.8472 -1.12648,50.30143 -0.0196,2.55057 1.2222,4.34337 4.52253,4.34337 10.31504,0 11.90905,-13.06686 12.31399,-29.98308" style="fill:#ee4f1e;fill-opacity:1;fill-rule:nonzero;stroke:none" id="path96" inkscape:connector-curvature="0" /><path d="m 541.74445,586.60157 c -8.81003,1.90079 -19.84474,4.67831 -19.71771,10.10212 0.12025,5.08816 5.37349,6.0134 9.75238,5.10967 9.09286,-1.8818 10.15003,-7.35282 9.96533,-15.21179 z m -1.69896,-15.62659 c 0,0 -3.88251,5.08816 -13.71903,4.84398 -13.04289,-0.32642 -19.08698,-10.68195 -19.72694,-21.33318 -0.48396,-8.07189 -0.26652,-13.77857 -0.26652,-19.01035 0,-3.89974 2.59841,-7.05586 6.51474,-7.05586 3.91565,0 6.21647,3.23284 6.21647,7.13257 0,5.23175 -0.31856,9.82607 -0.37599,15.5327 -0.0692,6.88592 2.28423,12.95209 8.01482,12.93491 5.49987,-0.0148 11.53969,-2.33213 11.68817,-14.12584 0.0726,-5.70663 -0.12467,-9.11002 -0.12467,-14.34177 0,-3.89973 2.72048,-7.13257 6.63677,-7.13257 3.91387,0 6.63373,3.23284 6.63373,7.13257 0,5.23175 -0.42654,10.41567 -0.42654,18.5023 0,0 -0.24249,16.33335 0.33327,19.95026 1.79526,-0.59941 4.38567,-2.35358 7.13257,-6.61041 1.65842,-2.56897 4.8268,-3.12053 6.78035,-1.98178 2.68858,1.56515 2.59287,4.628 1.58665,6.86384 -2.59347,5.77353 -5.96801,9.30631 -14.50006,12.23056 0.0246,9.79288 -0.65714,24.24022 -18.76121,26.85028 -15.50692,2.23579 -22.51983,-6.75399 -22.54378,-14.40685 -0.0344,-12.08149 12.03854,-15.60018 29.46524,-19.98831 l -0.55833,-5.98705" style="fill:#ee4f1e;fill-opacity:1;fill-rule:nonzero;stroke:none" id="path98" inkscape:connector-curvature="0" /><path d="m 416.14109,562.57241 c 0,-3.33159 -0.37108,-30.1052 -0.37108,-30.1052 0,-3.90156 2.5162,-7.20434 6.43248,-7.20434 3.91383,0 6.51657,3.52793 6.37791,7.25283 -0.47023,12.53669 -0.66142,20.79079 -0.66142,25.15746 0,2.52907 1.3805,6.40181 5.46186,6.40181 9.44747,0 11.39856,-8.7548 11.39856,-29.89168 0,-2.66282 2.65787,-4.75503 5.333,-4.75503 2.67446,0 4.77403,2.09221 4.77403,4.75503 0,31.98144 -5.56306,41.67621 -23.65303,41.67621 -7.35281,0 -15.09216,-4.63297 -15.09216,-13.28709" style="fill:#ee4f1e;fill-opacity:1;fill-rule:nonzero;stroke:none" id="path100" inkscape:connector-curvature="0" /><path d="m 379.33285,563.86391 c -6.04658,0.10553 -9.90274,-2.28119 -10.17147,-7.5467 -0.10308,-1.97505 -0.0692,-3.66723 0.0246,-4.93477 0.58473,-7.69336 5.43115,-12.67664 10.76112,-13.74054 6.6294,-1.32036 11.04639,1.69955 11.04639,10.34632 0,5.84351 -1.62714,15.70085 -11.66241,15.87569 z m 41.07425,-36.15173 c -2.59534,0 -2.76281,0.53683 -4.48139,3.22851 0,11.81579 -1.21788,24.70039 -16.40331,31.70594 10.19111,-18.50475 0.27389,-37.84638 -15.34803,-37.84638 -7.50433,0 -11.99554,2.67509 -15.05103,5.16489 0,-5.72077 0.19143,-15.8781 0.19143,-15.8781 0,-7.05344 -2.48062,-12.69749 -11.12311,-12.81962 -5.00169,-0.0717 -8.71182,2.21434 -11.02736,7.38168 -0.8363,1.93637 -0.52707,4.04331 1.12217,4.99741 1.3633,0.78839 3.60709,0.2037 4.71885,-1.27315 0.74053,-0.92219 1.15775,-1.11912 1.80016,-1.04917 1.0639,0.1124 1.10194,1.81857 1.14548,2.90701 0.0294,0.8363 0.84857,10.81139 0.40003,42.04979 0,8.60633 6.77058,19.66009 22.98186,19.66009 29.67811,0 47.4736,-14.03504 47.4736,-44.66726 0,-2.58119 -3.80584,-3.56164 -6.39935,-3.56164" style="fill:#ee4f1e;fill-opacity:1;fill-rule:nonzero;stroke:none" id="path102" inkscape:connector-curvature="0" /><path d="m 422.19317,505.3611 c 3.95187,0 7.14666,3.18247 7.14666,7.12025 0,3.93778 -3.19479,7.12089 -7.14666,7.12089 -3.95496,0 -7.14975,-3.18311 -7.14975,-7.12089 0,-3.93778 3.19479,-7.12025 7.14975,-7.12025" style="fill:#ee4f1e;fill-opacity:1;fill-rule:nonzero;stroke:none" id="path104" inkscape:connector-curvature="0" /></g></svg>