<svg xmlns="http://www.w3.org/2000/svg" xmlns:xlink="http://www.w3.org/1999/xlink" x="0px" y="0px" width="140.915px" height="140.916px" viewBox="0 0 140.915 140.916" xml:space="preserve"><path fill-rule="evenodd" fill="#87BF51" stroke="#87BF51" stroke-width="0.5" stroke-miterlimit="2.6131" d="M70.154,31.029c3.991,0,7.229,3.237,7.229,7.229c0,3.991-3.238,7.229-7.229,7.229c-3.992,0-7.229-3.237-7.229-7.229C62.926,34.266,66.163,31.029,70.154,31.029L70.154,31.029z"/><g><g><path fill-rule="evenodd" fill="#87BF51" d="M129.596,43.86c-6.123-6.122-13.824-9.704-21.793-10.748c-1.045-7.97-4.627-15.671-10.748-21.793c-14.76-14.759-38.698-14.759-53.458,0c-6.062,6.063-9.634,13.674-10.716,21.562c-7.888,1.082-15.499,4.654-21.562,10.716c-14.759,14.76-14.759,38.698,0,53.458c6.122,6.122,13.823,9.705,21.792,10.748c1.044,7.97,4.626,15.672,10.748,21.793c14.76,14.76,38.697,14.76,53.457,0l32.279-32.278C144.354,82.558,144.354,58.619,129.596,43.86z M38.119,77.422c-3.992,0-7.229-3.237-7.229-7.229c0-3.991,3.237-7.228,7.229-7.228c3.991,0,7.229,3.237,7.229,7.228C45.348,74.185,42.11,77.422,38.119,77.422z M49.634,38.257c0-11.331,9.189-20.52,20.52-20.52c11.331,0,20.52,9.189,20.52,20.52s-9.189,20.52-20.52,20.52C58.823,58.777,49.634,49.588,49.634,38.257z M109.893,77.715L109.893,77.715l-32.07,32.139c-1.951,1.951-4.646,3.158-7.623,3.158c-5.954,0-10.782-4.828-10.782-10.782c0-2.977,1.207-5.673,3.158-7.624l32.069-32.138v0c1.951-1.952,4.646-3.159,7.625-3.159c5.953,0,10.781,4.829,10.781,10.782C113.051,73.068,111.844,75.764,109.893,77.715z"/></g><g><path fill="none" stroke="#87BF51" stroke-width="0.5" stroke-miterlimit="2.6131" d="M129.596,43.86c-6.123-6.122-13.824-9.704-21.793-10.748c-1.045-7.97-4.627-15.671-10.748-21.793c-14.76-14.759-38.698-14.759-53.458,0c-6.062,6.063-9.634,13.674-10.716,21.562c-7.888,1.082-15.499,4.654-21.562,10.716c-14.759,14.76-14.759,38.698,0,53.458c6.122,6.122,13.823,9.705,21.792,10.748c1.044,7.97,4.626,15.672,10.748,21.793c14.76,14.76,38.697,14.76,53.457,0l32.279-32.278C144.354,82.558,144.354,58.619,129.596,43.86z M38.119,77.422c-3.992,0-7.229-3.237-7.229-7.229c0-3.991,3.237-7.228,7.229-7.228c3.991,0,7.229,3.237,7.229,7.228C45.348,74.185,42.11,77.422,38.119,77.422z M49.634,38.257c0-11.331,9.189-20.52,20.52-20.52c11.331,0,20.52,9.189,20.52,20.52s-9.189,20.52-20.52,20.52C58.823,58.777,49.634,49.588,49.634,38.257z M109.893,77.715L109.893,77.715l-32.07,32.139c-1.951,1.951-4.646,3.158-7.623,3.158c-5.954,0-10.782-4.828-10.782-10.782c0-2.977,1.207-5.673,3.158-7.624l32.069-32.138v0c1.951-1.952,4.646-3.159,7.625-3.159c5.953,0,10.781,4.829,10.781,10.782C113.051,73.068,111.844,75.764,109.893,77.715z"/></g></g></svg>