<svg xmlns="http://www.w3.org/2000/svg" width="140.915" height="140.916"><path fill-rule="evenodd" fill="#87BF51" stroke="#87BF51" stroke-width=".5" stroke-miterlimit="2.613" d="M70.154 31.029a7.23 7.23 0 0 1 0 14.458 7.23 7.23 0 0 1 0-14.458z"/><path fill-rule="evenodd" fill="#87BF51" d="M129.596 43.86a37.642 37.642 0 0 0-21.793-10.748 37.648 37.648 0 0 0-10.748-21.793c-14.76-14.759-38.698-14.759-53.458 0a37.634 37.634 0 0 0-10.716 21.562 37.634 37.634 0 0 0-21.562 10.716c-14.759 14.76-14.759 38.698 0 53.458a37.63 37.63 0 0 0 21.792 10.748 37.633 37.633 0 0 0 10.748 21.793c14.76 14.76 38.697 14.76 53.457 0l32.279-32.278c14.759-14.76 14.759-38.699.001-53.458zM38.119 77.422a7.23 7.23 0 0 1 0-14.457 7.23 7.23 0 0 1 7.229 7.228 7.23 7.23 0 0 1-7.229 7.229zm11.515-39.165c0-11.331 9.189-20.52 20.52-20.52s20.52 9.189 20.52 20.52-9.189 20.52-20.52 20.52-20.52-9.189-20.52-20.52zm60.259 39.458l-32.07 32.139a10.747 10.747 0 0 1-7.623 3.158c-5.954 0-10.782-4.828-10.782-10.782a10.75 10.75 0 0 1 3.158-7.624l32.069-32.138a10.745 10.745 0 0 1 7.625-3.159c5.953 0 10.781 4.829 10.781 10.782a10.75 10.75 0 0 1-3.158 7.624z"/><path fill="none" stroke="#87BF51" stroke-width=".5" stroke-miterlimit="2.613" d="M129.596 43.86a37.642 37.642 0 0 0-21.793-10.748 37.648 37.648 0 0 0-10.748-21.793c-14.76-14.759-38.698-14.759-53.458 0a37.634 37.634 0 0 0-10.716 21.562 37.634 37.634 0 0 0-21.562 10.716c-14.759 14.76-14.759 38.698 0 53.458a37.63 37.63 0 0 0 21.792 10.748 37.633 37.633 0 0 0 10.748 21.793c14.76 14.76 38.697 14.76 53.457 0l32.279-32.278c14.759-14.76 14.759-38.699.001-53.458zM38.119 77.422a7.23 7.23 0 0 1 0-14.457 7.23 7.23 0 0 1 7.229 7.228 7.23 7.23 0 0 1-7.229 7.229zm11.515-39.165c0-11.331 9.189-20.52 20.52-20.52s20.52 9.189 20.52 20.52-9.189 20.52-20.52 20.52-20.52-9.189-20.52-20.52zm60.259 39.458l-32.07 32.139a10.747 10.747 0 0 1-7.623 3.158c-5.954 0-10.782-4.828-10.782-10.782a10.75 10.75 0 0 1 3.158-7.624l32.069-32.138a10.745 10.745 0 0 1 7.625-3.159c5.953 0 10.781 4.829 10.781 10.782a10.75 10.75 0 0 1-3.158 7.624z"/></svg>