<svg xmlns="http://www.w3.org/2000/svg" xmlns:xlink="http://www.w3.org/1999/xlink" x="0px" y="0px" width="413.9px" height="167.9px" viewBox="0 0 413.9 167.9" xml:space="preserve"><g id="Layer_1"><g><path fill="#F99C31" d="M104,2.5C59.1-8.7,13.7,18.6,2.5,63.5c-11.2,44.9,16.1,90.3,61,101.5c44.9,11.2,90.3-16.1,101.5-61 C176.1,59.1,148.8,13.7,104,2.5z M120.6,71.8c-1.2,8.2-5.7,12.1-11.7,13.5c8.2,4.3,12.4,10.9,8.4,22.3 c-5,14.2-16.7,15.4-32.4,12.4l-3.8,15.2l-9.2-2.3l3.8-15c-2.4-0.6-4.8-1.2-7.3-1.9l-3.8,15.1l-9.2-2.3l3.8-15.3 c-2.1-0.5-4.3-1.1-6.6-1.7l-12-3l4.6-10.5c0,0,6.8,1.8,6.7,1.7c2.6,0.6,3.8-1.1,4.2-2.2l6-24.1c0.3,0.1,0.7,0.2,1,0.2 c-0.4-0.1-0.7-0.2-1-0.3l4.3-17.2c0.1-2-0.6-4.4-4.3-5.3c0.1-0.1-6.7-1.7-6.7-1.7l2.4-9.8l12.7,3.2l0,0c1.9,0.5,3.9,0.9,5.9,1.4 l3.8-15.1l9.2,2.3l-3.7,14.8c2.5,0.6,4.9,1.1,7.4,1.7l3.7-14.7l9.2,2.3l-3.8,15.1C113.8,54.7,122.3,60.7,120.6,71.8z M83.3,57.1 l-4.6,18.3c5.2,1.3,21.2,6.6,23.8-3.8C105.2,60.8,88.5,58.4,83.3,57.1z M76.4,84.7l-5,20.2c6.2,1.5,25.4,7.7,28.3-3.7 C102.6,89.3,82.6,86.3,76.4,84.7z"/></g><path fill="#EDE7DE" d="M413.9,152.7c0,8.4-6.8,15.1-15.1,15.1H198c-8.4,0-15.1-6.8-15.1-15.1V15.4c0-8.4,6.8-15.1,15.1-15.1h200.7 c8.4,0,15.1,6.8,15.1,15.1V152.7z"/><path fill="#BEBDB0" d="M413.9,20.1v132.6c0,8.4-6.8,15.1-15.1,15.1h-18.4l-84.4-61.6L413.9,20.1z"/><polygon fill="#ACABA1" points="219.5,167.9 413.9,25.9 413.9,20.1 211.5,167.9 "/><path fill="#B32317" d="M413.9,15.4v137.3c0,1.5-0.2,2.9-0.6,4.3c-1.8,6.3-7.6,10.9-14.5,10.9h-11.2V8l0.7-0.5l9.8-7.1h0.7 C407.1,0.3,413.9,7.1,413.9,15.4z"/><path fill="#E8503E" d="M398.7,0.3H398l-9.8,7.1L387.6,8l-88.4,64.6l-90-65.7l-8.9-6.5H198c-8.4,0-15.1,6.8-15.1,15.1v8.2v129.1 c0,1.5,0.2,2.9,0.6,4.3c1.8,6.3,7.6,10.9,14.5,10.9h11.2v-125l65.3,47.7l21.5,15.7l4,2.9l24.7-18l63-46l0.7-0.5l25.6-18.7V15.4 C413.9,7.1,407.1,0.3,398.7,0.3z"/></g><g id="Layer_2"></g></svg> 