<svg xmlns="http://www.w3.org/2000/svg" width="413.9" height="167.9"><path fill="#F99C31" d="M104 2.5C59.1-8.7 13.7 18.6 2.5 63.5c-11.2 44.9 16.1 90.3 61 101.5 44.9 11.2 90.3-16.1 101.5-61 11.1-44.9-16.2-90.3-61-101.5zm16.6 69.3c-1.2 8.2-5.7 12.1-11.7 13.5 8.2 4.3 12.4 10.9 8.4 22.3-5 14.2-16.7 15.4-32.4 12.4l-3.8 15.2-9.2-2.3 3.8-15c-2.4-.6-4.8-1.2-7.3-1.9l-3.8 15.1-9.2-2.3 3.8-15.3c-2.1-.5-4.3-1.1-6.6-1.7l-12-3 4.6-10.5s6.8 1.8 6.7 1.7c2.6.6 3.8-1.1 4.2-2.2l6-24.1c.3.1.7.2 1 .2-.4-.1-.7-.2-1-.3l4.3-17.2c.1-2-.6-4.4-4.3-5.3.1-.1-6.7-1.7-6.7-1.7l2.4-9.8 12.7 3.2c1.9.5 3.9.9 5.9 1.4l3.8-15.1 9.2 2.3-3.7 14.8c2.5.6 4.9 1.1 7.4 1.7l3.7-14.7 9.2 2.3-3.8 15.1c11.6 4.1 20.1 10.1 18.4 21.2zM83.3 57.1l-4.6 18.3c5.2 1.3 21.2 6.6 23.8-3.8 2.7-10.8-14-13.2-19.2-14.5zm-6.9 27.6l-5 20.2c6.2 1.5 25.4 7.7 28.3-3.7 2.9-11.9-17.1-14.9-23.3-16.5z"/><path fill="#EDE7DE" d="M413.9 152.7c0 8.4-6.8 15.1-15.1 15.1H198c-8.4 0-15.1-6.8-15.1-15.1V15.4C182.9 7 189.7.3 198 .3h200.7c8.4 0 15.1 6.8 15.1 15.1v137.3z"/><path fill="#BEBDB0" d="M413.9 20.1v132.6c0 8.4-6.8 15.1-15.1 15.1h-18.4L296 106.2l117.9-86.1z"/><path fill="#ACABA1" d="M219.5 167.9l194.4-142v-5.8L211.5 167.9z"/><path fill="#B32317" d="M413.9 15.4v137.3c0 1.5-.2 2.9-.6 4.3-1.8 6.3-7.6 10.9-14.5 10.9h-11.2V8l.7-.5 9.8-7.1h.7c8.3-.1 15.1 6.7 15.1 15z"/><path fill="#E8503E" d="M398.7.3h-.7l-9.8 7.1-.6.6-88.4 64.6-90-65.7-8.9-6.5H198c-8.4 0-15.1 6.8-15.1 15.1V152.8c0 1.5.2 2.9.6 4.3 1.8 6.3 7.6 10.9 14.5 10.9h11.2V43l65.3 47.7 21.5 15.7 4 2.9 24.7-18 63-46 .7-.5L414 26.1V15.4C413.9 7.1 407.1.3 398.7.3z"/></svg>