<svg xmlns="http://www.w3.org/2000/svg" width="174.2" height="65"><path fill="#F89520" d="M2.7.2H7c.8 0 1.5 0 1.9.1.4 0 .8.1 1.1.3s.6.5.8.8c.2.3.3.7.3 1.1 0 .4-.1.8-.4 1.2s-.6.6-1.1.8c.7.2 1.2.4 1.5.8s.5.9.5 1.4c0 .4-.1.8-.3 1.2-.2.4-.5.7-.9 1-.3.3-.8.4-1.4.5-.4 0-1.2.1-2.6.1H2.7V.2zm2.2 1.5v2.2h3c.4 0 .7-.1.9-.3.2-.3.3-.5.3-.8 0-.3-.1-.5-.3-.7-.2-.2-.4-.3-.8-.4H4.9zm0 3.7v2.5h2c.8 0 1.3 0 1.5-.1.3 0 .6-.1.8-.3.2-.2.3-.5.3-.8 0-.3-.1-.5-.2-.7-.2-.2-.4-.4-.7-.5s-1-.1-2-.1H4.9zM27 .2h2.2v5c0 .8 0 1.3.1 1.6.1.4.3.7.7.9.3.2.8.3 1.4.3.6 0 1.1-.1 1.4-.3.3-.2.5-.5.6-.8.1-.3.1-.8.1-1.6V.2h2.2V5c0 1.1-.1 1.9-.2 2.4s-.3.9-.6 1.2-.9.6-1.4.7c-.5.2-1.2.3-2.1.3-1 0-1.8-.1-2.3-.3-.5-.2-.9-.5-1.3-.8-.3-.3-.5-.7-.6-1-.1-.5-.2-1.3-.2-2.4V.2zM50.8 6.4l2.1-.2c.1.6.4 1.1.8 1.4s.9.4 1.6.4c.7 0 1.2-.1 1.6-.4.4-.3.5-.6.5-.9 0-.2-.1-.4-.2-.6-.2-.1-.4-.2-.8-.3-.3-.1-.8-.2-1.7-.4-1.2-.2-2-.6-2.4-.9-.7-.5-1-1.1-1-1.9 0-.5.2-.9.5-1.3.2-.4.6-.8 1.2-1s1.3-.3 2.1-.3c1.3 0 2.4.3 3 .8s1 1.2 1.1 2.1L57 3c-.1-.5-.3-.8-.6-1-.3-.2-.8-.3-1.4-.3-.6 0-1.1.1-1.5.3-.2.1-.3.3-.3.6 0 .2.1.4.3.6.3.2.9.4 2 .6s1.8.4 2.3.7c.5.2.9.5 1.2.9.3.4.4.9.4 1.5 0 .5-.2 1-.5 1.5s-.8.8-1.4 1c-.6.2-1.4.3-2.3.3-1.4 0-2.4-.3-3.1-.8-.7-.6-1.1-1.4-1.3-2.5zM74.8 9.5V.2H77v9.3h-2.2zM92.6 9.5V.2h2.1l4.4 6.2V.2h2v9.3h-2.2l-4.3-6.1v6.1h-2zM116.9 9.5V.2h8v1.6H119v2.1h5.4v1.6H119V8h6v1.6h-8.1zM139.8 6.4l2.1-.2c.1.6.4 1.1.8 1.4s.9.4 1.6.4c.7 0 1.2-.1 1.6-.4.4-.3.5-.6.5-.9 0-.2-.1-.4-.2-.6-.1-.2-.4-.3-.8-.4-.3-.1-.8-.2-1.7-.4-1.2-.2-2-.6-2.4-.9-.7-.5-1-1.1-1-1.9 0-.5.2-.9.5-1.3s.8-.7 1.3-.9 1.3-.3 2.1-.3c1.3 0 2.4.3 3 .8s1 1.2 1.1 2.1l-2.2.1c-.1-.5-.3-.8-.6-1-.3-.2-.8-.3-1.4-.3-.6 0-1.1.1-1.5.3-.2.1-.3.3-.3.6 0 .2.1.4.3.6.3.2.9.4 2 .6s1.8.4 2.3.7c.5.2.9.5 1.2.9.3.4.4.9.4 1.5 0 .5-.2 1-.5 1.5s-.8.8-1.4 1c-.6.2-1.4.3-2.3.3-1.4 0-2.4-.3-3.1-.8-.8-.6-1.2-1.4-1.4-2.5zM163.3 6.4l2.1-.2c.1.6.4 1.1.8 1.4s.9.4 1.6.4c.7 0 1.2-.1 1.6-.4.4-.3.5-.6.5-.9 0-.2-.1-.4-.2-.6-.1-.2-.4-.3-.8-.4-.3-.1-.8-.2-1.7-.4-1.2-.2-2-.6-2.4-.9-.7-.5-1-1.1-1-1.9 0-.5.2-.9.5-1.3s.8-.7 1.3-.9 1.3-.3 2.1-.3c1.3 0 2.4.3 3 .8s1 1.2 1.1 2.1l-2.2.1c-.1-.5-.3-.8-.6-1-.3-.2-.8-.3-1.4-.3-.6 0-1.1.1-1.5.3-.2.1-.3.3-.3.6 0 .2.1.4.3.6.3.2.9.4 2 .6s1.8.4 2.3.7c.5.2.9.5 1.2.9.3.4.4.9.4 1.5 0 .5-.2 1-.5 1.5s-.8.8-1.4 1c-.6.2-1.4.3-2.3.3-1.4 0-2.4-.3-3.1-.8-.8-.6-1.2-1.4-1.4-2.5zM3 64.8v-9.3h3.2l1.9 6.3 1.9-6.3h3.2v9.3h-2v-7.3l-2.1 7.3h-2L5 57.5v7.3H3zM38.2 64.8h-2.3l-.9-2.1h-4.2l-.9 2.1h-2.3l4.1-9.3H34l4.2 9.3zm-3.9-3.6l-1.5-3.5-1.4 3.5h2.9zM57.5 61.4v-1.6h4.6v3.7c-.4.4-1.1.7-1.9 1-.8.3-1.7.4-2.6.4-1.1 0-2.1-.2-2.9-.6-.8-.4-1.4-1-1.9-1.8-.4-.8-.6-1.6-.6-2.5 0-1 .2-1.8.7-2.6.5-.8 1.1-1.3 2-1.7.7-.3 1.5-.5 2.5-.5 1.3 0 2.3.2 3.1.7.7.5 1.2 1.2 1.4 2l-2.1.3c-.1-.5-.4-.8-.8-1.1-.4-.3-.9-.4-1.5-.4-.9 0-1.7.3-2.2.8-.6.5-.8 1.3-.8 2.3 0 1.1.3 1.9.8 2.5.6.6 1.3.8 2.2.8.4 0 .9-.1 1.3-.2s.8-.3 1.2-.6v-1.2h-2.5zM86.9 64.8h-2.3l-.9-2.1h-4.2l-.9 2.1h-2.3l4.1-9.3h2.3l4.2 9.3zM83 61.2l-1.5-3.5-1.4 3.5H83zM100.4 64.8v-1.7l5.5-6H101v-1.6h7.7V57l-5.8 6.3h6v1.6h-8.5zM123.5 64.8v-9.3h2.1v9.3h-2.1zM141 64.8v-9.3h2.1l4.3 6.2v-6.2h2v9.3h-2.1l-4.3-6.1v6.1h-2zM164.9 64.8v-9.3h7.8v1.6H167v2.1h5.3v1.6H167v2.5h5.9v1.6h-8z"/><path fill="none" stroke="#F89522" stroke-width="2" d="M0 13.1h174.1M0 52.8h174.1"/><path fill="#FFF" d="M18.4 37.9H8.1l-1.8 5c-.4 1.2-.7 2.1-.7 2.8 0 .5.2.9.6 1.3s1.2.6 2.5.7v.9H.3v-.9c1.1-.2 1.8-.5 2.2-.9.7-.7 1.4-2.3 2.2-4.5l9.4-26h.7l9.3 26.3c.7 2.1 1.4 3.5 2 4.1s1.5 1 2.5 1.1v.9H18.1v-.9c1.1-.1 1.8-.3 2.2-.6s.6-.8.6-1.3c0-.7-.3-1.8-.8-3.2l-1.7-4.8zm-.5-1.7l-4.5-12.8-4.7 12.8h9.2zM53.4 16.2l.6 10.7h-.6c-.8-3.2-2-5.5-3.5-6.9s-3.3-2.1-5.4-2.1c-1.8 0-3.4.5-4.8 1.6s-2.6 2.8-3.4 5.1c-.8 2.3-1.2 5.2-1.2 8.7 0 2.9.4 5.3 1.2 7.4.8 2.1 1.9 3.7 3.5 4.8 1.6 1.1 3.3 1.7 5.3 1.7 1.7 0 3.3-.4 4.6-1.3 1.3-.9 2.8-2.6 4.4-5.2l.6.5c-1.3 2.8-2.9 4.9-4.7 6.2-1.8 1.3-3.9 2-6.4 2-4.4 0-7.8-1.9-10.3-5.8-1.8-2.9-2.7-6.3-2.7-10.2 0-3.2.6-6.1 1.8-8.7s2.8-4.7 4.9-6.1c2.1-1.5 4.4-2.2 6.9-2.2 1.9 0 3.8.6 5.7 1.7.6.3.9.5 1.2.5.4 0 .7-.1.9-.4.3-.4.6-1 .7-1.7h.7zM75.3 17.8v-.9h9.5v.9h-1c-1.1 0-1.9.5-2.4 1.6-.3.5-.4 1.6-.4 3.4v12.8c0 3.2-.3 5.6-.8 7.4s-1.6 3.2-3.1 4.5c-1.6 1.3-3.7 1.9-6.4 1.9-2.9 0-5.1-.6-6.6-1.8s-2.6-2.8-3.2-4.8c-.4-1.4-.6-4-.6-7.8V22.5c0-1.9-.2-3.2-.7-3.8-.5-.6-1.2-.9-2.2-.9h-1v-.9h11.5v.9h-1c-1.1 0-1.9.4-2.4 1.2-.3.6-.5 1.7-.5 3.5v13.8c0 1.2.1 2.6.3 4.2.2 1.6.5 2.8 1 3.7.5.9 1.2 1.6 2.2 2.2.9.6 2.1.9 3.5.9 1.7 0 3.3-.5 4.7-1.4s2.3-2.1 2.8-3.5.8-3.8.8-7.1V22.5c0-2-.2-3.2-.6-3.7-.5-.7-1.3-1-2.3-1h-1.1zM101.6 48.5L91.3 21.9V43c0 1.9.2 3.2.5 3.6.5.7 1.3 1 2.3 1h.9v.9h-9.3v-.9h.9c1.1 0 1.9-.4 2.4-1.2.3-.5.4-1.6.4-3.4V22.4c0-1.4-.1-2.4-.4-3-.2-.5-.5-.8-1-1.1-.5-.3-1.3-.5-2.4-.5v-.9h7.6l9.7 24.7 9.5-24.7h7.6v.9h-.9c-1.1 0-1.9.4-2.4 1.2-.3.5-.4 1.6-.4 3.4V43c0 1.9.2 3.2.6 3.6.5.7 1.3 1 2.3 1h.9v.9h-11.3v-.9h.9c1.1 0 1.9-.4 2.4-1.2.3-.5.4-1.6.4-3.4V21.9l-10.3 26.6h-.6zM129.4 18.6v12.5h5.9c1.5 0 2.5-.3 3.1-.8.7-.7 1.1-2 1.1-3.8h.7v11h-.7c-.2-1.5-.4-2.5-.6-3-.2-.5-.6-1-1.2-1.3-.5-.3-1.4-.5-2.5-.5h-5.9v10.4c0 1.4.1 2.2.2 2.6.1.3.3.5.6.7.3.2.8.3 1.5.3h4.5c1.5 0 2.6-.1 3.3-.4.7-.2 1.3-.7 2-1.5.8-1 1.6-2.4 2.5-4.4h.8l-2.3 7.9h-20.6v-.9h.9c.6 0 1.2-.2 1.8-.5.4-.2.7-.6.9-1.1.2-.5.2-1.5.2-3.1V22.4c0-2-.2-3.2-.5-3.7-.5-.6-1.3-.9-2.4-.9h-.9v-.9h20.6l.3 6.9h-.8c-.3-1.7-.6-2.8-.9-3.4-.3-.6-.8-1.1-1.5-1.4-.5-.2-1.5-.3-2.8-.3h-7.3zM145.1 16.9h7.2l16.3 23.7V22.4c0-1.9-.2-3.2-.6-3.6-.5-.7-1.3-1-2.3-1h-.9v-.9h9.3v.9h-.9c-1.1 0-1.9.4-2.4 1.2-.3.5-.4 1.6-.4 3.4V49h-.7l-17.6-25.5V43c0 1.9.2 3.2.5 3.6.5.7 1.3 1 2.3 1h.9v.9h-9.3v-.9h.9c1.1 0 1.9-.4 2.4-1.2.3-.5.4-1.6.4-3.4V21c-.8-1.1-1.4-1.8-1.8-2.1-.4-.3-1-.7-1.8-1-.4-.1-1-.2-1.7-.2v-.8z"/></svg>