<svg xmlns="http://www.w3.org/2000/svg" xmlns:xlink="http://www.w3.org/1999/xlink" x="0px" y="0px" width="174.2px" height="65px" viewBox="0 0 174.2 65" xml:space="preserve"><path fill="#F89520" d="M2.7,0.2H7c0.8,0,1.5,0,1.9,0.1C9.3,0.3,9.7,0.4,10,0.6s0.6,0.5,0.8,0.8c0.2,0.3,0.3,0.7,0.3,1.1 c0,0.4-0.1,0.8-0.4,1.2s-0.6,0.6-1.1,0.8c0.7,0.2,1.2,0.4,1.5,0.8s0.5,0.9,0.5,1.4c0,0.4-0.1,0.8-0.3,1.2c-0.2,0.4-0.5,0.7-0.9,1 C10.1,9.2,9.6,9.3,9,9.4c-0.4,0-1.2,0.1-2.6,0.1H2.7V0.2z M4.9,1.7v2.2h1.4c0.8,0,1.4,0,1.6,0c0.4,0,0.7-0.1,0.9-0.3 C9,3.3,9.1,3.1,9.1,2.8c0-0.3-0.1-0.5-0.3-0.7C8.6,1.9,8.4,1.8,8,1.7c-0.2,0-0.8,0-1.9,0H4.9z M4.9,5.4v2.5h2c0.8,0,1.3,0,1.5-0.1 C8.7,7.8,9,7.7,9.2,7.5C9.4,7.3,9.5,7,9.5,6.7c0-0.3-0.1-0.5-0.2-0.7C9.1,5.8,8.9,5.6,8.6,5.5S7.6,5.4,6.6,5.4H4.9z"/><path fill="#F89520" d="M27,0.2h2.2v5c0,0.8,0,1.3,0.1,1.6c0.1,0.4,0.3,0.7,0.7,0.9C30.3,7.9,30.8,8,31.4,8c0.6,0,1.1-0.1,1.4-0.3 c0.3-0.2,0.5-0.5,0.6-0.8c0.1-0.3,0.1-0.8,0.1-1.6V0.2h2.2V5c0,1.1-0.1,1.9-0.2,2.4s-0.3,0.9-0.6,1.2S34,9.2,33.5,9.3 c-0.5,0.2-1.2,0.3-2.1,0.3c-1,0-1.8-0.1-2.3-0.3c-0.5-0.2-0.9-0.5-1.3-0.8c-0.3-0.3-0.5-0.7-0.6-1C27.1,7,27,6.2,27,5.1V0.2z"/><path fill="#F89520" d="M50.8,6.4l2.1-0.2c0.1,0.6,0.4,1.1,0.8,1.4S54.6,8,55.3,8c0.7,0,1.2-0.1,1.6-0.4c0.4-0.3,0.5-0.6,0.5-0.9 c0-0.2-0.1-0.4-0.2-0.6C57,6,56.8,5.9,56.4,5.8c-0.3-0.1-0.8-0.2-1.7-0.4c-1.2-0.2-2-0.6-2.4-0.9c-0.7-0.5-1-1.1-1-1.9 c0-0.5,0.2-0.9,0.5-1.3C52,0.9,52.4,0.5,53,0.3S54.3,0,55.1,0c1.3,0,2.4,0.3,3,0.8s1,1.2,1.1,2.1l-2.2,0.1c-0.1-0.5-0.3-0.8-0.6-1 c-0.3-0.2-0.8-0.3-1.4-0.3c-0.6,0-1.1,0.1-1.5,0.3c-0.2,0.1-0.3,0.3-0.3,0.6c0,0.2,0.1,0.4,0.3,0.6c0.3,0.2,0.9,0.4,2,0.6 s1.8,0.4,2.3,0.7c0.5,0.2,0.9,0.5,1.2,0.9c0.3,0.4,0.4,0.9,0.4,1.5c0,0.5-0.2,1-0.5,1.5s-0.8,0.8-1.4,1c-0.6,0.2-1.4,0.3-2.3,0.3 c-1.4,0-2.4-0.3-3.1-0.8C51.4,8.3,51,7.5,50.8,6.4z"/><path fill="#F89520" d="M74.8,9.5V0.2H77v9.3H74.8z"/><path fill="#F89520" d="M92.6,9.5V0.2h2.1l4.4,6.2V0.2h2v9.3h-2.2l-4.3-6.1v6.1H92.6z"/><path fill="#F89520" d="M116.9,9.5V0.2h8v1.6H119v2.1h5.4v1.6H119v2.5h6v1.6H116.9z"/><path fill="#F89520" d="M139.8,6.4l2.1-0.2c0.1,0.6,0.4,1.1,0.8,1.4s0.9,0.4,1.6,0.4c0.7,0,1.2-0.1,1.6-0.4c0.4-0.3,0.5-0.6,0.5-0.9 c0-0.2-0.1-0.4-0.2-0.6c-0.1-0.2-0.4-0.3-0.8-0.4c-0.3-0.1-0.8-0.2-1.7-0.4c-1.2-0.2-2-0.6-2.4-0.9c-0.7-0.5-1-1.1-1-1.9 c0-0.5,0.2-0.9,0.5-1.3c0.3-0.4,0.8-0.7,1.3-0.9s1.3-0.3,2.1-0.3c1.3,0,2.4,0.3,3,0.8s1,1.2,1.1,2.1l-2.2,0.1 c-0.1-0.5-0.3-0.8-0.6-1c-0.3-0.2-0.8-0.3-1.4-0.3c-0.6,0-1.1,0.1-1.5,0.3c-0.2,0.1-0.3,0.3-0.3,0.6c0,0.2,0.1,0.4,0.3,0.6 c0.3,0.2,0.9,0.4,2,0.6s1.8,0.4,2.3,0.7c0.5,0.2,0.9,0.5,1.2,0.9c0.3,0.4,0.4,0.9,0.4,1.5c0,0.5-0.2,1-0.5,1.5s-0.8,0.8-1.4,1 c-0.6,0.2-1.4,0.3-2.3,0.3c-1.4,0-2.4-0.3-3.1-0.8C140.4,8.3,140,7.5,139.8,6.4z"/><path fill="#F89520" d="M163.3,6.4l2.1-0.2c0.1,0.6,0.4,1.1,0.8,1.4s0.9,0.4,1.6,0.4c0.7,0,1.2-0.1,1.6-0.4c0.4-0.3,0.5-0.6,0.5-0.9 c0-0.2-0.1-0.4-0.2-0.6c-0.1-0.2-0.4-0.3-0.8-0.4c-0.3-0.1-0.8-0.2-1.7-0.4c-1.2-0.2-2-0.6-2.4-0.9c-0.7-0.5-1-1.1-1-1.9 c0-0.5,0.2-0.9,0.5-1.3c0.3-0.4,0.8-0.7,1.3-0.9s1.3-0.3,2.1-0.3c1.3,0,2.4,0.3,3,0.8s1,1.2,1.1,2.1l-2.2,0.1 c-0.1-0.5-0.3-0.8-0.6-1c-0.3-0.2-0.8-0.3-1.4-0.3c-0.6,0-1.1,0.1-1.5,0.3c-0.2,0.1-0.3,0.3-0.3,0.6c0,0.2,0.1,0.4,0.3,0.6 c0.3,0.2,0.9,0.4,2,0.6s1.8,0.4,2.3,0.7c0.5,0.2,0.9,0.5,1.2,0.9c0.3,0.4,0.4,0.9,0.4,1.5c0,0.5-0.2,1-0.5,1.5s-0.8,0.8-1.4,1 c-0.6,0.2-1.4,0.3-2.3,0.3c-1.4,0-2.4-0.3-3.1-0.8C163.9,8.3,163.5,7.5,163.3,6.4z"/><path fill="#F89520" d="M3,64.8v-9.3h3.2l1.9,6.3l1.9-6.3h3.2v9.3h-2v-7.3l-2.1,7.3H7.1L5,57.5v7.3H3z"/><path fill="#F89520" d="M38.2,64.8h-2.3l-0.9-2.1h-4.2l-0.9,2.1h-2.3l4.1-9.3h2.3L38.2,64.8z M34.3,61.2l-1.5-3.5l-1.4,3.5H34.3z"/><path fill="#F89520" d="M57.5,61.4v-1.6h4.6v3.7c-0.4,0.4-1.1,0.7-1.9,1c-0.8,0.3-1.7,0.4-2.6,0.4c-1.1,0-2.1-0.2-2.9-0.6 c-0.8-0.4-1.4-1-1.9-1.8c-0.4-0.8-0.6-1.6-0.6-2.5c0-1,0.2-1.8,0.7-2.6c0.5-0.8,1.1-1.3,2-1.7c0.7-0.3,1.5-0.5,2.5-0.5 c1.3,0,2.3,0.2,3.1,0.7c0.7,0.5,1.2,1.2,1.4,2l-2.1,0.3c-0.1-0.5-0.4-0.8-0.8-1.1c-0.4-0.3-0.9-0.4-1.5-0.4c-0.9,0-1.7,0.3-2.2,0.8 c-0.6,0.5-0.8,1.3-0.8,2.3c0,1.1,0.3,1.9,0.8,2.5c0.6,0.6,1.3,0.8,2.2,0.8c0.4,0,0.9-0.1,1.3-0.2s0.8-0.3,1.2-0.6v-1.2H57.5z"/><path fill="#F89520" d="M86.9,64.8h-2.3l-0.9-2.1h-4.2l-0.9,2.1h-2.3l4.1-9.3h2.3L86.9,64.8z M83,61.2l-1.5-3.5l-1.4,3.5H83z"/><path fill="#F89520" d="M100.4,64.8v-1.7l5.5-6H101v-1.6h7.7V57l-5.8,6.3h6v1.6H100.4z"/><path fill="#F89520" d="M123.5,64.8v-9.3h2.1v9.3H123.5z"/><path fill="#F89520" d="M141,64.8v-9.3h2.1l4.3,6.2v-6.2h2v9.3h-2.1l-4.3-6.1v6.1H141z"/><path fill="#F89520" d="M164.9,64.8v-9.3h7.8v1.6h-5.7v2.1h5.3v1.6h-5.3v2.5h5.9v1.6H164.9z"/><line fill="none" stroke="#F89522" stroke-width="2" x1="0" y1="13.1" x2="174.1" y2="13.1"/><line fill="none" stroke="#F89522" stroke-width="2" x1="0" y1="52.8" x2="174.1" y2="52.8"/><path fill="#FFFFFF" d="M18.4,37.9H8.1l-1.8,5c-0.4,1.2-0.7,2.1-0.7,2.8c0,0.5,0.2,0.9,0.6,1.3s1.2,0.6,2.5,0.7v0.9H0.3v-0.9 c1.1-0.2,1.8-0.5,2.2-0.9c0.7-0.7,1.4-2.3,2.2-4.5l9.4-26h0.7l9.3,26.3c0.7,2.1,1.4,3.5,2,4.1s1.5,1,2.5,1.1v0.9H18.1v-0.9 c1.1-0.1,1.8-0.3,2.2-0.6s0.6-0.8,0.6-1.3c0-0.7-0.3-1.8-0.8-3.2L18.4,37.9z M17.9,36.2l-4.5-12.8L8.7,36.2H17.9z"/><path fill="#FFFFFF" d="M53.4,16.2L54,26.9h-0.6c-0.8-3.2-2-5.5-3.5-6.9s-3.3-2.1-5.4-2.1c-1.8,0-3.4,0.5-4.8,1.6s-2.6,2.8-3.4,5.1 c-0.8,2.3-1.2,5.2-1.2,8.7c0,2.9,0.4,5.3,1.2,7.4c0.8,2.1,1.9,3.7,3.5,4.8c1.6,1.1,3.3,1.7,5.3,1.7c1.7,0,3.3-0.4,4.6-1.3 c1.3-0.9,2.8-2.6,4.4-5.2l0.6,0.5c-1.3,2.8-2.9,4.9-4.7,6.2c-1.8,1.3-3.9,2-6.4,2c-4.4,0-7.8-1.9-10.3-5.8 c-1.8-2.9-2.7-6.3-2.7-10.2c0-3.2,0.6-6.1,1.8-8.7s2.8-4.7,4.9-6.1c2.1-1.5,4.4-2.2,6.9-2.2c1.9,0,3.8,0.6,5.7,1.7 c0.6,0.3,0.9,0.5,1.2,0.5c0.4,0,0.7-0.1,0.9-0.4c0.3-0.4,0.6-1,0.7-1.7H53.4z"/><path fill="#FFFFFF" d="M75.3,17.8v-0.9h9.5v0.9h-1c-1.1,0-1.9,0.5-2.4,1.6c-0.3,0.5-0.4,1.6-0.4,3.4v12.8c0,3.2-0.3,5.6-0.8,7.4 s-1.6,3.2-3.1,4.5c-1.6,1.3-3.7,1.9-6.4,1.9c-2.9,0-5.1-0.6-6.6-1.8s-2.6-2.8-3.2-4.8c-0.4-1.4-0.6-4-0.6-7.8V22.5 c0-1.9-0.2-3.2-0.7-3.8c-0.5-0.6-1.2-0.9-2.2-0.9h-1v-0.9h11.5v0.9h-1c-1.1,0-1.9,0.4-2.4,1.2c-0.3,0.6-0.5,1.7-0.5,3.5v13.8 c0,1.2,0.1,2.6,0.3,4.2c0.2,1.6,0.5,2.8,1,3.7c0.5,0.9,1.2,1.6,2.2,2.2c0.9,0.6,2.1,0.9,3.5,0.9c1.7,0,3.3-0.5,4.7-1.4 s2.3-2.1,2.8-3.5s0.8-3.8,0.8-7.1V22.5c0-2-0.2-3.2-0.6-3.7c-0.5-0.7-1.3-1-2.3-1H75.3z"/><path fill="#FFFFFF" d="M101.6,48.5L91.3,21.9V43c0,1.9,0.2,3.2,0.5,3.6c0.5,0.7,1.3,1,2.3,1h0.9v0.9h-9.3v-0.9h0.9 c1.1,0,1.9-0.4,2.4-1.2c0.3-0.5,0.4-1.6,0.4-3.4V22.4c0-1.4-0.1-2.4-0.4-3c-0.2-0.5-0.5-0.8-1-1.1c-0.5-0.3-1.3-0.5-2.4-0.5v-0.9 h7.6l9.7,24.7l9.5-24.7h7.6v0.9h-0.9c-1.1,0-1.9,0.4-2.4,1.2c-0.3,0.5-0.4,1.6-0.4,3.4V43c0,1.9,0.2,3.2,0.6,3.6 c0.5,0.7,1.3,1,2.3,1h0.9v0.9h-11.3v-0.9h0.9c1.1,0,1.9-0.4,2.4-1.2c0.3-0.5,0.4-1.6,0.4-3.4V21.9l-10.3,26.6H101.6z"/><path fill="#FFFFFF" d="M129.4,18.6v12.5h5.9c1.5,0,2.5-0.3,3.1-0.8c0.7-0.7,1.1-2,1.1-3.8h0.7v11h-0.7c-0.2-1.5-0.4-2.5-0.6-3 c-0.2-0.5-0.6-1-1.2-1.3c-0.5-0.3-1.4-0.5-2.5-0.5h-5.9v10.4c0,1.4,0.1,2.2,0.2,2.6c0.1,0.3,0.3,0.5,0.6,0.7 c0.3,0.2,0.8,0.3,1.5,0.3h4.5c1.5,0,2.6-0.1,3.3-0.4c0.7-0.2,1.3-0.7,2-1.5c0.8-1,1.6-2.4,2.5-4.4h0.8l-2.3,7.9h-20.6v-0.9h0.9 c0.6,0,1.2-0.2,1.8-0.5c0.4-0.2,0.7-0.6,0.9-1.1c0.2-0.5,0.2-1.5,0.2-3.1V22.4c0-2-0.2-3.2-0.5-3.7c-0.5-0.6-1.3-0.9-2.4-0.9h-0.9 v-0.9h20.6l0.3,6.9h-0.8c-0.3-1.7-0.6-2.8-0.9-3.4c-0.3-0.6-0.8-1.1-1.5-1.4c-0.5-0.2-1.5-0.3-2.8-0.3H129.4z"/><path fill="#FFFFFF" d="M145.1,16.9h7.2l16.3,23.7V22.4c0-1.9-0.2-3.2-0.6-3.6c-0.5-0.7-1.3-1-2.3-1h-0.9v-0.9h9.3v0.9h-0.9 c-1.1,0-1.9,0.4-2.4,1.2c-0.3,0.5-0.4,1.6-0.4,3.4V49h-0.7l-17.6-25.5V43c0,1.9,0.2,3.2,0.5,3.6c0.5,0.7,1.3,1,2.3,1h0.9v0.9h-9.3 v-0.9h0.9c1.1,0,1.9-0.4,2.4-1.2c0.3-0.5,0.4-1.6,0.4-3.4V21c-0.8-1.1-1.4-1.8-1.8-2.1c-0.4-0.3-1-0.7-1.8-1c-0.4-0.1-1-0.2-1.7-0.2 V16.9z"/></svg> 