<svg xmlns="http://www.w3.org/2000/svg" xmlns:xlink="http://www.w3.org/1999/xlink" x="0px" y="0px" width="222.807px" height="121.47px" viewBox="0 0 222.807 121.47" xml:space="preserve"><path fill="#115C30" d="M98.247,0h0.57c1.51,1.71,0.52,3.99,0.51,6.01c-0.18,5.41,1.35,10.69,1.58,16.08 c0.19,4.55-1.03,9.1-0.32,13.64c-0.32,3.22-0.63,6.45-1.17,9.65c0.19,0.95,0.37,1.91,0.53,2.87c-1.2,4.87-3.91,9.34-4.17,14.49 c1.66-2.43,3.39-4.82,5.31-7.05c-1.48,2.87-3.08,5.7-4.37,8.67c5.08-2.82,7.56-8.32,11.32-12.48c3.54-3.91,5.86-8.67,8.76-13.02 c3.37-4.94,4.71-10.96,8.391-15.72c-4.44,3.64-9.561,6.39-13.75,10.34c-4.55,4.17-8.02,9.31-11.45,14.39 c1.1-8.78,9.36-13.99,15.29-19.65c3.899-1.89,7.13-4.82,10.729-7.2c0.53,0.28,1.61,0.84,2.15,1.12c-2.45,2.68-4.7,5.64-5.9,9.11 c-1.45,4.25-3.95,8-6.26,11.81c-3.38,6.39-8.73,11.38-12.41,17.57c4.1-1.25,7.76-3.9,12.141-4.18c7.14-1.69,14.529-0.71,21.55,1.03 c-4.5,2.46-9.23,4.49-13.761,6.91c-1.989,1.24-4.029,2.4-6.039,3.61c-0.471,0.05-1.4,0.16-1.87,0.22 c-2.021,0.73-4.07,1.41-6.11,2.08c-0.88,0.29-2.65,0.87-3.53,1.16c0.55,0.29,1.66,0.85,2.21,1.14c-3.25,1.261-6.69,0.551-10,0.04 c3.68,2.601,8.27,3.11,12.29,4.98c0.03-0.65,0.1-1.96,0.13-2.61c0.26,1.851,0.5,3.69,0.73,5.54c-2.17,0.08-4.35,0.2-6.52,0.09 l-0.36-0.279c1.35-0.44,2.66-0.99,3.98-1.5c-4.18-1.73-8.43-3.28-12.62-4.96c0.39,1.029,0.78,2.05,1.17,3.08 c0.37-0.19,1.11-0.561,1.48-0.75c1.4,1.27,2.8,2.55,4.17,3.85c-0.26,0.45-0.77,1.36-1.03,1.82c-0.36-0.23-1.08-0.7-1.44-0.931 c-0.05,0.67-0.14,2.021-0.19,2.69c-1.13-0.8-2.25-1.59-3.38-2.38c0.38-0.311,1.14-0.94,1.53-1.25l0.23-0.2 c-0.06-0.07-0.18-0.22-0.24-0.29c-0.82-0.85-1.63-2.21-2.96-2.17c-0.27,1.26,0.46,2.45,0.94,3.57c-1.61-1.181-2.86-2.761-3.86-4.471 c-0.27-0.689-0.81-2.069-1.08-2.76c-0.42,0.83-1.26,2.49-1.68,3.31c-0.979-1.779-1.52-4.05,1.06-4.489 c2.43-0.601,4.94-0.09,7.39,0.12c-0.25-0.94-0.49-1.881-0.73-2.811c0.93,0.33,1.86,0.66,2.8,0.99c6.46-1.68,13.34-2.37,19.18-5.85 c2.88-1.711,6.23-2.661,8.7-5.01c-5.24,0.64-10.271,2.3-15.37,3.53c-3.48,0.77-6.59,2.91-10.18,3.13c1.25-0.89,2.59-1.66,4.06-2.13 c7.521-2.55,15.26-4.48,23.13-5.59c-0.97-0.94-1.979-2.02-3.479-1.85c-10.74-0.45-21.78,3.41-29.49,10.99 c1.37-0.31,2.77-0.399,4.15-0.66c-2.43,1.561-5.15,2.57-7.84,3.58c0.13-1.609,0.26-3.22,0.39-4.83c-0.73,1.33-1.45,2.67-2.18,4 c-0.22-0.22-0.67-0.68-0.89-0.899c0.02-0.82,0.04-1.63,0.06-2.44c2.68-8.14,1.16-16.89,3.53-25.08c-0.54,7.45-1.22,14.89-1.55,22.36 c-0.12,1.34,0.42,1.86,1.63,1.56c0.53-1.029,0.32-1.92-0.64-2.7c3.56-9.17,5.59-19.03,5.64-28.89c0.02-4.55,1.06-9.08,0.5-13.63 c-0.63-5.17-1.35-10.34-1.7-15.54c-4.53,11.36-8.16,23.25-8.91,35.51c0.48,3.79,0.28,7.61-0.86,11.29c-1.5-1.6-0.92-3.65-0.39-5.49 c-0.73-5.96,0.36-11.85,1.12-17.74C90.117,18.46,94.667,9.34,98.247,0L98.247,0z"/><path fill="#45B549" d="M97.637,4.88c0.35,5.2,1.07,10.37,1.7,15.54c0.56,4.55-0.48,9.08-0.5,13.63 c-0.05,9.86-2.08,19.72-5.64,28.89c-0.25,0.291-0.74,0.86-0.99,1.14c0.33-7.47,1.01-14.91,1.55-22.36 c-2.37,8.19-0.85,16.94-3.53,25.08c-0.91-4.96-0.68-10.16-2.31-14.98l-0.05-0.14c1.14-3.68,1.34-7.5,0.86-11.29 C89.477,28.13,93.107,16.24,97.637,4.88L97.637,4.88z"/><path fill="#45B549" d="M65.627,15.67c3.28,7.43,10.37,12.29,12.97,20.06c5.09,8.94,8.61,18.78,9.87,29.01 c-1.86-2.03-3.25-4.41-4.58-6.81c1.53,4.06,4.2,7.53,6.28,11.31c0.22,0.22,0.67,0.68,0.89,0.899c0.73-1.33,1.45-2.67,2.18-4 c-0.13,1.61-0.26,3.221-0.39,4.83c2.69-1.01,5.41-2.02,7.84-3.58c-1.38,0.261-2.78,0.351-4.15,0.66 c7.71-7.58,18.75-11.44,29.49-10.99c1.5-0.17,2.51,0.91,3.479,1.85c-7.87,1.11-15.609,3.04-23.13,5.59 c-1.47,0.47-2.81,1.24-4.06,2.13c3.59-0.22,6.7-2.36,10.18-3.13c5.1-1.23,10.13-2.89,15.37-3.53c-2.47,2.35-5.82,3.299-8.7,5.01 c-5.84,3.479-12.72,4.17-19.18,5.85c-0.94-0.33-1.87-0.66-2.8-0.99c0.24,0.93,0.48,1.87,0.73,2.811c-2.45-0.21-4.96-0.721-7.39-0.12 c-2.58,0.439-2.04,2.71-1.06,4.489c-0.02,0.04-0.05,0.101-0.07,0.131c-1.4,1.229-2.85,2.399-4.33,3.529 c0.25-1.35,0.51-2.699,0.79-4.05c-1.13,1.311-2.09,2.811-3.56,3.76c-3.14,2.15-7.04,0.33-10.48,0.2c-0.53-0.83-1.03-1.68-1.49-2.55 c2.92-4.55,9.47-2.79,13.63-5.56c-4.89,0.739-9.63,2.22-14.5,3.029c-1.48,0.851-2.98,1.66-4.47,2.471 c1.81-0.551,3.62-1.091,5.43-1.601c-0.2,0.51-0.61,1.55-0.82,2.07c-2.1,0.89-4.1,1.99-5.94,3.35c-0.86,0.19-2.57,0.58-3.43,0.78 l0.1-1.93c1.07-0.04,3.21-0.131,4.28-0.17c-1.41-0.28-2.82-0.551-4.24-0.811c3.84-3.33,7.49-7.21,12.32-9.08 c4.14-1.04,8.45-0.13,12.66-0.18c-5.33-1.8-11.21-2.8-15.47-6.78c-0.27,0-0.81-0.01-1.08-0.01c-1.29-0.83-2.58-1.67-3.86-2.54 c-2.26-2.65-5.2-4.61-7.51-7.22c0.26-0.4,0.78-1.19,1.04-1.58c-2.55,0.33-4.67-1.11-6.39-2.87c3.23,0.27,6.48,0.48,9.69,0.94 c7,1.4,13.14,5.25,18.59,9.71c-1.26-1.9-2.58-3.77-3.96-5.59c-0.18-0.51-0.54-1.54-0.72-2.06c-5.41-6.04-7.4-14.1-9.34-21.75 C65.187,25.75,65.677,20.67,65.627,15.67L65.627,15.67z"/><path fill="#45B549" d="M111.437,33.48c4.19-3.95,9.31-6.7,13.75-10.34c-3.681,4.76-5.021,10.78-8.391,15.72 c-2.899,4.35-5.22,9.11-8.76,13.02c-3.76,4.16-6.24,9.66-11.32,12.48c1.29-2.97,2.89-5.8,4.37-8.67c-1.92,2.23-3.65,4.62-5.31,7.05 c0.26-5.15,2.97-9.62,4.17-14.49l0.04-0.38C103.417,42.79,106.887,37.65,111.437,33.48L111.437,33.48z"/><path fill="#115C30" d="M105.247,48.19c1.59,0.04,0.84,2.48-0.37,2.57C103.317,50.72,104.047,48.29,105.247,48.19L105.247,48.19z"/><path d="M74.947,62.09c3.55,1.67,6.87,3.811,10.12,6.01C81.377,66.69,78.187,64.28,74.947,62.09L74.947,62.09z"/><path fill="#115C30" d="M3.427,78.38c5.16-8.87,16.76-13.75,26.61-10.5c5.41,1.521,9.78,6.32,15.76,5.5 c3.38,2.561,6.4,5.51,8.94,8.89c4.14,3.381,9.54,1.11,13.67-1.029c0.98,1.85,3.06,0.819,4.66,0.95c2.49-0.24,4.54,1.76,7,1.76 c2.57-0.2,4.84-1.54,7.17-2.51c2.43,0.569,4.93,0.67,7.4,0.979c1.99,0.311,3.15,2.16,4.54,3.42c3.91-3.479,9.19-4.5,14.24-3.39 c-0.35-2.29-0.7-4.58-1.05-6.87c4.89-0.53,9.67-1.71,14.229-3.58c-0.13,3.54-0.149,7.08,0.11,10.62c2.62-0.311,5.271-0.24,7.87,0.18 c0.53-3.3,0.34-7.67,3.84-9.42c2.89-0.899,7.2-0.439,8.061,3.04c0.279,2.49,0.159,4.99,0.199,7.49c4.58-2.601,9.92-1.43,14.91-1.47 c1.71,2.329,2.97,4.939,4.41,7.439c-0.57,0.91-1.05,1.87-1.62,2.78c1.12,1.47,2.22,2.95,3.33,4.439c1.98-3.34,3.92-7.409,8.03-8.479 c3.06-1.12,6.13,0.31,8.62,2.04c1.54-0.84,3.02-1.9,4.75-2.32c2.75-0.53,5.26,1.061,7.939,1.32c2.55,0.1,4.84-1.21,7.11-2.18 c3.22,0.8,6.55,1.63,9.88,0.88c2.4-0.591,5.62,0.43,6.49,2.899c0.739,5.431-0.95,11.391,2.279,16.271 c-2.89,1.149-5.6,2.939-8.72,3.38c-9.689,0.3-19.399,0.3-29.09,0.52c-1.8,0.07-3.48-0.67-5.15-1.21 c-3.489,1.721-7.34,1.761-10.93,0.3c-2.74,0.91-5.54,1.641-8.06-0.329c-4.45,1.59-9.181,1.02-13.78,1.54 c-6.29-1.4-12.83-0.891-19.08,0.409c-6.64-0.649-13.32-0.899-19.99-0.34c-14-0.52-28.03-0.17-42.05-0.29 c-4.26,0.01-8.61-0.18-12.76,0.931c-2.34,1.51-3.9,4.01-6.37,5.399c-4.36,2.63-9.66,4.48-14.77,3.23 c-5.95-1.351-11.79-3.271-17.45-5.561c-5.68-2.279-10.61-6.79-12.61-12.67C-1.153,94.97-0.503,85.85,3.427,78.38L3.427,78.38z"/><path fill="#45B549" d="M10.457,72.57c6-4.46,14.52-5.88,21.37-2.561c4.16,2.01,8.13,4.49,12.7,5.5c1.07,3.12,0.37,6.54,0.22,9.76 c4.22-2.06,11.11-3.51,13.66,1.681c1.25,3.88,1.46,8.02,2.23,12.01c-0.62-4.51,0.48-9.29-1.37-13.58c2.64-0.34,5.25-0.88,7.78-1.74 c0.34,0.23,1.02,0.67,1.36,0.9c3.04-1.24,7.87-2.01,9.63,1.54c2.48,5.82-0.02,12.35,1.56,18.35c0.11-6.22,1.14-12.71-0.82-18.739 c4.24-1.87,8.79-1.091,13.16-2.2c2.43-0.221,5.39,0.83,5.88,3.52c0.48,3.44,0.12,6.931,0.4,10.391c0.71-1.261,1.39-2.54,2.09-3.801 c2.27-1.46,4.72-2.609,7.29-3.47c-0.01-0.479-0.03-1.43-0.03-1.91c-2.18,0.29-4.32,0.721-6.42,1.351c-0.51,0.1-1.53,0.31-2.04,0.42 c1.42-6.311,9.99-8.59,14.84-4.931c3.49,4.171,2.56,10.2,3.53,15.24c0.699-4.41,0.09-8.87,0.25-13.29 c0.109-3.64,0.189-7.34-0.98-10.83c2.81-0.25,5.58-0.819,8.27-1.66c-0.01,3.48,0,6.961-0.02,10.44c2.53-1.11,5.31-1.1,8.03-1.08 c1.96,1.83,3.63,3.93,5.04,6.2c-0.45-1.62-0.9-3.24-1.34-4.86c2.819-0.21,5.609-0.75,8.27-1.75c0.31,5.83,0.06,11.66,0.03,17.49 c2.02-0.04,4.06-0.2,6.08,0.021c0.42,0.21,1.26,0.63,1.68,0.84c1.93,2.22,4.68,3.34,7.5,2c-0.33-1.21,0.17-3.15-1.31-3.71 c-3.82-2.08-8.62-2.17-11.961-5.12c-2.979-3.681-1.13-10.41,3.78-11.32c3.391-0.38,6.8,0.3,10.2,0.25c1.15,1.79,2.12,3.7,2.95,5.66 c-4.931,0.9-8.23-3.84-12.99-3.57c0.22,1.28-0.07,2.971,1.44,3.561c3.619,2.04,8.189,1.88,11.51,4.5c2.05,1.59,2.06,4.31,2.25,6.66 c1.58,0.18,3.16,0.43,4.71,0.84c-1.05-4.23,0.16-9.33,4.3-11.42c2.94-0.53,7.57-0.891,8.38,2.949c0.92,2.591-1.99,4.83-4.34,3.67 c-2.17-0.729-1.07-3.56-1.61-5.229c-2.029,0.58-1.58,2.92-1.689,4.56c-0.15,3.08,1.55,7.261,5.29,6.73l1.02,0.14 c0.37,0.04,1.13,0.13,1.511,0.17c-0.471-3.88-1.181-8.51,1.97-11.51c1.97-2.54,5.479-1.45,8.229-1.729 c1.61,1.35,3.04,2.909,3.75,4.92c-0.09-1.24-0.18-2.48-0.25-3.721c4.431-0.75,9.33-2.72,13.63-0.5c2.511-0.85,6.04-2.06,7.98,0.49 c1.05,5.12-0.271,10.46,1.16,15.561c-2.17-0.08-4.34-0.15-6.51-0.21c0.329-4.171,0.369-8.351,0.27-12.521 c-0.51-0.26-1.54-0.78-2.05-1.04c-0.66,4.63-0.51,9.33,0.14,13.96c-2.1-0.18-4.189-0.34-6.29-0.49c0.141-4.26,0.641-8.59-0.09-12.81 c-0.38-0.23-1.16-0.67-1.55-0.89c-0.24,4.72-0.11,9.449-0.101,14.17c-2.109-0.17-4.22-0.33-6.329-0.471 c0.109-0.869,0.31-2.609,0.42-3.479c-2.021,1.83-4.051,4.24-7.03,4.17c-2.55,0.479-4.54-1.36-6.46-2.69 c-1.83,1.65-4.061,3.061-6.65,2.681c-2.96,0.22-4.939-2.141-6.8-4.04c-0.06,0.77-0.16,2.31-0.21,3.09 c-2.51,1.17-5.43,1.15-6.52-1.83c-2.341,1.12-4.671,2.79-7.41,2.45c-2.74-0.17-5.5-0.29-8.181,0.39c-1.33-1.66-2.6-3.359-3.84-5.08 c0.471,1.55,0.931,3.09,1.38,4.65c-3.09-0.09-6.189-0.17-9.279-0.25c0.51-2.83,0.71-5.7,0.75-8.57c-1.551,4.47-4.54,9.391-9.88,9.43 c-7.98-0.909-16.11-1.35-24.09-0.27c-1.76-0.14-3.23-1.24-4.76-1.99c-0.04,0.44-0.11,1.33-0.15,1.771 c-2.95-0.221-5.9-0.34-8.86-0.42c0.73-6,0.22-12.051,0.49-18.08c-1.15-0.09-2.3-0.17-3.44-0.25c-0.14,6.229-0.38,12.489,0.24,18.7 c-5.56-0.391-11.13-0.131-16.69-0.301c0.771-6.08,0.54-12.22,0.31-18.33c-0.72-0.05-2.16-0.14-2.88-0.189 c-0.11,6.32-0.23,12.649,0.03,18.97c-7.75-0.52-15.52-0.729-23.25,0.11c-4.17,5.18-10.26,9.06-17.04,9.29 c-7.89,0.239-16.53-2.23-21.57-8.65C-1.163,97.17,0.127,80.72,10.457,72.57L10.457,72.57z"/><path fill="#115C30" d="M15.207,77.18c1.85-4.38,7.51-6.109,11.73-4.34c5.68,2.19,7.65,10.311,4.05,15.05 c-2.22,2.391-5.88,1.83-8.09-0.26c2.38-1.189,6.06-2.99,4.69-6.27c-0.84-3.011-4.21-2.48-6.62-2.75c4.04-1.83,7.41,1.25,10.43,3.489 c-0.44-1.93-0.39-4.119-1.68-5.739c-2.95-3.87-9.51-3.9-12.57-0.15c-2.4,2.63-2.87,6.37-2.91,9.8c-0.05,5.061,1.01,10.42,4.38,14.36 c5.18,6.35,15.27,7.939,22.04,3.24c-5.7-2.48-11.02-5.7-16.35-8.88c-5.38-2.45-9.5-10.141-4.59-14.971 c-0.65,3.05-1.76,6.46,0.14,9.311c2.98,5.319,9.89,6.62,15.42,5.33c3.27-0.78,5.31-3.87,8.57-4.69c-0.15,0.65-0.44,1.96-0.59,2.61 c0.69-0.17,2.08-0.49,2.77-0.65c-1.43,1.67-3,3.24-4.23,5.08c-1.54,2.44-0.47,5.35,0.07,7.92c-4.68,2.04-9.92,3.63-14.99,2.03 C14.687,103.7,9.707,87.67,15.207,77.18L15.207,77.18z"/><path d="M17.147,76.21c3.06-3.75,9.62-3.72,12.57,0.15c1.29,1.62,1.24,3.81,1.68,5.739c-3.02-2.239-6.39-5.319-10.43-3.489 c-0.31,0.29-0.93,0.859-1.25,1.149c-4.91,4.83-0.79,12.521,4.59,14.971c5.33,3.18,10.65,6.399,16.35,8.88 c-6.77,4.699-16.86,3.109-22.04-3.24c-3.37-3.94-4.43-9.3-4.38-14.36C14.277,82.58,14.747,78.84,17.147,76.21L17.147,76.21z"/><path fill="#45B549" d="M98.177,72.64c3.31,0.511,6.75,1.221,10-0.04c0.81,0.801,1.62,1.601,2.42,2.41 c-0.03,0.65-0.1,1.96-0.13,2.61C106.447,75.75,101.857,75.24,98.177,72.64L98.177,72.64z"/><path d="M76.827,77.33c3.81-0.05,6.74-2.84,10.42-3.36c-2.33,2.07-5.18,3.431-7.65,5.32C78.677,78.63,77.757,77.98,76.827,77.33 L76.827,77.33z"/><path fill="#45B549" d="M95.807,73.9c4.19,1.68,8.44,3.229,12.62,4.96c-1.32,0.51-2.63,1.06-3.98,1.5 c-0.34-0.271-1.02-0.82-1.36-1.101c-0.11,0.21-0.34,0.61-0.46,0.82c-1.37-1.3-2.77-2.58-4.17-3.85c-0.37,0.189-1.11,0.56-1.48,0.75 C96.587,75.95,96.197,74.93,95.807,73.9L95.807,73.9z"/><path fill="#45B549" d="M137.188,79.89c-1.641-3.59,2.819-7.68,6.1-5.26c2.66,1.07,1.96,4.19,1.86,6.43 C142.577,81.98,138.667,83.02,137.188,79.89L137.188,79.89z"/><path fill="#45B549" d="M95.147,77.37c1.33-0.04,2.14,1.32,2.96,2.17l0.01,0.49c-0.39,0.31-1.15,0.939-1.53,1.25l-0.5-0.34 C95.607,79.82,94.877,78.63,95.147,77.37L95.147,77.37z"/><path d="M43.847,89.71c2.15-0.87,4.42-1.34,6.75-1.39c0.01,0.51,0.03,1.52,0.04,2.029c-1.53,0.46-3.05,0.94-4.61,1.32 c-0.69,0.16-2.08,0.48-2.77,0.65C43.407,91.67,43.697,90.36,43.847,89.71L43.847,89.71z"/><path d="M101.147,89.57c2.1-0.63,4.24-1.061,6.42-1.351c0,0.48,0.02,1.431,0.03,1.91c-2.57,0.86-5.02,2.01-7.29,3.47l-1.48,0.69 C98.767,92.38,99.807,90.8,101.147,89.57L101.147,89.57z"/><path d="M125.517,88.39c0.95,0.11,1.9,0.221,2.851,0.33c-0.24,5.271,1.35,11.141-1.11,16c-0.43-0.3-1.279-0.89-1.7-1.189 C125.607,98.48,125.647,93.43,125.517,88.39L125.517,88.39z"/><path d="M68.877,88.96l1.09,0.021c-0.41,5.43,0.17,10.88-0.33,16.3C68.477,99.95,69.297,94.38,68.877,88.96L68.877,88.96z"/><path d="M88.357,105.34c-0.03-5.51-0.68-11.149,0.33-16.6C89.197,94.19,90.077,100.08,88.357,105.34L88.357,105.34z"/><path fill="#115C30" d="M51.417,91.92c1.69,3.49,1.14,7.521,2.12,11.21c-1.41,0.45-3.04,0.96-3.97-0.58 C48.627,98.89,49.577,95.13,51.417,91.92L51.417,91.92z"/><path fill="#115C30" d="M189.297,93.07c-0.28-2.03,2.16-0.91,3.19-0.78c-0.12,4.15-0.09,8.31,0,12.46 c-1.07-0.03-2.12-0.05-3.181-0.08C189.247,100.8,189.047,96.93,189.297,93.07L189.297,93.07z"/><path d="M106.547,102.56c0.15-2.59-0.93-5.779,1.4-7.689c0.42,1.399,0.82,2.81,1.2,4.22c0.14,0.851,0.41,2.55,0.55,3.41 C108.647,102.52,107.597,102.54,106.547,102.56L106.547,102.56z"/><path d="M146.137,96.29c3.811,2.35,8.4,2.9,12.28,5.03c0.25,0.47,0.75,1.399,1,1.859c-2.29,0.051-4.6-0.239-6.63-1.359 c-0.42-0.21-1.26-0.63-1.68-0.84c-1.521-0.79-3.19-1.221-4.82-1.671C146.237,98.3,146.188,97.29,146.137,96.29L146.137,96.29z"/><path d="M50.177,96.4c1.91,1.63,1.49,4.26,1.03,6.43C49.287,101.14,49.917,98.59,50.177,96.4L50.177,96.4z"/><path d="M176.627,97.17c1.7,0.42,3.39,0.85,5.08,1.271c0.17,1.51,0.34,3.02,0.51,4.529l-1.02-0.14 C178.577,102.17,177.557,99.41,176.627,97.17L176.627,97.17z"/></svg> 