<svg xmlns="http://www.w3.org/2000/svg" viewBox="0 0 76.92 44.18"><path d="M9 12.49a8.32 8.32 0 0 0 1.4 13.24l23 15.73L22.26 16C19.93 10 13.54 8.68 9 12.49" fill="#f37021"/><path d="M28.8.11A8.17 8.17 0 0 0 22 11.39L33.48 38.5l4-28.51C38.46 2.9 33.09-.37 28.8.11" fill="#cc004c"/><path d="M39.33 8.9h2.17s1.16 0 1.32.55c-.86.7-3.19.79-2.88 4.52l3.67 24.53 11.44-27.18A8.27 8.27 0 0 0 48.12 0h-.62c-3.91 0-8.4 2.84-8.18 8.9" fill="#6460aa"/><path d="M54.59 16.23L43.77 41.38l23-15.81c5.3-3.75 4.44-9.74 1.48-12.7a8.24 8.24 0 0 0-5.94-2.47c-2.86 0-5.91 1.51-7.68 5.82" fill="#0089d0"/><path d="M64.17 29.15l-21.57 15h26.55c5.45 0 9-5.61 7.39-10.75a8.3 8.3 0 0 0-7.71-5.77 8.44 8.44 0 0 0-4.68 1.49" fill="#0db14b"/><path d="M8.4 44.18h26.17L13 29.15C8 26 2.41 27.83.38 33.13a8.39 8.39 0 0 0 8 11.06" fill="#fcb711"/></svg>