<svg id="Layer_1" xmlns="http://www.w3.org/2000/svg" viewBox="0 0 866.3 160.5"><style>.st0{fill:#009bdc}</style><path class="st0" d="M866.3 105.2v26.7h-2.4c-.5-1.8-1.2-3.1-2-3.8-.8-.7-2-1-3.5-1h-93.6v-2.4c1.8-.5 3-1.2 3.7-2 .7-.8 1.1-2 1.1-3.6V81.7h22.5V110h66.3c1.5 0 2.7-.4 3.5-1.1.8-.7 1.4-1.9 2-3.7h2.4zM864.5 19v26.7h-2.4c-.5-1.8-1.2-3-2-3.7-.8-.7-2-1.1-3.5-1.1h-64.5v24.3l-22.5-.1V31.7c0-1.6-.4-2.7-1.1-3.6-.7-.8-1.9-1.5-3.7-2v-2.4h91.8c1.5 0 2.7-.4 3.5-1.1.8-.7 1.5-2 2-3.7l2.4.1zM811.1 65.2H830v16.7h-18.9zM756.2 23.8v2.4c-2.2.3-3.8.9-4.6 1.9-.9 1-2.4 3.7-4.5 8.3l-35.9 77.3c-1.5 3.3-2.3 5.4-2.3 6.4 0 2.6 1.6 4.1 4.8 4.5v2.4h-35.6v-2.4c1.6-.2 2.8-.7 3.6-1.5.8-.8 1.2-1.8 1.2-3.1 0-1-.8-3.1-2.3-6.4l-35.8-77.3c-1.1-2.3-2-4.1-2.7-5.5-.7-1.4-1.3-2.3-1.8-2.8-.9-1-2.4-1.6-4.6-1.9v-2.4h36.8v2.4c-1.7.3-2.9.8-3.7 1.5-.8.7-1.3 1.6-1.3 2.7 0 1.4.6 3.4 1.7 6l27.2 61 27.7-61c1.2-2.6 1.7-4.6 1.7-6 0-2.2-1.7-3.6-5-4.2v-2.4l35.4.1zM627 124.7v2.4h-32.1v-2.4c1.8-.5 3.1-1.2 3.8-2 .7-.8 1-2 1-3.6V31.7c0-1.5-.4-2.7-1-3.5-.7-.8-2-1.5-3.8-2v-2.4H627v2.4c-1.8.5-3.1 1.1-3.7 1.9-.7.8-1.1 2-1.1 3.5v87.5c0 1.6.4 2.8 1.1 3.6.7.9 2 1.5 3.7 2zM584.7 19v26.7h-2.4c-.5-1.8-1.2-3.1-2-3.8-.8-.7-2-1-3.5-1h-32v78.2c0 1.6.4 2.7 1.1 3.6.7.8 1.9 1.5 3.7 2v2.4h-32.1v-2.4c1.8-.5 3-1.2 3.7-2 .7-.8 1.1-2 1.1-3.6V40.9h-32.1c-1.5 0-2.7.3-3.5 1-.8.7-1.5 1.9-2 3.8h-2.4V19h2.4c.6 1.8 1.2 3.1 2 3.8.8.7 1.9 1 3.4 1h86.6c1.6 0 2.7-.4 3.5-1 .8-.7 1.5-1.9 2-3.8h2.5z"/><path d="M492.9 124.7v2.4h-38.1v-2.4c3.4-.6 5.1-2.1 5.1-4.7 0-1.1-.5-2.6-1.5-4.7L428 49.8l-30.6 65.4c-1 2-1.4 3.6-1.4 4.8 0 1.1.4 2.1 1.3 2.8.9.8 2.1 1.4 3.8 1.8v2.4h-34.2v-2.4c2-.4 3.6-1.1 4.6-2.1s2.3-3 3.6-5.9L429.7 0l53.8 115.3c1.7 3.4 3.1 5.7 4.4 6.9 1.2 1.3 2.9 2.1 5 2.5z" fill="#f3aa56"/><path class="st0" d="M371.9 140.9h115.9v19.6H371.9zM359.2 105.2v26.7h-2.4c-.5-1.8-1.2-3.1-2-3.8-.8-.7-1.9-1-3.5-1h-93.6v-2.4c1.8-.5 3-1.2 3.7-2 .7-.8 1.1-2 1.1-3.6V81.7H285V110h66.3c1.5 0 2.7-.4 3.5-1.1.8-.7 1.5-1.9 2-3.7h2.4zM357.4 19v26.7H355c-.5-1.8-1.2-3-2-3.7-.8-.7-2-1.1-3.5-1.1H285v24.3l-22.5-.1V31.7c0-1.6-.4-2.7-1.1-3.6-.7-.8-1.9-1.5-3.7-2v-2.4h91.8c1.5 0 2.7-.4 3.5-1.1.8-.7 1.5-2 2-3.7l2.4.1zM304.1 65.2H323v16.7h-18.9zM245.3 124.7v2.4h-37.1v-2.4c2.5-.4 3.8-1.3 3.8-2.7 0-.9-1.2-3.1-3.5-6.6l-33.4-47.5c5.2 0 28.2-.2 30.4-.4 2.1-.3 4.1-.9 5.8-1.9 3.8-2.1 5.8-5.8 5.8-11.2s-1.9-9.1-5.8-11.2c-1.8-1-3.7-1.6-5.8-1.9-1-.1-2.4-.2-4.3-.3-1.8-.1-4.1-.1-6.7-.1h-34.8v78.3c0 1.5.4 2.7 1.1 3.5.7.8 1.9 1.5 3.7 1.9v2.4h-32.1v-2.4c1.8-.5 3.1-1.2 3.8-2 .7-.8 1-2 1-3.5V31.7c0-1.6-.3-2.7-1-3.6-.7-.8-1.9-1.5-3.8-2v-2.4H197c7.9 0 14.1.4 18.7 1.4 4.6.9 8.6 2.5 12.1 4.8 4 2.6 7 6.2 8.9 10.7 1.9 4.3 2.8 9 2.8 13.9 0 8.4-2.3 15.1-7 20.1-4.7 4.9-11.7 8.1-21.1 9.6l20 28.5c3.5 5 6.1 8.2 7.8 9.6 1.7 1.4 3.7 2.2 6.1 2.4zM116.8 37.6l-14.3 21.6-2-1.4c.1-.8.2-1.5.2-2.1 0-1.5-.6-2.8-1.9-4.1-1.3-1.3-3.5-2.8-6.7-4.7-8.9-5-18.3-7.6-28.3-7.6-11.8 0-21.1 3-28.1 8.9-8.3 6.9-12.4 16-12.4 27.1 0 11.2 4.1 20.2 12.4 27.2 7 5.9 16.4 8.9 28.1 8.9 10 0 19.4-2.5 28.3-7.6 3.2-1.8 5.5-3.4 6.7-4.6s1.9-2.7 1.9-4.1c0-.6-.1-1.2-.2-2l2-1.4 14.3 21.4-2 1.4c-1.4-1.3-2.6-2-3.5-2s-3.5 1.2-7.6 3.6c-8.7 5-16 8.4-21.9 10.1-5.9 1.7-13 2.6-21.1 2.6-16.3 0-29.6-3.9-40.1-11.6-6.2-4.5-11-10.1-14.5-16.7C2 93 0 84.6 0 75.4 0 62.9 3.7 52 11 42.8 21.9 28.9 38.6 22 60.8 22c8.1 0 15.2.9 21 2.6 5.8 1.7 13.2 5.1 21.9 10.1 4.2 2.4 6.7 3.5 7.6 3.5s2.1-.7 3.5-2l2 1.4z"/></svg>