<svg xmlns="http://www.w3.org/2000/svg" width="154.396" height="39.148"><g fill="#184D66"><path d="M43.483 17.816v-.107c1.405-.607 2.56-1.69 3.465-3.246.903-1.557 1.355-3.372 1.355-5.447 0-2.861-2.006-5.447-3.579-6.654C43.012 1.049 39.762 0 36.999 0h-6.316v38.477h6.816c2.811 0 6.052-.992 8.048-3.099 1.804-1.903 3.741-4.86 3.741-8.386 0-2.414-.525-4.462-1.58-6.145-1.054-1.679-2.462-2.691-4.225-3.031zM36.262 6.387h1.641c2.717 0 4.527 1.412 4.527 4.238 0 1.521-.332 2.715-.994 3.582-.662.868-2.02 1.303-3.171 1.303h-2.003V6.387zm6.056 24.308c-.732.931-2.192 1.396-3.483 1.396h-2.572V21.948h2.607c1.29 0 2.745.438 3.465 1.315.72.876 1.08 2.084 1.08 3.623 0 1.61-.367 2.88-1.097 3.809zM64.198 26.725c0 1.824-.294 3.27-.882 4.334-.587 1.063-1.37 1.596-2.349 1.596-1.981 0-2.972-1.941-2.972-5.822v-15.83h-5.442v16.581c0 7.71 1.938 10.472 6.15 10.966 2.242.262 4.06-1.021 5.407-4.258h.087v4.186h5.441V11.002h-5.441v15.723zM74.235 1.143h5.459v37.334h-5.459zM84.289 1.143h5.459v37.334h-5.459zM102.135 10.33c-2.486 0-4.584 1.333-6.287 3.998-1.705 2.666-2.557 6.279-2.557 10.841 0 4.399.787 7.83 2.365 10.29 1.578 2.459 3.795 3.689 6.652 3.689 2.613 0 4.74-.68 6.375-2.039v-6.118c-1.475 1.431-3.186 2.146-5.131 2.146-3.053 0-4.672-1.995-4.855-5.983h11.541v-3.569c0-4.078-.705-7.307-2.117-9.686-1.41-2.379-3.406-3.569-5.986-3.569zm-3.473 11.618c.139-1.681.527-3.085 1.168-4.213.639-1.126 1.396-1.689 2.271-1.689 2.049 0 3.074 1.968 3.074 5.902h-6.513zM120.207 1.273l-5.443-.074v9.803h-2.867v6.252h2.867v12.583c0 6.207 1.924 9.312 5.771 9.312 1.623 0 2.838-.332 3.645-.993v-6.278c-.611.519-1.203.777-1.779.777-1.463 0-2.193-1.432-2.193-4.293V17.254h3.973v-6.252h-3.973V1.273zM127.254 11.002h5.461v27.475h-5.461zM148.521 10.33c-2.488 0-4.381 1.674-5.684 5.018h-.068v-4.346h-5.459v27.475h5.459v-15.67c0-1.733.305-3.166.916-4.293.609-1.127 1.387-1.689 2.33-1.689 1.959 0 2.938 2.129 2.938 6.386v15.267h5.443V21.653c0-7.548-1.958-11.323-5.875-11.323zM127.17 1.199h5.404v5.533h-5.404z"/><g><path d="M13.249 23.768L16.01 8.611H0v7.307h11.553z"/><path d="M24.146 8.611L17.35 33.018H9.773L5.872 21.512 0 21.448v17.029h27.155V8.611z"/></g></g></svg>