<svg id="svg2" xmlns="http://www.w3.org/2000/svg" viewBox="0 0 1771.7 316.6"><style>.st0{fill:#fff}</style><path id="path14" class="st0" d="M1500 215.3c23 0 41.7-19.4 41.7-43.3 0-24.3-18.7-43.7-41.7-43.7-23 0-41.7 19.4-41.7 43.7 0 23.9 19 43.3 41.7 43.3zm-66-108.7c17.7-17.7 41-27.6 65-27.6 25.6 0 47.6 8.9 65.3 25.6 18.7 17.7 28.9 42 28.9 66 0 26.6-8.9 48.6-26.6 66.3-18.1 18.1-40.4 27.6-66.9 27.6-26.9 0-48.6-9.2-66.6-28.2-17.1-17.7-25.9-40.4-25.9-65-.1-24.6 9.4-47.3 26.8-64.7"/><path id="path16" class="st0" d="M1120 215.3c23 0 41.7-19.4 41.7-43.3 0-24.3-18.7-43.7-41.7-43.7s-41.7 19.4-41.7 43.7c.1 23.9 19.1 43.3 41.7 43.3zm-65.9-108.7c17.7-17.7 41-27.6 65-27.6 25.6 0 47.6 8.9 65.3 25.6 18.7 17.7 28.9 42 28.9 66 0 26.6-8.9 48.6-26.6 66.3-18.1 18.1-40.4 27.6-67 27.6-26.9 0-48.6-9.2-66.6-28.2-17.1-17.7-25.9-40.4-25.9-65s9.5-47.3 26.9-64.7"/><path id="path18" class="st0" d="M490 259.6h51.5V15.5L490 26.2v233.4"/><path id="path20" class="st0" d="M411.3 259.5h51.5V83.3h-51.5v176.2z"/><path id="path22" class="st0" d="M437.1 0c-17.5 0-31.6 14.2-31.6 31.6s14.2 31.6 31.6 31.6c17.5 0 31.6-14.2 31.6-31.6S454.5 0 437.1 0"/><path id="path24" class="st0" d="M648.6 186L615.5 83.3h-57.4l64.7 165.4-25.1 67.9h52.2l92-233.3H686L648.6 186"/><path id="path26" class="st0" d="M97.5 213.1c-26.6 0-45.6-18.7-45.6-43.3 0-23.6 19-43.6 43.6-43.6 24.3 0 43 19 43 44.3 0 24.2-18.7 42.6-41 42.6zm77.1-42.3c0-19.4 4.7-37.7 13.8-54V15l-51.9 10.7v76.8C124.7 87.4 108.3 80.2 87 80.2c-22.3 0-42.3 8.2-58.7 24.3C9.8 122.2 0 144.9 0 170.1c0 27.6 10.5 51.2 30.8 69.2C46.3 253.2 64.7 260 86 260c21 0 36.8-5.6 52.2-20.7V259h50.2v-33.4c-9.1-16.3-13.8-34.8-13.8-54.8"/><path id="path28" class="st0" d="M1017.3 122.1c-2.2-9.4-5.9-16.8-11.5-23.4-9.8-11.5-23.6-16.8-40.2-18.3-13.5-1.2-25.1.6-36.4 6.5-12.1 6.4-25.9 21.4-25.9 21.4S889.6 80 855.3 80c-24.2 0-38.9 10.3-48.9 26.9V83.3h-46.9v176.2h49.2v-92.8c0-19.3 4.5-38.5 30.6-38.5 22.5 0 24.2 18.3 24.2 33.5v97.7h50.9V166c0-29.8 12.9-37.9 30.8-37.9 14.4 0 24 6.5 24 33.5v97.7h50.5V226c-9-16.6-13.8-35.1-13.8-55 .1-17.3 4.1-33.8 11.4-48.9"/><path id="path30" class="st0" d="M1297.8 15.5l-52.5 10.7v58H1223v51h22.3v124.3h52.5V135.2h23.3v-51h-23.3V15.5"/><path id="path32" class="st0" d="M1369.7 63.2c17.5 0 31.6-14.2 31.6-31.6S1387.1 0 1369.7 0s-31.6 14.2-31.6 31.6 14.1 31.6 31.6 31.6"/><path id="path34" class="st0" d="M1395.4 126.2V83.3h-51.5v176.2h51.5v-42c-6.2-14.3-9.5-29.8-9.5-46.2 0-15.8 3.4-31 9.5-45.1"/><path id="path36" class="st0" d="M1711.6 80c-23.3 0-39.7 9.2-50.6 26.9l.7-23.6h-49.2v176.2h50.9V164c0-23.6 10.8-35.8 31.2-35.8 20 0 25.3 11.2 25.3 35.8v95.5h51.8V143.4c-.1-40.4-23.7-63.4-60.1-63.4"/><path id="path38" class="st0" d="M293.2 213.6c22.3 0 41-18.4 41-42.7 0-25.3-18.7-44.3-43-44.3-24.6 0-43.6 20-43.6 43.6 0 24.7 19 43.4 45.6 43.4zm40.7 26.3c-15.4 15.1-31.2 20.7-52.2 20.7-21.3 0-39.7-6.9-55.1-20.7-20.3-18.1-30.8-41.7-30.8-69.3 0-25.3 9.8-47.9 28.2-65.6 16.4-16.1 36.4-24.3 58.7-24.3 21.3 0 37.7 7.2 49.6 22.3V83.3h51.9v176.2H334v-19.6"/></svg>