<svg version="1.1" id="svg2" xmlns:cc="http://creativecommons.org/ns#" xmlns:dc="http://purl.org/dc/elements/1.1/" xmlns:inkscape="http://www.inkscape.org/namespaces/inkscape" xmlns:rdf="http://www.w3.org/1999/02/22-rdf-syntax-ns#" xmlns:svg="http://www.w3.org/2000/svg" xmlns="http://www.w3.org/2000/svg" xmlns:xlink="http://www.w3.org/1999/xlink" x="0px" y="0px" viewBox="0 0 1771.7 316.6" style="enable-background:new 0 0 1771.7 316.6;" xml:space="preserve"><style type="text/css"> .st0{fill:#FFFFFF;}</style><path id="path14" inkscape:connector-curvature="0" class="st0" d="M1500,215.3c23,0,41.7-19.4,41.7-43.3 c0-24.3-18.7-43.7-41.7-43.7c-23,0-41.7,19.4-41.7,43.7C1458.3,195.9,1477.3,215.3,1500,215.3z M1434,106.6 c17.7-17.7,41-27.6,65-27.6c25.6,0,47.6,8.9,65.3,25.6c18.7,17.7,28.9,42,28.9,66c0,26.6-8.9,48.6-26.6,66.3 c-18.1,18.1-40.4,27.6-66.9,27.6c-26.9,0-48.6-9.2-66.6-28.2c-17.1-17.7-25.9-40.4-25.9-65C1407.1,146.7,1416.6,124,1434,106.6"/><path id="path16" inkscape:connector-curvature="0" class="st0" d="M1120,215.3c23,0,41.7-19.4,41.7-43.3 c0-24.3-18.7-43.7-41.7-43.7s-41.7,19.4-41.7,43.7C1078.4,195.9,1097.4,215.3,1120,215.3z M1054.1,106.6c17.7-17.7,41-27.6,65-27.6 c25.6,0,47.6,8.9,65.3,25.6c18.7,17.7,28.9,42,28.9,66c0,26.6-8.9,48.6-26.6,66.3c-18.1,18.1-40.4,27.6-67,27.6 c-26.9,0-48.6-9.2-66.6-28.2c-17.1-17.7-25.9-40.4-25.9-65C1027.2,146.7,1036.7,124,1054.1,106.6"/><path id="path18" inkscape:connector-curvature="0" class="st0" d="M490,259.6h51.5V15.5L490,26.2L490,259.6"/><path id="path20" inkscape:connector-curvature="0" class="st0" d="M411.3,259.5h51.5V83.3h-51.5V259.5z"/><path id="path22" inkscape:connector-curvature="0" class="st0" d="M437.1,0c-17.5,0-31.6,14.2-31.6,31.6s14.2,31.6,31.6,31.6 c17.5,0,31.6-14.2,31.6-31.6S454.5,0,437.1,0"/><path id="path24" inkscape:connector-curvature="0" class="st0" d="M648.6,186L615.5,83.3h-57.4l64.7,165.4l-25.1,67.9h52.2 l92-233.3H686L648.6,186"/><path id="path26" inkscape:connector-curvature="0" class="st0" d="M97.5,213.1c-26.6,0-45.6-18.7-45.6-43.3 c0-23.6,19-43.6,43.6-43.6c24.3,0,43,19,43,44.3C138.5,194.7,119.8,213.1,97.5,213.1z M174.6,170.8c0-19.4,4.7-37.7,13.8-54V15 l-51.9,10.7v76.8C124.7,87.4,108.3,80.2,87,80.2c-22.3,0-42.3,8.2-58.7,24.3C9.8,122.2,0,144.9,0,170.1c0,27.6,10.5,51.2,30.8,69.2 C46.3,253.2,64.7,260,86,260c21,0,36.8-5.6,52.2-20.7v19.7h50.2v-33.4C179.3,209.3,174.6,190.8,174.6,170.8"/><path id="path28" inkscape:connector-curvature="0" class="st0" d="M1017.3,122.1c-2.2-9.4-5.9-16.8-11.5-23.4 c-9.8-11.5-23.6-16.8-40.2-18.3c-13.5-1.2-25.1,0.6-36.4,6.5c-12.1,6.4-25.9,21.4-25.9,21.4S889.6,80,855.3,80 c-24.2,0-38.9,10.3-48.9,26.9V83.3h-46.9v176.2h49.2v-92.8c0-19.3,4.5-38.5,30.6-38.5c22.5,0,24.2,18.3,24.2,33.5v97.7h50.9v-93.4 c0-29.8,12.9-37.9,30.8-37.9c14.4,0,24,6.5,24,33.5v97.7h50.5V226c-9-16.6-13.8-35.1-13.8-55C1006,153.7,1010,137.2,1017.3,122.1"/><path id="path30" inkscape:connector-curvature="0" class="st0" d="M1297.8,15.5l-52.5,10.7v58H1223v51h22.3v124.3h52.5V135.2h23.3 v-51h-23.3V15.5"/><path id="path32" inkscape:connector-curvature="0" class="st0" d="M1369.7,63.2c17.5,0,31.6-14.2,31.6-31.6S1387.1,0,1369.7,0 s-31.6,14.2-31.6,31.6S1352.2,63.2,1369.7,63.2"/><path id="path34" inkscape:connector-curvature="0" class="st0" d="M1395.4,126.2V83.3h-51.5v176.2h51.5v-42 c-6.2-14.3-9.5-29.8-9.5-46.2C1385.9,155.5,1389.3,140.3,1395.4,126.2"/><path id="path36" inkscape:connector-curvature="0" class="st0" d="M1711.6,80c-23.3,0-39.7,9.2-50.6,26.9l0.7-23.6h-49.2v176.2 h50.9V164c0-23.6,10.8-35.8,31.2-35.8c20,0,25.3,11.2,25.3,35.8v95.5h51.8V143.4C1771.6,103,1748,80,1711.6,80"/><path id="path38" inkscape:connector-curvature="0" class="st0" d="M293.2,213.6c22.3,0,41-18.4,41-42.7c0-25.3-18.7-44.3-43-44.3 c-24.6,0-43.6,20-43.6,43.6C247.6,194.9,266.6,213.6,293.2,213.6z M333.9,239.9c-15.4,15.1-31.2,20.7-52.2,20.7 c-21.3,0-39.7-6.9-55.1-20.7c-20.3-18.1-30.8-41.7-30.8-69.3c0-25.3,9.8-47.9,28.2-65.6c16.4-16.1,36.4-24.3,58.7-24.3 c21.3,0,37.7,7.2,49.6,22.3V83.3h51.9v176.2h-50.2V239.9"/></svg> 