<?xml version="1.0" encoding="UTF-8"?><svg version="1.1" id="Layer_1" xmlns="http://www.w3.org/2000/svg" x="0px" y="0px" width="480px" height="120px"  enable-background="new 0 0 480 120" xml:space="preserve"><g id="Layer_2">	<rect fill="#229CFF" width="480" height="120"/></g><g>	<g><path fill="#fff" d="m51.707006 21.602004h-29.33v76.039h28.895c27.376 0 43.342-16.293 43.342-38.236v-0.219c0.002-21.942-15.75-37.584-42.907-37.584zm21.291 38.128c0 12.272-8.364 19.227-20.964 19.227h-8.582v-38.671h8.582c12.6 0 20.964 7.06 20.964 19.226v0.218zm35.629004 37.907h21.182v-76.035h-21.182v76.035zm70.065-47.358c-10.538-2.391-13.145-3.911-13.145-7.385v-0.22c0-2.716 2.5-4.888 7.604-4.888 6.733 0 14.338 2.605 21.292 7.496l10.536-14.885c-8.257-6.625-18.358-10.103-31.284-10.103-18.25 0-29.438 10.21-29.438 24.332v0.218c0 15.644 12.492 20.207 28.676 23.896 10.32 2.389 12.818 4.127 12.818 7.279v0.217c0 3.258-3.042 5.213-8.69 5.213-8.798 0-17.163-3.148-24.657-9.123l-11.732 14.014c9.342 8.365 22.16 12.604 35.63 12.604 18.466 0 30.742-9.233 30.742-24.768v-0.217c-0.001-14.229-10.865-19.877-28.352-23.68zm120.573 9.343v-0.218c0-21.834-17.379-39.324-40.844-39.324-23.462 0-41.06 17.708-41.06 39.542v0.216c0 21.834 17.38 39.324 40.845 39.324 8.689 0 16.619-2.5 23.137-6.736l8.363 7.494 10.645-11.84-7.819-6.623c4.342-6.193 6.733-13.799 6.733-21.835zm-21.398 0.433c0 2.607-0.435 5.105-1.304 7.385l-10.319-9.342-10.645 11.949 10.537 9.018c-2.281 0.869-4.887 1.412-7.711 1.412-11.621 0-19.443-9.666-19.443-20.639v-0.216c0-10.972 7.712-20.532 19.225-20.532 11.733 0 19.664 9.668 19.664 20.748v0.216l-0.004 0.001zm83.534 4.345c0 10.643-5.543 15.639-14.016 15.639-8.471 0-14.012-5.211-14.012-16.184v-42.253h-21.398v42.69c0 23.789 13.578 34.763 35.195 34.763s35.629-10.754 35.629-35.305v-42.148h-21.398v42.798zm68.868-14.121c-10.537-2.391-13.145-3.911-13.145-7.385v-0.22c0-2.716 2.5-4.888 7.607-4.888 6.731 0 14.338 2.605 21.289 7.496l10.538-14.882c-8.254-6.625-18.355-10.103-31.281-10.103-18.25 0-29.439 10.21-29.439 24.332v0.218c0 15.644 12.492 20.205 28.676 23.896 10.32 2.391 12.818 4.129 12.818 7.281v0.215c0 3.258-3.043 5.215-8.691 5.215-8.799 0-17.164-3.152-24.658-9.125l-11.729 14.012c9.343 8.367 22.16 12.602 35.627 12.602 18.468 0 30.742-9.233 30.742-24.766v-0.219c-0.002-14.228-10.866-19.876-28.354-23.679z"/></g></g></svg>