<svg xmlns="http://www.w3.org/2000/svg" xmlns:xlink="http://www.w3.org/1999/xlink" x="0px" y="0px" width="428.558px" height="428.514px" viewBox="0 0 428.558 428.514" xml:space="preserve"><path fill-rule="evenodd" fill="#BB0031" d="M104.347,107.712L3.53,208.526c-3.281,3.278-3.126,8.745,0.271,12.146l90.849,90.843 c3.397,3.398,8.813,3.496,12.089,0.225l100.709-100.922L104.347,107.712z"/><path fill="none" stroke="#BB0031" stroke-width="2.318" d="M104.347,107.712L3.53,208.526c-3.281,3.278-3.126,8.745,0.271,12.146 l90.849,90.843c3.397,3.398,8.813,3.496,12.089,0.225l100.709-100.922L104.347,107.712z"/><path fill-rule="evenodd" fill="#BB0031" d="M217.742,200.733l94.023-94.02c3.278-3.281,3.182-8.693-0.227-12.095L220.701,3.774 c-3.403-3.399-8.817-3.499-12.095-0.218l-94.018,94.021L217.742,200.733z"/><path fill="none" stroke="#BB0031" stroke-width="2.318" d="M217.742,200.733l94.023-94.02c3.278-3.281,3.182-8.693-0.227-12.095 L220.701,3.774c-3.403-3.399-8.817-3.499-12.095-0.218l-94.018,94.021L217.742,200.733z"/><path fill-rule="evenodd" fill="#4172A6" d="M207.888,424.738c3.397,3.397,8.817,3.502,12.098,0.22L425.001,219.94 c3.278-3.283,3.185-8.696-0.218-12.101l-90.842-90.839c-3.396-3.399-8.813-3.499-12.091-0.218L116.824,321.805 c-3.275,3.276-3.176,8.689,0.223,12.091L207.888,424.738z"/><path fill="none" stroke="#4172A6" stroke-width="2.318" d="M207.888,424.738c3.397,3.397,8.817,3.502,12.098,0.22L425.001,219.94 c3.278-3.283,3.185-8.696-0.218-12.101l-90.842-90.839c-3.396-3.399-8.813-3.499-12.091-0.218L116.824,321.805 c-3.275,3.276-3.176,8.689,0.223,12.091L207.888,424.738z"/><path fill-rule="evenodd" fill="#FFFFFF" d="M198.208,118.62c9.766,9.769,25.603,9.769,35.374,0c9.769-9.771,9.769-25.607,0-35.379 c-9.771-9.766-25.608-9.766-35.374,0C188.437,93.013,188.437,108.849,198.208,118.62"/><path fill="none" stroke="#FFFFFF" stroke-width="1.159" d="M198.208,118.62c9.766,9.769,25.603,9.769,35.374,0 c9.769-9.771,9.769-25.607,0-35.379c-9.771-9.766-25.608-9.766-35.374,0C188.437,93.013,188.437,108.849,198.208,118.62z"/><path fill-rule="evenodd" fill="#FFFFFF" d="M122.43,233.781c9.769,9.771,25.612,9.771,35.38,0c9.765-9.771,9.765-25.609,0-35.38 c-9.769-9.768-25.612-9.765-35.38,0C112.661,208.169,112.661,224.01,122.43,233.781"/><path fill="none" stroke="#FFFFFF" stroke-width="1.159" stroke-miterlimit="1" d="M122.43,233.781 c9.769,9.771,25.612,9.771,35.38,0c9.765-9.771,9.765-25.609,0-35.38c-9.769-9.768-25.612-9.765-35.38,0 C112.661,208.169,112.661,224.01,122.43,233.781z"/><path fill-rule="evenodd" fill="#FFFFFF" d="M44.706,232.725c9.771,9.765,25.612,9.765,35.38,0c9.771-9.774,9.771-25.612,0-35.38 c-9.769-9.766-25.609-9.766-35.38,0C34.936,207.113,34.936,222.953,44.706,232.725"/><path fill="none" stroke="#FFFFFF" stroke-width="1.159" stroke-miterlimit="1" d="M44.706,232.725 c9.771,9.765,25.612,9.765,35.38,0c9.771-9.774,9.771-25.612,0-35.38c-9.769-9.766-25.609-9.766-35.38,0 C34.936,207.113,34.936,222.953,44.706,232.725z"/><path fill-rule="evenodd" fill="#FFFFFF" d="M166.988,346.169c4.544-4.645-0.567-11.343-4.187-14.962 c-4.176-4.179-10.778-9.193-15.371-4.6L166.988,346.169z M127.77,327.11l8.107-8.104c11.461-11.464,25.075-10.205,36.693,1.407 c17.73,17.73,8.535,30.186,2.405,36.313l-8.796,8.798L127.77,327.11z"/><path fill-rule="evenodd" fill="#FFFFFF" d="M190.178,314.626c2.751,2.753,6.877,6.164,9.272,3.77 c2.397-2.39-1.02-6.521-3.768-9.268c-2.753-2.756-6.874-6.169-9.272-3.774C184.016,307.75,187.428,311.875,190.178,314.626 M205.458,299.344c7.545,7.538,10.09,17.931,1.482,26.542c-8.609,8.611-19,6.061-26.543-1.477 c-7.54-7.541-10.084-17.931-1.476-26.542C187.527,289.256,197.922,291.806,205.458,299.344"/><path fill-rule="evenodd" fill="#FFFFFF" d="M208.508,278.162h0.203c-1.733-3.872-1.629-8.455,1.581-11.667 c3.613-3.615,8.251-3.567,12.585-1.477l0.104-0.104c-2.142-3.869-2.499-8.609,0.964-12.071c5.249-5.247,10.902-3.464,16.813,2.448 l17.828,17.823l-9.982,9.989l-14.569-14.573c-1.07-1.065-3.36-3.055-4.84-1.575c-1.278,1.271-0.918,2.445-0.15,3.719 c0.712,1.221,1.933,2.345,2.797,3.21l12.993,12.991l-9.986,9.986l-14.875-14.879c-1.223-1.226-3.007-2.494-4.28-1.226 c-1.218,1.226-0.969,2.601-0.206,3.874c0.765,1.271,1.99,2.398,2.809,3.21l12.78,12.788l-9.984,9.981l-26.897-26.895l10.091-10.089 L208.508,278.162z"/><path fill-rule="evenodd" fill="#FFFFFF" d="M226.2,234.798c-3.161-3.164-3.215-8.405-0.053-11.567 c3.212-3.206,8.406-3.412,11.665-0.152c3.21,3.21,3.365,8.459,0.102,11.72C234.706,238.006,229.459,238.057,226.2,234.798 M262.366,269.338l-26.897-26.897l9.981-9.986l26.902,26.897L262.366,269.338z"/><path fill-rule="evenodd" fill="#FFFFFF" d="M263.967,223.927h0.201c-1.934-3.873-2.092-9.219,1.225-12.531 c5.755-5.757,12.072-2.292,16.909,2.547l17.729,17.725l-9.986,9.989l-13.598-13.602c-2.288-2.294-4.077-3.771-5.759-2.091 c-1.936,1.937-0.254,3.926,2.498,6.676l12.938,12.939l-9.987,9.984l-26.895-26.9l9.986-9.984L263.967,223.927z"/><path fill-rule="evenodd" fill="#FFFFFF" d="M298.777,206.034c2.745,2.748,6.876,6.162,9.268,3.77 c2.398-2.397-1.021-6.521-3.768-9.276c-2.755-2.748-6.875-6.164-9.275-3.771C292.611,199.153,296.024,203.283,298.777,206.034 M314.056,190.747c7.538,7.542,10.083,17.933,1.481,26.542c-8.611,8.609-19.003,6.063-26.542-1.475 c-7.544-7.539-10.088-17.935-1.481-26.542C296.123,180.664,306.52,183.208,314.056,190.747"/><polygon fill-rule="evenodd" fill="#FFFFFF" points="317.108,174.658 308.957,182.814 295.195,159.682 305.385,149.496 "/><path fill-rule="evenodd" fill="#FFFFFF" d="M332.587,179.757c2.446,0.102,5.962-0.353,7.795-2.188 c0.867-0.87,1.527-2.346,0.558-3.313c-0.967-0.97-2.391-0.663-4.734,0.458c-5.301,2.547-10.441,3.619-15.031-0.969 c-5.554-5.554-4.528-13.604,1.735-19.872c2.7-2.697,6.719-4.988,10.394-6.011l3.869,10.701c-2.24,0.104-4.887,0.104-6.574,1.782 c-0.708,0.714-1.021,1.937-0.149,2.805c1.378,1.375,4.023,0.151,5.503-0.51c4.988-2.243,9.832-3.21,14.211,1.174 c6.062,6.057,4.228,14.618-1.326,20.169c-3.667,3.671-7.587,5.455-12.482,6.881L332.587,179.757z"/><path fill-rule="evenodd" fill="#FFFFFF" d="M195.452,373.152l-0.69,0.791l8.863,8.863c2.923-2.618,3.073-5.925,0.221-8.779 C201.397,371.587,197.924,370.679,195.452,373.152 M214.792,414.132l-38.415-38.414l9.19-9.19 c8.802-8.798,18.525-12.613,28.616-2.524c9.98,9.984,7.104,18.969-1.893,27.464l12.582,12.584L214.792,414.132z"/><path fill-rule="evenodd" fill="#FFFFFF" d="M206.224,351.985c-3.159-3.157-3.21-8.408-0.051-11.567 c3.209-3.206,8.406-3.409,11.668-0.151c3.205,3.212,3.36,8.46,0.097,11.719C214.732,355.195,209.484,355.246,206.224,351.985 M242.397,386.525l-26.902-26.897l9.987-9.989l26.899,26.9L242.397,386.525z"/><path fill-rule="evenodd" fill="#FFFFFF" d="M255.221,373.698l-9.931-28.171c-1.226,1.327-2.448,2.753-3.72,4.026l-3.824,3.818 l-7.992-8l21.702-21.701l9.774,27.917c1.069-1.172,2.094-2.291,3.207-3.409l4.133-4.128l8.147,8.149L255.221,373.698z"/><path fill-rule="evenodd" fill="#FFFFFF" d="M279.619,349.309l-9.941-28.176c-1.22,1.324-2.442,2.755-3.719,4.028l-3.819,3.815 l-7.997-7.994l21.701-21.704l9.781,27.92c1.073-1.175,2.09-2.294,3.209-3.415l4.127-4.123l8.151,8.147L279.619,349.309z"/><path fill-rule="evenodd" fill="#FFFFFF" d="M308.651,299.993c-1.059-1.688-2.586-3.218-3.355-3.983 c-0.712-0.716-1.985-2.091-3.47-3.052c-1.431-0.908-2.976-1.401-4.182-0.198c-1.261,1.264-0.614,3.063,0.548,4.856 c1.17,1.687,2.845,3.364,3.709,4.234c0.768,0.764,2.041,1.931,3.372,2.742c1.281,0.754,2.622,1.046,3.615,0.051 C310.203,303.329,309.711,301.581,308.651,299.993 M329.384,299.533l-10.28,10.282l-3.958-4.902h-0.208 c1.542,4.166,1.367,8.822-1.992,12.18c-7.138,7.135-17.514-0.519-22.759-5.769c-5.298-5.295-12.133-15.38-5.047-22.461 c3.304-3.307,7.488-3.213,11.453-1.873l0.003-0.206l-4.552-3.712l10.445-10.438L329.384,299.533z"/><path fill-rule="evenodd" fill="#FFFFFF" d="M310.977,263.828l1.664,1.664l1.058-1.06c0.935-0.932,2.365-2.063,1.46-2.97 c-0.848-0.85-1.642-0.175-2.47,0.652L310.977,263.828z M320.865,265.367l-1.138,1.138l-4.843-1.324l-1.279,1.276l3.086,3.084 l-0.997,0.998l-6.684-6.683l2.899-2.9c1.242-1.244,2.73-2.005,4.136-0.596c1.317,1.313,0.879,2.719-0.01,3.665L320.865,265.367z M309.535,269.922c2.799,2.796,7.313,2.639,10.117-0.165c2.801-2.801,2.961-7.314,0.162-10.113 c-2.811-2.811-7.311-2.634-10.108,0.168C306.901,262.612,306.724,267.108,309.535,269.922 M308.538,270.919 c-3.308-3.308-3.232-8.646,0.198-12.076c3.426-3.426,8.769-3.51,12.081-0.201c3.31,3.314,3.225,8.655-0.201,12.08 C317.185,274.151,311.849,274.23,308.538,270.919"/></svg> 