<svg xmlns="http://www.w3.org/2000/svg" width="428.558" height="428.514"><path fill-rule="evenodd" fill="#BB0031" d="M104.347 107.712L3.53 208.526c-3.281 3.278-3.126 8.745.271 12.146l90.849 90.843c3.397 3.398 8.813 3.496 12.089.225l100.709-100.922-103.101-103.106z"/><path fill="none" stroke="#BB0031" stroke-width="2.318" d="M104.347 107.712L3.53 208.526c-3.281 3.278-3.126 8.745.271 12.146l90.849 90.843c3.397 3.398 8.813 3.496 12.089.225l100.709-100.922-103.101-103.106z"/><path fill-rule="evenodd" fill="#BB0031" d="M217.742 200.733l94.023-94.02c3.278-3.281 3.182-8.693-.227-12.095L220.701 3.774c-3.403-3.399-8.817-3.499-12.095-.218l-94.018 94.021 103.154 103.156z"/><path fill="none" stroke="#BB0031" stroke-width="2.318" d="M217.742 200.733l94.023-94.02c3.278-3.281 3.182-8.693-.227-12.095L220.701 3.774c-3.403-3.399-8.817-3.499-12.095-.218l-94.018 94.021 103.154 103.156z"/><path fill-rule="evenodd" fill="#4172A6" d="M207.888 424.738c3.397 3.397 8.817 3.502 12.098.22L425.001 219.94c3.278-3.283 3.185-8.696-.218-12.101L333.941 117c-3.396-3.399-8.813-3.499-12.091-.218L116.824 321.805c-3.275 3.276-3.176 8.689.223 12.091l90.841 90.842z"/><path fill="none" stroke="#4172A6" stroke-width="2.318" d="M207.888 424.738c3.397 3.397 8.817 3.502 12.098.22L425.001 219.94c3.278-3.283 3.185-8.696-.218-12.101L333.941 117c-3.396-3.399-8.813-3.499-12.091-.218L116.824 321.805c-3.275 3.276-3.176 8.689.223 12.091l90.841 90.842z"/><path fill-rule="evenodd" fill="#FFF" d="M198.208 118.62c9.766 9.769 25.603 9.769 35.374 0 9.769-9.771 9.769-25.607 0-35.379-9.771-9.766-25.608-9.766-35.374 0-9.771 9.772-9.771 25.608 0 35.379"/><path fill="none" stroke="#FFF" stroke-width="1.159" d="M198.208 118.62c9.766 9.769 25.603 9.769 35.374 0 9.769-9.771 9.769-25.607 0-35.379-9.771-9.766-25.608-9.766-35.374 0-9.771 9.772-9.771 25.608 0 35.379z"/><path fill-rule="evenodd" fill="#FFF" d="M122.43 233.781c9.769 9.771 25.612 9.771 35.38 0 9.765-9.771 9.765-25.609 0-35.38-9.769-9.768-25.612-9.765-35.38 0-9.769 9.768-9.769 25.609 0 35.38"/><path fill="none" stroke="#FFF" stroke-width="1.159" stroke-miterlimit="1" d="M122.43 233.781c9.769 9.771 25.612 9.771 35.38 0 9.765-9.771 9.765-25.609 0-35.38-9.769-9.768-25.612-9.765-35.38 0-9.769 9.768-9.769 25.609 0 35.38z"/><path fill-rule="evenodd" fill="#FFF" d="M44.706 232.725c9.771 9.765 25.612 9.765 35.38 0 9.771-9.774 9.771-25.612 0-35.38-9.769-9.766-25.609-9.766-35.38 0-9.77 9.768-9.77 25.608 0 35.38"/><path fill="none" stroke="#FFF" stroke-width="1.159" stroke-miterlimit="1" d="M44.706 232.725c9.771 9.765 25.612 9.765 35.38 0 9.771-9.774 9.771-25.612 0-35.38-9.769-9.766-25.609-9.766-35.38 0-9.77 9.768-9.77 25.608 0 35.38z"/><path fill-rule="evenodd" fill="#FFF" d="M166.988 346.169c4.544-4.645-.567-11.343-4.187-14.962-4.176-4.179-10.778-9.193-15.371-4.6l19.558 19.562zM127.77 327.11l8.107-8.104c11.461-11.464 25.075-10.205 36.693 1.407 17.73 17.73 8.535 30.186 2.405 36.313l-8.796 8.798-38.409-38.414zM190.178 314.626c2.751 2.753 6.877 6.164 9.272 3.77 2.397-2.39-1.02-6.521-3.768-9.268-2.753-2.756-6.874-6.169-9.272-3.774-2.394 2.396 1.018 6.521 3.768 9.272m15.28-15.282c7.545 7.538 10.09 17.931 1.482 26.542-8.609 8.611-19 6.061-26.543-1.477-7.54-7.541-10.084-17.931-1.476-26.542 8.606-8.611 19.001-6.061 26.537 1.477M208.508 278.162h.203c-1.733-3.872-1.629-8.455 1.581-11.667 3.613-3.615 8.251-3.567 12.585-1.477l.104-.104c-2.142-3.869-2.499-8.609.964-12.071 5.249-5.247 10.902-3.464 16.813 2.448l17.828 17.823-9.982 9.989-14.569-14.573c-1.07-1.065-3.36-3.055-4.84-1.575-1.278 1.271-.918 2.445-.15 3.719.712 1.221 1.933 2.345 2.797 3.21l12.993 12.991-9.986 9.986-14.875-14.879c-1.223-1.226-3.007-2.494-4.28-1.226-1.218 1.226-.969 2.601-.206 3.874.765 1.271 1.99 2.398 2.809 3.21l12.78 12.788-9.984 9.981-26.897-26.895 10.091-10.089 4.221 4.537zM226.2 234.798c-3.161-3.164-3.215-8.405-.053-11.567 3.212-3.206 8.406-3.412 11.665-.152 3.21 3.21 3.365 8.459.102 11.72-3.208 3.207-8.455 3.258-11.714-.001m36.166 34.54l-26.897-26.897 9.981-9.986 26.902 26.897-9.986 9.986zM263.967 223.927h.201c-1.934-3.873-2.092-9.219 1.225-12.531 5.755-5.757 12.072-2.292 16.909 2.547l17.729 17.725-9.986 9.989-13.598-13.602c-2.288-2.294-4.077-3.771-5.759-2.091-1.936 1.937-.254 3.926 2.498 6.676l12.938 12.939-9.987 9.984-26.895-26.9 9.986-9.984 4.739 5.248zM298.777 206.034c2.745 2.748 6.876 6.162 9.268 3.77 2.398-2.397-1.021-6.521-3.768-9.276-2.755-2.748-6.875-6.164-9.275-3.771-2.391 2.396 1.022 6.526 3.775 9.277m15.279-15.287c7.538 7.542 10.083 17.933 1.481 26.542-8.611 8.609-19.003 6.063-26.542-1.475-7.544-7.539-10.088-17.935-1.481-26.542 8.609-8.608 19.006-6.064 26.542 1.475M317.108 174.658l-8.151 8.156-13.762-23.132 10.19-10.186zM332.587 179.757c2.446.102 5.962-.353 7.795-2.188.867-.87 1.527-2.346.558-3.313-.967-.97-2.391-.663-4.734.458-5.301 2.547-10.441 3.619-15.031-.969-5.554-5.554-4.528-13.604 1.735-19.872 2.7-2.697 6.719-4.988 10.394-6.011l3.869 10.701c-2.24.104-4.887.104-6.574 1.782-.708.714-1.021 1.937-.149 2.805 1.378 1.375 4.023.151 5.503-.51 4.988-2.243 9.832-3.21 14.211 1.174 6.062 6.057 4.228 14.618-1.326 20.169-3.667 3.671-7.587 5.455-12.482 6.881l-3.769-11.107zM195.452 373.152l-.69.791 8.863 8.863c2.923-2.618 3.073-5.925.221-8.779-2.449-2.44-5.922-3.348-8.394-.875m19.34 40.98l-38.415-38.414 9.19-9.19c8.802-8.798 18.525-12.613 28.616-2.524 9.98 9.984 7.104 18.969-1.893 27.464l12.582 12.584-10.08 10.08zM206.224 351.985c-3.159-3.157-3.21-8.408-.051-11.567 3.209-3.206 8.406-3.409 11.668-.151 3.205 3.212 3.36 8.46.097 11.719-3.206 3.209-8.454 3.26-11.714-.001m36.173 34.54l-26.902-26.897 9.987-9.989 26.899 26.9-9.984 9.986zM255.221 373.698l-9.931-28.171c-1.226 1.327-2.448 2.753-3.72 4.026l-3.824 3.818-7.992-8 21.702-21.701 9.774 27.917c1.069-1.172 2.094-2.291 3.207-3.409l4.133-4.128 8.147 8.149-21.496 21.499zM279.619 349.309l-9.941-28.176c-1.22 1.324-2.442 2.755-3.719 4.028l-3.819 3.815-7.997-7.994 21.701-21.704 9.781 27.92c1.073-1.175 2.09-2.294 3.209-3.415l4.127-4.123 8.151 8.147-21.493 21.502zM308.651 299.993c-1.059-1.688-2.586-3.218-3.355-3.983-.712-.716-1.985-2.091-3.47-3.052-1.431-.908-2.976-1.401-4.182-.198-1.261 1.264-.614 3.063.548 4.856 1.17 1.687 2.845 3.364 3.709 4.234.768.764 2.041 1.931 3.372 2.742 1.281.754 2.622 1.046 3.615.051 1.315-1.314.823-3.062-.237-4.65m20.733-.46l-10.28 10.282-3.958-4.902h-.208c1.542 4.166 1.367 8.822-1.992 12.18-7.138 7.135-17.514-.519-22.759-5.769-5.298-5.295-12.133-15.38-5.047-22.461 3.304-3.307 7.488-3.213 11.453-1.873l.003-.206-4.552-3.712 10.445-10.438 26.895 26.899zM310.977 263.828l1.664 1.664 1.058-1.06c.935-.932 2.365-2.063 1.46-2.97-.848-.85-1.642-.175-2.47.652l-1.712 1.714zm9.888 1.539l-1.138 1.138-4.843-1.324-1.279 1.276 3.086 3.084-.997.998-6.684-6.683 2.899-2.9c1.242-1.244 2.73-2.005 4.136-.596 1.317 1.313.879 2.719-.01 3.665l4.83 1.342zm-11.33 4.555c2.799 2.796 7.313 2.639 10.117-.165 2.801-2.801 2.961-7.314.162-10.113-2.811-2.811-7.311-2.634-10.108.168-2.805 2.8-2.982 7.296-.171 10.11m-.997.997c-3.308-3.308-3.232-8.646.198-12.076 3.426-3.426 8.769-3.51 12.081-.201 3.31 3.314 3.225 8.655-.201 12.08-3.431 3.429-8.767 3.508-12.078.197"/></svg>