<svg xmlns="http://www.w3.org/2000/svg" width="250" height="270"><g fill="#276CB0"><path d="M154.201 153.883c-2.807 1.282-4.896 3.104-6.92 4.867-1.674 1.457-3.249 2.832-5.09 3.76-4.377 2.204-10.51 3.42-17.276 3.451-6.768-.031-12.897-1.247-17.269-3.451-1.842-.928-3.425-2.303-5.094-3.76-2.023-1.764-4.116-3.585-6.91-4.867-2.716-1.231-7.917.622-8.616 4.34-1.088 5.65 6.422 10.656 13.08 14.383 7.044 3.905 15.778 6.062 24.647 6.147v.016c.06 0 .112-.004.162-.004.056 0 .11.004.161.004v-.016c8.87-.085 17.603-2.242 24.648-6.147 6.664-3.727 14.169-8.732 13.092-14.383-.707-3.718-5.904-5.572-8.615-4.34zM92.404 93.399c-5.443 0-9.873 4.934-9.873 10.996 0 6.083 4.43 11.039 9.873 11.039 5.427 0 9.843-4.956 9.843-11.039.001-6.062-4.416-10.996-9.843-10.996zM157.449 93.399c-5.426 0-9.842 4.934-9.842 10.996 0 6.083 4.416 11.039 9.842 11.039 5.443 0 9.873-4.956 9.873-11.039 0-6.062-4.429-10.996-9.873-10.996z"/><path d="M246.546 112.962c-.305-49.303-6.751-79.846-19.347-91.604C214.292 9.308 180.43 3.285 125.615 3.285H125.272c-54.817 0-88.679 6.022-101.586 18.073-12.595 11.757-19.042 42.3-19.345 91.604h-.003l.002.214v.06c.305 49.3 6.751 79.845 19.347 91.601 9.063 8.461 28.461 13.945 58.168 16.467l43.416 44.111.004-.004.004.004 43.386-44.082c29.914-2.505 49.436-8.002 58.534-16.496 12.597-11.756 19.041-42.301 19.348-91.601h.002v-.136-.137h-.003zM35.403 32.133c11.37-10.591 41.196-15.886 89.479-15.886h.304c48.283 0 78.107 5.295 89.474 15.886 8.514 7.93 13.836 25.599 15.976 52.971l-10.138.188-24.522.563c-4.62-16.621-19.655-28.125-36.958-28.125-14.488 0-27.504 8.045-34.086 20.76-6.579-12.714-19.594-20.76-34.084-20.76-17.302 0-32.338 11.505-36.956 28.125l-24.525-.563-9.935-.184c2.137-27.374 7.458-45.045 15.971-52.975zM186.49 96.155c0 15.151-12.324 27.474-27.473 27.474-15.155 0-27.493-12.323-27.493-27.474 0-15.139 12.338-27.45 27.493-27.45 15.149.001 27.473 12.311 27.473 27.45zm-68.15 0c0 15.151-12.336 27.474-27.492 27.474-15.149 0-27.473-12.323-27.473-27.474 0-15.139 12.324-27.45 27.473-27.45 15.155.001 27.492 12.311 27.492 27.45zm113.365 16.61v.12c-.273 43.332-5.951 70.179-17.045 80.512-6.146 5.725-17.693 9.897-34.621 12.526-5.601.873-11.783 1.575-18.569 2.108l-36.282 37.57-37.157-37.618c-6.759-.54-12.925-1.252-18.498-2.133-16.664-2.636-28.044-6.784-34.13-12.454-11.093-10.333-16.771-37.18-17.04-80.512h-.002l.002-.053c-.002-.065-.002-.122-.002-.186h.002c.027-4.348.111-8.521.247-12.537l10.811.202 23.32.54c2.34 19.023 18.831 33.75 38.106 33.75 14.447 0 27.488-8.029 34.084-20.709 6.595 12.68 19.639 20.709 34.086 20.709 19.275 0 35.766-14.727 38.104-33.75l23.32-.54 11.015-.206c.137 4.016.221 8.191.248 12.541l.001.12z"/></g></svg>