<?xml version="1.0" encoding="utf-8"?>
<!-- Generator: Adobe Illustrator 16.0.4, SVG Export Plug-In . SVG Version: 6.00 Build 0)  -->
<!DOCTYPE svg PUBLIC "-//W3C//DTD SVG 1.1//EN" "http://www.w3.org/Graphics/SVG/1.1/DTD/svg11.dtd">
<svg version="1.1" id="Layer_1" xmlns="http://www.w3.org/2000/svg" xmlns:xlink="http://www.w3.org/1999/xlink" x="0px" y="0px"
	 width="250px" height="270px" viewBox="0 0 250 270" enable-background="new 0 0 250 270" xml:space="preserve">
<g>
	<path fill="#276CB0" d="M154.201,153.883c-2.807,1.282-4.896,3.104-6.92,4.867c-1.674,1.457-3.249,2.832-5.09,3.76
		c-4.377,2.204-10.51,3.42-17.276,3.451c-6.768-0.031-12.897-1.247-17.269-3.451c-1.842-0.928-3.425-2.303-5.094-3.76
		c-2.023-1.764-4.116-3.585-6.91-4.867c-2.716-1.231-7.917,0.622-8.616,4.34c-1.088,5.65,6.422,10.656,13.08,14.383
		c7.044,3.905,15.778,6.062,24.647,6.147v0.016c0.06,0,0.112-0.004,0.162-0.004c0.056,0,0.11,0.004,0.161,0.004v-0.016
		c8.87-0.085,17.603-2.242,24.648-6.147c6.664-3.727,14.169-8.732,13.092-14.383C162.109,154.505,156.912,152.651,154.201,153.883z"
		/>
	<path fill="#276CB0" d="M92.404,93.399c-5.443,0-9.873,4.934-9.873,10.996c0,6.083,4.43,11.039,9.873,11.039
		c5.427,0,9.843-4.956,9.843-11.039C102.248,98.333,97.831,93.399,92.404,93.399z"/>
	<path fill="#276CB0" d="M157.449,93.399c-5.426,0-9.842,4.934-9.842,10.996c0,6.083,4.416,11.039,9.842,11.039
		c5.443,0,9.873-4.956,9.873-11.039C167.322,98.333,162.893,93.399,157.449,93.399z"/>
	<path fill="#276CB0" d="M246.546,112.962c-0.305-49.303-6.751-79.846-19.347-91.604C214.292,9.308,180.43,3.285,125.615,3.285
		c-0.059,0-0.116,0-0.174,0c-0.054,0-0.11,0-0.169,0c-54.817,0-88.679,6.022-101.586,18.073
		c-12.595,11.757-19.042,42.3-19.345,91.604H4.338c0,0.072,0.002,0.141,0.002,0.214c0,0.02,0,0.039,0,0.06
		c0.305,49.3,6.751,79.845,19.347,91.601c9.063,8.461,28.461,13.945,58.168,16.467l43.416,44.111l0.004-0.004l0.004,0.004
		l43.386-44.082c29.914-2.505,49.436-8.002,58.534-16.496c12.597-11.756,19.041-42.301,19.348-91.601h0.002c0-0.046,0-0.092,0-0.136
		c0-0.046,0-0.091,0-0.137H246.546z M35.403,32.133c11.37-10.591,41.196-15.886,89.479-15.886c0.049,0,0.1,0,0.149,0
		c0.053,0,0.105,0,0.155,0c48.283,0,78.107,5.295,89.474,15.886c8.514,7.93,13.836,25.599,15.976,52.971l-10.138,0.188
		l-24.522,0.563c-4.62-16.621-19.655-28.125-36.958-28.125c-14.488,0-27.504,8.045-34.086,20.76
		c-6.579-12.714-19.594-20.76-34.084-20.76c-17.302,0-32.338,11.505-36.956,28.125l-24.525-0.563l-9.935-0.184
		C21.569,57.734,26.89,40.063,35.403,32.133z M186.49,96.155c0,15.151-12.324,27.474-27.473,27.474
		c-15.155,0-27.493-12.323-27.493-27.474c0-15.139,12.338-27.45,27.493-27.45C174.166,68.706,186.49,81.016,186.49,96.155z
		 M118.34,96.155c0,15.151-12.336,27.474-27.492,27.474c-15.149,0-27.473-12.323-27.473-27.474c0-15.139,12.324-27.45,27.473-27.45
		C106.003,68.706,118.34,81.016,118.34,96.155z M231.705,112.765c0,0.039,0,0.08,0,0.12c-0.273,43.332-5.951,70.179-17.045,80.512
		c-6.146,5.725-17.693,9.897-34.621,12.526c-5.601,0.873-11.783,1.575-18.569,2.108l-36.282,37.57l-37.157-37.618
		c-6.759-0.54-12.925-1.252-18.498-2.133c-16.664-2.636-28.044-6.784-34.13-12.454c-11.093-10.333-16.771-37.18-17.04-80.512h-0.002
		c0-0.017,0.002-0.034,0.002-0.053c-0.002-0.065-0.002-0.122-0.002-0.186h0.002c0.027-4.348,0.111-8.521,0.247-12.537l10.811,0.202
		l23.32,0.54c2.34,19.023,18.831,33.75,38.106,33.75c14.447,0,27.488-8.029,34.084-20.709c6.595,12.68,19.639,20.709,34.086,20.709
		c19.275,0,35.766-14.727,38.104-33.75l23.32-0.54l11.015-0.206c0.137,4.016,0.221,8.191,0.248,12.541
		C231.705,112.687,231.705,112.725,231.705,112.765z"/>
</g>
</svg>
