<svg xmlns="http://www.w3.org/2000/svg" viewBox="0 0 512 582"><switch><g><path d="M43.5 452.6V98.9c0-7.1 1.4-13.9 4.1-20.4 2.6-6.2 6.4-11.8 11.2-16.6s10.4-8.6 16.6-11.2c6.5-2.8 13.3-4.2 20.3-4.2h320.6c7 0 13.9 1.4 20.3 4.2 6.2 2.6 11.8 6.4 16.6 11.2s8.5 10.4 11.2 16.6c2.7 6.5 4.1 13.3 4.1 20.4v353.7L256 535.5 43.5 452.6z"/><path d="M45.8 451V98.9c0-6.7 1.3-13.3 4-19.5 2.5-6 6.1-11.3 10.7-15.9s9.9-8.2 15.8-10.7c6.2-2.6 12.7-4 19.4-4h320.6c6.7 0 13.3 1.3 19.4 4 5.9 2.5 11.3 6.1 15.8 10.7 4.6 4.6 8.2 9.9 10.7 15.9 2.6 6.2 4 12.8 4 19.5V451L256 533 45.8 451z" fill="#313131"/><path d="M474.9 74c-3.2-7.6-7.8-14.4-13.6-20.3S448.7 43.2 441.1 40c-7.9-3.4-16.2-5.1-24.8-5.1H95.7c-8.6 0-16.9 1.7-24.8 5.1-7.6 3.2-14.4 7.8-20.2 13.7S40.3 66.4 37.1 74C33.7 81.9 32 90.3 32 98.9v353.7c0 4.8 2.9 9 7.3 10.8l212.5 82.9c1.3.5 2.8.8 4.2.8s2.8-.3 4.2-.8l212.5-82.9c4.4-1.7 7.3-6 7.3-10.8V98.9c0-8.6-1.7-17-5.1-24.9zm-6.4 378.6L256 535.5 43.5 452.6V98.9c0-7.1 1.4-13.9 4.1-20.4 2.6-6.2 6.4-11.8 11.2-16.6s10.4-8.6 16.6-11.2c6.5-2.8 13.3-4.2 20.3-4.2h320.6c7 0 13.9 1.4 20.3 4.2 6.2 2.6 11.8 6.4 16.6 11.2s8.5 10.4 11.2 16.6c2.7 6.5 4.1 13.3 4.1 20.4v353.7z" fill="#fff"/><g opacity=".75"><path d="M102.9 115.8h57.9V83.9h-58.5s-33 0-33 29.7v221.1s-.1 30 33 30h58.5v-32h-58.9v-92.2h44.2V208h-44.2v-92c.3-.1.7-.1 1-.2zM415.6 289.8v42.9H388.8V116c.3-.1.7-.1.9-.1h25.8v43.7h32.6v-46s0-29.7-30.5-29.7H389s-33 0-33 29.7v221.1s-.1 30 33 30h28.6c.6 0 30.4-.2 30.4-29.8v-45h-32.4zM245.4 83.9h-61.6v280.8h32.7V240.2h29c.5 0 30.4-.1 30.4-29.8v-96.8s0-29.7-30.5-29.7zm-2.2 124.4h-26.8v-92.5h26.8v92.5zM298.9 83.9h34.3v280.8h-34.3z"/></g><g fill="#fff"><path d="M99.5 362.4c-10.5 0-18.8-3-24.6-8.8C66 344.7 66 332.1 66 332V110.8C66 81 99.2 80.6 99.5 80.6h59v32.9H99.7v91.1h44.2v33.5H99.7v91.2H158.6v33H99.5z"/><path d="M158.1 81.1V113h-57.9c-.3 0-.6.1-.9.1v92.1h44.2v32.5H99.2V330h58.9v32H99.6c-33.1 0-33-30-33-30V110.8c0-29.7 33-29.7 33-29.7h58.5m1-1H99.5c-.3 0-8.6 0-16.9 3.8-7.8 3.5-17.1 11-17.1 26.9V332c0 .5 0 12.9 9 22 5.9 6 14.3 9 25 9H159v-34h-58.9v-90.2h44.2v-34.5h-44.2v-90.2H159v-34h.1z"/></g><path d="M412.8 287.1V330H386V113.2c.3-.1.7-.1.9-.1h25.8v43.7h32.6v-46s0-29.7-30.5-29.7h-28.6s-33 0-33 29.7V332s-.1 30 33 30h28.6c.6 0 30.4-.2 30.4-29.8v-45h-32.4zM242.7 81.1h-61.6v280.8h32.7V237.4h29c.5 0 30.4-.1 30.4-29.8v-96.8s-.1-29.7-30.5-29.7zm-2.2 124.4h-26.8V113h26.8v92.5zM296.1 81.1h34.3v280.8h-34.3z" fill="#fff"/><g opacity=".75"><path d="M89.5 400v32H127v-11.3h-19.6v-8.6h31.3v17.4c0 9.5-3.1 12-12.8 12H90.3c-9.7 0-12.8-2.4-12.8-12v-26.6c0-9.5 3.1-12 12.8-12h35.6c9.4 0 12.8 2.4 12.8 11.5v1.2l-11.7 2.1V400H89.5zM178.1 391h11.6l29.6 50.6h-13.5l-6.2-11.1h-32.7l-6 11.1h-12l29.2-50.6zm16.5 30.3l-11.1-20.6-11.5 20.6h22.6zM231.5 391h9.7l24.3 30.6 23.8-30.6h9.6v50.6h-11.1v-31.3c0-1 .1-2.7.4-5.4-1.1 2.3-2.1 4.1-3 5.3l-19.4 25.3h-2.4L244 410.1c-1.2-1.6-2.3-3.2-3.1-5.2.2 2.1.3 3.7.3 5.4v31.3h-9.7V391zM314.2 390.7H367v8.6h-40.8v11.3H350v8.6h-23.8v12.5h40.7v9.5h-52.7v-50.5zM392.6 399.5v10.9h32.2c9.7 0 12.9 2.4 12.9 12v7c0 9.5-3.2 12-12.9 12h-31.9c-9.7 0-12.9-2.4-12.9-12V428l10.6-2.2v6h36.5v-11.6h-32.2c-9.7 0-12.8-2.4-12.8-12v-5.6c0-9.5 3.1-12 12.8-12h29.3c9.2 0 12.8 2.4 12.8 11.1v1.1l-10.6 2.4v-5.8h-33.8z"/></g><path d="M87.9 398.1v32h37.5v-11.3h-19.6v-8.6h31.3v17.4c0 9.5-3.1 12-12.8 12H88.7c-9.7 0-12.8-2.4-12.8-12V401c0-9.5 3.1-12 12.8-12h35.6c9.4 0 12.8 2.4 12.8 11.5v1.2l-11.7 2.1v-5.7H87.9zM176.5 389.1h11.6l29.6 50.6h-13.5l-6.2-11.1h-32.7l-6 11.1h-12l29.2-50.6zm16.5 30.4l-11.1-20.6-11.5 20.6H193zM229.9 389.1h9.7l24.3 30.6 23.8-30.6h9.6v50.6h-11.1v-31.3c0-1 .1-2.7.4-5.4-1.1 2.3-2.1 4.1-3 5.3l-19.4 25.3h-2.4l-19.4-25.4c-1.2-1.6-2.3-3.2-3.1-5.2.2 2.1.3 3.7.3 5.4v31.3h-9.7v-50.6zM312.6 388.9h52.8v8.6h-40.8v11.3h23.8v8.6h-23.8v12.5h40.7v9.5h-52.7v-50.5zM391 397.7v10.9h32.2c9.7 0 12.9 2.4 12.9 12v7c0 9.5-3.2 12-12.9 12h-31.9c-9.7 0-12.9-2.4-12.9-12v-1.4L389 424v6h36.5v-11.6h-32.2c-9.7 0-12.8-2.4-12.8-12v-5.6c0-9.5 3.1-12 12.8-12h29.3c9.2 0 12.8 2.4 12.8 11.1v1.1l-10.6 2.4v-5.8H391z" fill="#fff"/><path opacity=".75" d="M344.4 472.7H168.9l87.8 34.2z"/><path fill="#fff" d="M343.7 470.3H168.3l87.7 34.2z"/></g></switch></svg>