<?xml version="1.0" encoding="UTF-8" standalone="no"?>
<svg xmlns:svg="http://www.w3.org/2000/svg" xmlns="http://www.w3.org/2000/svg" version="1.0" width="122.13" height="35.439999" id="svg2" xml:space="preserve"><defs id="defs5"><clipPath id="clipPath19"><path d="M 0,0 L 1224.567,0 L 1224.567,841.89 L 0,841.89 L 0,0 z" id="path21" /></clipPath><clipPath id="clipPath35"><path d="M 28.346,28.347 L 566.929,28.347 L 566.929,422.363 L 28.346,422.363 L 28.346,28.347 z" id="path37" /></clipPath><clipPath id="clipPath47"><path d="M 17.717,518.386 L 276.237,518.386 L 276.237,643.465 L 17.717,643.465 L 17.717,518.386 z" id="path49" /></clipPath><clipPath id="clipPath237"><path d="M 0,0 L 1224.567,0 L 1224.567,841.89 L 0,841.89 L 0,0 z" id="path239" /></clipPath><clipPath id="clipPath333"><path d="M 55.692894,402.78802 L 221.85201,402.78802 L 221.85201,254.11902 L 55.692894,254.11902 L 55.692894,402.78802 z" id="path335" /></clipPath><clipPath id="clipPath379"><path d="M 657.638,28.346 L 1196.221,28.346 L 1196.221,422.362 L 657.638,422.362 L 657.638,28.346 z" id="path381" /></clipPath><clipPath id="clipPath391"><path d="M 0,0 L 1224.567,0 L 1224.567,841.89 L 0,841.89 L 0,0 z" id="path393" /></clipPath><clipPath id="clipPath403"><path d="M 646.299,680.079 L 829.323,680.079 L 829.323,741.024 L 646.299,741.024 L 646.299,680.079 z" id="path405" /></clipPath><clipPath id="clipPath543"><path d="M 0,0 L 1224.567,0 L 1224.567,841.89 L 0,841.89 L 0,0 z" id="path545" /></clipPath><clipPath id="clipPath555"><path d="M 589.606,683.149 L 639.446,683.149 L 639.446,772.441 L 589.606,772.441 L 589.606,683.149 z" id="path557" /></clipPath><clipPath id="clipPath755"><path d="M 0,0 L 1224.567,0 L 1224.567,841.89 L 0,841.89 L 0,0 z" id="path757" /></clipPath></defs><g transform="matrix(1.25,0,0,-1.25,-985.8033,899.76508)" id="g11"><g transform="matrix(0.5632506,0,0,0.5632506,419.07671,304.3971)" id="g399"><g clip-path="url(#clipPath403)" id="g401"><g transform="translate(755.0463,703.2739)" id="g407"><path d="M 0,0 C 1.082,1.082 1.525,2.78 1.525,5.691 C 1.525,9.654 0.171,11.721 -2.437,11.721 C -5.349,11.721 -7.107,9.315 -7.107,5.283 C -7.107,1.423 -5.282,-1.017 -2.437,-1.017 C -1.487,-1.017 -0.635,-0.672 0,0 M -7.107,9.855 C -6.189,11.853 -4.972,14.119 -1.595,14.119 C 2.099,14.119 4.539,10.698 4.539,5.484 C 4.539,0.107 2.03,-3.383 -1.825,-3.383 C -4.875,-3.383 -6.023,-1.248 -7.081,0.887 L -7.081,-9.406 L -9.919,-9.406 L -9.919,13.781 L -7.107,13.781 L -7.107,9.855 z" id="path409" style="fill:#007dc3;fill-opacity:1;fill-rule:nonzero;stroke:none" /></g><g transform="translate(773.3878,710.0209)" id="g411"><path d="M 0,0 C -0.273,5.173 -3.859,5.173 -4.299,5.173 C -6.939,5.173 -8.528,3.31 -8.695,0 L 0,0 z M 2.703,-5.387 C 2.068,-6.808 1.693,-7.351 0.945,-8.099 C -0.474,-9.49 -2.273,-10.193 -4.299,-10.193 C -8.736,-10.193 -11.716,-6.612 -11.716,-1.359 C -11.716,3.856 -8.63,7.477 -4.164,7.477 C -0.066,7.477 2.942,4.091 2.942,-0.482 C 2.942,-0.988 2.908,-1.564 2.882,-2.28 L -8.773,-2.28 C -8.497,-7.927 -4.667,-7.927 -4.063,-7.927 C -0.851,-7.927 0.067,-5.29 0.434,-4.27 L 2.703,-5.387 z" id="path413" style="fill:#007dc3;fill-opacity:1;fill-rule:nonzero;stroke:none" /></g><g transform="translate(782.2104,713.8061)" id="g415"><path d="M 0,0 C 0.847,1.556 1.994,3.656 4.43,3.656 C 4.774,3.656 5.178,3.625 5.614,3.587 L 5.614,0.643 C 4.909,0.749 4.57,0.773 4.161,0.773 C 1.695,0.773 -0.038,-1.02 -0.038,-3.554 L -0.038,-13.473 L -2.844,-13.473 L -2.844,3.249 L 0,3.249 L 0,0 z" id="path417" style="fill:#007dc3;fill-opacity:1;fill-rule:nonzero;stroke:none" /></g><g transform="translate(828.0713,700.2949)" id="g419"><path d="M 0,0 L -2.841,0 L -2.841,10.767 C -2.841,13.267 -4.125,14.73 -6.291,14.73 C -8.766,14.73 -10.533,12.997 -10.533,10.563 L -10.533,0 L -13.37,0 L -13.37,16.725 L -10.533,16.725 L -10.533,13.744 C -8.972,16.018 -7.145,17.162 -5.078,17.162 C -2.059,17.162 0,14.933 0,11.616 L 0,0 z" id="path421" style="fill:#007dc3;fill-opacity:1;fill-rule:nonzero;stroke:none" /></g><g transform="translate(712.6091,724.8531)" id="g423"><path d="M 0,0 L 15.217,0 L 14.296,-2.747 L 3.187,-2.747 L 3.187,-10.487 L 13.263,-10.487 L 13.263,-13.258 L 3.187,-13.258 L 3.187,-21.75 L 14.329,-21.75 L 15.316,-24.521 L 0,-24.521 L 0,0 z" id="path425" style="fill:#007dc3;fill-opacity:1;fill-rule:nonzero;stroke:none" /></g><g transform="translate(729.2203,717.1321)" id="g427"><path d="M 0,0 L 3.026,0 L 6.42,-5.445 L 9.621,0 L 12.579,0 L 7.952,-7.926 L 13.462,-16.799 L 10.433,-16.799 L 6.456,-10.442 L 2.751,-16.799 L -0.274,-16.799 L 4.927,-7.958 L 0,0 z" id="path429" style="fill:#007dc3;fill-opacity:1;fill-rule:nonzero;stroke:none" /></g><g transform="translate(791.079,704.0474)" id="g431"><path d="M 0,0 L 0,1.712 L 0,4.448 L 0,7.848 L 0,9.846 L 0,12.973 L 1.46,12.973 L 2.845,12.973 L 2.845,10.559 L 2.845,7.991 L 2.845,4.692 L 2.845,2.997 L 2.845,0 L 2.845,-3.753 L 1.46,-3.753 L 0,-3.753 L 0,0 z" id="path433" style="fill:#007dc3;fill-opacity:1;fill-rule:nonzero;stroke:none" /></g><g transform="translate(794.1664,721.3779)" id="g435"><path d="M 0,0 C 0,-0.747 -0.61,-1.359 -1.36,-1.359 L -1.981,-1.359 C -2.727,-1.359 -3.338,-0.747 -3.338,0 L -3.338,0.621 C -3.338,1.371 -2.727,1.979 -1.981,1.979 L -1.36,1.979 C -0.61,1.979 0,1.371 0,0.621 L 0,0 z" id="path437" style="fill:#007dc3;fill-opacity:1;fill-rule:nonzero;stroke:none" /></g><g transform="translate(806.0557,703.4494)" id="g439"><path d="M 0,0 C -0.887,-0.847 -1.775,-1.355 -2.926,-1.355 C -4.801,-1.355 -6.237,-0.061 -6.237,1.767 C -6.237,2.585 -5.898,3.393 -5.346,4.004 C -4.605,4.885 -3.546,5.558 -1.609,5.93 C -0.715,6.099 -0.038,6.035 1.49,5.739 L 1.497,4.25 C 1.497,2.146 1.116,1.087 0,0 M 4.191,0.921 L 4.225,8.772 C 4.225,10.531 4.186,14.116 -1.944,14.079 C -5.238,14.064 -7.739,12.333 -7.739,12.333 L -6.869,10.025 C -6.869,10.025 -4.202,11.754 -1.889,11.754 C 1.225,11.76 1.497,10.062 1.497,8.736 L 1.497,7.261 C 1.497,7.261 -0.319,7.767 -1.905,7.65 C -4.624,7.447 -6.322,6.732 -7.513,5.508 C -8.465,4.529 -9.001,3.131 -9.001,1.803 C -9.001,-1.324 -6.838,-3.664 -3.878,-3.664 C -0.96,-3.664 0.472,-1.593 1.463,-0.372 C 1.463,-1.833 1.509,-3.664 3.715,-3.664 C 4.191,-3.664 4.631,-3.564 5.512,-3.29 L 5.512,-1.355 C 4.291,-1.324 4.191,-1.15 4.191,0.921" id="path441" style="fill:#007dc3;fill-opacity:1;fill-rule:nonzero;stroke:none" /></g><g transform="translate(669.7179,728.0535)" id="g443"><path d="M 0,0 L -1.391,0 C -2.891,0 -4.106,-1.217 -4.106,-2.717 L -4.106,-4.107 C -4.106,-5.605 -2.891,-6.823 -1.391,-6.823 L 0,-6.823 C 1.492,-6.823 2.71,-5.605 2.71,-4.107 L 2.71,-2.717 C 2.71,-1.217 1.492,0 0,0" id="path445" style="fill:#007dc3;fill-opacity:1;fill-rule:nonzero;stroke:none" /></g><g transform="translate(677.8358,728.0535)" id="g447"><path d="M 0,0 L -1.391,0 C -2.891,0 -4.105,-1.217 -4.105,-2.717 L -4.105,-4.107 C -4.105,-5.605 -2.891,-6.823 -1.391,-6.823 L 0,-6.823 C 1.492,-6.823 2.711,-5.605 2.711,-4.107 L 2.711,-2.717 C 2.711,-1.217 1.492,0 0,0" id="path449" style="fill:#007dc3;fill-opacity:1;fill-rule:nonzero;stroke:none" /></g><g transform="translate(685.9537,728.0535)" id="g451"><path d="M 0,0 L -1.39,0 C -2.891,0 -4.106,-1.217 -4.106,-2.717 L -4.106,-4.107 C -4.106,-5.605 -2.891,-6.823 -1.39,-6.823 L 0,-6.823 C 1.492,-6.823 2.71,-5.605 2.71,-4.107 L 2.71,-2.717 C 2.71,-1.217 1.492,0 0,0" id="path453" style="fill:#007dc3;fill-opacity:1;fill-rule:nonzero;stroke:none" /></g><g transform="translate(694.0719,728.0535)" id="g455"><path d="M 0,0 L -1.391,0 C -2.891,0 -4.105,-1.217 -4.105,-2.717 L -4.105,-4.107 C -4.105,-5.605 -2.891,-6.823 -1.391,-6.823 L 0,-6.823 C 1.492,-6.823 2.711,-5.605 2.711,-4.107 L 2.711,-2.717 C 2.711,-1.217 1.492,0 0,0" id="path457" style="fill:#007dc3;fill-opacity:1;fill-rule:nonzero;stroke:none" /></g><g transform="translate(669.7179,719.9333)" id="g459"><path d="M 0,0 L -1.391,0 C -2.891,0 -4.106,-1.218 -4.106,-2.718 L -4.106,-4.107 C -4.106,-5.606 -2.891,-6.823 -1.391,-6.823 L 0,-6.823 C 1.492,-6.823 2.71,-5.606 2.71,-4.107 L 2.71,-2.718 C 2.71,-1.218 1.492,0 0,0" id="path461" style="fill:#007dc3;fill-opacity:1;fill-rule:nonzero;stroke:none" /></g><g transform="translate(694.0719,719.9333)" id="g463"><path d="M 0,0 L -1.391,0 C -2.891,0 -4.105,-1.218 -4.105,-2.718 L -4.105,-4.107 C -4.105,-5.606 -2.891,-6.823 -1.391,-6.823 L 0,-6.823 C 1.492,-6.823 2.711,-5.606 2.711,-4.107 L 2.711,-2.718 C 2.711,-1.218 1.492,0 0,0" id="path465" style="fill:#007dc3;fill-opacity:1;fill-rule:nonzero;stroke:none" /></g><g transform="translate(669.7179,711.8125)" id="g467"><path d="M 0,0 L -1.391,0 C -2.891,0 -4.106,-1.217 -4.106,-2.717 L -4.106,-4.107 C -4.106,-5.605 -2.891,-6.823 -1.391,-6.823 L 0,-6.823 C 1.492,-6.823 2.71,-5.605 2.71,-4.107 L 2.71,-2.717 C 2.71,-1.217 1.492,0 0,0" id="path469" style="fill:#007dc3;fill-opacity:1;fill-rule:nonzero;stroke:none" /></g><g transform="translate(694.0719,711.8125)" id="g471"><path d="M 0,0 L -1.391,0 C -2.891,0 -4.105,-1.217 -4.105,-2.717 L -4.105,-4.107 C -4.105,-5.605 -2.891,-6.823 -1.391,-6.823 L 0,-6.823 C 1.492,-6.823 2.711,-5.605 2.711,-4.107 L 2.711,-2.717 C 2.711,-1.217 1.492,0 0,0" id="path473" style="fill:#007dc3;fill-opacity:1;fill-rule:nonzero;stroke:none" /></g><g transform="translate(669.7179,703.6923)" id="g475"><path d="M 0,0 L -1.391,0 C -2.891,0 -4.106,-1.218 -4.106,-2.718 L -4.106,-4.107 C -4.106,-5.605 -2.891,-6.823 -1.391,-6.823 L 0,-6.823 C 1.492,-6.823 2.71,-5.605 2.71,-4.107 L 2.71,-2.718 C 2.71,-1.218 1.492,0 0,0" id="path477" style="fill:#007dc3;fill-opacity:1;fill-rule:nonzero;stroke:none" /></g><g transform="translate(677.8358,703.6923)" id="g479"><path d="M 0,0 L -1.391,0 C -2.891,0 -4.105,-1.218 -4.105,-2.718 L -4.105,-4.107 C -4.105,-5.605 -2.891,-6.823 -1.391,-6.823 L 0,-6.823 C 1.492,-6.823 2.711,-5.605 2.711,-4.107 L 2.711,-2.718 C 2.711,-1.218 1.492,0 0,0" id="path481" style="fill:#007dc3;fill-opacity:1;fill-rule:nonzero;stroke:none" /></g><g transform="translate(685.9537,703.6923)" id="g483"><path d="M 0,0 L -1.39,0 C -2.891,0 -4.106,-1.218 -4.106,-2.718 L -4.106,-4.107 C -4.106,-5.605 -2.891,-6.823 -1.39,-6.823 L 0,-6.823 C 1.492,-6.823 2.71,-5.605 2.71,-4.107 L 2.71,-2.718 C 2.71,-1.218 1.492,0 0,0" id="path485" style="fill:#007dc3;fill-opacity:1;fill-rule:nonzero;stroke:none" /></g><g transform="translate(694.0719,703.6923)" id="g487"><path d="M 0,0 L -1.391,0 C -2.891,0 -4.105,-1.218 -4.105,-2.718 L -4.105,-4.107 C -4.105,-5.605 -2.891,-6.823 -1.391,-6.823 L 0,-6.823 C 1.492,-6.823 2.711,-5.605 2.711,-4.107 L 2.711,-2.718 C 2.711,-1.218 1.492,0 0,0" id="path489" style="fill:#007dc3;fill-opacity:1;fill-rule:nonzero;stroke:none" /></g><g transform="translate(702.7816,736.211)" id="g491"><path d="M 0,0 L -1.129,0 C -2.312,0 -3.276,-0.965 -3.276,-2.151 L -3.276,-3.272 C -3.276,-4.46 -2.312,-5.422 -1.129,-5.422 L 0,-5.422 C 1.185,-5.422 2.15,-4.46 2.15,-3.272 L 2.15,-2.151 C 2.15,-0.965 1.185,0 0,0" id="path493" style="fill:#007dc3;fill-opacity:1;fill-rule:nonzero;stroke:none" /></g><g transform="translate(685.809,736.211)" id="g495"><path d="M 0,0 L -1.129,0 C -2.313,0 -3.276,-0.965 -3.276,-2.151 L -3.276,-3.272 C -3.276,-4.46 -2.313,-5.422 -1.129,-5.422 L 0,-5.422 C 1.184,-5.422 2.149,-4.46 2.149,-3.272 L 2.149,-2.151 C 2.149,-0.965 1.184,0 0,0" id="path497" style="fill:#ed174c;fill-opacity:1;fill-rule:nonzero;stroke:none" /></g><g transform="translate(677.692,736.211)" id="g499"><path d="M 0,0 L -1.129,0 C -2.313,0 -3.276,-0.965 -3.276,-2.151 L -3.276,-3.272 C -3.276,-4.46 -2.313,-5.422 -1.129,-5.422 L 0,-5.422 C 1.185,-5.422 2.151,-4.46 2.151,-3.272 L 2.151,-2.151 C 2.151,-0.965 1.185,0 0,0" id="path501" style="fill:#007dc3;fill-opacity:1;fill-rule:nonzero;stroke:none" /></g><g transform="translate(660.7269,736.211)" id="g503"><path d="M 0,0 L -1.129,0 C -2.313,0 -3.276,-0.965 -3.276,-2.151 L -3.276,-3.272 C -3.276,-4.46 -2.313,-5.422 -1.129,-5.422 L 0,-5.422 C 1.184,-5.422 2.15,-4.46 2.15,-3.272 L 2.15,-2.151 C 2.15,-0.965 1.184,0 0,0" id="path505" style="fill:#ed174c;fill-opacity:1;fill-rule:nonzero;stroke:none" /></g><g transform="translate(660.7269,719.2248)" id="g507"><path d="M 0,0 L -1.129,0 C -2.313,0 -3.276,-0.965 -3.276,-2.15 L -3.276,-3.273 C -3.276,-4.46 -2.313,-5.422 -1.129,-5.422 L 0,-5.422 C 1.184,-5.422 2.15,-4.46 2.15,-3.273 L 2.15,-2.15 C 2.15,-0.965 1.184,0 0,0" id="path509" style="fill:#007dc3;fill-opacity:1;fill-rule:nonzero;stroke:none" /></g><g transform="translate(660.7269,702.9793)" id="g511"><path d="M 0,0 L -1.129,0 C -2.313,0 -3.276,-0.965 -3.276,-2.15 L -3.276,-3.273 C -3.276,-4.46 -2.313,-5.422 -1.129,-5.422 L 0,-5.422 C 1.184,-5.422 2.15,-4.46 2.15,-3.273 L 2.15,-2.15 C 2.15,-0.965 1.184,0 0,0" id="path513" style="fill:#ed174c;fill-opacity:1;fill-rule:nonzero;stroke:none" /></g><g transform="translate(702.7816,719.23)" id="g515"><path d="M 0,0 L -1.129,0 C -2.312,0 -3.276,-0.965 -3.276,-2.151 L -3.276,-3.273 C -3.276,-4.46 -2.312,-5.422 -1.129,-5.422 L 0,-5.422 C 1.185,-5.422 2.15,-4.46 2.15,-3.273 L 2.15,-2.151 C 2.15,-0.965 1.185,0 0,0" id="path517" style="fill:#ed174c;fill-opacity:1;fill-rule:nonzero;stroke:none" /></g><g transform="translate(702.7816,711.1184)" id="g519"><path d="M 0,0 L -1.129,0 C -2.312,0 -3.276,-0.965 -3.276,-2.15 L -3.276,-3.274 C -3.276,-4.46 -2.312,-5.423 -1.129,-5.423 L 0,-5.423 C 1.185,-5.423 2.15,-4.46 2.15,-3.274 L 2.15,-2.15 C 2.15,-0.965 1.185,0 0,0" id="path521" style="fill:#007dc3;fill-opacity:1;fill-rule:nonzero;stroke:none" /></g><g transform="translate(702.7816,694.1427)" id="g523"><path d="M 0,0 L -1.129,0 C -2.312,0 -3.276,-0.966 -3.276,-2.151 L -3.276,-3.273 C -3.276,-4.461 -2.312,-5.423 -1.129,-5.423 L 0,-5.423 C 1.185,-5.423 2.15,-4.461 2.15,-3.273 L 2.15,-2.151 C 2.15,-0.966 1.185,0 0,0" id="path525" style="fill:#ed174c;fill-opacity:1;fill-rule:nonzero;stroke:none" /></g><g transform="translate(685.816,694.1427)" id="g527"><path d="M 0,0 L -1.129,0 C -2.313,0 -3.276,-0.966 -3.276,-2.151 L -3.276,-3.273 C -3.276,-4.461 -2.313,-5.423 -1.129,-5.423 L 0,-5.423 C 1.184,-5.423 2.15,-4.461 2.15,-3.273 L 2.15,-2.151 C 2.15,-0.966 1.184,0 0,0" id="path529" style="fill:#007dc3;fill-opacity:1;fill-rule:nonzero;stroke:none" /></g><g transform="translate(669.5834,694.1427)" id="g531"><path d="M 0,0 L -1.129,0 C -2.313,0 -3.276,-0.966 -3.276,-2.151 L -3.276,-3.273 C -3.276,-4.461 -2.313,-5.423 -1.129,-5.423 L 0,-5.423 C 1.185,-5.423 2.15,-4.461 2.15,-3.273 L 2.15,-2.151 C 2.15,-0.966 1.185,0 0,0" id="path533" style="fill:#ed174c;fill-opacity:1;fill-rule:nonzero;stroke:none" /></g></g></g></g></svg>