<svg xmlns="http://www.w3.org/2000/svg" version="1" width="122.13" height="35.44"><defs><clipPath id="a"><path d="M646.299 680.079h183.024v60.945H646.299v-60.945z"/></clipPath></defs><g clip-path="url(#a)" transform="matrix(.70406 0 0 -.70406 -461.957 519.269)"><path d="M755.046 703.274c1.082 1.082 1.525 2.78 1.525 5.69 0 3.964-1.354 6.03-3.962 6.03-2.912 0-4.67-2.405-4.67-6.437 0-3.86 1.825-6.3 4.67-6.3.95 0 1.802.345 2.437 1.017m-7.107 9.855c.918 1.998 2.135 4.264 5.512 4.264 3.694 0 6.134-3.421 6.134-8.635 0-5.377-2.509-8.867-6.364-8.867-3.05 0-4.198 2.135-5.256 4.27v-10.293h-2.838v23.187h2.812v-3.926zM773.388 710.02c-.273 5.174-3.86 5.174-4.3 5.174-2.64 0-4.228-1.863-4.395-5.173h8.695zm2.703-5.386c-.635-1.421-1.01-1.964-1.758-2.712-1.42-1.391-3.218-2.094-5.244-2.094-4.437 0-7.417 3.58-7.417 8.834 0 5.215 3.086 8.836 7.552 8.836 4.098 0 7.106-3.386 7.106-7.96 0-.505-.034-1.081-.06-1.797h-11.655c.276-5.647 4.106-5.647 4.71-5.647 3.212 0 4.13 2.637 4.497 3.657l2.269-1.117zM782.21 713.806c.847 1.556 1.994 3.656 4.43 3.656.344 0 .748-.03 1.184-.069v-2.944c-.705.106-1.044.13-1.453.13-2.466 0-4.199-1.793-4.199-4.327v-9.919h-2.806v16.722h2.844v-3.249zM828.071 700.295h-2.84v10.767c0 2.5-1.285 3.963-3.45 3.963-2.476 0-4.243-1.733-4.243-4.167v-10.563h-2.837v16.725h2.837v-2.981c1.561 2.274 3.388 3.418 5.455 3.418 3.02 0 5.078-2.23 5.078-5.546v-11.616zM712.61 724.853h15.216l-.92-2.747h-11.11v-7.74h10.076v-2.77h-10.076v-8.493h11.142l.987-2.77H712.61v24.52zM729.22 717.132h3.026l3.394-5.445 3.201 5.445h2.958l-4.627-7.926 5.51-8.873h-3.029l-3.977 6.357-3.705-6.357h-3.025l5.201 8.841-4.927 7.958zM791.079 704.047V717.02H793.924v-16.726H791.079v3.753zM794.166 721.378c0-.747-.61-1.36-1.36-1.36h-.62c-.747 0-1.358.613-1.358 1.36v.62c0 .75.611 1.359 1.357 1.359h.621c.75 0 1.36-.608 1.36-1.358v-.621zM806.056 703.45c-.887-.848-1.775-1.356-2.926-1.356-1.875 0-3.311 1.294-3.311 3.122 0 .818.339 1.626.89 2.237.742.881 1.8 1.554 3.738 1.926.894.17 1.57.105 3.099-.19l.007-1.49c0-2.104-.381-3.163-1.497-4.25m4.19.921l.035 7.851c0 1.76-.04 5.344-6.17 5.307-3.293-.015-5.794-1.746-5.794-1.746l.87-2.308s2.667 1.73 4.98 1.73c3.114.005 3.386-1.693 3.386-3.019v-1.475s-1.816.506-3.402.39c-2.72-.204-4.417-.919-5.608-2.143-.952-.979-1.488-2.377-1.488-3.705 0-3.127 2.163-5.467 5.123-5.467 2.918 0 4.35 2.071 5.34 3.292 0-1.46.047-3.292 2.253-3.292.476 0 .916.1 1.797.374v1.935c-1.221.031-1.321.205-1.321 2.276M669.718 728.053h-1.391a2.716 2.716 0 0 1-2.715-2.717v-1.39a2.716 2.716 0 0 1 2.715-2.716h1.39a2.717 2.717 0 0 1 2.71 2.716v1.39c0 1.5-1.217 2.717-2.71 2.717M677.836 728.053h-1.391a2.715 2.715 0 0 1-2.714-2.717v-1.39a2.716 2.716 0 0 1 2.714-2.716h1.39a2.718 2.718 0 0 1 2.712 2.716v1.39c0 1.5-1.22 2.717-2.711 2.717M685.954 728.053h-1.39a2.716 2.716 0 0 1-2.716-2.717v-1.39a2.717 2.717 0 0 1 2.716-2.716h1.39a2.717 2.717 0 0 1 2.71 2.716v1.39c0 1.5-1.218 2.717-2.71 2.717M694.072 728.053h-1.391a2.715 2.715 0 0 1-2.714-2.717v-1.39a2.716 2.716 0 0 1 2.714-2.716h1.39a2.718 2.718 0 0 1 2.712 2.716v1.39c0 1.5-1.22 2.717-2.711 2.717M669.718 719.933h-1.391a2.717 2.717 0 0 1-2.715-2.718v-1.389a2.716 2.716 0 0 1 2.715-2.716h1.39a2.717 2.717 0 0 1 2.71 2.716v1.39c0 1.5-1.217 2.717-2.71 2.717M694.072 719.933h-1.391a2.716 2.716 0 0 1-2.714-2.718v-1.389a2.715 2.715 0 0 1 2.714-2.716h1.39a2.718 2.718 0 0 1 2.712 2.716v1.39c0 1.5-1.22 2.717-2.711 2.717M669.718 711.813h-1.391a2.716 2.716 0 0 1-2.715-2.717v-1.39a2.716 2.716 0 0 1 2.715-2.716h1.39a2.717 2.717 0 0 1 2.71 2.716v1.39c0 1.5-1.217 2.717-2.71 2.717M694.072 711.813h-1.391a2.715 2.715 0 0 1-2.714-2.717v-1.39a2.716 2.716 0 0 1 2.714-2.716h1.39a2.718 2.718 0 0 1 2.712 2.716v1.39c0 1.5-1.22 2.717-2.711 2.717M669.718 703.692h-1.391a2.717 2.717 0 0 1-2.715-2.718v-1.389a2.716 2.716 0 0 1 2.715-2.716h1.39a2.717 2.717 0 0 1 2.71 2.716v1.39c0 1.5-1.217 2.717-2.71 2.717M677.836 703.692h-1.391a2.716 2.716 0 0 1-2.714-2.718v-1.389a2.716 2.716 0 0 1 2.714-2.716h1.39a2.718 2.718 0 0 1 2.712 2.716v1.39c0 1.5-1.22 2.717-2.711 2.717M685.954 703.692h-1.39a2.717 2.717 0 0 1-2.716-2.718v-1.389a2.717 2.717 0 0 1 2.716-2.716h1.39a2.717 2.717 0 0 1 2.71 2.716v1.39c0 1.5-1.218 2.717-2.71 2.717M694.072 703.692h-1.391a2.716 2.716 0 0 1-2.714-2.718v-1.389a2.716 2.716 0 0 1 2.714-2.716h1.39a2.718 2.718 0 0 1 2.712 2.716v1.39c0 1.5-1.22 2.717-2.711 2.717M702.782 736.211h-1.13a2.152 2.152 0 0 1-2.146-2.151v-1.121a2.15 2.15 0 0 1 2.147-2.15h1.129c1.185 0 2.15.962 2.15 2.15v1.121a2.153 2.153 0 0 1-2.15 2.151" fill="#007dc3"/><path d="M685.809 736.211h-1.129a2.151 2.151 0 0 1-2.147-2.151v-1.121a2.15 2.15 0 0 1 2.147-2.15h1.129c1.184 0 2.149.962 2.149 2.15v1.121a2.153 2.153 0 0 1-2.149 2.151" fill="#ed174c"/><path d="M677.692 736.211h-1.129a2.151 2.151 0 0 1-2.147-2.151v-1.121a2.15 2.15 0 0 1 2.147-2.15h1.129c1.185 0 2.151.962 2.151 2.15v1.121a2.154 2.154 0 0 1-2.151 2.151" fill="#007dc3"/><path d="M660.727 736.211h-1.13a2.151 2.151 0 0 1-2.146-2.151v-1.121a2.15 2.15 0 0 1 2.147-2.15h1.129c1.184 0 2.15.962 2.15 2.15v1.121a2.154 2.154 0 0 1-2.15 2.151" fill="#ed174c"/><path d="M660.727 719.225h-1.13a2.151 2.151 0 0 1-2.146-2.15v-1.123c0-1.187.963-2.15 2.147-2.15h1.129c1.184 0 2.15.963 2.15 2.15v1.123c0 1.185-.966 2.15-2.15 2.15" fill="#007dc3"/><path d="M660.727 702.98h-1.13a2.151 2.151 0 0 1-2.146-2.15v-1.124c0-1.187.963-2.149 2.147-2.149h1.129c1.184 0 2.15.962 2.15 2.15v1.122c0 1.185-.966 2.15-2.15 2.15M702.782 719.23h-1.13a2.152 2.152 0 0 1-2.146-2.151v-1.122a2.15 2.15 0 0 1 2.147-2.149h1.129c1.185 0 2.15.962 2.15 2.149v1.122a2.153 2.153 0 0 1-2.15 2.151" fill="#ed174c"/><path d="M702.782 711.118h-1.13a2.152 2.152 0 0 1-2.146-2.15v-1.124a2.15 2.15 0 0 1 2.147-2.149h1.129c1.185 0 2.15.963 2.15 2.15v1.123c0 1.185-.965 2.15-2.15 2.15" fill="#007dc3"/><path d="M702.782 694.143h-1.13a2.153 2.153 0 0 1-2.146-2.151v-1.122a2.15 2.15 0 0 1 2.147-2.15h1.129c1.185 0 2.15.962 2.15 2.15v1.122a2.154 2.154 0 0 1-2.15 2.15" fill="#ed174c"/><path d="M685.816 694.143h-1.129a2.152 2.152 0 0 1-2.147-2.151v-1.122a2.15 2.15 0 0 1 2.147-2.15h1.129c1.184 0 2.15.962 2.15 2.15v1.122a2.155 2.155 0 0 1-2.15 2.15" fill="#007dc3"/><path d="M669.583 694.143h-1.129a2.152 2.152 0 0 1-2.147-2.151v-1.122a2.15 2.15 0 0 1 2.147-2.15h1.13c1.184 0 2.15.962 2.15 2.15v1.122a2.154 2.154 0 0 1-2.15 2.15" fill="#ed174c"/></g></svg>