<svg version="1.2" baseProfile="tiny" xmlns="http://www.w3.org/2000/svg" viewBox="0 0 230 90.8" overflow="scroll"><path fill="#FFF" d="M0 0h37.5c.2.7.6 2 .7 2.7-11.9.1-23.8 0-35.8 0v33.7h29.3v9H2.5v43.5H0V0zM74.6 17.4c-2.8-5.1-.3-12.3 5.5-13.9 5.6-2 11.1 1.7 14.2 6.2-1.2.9-2.3 1.8-3.5 2.7-2.2-2.5-4.9-5.8-8.6-4.9-3.9.5-5.4 5.5-3.1 8.4 3.2 3.9 7.9 6 11.3 9.7 3.1 2.8 5.2 7.1 4.2 11.3-1.2 6-7.9 9.9-13.7 8.5-4.7-.7-7.9-4.6-10.1-8.5 1.2-.7 2.4-1.5 3.6-2.2 2 2.7 4 6.1 7.7 6.6 4.5.7 9.4-3.8 7.8-8.4-3.1-6.8-11.5-9.1-15.3-15.5zM102.7 4h4.3v17h20.3V4h1.3v40.8l-1.2-.1V25.3h-20.3v19.5h-4.3c-.1-13.6-.1-27.2-.1-40.8zM138.5 4h4.3v40.7h-4.2c-.1-13.5-.1-27.1-.1-40.7zM199.9 3.4c2.8 2.5 5 5.5 7.4 8.4 7.2 8.6 14.3 17.3 21.5 26 .1-11.3 0-22.5 0-33.8h1c-.1 13.8.3 27.6-.2 41.4-8.7-10.1-17-20.7-25.5-31v30.3c-1.4 0-2.8 0-4.2-.1-.1-13.7-.3-27.4 0-41.2zM187 9c-5.2-5.3-13.4-7-20.5-5.3-9.4 2.2-16.4 11.6-15.8 21.3-.3 10.1 8.2 19.4 18.2 20.5 6.9 1 14.3-1.4 19-6.6 7.7-8 7.4-22.3-.9-29.9zm-14 32.5c-9.6.9-18.6-7.9-18-17.5.1-7.7 5.9-14.7 13.5-16.3 9.9-2.5 20.6 6.1 20.5 16.3.5 8.9-7 17.2-16 17.5z"/><path fill="#FF002B" d="M64.4 0h-1.8c-14.1 29.6-28 59.3-42 89h10.2c4.6-9.8 9.2-19.5 13.9-29.3h17.8v30.2h2c0-29.9.1-59.9-.1-89.9zm-1.9 51H48.8c4.5-9.9 9.4-19.5 13.8-29.5-.2 9.8-.1 19.7-.1 29.5z"/><path fill="#FFF" d="M171.8 59.2c-1.4-6.4 5.1-12.2 11.3-11 4.1.4 7.1 3.5 9.4 6.6-1.2.9-2.3 1.8-3.5 2.7-2-2-3.8-4.8-7-5-3.1-.4-6.2 2.2-6 5.3.5 4.1 4.6 6.3 7.5 8.6 4.5 3.3 9.6 7.5 9.5 13.6-.1 6.8-7.4 12-13.9 10.4-4.8-.6-7.9-4.6-10.2-8.4 1.2-.8 2.5-1.5 3.7-2.3 1.8 2.5 3.5 5.4 6.6 6.4 4.7 1.7 10.5-3.1 9-8.1-3.4-8-14.8-9.8-16.4-18.8zM70.9 48.4c10 11 19 22.9 28.6 34.2V49h1.3c-.2 13.8.3 27.7-.3 41.5-8.7-10.1-17-20.6-25.5-30.9v30.2h-4.2c0-13.8-.2-27.6.1-41.4zM106.5 49h22.3v4.3h-9v36.5h-4.2V53.3h-9c-.1-1.5-.1-2.9-.1-4.3zM199.6 49h5.1c3.4 5.5 6.9 11 10.3 16.6 3.4-5.5 6.7-11.1 10.1-16.6h4.9c-3.9 6.4-7.8 12.9-11.7 19.3-.6 1.1-1.5 2.2-1.3 3.5-.1 6 0 11.9 0 17.9h-4.2c-.1-6.5.2-13-.1-19.5-4.2-7.1-8.8-14.1-13.1-21.2zM149.2 50.6c-.2-1.1-1.7-2.8-2.3-.8-6.4 13.2-12.5 26.6-18.9 39.9h4.8c2.1-4.4 4.2-8.9 6.3-13.3 5.7.1 11.5 0 17.2 0 2.1 4.4 4.1 8.9 6.4 13.3h4.7c-6.1-13-12.1-26-18.2-39.1zm-9 24.6c2.6-5.7 5.2-11.3 7.7-17 2.5 5.7 5.1 11.4 7.6 17.1-5.1-.1-10.2 0-15.3-.1z"/></svg>