<svg version="1.2" baseProfile="tiny" id="Layer_1" xmlns="http://www.w3.org/2000/svg" xmlns:xlink="http://www.w3.org/1999/xlink"	 x="0px" y="0px" viewBox="0 0 230 90.8" overflow="scroll" xml:space="preserve"><path fill="#FFFFFF" d="M0,0h37.5c0.2,0.7,0.6,2,0.7,2.7c-11.9,0.1-23.8,0-35.8,0c0,11.3,0,22.5,0,33.7c9.8,0,19.5,0,29.3,0	c0,3,0,6,0,9c-9.8,0-19.5,0-29.2,0c0,14.5,0,29,0,43.5c-0.6,0-1.9,0-2.5,0V0L0,0z"/><path fill="#FFFFFF" d="M74.6,17.4c-2.8-5.1-0.3-12.3,5.5-13.9c5.6-2,11.1,1.7,14.2,6.2c-1.2,0.9-2.3,1.8-3.5,2.7	c-2.2-2.5-4.9-5.8-8.6-4.9c-3.9,0.5-5.4,5.5-3.1,8.4c3.2,3.9,7.9,6,11.3,9.7c3.1,2.8,5.2,7.1,4.2,11.3c-1.2,6-7.9,9.9-13.7,8.5	c-4.7-0.7-7.9-4.6-10.1-8.5c1.2-0.7,2.4-1.5,3.6-2.2c2,2.7,4,6.1,7.7,6.6c4.5,0.7,9.4-3.8,7.8-8.4C86.8,26.1,78.4,23.8,74.6,17.4	L74.6,17.4z"/><path fill="#FFFFFF" d="M102.7,4c1.4,0,2.8,0,4.3,0c0,5.7,0,11.3,0,17c6.8,0,13.5,0,20.3,0c0-5.7,0-11.3,0-17l1.3,0	c0,13.6,0,27.2,0,40.8l-1.2-0.1c0-6.5,0-13,0-19.4c-6.8,0-13.5,0-20.3,0c0,6.5,0,13,0,19.5c-1.4,0-2.8,0-4.3,0	C102.7,31.2,102.7,17.6,102.7,4L102.7,4z"/><path fill="#FFFFFF" d="M138.5,4c1.4,0,2.8,0,4.3,0c0,13.6,0,27.2,0,40.7c-1.4,0-2.8,0-4.2,0C138.5,31.2,138.5,17.6,138.5,4L138.5,4	z"/><path fill="#FFFFFF" d="M199.9,3.4c2.8,2.5,5,5.5,7.4,8.4c7.2,8.6,14.3,17.3,21.5,26c0.1-11.3,0-22.5,0-33.8h1	c-0.1,13.8,0.3,27.6-0.2,41.4c-8.7-10.1-17-20.7-25.5-31c0,10.1,0,20.2,0,30.3c-1.4,0-2.8,0-4.2-0.1	C199.8,30.9,199.6,17.2,199.9,3.4L199.9,3.4z"/><path fill="#FFFFFF" d="M187,9c-5.2-5.3-13.4-7-20.5-5.3c-9.4,2.2-16.4,11.6-15.8,21.3c-0.3,10.1,8.2,19.4,18.2,20.5	c6.9,1,14.3-1.4,19-6.6C195.6,30.9,195.3,16.6,187,9z M173,41.5c-9.6,0.9-18.6-7.9-18-17.5c0.1-7.7,5.9-14.7,13.5-16.3	c9.9-2.5,20.6,6.1,20.5,16.3C189.5,32.9,182,41.2,173,41.5z"/><path fill="#FF002B" d="M64.4,0h-1.8C48.5,29.6,34.6,59.3,20.6,89c3.4,0,6.8,0,10.2,0c4.6-9.8,9.2-19.5,13.9-29.3c6,0,11.9,0,17.8,0	c0,10.1,0,20.2,0,30.2l2,0C64.5,60,64.6,30,64.4,0z M62.5,51c-4.6,0-9.2,0-13.7,0c4.5-9.9,9.4-19.5,13.8-29.5	C62.4,31.3,62.5,41.2,62.5,51z"/><path fill="#FFFFFF" d="M171.8,59.2c-1.4-6.4,5.1-12.2,11.3-11c4.1,0.4,7.1,3.5,9.4,6.6c-1.2,0.9-2.3,1.8-3.5,2.7c-2-2-3.8-4.8-7-5	c-3.1-0.4-6.2,2.2-6,5.3c0.5,4.1,4.6,6.3,7.5,8.6c4.5,3.3,9.6,7.5,9.5,13.6c-0.1,6.8-7.4,12-13.9,10.4c-4.8-0.6-7.9-4.6-10.2-8.4	c1.2-0.8,2.5-1.5,3.7-2.3c1.8,2.5,3.5,5.4,6.6,6.4c4.7,1.7,10.5-3.1,9-8.1C184.8,70,173.4,68.2,171.8,59.2L171.8,59.2z"/><path fill="#FFFFFF" d="M70.9,48.4c10,11,19,22.9,28.6,34.2c0-11.2,0-22.4,0-33.6c0.3,0,0.9,0,1.3,0c-0.2,13.8,0.3,27.7-0.3,41.5	c-8.7-10.1-17-20.6-25.5-30.9c0,10.1,0,20.1,0,30.2c-1.4,0-2.8,0-4.2,0C70.8,76,70.6,62.2,70.9,48.4L70.9,48.4z"/><path fill="#FFFFFF" d="M106.5,49c7.4,0,14.8,0,22.3,0c0,1.4,0,2.8,0,4.3c-3,0-6,0-9,0c0,12.2,0,24.3,0,36.5c-1.4,0-2.8,0-4.2,0	c0-12.2,0-24.3,0-36.5c-3,0-6,0-9,0C106.5,51.8,106.5,50.4,106.5,49L106.5,49z"/><path fill="#FFFFFF" d="M199.6,49c1.7,0,3.4,0,5.1,0c3.4,5.5,6.9,11,10.3,16.6c3.4-5.5,6.7-11.1,10.1-16.6c1.7,0,3.3,0,4.9,0	c-3.9,6.4-7.8,12.9-11.7,19.3c-0.6,1.1-1.5,2.2-1.3,3.5c-0.1,6,0,11.9,0,17.9c-1.4,0-2.8,0-4.2,0c-0.1-6.5,0.2-13-0.1-19.5	C208.5,63.1,203.9,56.1,199.6,49L199.6,49z"/><path fill="#FFFFFF" d="M149.2,50.6c-0.2-1.1-1.7-2.8-2.3-0.8c-6.4,13.2-12.5,26.6-18.9,39.9c1.6,0,3.2,0,4.8,0	c2.1-4.4,4.2-8.9,6.3-13.3c5.7,0.1,11.5,0,17.2,0c2.1,4.4,4.1,8.9,6.4,13.3c1.5,0,3.1,0,4.7,0C161.3,76.7,155.3,63.7,149.2,50.6z	 M140.2,75.2c2.6-5.7,5.2-11.3,7.7-17c2.5,5.7,5.1,11.4,7.6,17.1C150.4,75.2,145.3,75.3,140.2,75.2z"/></svg>