<svg xmlns="http://www.w3.org/2000/svg" xmlns:xlink="http://www.w3.org/1999/xlink" x="0px" y="0px" width="373.2px" height="75.4px" viewBox="0 0 373.2 75.4" xml:space="preserve"><path fill="#FFFFFF" d="M30.3,3.2c3.4-2,7.4-3.2,11.4-3.1c40.8,0,81.6,0,122.5,0c-1,2.8-2,5.6-3,8.4c-37.8,0-75.7,0.1-113.5,0 c-2.8,0-5.8,0.2-8,2.1c-2.7,2.4-3.8,6-4.9,9.3c4.7,0.2,9.4,0,14.1,0.1c-1.2,2.7-1.7,5.9-3.5,8.3c-4.6,0.1-9.1,0-13.7,0 C26.3,43.9,20.8,59.5,15.2,75c-5.1,0-10.1-0.1-15.2,0c6.3-18.3,13-36.5,19.4-54.8C21.6,13.8,24.4,7,30.3,3.2L30.3,3.2z"/><path fill="#FFFFFF" d="M168.3,0.1c4.8,0,9.6-0.1,14.3,0.1c-2.2,6.2-4.3,12.4-6.6,18.5c5-1.9,10.8-2.6,15.9-1 c4.5,1.7,5.2,7.3,3.8,11.3c-5.1,15.4-10.9,30.6-16.1,46c-4.8,0.1-9.6,0-14.4,0c3.8-11.1,7.8-22,11.7-33.1c1.6-4.8,3.8-9.5,4.5-14.5 c-2.5-1.1-5.6-1.7-8.1-0.4c-6.1,15.9-11.4,32-17.3,48c-4.7,0.1-9.5,0-14.2,0.1C150.4,50,159.5,25,168.3,0.1L168.3,0.1z"/><path fill="#FFFFFF" d="M231.3,0.1c36.5,0.1,73,0,109.4,0.1c4,0,8.7,0.8,11,4.5c1.2,4,0.5,8.2-0.8,12.1c-2.5,7.3-5.2,14.5-7.6,21.8 c2.1-0.3,4.9,0.3,6.3-1.9c3.9-6.2,7.8-12.4,11.6-18.7c4-0.1,8-0.1,12,0c-2.6,4.4-5.5,8.6-8.2,13c-2.2,3.5-4.2,7.2-7.3,10.1 c1.5,1.2,3.1,2.5,4.5,3.8c-0.3,7.8-4.9,14.5-6.3,22.1c0.9,0.1,2.8,0.3,3.7,0.3c-0.9,2.7-1.8,5.4-2.7,8.1c-4.8-0.6-11.5,1.4-14.6-3.3 c-2.1-8.7,4.6-16.2,5.2-24.6c-2.2-1.2-4.6-1.4-7-1.4c-3.4,9.7-6.7,19.4-10.3,29.1c-5.1-0.1-10.1-0.1-15.2,0 c6.8-19.5,13.8-39,20.7-58.4c0.8-2.1,0.8-4.3,0.7-6.5c-4.2-2.3-9.1-1.4-13.7-1.5c-31.5-0.1-63,0.1-94.5-0.1 C229.3,5.7,230.3,2.9,231.3,0.1L231.3,0.1z"/><path fill="#FFFFFF" d="M42.6,61.3c5.7-16,11.3-32,17.1-47.9c4.7-0.1,9.3,0,14-0.1c-3.8,12.6-8.7,24.8-13,37.2 c-1.6,5.1-4,10-4.9,15.3c1.4,0.5,2.9,0.9,4.3,1.4c-1,2.5-1.8,5.1-2.5,7.7c-5.1-0.5-10.9,1.3-15.4-1.9C39.6,69.5,41.4,65,42.6,61.3 L42.6,61.3z"/><path fill="#FFFFFF" d="M120.9,29.8c2.5-6.8,9-11.5,16-12.7c4.7-0.4,10.1-0.9,14,2.3c3.3,3.3,2.4,8.3,1.2,12.3 c-3.7,0.2-7.3,0.2-11,0.3c0-2.1-0.2-4.2-1-6.2c-2.3,0.2-5.2,0.4-6.4,2.7c-2.1,3.1-1,7.1,1.2,9.9c3.3,4.4,7.2,8.7,8.3,14.2 c0.4,9.1-5.7,18.1-14.3,21.2c-3.9,1.7-8.2,1.5-12.3,1.2c-3.3-0.4-7.1-2-8.1-5.5c-0.7-3.2,0-6.5,0.8-9.6c3.6-0.1,7.3,0,11-0.2 c0.2,2.1,0.5,4.1,1,6.2c3.8,0.3,8.5-1.8,8-6.3c-1.2-4.9-5.5-8.3-8.1-12.5C117.5,42.1,118.8,35.2,120.9,29.8L120.9,29.8z"/><path fill="#FFFFFF" d="M303.2,19.1c4.6-2.4,10.1-2.7,15.1-1.9c4,0.7,6.8,4.5,6.8,8.5c0,2.9-1,5.7-1.8,8.4c-4.2,0-8.4,0-12.6,0 c0.7-2.7,1.5-5.3,1.7-8.1c-1.4,0-2.8-0.3-4.1,0.1c-3.1,2.2-4.3,6-5.7,9.3c-2.8,7.1-5.4,14.3-7.7,21.6c-0.9,3-2,6.2-0.6,9.2 c1.4,0,2.8-0.2,4.2-0.5c1.6-1.6,2.7-3.6,3.9-5.4c3.5,0.1,6.9,0,10.4,0c-2.2,6.7-7.4,12.8-14.6,14.3c-5,1-11.2,1.6-15.1-2.3 c-3.5-3.5-3.1-8.9-2.7-13.4c1.1-7.3,4-14.2,6.8-21C290.8,30.5,295.5,22.8,303.2,19.1L303.2,19.1z"/><g><path fill="#FFFFFF" d="M240.4,23.7c0.1-3.6-3.1-6.9-6.7-6.8c-4.3-0.5-8.6,0.4-12.7,2c2.5-6.2,4.4-12.6,6.8-18.8 c-4.8-0.1-9.6,0-14.4-0.1c-8.8,25-17.8,49.9-26.6,74.9c4.6,0,9.4,0.5,13.9-1c5.4,1.8,11.5,2,16.6-0.6c5.5-2.6,9.6-7.6,12-13.1 c3.4-7.5,6.2-15.3,8.6-23.2C239.2,32.6,240.9,28.3,240.4,23.7z M213.9,61.9c-1.2,3.8-5.3,6.2-9.1,4.6c0.2-2.9,1.3-5.6,2.3-8.3 c3.7-10.7,7.5-21.3,11.5-32c2.3,0,4.7,0,6.9,0.9C223.5,39.2,218.4,50.6,213.9,61.9z"/></g><g><path fill="#FFFFFF" d="M110.7,21.7c-3.4-2.4-8-2.5-12-2.3C93.3,20.1,87.8,20,82.4,20c-0.9,2.6-1.8,5.2-2.7,7.8 c6.8,0.2,13.9-0.7,20.5,1.6c0.5,3.1-0.6,6.1-1.6,9c-5.8,0.4-11.8-0.1-17.4,1.7C75.6,42,72,47.2,69.8,52.5 c-2.1,5.1-4.1,10.5-4.3,16.1C65.3,72,68.2,75,71.6,75c9,0.1,18.1-0.1,27.1,0c4.5-13,9.3-25.8,13.6-38.8 C113.5,31.5,115,25.2,110.7,21.7z M89.3,64.2c-3.2,0.8-6.5,0.9-9.5-0.5c-3.2-3-0.4-7.7,1.3-10.8c2.7-4.9,8.9-5.7,13.9-4.9 C93.3,53.5,91.1,58.8,89.3,64.2z"/></g><g><path fill="#FFFFFF" d="M282.1,24.1c-1.6-3.5-5.7-5-9.3-4.9c-7,0-14.1,0.3-21.1,0.2c-0.8,2.6-1.6,5.2-2.5,7.8 c6.3-0.2,12.7,0,18.9,1.1c3,2.6,0.6,6.7-0.3,9.8c-6.2,0.1-12.8-0.3-18.7,2.2c-6.4,3-9.8,9.7-11.8,16.2c-1.5,4.4-3.1,9.2-2.2,13.9 c0.6,2.5,3.2,4.1,5.7,4c9.1,0.2,18.2,0,27.3-0.2c4.2-12.4,8.8-24.7,13.1-37.1C282.6,33,283.1,28.4,282.1,24.1z M258.4,64.2 c-3.4-0.1-7,0.7-10-1.4c-2-6.7,3.1-14.9,10.3-15.4c1.9-0.3,3.8,0.2,5.6,0.6C262.2,53.4,260.4,58.8,258.4,64.2z"/></g></svg> 