<svg xmlns="http://www.w3.org/2000/svg" width="373.2" height="75.4"><path fill="#FFF" d="M30.3 3.2c3.4-2 7.4-3.2 11.4-3.1h122.5l-3 8.4c-37.8 0-75.7.1-113.5 0-2.8 0-5.8.2-8 2.1-2.7 2.4-3.8 6-4.9 9.3 4.7.2 9.4 0 14.1.1-1.2 2.7-1.7 5.9-3.5 8.3-4.6.1-9.1 0-13.7 0C26.3 43.9 20.8 59.5 15.2 75c-5.1 0-10.1-.1-15.2 0 6.3-18.3 13-36.5 19.4-54.8 2.2-6.4 5-13.2 10.9-17zM168.3.1c4.8 0 9.6-.1 14.3.1-2.2 6.2-4.3 12.4-6.6 18.5 5-1.9 10.8-2.6 15.9-1 4.5 1.7 5.2 7.3 3.8 11.3-5.1 15.4-10.9 30.6-16.1 46-4.8.1-9.6 0-14.4 0 3.8-11.1 7.8-22 11.7-33.1 1.6-4.8 3.8-9.5 4.5-14.5-2.5-1.1-5.6-1.7-8.1-.4-6.1 15.9-11.4 32-17.3 48-4.7.1-9.5 0-14.2.1C150.4 50 159.5 25 168.3.1zM231.3.1c36.5.1 73 0 109.4.1 4 0 8.7.8 11 4.5 1.2 4 .5 8.2-.8 12.1-2.5 7.3-5.2 14.5-7.6 21.8 2.1-.3 4.9.3 6.3-1.9 3.9-6.2 7.8-12.4 11.6-18.7 4-.1 8-.1 12 0-2.6 4.4-5.5 8.6-8.2 13-2.2 3.5-4.2 7.2-7.3 10.1 1.5 1.2 3.1 2.5 4.5 3.8-.3 7.8-4.9 14.5-6.3 22.1.9.1 2.8.3 3.7.3l-2.7 8.1c-4.8-.6-11.5 1.4-14.6-3.3-2.1-8.7 4.6-16.2 5.2-24.6-2.2-1.2-4.6-1.4-7-1.4-3.4 9.7-6.7 19.4-10.3 29.1-5.1-.1-10.1-.1-15.2 0 6.8-19.5 13.8-39 20.7-58.4.8-2.1.8-4.3.7-6.5-4.2-2.3-9.1-1.4-13.7-1.5-31.5-.1-63 .1-94.5-.1 1.1-3 2.1-5.8 3.1-8.6z"/><path fill="#FFF" d="M42.6 61.3c5.7-16 11.3-32 17.1-47.9 4.7-.1 9.3 0 14-.1-3.8 12.6-8.7 24.8-13 37.2-1.6 5.1-4 10-4.9 15.3 1.4.5 2.9.9 4.3 1.4-1 2.5-1.8 5.1-2.5 7.7-5.1-.5-10.9 1.3-15.4-1.9-2.6-3.5-.8-8 .4-11.7zM120.9 29.8c2.5-6.8 9-11.5 16-12.7 4.7-.4 10.1-.9 14 2.3 3.3 3.3 2.4 8.3 1.2 12.3-3.7.2-7.3.2-11 .3 0-2.1-.2-4.2-1-6.2-2.3.2-5.2.4-6.4 2.7-2.1 3.1-1 7.1 1.2 9.9 3.3 4.4 7.2 8.7 8.3 14.2.4 9.1-5.7 18.1-14.3 21.2-3.9 1.7-8.2 1.5-12.3 1.2-3.3-.4-7.1-2-8.1-5.5-.7-3.2 0-6.5.8-9.6 3.6-.1 7.3 0 11-.2.2 2.1.5 4.1 1 6.2 3.8.3 8.5-1.8 8-6.3-1.2-4.9-5.5-8.3-8.1-12.5-3.7-5-2.4-11.9-.3-17.3zM303.2 19.1c4.6-2.4 10.1-2.7 15.1-1.9 4 .7 6.8 4.5 6.8 8.5 0 2.9-1 5.7-1.8 8.4h-12.6c.7-2.7 1.5-5.3 1.7-8.1-1.4 0-2.8-.3-4.1.1-3.1 2.2-4.3 6-5.7 9.3-2.8 7.1-5.4 14.3-7.7 21.6-.9 3-2 6.2-.6 9.2 1.4 0 2.8-.2 4.2-.5 1.6-1.6 2.7-3.6 3.9-5.4 3.5.1 6.9 0 10.4 0-2.2 6.7-7.4 12.8-14.6 14.3-5 1-11.2 1.6-15.1-2.3-3.5-3.5-3.1-8.9-2.7-13.4 1.1-7.3 4-14.2 6.8-21 3.6-7.4 8.3-15.1 16-18.8zM240.4 23.7c.1-3.6-3.1-6.9-6.7-6.8-4.3-.5-8.6.4-12.7 2 2.5-6.2 4.4-12.6 6.8-18.8-4.8-.1-9.6 0-14.4-.1-8.8 25-17.8 49.9-26.6 74.9 4.6 0 9.4.5 13.9-1 5.4 1.8 11.5 2 16.6-.6 5.5-2.6 9.6-7.6 12-13.1 3.4-7.5 6.2-15.3 8.6-23.2 1.3-4.4 3-8.7 2.5-13.3zm-26.5 38.2c-1.2 3.8-5.3 6.2-9.1 4.6.2-2.9 1.3-5.6 2.3-8.3 3.7-10.7 7.5-21.3 11.5-32 2.3 0 4.7 0 6.9.9-2 12.1-7.1 23.5-11.6 34.8zM110.7 21.7c-3.4-2.4-8-2.5-12-2.3-5.4.7-10.9.6-16.3.6l-2.7 7.8c6.8.2 13.9-.7 20.5 1.6.5 3.1-.6 6.1-1.6 9-5.8.4-11.8-.1-17.4 1.7-5.6 1.9-9.2 7.1-11.4 12.4-2.1 5.1-4.1 10.5-4.3 16.1-.2 3.4 2.7 6.4 6.1 6.4 9 .1 18.1-.1 27.1 0 4.5-13 9.3-25.8 13.6-38.8 1.2-4.7 2.7-11-1.6-14.5zM89.3 64.2c-3.2.8-6.5.9-9.5-.5-3.2-3-.4-7.7 1.3-10.8C83.8 48 90 47.2 95 48c-1.7 5.5-3.9 10.8-5.7 16.2zM282.1 24.1c-1.6-3.5-5.7-5-9.3-4.9-7 0-14.1.3-21.1.2-.8 2.6-1.6 5.2-2.5 7.8 6.3-.2 12.7 0 18.9 1.1 3 2.6.6 6.7-.3 9.8-6.2.1-12.8-.3-18.7 2.2-6.4 3-9.8 9.7-11.8 16.2-1.5 4.4-3.1 9.2-2.2 13.9.6 2.5 3.2 4.1 5.7 4 9.1.2 18.2 0 27.3-.2 4.2-12.4 8.8-24.7 13.1-37.1 1.4-4.1 1.9-8.7.9-13zm-23.7 40.1c-3.4-.1-7 .7-10-1.4-2-6.7 3.1-14.9 10.3-15.4 1.9-.3 3.8.2 5.6.6-2.1 5.4-3.9 10.8-5.9 16.2z"/></svg>