<svg xmlns="http://www.w3.org/2000/svg" viewBox="0 0 239.1 107.6"><path fill="#FFF" d="M0 22.7c13.2.2 26.4-1.5 39.6-1.8.2 3.7.6 7.3.9 10.9-2.4 2.6-5.5 4-9 3.7.1-2 .3-4 .4-6-6.2 0-12.4-.7-18.5.4-.7 5.2-.7 10.5-.1 15.7 3.7 0 7.4.1 11 0 1.4-2.3 3.1-4.6 6-5.3 1.4 5.1 2.2 10.4 3.5 15.5-1.5 1.2-2.9 2.3-4.4 3.5-1.6-1.7-3-3.8-5.3-4.6-3.9-2.2-8.4-.8-12.6-1.1 1.2 6.4 1.9 13 3.6 19.3.4 2.8 3.5 3.5 5.6 4.7-.7 1.8-1.4 3.5-2.1 5.2-6.1 0-12.1 1.3-18.1 1.3.7-3 2.4-5.6 3.4-8.6.3-5.6-.3-11.5-2.4-17-.3-8.9 1.3-17.8 1.2-26.7-.9-1-1.8-2.1-2.7-3v-6.1zM42.3 25.5l2.5-2.5h9.7c.2 5.1-1.2 10.1-1.1 15.3.6 4.3 0 8.7-.7 13-.7 4.3-.2 8.8-2.3 12.8h1.9c0 3.8-.1 7.6.1 11.4 2.8 1.4 5.9 1.6 9 1.9.2 2.2-.8 4.1-1.8 6-8.6.3-17.2 2.7-25.8 2.3-.1-1.1-.2-2.1-.3-3.2 2-2.3 5-3.1 7.7-4.4 1.8-1.5 1.3-4 .8-5.9.6-11.5 1.9-23.1 2.5-34.7-.8-.1-2.3-.2-3-.2 1.6-3.9.9-8 .8-11.8zM81.7 74.7c-.3-5.3-.1-10.6-.1-16 1.3-4.7 1.6-9.6 2.1-14.4-1.5-.5-3.1-1-4.6-1.5 3.8-1.3 8.9-3.2 9.1-8-.9-4.4-.7-9.4-3.5-13.2-.7-4.1.8-8.6-1.2-12.5-2-4.4-6.4-7-10.5-9.1.7 3.1 3.2 6 2.3 9.2-2 5.7-8.9 9-8 15.8-1-1.2-1.9-2.5-3-3.5-1.5-.2-3.1-.1-4.7-.2 1.3 3.1.7 6.4 1 9.6 1.4-2.9.9-6.1 1.3-9.1 3.6 3 .3 7.2.6 10.9.7 2.5 2.2 4.7 3.1 7.1-3.8-2-4.5-6.4-6.5-9.7 0 4.6 2.9 8.5 6.5 11 3.6.7 7.2.2 10.8.4-3.6 1.9-8 2.5-10.5 6 1 1.5 2 3.2 2.6 4.9 1.3-.1 2.7-.3 4-.4.3 4.3.2 8.6-.7 12.8.6.7 1.3 1.5 1.9 2.2-1.3 2.4-1.1 5.2-1.3 7.9-2.1.2-4.1.3-6.2.6-2.2 1.4-2.4 4.1-2.6 6.5 8 1.1 16 1.9 24 2.5 1-1.9 2.2-3.7 2.2-5.9-2.3-1.8-6.2-1-8.1-3.9zm-3.3-57.4c.2 2.1.1 4.2.3 6.3 1.3 2.7 3.2 5 4.5 7.7.5 2 .1 4.2-.4 6.2.4-5.1-3.4-8.7-5.9-12.7-1.5-2.5.6-5.2 1.5-7.5zm-2.2 20.4c-2.3-1.2-5.1.9-7.2-.9-1.9-1.1-1.8-3.5-1.3-5.4 1.1-3.7 4.6-5.6 7.4-7.9 2.1 4.9 7 8.9 5.5 14.8-1.5.2-3.1.1-4.4-.6zM131.5 74.4c-.5-9.2 0-18.5-.3-27.7-.4-5.1-5.2-8.9-10.2-8.4-6.4-.5-12.6 2.4-17.2 6.8-.6-2.6-1-5.3-1.3-8-3.4.5-6.9.9-10.3 1.6-2.8 1.5-2 5-1.8 7.5l3.9.3c1.8 9.1 3.5 18.3 4.2 27.6-2.5 1.3-5.3 2.2-7.3 4.2 0 1 .2 2.9.2 3.9 14 0 28-.2 42 .3 1.4-1.4 2.4-3.1 3-4.9-1.6-1-3.7-1.6-4.9-3.2zm-12.1.7c-1.4.8-2.9 1.4-4.2 2.3-2.1-1.5-5.5-2.2-5.8-5.2-.8-4.5-1.8-9-2.9-13.5-1-3.3.6-6.6 1.8-9.6 3-2.5 7.8-2.2 11.2-.6 2.7 3.1 1.7 7.6 1.8 11.4-.4 5 1.3 10.6-1.9 15.2zM184 71.9c-3-6.6.5-15.2 7.1-18.3 2.7-.8 5.5.8 6.6 3.3.6 2.5-1 4.6-2.2 6.7l-3-.6c-.2-1.8.2-3.5 1.1-5.1-1.3.1-2.6.2-3.9.4-.8 2.5-2 4.8-2.3 7.4.6 1.5 1.8 2.8 3.1 3.7 2.3.3 4.4-1.1 6.6-1.4-1.6 5.4-8.9 8.3-13.1 3.9z"/><path fill="#FFF" d="M238.5 65.2c.5-3.5.9-7 .1-10.5-1.3-.5-2.5-.9-3.8-1.4-1.5 1-3 1.9-4.4 3-1.3-.8-2.6-2.2-4.3-1.9-4.1.5-9-1.3-12.1 2.3-1.9-2-4-4.4-7-4.4-3.7-.2-5.9 3.1-8 5.7-2.6 3.2-1.4 7.6 0 11 1.5 3.9 6.8 5.4 10.3 3.2 3.4-1.8 5.4-5.3 6.6-8.8-.3 3.2.4 6.7-1.6 9.4 5-1.2 9.9.4 14.8.3.8-2.4 0-4.8.2-7.3-.1-2.5 1.4-4.6 2.1-6.9 1 .1 2.1.2 3.1.4-.6 4.5-.6 9.4-3.6 13 2.2.5 4.4 1 6.6 1.4 2-2.5.4-5.7 1-8.5zm-28 3.1c-1.7.1-3.4.3-5 0-3.7-2.7-3.8-8.3-1.3-11.8 6 .2 6.8 7.2 6.3 11.8zm12.5 3.1c-.6-4.2-2.1-8.2-1.8-12.5 1.5.2 2.9.4 4.4.7-.3 4-1.6 7.9-2.6 11.8zM172.2 71.9c.7-2.6 2.8-4.4 4.8-5.9 1 1.1 2.9 1.9 2.6 3.7-.9 1.6-2.4 2.8-3.7 4.1-1.2-.6-2.4-1.2-3.7-1.9z"/><path fill="#FFF" d="M182.2 40.7c-.6-1.3-1.2-2.5-1.7-3.8l-3.9 1.5c.4-1.3.9-2.7 1.2-4-5.5 1.9-11 4-15.9 7.1-8.3-3.1-18.6-1.4-24.3 5.8-3.5 3.3-3.8 8.4-2.7 12.8 1.5 2.8 4 4.8 6.4 6.8-1.6 2.2-3.8 4.2-4.7 6.9-.6 3.1 1.7 5.5 3.6 7.5-3.5 1.9-7.5 5-7.1 9.4-.5 3.8 2.8 6.1 5.1 8.5-1.4 1.6-2.8 3.1-3 5.3 1.4-.2 2.8-.6 4.1-1.3.1 1.4.3 2.8.4 4.1 3.9-1.8 6.8-5.8 11.3-6.2 7.5-1.2 16.3-1.7 21.3-8.2 3.5-3.6 4.5-9.4 2.4-14-2.2-4.3-6.9-6.9-11.7-6.8-5.5-.8-11.7 1.1-16.4-2.7 4.1-2.4 9.2-.8 13.5-2.5 4.9-1.3 7.9-5.6 10.1-9.8.9-3.5.4-7.3-1-10.6 4.5-1.2 9.7-2.1 13-5.8zm-21.1 40.8c2 0 5.2.3 5.6 2.6.7 2.4-2 3.6-3.2 5.3-1.3 1.8-3.7 1.9-5.7 2.5-4.4 1-9 1.1-13.4.5-2.1-.2-3.1-2.2-3.3-4.1 5.9-3.9 13-5.8 20-6.8zm-1.5-23.1c-4.5 2.1-9.9 1.2-14.3-.8-1.5-.5-2.5-2.1-2.2-3.7.1-3.1 3.6-4.1 6.1-4.7 4.2-1 9.5-.5 12.1 3.2.8 2.1.8 5.1-1.7 6z"/></svg>