<svg xmlns="http://www.w3.org/2000/svg" xmlns:xlink="http://www.w3.org/1999/xlink" x="0px" y="0px" viewBox="0 0 239.1 107.6" xml:space="preserve"><path fill="#FFFFFF" d="M0,22.7c13.2,0.2,26.4-1.5,39.6-1.8c0.2,3.7,0.6,7.3,0.9,10.9c-2.4,2.6-5.5,4-9,3.7c0.1-2,0.3-4,0.4-6 c-6.2,0-12.4-0.7-18.5,0.4c-0.7,5.2-0.7,10.5-0.1,15.7c3.7,0,7.4,0.1,11,0c1.4-2.3,3.1-4.6,6-5.3c1.4,5.1,2.2,10.4,3.5,15.5 c-1.5,1.2-2.9,2.3-4.4,3.5c-1.6-1.7-3-3.8-5.3-4.6c-3.9-2.2-8.4-0.8-12.6-1.1c1.2,6.4,1.9,13,3.6,19.3c0.4,2.8,3.5,3.5,5.6,4.7 c-0.7,1.8-1.4,3.5-2.1,5.2c-6.1,0-12.1,1.3-18.1,1.3c0.7-3,2.4-5.6,3.4-8.6C4.2,69.9,3.6,64,1.5,58.5c-0.3-8.9,1.3-17.8,1.2-26.7 c-0.9-1-1.8-2.1-2.7-3V22.7L0,22.7z"/><path fill="#FFFFFF" d="M42.3,25.5c0.8-0.8,1.6-1.6,2.5-2.5c3.2,0,6.5,0,9.7,0c0.2,5.1-1.2,10.1-1.1,15.3c0.6,4.3,0,8.7-0.7,13 c-0.7,4.3-0.2,8.8-2.3,12.8c0.5,0,1.4,0,1.9,0c0,3.8-0.1,7.6,0.1,11.4c2.8,1.4,5.9,1.6,9,1.9c0.2,2.2-0.8,4.1-1.8,6 c-8.6,0.3-17.2,2.7-25.8,2.3c-0.1-1.1-0.2-2.1-0.3-3.2c2-2.3,5-3.1,7.7-4.4c1.8-1.5,1.3-4,0.8-5.9c0.6-11.5,1.9-23.1,2.5-34.7 c-0.8-0.1-2.3-0.2-3-0.2C43.1,33.4,42.4,29.3,42.3,25.5L42.3,25.5z"/><path fill="#FFFFFF" d="M81.7,74.7c-0.3-5.3-0.1-10.6-0.1-16c1.3-4.7,1.6-9.6,2.1-14.4c-1.5-0.5-3.1-1-4.6-1.5 c3.8-1.3,8.9-3.2,9.1-8c-0.9-4.4-0.7-9.4-3.5-13.2C84,17.5,85.5,13,83.5,9.1c-2-4.4-6.4-7-10.5-9.1c0.7,3.1,3.2,6,2.3,9.2 c-2,5.7-8.9,9-8,15.8c-1-1.2-1.9-2.5-3-3.5c-1.5-0.2-3.1-0.1-4.7-0.2c1.3,3.1,0.7,6.4,1,9.6c1.4-2.9,0.9-6.1,1.3-9.1 c3.6,3,0.3,7.2,0.6,10.9c0.7,2.5,2.2,4.7,3.1,7.1c-3.8-2-4.5-6.4-6.5-9.7c0,4.6,2.9,8.5,6.5,11c3.6,0.7,7.2,0.2,10.8,0.4 c-3.6,1.9-8,2.5-10.5,6c1,1.5,2,3.2,2.6,4.9c1.3-0.1,2.7-0.3,4-0.4c0.3,4.3,0.2,8.6-0.7,12.8c0.6,0.7,1.3,1.5,1.9,2.2 c-1.3,2.4-1.1,5.2-1.3,7.9c-2.1,0.2-4.1,0.3-6.2,0.6c-2.2,1.4-2.4,4.1-2.6,6.5c8,1.1,16,1.9,24,2.5c1-1.9,2.2-3.7,2.2-5.9 C87.5,76.8,83.6,77.6,81.7,74.7z M78.4,17.3c0.2,2.1,0.1,4.2,0.3,6.3c1.3,2.7,3.2,5,4.5,7.7c0.5,2,0.1,4.2-0.4,6.2 c0.4-5.1-3.4-8.7-5.9-12.7C75.4,22.3,77.5,19.6,78.4,17.3z M76.2,37.7c-2.3-1.2-5.1,0.9-7.2-0.9c-1.9-1.1-1.8-3.5-1.3-5.4 c1.1-3.7,4.6-5.6,7.4-7.9c2.1,4.9,7,8.9,5.5,14.8C79.1,38.5,77.5,38.4,76.2,37.7z"/><path fill="#FFFFFF" d="M131.5,74.4c-0.5-9.2,0-18.5-0.3-27.7c-0.4-5.1-5.2-8.9-10.2-8.4c-6.4-0.5-12.6,2.4-17.2,6.8 c-0.6-2.6-1-5.3-1.3-8c-3.4,0.5-6.9,0.9-10.3,1.6c-2.8,1.5-2,5-1.8,7.5c1.3,0.1,2.6,0.2,3.9,0.3c1.8,9.1,3.5,18.3,4.2,27.6 c-2.5,1.3-5.3,2.2-7.3,4.2c0,1,0.2,2.9,0.2,3.9c14,0,28-0.2,42,0.3c1.4-1.4,2.4-3.1,3-4.9C134.8,76.6,132.7,76,131.5,74.4z M119.4,75.1c-1.4,0.8-2.9,1.4-4.2,2.3c-2.1-1.5-5.5-2.2-5.8-5.2c-0.8-4.5-1.8-9-2.9-13.5c-1-3.3,0.6-6.6,1.8-9.6 c3-2.5,7.8-2.2,11.2-0.6c2.7,3.1,1.7,7.6,1.8,11.4C120.9,64.9,122.6,70.5,119.4,75.1z"/><path fill="#FFFFFF" d="M184,71.9c-3-6.6,0.5-15.2,7.1-18.3c2.7-0.8,5.5,0.8,6.6,3.3c0.6,2.5-1,4.6-2.2,6.7c-1-0.2-2-0.4-3-0.6 c-0.2-1.8,0.2-3.5,1.1-5.1c-1.3,0.1-2.6,0.2-3.9,0.4c-0.8,2.5-2,4.8-2.3,7.4c0.6,1.5,1.8,2.8,3.1,3.7c2.3,0.3,4.4-1.1,6.6-1.4 C195.5,73.4,188.2,76.3,184,71.9L184,71.9z"/><path fill="#FFFFFF" d="M238.5,65.2c0.5-3.5,0.9-7,0.1-10.5c-1.3-0.5-2.5-0.9-3.8-1.4c-1.5,1-3,1.9-4.4,3c-1.3-0.8-2.6-2.2-4.3-1.9 c-4.1,0.5-9-1.3-12.1,2.3c-1.9-2-4-4.4-7-4.4c-3.7-0.2-5.9,3.1-8,5.7c-2.6,3.2-1.4,7.6,0,11c1.5,3.9,6.8,5.4,10.3,3.2 c3.4-1.8,5.4-5.3,6.6-8.8c-0.3,3.2,0.4,6.7-1.6,9.4c5-1.2,9.9,0.4,14.8,0.3c0.8-2.4,0-4.8,0.2-7.3c-0.1-2.5,1.4-4.6,2.1-6.9 c1,0.1,2.1,0.2,3.1,0.4c-0.6,4.5-0.6,9.4-3.6,13c2.2,0.5,4.4,1,6.6,1.4C239.5,71.2,237.9,68,238.5,65.2z M210.5,68.3 c-1.7,0.1-3.4,0.3-5,0c-3.7-2.7-3.8-8.3-1.3-11.8C210.2,56.7,211,63.7,210.5,68.3z M223,71.4c-0.6-4.2-2.1-8.2-1.8-12.5 c1.5,0.2,2.9,0.4,4.4,0.7C225.3,63.6,224,67.5,223,71.4z"/><path fill="#FFFFFF" d="M172.2,71.9c0.7-2.6,2.8-4.4,4.8-5.9c1,1.1,2.9,1.9,2.6,3.7c-0.9,1.6-2.4,2.8-3.7,4.1 C174.7,73.2,173.5,72.6,172.2,71.9L172.2,71.9z"/><path fill="#FFFFFF" d="M182.2,40.7c-0.6-1.3-1.2-2.5-1.7-3.8c-1.3,0.5-2.6,1-3.9,1.5c0.4-1.3,0.9-2.7,1.2-4c-5.5,1.9-11,4-15.9,7.1 c-8.3-3.1-18.6-1.4-24.3,5.8c-3.5,3.3-3.8,8.4-2.7,12.8c1.5,2.8,4,4.8,6.4,6.8c-1.6,2.2-3.8,4.2-4.7,6.9c-0.6,3.1,1.7,5.5,3.6,7.5 c-3.5,1.9-7.5,5-7.1,9.4c-0.5,3.8,2.8,6.1,5.1,8.5c-1.4,1.6-2.8,3.1-3,5.3c1.4-0.2,2.8-0.6,4.1-1.3c0.1,1.4,0.3,2.8,0.4,4.1 c3.9-1.8,6.8-5.8,11.3-6.2c7.5-1.2,16.3-1.7,21.3-8.2c3.5-3.6,4.5-9.4,2.4-14c-2.2-4.3-6.9-6.9-11.7-6.8c-5.5-0.8-11.7,1.1-16.4-2.7 c4.1-2.4,9.2-0.8,13.5-2.5c4.9-1.3,7.9-5.6,10.1-9.8c0.9-3.5,0.4-7.3-1-10.6C173.7,45.3,178.9,44.4,182.2,40.7z M161.1,81.5 c2,0,5.2,0.3,5.6,2.6c0.7,2.4-2,3.6-3.2,5.3c-1.3,1.8-3.7,1.9-5.7,2.5c-4.4,1-9,1.1-13.4,0.5c-2.1-0.2-3.1-2.2-3.3-4.1 C147,84.4,154.1,82.5,161.1,81.5z M159.6,58.4c-4.5,2.1-9.9,1.2-14.3-0.8c-1.5-0.5-2.5-2.1-2.2-3.7c0.1-3.1,3.6-4.1,6.1-4.7 c4.2-1,9.5-0.5,12.1,3.2C162.1,54.5,162.1,57.5,159.6,58.4z"/></svg> 