<svg xmlns="http://www.w3.org/2000/svg" xmlns:xlink="http://www.w3.org/1999/xlink" x="0px" y="0px" width="150.7px" height="37.8px" viewBox="0 0 150.7 37.8" xml:space="preserve"><path fill-rule="evenodd" fill="#FFFFFF" d="M91.8,10.7c-2.4,0-4.3,0.5-6.2,1.6c0-5.5,0-10.6,0.2-12.3L74.1,2.1v1l1.2,0.2 c1.6,0.3,2.1,1.2,2.4,3.3c0.3,4.2,0.2,26.3,0,30c3.1,0.7,6.4,1.2,9.7,1.2c9.2,0,14.7-5.7,14.7-14.7C102.2,15.9,97.7,10.7,91.8,10.7 L91.8,10.7z M87.8,35.8c-0.7,0-1.6,0-2.1-0.2C85.5,33.2,85.4,23,85.5,14c1-0.3,1.7-0.5,2.6-0.5c3.8,0,5.9,4.5,5.9,10 C94,30.5,91.4,35.8,87.8,35.8L87.8,35.8z"/><path fill-rule="evenodd" fill="#FFFFFF" d="M30.5,0.7H0v1.6l1.7,0.2c2.3,0.3,3.1,1.7,3.5,5c0.5,6.2,0.3,17.5,0,22.9 c-0.3,3.3-1.2,4.8-3.5,5L0,35.7v1.4h19.6v-1.4l-2.1-0.3c-2.3-0.2-3.1-1.7-3.5-5c-0.2-2.3-0.3-5.9-0.3-10.4l4.2,0.2 c2.6,0,3.8,2.1,4.3,5h1.6V12.8h-1.6c-0.5,2.9-1.7,5-4.3,5L13.7,18c0-5.9,0.2-11.4,0.3-14.7h6.1c4.7,0,7.1,2.9,8.8,8.1l1.7-0.5 L30.5,0.7L30.5,0.7z"/><path fill-rule="evenodd" fill="#FFFFFF" d="M40.3,10.4c8.7,0,13,5.9,13,13.7c0,7.4-4.8,13.7-13.5,13.7c-8.7,0-13-5.9-13-13.7 C26.8,16.6,31.7,10.4,40.3,10.4L40.3,10.4z M39.8,12.1c-3.8,0-4.8,5.2-4.8,11.9c0,6.6,1.7,11.9,5.2,11.9c4,0,5-5.2,5-11.9 C45.2,17.5,43.5,12.1,39.8,12.1L39.8,12.1z"/><path fill-rule="evenodd" fill="#FFFFFF" d="M104.4,24.2c0-7.1,4.5-13.9,13.3-13.9c7.3,0,10.7,5.4,10.7,12.5h-16.1 c-0.2,6.4,2.9,11.1,9.2,11.1c2.8,0,4.2-0.7,5.9-1.9l0.7,0.9c-1.7,2.4-5.5,4.8-10.4,4.8C110,37.8,104.4,32.2,104.4,24.2L104.4,24.2z M112.4,21l8.1-0.2c0-3.5-0.5-8.7-3.5-8.7C114.1,12.1,112.6,17,112.4,21L112.4,21z"/><path fill-rule="evenodd" fill="#FFFFFF" d="M149.1,11.8c-2.1-0.9-4.8-1.4-8-1.4c-6.4,0-10.4,3.8-10.4,8.3s2.9,6.4,7.1,7.8 c4.3,1.6,5.5,2.8,5.5,4.8s-1.6,4-4.3,4c-3.3,0-5.7-1.9-7.6-7.1l-1.2,0.3l0.2,7.6c2.1,0.9,5.9,1.6,9.2,1.6c6.8,0,11.1-3.5,11.1-8.8 c0-3.6-1.9-5.7-6.4-7.4c-4.8-1.9-6.6-3.1-6.6-5.4c0-2.3,1.6-3.8,3.6-3.8c3.1,0,5.2,1.9,6.8,6.6l1.2-0.3L149.1,11.8L149.1,11.8z"/><path fill-rule="evenodd" fill="#FFFFFF" d="M75.8,11.1c-2.9-1.7-8.1-0.9-10.9,5.4l0.2-6.1l-11.6,2.3v1l1.2,0.2 c1.6,0.2,2.3,1,2.4,3.3c0.3,4.2,0.2,11.4,0,15.1c-0.2,2.1-0.9,3.1-2.4,3.3l-1.2,0.2v1.4h16.1v-1.4l-2.1-0.2 c-1.7-0.2-2.3-1.2-2.4-3.3c-0.3-3.3-0.3-9.9-0.2-14c0.9-1.2,4.7-2.3,8.1,0L75.8,11.1L75.8,11.1z"/></svg>