<svg version="1.2" baseProfile="tiny" id="Layer_1" xmlns="http://www.w3.org/2000/svg" xmlns:xlink="http://www.w3.org/1999/xlink" x="0px" y="0px" viewBox="0 0 400.1 47.3" overflow="scroll" xml:space="preserve"><g><path fill="#FFFFFF" stroke="#FFFFFF" stroke-miterlimit="10" d="M10.1,4v13.2h6.1c1.4,0,2.4-0.3,3.1-0.9c0.7-0.6,1.1-1.8,1.3-3.7h0.9V24h-0.9c0-1.3-0.2-2.3-0.5-2.9c-0.3-0.6-0.8-1.1-1.3-1.4c-0.6-0.3-1.4-0.5-2.5-0.5h-6.1v10.6c0,1.7,0.1,2.8,0.3,3.4c0.2,0.4,0.5,0.8,1,1.1c0.7,0.4,1.5,0.6,2.3,0.6H15v0.9H0.5v-0.9h1.2c1.4,0,2.4-0.4,3-1.2c0.4-0.5,0.6-1.8,0.6-3.8V8.1c0-1.7-0.1-2.8-0.3-3.4C4.8,4.3,4.5,4,4,3.7C3.3,3.3,2.5,3.1,1.7,3.1H0.5V2.1h25.1l0.3,7.4H25c-0.4-1.6-0.9-2.7-1.5-3.5c-0.6-0.7-1.3-1.3-2.1-1.6C20.6,4.1,19.3,4,17.5,4H10.1z"/><path fill="#FFFFFF" stroke="#FFFFFF" stroke-miterlimit="10" d="M36.2,12.4v5.1c1.9-3.4,3.9-5.1,5.9-5.1c0.9,0,1.7,0.3,2.3,0.8c0.6,0.6,0.9,1.2,0.9,1.9c0,0.6-0.2,1.2-0.6,1.6c-0.4,0.4-0.9,0.7-1.5,0.7c-0.6,0-1.2-0.3-1.9-0.9c-0.7-0.6-1.3-0.9-1.6-0.9c-0.3,0-0.6,0.2-1,0.5c-0.7,0.7-1.5,1.8-2.3,3.4v10.9c0,1.3,0.2,2.2,0.5,2.9c0.2,0.4,0.6,0.8,1.1,1.1s1.3,0.4,2.4,0.4v0.9H28.5v-0.9c1.2,0,2-0.2,2.6-0.5c0.4-0.3,0.7-0.7,0.9-1.3c0.1-0.3,0.1-1.1,0.1-2.4v-8.8c0-2.6-0.1-4.2-0.2-4.7c-0.1-0.5-0.3-0.9-0.6-1.1c-0.3-0.2-0.6-0.3-1.1-0.3c-0.5,0-1.1,0.1-1.7,0.4l-0.2-0.9l6.9-2.8H36.2z"/><path fill="#FFFFFF" stroke="#FFFFFF" stroke-miterlimit="10" d="M50.3,21.6c0,3.4,0.8,6,2.5,7.9c1.7,1.9,3.6,2.9,5.8,2.9c1.5,0,2.8-0.4,3.9-1.2c1.1-0.8,2-2.2,2.8-4.2l0.8,0.5c-0.3,2.3-1.4,4.3-3,6.2c-1.7,1.9-3.8,2.8-6.3,2.8c-2.7,0-5.1-1.1-7-3.2c-1.9-2.1-2.9-5-2.9-8.6c0-3.9,1-6.9,3-9.1c2-2.2,4.5-3.3,7.5-3.3c2.5,0,4.6,0.8,6.3,2.5c1.6,1.7,2.5,3.9,2.5,6.7H50.3z M50.3,20.2h10.5c-0.1-1.5-0.3-2.5-0.5-3.1c-0.4-0.9-1-1.7-1.8-2.2s-1.7-0.8-2.6-0.8c-1.4,0-2.6,0.5-3.7,1.6C51.1,16.8,50.5,18.3,50.3,20.2z"/><path fill="#FFFFFF" stroke="#FFFFFF" stroke-miterlimit="10" d="M72.9,21.6c0,3.4,0.8,6,2.5,7.9c1.7,1.9,3.6,2.9,5.8,2.9c1.5,0,2.8-0.4,3.9-1.2c1.1-0.8,2-2.2,2.8-4.2l0.8,0.5c-0.3,2.3-1.4,4.3-3,6.2c-1.7,1.9-3.8,2.8-6.3,2.8c-2.7,0-5.1-1.1-7-3.2c-1.9-2.1-2.9-5-2.9-8.6c0-3.9,1-6.9,3-9.1c2-2.2,4.5-3.3,7.5-3.3c2.5,0,4.6,0.8,6.3,2.5c1.6,1.7,2.5,3.9,2.5,6.7H72.9z M72.9,20.2h10.5c-0.1-1.5-0.3-2.5-0.5-3.1c-0.4-0.9-1-1.7-1.8-2.2s-1.7-0.8-2.6-0.8c-1.4,0-2.6,0.5-3.7,1.6C73.7,16.8,73.1,18.3,72.9,20.2z"/><path fill="#FFFFFF" stroke="#FFFFFF" stroke-miterlimit="10" d="M107.7,33.3c-1.1,1.2-2.2,2-3.3,2.5s-2.2,0.8-3.4,0.8c-2.5,0-4.7-1-6.5-3.1c-1.9-2.1-2.8-4.7-2.8-8c0-3.3,1-6.2,3.1-9c2.1-2.7,4.7-4.1,7.9-4.1c2,0,3.7,0.6,5,1.9v-4.2c0-2.6-0.1-4.2-0.2-4.8c-0.1-0.6-0.3-1-0.6-1.2c-0.3-0.2-0.6-0.3-1-0.3c-0.4,0-1,0.1-1.7,0.4l-0.3-0.9l6.8-2.8h1.1v26.3c0,2.7,0.1,4.3,0.2,4.9c0.1,0.6,0.3,1,0.6,1.2c0.3,0.2,0.6,0.3,1,0.3c0.4,0,1-0.1,1.8-0.4l0.3,0.9l-6.8,2.8h-1.1V33.3z M107.7,31.5V19.8c-0.1-1.1-0.4-2.2-0.9-3.1c-0.5-0.9-1.2-1.6-2-2.1s-1.6-0.7-2.4-0.7c-1.5,0-2.8,0.7-3.9,2c-1.5,1.7-2.3,4.2-2.3,7.5c0,3.3,0.7,5.9,2.2,7.7c1.5,1.8,3.1,2.7,4.9,2.7C104.8,33.8,106.3,33,107.7,31.5z"/><path fill="#FFFFFF" stroke="#FFFFFF" stroke-miterlimit="10" d="M128.2,12.4c3.4,0,6.2,1.3,8.3,3.9c1.8,2.2,2.7,4.8,2.7,7.7c0,2-0.5,4.1-1.5,6.2s-2.3,3.7-4,4.7s-3.6,1.6-5.7,1.6c-3.4,0-6.2-1.4-8.2-4.1c-1.7-2.3-2.6-4.9-2.6-7.7c0-2.1,0.5-4.2,1.6-6.2c1-2.1,2.4-3.6,4.1-4.6C124.5,12.9,126.3,12.4,128.2,12.4z M127.4,14c-0.9,0-1.8,0.3-2.6,0.8c-0.9,0.5-1.6,1.4-2.1,2.7c-0.5,1.3-0.8,3-0.8,5c0,3.3,0.7,6.2,2,8.6c1.3,2.4,3.1,3.6,5.2,3.6c1.6,0,2.9-0.7,4-2c1-1.3,1.6-3.6,1.6-6.8c0-4-0.9-7.2-2.6-9.5C130.7,14.8,129.2,14,127.4,14z"/><path fill="#FFFFFF" stroke="#FFFFFF" stroke-miterlimit="10" d="M149.2,17.2c1.7-1.7,2.6-2.6,2.9-2.9c0.7-0.6,1.5-1.1,2.4-1.5c0.9-0.3,1.7-0.5,2.6-0.5c1.4,0,2.6,0.4,3.7,1.2c1,0.8,1.7,2,2.1,3.6c1.7-2,3.1-3.3,4.3-3.9c1.2-0.6,2.4-0.9,3.6-0.9c1.2,0,2.3,0.3,3.2,0.9c0.9,0.6,1.7,1.6,2.2,3c0.4,1,0.5,2.5,0.5,4.5v9.8c0,1.4,0.1,2.4,0.3,2.9c0.2,0.4,0.5,0.7,0.9,0.9c0.4,0.3,1.2,0.4,2.2,0.4v0.9H169v-0.9h0.5c1,0,1.7-0.2,2.3-0.6c0.4-0.3,0.7-0.7,0.8-1.3c0.1-0.3,0.1-1.1,0.1-2.4v-9.8c0-1.9-0.2-3.2-0.7-3.9c-0.6-1.1-1.7-1.6-3.1-1.6c-0.9,0-1.8,0.2-2.6,0.7c-0.9,0.4-2,1.3-3.2,2.4l0,0.3l0,1.1v10.9c0,1.6,0.1,2.5,0.3,2.9c0.2,0.4,0.5,0.7,1,1c0.5,0.3,1.3,0.4,2.5,0.4v0.9h-11.5v-0.9c1.3,0,2.1-0.1,2.6-0.4s0.8-0.7,1-1.3c0.1-0.3,0.1-1.1,0.1-2.5v-9.8c0-1.9-0.3-3.2-0.8-4c-0.7-1.1-1.7-1.6-3.1-1.6c-0.9,0-1.8,0.2-2.7,0.7c-1.4,0.7-2.4,1.5-3.2,2.5v12.2c0,1.5,0.1,2.5,0.3,2.9s0.5,0.8,0.9,1c0.4,0.2,1.2,0.3,2.5,0.3v0.9h-11.2v-0.9c1,0,1.8-0.1,2.2-0.3c0.4-0.2,0.7-0.6,0.9-1.1c0.2-0.5,0.3-1.4,0.3-2.8V22c0-2.5-0.1-4.1-0.2-4.8c-0.1-0.5-0.3-0.9-0.5-1.1s-0.6-0.3-1-0.3c-0.5,0-1,0.1-1.7,0.4l-0.4-0.9l6.9-2.8h1.1V17.2z"/><path fill="#FFFFFF" stroke="#FFFFFF" stroke-miterlimit="10" d="M203.6,17.8h15.6V8.1c0-1.7-0.1-2.9-0.3-3.4c-0.2-0.4-0.5-0.8-1-1.1c-0.7-0.4-1.5-0.6-2.3-0.6h-1.2V2.1h14.4v0.9h-1.2c-0.8,0-1.5,0.2-2.3,0.6c-0.5,0.3-0.9,0.7-1.1,1.2c-0.2,0.5-0.3,1.6-0.3,3.3v21.7c0,1.7,0.1,2.8,0.3,3.4c0.2,0.4,0.5,0.8,1,1.1c0.7,0.4,1.5,0.6,2.3,0.6h1.2v0.9h-14.4v-0.9h1.2c1.4,0,2.4-0.4,3-1.2c0.4-0.5,0.6-1.8,0.6-3.8V19.6h-15.6v10.3c0,1.7,0.1,2.8,0.3,3.4c0.2,0.4,0.5,0.8,1,1.1c0.7,0.4,1.5,0.6,2.3,0.6h1.2v0.9H194v-0.9h1.2c1.4,0,2.4-0.4,3-1.2c0.4-0.5,0.6-1.8,0.6-3.8V8.1c0-1.7-0.1-2.9-0.3-3.4c-0.2-0.4-0.5-0.8-1-1.1c-0.7-0.4-1.5-0.6-2.3-0.6H194V2.1h14.4v0.9h-1.2c-0.8,0-1.5,0.2-2.3,0.6c-0.5,0.3-0.9,0.7-1.1,1.2c-0.2,0.5-0.3,1.6-0.3,3.3V17.8z"/><path fill="#FFFFFF" stroke="#FFFFFF" stroke-miterlimit="10" d="M242.6,12.4c3.4,0,6.2,1.3,8.3,3.9c1.8,2.2,2.7,4.8,2.7,7.7c0,2-0.5,4.1-1.5,6.2c-1,2.1-2.3,3.7-4,4.7c-1.7,1.1-3.6,1.6-5.7,1.6c-3.4,0-6.2-1.4-8.2-4.1c-1.7-2.3-2.6-4.9-2.6-7.7c0-2.1,0.5-4.2,1.6-6.2c1-2.1,2.4-3.6,4.1-4.6C238.9,12.9,240.7,12.4,242.6,12.4z M241.8,14c-0.9,0-1.8,0.3-2.6,0.8s-1.6,1.4-2.1,2.7c-0.5,1.3-0.8,3-0.8,5c0,3.3,0.7,6.2,2,8.6c1.3,2.4,3.1,3.6,5.2,3.6c1.6,0,2.9-0.7,4-2c1-1.3,1.6-3.6,1.6-6.8c0-4-0.9-7.2-2.6-9.5C245.2,14.8,243.7,14,241.8,14z"/><path fill="#FFFFFF" stroke="#FFFFFF" stroke-miterlimit="10" d="M271.6,12.4v7.7h-0.8c-0.6-2.4-1.4-4.1-2.4-5c-1-0.9-2.2-1.3-3.8-1.3c-1.2,0-2.1,0.3-2.8,0.9c-0.7,0.6-1.1,1.3-1.1,2c0,0.9,0.3,1.7,0.8,2.4c0.5,0.7,1.6,1.4,3.1,2.2l3.6,1.8c3.4,1.6,5,3.8,5,6.5c0,2.1-0.8,3.7-2.3,5c-1.6,1.3-3.3,1.9-5.3,1.9c-1.4,0-3-0.2-4.8-0.7c-0.5-0.2-1-0.2-1.3-0.2c-0.4,0-0.7,0.2-0.9,0.6h-0.8V28h0.8c0.5,2.3,1.3,4.1,2.7,5.2s2.8,1.8,4.4,1.8c1.1,0,2.1-0.3,2.8-1c0.7-0.7,1.1-1.5,1.1-2.4c0-1.1-0.4-2.1-1.2-2.9s-2.4-1.8-4.8-3s-4-2.3-4.7-3.2c-0.7-0.9-1.1-2.1-1.1-3.6c0-1.9,0.6-3.4,1.9-4.7c1.3-1.3,2.9-1.9,5-1.9c0.9,0,2,0.2,3.3,0.6c0.8,0.2,1.4,0.4,1.7,0.4c0.3,0,0.5-0.1,0.6-0.2c0.1-0.1,0.3-0.4,0.5-0.8H271.6z"/><path fill="#FFFFFF" stroke="#FFFFFF" stroke-miterlimit="10" d="M283.3,5.6v7.5h5.3v1.7h-5.3v14.8c0,1.5,0.2,2.5,0.6,3c0.4,0.5,1,0.8,1.6,0.8c0.5,0,1.1-0.2,1.6-0.5c0.5-0.3,0.9-0.8,1.2-1.5h1c-0.6,1.6-1.4,2.8-2.5,3.7c-1.1,0.8-2.2,1.2-3.3,1.2c-0.8,0-1.5-0.2-2.2-0.6c-0.7-0.4-1.3-1-1.6-1.8s-0.5-2-0.5-3.6V14.8h-3.6V14c0.9-0.4,1.8-1,2.8-1.9c1-0.9,1.8-1.9,2.5-3.1c0.4-0.6,0.9-1.8,1.6-3.5H283.3z"/><path fill="#FFFFFF" stroke="#FFFFFF" stroke-miterlimit="10" d="M298.7,12.4v18.3c0,1.4,0.1,2.4,0.3,2.8s0.5,0.8,0.9,1.1c0.4,0.2,1.1,0.3,2.2,0.3v0.9h-11v-0.9c1.1,0,1.9-0.1,2.2-0.3c0.4-0.2,0.7-0.6,0.9-1.1s0.3-1.4,0.3-2.9v-8.8c0-2.5-0.1-4.1-0.2-4.8c-0.1-0.5-0.3-0.9-0.5-1.1s-0.6-0.3-1-0.3c-0.5,0-1,0.1-1.7,0.4l-0.3-0.9l6.9-2.8H298.7z M296.6,0.5c0.7,0,1.3,0.2,1.8,0.7c0.5,0.5,0.7,1.1,0.7,1.8c0,0.7-0.2,1.3-0.7,1.8s-1.1,0.7-1.8,0.7s-1.3-0.2-1.8-0.7c-0.5-0.5-0.7-1.1-0.7-1.8c0-0.7,0.2-1.3,0.7-1.8C295.3,0.7,295.9,0.5,296.6,0.5z"/><path fill="#FFFFFF" stroke="#FFFFFF" stroke-miterlimit="10" d="M311.6,17.2c2.7-3.2,5.2-4.8,7.6-4.8c1.2,0,2.3,0.3,3.2,0.9c0.9,0.6,1.6,1.6,2.1,3.1c0.4,1,0.5,2.5,0.5,4.6v9.7c0,1.4,0.1,2.4,0.3,2.9c0.2,0.4,0.5,0.7,0.9,1c0.4,0.2,1.2,0.3,2.2,0.3v0.9h-11.2v-0.9h0.5c1.1,0,1.8-0.2,2.2-0.5c0.4-0.3,0.7-0.8,0.9-1.4c0.1-0.2,0.1-1,0.1-2.3v-9.3c0-2.1-0.3-3.6-0.8-4.5c-0.5-0.9-1.4-1.4-2.7-1.4c-2,0-3.9,1.1-5.9,3.2v12c0,1.5,0.1,2.5,0.3,2.9c0.2,0.5,0.5,0.8,1,1.1c0.4,0.2,1.2,0.3,2.5,0.3v0.9H304v-0.9h0.5c1.2,0,1.9-0.3,2.3-0.9c0.4-0.6,0.6-1.7,0.6-3.4v-8.4c0-2.7-0.1-4.4-0.2-5c-0.1-0.6-0.3-1-0.6-1.2c-0.3-0.2-0.6-0.3-1-0.3c-0.5,0-1,0.1-1.7,0.4l-0.4-0.9l6.9-2.8h1.1V17.2z"/><path fill="#FFFFFF" stroke="#FFFFFF" stroke-miterlimit="10" d="M336.5,27.5c-1.4-0.7-2.5-1.6-3.2-2.8s-1.1-2.6-1.1-4c0-2.3,0.8-4.2,2.5-5.8c1.7-1.6,3.9-2.4,6.5-2.4c2.2,0,4,0.5,5.6,1.6h4.8c0.7,0,1.1,0,1.2,0.1c0.1,0,0.2,0.1,0.2,0.2c0.1,0.1,0.1,0.4,0.1,0.8c0,0.4,0,0.7-0.1,0.9c0,0.1-0.1,0.1-0.3,0.2c-0.1,0-0.5,0.1-1.3,0.1h-3c0.9,1.2,1.4,2.7,1.4,4.6c0,2.1-0.8,3.9-2.4,5.4c-1.6,1.5-3.8,2.3-6.5,2.3c-1.1,0-2.3-0.2-3.5-0.5c-0.7,0.6-1.2,1.2-1.5,1.7c-0.3,0.5-0.4,0.9-0.4,1.2c0,0.3,0.1,0.6,0.4,0.8c0.3,0.3,0.8,0.5,1.6,0.6c0.5,0.1,1.6,0.1,3.5,0.2c3.4,0.1,5.6,0.2,6.6,0.3c1.5,0.2,2.8,0.8,3.7,1.7c0.9,0.9,1.4,2.1,1.4,3.4c0,1.9-0.9,3.6-2.6,5.3c-2.6,2.4-6,3.6-10.1,3.6c-3.2,0-5.9-0.7-8.1-2.2c-1.2-0.8-1.9-1.7-1.9-2.6c0-0.4,0.1-0.8,0.3-1.2c0.3-0.6,0.9-1.5,1.7-2.6c0.1-0.1,1-1,2.5-2.7c-0.9-0.5-1.5-1-1.8-1.4c-0.4-0.4-0.5-0.9-0.5-1.4c0-0.6,0.2-1.3,0.7-2C333.7,30,334.8,28.9,336.5,27.5z M336.2,35.8c-0.8,0.8-1.4,1.6-1.8,2.4c-0.4,0.7-0.6,1.4-0.6,2c0,0.8,0.5,1.5,1.4,2.1c1.7,1,4,1.5,7.2,1.5c3,0,5.2-0.5,6.6-1.6c1.4-1.1,2.1-2.2,2.1-3.4c0-0.9-0.4-1.5-1.3-1.8c-0.9-0.4-2.6-0.6-5.1-0.6C341.1,36.3,338.2,36.1,336.2,35.8z M340.8,13.6c-1.2,0-2.3,0.5-3.1,1.5c-0.8,1-1.2,2.5-1.2,4.5c0,2.6,0.6,4.6,1.7,6.1c0.9,1.1,2,1.6,3.3,1.6c1.3,0,2.3-0.5,3.1-1.4c0.8-0.9,1.2-2.4,1.2-4.4c0-2.6-0.6-4.7-1.7-6.2C343.2,14.1,342.1,13.6,340.8,13.6z"/><path fill="#FFFFFF" stroke="#FFFFFF" stroke-miterlimit="10" d="M382.6,34.9v0.9h-14.4v-0.9h1.2c1.4,0,2.4-0.4,3-1.2c0.4-0.5,0.6-1.8,0.6-3.8V8.1c0-1.7-0.1-2.8-0.3-3.4c-0.2-0.4-0.5-0.8-1-1.1c-0.7-0.4-1.5-0.6-2.3-0.6h-1.2V2.1h14.4v0.9h-1.2c-1.4,0-2.4,0.4-3,1.2c-0.4,0.5-0.6,1.8-0.6,3.8v21.8c0,1.7,0.1,2.8,0.3,3.4c0.2,0.4,0.5,0.8,1,1.1c0.7,0.4,1.5,0.6,2.3,0.6H382.6z"/><path fill="#FFFFFF" stroke="#FFFFFF" stroke-miterlimit="10" d="M399.6,34.9v0.9h-14.4v-0.9h1.2c1.4,0,2.4-0.4,3-1.2c0.4-0.5,0.6-1.8,0.6-3.8V8.1c0-1.7-0.1-2.8-0.3-3.4c-0.2-0.4-0.5-0.8-1-1.1c-0.7-0.4-1.5-0.6-2.3-0.6h-1.2V2.1h14.4v0.9h-1.2c-1.4,0-2.4,0.4-3,1.2c-0.4,0.5-0.6,1.8-0.6,3.8v21.8c0,1.7,0.1,2.8,0.3,3.4c0.2,0.4,0.5,0.8,1,1.1c0.7,0.4,1.5,0.6,2.3,0.6H399.6z"/></g></svg>