<svg version="1.2" baseProfile="tiny" xmlns="http://www.w3.org/2000/svg" viewBox="0 0 400.1 47.3" overflow="scroll"><g fill="#FFF" stroke="#FFF" stroke-miterlimit="10"><path d="M10.1 4v13.2h6.1c1.4 0 2.4-.3 3.1-.9.7-.6 1.1-1.8 1.3-3.7h.9V24h-.9c0-1.3-.2-2.3-.5-2.9-.3-.6-.8-1.1-1.3-1.4-.6-.3-1.4-.5-2.5-.5h-6.1v10.6c0 1.7.1 2.8.3 3.4.2.4.5.8 1 1.1.7.4 1.5.6 2.3.6H15v.9H.5v-.9h1.2c1.4 0 2.4-.4 3-1.2.4-.5.6-1.8.6-3.8V8.1c0-1.7-.1-2.8-.3-3.4-.2-.4-.5-.7-1-1-.7-.4-1.5-.6-2.3-.6H.5v-1h25.1l.3 7.4H25c-.4-1.6-.9-2.7-1.5-3.5-.6-.7-1.3-1.3-2.1-1.6-.8-.3-2.1-.4-3.9-.4h-7.4zM36.2 12.4v5.1c1.9-3.4 3.9-5.1 5.9-5.1.9 0 1.7.3 2.3.8.6.6.9 1.2.9 1.9 0 .6-.2 1.2-.6 1.6-.4.4-.9.7-1.5.7s-1.2-.3-1.9-.9c-.7-.6-1.3-.9-1.6-.9-.3 0-.6.2-1 .5-.7.7-1.5 1.8-2.3 3.4v10.9c0 1.3.2 2.2.5 2.9.2.4.6.8 1.1 1.1s1.3.4 2.4.4v.9H28.5v-.9c1.2 0 2-.2 2.6-.5.4-.3.7-.7.9-1.3.1-.3.1-1.1.1-2.4v-8.8c0-2.6-.1-4.2-.2-4.7s-.3-.9-.6-1.1c-.3-.2-.6-.3-1.1-.3-.5 0-1.1.1-1.7.4l-.2-.9 6.9-2.8h1zM50.3 21.6c0 3.4.8 6 2.5 7.9 1.7 1.9 3.6 2.9 5.8 2.9 1.5 0 2.8-.4 3.9-1.2 1.1-.8 2-2.2 2.8-4.2l.8.5c-.3 2.3-1.4 4.3-3 6.2-1.7 1.9-3.8 2.8-6.3 2.8-2.7 0-5.1-1.1-7-3.2-1.9-2.1-2.9-5-2.9-8.6 0-3.9 1-6.9 3-9.1 2-2.2 4.5-3.3 7.5-3.3 2.5 0 4.6.8 6.3 2.5 1.6 1.7 2.5 3.9 2.5 6.7H50.3zm0-1.4h10.5c-.1-1.5-.3-2.5-.5-3.1-.4-.9-1-1.7-1.8-2.2s-1.7-.8-2.6-.8c-1.4 0-2.6.5-3.7 1.6s-1.7 2.6-1.9 4.5zM72.9 21.6c0 3.4.8 6 2.5 7.9 1.7 1.9 3.6 2.9 5.8 2.9 1.5 0 2.8-.4 3.9-1.2 1.1-.8 2-2.2 2.8-4.2l.8.5c-.3 2.3-1.4 4.3-3 6.2-1.7 1.9-3.8 2.8-6.3 2.8-2.7 0-5.1-1.1-7-3.2-1.9-2.1-2.9-5-2.9-8.6 0-3.9 1-6.9 3-9.1 2-2.2 4.5-3.3 7.5-3.3 2.5 0 4.6.8 6.3 2.5 1.6 1.7 2.5 3.9 2.5 6.7H72.9zm0-1.4h10.5c-.1-1.5-.3-2.5-.5-3.1-.4-.9-1-1.7-1.8-2.2s-1.7-.8-2.6-.8c-1.4 0-2.6.5-3.7 1.6s-1.7 2.6-1.9 4.5zM107.7 33.3c-1.1 1.2-2.2 2-3.3 2.5s-2.2.8-3.4.8c-2.5 0-4.7-1-6.5-3.1-1.9-2.1-2.8-4.7-2.8-8s1-6.2 3.1-9c2.1-2.7 4.7-4.1 7.9-4.1 2 0 3.7.6 5 1.9v-4.2c0-2.6-.1-4.2-.2-4.8-.1-.6-.3-1-.6-1.2-.3-.2-.6-.3-1-.3s-1 .1-1.7.4l-.3-.9 6.8-2.8h1.1v26.3c0 2.7.1 4.3.2 4.9.1.6.3 1 .6 1.2.3.2.6.3 1 .3s1-.1 1.8-.4l.3.9-6.8 2.8h-1.1v-3.2zm0-1.8V19.8c-.1-1.1-.4-2.2-.9-3.1-.5-.9-1.2-1.6-2-2.1s-1.6-.7-2.4-.7c-1.5 0-2.8.7-3.9 2-1.5 1.7-2.3 4.2-2.3 7.5s.7 5.9 2.2 7.7c1.5 1.8 3.1 2.7 4.9 2.7 1.5 0 3-.8 4.4-2.3zM128.2 12.4c3.4 0 6.2 1.3 8.3 3.9 1.8 2.2 2.7 4.8 2.7 7.7 0 2-.5 4.1-1.5 6.2s-2.3 3.7-4 4.7-3.6 1.6-5.7 1.6c-3.4 0-6.2-1.4-8.2-4.1-1.7-2.3-2.6-4.9-2.6-7.7 0-2.1.5-4.2 1.6-6.2 1-2.1 2.4-3.6 4.1-4.6 1.6-1 3.4-1.5 5.3-1.5zm-.8 1.6c-.9 0-1.8.3-2.6.8-.9.5-1.6 1.4-2.1 2.7-.5 1.3-.8 3-.8 5 0 3.3.7 6.2 2 8.6 1.3 2.4 3.1 3.6 5.2 3.6 1.6 0 2.9-.7 4-2 1-1.3 1.6-3.6 1.6-6.8 0-4-.9-7.2-2.6-9.5-1.4-1.6-2.9-2.4-4.7-2.4zM149.2 17.2l2.9-2.9c.7-.6 1.5-1.1 2.4-1.5.9-.3 1.7-.5 2.6-.5 1.4 0 2.6.4 3.7 1.2 1 .8 1.7 2 2.1 3.6 1.7-2 3.1-3.3 4.3-3.9 1.2-.6 2.4-.9 3.6-.9 1.2 0 2.3.3 3.2.9.9.6 1.7 1.6 2.2 3 .4 1 .5 2.5.5 4.5v9.8c0 1.4.1 2.4.3 2.9.2.4.5.7.9.9.4.3 1.2.4 2.2.4v.9H169v-.9h.5c1 0 1.7-.2 2.3-.6.4-.3.7-.7.8-1.3.1-.3.1-1.1.1-2.4v-9.8c0-1.9-.2-3.2-.7-3.9-.6-1.1-1.7-1.6-3.1-1.6-.9 0-1.8.2-2.6.7-.9.4-2 1.3-3.2 2.4v12.3c0 1.6.1 2.5.3 2.9.2.4.5.7 1 1 .5.3 1.3.4 2.5.4v.9h-11.5v-.9c1.3 0 2.1-.1 2.6-.4s.8-.7 1-1.3c.1-.3.1-1.1.1-2.5v-9.8c0-1.9-.3-3.2-.8-4-.7-1.1-1.7-1.6-3.1-1.6-.9 0-1.8.2-2.7.7-1.4.7-2.4 1.5-3.2 2.5v12.2c0 1.5.1 2.5.3 2.9s.5.8.9 1c.4.2 1.2.3 2.5.3v.9h-11.2v-.9c1 0 1.8-.1 2.2-.3.4-.2.7-.6.9-1.1.2-.5.3-1.4.3-2.8V22c0-2.5-.1-4.1-.2-4.8-.1-.5-.3-.9-.5-1.1s-.6-.3-1-.3c-.5 0-1 .1-1.7.4l-.4-.9 6.9-2.8h1.1v4.7zM203.6 17.8h15.6V8.1c0-1.7-.1-2.9-.3-3.4-.2-.4-.5-.8-1-1.1-.7-.4-1.5-.6-2.3-.6h-1.2v-.9h14.4V3h-1.2c-.8 0-1.5.2-2.3.6-.5.3-.9.7-1.1 1.2-.2.5-.3 1.6-.3 3.3v21.7c0 1.7.1 2.8.3 3.4.2.4.5.8 1 1.1.7.4 1.5.6 2.3.6h1.2v.9h-14.4v-.9h1.2c1.4 0 2.4-.4 3-1.2.4-.5.6-1.8.6-3.8V19.6h-15.6v10.3c0 1.7.1 2.8.3 3.4.2.4.5.8 1 1.1.7.4 1.5.6 2.3.6h1.2v.9H194V35h1.2c1.4 0 2.4-.4 3-1.2.4-.5.6-1.8.6-3.8V8.1c0-1.7-.1-2.9-.3-3.4-.2-.4-.5-.8-1-1.1-.7-.4-1.5-.6-2.3-.6H194v-.9h14.4V3h-1.2c-.8 0-1.5.2-2.3.6-.5.3-.9.7-1.1 1.2-.2.5-.3 1.6-.3 3.3v9.7zM242.6 12.4c3.4 0 6.2 1.3 8.3 3.9 1.8 2.2 2.7 4.8 2.7 7.7 0 2-.5 4.1-1.5 6.2-1 2.1-2.3 3.7-4 4.7-1.7 1.1-3.6 1.6-5.7 1.6-3.4 0-6.2-1.4-8.2-4.1-1.7-2.3-2.6-4.9-2.6-7.7 0-2.1.5-4.2 1.6-6.2 1-2.1 2.4-3.6 4.1-4.6 1.6-1 3.4-1.5 5.3-1.5zm-.8 1.6c-.9 0-1.8.3-2.6.8s-1.6 1.4-2.1 2.7c-.5 1.3-.8 3-.8 5 0 3.3.7 6.2 2 8.6 1.3 2.4 3.1 3.6 5.2 3.6 1.6 0 2.9-.7 4-2 1-1.3 1.6-3.6 1.6-6.8 0-4-.9-7.2-2.6-9.5-1.3-1.6-2.8-2.4-4.7-2.4zM271.6 12.4v7.7h-.8c-.6-2.4-1.4-4.1-2.4-5-1-.9-2.2-1.3-3.8-1.3-1.2 0-2.1.3-2.8.9-.7.6-1.1 1.3-1.1 2 0 .9.3 1.7.8 2.4s1.6 1.4 3.1 2.2l3.6 1.8c3.4 1.6 5 3.8 5 6.5 0 2.1-.8 3.7-2.3 5-1.6 1.3-3.3 1.9-5.3 1.9-1.4 0-3-.2-4.8-.7-.5-.2-1-.2-1.3-.2-.4 0-.7.2-.9.6h-.8V28h.8c.5 2.3 1.3 4.1 2.7 5.2s2.8 1.8 4.4 1.8c1.1 0 2.1-.3 2.8-1 .7-.7 1.1-1.5 1.1-2.4 0-1.1-.4-2.1-1.2-2.9s-2.4-1.8-4.8-3-4-2.3-4.7-3.2c-.7-.9-1.1-2.1-1.1-3.6 0-1.9.6-3.4 1.9-4.7 1.3-1.3 2.9-1.9 5-1.9.9 0 2 .2 3.3.6.8.2 1.4.4 1.7.4.3 0 .5-.1.6-.2.1-.1.3-.4.5-.8h.8zM283.3 5.6v7.5h5.3v1.7h-5.3v14.8c0 1.5.2 2.5.6 3 .4.5 1 .8 1.6.8.5 0 1.1-.2 1.6-.5s.9-.8 1.2-1.5h1c-.6 1.6-1.4 2.8-2.5 3.7-1.1.8-2.2 1.2-3.3 1.2-.8 0-1.5-.2-2.2-.6-.7-.4-1.3-1-1.6-1.8s-.5-2-.5-3.6V14.8h-3.6V14c.9-.4 1.8-1 2.8-1.9 1-.9 1.8-1.9 2.5-3.1.4-.6.9-1.8 1.6-3.5h.8zM298.7 12.4v18.3c0 1.4.1 2.4.3 2.8s.5.8.9 1.1c.4.2 1.1.3 2.2.3v.9h-11v-.9c1.1 0 1.9-.1 2.2-.3.4-.2.7-.6.9-1.1s.3-1.4.3-2.9v-8.8c0-2.5-.1-4.1-.2-4.8-.1-.5-.3-.9-.5-1.1s-.6-.3-1-.3c-.5 0-1 .1-1.7.4l-.3-.9 6.9-2.8h1zM296.6.5c.7 0 1.3.2 1.8.7.5.5.7 1.1.7 1.8s-.2 1.3-.7 1.8-1.1.7-1.8.7-1.3-.2-1.8-.7c-.5-.5-.7-1.1-.7-1.8s.2-1.3.7-1.8c.5-.5 1.1-.7 1.8-.7zM311.6 17.2c2.7-3.2 5.2-4.8 7.6-4.8 1.2 0 2.3.3 3.2.9.9.6 1.6 1.6 2.1 3.1.4 1 .5 2.5.5 4.6v9.7c0 1.4.1 2.4.3 2.9.2.4.5.7.9 1 .4.2 1.2.3 2.2.3v.9h-11.2v-.9h.5c1.1 0 1.8-.2 2.2-.5.4-.3.7-.8.9-1.4.1-.2.1-1 .1-2.3v-9.3c0-2.1-.3-3.6-.8-4.5-.5-.9-1.4-1.4-2.7-1.4-2 0-3.9 1.1-5.9 3.2v12c0 1.5.1 2.5.3 2.9.2.5.5.8 1 1.1.4.2 1.2.3 2.5.3v.9H304V35h.5c1.2 0 1.9-.3 2.3-.9.4-.6.6-1.7.6-3.4v-8.4c0-2.7-.1-4.4-.2-5-.1-.6-.3-1-.6-1.2-.3-.2-.6-.3-1-.3-.5 0-1 .1-1.7.4l-.4-.9 6.9-2.8h1.1v4.7zM336.5 27.5c-1.4-.7-2.5-1.6-3.2-2.8s-1.1-2.6-1.1-4c0-2.3.8-4.2 2.5-5.8 1.7-1.6 3.9-2.4 6.5-2.4 2.2 0 4 .5 5.6 1.6h4.8c.7 0 1.1 0 1.2.1.1 0 .2.1.2.2.1.1.1.4.1.8s0 .7-.1.9c0 .1-.1.1-.3.2-.1 0-.5.1-1.3.1h-3c.9 1.2 1.4 2.7 1.4 4.6 0 2.1-.8 3.9-2.4 5.4-1.6 1.5-3.8 2.3-6.5 2.3-1.1 0-2.3-.2-3.5-.5-.7.6-1.2 1.2-1.5 1.7-.3.5-.4.9-.4 1.2 0 .3.1.6.4.8.3.3.8.5 1.6.6.5.1 1.6.1 3.5.2 3.4.1 5.6.2 6.6.3 1.5.2 2.8.8 3.7 1.7.9.9 1.4 2.1 1.4 3.4 0 1.9-.9 3.6-2.6 5.3-2.6 2.4-6 3.6-10.1 3.6-3.2 0-5.9-.7-8.1-2.2-1.2-.8-1.9-1.7-1.9-2.6 0-.4.1-.8.3-1.2.3-.6.9-1.5 1.7-2.6.1-.1 1-1 2.5-2.7-.9-.5-1.5-1-1.8-1.4-.4-.4-.5-.9-.5-1.4 0-.6.2-1.3.7-2 .8-.9 1.9-2 3.6-3.4zm-.3 8.3c-.8.8-1.4 1.6-1.8 2.4-.4.7-.6 1.4-.6 2 0 .8.5 1.5 1.4 2.1 1.7 1 4 1.5 7.2 1.5 3 0 5.2-.5 6.6-1.6 1.4-1.1 2.1-2.2 2.1-3.4 0-.9-.4-1.5-1.3-1.8-.9-.4-2.6-.6-5.1-.6-3.6-.1-6.5-.3-8.5-.6zm4.6-22.2c-1.2 0-2.3.5-3.1 1.5-.8 1-1.2 2.5-1.2 4.5 0 2.6.6 4.6 1.7 6.1.9 1.1 2 1.6 3.3 1.6 1.3 0 2.3-.5 3.1-1.4.8-.9 1.2-2.4 1.2-4.4 0-2.6-.6-4.7-1.7-6.2-.9-1.2-2-1.7-3.3-1.7zM382.6 34.9v.9h-14.4v-.9h1.2c1.4 0 2.4-.4 3-1.2.4-.5.6-1.8.6-3.8V8.1c0-1.7-.1-2.8-.3-3.4-.2-.4-.5-.8-1-1.1-.7-.4-1.5-.6-2.3-.6h-1.2v-.9h14.4V3h-1.2c-1.4 0-2.4.4-3 1.2-.4.5-.6 1.8-.6 3.8v21.8c0 1.7.1 2.8.3 3.4.2.4.5.8 1 1.1.7.4 1.5.6 2.3.6h1.2zM399.6 34.9v.9h-14.4v-.9h1.2c1.4 0 2.4-.4 3-1.2.4-.5.6-1.8.6-3.8V8.1c0-1.7-.1-2.8-.3-3.4-.2-.4-.5-.8-1-1.1-.7-.4-1.5-.6-2.3-.6h-1.2v-.9h14.4V3h-1.2c-1.4 0-2.4.4-3 1.2-.4.5-.6 1.8-.6 3.8v21.8c0 1.7.1 2.8.3 3.4.2.4.5.8 1 1.1.7.4 1.5.6 2.3.6h1.2z"/></g></svg>