<svg version="1.2" baseProfile="tiny" id="Layer_1" xmlns="http://www.w3.org/2000/svg" xmlns:xlink="http://www.w3.org/1999/xlink"
 x="0px" y="0px" width="103.8px" height="78px" viewBox="0 0 103.8 78" xml:space="preserve"><g><path fill="#85B2C6" d="M68.9,68.5c-4.1,0.1-8.5-2.5-9.1-6.8c-1.2-6-0.4-12.2-0.5-18.3c14.8,0.1,29.7,0,44.5,0 c-0.2-10,0.3-19.9-0.3-29.9c-0.5-4.3-1.2-9.9-5.9-11.7C90-0.9,81.7,0.3,73.8,0.1c-7.4-0.2-16.1,0-21.3,6.2 c-3.7-4.7-9.9-6.2-15.6-6.1c-11.3,0-22.6,0-33.9,0c-0.1,3-0.2,6.1-0.3,9.1c11.1-0.1,22.1-0.1,33.2-0.1c3.4-0.1,7.6,0.9,9,4.5 c2.7,6.5,1,13.8,1.5,20.6c-10.2,0.2-20.4-0.1-30.5,0.2c-4,0.3-8.2,0.5-11.6,2.7c-4.6,4.2-4,11-4.2,16.6c0.3,6.3-0.5,13,2,19 c3.9,5.1,11,5,16.8,5.3c27.3-0.3,54.6,0.2,81.9-0.3c0-3.1,0-6.1,0-9.2C90.1,68.6,79.5,68.6,68.9,68.5z M59.5,17.6 c0.5-3.9,3.3-7.7,7.4-8.1c4.6-0.3,9.2-0.4,13.8,0c3.3,0.3,5.4,3.4,6.3,6.4c1.7,6,1,12.3,1.1,18.5c-9.6,0.1-19.3,0.1-28.9,0 C59.2,28.7,58.8,23.1,59.5,17.6z M46.6,69c-8.3,0-16.6,0.1-24.9,0c-2.5,0.1-4-2.2-4.8-4.2c-1.9-5.3-3-11.1-1.5-16.6 c0.8-2.8,3.3-4.8,6.3-4.6c8.2,0,16.5-0.1,24.7,0.1C46.5,52.1,46.8,60.5,46.6,69z"/></g></svg> 