<svg version="1.2" baseProfile="tiny" xmlns="http://www.w3.org/2000/svg" width="103.8" height="78"><path fill="#85B2C6" d="M68.9 68.5c-4.1.1-8.5-2.5-9.1-6.8-1.2-6-.4-12.2-.5-18.3 14.8.1 29.7 0 44.5 0-.2-10 .3-19.9-.3-29.9-.5-4.3-1.2-9.9-5.9-11.7C90-.9 81.7.3 73.8.1c-7.4-.2-16.1 0-21.3 6.2C48.8 1.6 42.6.1 36.9.2H3c-.1 3-.2 6.1-.3 9.1 11.1-.1 22.1-.1 33.2-.1 3.4-.1 7.6.9 9 4.5 2.7 6.5 1 13.8 1.5 20.6-10.2.2-20.4-.1-30.5.2-4 .3-8.2.5-11.6 2.7-4.6 4.2-4 11-4.2 16.6.3 6.3-.5 13 2 19 3.9 5.1 11 5 16.8 5.3 27.3-.3 54.6.2 81.9-.3v-9.2c-10.7 0-21.3 0-31.9-.1zm-9.4-50.9c.5-3.9 3.3-7.7 7.4-8.1 4.6-.3 9.2-.4 13.8 0 3.3.3 5.4 3.4 6.3 6.4 1.7 6 1 12.3 1.1 18.5-9.6.1-19.3.1-28.9 0 0-5.7-.4-11.3.3-16.8zM46.6 69c-8.3 0-16.6.1-24.9 0-2.5.1-4-2.2-4.8-4.2-1.9-5.3-3-11.1-1.5-16.6.8-2.8 3.3-4.8 6.3-4.6 8.2 0 16.5-.1 24.7.1.1 8.4.4 16.8.2 25.3z"/></svg>