<svg xmlns="http://www.w3.org/2000/svg" width="100" height="69.353"><path fill-rule="evenodd" fill="#D3473A" d="M4.938 66.063c-.617-.491-1.284-2.227-2.414-2.76.672-3.735-1.216-6.944-.862-10.866.084-.948.672-1.733.862-2.591.453-2.054.168-4.893-.518-7.242-.309-1.056-1.222-1.896-1.381-3.276C.12 34.922.592 29.685.28 25.357c-.164-2.286-.693-3.799.345-5.52-.754-2.335-.539-6.933.172-10.351.229-1.09.556-2.832.866-3.446C2.86 3.641 5.708 4.298 7.527 2.762c1.657 1.343 4.736.033 6.209-.172 3.325-.462 6.672-.304 10.176-.864 1.304-.208 2.813-.228 3.449-.69.111-.08 1.74-.51 2.069-1.036.762.417.977.396 1.898 0 2.386 1.386 5.243.305 8.624 1.035.437.095.887.477 1.381.516 2.348.198 4.645-.92 7.762-.687 3.439.256 7.16.997 11.04.861 2.376-.082 4.422-.098 6.036 0 3.279.194 6.632-.354 9.485-.175 3.704.233 7.961.658 11.902.863 3.279.168 6.211-.24 8.969 1.207.674.13.721 1.8 1.377 1.379.809 3.263-.109 8.874.346 14.142.212 2.439.267 5.463.517 8.106.25 2.64 1.25 5.412 1.209 7.763-.021 1.067-.593 2.092-.691 3.105-.186 1.885.259 3.685.346 5.691.046 1.03-.273 2.061-.171 3.107.09.962.473 1.634.517 2.585.266 5.801-1.762 10.596-3.279 15.524-2.168 1.754-5.05 3.027-8.278 2.76-.8-.065-1.488-.458-2.243-.519-2.414-.182-4.256.812-6.729 1.036-2.3.21-4.8-.429-7.246-.171-.462.048-.936.438-1.378.517-1.041.183-2.375.171-3.45.173-3.686.008-7.622.142-11.212-.173-1.984-.175-3.899-.914-5.692-.691-.635.079-1.225.527-1.898.691-1.314.314-3.222.087-5.173.173-2.668.116-5.264.633-8.107.518-1.465-.06-2.932-.736-4.486-.861-1.813-.149-3.632.352-5.519.344-1.448-.007-2.934-.564-4.313-.689-.969-.093-1.923.233-2.762.171-1.309-.098-2.685-.611-4.137-.69-2.468-.134-4.918.337-6.9-.173-.798-.206-1.407-.905-2.069-1.207-.089-.04-.625.447-.174-.173"/><path fill="#812E26" d="M75.341 8.941h1.556l-.009 20.987h-1.582c-.952-2.752-1.21-3.104-2.021-4.734-.813-1.626-1.707-3.058-2.688-4.296-2.745-3.606-6.208-6.456-10.395-8.552-4.186-2.095-8.491-3.142-12.915-3.142-2.296 0-4.58.38-6.847 1.136-2.268.757-4.102 1.767-5.501 3.026-2.324 2.093-4.011 4.982-5.062 8.666-1.049 3.684-1.575 8.44-1.575 14.268 0 1.74.085 3.472.253 5.187.166 1.716.392 3.237.673 4.559.279 1.325.63 2.625 1.051 3.898.42 1.276.88 2.315 1.385 3.123a17.234 17.234 0 0 0 2.962 3.443c1.105.984 2.405 1.843 3.905 2.573a19.6 19.6 0 0 0 4.768 1.61c1.679.34 2.785.512 4.635.512 2.38 0 3.945-.271 6.325-.813 2.381-.542 3.653-1.253 5.11-2.139 2.771-1.715 3.488-4.012 3.488-6.888v-2.726c0-6.406-.487-11.352-9.998-11.352H50.53v-1.4h35.605v1.4h.042c-3.611 0-5.397 1.03-7.147 2.607-1.749 1.575-2.384 5.491-2.384 8.744l.892 8.419-.729.647c-4.216-2.027-12.884 1.485-14.76 2.189-3.054.984-5.658 1.859-7.45 2.199-1.792.342-3.99.511-6.592.511-4.928 0-9.527-.667-13.797-2.005-4.27-1.338-7.98-3.237-11.128-5.695-3.149-2.462-5.594-5.357-7.328-8.687-1.735-3.331-2.603-6.914-2.603-10.751 0-2.318.337-4.61 1.007-6.869a24.167 24.167 0 0 1 2.899-6.302c1.258-1.943 2.828-3.785 4.704-5.525a34.186 34.186 0 0 1 7.204-4.921 39.13 39.13 0 0 1 8.316-3.104c2.924-.731 5.844-1.099 8.754-1.099s5.761.335 8.547 1.005c2.787.668 5.845 1.747 9.177 3.235 2.49 1.135 4.242 1.701 5.249 1.701 1.035 0 2.053-.363 3.046-1.097.993-.731 2.093-1.918 3.297-3.558"/></svg>