<svg xmlns="http://www.w3.org/2000/svg" width="213.6" height="88.3"><path fill="#183059" d="M0 0h12v13.6h13.1V0h12v38.7h-12V23.1H12v15.7H0V0zM54.1 19.8l-10.3-1.1c.4-1.8.9-3.2 1.7-4.2.7-1 1.8-1.9 3.2-2.7 1-.5 2.3-1 4.1-1.3 1.7-.3 3.6-.4 5.6-.4 3.2 0 5.8.2 7.8.5s3.6 1.1 4.9 2.3c.9.8 1.6 1.9 2.2 3.4.5 1.5.8 2.8.8 4.2v12.4c0 1.3.1 2.4.3 3.1.2.7.5 1.7 1.1 2.9H65.2c-.4-.7-.7-1.3-.8-1.7-.1-.4-.2-1-.4-1.8-1.4 1.4-2.8 2.3-4.2 2.9-1.9.8-4.1 1.2-6.6 1.2-3.3 0-5.9-.8-7.6-2.3-1.7-1.5-2.6-3.5-2.6-5.7 0-2.1.6-3.9 1.9-5.3 1.3-1.4 3.6-2.4 6.9-3.1 4-.8 6.7-1.4 7.8-1.7 1.2-.3 2.5-.8 3.8-1.3 0-1.3-.3-2.2-.8-2.8-.5-.5-1.5-.8-2.9-.8-1.8 0-3.1.3-4 .8-.6.4-1.2 1.3-1.6 2.5zm9.4 5.6c-1.5.5-3 1-4.6 1.4-2.2.6-3.6 1.2-4.1 1.7-.6.6-.9 1.2-.9 2s.3 1.5.9 2.1c.6.5 1.5.8 2.6.8 1.2 0 2.3-.3 3.3-.9 1-.6 1.8-1.3 2.2-2.1.4-.8.6-1.9.6-3.3v-1.7zM101.3 27.7l10.2 1.2c-.6 2.1-1.5 4-2.8 5.5-1.3 1.6-2.9 2.8-4.9 3.6-2 .9-4.5 1.3-7.6 1.3-3 0-5.5-.3-7.4-.8-2-.6-3.7-1.5-5.1-2.7-1.4-1.2-2.5-2.7-3.4-4.4-.8-1.7-1.2-3.9-1.2-6.7 0-2.9.5-5.3 1.5-7.2.7-1.4 1.7-2.7 3-3.8 1.3-1.1 2.5-1.9 3.9-2.5 2.1-.9 4.8-1.3 8.1-1.3 4.6 0 8.1.8 10.5 2.5 2.4 1.6 4.1 4 5.1 7.2L100.9 21c-.3-1.2-.9-2.1-1.7-2.7-.8-.6-2-.9-3.4-.9-1.8 0-3.2.6-4.3 1.9-1.1 1.3-1.7 3.2-1.7 5.8 0 2.3.5 4.1 1.6 5.3 1.1 1.2 2.5 1.8 4.2 1.8 1.4 0 2.6-.4 3.6-1.1 1-.7 1.7-1.9 2.1-3.4zM115.6 0h11v20l8-9.3h13.2l-10.1 9.8 10.6 18.2h-12.1l-5.7-11.3-4.1 4v7.3h-11V0zM0 48.9h29.6v8.3H12V64h15v7.8H12v15.8H0V48.9zM32.2 73.7c0-4.3 1.4-7.8 4.3-10.6s6.8-4.2 11.7-4.2c5.6 0 9.9 1.6 12.7 4.9 2.3 2.6 3.5 5.9 3.5 9.7 0 4.3-1.4 7.9-4.3 10.6-2.9 2.8-6.8 4.1-11.9 4.1-4.5 0-8.2-1.1-10.9-3.4-3.4-2.8-5.1-6.5-5.1-11.1zm10.7 0c0 2.5.5 4.4 1.5 5.5 1 1.2 2.3 1.8 3.8 1.8 1.6 0 2.8-.6 3.8-1.8 1-1.2 1.5-3.1 1.5-5.7 0-2.4-.5-4.2-1.5-5.4-1-1.2-2.2-1.8-3.7-1.8-1.6 0-2.9.6-3.9 1.8-.9 1.3-1.5 3.1-1.5 5.6zM69.7 59.6h10.1v4.6c1-2 2-3.4 3-4.1s2.3-1.1 3.8-1.1c1.6 0 3.3.5 5.2 1.5l-3.3 7.7c-1.3-.5-2.3-.8-3-.8-1.4 0-2.5.6-3.3 1.7-1.1 1.6-1.7 4.7-1.7 9.2v9.4H69.7V59.6zM125 87.7h-10v-4.5c-1.5 1.9-3 3.2-4.5 4s-3.4 1.2-5.6 1.2c-3 0-5.3-.9-7-2.7-1.7-1.8-2.5-4.5-2.5-8.2V59.6h10.8V75c0 1.8.3 3 1 3.8.7.7 1.6 1.1 2.7 1.1 1.3 0 2.3-.5 3.2-1.5s1.2-2.8 1.2-5.3V59.6H125v28.1zM131.6 59.6h10v4.1c1.4-1.7 2.9-2.9 4.4-3.6 1.5-.7 3.3-1.1 5.3-1.1 2.2 0 4 .4 5.3 1.2 1.3.8 2.4 2 3.2 3.5 1.7-1.8 3.2-3.1 4.6-3.7 1.4-.7 3.1-1 5.1-1 3 0 5.4.9 7 2.7 1.7 1.8 2.5 4.6 2.5 8.4v17.6h-10.8v-16c0-1.3-.2-2.2-.7-2.8-.7-1-1.6-1.5-2.7-1.5-1.3 0-2.3.5-3.1 1.4-.8.9-1.2 2.4-1.2 4.4v14.5H150V72.2c0-1.2-.1-2.1-.2-2.5-.2-.7-.6-1.3-1.2-1.7-.6-.4-1.2-.6-2-.6-1.2 0-2.3.5-3 1.4-.8.9-1.2 2.5-1.2 4.6v14.3h-10.8V59.6zM183.7 79.9l10.7-1c.4 1.3 1.1 2.2 1.9 2.7s1.9.8 3.2.8c1.4 0 2.6-.3 3.4-.9.6-.5.9-1 .9-1.7 0-.8-.4-1.4-1.2-1.8-.6-.3-2.1-.7-4.6-1.1-3.7-.7-6.3-1.3-7.8-1.8-1.5-.6-2.7-1.5-3.7-2.8-1-1.3-1.5-2.8-1.5-4.5 0-1.8.5-3.4 1.6-4.8s2.6-2.3 4.4-3c1.9-.7 4.4-1 7.6-1 3.3 0 5.8.3 7.4.8 1.6.5 2.9 1.3 4 2.4 1.1 1.1 2 2.5 2.7 4.4l-10.2 1c-.3-.9-.7-1.6-1.3-2-.8-.6-1.9-.8-3.1-.8-1.2 0-2.1.2-2.7.6-.6.4-.8 1-.8 1.6 0 .7.4 1.2 1.1 1.6.7.4 2.2.7 4.6 1 3.6.4 6.2 1 8 1.7s3.1 1.8 4 3.1c.9 1.3 1.4 2.8 1.4 4.4 0 1.6-.5 3.2-1.5 4.7s-2.5 2.8-4.6 3.7c-2.1.9-5 1.4-8.6 1.4-5.1 0-8.8-.7-11-2.2-2.3-1.7-3.7-3.8-4.3-6.5z"/></svg>