<svg xmlns="http://www.w3.org/2000/svg" xmlns:xlink="http://www.w3.org/1999/xlink" x="0px" y="0px" width="1183.5px" height="177.8px" viewBox="0 0 1183.5 177.8" xml:space="preserve"> <path fill="#FFFFFF" d="M0,0c12,0,24,0,36,0c0,59.2,0,118.5,0,177.7c-12,0-24,0-36,0c0-4.4,0-8.8,0-13.2c6.8,0,13.7,0,20.5,0 c0-50.4,0-100.8,0-151.3c-6.8,0-13.7,0-20.5,0C0,8.8,0,4.4,0,0L0,0z"/> <path fill="#FFFFFF" d="M1161.5,0c7.3,0,14.7,0,22,0c0,1.3,0,2.7,0,4c-5.9,0-11.8,0-17.8,0c0,55.3,0,110.5,0,165.7 c5.9,0,11.8,0,17.8,0c0,1.3,0,2.7,0,4c-7.3,0-14.7,0-22,0C1161.5,115.8,1161.5,57.9,1161.5,0L1161.5,0z"/> <path fill="#FFFFFF" d="M383,3.3c1.3,0,2.7,0,4,0c0,31.5,0,63,0,94.5c22.6-18.7,45.2-37.4,67.8-56.2c2.1,0,4.1,0,6.2,0 c-15.1,12.6-30.3,25.1-45.4,37.6c16.2,20.3,32.4,40.6,48.6,60.9c-1.9,0-3.8,0-5.6,0c-15.3-19.3-30.8-38.6-46.1-58 c-8.5,6.9-17,14-25.4,21c0,12.3,0,24.7,0,37c-1,0-3,0-4,0C383,94.4,383,48.8,383,3.3L383,3.3z"/> <path fill="#FFFFFF" d="M70.5,3.3c1.3,0,2.7,0,4,0c0,21.2,0,42.3,0,63.5c31.9,0,63.8,0,95.8,0c0-21.2,0-42.3,0-63.5c1,0,3,0,4,0 c0,45.6,0,91.2,0,136.8c-1.3,0-2.7,0-4,0c0-23.1,0-46.2,0-69.2c-31.9,0-63.8,0-95.8,0c0,23.1,0,46.2,0,69.3c-1.3,0-2.7,0-4,0 C70.5,94.4,70.5,48.8,70.5,3.3L70.5,3.3z"/> <path fill="#FFFFFF" d="M480.8,3.3c1.4,0,2.8,0,4.3,0c0,6.5,0,13,0,19.5c-1.4,0-2.8,0-4.2,0C480.8,16.3,480.8,9.8,480.8,3.3 L480.8,3.3z"/> <path fill="#FFFFFF" d="M690.8,18.7c0-5.2,0-10.3,0-15.5c36.6,0,73.2,0,109.7,0c0,5.2,0,10.3,0,15.5c-15.2,0-30.3,0-45.5,0 c0,40.4,0,80.8,0,121.2c-6.2,0-12.3,0-18.5,0c0-40.4,0-80.8,0-121.3C721.3,18.8,706,18.8,690.8,18.7L690.8,18.7z"/> <path fill="#FFFFFF" d="M1007.7,55.4c5.5-8.3,14.1-14.4,23.9-16c8.8-1.4,18.6-1,26.3,3.9c4.3,2.7,7.4,7,9.2,11.8 c6.6-9.9,18.2-16.5,30.3-16.4c8.8-0.2,18.1,1.2,25.2,6.9c5.9,4.8,8.5,12.7,8.6,20.1c0,24.8,0,49.5,0,74.3c-5.5,0-11,0-16.5,0 c0-21.8,0-43.5,0-65.2c-0.1-5.8-0.8-12.1-4.8-16.6c-3.9-4.2-10-5.1-15.5-4.9c-7.3,0.2-14.9,3.1-19.4,9c-3.6,4.6-5.2,10.6-5,16.4 c0,20.4,0,40.9,0,61.3c-5.5,0-11,0-16.5,0c0-19.7,0-39.5,0-59.2c0-6,0.2-12.2-2-17.9c-1.6-4.1-5.1-7.5-9.4-8.7 c-8.2-2.3-17.6-0.5-24,5.2c-6,5.3-9.7,13.3-9.5,21.4c0,19.8,0,39.5,0,59.2c-5.5,0-11,0-16.5,0c0-33,0-66,0-99c5.2,0,10.5,0,15.8,0 C1007.8,45.8,1007.8,50.6,1007.7,55.4L1007.7,55.4z"/> <path fill="#FFFFFF" d="M295.2,53.4c7.9-9.4,20.2-14.2,32.3-14.2c11.2-0.4,22.8,3.8,30.1,12.4c4.9,5.5,7.5,12.7,8.4,19.9 c-1.4,0-2.8,0-4.1,0c-1.5-10.7-8.1-20.9-18.3-25.2c-15.2-6.4-34.8-2.8-45.4,10.1c-8,9.5-11.1,22.1-11.6,34.3 c-0.4,13.1,3.3,26.9,12.5,36.5c13.3,13.9,37.5,14.7,52.1,2.3c6.8-5.7,10.8-14.4,11.4-23.2c1.4,0,2.8,0,4.2,0 c-1.1,11.5-6.6,23-16.5,29.3c-16.4,10.5-40.4,8.9-54.2-5.3c-10.1-10.4-14.1-25.3-13.6-39.5C282.9,77.4,286.4,63.6,295.2,53.4 L295.2,53.4z"/> <path fill="#FFFFFF" d="M520.1,48.3c9.7-8.9,24.2-10.8,36.6-7.8c8.1,2,15.4,7.3,19.5,14.6c3.9,6.8,4.8,14.9,4.6,22.6 c0,20.8,0,41.5,0,62.3c-1.3,0-2.7,0-4,0c0-21.8,0.1-43.6,0-65.4c-0.1-9.6-3.4-19.9-11.6-25.6c-13-8.9-32.5-7.6-43.6,3.8 c-8.2,8-11.5,19.7-11.7,30.9c-0.1,18.8,0,37.5,0,56.3c-1.3,0-2.7,0-4,0c0-32.8,0-65.7,0-98.5c1.3,0,2.7,0,4,0 c0,8.2,0.1,16.4-0.1,24.6C511.6,59.4,514.8,53,520.1,48.3L520.1,48.3z"/> <path fill="#FFFFFF" d="M480.8,41.5c1.4,0,2.8,0,4.2,0c0,32.8,0,65.7,0,98.5c-1.4,0-2.8,0-4.2,0C480.8,107.2,480.8,74.3,480.8,41.5 L480.8,41.5z"/> <g> <path fill="#FFFFFF" d="M680.5,131.8V41.5h-4c-0.1,8.8,0.3,17.6-0.3,26.4c-2.8-14.3-15.5-25.4-29.6-27.9c-11-1.9-23.1,0-32.3,6.7 c-10,7.2-15.6,19.1-17.3,31c-1.7,13.2-0.3,27.3,6.7,38.8c4.7,8,12.5,14.1,21.5,16.6c12.8,3.5,27.1,1.3,37.9-6.5 c6.6-4.6,11.5-11.7,13.3-19.6c0.1,10.3,0,20.5,0.1,30.8c-0.1,9.2-2.6,19-9.5,25.4c-7.6,7.1-18.5,9-28.5,8.9 c-9-0.2-18.7-2.3-25.3-8.9c-4.9-4.7-7-11.5-7.3-18.1c-1.4,0-2.8,0-4.2,0c0.4,5.3,1.3,10.8,4.1,15.4c3.5,6.3,9.7,10.6,16.4,13 c8.5,3,17.7,3.1,26.6,2.1c10.1-1.2,20.3-6,25.8-14.8C680.2,152.3,680.9,141.7,680.5,131.8z M666.4,117.7 c-10.4,12.8-29.7,16.2-44.5,9.7c-9.6-4.2-16.2-13.3-19.1-23.2c-3.7-12.7-3.2-26.8,2.1-39c4.3-10.1,13.2-18.2,24-20.7 c10.3-2.5,21.9-1.1,30.6,5.3c9.2,6.6,14.4,17.5,16.2,28.5C677.6,91.9,675.4,106.8,666.4,117.7z"/> </g> <g> <path fill="#FFFFFF" d="M864.3,59c-5-8.7-13.1-15.7-22.8-18.4c-14.3-4.2-30.7-1.8-42.3,7.8C785.8,59.1,779.8,77,781,93.7 c0.9,12.6,4.4,25.8,13.3,35.2c6.5,7.1,15.6,11.4,25.1,12.7c12.3,1.8,25.6,0.2,35.9-7.1c8.5-6.1,13.8-15.9,15.7-26 c-5.4,0-10.9,0-16.3,0c-1.2,4.2-2.9,8.4-5.9,11.6c-4.4,4.8-10.9,7.1-17.2,7.5c-9.1,0.6-18.9-1.9-25.3-8.7c-5.9-6.3-8.1-15-8.1-23.4 c24.8,0,49.5,0,74.3,0C873,82.9,870.6,70,864.3,59z M798.3,80.7c0.8-8.9,4.9-17.7,12.4-22.8c11-7.6,27.5-5.9,36.5,4.1 c4.8,5,7.3,11.8,7.9,18.7C836.2,80.7,817.3,80.8,798.3,80.7z"/> </g> <g> <path fill="#FFFFFF" d="M277.5,135.9c-4.2,0.5-11,1.2-12.1-4.2c-0.3-21,0-42-0.1-63c-0.1-7.2-1.6-14.7-6.5-20.3 c-5.5-6.3-14.2-8.7-22.3-9.1c-10.8-0.6-22.5,1.2-30.8,8.5c-7.1,6-10.5,15.3-10.9,24.4h4.1c0.7-7,2.8-14.2,7.8-19.5 c6.8-7.4,17.4-9.7,27.1-9.5c7.7,0.2,16.3,1.7,21.8,7.7c5.5,6.1,6.2,14.9,5.5,22.7c-0.4,5-4.8,8.5-9.4,9.6 c-14,3.4-28.8,1.2-42.8,4.8c-7.3,1.9-14.4,6.3-17.4,13.4c-3.4,8.1-3.8,17.8-0.2,25.9c3.4,7.3,10.9,11.8,18.5,13.5 c10.7,2.5,22.3,1.7,32.2-3c8.7-4.1,16.2-11.3,19.3-20.5c0.1,5.7-0.8,11.6,0.6,17.1c2.4,6.2,10.3,5.8,15.8,5.4 C277.5,138.6,277.5,137.3,277.5,135.9z M258.4,114.5c-4,10.5-13.2,18.8-24,21.9c-9.1,2.6-19.1,2.6-28-0.7 c-6.9-2.5-12.3-8.7-13.3-16c-0.9-6.9,0-14.5,4.3-20.1c3.7-4.8,9.6-7,15.3-8.2c12-2.3,24.4-1.2,36.4-3.3c4.4-0.8,9-2.2,12-5.7 C260.4,93.1,262.6,104.3,258.4,114.5z"/> </g> <g> <path fill="#FFFFFF" d="M969.2,127.1c-2.3-1.6-2-4.8-2.2-7.3c0-16.7,0-33.3,0-50c0.3-7.5-0.5-15.9-6-21.6 c-7.3-7.7-18.5-9.3-28.6-9.4c-12-0.4-25.1,1.3-34.5,9.3c-7.1,5.8-10.1,15.1-10.5,23.9c5.5,0,11.1,0,16.6,0 c0.4-4.8,1.7-9.9,5.4-13.2c5.4-4.9,13.1-5.6,20-5.6c5.8,0.1,12.1,0.8,16.6,4.8c4.1,3.8,5.5,10.1,3.8,15.4 c-1.7,4.3-6.5,5.9-10.6,6.9c-14.4,3-29.9,3.1-43.1,10.3c-7.3,3.9-11.9,11.8-12.4,20c-0.8,7.8,0.7,16.5,6.4,22.3 c6.9,7.4,17.6,9.4,27.2,9.3c12.7,0,25.7-5.1,33.8-15.1c-0.1,5.3,1.8,11.4,7,13.8c6,2.3,13,1.5,18.8-1.3c0-4.3,0-8.6,0.1-12.9 C974.7,127.3,971.8,128.4,969.2,127.1z M950.5,104.8c0,7.4-4.8,14.2-11,17.9c-6.3,3.8-13.8,5.2-21.1,4.9c-5.6-0.3-11.7-2-15.1-6.8 c-4.3-6.8-2-17.1,5.1-21c12.9-7.3,29-3.6,42-10.6C950.5,94.4,950.6,99.6,950.5,104.8z"/> </g> </svg> 