<svg xmlns="http://www.w3.org/2000/svg" width="1183.5" height="177.8"><path fill="#FFF" d="M0 0h36v177.7H0v-13.2h20.5V13.2H0V0zM1161.5 0h22v4h-17.8v165.7h17.8v4h-22V0zM383 3.3h4v94.5c22.6-18.7 45.2-37.4 67.8-56.2h6.2c-15.1 12.6-30.3 25.1-45.4 37.6l48.6 60.9h-5.6c-15.3-19.3-30.8-38.6-46.1-58-8.5 6.9-17 14-25.4 21v37h-4c-.1-45.7-.1-91.3-.1-136.8zM70.5 3.3h4v63.5h95.8V3.3h4v136.8h-4V70.9H74.5v69.3h-4V3.3zM480.8 3.3h4.3v19.5h-4.2c-.1-6.5-.1-13-.1-19.5zM690.8 18.7V3.2h109.7v15.5H755v121.2h-18.5V18.6c-15.2.2-30.5.2-45.7.1zM1007.7 55.4c5.5-8.3 14.1-14.4 23.9-16 8.8-1.4 18.6-1 26.3 3.9 4.3 2.7 7.4 7 9.2 11.8 6.6-9.9 18.2-16.5 30.3-16.4 8.8-.2 18.1 1.2 25.2 6.9 5.9 4.8 8.5 12.7 8.6 20.1V140h-16.5V74.8c-.1-5.8-.8-12.1-4.8-16.6-3.9-4.2-10-5.1-15.5-4.9-7.3.2-14.9 3.1-19.4 9-3.6 4.6-5.2 10.6-5 16.4V140h-16.5V80.8c0-6 .2-12.2-2-17.9-1.6-4.1-5.1-7.5-9.4-8.7-8.2-2.3-17.6-.5-24 5.2-6 5.3-9.7 13.3-9.5 21.4V140h-16.5V41h15.8c-.1 4.8-.1 9.6-.2 14.4zM295.2 53.4c7.9-9.4 20.2-14.2 32.3-14.2 11.2-.4 22.8 3.8 30.1 12.4 4.9 5.5 7.5 12.7 8.4 19.9h-4.1c-1.5-10.7-8.1-20.9-18.3-25.2-15.2-6.4-34.8-2.8-45.4 10.1-8 9.5-11.1 22.1-11.6 34.3-.4 13.1 3.3 26.9 12.5 36.5 13.3 13.9 37.5 14.7 52.1 2.3 6.8-5.7 10.8-14.4 11.4-23.2h4.2c-1.1 11.5-6.6 23-16.5 29.3-16.4 10.5-40.4 8.9-54.2-5.3C286 119.9 282 105 282.5 90.8c.4-13.4 3.9-27.2 12.7-37.4zM520.1 48.3c9.7-8.9 24.2-10.8 36.6-7.8 8.1 2 15.4 7.3 19.5 14.6 3.9 6.8 4.8 14.9 4.6 22.6V140h-4c0-21.8.1-43.6 0-65.4-.1-9.6-3.4-19.9-11.6-25.6-13-8.9-32.5-7.6-43.6 3.8-8.2 8-11.5 19.7-11.7 30.9-.1 18.8 0 37.5 0 56.3h-4V41.5h4c0 8.2.1 16.4-.1 24.6 1.8-6.7 5-13.1 10.3-17.8zM480.8 41.5h4.2V140h-4.2V41.5zM680.5 131.8V41.5h-4c-.1 8.8.3 17.6-.3 26.4-2.8-14.3-15.5-25.4-29.6-27.9-11-1.9-23.1 0-32.3 6.7-10 7.2-15.6 19.1-17.3 31-1.7 13.2-.3 27.3 6.7 38.8 4.7 8 12.5 14.1 21.5 16.6 12.8 3.5 27.1 1.3 37.9-6.5 6.6-4.6 11.5-11.7 13.3-19.6.1 10.3 0 20.5.1 30.8-.1 9.2-2.6 19-9.5 25.4-7.6 7.1-18.5 9-28.5 8.9-9-.2-18.7-2.3-25.3-8.9-4.9-4.7-7-11.5-7.3-18.1h-4.2c.4 5.3 1.3 10.8 4.1 15.4 3.5 6.3 9.7 10.6 16.4 13 8.5 3 17.7 3.1 26.6 2.1 10.1-1.2 20.3-6 25.8-14.8 5.6-8.5 6.3-19.1 5.9-29zm-14.1-14.1c-10.4 12.8-29.7 16.2-44.5 9.7-9.6-4.2-16.2-13.3-19.1-23.2-3.7-12.7-3.2-26.8 2.1-39 4.3-10.1 13.2-18.2 24-20.7 10.3-2.5 21.9-1.1 30.6 5.3 9.2 6.6 14.4 17.5 16.2 28.5 1.9 13.6-.3 28.5-9.3 39.4zM864.3 59c-5-8.7-13.1-15.7-22.8-18.4-14.3-4.2-30.7-1.8-42.3 7.8C785.8 59.1 779.8 77 781 93.7c.9 12.6 4.4 25.8 13.3 35.2 6.5 7.1 15.6 11.4 25.1 12.7 12.3 1.8 25.6.2 35.9-7.1 8.5-6.1 13.8-15.9 15.7-26h-16.3c-1.2 4.2-2.9 8.4-5.9 11.6-4.4 4.8-10.9 7.1-17.2 7.5-9.1.6-18.9-1.9-25.3-8.7-5.9-6.3-8.1-15-8.1-23.4h74.3c.5-12.6-1.9-25.5-8.2-36.5zm-66 21.7c.8-8.9 4.9-17.7 12.4-22.8 11-7.6 27.5-5.9 36.5 4.1 4.8 5 7.3 11.8 7.9 18.7-18.9 0-37.8.1-56.8 0zM277.5 135.9c-4.2.5-11 1.2-12.1-4.2-.3-21 0-42-.1-63-.1-7.2-1.6-14.7-6.5-20.3-5.5-6.3-14.2-8.7-22.3-9.1-10.8-.6-22.5 1.2-30.8 8.5-7.1 6-10.5 15.3-10.9 24.4h4.1c.7-7 2.8-14.2 7.8-19.5 6.8-7.4 17.4-9.7 27.1-9.5 7.7.2 16.3 1.7 21.8 7.7 5.5 6.1 6.2 14.9 5.5 22.7-.4 5-4.8 8.5-9.4 9.6-14 3.4-28.8 1.2-42.8 4.8-7.3 1.9-14.4 6.3-17.4 13.4-3.4 8.1-3.8 17.8-.2 25.9 3.4 7.3 10.9 11.8 18.5 13.5 10.7 2.5 22.3 1.7 32.2-3 8.7-4.1 16.2-11.3 19.3-20.5.1 5.7-.8 11.6.6 17.1 2.4 6.2 10.3 5.8 15.8 5.4-.2-1.2-.2-2.5-.2-3.9zm-19.1-21.4c-4 10.5-13.2 18.8-24 21.9-9.1 2.6-19.1 2.6-28-.7-6.9-2.5-12.3-8.7-13.3-16-.9-6.9 0-14.5 4.3-20.1 3.7-4.8 9.6-7 15.3-8.2 12-2.3 24.4-1.2 36.4-3.3 4.4-.8 9-2.2 12-5.7-.7 10.7 1.5 21.9-2.7 32.1zM969.2 127.1c-2.3-1.6-2-4.8-2.2-7.3v-50c.3-7.5-.5-15.9-6-21.6-7.3-7.7-18.5-9.3-28.6-9.4-12-.4-25.1 1.3-34.5 9.3-7.1 5.8-10.1 15.1-10.5 23.9H904c.4-4.8 1.7-9.9 5.4-13.2 5.4-4.9 13.1-5.6 20-5.6 5.8.1 12.1.8 16.6 4.8 4.1 3.8 5.5 10.1 3.8 15.4-1.7 4.3-6.5 5.9-10.6 6.9-14.4 3-29.9 3.1-43.1 10.3-7.3 3.9-11.9 11.8-12.4 20-.8 7.8.7 16.5 6.4 22.3 6.9 7.4 17.6 9.4 27.2 9.3 12.7 0 25.7-5.1 33.8-15.1-.1 5.3 1.8 11.4 7 13.8 6 2.3 13 1.5 18.8-1.3 0-4.3 0-8.6.1-12.9-2.3.6-5.2 1.7-7.8.4zm-18.7-22.3c0 7.4-4.8 14.2-11 17.9-6.3 3.8-13.8 5.2-21.1 4.9-5.6-.3-11.7-2-15.1-6.8-4.3-6.8-2-17.1 5.1-21 12.9-7.3 29-3.6 42-10.6.1 5.2.2 10.4.1 15.6z"/></svg>