<svg xmlns="http://www.w3.org/2000/svg" xmlns:xlink="http://www.w3.org/1999/xlink" x="0px" y="0px" width="213.6px" height="88.3px" viewBox="0 0 213.6 88.3" xml:space="preserve"><path fill="#183059" d="M0,0h12v13.6h13.1V0h12v38.7h-12V23.1H12v15.7H0V0z"/><path fill="#183059" d="M54.1,19.8l-10.3-1.1c0.4-1.8,0.9-3.2,1.7-4.2c0.7-1,1.8-1.9,3.2-2.7c1-0.5,2.3-1,4.1-1.3 c1.7-0.3,3.6-0.4,5.6-0.4c3.2,0,5.8,0.2,7.8,0.5s3.6,1.1,4.9,2.3c0.9,0.8,1.6,1.9,2.2,3.4c0.5,1.5,0.8,2.8,0.8,4.2v12.4 c0,1.3,0.1,2.4,0.3,3.1c0.2,0.7,0.5,1.7,1.1,2.9H65.2c-0.4-0.7-0.7-1.3-0.8-1.7c-0.1-0.4-0.2-1-0.4-1.8c-1.4,1.4-2.8,2.3-4.2,2.9 c-1.9,0.8-4.1,1.2-6.6,1.2c-3.3,0-5.9-0.8-7.6-2.3c-1.7-1.5-2.6-3.5-2.6-5.7c0-2.1,0.6-3.9,1.9-5.3c1.3-1.4,3.6-2.4,6.9-3.1 c4-0.8,6.7-1.4,7.8-1.7c1.2-0.3,2.5-0.8,3.8-1.3c0-1.3-0.3-2.2-0.8-2.8c-0.5-0.5-1.5-0.8-2.9-0.8c-1.8,0-3.1,0.3-4,0.8 C55.1,17.7,54.5,18.6,54.1,19.8z M63.5,25.4c-1.5,0.5-3,1-4.6,1.4c-2.2,0.6-3.6,1.2-4.1,1.7c-0.6,0.6-0.9,1.2-0.9,2 c0,0.8,0.3,1.5,0.9,2.1c0.6,0.5,1.5,0.8,2.6,0.8c1.2,0,2.3-0.3,3.3-0.9c1-0.6,1.8-1.3,2.2-2.1c0.4-0.8,0.6-1.9,0.6-3.3V25.4z"/><path fill="#183059" d="M101.3,27.7l10.2,1.2c-0.6,2.1-1.5,4-2.8,5.5c-1.3,1.6-2.9,2.8-4.9,3.6c-2,0.9-4.5,1.3-7.6,1.3 c-3,0-5.5-0.3-7.4-0.8c-2-0.6-3.7-1.5-5.1-2.7c-1.4-1.2-2.5-2.7-3.4-4.4c-0.8-1.7-1.2-3.9-1.2-6.7c0-2.9,0.5-5.3,1.5-7.2 c0.7-1.4,1.7-2.7,3-3.8c1.3-1.1,2.5-1.9,3.9-2.5c2.1-0.9,4.8-1.3,8.1-1.3c4.6,0,8.1,0.8,10.5,2.5c2.4,1.6,4.1,4,5.1,7.2L100.9,21 c-0.3-1.2-0.9-2.1-1.7-2.7c-0.8-0.6-2-0.9-3.4-0.9c-1.8,0-3.2,0.6-4.3,1.9c-1.1,1.3-1.7,3.2-1.7,5.8c0,2.3,0.5,4.1,1.6,5.3 c1.1,1.2,2.5,1.8,4.2,1.8c1.4,0,2.6-0.4,3.6-1.1C100.2,30.4,100.9,29.2,101.3,27.7z"/><path fill="#183059" d="M115.6,0h11v20l8-9.3h13.2l-10.1,9.8l10.6,18.2h-12.1l-5.7-11.3l-4.1,4v7.3h-11V0z"/><path fill="#183059" d="M0,48.9h29.6v8.3H12V64h15v7.8H12v15.8H0V48.9z"/><path fill="#183059" d="M32.2,73.7c0-4.3,1.4-7.8,4.3-10.6c2.9-2.8,6.8-4.2,11.7-4.2c5.6,0,9.9,1.6,12.7,4.9 c2.3,2.6,3.5,5.9,3.5,9.7c0,4.3-1.4,7.9-4.3,10.6c-2.9,2.8-6.8,4.1-11.9,4.1c-4.5,0-8.2-1.1-10.9-3.4C33.9,82,32.2,78.3,32.2,73.7z M42.9,73.7c0,2.5,0.5,4.4,1.5,5.5c1,1.2,2.3,1.8,3.8,1.8c1.6,0,2.8-0.6,3.8-1.8c1-1.2,1.5-3.1,1.5-5.7c0-2.4-0.5-4.2-1.5-5.4 c-1-1.2-2.2-1.8-3.7-1.8c-1.6,0-2.9,0.6-3.9,1.8C43.5,69.4,42.9,71.2,42.9,73.7z"/><path fill="#183059" d="M69.7,59.6h10.1v4.6c1-2,2-3.4,3-4.1s2.3-1.1,3.8-1.1c1.6,0,3.3,0.5,5.2,1.5l-3.3,7.7 c-1.3-0.5-2.3-0.8-3-0.8c-1.4,0-2.5,0.6-3.3,1.7c-1.1,1.6-1.7,4.7-1.7,9.2v9.4H69.7V59.6z"/><path fill="#183059" d="M125,87.7h-10v-4.5c-1.5,1.9-3,3.2-4.5,4s-3.4,1.2-5.6,1.2c-3,0-5.3-0.9-7-2.7c-1.7-1.8-2.5-4.5-2.5-8.2 V59.6h10.8v15.4c0,1.8,0.3,3,1,3.8c0.7,0.7,1.6,1.1,2.7,1.1c1.3,0,2.3-0.5,3.2-1.5s1.2-2.8,1.2-5.3V59.6H125V87.7z"/><path fill="#183059" d="M131.6,59.6h10v4.1c1.4-1.7,2.9-2.9,4.4-3.6c1.5-0.7,3.3-1.1,5.3-1.1c2.2,0,4,0.4,5.3,1.2 c1.3,0.8,2.4,2,3.2,3.5c1.7-1.8,3.2-3.1,4.6-3.7c1.4-0.7,3.1-1,5.1-1c3,0,5.4,0.9,7,2.7c1.7,1.8,2.5,4.6,2.5,8.4v17.6h-10.8v-16 c0-1.3-0.2-2.2-0.7-2.8c-0.7-1-1.6-1.5-2.7-1.5c-1.3,0-2.3,0.5-3.1,1.4c-0.8,0.9-1.2,2.4-1.2,4.4v14.5H150V72.2 c0-1.2-0.1-2.1-0.2-2.5c-0.2-0.7-0.6-1.3-1.2-1.7c-0.6-0.4-1.2-0.6-2-0.6c-1.2,0-2.3,0.5-3,1.4c-0.8,0.9-1.2,2.5-1.2,4.6v14.3h-10.8 V59.6z"/><path fill="#183059" d="M183.7,79.9l10.7-1c0.4,1.3,1.1,2.2,1.9,2.7s1.9,0.8,3.2,0.8c1.4,0,2.6-0.3,3.4-0.9c0.6-0.5,0.9-1,0.9-1.7 c0-0.8-0.4-1.4-1.2-1.8c-0.6-0.3-2.1-0.7-4.6-1.1c-3.7-0.7-6.3-1.3-7.8-1.8c-1.5-0.6-2.7-1.5-3.7-2.8c-1-1.3-1.5-2.8-1.5-4.5 c0-1.8,0.5-3.4,1.6-4.8s2.6-2.3,4.4-3c1.9-0.7,4.4-1,7.6-1c3.3,0,5.8,0.3,7.4,0.8c1.6,0.5,2.9,1.3,4,2.4c1.1,1.1,2,2.5,2.7,4.4 l-10.2,1c-0.3-0.9-0.7-1.6-1.3-2c-0.8-0.6-1.9-0.8-3.1-0.8c-1.2,0-2.1,0.2-2.7,0.6c-0.6,0.4-0.8,1-0.8,1.6c0,0.7,0.4,1.2,1.1,1.6 c0.7,0.4,2.2,0.7,4.6,1c3.6,0.4,6.2,1,8,1.7s3.1,1.8,4,3.1c0.9,1.3,1.4,2.8,1.4,4.4c0,1.6-0.5,3.2-1.5,4.7c-1,1.5-2.5,2.8-4.6,3.7 c-2.1,0.9-5,1.4-8.6,1.4c-5.1,0-8.8-0.7-11-2.2C185.7,84.7,184.3,82.6,183.7,79.9z"/></svg> 