<svg xmlns="http://www.w3.org/2000/svg" width="246.8" height="88.5"><path fill="none" stroke="#FFF" stroke-width="7" stroke-linecap="round" stroke-linejoin="round" d="M206.1 15.3c.8 1.4 1.6 2.9 2.4 4.3 2.4-1.9 5.3-3.3 7.5-5.4l.7-.3c-.5-2-.4-4.4-2.1-5.8-1.2-.2-2.4-.3-3.6-.4-1.5-.7-3.1-1.5-4.7-.8-2.1 2.2-2.9 6.4-.2 8.4"/><path fill="#B879AE" d="M206.1 15.3c.8 1.4 1.6 2.9 2.4 4.3 2.4-1.9 5.3-3.3 7.5-5.4l.7-.3c-.5-2-.4-4.4-2.1-5.8-1.2-.2-2.4-.3-3.6-.4-1.5-.7-3.1-1.5-4.7-.8-2.1 2.2-2.9 6.4-.2 8.4"/><g><path fill="none" stroke="#FFF" stroke-width="7" stroke-linecap="round" stroke-linejoin="round" d="M243.1 43.1c-3 4.7-8.9 11-8.9 11 .4-3.4 3.1-16.6 3.9-19.8-.4-1.7-.3-3.7-1.5-5.2-1.5-1.2-3.6-1.8-4.3-3.8-.9-1.9-2.6-3.8-4.9-3.4-4.4 1-9.4 8.8-9.4 8.8-1.8 3.8-3.3 7.7-4 11.9-.6 3-2.2 5.7-3.6 8.4-1.6 1.9-2.9 4.6-5.8 4.2.1-1.4.1-2.8.1-4.2 0 0 7.3-25.7 5-28.2-1-1.6-3.1-1.3-4.7-1-2.2 2.6-2.1 6.4-3.1 9.6-.9 3.9-1.9 7.8-2.4 11.8-1 4.2-8.9 13.1-13.3 12.6-.9-1.9-1.4-4-1-6.1.4-2.6 1.4-8.7 1.4-8.7.4.2 3.1 1.7 3.1 1.7l.3-1.6s6.3-7.2 8-11.5c0 0 4.1-14.6 1.7-21.8-1.2-2.1-3.4-3.1-5.3-4.4-2.6 1.2-5 2.9-6.3 5.5-3.9 7.3-5.6 15.6-7.2 23.7-.6 3-1.2 6.1-1.5 9.2-.2 2.9-1.8 5.3-3.2 7.7-2.6 3.3-6.2 6.8-10.8 6.2-2.6-.4-3.4-3.3-4-5.5 0-.6 0-1.8.1-2.4 2.6.5 5.3.5 7.6-1 5.8-3.5 9-10.5 8.4-17.2.3-6.6-8.8-9.9-13.4-5.9-3.9 3.1-6.1 7.8-7.7 12.5-1 4.5-1.5 9.3-3.9 13.4-1.8 3-3.4 7.5-7.5 7.5.4-2.9 1.1-5.8 2-8.6 1.1-3.2 2.1-6.5 3-9.7 0 0 1.4-6.3 1.9-9.5-.6-1.8-.9-3.8-2-5.3-1.3-1.8-3.9-1.6-5.8-1.1-3 1.6-4.6 4.8-6.1 7.8-.5-2.1-.6-4.3-1.6-6.2-1.2-2.3-4.2-2.1-6.4-1.7-2.8 1-4.5 3.7-5.8 6.2-.4-2.5-1.6-5.5-4.7-5.1-3.1 1.7-2.7 6-4 9-.3 1.9-.7 3.8-1.1 5.8-.5 2.1-.9 4.2-1.3 6.4-1.1 2.3-2.3 4.7-3.4 7-1.5 2.3-3.1 5.1-6.1 5.5-.7-1.5 6.6-28 6.6-28-.7-2.5-1.1-6.5-4.4-6.8-5.2-1-7.8 4.7-9.8 8.5-.3-2.2-.1-4.7-1.2-6.7-1.4-2.2-4.4-2.1-6.6-1.6-2.4 1-3.9 3.4-5.4 5.4-.9-2.2-2.3-4.8-5.1-4.3-2.2 1.1-2.2 3.9-3 6-.9 4.4-2.2 8.7-2.8 13.1-.7 2.2-1.9 4.3-3 6.3-2.7 3.4-6.3 7.2-11.1 6.5-2.4-.3-3.3-3-4-5v-2.7c5.9 1.2 11.1-2.8 13.7-7.7 0 0 2.4-6.5 2.5-10-.6-2.2-.6-5.2-2.9-6.4-2.4-1.3-5.3-2.7-8.1-1.6-4 1.5-6.4 5.4-8.4 8.9-.7 1.9-1.4 3.9-2.1 5.8-2 0-4 0-6 .1.6-2.2 1.2-4.5 1.7-6.8l5.4-20c-.5-.9-1-1.7-1.6-2.6-1.6-.1-3.2-.2-4.8 0-1.2 1.4-1.5 3.2-2 4.9-1.7 6.7-3.6 13.3-4.9 20.1-.4 1.7-.7 3.3-1.1 5-2.8.1-5.6.3-8.4.4.5-2.1 5.5-20 7-26.9 0-3.5-3.7-4-6.3-3.4-3.2 7.9-7.6 28.4-8 30.3-3 .5-6 .5-8.7-1-2.5-1.4-6-.9-7 2.2 1.7 2.8 5.2 2.3 8 2.8 1.4 1.9 2.6 3.9 3.9 6 1 3.6.6 7.3.4 10.9.9 2.4 3.9 2 5.8 1.5.8-4.2 3.6-16.4 4-18.2 2.9.1 5.8 0 8.8-.3-.5 2.4-2.3 14.3-2.9 17.3 1.5 1.5 4.3 3 5.8.7.9-2.7 3.4-15 4.2-18.3 1.9-.2 3.9-.4 5.8-.6-.6 3.9-.8 7.8-.7 11.7.9 3.3 2.8 7 6.5 7.9 6.4 1.7 13.1-2.3 16.3-7.8.1.6.3 1.9.4 2.5-2.4 3.2 1.4 7.2 4.7 5 2-2.9 1.6-6.8 2.7-10.1.7-2.5 6.4-16.7 7.5-21.4 1.2.5 2.3.2 3.3-.7.1 1 .2 2 .4 3-.3 4.1-3.4 17.1-3.9 19.5-.3 3-2.4 6.4-.5 9.2 1.5 1.8 3.8 1.1 5.7.4.8-3.6 1.6-7.1 2.4-10.7.6-2.6 5.5-16.1 8.1-19.9 0 0 2.1-.9 3.2-1.6 0 .7-.1 2.2-.1 2.9-1.1 4.1-4.9 17.5-5.5 20.1-.2 1.7-.6 3.4-.4 5.1.3 3.4 4.1 5.9 7.4 4.9 3.1-1 5-4 6.5-6.6 0 0-.9 6.4 2.7 6.4 4 .7 3.8-4.2 4.4-6.8.6-2.9 1.3-5.8 2-8.7 0 0 2.6-7.5 4-11.1 1.4-2 2.7-4.2 3.6-6.4.6 1.1 1.5 1.4 2.6.9 0 .6-.1 1.8-.1 2.4-.4 2.7-1.4 8-1.4 8-.6 2.8-5 16.9-3.4 21.2 2 .8 4 .9 5.9-.1.9-4 2.8-12.9 2.8-12.9 1-2.8 3-8.6 3-8.6.9-2.6 2.5-4.9 3.1-7.6 1.4-1.5 2.7-3.2 4.9-3.5-.2 1.6-.4 3.2-.6 4.7-.7 2.3-1.4 4.7-2 7-1.1 3.4-3.8 15.3-3.3 17.8.8 3.5 5.4 5.2 8.5 3.3 3.3-2 5.1-5.7 6.7-9 .9 2.8 1.5 6 4 7.9 3.2 2.7 7.9 2 11.5.4 3.9-1.7 6.6-5.2 8.7-8.7.5 2.6.5 5.5 2.1 7.8 1.7 2.3 4.9 3 7.5 1.9 4.2-1.6 7.3-5.1 9.6-8.8-.2 3.7 1.1 9 5.7 9.1 4.8-.5 7.1-5.4 9.5-9 .5 3.1.7 7.3 4.1 8.6 2.2 1.1 4.5-.4 6-2 2-2.4 4.5-5.2 3.7-8.5.5.8.7 1.6.8 2.5-.8 2.5-1.2 5.1-2 7.6-1 1-2.2 1.7-3.4 2.5 0 0-12.1 7.3-12.4 14.5-.6 6.2 7.4 10 12.2 6.3 6.2-4.7 10.1-20 10.1-20 .2-1 .5-1.9.7-2.9 4.2-3.6 7.9-7.9 10.1-13.1.1-1.7-.3-3.3-.4-4.8zm-54.2-13.9c2-7.2 3.2-14.8 7.3-21.1.7 8.7-1.8 17.3-5.2 25.2-1.3 2.4-2.4 5.2-4.7 6.8 1.1-3.6 1.8-7.2 2.6-10.9zM165 33.8l2.4-5.1c1.5-1.4 3.1-3.5 5.4-2.4.1 2.8-.7 5.5-1.6 8.1-1.9 4.5-4.7 9-9.4 11.1.6-4 1.4-8 3.2-11.7zM55 39.4c.8-2.6 1.7-5.2 2.7-7.8 1.4-2.6 3.2-5 5.9-6.2l1.1 1.4c0 1.9-.4 3.8-.8 5.6-1.6 3.8-3.6 7.3-6 10.6-1.4.8-2.8 1.6-4.3 2.5.5-2.1.9-4.1 1.4-6.1zm163.6 40.8c-1 1.5-2.9 1.5-4.5 1.9-2.5-3-.5-6.9 1.9-9.3 2.5-2.9 6.3-4.4 8.6-7.6-1.5 5.1-2.3 10.8-6 15zM230 36.1c-.6 2.7-1.3 5.3-2.1 8-.6 1.8-1.1 3.6-1.8 5.4-1.4 2.1-2.5 5.8-5.6 5.6-.9-.9-.6-2.2-.8-3.3.4-2.7.8-5.4 1.3-8.1 1.2-5.3 2.8-10.7 5.9-15.3.4-.2 1.2-.6 1.7-.8.4-.2 1.2-.5 1.7-.7 1.2 3 .3 6.2-.3 9.2z"/><path fill="#B879AE" d="M243.1 43.1c-3 4.7-8.9 11-8.9 11 .4-3.4 3.1-16.6 3.9-19.8-.4-1.7-.3-3.7-1.5-5.2-1.5-1.2-3.6-1.8-4.3-3.8-.9-1.9-2.6-3.8-4.9-3.4-4.4 1-9.4 8.8-9.4 8.8-1.8 3.8-3.3 7.7-4 11.9-.6 3-2.2 5.7-3.6 8.4-1.6 1.9-2.9 4.6-5.8 4.2.1-1.4.1-2.8.1-4.2 0 0 7.3-25.7 5-28.2-1-1.6-3.1-1.3-4.7-1-2.2 2.6-2.1 6.4-3.1 9.6-.9 3.9-1.9 7.8-2.4 11.8-1 4.2-8.9 13.1-13.3 12.6-.9-1.9-1.4-4-1-6.1.4-2.6 1.4-8.7 1.4-8.7.4.2 3.1 1.7 3.1 1.7l.3-1.6s6.3-7.2 8-11.5c0 0 4.1-14.6 1.7-21.8-1.2-2.1-3.4-3.1-5.3-4.4-2.6 1.2-5 2.9-6.3 5.5-3.9 7.3-5.6 15.6-7.2 23.7-.6 3-1.2 6.1-1.5 9.2-.2 2.9-1.8 5.3-3.2 7.7-2.6 3.3-6.2 6.8-10.8 6.2-2.6-.4-3.4-3.3-4-5.5 0-.6 0-1.8.1-2.4 2.6.5 5.3.5 7.6-1 5.8-3.5 9-10.5 8.4-17.2.3-6.6-8.8-9.9-13.4-5.9-3.9 3.1-6.1 7.8-7.7 12.5-1 4.5-1.5 9.3-3.9 13.4-1.8 3-3.4 7.5-7.5 7.5.4-2.9 1.1-5.8 2-8.6 1.1-3.2 2.1-6.5 3-9.7 0 0 1.4-6.3 1.9-9.5-.6-1.8-.9-3.8-2-5.3-1.3-1.8-3.9-1.6-5.8-1.1-3 1.6-4.6 4.8-6.1 7.8-.5-2.1-.6-4.3-1.6-6.2-1.2-2.3-4.2-2.1-6.4-1.7-2.8 1-4.5 3.7-5.8 6.2-.4-2.5-1.6-5.5-4.7-5.1-3.1 1.7-2.7 6-4 9-.3 1.9-.7 3.8-1.1 5.8-.5 2.1-.9 4.2-1.3 6.4-1.1 2.3-2.3 4.7-3.4 7-1.5 2.3-3.1 5.1-6.1 5.5-.7-1.5 6.6-28 6.6-28-.7-2.5-1.1-6.5-4.4-6.8-5.2-1-7.8 4.7-9.8 8.5-.3-2.2-.1-4.7-1.2-6.7-1.4-2.2-4.4-2.1-6.6-1.6-2.4 1-3.9 3.4-5.4 5.4-.9-2.2-2.3-4.8-5.1-4.3-2.2 1.1-2.2 3.9-3 6-.9 4.4-2.2 8.7-2.8 13.1-.7 2.2-1.9 4.3-3 6.3-2.7 3.4-6.3 7.2-11.1 6.5-2.4-.3-3.3-3-4-5v-2.7c5.9 1.2 11.1-2.8 13.7-7.7 0 0 2.4-6.5 2.5-10-.6-2.2-.6-5.2-2.9-6.4-2.4-1.3-5.3-2.7-8.1-1.6-4 1.5-6.4 5.4-8.4 8.9-.7 1.9-1.4 3.9-2.1 5.8-2 0-4 0-6 .1.6-2.2 1.2-4.5 1.7-6.8l5.4-20c-.5-.9-1-1.7-1.6-2.6-1.6-.1-3.2-.2-4.8 0-1.2 1.4-1.5 3.2-2 4.9-1.7 6.7-3.6 13.3-4.9 20.1-.4 1.7-.7 3.3-1.1 5-2.8.1-5.6.3-8.4.4.5-2.1 5.5-20 7-26.9 0-3.5-3.7-4-6.3-3.4-3.2 7.9-7.6 28.4-8 30.3-3 .5-6 .5-8.7-1-2.5-1.4-6-.9-7 2.2 1.7 2.8 5.2 2.3 8 2.8 1.4 1.9 2.6 3.9 3.9 6 1 3.6.6 7.3.4 10.9.9 2.4 3.9 2 5.8 1.5.8-4.2 3.6-16.4 4-18.2 2.9.1 5.8 0 8.8-.3-.5 2.4-2.3 14.3-2.9 17.3 1.5 1.5 4.3 3 5.8.7.9-2.7 3.4-15 4.2-18.3 1.9-.2 3.9-.4 5.8-.6-.6 3.9-.8 7.8-.7 11.7.9 3.3 2.8 7 6.5 7.9 6.4 1.7 13.1-2.3 16.3-7.8.1.6.3 1.9.4 2.5-2.4 3.2 1.4 7.2 4.7 5 2-2.9 1.6-6.8 2.7-10.1.7-2.5 6.4-16.7 7.5-21.4 1.2.5 2.3.2 3.3-.7.1 1 .2 2 .4 3-.3 4.1-3.4 17.1-3.9 19.5-.3 3-2.4 6.4-.5 9.2 1.5 1.8 3.8 1.1 5.7.4.8-3.6 1.6-7.1 2.4-10.7.6-2.6 5.5-16.1 8.1-19.9 0 0 2.1-.9 3.2-1.6 0 .7-.1 2.2-.1 2.9-1.1 4.1-4.9 17.5-5.5 20.1-.2 1.7-.6 3.4-.4 5.1.3 3.4 4.1 5.9 7.4 4.9 3.1-1 5-4 6.5-6.6 0 0-.9 6.4 2.7 6.4 4 .7 3.8-4.2 4.4-6.8.6-2.9 1.3-5.8 2-8.7 0 0 2.6-7.5 4-11.1 1.4-2 2.7-4.2 3.6-6.4.6 1.1 1.5 1.4 2.6.9 0 .6-.1 1.8-.1 2.4-.4 2.7-1.4 8-1.4 8-.6 2.8-5 16.9-3.4 21.2 2 .8 4 .9 5.9-.1.9-4 2.8-12.9 2.8-12.9 1-2.8 3-8.6 3-8.6.9-2.6 2.5-4.9 3.1-7.6 1.4-1.5 2.7-3.2 4.9-3.5-.2 1.6-.4 3.2-.6 4.7-.7 2.3-1.4 4.7-2 7-1.1 3.4-3.8 15.3-3.3 17.8.8 3.5 5.4 5.2 8.5 3.3 3.3-2 5.1-5.7 6.7-9 .9 2.8 1.5 6 4 7.9 3.2 2.7 7.9 2 11.5.4 3.9-1.7 6.6-5.2 8.7-8.7.5 2.6.5 5.5 2.1 7.8 1.7 2.3 4.9 3 7.5 1.9 4.2-1.6 7.3-5.1 9.6-8.8-.2 3.7 1.1 9 5.7 9.1 4.8-.5 7.1-5.4 9.5-9 .5 3.1.7 7.3 4.1 8.6 2.2 1.1 4.5-.4 6-2 2-2.4 4.5-5.2 3.7-8.5.5.8.7 1.6.8 2.5-.8 2.5-1.2 5.1-2 7.6-1 1-2.2 1.7-3.4 2.5 0 0-12.1 7.3-12.4 14.5-.6 6.2 7.4 10 12.2 6.3 6.2-4.7 10.1-20 10.1-20 .2-1 .5-1.9.7-2.9 4.2-3.6 7.9-7.9 10.1-13.1.1-1.7-.3-3.3-.4-4.8zm-54.2-13.9c2-7.2 3.2-14.8 7.3-21.1.7 8.7-1.8 17.3-5.2 25.2-1.3 2.4-2.4 5.2-4.7 6.8 1.1-3.6 1.8-7.2 2.6-10.9zM165 33.8l2.4-5.1c1.5-1.4 3.1-3.5 5.4-2.4.1 2.8-.7 5.5-1.6 8.1-1.9 4.5-4.7 9-9.4 11.1.6-4 1.4-8 3.2-11.7zM55 39.4c.8-2.6 1.7-5.2 2.7-7.8 1.4-2.6 3.2-5 5.9-6.2l1.1 1.4c0 1.9-.4 3.8-.8 5.6-1.6 3.8-3.6 7.3-6 10.6-1.4.8-2.8 1.6-4.3 2.5.5-2.1.9-4.1 1.4-6.1zm163.6 40.8c-1 1.5-2.9 1.5-4.5 1.9-2.5-3-.5-6.9 1.9-9.3 2.5-2.9 6.3-4.4 8.6-7.6-1.5 5.1-2.3 10.8-6 15zM230 36.1c-.6 2.7-1.3 5.3-2.1 8-.6 1.8-1.1 3.6-1.8 5.4-1.4 2.1-2.5 5.8-5.6 5.6-.9-.9-.6-2.2-.8-3.3.4-2.7.8-5.4 1.3-8.1 1.2-5.3 2.8-10.7 5.9-15.3.4-.2 1.2-.6 1.7-.8.4-.2 1.2-.5 1.7-.7 1.2 3 .3 6.2-.3 9.2z"/></g></svg>