<svg xmlns="http://www.w3.org/2000/svg" xmlns:xlink="http://www.w3.org/1999/xlink" x="0px" y="0px" width="246.8px" height="88.5px" viewBox="0 0 246.8 88.5" xml:space="preserve"><g><g><path fill="none" stroke="#FFFFFF" stroke-width="7" stroke-linecap="round" stroke-linejoin="round" d="M206.1,15.3 c0.8,1.4,1.6,2.9,2.4,4.3c2.4-1.9,5.3-3.3,7.5-5.4l0.7-0.3c-0.5-2-0.4-4.4-2.1-5.8c-1.2-0.2-2.4-0.3-3.6-0.4 c-1.5-0.7-3.1-1.5-4.7-0.8C204.2,9.1,203.4,13.3,206.1,15.3"/><path fill="#B879AE" d="M206.1,15.3c0.8,1.4,1.6,2.9,2.4,4.3c2.4-1.9,5.3-3.3,7.5-5.4l0.7-0.3c-0.5-2-0.4-4.4-2.1-5.8 c-1.2-0.2-2.4-0.3-3.6-0.4c-1.5-0.7-3.1-1.5-4.7-0.8C204.2,9.1,203.4,13.3,206.1,15.3"/></g><g><g><path fill="none" stroke="#FFFFFF" stroke-width="7" stroke-linecap="round" stroke-linejoin="round" d="M243.1,43.1 c-3,4.7-8.9,11-8.9,11c0.4-3.4,3.1-16.6,3.9-19.8c-0.4-1.7-0.3-3.7-1.5-5.2c-1.5-1.2-3.6-1.8-4.3-3.8c-0.9-1.9-2.6-3.8-4.9-3.4 c-4.4,1-9.4,8.8-9.4,8.8c-1.8,3.8-3.3,7.7-4,11.9c-0.6,3-2.2,5.7-3.6,8.4c-1.6,1.9-2.9,4.6-5.8,4.2c0.1-1.4,0.1-2.8,0.1-4.2 c0,0,7.3-25.7,5-28.2c-1-1.6-3.1-1.3-4.7-1c-2.2,2.6-2.1,6.4-3.1,9.6c-0.9,3.9-1.9,7.8-2.4,11.8c-1,4.2-8.9,13.1-13.3,12.6 c-0.9-1.9-1.4-4-1-6.1c0.4-2.6,1.4-8.7,1.4-8.7c0.4,0.2,3.1,1.7,3.1,1.7l0.3-1.6c0,0,6.3-7.2,8-11.5c0,0,4.1-14.6,1.7-21.8 c-1.2-2.1-3.4-3.1-5.3-4.4c-2.6,1.2-5,2.9-6.3,5.5c-3.9,7.3-5.6,15.6-7.2,23.7c-0.6,3-1.2,6.1-1.5,9.2c-0.2,2.9-1.8,5.3-3.2,7.7 c-2.6,3.3-6.2,6.8-10.8,6.2c-2.6-0.4-3.4-3.3-4-5.5c0-0.6,0-1.8,0.1-2.4c2.6,0.5,5.3,0.5,7.6-1c5.8-3.5,9-10.5,8.4-17.2 c0.3-6.6-8.8-9.9-13.4-5.9c-3.9,3.1-6.1,7.8-7.7,12.5c-1,4.5-1.5,9.3-3.9,13.4c-1.8,3-3.4,7.5-7.5,7.5c0.4-2.9,1.1-5.8,2-8.6 c1.1-3.2,2.1-6.5,3-9.7c0,0,1.4-6.3,1.9-9.5c-0.6-1.8-0.9-3.8-2-5.3c-1.3-1.8-3.9-1.6-5.8-1.1c-3,1.6-4.6,4.8-6.1,7.8 c-0.5-2.1-0.6-4.3-1.6-6.2c-1.2-2.3-4.2-2.1-6.4-1.7c-2.8,1-4.5,3.7-5.8,6.2c-0.4-2.5-1.6-5.5-4.7-5.1c-3.1,1.7-2.7,6-4,9 c-0.3,1.9-0.7,3.8-1.1,5.8c-0.5,2.1-0.9,4.2-1.3,6.4c-1.1,2.3-2.3,4.7-3.4,7c-1.5,2.3-3.1,5.1-6.1,5.5c-0.7-1.5,6.6-28,6.6-28 c-0.7-2.5-1.1-6.5-4.4-6.8c-5.2-1-7.8,4.7-9.8,8.5c-0.3-2.2-0.1-4.7-1.2-6.7c-1.4-2.2-4.4-2.1-6.6-1.6c-2.4,1-3.9,3.4-5.4,5.4 c-0.9-2.2-2.3-4.8-5.1-4.3c-2.2,1.1-2.2,3.9-3,6c-0.9,4.4-2.2,8.7-2.8,13.1c-0.7,2.2-1.9,4.3-3,6.3c-2.7,3.4-6.3,7.2-11.1,6.5 c-2.4-0.3-3.3-3-4-5v-2.7c5.9,1.2,11.1-2.8,13.7-7.7c0,0,2.4-6.5,2.5-10c-0.6-2.2-0.6-5.2-2.9-6.4c-2.4-1.3-5.3-2.7-8.1-1.6 c-4,1.5-6.4,5.4-8.4,8.9c-0.7,1.9-1.4,3.9-2.1,5.8c-2,0-4,0-6,0.1c0.6-2.2,1.2-4.5,1.7-6.8l5.4-20c-0.5-0.9-1-1.7-1.6-2.6 c-1.6-0.1-3.2-0.2-4.8,0c-1.2,1.4-1.5,3.2-2,4.9c-1.7,6.7-3.6,13.3-4.9,20.1c-0.4,1.7-0.7,3.3-1.1,5c-2.8,0.1-5.6,0.3-8.4,0.4 c0.5-2.1,5.5-20,7-26.9c0-3.5-3.7-4-6.3-3.4c-3.2,7.9-7.6,28.4-8,30.3c-3,0.5-6,0.5-8.7-1c-2.5-1.4-6-0.9-7,2.2 c1.7,2.8,5.2,2.3,8,2.8c1.4,1.9,2.6,3.9,3.9,6c1,3.6,0.6,7.3,0.4,10.9c0.9,2.4,3.9,2,5.8,1.5c0.8-4.2,3.6-16.4,4-18.2 c2.9,0.1,5.8,0,8.8-0.3c-0.5,2.4-2.3,14.3-2.9,17.3c1.5,1.5,4.3,3,5.8,0.7c0.9-2.7,3.4-15,4.2-18.3c1.9-0.2,3.9-0.4,5.8-0.6 c-0.6,3.9-0.8,7.8-0.7,11.7c0,0,0,0,0,0c0.9,3.3,2.8,7,6.5,7.9c6.4,1.7,13.1-2.3,16.3-7.8c0.1,0.6,0.3,1.9,0.4,2.5 c-2.4,3.2,1.4,7.2,4.7,5c2-2.9,1.6-6.8,2.7-10.1c0.7-2.5,6.4-16.7,7.5-21.4c1.2,0.5,2.3,0.2,3.3-0.7c0.1,1,0.2,2,0.4,3 c-0.3,4.1-3.4,17.1-3.9,19.5c-0.3,3-2.4,6.4-0.5,9.2c1.5,1.8,3.8,1.1,5.7,0.4c0.8-3.6,1.6-7.1,2.4-10.7 c0.6-2.6,5.5-16.1,8.1-19.9c0,0,2.1-0.9,3.2-1.6c0,0.7-0.1,2.2-0.1,2.9c-1.1,4.1-4.9,17.5-5.5,20.1c-0.2,1.7-0.6,3.4-0.4,5.1 c0.3,3.4,4.1,5.9,7.4,4.9c3.1-1,5-4,6.5-6.6c0,0-0.9,6.4,2.7,6.4c4,0.7,3.8-4.2,4.4-6.8c0.6-2.9,1.3-5.8,2-8.7 c0,0,2.6-7.5,4-11.1c1.4-2,2.7-4.2,3.6-6.4c0.6,1.1,1.5,1.4,2.6,0.9c0,0.6-0.1,1.8-0.1,2.4c-0.4,2.7-1.4,8-1.4,8 c-0.6,2.8-5,16.9-3.4,21.2c2,0.8,4,0.9,5.9-0.1c0.9-4,2.8-12.9,2.8-12.9c1-2.8,3-8.6,3-8.6c0.9-2.6,2.5-4.9,3.1-7.6 c1.4-1.5,2.7-3.2,4.9-3.5c-0.2,1.6-0.4,3.2-0.6,4.7c-0.7,2.3-1.4,4.7-2,7c-1.1,3.4-3.8,15.3-3.3,17.8c0.8,3.5,5.4,5.2,8.5,3.3 c3.3-2,5.1-5.7,6.7-9c0.9,2.8,1.5,6,4,7.9c3.2,2.7,7.9,2,11.5,0.4c3.9-1.7,6.6-5.2,8.7-8.7c0.5,2.6,0.5,5.5,2.1,7.8 c1.7,2.3,4.9,3,7.5,1.9c4.2-1.6,7.3-5.1,9.6-8.8c-0.2,3.7,1.1,9,5.7,9.1c4.8-0.5,7.1-5.4,9.5-9c0.5,3.1,0.7,7.3,4.1,8.6 c2.2,1.1,4.5-0.4,6-2c2-2.4,4.5-5.2,3.7-8.5c0.5,0.8,0.7,1.6,0.8,2.5c-0.8,2.5-1.2,5.1-2,7.6c-1,1-2.2,1.7-3.4,2.5 c0,0-12.1,7.3-12.4,14.5c-0.6,6.2,7.4,10,12.2,6.3c6.2-4.7,10.1-20,10.1-20c0.2-1,0.5-1.9,0.7-2.9c4.2-3.6,7.9-7.9,10.1-13.1 C243.6,46.2,243.2,44.6,243.1,43.1z M188.9,29.2c2-7.2,3.2-14.8,7.3-21.1c0.7,8.7-1.8,17.3-5.2,25.2c-1.3,2.4-2.4,5.2-4.7,6.8 C187.4,36.5,188.1,32.9,188.9,29.2z M165,33.8c0.8-1.7,1.6-3.4,2.4-5.1c1.5-1.4,3.1-3.5,5.4-2.4c0.1,2.8-0.7,5.5-1.6,8.1 c-1.9,4.5-4.7,9-9.4,11.1C162.4,41.5,163.2,37.5,165,33.8z M55,39.4c0.8-2.6,1.7-5.2,2.7-7.8c1.4-2.6,3.2-5,5.9-6.2l1.1,1.4 c0,1.9-0.4,3.8-0.8,5.6c-1.6,3.8-3.6,7.3-6,10.6c-1.4,0.8-2.8,1.6-4.3,2.5C54.1,43.4,54.5,41.4,55,39.4z M218.6,80.2 c-1,1.5-2.9,1.5-4.5,1.9c-2.5-3-0.5-6.9,1.9-9.3c2.5-2.9,6.3-4.4,8.6-7.6C223.1,70.3,222.3,76,218.6,80.2z M230,36.1 c-0.6,2.7-1.3,5.3-2.1,8c-0.6,1.8-1.1,3.6-1.8,5.4c-1.4,2.1-2.5,5.8-5.6,5.6c-0.9-0.9-0.6-2.2-0.8-3.3c0.4-2.7,0.8-5.4,1.3-8.1 c1.2-5.3,2.8-10.7,5.9-15.3c0.4-0.2,1.2-0.6,1.7-0.8c0.4-0.2,1.2-0.5,1.7-0.7C231.5,29.9,230.6,33.1,230,36.1z"/></g><g><path fill="#B879AE" d="M243.1,43.1c-3,4.7-8.9,11-8.9,11c0.4-3.4,3.1-16.6,3.9-19.8c-0.4-1.7-0.3-3.7-1.5-5.2 c-1.5-1.2-3.6-1.8-4.3-3.8c-0.9-1.9-2.6-3.8-4.9-3.4c-4.4,1-9.4,8.8-9.4,8.8c-1.8,3.8-3.3,7.7-4,11.9c-0.6,3-2.2,5.7-3.6,8.4 c-1.6,1.9-2.9,4.6-5.8,4.2c0.1-1.4,0.1-2.8,0.1-4.2c0,0,7.3-25.7,5-28.2c-1-1.6-3.1-1.3-4.7-1c-2.2,2.6-2.1,6.4-3.1,9.6 c-0.9,3.9-1.9,7.8-2.4,11.8c-1,4.2-8.9,13.1-13.3,12.6c-0.9-1.9-1.4-4-1-6.1c0.4-2.6,1.4-8.7,1.4-8.7c0.4,0.2,3.1,1.7,3.1,1.7 l0.3-1.6c0,0,6.3-7.2,8-11.5c0,0,4.1-14.6,1.7-21.8c-1.2-2.1-3.4-3.1-5.3-4.4c-2.6,1.2-5,2.9-6.3,5.5c-3.9,7.3-5.6,15.6-7.2,23.7 c-0.6,3-1.2,6.1-1.5,9.2c-0.2,2.9-1.8,5.3-3.2,7.7c-2.6,3.3-6.2,6.8-10.8,6.2c-2.6-0.4-3.4-3.3-4-5.5c0-0.6,0-1.8,0.1-2.4 c2.6,0.5,5.3,0.5,7.6-1c5.8-3.5,9-10.5,8.4-17.2c0.3-6.6-8.8-9.9-13.4-5.9c-3.9,3.1-6.1,7.8-7.7,12.5c-1,4.5-1.5,9.3-3.9,13.4 c-1.8,3-3.4,7.5-7.5,7.5c0.4-2.9,1.1-5.8,2-8.6c1.1-3.2,2.1-6.5,3-9.7c0,0,1.4-6.3,1.9-9.5c-0.6-1.8-0.9-3.8-2-5.3 c-1.3-1.8-3.9-1.6-5.8-1.1c-3,1.6-4.6,4.8-6.1,7.8c-0.5-2.1-0.6-4.3-1.6-6.2c-1.2-2.3-4.2-2.1-6.4-1.7c-2.8,1-4.5,3.7-5.8,6.2 c-0.4-2.5-1.6-5.5-4.7-5.1c-3.1,1.7-2.7,6-4,9c-0.3,1.9-0.7,3.8-1.1,5.8c-0.5,2.1-0.9,4.2-1.3,6.4c-1.1,2.3-2.3,4.7-3.4,7 c-1.5,2.3-3.1,5.1-6.1,5.5c-0.7-1.5,6.6-28,6.6-28c-0.7-2.5-1.1-6.5-4.4-6.8c-5.2-1-7.8,4.7-9.8,8.5c-0.3-2.2-0.1-4.7-1.2-6.7 c-1.4-2.2-4.4-2.1-6.6-1.6c-2.4,1-3.9,3.4-5.4,5.4c-0.9-2.2-2.3-4.8-5.1-4.3c-2.2,1.1-2.2,3.9-3,6c-0.9,4.4-2.2,8.7-2.8,13.1 c-0.7,2.2-1.9,4.3-3,6.3c-2.7,3.4-6.3,7.2-11.1,6.5c-2.4-0.3-3.3-3-4-5v-2.7c5.9,1.2,11.1-2.8,13.7-7.7c0,0,2.4-6.5,2.5-10 c-0.6-2.2-0.6-5.2-2.9-6.4c-2.4-1.3-5.3-2.7-8.1-1.6c-4,1.5-6.4,5.4-8.4,8.9c-0.7,1.9-1.4,3.9-2.1,5.8c-2,0-4,0-6,0.1 c0.6-2.2,1.2-4.5,1.7-6.8l5.4-20c-0.5-0.9-1-1.7-1.6-2.6c-1.6-0.1-3.2-0.2-4.8,0c-1.2,1.4-1.5,3.2-2,4.9 c-1.7,6.7-3.6,13.3-4.9,20.1c-0.4,1.7-0.7,3.3-1.1,5c-2.8,0.1-5.6,0.3-8.4,0.4c0.5-2.1,5.5-20,7-26.9c0-3.5-3.7-4-6.3-3.4 c-3.2,7.9-7.6,28.4-8,30.3c-3,0.5-6,0.5-8.7-1c-2.5-1.4-6-0.9-7,2.2c1.7,2.8,5.2,2.3,8,2.8c1.4,1.9,2.6,3.9,3.9,6 c1,3.6,0.6,7.3,0.4,10.9c0.9,2.4,3.9,2,5.8,1.5c0.8-4.2,3.6-16.4,4-18.2c2.9,0.1,5.8,0,8.8-0.3c-0.5,2.4-2.3,14.3-2.9,17.3 c1.5,1.5,4.3,3,5.8,0.7c0.9-2.7,3.4-15,4.2-18.3c1.9-0.2,3.9-0.4,5.8-0.6c-0.6,3.9-0.8,7.8-0.7,11.7c0,0,0,0,0,0 c0.9,3.3,2.8,7,6.5,7.9c6.4,1.7,13.1-2.3,16.3-7.8c0.1,0.6,0.3,1.9,0.4,2.5c-2.4,3.2,1.4,7.2,4.7,5c2-2.9,1.6-6.8,2.7-10.1 c0.7-2.5,6.4-16.7,7.5-21.4c1.2,0.5,2.3,0.2,3.3-0.7c0.1,1,0.2,2,0.4,3c-0.3,4.1-3.4,17.1-3.9,19.5c-0.3,3-2.4,6.4-0.5,9.2 c1.5,1.8,3.8,1.1,5.7,0.4c0.8-3.6,1.6-7.1,2.4-10.7c0.6-2.6,5.5-16.1,8.1-19.9c0,0,2.1-0.9,3.2-1.6c0,0.7-0.1,2.2-0.1,2.9 c-1.1,4.1-4.9,17.5-5.5,20.1c-0.2,1.7-0.6,3.4-0.4,5.1c0.3,3.4,4.1,5.9,7.4,4.9c3.1-1,5-4,6.5-6.6c0,0-0.9,6.4,2.7,6.4 c4,0.7,3.8-4.2,4.4-6.8c0.6-2.9,1.3-5.8,2-8.7c0,0,2.6-7.5,4-11.1c1.4-2,2.7-4.2,3.6-6.4c0.6,1.1,1.5,1.4,2.6,0.9 c0,0.6-0.1,1.8-0.1,2.4c-0.4,2.7-1.4,8-1.4,8c-0.6,2.8-5,16.9-3.4,21.2c2,0.8,4,0.9,5.9-0.1c0.9-4,2.8-12.9,2.8-12.9 c1-2.8,3-8.6,3-8.6c0.9-2.6,2.5-4.9,3.1-7.6c1.4-1.5,2.7-3.2,4.9-3.5c-0.2,1.6-0.4,3.2-0.6,4.7c-0.7,2.3-1.4,4.7-2,7 c-1.1,3.4-3.8,15.3-3.3,17.8c0.8,3.5,5.4,5.2,8.5,3.3c3.3-2,5.1-5.7,6.7-9c0.9,2.8,1.5,6,4,7.9c3.2,2.7,7.9,2,11.5,0.4 c3.9-1.7,6.6-5.2,8.7-8.7c0.5,2.6,0.5,5.5,2.1,7.8c1.7,2.3,4.9,3,7.5,1.9c4.2-1.6,7.3-5.1,9.6-8.8c-0.2,3.7,1.1,9,5.7,9.1 c4.8-0.5,7.1-5.4,9.5-9c0.5,3.1,0.7,7.3,4.1,8.6c2.2,1.1,4.5-0.4,6-2c2-2.4,4.5-5.2,3.7-8.5c0.5,0.8,0.7,1.6,0.8,2.5 c-0.8,2.5-1.2,5.1-2,7.6c-1,1-2.2,1.7-3.4,2.5c0,0-12.1,7.3-12.4,14.5c-0.6,6.2,7.4,10,12.2,6.3c6.2-4.7,10.1-20,10.1-20 c0.2-1,0.5-1.9,0.7-2.9c4.2-3.6,7.9-7.9,10.1-13.1C243.6,46.2,243.2,44.6,243.1,43.1z M188.9,29.2c2-7.2,3.2-14.8,7.3-21.1 c0.7,8.7-1.8,17.3-5.2,25.2c-1.3,2.4-2.4,5.2-4.7,6.8C187.4,36.5,188.1,32.9,188.9,29.2z M165,33.8c0.8-1.7,1.6-3.4,2.4-5.1 c1.5-1.4,3.1-3.5,5.4-2.4c0.1,2.8-0.7,5.5-1.6,8.1c-1.9,4.5-4.7,9-9.4,11.1C162.4,41.5,163.2,37.5,165,33.8z M55,39.4 c0.8-2.6,1.7-5.2,2.7-7.8c1.4-2.6,3.2-5,5.9-6.2l1.1,1.4c0,1.9-0.4,3.8-0.8,5.6c-1.6,3.8-3.6,7.3-6,10.6 c-1.4,0.8-2.8,1.6-4.3,2.5C54.1,43.4,54.5,41.4,55,39.4z M218.6,80.2c-1,1.5-2.9,1.5-4.5,1.9c-2.5-3-0.5-6.9,1.9-9.3 c2.5-2.9,6.3-4.4,8.6-7.6C223.1,70.3,222.3,76,218.6,80.2z M230,36.1c-0.6,2.7-1.3,5.3-2.1,8c-0.6,1.8-1.1,3.6-1.8,5.4 c-1.4,2.1-2.5,5.8-5.6,5.6c-0.9-0.9-0.6-2.2-0.8-3.3c0.4-2.7,0.8-5.4,1.3-8.1c1.2-5.3,2.8-10.7,5.9-15.3c0.4-0.2,1.2-0.6,1.7-0.8 c0.4-0.2,1.2-0.5,1.7-0.7C231.5,29.9,230.6,33.1,230,36.1z"/></g></g></g></svg>