<svg xmlns="http://www.w3.org/2000/svg" width="147" height="99.4"><path fill="#366" d="M43 6.4C51 0 62-.9 71.8.6 80.7 2 89.8 7.2 93.2 16c2.6 7.5 1.6 15.5 1.7 23.3H67V26.9s.3-7.8-2.5-7.8c-2.4 0-2.5 7.8-2.5 7.8s.1 30 0 45.4c.1 2.6-.3 8.2 2.7 8.2 2.5 0 2.4-8.2 2.4-8.2V62.1h-4V44.5H95s.1 35.2 0 52.8c-6.2 0-18.6-.1-18.6-.1v-3.4c-11.1 9.9-32 6.3-39.3-6.4-3.9-7.5-3.7-19.4-3.7-19.4V34.5c.4-9.9.3-9.8.9-14.3.6-5.6 4.3-10.5 8.7-13.8zM0 2.4h28v94.9H0zM147 2.4v21.9h-17.1v14.1H145v20.9h-15.1v37.9H101V2.4z"/></svg>