<svg xmlns="http://www.w3.org/2000/svg" xmlns:xlink="http://www.w3.org/1999/xlink" x="0px" y="0px" width="147px" height="99.4px" viewBox="0 0 147 99.4" xml:space="preserve"><path fill="#336666" d="M43,6.4C51,0,62-0.9,71.8,0.6C80.7,2,89.8,7.2,93.2,16c2.6,7.5,1.6,15.5,1.7,23.3c-9.3,0-27.9,0-27.9,0V26.9 c0,0,0.3-7.8-2.5-7.8c-2.4,0-2.5,7.8-2.5,7.8s0.1,30,0,45.4c0.1,2.6-0.3,8.2,2.7,8.2c2.5,0,2.4-8.2,2.4-8.2V62.1h-4V44.5h31.9 c0,0,0.1,35.2,0,52.8c-6.2,0-18.6-0.1-18.6-0.1l0-3.4c-11.1,9.9-32,6.3-39.3-6.4C33.2,79.9,33.4,68,33.4,68V34.5 c0.4-9.9,0.3-9.8,0.9-14.3C34.9,14.6,38.6,9.7,43,6.4L43,6.4z"/><rect y="2.4" fill="#336666" width="28" height="94.9"/><polygon fill="#336666" points="147,2.4 147,24.3 129.9,24.3 129.9,38.4 145,38.4 145,59.3 129.9,59.3 129.9,97.2 101,97.2 101,2.4"/></svg>