<svg xmlns="http://www.w3.org/2000/svg" xmlns:xlink="http://www.w3.org/1999/xlink" x="0px" y="0px" viewBox="0 0 230.6 195" overflow="scroll" xml:space="preserve"><g><path fill="#F53107" d="M179.5,46.9c-2-9.9-7.5-18.9-15.2-25.4c-7.5-6.4-17.1-10.1-26.9-10.6c-1-3.4-3.1-6.4-6-8.4 c-3.7-2.6-8.6-3.3-12.9-2c-4.1,1.2-7.5,4.2-9.3,8c-1.7,3.5-1.9,7.5-0.8,11.2c-5.3,3.9-9.7,9-12.9,14.8c-4.5,8.2-6.3,17.8-5.1,27.1 c1.1,9.3,5.3,18.2,11.6,25.1c6.5,7.1,15.4,12,24.8,13.7c8.6,1.6,17.6,0.7,25.6-2.7c10.5-4.3,19.2-12.7,23.8-23 C180.3,66.1,181.4,56.2,179.5,46.9z M118,83.5c-7.2-3.5-13.1-9.4-16.6-16.6c-3.4-7-4.3-15-2.7-22.6c1.7-7.9,6.1-15.1,12.3-20.1 c3.3-2.7,7.1-4.7,11.1-6.1c0.1,4-0.2,8,0.3,11.9c0.8,6.2,2.4,12.4,4.8,18.2c1.6,3.8,3.7,7.3,5.7,10.9c-2.9-1-6.3-0.4-8.5,1.8 c-3.1,2.9-3.3,8.1-0.5,11.2c2.7,3.3,7.9,3.8,11.2,1.1c1.1-0.8,1.9-2.1,2.6-3.3c1.6,5.3,2.2,10.9,2.3,16.4 C132.7,87.8,124.8,86.8,118,83.5z M157.7,57.8c2.6,2.8,7.1,3.2,10.3,1.3c-2.3,10.9-10.1,20.5-20.4,24.9c-0.2-8.6-2.1-17.2-5.9-24.9 c-1.6-3.2-3.4-6.3-5.1-9.5c-3.1-5.7-5-12-6.1-18.3c-0.9-4.9-0.4-10-0.5-14.9c8.6-0.9,17.4,1.5,24.3,6.6c7.3,5.3,12.4,13.4,14,22.3 c-1.4-0.8-3-1.4-4.7-1.3c-3.2,0-6.2,2-7.4,4.9C154.8,51.8,155.4,55.5,157.7,57.8z"/><path fill="#F53107" d="M139.7,25.9c2.4-0.6,5-0.2,7,1.2c2.7,1.9,4,5.5,3.1,8.6c-0.8,3.3-3.9,6-7.3,6.1c-2.6,0.2-5.3-0.9-7-3 c-2-2.4-2.4-6-1-8.8C135.7,28,137.6,26.5,139.7,25.9L139.7,25.9z"/><path fill="#F53107" d="M114.5,43.5c3.9-1.1,8.4,1.3,9.7,5.2c1.2,3.4,0,7.5-3,9.5c-3.2,2.3-8,1.8-10.7-1.1 c-2.2-2.3-2.8-5.9-1.6-8.8C109.9,45.9,112,44.1,114.5,43.5L114.5,43.5z"/></g><path fill="#FFFFFF" d="M0,114.8c6.1-0.1,12.3,0,18.5-0.1c0,4.9,0,9.8,0,14.6c-6.1-0.1-12.3,0-18.4-0.1C0.1,124.4,0.1,119.6,0,114.8 L0,114.8z"/><path fill="#FFFFFF" d="M0,134c6.1,0,12.3,0,18.4,0c-0.1,18.3,0,36.6,0,54.9c-6.1,0-12.3,0-18.4,0C0.1,170.6,0.1,152.3,0,134L0,134z "/><path fill="#FFFFFF" d="M230.2,142c-0.2,0.1,0,0-0.2,0.1c-0.8-4.9-4.5-8.9-8.5-11.6c-3.8-2.1-8.4-2-12.6-1.3 c-4.7,0.9-8.2,4.4-11.6,7.5c0-11.7,0-23.3,0-35c-5.8,0.1-11.5,0-17.3,0c0.2,14.8-0.1,29.6,0.2,44.4c-1.7-3.6-4.2-7-7.8-9 c-2.7-1.9-6.6-2.4-8.2-5.6c0.4-0.5,1.2-1.6,1.6-2.2c3.2-1.5,6.7-2.1,10.1-2.5c-1.4-5-2.9-10-4.1-15c-6.9,0.6-13.9,2.8-19.5,6.9 c-4.2,2.9-7.3,7.4-7.8,12.5c-2-2.1-4.1-4.2-6.8-5.4c-13.8-6.8-32.6-1.7-40.2,12c0.1-12.1,0-24.2,0-36.2c-1.4,3.2-3.9,5.7-6.1,8.4 c-10.6,13.1-21.4,26-31.9,39.2c-10.7-13.1-20.9-26.6-31.5-39.8c-1.9-2.4-3.9-4.9-5.5-7.5c0.3,27.5,0.1,54.9,0.1,82.3 c6.1,0.1,12.1,0.1,18.2,0c-0.1-9.8,0-19.6,0-29.4c6.6,7.8,12.7,16,19.2,23.9c6.5-8.3,13.2-16.4,19.6-24.7 c-0.1,13.5,0.1,26.9-0.1,40.4c0.3-0.2,1-0.5,1.3-0.6c5-3.9,11.2-6,16.8-9.1c0-5.5,0-11.1,0-16.6c7.3,11.8,20.7,18.1,33.7,21.4 c4-5.1,8.3-10,12.2-15.1c-8.2-0.9-16.5-3.4-23.3-8.3c7.3-1.3,14.8-3.1,20.9-7.5c5.2-3.6,7.8-9.9,7.5-16.1c3.4,3.9,8.6,4.8,12.5,7.9 c1.9,1.2,2.3,4.2,0.4,5.6c-4.8,5.1-12.1,5.9-18.5,8c2.4,5.4,4.8,10.8,7,16.2c9.8-1.8,18.8-6.9,26-13.7c2.1-2,3.2-4.7,4.2-7.3 c0,8.5,0,17.1,0,25.6c5.9,0,11.7,0,17.6,0c0.1-10.2,0-20.3,0-30.5c2.7-3.2,5.6-7.4,10.2-7.5c2.9,0,4.4,3.1,4.3,5.6 c0.3,14.2-0.3,28.3,0.3,42.5c1.9-2.6,4.9-3.6,7.6-5.1c3.5-1.8,6.9-3.8,10.6-5.1C230.4,170.5,230.9,156.2,230.2,142z M127,148.8 c-5,3.2-11.1,3.9-16.8,4.3c0-3.5,0.7-7.3,3.1-10c3.8-5,11.1-6.2,16.6-3.7C132.5,142.7,130.1,146.9,127,148.8z"/></svg>