<svg xmlns="http://www.w3.org/2000/svg" viewBox="0 0 230.6 195" overflow="scroll"><g fill="#F53107"><path d="M179.5 46.9c-2-9.9-7.5-18.9-15.2-25.4-7.5-6.4-17.1-10.1-26.9-10.6-1-3.4-3.1-6.4-6-8.4-3.7-2.6-8.6-3.3-12.9-2-4.1 1.2-7.5 4.2-9.3 8-1.7 3.5-1.9 7.5-.8 11.2-5.3 3.9-9.7 9-12.9 14.8-4.5 8.2-6.3 17.8-5.1 27.1 1.1 9.3 5.3 18.2 11.6 25.1 6.5 7.1 15.4 12 24.8 13.7 8.6 1.6 17.6.7 25.6-2.7 10.5-4.3 19.2-12.7 23.8-23 4.1-8.6 5.2-18.5 3.3-27.8zM118 83.5c-7.2-3.5-13.1-9.4-16.6-16.6-3.4-7-4.3-15-2.7-22.6 1.7-7.9 6.1-15.1 12.3-20.1 3.3-2.7 7.1-4.7 11.1-6.1.1 4-.2 8 .3 11.9.8 6.2 2.4 12.4 4.8 18.2 1.6 3.8 3.7 7.3 5.7 10.9-2.9-1-6.3-.4-8.5 1.8-3.1 2.9-3.3 8.1-.5 11.2 2.7 3.3 7.9 3.8 11.2 1.1 1.1-.8 1.9-2.1 2.6-3.3 1.6 5.3 2.2 10.9 2.3 16.4-7.3 1.5-15.2.5-22-2.8zm39.7-25.7c2.6 2.8 7.1 3.2 10.3 1.3-2.3 10.9-10.1 20.5-20.4 24.9-.2-8.6-2.1-17.2-5.9-24.9-1.6-3.2-3.4-6.3-5.1-9.5-3.1-5.7-5-12-6.1-18.3-.9-4.9-.4-10-.5-14.9 8.6-.9 17.4 1.5 24.3 6.6 7.3 5.3 12.4 13.4 14 22.3-1.4-.8-3-1.4-4.7-1.3-3.2 0-6.2 2-7.4 4.9-1.4 2.9-.8 6.6 1.5 8.9z"/><path d="M139.7 25.9c2.4-.6 5-.2 7 1.2 2.7 1.9 4 5.5 3.1 8.6-.8 3.3-3.9 6-7.3 6.1-2.6.2-5.3-.9-7-3-2-2.4-2.4-6-1-8.8 1.2-2 3.1-3.5 5.2-4.1zM114.5 43.5c3.9-1.1 8.4 1.3 9.7 5.2 1.2 3.4 0 7.5-3 9.5-3.2 2.3-8 1.8-10.7-1.1-2.2-2.3-2.8-5.9-1.6-8.8 1-2.4 3.1-4.2 5.6-4.8z"/></g><path fill="#FFF" d="M0 114.8c6.1-.1 12.3 0 18.5-.1v14.6c-6.1-.1-12.3 0-18.4-.1 0-4.8 0-9.6-.1-14.4zM0 134h18.4c-.1 18.3 0 36.6 0 54.9H0c.1-18.3.1-36.6 0-54.9zM230.2 142l-.2.1c-.8-4.9-4.5-8.9-8.5-11.6-3.8-2.1-8.4-2-12.6-1.3-4.7.9-8.2 4.4-11.6 7.5v-35c-5.8.1-11.5 0-17.3 0 .2 14.8-.1 29.6.2 44.4-1.7-3.6-4.2-7-7.8-9-2.7-1.9-6.6-2.4-8.2-5.6.4-.5 1.2-1.6 1.6-2.2 3.2-1.5 6.7-2.1 10.1-2.5-1.4-5-2.9-10-4.1-15-6.9.6-13.9 2.8-19.5 6.9-4.2 2.9-7.3 7.4-7.8 12.5-2-2.1-4.1-4.2-6.8-5.4-13.8-6.8-32.6-1.7-40.2 12 .1-12.1 0-24.2 0-36.2-1.4 3.2-3.9 5.7-6.1 8.4-10.6 13.1-21.4 26-31.9 39.2-10.7-13.1-20.9-26.6-31.5-39.8-1.9-2.4-3.9-4.9-5.5-7.5.3 27.5.1 54.9.1 82.3 6.1.1 12.1.1 18.2 0-.1-9.8 0-19.6 0-29.4 6.6 7.8 12.7 16 19.2 23.9 6.5-8.3 13.2-16.4 19.6-24.7-.1 13.5.1 26.9-.1 40.4.3-.2 1-.5 1.3-.6 5-3.9 11.2-6 16.8-9.1v-16.6c7.3 11.8 20.7 18.1 33.7 21.4 4-5.1 8.3-10 12.2-15.1-8.2-.9-16.5-3.4-23.3-8.3 7.3-1.3 14.8-3.1 20.9-7.5 5.2-3.6 7.8-9.9 7.5-16.1 3.4 3.9 8.6 4.8 12.5 7.9 1.9 1.2 2.3 4.2.4 5.6-4.8 5.1-12.1 5.9-18.5 8 2.4 5.4 4.8 10.8 7 16.2 9.8-1.8 18.8-6.9 26-13.7 2.1-2 3.2-4.7 4.2-7.3v25.6h17.6c.1-10.2 0-20.3 0-30.5 2.7-3.2 5.6-7.4 10.2-7.5 2.9 0 4.4 3.1 4.3 5.6.3 14.2-.3 28.3.3 42.5 1.9-2.6 4.9-3.6 7.6-5.1 3.5-1.8 6.9-3.8 10.6-5.1-.4-14.2.1-28.5-.6-42.7zM127 148.8c-5 3.2-11.1 3.9-16.8 4.3 0-3.5.7-7.3 3.1-10 3.8-5 11.1-6.2 16.6-3.7 2.6 3.3.2 7.5-2.9 9.4z"/></svg>