<svg width="91" height="33" xmlns="http://www.w3.org/2000/svg" xmlns:xlink="http://www.w3.org/1999/xlink"><defs><path id="a" d="M0 .237h90.629v32.301H0"/></defs><g fill="none" fill-rule="evenodd"><g transform="translate(0 -.385)"><mask id="b" fill="#fff"><use xlink:href="#a"/></mask><path d="M85.889 14.137c-1.535.65-1.71 1.239-1.71 2.912v5.08c0 2.386-.872 3.563-2.755 3.563-1.884 0-2.756-1.177-2.756-3.563v-9.82c0-2.385.872-3.532 2.756-3.532 1.081 0 1.953.496 2.616 1.55 1.15-1.085 2.441-1.642 3.732-1.642 1.535 0 2.79 1.114 2.79 2.415 0 1.952-2.441 2.107-4.673 3.037M67.54 25.97c-5.336 0-8.301-2.479-8.301-7.156v-6.506c0-2.385.872-3.532 2.755-3.532 1.85 0 2.72 1.147 2.72 3.532v5.514c0 2.293.594 3.563 2.826 3.563 2.233 0 2.826-1.27 2.826-3.563V12.31c0-2.385.872-3.532 2.755-3.532 1.884 0 2.721 1.147 2.721 3.532v6.506c0 4.677-2.965 7.156-8.302 7.156m-19.95-12.733c-2.024 0-3.594 1.55-3.594 3.997 0 2.509 1.535 4.089 3.593 4.089s3.627-1.611 3.627-4.09c0-2.447-1.604-3.996-3.627-3.996m7.57 15.645c-1.605 2.385-4.466 3.655-8.372 3.655-5.023 0-8.058-1.641-8.058-3.562 0-1.24 1.012-2.138 2.372-2.138 1.36 0 3 1.301 5.895 1.301 2.686 0 4.29-1.456 4.29-4.12 0-.186-.035-.372-.035-.589-1.185 1.518-2.825 2.293-4.987 2.293-4.326 0-7.953-3.532-7.953-8.488 0-4.957 3.872-8.644 8.546-8.644 1.883 0 3.279.558 4.394 1.735.629-1.022 1.605-1.549 2.442-1.549 1.884 0 2.756 1.147 2.756 3.532v9.82c0 2.943-.21 5.174-1.29 6.754m-21.802-3.19c-1.883 0-2.72-1.178-2.72-3.564v-5.514c0-2.478-.732-3.717-2.511-3.717-1.989 0-2.756 1.239-2.756 3.655v5.576c0 2.386-.872 3.563-2.755 3.563-1.884 0-2.756-1.177-2.756-3.563v-5.514c0-2.478-.697-3.717-2.476-3.717-1.988 0-2.756 1.239-2.756 3.655v5.576c0 2.386-.872 3.563-2.755 3.563-1.884 0-2.756-1.177-2.756-3.563v-9.82c0-2.385.872-3.532 2.756-3.532 1.08 0 1.953.496 2.615 1.55 1.152-1.116 2.547-1.612 4.396-1.612 2.371 0 4.185.775 5.476 2.293 1.674-1.642 3.279-2.293 5.546-2.293 3.801 0 6.208 2.2 6.208 6.413v7.001c0 2.386-.872 3.563-2.756 3.563M3.327 8.777c1.848 0 2.72 1.147 2.72 3.532v9.82c0 2.386-.836 3.563-2.72 3.563-1.884 0-2.756-1.177-2.756-3.563v-9.82c0-2.385.872-3.532 2.756-3.532m0-1.872c-1.78 0-3.175-1.239-3.175-2.819 0-1.549 1.43-2.819 3.175-2.819 1.744 0 3.139 1.27 3.139 2.82 0 1.58-1.395 2.818-3.14 2.818" fill="#F2F2F2" mask="url(#b)"/></g><path d="M3.327 6.52C1.547 6.52.152 5.283.152 3.703c0-1.55 1.43-2.82 3.175-2.82 1.744 0 3.139 1.27 3.139 2.82 0 1.58-1.395 2.819-3.14 2.819" fill="#1bb76e"/></g></svg>