<svg xmlns="http://www.w3.org/2000/svg" xmlns:xlink="http://www.w3.org/1999/xlink" x="0px" y="0px" width="166.2px" height="40.1px" viewBox="0 0 166.2 40.1" xml:space="preserve"><linearGradient id="SVGID_1_" gradientUnits="userSpaceOnUse" x1="1.7021" y1="30.9785" x2="1.7021" y2="0"><stop offset="0" style="stop-color:#4472B8"/><stop offset="1" style="stop-color:#4E87C6"/></linearGradient><path fill="url(#SVGID_1_)" d="M0,4.3V0h3.4v4.3H0z M0,31V8.5h3.4V31H0z"/><linearGradient id="SVGID_2_" gradientUnits="userSpaceOnUse" x1="19.3354" y1="30.9785" x2="19.3354" y2="8.0278"><stop offset="0" style="stop-color:#4472B8"/><stop offset="1" style="stop-color:#4E87C6"/></linearGradient><path fill="url(#SVGID_2_)" d="M11.1,31V8.5h3.1v3.2C15.7,9.3,17.8,8,20.7,8c4.6,0,6.9,2.7,6.9,8.2V31h-3.4V17.3c0-4-1.4-6-4.2-6 c-3.6,0-5.4,2.5-5.4,7.4V31H11.1z"/><linearGradient id="SVGID_3_" gradientUnits="userSpaceOnUse" x1="42.3081" y1="31.4966" x2="42.3081" y2="8.0278"><stop offset="0" style="stop-color:#4472B8"/><stop offset="1" style="stop-color:#4E87C6"/></linearGradient><path fill="url(#SVGID_3_)" d="M33.9,24.3l3.4-0.6c0.4,3.1,2.2,4.7,5.2,4.7c3.1,0,4.6-1.2,4.6-3.6c0-0.9-0.3-1.5-0.8-1.9 c-0.5-0.4-1.8-0.9-3.7-1.4c-1.2-0.3-2.4-0.7-3.3-1c-1-0.3-1.8-0.8-2.6-1.3c-0.7-0.6-1.3-1.3-1.7-2c-0.4-0.8-0.6-1.6-0.6-2.6 c0-1.1,0.2-2.2,0.7-3.1c0.5-0.9,1.3-1.7,2.4-2.4c1.1-0.7,2.5-1,4.3-1c1.6,0,3,0.2,4.1,0.7s2,1.1,2.6,2c0.6,0.9,1,2.1,1.3,3.6 l-3.3,0.5c-0.3-2.4-1.8-3.7-4.4-3.7c-2.9,0-4.4,1-4.4,2.9c0,0.5,0.1,1,0.4,1.4c0.3,0.4,0.6,0.7,1,0.8s1.5,0.5,3.3,1.1 c0.5,0.1,1.5,0.4,3.2,0.9c1.6,0.5,2.9,1.3,3.7,2.3s1.3,2.3,1.3,3.8c0,2.2-0.8,3.9-2.3,5.2c-1.6,1.3-3.5,1.9-5.8,1.9 C37.6,31.5,34.7,29.1,33.9,24.3z"/><linearGradient id="SVGID_4_" gradientUnits="userSpaceOnUse" x1="65.3687" y1="31.4966" x2="65.3687" y2="8.0278"><stop offset="0" style="stop-color:#4472B8"/><stop offset="1" style="stop-color:#4E87C6"/></linearGradient><path fill="url(#SVGID_4_)" d="M70.4,28.2c-2.3,2.2-4.8,3.3-7.4,3.3c-2.1,0-3.8-0.6-5-1.7c-1.3-1.2-1.9-2.7-1.9-4.7 c0-1.1,0.2-2.2,0.7-3.1c0.4-0.9,1.2-1.7,2.2-2.4c1-0.7,2.7-1.2,5.1-1.5c2.8-0.4,4.8-0.8,6.1-1.3v-1c0-3-1.6-4.6-4.9-4.6 c-1.8,0-3,0.4-3.7,1.1c-0.7,0.7-1.2,1.8-1.6,3.2L56.7,15c0.9-4.6,3.9-6.9,9.1-6.9c1.5,0,2.7,0.2,3.7,0.5c1,0.3,1.9,0.9,2.5,1.6 c0.6,0.7,1.1,1.5,1.3,2.3c0.2,0.9,0.3,2.2,0.3,4.1v9.9c0,0.5,0.1,1.2,0.2,2.1c0.2,0.9,0.4,1.7,0.8,2.5h-3.6 C70.7,30.2,70.5,29.3,70.4,28.2z M70.1,19.7c-1.2,0.5-3.1,1-5.6,1.4c-2,0.3-3.3,0.8-3.9,1.5S59.7,24,59.7,25c0,2.4,1.3,3.6,4,3.6 c1,0,1.8-0.1,2.6-0.4c0.8-0.3,1.4-0.7,2-1.2c0.6-0.6,1-1.3,1.3-2.1c0.3-0.8,0.5-2.1,0.5-3.7V19.7z"/><linearGradient id="SVGID_5_" gradientUnits="userSpaceOnUse" x1="89.5786" y1="30.9785" x2="89.5786" y2="8.0278"><stop offset="0" style="stop-color:#4472B8"/><stop offset="1" style="stop-color:#4E87C6"/></linearGradient><path fill="url(#SVGID_5_)" d="M81.4,31V8.5h3.1v3.2C85.9,9.3,88.1,8,90.9,8c4.6,0,6.9,2.7,6.9,8.2V31h-3.4V17.3c0-4-1.4-6-4.2-6 c-3.6,0-5.4,2.5-5.4,7.4V31H81.4z"/><linearGradient id="SVGID_6_" gradientUnits="userSpaceOnUse" x1="113.6865" y1="31.4966" x2="113.6865" y2="8.0278"><stop offset="0" style="stop-color:#4472B8"/><stop offset="1" style="stop-color:#4E87C6"/></linearGradient><path fill="url(#SVGID_6_)" d="M119.4,23.8l3.5,0.5c-1.2,4.8-4.1,7.3-8.9,7.3c-2,0-3.7-0.5-5.2-1.4s-2.5-2.2-3.3-3.9 c-0.8-1.7-1.1-3.8-1.1-6.2c0-3.6,0.8-6.5,2.5-8.7c1.7-2.1,4-3.2,6.9-3.2c0.6,0,1.3,0.1,1.8,0.2c0.6,0.1,1.1,0.3,1.6,0.5 c0.5,0.2,1,0.5,1.5,0.8c0.5,0.3,0.9,0.7,1.3,1.1c0.4,0.5,0.8,1,1.1,1.5c0.3,0.6,0.6,1.2,0.9,1.8c0.2,0.6,0.4,1.3,0.6,2 c0.2,0.7,0.3,1.5,0.3,2.3c0,0.2,0,1.1,0,2.6h-15c0.1,2.4,0.7,4.2,1.8,5.6c1.1,1.4,2.5,2.1,4.3,2.1C116.6,28.4,118.4,26.8,119.4,23.8 z M108.1,17.6h11.3c-0.2-2.2-0.7-3.8-1.8-4.8c-1-1.1-2.3-1.6-3.8-1.6c-1.1,0-2,0.3-2.9,0.8c-0.8,0.5-1.5,1.3-2,2.2 C108.5,15.1,108.2,16.3,108.1,17.6z"/><linearGradient id="SVGID_7_" gradientUnits="userSpaceOnUse" x1="131.333" y1="30.9785" x2="131.333" y2="0"><stop offset="0" style="stop-color:#4472B8"/><stop offset="1" style="stop-color:#4E87C6"/></linearGradient><path fill="url(#SVGID_7_)" d="M129.6,31V0h3.4v31H129.6z"/><linearGradient id="SVGID_8_" gradientUnits="userSpaceOnUse" x1="148.168" y1="40.0742" x2="148.168" y2="8.5464"><stop offset="0" style="stop-color:#4472B8"/><stop offset="1" style="stop-color:#4E87C6"/></linearGradient><path fill="url(#SVGID_8_)" d="M140.7,39.6l-0.4-3.6c0.7,0.2,1.4,0.4,2,0.4c0.8,0,1.5-0.2,2-0.5c0.5-0.3,0.9-0.8,1.1-1.3 c0.2-0.5,0.6-1.6,1.1-3.3l0.1-0.2l-7.6-22.5h3.7l4.2,13c0.6,1.9,1.1,3.7,1.5,5.2c0.4-1.7,0.8-3.4,1.4-5.1L154,8.5h3.4l-7.7,22.8 c-0.7,2.2-1.4,3.8-1.9,5c-0.5,1.1-1.2,2-2,2.7c-0.8,0.7-1.8,1-2.9,1C142.2,40.1,141.5,39.9,140.7,39.6z"/><linearGradient id="SVGID_9_" gradientUnits="userSpaceOnUse" x1="164.4766" y1="30.9785" x2="164.4766" y2="0"><stop offset="0" style="stop-color:#4472B8"/><stop offset="1" style="stop-color:#4E87C6"/></linearGradient><path fill="url(#SVGID_9_)" d="M162.8,4.3V0h3.4v4.3H162.8z M162.8,31V8.5h3.4V31H162.8z"/></svg>