<svg xmlns="http://www.w3.org/2000/svg" width="166.2" height="40.1"><linearGradient id="a" gradientUnits="userSpaceOnUse" x1="1.702" y1="30.979" x2="1.702"><stop offset="0" stop-color="#4472b8"/><stop offset="1" stop-color="#4e87c6"/></linearGradient><path fill="url(#a)" d="M0 4.3V0h3.4v4.3H0zM0 31V8.5h3.4V31H0z"/><linearGradient id="b" gradientUnits="userSpaceOnUse" x1="19.335" y1="30.979" x2="19.335" y2="8.028"><stop offset="0" stop-color="#4472b8"/><stop offset="1" stop-color="#4e87c6"/></linearGradient><path fill="url(#b)" d="M11.1 31V8.5h3.1v3.2C15.7 9.3 17.8 8 20.7 8c4.6 0 6.9 2.7 6.9 8.2V31h-3.4V17.3c0-4-1.4-6-4.2-6-3.6 0-5.4 2.5-5.4 7.4V31h-3.5z"/><linearGradient id="c" gradientUnits="userSpaceOnUse" x1="42.308" y1="31.497" x2="42.308" y2="8.028"><stop offset="0" stop-color="#4472b8"/><stop offset="1" stop-color="#4e87c6"/></linearGradient><path fill="url(#c)" d="M33.9 24.3l3.4-.6c.4 3.1 2.2 4.7 5.2 4.7 3.1 0 4.6-1.2 4.6-3.6 0-.9-.3-1.5-.8-1.9-.5-.4-1.8-.9-3.7-1.4-1.2-.3-2.4-.7-3.3-1-1-.3-1.8-.8-2.6-1.3-.7-.6-1.3-1.3-1.7-2-.4-.8-.6-1.6-.6-2.6 0-1.1.2-2.2.7-3.1.5-.9 1.3-1.7 2.4-2.4 1.1-.7 2.5-1 4.3-1 1.6 0 3 .2 4.1.7s2 1.1 2.6 2c.6.9 1 2.1 1.3 3.6l-3.3.5c-.3-2.4-1.8-3.7-4.4-3.7-2.9 0-4.4 1-4.4 2.9 0 .5.1 1 .4 1.4.3.4.6.7 1 .8s1.5.5 3.3 1.1c.5.1 1.5.4 3.2.9 1.6.5 2.9 1.3 3.7 2.3s1.3 2.3 1.3 3.8c0 2.2-.8 3.9-2.3 5.2-1.6 1.3-3.5 1.9-5.8 1.9-4.9 0-7.8-2.4-8.6-7.2z"/><linearGradient id="d" gradientUnits="userSpaceOnUse" x1="65.369" y1="31.497" x2="65.369" y2="8.028"><stop offset="0" stop-color="#4472b8"/><stop offset="1" stop-color="#4e87c6"/></linearGradient><path fill="url(#d)" d="M70.4 28.2c-2.3 2.2-4.8 3.3-7.4 3.3-2.1 0-3.8-.6-5-1.7-1.3-1.2-1.9-2.7-1.9-4.7 0-1.1.2-2.2.7-3.1.4-.9 1.2-1.7 2.2-2.4 1-.7 2.7-1.2 5.1-1.5 2.8-.4 4.8-.8 6.1-1.3v-1c0-3-1.6-4.6-4.9-4.6-1.8 0-3 .4-3.7 1.1-.7.7-1.2 1.8-1.6 3.2l-3.3-.5c.9-4.6 3.9-6.9 9.1-6.9 1.5 0 2.7.2 3.7.5s1.9.9 2.5 1.6c.6.7 1.1 1.5 1.3 2.3.2.9.3 2.2.3 4.1v9.9c0 .5.1 1.2.2 2.1.2.9.4 1.7.8 2.5H71c-.3-.9-.5-1.8-.6-2.9zm-.3-8.5c-1.2.5-3.1 1-5.6 1.4-2 .3-3.3.8-3.9 1.5s-.9 1.4-.9 2.4c0 2.4 1.3 3.6 4 3.6 1 0 1.8-.1 2.6-.4.8-.3 1.4-.7 2-1.2.6-.6 1-1.3 1.3-2.1.3-.8.5-2.1.5-3.7v-1.5z"/><linearGradient id="e" gradientUnits="userSpaceOnUse" x1="89.579" y1="30.979" x2="89.579" y2="8.028"><stop offset="0" stop-color="#4472b8"/><stop offset="1" stop-color="#4e87c6"/></linearGradient><path fill="url(#e)" d="M81.4 31V8.5h3.1v3.2C85.9 9.3 88.1 8 90.9 8c4.6 0 6.9 2.7 6.9 8.2V31h-3.4V17.3c0-4-1.4-6-4.2-6-3.6 0-5.4 2.5-5.4 7.4V31h-3.4z"/><linearGradient id="f" gradientUnits="userSpaceOnUse" x1="113.686" y1="31.497" x2="113.686" y2="8.028"><stop offset="0" stop-color="#4472b8"/><stop offset="1" stop-color="#4e87c6"/></linearGradient><path fill="url(#f)" d="M119.4 23.8l3.5.5c-1.2 4.8-4.1 7.3-8.9 7.3-2 0-3.7-.5-5.2-1.4s-2.5-2.2-3.3-3.9c-.8-1.7-1.1-3.8-1.1-6.2 0-3.6.8-6.5 2.5-8.7 1.7-2.1 4-3.2 6.9-3.2.6 0 1.3.1 1.8.2.6.1 1.1.3 1.6.5s1 .5 1.5.8c.5.3.9.7 1.3 1.1.4.5.8 1 1.1 1.5l.9 1.8c.2.6.4 1.3.6 2 .2.7.3 1.5.3 2.3V21h-15c.1 2.4.7 4.2 1.8 5.6 1.1 1.4 2.5 2.1 4.3 2.1 2.6-.3 4.4-1.9 5.4-4.9zm-11.3-6.2h11.3c-.2-2.2-.7-3.8-1.8-4.8-1-1.1-2.3-1.6-3.8-1.6-1.1 0-2 .3-2.9.8-.8.5-1.5 1.3-2 2.2-.4.9-.7 2.1-.8 3.4z"/><linearGradient id="g" gradientUnits="userSpaceOnUse" x1="131.333" y1="30.979" x2="131.333"><stop offset="0" stop-color="#4472b8"/><stop offset="1" stop-color="#4e87c6"/></linearGradient><path fill="url(#g)" d="M129.6 31V0h3.4v31h-3.4z"/><linearGradient id="h" gradientUnits="userSpaceOnUse" x1="148.168" y1="40.074" x2="148.168" y2="8.546"><stop offset="0" stop-color="#4472b8"/><stop offset="1" stop-color="#4e87c6"/></linearGradient><path fill="url(#h)" d="M140.7 39.6l-.4-3.6c.7.2 1.4.4 2 .4.8 0 1.5-.2 2-.5s.9-.8 1.1-1.3c.2-.5.6-1.6 1.1-3.3l.1-.2L139 8.6h3.7l4.2 13c.6 1.9 1.1 3.7 1.5 5.2.4-1.7.8-3.4 1.4-5.1L154 8.5h3.4l-7.7 22.8c-.7 2.2-1.4 3.8-1.9 5-.5 1.1-1.2 2-2 2.7-.8.7-1.8 1-2.9 1-.7.1-1.4-.1-2.2-.4z"/><linearGradient id="i" gradientUnits="userSpaceOnUse" x1="164.477" y1="30.979" x2="164.477"><stop offset="0" stop-color="#4472b8"/><stop offset="1" stop-color="#4e87c6"/></linearGradient><path fill="url(#i)" d="M162.8 4.3V0h3.4v4.3h-3.4zm0 26.7V8.5h3.4V31h-3.4z"/></svg>