<svg version="1.2" baseProfile="tiny" xmlns="http://www.w3.org/2000/svg" viewBox="0 0 478 149.9" overflow="scroll"><path fill="#FFF" d="M27.5.7h11.4v65.6c0 26.1-11.5 34.1-26.7 34.1-4.2 0-9.3-1-12.2-2.3l1.7-10.3c2.4 1 5.8 1.9 9.6 1.9 10.2 0 16.3-5.1 16.3-24.3V.7zM110.7 79.6c0 7.3.1 13.7.5 19.2H101l-.7-11.5h-.3c-3 5.7-9.7 13.1-21 13.1-10 0-21.9-6.1-21.9-30.9V28.4h11.5v39c0 13.4 3.7 22.4 14.2 22.4 7.7 0 13.1-6 15.2-11.6.7-1.9 1-4.2 1-6.5V28.4h11.5v51.2zM128.2 85.7c3.4 2.5 9.4 5.1 15.2 5.1 8.4 0 12.3-4.7 12.3-10.5 0-6.1-3.3-9.5-11.8-13-11.4-4.5-16.8-11.5-16.8-19.9 0-11.4 8.3-20.7 21.9-20.7 6.4 0 12.1 2 15.6 4.4l-2.9 9.3c-2.5-1.7-7.1-4.1-13-4.1-6.8 0-10.6 4.4-10.6 9.6 0 5.8 3.8 8.4 12.1 11.9 11 4.7 16.7 10.8 16.7 21.3 0 12.4-8.7 21.1-23.7 21.1-6.9 0-13.4-1.9-17.8-4.8l2.8-9.7zM195.6 8.2v20.2h16.5v9.8h-16.5v38c0 8.7 2.2 13.7 8.7 13.7 3 0 5.2-.4 6.7-.9l.5 9.6c-2.2 1-5.8 1.7-10.2 1.7-5.4 0-9.7-1.9-12.5-5.4-3.3-3.8-4.5-10-4.5-18.3V38.1h-9.8v-9.8h9.8V11.5l11.3-3.3zM225.5 2c6.9-1.2 15.2-2 24.3-2 16.4 0 28.1 4.2 35.8 12.2 7.9 8 12.5 19.4 12.5 35.2 0 16-4.5 29.1-12.7 38.1-8.3 9.2-21.9 14.1-39.1 14.1-8.1 0-14.9-.4-20.7-1.2V2zm11.4 86.8c2.9.6 7.1.7 11.5.7 24.4 0 37.6-15.1 37.6-41.6.1-23.1-11.7-37.8-35.8-37.8-5.9 0-10.4.6-13.4 1.3v77.4zM347.6 98.8l-.9-8.9h-.4c-3.5 5.5-10.4 10.5-19.4 10.5-12.8 0-19.4-10-19.4-20.2 0-17 13.6-26.3 38.2-26.2v-1.5c0-5.8-1.4-16.3-14.4-16.3-5.9 0-12.1 2-16.5 5.2l-2.6-8.4c5.2-3.8 12.8-6.3 20.8-6.3 19.4 0 24.1 14.7 24.1 28.8v26.3c0 6.1.3 12.1 1 16.9h-10.5zm-1.7-35.9c-12.6-.3-26.9 2.2-26.9 15.9 0 8.3 5 12.2 10.9 12.2 8.3 0 13.5-5.8 15.3-11.8.4-1.3.7-2.8.7-4.1V62.9zM389 8.2v20.2h16.5v9.8H389v38c0 8.7 2.2 13.7 8.7 13.7 3 0 5.2-.4 6.7-.9l.5 9.6c-2.2 1-5.8 1.7-10.2 1.7-5.4 0-9.7-1.9-12.5-5.4-3.3-3.8-4.5-10-4.5-18.3V38.1h-9.8v-9.8h9.8V11.5L389 8.2z"/><path fill="#FFF" d="M423.3 72.6c8.4 14.5 21.6 15 32.9 8.6 8.1-4.5 12.3-8.6 15.5-12.7l6.3 6.6c-3 4-8.8 9.7-18.7 15.3-19.2 10.8-37.4 5.2-47.4-12.7s-6.9-38.2 11.3-48.4c20.4-11.4 35.3 2.6 41.4 13.5 1.2 2.2 1.9 4.1 2.4 5.2l-43.7 24.6zm28.9-26.3c-3.7-6.9-12.8-15.9-25.5-8.7-11.5 6.4-10.9 19.3-7.6 27.3l33.1-18.6z"/><g fill="#FFF"><path d="M341 145.2c0-2.8 1.7-4.7 4-4.7 2.4 0 4 1.9 4 4.7 0 2.7-1.5 4.7-4 4.7-2.4 0-4-2-4-4.7zM379.6 147.7c-1.5.9-5 2.1-9.4 2.1-9.8 0-16.2-7.4-16.2-18.5s6.9-19.2 17.5-19.2c3.5 0 6.6 1 8.2 1.9l-1.3 5.1c-1.4-.9-3.6-1.7-6.9-1.7-7.5 0-11.5 6.1-11.5 13.7 0 8.4 4.9 13.5 11.3 13.5 3.4 0 5.6-1 7.3-1.8l1 4.9zM415.7 130.7c0 13.4-8.4 19.2-16.2 19.2-8.8 0-15.6-7.2-15.6-18.6 0-12.1 7.1-19.2 16.2-19.2 9.2 0 15.6 7.5 15.6 18.6zm-25.9.4c0 7.9 4.1 13.9 9.9 13.9 5.7 0 9.9-5.9 9.9-14.1 0-6.1-2.8-13.9-9.8-13.9-7 0-10 7.2-10 14.1zM423.1 122.7c0-3.7-.1-6.8-.3-9.8h5.2l.3 5.8h.2c1.8-3.4 4.9-6.7 10.2-6.7 4.4 0 7.8 3 9.2 7.3h.1c1-2 2.3-3.6 3.6-4.7 2-1.6 4.1-2.5 7.2-2.5 4.3 0 10.7 3.1 10.7 15.7v21.3h-5.8v-20.5c0-7-2.3-11.1-7.1-11.1-3.4 0-6 2.8-7 6-.3.9-.5 2.1-.5 3.3v22.4h-5.8v-21.7c0-5.8-2.3-9.9-6.8-9.9-3.7 0-6.4 3.3-7.3 6.6-.3 1-.5 2.1-.5 3.2v21.8h-5.8v-26.5z"/></g></svg>