<?xml version="1.0" encoding="utf-8"?>
<!-- Generator: Adobe Illustrator 21.0.2, SVG Export Plug-In . SVG Version: 6.00 Build 0)  -->
<svg version="1.2" baseProfile="tiny" id="Layer_1" xmlns="http://www.w3.org/2000/svg" xmlns:xlink="http://www.w3.org/1999/xlink"
	 x="0px" y="0px" viewBox="0 0 478 149.9" overflow="scroll" xml:space="preserve">
<path fill="#FFFFFF" d="M27.5,0.7h11.4v65.6c0,26.1-11.5,34.1-26.7,34.1c-4.2,0-9.3-1-12.2-2.3l1.7-10.3c2.4,1,5.8,1.9,9.6,1.9
	c10.2,0,16.3-5.1,16.3-24.3V0.7z"/>
<path fill="#FFFFFF" d="M110.7,79.6c0,7.3,0.1,13.7,0.5,19.2H101l-0.7-11.5H100c-3,5.7-9.7,13.1-21,13.1c-10,0-21.9-6.1-21.9-30.9
	V28.4h11.5v39c0,13.4,3.7,22.4,14.2,22.4c7.7,0,13.1-6,15.2-11.6c0.7-1.9,1-4.2,1-6.5V28.4h11.5V79.6z"/>
<path fill="#FFFFFF" d="M128.2,85.7c3.4,2.5,9.4,5.1,15.2,5.1c8.4,0,12.3-4.7,12.3-10.5c0-6.1-3.3-9.5-11.8-13
	c-11.4-4.5-16.8-11.5-16.8-19.9c0-11.4,8.3-20.7,21.9-20.7c6.4,0,12.1,2,15.6,4.4l-2.9,9.3c-2.5-1.7-7.1-4.1-13-4.1
	c-6.8,0-10.6,4.4-10.6,9.6c0,5.8,3.8,8.4,12.1,11.9c11,4.7,16.7,10.8,16.7,21.3c0,12.4-8.7,21.1-23.7,21.1c-6.9,0-13.4-1.9-17.8-4.8
	L128.2,85.7z"/>
<path fill="#FFFFFF" d="M195.6,8.2v20.2h16.5v9.8h-16.5v38c0,8.7,2.2,13.7,8.7,13.7c3,0,5.2-0.4,6.7-0.9l0.5,9.6
	c-2.2,1-5.8,1.7-10.2,1.7c-5.4,0-9.7-1.9-12.5-5.4c-3.3-3.8-4.5-10-4.5-18.3V38.1h-9.8v-9.8h9.8V11.5L195.6,8.2z"/>
<path fill="#FFFFFF" d="M225.5,2c6.9-1.2,15.2-2,24.3-2c16.4,0,28.1,4.2,35.8,12.2c7.9,8,12.5,19.4,12.5,35.2
	c0,16-4.5,29.1-12.7,38.1c-8.3,9.2-21.9,14.1-39.1,14.1c-8.1,0-14.9-0.4-20.7-1.2V2z M236.9,88.8c2.9,0.6,7.1,0.7,11.5,0.7
	c24.4,0,37.6-15.1,37.6-41.6c0.1-23.1-11.7-37.8-35.8-37.8c-5.9,0-10.4,0.6-13.4,1.3V88.8z"/>
<path fill="#FFFFFF" d="M347.6,98.8l-0.9-8.9h-0.4c-3.5,5.5-10.4,10.5-19.4,10.5c-12.8,0-19.4-10-19.4-20.2
	c0-17,13.6-26.3,38.2-26.2v-1.5c0-5.8-1.4-16.3-14.4-16.3c-5.9,0-12.1,2-16.5,5.2l-2.6-8.4c5.2-3.8,12.8-6.3,20.8-6.3
	c19.4,0,24.1,14.7,24.1,28.8v26.3c0,6.1,0.3,12.1,1,16.9H347.6z M345.9,62.9c-12.6-0.3-26.9,2.2-26.9,15.9c0,8.3,5,12.2,10.9,12.2
	c8.3,0,13.5-5.8,15.3-11.8c0.4-1.3,0.7-2.8,0.7-4.1V62.9z"/>
<path fill="#FFFFFF" d="M389,8.2v20.2h16.5v9.8H389v38c0,8.7,2.2,13.7,8.7,13.7c3,0,5.2-0.4,6.7-0.9l0.5,9.6
	c-2.2,1-5.8,1.7-10.2,1.7c-5.4,0-9.7-1.9-12.5-5.4c-3.3-3.8-4.5-10-4.5-18.3V38.1h-9.8v-9.8h9.8V11.5L389,8.2z"/>
<path fill="#FFFFFF" d="M423.3,72.6c8.4,14.5,21.6,15,32.9,8.6c8.1-4.5,12.3-8.6,15.5-12.7l6.3,6.6c-3,4-8.8,9.7-18.7,15.3
	c-19.2,10.8-37.4,5.2-47.4-12.7s-6.9-38.2,11.3-48.4c20.4-11.4,35.3,2.6,41.4,13.5c1.2,2.2,1.9,4.1,2.4,5.2L423.3,72.6z M452.2,46.3
	c-3.7-6.9-12.8-15.9-25.5-8.7c-11.5,6.4-10.9,19.3-7.6,27.3L452.2,46.3z"/>
<g>
	<path fill="#FFFFFF" d="M341,145.2c0-2.8,1.7-4.7,4-4.7c2.4,0,4,1.9,4,4.7c0,2.7-1.5,4.7-4,4.7C342.6,149.9,341,147.9,341,145.2z"
		/>
	<path fill="#FFFFFF" d="M379.6,147.7c-1.5,0.9-5,2.1-9.4,2.1c-9.8,0-16.2-7.4-16.2-18.5c0-11.1,6.9-19.2,17.5-19.2
		c3.5,0,6.6,1,8.2,1.9l-1.3,5.1c-1.4-0.9-3.6-1.7-6.9-1.7c-7.5,0-11.5,6.1-11.5,13.7c0,8.4,4.9,13.5,11.3,13.5c3.4,0,5.6-1,7.3-1.8
		L379.6,147.7z"/>
	<path fill="#FFFFFF" d="M415.7,130.7c0,13.4-8.4,19.2-16.2,19.2c-8.8,0-15.6-7.2-15.6-18.6c0-12.1,7.1-19.2,16.2-19.2
		C409.3,112.1,415.7,119.6,415.7,130.7z M389.8,131.1c0,7.9,4.1,13.9,9.9,13.9c5.7,0,9.9-5.9,9.9-14.1c0-6.1-2.8-13.9-9.8-13.9
		C392.8,117,389.8,124.2,389.8,131.1z"/>
	<path fill="#FFFFFF" d="M423.1,122.7c0-3.7-0.1-6.8-0.3-9.8h5.2l0.3,5.8h0.2c1.8-3.4,4.9-6.7,10.2-6.7c4.4,0,7.8,3,9.2,7.3h0.1
		c1-2,2.3-3.6,3.6-4.7c2-1.6,4.1-2.5,7.2-2.5c4.3,0,10.7,3.1,10.7,15.7v21.3h-5.8v-20.5c0-7-2.3-11.1-7.1-11.1c-3.4,0-6,2.8-7,6
		c-0.3,0.9-0.5,2.1-0.5,3.3v22.4h-5.8v-21.7c0-5.8-2.3-9.9-6.8-9.9c-3.7,0-6.4,3.3-7.3,6.6c-0.3,1-0.5,2.1-0.5,3.2v21.8h-5.8V122.7z
		"/>
</g>
</svg>
