<?xml version="1.0" encoding="utf-8"?><!DOCTYPE svg PUBLIC "-//W3C//DTD SVG 1.1//EN" "http://www.w3.org/Graphics/SVG/1.1/DTD/svg11.dtd"><svg version="1.1" id="Kickstarter_logo" xmlns="http://www.w3.org/2000/svg" xmlns:xlink="http://www.w3.org/1999/xlink" x="0px" y="0px" viewBox="0 0 467.4 54.6" enable-background="new 0 0 467.4 54.6" xml:space="preserve"><path id="Grey" fill="#0F2105" d="M17.1,18.9l9.6-14C28.5,2.3,30.9,1,33.8,1c2.4,0,4.4,0.8,6.1,2.5c1.7,1.7,2.6,3.7,2.6,6c0,1.7-0.5,3.2-1.4,4.6l-8.7,12.6L43,40.2c1.1,1.3,1.6,2.9,1.6,4.7c0,2.4-0.8,4.4-2.5,6.1c-1.7,1.7-3.7,2.6-6.1,2.6c-2.6,0-4.6-0.8-6-2.5l-13-16.2v9c0,2.6-0.4,4.5-1.3,6c-1.6,2.6-4,3.9-7.1,3.9c-2.8,0-5-0.9-6.5-2.8C0.7,49,0,46.7,0,43.8V10.6c0-2.7,0.7-5,2.2-6.8C3.7,2,5.9,1,8.6,1C11.2,1,13.3,2,15,3.8c1,1,1.6,2.1,1.8,3.1c0.2,0.7,0.2,1.9,0.2,3.7V18.9z M64.9,11.6v32.1c0,2.8-0.7,5.1-2.2,6.9c-1.5,2-3.7,3-6.4,3c-2.5,0-4.6-0.9-6.3-2.8c-1.4-1.5-2.2-3.9-2.2-7.1V11.6c0-3.6,0.7-6.2,2.2-7.8C51.7,1.9,53.8,1,56.4,1c2.6,0,4.7,0.9,6.3,2.7C64.2,5.4,64.9,8,64.9,11.6z M95.7,0c6.3,0,12.1,2.1,17.4,6.3c4.1,3.3,6.2,6.8,6.2,10.4c0,3-1.3,5.4-3.8,7.1c-1.4,1-3,1.4-4.7,1.4c-1.4,0-2.7-0.3-4-1c-0.5-0.3-1.8-1.6-3.9-3.8c-1.9-2.1-4.4-3.2-7.3-3.2c-2.8,0-5.2,1-7.1,2.9c-1.9,2-2.9,4.4-2.9,7.2c0,2.8,1,5.2,2.9,7.2c1.9,2,4.3,2.9,7.1,2.9c2.3,0,4.5-0.8,6.5-2.4c1.2-1.2,2.5-2.4,3.7-3.6c1.3-1.1,3-1.7,5-1.7c2.3,0,4.3,0.8,6.1,2.4c1.7,1.6,2.6,3.6,2.6,5.9c0,3.2-1.9,6.4-5.6,9.6c-5.2,4.6-11.2,6.8-18.1,6.8c-4.2,0-8.2-0.9-12-2.7c-4.7-2.3-8.5-5.6-11.3-10c-2.8-4.4-4.2-9.2-4.2-14.5c0-7.8,2.9-14.5,8.7-20C82.1,2.5,88.3,0.1,95.7,0z M139.5,18.9l9.6-14c1.8-2.6,4.2-3.9,7.1-3.9c2.4,0,4.4,0.8,6.1,2.5c1.7,1.7,2.6,3.7,2.6,6c0,1.7-0.5,3.2-1.4,4.6l-8.7,12.6l10.6,13.5c1.1,1.3,1.6,2.9,1.6,4.7c0,2.4-0.8,4.4-2.5,6.1c-1.7,1.7-3.7,2.6-6.1,2.6c-2.6,0-4.6-0.8-6-2.5l-13-16.2v9c0,2.6-0.4,4.5-1.3,6c-1.6,2.6-4,3.9-7.1,3.9c-2.8,0-5-0.9-6.5-2.8c-1.4-1.7-2.2-4.1-2.2-6.9V10.6c0-2.7,0.7-5,2.2-6.8C126.2,2,128.3,1,131,1c2.6,0,4.7,0.9,6.5,2.8c1,1,1.6,2.1,1.8,3.1c0.2,0.7,0.2,1.9,0.2,3.7V18.9z"/><path id="Green" fill="#2BDE73" d="M177.7,33.6c1.9,0,3.9,0.8,6.1,2.5c2.7,2.1,4.5,3.1,5.5,3.1c1.5,0,2.2-0.8,2.2-2.3c0-0.8-0.4-1.5-1.3-2.1c-0.5-0.3-3-1.3-7.7-2.9c-7.6-2.7-11.4-7.6-11.4-14.9c0-5.5,2-9.8,6-12.9C180.7,1.4,185,0,190.2,0c4.5,0,8.4,1.1,11.7,3.2c3.3,2.1,5,4.9,5,8.3c0,2-0.6,3.7-1.9,5.1c-1.3,1.4-2.9,2-4.9,2c-2.1,0-4.4-1-7-3c-1.6-1.2-2.8-1.9-3.6-1.9c-1.4,0-2.1,0.7-2.1,2c0,1.3,1.7,2.5,5.2,3.5c4.8,1.5,8.4,3.3,11,5.5c3.5,2.9,5.2,6.9,5.2,12.1c0,5.7-1.9,10.1-5.8,13.3c-3.6,3-8.3,4.4-14.1,4.4c-5.8,0-10.6-1.5-14.4-4.6c-3-2.5-4.6-5.3-4.6-8.6c0-2.2,0.7-4,2.2-5.5C173.7,34.4,175.5,33.6,177.7,33.6z M223.4,17.3h-4.5c-2.5,0-4.6-0.7-6.2-2c-1.7-1.5-2.6-3.4-2.6-5.9c0-1.5,0.4-2.9,1.2-4.2c0.8-1.4,1.9-2.3,3.2-2.9c1.3-0.6,4.4-0.9,9.3-0.9H241c4.2,0,7,0.3,8.2,0.8c1.4,0.6,2.5,1.5,3.3,2.9c0.8,1.4,1.3,2.8,1.3,4.3c0,2.4-0.9,4.4-2.8,6.1c-1.3,1.2-3.5,1.9-6.6,1.9h-3.9v25.8c0,2.8-0.5,5-1.4,6.5c-1.6,2.6-4,3.9-7,3.9c-3.1,0-5.4-1.2-7.1-3.5c-1-1.5-1.6-3.7-1.6-6.7V17.3z M264.9,46.5c-0.8,1.9-1.6,3.4-2.5,4.3c-1.7,1.9-3.8,2.8-6.3,2.8c-3,0-5.4-1.2-7-3.6c-1-1.4-1.5-3.1-1.5-4.9c0-1.5,0.4-3,1.1-4.5l16.2-34.5c1.6-3.4,4.2-5,7.9-5c3.7,0,6.4,1.7,8,5.2L297.2,41c0.7,1.4,1,2.8,1,4.1c0,2-0.7,3.8-2,5.4c-1.7,2.1-3.9,3.1-6.6,3.1c-2.2,0-4-0.7-5.5-2c-1.1-1-2.2-2.7-3.3-5H264.9z M335.9,33.2l4,6.5c1.1,1.8,1.7,3.6,1.7,5.5c0,2.4-0.8,4.4-2.5,6c-1.7,1.6-3.7,2.4-6.1,2.4c-3.1,0-5.4-1.3-7-3.9l-7.1-11.7v7c0,2.4-0.8,4.4-2.4,6.1c-1.6,1.7-3.6,2.5-6,2.5c-2.9,0-5.2-1-6.7-3.2c-1.4-1.8-2-4.3-2-7.3V11.2c0-6.6,3.5-9.8,10.6-9.8h10.9c3.6,0,6.9,1,9.9,3.1c3.1,2.1,5.3,4.7,6.7,8c1.1,2.5,1.6,5,1.6,7.5C341.5,24.7,339.6,29.1,335.9,33.2z M356.2,17.3h-4.5c-2.5,0-4.6-0.7-6.2-2c-1.7-1.5-2.6-3.4-2.6-5.9c0-1.5,0.4-2.9,1.2-4.2c0.8-1.4,1.9-2.3,3.2-2.9c1.3-0.6,4.4-0.9,9.3-0.9h17.2c4.2,0,7,0.3,8.2,0.8c1.4,0.6,2.5,1.5,3.3,2.9c0.8,1.4,1.3,2.8,1.3,4.3c0,2.4-0.9,4.4-2.8,6.1c-1.3,1.2-3.5,1.9-6.6,1.9h-3.9v25.8c0,2.8-0.5,5-1.4,6.5c-1.6,2.6-4,3.9-7,3.9c-3.1,0-5.4-1.2-7.1-3.5c-1-1.5-1.6-3.7-1.6-6.7V17.3z M406.8,37.2h7.8c3.2,0,5.6,0.7,7.2,2c1.8,1.6,2.8,3.6,2.8,6.1c0,2.5-0.9,4.6-2.8,6.1c-1.4,1.2-3.8,1.8-7.1,1.8h-13.3c-3.1,0-5.3-0.2-6.5-0.7c-2.3-0.9-3.8-2.5-4.5-4.6c-0.5-1.4-0.7-3.6-0.7-6.7V13c0-2.4,0.1-3.9,0.2-4.7c0.3-1.6,0.9-3,2-4.2c1.2-1.3,2.8-2.1,4.6-2.5c0.9-0.2,2.7-0.2,5.4-0.2h10.2c2.8,0,4.4,0,4.9,0.1c1.8,0.2,3.3,0.7,4.5,1.6c2.1,1.6,3.1,3.6,3.1,6.1c0,2.7-0.9,4.8-2.7,6.3c-1.6,1.3-3.8,1.9-6.6,1.9h-8.4v3.5h6.7c2,0,3.6,0.5,4.9,1.6c1.4,1.1,2,2.6,2,4.6c0,4.1-2.5,6.2-7.5,6.2h-6.1V37.2z M461.7,33.2l4,6.5c1.1,1.8,1.7,3.6,1.7,5.5c0,2.4-0.8,4.4-2.5,6c-1.7,1.6-3.7,2.4-6.1,2.4c-3.1,0-5.4-1.3-7-3.9l-7.1-11.7v7c0,2.4-0.8,4.4-2.4,6.1c-1.6,1.7-3.6,2.5-6,2.5c-2.9,0-5.2-1-6.7-3.2c-1.4-1.8-2-4.3-2-7.3V11.2c0-6.6,3.5-9.8,10.6-9.8h10.9c3.6,0,6.9,1,9.9,3.1c3.1,2.1,5.3,4.7,6.7,8c1.1,2.5,1.6,5,1.6,7.5C467.3,24.7,465.4,29.1,461.7,33.2z"/></svg>