<svg version="1.2" baseProfile="tiny" xmlns="http://www.w3.org/2000/svg" viewBox="0 0 391.1 83.1"><path fill="#FFF" d="M0 0h25.2v30.9L51.7 0h33.6L55.4 30.8l31.1 50.8h-31L38.3 48.1l-13 13.7v19.9H0V0zM91 0h33.2L137 49.7 149.7 0h33.2v81.7h-20.7V19.4l-15.9 62.3h-18.7l-15.9-62.3v62.3H91V0z"/><path fill="#FEE6AA" d="M193.9 58.9h24.2v22.7h-24.2V58.9zM230 81.7V0h42.1c7.8 0 13.8.7 17.9 2 4.1 1.3 7.4 3.8 10 7.4 2.5 3.6 3.8 8 3.8 13.2 0 4.5-1 8.4-2.9 11.7-1.9 3.3-4.6 6-8 8-2.2 1.3-5.1 2.4-8.9 3.2 3 1 5.2 2 6.6 3 .9.7 2.3 2.1 4 4.3 1.8 2.2 2.9 3.9 3.5 5.1l12.2 23.7h-28.5l-13.5-25c-1.7-3.2-3.2-5.3-4.6-6.3-1.8-1.3-3.9-1.9-6.2-1.9h-2.2v33.1H230zm25.3-48.6H266c1.2 0 3.4-.4 6.7-1.1 1.7-.3 3-1.2 4.1-2.6 1.1-1.4 1.6-3 1.6-4.7 0-2.6-.8-4.7-2.5-6.1-1.7-1.4-4.8-2.1-9.4-2.1h-11.1v16.6zM366 0h25.2v48.7c0 4.8-.8 9.4-2.3 13.7-1.5 4.3-3.9 8-7.1 11.2-3.2 3.2-6.6 5.5-10.1 6.8-4.9 1.8-10.8 2.7-17.7 2.7-4 0-8.3-.3-13-.8-4.7-.6-8.6-1.7-11.8-3.3-3.2-1.7-6-4-8.7-7-2.6-3-4.4-6.2-5.4-9.4-1.6-5.2-2.3-9.8-2.3-13.8V0H338v49.8c0 4.5 1.2 7.9 3.7 10.4S347.6 64 352 64c4.3 0 7.8-1.2 10.2-3.7 2.5-2.5 3.7-6 3.7-10.5V0z"/></svg>