<svg version="1.2" baseProfile="tiny" id="Layer_2" xmlns="http://www.w3.org/2000/svg" xmlns:xlink="http://www.w3.org/1999/xlink" x="0px" y="0px" viewBox="0 0 391.1 83.1" xml:space="preserve"><path fill="#FFFFFF" d="M0,0h25.2v30.9L51.7,0h33.6L55.4,30.8l31.1,50.8H55.5L38.3,48.1l-13,13.7v19.9H0V0z"/><path fill="#FFFFFF" d="M91,0h33.2L137,49.7L149.7,0h33.2v81.7h-20.7V19.4l-15.9,62.3h-18.7l-15.9-62.3v62.3H91V0z"/><path fill="#FEE6AA" d="M193.9,58.9h24.2v22.7h-24.2V58.9z"/><path fill="#FEE6AA" d="M230,81.7V0h42.1c7.8,0,13.8,0.7,17.9,2c4.1,1.3,7.4,3.8,10,7.4c2.5,3.6,3.8,8,3.8,13.2 c0,4.5-1,8.4-2.9,11.7c-1.9,3.3-4.6,6-8,8c-2.2,1.3-5.1,2.4-8.9,3.2c3,1,5.2,2,6.6,3c0.9,0.7,2.3,2.1,4,4.3c1.8,2.2,2.9,3.9,3.5,5.1 l12.2,23.7h-28.5l-13.5-25c-1.7-3.2-3.2-5.3-4.6-6.3c-1.8-1.3-3.9-1.9-6.2-1.9h-2.2v33.1H230z M255.3,33.1H266 c1.2,0,3.4-0.4,6.7-1.1c1.7-0.3,3-1.2,4.1-2.6c1.1-1.4,1.6-3,1.6-4.7c0-2.6-0.8-4.7-2.5-6.1c-1.7-1.4-4.8-2.1-9.4-2.1h-11.1V33.1z" /><path fill="#FEE6AA" d="M366,0h25.2v48.7c0,4.8-0.8,9.4-2.3,13.7c-1.5,4.3-3.9,8-7.1,11.2c-3.2,3.2-6.6,5.5-10.1,6.8 c-4.9,1.8-10.8,2.7-17.7,2.7c-4,0-8.3-0.3-13-0.8c-4.7-0.6-8.6-1.7-11.8-3.3c-3.2-1.7-6-4-8.7-7c-2.6-3-4.4-6.2-5.4-9.4 c-1.6-5.2-2.3-9.8-2.3-13.8V0H338v49.8c0,4.5,1.2,7.9,3.7,10.4c2.5,2.5,5.9,3.8,10.3,3.8c4.3,0,7.8-1.2,10.2-3.7 c2.5-2.5,3.7-6,3.7-10.5V0z"/></svg> 