<svg xmlns="http://www.w3.org/2000/svg" viewBox="0 0 1524.9 297.7"><path fill="#0079A0" d="M0 .1C10.6.1 21.2 0 31.9.2c-.1 81.6 0 163.2 0 244.7 0 3.1-.2 6.3.3 9.4 1.6 6.3 7.6 11.7 14.3 11.4 12.8 0 25.6-.1 38.4.1v32H44.6c-19.6-.6-37.7-15-42.8-33.9-2.4-7.5-1.6-15.4-1.7-23.1C0 160.6.1 80.3 0 .1zM116.2.2c10.6-.2 21.3-.1 31.9-.1v31.4c-10.6 0-21.2.1-31.9-.1.1-10.4.1-20.8 0-31.2zM195 11.2C203.4 4 214.4-.4 225.6 0h82.6v31.4c-27.2 0-54.4-.1-81.6.1-7.8 0-15 6.5-15.4 14.4-.3 9.2 0 18.3-.1 27.5h97.2v31.7c-32.4.1-64.8-.1-97.2.1.2 64.1 0 128.3.1 192.5h-31.7V44.9c.1-12.8 5.9-25.3 15.5-33.7z"/><path fill="#FC0F00" d="M1396 0c10.6.1 21.2-.2 31.8.1-.1 24.4 0 48.8 0 73.2h96.9c.6 5.8-.3 11.7.1 17.5.3 4.8.1 9.5-.3 14.2h-96.8v145.7c-.1 7.5 6.2 14.8 13.8 14.9 4.6 0 9.3-.1 14 .1 7.3-.1 14.7-.1 22 0 15.6-.2 31.2.1 46.8-.1 1.5 10.7-.1 21.4.3 32.1h-73.1c-7.3-.1-14.9.6-22-1.7-18.6-5-33-22.8-33.5-42.2V0z"/><path fill="#0079A0" d="M116.3 73.3c10.6-.1 21.2 0 31.8 0v224.4c-10.6 0-21.2.1-31.9-.1.1-74.8.1-149.5.1-224.3zM564.2 265.6c-2.5 0-5.1.1-7.6.1-28-.1-56-.1-84 0-14.7-.1-29.3-.1-44 0-16-.1-32 0-48-.1-7.1-.5-12.3-7-13.2-13.8-.1-16.8 0-33.6 0-50.4 65.7-.1 131.4 0 197.1 0v-82.6c.3-19-13.2-36.8-31-42.8-9.9-3.7-20.6-2.7-30.9-2.8h-109c-9.7-.1-19.9-.5-29 3.6-17.1 6.7-29.5 24.6-28.8 43.1.1 45 0 90 0 135 .9 19 15.4 36.3 33.7 41.2 6.8 2.1 14 1.6 21 1.6h173.7c0-10.7.3-21.4 0-32.1zM367.3 119.7c.7-7.7 7.2-14.6 15.2-14.6 44.7-.1 89.4 0 134.1 0 8.1-.4 15.7 6.6 15.6 14.7.1 16.5 0 33.1 0 49.6-55 0-110 .1-165-.1.1-16.5 0-33 .1-49.6z"/><path fill="#FC0F00" d="M833.9 130.8c-.1-8 .7-16.2-1.8-23.9-5.2-18.7-23.1-32.9-42.5-33.5H636.9V.1C626.3 0 615.7 0 605 .1c.1 99.2 0 198.4.1 297.6h176.5c5 0 10.1.3 15-.8 21.3-3.9 38-24.4 37.4-46.1-.1-40 0-80-.1-120zm-31.7-3v122.1c.3 6-3.3 12-8.7 14.5-3.7 2-8 1.1-12 1.3-4.3-.1-8.7-.1-13 0-5.3-.1-10.7-.1-16 0-5.3-.1-10.7-.1-16 0-5.7-.1-11.3-.1-17 0-23-.1-46 .1-69-.1-5-.2-9.5-3.5-11.8-7.8-2.2-3.6-1.8-8-1.8-12v-125c-.5-8.4 7.4-15.9 15.7-15.6 44.7-.1 89.3 0 134 0 7.4-.2 14.4 5.7 15.4 13 .3 3.2.2 6.4.2 9.6zM1088.3 104.9c-5.9-18-23.8-31.1-42.7-31.5H913.5c-4.3 0-8.6-.2-12.8.6-21.7 3.3-39.5 23.7-38.7 45.8v134c.5 23.2 21.4 43.6 44.5 43.9h138c6.2 0 12.3-1.3 18-3.7 16.3-6.8 27.9-23.4 28.3-41.1V131.8c-.1-9 .8-18.3-2.5-26.9zM1056 259.2c-2.5 3.7-6.8 6.6-11.5 6.4-2.3.1-4.6 0-6.9.1-16.7-.1-33.3-.1-50 0-26.7-.1-53.3 0-79.9-.1-7.3-.1-13.6-6.7-13.8-13.9-.6-8.6.2-17.3-.1-25.9-.4-9 .3-18 0-27v-19c0-14.3.2-28.7-.1-43 .5-7.1-.3-14.2.7-21.2 2.6-5.8 8-10.6 14.6-10.5 43.6-.1 87.1 0 130.7 0 3.7 0 7.6 0 11 1.9 5.1 2.6 8.2 8.3 7.9 14 .3 20.9.2 41.8 0 62.8.4 5.3.4 10.7 0 16 .7 14.3.1 28.7.3 43.1-.5 5.4.3 11.5-2.9 16.3zM1355.1 117.8c-.5-18.3-13.2-35.5-30.4-41.6-7.4-2.9-15.4-3.2-23.2-3-58.4 0-116.9-.1-175.3 0V105c60.5.1 120.9 0 181.4.1 8-.3 15.1 6.7 15.3 14.6.2 16.5 0 33.1.1 49.6-65.6.1-131.2 0-196.8.1v83.4c.5 19 13.8 36.8 31.9 42.5 8.5 3.2 17.6 2.2 26.5 2.3h170.6c-.1-59.9 0-119.8-.1-179.8zm-54.5 147.9c-14.7-.1-29.4-.1-44 0-5-.1-10-.1-15 0-21-.2-42 .1-63 0-4.1-.2-8.5.6-12.2-1.5-4.1-2-6.7-6.1-8.1-10.3-.4-17.5-.1-35-.2-52.6h165v64.2c-7.5.2-15 0-22.5.2z"/></svg>