<svg version="1.1" id="Layer_1" xmlns="http://www.w3.org/2000/svg" xmlns:xlink="http://www.w3.org/1999/xlink" x="0px" y="0px"    viewBox="0 0 1524.9 297.7" enable-background="new 0 0 1524.9 297.7" xml:space="preserve"> <path fill="#0079A0" d="M0,0.1c10.6,0,21.2-0.1,31.9,0.1c-0.1,81.6,0,163.2,0,244.7c0,3.1-0.2,6.3,0.3,9.4   c1.6,6.3,7.6,11.7,14.3,11.4c12.8,0,25.6-0.1,38.4,0.1c0,10.6,0,21.3,0,32c-13.4,0-26.9,0-40.3,0C25,297.2,6.9,282.8,1.8,263.9   c-2.4-7.5-1.6-15.4-1.7-23.1C0,160.6,0.1,80.3,0,0.1L0,0.1z"/> <path fill="#0079A0" d="M116.2,0.2c10.6-0.2,21.3-0.1,31.9-0.1c0,10.5,0,20.9,0,31.4c-10.6,0-21.2,0.1-31.9-0.1   C116.3,21,116.3,10.6,116.2,0.2L116.2,0.2z"/> <path fill="#0079A0" d="M195,11.2C203.4,4,214.4-0.4,225.6,0c27.5,0,55.1,0,82.6,0c0,10.5,0,20.9,0,31.4c-27.2,0-54.4-0.1-81.6,0.1   c-7.8,0-15,6.5-15.4,14.4c-0.3,9.2,0,18.3-0.1,27.5c32.4,0,64.8,0,97.2,0c0,10.6,0,21.2,0,31.7c-32.4,0.1-64.8-0.1-97.2,0.1   c0.2,64.1,0,128.3,0.1,192.5c-10.6,0-21.2,0-31.7,0c0-84.3,0-168.6,0-252.8C179.6,32.1,185.4,19.6,195,11.2L195,11.2z"/> <path fill="#FC0F00" d="M1396,0c10.6,0.1,21.2-0.2,31.8,0.1c-0.1,24.4,0,48.8,0,73.2c32.3,0,64.6,0,96.9,0   c0.6,5.8-0.3,11.7,0.1,17.5c0.3,4.8,0.1,9.5-0.3,14.2c-32.3,0-64.5,0-96.8,0c0,48.6,0,97.1,0,145.7c-0.1,7.5,6.2,14.8,13.8,14.9   c4.6,0,9.3-0.1,14,0.1c7.3-0.1,14.7-0.1,22,0c15.6-0.2,31.2,0.1,46.8-0.1c1.5,10.7-0.1,21.4,0.3,32.1c-24.4,0-48.8,0-73.1,0   c-7.3-0.1-14.9,0.6-22-1.7c-18.6-5-33-22.8-33.5-42.2C1396,169.2,1396,84.6,1396,0L1396,0z"/> <path fill="#0079A0" d="M116.3,73.3c10.6-0.1,21.2,0,31.8,0c0,74.8,0,149.6,0,224.4c-10.6,0-21.2,0.1-31.9-0.1   C116.3,222.8,116.3,148.1,116.3,73.3L116.3,73.3z"/> <path fill="#0079A0" d="M564.2,265.6c-2.5,0-5.1,0.1-7.6,0.1c-28-0.1-56-0.1-84,0c-14.7-0.1-29.3-0.1-44,0c-16-0.1-32,0-48-0.1   c-7.1-0.5-12.3-7-13.2-13.8c-0.1-16.8,0-33.6,0-50.4c65.7-0.1,131.4,0,197.1,0c0-27.5,0-55,0-82.6c0.3-19-13.2-36.8-31-42.8   c-9.9-3.7-20.6-2.7-30.9-2.8c-36.3,0-72.7,0-109,0c-9.7-0.1-19.9-0.5-29,3.6c-17.1,6.7-29.5,24.6-28.8,43.1c0.1,45,0,90,0,135   c0.9,19,15.4,36.3,33.7,41.2c6.8,2.1,14,1.6,21,1.6c57.9,0,115.8,0,173.7,0C564.2,287,564.5,276.3,564.2,265.6z M367.3,119.7   c0.7-7.7,7.2-14.6,15.2-14.6c44.7-0.1,89.4,0,134.1,0c8.1-0.4,15.7,6.6,15.6,14.7c0.1,16.5,0,33.1,0,49.6c-55,0-110,0.1-165-0.1   C367.3,152.8,367.2,136.3,367.3,119.7z"/> <path fill="#FC0F00" d="M833.9,130.8c-0.1-8,0.7-16.2-1.8-23.9C826.9,88.2,809,74,789.6,73.4c-50.9,0-101.8,0-152.7,0   c0-24.4,0-48.8,0-73.3C626.3,0,615.7,0,605,0.1c0.1,99.2,0,198.4,0.1,297.6c58.8,0,117.7,0,176.5,0c5,0,10.1,0.3,15-0.8   c21.3-3.9,38-24.4,37.4-46.1C833.9,210.8,834,170.8,833.9,130.8z M802.2,127.8c0,40.7,0,81.4,0,122.1c0.3,6-3.3,12-8.7,14.5   c-3.7,2-8,1.1-12,1.3c-4.3-0.1-8.7-0.1-13,0c-5.3-0.1-10.7-0.1-16,0c-5.3-0.1-10.7-0.1-16,0c-5.7-0.1-11.3-0.1-17,0   c-23-0.1-46,0.1-69-0.1c-5-0.2-9.5-3.5-11.8-7.8c-2.2-3.6-1.8-8-1.8-12c0-41.7,0-83.3,0-125c-0.5-8.4,7.4-15.9,15.7-15.6   c44.7-0.1,89.3,0,134,0c7.4-0.2,14.4,5.7,15.4,13C802.3,121.4,802.2,124.6,802.2,127.8z"/> <path fill="#FC0F00" d="M1088.3,104.9c-5.9-18-23.8-31.1-42.7-31.5c-44,0-88.1,0-132.1,0c-4.3,0-8.6-0.2-12.8,0.6   c-21.7,3.3-39.5,23.7-38.7,45.8c0,44.7,0,89.3,0,134c0.5,23.2,21.4,43.6,44.5,43.9c46,0,92,0,138,0c6.2,0,12.3-1.3,18-3.7   c16.3-6.8,27.9-23.4,28.3-41.1c0-40.4,0-80.7,0-121.1C1090.7,122.8,1091.6,113.5,1088.3,104.9z M1056,259.2   c-2.5,3.7-6.8,6.6-11.5,6.4c-2.3,0.1-4.6,0-6.9,0.1c-16.7-0.1-33.3-0.1-50,0c-26.7-0.1-53.3,0-79.9-0.1c-7.3-0.1-13.6-6.7-13.8-13.9   c-0.6-8.6,0.2-17.3-0.1-25.9c-0.4-9,0.3-18,0-27c0-6.3,0-12.7,0-19c0-14.3,0.2-28.7-0.1-43c0.5-7.1-0.3-14.2,0.7-21.2   c2.6-5.8,8-10.6,14.6-10.5c43.6-0.1,87.1,0,130.7,0c3.7,0,7.6,0,11,1.9c5.1,2.6,8.2,8.3,7.9,14c0.3,20.9,0.2,41.8,0,62.8   c0.4,5.3,0.4,10.7,0,16c0.7,14.3,0.1,28.7,0.3,43.1C1058.4,248.3,1059.2,254.4,1056,259.2z"/> <path fill="#FC0F00" d="M1355.1,117.8c-0.5-18.3-13.2-35.5-30.4-41.6c-7.4-2.9-15.4-3.2-23.2-3c-58.4,0-116.9-0.1-175.3,0   c0,10.6,0,21.2,0,31.8c60.5,0.1,120.9,0,181.4,0.1c8-0.3,15.1,6.7,15.3,14.6c0.2,16.5,0,33.1,0.1,49.6c-65.6,0.1-131.2,0-196.8,0.1   c0,27.8,0,55.6,0,83.4c0.5,19,13.8,36.8,31.9,42.5c8.5,3.2,17.6,2.2,26.5,2.3c56.9,0,113.7,0,170.6,0   C1355.1,237.7,1355.2,177.8,1355.1,117.8z M1300.6,265.7c-14.7-0.1-29.4-0.1-44,0c-5-0.1-10-0.1-15,0c-21-0.2-42,0.1-63,0   c-4.1-0.2-8.5,0.6-12.2-1.5c-4.1-2-6.7-6.1-8.1-10.3c-0.4-17.5-0.1-35-0.2-52.6c55,0,110,0,165,0c0,21.4,0,42.8,0,64.2   C1315.6,265.7,1308.1,265.5,1300.6,265.7z"/> </svg>  