<svg version="1.1" id="Layer_1" xmlns="http://www.w3.org/2000/svg" xmlns:xlink="http://www.w3.org/1999/xlink" x="0px" y="0px" viewBox="0 0 416.6 432" style="enable-background:new 0 0 416.6 432;" xml:space="preserve"><style type="text/css">.st0{fill:#FFFFFF;}</style><g><path class="st0" d="M253.9,285.1c0.5,0.2,0.8,0.3,1,0.5c18.3,10.6,36.6,21.1,54.9,31.7c8.4,4.9,16.8,9.8,25.3,14.8c0.8,0.5,1.6,1.1,2.5,1.6c0.8,0.5,1,1.2,0.9,2c0,0.4-0.1,0.8-0.2,1.2c-0.7,2.5-1.8,4.7-3.5,6.6c-1.3,1.5-1.9,1.6-3.7,0.9c-1.4-0.6-2.7-1.3-4-1.9c-1.7-0.9-3.5-1.8-5.2-2.7c-1-0.5-2-0.9-3.2-0.9c-0.5,0-0.9-0.3-1.4-0.6c-11.9-6.6-23.8-13.2-35.7-19.9c-8.8-4.9-17.6-9.8-26.4-14.7c-1-0.5-1.4-1.1-1.4-2.2c0.1-5,0-9.9,0-14.9C253.9,286.2,253.9,285.7,253.9,285.1z"/><path class="st0" d="M162.1,285.2c0,0.4,0.1,0.7,0.1,0.9c-0.1,4.9-0.2,9.9-0.2,14.8c0,1-0.3,1.5-1.2,2c-21.7,12-43.3,24.1-65,36.1c-3,1.6-6,3.1-9,4.7c-0.6,0.3-1.2,0.6-1.8,0.8c-1.8,0.7-2.4,0.5-3.7-0.9c-1.7-1.9-2.8-4.1-3.5-6.6c-0.1-0.5-0.2-1.1-0.2-1.7s0.2-1.1,0.7-1.4c0.8-0.5,1.5-1.1,2.3-1.5c9.2-5.4,18.4-10.8,27.7-16.2c16.5-9.5,32.9-19,49.4-28.5c1.1-0.6,2.2-1.3,3.3-2C161.4,285.5,161.7,285.4,162.1,285.2z"/></g><g><path class="st0" d="M317.4,346.6c0.1,14.3,1.6,28.2,3,42.2c-23.2,6.5-46.3,13-69.6,19.6c0.7-8,1.4-15.7,2-23.6C274.2,372.1,295.7,359.4,317.4,346.6z"/><path class="st0" d="M163.4,408.4c-22.6-6.4-45.1-12.7-67.7-19.1c1.4-13.8,2.8-27.5,3-41.5c0.5,0.3,0.9,0.4,1.3,0.6c20.2,11.9,40.3,23.9,60.5,35.8c0.6,0.4,1.1,0.7,1.2,1.6c0.6,7.3,1.2,14.6,1.8,22C163.5,407.9,163.5,408,163.4,408.4z"/><path class="st0" d="M247.7,305.6c-6.9,26.3-13.7,52.5-20.6,78.6c-0.1,0-0.2,0-0.3,0c-0.5-2.1-1-4.2-1.6-6.3c-2.1-8.4-4.3-16.8-6.4-25.3c-2.8-11.5-5.5-23-8.2-34.4c-0.2-0.7-0.3-1.5-0.3-2.2c0-9.9,0-19.8,0-29.7c0-0.4,0-0.8,0.1-1.5C223,291.8,235.3,298.7,247.7,305.6z"/><path class="st0" d="M166.6,305.6c12.5-6.9,24.8-13.8,37.2-20.7c0,0.6,0.1,1,0.1,1.4c0,10,0,20,0,30c0,0.6-0.1,1.3-0.2,1.9c-4.3,18.9-8.9,37.7-13.8,56.4c-0.8,2.9-1.4,5.8-2.1,8.7c-0.1,0.3-0.2,0.7-0.5,1.3C180.3,358.1,173.5,331.9,166.6,305.6z"/><path class="st0" d="M218.5,162c0.2-2.5,0.3-4.8,0.5-7.1c0.2-2.5-0.3-5-1.1-7.4c-1.2-3.4-2.5-6.8-4.3-10c-0.8-1.4-1.8-2.7-2.7-4c-0.2-0.4-0.4-0.8-0.5-1.2c-0.1-0.2,0-0.5,0-0.7c0-17.3,0-34.7,0-52c0-0.5,0-1,0-1.7c1.1,0,2.1,0.1,3.1-0.1c1.8-0.3,2.7,0.4,3.4,2.1c3.3,7.2,7.3,14.1,11.4,20.9c6.4,10.8,13,21.5,19.5,32.2c0.3,0.4,0.5,0.9,0.8,1.4c-0.3,0.3-0.5,0.6-0.8,0.8c-7.6,7.3-15.2,14.6-22.8,21.9c-0.3,0.3-0.6,0.5-0.9,0.7c-1.5,1.1-2.9,2.1-4.4,3.2C219.4,161.3,219.1,161.6,218.5,162z"/><path class="st0" d="M195.7,161.9c-0.3-0.2-0.5-0.3-0.6-0.4c-1.7-1.3-3.4-2.5-5.2-3.8c-0.2-0.2-0.4-0.3-0.6-0.5c-7.3-7-14.6-14-21.9-21.1c-0.2-0.2-0.3-0.3-0.6-0.6c0.3-0.4,0.5-0.8,0.8-1.3c8.4-13.4,16.7-26.8,24.5-40.6c2.8-4.9,5.3-9.9,7.9-14.9c0.3-0.6,0.6-0.9,1.3-0.8c0.9,0,1.8,0,2.7,0c0,0.5,0.1,0.9,0.1,1.3c0,17.6,0,35.2,0,52.7c0,0.8-0.3,1.4-0.8,2c-0.9,1.1-1.7,2.3-2.4,3.6c-2,3.7-3.6,7.6-4.8,11.7c-0.7,2.3-0.8,4.7-0.6,7c0.1,1.4,0.3,2.9,0.4,4.3C195.8,161,195.7,161.4,195.7,161.9z"/><path class="st0" d="M218.5,193.9c3,2.1,5.8,4.1,8.7,6.1c0.5,0.3,0.5,0.7,0.4,1.2c-0.1,1.9-0.2,3.9-0.4,5.8c-0.3,4.9-0.7,9.7-1,14.6c-0.4,6.2-0.9,12.4-1.3,18.6c-0.3,4.6-0.6,9.2-0.9,13.8c-0.4,6.2-0.9,12.3-1.3,18.5c-0.2,3.4-0.5,6.9-0.7,10.3c0,0.7-0.1,1.4-0.2,2.2c-0.5-0.3-0.9-0.4-1.2-0.6c-3-1.7-6-3.4-9-5c-0.9-0.5-1.1-1-1.1-2c0-9.9,0-19.7,0-29.6c0-7.9,0-15.7,0-23.6c0-1,0.2-1.8,0.9-2.6c0.9-1,1.7-2.2,2.3-3.5c2-3.6,3.5-7.5,4.7-11.4c1-3.1,0.7-6.2,0.5-9.3C218.7,196.4,218.6,195.2,218.5,193.9z"/><path class="st0" d="M192.5,285.1c-2-28.4-3.9-56.4-5.8-84.7c3-2.1,6-4.2,9.2-6.5c-0.1,0.7-0.1,1.3-0.2,2c-0.2,2.9-0.7,5.7-0.2,8.6c0.1,0.5,0.2,1.1,0.3,1.6c1.3,4.6,3.1,9,5.5,13.1c0.6,1,1.4,2,2.1,2.9c0.4,0.4,0.5,0.8,0.5,1.4c0,0.6,0,1.2,0,1.8c0,17.3,0,34.6,0,51.9c0,1.2-0.3,1.8-1.4,2.4c-2.9,1.5-5.8,3.2-8.7,4.8C193.5,284.6,193.1,284.8,192.5,285.1z"/></g><g><path class="st0" d="M182.7,387.6c-0.6-0.2-1-0.3-1.4-0.5c-5.3-2.1-10.6-4.2-15.9-6.3c-0.6-0.2-1.2-0.5-1.7-0.9c-20.6-12.2-41.3-24.4-61.9-36.7c-0.4-0.2-0.8-0.5-1.3-0.8c20.5-11.4,40.9-22.8,61.5-34.2C168.8,334.7,175.7,361.1,182.7,387.6z"/><path class="st0" d="M252.5,308.2c20.5,11.4,41,22.8,61.5,34.2c-0.6,0.3-0.9,0.6-1.3,0.8c-20.6,12.2-41.2,24.4-61.8,36.6c-0.7,0.4-1.5,0.8-2.2,1.1c-5.1,2.1-10.3,4.1-15.4,6.1c-0.4,0.2-0.8,0.3-1.5,0.6C238.6,361.1,245.5,334.7,252.5,308.2z"/><path class="st0" d="M248.5,300c-7.3-4.1-14.4-8-21.6-12c1.9-27.9,3.8-55.8,5.8-83.8c0.4,0.2,0.7,0.4,0.9,0.5c6,4.3,12,8.7,18,13c0.7,0.5,0.9,1,0.8,1.9c-0.6,6.8-1.1,13.6-1.6,20.4c-0.6,9-1.3,18-1.8,27c-0.3,4.8-0.2,9.7-0.3,14.5c0,5.9,0,11.8,0,17.7C248.7,299.4,248.6,299.6,248.5,300z"/><path class="st0" d="M181.6,204.1c0.2,2.2,0.3,4.1,0.4,6c0.5,7.8,1.1,15.7,1.6,23.5c0.4,6.1,0.8,12.2,1.2,18.2c0.5,7.4,1,14.7,1.6,22.1c0.3,4.3,0.6,8.5,0.9,12.8c0,0.7,0,1.2-0.7,1.6c-6.3,3.5-12.6,7-18.9,10.5c-0.1,0.1-0.2,0.1-0.5,0.2c0-0.4-0.1-0.7-0.1-1.1c0.1-6.1,0.4-12.3,0.4-18.4c0-5.9-0.3-11.8-0.6-17.7c-0.2-4.9-0.6-9.8-1-14.7c-0.5-6.9-1.1-13.8-1.6-20.7c-0.2-2.8-0.4-5.6-0.7-8.3c-0.1-0.7,0.1-1.1,0.7-1.5c5.5-4,11.1-8,16.6-12C181.1,204.4,181.3,204.3,181.6,204.1z"/><path class="st0" d="M254.9,412.7c22-6.2,43.9-12.4,66.1-18.6c0.2,1.3,0.3,2.4,0.4,3.4c0.5,3.7,1.1,7.5,1.6,11.2c0.1,1.1,0.6,2,1.3,2.9c1,1.2,2.1,2.4,3.2,3.5c0.6,0.7,1.2,1.3,1.8,1.9c3.7,3.5,5.5,8,6.5,12.9c0.1,0.6,0.1,1.3,0.2,2.1c-0.7-0.1-1.2,0-1.7-0.1c-21.8-4.6-43.4-9.7-64.9-15.3c-4.4-1.1-8.7-2.1-13.1-3.2c-0.4-0.1-0.9-0.2-1.3-0.4C254.9,412.8,254.9,412.8,254.9,412.7z"/><path class="st0" d="M80.3,431.6c0-0.6,0-1.1,0.1-1.7c1-4.8,2.8-9.3,6.5-12.9c1.1-1.1,2.1-2.4,3.3-3.4c2.2-2,3.2-4.5,3.5-7.5c0.4-3.8,1-7.6,1.5-11.3c1,0,62.3,17.1,64.4,18.1c-26.1,6.6-52.1,13.3-78.4,18.7C80.9,431.6,80.7,431.6,80.3,431.6z"/><path class="st0" d="M233.3,156.5c6-5.8,12.1-11.6,18.2-17.4c1.3,1.6,3.1,2.5,4.7,3.6c4.6,3.4,9.2,6.7,13.8,10.1c1.1,0.9,2.2,1.9,3.2,2.9c1.5,1.5,1.5,2,0.2,3.7c-1.1,1.3-2.2,2.6-3.4,3.9c-1.9,1.9-3.8,3.7-5.7,5.6c-1.8,1.8-3.6,3.6-5.4,5.4c-0.4,0.4-0.7,0.7-1.3,0.7c-5.9,0-11.8,0-17.7,0c-0.1,0-0.3-0.1-0.4-0.1c-0.2-1.9-0.3-3.9-0.7-5.8c-0.4-2.1-0.8-4.2-1.4-6.2C236.5,159.8,235.6,158.6,233.3,156.5z"/><path class="st0" d="M163.9,140.1c5.7,5.5,11.4,10.9,17.1,16.4c-3.4,2.5-4.3,6.1-5,9.8c-0.5,2.3-0.6,4.7-0.9,7c-0.1,0.5-0.1,0.9-0.2,1.5c-0.5,0-0.9,0.1-1.3,0.1c-4.8,0-9.7,0-14.5,0c-0.9,0-1.4-0.3-2.1-0.9c-3.1-3.1-6.2-6.1-9.3-9.2c-1.6-1.6-3.1-3.2-4.6-4.9c-1.9-2.2-1.9-2.8,0.2-4.7c1.7-1.6,3.5-3.2,5.4-4.6c4.7-3.4,9.4-6.7,14.1-10C163.2,140.5,163.5,140.4,163.9,140.1z"/></g><g><path class="st0" d="M222.2,388.8c-5.1-1.7-10-2.6-15.1-2.6c-5,0-9.9,0.9-14.9,2.6c4.7-19.9,10.5-39.2,14.9-58.9h0.1c0,0,0.1,0,0.1,0.1c0.1,0.2,0.2,0.3,0.2,0.5C212.3,349.8,217.2,369.2,222.2,388.8z"/><path class="st0" d="M239.5,180.3c5.6,0,11.1,0,16.6,0c-1.1,10.6-2.1,21.1-3.2,31.6c-0.9-0.3-17.1-11.9-18.6-13.4c3-3.3,3.8-7.4,4.4-11.6C239.1,184.8,239.2,182.6,239.5,180.3z"/><path class="st0" d="M160,180.3c5,0,9.8,0,14.9,0c0.1,0.8,0.2,1.6,0.2,2.5c0.2,3.4,0.7,6.7,1.7,10c0.7,2.1,1.5,4.1,3.2,5.6c-0.6,0.8-15.1,11.4-16.9,12.4C162.1,200.7,161.1,190.6,160,180.3z"/><path class="st0" d="M163.4,417.5c-1.7,4.7-2.7,9.5-2.9,14.5c-18.2,0-36.2,0-54.3,0v-0.1c0.3-0.1,0.6-0.2,0.9-0.2c12.8-2.6,25.4-6.2,38-9.7c5.7-1.6,11.4-2.8,17.2-4.2C162.6,417.5,162.9,417.5,163.4,417.5z"/><path class="st0" d="M253.9,431.9c-0.3-5-1.2-9.7-2.9-14.3c0.7-0.3,1.4,0,2,0.2c7.5,1.8,15.1,3.6,22.5,5.8c10.6,3.1,21.3,5.8,32.1,8.1c0.2,0,0.3,0.1,0.5,0.3C290.1,431.9,272.1,431.9,253.9,431.9z"/><path class="st0" d="M231.1,393.5c5.2-2.1,10.3-4.1,15.3-6.1c0.3,1.2-0.9,16.1-1.4,18.8c-1.4-1.6-2.7-3.2-4.1-4.7c-1.5-1.5-3-2.9-4.6-4.2C234.6,396,232.9,394.8,231.1,393.5z"/><path class="st0" d="M183.4,393.5c-5.5,3.4-10.1,7.5-13.9,12.6c-0.4-1.1-1.9-16.2-1.8-18.9C172.9,389.3,178,391.4,183.4,393.5z"/></g><g><path class="st0" d="M166.9,431.9c0-2.2,0.3-4.3,0.8-6.4c0.7-2.5,1.3-5.1,2.4-7.4c3.3-7,8-12.9,14.4-17.5c8-5.7,16.9-8.1,26.6-7.1c12,1.2,21.3,7.1,28.5,16.7c3.9,5.1,6.4,10.8,7.5,17.2c0.2,1.5,0.3,2.9,0.5,4.5C220.6,431.9,193.8,431.9,166.9,431.9z"/><path class="st0" d="M229.5,194.1c-1.1-0.8-2.1-1.4-3.1-2.2c-1.8-1.4-3.5-2.8-5.2-4.2c-0.6-0.5-1.3-0.9-1.9-1.4c-1.5-1.3-3.4-1.3-5.2-1.1c-1.3,0.1-2.1,1-2.4,2.2c-0.3,1.1-0.4,2.3-0.4,3.4c0.1,1.9,0.3,3.8,0.4,5.7c0.1,1.6,0.3,3.2,0.3,4.7c0,1.3-0.1,2.6-0.4,3.9c-1,3.5-2.4,6.8-4,10.1c-0.1,0.2-0.3,0.4-0.5,0.8c-0.4-0.8-0.9-1.6-1.2-2.3c-0.9-2.1-1.7-4.1-2.6-6.2c-1.2-2.9-1.3-5.8-1-8.9c0.3-2.8,0.5-5.6,0.7-8.5c0-0.8-0.1-1.7-0.3-2.5c-0.4-1.6-1.9-2.4-3.4-2.5c-2.2-0.1-3.9,0.7-5.4,2c-2.1,1.7-4.2,3.4-6.3,5.1c-0.8,0.7-1.8,1.2-2.8,1.9c-0.4-0.8-0.8-1.4-0.9-2.1c-0.6-2.5-1.3-5.1-1.6-7.6c-0.7-5.9-0.5-11.8,0.8-17.6c0.4-1.7,0.8-3.4,1.8-5c0.6,0.3,1.2,0.6,1.6,1c2,1.6,4,3.2,6,4.8c1.1,0.8,2.1,1.6,3.2,2.4c1.4,1,3.1,0.9,4.7,0.7c1.3-0.2,2.2-1.3,2.4-2.6c0.2-1.6,0.2-3.2,0.1-4.8c-0.2-3-0.5-5.9-0.7-8.9c-0.1-1.4,0.1-2.8,0.6-4.1c1.2-3.2,2.6-6.3,3.8-9.4c0.1-0.3,0.3-0.5,0.5-0.8c0.2,0.4,0.5,0.7,0.6,1c1.3,3,2.5,6.1,3.7,9.2c0.6,1.6,0.7,3.3,0.6,4.9c-0.2,3.2-0.5,6.4-0.8,9.6c-0.1,1,0,2,0.1,2.9c0.3,2.1,1.7,3.1,3.8,3.2c1.9,0.1,3.4-0.6,4.7-1.7c1.9-1.5,3.7-3,5.5-4.5c1.2-1,2.5-1.9,4-2.9c0.4,0.7,0.7,1.2,0.9,1.8c0.6,2.2,1.2,4.5,1.6,6.8c0.9,6.5,0.7,13-0.7,19.4C230.9,191.1,230.5,192.6,229.5,194.1z"/><path class="st0" d="M208.1,0c0.9,0.4,1.1,1.3,1.3,2.2c0.5,2.3,0.9,4.6,1.2,6.9c1,9.1,1.3,18.3,1.8,27.4c0.4,9.4,0.9,18.8,1.4,28.1c0.1,2.6,0.5,5.3,0.7,7.9c-1,0.3-10.9,0.4-12.7,0.1c0.1-0.6,0.2-1.2,0.2-1.7c0.4-5.4,0.8-10.8,1.1-16.3c0.6-10.8,1-21.5,1.5-32.3c0.3-5.8,0.7-11.5,1.6-17.2c0.2-1.2,0.5-2.4,0.9-3.7C207.2,0.8,207.4,0.2,208.1,0z"/><path class="st0" d="M147.7,172.7c-0.2-0.2-0.3-0.3-0.5-0.5l-43.7,1.3c-34.5,1.2-69,2.3-103.5,3.8v1.9c34.5,1.5,69,2.7,103.5,3.8l51.6,1.6c-0.3-2.5-0.6-4.3-0.7-5.3C153.3,178.1,150,174.9,147.7,172.7z"/><path class="st0" d="M165.2,128.7L136.9,102C111.7,78.5,86.5,54.9,61,31.6L59.6,33c23.3,25.5,46.9,50.7,70.5,75.9l27.8,29.5c0.7-0.5,1.4-0.9,2.2-1.4C161.7,134.4,163.4,131.6,165.2,128.7z"/><path class="st0" d="M145.3,147.3c-18.5-6.7-37-13.4-55.7-19.8l-0.8,1.8c16.4,8.4,32.8,16.5,49.3,24.6C139.4,152.3,141.6,150.2,145.3,147.3z"/><path class="st0" d="M159.8,59.6l-1.8,0.7c5.6,17.4,11.5,34.6,17.4,51.9c1.8-3,3.6-5.9,5.3-8.8C173.8,88.7,166.9,74.1,159.8,59.6z"/><path class="st0" d="M145.6,198c-19.3,9.1-38.7,18.1-57.9,27.5l0.7,1.8c20.3-6.6,40.5-13.5,60.7-20.4l7.9-2.7c-0.4-4.1-0.7-7.8-1.1-11L145.6,198z"/><path class="st0" d="M268.9,172.7c0.2-0.2,0.3-0.3,0.5-0.5l43.7,1.3c34.5,1.2,69,2.3,103.5,3.8v1.9c-34.5,1.5-69,2.7-103.5,3.8l-51.6,1.6c0.3-2.5,0.6-4.3,0.7-5.3C263.3,178.1,266.6,174.9,268.9,172.7z"/><path class="st0" d="M251.4,128.7l28.3-26.6c25.2-23.6,50.4-47.1,75.9-70.5L357,33c-23.3,25.5-46.9,50.7-70.5,75.9l-27.8,29.5c-0.7-0.5-1.4-0.9-2.2-1.4C254.9,134.4,253.2,131.6,251.4,128.7z"/><path class="st0" d="M271.3,147.3c18.5-6.7,37-13.4,55.7-19.8l0.8,1.8c-16.4,8.4-32.8,16.5-49.3,24.6C277.2,152.3,275,150.2,271.3,147.3z"/><path class="st0" d="M256.8,59.6l1.8,0.7c-5.6,17.4-11.5,34.6-17.4,51.9c-1.8-3-3.6-5.9-5.3-8.8C242.8,88.7,249.7,74.1,256.8,59.6z"/><path class="st0" d="M271,198c19.3,9.1,38.7,18.1,57.9,27.5l-0.7,1.8c-20.3-6.6-40.5-13.5-60.7-20.4l-7.9-2.7c0.4-4.1,0.7-7.8,1.1-11L271,198z"/></g></svg>