<svg xmlns="http://www.w3.org/2000/svg" width="100" height="100"><path fill="#007BB6" d="M92.592 0H7.376C3.308 0 0 3.228 0 7.205v85.579C0 96.767 3.308 100 7.376 100h85.215c4.076 0 7.408-3.233 7.408-7.216V7.205C100 3.228 96.668 0 92.592 0z"/><path fill="#FFF" d="M14.794 37.491H29.65V85.21H14.794V37.491zm7.432-23.723c4.749 0 8.603 3.854 8.603 8.596 0 4.748-3.854 8.602-8.603 8.602a8.6 8.6 0 1 1 0-17.198M38.962 37.491h14.227v6.52h.203c1.979-3.752 6.825-7.708 14.045-7.708 15.017 0 17.794 9.881 17.794 22.733V85.21h-14.83V62.007c0-5.535-.106-12.654-7.714-12.654-7.723 0-8.901 6.027-8.901 12.252V85.21H38.962V37.491z"/></svg>