<svg xmlns="http://www.w3.org/2000/svg" xmlns:xlink="http://www.w3.org/1999/xlink" x="0px" y="0px" width="100px" height="100px" viewBox="0 0 100 100" xml:space="preserve"><path fill="#007BB6" d="M92.592,0H7.376C3.308,0,0,3.228,0,7.205v85.579C0,96.767,3.308,100,7.376,100h85.215 c4.076,0,7.408-3.233,7.408-7.216V7.205C100,3.228,96.668,0,92.592,0z"/><path fill="#FFFFFF" d="M14.794,37.491H29.65V85.21H14.794V37.491z M22.226,13.768c4.749,0,8.603,3.854,8.603,8.596 c0,4.748-3.854,8.602-8.603,8.602c-4.767,0-8.61-3.854-8.61-8.602C13.616,17.621,17.459,13.768,22.226,13.768"/><path fill="#FFFFFF" d="M38.962,37.491h14.227v6.52h0.203c1.979-3.752,6.825-7.708,14.045-7.708 c15.017,0,17.794,9.881,17.794,22.733V85.21H70.401V62.007c0-5.535-0.106-12.654-7.714-12.654c-7.723,0-8.901,6.027-8.901,12.252 V85.21H38.962V37.491z"/></svg>