<svg xmlns="http://www.w3.org/2000/svg" xmlns:xlink="http://www.w3.org/1999/xlink" width="1024" height="768" version="1"><defs><filter id="h"><feGaussianBlur stdDeviation="1.628"/></filter><pattern xlink:href="#b" id="g" patternTransform="matrix(.42954 0 0 .42954 0 0)"/><pattern xlink:href="#c" id="b" patternTransform="matrix(.42954 0 0 .42954 -130.668 -129.375)"/><linearGradient id="f"><stop offset="0" stop-color="#bfe699"/><stop offset="1" stop-color="#313e24"/></linearGradient><linearGradient id="e"><stop offset="0" stop-color="#3d3d3d"/><stop offset="1" stop-opacity=".114"/></linearGradient><linearGradient id="d"><stop offset="0" stop-color="#d3d3d3"/><stop offset="1" stop-color="#fff"/></linearGradient><linearGradient id="a"><stop offset="0" stop-color="#c7f994"/><stop offset="1" stop-color="#87cf3e"/></linearGradient><filter id="k"><feGaussianBlur stdDeviation=".401"/></filter><filter id="l"><feGaussianBlur stdDeviation=".16"/></filter><pattern patternUnits="userSpaceOnUse" width="256" height="256" patternTransform="translate(-297.842 85.357)" id="c"><image xlink:href="metal5.jpg" width="256" height="256"/></pattern><linearGradient xlink:href="#a" id="i" gradientUnits="userSpaceOnUse" gradientTransform="translate(79.238 -55.75) scale(1.09126)" x1="61.429" y1="362.143" x2="116.429" y2="408.571"/><linearGradient xlink:href="#e" id="j" gradientUnits="userSpaceOnUse" gradientTransform="translate(0 80)" x1="70.492" y1="416.389" x2="113.642" y2="375.88"/></defs><path transform="translate(-1817.581 -2781.536) scale(6.88051)" d="M331.79 510.933c-21.29 0-39.765-16.14-39.765-37.41l-.02-21.993v-6.586h-13.497v-36.651l56.92.268 17.806.038c21.309 0 39.765 16.121 39.765 37.411v64.923H331.79z" style="marker:none" opacity=".26" fill-rule="evenodd" overflow="visible" filter="url(#h)" enable-background="accumulate"/><path d="M237.713 407.739v-49.446c0-16.519-14.487-29.91-32.361-29.91H186.8v-.04l-50.175-.219v18.041h7.702c5.376 0 6.326 3.712 6.326 8.849l.04 31.894c0 16.519 14.487 29.91 32.341 29.91h44.082c5.651 0 10.597-3.58 10.597-9.08z" fill="url(#i)" fill-rule="evenodd" transform="matrix(6.5973 0 0 6.5973 -735.852 -2072.044)"/><path transform="matrix(6.91726 0 0 6.91726 -185.192 -2816.82)" d="M142.938 500.531c-10.752-7.41-18.367-15.92-24.782-27.187-12.644-23.358-9.688-34.954-41-37.688-9.036 0-15.051-2-24.562-2v3.313s3.758 1.907 7.062 1.907c4.927 0 5.782 3.418 5.782 8.125l.03 29.155c0 15.138 13.296 27.406 29.657 27.406H135.5c2.964 0 5.626-1.167 7.438-3.03z" opacity=".175" fill="url(#j)" filter="url(#k)"/><path transform="matrix(6.91726 0 0 6.91726 -185.192 -2816.82)" d="M105.518 438.54c-3.836 0-7.245 1.425-9.984 4.191-2.738 2.766-4.176 6.218-4.176 10.115v19.694h8.933v-19.694c0-1.494.488-2.661 1.554-3.738 1.07-1.081 2.203-1.57 3.673-1.57 1.502 0 2.618.487 3.69 1.57 1.066 1.077 1.554 2.244 1.554 3.738v19.694h8.933v-19.694c0-1.494.487-2.661 1.553-3.738 1.072-1.083 2.188-1.57 3.69-1.57 1.47 0 2.604.489 3.673 1.57 1.067 1.077 1.554 2.244 1.554 3.738l.049 23.012c0 4.909-4.675 9.046-10.681 9.046l-28.806-.113c-4.634 0-8.593-4.511-8.593-10.309v-43.335h-8.447v45.002c0 4.775 1.747 8.962 5.146 12.348 2.905 2.867 6.399 4.564 10.325 4.984v.162h32.074c4.929 0 9.259-1.833 12.752-5.39H134c2.971-3.052 4.708-6.71 5.13-10.825l-.032-24.582c0-3.897-1.437-7.349-4.175-10.115-2.74-2.766-6.148-4.19-9.985-4.19-3.766 0-7.061 1.4-9.726 3.964-2.657-2.56-5.93-3.965-9.694-3.965z" style="marker:none" fill-opacity=".08" fill-rule="evenodd" stroke-width="4.767" overflow="visible" filter="url(#l)" enable-background="accumulate"/><path d="M539.772 218.298c-26.54 0-50.12 9.853-69.068 28.993-18.938 19.13-28.88 43.011-28.88 69.962v136.233h61.79V317.253c0-10.33 3.371-18.407 10.747-25.858 7.4-7.474 15.236-10.858 25.41-10.858 10.389 0 18.107 3.367 25.523 10.858 7.376 7.451 10.747 15.528 10.747 25.858v136.233h61.791V317.253c0-10.33 3.371-18.407 10.747-25.858 7.416-7.491 15.134-10.858 25.522-10.858 10.175 0 18.011 3.384 25.41 10.858 7.377 7.451 10.747 15.528 10.747 25.858l.336 159.182c0 33.956-32.337 62.575-73.881 62.575l-199.256-.784c-32.059 0-59.44-31.205-59.44-71.307V167.16h-58.434v311.29c0 33.028 12.086 61.991 35.598 85.412 20.096 19.836 44.264 32.694 71.418 35.598h221.868c34.093 0 64.045-12.678 88.21-37.278h.111c20.552-21.115 32.566-46.415 35.486-74.888l-.224-170.04c0-26.951-9.943-50.833-28.881-69.962-18.947-19.14-42.528-28.993-69.068-28.993-26.05 0-48.845 9.687-67.276 27.425-18.378-17.709-41.013-27.425-67.053-27.425z" style="marker:none" fill="#fff" fill-rule="evenodd" overflow="visible" enable-background="accumulate"/><path d="M503.434 538.433v61.025h145.14c34.094 0 63.87-12.715 88.033-37.316h.206c20.552-21.114 32.541-46.364 35.46-74.838v-34.636H710.63v23.71c0 33.956-32.263 62.468-73.807 62.468l-133.389-.413z" style="marker:none" opacity=".3" fill="#52a800" fill-rule="evenodd" overflow="visible" enable-background="accumulate"/><path d="M469.744 722.997c-140.458 0-262.347-106.48-262.347-246.811l-.126-170.392v-43.45h-89.049V45.847l375.52 1.769 117.469.252c140.583 0 262.346 106.353 262.346 246.81v428.32H469.744zm346.595-114.896V294.679c0-104.71-91.828-189.592-205.128-189.592H493.616v-.252l-318.049-1.39v101.68h35.628c24.188 0 53.294 22.73 53.294 56.087l.253 214.849c0 104.71 91.828 189.591 205.002 189.591H749.17c35.822 0 67.169-22.686 67.169-57.551z" style="marker:none" fill="#fff" fill-rule="evenodd" overflow="visible" enable-background="accumulate"/></svg>