<svg xmlns:dc="http://purl.org/dc/elements/1.1/" xmlns:cc="http://creativecommons.org/ns#" xmlns:rdf="http://www.w3.org/1999/02/22-rdf-syntax-ns#" xmlns:svg="http://www.w3.org/2000/svg" xmlns="http://www.w3.org/2000/svg" xmlns:xlink="http://www.w3.org/1999/xlink" xmlns:sodipodi="http://sodipodi.sourceforge.net/DTD/sodipodi-0.dtd" xmlns:inkscape="http://www.inkscape.org/namespaces/inkscape" width="1024" height="768" id="svg2619" sodipodi:version="0.32" inkscape:version="0.46" version="1.0" sodipodi:modified="true"><defs id="defs2621"><inkscape:perspective sodipodi:type="inkscape:persp3d" inkscape:vp_x="0 : 384 : 1" inkscape:vp_y="0 : 1000 : 0" inkscape:vp_z="1024 : 384 : 1" inkscape:persp3d-origin="512 : 256 : 1" id="perspective277" /><filter inkscape:collect="always" id="filter4135"><feGaussianBlur inkscape:collect="always" stdDeviation="0.74662361" id="feGaussianBlur4137" /></filter><filter inkscape:collect="always" id="filter4006"><feGaussianBlur inkscape:collect="always" stdDeviation="1.6495597" id="feGaussianBlur4008" /></filter><linearGradient inkscape:collect="always" xlink:href="#linearGradient3312" id="linearGradient3538" gradientUnits="userSpaceOnUse" gradientTransform="matrix(1.091261,0,0,1.091261,79.238251,-55.750939)" x1="61.42857" y1="362.14285" x2="116.42857" y2="408.57144" /><filter inkscape:collect="always" id="filter3573"><feGaussianBlur inkscape:collect="always" stdDeviation="1.6284922" id="feGaussianBlur3575" /></filter><filter inkscape:collect="always" id="filter3469"><feGaussianBlur inkscape:collect="always" stdDeviation="2.7119931" id="feGaussianBlur3471" /></filter><filter inkscape:collect="always" id="filter3965"><feGaussianBlur inkscape:collect="always" stdDeviation="2.4743396" id="feGaussianBlur3967" /></filter><pattern inkscape:collect="always" xlink:href="#pattern4481" id="pattern4486" patternTransform="matrix(0.4295427,0,0,0.4295427,-4.3554687e-6,-4.3457032e-7)" /><pattern inkscape:collect="always" xlink:href="#pattern4467" id="pattern4481" patternTransform="matrix(0.4295427,0,0,0.4295427,-130.66779,-129.37468)" /><linearGradient id="linearGradient3588"><stop style="stop-color:#bfe699;stop-opacity:1;" offset="0" id="stop3590" /><stop style="stop-color:#313e24;stop-opacity:1;" offset="1" id="stop3592" /></linearGradient><linearGradient id="linearGradient3570"><stop id="stop3572" offset="0" style="stop-color:#e5ffcb;stop-opacity:1;" /><stop id="stop3574" offset="1" style="stop-color:#bfff80;stop-opacity:1;" /></linearGradient><linearGradient id="linearGradient3303"><stop style="stop-color:#bfff80;stop-opacity:1;" offset="0" id="stop3305" /><stop style="stop-color:#6a8b4a;stop-opacity:1;" offset="1" id="stop3307" /></linearGradient><linearGradient id="linearGradient3431"><stop id="stop3433" offset="0" style="stop-color:#3d3d3d;stop-opacity:1;" /><stop id="stop3435" offset="1" style="stop-color:#000000;stop-opacity:0.11400651;" /></linearGradient><linearGradient id="linearGradient3349"><stop style="stop-color:#d3d3d3;stop-opacity:1;" offset="0" id="stop3351" /><stop style="stop-color:#ffffff;stop-opacity:1;" offset="1" id="stop3353" /></linearGradient><linearGradient id="linearGradient3312"><stop style="stop-color:#c7f994;stop-opacity:1;" offset="0" id="stop3314" /><stop style="stop-color:#87cf3e;stop-opacity:1;" offset="1" id="stop3316" /></linearGradient><linearGradient inkscape:collect="always" xlink:href="#linearGradient3312" id="linearGradient3335" gradientUnits="userSpaceOnUse" x1="61.42857" y1="362.14285" x2="116.42857" y2="408.57144" /><linearGradient inkscape:collect="always" xlink:href="#linearGradient3349" id="linearGradient3374" gradientUnits="userSpaceOnUse" x1="140.66374" y1="424.33243" x2="67.175148" y2="348.57098" /><linearGradient inkscape:collect="always" xlink:href="#linearGradient3312" id="linearGradient3377" gradientUnits="userSpaceOnUse" x1="61.42857" y1="362.14285" x2="116.42857" y2="408.57144" gradientTransform="translate(0,-9.49911)" /><linearGradient inkscape:collect="always" xlink:href="#linearGradient3312" id="linearGradient3398" gradientUnits="userSpaceOnUse" gradientTransform="translate(0,-9.49911)" x1="61.42857" y1="362.14285" x2="116.42857" y2="408.57144" /><linearGradient inkscape:collect="always" xlink:href="#linearGradient3349" id="linearGradient3400" gradientUnits="userSpaceOnUse" x1="140.66374" y1="424.33243" x2="67.175148" y2="348.57098" /><linearGradient inkscape:collect="always" xlink:href="#linearGradient3312" id="linearGradient3416" gradientUnits="userSpaceOnUse" gradientTransform="matrix(1,0,0,-1,0,649.49911)" x1="61.42857" y1="362.14285" x2="116.42857" y2="408.57144" /><linearGradient inkscape:collect="always" xlink:href="#linearGradient3349" id="linearGradient2254" gradientUnits="userSpaceOnUse" x1="140.66374" y1="424.33243" x2="67.175148" y2="348.57098" /><linearGradient inkscape:collect="always" xlink:href="#linearGradient3431" id="linearGradient2259" gradientUnits="userSpaceOnUse" spreadMethod="pad" x1="70.491508" y1="416.38858" x2="113.64215" y2="375.87961" /><linearGradient inkscape:collect="always" xlink:href="#linearGradient3312" id="linearGradient2262" gradientUnits="userSpaceOnUse" gradientTransform="translate(0,-9.49911)" x1="61.42857" y1="362.14285" x2="116.42857" y2="408.57144" /><filter inkscape:collect="always" id="filter3291"><feGaussianBlur inkscape:collect="always" stdDeviation="0.400625" id="feGaussianBlur3293" /></filter><linearGradient inkscape:collect="always" xlink:href="#linearGradient3312" id="linearGradient3311" gradientUnits="userSpaceOnUse" gradientTransform="translate(0,-9.49911)" x1="61.42857" y1="362.14285" x2="116.42857" y2="408.57144" /><linearGradient inkscape:collect="always" xlink:href="#linearGradient3431" id="linearGradient3313" gradientUnits="userSpaceOnUse" spreadMethod="pad" x1="70.491508" y1="416.38858" x2="113.64215" y2="375.87961" /><linearGradient inkscape:collect="always" xlink:href="#linearGradient3349" id="linearGradient3315" gradientUnits="userSpaceOnUse" x1="140.66374" y1="424.33243" x2="67.175148" y2="348.57098" /><linearGradient inkscape:collect="always" xlink:href="#linearGradient3349" id="linearGradient3318" gradientUnits="userSpaceOnUse" x1="140.66374" y1="424.33243" x2="67.175148" y2="348.57098" /><filter inkscape:collect="always" id="filter3546"><feGaussianBlur inkscape:collect="always" stdDeviation="0.15992437" id="feGaussianBlur3548" /></filter><filter inkscape:collect="always" id="filter3558"><feGaussianBlur inkscape:collect="always" stdDeviation="0.25886071" id="feGaussianBlur3560" /></filter><linearGradient inkscape:collect="always" xlink:href="#linearGradient3588" id="linearGradient3737" gradientUnits="userSpaceOnUse" x1="26.795013" y1="216.34912" x2="149.90654" y2="323.98651" /><filter inkscape:collect="always" id="filter4363"><feGaussianBlur inkscape:collect="always" stdDeviation="2.410502" id="feGaussianBlur4365" /></filter><pattern patternUnits="userSpaceOnUse" width="256" height="256" patternTransform="translate(-297.8418,85.357452)" id="pattern4467"><image xlink:href="metal5.jpg" sodipodi:absref="/home/carlos/Desktop/metal5.jpg" width="256" height="256" id="image4464" x="0" y="0" /></pattern><pattern patternUnits="userSpaceOnUse" width="109.96293" height="109.96293" patternTransform="translate(-130.66779,-129.37468)" id="pattern4483"><rect id="rect4470" y="0" x="0" height="109.96293" width="109.96293" style="fill:url(#pattern4486);stroke:none" /></pattern><linearGradient inkscape:collect="always" xlink:href="#linearGradient3431" id="linearGradient2994" gradientUnits="userSpaceOnUse" gradientTransform="translate(0,80)" spreadMethod="pad" x1="70.491508" y1="416.38858" x2="113.64215" y2="375.87961" /><linearGradient inkscape:collect="always" xlink:href="#linearGradient3349" id="linearGradient3000" gradientUnits="userSpaceOnUse" gradientTransform="matrix(1.0484996,0,0,1.0484996,59.525242,85.095989)" x1="148.5945" y1="426.11398" x2="100.47015" y2="379.95963" /><linearGradient inkscape:collect="always" xlink:href="#linearGradient3312" id="linearGradient3006" gradientUnits="userSpaceOnUse" gradientTransform="matrix(1.0484996,0,0,1.0484996,59.525242,75.136176)" x1="61.42857" y1="362.14285" x2="116.42857" y2="408.57144" /><linearGradient inkscape:collect="always" xlink:href="#linearGradient3312" id="linearGradient4003" gradientUnits="userSpaceOnUse" gradientTransform="matrix(1.0484996,0,0,1.0484996,210.01137,213.49817)" x1="61.42857" y1="362.14285" x2="116.42857" y2="408.57144" /><linearGradient inkscape:collect="always" xlink:href="#linearGradient3431" id="linearGradient4005" gradientUnits="userSpaceOnUse" gradientTransform="translate(0,80)" spreadMethod="pad" x1="70.491508" y1="416.38858" x2="113.64215" y2="375.87961" /><linearGradient inkscape:collect="always" xlink:href="#linearGradient3349" id="linearGradient4007" gradientUnits="userSpaceOnUse" gradientTransform="matrix(1.0484996,0,0,1.0484996,210.01137,223.45798)" x1="148.5945" y1="426.11398" x2="100.47015" y2="379.95963" /><linearGradient inkscape:collect="always" xlink:href="#linearGradient3312" id="linearGradient2992" gradientUnits="userSpaceOnUse" gradientTransform="matrix(1.0417465,0,0,1.0417465,81.266854,19.855591)" x1="47.555698" y1="131.83339" x2="141.37427" y2="207.52625" /><linearGradient inkscape:collect="always" xlink:href="#linearGradient3431" id="linearGradient2995" gradientUnits="userSpaceOnUse" gradientTransform="translate(-11.825686,-215.33459)" spreadMethod="pad" x1="70.491508" y1="416.38858" x2="113.64215" y2="375.87961" /><linearGradient inkscape:collect="always" xlink:href="#linearGradient3349" id="linearGradient2997" gradientUnits="userSpaceOnUse" gradientTransform="matrix(1.0417465,0,0,1.0417465,81.266854,19.855591)" x1="93.412979" y1="209.62093" x2="95.111397" y2="116.20795" /><linearGradient inkscape:collect="always" xlink:href="#linearGradient3431" id="linearGradient2999" gradientUnits="userSpaceOnUse" gradientTransform="translate(0,80)" spreadMethod="pad" x1="70.491508" y1="416.38858" x2="113.64215" y2="375.87961" /><linearGradient inkscape:collect="always" xlink:href="#linearGradient3312" id="linearGradient3001" gradientUnits="userSpaceOnUse" gradientTransform="matrix(1.091261,0,0,1.091261,67.062859,-117.80387)" x1="61.42857" y1="362.14285" x2="116.42857" y2="408.57144" /><linearGradient inkscape:collect="always" xlink:href="#linearGradient3431" id="linearGradient3003" gradientUnits="userSpaceOnUse" gradientTransform="translate(0,80)" spreadMethod="pad" x1="70.491508" y1="416.38858" x2="113.64215" y2="375.87961" /><linearGradient inkscape:collect="always" xlink:href="#linearGradient3312" id="linearGradient3005" gradientUnits="userSpaceOnUse" gradientTransform="matrix(1.0417465,0,0,1.0417465,81.266854,19.855591)" x1="47.555698" y1="131.83339" x2="141.37427" y2="207.52625" /><linearGradient inkscape:collect="always" xlink:href="#linearGradient3431" id="linearGradient3007" gradientUnits="userSpaceOnUse" gradientTransform="translate(-11.825686,-215.33459)" spreadMethod="pad" x1="70.491508" y1="416.38858" x2="113.64215" y2="375.87961" /><linearGradient inkscape:collect="always" xlink:href="#linearGradient3349" id="linearGradient3009" gradientUnits="userSpaceOnUse" gradientTransform="matrix(1.0417465,0,0,1.0417465,81.266854,19.855591)" x1="93.412979" y1="209.62093" x2="95.111397" y2="116.20795" /><linearGradient inkscape:collect="always" xlink:href="#linearGradient3312" id="linearGradient2659" gradientUnits="userSpaceOnUse" gradientTransform="matrix(1.091261,0,0,1.091261,79.238251,-55.750939)" x1="61.42857" y1="362.14285" x2="116.42857" y2="408.57144" /><linearGradient inkscape:collect="always" xlink:href="#linearGradient3431" id="linearGradient2661" gradientUnits="userSpaceOnUse" gradientTransform="translate(0,80)" spreadMethod="pad" x1="70.491508" y1="416.38858" x2="113.64215" y2="375.87961" /></defs><sodipodi:namedview id="base" pagecolor="#333333" bordercolor="#666666" borderopacity="1.0" gridtolerance="10000" guidetolerance="10" objecttolerance="10" inkscape:pageopacity="1" inkscape:pageshadow="2" inkscape:zoom="0.71932516" inkscape:cx="434.88273" inkscape:cy="422.55322" inkscape:document-units="px" inkscape:current-layer="layer1" inkscape:window-width="1920" inkscape:window-height="1151" inkscape:window-x="0" inkscape:window-y="0" width="1024px" height="768px" showguides="true" inkscape:guide-bbox="true" showgrid="false" /><metadata id="metadata2624"><rdf:RDF><cc:Work rdf:about=""><dc:format>image/svg+xml</dc:format><dc:type rdf:resource="http://purl.org/dc/dcmitype/StillImage" /></cc:Work></rdf:RDF></metadata><g inkscape:label="Layer 1" inkscape:groupmode="layer" id="layer1"><g id="g2650" transform="matrix(6.5972926,0,0,6.5972926,-735.85177,-2072.0441)"><path sodipodi:nodetypes="ccccccccccccc" transform="matrix(1.0429295,0,0,1.0429295,-163.96565,-107.54293)" id="path3543" d="M 331.79042,510.93347 C 310.5003,510.93347 292.02462,494.79355 292.02462,473.52251 L 292.0055,451.53024 L 292.0055,444.9442 L 278.50774,444.9442 L 278.50774,408.2929 L 335.4281,408.56096 L 353.23367,408.59927 C 374.54293,408.59927 392.99946,424.71998 392.99946,446.01013 L 392.99946,510.93347 L 331.79042,510.93347 L 331.79042,510.93347 L 331.79042,510.93347 z" style="opacity:0.26000001;fill:#000000;fill-opacity:1;fill-rule:evenodd;stroke:none;stroke-width:1;stroke-linecap:butt;stroke-linejoin:miter;marker:none;marker-start:none;marker-mid:none;marker-end:none;stroke-miterlimit:4;stroke-dasharray:none;stroke-dashoffset:0;stroke-opacity:1;visibility:visible;display:inline;overflow:visible;filter:url(#filter3573);enable-background:accumulate" /><path sodipodi:nodetypes="cccccccsccccc" id="path2576" d="M 237.71259,407.73851 C 237.71259,393.01827 237.71259,358.2933 237.71259,358.2933 C 237.71259,341.77424 223.22599,328.3835 205.35182,328.3835 L 186.80016,328.3835 L 186.80016,328.34364 L 136.62498,328.1244 L 136.62498,346.16533 C 136.62498,346.16533 140.72184,346.16533 144.32718,346.16533 C 149.70349,346.16533 150.65327,349.87669 150.65327,355.01364 L 150.69314,386.90796 C 150.69314,403.42703 165.1798,416.81775 183.03402,416.81775 L 227.11605,416.81775 C 232.7674,416.81775 237.71259,413.2388 237.71259,407.73851 z" style="fill:url(#linearGradient2659);fill-opacity:1;fill-rule:evenodd;display:inline" /><path transform="matrix(1.0484996,0,0,1.0484996,83.467541,-112.89106)" sodipodi:nodetypes="cccccsccccc" id="path3419" d="M 142.9375,500.53125 C 132.18568,493.1219 124.57068,484.61091 118.15625,473.34375 C 105.51181,449.98566 108.46834,438.39049 77.15625,435.65625 C 68.119961,435.65625 62.105033,433.65625 52.59375,433.65625 L 52.59375,436.96875 C 52.593751,436.96876 56.352431,438.87624 59.65625,438.87624 C 64.582947,438.87625 65.4375,442.29389 65.4375,447.00124 L 65.46875,476.15625 C 65.468747,491.29383 78.763908,503.5625 95.125,503.5625 L 135.5,503.5625 C 138.46358,503.5625 141.12572,502.39463 142.9375,500.53125 z" style="opacity:0.17514122;fill:url(#linearGradient2661);fill-opacity:1;fill-rule:nonzero;display:inline;filter:url(#filter3291)" /><path transform="matrix(1.0484996,0,0,1.0484996,83.467541,-112.89106)" sodipodi:nodetypes="csccccsssccccsssccccccccccccccccsscc" id="path2620" d="M 105.51844,438.54009 C 101.68173,438.54009 98.272696,439.96454 95.533603,442.73149 C 92.795878,445.49697 91.358403,448.94945 91.358413,452.8457 L 91.358413,472.54036 L 100.29137,472.54036 L 100.29137,452.8457 C 100.29137,451.35232 100.77865,450.18462 101.84492,449.10752 C 102.91469,448.02697 104.04752,447.53781 105.51844,447.53781 C 107.02019,447.53781 108.13602,448.02451 109.20813,449.10752 C 110.27441,450.18462 110.76169,451.35232 110.76169,452.8457 L 110.76169,472.54036 L 119.69466,472.54036 L 119.69466,452.8457 C 119.69466,451.35232 120.18194,450.18462 121.24822,449.10752 C 122.32033,448.02451 123.43616,447.53781 124.93793,447.53781 C 126.40886,447.53781 127.54166,448.02697 128.61143,449.10752 C 129.6777,450.18462 130.16499,451.35232 130.16499,452.8457 L 130.21354,475.85792 C 130.21354,480.76686 125.53868,484.9041 119.53283,484.9041 L 90.727281,484.79084 C 86.092574,484.79084 82.134153,480.27967 82.134153,474.48232 L 82.134153,431.14704 L 73.686691,431.14704 L 73.686691,476.14913 C 73.686691,480.92384 75.433872,485.11091 78.832855,488.49673 C 81.738048,491.36433 85.231929,493.06118 89.157544,493.481 L 89.157544,493.64291 L 121.23203,493.64291 C 126.16075,493.64291 130.49087,491.81026 133.98415,488.25387 L 134.00035,488.25387 C 136.97137,485.20142 138.70822,481.54389 139.13032,477.42763 L 139.09796,452.8457 C 139.09796,448.94945 137.66052,445.49697 134.92275,442.73149 C 132.18369,439.96454 128.77463,438.54009 124.93793,438.54009 C 121.17189,438.54009 117.8766,439.94051 115.212,442.50488 C 112.55519,439.94474 109.28292,438.54009 105.51844,438.54009 z" style="fill:#000000;fill-opacity:0.08040203;fill-rule:evenodd;stroke:none;stroke-width:4.7667098;stroke-linecap:butt;stroke-linejoin:miter;marker:none;marker-start:none;marker-mid:none;marker-end:none;stroke-miterlimit:4;stroke-dasharray:none;stroke-dashoffset:0;stroke-opacity:1;visibility:visible;display:inline;overflow:visible;filter:url(#filter3546);enable-background:accumulate" /><path id="path4130" d="M 193.35561,347.16391 C 189.33282,347.16391 185.75845,348.65744 182.88651,351.55859 C 180.016,354.45819 178.50881,358.07812 178.50882,362.16333 L 178.50882,382.81318 L 187.87503,382.81318 L 187.87503,362.16333 C 187.87503,360.59753 188.38594,359.37319 189.50392,358.24385 C 190.62558,357.1109 191.81335,356.59801 193.35561,356.59801 C 194.93019,356.59801 196.10014,357.10832 197.22425,358.24385 C 198.34224,359.37319 198.85316,360.59753 198.85316,362.16333 L 198.85316,382.81318 L 208.21936,382.81318 L 208.21936,362.16333 C 208.21936,360.59753 208.73028,359.37319 209.84828,358.24385 C 210.97238,357.10832 212.14233,356.59801 213.71694,356.59801 C 215.25921,356.59801 216.44695,357.1109 217.56859,358.24385 C 218.68658,359.37319 219.1975,360.59753 219.1975,362.16333 L 219.2484,386.29164 C 219.2484,391.43866 214.34681,395.77655 208.04968,395.77655 L 177.84708,395.6578 C 172.98759,395.6578 168.83719,390.92784 168.83719,384.84932 L 168.83719,339.4123 L 159.98003,339.4123 L 159.98003,386.59697 C 159.98003,391.60325 161.81195,395.99339 165.37578,399.54343 C 168.42187,402.5501 172.08521,404.49909 176.2012,404.93927 L 209.8313,404.93919 C 214.99906,404.93919 219.53918,403.01766 223.20189,399.28879 L 223.21888,399.28879 C 226.33398,396.08829 228.15508,392.25338 228.59765,387.93748 L 228.56371,362.16333 C 228.56371,358.07812 227.05657,354.45819 224.18602,351.55859 C 221.31411,348.65744 217.73971,347.16391 213.71694,347.16391 C 209.76825,347.16391 206.31314,348.63225 203.5193,351.32099 C 200.73363,348.63668 197.30267,347.16391 193.35561,347.16391 z" style="fill:#ffffff;fill-opacity:1;fill-rule:evenodd;stroke:none;stroke-width:1;stroke-linecap:butt;stroke-linejoin:miter;marker:none;marker-start:none;marker-mid:none;marker-end:none;stroke-miterlimit:4;stroke-dashoffset:0;stroke-opacity:1;visibility:visible;display:inline;overflow:visible;enable-background:accumulate" sodipodi:nodetypes="csccccsssccccssscccccccccccccccsscc" /><path id="path4132" d="M 187.84765,395.68919 L 187.84765,404.93919 L 209.84765,404.93919 C 215.01539,404.93919 219.52869,403.01181 223.19139,399.28294 L 223.22265,399.28294 C 226.33776,396.08243 228.15508,392.25509 228.59765,387.93919 L 228.59765,382.68919 L 219.2539,382.68919 L 219.2539,386.28294 C 219.2539,391.42999 214.36352,395.75169 208.06639,395.75169 L 187.84765,395.68919 z" style="opacity:0.3;fill:#52a800;fill-opacity:1;fill-rule:evenodd;stroke:none;stroke-width:1;stroke-linecap:butt;stroke-linejoin:miter;marker:none;marker-start:none;marker-mid:none;marker-end:none;stroke-miterlimit:4;stroke-dashoffset:0;stroke-opacity:1;visibility:visible;display:inline;overflow:visible;enable-background:accumulate" /><path sodipodi:nodetypes="ccccccccccccccccccccsccccc" d="M 182.74092,423.66488 C 161.4508,423.66488 142.97513,407.52496 142.97513,386.25392 L 142.956,360.42629 L 142.956,353.84026 L 129.45825,353.84026 L 129.45825,321.02431 L 186.3786,321.29237 L 204.18418,321.33068 C 225.49343,321.33068 243.94996,337.45139 243.94996,358.74153 L 243.94996,423.66488 L 182.74092,423.66488 L 182.74092,423.66488 L 182.74092,423.66488 z M 235.27688,406.24921 C 235.27688,392.10579 235.27688,358.74153 235.27688,358.74153 C 235.27688,342.86978 221.35795,330.00376 204.18418,330.00376 L 186.35947,330.00376 L 186.35947,329.96546 L 138.15044,329.75481 L 138.15044,345.16718 C 138.15044,345.16718 140.08675,345.16718 143.55081,345.16718 C 147.21721,345.16718 151.62901,348.61265 151.62901,353.66876 L 151.66732,386.23492 C 151.66732,402.10668 165.58632,414.97268 182.74092,414.97268 L 225.09557,414.97268 C 230.52546,414.97268 235.27688,411.53397 235.27688,406.24921 z" style="fill:#ffffff;fill-opacity:1;fill-rule:evenodd;stroke:none;stroke-width:1;stroke-linecap:butt;stroke-linejoin:miter;marker:none;marker-start:none;marker-mid:none;marker-end:none;stroke-miterlimit:4;stroke-dashoffset:0;stroke-opacity:1;visibility:visible;display:inline;overflow:visible;enable-background:accumulate" id="path6141" /></g></g></svg> 