<svg id="Layer_1" xmlns="http://www.w3.org/2000/svg" viewBox="0 0 300 147.1"><style>.st0{fill:#FFFFFF;}</style><path class="st0" d="M61.6 63.8V0h10.2v54.6h14.7v9.2H61.6zM93.5 63.8V0h10.2v63.8H93.5zM130.4 9.3v54.5h-10.2V9.3h-9.9V0H140v9.3h-9.6zM164.6 9.3v54.5h-10.2V9.3h-9.9V0h29.7v9.3h-9.6zM181.1 63.8V0h10.2v54.6H206v9.2h-24.9zM212.9 63.8V0h25.5v9H223v17.6h10.6V35H223v19.5h15.3v9.3h-25.4z"/><g><path class="st0" d="M32.2 145.9V98.5l-2 13.4-5.9 34h-7.7l-5.7-34L9 98.5v47.4H0V82.1h13.7l5.6 32.3 1.7 12.4 1.8-12.4 5.5-32.3h13.5v63.8h-9.6zM65.9 147.1c-9.2 0-15.2-6.2-15.2-15.1V96.1c0-8.8 6-15.1 15.2-15.1s15.2 6.3 15.2 15.1V132c.1 8.9-6 15.1-15.2 15.1zm5-51.8c0-3.1-1.8-5.2-5-5.2s-5 2.1-5 5.2v37.4c0 3.1 1.8 5.2 5 5.2s5-2.1 5-5.2V95.3zM113.5 145.9L102.7 117l-3.5-9.8v38.7H90V82.1h9l10 29.2 3.3 9.9V82.1h9.1v63.8h-7.9zM144.2 147.1c-9.2 0-15-5.7-15-14.7v-5.7h9.3v5.5c0 4 1.8 6.3 5.4 6.3 3.6 0 5.4-2.2 5.4-5.8 0-5.6-2.8-9.7-8.1-15.3-5.3-5.3-11.4-12.7-11.4-20.9 0-8.6 5-15.6 14.9-15.6 8.5 0 14.1 5.9 14.1 14.7v5.8h-9.2v-5.8c0-3.5-1.6-5.9-4.9-5.9-3 0-5 1.9-5 5.2 0 6.2 2.8 9.3 8.7 15.6 6.2 6.4 10.8 12.8 10.8 20.9-.1 10.1-6.7 15.7-15 15.7zM183.8 91.4v54.5h-10.2V91.4h-9.9v-9.3h29.7v9.3h-9.6zM200.3 145.9V82.1h25.5v9h-15.3v17.6h10.6v8.4h-10.6v19.5h15.3v9.3h-25.5zM258.4 146.2c-3.9 0-5.5-3.8-5.5-8.8v-13.7c0-2.6-1.3-4.7-4.1-4.7h-5v26.9h-10.2V82.1H250c7.1 0 12.6 3.9 12.6 12.6V106c0 4.3-1.9 7.5-6 9 4.1 1.4 6.2 4.9 6.2 8.8v13c0 2.9.7 4.9 1.9 6.5v2.9h-6.3zM252.6 95c0-2.7-1.1-4.1-3.5-4.1h-5.3v20.2h4.9c2.5 0 3.8-1.4 3.8-4.5V95zM285 147.1c-9.2 0-15-5.7-15-14.7v-5.7h9.3v5.5c0 4 1.8 6.3 5.4 6.3 3.6 0 5.4-2.2 5.4-5.8 0-5.6-2.8-9.7-8.1-15.3-5.3-5.3-11.4-12.7-11.4-20.9 0-8.6 5-15.6 14.9-15.6 8.5 0 14.1 5.9 14.1 14.7v5.8h-9.2v-5.8c0-3.5-1.6-5.9-4.9-5.9-3 0-5 1.9-5 5.2 0 6.2 2.8 9.3 8.7 15.6 6.2 6.4 10.8 12.8 10.8 20.9 0 10.1-6.6 15.7-15 15.7z"/></g></svg>