<svg version="1.2" baseProfile="tiny" id="Layer_1" xmlns="http://www.w3.org/2000/svg" xmlns:xlink="http://www.w3.org/1999/xlink" x="0px" y="0px" width="223.11px" height="90.084px" viewBox="0 0 223.11 90.084" xml:space="preserve"><path fill="#F6FBFB" d="M166.93,0.834c6.13-1.42,13.23-1.16,18.43,2.78c2.17,1.64,3.33,4.16,4.55,6.52 c-1.88,0.73-3.76,1.43-5.66,2.07c-1.75-2.92-3.51-6.7-7.33-7.14c-5.65-0.9-9.91,4.55-11.02,9.52c-1.46,6.19,0.24,14.28,6.45,17.23 c1.73,1.02,3.7,0.52,5.52,0.1c0.7-4.47,0.44-9,0.46-13.51c3.62,0.05,7.24,0.06,10.86,0.01c0.24,6.19,0.31,12.41-0.08,18.59 c-2.03-0.37-3.97-1.08-5.98-1.54c-5.08,1.69-10.6,2.8-15.86,1.22c-7.76-2.02-13.51-9.71-13.21-17.73 C153.65,10.915,158.99,2.834,166.93,0.834L166.93,0.834z"/><path fill="#F8FCFB" d="M96.18,46.754c5.38-1.12,11.58-1.06,16.11,2.46c5.35,4.04,7.65,11.1,7.25,17.62 c-0.54,7.78-3.66,15.4-8.74,21.32c-0.94,1.3-2.55,1.64-4.02,1.93c-1.11-0.86-2.23-1.69-3.34-2.52c4.72-7.99,5.51-17.59,5.1-26.68 c-0.23-3.3-0.88-7.1-3.72-9.2c-2.75-1.89-6.57-0.26-7.89,2.59c-2.26,4.73-1.58,10.17-1.49,15.25c3.46-0.02,6.92-0.03,10.38,0.01 c0,1.55,0.01,3.11,0.03,4.66c-3.49,0.01-6.97,0.03-10.45,0.03c-0.08,2.82-0.12,5.64-0.15,8.46c-3.68-0.03-7.35-0.02-11.02,0.04 c0.09-8.81-1.11-17.85,1.16-26.47l0.27-0.79C88.21,51.645,91.48,47.765,96.18,46.754L96.18,46.754z"/><path fill="#F8FEFD" d="M0,0.774c3.75-0.08,7.51-0.06,11.27,0.01c0.08,10.19,0.06,20.38,0,30.57c5.17,0.24,10.36,0.16,15.53,0.04 c0,1.74,0.01,3.48,0,5.23c-8.9,0.21-17.82-0.35-26.71,0.31C0.09,24.885,0.22,12.825,0,0.774L0,0.774z"/><path fill="#FAFDFB" d="M77.13,0.794c2.89-0.01,5.78-0.02,8.67-0.02c-0.16,0.79-0.48,2.38-0.64,3.18 c-1.9,7.22-2.47,14.86-1.27,22.24c0.48,3.09,2.66,6.66,6.19,6.46c3.84-0.18,5.69-4.28,6.13-7.59c0.91-1.17,0.28-2.73,0.5-4.06 c-0.18-6.74-0.12-13.49,0-20.23c3.74-0.08,7.48-0.06,11.22,0.07l-0.02,0.98c-0.25,6.34,0.08,12.7-0.19,19.04 c-0.23,6.75-4.51,13.44-11.06,15.59c-5.53,1.74-12.11,1.43-16.86-2.15c-5.43-3.85-7.4-10.71-7.59-17.06 C72.63,11.455,74.62,5.964,77.13,0.794L77.13,0.794z"/><path fill="#F8FCFB" d="M115.16,0.734c2.55,0.02,5.14-0.26,7.66,0.28c6.88,7.1,13.01,14.93,19.94,22.01 c0.25-7.38-0.24-14.77,0.24-22.14c1.82-0.08,3.64-0.14,5.47-0.2c0.04,12.04,0.16,24.08-0.07,36.11c-3.05-0.41-7.02,0.86-9.18-1.96 c-6.07-6.7-11.68-13.82-18.09-20.2c0.06,7.33-0.4,14.68,0.22,22c-2.07,0.02-4.13,0.05-6.2,0.11 C115.02,24.745,115.06,12.734,115.16,0.734L115.16,0.734z"/><path fill="#F7FCFC" d="M196.17,0.734c8.97-0.12,17.96,0.08,26.94-0.12l-0.08,1c-0.11,1.42-0.21,2.85-0.29,4.28 c-5.14,0.04-10.27,0.05-15.41,0.09c0.02,3.39,0,6.78,0,10.17c1.48,0.01,2.96,0.03,4.45,0.05c2.62-0.01,5.24,0.04,7.87,0.05 c-0.22,1.69-0.36,3.38-0.5,5.08c-3.93,0.12-7.86,0.11-11.79,0.03c0,3.39-0.02,6.79-0.02,10.18c5.18-0.11,10.35-0.15,15.52,0.08 c-0.04,1.68-0.06,3.36-0.08,5.04c-8.87,0.02-17.74-0.03-26.61,0.04C195.97,24.714,196.08,12.725,196.17,0.734L196.17,0.734z"/><g><path fill="#F8FCFC" d="M65.91,10.175c-5.02-10.5-19.08-12.15-28.9-8.23c-11.13,4.8-12.84,20.729-5.61,29.56 c8.71,8.3,25.11,8.33,32.61-1.58C68.2,24.234,67.78,16.645,65.91,10.175z M55.77,20.995c-0.33,3.94-1.47,8.42-5.2,10.48 c-2.27,1.64-5.41,1.3-7.54-0.4c-4.54-3-4.57-9.13-4.51-13.99c0.17-4.65,1.6-10.72,6.85-11.93c3.08-0.84,6.6,0.63,8.21,3.38 C55.81,12.245,56.01,16.774,55.77,20.995z"/></g><g><path fill="#F8FCFB" d="M76.64,55.145c-2.9-5.6-9.21-8.77-15.36-8.98c-6.18-0.53-12.88,0.56-17.61,4.85 c-7.94,8.32-6.76,24.44,3.94,29.92c8.53,4.19,20.43,3.52,27.01-3.92C79.75,71.055,79.86,62.044,76.64,55.145z M67.28,66.984 c-0.21,3.99-1.57,8.35-5.22,10.47c-3.6,2.6-8.71,0.1-10.39-3.6c-1.97-4.64-2.04-9.93-1.17-14.83c0.56-3.13,2.23-6.52,5.43-7.6 c3.29-1.34,7.25,0.13,9.11,3.09C67.37,58.205,67.49,62.765,67.28,66.984z"/></g><g><path fill="#F8FCFC" d="M146.46,69.584c3.37-1.63,7.061-3.31,8.98-6.73c2.359-3.57,1.25-8.02,0.199-11.83 c-2.68-1.96-5.55-3.91-8.979-4.04c-7.04-0.58-14.12-0.11-21.17-0.26c0.1,11.46,0.13,22.91,0,34.37c0.01,0.41,0.02,1.24,0.02,1.66 c3.74-0.05,7.49-0.11,11.23-0.08c0.07-4.69-0.05-9.4,0.399-14.07c2.32,4.8,4.04,9.98,7.591,14.09 c4.699-0.06,9.409,0.01,14.119-0.11C154.32,78.645,149.8,74.615,146.46,69.584z M136.78,65.415c0.03-4.86,0-9.72,0.06-14.58 c2.73,0.25,6.49,0.07,7.88,2.97C147.66,59.055,143.21,66.995,136.78,65.415z"/></g><g><path fill="#F8FDFC" d="M191.11,50.445c-8.391-5.94-19.2-2.94-28.74-3.86l0.04,0.93c0.51,11.73-0.14,23.47,0.26,35.2 c9.54-0.81,20.45,2.33,28.7-3.97C200.53,72.245,200.32,56.834,191.11,50.445z M182.94,75.314c-2.25,2.56-5.74,3.14-8.95,3.46 c-0.4-9.31-0.09-18.63-0.13-27.95c3.109,0.22,6.729,0.34,8.92,2.93C188.08,59.515,188.22,69.495,182.94,75.314z"/></g><g><path fill="#F8FDFC" d="M33.99,69.385c-0.89-3.07-3.98-4.59-6.37-6.36c3.02-2.29,6.25-5.73,4.93-9.86 c-1.18-4.46-6.18-5.8-10.16-6.42c-7.31-0.08-14.62,0.02-21.92,0.02c0.24,12.04,0.2,24.09,0.03,36.14 c7.35-0.57,14.73-0.04,22.09-0.26c4.02-0.03,8.19-1.71,10.49-5.12C34.74,75.174,34.57,72.064,33.99,69.385z M11.8,50.955 c2.43,0.08,4.98-0.26,7.31,0.62c2.55,1.63,3,5.69,1.01,7.91c-2.17,2.09-5.36,1.96-8.14,2.16C11.77,58.084,11.8,54.515,11.8,50.955z M21.28,76.705c-2.54,2.37-6.24,1.7-9.39,1.92c-0.1-4.29-0.08-8.59-0.11-12.89c3.17,0.12,6.92-0.83,9.55,1.48 C23.64,69.845,23.68,74.115,21.28,76.705z"/></g></svg>