<svg version="1.2" baseProfile="tiny" xmlns="http://www.w3.org/2000/svg" width="223.11" height="90.084"><path fill="#F6FBFB" d="M166.93.834c6.13-1.42 13.23-1.16 18.43 2.78 2.17 1.64 3.33 4.16 4.55 6.52-1.88.73-3.76 1.43-5.66 2.07-1.75-2.92-3.51-6.7-7.33-7.14-5.65-.9-9.91 4.55-11.02 9.52-1.46 6.19.24 14.28 6.45 17.23 1.73 1.02 3.7.52 5.52.1.7-4.47.44-9 .46-13.51 3.62.05 7.24.06 10.86.01.24 6.19.31 12.41-.08 18.59-2.03-.37-3.97-1.08-5.98-1.54-5.08 1.69-10.6 2.8-15.86 1.22-7.76-2.02-13.51-9.71-13.21-17.73-.41-8.039 4.93-16.12 12.87-18.12z"/><path fill="#F8FCFB" d="M96.18 46.754c5.38-1.12 11.58-1.06 16.11 2.46 5.35 4.04 7.65 11.1 7.25 17.62-.54 7.78-3.66 15.4-8.74 21.32-.94 1.3-2.55 1.64-4.02 1.93-1.11-.86-2.23-1.69-3.34-2.52 4.72-7.99 5.51-17.59 5.1-26.68-.23-3.3-.88-7.1-3.72-9.2-2.75-1.89-6.57-.26-7.89 2.59-2.26 4.73-1.58 10.17-1.49 15.25 3.46-.02 6.92-.03 10.38.01 0 1.55.01 3.11.03 4.66-3.49.01-6.97.03-10.45.03-.08 2.82-.12 5.64-.15 8.46-3.68-.03-7.35-.02-11.02.04.09-8.81-1.11-17.85 1.16-26.47l.27-.79c2.55-3.819 5.82-7.699 10.52-8.71z"/><path fill="#F8FEFD" d="M0 .774c3.75-.08 7.51-.06 11.27.01.08 10.19.06 20.38 0 30.57 5.17.24 10.36.16 15.53.04 0 1.74.01 3.48 0 5.23-8.9.21-17.82-.35-26.71.31C.09 24.885.22 12.825 0 .774z"/><path fill="#FAFDFB" d="M77.13.794c2.89-.01 5.78-.02 8.67-.02l-.64 3.18c-1.9 7.22-2.47 14.86-1.27 22.24.48 3.09 2.66 6.66 6.19 6.46 3.84-.18 5.69-4.28 6.13-7.59.91-1.17.28-2.73.5-4.06-.18-6.74-.12-13.49 0-20.23 3.74-.08 7.48-.06 11.22.07l-.02.98c-.25 6.34.08 12.7-.19 19.04-.23 6.75-4.51 13.44-11.06 15.59-5.53 1.74-12.11 1.43-16.86-2.15-5.43-3.85-7.4-10.71-7.59-17.06.42-5.789 2.41-11.28 4.92-16.45z"/><path fill="#F8FCFB" d="M115.16.734c2.55.02 5.14-.26 7.66.28 6.88 7.1 13.01 14.93 19.94 22.01.25-7.38-.24-14.77.24-22.14 1.82-.08 3.64-.14 5.47-.2.04 12.04.16 24.08-.07 36.11-3.05-.41-7.02.86-9.18-1.96-6.07-6.7-11.68-13.82-18.09-20.2.06 7.33-.4 14.68.22 22-2.07.02-4.13.05-6.2.11-.13-11.999-.09-24.01.01-36.01z"/><path fill="#F7FCFC" d="M196.17.734c8.97-.12 17.96.08 26.94-.12l-.08 1c-.11 1.42-.21 2.85-.29 4.28-5.14.04-10.27.05-15.41.09.02 3.39 0 6.78 0 10.17 1.48.01 2.96.03 4.45.05 2.62-.01 5.24.04 7.87.05-.22 1.69-.36 3.38-.5 5.08-3.93.12-7.86.11-11.79.03 0 3.39-.02 6.79-.02 10.18 5.18-.11 10.35-.15 15.52.08-.04 1.68-.06 3.36-.08 5.04-8.87.02-17.74-.03-26.61.04-.2-11.99-.09-23.979 0-35.97z"/><path fill="#F8FCFC" d="M65.91 10.175c-5.02-10.5-19.08-12.15-28.9-8.23-11.13 4.8-12.84 20.729-5.61 29.56 8.71 8.3 25.11 8.33 32.61-1.58 4.19-5.691 3.77-13.28 1.9-19.75zm-10.14 10.82c-.33 3.94-1.47 8.42-5.2 10.48-2.27 1.64-5.41 1.3-7.54-.4-4.54-3-4.57-9.13-4.51-13.99.17-4.65 1.6-10.72 6.85-11.93 3.08-.84 6.6.63 8.21 3.38 2.23 3.71 2.43 8.239 2.19 12.46z"/><path fill="#F8FCFB" d="M76.64 55.145c-2.9-5.6-9.21-8.77-15.36-8.98-6.18-.53-12.88.56-17.61 4.85-7.94 8.32-6.76 24.44 3.94 29.92 8.53 4.19 20.43 3.52 27.01-3.92 5.13-5.96 5.24-14.971 2.02-21.87zm-9.36 11.839c-.21 3.99-1.57 8.35-5.22 10.47-3.6 2.6-8.71.1-10.39-3.6-1.97-4.64-2.04-9.93-1.17-14.83.56-3.13 2.23-6.52 5.43-7.6 3.29-1.34 7.25.13 9.11 3.09 2.33 3.691 2.45 8.251 2.24 12.47z"/><path fill="#F8FCFC" d="M146.46 69.584c3.37-1.63 7.061-3.31 8.98-6.73 2.359-3.57 1.25-8.02.199-11.83-2.68-1.96-5.55-3.91-8.979-4.04-7.04-.58-14.12-.11-21.17-.26.1 11.46.13 22.91 0 34.37.01.41.02 1.24.02 1.66 3.74-.05 7.49-.11 11.23-.08.07-4.69-.05-9.4.399-14.07 2.32 4.8 4.04 9.98 7.591 14.09 4.699-.06 9.409.01 14.119-.11-4.529-3.939-9.049-7.969-12.389-13zm-9.68-4.169c.03-4.86 0-9.72.06-14.58 2.73.25 6.49.07 7.88 2.97 2.94 5.25-1.51 13.19-7.94 11.61z"/><path fill="#F8FDFC" d="M191.11 50.445c-8.391-5.94-19.2-2.94-28.74-3.86l.04.93c.51 11.73-.14 23.47.26 35.2 9.54-.81 20.45 2.33 28.7-3.97 9.16-6.5 8.95-21.911-.26-28.3zm-8.17 24.869c-2.25 2.56-5.74 3.14-8.95 3.46-.4-9.31-.09-18.63-.13-27.95 3.109.22 6.729.34 8.92 2.93 5.3 5.761 5.44 15.741.16 21.56zM33.99 69.385c-.89-3.07-3.98-4.59-6.37-6.36 3.02-2.29 6.25-5.73 4.93-9.86-1.18-4.46-6.18-5.8-10.16-6.42-7.31-.08-14.62.02-21.92.02.24 12.04.2 24.09.03 36.14 7.35-.57 14.73-.04 22.09-.26 4.02-.03 8.19-1.71 10.49-5.12 1.66-2.351 1.49-5.461.91-8.14zM11.8 50.955c2.43.08 4.98-.26 7.31.62 2.55 1.63 3 5.69 1.01 7.91-2.17 2.09-5.36 1.96-8.14 2.16-.21-3.561-.18-7.13-.18-10.69zm9.48 25.75c-2.54 2.37-6.24 1.7-9.39 1.92-.1-4.29-.08-8.59-.11-12.89 3.17.12 6.92-.83 9.55 1.48 2.31 2.63 2.35 6.9-.05 9.49z"/></svg>