<svg xmlns="http://www.w3.org/2000/svg" xmlns:xlink="http://www.w3.org/1999/xlink" x="0px" y="0px" width="317.366px" height="64.891px" viewBox="0 0 317.366 64.891" xml:space="preserve"><path fill-rule="evenodd" fill="#FAA61A" d="M234.312,54.92c-0.021,1.73-1.822,3.481-4.424,3.481c-2.632,0-4.271-1.925-4.271-3.625 v-2.929c0.031-1.762,1.669-3.595,4.332-3.595c2.919,0,4.362,1.977,4.362,3.82V54.92L234.312,54.92z"/><path fill="#FFFFFF" d="M190.398,6.285c0,1.8-1.813,3.29-4.403,3.29c-2.632,0-4.271-1.794-4.271-3.495V3.748 C181.755,1.977,183.291,0,185.954,0c2.929,0,4.444,1.897,4.444,3.748V6.285L190.398,6.285z"/><path fill-rule="evenodd" fill="#FAA61A" d="M31.034,16.001c4.913,0,9.532,2.187,12.924,5.584v0.023 c0-1.641,1.108-2.875,2.622-2.875h0.389c2.373,0,2.877,2.255,2.877,2.972l0.01,25.39c-0.171,1.659,1.715,2.509,2.765,1.444 c4.073-4.199,8.935-21.532-2.537-31.594c-10.712-9.36-25.075-7.814-32.7-2.55C9.254,19.998,4.046,32.39,9.113,44.033 C14.6,56.732,30.358,60.521,39.705,56.742c4.736-1.914,6.928,4.496,2.005,6.596c-7.43,3.154-28.127,2.837-37.799-13.907 c-6.529-11.306-6.178-31.202,11.142-41.52c13.259-7.896,30.73-5.694,41.253,5.302c11.027,11.508,10.382,33.042-0.355,41.43 c-4.87,3.799-12.118,0.092-12.049-5.448l-0.069-1.813c-3.375,3.358-7.886,5.325-12.799,5.325c-9.706,0-18.262-8.552-18.262-18.244 C12.771,24.652,21.328,16.001,31.034,16.001L31.034,16.001z M43.256,33.757c-0.371-7.115-5.653-11.385-12.013-11.385h-0.246 c-7.361,0-11.437,5.791-11.437,12.353c0,7.353,4.934,12.002,11.393,12.002c7.22,0,11.972-5.284,12.302-11.531V33.757L43.256,33.757z "/><path fill="#FFFFFF" d="M111.876,13.449c-5.343-0.08-9.417,3.008-11.938,5.077c-2.793-3-6.377-4.836-10.057-5.051 c-3.881-0.241-7.52,1.063-9.826,2.937c-0.819-1.874-1.887-2.99-3.717-2.99c-2.013,0-4.132,1.726-4.132,4.526 c0,2.786,0.021,36.245,0.021,36.245c0,2.09,1.771,4.179,4.306,4.179c2.811,0,4.355-2.13,4.355-4.188V27.285 c0-2.609,4.475-5.714,8.254-5.666c2.422,0.036,5.284,2.412,5.284,6.175l0.021,26.45c0,2.335,2.355,4.127,4.491,4.127 c2.537,0,4.45-1.915,4.45-4.106V27.538c0-3.272,4.977-6.017,8.385-5.843c2.675,0.144,5.039,3.052,5.039,5.843v26.695 c0,2.305,2.161,4.138,4.511,4.138c2.051,0,4.419-1.362,4.419-4.179V27.627C125.778,17.868,116.139,13.316,111.876,13.449 L111.876,13.449z"/><path fill="#FFFFFF" d="M186.036,13.416c-2.622,0.005-4.302,2.151-4.302,4.312l0.011,36.415c-0.021,2.427,1.904,4.229,4.26,4.229 c2.693,0,4.414-2.109,4.414-4.403l0.031-36.177C190.45,15.646,188.278,13.416,186.036,13.416L186.036,13.416z"/><path fill="#FFFFFF" d="M170.91,13.421c-2.447,0-4.168,1.966-4.168,3.876v1.48c-3.871-3.277-8.876-5.328-14.276-5.328 c-11.882-0.028-22.384,9.977-22.384,22.494c0,11.48,10.016,22.428,22.384,22.428c5.005,0,10.395-1.915,14.215-5.172l0.021,1.055 c0,2.038,1.607,4.117,4.26,4.117c3.021,0,4.363-2.387,4.363-4.302V17.522C175.354,15.807,173.48,13.421,170.91,13.421L170.91,13.421 z M152.591,50.065c-7.824,0-14.163-6.339-14.163-14.174c0-7.816,6.339-14.152,14.163-14.152c7.822,0,14.171,6.336,14.171,14.152 C166.763,43.727,160.413,50.065,152.591,50.065L152.591,50.065z"/><path fill="#FFFFFF" d="M215.837,49.677c-5.51,0-10.415-4.25-10.415-10.497V7.486c0-2.402-1.956-4.074-4.353-4.074 c-2.775,0.01-4.362,2.041-4.362,4.074v31.734c-0.03,10.753,8.858,19.181,18.977,19.181c3.011,0,4.455-2.447,4.455-4.506 C220.139,51.93,218.592,49.677,215.837,49.677L215.837,49.677z"/><path fill-rule="evenodd" fill="#FAA61A" d="M262.771,13.416c-12.136,0.049-22.479,10.75-22.417,22.507v18.342 c0,2.386,1.956,4.137,4.014,4.137c2.438,0,4.353-1.802,4.353-4.014V35.77c-0.01-6.665,5.827-14.021,13.989-13.979 c2.663,0.005,4.424-2.007,4.403-4.247C267.094,15.746,265.823,13.4,262.771,13.416L262.771,13.416z"/><path fill-rule="evenodd" fill="#FAA61A" d="M313.157,13.416c-2.591,0-4.24,2.11-4.24,4.053v18.464 c0,7.128-5.99,14.092-14.348,14.092c-6.81,0-14.04-5.93-14.04-13.958V17.574c0-1.933-1.454-4.158-4.342-4.158 c-2.038,0-4.117,1.705-4.117,4.076v18.42c0,11.951,10.641,22.448,22.479,22.448c12.904,0,22.817-11.07,22.817-22.376V17.486 C317.366,15.415,315.646,13.416,313.157,13.416L313.157,13.416z"/></svg> 