<svg xmlns="http://www.w3.org/2000/svg" width="317.366" height="64.891"><path fill-rule="evenodd" fill="#FAA61A" d="M234.312 54.92c-.021 1.73-1.822 3.481-4.424 3.481-2.632 0-4.271-1.925-4.271-3.625v-2.929c.031-1.762 1.669-3.595 4.332-3.595 2.919 0 4.362 1.977 4.362 3.82v2.848h.001z"/><path fill="#FFF" d="M190.398 6.285c0 1.8-1.813 3.29-4.403 3.29-2.632 0-4.271-1.794-4.271-3.495V3.748c.031-1.771 1.567-3.748 4.23-3.748 2.929 0 4.444 1.897 4.444 3.748v2.537z"/><path fill-rule="evenodd" fill="#FAA61A" d="M31.034 16.001c4.913 0 9.532 2.187 12.924 5.584v.023c0-1.641 1.108-2.875 2.622-2.875h.389c2.373 0 2.877 2.255 2.877 2.972l.01 25.39c-.171 1.659 1.715 2.509 2.765 1.444 4.073-4.199 8.935-21.532-2.537-31.594-10.712-9.36-25.075-7.814-32.7-2.55-8.13 5.603-13.338 17.995-8.271 29.638C14.6 56.732 30.358 60.521 39.705 56.742c4.736-1.914 6.928 4.496 2.005 6.596-7.43 3.154-28.127 2.837-37.799-13.907-6.529-11.306-6.178-31.202 11.142-41.52 13.259-7.896 30.73-5.694 41.253 5.302 11.027 11.508 10.382 33.042-.355 41.43-4.87 3.799-12.118.092-12.049-5.448l-.069-1.813c-3.375 3.358-7.886 5.325-12.799 5.325-9.706 0-18.262-8.552-18.262-18.244-.001-9.811 8.556-18.462 18.262-18.462zm12.222 17.756c-.371-7.115-5.653-11.385-12.013-11.385h-.246c-7.361 0-11.437 5.791-11.437 12.353 0 7.353 4.934 12.002 11.393 12.002 7.22 0 11.972-5.284 12.302-11.531v-1.439h.001z"/><path fill="#FFF" d="M111.876 13.449c-5.343-.08-9.417 3.008-11.938 5.077-2.793-3-6.377-4.836-10.057-5.051-3.881-.241-7.52 1.063-9.826 2.937-.819-1.874-1.887-2.99-3.717-2.99-2.013 0-4.132 1.726-4.132 4.526 0 2.786.021 36.245.021 36.245 0 2.09 1.771 4.179 4.306 4.179 2.811 0 4.355-2.13 4.355-4.188V27.285c0-2.609 4.475-5.714 8.254-5.666 2.422.036 5.284 2.412 5.284 6.175l.021 26.45c0 2.335 2.355 4.127 4.491 4.127 2.537 0 4.45-1.915 4.45-4.106V27.538c0-3.272 4.977-6.017 8.385-5.843 2.675.144 5.039 3.052 5.039 5.843v26.695c0 2.305 2.161 4.138 4.511 4.138 2.051 0 4.419-1.362 4.419-4.179V27.627c.036-9.759-9.603-14.311-13.866-14.178zM186.036 13.416c-2.622.005-4.302 2.151-4.302 4.312l.011 36.415c-.021 2.427 1.904 4.229 4.26 4.229 2.693 0 4.414-2.109 4.414-4.403l.031-36.177c0-2.146-2.172-4.376-4.414-4.376zM170.91 13.421c-2.447 0-4.168 1.966-4.168 3.876v1.48c-3.871-3.277-8.876-5.328-14.276-5.328-11.882-.028-22.384 9.977-22.384 22.494 0 11.48 10.016 22.428 22.384 22.428 5.005 0 10.395-1.915 14.215-5.172l.021 1.055c0 2.038 1.607 4.117 4.26 4.117 3.021 0 4.363-2.387 4.363-4.302V17.522c.029-1.715-1.845-4.101-4.415-4.101zm-18.319 36.644c-7.824 0-14.163-6.339-14.163-14.174 0-7.816 6.339-14.152 14.163-14.152 7.822 0 14.171 6.336 14.171 14.152.001 7.836-6.349 14.174-14.171 14.174zM215.837 49.677c-5.51 0-10.415-4.25-10.415-10.497V7.486c0-2.402-1.956-4.074-4.353-4.074-2.775.01-4.362 2.041-4.362 4.074V39.22c-.03 10.753 8.858 19.181 18.977 19.181 3.011 0 4.455-2.447 4.455-4.506 0-1.965-1.547-4.218-4.302-4.218z"/><path fill-rule="evenodd" fill="#FAA61A" d="M262.771 13.416c-12.136.049-22.479 10.75-22.417 22.507v18.342c0 2.386 1.956 4.137 4.014 4.137 2.438 0 4.353-1.802 4.353-4.014V35.77c-.01-6.665 5.827-14.021 13.989-13.979 2.663.005 4.424-2.007 4.403-4.247-.019-1.798-1.29-4.144-4.342-4.128zM313.157 13.416c-2.591 0-4.24 2.11-4.24 4.053v18.464c0 7.128-5.99 14.092-14.348 14.092-6.81 0-14.04-5.93-14.04-13.958V17.574c0-1.933-1.454-4.158-4.342-4.158-2.038 0-4.117 1.705-4.117 4.076v18.42c0 11.951 10.641 22.448 22.479 22.448 12.904 0 22.817-11.07 22.817-22.376V17.486c0-2.071-1.72-4.07-4.209-4.07z"/></svg>