<svg xmlns="http://www.w3.org/2000/svg" width="170" height="46" viewBox="0 0 100 26"><path fill="#d20a11" d="M0 0h100v26H0z"></path><path fill="#fff" d="M7 6.8c.4-2 1.6-2.4 2.6-2.4 1.9 0 2.4 1.1 3.3 4.2l1.9 5.9 1.9-5.9c1-3.1 1.4-4.2 3.3-4.2 1 0 2.2.4 2.6 2.4l1.5 8.7c.3 1.8.6 3.7.6 4.3 0 .9-.7 1.8-1.8 1.8-1.7 0-2.1-1.2-2.2-2.6l-1.1-7.5-2.6 8.4c-.4 1.2-1 1.7-2.1 1.7-1.2 0-1.7-.5-2.1-1.7l-2.6-8.4L9.1 19c-.2 1.3-.5 2.6-2.2 2.6-1.1 0-1.8-1-1.8-1.8 0-.6.3-2.5.6-4.3L7 6.8zm22.7.8c.7-1.9 1.3-3.5 3.3-3.5 2 0 2.6 1.6 3.3 3.5L40 17.7c.5 1.4.6 1.8.6 2.4 0 1-.8 1.6-1.9 1.6-1.3 0-1.7-.8-2-1.9l-.5-1.5h-6.4l-.5 1.5c-.4 1.1-.8 1.9-2 1.9-1.1 0-1.9-.6-1.9-1.6 0-.6.1-1 .6-2.4l3.7-10.1zm3.4.8L31 14.6h4l-1.9-6.2zm8.3-2c0-1.4.8-2.1 1.9-2.1 1.1 0 1.9.7 1.9 2.1v11.5h4.2c1.2 0 1.9.7 1.9 1.8s-.7 1.8-1.9 1.8h-6.1c-1 0-1.9-.7-1.9-1.9V6.4zm10.7 0c0-1.4.8-2.1 1.9-2.1 1.1.1 2 .7 2 2.1v11.5h4.2c1.2 0 1.9.7 1.9 1.8s-.7 1.8-1.9 1.8H54c-1 0-1.9-.7-1.9-1.9V6.4zm13.6 11.3c1.1 0 2.1 1 2.1 2.1s-1 2.1-2.1 2.1-2.1-.9-2.1-2.1c0-1.1.9-2.1 2.1-2.1zM76.3 4.1c2.3 0 5.1.7 5.1 2.7 0 .9-.7 1.8-1.7 1.8-.9 0-1.9-.8-3.4-.8-3.1 0-4.4 2.5-4.4 5.2s1.4 5 4 5c2.4 0 2.8-.8 3.8-.8 1.5 0 1.7 1.3 1.7 1.8 0 2.1-3.2 2.9-5.4 2.9-5.4 0-8.4-4-8.4-8.9.2-5.2 3.6-8.9 8.7-8.9zm16.9 13.8c1.3 0 2.1.7 2.1 1.8s-.7 1.8-2.1 1.8h-8.6c-2.1 0-2.7-.9-2.7-2.1 0-.7.3-1.1.7-1.7L89.9 8h-5.7c-1.3 0-2.1-.7-2.1-1.7s.7-1.7 2.1-1.7h8.3c2.1 0 2.4 1.3 2.4 1.9 0 .8-.7 1.8-1.8 3.2l-6.2 8.2h6.3z"></path></svg>