<svg xmlns="http://www.w3.org/2000/svg" xmlns:xlink="http://www.w3.org/1999/xlink" x="0px" y="0px" width="257.7px" height="59.1px" viewBox="0 0 257.7 59.1" xml:space="preserve"><linearGradient id="SVGID_1_" gradientUnits="userSpaceOnUse" x1="41.2065" y1="4.0947" x2="41.2065" y2="45.2739"><stop offset="0" style="stop-color:#6CA8DB"/><stop offset="1" style="stop-color:#2B74BA"/></linearGradient><path fill="url(#SVGID_1_)" stroke="#000000" d="M28.5,4.1h9.2l3.5,25.1l3.5-25.1h9.2v41.2h-5.7V13.9l-4.4,31.4h-5.2l-4.4-31.4v31.4 h-5.7V4.1z"/><linearGradient id="SVGID_2_" gradientUnits="userSpaceOnUse" x1="65.1616" y1="14.7686" x2="65.1616" y2="45.9478"><stop offset="0" style="stop-color:#6CA8DB"/><stop offset="1" style="stop-color:#2B74BA"/></linearGradient><path fill="url(#SVGID_2_)" stroke="#000000" d="M62.2,25.1l-6-1.2c0.2-1.9,0.6-3.4,1-4.5c0.4-1.1,1-2,1.8-2.9 c0.6-0.6,1.4-1,2.4-1.3c1-0.3,2.1-0.5,3.3-0.5c1.9,0,3.4,0.2,4.5,0.6c1.1,0.4,2.1,1.2,2.8,2.4c0.5,0.8,1,2,1.3,3.6s0.5,3,0.5,4.4 v13.2c0,1.4,0,2.5,0.1,3.3c0.1,0.8,0.3,1.8,0.6,3h-5.9c-0.2-0.8-0.4-1.4-0.5-1.8c-0.1-0.4-0.1-1-0.2-1.9c-0.8,1.4-1.6,2.5-2.4,3.1 c-1.1,0.8-2.4,1.2-3.9,1.2c-2,0-3.4-0.8-4.4-2.5c-1-1.6-1.5-3.7-1.5-6.1c0-2.3,0.4-4.1,1.1-5.6c0.7-1.5,2.1-2.5,4-3.3 c2.4-0.9,3.9-1.5,4.6-1.8c0.7-0.3,1.4-0.8,2.2-1.4c0-1.4-0.2-2.4-0.5-2.9c-0.3-0.6-0.9-0.8-1.7-0.8c-1,0-1.8,0.3-2.3,0.9 C62.8,22.9,62.5,23.8,62.2,25.1z M67.7,31.1c-0.9,0.6-1.8,1.1-2.7,1.5c-1.3,0.6-2.1,1.2-2.4,1.8C62.2,35,62,35.8,62,36.5 c0,0.9,0.2,1.6,0.5,2.2c0.3,0.6,0.8,0.9,1.5,0.9c0.7,0,1.3-0.3,1.9-0.9c0.6-0.6,1-1.4,1.3-2.3c0.3-0.9,0.4-2,0.4-3.5V31.1z"/><linearGradient id="SVGID_3_" gradientUnits="userSpaceOnUse" x1="84.7754" y1="14.7686" x2="84.7754" y2="45.2739"><stop offset="0" style="stop-color:#6CA8DB"/><stop offset="1" style="stop-color:#2B74BA"/></linearGradient><path fill="url(#SVGID_3_)" stroke="#000000" d="M76.1,15.4H82v4.9c0.9-2,1.8-3.4,2.6-4.3c0.9-0.9,2-1.3,3.3-1.3 c1.7,0,3.1,0.9,4.1,2.8c1,1.9,1.5,4.8,1.5,8.7v19h-6.3V28.9c0-1.9-0.2-3.2-0.6-4c-0.4-0.8-0.9-1.2-1.6-1.2c-0.8,0-1.4,0.5-1.8,1.6 c-0.5,1-0.7,2.9-0.7,5.6v14.3h-6.3V15.4z"/><linearGradient id="SVGID_4_" gradientUnits="userSpaceOnUse" x1="103.9888" y1="14.7686" x2="103.9888" y2="57.3804"><stop offset="0" style="stop-color:#6CA8DB"/><stop offset="1" style="stop-color:#2B74BA"/></linearGradient><path fill="url(#SVGID_4_)" stroke="#000000" d="M107.1,15.4h5.9v28.2l0,1.3c0,1.9-0.2,3.7-0.7,5.4c-0.4,1.7-1,3.1-1.7,4.1 s-1.6,1.8-2.8,2.3c-1.1,0.5-2.4,0.7-3.8,0.7c-3.3,0-5.5-0.9-6.8-2.7c-1.2-1.8-1.8-4.2-1.8-7.2c0-0.4,0-0.9,0-1.5l6.1,1.3 c0.2,1,0.4,1.7,0.7,2.1c0.5,0.6,1,0.9,1.7,0.9c0.9,0,1.6-0.4,2-1.3c0.4-0.9,0.7-2.4,0.7-4.6v-4.5c-0.6,1.3-1.2,2.3-1.8,2.9 c-1,0.9-2,1.4-3.1,1.4c-2.2,0-4-1.7-5.3-5.2c-1-2.5-1.4-5.7-1.4-9.8c0-4.6,0.6-8.2,1.8-10.6c1.2-2.4,2.8-3.7,4.8-3.7 c1.3,0,2.3,0.4,3.1,1.2c0.8,0.8,1.6,2.1,2.3,3.9V15.4z M101.2,29.9c0,2.2,0.3,3.7,0.8,4.8c0.5,1,1.2,1.6,2,1.6c0.8,0,1.4-0.5,2-1.6 c0.5-1.1,0.8-2.7,0.8-4.9s-0.3-3.8-0.8-5c-0.6-1.2-1.2-1.7-2-1.7c-0.8,0-1.4,0.5-1.9,1.6C101.5,25.7,101.2,27.5,101.2,29.9z"/><linearGradient id="SVGID_5_" gradientUnits="userSpaceOnUse" x1="124.0024" y1="14.7686" x2="124.0024" y2="45.9478"><stop offset="0" style="stop-color:#6CA8DB"/><stop offset="1" style="stop-color:#2B74BA"/></linearGradient><path fill="url(#SVGID_5_)" stroke="#000000" d="M121.1,25.1l-6-1.2c0.2-1.9,0.6-3.4,1-4.5c0.4-1.1,1-2,1.8-2.9 c0.6-0.6,1.4-1,2.4-1.3c1-0.3,2.1-0.5,3.3-0.5c1.9,0,3.4,0.2,4.5,0.6c1.1,0.4,2.1,1.2,2.8,2.4c0.5,0.8,1,2,1.3,3.6s0.5,3,0.5,4.4 v13.2c0,1.4,0,2.5,0.1,3.3c0.1,0.8,0.3,1.8,0.6,3h-5.9c-0.2-0.8-0.4-1.4-0.5-1.8c-0.1-0.4-0.1-1-0.2-1.9c-0.8,1.4-1.6,2.5-2.4,3.1 c-1.1,0.8-2.4,1.2-3.9,1.2c-2,0-3.4-0.8-4.4-2.5c-1-1.6-1.5-3.7-1.5-6.1c0-2.3,0.4-4.1,1.1-5.6c0.7-1.5,2.1-2.5,4-3.3 c2.4-0.9,3.9-1.5,4.6-1.8c0.7-0.3,1.4-0.8,2.2-1.4c0-1.4-0.2-2.4-0.5-2.9c-0.3-0.6-0.9-0.8-1.7-0.8c-1,0-1.8,0.3-2.3,0.9 C121.6,22.9,121.3,23.8,121.1,25.1z M126.5,31.1c-0.9,0.6-1.8,1.1-2.7,1.5c-1.3,0.6-2.1,1.2-2.4,1.8c-0.3,0.6-0.5,1.3-0.5,2.1 c0,0.9,0.2,1.6,0.5,2.2c0.3,0.6,0.8,0.9,1.5,0.9c0.7,0,1.3-0.3,1.9-0.9c0.6-0.6,1-1.4,1.3-2.3c0.3-0.9,0.4-2,0.4-3.5V31.1z"/><linearGradient id="SVGID_6_" gradientUnits="userSpaceOnUse" x1="145.0679" y1="4.0947" x2="145.0679" y2="45.2739"><stop offset="0" style="stop-color:#FFFFFF"/><stop offset="1" style="stop-color:#A5A5A5"/></linearGradient><path fill="url(#SVGID_6_)" stroke="#000000" d="M134.5,4.1h21.2v10.2h-7.1v31h-7v-31h-7.1V4.1z"/><linearGradient id="SVGID_7_" gradientUnits="userSpaceOnUse" x1="162.1328" y1="14.7686" x2="162.1328" y2="45.2739"><stop offset="0" style="stop-color:#FFFFFF"/><stop offset="1" style="stop-color:#A5A5A5"/></linearGradient><path fill="url(#SVGID_7_)" stroke="#000000" d="M155.7,15.4h5.9v4.9c0.6-2.1,1.1-3.6,1.7-4.4c0.6-0.8,1.3-1.2,2.2-1.2 c0.9,0,1.9,0.5,3,1.6l-1.9,8.1c-0.7-0.6-1.3-0.8-1.8-0.8c-0.8,0-1.5,0.6-1.9,1.9c-0.6,1.7-1,5-1,9.8v10h-6.3V15.4z"/><linearGradient id="SVGID_8_" gradientUnits="userSpaceOnUse" x1="177.397" y1="14.7686" x2="177.397" y2="45.9478"><stop offset="0" style="stop-color:#FFFFFF"/><stop offset="1" style="stop-color:#A5A5A5"/></linearGradient><path fill="url(#SVGID_8_)" stroke="#000000" d="M174.5,25.1l-6-1.2c0.2-1.9,0.6-3.4,1-4.5c0.4-1.1,1-2,1.8-2.9 c0.6-0.6,1.4-1,2.4-1.3c1-0.3,2.1-0.5,3.3-0.5c1.9,0,3.4,0.2,4.5,0.6c1.1,0.4,2.1,1.2,2.8,2.4c0.5,0.8,1,2,1.3,3.6s0.5,3,0.5,4.4 v13.2c0,1.4,0,2.5,0.1,3.3c0.1,0.8,0.3,1.8,0.6,3h-5.9c-0.2-0.8-0.4-1.4-0.5-1.8c-0.1-0.4-0.1-1-0.2-1.9c-0.8,1.4-1.6,2.5-2.4,3.1 c-1.1,0.8-2.4,1.2-3.9,1.2c-2,0-3.4-0.8-4.4-2.5c-1-1.6-1.5-3.7-1.5-6.1c0-2.3,0.4-4.1,1.1-5.6c0.7-1.5,2.1-2.5,4-3.3 c2.4-0.9,3.9-1.5,4.6-1.8c0.7-0.3,1.4-0.8,2.2-1.4c0-1.4-0.2-2.4-0.5-2.9c-0.3-0.6-0.9-0.8-1.7-0.8c-1,0-1.8,0.3-2.3,0.9 C175,22.9,174.7,23.8,174.5,25.1z M179.9,31.1c-0.9,0.6-1.8,1.1-2.7,1.5c-1.3,0.6-2.1,1.2-2.4,1.8c-0.3,0.6-0.5,1.3-0.5,2.1 c0,0.9,0.2,1.6,0.5,2.2c0.3,0.6,0.8,0.9,1.5,0.9c0.7,0,1.3-0.3,1.9-0.9c0.6-0.6,1-1.4,1.3-2.3c0.3-0.9,0.4-2,0.4-3.5V31.1z"/><linearGradient id="SVGID_9_" gradientUnits="userSpaceOnUse" x1="196.5786" y1="4.0947" x2="196.5786" y2="45.9478"><stop offset="0" style="stop-color:#FFFFFF"/><stop offset="1" style="stop-color:#A5A5A5"/></linearGradient><path fill="url(#SVGID_9_)" stroke="#000000" d="M205.6,4.1v41.2h-5.9v-4.4c-0.8,1.9-1.6,3.1-2.2,3.8c-0.9,0.9-1.9,1.3-3,1.3 c-2.2,0-3.9-1.5-5.1-4.6s-1.8-6.8-1.8-11.3c0-4.9,0.6-8.7,1.9-11.3c1.3-2.6,2.9-3.9,5-3.9c1,0,1.9,0.3,2.7,0.9 c0.8,0.6,1.5,1.5,2.1,2.7V4.1H205.6z M199.3,30.3c0-2.3-0.3-4.1-0.8-5.2c-0.5-1.2-1.2-1.7-2.1-1.7c-0.7,0-1.3,0.6-1.8,1.7 s-0.7,3-0.7,5.6c0,2.4,0.3,4.2,0.8,5.4c0.5,1.1,1.1,1.7,1.9,1.7c0.8,0,1.5-0.6,2-1.7C199,34.7,199.3,32.9,199.3,30.3z"/><linearGradient id="SVGID_10_" gradientUnits="userSpaceOnUse" x1="216.6621" y1="14.7686" x2="216.6621" y2="45.9478"><stop offset="0" style="stop-color:#FFFFFF"/><stop offset="1" style="stop-color:#A5A5A5"/></linearGradient><path fill="url(#SVGID_10_)" stroke="#000000" d="M226.1,33.2h-12.6c0.1,1.8,0.4,3.2,0.8,4.1c0.6,1.3,1.4,1.9,2.4,1.9 c0.6,0,1.2-0.3,1.8-0.8c0.3-0.4,0.7-1,1.1-1.9l6.2,1c-0.9,3-2.1,5.1-3.4,6.4c-1.3,1.3-3.2,2-5.7,2c-2.2,0-3.9-0.6-5.1-1.7 c-1.2-1.1-2.3-2.9-3.1-5.3c-0.8-2.4-1.2-5.3-1.2-8.6c0-4.7,0.8-8.4,2.5-11.3s3.9-4.3,6.8-4.3c2.3,0,4.2,0.6,5.5,1.9 c1.4,1.3,2.4,3.2,3.1,5.6c0.7,2.5,1.1,5.6,1.1,9.6V33.2z M219.8,27.7c-0.1-2.2-0.4-3.8-1-4.7s-1.2-1.4-2.1-1.4c-1,0-1.8,0.7-2.4,2.2 c-0.4,0.9-0.6,2.2-0.7,4H219.8z"/><linearGradient id="SVGID_11_" gradientUnits="userSpaceOnUse" x1="234.0894" y1="14.7686" x2="234.0894" y2="45.2739"><stop offset="0" style="stop-color:#FFFFFF"/><stop offset="1" style="stop-color:#A5A5A5"/></linearGradient><path fill="url(#SVGID_11_)" stroke="#000000" d="M227.7,15.4h5.9v4.9c0.6-2.1,1.1-3.6,1.7-4.4c0.6-0.8,1.3-1.2,2.2-1.2 c0.9,0,1.9,0.5,3,1.6l-1.9,8.1c-0.7-0.6-1.3-0.8-1.8-0.8c-0.8,0-1.5,0.6-1.9,1.9c-0.6,1.7-1,5-1,9.8v10h-6.3V15.4z"/><linearGradient id="SVGID_12_" gradientUnits="userSpaceOnUse" x1="248.5366" y1="14.7686" x2="248.5366" y2="45.9478"><stop offset="0" style="stop-color:#FFFFFF"/><stop offset="1" style="stop-color:#A5A5A5"/></linearGradient><path fill="url(#SVGID_12_)" stroke="#000000" d="M239.8,37l6.2-1.1c0.3,1.3,0.6,2.3,1.1,2.9c0.5,0.6,1.1,0.9,1.8,0.9 c0.8,0,1.5-0.3,2-1c0.4-0.5,0.5-1.1,0.5-1.8c0-0.8-0.2-1.5-0.7-1.9c-0.3-0.3-1.2-0.7-2.7-1.2c-2.2-0.7-3.7-1.3-4.5-1.9 c-0.8-0.6-1.6-1.6-2.1-3s-0.9-3-0.9-4.8c0-2,0.3-3.7,0.9-5.1c0.6-1.4,1.5-2.5,2.6-3.2c1.1-0.7,2.6-1.1,4.4-1.1c2,0,3.4,0.3,4.3,0.8 c0.9,0.5,1.7,1.4,2.3,2.5c0.6,1.1,1.1,2.7,1.5,4.6l-5.9,1.1c-0.2-1-0.4-1.7-0.8-2.1c-0.5-0.6-1.1-0.9-1.8-0.9 c-0.7,0-1.2,0.2-1.5,0.7c-0.3,0.5-0.5,1-0.5,1.7c0,0.7,0.2,1.3,0.6,1.7c0.4,0.4,1.3,0.7,2.7,1c2.1,0.4,3.6,1,4.6,1.8 c1,0.8,1.8,1.9,2.3,3.3c0.5,1.4,0.8,3,0.8,4.7c0,1.7-0.3,3.4-0.9,5c-0.6,1.6-1.5,2.9-2.7,3.9c-1.2,1-2.9,1.4-5,1.4 c-3,0-5.1-0.8-6.4-2.3C241,42.1,240.2,39.9,239.8,37z"/><linearGradient id="SVGID_13_" gradientUnits="userSpaceOnUse" x1="0.5288" y1="36.2935" x2="34.957" y2="36.2935"><stop offset="0" style="stop-color:#6CA8DB"/><stop offset="1" style="stop-color:#2B74BA"/></linearGradient><path fill="url(#SVGID_13_)" stroke="#000000" d="M1.2,14L0.5,37.1l3.1-2.4c0,0,14.1,25.7,23.1,23.8c11.3-2.3,7.7-11.6,7.7-11.6 s-0.1,5-4.4,5C22.4,51.9,10.4,30,10.4,30l4.6-1.4L1.2,14z"/><linearGradient id="SVGID_14_" gradientUnits="userSpaceOnUse" x1="12.811" y1="25.1626" x2="37.8999" y2="25.1626"><stop offset="0" style="stop-color:#FFFFFF"/><stop offset="1" style="stop-color:#A5A5A5"/></linearGradient><path fill="url(#SVGID_14_)" stroke="#000000" d="M37.9,49.8l-19.7-12l3.7-1.2c0,0-13.8-25.8-7.4-32.4C22.6-4,28.4,4,28.4,4 s-4.3-2.6-6.6,1c-4.1,6.4,7.8,28.3,7.8,28.3l3.6-3.1L37.9,49.8z"/></svg> 