<svg xmlns="http://www.w3.org/2000/svg" width="257.7" height="59.1"><linearGradient id="a" gradientUnits="userSpaceOnUse" x1="41.206" y1="4.095" x2="41.206" y2="45.274"><stop offset="0" stop-color="#6ca8db"/><stop offset="1" stop-color="#2b74ba"/></linearGradient><path fill="url(#a)" stroke="#000" d="M28.5 4.1h9.2l3.5 25.1 3.5-25.1h9.2v41.2h-5.7V13.9l-4.4 31.4h-5.2l-4.4-31.4v31.4h-5.7V4.1z"/><linearGradient id="b" gradientUnits="userSpaceOnUse" x1="65.162" y1="14.769" x2="65.162" y2="45.948"><stop offset="0" stop-color="#6ca8db"/><stop offset="1" stop-color="#2b74ba"/></linearGradient><path fill="url(#b)" stroke="#000" d="M62.2 25.1l-6-1.2c.2-1.9.6-3.4 1-4.5s1-2 1.8-2.9c.6-.6 1.4-1 2.4-1.3 1-.3 2.1-.5 3.3-.5 1.9 0 3.4.2 4.5.6 1.1.4 2.1 1.2 2.8 2.4.5.8 1 2 1.3 3.6s.5 3 .5 4.4v13.2c0 1.4 0 2.5.1 3.3.1.8.3 1.8.6 3h-5.9c-.2-.8-.4-1.4-.5-1.8-.1-.4-.1-1-.2-1.9-.8 1.4-1.6 2.5-2.4 3.1-1.1.8-2.4 1.2-3.9 1.2-2 0-3.4-.8-4.4-2.5-1-1.6-1.5-3.7-1.5-6.1 0-2.3.4-4.1 1.1-5.6.7-1.5 2.1-2.5 4-3.3 2.4-.9 3.9-1.5 4.6-1.8.7-.3 1.4-.8 2.2-1.4 0-1.4-.2-2.4-.5-2.9-.3-.6-.9-.8-1.7-.8-1 0-1.8.3-2.3.9-.3.6-.6 1.5-.9 2.8zm5.5 6c-.9.6-1.8 1.1-2.7 1.5-1.3.6-2.1 1.2-2.4 1.8-.4.6-.6 1.4-.6 2.1 0 .9.2 1.6.5 2.2.3.6.8.9 1.5.9s1.3-.3 1.9-.9c.6-.6 1-1.4 1.3-2.3.3-.9.4-2 .4-3.5v-1.8z"/><linearGradient id="c" gradientUnits="userSpaceOnUse" x1="84.775" y1="14.769" x2="84.775" y2="45.274"><stop offset="0" stop-color="#6ca8db"/><stop offset="1" stop-color="#2b74ba"/></linearGradient><path fill="url(#c)" stroke="#000" d="M76.1 15.4H82v4.9c.9-2 1.8-3.4 2.6-4.3.9-.9 2-1.3 3.3-1.3 1.7 0 3.1.9 4.1 2.8 1 1.9 1.5 4.8 1.5 8.7v19h-6.3V28.9c0-1.9-.2-3.2-.6-4-.4-.8-.9-1.2-1.6-1.2-.8 0-1.4.5-1.8 1.6-.5 1-.7 2.9-.7 5.6v14.3h-6.3V15.4z"/><linearGradient id="d" gradientUnits="userSpaceOnUse" x1="103.989" y1="14.769" x2="103.989" y2="57.38"><stop offset="0" stop-color="#6ca8db"/><stop offset="1" stop-color="#2b74ba"/></linearGradient><path fill="url(#d)" stroke="#000" d="M107.1 15.4h5.9v29.5c0 1.9-.2 3.7-.7 5.4-.4 1.7-1 3.1-1.7 4.1s-1.6 1.8-2.8 2.3c-1.1.5-2.4.7-3.8.7-3.3 0-5.5-.9-6.8-2.7-1.2-1.8-1.8-4.2-1.8-7.2V46l6.1 1.3c.2 1 .4 1.7.7 2.1.5.6 1 .9 1.7.9.9 0 1.6-.4 2-1.3.4-.9.7-2.4.7-4.6v-4.5c-.6 1.3-1.2 2.3-1.8 2.9-1 .9-2 1.4-3.1 1.4-2.2 0-4-1.7-5.3-5.2-1-2.5-1.4-5.7-1.4-9.8 0-4.6.6-8.2 1.8-10.6 1.2-2.4 2.8-3.7 4.8-3.7 1.3 0 2.3.4 3.1 1.2.8.8 1.6 2.1 2.3 3.9v-4.6zm-5.9 14.5c0 2.2.3 3.7.8 4.8.5 1 1.2 1.6 2 1.6s1.4-.5 2-1.6c.5-1.1.8-2.7.8-4.9s-.3-3.8-.8-5c-.6-1.2-1.2-1.7-2-1.7s-1.4.5-1.9 1.6c-.6 1-.9 2.8-.9 5.2z"/><linearGradient id="e" gradientUnits="userSpaceOnUse" x1="124.002" y1="14.769" x2="124.002" y2="45.948"><stop offset="0" stop-color="#6ca8db"/><stop offset="1" stop-color="#2b74ba"/></linearGradient><path fill="url(#e)" stroke="#000" d="M121.1 25.1l-6-1.2c.2-1.9.6-3.4 1-4.5s1-2 1.8-2.9c.6-.6 1.4-1 2.4-1.3 1-.3 2.1-.5 3.3-.5 1.9 0 3.4.2 4.5.6 1.1.4 2.1 1.2 2.8 2.4.5.8 1 2 1.3 3.6s.5 3 .5 4.4v13.2c0 1.4 0 2.5.1 3.3.1.8.3 1.8.6 3h-5.9c-.2-.8-.4-1.4-.5-1.8-.1-.4-.1-1-.2-1.9-.8 1.4-1.6 2.5-2.4 3.1-1.1.8-2.4 1.2-3.9 1.2-2 0-3.4-.8-4.4-2.5-1-1.6-1.5-3.7-1.5-6.1 0-2.3.4-4.1 1.1-5.6.7-1.5 2.1-2.5 4-3.3 2.4-.9 3.9-1.5 4.6-1.8.7-.3 1.4-.8 2.2-1.4 0-1.4-.2-2.4-.5-2.9-.3-.6-.9-.8-1.7-.8-1 0-1.8.3-2.3.9-.4.6-.7 1.5-.9 2.8zm5.4 6c-.9.6-1.8 1.1-2.7 1.5-1.3.6-2.1 1.2-2.4 1.8-.3.6-.5 1.3-.5 2.1 0 .9.2 1.6.5 2.2.3.6.8.9 1.5.9s1.3-.3 1.9-.9c.6-.6 1-1.4 1.3-2.3.3-.9.4-2 .4-3.5v-1.8z"/><linearGradient id="f" gradientUnits="userSpaceOnUse" x1="145.068" y1="4.095" x2="145.068" y2="45.274"><stop offset="0" stop-color="#fff"/><stop offset="1" stop-color="#a5a5a5"/></linearGradient><path fill="url(#f)" stroke="#000" d="M134.5 4.1h21.2v10.2h-7.1v31h-7v-31h-7.1V4.1z"/><linearGradient id="g" gradientUnits="userSpaceOnUse" x1="162.133" y1="14.769" x2="162.133" y2="45.274"><stop offset="0" stop-color="#fff"/><stop offset="1" stop-color="#a5a5a5"/></linearGradient><path fill="url(#g)" stroke="#000" d="M155.7 15.4h5.9v4.9c.6-2.1 1.1-3.6 1.7-4.4.6-.8 1.3-1.2 2.2-1.2.9 0 1.9.5 3 1.6l-1.9 8.1c-.7-.6-1.3-.8-1.8-.8-.8 0-1.5.6-1.9 1.9-.6 1.7-1 5-1 9.8v10h-6.3V15.4z"/><linearGradient id="h" gradientUnits="userSpaceOnUse" x1="177.397" y1="14.769" x2="177.397" y2="45.948"><stop offset="0" stop-color="#fff"/><stop offset="1" stop-color="#a5a5a5"/></linearGradient><path fill="url(#h)" stroke="#000" d="M174.5 25.1l-6-1.2c.2-1.9.6-3.4 1-4.5s1-2 1.8-2.9c.6-.6 1.4-1 2.4-1.3 1-.3 2.1-.5 3.3-.5 1.9 0 3.4.2 4.5.6 1.1.4 2.1 1.2 2.8 2.4.5.8 1 2 1.3 3.6s.5 3 .5 4.4v13.2c0 1.4 0 2.5.1 3.3.1.8.3 1.8.6 3h-5.9c-.2-.8-.4-1.4-.5-1.8-.1-.4-.1-1-.2-1.9-.8 1.4-1.6 2.5-2.4 3.1-1.1.8-2.4 1.2-3.9 1.2-2 0-3.4-.8-4.4-2.5-1-1.6-1.5-3.7-1.5-6.1 0-2.3.4-4.1 1.1-5.6.7-1.5 2.1-2.5 4-3.3 2.4-.9 3.9-1.5 4.6-1.8.7-.3 1.4-.8 2.2-1.4 0-1.4-.2-2.4-.5-2.9-.3-.6-.9-.8-1.7-.8-1 0-1.8.3-2.3.9-.4.6-.7 1.5-.9 2.8zm5.4 6c-.9.6-1.8 1.1-2.7 1.5-1.3.6-2.1 1.2-2.4 1.8-.3.6-.5 1.3-.5 2.1 0 .9.2 1.6.5 2.2.3.6.8.9 1.5.9s1.3-.3 1.9-.9c.6-.6 1-1.4 1.3-2.3.3-.9.4-2 .4-3.5v-1.8z"/><linearGradient id="i" gradientUnits="userSpaceOnUse" x1="196.579" y1="4.095" x2="196.579" y2="45.948"><stop offset="0" stop-color="#fff"/><stop offset="1" stop-color="#a5a5a5"/></linearGradient><path fill="url(#i)" stroke="#000" d="M205.6 4.1v41.2h-5.9v-4.4c-.8 1.9-1.6 3.1-2.2 3.8-.9.9-1.9 1.3-3 1.3-2.2 0-3.9-1.5-5.1-4.6s-1.8-6.8-1.8-11.3c0-4.9.6-8.7 1.9-11.3 1.3-2.6 2.9-3.9 5-3.9 1 0 1.9.3 2.7.9.8.6 1.5 1.5 2.1 2.7V4.1h6.3zm-6.3 26.2c0-2.3-.3-4.1-.8-5.2-.5-1.2-1.2-1.7-2.1-1.7-.7 0-1.3.6-1.8 1.7s-.7 3-.7 5.6c0 2.4.3 4.2.8 5.4.5 1.1 1.1 1.7 1.9 1.7.8 0 1.5-.6 2-1.7.4-1.4.7-3.2.7-5.8z"/><linearGradient id="j" gradientUnits="userSpaceOnUse" x1="216.662" y1="14.769" x2="216.662" y2="45.948"><stop offset="0" stop-color="#fff"/><stop offset="1" stop-color="#a5a5a5"/></linearGradient><path fill="url(#j)" stroke="#000" d="M226.1 33.2h-12.6c.1 1.8.4 3.2.8 4.1.6 1.3 1.4 1.9 2.4 1.9.6 0 1.2-.3 1.8-.8.3-.4.7-1 1.1-1.9l6.2 1c-.9 3-2.1 5.1-3.4 6.4-1.3 1.3-3.2 2-5.7 2-2.2 0-3.9-.6-5.1-1.7-1.2-1.1-2.3-2.9-3.1-5.3-.8-2.4-1.2-5.3-1.2-8.6 0-4.7.8-8.4 2.5-11.3s3.9-4.3 6.8-4.3c2.3 0 4.2.6 5.5 1.9 1.4 1.3 2.4 3.2 3.1 5.6.7 2.5 1.1 5.6 1.1 9.6v1.4zm-6.3-5.5c-.1-2.2-.4-3.8-1-4.7s-1.2-1.4-2.1-1.4c-1 0-1.8.7-2.4 2.2-.4.9-.6 2.2-.7 4h6.2z"/><linearGradient id="k" gradientUnits="userSpaceOnUse" x1="234.089" y1="14.769" x2="234.089" y2="45.274"><stop offset="0" stop-color="#fff"/><stop offset="1" stop-color="#a5a5a5"/></linearGradient><path fill="url(#k)" stroke="#000" d="M227.7 15.4h5.9v4.9c.6-2.1 1.1-3.6 1.7-4.4.6-.8 1.3-1.2 2.2-1.2.9 0 1.9.5 3 1.6l-1.9 8.1c-.7-.6-1.3-.8-1.8-.8-.8 0-1.5.6-1.9 1.9-.6 1.7-1 5-1 9.8v10h-6.3V15.4z"/><linearGradient id="l" gradientUnits="userSpaceOnUse" x1="248.537" y1="14.769" x2="248.537" y2="45.948"><stop offset="0" stop-color="#fff"/><stop offset="1" stop-color="#a5a5a5"/></linearGradient><path fill="url(#l)" stroke="#000" d="M239.8 37l6.2-1.1c.3 1.3.6 2.3 1.1 2.9.5.6 1.1.9 1.8.9.8 0 1.5-.3 2-1 .4-.5.5-1.1.5-1.8 0-.8-.2-1.5-.7-1.9-.3-.3-1.2-.7-2.7-1.2-2.2-.7-3.7-1.3-4.5-1.9-.8-.6-1.6-1.6-2.1-3s-.9-3-.9-4.8c0-2 .3-3.7.9-5.1.6-1.4 1.5-2.5 2.6-3.2 1.1-.7 2.6-1.1 4.4-1.1 2 0 3.4.3 4.3.8.9.5 1.7 1.4 2.3 2.5.6 1.1 1.1 2.7 1.5 4.6l-5.9 1.1c-.2-1-.4-1.7-.8-2.1-.5-.6-1.1-.9-1.8-.9s-1.2.2-1.5.7c-.3.5-.5 1-.5 1.7s.2 1.3.6 1.7c.4.4 1.3.7 2.7 1 2.1.4 3.6 1 4.6 1.8 1 .8 1.8 1.9 2.3 3.3.5 1.4.8 3 .8 4.7 0 1.7-.3 3.4-.9 5-.6 1.6-1.5 2.9-2.7 3.9-1.2 1-2.9 1.4-5 1.4-3 0-5.1-.8-6.4-2.3-1-1.5-1.8-3.7-2.2-6.6z"/><linearGradient id="m" gradientUnits="userSpaceOnUse" x1=".529" y1="36.294" x2="34.957" y2="36.294"><stop offset="0" stop-color="#6ca8db"/><stop offset="1" stop-color="#2b74ba"/></linearGradient><path fill="url(#m)" stroke="#000" d="M1.2 14L.5 37.1l3.1-2.4s14.1 25.7 23.1 23.8c11.3-2.3 7.7-11.6 7.7-11.6s-.1 5-4.4 5C22.4 51.9 10.4 30 10.4 30l4.6-1.4L1.2 14z"/><linearGradient id="n" gradientUnits="userSpaceOnUse" x1="12.811" y1="25.163" x2="37.9" y2="25.163"><stop offset="0" stop-color="#fff"/><stop offset="1" stop-color="#a5a5a5"/></linearGradient><path fill="url(#n)" stroke="#000" d="M37.9 49.8l-19.7-12 3.7-1.2S8.1 10.8 14.5 4.2C22.6-4 28.4 4 28.4 4s-4.3-2.6-6.6 1c-4.1 6.4 7.8 28.3 7.8 28.3l3.6-3.1 4.7 19.6z"/></svg>