<svg xmlns="http://www.w3.org/2000/svg" xmlns:xlink="http://www.w3.org/1999/xlink" x="0px" y="0px" viewBox="0 0 222.4 62.1" enable-background="new 0 0 222.4 62.1" xml:space="preserve"><path fill="#FFFFFF" d="M210.6,0.7c3.7-1.4,7.9-0.3,11.8-0.7c0,19,0,38,0,57c-0.1,1.5,0.3,3.2-0.4,4.7c-7.9,0.3-15.7,0-23.6,0.1 c0-14.2,0.1-28.4,0-42.6c-3.2,0-6.4,0-9.7,0c0.1-2.9,0.1-5.7,0.2-8.6C196.8,9.2,204.1,5.6,210.6,0.7L210.6,0.7z"/><path fill="#FFFFFF" d="M117.6,12.4c1.9,0,3.8,0.1,5.7,0.1c0,4.1,0,8.1,0,12.2c4.8,0,9.6,0,14.3,0c0,1.6,0,3.1,0,4.7 c-4.8,0-9.6,0-14.4,0c0,7.6-0.1,15.2,0,22.7c-0.1,1.8,0.7,3.7,2.5,4.4c4.2,1.6,8.6,0.4,12.9-0.2c0,1.6,0,3.3-0.1,4.9 c-5.2,0.6-10.6,1.6-15.7,0c-3.3-1.1-5.5-4.6-5.4-8.1c-0.1-7.9,0-15.7,0-23.6c-2.6,0-5.2,0-7.8,0c0-1.6,0-3.1,0-4.7 c2.6,0,5.2,0,7.8,0C117.6,20.6,117.6,16.5,117.6,12.4L117.6,12.4z"/><path fill="#FFFFFF" d="M5,29.5c4.8-3.7,10.7-7,17-5.9c4,0.2,7,3,9.1,6.2c4.5-3.6,9.9-6.9,15.9-6.3c5.5,0,11.7,3.5,12,9.5 c0.4,9.3,0.1,18.6,0.1,27.8c-1.9,0-3.8,0-5.7-0.1c0-8.2,0.1-16.5,0-24.7c0.1-2.9-1.3-6.2-4.3-7.2c-4.9-1.6-10.1,0.2-14,3.3 c-1.2,1-3.2,1.9-3,3.9c-0.1,8.3,0.1,16.6-0.1,24.9c-1.9,0-3.8,0-5.7-0.1c0-8.3,0.1-16.5,0-24.8c0.2-3.2-1.6-6.5-4.9-7.4 c-6-1.5-12,1.7-16.1,5.8c-0.7,8.7,0,17.6-0.3,26.4c-1.7,0-3.4,0-5.1,0c0-12.1,0-24.1,0-36.2c1.6,0,3.3,0,4.9,0 C4.9,26.3,4.9,27.9,5,29.5L5,29.5z"/><path fill="#FFFFFF" d="M155.5,55.8c-4.8-2-8.2-6.8-8.4-12c11.9,0.2,23.9-0.1,35.8-0.1c-0.1-5.2-1.5-10.6-5.3-14.3 c-8.6-8.2-24.4-8.2-32.2,1.1c-6.5,7.9-5.2,20.9,3,27.2c6,4.8,14.3,4.9,21.5,3.5c4.8-0.9,8.6-4.3,11.8-7.8c-1.4-1-2.8-2.1-4.1-3.2 C172.6,57,163.1,59,155.5,55.8z M156,29.1c5.4-1.4,11.9-1.1,16.3,2.7c2.2,1.8,3.3,4.5,4.6,6.9c-9.9,1.1-19.9,0.3-29.8,0.5 C148.4,34.7,151.4,30.5,156,29.1z"/><path fill="#FFFFFF" d="M104.1,34c-0.2-3.3-2.3-6.3-5.2-7.9c-5.8-3-12.6-3.1-18.9-2.1c-4.8,0.8-9.5,3.3-12.2,7.5 c1.4,0.8,2.7,1.7,4.2,2.3c3-2.3,6-5,10-5.3c4.4-0.3,9.3-0.9,13.3,1.3c2.6,1.1,3.4,3.9,3.5,6.5c-7.5,0.9-15.1,1.3-22.3,3.4 c-3.8,1.2-8,3.1-9.9,6.9c-2.6,5.1-0.1,12.3,5.4,14c8.8,3,18.6,0.8,26.4-3.9c0.2,1.3,0.5,2.7,0.7,4c1.9,0,3.7,0,5.6,0 C103.6,52,104.7,43,104.1,34z M98.5,51.7c-5.5,3.5-12,5.6-18.5,5.8c-3.5,0-8.3-1.3-9-5.3c-0.8-3.9,2.8-6.8,6.1-7.7 c6.9-2.2,14.2-2.9,21.5-3.4C98.5,44.6,98.7,48.2,98.5,51.7z"/></svg> 