<svg xmlns="http://www.w3.org/2000/svg" viewBox="0 0 222.4 62.1"><path fill="#FFF" d="M210.6.7c3.7-1.4 7.9-.3 11.8-.7v57c-.1 1.5.3 3.2-.4 4.7-7.9.3-15.7 0-23.6.1 0-14.2.1-28.4 0-42.6h-9.7c.1-2.9.1-5.7.2-8.6 7.9-1.4 15.2-5 21.7-9.9zM117.6 12.4c1.9 0 3.8.1 5.7.1v12.2h14.3v4.7h-14.4c0 7.6-.1 15.2 0 22.7-.1 1.8.7 3.7 2.5 4.4 4.2 1.6 8.6.4 12.9-.2 0 1.6 0 3.3-.1 4.9-5.2.6-10.6 1.6-15.7 0-3.3-1.1-5.5-4.6-5.4-8.1-.1-7.9 0-15.7 0-23.6h-7.8v-4.7h7.8c.2-4.2.2-8.3.2-12.4zM5 29.5c4.8-3.7 10.7-7 17-5.9 4 .2 7 3 9.1 6.2 4.5-3.6 9.9-6.9 15.9-6.3 5.5 0 11.7 3.5 12 9.5.4 9.3.1 18.6.1 27.8-1.9 0-3.8 0-5.7-.1 0-8.2.1-16.5 0-24.7.1-2.9-1.3-6.2-4.3-7.2-4.9-1.6-10.1.2-14 3.3-1.2 1-3.2 1.9-3 3.9-.1 8.3.1 16.6-.1 24.9-1.9 0-3.8 0-5.7-.1 0-8.3.1-16.5 0-24.8.2-3.2-1.6-6.5-4.9-7.4-6-1.5-12 1.7-16.1 5.8-.7 8.7 0 17.6-.3 26.4H-.1V24.6h4.9c.1 1.7.1 3.3.2 4.9zM155.5 55.8c-4.8-2-8.2-6.8-8.4-12 11.9.2 23.9-.1 35.8-.1-.1-5.2-1.5-10.6-5.3-14.3-8.6-8.2-24.4-8.2-32.2 1.1-6.5 7.9-5.2 20.9 3 27.2 6 4.8 14.3 4.9 21.5 3.5 4.8-.9 8.6-4.3 11.8-7.8-1.4-1-2.8-2.1-4.1-3.2-5 6.8-14.5 8.8-22.1 5.6zm.5-26.7c5.4-1.4 11.9-1.1 16.3 2.7 2.2 1.8 3.3 4.5 4.6 6.9-9.9 1.1-19.9.3-29.8.5 1.3-4.5 4.3-8.7 8.9-10.1zM104.1 34c-.2-3.3-2.3-6.3-5.2-7.9-5.8-3-12.6-3.1-18.9-2.1-4.8.8-9.5 3.3-12.2 7.5 1.4.8 2.7 1.7 4.2 2.3 3-2.3 6-5 10-5.3 4.4-.3 9.3-.9 13.3 1.3 2.6 1.1 3.4 3.9 3.5 6.5-7.5.9-15.1 1.3-22.3 3.4-3.8 1.2-8 3.1-9.9 6.9-2.6 5.1-.1 12.3 5.4 14 8.8 3 18.6.8 26.4-3.9.2 1.3.5 2.7.7 4h5.6c-1.1-8.7 0-17.7-.6-26.7zm-5.6 17.7c-5.5 3.5-12 5.6-18.5 5.8-3.5 0-8.3-1.3-9-5.3-.8-3.9 2.8-6.8 6.1-7.7 6.9-2.2 14.2-2.9 21.5-3.4-.1 3.5.1 7.1-.1 10.6z"/></svg>