<svg xmlns="http://www.w3.org/2000/svg" width="300" height="49.848"><path fill="#020303" d="M299.777 36.931l-.921-3.17-.866-2.898s-2.735-8.914-3.092-10.088a478.474 478.474 0 0 1-1.298-4.313l-.069-.243 6.06-7.282-2.848-8.938-30.533.03-.932 1.485-.365-1.483-30.739.032-.754 1.686-.297-1.689-30.981.035-.545 2.024-.207-2.024-31.296.03-.3 3.31-.097-3.31-31.455.033-.105 3.027-.326-3.03-31.188.034-.209 1.951-.558-1.949-15.039.013-1.2 8.389-.685-1.731-.331-.03L85.972.208 71.124.223l-.301 1.609-.782-1.608-14.702.014-.334 1.502-.866-1.502-14.576.016-1.696 6.532-3.949.004-.757 2.855L26.295.267 12.11.281-.013 37.937l12.888 11.915h14.042l2.23-8.393 1.089 1.211h3.757l6.255 7.179 14.429-.004.285-1.358 1.021 1.36 14.541-.002.26-1.469.929 1.469 14.679-.002 1.134-7.871 3.787 7.871 14.875-.003.187-1.801.648 1.801 30.942-.003.111-2.862.341 2.863 31.191-.005.3-3.128.105 3.128 15.302-.003.478-2.198.144 2.198 15.116-.003.641-1.887.187 1.887h14.951l.769-1.68.223 1.68h14.808l.889-1.534.251 1.533 14.679-.005 8.486-12.098-.405-1.939 4.702-.002 6.64-9.198 5.716 23.235 14.409-.002 12.026-11.98-.248-.906zm-145.759-9.195l.155-5.141 14.732-.009.128-1.708.232 6.853-15.247.005z"/><path fill="#A9A09D" d="M26.943 8.807l-1.96 6.836h8.698l1.827-6.751 3.976-.003 1.693-6.547L52.64 2.33l-8.08 34.736-12.358.004 3.703-14.75-4.461-.005-1.93 7.185-8.005.003 1.996-7.192-4.521.013-4.359 14.751-12.131.007L13.631 2.369l11.251-.011-1.866 6.304zM68.447 2.4l-6.83 34.746-12.361.005L56.985 2.41zM85.164 25.878l1.024-7.183-4.477-.084-2.96 18.445-12.377.002 6.484-34.747L84.332 2.3l-1.005 6.433 3.928.1-.931 6.72 4.417.062L92.626 2.29l11.482-.01-4.023 34.768-12.39.005 1.551-11.074zM134.653 29.879l-.313 7.158-29.521.009 3.675-34.77 27.367-.028-.271 6.156-16.099.015-.507 7.093 16.295.044-.294 6.72-16.602.011-.558 7.528zM295.203 2.092l1.965 6.172-7.992.006.05.191c.331 1.35.688 2.723 1.072 4.125.387 1.407.795 2.837 1.218 4.286.427 1.454.863 2.929 1.315 4.405.452 1.484.911 2.978 1.368 4.471l.837 2.748c.287.928.573 1.863.855 2.802.287.943.568 1.891.85 2.838.278.949.557 1.898.824 2.847l-12.473.004-7.842-28.704-7.998.007-1.577-6.171 27.528-.027zM266.487 15.292l1.7 6.904-16.688.009 3.09 14.792-12.45.003-6.376-34.85 27.496-.027 1.517 6.17-16.187.014 1.461 6.978zM218.643 25.764l1.537 11.245-12.44.003-3.85-34.83 27.464-.027 6.024 34.85-12.443.003-1.62-11.228-4.672-.016zm8.064-13.679l-.699-4.424-5.437.006.5 4.054-4.268-.034-.55-4.017-5.26.007.553 4.42 4.829-.002.222 1.626-2.427.002.887 6.814 2.914-.003-.219-2.317 4.32-.017.361 2.331 2.954-.002-1.036-6.783-2.407-.013-.209-1.646 4.972-.002M197.071 18.978l4.104-.003 1.818 18.037-12.425.007-1.109-14.684-4.6-.113.955 14.797-12.423.007-1.335-34.813 27.432-.026 1.3 12.917-4.094-.004.377 3.878zm-8.105-3.456l-.538-7.162-4.465.001.461 7.163 4.542-.002M151.919 8.39l15.914-.013-.176-6.16-27.403.029-1.171 34.788 29.563-.008-.204-7.153-16.904.006z"/><path fill="#282729" d="M4.115 37.08c-.891 0-1.095.505-.451 1.122l8.792 8.427c.642.615 1.899 1.122 2.791 1.122h7.74c.892 0 1.122-.534.515-1.187l-7.77-8.304c-.607-.65-1.836-1.184-2.728-1.184l-8.889.004zM33.824 37.071c-.892 0-1.155.56-.582 1.243l6.865 8.191c.572.686 1.77 1.244 2.662 1.244h8.116c.892 0 1.186-.585.654-1.301l-6.011-8.08c-.533-.716-1.698-1.302-2.59-1.301l-9.114.004z"/><path fill="#282729" d="M23.129 29.502c-.891 0-1.138.545-.546 1.215l7.639 8.623c.592.668 1.671 1.186 2.401 1.15.727-.034.904-.66.391-1.39l-.532-.754c-.514-.729-.74-2.029-.501-2.89l.148-.538c.24-.858-.02-2.135-.573-2.834l-1.038-1.31c-.553-.7-1.735-1.272-2.626-1.272h-4.763zM50.877 37.151c-.893.001-1.188.59-.66 1.308l5.872 7.984c.526.719 1.689 1.307 2.581 1.307h7.994c.891 0 1.233-.617.757-1.373l-4.943-7.857c-.475-.756-1.592-1.374-2.484-1.372l-9.117.003zM67.995 37.058c-.891 0-1.241.623-.775 1.384l4.764 7.799c.466.76 1.573 1.383 2.466 1.383h7.866c.893 0 1.302-.655.907-1.456l-3.755-7.658c-.393-.801-1.444-1.455-2.336-1.455l-9.137.003zM89.317 37.052c-.891 0-1.314.662-.939 1.471l3.586 7.755c.376.81 1.411 1.471 2.303 1.471h8.12c.892 0 1.371-.685 1.063-1.522l-2.807-7.659c-.308-.837-1.287-1.521-2.18-1.521l-9.146.005zM106.44 37.047c-.891 0-1.375.688-1.075 1.525l2.645 7.397c.299.842 1.276 1.528 2.167 1.528h24.02c.892 0 1.519-.724 1.394-1.605l-1.026-7.251c-.124-.884-.958-1.605-1.847-1.605l-26.278.011zM140.704 37.034c-.891 0-1.543.725-1.447 1.613l.808 7.491c.096.888.903 1.612 1.795 1.612h23.896c.893 0 1.708-.725 1.812-1.61l.887-7.503c.105-.887-.541-1.611-1.431-1.61l-26.32.007zM175.012 37.024c-.892 0-1.713.725-1.826 1.61l-.935 7.381c-.113.886.524 1.609 1.417 1.609h7.997c.892 0 1.792-.71 1.997-1.577l1.776-7.451c.203-.868-.355-1.577-1.247-1.576l-9.179.004zM192.188 37.018c-.892 0-1.79.711-1.997 1.579l-1.737 7.324c-.206.868.355 1.578 1.248 1.578h7.996c.891 0 1.862-.688 2.157-1.53l2.603-7.426c.292-.841-.194-1.53-1.086-1.529l-9.184.004zM209.361 37.011c-.894 0-1.867.688-2.163 1.529l-2.668 7.557c-.297.84.188 1.528 1.079 1.528h7.989c.892 0 1.932-.662 2.31-1.471l3.586-7.677c.377-.809-.043-1.47-.934-1.47l-9.199.004zM226.556 37.006c-.892.001-1.941.656-2.331 1.458l-3.75 7.702c-.39.803.021 1.458.911 1.458h8.245c.893 0 1.987-.631 2.432-1.403l4.503-7.812c.447-.771.082-1.403-.811-1.403h-9.199zM243.762 36.999c-.891 0-2.002.624-2.465 1.386l-4.782 7.854c-.464.761-.114 1.385.776 1.385h8.117c.892 0 2.046-.594 2.563-1.321l5.681-7.985c.516-.727.211-1.322-.683-1.322l-9.207.003zM286.714 36.986c-.892 0-2.104.546-2.694 1.215l-7.135 8.081c-.591.669-.344 1.215.548 1.215h7.737c.894 0 2.144-.51 2.784-1.131l8.455-8.253c.636-.622.429-1.131-.464-1.13l-9.231.003z"/><path fill="#020303" d="M11.584 8.145c-.083.225.578.413 1.469.415l8.501.035c.892.004 1.63-.189 1.644-.426.012-.239-.708-.434-1.6-.434h-8.242c-.893-.001-1.69.184-1.772.41M10.994 25.811c.277-.847-.224-1.541-1.115-1.541H7.802c-.891 0-1.62.171-1.62.378 0 .208.729.38 1.62.38H8.83c.891 0 1.394.692 1.115 1.54l-1.89 5.753c-.277.849.225 1.542 1.117 1.542h6.369c.893 0 1.622-.171 1.622-.379s-.729-.378-1.622-.378h-5.322c-.892 0-1.394-.695-1.115-1.542l.151-.453c.278-.848 1.236-1.541 2.127-1.541h4.916c.893 0 1.623-.17 1.623-.377 0-.21-.73-.379-1.623-.379H11.63c-.891 0-1.393-.692-1.115-1.541l.479-1.462zM44.894 9.634c.121-.882-.512-1.606-1.402-1.606l-2.464.003c-.892.001-1.685.171-1.765.378-.08.205.587.375 1.479.375h1.885c.892 0 1.524.723 1.403 1.607l-.346 2.552c-.12.883-.948 1.606-1.838 1.606h-7.789c-.892 0-1.621.171-1.621.378 0 .208.729.379 1.621.379h15.311c.891 0 1.621-.171 1.621-.379 0-.207-.729-.378-1.621-.378h-3.519c-.891 0-1.525-.723-1.403-1.606l.448-3.309zM55.592 32.821c.16-.878.057-1.221-.229-.765-.287.454-.655 1.544-.82 2.423l-.241 1.286c-.165.875.11 2.197.611 2.936l.408.6c.502.738 1.302 1.63 1.779 1.984.476.354.461.038-.035-.704l-1.368-2.046c-.496-.742-.771-2.065-.61-2.943l.505-2.771zM67.779 9.375c0-.208-.728-.365-1.619-.347l-3.196.062c-.891.019-1.252.174-.801.347.451.174 1.55.317 2.441.317h1.555c.892 0 1.62-.171 1.62-.379M72.477 34.659c.195-.871.097-1.198-.214-.728-.309.472-.681 1.365-.827 1.985-.146.622-.029 1.751.261 2.508.289.759.789 1.719 1.11 2.133.323.413.358.06.077-.787l-.412-1.237c-.281-.847-.354-2.253-.162-3.123l.167-.751zM69.421 25.868c-.892-.044-1.629.087-1.642.296-.009.208.712.414 1.602.46l9.064.459c.889.044 1.851.443 2.135.884.284.439.659.708.833.596.176-.113.041-.641-.302-1.171-.341-.53-1.353-1.002-2.239-1.047l-9.451-.477zM79.015 8.169c.346.241 1.359.438 2.251.438h.689c.891 0 1.622-.17 1.622-.38 0-.206-.731-.395-1.622-.415l-1.951-.042c-.891-.022-1.336.159-.989.399M89.835 26.096c-.89.038-1.614.24-1.605.447.008.208.745.347 1.634.309l5.265-.223c.891-.038 1.511.653 1.377 1.535l-1.1 7.28c-.136.88-.035 2.3.224 3.155l.229.763c.259.853.772 1.982 1.146 2.507.374.526.468.257.213-.597l-.814-2.727c-.254-.855-.355-2.276-.222-3.156l1.21-8.022c.133-.881-.486-1.573-1.378-1.534l-6.179.263zM91.639 7.986c-.036.205.654.495 1.535.643l8.973 1.054c.884.11 1.608.028 1.608-.18 0-.21-.724-.471-1.608-.582l-8.845-1.038c-.881-.149-1.63-.101-1.663.103M111.164 30.814a1.558 1.558 0 0 0-1.565-1.619h-3.209c-.891 0-1.622.171-1.622.378 0 .208.731.379 1.622.379h2.424a1.56 1.56 0 0 1 1.565 1.62l-.13 3.744c-.031.891.125 2.326.346 3.189l.599 2.341c.223.864.637 1.993.926 2.508.286.517.361.226.163-.643l-.97-4.277c-.196-.869-.333-2.31-.303-3.201l.154-4.419zM106.662 12.406c0 .208.73.379 1.622.379h3.066c.891 0 1.99-.2 2.441-.441.452-.244.09-.431-.801-.418l-4.707.076c-.891.014-1.621.196-1.621.404M127.528 16.297c-.021-.892-.21-1.622-.422-1.622-.205 0-.376.73-.376 1.622v3.7c0 .892.197 1.194.441.675.242-.522.422-1.676.401-2.569l-.044-1.806zM131.219 30.097a1.695 1.695 0 0 1-1.679 1.619h-2.453c-.891 0-1.622.731-1.622 1.623v2.438c0 .892.169 1.621.38 1.621.209 0 .379-.729.379-1.621v-1.681c0-.891.729-1.619 1.623-1.619h2.428c.891 0 1.645-.729 1.675-1.622l.026-.785c.031-.892-.115-1.626-.323-1.635-.208-.007-.405.716-.435 1.606v.056zM162.266 31.785c-.174.332-.239 1.33-.144 2.216l.161 1.529c.093.886.069 2.335-.053 3.217l-1.067 7.726c-.121.882-.012 1.594.242 1.583.256-.012.555-.746.665-1.631l.949-7.663c.11-.886.122-2.336.026-3.222l-.291-2.746c-.096-.886-.314-1.341-.488-1.009M139.479 43.71c0 .208.729.379 1.621.379h.42c.891 0 1.62-.17 1.62-.379 0-.207-.729-.378-1.62-.378h-.42c-.892 0-1.621.171-1.621.378M142.384 13.414c.417.208 1.468.54 2.338.737l6.247 1.115c.82.353 1.557.487 1.639.295.084-.191-.541-.577-1.388-.858l-8.002-1.364c-.875-.168-1.251-.133-.834.075M142.255 20.42c.347-.244-.098-.416-.989-.383l-.292.01c-.894.032-1.621.229-1.621.437s.511.378 1.134.378c.626 0 1.42-.199 1.768-.442M177.545 13.792c.053.487.826.884 1.72.884h.707c.891 0 1.733.039 1.864.084.137.047.638.404.816.297s.048-.404-.288-.66c-.337-.256-1.379-.471-2.271-.474h-.15c-.893-.001-1.703-.729-1.803-1.613l-.994-8.938c-.1-.888-.351-1.593-.557-1.569-.205.023-.296.767-.196 1.653l.788 7.086c.101.886-.553 1.611-1.442 1.611h-2.574c-.892 0-1.62.17-1.62.376 0 .208.729.378 1.62.378h2.658c.892 0 1.666.398 1.722.885M176.46 31.578c.06.889-.253 2.249-.698 3.023l-.678.763c-.207.868-.211 1.612-.008 1.656.205.043.595-.615.866-1.465 0 0 .103-.37.432-.837.325-.47.688-.854.798-.854.112 0 .155-.729.094-1.618l-.282-4.087a1.495 1.495 0 0 1 1.51-1.616h6.074c.892 0 1.62-.171 1.62-.379 0-.207-.729-.38-1.62-.38h-6.884c-.891 0-1.574.729-1.512 1.619l.288 4.175zM189.215 28.437c0 .208.729.379 1.621.379h4.078c.893 0 1.934-.171 2.316-.379.387-.209-.031-.381-.922-.381l-5.473.002c-.89 0-1.62.171-1.62.379M192.717 17.747c.227.187 1.14.341 2.031.341h1.177c.893 0 1.622-.171 1.622-.378 0-.21-.729-.37-1.622-.357l-1.996.029c-.893.013-1.436.177-1.212.365M171.922 44.341c-.017.207.699.43 1.588.493l9.013.65c.888.065 1.628-.053 1.645-.261.014-.207-.702-.428-1.591-.493l-9.009-.648c-.889-.064-1.63.052-1.646.259M224.538 28.166c-.891.011-1.619.188-1.618.396.001.208.732.371 1.623.363l11.021 1.224c.888.086 1.674-.003 1.744-.199.074-.193-.594-.427-1.479-.517l-11.291-1.267zM258.898 14.17c-.195.07-.316.854-.274 1.746l1.007 5.078c-.382.806-.543 1.541-.356 1.635.188.093.659-.488 1.045-1.291l-.983-5.675c-.046-.891-.242-1.562-.439-1.493M253.048 4.704c-.797 0-1.656-.679-1.911-1.506-.255-.831-.624-1.458-.824-1.397-.198.061-.147.809.115 1.661l.139.451c.26.853 1.129 1.55 1.931 1.55.8 0 1.696.689 1.983 1.534l.377 1.092c.289.844.688 1.479.881 1.411.197-.066.12-.811-.169-1.655l-.55-1.607c-.288-.843-1.176-1.534-1.972-1.534M282.988 26.669c-.89 0-1.619.17-1.619.379 0 .21.729.381 1.619.381h10.392c.893 0 1.621-.171 1.621-.381 0-.209-.729-.379-1.621-.379h-10.392zM290.834 8.87c.2-.054.175-.803-.063-1.663l-1.04-3.815c-.232-.861-.59-1.52-.793-1.464-.198.054-.173.803.063 1.663l1.041 3.814c.237.859.592 1.519.792 1.465"/><path fill="#020303" d="M38.936 8.648h3.396c.891 0 .904-.142.029-.311l-1.171-.23c-.876-.171-1.546-.013-1.494.353l-.76.188zM19.937 42.256c-.345-.382-1.354-.606-2.237-.499l-1.959.242c-.885.108-.885.282.001.387l3.215.378c.887.103 1.328-.125.98-.508M52.063 46.424c-.241-.382-1.167-.634-2.057-.557l-4.215.357c-.889.074-.889.203-.002.284l5.103.462c.888.08 1.417-.165 1.171-.546M90.946 44.846c-.105-.346.538-.609 1.431-.584l1.05.032c.891.024.921.25.064.499l-.801.231c-.856.248-1.641.168-1.744-.178M135.439 42.385c-.068-.521-.845-.845-1.728-.719l-2.98.425c-.879.126-.879.342-.001.482l3.231.507c.882.139 1.546-.174 1.478-.695M139.161 44.188c-.045-.52.646-.861 1.53-.76l.093.011c.888.101.956.5.151.886l-.229.11c-.805.384-1.5.273-1.545-.247M111.016 35.505c-.105-.764-.304-.821-.443-.126s-.044 1.961.212 2.815l.204.679c.257.854.417.825.353-.063l-.02-.299a58.98 58.98 0 0 0-.306-3.006M125.783 36.072c-.174-.313-.291.16-.259 1.05l.013.423c.032.891.17 1.052.312.359.137-.695.109-1.519-.066-1.832M95.868 35.756c-.036-.765-.176-.765-.314 0-.139.765-.022 2.082.257 2.928l.236.709c.281.846.393.817.246-.061l-.096-.586c-.146-.882-.296-2.225-.329-2.99M71.818 36.325c-.139-.313-.369-.255-.504.126-.139.382.005 1.09.317 1.577.313.485.542.43.505-.126-.036-.555-.178-1.264-.318-1.577M55.029 35.79c-.172-.765-.484-.68-.692.187v.003c-.209.866.133 2.088.756 2.713.624.626.935.541.694-.188a34.296 34.296 0 0 1-.758-2.715M24.799 34.685c-.243-.313.286-.504 1.175-.427l2.571.223c.889.077.891.232.008.346l-1.704.22c-.883.114-1.806-.049-2.05-.362M162.478 35.215c.127-.882.38-.891.57-.021l.077.365c.188.872.154 2.291-.074 3.153l-.309 1.158c-.228.86-.436.836-.461-.055l-.032-1.048c-.026-.892.056-2.343.182-3.227l.047-.325zM152.355 15.75c0 .382-.604.282-1.341-.217l-.476-.323c-.738-.502-.633-.742.235-.534l.005.001c.868.21 1.577.69 1.577 1.073M201.65 41.436c.103-.347-.541-.61-1.434-.585l-1.174.034c-.89.026-.916.243-.06.486l.919.257c.858.24 1.645.154 1.749-.192M195.336 36.073c-.244-.521-.416-.217-.382.674l.006.166c.035.89.231 1.279.439.863.21-.417.182-1.182-.063-1.703M217.746 43.015c.138-.382-.476-.635-1.363-.565l-3.081.248c-.889.07-.896.237-.013.372l2.602.396c.879.134 1.714-.069 1.855-.451M214.59 36.262c-.14-.418-.338-.446-.442-.064-.103.382-.074 1.235.063 1.896.138.659.338.688.44.063.105-.626.078-1.478-.061-1.895M259.338 22.818c-.313-.104-.284-.843.064-1.641.346-.799.602-.725.566.167l-.001.044c-.034.891-.317 1.536-.629 1.43M238.13 42.131c.313-.381 1.29-.586 2.171-.454l4.367.655c.883.132.876.262-.014.286l-5.471.161c-.891.027-1.363-.266-1.053-.648M279.534 42.131c.382-.521 1.412-.809 2.289-.639l4.012.775c.874.169.862.348-.028.402l-5.347.314c-.893.054-1.308-.33-.926-.852M281.178 26.983c-.174-.59.403-.965 1.285-.834l3.61.533c.88.131.884.37.006.531l-2.989.549c-.877.161-1.737-.189-1.912-.779M276.946 9.438c-.277-.244-.533-1.172-.564-2.063l-.006-.169c-.03-.89.128-.913.357-.051l.304 1.157c.227.862.186 1.37-.091 1.126M236.807 30.583l-2.281-.914c-.829-.331-.782-.534.107-.451l2.423.227M150.147 37.901c.171-.485.171-1.251 0-1.704-.172-.451-1.044-.818-1.935-.818h-.927c-.892 0-1.876.425-2.189.947-.313.521.134 1.148.992 1.391l2.187.624c.859.244 1.7.045 1.872-.44"/><path fill="#020303" d="M148.632 36.639c-.593-.623-.563-1.136.064-1.136.625 0 1.392.314 1.704.696.311.382.18 1.314-.293 2.07l-.175.281c-.475.754-.717.891-.545.3.177-.593-.165-1.585-.755-2.211M91.511 8.238c.07-.486.833-.707 1.697-.49l.389.097c.866.218.862.56-.006.763l-.627.146c-.868.204-1.523-.028-1.453-.516M50.675 15.117c-.175.313-1.023.397-1.891.188l-.509-.123c-.865-.208-.849-.422.044-.476l1.051-.062c.89-.052 1.479.16 1.305.473M17.791 29.066c.141-.418-.464-.619-1.338-.448l-1.358.264c-.875.171-.871.424.009.561l.832.131c.88.138 1.716-.09 1.855-.508"/><path fill="#282729" d="M20.316 42.385c-.277-.311-.3-1.269-.047-2.123l.348-1.183c.251-.856.421-.827.38.064l-.102 2.189c-.041.893-.301 1.363-.579 1.053M51.875 46.549c-.278-.174-.278-.939 0-1.704.278-.764.505-.658.505.234v.164c0 .892-.227 1.48-.505 1.306M80.341 27.553c-.034-.556.203-.333.53.499l.2.516c.328.83.31 1.168-.037.752-.347-.417-.659-1.212-.693-1.767M238.512 42.637c.31-.244.366-1.144.121-2.001l-.374-1.302c-.244-.857-.427-.829-.404.062l.052 2.062c.018.891.293 1.422.605 1.179M280.168 42.383c.451-.244.516-1.105.141-1.913l-1.673-3.62c-.372-.812-.544-.758-.381.121l.796 4.26c.163.878.666 1.396 1.117 1.152M281.934 26.921c-.174-.347-.638.024-1.032.823l-1.725 3.528c-.394.801-.284.867.243.149l1.873-2.561c.527-.719.816-1.59.641-1.939"/><path fill="#020303" d="M254.855 9.627l.07-2.038c.03-.892.239-.915.463-.053l.603 2.343"/><path fill="#595558" d="M14.322 43.267c-.798-.243-.741-.385.126-.314a49.39 49.39 0 0 1 2.839.315c.693.104.637.247-.126.314-.764.07-2.041-.072-2.839-.315M54.283 38.797c-.629-.63-.721-.553-.204.172l.64.896c.518.725 1.341 1.574 1.828 1.887.486.313.458.058-.062-.568a41.993 41.993 0 0 0-2.095-2.282l-.107-.105zM70.557 37.02c-.21 0-.095.595.252 1.326.347.729.517.729.379 0-.139-.732-.423-1.326-.631-1.326M93.788 45.099c-.695-.07-.544-.256.333-.418l.969-.175c.877-.16 1.227-.062.776.216-.448.277-1.385.446-2.078.377M110.005 38.345c-.313-.451-.427-.168-.254.63.174.798.629 2.021 1.011 2.714.379.696.528.552.326-.315l-.146-.628c-.204-.87-.624-1.951-.937-2.401M163.656 39.732c-.105-.521-.363-.436-.569.188-.208.625-.379 1.817-.379 2.653 0 .832.232.822.514-.023l.111-.333c.281-.845.426-1.964.323-2.485M145.779 36.256c-.176-.532-.579-.441-.896.201-.316.643.083 1.487.883 1.877l.04.017c.798.389 1.195.295.875-.211-.317-.503-.726-1.351-.902-1.884M175.771 45.35c-.797-.207-.721-.378.171-.378h.293c.89 0 2.273.227 3.073.505.797.278.725.454-.167.389l-.298-.021c-.889-.064-2.271-.286-3.072-.495M196.033 38.345c-.067-.313-.324-.028-.568.63-.246.659-.188.916.126.569.312-.348.512-.889.442-1.199M215.523 37.656c-.07-.31-.326-.028-.568.632-.244.659-.186.917.127.568.311-.348.511-.887.441-1.2M212.394 43.511c-.876-.168-.865-.377.021-.464l.686-.066c.887-.085 1.983.071 2.436.35.451.278.309.505-.316.505s-1.852-.137-2.729-.306l-.098-.019zM241.038 43.458c-.799.069-.799-.073 0-.316.797-.244 2.179-.381 3.066-.305l1.187.104c.887.075.886.18-.004.231l-1.181.067c-.89.052-2.272.15-3.068.219"/><path fill="#282729" d="M259.525 23.071c-.416.174-1.036.989-1.378 1.813l-.017.034c-.342.824-.183.917.354.206l.817-1.077c.541-.712.643-1.151.224-.976"/><path fill="#020303" d="M290.899 9.249c-.383 0-.766-.726-.853-1.614l-.066-.685c-.086-.889.146-.95.513-.137l.435.959c.365.812.353 1.477-.029 1.477M171.608 12.845c-.034-.451.667-.795 1.558-.765l.542.017c.891.031.947.333.124.674l-.665.272c-.823.342-1.526.252-1.559-.198M127.236 14.486c-.35-.174-.541.407-.425 1.291l.089.701c.116.884.372.897.575.028l.026-.123c.203-.869.082-1.722-.265-1.897M87.532 26.795c-.104-.346.541-.63 1.432-.63h3.45c.891 0 .905.143.031.317l-3.133.625c-.873.175-1.677.035-1.78-.312M17.066 33.736c.053-.26-.634-.475-1.527-.475h-.828c-.894 0-.914.174-.048.386l.733.178c.865.214 1.616.171 1.67-.089"/><path fill="#E1DCD7" d="M4.515 36.623c-.892.011-1.479.16-1.303.333.175.175 1.047.317 1.938.317h6.606c.889 0 1.762-.17 1.936-.379.174-.209-.416-.37-1.307-.361l-7.87.09zM34.436 36.623c-.894.011-1.482.16-1.306.333.173.175 1.043.317 1.934.317h6.606c.891 0 1.763-.17 1.938-.379.174-.209-.416-.37-1.306-.361l-7.866.09zM51.257 36.492c-.891.028-1.573.196-1.516.37.059.174.837.316 1.728.316h.114c.892 0 1.67-.171 1.731-.379.058-.21-.622-.355-1.514-.327l-.543.02zM21.243 21.817c-.891.03-1.572.197-1.513.37.062.174.839.317 1.73.317h.112c.891 0 1.668-.171 1.73-.379.059-.21-.622-.356-1.513-.327l-.546.019zM33.645 21.817c-.89.03-1.57.197-1.512.37.062.174.838.317 1.728.317h.113c.892 0 1.669-.171 1.729-.379.06-.21-.622-.356-1.514-.327l-.544.019zM8.838 23.799c-.89.032-1.574.2-1.521.376.051.173.777.315 1.607.315s1.553-.171 1.606-.378c.054-.208-.631-.352-1.521-.319l-.171.006zM23.705 28.847c-.893.017-1.531.171-1.422.346.112.174.931.314 1.822.314h2.964c.893 0 1.712-.169 1.821-.376.111-.208-.529-.365-1.42-.349l-3.765.065zM16.888 7.263c-.893.016-1.531.171-1.42.344.11.173.929.315 1.819.315h2.968c.893 0 1.712-.17 1.821-.378.108-.209-.532-.367-1.423-.351l-3.765.07zM68.485 36.492c-.89.028-1.572.196-1.512.37.061.174.837.316 1.728.316h.111c.891 0 1.671-.171 1.731-.379.06-.21-.621-.355-1.515-.327l-.543.02zM97.927 36.487c-.891.031-1.577.2-1.522.375.053.174.777.317 1.607.317.833 0 1.554-.171 1.607-.381.053-.208-.635-.35-1.522-.319l-.17.008zM73.977 36.514c-.891.02-1.544.175-1.447.349.095.174.903.314 1.794.314h2.216c.892 0 1.699-.171 1.795-.378.095-.208-.556-.366-1.448-.346l-2.91.061zM89.598 36.516c-.893.017-1.533.172-1.426.347.108.174.925.315 1.816.315h2.793c.892 0 1.709-.171 1.818-.379.106-.208-.536-.367-1.427-.348l-3.574.065zM106.831 36.506c-.891.023-1.557.183-1.481.357.079.174.872.314 1.763.314h1.207c.891 0 1.685-.171 1.765-.379.079-.208-.586-.361-1.479-.338l-1.775.046zM141.005 36.506c-.891.023-1.557.183-1.477.357.08.174.874.314 1.766.314h1.202c.89 0 1.686-.171 1.766-.379.08-.208-.585-.361-1.476-.338l-1.781.046zM165.336 36.5c-.891.025-1.564.188-1.495.362.072.174.856.316 1.751.316h.7c.891 0 1.679-.171 1.749-.379.072-.209-.6-.359-1.492-.333l-1.213.034zM177.458 36.525c-.891.012-1.5.163-1.351.337.15.174 1.002.314 1.893.314h5.295c.891 0 1.743-.171 1.894-.379.152-.208-.455-.37-1.347-.358l-6.384.086zM192.415 36.495c-.891.028-1.57.194-1.507.369.063.172.843.315 1.731.315h.254c.892 0 1.671-.171 1.733-.379.064-.209-.615-.356-1.508-.329l-.703.024zM197.814 36.514c-.895.02-1.543.175-1.447.349s.906.314 1.797.314h2.271c.891 0 1.701-.171 1.799-.378.094-.208-.555-.366-1.447-.346l-2.973.061zM209.741 36.508c-.893.021-1.554.18-1.471.354s.881.316 1.773.316h1.425c.891 0 1.691-.171 1.772-.379.082-.208-.579-.363-1.471-.341l-2.028.05zM216.841 36.5c-.891.027-1.565.19-1.499.364.068.173.854.315 1.747.315h.59c.892 0 1.677-.171 1.742-.379.068-.209-.606-.358-1.497-.332l-1.083.032zM226.88 36.529c-.892.009-1.472.159-1.286.333.185.174 1.066.316 1.957.316h7.306c.892 0 1.774-.171 1.959-.38.185-.208-.392-.371-1.282-.361l-8.654.092zM243.918 36.529c-.892.009-1.471.159-1.285.333.184.174 1.066.316 1.959.316h7.305c.892 0 1.774-.171 1.961-.38.188-.208-.391-.371-1.281-.361l-8.659.092zM286.996 36.529c-.891.009-1.468.159-1.28.333.184.174 1.066.316 1.959.316h7.297c.893 0 1.776-.171 1.962-.38.185-.208-.392-.371-1.282-.361l-8.656.092zM271.184 7.827c-.891.018-1.536.172-1.431.347.104.174.921.315 1.812.315h2.686c.892 0 1.708-.17 1.813-.379.104-.208-.54-.366-1.432-.348l-3.448.065zM257.739 7.832c-.89.015-1.521.167-1.402.342.122.174.949.315 1.842.315h3.522c.894 0 1.72-.17 1.841-.378.118-.209-.512-.367-1.405-.353l-4.398.074zM250.92 7.819c-.891.021-1.552.181-1.467.354.082.174.878.316 1.773.316h1.515c.892 0 1.689-.17 1.774-.379.085-.209-.574-.362-1.468-.34l-2.127.049zM253.198 21.748c-.893.016-1.533.171-1.425.345.106.174.925.314 1.815.314h2.855c.89 0 1.707-.169 1.817-.376.109-.209-.534-.366-1.426-.35l-3.636.067zM211.635 6.876c-.892.021-1.554.18-1.469.354.083.172.88.314 1.773.314h1.512c.892 0 1.689-.17 1.774-.378.082-.208-.579-.362-1.471-.339l-2.119.049zM221.289 6.876c-.893.021-1.553.18-1.468.354.081.172.882.314 1.773.314h1.517c.891 0 1.688-.17 1.773-.378.081-.208-.578-.362-1.472-.339l-2.123.049zM215.107 13.004c-.72.032-1.275.204-1.232.378.042.175.599.318 1.236.318s1.193-.171 1.232-.379c.04-.207-.517-.35-1.236-.317M218.546 11.016c-.891.034-1.577.205-1.528.379.051.174.748.317 1.549.317s1.496-.171 1.546-.38c.05-.21-.639-.352-1.53-.317l-.037.001zM175.562 11.395c-.891.033-1.579.203-1.529.378.049.174.747.317 1.548.317s1.498-.171 1.553-.379c.053-.209-.636-.352-1.524-.319l-.048.003zM186.355 21.44c-.894.028-1.573.193-1.507.368.063.173.844.316 1.735.316h.279c.892 0 1.673-.169 1.734-.377.063-.21-.615-.357-1.507-.331l-.734.024zM178.781 25.058c-.891.02-1.543.175-1.446.348.097.174.904.315 1.798.315h2.211c.891 0 1.7-.171 1.795-.379.096-.21-.555-.365-1.445-.345l-2.913.061zM285.952 25.815c-.891.02-1.541.175-1.445.349.097.173.908.315 1.798.315h2.209c.893 0 1.701-.171 1.798-.38.097-.208-.554-.362-1.443-.344l-2.917.06zM107.685 28.645c-.891.024-1.563.187-1.492.36.073.172.861.314 1.752.314h.868c.891 0 1.682-.17 1.755-.378s-.595-.358-1.488-.334l-1.395.038zM92.533 25.614c-.891.024-1.561.187-1.489.36.072.173.859.314 1.75.314h.87c.893 0 1.683-.17 1.756-.377.073-.209-.597-.359-1.489-.335l-1.398.038zM70.944 25.329c-.892.025-1.561.188-1.488.362.075.174.865.316 1.756.316h.868c.891 0 1.681-.171 1.754-.381.074-.208-.597-.359-1.489-.335l-1.401.038zM38.287 13.782c-.891.016-1.541.168-1.443.342.1.175.909.32 1.802.324l2.378.008c.891.004 1.704-.165 1.802-.373.1-.209-.546-.367-1.439-.352l-3.1.051zM99.586 8.293c-.886-.097-1.574-.028-1.525.155.048.183.811.43 1.694.549l.863.117c.884.121 1.689.058 1.788-.137.099-.196-.543-.436-1.431-.533l-1.389-.151zM192.509 27.412c-.892.024-1.563.186-1.489.36.072.173.862.314 1.752.314h.869c.891 0 1.68-.17 1.753-.378.071-.208-.597-.358-1.491-.334l-1.394.038zM219.776 24.763c-.891.024-1.561.186-1.488.36.073.172.862.314 1.753.314h.87c.891 0 1.679-.171 1.752-.379.071-.21-.596-.358-1.488-.334l-1.399.039zM154.256 7.559c-.89.009-1.435.158-1.207.333.228.173 1.143.315 2.034.315h9.6c.891 0 1.805-.169 2.034-.38.224-.208-.318-.373-1.211-.364l-11.25.096zM121.787 7.657c-.89.007-1.43.156-1.194.329.235.174 1.158.315 2.048.315h10.012c.891 0 1.811-.169 2.047-.379.235-.208-.305-.372-1.196-.364l-11.717.099zM120.085 21.466c-.892.013-1.518.167-1.391.341.126.175.96.318 1.852.318h3.976c.89 0 1.724-.17 1.85-.378.126-.208-.5-.367-1.391-.354l-4.896.073zM128.791 21.465c-.891.013-1.523.168-1.402.342.121.175.948.318 1.84.318h3.554c.889 0 1.718-.169 1.839-.377.121-.21-.511-.369-1.402-.353l-4.429.07zM147.446 34.691c-.892.03-1.573.199-1.516.371.057.173.833.316 1.725.316h.027c.891 0 1.668-.17 1.728-.379s-.621-.354-1.513-.324l-.451.016zM144.883 12.498c-.886-.102-1.561-.033-1.5.149.062.187.834.436 1.717.558l1.629.227c.884.12 1.699.061 1.813-.134s-.516-.438-1.403-.541l-2.256-.259zM226.298 27.459c-.886-.102-1.56-.036-1.496.146.058.184.837.434 1.72.557l1.623.225c.884.121 1.698.063 1.813-.132.114-.194-.517-.436-1.402-.538l-2.258-.258zM223.349 13.004c-.667.032-1.184.204-1.146.378.037.175.552.318 1.143.318.594 0 1.108-.171 1.147-.379.039-.207-.476-.35-1.144-.317M261.812 21.75c-.891.016-1.524.168-1.405.342.121.174.947.316 1.839.316h3.527c.89 0 1.721-.17 1.839-.378.116-.208-.515-.365-1.408-.352l-4.392.072zM293.051 7.821c-.891.02-1.551.179-1.464.353.087.174.887.315 1.778.315h1.622c.894 0 1.694-.169 1.778-.379.089-.208-.57-.361-1.463-.341l-2.251.052zM152.936 36.527c-.891.011-1.487.162-1.325.336.166.173 1.029.314 1.92.314h6.074c.891 0 1.755-.17 1.92-.378.164-.208-.431-.37-1.322-.358l-7.267.086zM113.173 36.532c-.891.008-1.444.156-1.229.33.216.174 1.12.316 2.013.316h9.008c.892 0 1.799-.171 2.015-.381.216-.208-.338-.372-1.229-.363l-10.578.098zM127.943 36.519c-.89.016-1.523.17-1.405.344.119.173.945.314 1.836.314h3.469c.891 0 1.716-.171 1.837-.379.116-.208-.517-.366-1.408-.352l-4.329.073zM57.666 36.603c-.891.021-1.556.18-1.472.354.082.175.877.316 1.77.316h1.458c.891 0 1.688-.17 1.77-.379.084-.209-.577-.361-1.468-.34l-2.058.049z"/></svg>