<svg version="1.2" baseProfile="tiny" xmlns="http://www.w3.org/2000/svg" viewBox="121.6 175 743.4 362.2"><path fill="#9AA0B9" d="M176 520.4v-20.8c0-3.3-.4-5.6-1.2-6.8-.8-1.3-2.3-1.9-4.3-1.9-2.5 0-4.3.9-5.3 2.6-1 1.7-1.5 5.3-1.5 10.7v16.2h-13.1v-20.8c0-3.3-.4-5.6-1.2-6.9-.8-1.2-2.2-1.9-4.3-1.9-2.5 0-4.3.9-5.3 2.6-1 1.7-1.5 5.3-1.5 10.8v16.2h-13.2v-38.1h13.3v6.6c1.6-2.7 3.4-4.7 5.5-5.9 2.1-1.3 4.6-1.9 7.4-1.9 3.1 0 5.7.6 7.7 1.8 2 1.2 3.4 3 4.3 5.4 1.5-2.4 3.3-4.2 5.5-5.4 2.2-1.2 4.7-1.8 7.6-1.8 2.3 0 4.3.4 6.1 1.2 1.7.8 3.2 1.9 4.4 3.5.9 1.2 1.6 2.6 2 4.2.4 1.6.6 4.2.6 7.9v22.6H176zm50.4-19c0-2.8-.7-5.1-2.2-6.7-1.4-1.6-3.4-2.5-5.9-2.5-2.5 0-4.4.8-5.9 2.5-1.4 1.6-2.1 3.9-2.1 6.7 0 2.8.7 5.1 2.1 6.7 1.4 1.6 3.4 2.4 5.9 2.4 2.5 0 4.4-.8 5.9-2.4 1.5-1.6 2.2-3.8 2.2-6.7zm13.4 0c0 2.7-.5 5.3-1.6 7.8s-2.6 4.7-4.7 6.6c-2.1 2-4.4 3.4-7 4.5-2.6 1-5.3 1.5-8.2 1.5-2.9 0-5.7-.5-8.3-1.5-2.6-1-4.9-2.5-6.9-4.5-2-1.9-3.6-4.1-4.6-6.6-1.1-2.5-1.6-5.1-1.6-7.9 0-2.8.5-5.4 1.6-7.9s2.6-4.7 4.7-6.6c2-1.9 4.3-3.4 6.9-4.4 2.6-1 5.3-1.5 8.3-1.5 3 0 5.7.5 8.3 1.5 2.6 1 4.9 2.4 6.9 4.4 2.1 2 3.7 4.2 4.7 6.7 1 2.6 1.5 5.2 1.5 7.9zm7.8 19v-38.1H260v7.7c1.8-3.1 3.9-5.4 6.2-6.8 2.4-1.4 5.2-2.2 8.5-2.2 2.5 0 4.7.4 6.6 1.2 1.9.8 3.5 1.9 4.7 3.4 1 1.3 1.7 2.8 2.2 4.7.4 1.8.6 4.6.6 8.2v21.8h-13.6V500c0-3-.5-5.3-1.5-6.6-1-1.4-2.6-2.1-4.8-2.1-2.8 0-4.9 1-6.2 3.1-1.3 2.1-1.9 5.4-1.9 10v16h-13.2zm77.4-24c-.3-2.2-1.1-3.9-2.5-5.2-1.4-1.3-3.1-2-5.2-2-2.2 0-4 .6-5.3 1.8-1.3 1.2-2.2 3-2.6 5.4H325zm13.3 7.6h-29.2c0 2.9.8 5.2 2.3 6.8 1.5 1.6 3.6 2.4 6.4 2.4 2.1 0 3.8-.4 5.2-1.2 1.4-.8 2.5-1.9 3.2-3.4l10.2 4.1c-1.2 2.9-3.4 5.2-6.5 6.8-3.1 1.6-6.9 2.4-11.4 2.4-6.7 0-12.1-1.8-16.1-5.5-4-3.7-6.1-8.6-6.1-14.6 0-5.9 2-10.9 6.1-14.8 4-3.9 9.2-5.9 15.4-5.9 6.4 0 11.4 2 15.1 6 3.7 4 5.5 9.4 5.5 16.4v.5zm5.7 33.2l10.8-22.7-15.5-32.3h15l5.4 13.8c.5 1.2.8 2.2 1.1 3.2.3 1 .5 1.9.7 2.8.2-.9.4-1.8.7-2.8.3-1 .7-2 1.1-3.2l5.4-13.8h14.5l-24.2 55h-15zm55.8-35.8c0 3 .8 5.3 2.3 7 1.6 1.7 3.7 2.6 6.4 2.6 2.8 0 4.9-.8 6.5-2.5 1.6-1.7 2.4-4 2.4-7s-.8-5.3-2.4-7c-1.6-1.7-3.7-2.6-6.5-2.6-2.7 0-4.9.9-6.4 2.6-1.5 1.6-2.3 3.9-2.3 6.9zm-12-39.5h12.9v19.9c0 1.6 0 3-.1 4-.1 1.1-.2 2-.3 2.8 1.6-2.7 3.4-4.7 5.4-5.8 2-1.2 4.7-1.7 8-1.7 5.1 0 9.3 1.9 12.5 5.6 3.2 3.7 4.8 8.6 4.8 14.7 0 6.3-1.6 11.3-4.8 15-3.2 3.7-7.5 5.6-12.9 5.6-2.6 0-5-.6-7.2-1.9-2.2-1.3-4.1-3.2-5.8-5.8v6.2h-12.5v-58.6zm78.6 39.5c0-2.8-.7-5.1-2.2-6.7-1.4-1.6-3.4-2.5-5.9-2.5-2.5 0-4.4.8-5.9 2.5-1.4 1.6-2.1 3.9-2.1 6.7 0 2.8.7 5.1 2.1 6.7 1.4 1.6 3.4 2.4 5.9 2.4 2.5 0 4.4-.8 5.9-2.4 1.5-1.6 2.2-3.8 2.2-6.7zm13.5 0c0 2.7-.5 5.3-1.6 7.8s-2.6 4.7-4.7 6.6c-2.1 2-4.4 3.4-7 4.5-2.6 1-5.3 1.5-8.2 1.5-2.9 0-5.7-.5-8.3-1.5-2.6-1-4.9-2.5-6.9-4.5-2-1.9-3.6-4.1-4.6-6.6-1.1-2.5-1.6-5.1-1.6-7.9 0-2.8.5-5.4 1.6-7.9s2.6-4.7 4.7-6.6c2-1.9 4.3-3.4 6.9-4.4 2.6-1 5.3-1.5 8.3-1.5 3 0 5.7.5 8.3 1.5 2.6 1 4.9 2.4 6.9 4.4 2.1 2 3.7 4.2 4.7 6.7.9 2.6 1.5 5.2 1.5 7.9zm35.1 0c0-2.8-.7-5.1-2.2-6.7-1.4-1.6-3.4-2.5-5.9-2.5-2.5 0-4.4.8-5.9 2.5-1.4 1.6-2.1 3.9-2.1 6.7 0 2.8.7 5.1 2.1 6.7 1.4 1.6 3.4 2.4 5.9 2.4 2.5 0 4.4-.8 5.9-2.4 1.4-1.6 2.2-3.8 2.2-6.7zm13.4 0c0 2.7-.5 5.3-1.6 7.8s-2.6 4.7-4.7 6.6c-2.1 2-4.4 3.4-7 4.5-2.6 1-5.3 1.5-8.2 1.5-2.9 0-5.7-.5-8.3-1.5s-4.9-2.5-6.9-4.5c-2-1.9-3.6-4.1-4.6-6.6-1.1-2.5-1.6-5.1-1.6-7.9 0-2.8.5-5.4 1.6-7.9s2.6-4.7 4.7-6.6c2-1.9 4.3-3.4 6.9-4.4 2.6-1 5.3-1.5 8.3-1.5 3 0 5.7.5 8.3 1.5 2.6 1 4.9 2.4 6.9 4.4 2.1 2 3.7 4.2 4.7 6.7 1 2.6 1.5 5.2 1.5 7.9zm7.9 19v-58.5h13.3v37l14-16.7h16.8l-17.3 18.4 18.8 19.8h-17.8l-14.5-17v17h-13.3zm76.3-24c-.3-2.2-1.1-3.9-2.5-5.2-1.4-1.3-3.1-2-5.2-2-2.2 0-4 .6-5.3 1.8-1.3 1.2-2.2 3-2.6 5.4h15.6zM626 504h-29.2c0 2.9.8 5.2 2.3 6.8 1.5 1.6 3.6 2.4 6.4 2.4 2.1 0 3.8-.4 5.2-1.2 1.4-.8 2.5-1.9 3.2-3.4l10.2 4.1c-1.2 2.9-3.4 5.2-6.5 6.8-3.1 1.6-6.9 2.4-11.4 2.4-6.7 0-12.1-1.8-16.1-5.5-4-3.7-6.1-8.6-6.1-14.6 0-5.9 2-10.9 6.1-14.8 4-3.9 9.2-5.9 15.4-5.9 6.4 0 11.4 2 15.1 6 3.7 4 5.5 9.4 5.5 16.4v.5zm7.9 16.4v-38.1h12.8v9c1.3-3.3 3.1-5.7 5.4-7.4 2.3-1.6 5-2.5 8.3-2.5.5 0 1.1 0 1.6.1.5 0 1.1.1 1.7.2l-1.3 12.2c-.8-.3-1.6-.5-2.4-.6-.8-.1-1.5-.2-2.3-.2-3.3 0-5.8 1-7.6 3-1.8 2-2.7 4.8-2.7 8.5v15.8h-13.5zm31.2-3.2l2.8-10.3c2 1.7 4.2 3 6.5 3.9 2.4.9 4.8 1.4 7.2 1.4 1.7 0 3-.3 3.9-.8.9-.5 1.3-1.3 1.3-2.4 0-1.7-1.8-2.9-5.4-3.8-1.2-.3-2.1-.5-2.8-.7-4.1-1.1-7-2.6-8.8-4.4-1.8-1.8-2.8-4.1-2.8-7 0-3.7 1.4-6.7 4.2-8.9 2.8-2.2 6.6-3.3 11.4-3.3 2.5 0 5 .3 7.5.8 2.5.6 5.2 1.4 7.8 2.6l-2.8 9.3c-1.8-1.2-3.6-2.1-5.5-2.8-1.9-.6-3.7-.9-5.6-.9-1.5 0-2.7.2-3.5.7-.8.5-1.2 1.2-1.2 2.1 0 1.4 1.8 2.5 5.3 3.4.8.2 1.4.4 1.8.5 4.7 1.3 8 2.9 9.8 4.7s2.8 4.2 2.8 7.3c0 3.9-1.5 7.1-4.5 9.5-3 2.4-7 3.6-12 3.6-3.4 0-6.5-.4-9.4-1.2s-5.5-1.7-8-3.3zM756.1 511v6.9c-1.6.9-3.4 1.6-5.4 2.1-2 .5-4.2.7-6.5.7-5.5 0-9.9-1.7-13.2-5.1s-5-7.9-5-13.4c0-5.6 1.7-10.1 5.2-13.6s7.9-5.3 13.3-5.3c2 0 3.9.2 5.8.6s3.6 1 5.3 1.8v6.4c-1.5-1-3.2-1.7-4.8-2.3-1.7-.5-3.3-.8-5-.8-4 0-7.2 1.2-9.6 3.7-2.4 2.4-3.6 5.7-3.6 9.7 0 3.6 1.2 6.5 3.6 8.9 2.4 2.4 5.4 3.6 9.1 3.6 1.8 0 3.6-.3 5.4-.9 1.6-.6 3.5-1.6 5.4-3zm12-9c0 3.7 1.3 6.8 3.8 9.3 2.5 2.5 5.5 3.8 9.1 3.8 3.5 0 6.5-1.3 9-3.8s3.7-5.6 3.7-9.3c0-3.7-1.2-6.8-3.7-9.3-2.5-2.5-5.5-3.8-9-3.8-3.6 0-6.6 1.3-9.1 3.8s-3.8 5.6-3.8 9.3zm-6.4 0c0-2.6.5-5 1.4-7.2 1-2.3 2.3-4.3 4.2-6 1.8-1.8 3.9-3.1 6.2-4 2.3-.9 4.8-1.4 7.4-1.4 2.6 0 5 .5 7.3 1.4 2.3.9 4.4 2.3 6.3 4.1 1.8 1.7 3.2 3.7 4.2 6s1.4 4.7 1.4 7.2-.5 4.9-1.4 7.1c-1 2.2-2.4 4.2-4.2 6-1.9 1.8-4 3.2-6.3 4.2s-4.8 1.4-7.3 1.4c-2.6 0-5.1-.5-7.4-1.4-2.3-.9-4.4-2.3-6.3-4.1-1.8-1.8-3.2-3.8-4.2-6.1-.8-2.3-1.3-4.6-1.3-7.2zm97.3 17.3v-20.4c0-3.5-.7-6.1-2.2-7.8-1.4-1.7-3.7-2.6-6.7-2.6-1.6 0-3.1.3-4.5 1-1.4.6-2.6 1.6-3.5 2.7-.7.9-1.2 2-1.5 3.2s-.5 3.2-.5 6v17.9h-5.8v-20.4c0-3.5-.7-6.1-2.2-7.8-1.4-1.7-3.7-2.6-6.7-2.6-1.6 0-3.1.3-4.6 1-1.4.6-2.6 1.6-3.5 2.7-.7.9-1.2 1.9-1.5 3.1-.3 1.2-.4 3.2-.4 6.1v17.9h-5.8v-34.7h5.9v5.3c1.5-2.2 3.2-3.9 5.3-5 2-1.1 4.4-1.6 7-1.6 2.9 0 5.3.6 7.3 1.8 2 1.2 3.5 3 4.6 5.3 1.5-2.4 3.3-4.1 5.4-5.3 2.1-1.2 4.5-1.7 7.2-1.7 4 0 7 1.1 9.3 3.3 2.2 2.2 3.3 5.2 3.3 9.1v23.6H859zM740.2 177c-67.1 0-121.8 54.7-121.8 121.8s54.7 121.8 121.8 121.8S862 365.9 862 298.8 807.2 177 740.2 177zm0 31.7c49.9 0 90.1 40.2 90.1 90.1s-40.2 90.1-90.1 90.1c-49.9 0-90.1-40.2-90.1-90.1s40.1-90.1 90.1-90.1z"/><path fill="#9AA0B9" d="M567.2 175c-30.9 33-49.5 75.1-49.5 120.8 0 48.6 20.9 93 55.3 126.8h48.8c-42.8-29.7-70.3-75.4-70.3-126.8 0-48 24-91.1 62.1-120.8h-46.4zM171.1 175c-30.9 33-49.5 75.1-49.5 120.8 0 48.6 20.9 93 55.3 126.8h48.8c-42.8-29.7-70.3-75.4-70.3-126.8 0-48 24-91.1 62.1-120.8h-46.4z"/><path fill="#9AA0B9" d="M270.2 175c-30.9 33-49.5 75.1-49.5 120.8 0 48.6 20.9 93 55.3 126.8h48.8c-42.8-29.7-70.3-75.4-70.3-126.8 0-48 24-91.1 62.1-120.8h-46.4zM371.2 175c-30.9 33-49.5 75.1-49.5 120.8 0 48.6 20.9 93 55.3 126.8h48.8c-42.8-29.7-70.3-75.4-70.3-126.8 0-48 24-91.1 62.1-120.8h-46.4z"/><path fill="#9AA0B9" d="M470.2 175c-30.9 33-49.5 75.1-49.5 120.8 0 48.6 20.9 93 55.3 126.8h48.8c-42.8-29.7-70.3-75.4-70.3-126.8 0-48 24-91.1 62.1-120.8h-46.4zM716.2 516.1c0 2.1-1.7 3.9-3.9 3.9s-3.9-1.7-3.9-3.9 1.7-3.9 3.9-3.9 3.9 1.8 3.9 3.9z"/></svg>