<svg version="1.2" baseProfile="tiny" id="svg2" xmlns:svg="http://www.w3.org/2000/svg" xmlns="http://www.w3.org/2000/svg" xmlns:xlink="http://www.w3.org/1999/xlink" x="0px" y="0px" viewBox="121.6 175 743.4 362.2" xml:space="preserve"><g id="layer1"></g><path id="text3590" fill="#9AA0B9" d="M176,520.4v-20.8c0-3.3-0.4-5.6-1.2-6.8c-0.8-1.3-2.3-1.9-4.3-1.9c-2.5,0-4.3,0.9-5.3,2.6 c-1,1.7-1.5,5.3-1.5,10.7v16.2h-13.1v-20.8c0-3.3-0.4-5.6-1.2-6.9c-0.8-1.2-2.2-1.9-4.3-1.9c-2.5,0-4.3,0.9-5.3,2.6 c-1,1.7-1.5,5.3-1.5,10.8v16.2h-13.2v-38.1h13.3v6.6c1.6-2.7,3.4-4.7,5.5-5.9c2.1-1.3,4.6-1.9,7.4-1.9c3.1,0,5.7,0.6,7.7,1.8 c2,1.2,3.4,3,4.3,5.4c1.5-2.4,3.3-4.2,5.5-5.4c2.2-1.2,4.7-1.8,7.6-1.8c2.3,0,4.3,0.4,6.1,1.2c1.7,0.8,3.2,1.9,4.4,3.5 c0.9,1.2,1.6,2.6,2,4.2c0.4,1.6,0.6,4.2,0.6,7.9v0.8v21.8H176z M226.4,501.4c0-2.8-0.7-5.1-2.2-6.7c-1.4-1.6-3.4-2.5-5.9-2.5 c-2.5,0-4.4,0.8-5.9,2.5c-1.4,1.6-2.1,3.9-2.1,6.7c0,2.8,0.7,5.1,2.1,6.7c1.4,1.6,3.4,2.4,5.9,2.4c2.5,0,4.4-0.8,5.9-2.4 C225.7,506.5,226.4,504.3,226.4,501.4L226.4,501.4z M239.8,501.4c0,2.7-0.5,5.3-1.6,7.8c-1.1,2.5-2.6,4.7-4.7,6.6 c-2.1,2-4.4,3.4-7,4.5c-2.6,1-5.3,1.5-8.2,1.5c-2.9,0-5.7-0.5-8.3-1.5c-2.6-1-4.9-2.5-6.9-4.5c-2-1.9-3.6-4.1-4.6-6.6 c-1.1-2.5-1.6-5.1-1.6-7.9c0-2.8,0.5-5.4,1.6-7.9c1.1-2.5,2.6-4.7,4.7-6.6c2-1.9,4.3-3.4,6.9-4.4c2.6-1,5.3-1.5,8.3-1.5 c3,0,5.7,0.5,8.3,1.5c2.6,1,4.9,2.4,6.9,4.4c2.1,2,3.7,4.2,4.7,6.7C239.3,496.1,239.8,498.7,239.8,501.4L239.8,501.4z M247.6,520.4 v-38.1h12.4v7.7c1.8-3.1,3.9-5.4,6.2-6.8c2.4-1.4,5.2-2.2,8.5-2.2c2.5,0,4.7,0.4,6.6,1.2c1.9,0.8,3.5,1.9,4.7,3.4 c1,1.3,1.7,2.8,2.2,4.7c0.4,1.8,0.6,4.6,0.6,8.2v21.8h-13.6V500c0-3-0.5-5.3-1.5-6.6c-1-1.4-2.6-2.1-4.8-2.1c-2.8,0-4.9,1-6.2,3.1 c-1.3,2.1-1.9,5.4-1.9,10v16H247.6z M325,496.4c-0.3-2.2-1.1-3.9-2.5-5.2c-1.4-1.3-3.1-2-5.2-2c-2.2,0-4,0.6-5.3,1.8 c-1.3,1.2-2.2,3-2.6,5.4H325z M338.3,504h-29.2c0,2.9,0.8,5.2,2.3,6.8c1.5,1.6,3.6,2.4,6.4,2.4c2.1,0,3.8-0.4,5.2-1.2 c1.4-0.8,2.5-1.9,3.2-3.4l10.2,4.1c-1.2,2.9-3.4,5.2-6.5,6.8c-3.1,1.6-6.9,2.4-11.4,2.4c-6.7,0-12.1-1.8-16.1-5.5 c-4-3.7-6.1-8.6-6.1-14.6c0-5.9,2-10.9,6.1-14.8c4-3.9,9.2-5.9,15.4-5.9c6.4,0,11.4,2,15.1,6c3.7,4,5.5,9.4,5.5,16.4V504z M344,537.2l10.8-22.7l-15.5-32.3h15l5.4,13.8c0.5,1.2,0.8,2.2,1.1,3.2c0.3,1,0.5,1.9,0.7,2.8c0.2-0.9,0.4-1.8,0.7-2.8 c0.3-1,0.7-2,1.1-3.2l5.4-13.8h14.5l-24.2,55H344z M399.8,501.4c0,3,0.8,5.3,2.3,7c1.6,1.7,3.7,2.6,6.4,2.6c2.8,0,4.9-0.8,6.5-2.5 c1.6-1.7,2.4-4,2.4-7c0-3-0.8-5.3-2.4-7c-1.6-1.7-3.7-2.6-6.5-2.6c-2.7,0-4.9,0.9-6.4,2.6C400.6,496.1,399.8,498.4,399.8,501.4 L399.8,501.4z M387.8,461.9h12.9v19.9c0,1.6,0,3-0.1,4c-0.1,1.1-0.2,2-0.3,2.8c1.6-2.7,3.4-4.7,5.4-5.8c2-1.2,4.7-1.7,8-1.7 c5.1,0,9.3,1.9,12.5,5.6c3.2,3.7,4.8,8.6,4.8,14.7c0,6.3-1.6,11.3-4.8,15c-3.2,3.7-7.5,5.6-12.9,5.6c-2.6,0-5-0.6-7.2-1.9 c-2.2-1.3-4.1-3.2-5.8-5.8v6.2h-12.5V461.9z M466.4,501.4c0-2.8-0.7-5.1-2.2-6.7c-1.4-1.6-3.4-2.5-5.9-2.5c-2.5,0-4.4,0.8-5.9,2.5 c-1.4,1.6-2.1,3.9-2.1,6.7c0,2.8,0.7,5.1,2.1,6.7c1.4,1.6,3.4,2.4,5.9,2.4c2.5,0,4.4-0.8,5.9-2.4 C465.7,506.5,466.4,504.3,466.4,501.4L466.4,501.4z M479.9,501.4c0,2.7-0.5,5.3-1.6,7.8c-1.1,2.5-2.6,4.7-4.7,6.6 c-2.1,2-4.4,3.4-7,4.5c-2.6,1-5.3,1.5-8.2,1.5c-2.9,0-5.7-0.5-8.3-1.5c-2.6-1-4.9-2.5-6.9-4.5c-2-1.9-3.6-4.1-4.6-6.6 c-1.1-2.5-1.6-5.1-1.6-7.9c0-2.8,0.5-5.4,1.6-7.9c1.1-2.5,2.6-4.7,4.7-6.6c2-1.9,4.3-3.4,6.9-4.4c2.6-1,5.3-1.5,8.3-1.5 c3,0,5.7,0.5,8.3,1.5c2.6,1,4.9,2.4,6.9,4.4c2.1,2,3.7,4.2,4.7,6.7C479.3,496.1,479.9,498.7,479.9,501.4L479.9,501.4z M515,501.4 c0-2.8-0.7-5.1-2.2-6.7c-1.4-1.6-3.4-2.5-5.9-2.5c-2.5,0-4.4,0.8-5.9,2.5c-1.4,1.6-2.1,3.9-2.1,6.7c0,2.8,0.7,5.1,2.1,6.7 c1.4,1.6,3.4,2.4,5.9,2.4c2.5,0,4.4-0.8,5.9-2.4C514.2,506.5,515,504.3,515,501.4L515,501.4z M528.4,501.4c0,2.7-0.5,5.3-1.6,7.8 c-1.1,2.5-2.6,4.7-4.7,6.6c-2.1,2-4.4,3.4-7,4.5c-2.6,1-5.3,1.5-8.2,1.5c-2.9,0-5.7-0.5-8.3-1.5s-4.9-2.5-6.9-4.5 c-2-1.9-3.6-4.1-4.6-6.6c-1.1-2.5-1.6-5.1-1.6-7.9c0-2.8,0.5-5.4,1.6-7.9c1.1-2.5,2.6-4.7,4.7-6.6c2-1.9,4.3-3.4,6.9-4.4 c2.6-1,5.3-1.5,8.3-1.5c3,0,5.7,0.5,8.3,1.5c2.6,1,4.9,2.4,6.9,4.4c2.1,2,3.7,4.2,4.7,6.7C527.9,496.1,528.4,498.7,528.4,501.4 L528.4,501.4z M536.3,520.4v-58.5h13.3v37l14-16.7h16.8l-17.3,18.4l18.8,19.8h-17.8l-14.5-17v17H536.3z M612.6,496.4 c-0.3-2.2-1.1-3.9-2.5-5.2c-1.4-1.3-3.1-2-5.2-2c-2.2,0-4,0.6-5.3,1.8c-1.3,1.2-2.2,3-2.6,5.4H612.6z M626,504h-29.2 c0,2.9,0.8,5.2,2.3,6.8c1.5,1.6,3.6,2.4,6.4,2.4c2.1,0,3.8-0.4,5.2-1.2c1.4-0.8,2.5-1.9,3.2-3.4l10.2,4.1c-1.2,2.9-3.4,5.2-6.5,6.8 c-3.1,1.6-6.9,2.4-11.4,2.4c-6.7,0-12.1-1.8-16.1-5.5c-4-3.7-6.1-8.6-6.1-14.6c0-5.9,2-10.9,6.1-14.8c4-3.9,9.2-5.9,15.4-5.9 c6.4,0,11.4,2,15.1,6c3.7,4,5.5,9.4,5.5,16.4V504z M633.9,520.4v-38.1h12.8v9c1.3-3.3,3.1-5.7,5.4-7.4c2.3-1.6,5-2.5,8.3-2.5 c0.5,0,1.1,0,1.6,0.1c0.5,0,1.1,0.1,1.7,0.2l-1.3,12.2c-0.8-0.3-1.6-0.5-2.4-0.6c-0.8-0.1-1.5-0.2-2.3-0.2c-3.3,0-5.8,1-7.6,3 c-1.8,2-2.7,4.8-2.7,8.5v15.8H633.9z M665.1,517.2l2.8-10.3c2,1.7,4.2,3,6.5,3.9c2.4,0.9,4.8,1.4,7.2,1.4c1.7,0,3-0.3,3.9-0.8 c0.9-0.5,1.3-1.3,1.3-2.4c0-1.7-1.8-2.9-5.4-3.8c-1.2-0.3-2.1-0.5-2.8-0.7c-4.1-1.1-7-2.6-8.8-4.4c-1.8-1.8-2.8-4.1-2.8-7 c0-3.7,1.4-6.7,4.2-8.9c2.8-2.2,6.6-3.3,11.4-3.3c2.5,0,5,0.3,7.5,0.8c2.5,0.6,5.2,1.4,7.8,2.6l-2.8,9.3c-1.8-1.2-3.6-2.1-5.5-2.8 c-1.9-0.6-3.7-0.9-5.6-0.9c-1.5,0-2.7,0.2-3.5,0.7c-0.8,0.5-1.2,1.2-1.2,2.1c0,1.4,1.8,2.5,5.3,3.4c0.8,0.2,1.4,0.4,1.8,0.5 c4.7,1.3,8,2.9,9.8,4.7s2.8,4.2,2.8,7.3c0,3.9-1.5,7.1-4.5,9.5c-3,2.4-7,3.6-12,3.6c-3.4,0-6.5-0.4-9.4-1.2S667.6,518.8,665.1,517.2 L665.1,517.2z"/><path id="text3598" fill="#9AA0B9" d="M756.1,511v6.9c-1.6,0.9-3.4,1.6-5.4,2.1c-2,0.5-4.2,0.7-6.5,0.7c-5.5,0-9.9-1.7-13.2-5.1 s-5-7.9-5-13.4c0-5.6,1.7-10.1,5.2-13.6c3.5-3.5,7.9-5.3,13.3-5.3c2,0,3.9,0.2,5.8,0.6s3.6,1,5.3,1.8v6.4c-1.5-1-3.2-1.7-4.8-2.3 c-1.7-0.5-3.3-0.8-5-0.8c-4,0-7.2,1.2-9.6,3.7c-2.4,2.4-3.6,5.7-3.6,9.7c0,3.6,1.2,6.5,3.6,8.9c2.4,2.4,5.4,3.6,9.1,3.6 c1.8,0,3.6-0.3,5.4-0.9C752.3,513.4,754.2,512.4,756.1,511L756.1,511z M768.1,502c0,3.7,1.3,6.8,3.8,9.3c2.5,2.5,5.5,3.8,9.1,3.8 c3.5,0,6.5-1.3,9-3.8c2.5-2.5,3.7-5.6,3.7-9.3c0-3.7-1.2-6.8-3.7-9.3c-2.5-2.5-5.5-3.8-9-3.8c-3.6,0-6.6,1.3-9.1,3.8 C769.4,495.2,768.1,498.3,768.1,502L768.1,502z M761.7,502c0-2.6,0.5-5,1.4-7.2c1-2.3,2.3-4.3,4.2-6c1.8-1.8,3.9-3.1,6.2-4 c2.3-0.9,4.8-1.4,7.4-1.4c2.6,0,5,0.5,7.3,1.4c2.3,0.9,4.4,2.3,6.3,4.1c1.8,1.7,3.2,3.7,4.2,6c1,2.3,1.4,4.7,1.4,7.2 c0,2.5-0.5,4.9-1.4,7.1c-1,2.2-2.4,4.2-4.2,6c-1.9,1.8-4,3.2-6.3,4.2c-2.3,1-4.8,1.4-7.3,1.4c-2.6,0-5.1-0.5-7.4-1.4 c-2.3-0.9-4.4-2.3-6.3-4.1c-1.8-1.8-3.2-3.8-4.2-6.1C762.2,506.9,761.7,504.6,761.7,502L761.7,502z M859,519.3v-20.4 c0-3.5-0.7-6.1-2.2-7.8c-1.4-1.7-3.7-2.6-6.7-2.6c-1.6,0-3.1,0.3-4.5,1c-1.4,0.6-2.6,1.6-3.5,2.7c-0.7,0.9-1.2,2-1.5,3.2 s-0.5,3.2-0.5,6v17.9h-5.8v-20.4c0-3.5-0.7-6.1-2.2-7.8c-1.4-1.7-3.7-2.6-6.7-2.6c-1.6,0-3.1,0.3-4.6,1c-1.4,0.6-2.6,1.6-3.5,2.7 c-0.7,0.9-1.2,1.9-1.5,3.1c-0.3,1.2-0.4,3.2-0.4,6.1v17.9h-5.8v-34.7h5.9v5.3c1.5-2.2,3.2-3.9,5.3-5c2-1.1,4.4-1.6,7-1.6 c2.9,0,5.3,0.6,7.3,1.8c2,1.2,3.5,3,4.6,5.3c1.5-2.4,3.3-4.1,5.4-5.3c2.1-1.2,4.5-1.7,7.2-1.7c4,0,7,1.1,9.3,3.3 c2.2,2.2,3.3,5.2,3.3,9.1v23.6H859z"/><path id="path3611" fill="#9AA0B9" d="M740.2,177c-67.1,0-121.8,54.7-121.8,121.8s54.7,121.8,121.8,121.8S862,365.9,862,298.8 S807.2,177,740.2,177z M740.2,208.7c49.9,0,90.1,40.2,90.1,90.1s-40.2,90.1-90.1,90.1c-49.9,0-90.1-40.2-90.1-90.1 S690.2,208.7,740.2,208.7z"/><path id="path3633" fill="#9AA0B9" d="M567.2,175c-30.9,33-49.5,75.1-49.5,120.8c0,48.6,20.9,93,55.3,126.8h48.8 c-42.8-29.7-70.3-75.4-70.3-126.8c0-48,24-91.1,62.1-120.8H567.2z"/><path id="path3655" fill="#9AA0B9" d="M171.1,175c-30.9,33-49.5,75.1-49.5,120.8c0,48.6,20.9,93,55.3,126.8h48.8 c-42.8-29.7-70.3-75.4-70.3-126.8c0-48,24-91.1,62.1-120.8H171.1z"/><path id="path3657" fill="#9AA0B9" d="M270.2,175c-30.9,33-49.5,75.1-49.5,120.8c0,48.6,20.9,93,55.3,126.8h48.8 c-42.8-29.7-70.3-75.4-70.3-126.8c0-48,24-91.1,62.1-120.8H270.2z"/><path id="path3659" fill="#9AA0B9" d="M371.2,175c-30.9,33-49.5,75.1-49.5,120.8c0,48.6,20.9,93,55.3,126.8h48.8 c-42.8-29.7-70.3-75.4-70.3-126.8c0-48,24-91.1,62.1-120.8H371.2z"/><path id="path3661" fill="#9AA0B9" d="M470.2,175c-30.9,33-49.5,75.1-49.5,120.8c0,48.6,20.9,93,55.3,126.8h48.8 c-42.8-29.7-70.3-75.4-70.3-126.8c0-48,24-91.1,62.1-120.8H470.2z"/><path id="path3670" fill="#9AA0B9" d="M716.2,516.1c0,2.1-1.7,3.9-3.9,3.9s-3.9-1.7-3.9-3.9s1.7-3.9,3.9-3.9S716.2,514,716.2,516.1z "/></svg> 