<svg xmlns="http://www.w3.org/2000/svg" xmlns:xlink="http://www.w3.org/1999/xlink" x="0px" y="0px" width="376.319px" height="160.318px" viewBox="0 0 376.319 160.318" xml:space="preserve"><path fill="#42AFC6" d="M46.253,1.012c7.19-1.94,15.1-1.05,21.66,2.47c3.83,2,7.05,4.91,10.35,7.66c7.03,5.98,14.2,11.79,21.2,17.81 c2.39,1.92,5.08,4.27,8.38,3.86c2.81-0.44,5.04-2.37,7.2-4.09c8.57-7.12,17.17-14.21,25.8-21.26c5.07-4.2,11.37-7.05,17.99-7.4 c10.8-0.72,21.74,4.88,27.41,14.1c3.58,5.35,4.51,11.84,6,17.97c1.46,6.75,3.83,13.43,3.41,20.44c-0.04,10.92-7.1,21.16-16.79,25.92 c-7.48,3.79-16.39,3.59-24.25,1.12c-2.57-0.9-5.46-0.71-7.58,1.11c-7.68,5.93-14.93,12.41-22.61,18.34 c-10.31,7.7-25.52,7.43-35.64-0.47c-3.98-2.69-7.37-7.75-12.8-6.9c-3.42,0.12-5.94,3.08-6.78,6.2 c-3.75,14.04-6.72,28.31-10.62,42.32c-3.38,10.09-12.63,17.89-23.11,19.67c-5.96,0.83-12.27,0.47-17.77-2.17 c-10.12-4.5-17.62-14.94-17.66-26.15c-0.39-7,1.96-13.69,3.48-20.42c6.36-26.61,12.77-53.21,19.1-79.82 c1.34-5.43,2.18-11.12,5.04-16.02C31.583,8.272,38.483,3.052,46.253,1.012L46.253,1.012z"/><path fill="#42AFC6" d="M179.283,100.252c9.31-1.671,19.399,0.96,26.229,7.63c9.17,8.229,12.341,22.35,7.431,33.68 c-3.4,8.37-10.74,15.05-19.42,17.6c-10.09,2.82-21.74,0.48-29.28-7.01c-9.28-8.41-12.34-22.87-7.05-34.26 C161.083,108.882,169.633,102.042,179.283,100.252L179.283,100.252z"/><path fill="#EC962E" d="M249.253,99.992c9.05-2.59,20.46,0.46,25.3,8.96c2.311,3.44-1.47,8.351-5.39,7.13 c-4.22-1.52-6.46-6.739-11.25-7.05c-4.4-0.56-10.15,0.721-11.56,5.54c-0.98,3.44,1.899,6.59,5.149,7.16 c5.7,0.87,11.74,0.55,17.061,3.11c4.63,2.09,8.399,6.149,9.76,11.09c2.3,7.01-0.41,15.34-6.431,19.62 c-10.579,7.37-27.239,5.66-34.75-5.3c-1.63-2.641-3.949-6.211-1.88-9.211c1.46-2.67,5.83-3.039,7.58-0.5 c2.54,3.091,4.41,7.16,8.42,8.641c4.721,1.66,10.41,1.24,14.551-1.72c2.909-2.051,4.329-6.24,2.649-9.5 c-1.96-4.36-7.24-5.61-11.58-5.841c-5.34-0.069-11.02-0.859-15.3-4.33c-7.45-6.02-6.78-19.079,0.87-24.659 C244.473,101.632,246.833,100.652,249.253,99.992L249.253,99.992z"/><path fill="#EC962E" d="M334.383,103.562c1.17-3.97,7.87-3.49,8.771,0.45c0.779,6.46-0.24,13.01,0.47,19.479 c0.83,5.311,5.86,9.66,11.25,9.62c5.3,0.32,10.33-3.89,11.42-8.99c0.74-6.5-0.3-13.08,0.46-19.569c0.46-4.73,8.21-5.04,9.16-0.46 c0.78,5.109,0.16,10.33,0.36,15.489c0.229,5.96-1.771,12.08-5.891,16.45c-2.74,2.9-6.47,4.51-9.979,6.25 c-1.49,4.46-0.3,9.2-1.181,13.73c-1.6,3.51-7.949,2.939-8.63-0.98c-0.45-4.109-0.069-8.26-0.35-12.39 c-5.03-2.43-10.44-5.07-13.26-10.18c-3.801-5.58-2.71-12.57-2.88-18.931C334.143,110.212,333.893,106.862,334.383,103.562 L334.383,103.562z"/><g><path fill="#EC962E" d="M316.283,103.042c-5.7-2.909-12.271-1.77-18.41-2.01c-3.01,0.15-6.22-0.46-9.09,0.601 c-2.59,1.22-2.48,4.39-2.46,6.81c0.17,15.28-0.15,30.561,0.14,45.83c-0.03,4.35,6.521,5.45,8.641,2.09 c0.949-4.359,0.27-8.89,0.529-13.32c6.851-0.52,14.09,0.761,20.53-2.27c7.01-3.19,12.12-10.46,12.27-18.23 C328.843,114.362,323.683,106.402,316.283,103.042z M314.843,130.522c-5.35,4.09-12.52,2.23-18.72,2.48 c-0.96-7.301-0.84-14.771-0.08-22.08c5.28,0.04,10.74-0.761,15.91,0.569C319.604,114.222,321.163,125.642,314.843,130.522z"/></g></svg> 