<svg xmlns="http://www.w3.org/2000/svg" width="376.319" height="160.318"><path fill="#42AFC6" d="M46.253 1.012c7.19-1.94 15.1-1.05 21.66 2.47 3.83 2 7.05 4.91 10.35 7.66 7.03 5.98 14.2 11.79 21.2 17.81 2.39 1.92 5.08 4.27 8.38 3.86 2.81-.44 5.04-2.37 7.2-4.09 8.57-7.12 17.17-14.21 25.8-21.26 5.07-4.2 11.37-7.05 17.99-7.4 10.8-.72 21.74 4.88 27.41 14.1 3.58 5.35 4.51 11.84 6 17.97 1.46 6.75 3.83 13.43 3.41 20.44-.04 10.92-7.1 21.16-16.79 25.92-7.48 3.79-16.39 3.59-24.25 1.12-2.57-.9-5.46-.71-7.58 1.11-7.68 5.93-14.93 12.41-22.61 18.34-10.31 7.7-25.52 7.43-35.64-.47-3.98-2.69-7.37-7.75-12.8-6.9-3.42.12-5.94 3.08-6.78 6.2-3.75 14.04-6.72 28.31-10.62 42.32-3.38 10.09-12.63 17.89-23.11 19.67-5.96.83-12.27.47-17.77-2.17-10.12-4.5-17.62-14.94-17.66-26.15-.39-7 1.96-13.69 3.48-20.42 6.36-26.61 12.77-53.21 19.1-79.82 1.34-5.43 2.18-11.12 5.04-16.02 3.92-7.03 10.82-12.25 18.59-14.29zM179.283 100.252c9.31-1.671 19.399.96 26.229 7.63 9.17 8.229 12.341 22.35 7.431 33.68-3.4 8.37-10.74 15.05-19.42 17.6-10.09 2.82-21.74.48-29.28-7.01-9.28-8.41-12.34-22.87-7.05-34.26 3.89-9.01 12.44-15.85 22.09-17.64z"/><path fill="#EC962E" d="M249.253 99.992c9.05-2.59 20.46.46 25.3 8.96 2.311 3.44-1.47 8.351-5.39 7.13-4.22-1.52-6.46-6.739-11.25-7.05-4.4-.56-10.15.721-11.56 5.54-.98 3.44 1.899 6.59 5.149 7.16 5.7.87 11.74.55 17.061 3.11 4.63 2.09 8.399 6.149 9.76 11.09 2.3 7.01-.41 15.34-6.431 19.62-10.579 7.37-27.239 5.66-34.75-5.3-1.63-2.641-3.949-6.211-1.88-9.211 1.46-2.67 5.83-3.039 7.58-.5 2.54 3.091 4.41 7.16 8.42 8.641 4.721 1.66 10.41 1.24 14.551-1.72 2.909-2.051 4.329-6.24 2.649-9.5-1.96-4.36-7.24-5.61-11.58-5.841-5.34-.069-11.02-.859-15.3-4.33-7.45-6.02-6.78-19.079.87-24.659 2.021-1.5 4.381-2.48 6.801-3.14zM334.383 103.562c1.17-3.97 7.87-3.49 8.771.45.779 6.46-.24 13.01.47 19.479.83 5.311 5.86 9.66 11.25 9.62 5.3.32 10.33-3.89 11.42-8.99.74-6.5-.3-13.08.46-19.569.46-4.73 8.21-5.04 9.16-.46.78 5.109.16 10.33.36 15.489.229 5.96-1.771 12.08-5.891 16.45-2.74 2.9-6.47 4.51-9.979 6.25-1.49 4.46-.3 9.2-1.181 13.73-1.6 3.51-7.949 2.939-8.63-.98-.45-4.109-.069-8.26-.35-12.39-5.03-2.43-10.44-5.07-13.26-10.18-3.801-5.58-2.71-12.57-2.88-18.931.04-3.318-.21-6.668.28-9.968zM316.283 103.042c-5.7-2.909-12.271-1.77-18.41-2.01-3.01.15-6.22-.46-9.09.601-2.59 1.22-2.48 4.39-2.46 6.81.17 15.28-.15 30.561.14 45.83-.03 4.35 6.521 5.45 8.641 2.09.949-4.359.27-8.89.529-13.32 6.851-.52 14.09.761 20.53-2.27 7.01-3.19 12.12-10.46 12.27-18.23.41-8.181-4.75-16.141-12.15-19.501zm-1.44 27.48c-5.35 4.09-12.52 2.23-18.72 2.48-.96-7.301-.84-14.771-.08-22.08 5.28.04 10.74-.761 15.91.569 7.651 2.731 9.21 14.151 2.89 19.031z"/></svg>