<svg xmlns="http://www.w3.org/2000/svg" xmlns:xlink="http://www.w3.org/1999/xlink" x="0px" y="0px" width="294.4px" height="35.2px" viewBox="0 0 294.4 35.2" xml:space="preserve"><path fill="#00517F" d="M0,27.2V0h8.2l4.9,18.6L18,0h8.2v27.2h-5.1V5.8l-5.4,21.4h-5.3L5.1,5.8v21.4H0z"/><path fill="#00517F" d="M44.7,27.2v-3c-0.7,1.1-1.7,1.9-2.8,2.5s-2.4,0.9-3.7,0.9c-1.3,0-2.5-0.3-3.6-0.9c-1.1-0.6-1.8-1.4-2.3-2.4 c-0.5-1.1-0.7-2.5-0.7-4.4V7.5h5.2v9.1c0,2.8,0.1,4.5,0.3,5.1c0.2,0.6,0.5,1.1,1,1.5c0.5,0.4,1.2,0.5,1.9,0.5c0.9,0,1.7-0.2,2.4-0.7 s1.2-1.1,1.4-1.8c0.3-0.7,0.4-2.5,0.4-5.3V7.5h5.2v19.7H44.7z"/><path fill="#00517F" d="M53.1,21.6l5.2-0.8c0.2,1,0.7,1.8,1.4,2.3c0.7,0.5,1.6,0.8,2.9,0.8c1.3,0,2.4-0.2,3-0.7 c0.5-0.3,0.7-0.8,0.7-1.4c0-0.4-0.1-0.7-0.4-1c-0.3-0.2-0.8-0.5-1.7-0.7c-4.2-0.9-6.9-1.8-8-2.5c-1.6-1.1-2.3-2.5-2.3-4.4 c0-1.7,0.7-3.1,2-4.3c1.3-1.2,3.4-1.7,6.3-1.7c2.7,0,4.7,0.4,6,1.3c1.3,0.9,2.2,2.2,2.7,3.9l-4.9,0.9c-0.2-0.8-0.6-1.4-1.2-1.8 c-0.6-0.4-1.4-0.6-2.5-0.6c-1.4,0-2.4,0.2-3,0.6c-0.4,0.3-0.6,0.6-0.6,1.1c0,0.4,0.2,0.7,0.5,0.9c0.5,0.3,2.1,0.8,4.9,1.5 c2.8,0.6,4.7,1.4,5.8,2.3c1.1,0.9,1.6,2.2,1.6,3.9c0,1.8-0.8,3.4-2.3,4.7c-1.5,1.3-3.7,1.9-6.7,1.9c-2.7,0-4.8-0.5-6.4-1.6 C54.6,24.9,53.5,23.4,53.1,21.6z"/><path fill="#00517F" d="M76,27.2V0h5.2v27.2H76z"/><path fill="#00517F" d="M86.6,4.8V0h5.2v4.8H86.6z M86.6,27.2V7.5h5.2v19.7H86.6z"/><path fill="#00517F" d="M96.8,7.5h4.8v2.7c1.7-2.1,3.8-3.1,6.1-3.1c1.3,0,2.4,0.3,3.3,0.8s1.7,1.3,2.3,2.4c0.9-1.1,1.8-1.8,2.8-2.4 s2.1-0.8,3.2-0.8c1.4,0,2.7,0.3,3.7,0.9c1,0.6,1.8,1.5,2.2,2.6c0.4,0.8,0.5,2.2,0.5,4.1v12.6h-5.2V15.9c0-2-0.2-3.2-0.5-3.8 c-0.5-0.7-1.2-1.1-2.2-1.1c-0.7,0-1.4,0.2-2.1,0.7c-0.6,0.4-1.1,1.1-1.4,2c-0.3,0.9-0.4,2.2-0.4,4.1v9.5h-5.2V16.4 c0-1.9-0.1-3.2-0.3-3.7s-0.5-1-0.9-1.2c-0.4-0.3-0.9-0.4-1.6-0.4c-0.8,0-1.5,0.2-2.2,0.6c-0.6,0.4-1.1,1.1-1.4,1.9s-0.4,2.2-0.4,4.1 v9.6h-5.2V7.5z"/><path fill="#FFFFFF" d="M131,0h10c2.3,0,4,0.2,5.2,0.5c1.6,0.5,3,1.3,4.1,2.5c1.1,1.2,2,2.7,2.6,4.4c0.6,1.7,0.9,3.9,0.9,6.4 c0,2.2-0.3,4.2-0.8,5.8c-0.7,2-1.7,3.6-2.9,4.8c-1,0.9-2.2,1.7-3.9,2.2c-1.2,0.4-2.8,0.6-4.9,0.6H131V0z M136.5,4.6v18h4.1 c1.5,0,2.6-0.1,3.3-0.3c0.9-0.2,1.6-0.6,2.2-1.1c0.6-0.5,1.1-1.4,1.4-2.6s0.6-2.9,0.6-5c0-2.1-0.2-3.7-0.6-4.8 c-0.4-1.1-0.9-2-1.6-2.6s-1.5-1.1-2.5-1.3c-0.8-0.2-2.3-0.3-4.5-0.3H136.5z"/><path fill="#FFFFFF" d="M158.4,4.8V0h5.2v4.8H158.4z M158.4,27.2V7.5h5.2v19.7H158.4z"/><path fill="#FFFFFF" d="M173.9,27.2h-5.2V7.5h4.8v2.8c0.8-1.3,1.6-2.2,2.2-2.6c0.7-0.4,1.4-0.6,2.3-0.6c1.2,0,2.3,0.3,3.4,1 l-1.6,4.5c-0.9-0.6-1.7-0.9-2.4-0.9c-0.7,0-1.3,0.2-1.9,0.6c-0.5,0.4-0.9,1.1-1.2,2.2c-0.3,1.1-0.4,3.3-0.4,6.6V27.2z"/><path fill="#FFFFFF" d="M195.1,20.9l5.2,0.9c-0.7,1.9-1.7,3.4-3.2,4.4c-1.4,1-3.2,1.5-5.4,1.5c-3.4,0-6-1.1-7.6-3.4 c-1.3-1.8-1.9-4.1-1.9-6.8c0-3.3,0.9-5.8,2.6-7.7c1.7-1.8,3.9-2.8,6.5-2.8c2.9,0,5.2,1,6.9,2.9c1.7,1.9,2.5,4.9,2.4,8.9h-13.1 c0,1.5,0.5,2.8,1.3,3.6c0.8,0.9,1.8,1.3,3,1.3c0.8,0,1.5-0.2,2.1-0.7S194.9,21.9,195.1,20.9z M195.4,15.7c0-1.5-0.4-2.7-1.2-3.4 c-0.7-0.8-1.6-1.2-2.7-1.2c-1.1,0-2.1,0.4-2.8,1.2c-0.7,0.8-1.1,2-1.1,3.4H195.4z"/><path fill="#FFFFFF" d="M222,13.3l-5.1,0.9c-0.2-1-0.6-1.8-1.2-2.3c-0.6-0.5-1.4-0.8-2.4-0.8c-1.3,0-2.3,0.4-3.1,1.3 c-0.8,0.9-1.2,2.4-1.2,4.5c0,2.3,0.4,4,1.2,5c0.8,1,1.8,1.4,3.2,1.4c1,0,1.8-0.3,2.4-0.8c0.6-0.6,1.1-1.5,1.3-2.9l5.1,0.9 c-0.5,2.4-1.6,4.1-3.1,5.3c-1.5,1.2-3.5,1.8-6.1,1.8c-2.9,0-5.2-0.9-6.9-2.7c-1.7-1.8-2.6-4.3-2.6-7.6c0-3.3,0.9-5.8,2.6-7.6 c1.7-1.8,4-2.7,7-2.7c2.4,0,4.3,0.5,5.7,1.5C220.4,9.6,221.4,11.2,222,13.3z"/><path fill="#FFFFFF" d="M235,7.5v4.2h-3.6v7.9c0,1.6,0,2.5,0.1,2.8c0.1,0.3,0.2,0.5,0.5,0.7c0.2,0.2,0.5,0.3,0.9,0.3 c0.5,0,1.2-0.2,2.1-0.5l0.4,4c-1.2,0.5-2.6,0.8-4.1,0.8c-0.9,0-1.8-0.2-2.5-0.5c-0.8-0.3-1.3-0.7-1.7-1.2c-0.4-0.5-0.6-1.2-0.7-2 c-0.1-0.6-0.2-1.8-0.2-3.7v-8.6h-2.4V7.5h2.4V3.6l5.2-3v7H235z"/><path fill="#FFFFFF" d="M237.4,17.1c0-1.7,0.4-3.4,1.3-5c0.9-1.6,2.1-2.9,3.6-3.7c1.6-0.9,3.3-1.3,5.2-1.3c3,0,5.4,1,7.3,2.9 c1.9,1.9,2.9,4.4,2.9,7.3c0,3-1,5.5-2.9,7.4c-1.9,2-4.3,2.9-7.3,2.9c-1.8,0-3.5-0.4-5.2-1.2c-1.6-0.8-2.9-2-3.7-3.6 C237.9,21.3,237.4,19.3,237.4,17.1z M242.8,17.3c0,2,0.5,3.5,1.4,4.5s2.1,1.6,3.4,1.6c1.4,0,2.5-0.5,3.4-1.6c0.9-1,1.4-2.5,1.4-4.5 c0-1.9-0.5-3.4-1.4-4.5c-0.9-1-2.1-1.6-3.4-1.6c-1.4,0-2.5,0.5-3.4,1.6S242.8,15.4,242.8,17.3z"/><path fill="#FFFFFF" d="M266.9,27.2h-5.2V7.5h4.8v2.8c0.8-1.3,1.6-2.2,2.2-2.6c0.7-0.4,1.4-0.6,2.3-0.6c1.2,0,2.3,0.3,3.4,1 l-1.6,4.5c-0.9-0.6-1.7-0.9-2.4-0.9c-0.7,0-1.3,0.2-1.9,0.6c-0.5,0.4-0.9,1.1-1.2,2.2c-0.3,1.1-0.4,3.3-0.4,6.6V27.2z"/><path fill="#FFFFFF" d="M274.2,7.5h5.5l4.7,14l4.6-14h5.4l-7,19l-1.2,3.4c-0.5,1.2-0.9,2-1.3,2.6c-0.4,0.6-0.9,1.1-1.4,1.5 c-0.5,0.4-1.2,0.7-2,0.9c-0.8,0.2-1.7,0.3-2.7,0.3c-1,0-2-0.1-3-0.3l-0.5-4.1c0.8,0.2,1.6,0.2,2.2,0.2c1.2,0,2.1-0.4,2.7-1.1 c0.6-0.7,1-1.6,1.3-2.7L274.2,7.5z"/></svg>