<svg xmlns="http://www.w3.org/2000/svg" width="294.4" height="35.2"><path fill="#00517F" d="M0 27.2V0h8.2l4.9 18.6L18 0h8.2v27.2h-5.1V5.8l-5.4 21.4h-5.3L5.1 5.8v21.4H0zM44.7 27.2v-3c-.7 1.1-1.7 1.9-2.8 2.5s-2.4.9-3.7.9c-1.3 0-2.5-.3-3.6-.9-1.1-.6-1.8-1.4-2.3-2.4-.5-1.1-.7-2.5-.7-4.4V7.5h5.2v9.1c0 2.8.1 4.5.3 5.1.2.6.5 1.1 1 1.5.5.4 1.2.5 1.9.5.9 0 1.7-.2 2.4-.7s1.2-1.1 1.4-1.8c.3-.7.4-2.5.4-5.3V7.5h5.2v19.7h-4.7zM53.1 21.6l5.2-.8c.2 1 .7 1.8 1.4 2.3.7.5 1.6.8 2.9.8 1.3 0 2.4-.2 3-.7.5-.3.7-.8.7-1.4 0-.4-.1-.7-.4-1-.3-.2-.8-.5-1.7-.7-4.2-.9-6.9-1.8-8-2.5-1.6-1.1-2.3-2.5-2.3-4.4 0-1.7.7-3.1 2-4.3 1.3-1.2 3.4-1.7 6.3-1.7 2.7 0 4.7.4 6 1.3 1.3.9 2.2 2.2 2.7 3.9l-4.9.9c-.2-.8-.6-1.4-1.2-1.8-.6-.4-1.4-.6-2.5-.6-1.4 0-2.4.2-3 .6-.4.3-.6.6-.6 1.1 0 .4.2.7.5.9.5.3 2.1.8 4.9 1.5 2.8.6 4.7 1.4 5.8 2.3 1.1.9 1.6 2.2 1.6 3.9 0 1.8-.8 3.4-2.3 4.7-1.5 1.3-3.7 1.9-6.7 1.9-2.7 0-4.8-.5-6.4-1.6-1.5-1.3-2.6-2.8-3-4.6zM76 27.2V0h5.2v27.2H76zM86.6 4.8V0h5.2v4.8h-5.2zm0 22.4V7.5h5.2v19.7h-5.2zM96.8 7.5h4.8v2.7c1.7-2.1 3.8-3.1 6.1-3.1 1.3 0 2.4.3 3.3.8s1.7 1.3 2.3 2.4c.9-1.1 1.8-1.8 2.8-2.4s2.1-.8 3.2-.8c1.4 0 2.7.3 3.7.9 1 .6 1.8 1.5 2.2 2.6.4.8.5 2.2.5 4.1v12.6h-5.2V15.9c0-2-.2-3.2-.5-3.8-.5-.7-1.2-1.1-2.2-1.1-.7 0-1.4.2-2.1.7-.6.4-1.1 1.1-1.4 2-.3.9-.4 2.2-.4 4.1v9.5h-5.2V16.4c0-1.9-.1-3.2-.3-3.7s-.5-1-.9-1.2c-.4-.3-.9-.4-1.6-.4-.8 0-1.5.2-2.2.6-.6.4-1.1 1.1-1.4 1.9s-.4 2.2-.4 4.1v9.6h-5.2V7.5z"/><path fill="#FFF" d="M131 0h10c2.3 0 4 .2 5.2.5 1.6.5 3 1.3 4.1 2.5 1.1 1.2 2 2.7 2.6 4.4.6 1.7.9 3.9.9 6.4 0 2.2-.3 4.2-.8 5.8-.7 2-1.7 3.6-2.9 4.8-1 .9-2.2 1.7-3.9 2.2-1.2.4-2.8.6-4.9.6H131V0zm5.5 4.6v18h4.1c1.5 0 2.6-.1 3.3-.3.9-.2 1.6-.6 2.2-1.1.6-.5 1.1-1.4 1.4-2.6s.6-2.9.6-5-.2-3.7-.6-4.8c-.4-1.1-.9-2-1.6-2.6s-1.5-1.1-2.5-1.3c-.8-.2-2.3-.3-4.5-.3h-2.4zM158.4 4.8V0h5.2v4.8h-5.2zm0 22.4V7.5h5.2v19.7h-5.2zM173.9 27.2h-5.2V7.5h4.8v2.8c.8-1.3 1.6-2.2 2.2-2.6.7-.4 1.4-.6 2.3-.6 1.2 0 2.3.3 3.4 1l-1.6 4.5c-.9-.6-1.7-.9-2.4-.9s-1.3.2-1.9.6c-.5.4-.9 1.1-1.2 2.2-.3 1.1-.4 3.3-.4 6.6v6.1zM195.1 20.9l5.2.9c-.7 1.9-1.7 3.4-3.2 4.4-1.4 1-3.2 1.5-5.4 1.5-3.4 0-6-1.1-7.6-3.4-1.3-1.8-1.9-4.1-1.9-6.8 0-3.3.9-5.8 2.6-7.7 1.7-1.8 3.9-2.8 6.5-2.8 2.9 0 5.2 1 6.9 2.9 1.7 1.9 2.5 4.9 2.4 8.9h-13.1c0 1.5.5 2.8 1.3 3.6.8.9 1.8 1.3 3 1.3.8 0 1.5-.2 2.1-.7s1-1.1 1.2-2.1zm.3-5.2c0-1.5-.4-2.7-1.2-3.4-.7-.8-1.6-1.2-2.7-1.2s-2.1.4-2.8 1.2c-.7.8-1.1 2-1.1 3.4h7.8zM222 13.3l-5.1.9c-.2-1-.6-1.8-1.2-2.3-.6-.5-1.4-.8-2.4-.8-1.3 0-2.3.4-3.1 1.3-.8.9-1.2 2.4-1.2 4.5 0 2.3.4 4 1.2 5 .8 1 1.8 1.4 3.2 1.4 1 0 1.8-.3 2.4-.8.6-.6 1.1-1.5 1.3-2.9l5.1.9c-.5 2.4-1.6 4.1-3.1 5.3-1.5 1.2-3.5 1.8-6.1 1.8-2.9 0-5.2-.9-6.9-2.7-1.7-1.8-2.6-4.3-2.6-7.6s.9-5.8 2.6-7.6c1.7-1.8 4-2.7 7-2.7 2.4 0 4.3.5 5.7 1.5 1.6 1.1 2.6 2.7 3.2 4.8zM235 7.5v4.2h-3.6v7.9c0 1.6 0 2.5.1 2.8.1.3.2.5.5.7.2.2.5.3.9.3.5 0 1.2-.2 2.1-.5l.4 4c-1.2.5-2.6.8-4.1.8-.9 0-1.8-.2-2.5-.5-.8-.3-1.3-.7-1.7-1.2-.4-.5-.6-1.2-.7-2-.1-.6-.2-1.8-.2-3.7v-8.6h-2.4V7.5h2.4V3.6l5.2-3v7h3.6zM237.4 17.1c0-1.7.4-3.4 1.3-5s2.1-2.9 3.6-3.7c1.6-.9 3.3-1.3 5.2-1.3 3 0 5.4 1 7.3 2.9 1.9 1.9 2.9 4.4 2.9 7.3 0 3-1 5.5-2.9 7.4-1.9 2-4.3 2.9-7.3 2.9-1.8 0-3.5-.4-5.2-1.2-1.6-.8-2.9-2-3.7-3.6-.7-1.5-1.2-3.5-1.2-5.7zm5.4.2c0 2 .5 3.5 1.4 4.5s2.1 1.6 3.4 1.6c1.4 0 2.5-.5 3.4-1.6.9-1 1.4-2.5 1.4-4.5 0-1.9-.5-3.4-1.4-4.5-.9-1-2.1-1.6-3.4-1.6-1.4 0-2.5.5-3.4 1.6s-1.4 2.6-1.4 4.5zM266.9 27.2h-5.2V7.5h4.8v2.8c.8-1.3 1.6-2.2 2.2-2.6.7-.4 1.4-.6 2.3-.6 1.2 0 2.3.3 3.4 1l-1.6 4.5c-.9-.6-1.7-.9-2.4-.9s-1.3.2-1.9.6c-.5.4-.9 1.1-1.2 2.2-.3 1.1-.4 3.3-.4 6.6v6.1z"/><path fill="#FFF" d="M274.2 7.5h5.5l4.7 14 4.6-14h5.4l-7 19-1.2 3.4c-.5 1.2-.9 2-1.3 2.6-.4.6-.9 1.1-1.4 1.5-.5.4-1.2.7-2 .9-.8.2-1.7.3-2.7.3-1 0-2-.1-3-.3l-.5-4.1c.8.2 1.6.2 2.2.2 1.2 0 2.1-.4 2.7-1.1.6-.7 1-1.6 1.3-2.7l-7.3-19.7z"/></svg>