<svg xmlns="http://www.w3.org/2000/svg" xmlns:xlink="http://www.w3.org/1999/xlink" x="0px" y="0px" viewBox="0 0 447.8 258.9" overflow="scroll" xml:space="preserve"><path fill="#FF1613" d="M401.1,67.5c39.9,16.9,55.7,59.9,41.8,93.2c-18.6,44.5-67.6,65.2-106.7,72.4c-50.4,9.2-86.8,26.1-87.3,25.9 c-0.5-0.2,4.4-22.9-37-78c-24.9-33.1-43.2-83.6-22.3-133.6c13.8-33.2,50.7-49.9,82.9-35c54.3,25,46.1,80.6,45.7,79.6 C318.2,91.8,352.4,46.8,401.1,67.5z"/><path fill="#6666FF" d="M161.4,8c39-18.9,81.7-2.5,97.7,29.8c21.3,43.3,4.6,93.8-15.7,128c-26.2,44-37.4,82.5-37.9,82.8 c-0.5,0.2-14.4-18.4-83.1-23.4C81,222.1,31,202.7,7,154c-15.9-32.2-4.2-71,28.2-85.5c54.5-24.4,91.1,18.3,90,17.9 C125.2,86.4,113.8,31,161.4,8z"/></svg>