<svg version="1.1" id="Layer_1" xmlns="http://www.w3.org/2000/svg" xmlns:xlink="http://www.w3.org/1999/xlink" x="0px" y="0px" viewBox="0 0 472.9 143.3" style="enable-background:new 0 0 472.9 143.3;" xml:space="preserve"><style type="text/css">.st0{fill:#FFFFFF;}</style><g><path class="st0" d="M57,2.1L63.7,65l43.5-62.9h32.1l-0.8,2.5c-4.4,0-7.8,0.9-10.1,2.8c-2.3,1.9-4.3,5.6-5.9,11.2l-16.9,58.6c-1.1,3.7-1.6,6.4-1.6,8.2c0,1.7,0.7,3,2,4c1.4,1,4,1.6,8,1.7l-0.6,2.5H67.8l0.8-2.5c4.9,0,8.5-0.9,10.9-2.8c2.3-1.9,4.3-5.6,5.9-11.1l17.2-59.3L50.2,93.6h-2.8l-8.2-77.2L21.7,77.2c-0.7,2.5-1.1,4.5-1.1,6.2c0,2.3,0.8,4.1,2.3,5.4c1.6,1.4,4.2,2.1,7.9,2.3l-0.7,2.5H0l0.6-2.5C4.3,91,7,90.2,9,88.8c3.4-2.5,5.9-6.4,7.4-11.6L36.2,9.6c-1.9-2.1-3.6-3.4-5.1-4.1c-1.5-0.6-4-0.9-7.6-0.9l0.8-2.5H57z"/><path class="st0" d="M131.1,37.1l20.8-6.1c1.7,2.1,2.8,4,3.5,5.9c1.2,3.2,2.1,7.6,2.6,13.2c0.9,11.1,1.6,22.9,2,35.4c4.8-6.3,10.3-14.7,16.5-25.2c1.9-3.1,2.8-6.1,2.8-8.9c0-1.8-1.1-3.4-3.3-5c-2.2-1.6-3.5-2.8-4.1-3.7c-0.5-0.9-0.8-2-0.8-3.4c0-2.3,0.8-4.2,2.5-5.9c1.6-1.7,3.6-2.5,6-2.5c2.5,0,4.6,0.9,6.4,2.8s2.7,4.1,2.7,6.7c0,3-0.8,6.5-2.5,10.5c-1.7,4-5.6,10.8-11.8,20.5c-8,12.4-15.8,23.1-23.4,32.1c-4.9,5.8-8.9,9.9-11.9,12.5c-3,2.5-6.1,4.6-9.4,6c-1.9,0.9-3.8,1.3-5.7,1.3c-2.6,0-4.8-0.9-6.6-2.7c-1.8-1.8-2.7-3.9-2.7-6.4c0-2.5,0.8-4.6,2.5-6.3c1.6-1.7,3.6-2.6,5.8-2.6c2.7,0,5.3,1.4,7.6,4.3c1.5,1.9,2.8,2.9,3.8,2.9c1,0,2-0.3,3-0.9c1.4-0.7,3.2-2.4,5.7-5c0.3-5.6,0.4-9.9,0.4-12.8c0-3.9-0.2-9.3-0.5-16.3L141.6,52c-0.4-4.7-1.4-8.1-3-10.2c-1.3-1.5-2.9-2.3-4.9-2.3c-0.8,0-1.6,0.1-2.6,0.2V37.1z"/><path class="st0" d="M245.5,7.2l-10.1,34.6c6.9-0.1,11.4-0.4,13.4-0.8c3.4-0.7,6.4-2.1,9.2-4.3c2.7-2.2,5-5.2,6.9-9.1h2.6l-10.5,36.1h-2.7c0.4-2.3,0.7-4.2,0.7-5.6c0-2.8-0.6-5-1.7-6.7c-1.1-1.7-2.6-2.8-4.4-3.4c-1.8-0.6-6.8-1-14.9-1.2l-8.2,28.6l-1.6,5.7c-0.2,1.1-0.3,2.2-0.3,3.3c0,1.6,0.3,2.8,0.9,3.7c0.6,0.9,1.6,1.6,2.9,2.1c1.4,0.5,3.9,0.8,7.7,0.8l-0.7,2.5h-45.7l0.7-2.5c4.4,0,7.6-0.8,9.7-2.5c2-1.6,3.8-5.2,5.5-10.8l16.3-56c1.7-5.9,2.6-9.7,2.7-11.3c-0.1-1.6-0.8-2.9-2.2-4c-1.4-1.1-4.1-1.7-8.3-1.9l0.7-2.5h74.8l-6.1,24.2h-2.5c-0.3-5-1.1-8.8-2.4-11.2c-1.3-2.5-3.5-4.4-6.4-5.7c-3-1.4-7.8-2.1-14.3-2.1H245.5z"/><path class="st0" d="M322.3,44.2h33.5l7.4-25.6c1-3.5,1.5-6.2,1.5-8c0-1.8-0.6-3.2-1.8-4.1c-1.2-0.9-4.1-1.6-8.8-1.9l0.7-2.5h45.5l-0.7,2.5c-4.5,0-7.8,0.9-10.1,2.8c-2.3,1.9-4.3,5.6-5.9,11.2l-17,58.6c-1.1,3.8-1.7,6.6-1.7,8.2c0,1.7,0.6,2.9,1.8,3.8c1.6,1.2,4.4,1.8,8.6,1.9l-0.7,2.5H330l1-2.5c4.3,0,7.5-0.8,9.6-2.5c2-1.7,3.9-5.5,5.6-11.4l7.9-27.3h-33.3l-7.8,27.3c-1.1,3.7-1.7,6.5-1.7,8.3c0,1.6,0.7,2.9,2.1,3.9c1.4,1,4.1,1.6,8.1,1.7l-0.7,2.5h-44l0.7-2.5c4.3,0,7.5-0.8,9.5-2.5c2-1.7,3.9-5.5,5.6-11.4l17-58.6c1-3.4,1.5-6,1.5-8c0-1.8-0.6-3.2-1.8-4.2c-1.2-0.9-4-1.6-8.5-1.9l0.7-2.5h44.8l-1,2.5c-4.1,0-7.3,0.9-9.4,2.7c-2.1,1.8-4.1,5.6-5.8,11.4L322.3,44.2z"/><path class="st0" d="M444.7,64.1h-28.4l-5.7,7l-6.5,7.8c-1.3,1.7-2.2,3.2-2.8,4.5c-0.5,1-0.7,2.1-0.7,3.1c0,1.1,0.6,2.1,1.7,3c1.1,0.9,3,1.5,5.7,1.6v2.5h-27.3l0.7-2.5c2.4-0.4,4.6-1.3,6.5-2.6c2.5-1.8,6.1-5.5,10.9-11.1L463.8,0h3l-3,74.9c-0.1,3.9-0.2,6.3-0.2,7.1c0,3.1,0.6,5.3,1.9,6.7c1.2,1.4,3.3,2.2,6.2,2.4l-0.7,2.5h-39.6l0.7-2.5c3.9-0.4,6.2-0.7,6.8-0.9c1.3-0.6,2.4-1.9,3.4-3.9c1-2,1.7-5.5,1.9-10.4L444.7,64.1z M444.7,58.6l1.8-29.8L421,58.6H444.7z"/></g><g><path class="st0" d="M193.2,105.8l-3.3,11.2c2.2,0,3.7-0.1,4.3-0.3c1.1-0.2,2.1-0.7,3-1.4s1.6-1.7,2.2-2.9h0.8L197,124h-0.9c0.1-0.8,0.2-1.4,0.2-1.8c0-0.9-0.2-1.6-0.6-2.2c-0.4-0.5-0.8-0.9-1.4-1.1c-0.6-0.2-2.2-0.3-4.8-0.4l-2.7,9.2l-0.5,1.9c-0.1,0.4-0.1,0.7-0.1,1.1c0,0.5,0.1,0.9,0.3,1.2c0.2,0.3,0.5,0.5,0.9,0.7c0.4,0.2,1.3,0.3,2.5,0.3l-0.2,0.8H175l0.2-0.8c1.4,0,2.5-0.3,3.1-0.8c0.7-0.5,1.2-1.7,1.8-3.5l5.3-18.1c0.6-1.9,0.8-3.1,0.9-3.7c0-0.5-0.3-0.9-0.7-1.3c-0.4-0.4-1.3-0.6-2.7-0.6l0.2-0.8h24.1l-2,7.8h-0.8c-0.1-1.6-0.3-2.8-0.8-3.6c-0.4-0.8-1.1-1.4-2.1-1.9c-1-0.4-2.5-0.7-4.6-0.7H193.2z"/><path class="st0" d="M218,117.7h10.8l2.4-8.3c0.3-1.1,0.5-2,0.5-2.6c0-0.6-0.2-1-0.6-1.3c-0.4-0.3-1.3-0.5-2.8-0.6l0.2-0.8h14.7l-0.2,0.8c-1.4,0-2.5,0.3-3.3,0.9c-0.7,0.6-1.4,1.8-1.9,3.6l-5.5,18.9c-0.4,1.2-0.5,2.1-0.5,2.7c0,0.5,0.2,0.9,0.6,1.2c0.5,0.4,1.4,0.6,2.8,0.6l-0.2,0.8h-14.4l0.3-0.8c1.4,0,2.4-0.3,3.1-0.8c0.7-0.5,1.3-1.8,1.8-3.7l2.5-8.8h-10.8l-2.5,8.8c-0.4,1.2-0.5,2.1-0.5,2.7c0,0.5,0.2,0.9,0.7,1.3s1.3,0.5,2.6,0.5l-0.2,0.8h-14.2l0.2-0.8c1.4,0,2.4-0.3,3.1-0.8c0.6-0.5,1.2-1.8,1.8-3.7l5.5-18.9c0.3-1.1,0.5-1.9,0.5-2.6c0-0.6-0.2-1-0.6-1.4c-0.4-0.3-1.3-0.5-2.8-0.6l0.2-0.8h14.4l-0.3,0.8c-1.3,0-2.3,0.3-3,0.9c-0.7,0.6-1.3,1.8-1.9,3.7L218,117.7z"/><path class="st0" d="M257.5,124.1h-9.1l-1.8,2.3l-2.1,2.5c-0.4,0.5-0.7,1-0.9,1.5c-0.1,0.3-0.2,0.7-0.2,1c0,0.3,0.2,0.7,0.6,1c0.4,0.3,1,0.5,1.8,0.5v0.8h-8.8l0.2-0.8c0.8-0.1,1.5-0.4,2.1-0.8c0.8-0.6,2-1.8,3.5-3.6l20.9-25h1l-1,24.2c0,1.3-0.1,2-0.1,2.3c0,1,0.2,1.7,0.6,2.2c0.4,0.5,1.1,0.7,2,0.8l-0.2,0.8h-12.8l0.2-0.8c1.3-0.1,2-0.2,2.2-0.3c0.4-0.2,0.8-0.6,1.1-1.3c0.3-0.6,0.5-1.8,0.6-3.4L257.5,124.1z M257.5,122.3l0.6-9.6l-8.2,9.6H257.5z"/><path class="st0" d="M294.8,104.1l2.2,20.3l14-20.3h10.3l-0.3,0.8c-1.4,0-2.5,0.3-3.2,0.9c-0.7,0.6-1.4,1.8-1.9,3.6l-5.4,18.9c-0.3,1.2-0.5,2.1-0.5,2.7c0,0.5,0.2,1,0.7,1.3s1.3,0.5,2.6,0.5l-0.2,0.8h-14.7l0.3-0.8c1.6,0,2.8-0.3,3.5-0.9c0.8-0.6,1.4-1.8,1.9-3.6l5.6-19.1l-16.9,24.4h-0.9l-2.7-24.9l-5.6,19.6c-0.2,0.8-0.3,1.5-0.3,2c0,0.7,0.3,1.3,0.8,1.8c0.5,0.4,1.4,0.7,2.6,0.7l-0.2,0.8h-9.8l0.2-0.8c1.2,0,2.1-0.3,2.7-0.7c1.1-0.8,1.9-2.1,2.4-3.7l6.4-21.8c-0.6-0.7-1.2-1.1-1.6-1.3c-0.5-0.2-1.3-0.3-2.5-0.3l0.3-0.8H294.8z"/><path class="st0" d="M332.2,113.5c1.1,0,2.2,0.3,3.2,0.8c1,0.5,1.8,1.3,2.3,2.2c0.5,0.9,0.8,2,0.8,3.1c0,2.4-0.7,4.7-2,7.1s-3,4.2-5.2,5.6s-4.3,2-6.5,2c-2,0-3.5-0.6-4.6-1.8c-1.1-1.2-1.6-2.6-1.6-4.3c0-2,0.4-3.9,1.2-5.7c0.8-1.8,1.8-3.3,3.1-4.6c1.2-1.3,2.7-2.4,4.3-3.2C328.8,113.9,330.5,113.5,332.2,113.5z M331.3,114.6c-0.8,0-1.4,0.2-1.9,0.7c-1,0.9-2.2,3.1-3.4,6.4c-1.3,3.4-1.9,6.4-1.9,9.1c0,0.7,0.2,1.2,0.6,1.7c0.4,0.4,0.9,0.7,1.4,0.7c0.6,0,1.1-0.2,1.5-0.5c0.6-0.5,1.4-1.7,2.4-3.5c0.9-1.8,1.7-3.8,2.3-6c0.6-2.2,0.9-4.2,0.9-6c0-0.8-0.2-1.3-0.5-1.8C332.2,114.8,331.8,114.6,331.3,114.6z"/><path class="st0" d="M350.4,113.5l-3.3,12.2c2.7-6,4.7-9.6,6.1-11c0.8-0.8,1.6-1.2,2.5-1.2c0.6,0,1.1,0.2,1.5,0.7c0.4,0.4,0.6,1.1,0.6,1.9c0,1.4-0.3,2.6-1,3.5c-0.4,0.6-0.9,0.9-1.5,0.9c-0.6,0-1-0.3-1.3-0.8c-0.3-0.5-0.5-0.9-0.6-0.9c-0.1-0.1-0.2-0.1-0.4-0.1c-0.1,0-0.3,0-0.5,0.1c-0.3,0.2-0.7,0.6-1.3,1.3c-0.5,0.7-1.2,1.8-1.9,3.4s-1.3,2.9-1.8,4c-0.4,1.1-1,3.2-1.8,6.3h-5.3l3.6-14.4c0.3-1.1,0.4-1.8,0.4-2.1c0-0.4-0.1-0.7-0.2-0.9c-0.1-0.2-0.3-0.4-0.6-0.5s-0.7-0.2-1.5-0.2l0.2-0.6l6.6-1.4H350.4z"/><path class="st0" d="M370,108.1l-1.7,5.9h2.9l-0.8,2.5h-2.8l-3.6,12.6c-0.2,0.8-0.3,1.4-0.3,1.8c0,0.2,0.1,0.4,0.2,0.5c0.1,0.1,0.3,0.2,0.4,0.2c0.2,0,0.5-0.1,0.8-0.3c0.7-0.5,1.4-1.4,2.3-2.7l0.8,0.5c-1,1.7-2.1,3-3.3,3.8c-1.2,0.8-2.4,1.2-3.5,1.2c-1,0-1.8-0.3-2.3-0.8s-0.8-1.1-0.8-1.9c0-0.8,0.2-1.9,0.6-3.2l3.4-11.8h-3l0.4-1.6c1.9-0.7,3.4-1.5,4.7-2.4c1.3-0.9,2.8-2.4,4.6-4.4H370z"/><path class="st0" d="M386.8,114.8h5.8l-0.7,2.4h-3c0.5,0.9,0.7,1.7,0.7,2.4c0,1.3-0.4,2.5-1.1,3.7c-0.7,1.1-1.8,2-3.2,2.7c-1.4,0.7-3,1-4.7,1c-0.5,0-0.9,0-1.5-0.1c-0.5-0.1-1.1-0.2-1.8-0.3c-1,0.5-1.6,0.9-1.8,1.2c-0.2,0.2-0.3,0.4-0.3,0.6c0,0.3,0.1,0.5,0.3,0.7c0.4,0.3,0.9,0.6,1.7,0.7c3,0.6,4.9,1.2,5.9,1.5c1.3,0.5,2.3,1.2,2.9,2.1s1,1.9,1,3c0,1.8-0.8,3.4-2.5,4.8c-1.7,1.4-4.3,2-7.8,2c-3.5,0-6.1-0.6-7.8-1.7c-1.2-0.8-1.8-1.8-1.8-3c0-0.9,0.4-1.7,1.2-2.5c0.8-0.8,2.5-1.4,5.1-2c-0.9-0.5-1.5-0.9-1.8-1.4c-0.4-0.6-0.6-1.1-0.6-1.7c0-1,0.4-1.8,1.2-2.6c0.8-0.7,2.1-1.5,3.9-2.2c-1.4-0.6-2.5-1.3-3.1-2.2c-0.6-0.9-0.9-1.9-0.9-3.1c0-1.3,0.4-2.5,1.1-3.6s1.9-2.1,3.4-2.8c1.5-0.7,3.2-1.1,5.1-1.1c1.2,0,2.3,0.1,3.3,0.4C385.6,114,386.2,114.3,386.8,114.8z M374.8,134.6c-1.4,0.5-2.3,1.1-2.8,1.7c-0.5,0.6-0.8,1.3-0.8,2c0,0.9,0.5,1.8,1.5,2.6c1,0.8,2.6,1.1,4.8,1.1c1.8,0,3.1-0.3,3.9-1c0.8-0.7,1.2-1.4,1.2-2.3c0-0.8-0.4-1.4-1.1-1.9c-0.7-0.5-2.2-1-4.3-1.5C376.2,135,375.4,134.8,374.8,134.6z M382.3,114.5c-0.7,0-1.3,0.2-1.8,0.7c-0.8,0.7-1.5,1.9-2.1,3.6c-0.6,1.7-0.9,3.3-0.9,4.7c0,0.7,0.2,1.3,0.6,1.7c0.4,0.4,0.9,0.6,1.5,0.6c0.6,0,1.1-0.2,1.5-0.6c0.8-0.8,1.5-2.1,2.2-3.8s0.9-3.3,0.9-4.8c0-0.6-0.2-1.2-0.6-1.5S382.8,114.5,382.3,114.5z"/><path class="st0" d="M413.3,113.8l-4.2,14.5l-0.4,1.8c0,0.2-0.1,0.4-0.1,0.5c0,0.2,0.1,0.3,0.2,0.5c0.1,0.1,0.3,0.2,0.4,0.2c0.3,0,0.7-0.2,1.3-0.7c0.2-0.2,0.7-0.9,1.6-2l0.8,0.4c-1,1.9-2.1,3.3-3.3,4.1c-1.2,0.9-2.4,1.3-3.8,1.3c-0.8,0-1.5-0.2-1.9-0.6s-0.7-1-0.7-1.6c0-0.6,0.2-1.6,0.7-3.2l0.5-1.8c-1.7,2.9-3.3,4.9-4.9,6.1c-0.9,0.7-1.9,1-2.9,1c-1.3,0-2.3-0.5-2.9-1.6c-0.6-1.1-0.9-2.3-0.9-3.7c0-2,0.6-4.4,1.9-7c1.2-2.6,2.9-4.8,4.9-6.4c1.7-1.3,3.2-2,4.7-2c0.8,0,1.5,0.2,2,0.7c0.5,0.5,0.9,1.3,1.1,2.6l0.8-2.7L413.3,113.8z M406.3,117.9c0-1.2-0.2-2-0.5-2.5c-0.3-0.4-0.6-0.5-1.1-0.5c-0.5,0-0.9,0.2-1.4,0.7c-1,0.9-2,2.7-3.1,5.5c-1.1,2.8-1.7,5.1-1.7,7.1c0,0.8,0.1,1.3,0.4,1.7c0.3,0.3,0.5,0.5,0.8,0.5c0.7,0,1.3-0.4,2-1.1c1-1.1,1.8-2.4,2.6-3.9C405.6,122.4,406.3,120,406.3,117.9z"/><path class="st0" d="M431.4,114.8h5.8l-0.7,2.4h-3c0.5,0.9,0.7,1.7,0.7,2.4c0,1.3-0.4,2.5-1.1,3.7c-0.7,1.1-1.8,2-3.2,2.7c-1.4,0.7-3,1-4.7,1c-0.5,0-0.9,0-1.5-0.1c-0.5-0.1-1.1-0.2-1.8-0.3c-1,0.5-1.6,0.9-1.8,1.2c-0.2,0.2-0.3,0.4-0.3,0.6c0,0.3,0.1,0.5,0.3,0.7c0.4,0.3,0.9,0.6,1.7,0.7c3,0.6,4.9,1.2,5.9,1.5c1.3,0.5,2.3,1.2,2.9,2.1s1,1.9,1,3c0,1.8-0.8,3.4-2.5,4.8c-1.7,1.4-4.3,2-7.8,2c-3.5,0-6.1-0.6-7.8-1.7c-1.2-0.8-1.8-1.8-1.8-3c0-0.9,0.4-1.7,1.2-2.5c0.8-0.8,2.5-1.4,5.1-2c-0.9-0.5-1.5-0.9-1.8-1.4c-0.4-0.6-0.6-1.1-0.6-1.7c0-1,0.4-1.8,1.2-2.6c0.8-0.7,2.1-1.5,3.9-2.2c-1.4-0.6-2.5-1.3-3.1-2.2c-0.6-0.9-0.9-1.9-0.9-3.1c0-1.3,0.4-2.5,1.1-3.6s1.9-2.1,3.4-2.8c1.5-0.7,3.2-1.1,5.1-1.1c1.2,0,2.3,0.1,3.3,0.4C430.2,114,430.8,114.3,431.4,114.8z M419.4,134.6c-1.4,0.5-2.3,1.1-2.8,1.7c-0.5,0.6-0.8,1.3-0.8,2c0,0.9,0.5,1.8,1.5,2.6c1,0.8,2.6,1.1,4.8,1.1c1.8,0,3.1-0.3,3.9-1c0.8-0.7,1.2-1.4,1.2-2.3c0-0.8-0.4-1.4-1.1-1.9c-0.7-0.5-2.2-1-4.3-1.5C420.8,135,420,134.8,419.4,134.6z M426.9,114.5c-0.7,0-1.3,0.2-1.8,0.7c-0.8,0.7-1.5,1.9-2.1,3.6c-0.6,1.7-0.9,3.3-0.9,4.7c0,0.7,0.2,1.3,0.6,1.7c0.4,0.4,0.9,0.6,1.5,0.6c0.6,0,1.1-0.2,1.5-0.6c0.8-0.8,1.5-2.1,2.2-3.8s0.9-3.3,0.9-4.8c0-0.6-0.2-1.2-0.6-1.5S427.5,114.5,426.9,114.5z"/><path class="st0" d="M443.5,125.5c-0.1,0.9-0.2,1.7-0.2,2.3c0,1.1,0.3,2,0.9,2.6c0.6,0.7,1.5,1,2.5,1c1,0,2-0.2,3.1-0.7c1-0.5,2.2-1.4,3.6-2.6l0.7,0.6c-1.7,2-3.3,3.5-4.9,4.3s-3.3,1.3-5.2,1.3c-2.4,0-4.1-0.6-5-1.7c-0.9-1.2-1.4-2.5-1.4-4c0-2.4,0.7-4.8,2.1-7.1c1.4-2.4,3.3-4.3,5.7-5.7s4.8-2.2,7.2-2.2c1.2,0,2.1,0.3,2.8,0.9c0.6,0.6,0.9,1.3,0.9,2.2c0,1.1-0.3,2.1-0.9,3.1c-0.8,1.4-1.9,2.5-3.2,3.3c-1.3,0.8-2.7,1.5-4.3,1.9C446.7,125.1,445.2,125.3,443.5,125.5z M443.7,124.3c1.3-0.2,2.3-0.4,3-0.8s1.4-0.8,2.1-1.6c0.7-0.7,1.3-1.6,1.8-2.7s0.7-2.1,0.7-3.1c0-0.4-0.1-0.7-0.3-1c-0.2-0.2-0.5-0.3-0.9-0.3c-0.7,0-1.5,0.5-2.4,1.5C446,118.1,444.7,120.8,443.7,124.3z"/><path class="st0" d="M472.9,113.5l-1,6.7h-0.8c-0.1-1.7-0.6-3.1-1.6-4.1c-1-1-2-1.5-3.1-1.5c-0.7,0-1.2,0.2-1.7,0.6c-0.4,0.4-0.7,0.9-0.7,1.4c0,0.5,0.1,0.9,0.3,1.3c0.2,0.4,0.6,1,1.3,1.7c2.3,2.5,3.7,4.2,4.2,5.1c0.5,0.9,0.7,1.9,0.7,3c0,1.1-0.3,2.2-0.9,3.3s-1.4,1.8-2.6,2.5c-1.2,0.6-2.4,0.9-3.6,0.9c-0.8,0-1.9-0.2-3.1-0.5c-0.8-0.2-1.4-0.3-1.8-0.3c-0.4,0-0.6,0.1-0.8,0.2s-0.4,0.3-0.7,0.7h-0.8l1.1-7.3h0.7c0.5,1.8,1,3,1.4,3.8c0.4,0.7,1,1.3,1.8,1.8c0.7,0.4,1.5,0.7,2.1,0.7c0.8,0,1.5-0.3,2-0.8c0.5-0.5,0.8-1.1,0.8-1.8c0-0.7-0.2-1.3-0.5-2c-0.3-0.6-1.1-1.6-2.4-3c-1.7-1.8-2.8-3.3-3.4-4.3c-0.4-0.7-0.6-1.6-0.6-2.5c0-1.6,0.6-2.9,1.7-3.9c1.1-1,2.7-1.6,4.8-1.6c0.9,0,2,0.2,3.3,0.5c0.7,0.2,1.2,0.2,1.6,0.2c0.6,0,1-0.2,1.4-0.7H472.9z"/></g></svg>