<svg xmlns="http://www.w3.org/2000/svg" xmlns:xlink="http://www.w3.org/1999/xlink" x="0px" y="0px" 	 viewBox="0 0 202.3 48.4" style="enable-background:new 0 0 202.3 48.4;" xml:space="preserve"><style type="text/css">.st0{fill:#FFFFFF;}</style><path class="st0" d="M31.6,15.6c4.3,0,7.8-3.5,7.8-7.8c0-4.3-3.5-7.8-7.8-7.8c-4.3,0-7.8,3.5-7.8,7.8C23.8,12.1,27.3,15.6,31.6,15.6 	z M42.9,27.7C42.7,21.7,37.9,17,31.9,17c-2.8,0-5.4,1.1-7.3,2.8c-1.3-2.9-4.1-4.9-7.5-4.9c-2.1,0-4.1,0.8-5.5,2.2 	c-0.7-2.4-3-4.2-5.6-4.2c-3.2,0-5.8,2.5-5.9,5.7h0v11h8.9v8.6h11.9v10.4h22.2L42.9,27.7L42.9,27.7z M16.9,13.8 	c3.2,0,5.8-2.6,5.8-5.7c0-3.2-2.6-5.8-5.8-5.8c-3.2,0-5.7,2.6-5.7,5.8C11.1,11.2,13.7,13.8,16.9,13.8z M5.8,12 	c2.3,0,4.1-1.9,4.1-4.1c0-2.3-1.9-4.1-4.1-4.1c-2.3,0-4.1,1.9-4.1,4.1S3.5,12,5.8,12z"/><path class="st0" d="M64.3,19.2v6.4c0,1-0.2,1.8-0.7,2.3c-0.5,0.5-1.1,0.8-1.8,0.8c-0.7,0-1.3-0.3-1.8-0.8c-0.5-0.5-0.7-1.3-0.7-2.3 	v-7.7c0-1.2,0-2.2-0.1-2.8c-0.1-0.7-0.3-1.2-0.7-1.7c-0.4-0.4-0.9-0.6-1.7-0.6c-1.6,0-2.6,0.5-3.1,1.6c-0.5,1.1-0.8,2.6-0.8,4.7v6.5 	c0,1-0.2,1.8-0.7,2.3c-0.5,0.5-1,0.8-1.8,0.8c-0.7,0-1.3-0.3-1.8-0.8c-0.5-0.5-0.7-1.3-0.7-2.3V11.8c0-0.9,0.2-1.6,0.6-2.1 	C49,9.3,49.5,9,50.2,9c0.7,0,1.2,0.2,1.7,0.7c0.4,0.4,0.7,1.1,0.7,1.8V12c0.8-1,1.7-1.7,2.7-2.2c1-0.5,2-0.7,3.2-0.7 	c1.2,0,2.3,0.2,3.1,0.7c0.9,0.5,1.6,1.2,2.2,2.2c0.8-1,1.7-1.7,2.6-2.2c0.9-0.5,2-0.7,3.1-0.7c1.3,0,2.5,0.3,3.4,0.8 	c1,0.5,1.7,1.3,2.1,2.2c0.4,0.9,0.6,2.3,0.6,4.1v9.4c0,1-0.2,1.8-0.7,2.3c-0.5,0.5-1.1,0.8-1.8,0.8c-0.7,0-1.3-0.3-1.8-0.8 	c-0.5-0.5-0.7-1.3-0.7-2.3v-8.1c0-1,0-1.9-0.1-2.5c-0.1-0.6-0.3-1.1-0.7-1.6c-0.4-0.4-1-0.6-1.8-0.6c-0.6,0-1.2,0.2-1.8,0.6 	c-0.6,0.4-1,0.9-1.3,1.5C64.5,15.7,64.3,17.1,64.3,19.2"/><path class="st0" d="M84.8,29.3l0.4-1.1l-5.9-15c-0.4-0.9-0.6-1.5-0.6-1.9c0-0.4,0.1-0.8,0.3-1.1c0.2-0.4,0.5-0.6,0.9-0.8 	C80.3,9.1,80.7,9,81.1,9c0.7,0,1.2,0.2,1.6,0.7c0.4,0.4,0.7,1.1,0.9,1.9l4.1,11.9l3.9-11.1c0.3-0.9,0.6-1.6,0.8-2.1 	c0.2-0.5,0.5-0.9,0.8-1C93.4,9.1,93.8,9,94.3,9c0.4,0,0.7,0.1,1.1,0.3s0.6,0.5,0.8,0.8c0.2,0.3,0.3,0.7,0.3,1 	c-0.1,0.2-0.1,0.5-0.2,1c-0.1,0.4-0.2,0.8-0.4,1.3l-6.3,16.5c-0.5,1.5-1.1,2.6-1.6,3.4c-0.5,0.8-1.2,1.5-2.1,1.9 	c-0.9,0.4-2,0.7-3.5,0.7c-1.4,0-2.5-0.2-3.2-0.5c-0.7-0.3-1.1-0.9-1.1-1.7c0-0.6,0.2-1,0.5-1.3c0.3-0.3,0.8-0.5,1.5-0.5 	c0.3,0,0.5,0,0.8,0.1c0.3,0.1,0.6,0.1,0.8,0.1c0.6,0,1-0.1,1.3-0.2c0.3-0.2,0.6-0.5,0.9-0.9C84.1,30.7,84.4,30.1,84.8,29.3"/><path class="st0" d="M115,22.4c0,1.3-0.3,2.5-1,3.4c-0.6,0.9-1.6,1.7-2.9,2.2c-1.3,0.5-2.8,0.7-4.6,0.7c-1.7,0-3.2-0.3-4.5-0.8 	c-1.2-0.5-2.2-1.2-2.8-2c-0.6-0.8-0.9-1.6-0.9-2.4c0-0.5,0.2-1,0.6-1.4c0.4-0.4,0.9-0.6,1.4-0.6c0.5,0,0.9,0.1,1.2,0.4 	c0.3,0.2,0.5,0.6,0.8,1c0.5,0.9,1.1,1.5,1.8,1.9c0.7,0.4,1.6,0.6,2.8,0.6c1,0,1.8-0.2,2.4-0.6c0.6-0.4,0.9-0.9,0.9-1.5 	c0-0.8-0.3-1.5-1-1.9c-0.6-0.4-1.7-0.8-3.2-1.1c-1.7-0.4-3-0.8-4.1-1.3c-1.1-0.5-1.9-1.1-2.5-1.8c-0.6-0.7-0.9-1.7-0.9-2.8 	c0-1,0.3-1.9,0.9-2.8c0.6-0.9,1.4-1.6,2.6-2.1c1.1-0.5,2.5-0.8,4.1-0.8c1.3,0,2.4,0.1,3.4,0.4c1,0.3,1.8,0.6,2.5,1 	c0.7,0.4,1.2,0.9,1.5,1.5c0.3,0.5,0.5,1.1,0.5,1.6c0,0.6-0.2,1-0.6,1.4c-0.4,0.4-0.9,0.5-1.6,0.5c-0.5,0-0.9-0.1-1.3-0.4 	c-0.3-0.3-0.7-0.7-1.2-1.3c-0.4-0.5-0.8-0.8-1.3-1.1c-0.5-0.3-1.2-0.4-2-0.4c-0.9,0-1.6,0.2-2.2,0.6c-0.6,0.4-0.9,0.8-0.9,1.4 	c0,0.5,0.2,0.9,0.6,1.3c0.4,0.3,1,0.6,1.7,0.8c0.7,0.2,1.7,0.5,3,0.8c1.5,0.4,2.7,0.8,3.7,1.3s1.7,1.1,2.2,1.8 	C114.8,20.7,115,21.5,115,22.4"/><path class="st0" d="M133,18.8c0-1.3-0.2-2.4-0.6-3.3c-0.4-0.9-0.9-1.6-1.6-2.1c-0.7-0.5-1.5-0.7-2.3-0.7c-1.3,0-2.5,0.5-3.4,1.6 	c-0.9,1.1-1.4,2.6-1.4,4.6c0,1.9,0.5,3.4,1.4,4.5c0.9,1.1,2,1.6,3.4,1.6c0.8,0,1.5-0.2,2.2-0.7c0.7-0.5,1.2-1.2,1.6-2.1 	C132.8,21.2,133,20.1,133,18.8 M123.6,11.7v0.6c0.9-1.1,1.9-2,2.8-2.5c1-0.5,2.1-0.8,3.3-0.8c1.5,0,2.9,0.4,4.1,1.2 	c1.3,0.8,2.2,1.9,3,3.4c0.7,1.5,1.1,3.2,1.1,5.2c0,1.5-0.2,2.9-0.6,4.1c-0.4,1.2-1,2.3-1.7,3.1c-0.7,0.8-1.6,1.5-2.6,1.9 	c-1,0.5-2.1,0.7-3.2,0.7c-1.4,0-2.5-0.3-3.5-0.8c-0.9-0.6-1.8-1.4-2.7-2.4v7.3c0,2.1-0.8,3.2-2.3,3.2c-0.9,0-1.5-0.3-1.8-0.8 	c-0.3-0.5-0.4-1.3-0.4-2.4V11.8c0-0.9,0.2-1.6,0.6-2.1c0.4-0.5,1-0.7,1.7-0.7c0.7,0,1.2,0.2,1.7,0.7 	C123.4,10.2,123.6,10.9,123.6,11.7"/><path class="st0" d="M153.7,18.9c-0.7,0.3-1.7,0.5-3.1,0.8c-1.4,0.3-2.3,0.5-2.8,0.6c-0.5,0.1-1,0.4-1.5,0.8c-0.5,0.4-0.7,1-0.7,1.7 	c0,0.7,0.3,1.4,0.8,1.9c0.6,0.5,1.3,0.8,2.2,0.8c1,0,1.8-0.2,2.6-0.6c0.8-0.4,1.4-1,1.8-1.6c0.4-0.7,0.7-1.9,0.7-3.6L153.7,18.9 	L153.7,18.9z M154,26c-1.2,0.9-2.3,1.6-3.4,2c-1.1,0.5-2.3,0.7-3.7,0.7c-1.2,0-2.3-0.2-3.3-0.7c-0.9-0.5-1.7-1.2-2.2-2 	c-0.5-0.8-0.8-1.8-0.8-2.7c0-1.3,0.4-2.5,1.3-3.4c0.8-0.9,2-1.6,3.5-1.9c0.3-0.1,1.1-0.2,2.3-0.5c1.2-0.2,2.3-0.5,3.1-0.7 	c0.9-0.2,1.8-0.5,2.8-0.8c-0.1-1.3-0.3-2.2-0.8-2.8c-0.5-0.6-1.4-0.9-2.8-0.9c-1.2,0-2.2,0.2-2.8,0.5c-0.6,0.3-1.2,0.9-1.6,1.5 	c-0.4,0.7-0.8,1.1-0.9,1.4c-0.2,0.2-0.6,0.3-1.2,0.3c-0.5,0-1-0.2-1.4-0.5c-0.4-0.3-0.6-0.8-0.6-1.3c0-0.8,0.3-1.7,0.9-2.5 	c0.6-0.8,1.5-1.5,2.8-2c1.3-0.5,2.9-0.8,4.8-0.8c2.1,0,3.8,0.3,5,0.8c1.2,0.5,2.1,1.3,2.6,2.4c0.5,1.1,0.8,2.5,0.8,4.3 	c0,1.1,0,2.1,0,2.9c0,0.8,0,1.7,0,2.6c0,0.9,0.2,1.9,0.5,2.8c0.3,1,0.4,1.6,0.4,1.9c0,0.5-0.2,1-0.7,1.4c-0.5,0.4-1,0.6-1.6,0.6 	c-0.5,0-1-0.2-1.5-0.7C155.1,27.5,154.5,26.8,154,26"/><path class="st0" d="M180.7,22.7c0,0.6-0.2,1.2-0.5,1.9c-0.4,0.7-0.9,1.3-1.6,2c-0.7,0.6-1.7,1.1-2.8,1.5c-1.1,0.4-2.4,0.6-3.8,0.6 	c-3,0-5.3-0.9-7-2.6c-1.7-1.7-2.5-4.1-2.5-7c0-2,0.4-3.7,1.2-5.3c0.8-1.5,1.9-2.7,3.3-3.5c1.5-0.8,3.2-1.2,5.2-1.2 	c1.3,0,2.4,0.2,3.4,0.5c1,0.4,1.9,0.8,2.7,1.4c0.7,0.6,1.3,1.2,1.7,1.9c0.4,0.7,0.6,1.3,0.6,1.8c0,0.6-0.2,1.1-0.6,1.5 	c-0.4,0.4-1,0.6-1.6,0.6c-0.4,0-0.7-0.1-1-0.3c-0.3-0.2-0.6-0.5-0.9-1c-0.6-0.9-1.2-1.6-1.9-2c-0.6-0.4-1.5-0.7-2.5-0.7 	c-1.4,0-2.6,0.6-3.5,1.7c-0.9,1.1-1.3,2.6-1.3,4.6c0,0.9,0.1,1.8,0.3,2.5c0.2,0.8,0.5,1.4,1,2c0.4,0.5,0.9,0.9,1.5,1.2 	c0.6,0.3,1.3,0.4,2,0.4c1,0,1.8-0.2,2.5-0.7c0.7-0.5,1.3-1.1,1.8-2.1c0.3-0.5,0.6-1,1-1.3c0.3-0.3,0.8-0.5,1.3-0.5 	c0.6,0,1.1,0.2,1.5,0.7C180.5,21.7,180.7,22.2,180.7,22.7"/><path class="st0" d="M188.9,17.3h8.8c-0.1-1.7-0.6-2.9-1.3-3.7c-0.8-0.8-1.8-1.2-3.1-1.2c-1.2,0-2.2,0.4-3,1.3 	C189.5,14.4,189.1,15.7,188.9,17.3 M198.4,20.1h-9.5c0,1.1,0.2,2.1,0.7,2.9c0.4,0.8,1,1.5,1.7,1.9c0.7,0.4,1.5,0.6,2.4,0.6 	c0.6,0,1.1-0.1,1.6-0.2c0.5-0.1,0.9-0.3,1.4-0.6c0.4-0.3,0.9-0.6,1.2-0.9c0.4-0.3,0.9-0.8,1.5-1.3c0.2-0.2,0.6-0.3,1.1-0.3 	c0.5,0,0.9,0.1,1.2,0.4c0.3,0.3,0.5,0.7,0.5,1.2c0,0.4-0.2,1-0.5,1.5c-0.3,0.6-0.9,1.1-1.5,1.7c-0.7,0.5-1.6,1-2.6,1.3 	c-1,0.4-2.2,0.5-3.6,0.5c-3.1,0-5.5-0.9-7.2-2.7c-1.7-1.8-2.6-4.2-2.6-7.2c0-1.4,0.2-2.8,0.6-4c0.4-1.2,1-2.3,1.9-3.1 	c0.8-0.9,1.8-1.5,3-2s2.5-0.7,4-0.7c1.9,0,3.5,0.4,4.9,1.2c1.4,0.8,2.4,1.8,3,3.1c0.7,1.3,1,2.6,1,3.9c0,1.2-0.3,2-1,2.4 	C200.6,19.9,199.6,20.1,198.4,20.1"/></svg> 