<svg version="1.2" baseProfile="tiny" xmlns="http://www.w3.org/2000/svg" viewBox="0 0 963.3 278.6" overflow="scroll"><path fill="#AFAF41" stroke="#000" stroke-width="4" stroke-miterlimit="10" d="M373.4 33.9c7.4-10.6 14.8-21.2 22.3-31.8 1.5-.1 2.4.5 2.7 2.1 2.7 10 4.9 20.2 7.4 30.3 15.2.1 30.5-.1 45.7.1 2.3-.4 2.6 2.8.7 3.4-13.6 6.6-27.4 13-41 19.5 4.1 16.3 8.3 32.5 12.4 48.8.5 1.6.6 3.3.5 5-3.4-.1-5.5-2.8-7.9-4.8-13-11-26.1-21.9-39.1-32.9-14.1 6.4-28 13-41.9 19.4-1.4 1-2.7 0-3.9-.7 8.1-12.2 17-23.8 25.5-35.8-7.8-6.6-15.7-13-23.4-19.7-2-.9-.8-3.6 1.2-3.2 12.9-.2 25.9.5 38.8.3z"/><path fill="#AFAF41" stroke="#000" stroke-width="3" stroke-miterlimit="10" d="M177.2 27.5c.5-1.8 1.3-3.6 2.4-5.1 4.8 7.2 9.1 14.7 13.7 22 12-3.6 23.7-8.1 35.8-11.2l.4 1.5c-1.7 2.4-4.2 4.2-6.3 6.3-6.7 6.3-13.3 12.8-20.1 19 7.5 12.3 16.1 24.1 23.1 36.8-4-.1-7.5-2-11.1-3.4-10.9-4.3-21.9-8.6-32.9-12.9-8.3 7.9-16.4 16-24.6 23.9-1.1 1.3-2.6 1.7-4.2 1.9 3-11.2 6.6-22.1 9.9-33.3-6.3-2.6-12.8-5-19.2-7.6-1.6-.7-3.6-1.2-4.3-3 9.7-4.2 20.1-6.7 30.1-10.4 2.3-8.1 4.9-16.3 7.3-24.5z"/><path fill="#FFF" d="M789.2 81.7c4.8-.9 9.6-2.4 14.5-2.2 7.5.2 15.1-.6 22.5.9-2.6 9-5.9 17.9-6.4 27.4 10.2.1 20.5-.8 30.7-.7 2.2 7.3.2 14.9-.1 22.4-10.5.6-20.9 1.5-31.3 2.2.5 6.3.6 12.7.7 19 .7 11.7 1.8 23.5 3.7 35 1.3 6.2 2.9 13.5 8.7 17.2 6.4 2.2 14.2-.3 18.2-5.8 3.6-5.1 6.2-11.7 4.5-17.9-1.7-6.6-5-12.8-8.2-18.8 2.3-.5 4.6-1.2 7-1.4 5.6-.4 11-2.2 16.6-2.3 8.9 14.9 15.2 32.4 12.9 49.9-1 9.1-4.6 18.4-11.8 24.4-8.5 7.1-20 9.3-30.8 8.9-13.2.7-26.9-4.7-35.1-15.3-9.8-12.5-12.6-28.8-13.8-44.2-1-15.6-.4-31.5 3.4-46.7-5.9.1-11.7-.2-17.5.1-7.3 1-14.6 2.4-22 3.5v-22.9c-.1-2.6.7-5.1 1.3-7.5 5 .8 9.8 2.4 14.9 2.4 7 .3 14 .8 21 1l2.4-4.8c-2-7.8-3.9-15.8-6-23.8z"/><path fill="#AFAF41" stroke="#787874" stroke-width="2" stroke-miterlimit="10" d="M38.8 132.5c8.2-6.3 16-13 24.5-19 0 3.4-2 6.2-3.4 9.1-3.2 6.4-6.5 12.8-9.6 19.3 6.1 4.6 12.1 9.3 18.1 13.9 3.1 2.5 6.6 4.6 9.2 7.8-12.6.5-25.2-.6-37.8-.6l-12.3 24.6c-.5 1.4-1.8 2-2.9 2.8-.6-9.4-.8-18.9-1.4-28.3-7-.1-14 0-21-.6 6.2-6.3 13.8-11 20.6-16.7-.5-8.6-1-17.1-1.2-25.7 6.2 3.8 11.5 9 17.2 13.4z"/><path fill="#FFF" d="M142.4 130.4c8.9-7.4 21-8.8 32.1-9.7 14.9-.4 30.8-.8 44.3 6.5 11.7 5.9 19.8 17.2 24.2 29.3 8.1 25.2 13.7 51.3 15.7 77.8-8.4.4-16.7 1.4-25.1 1.6-2.2.2-4.6-.5-5.9-2.4-1.4-2.5-.4-5.3-.2-7.9.8-7 .6-14 .2-21-.8-9.4-4.3-18.3-8.4-26.8-3.4-7.8-10.3-13.9-18.5-16.3-6.5-2.1-13.5-1.7-20.2-1.5-6.7.6-14.1 1.7-19 6.8-6.1 8.9-9 19.6-11.5 30-1.7 12.9.6 26.3 6.5 37.9-10-.2-20 .6-30 .2-4.3-.3-7.9-3.9-8.2-8.2-.3-5 0-10-.1-14.9-.3-20.5 2.1-41.5 10.7-60.4 3.7-7.6 8.2-14.6 13.4-21zM894.8 140.8c13.6-10.9 32.9-12.9 49-7.1 6.4 2.3 11.6 6.9 16.2 11.8 1.8 2.2 4.2 5 2.6 8-2.5 4.8-8 6.3-12.8 7.7-3.9 1.3-7.7 2.5-11.6 3.8-1.7-3.2-4.2-6.3-7.9-7.2-4.4-.9-9.1.1-13 2.1-2.9 4.5-3.8 11 .1 15.2 9.7 11.7 24 17.8 35.6 27.4 3.8 3.2 7.9 6.7 9.6 11.5.9 6.1-3.1 11.4-7.5 15.1-8.7 7.2-20.3 9.2-31.2 9.7-6.4 0-12.9.5-19.1-1.2-9.5-2.1-18.2-7.7-24.3-15.4 6.3-3.5 12.7-6.9 19-10.5 4.8-.1 9.3 1.5 13.4 3.8 4.2 2.4 9.1.9 13.4-.3 1.8-.5 2.5-2.4 3.4-3.9-11.1-12.5-26.3-19.9-38.6-31-5.3-5.1-10.9-11.6-9.9-19.5 1.2-8.5 7.4-14.9 13.6-20zM381.7 195.2c-9.1 5-18 10.3-27.1 15.2-6.4 3.5-13.8 3.9-20.9 5.1-6.8 1.1-13.8 2.7-20.6.4-7.8-2.6-15.7-6.2-21.2-12.6-4.7-5.3-6-12.4-7.7-19 10.8.1 21.6.7 32.4 1 6.7.1 13.4-.7 20.1-1.1 15.1-1.2 30.3-1.8 45.4-3.3 3.7-3.6 5.3-9 4.6-14.1.2-8.8-2.4-18.2-9-24.4-8.3-8.3-20.3-10.2-31.3-12.8-9.4-2.5-19.3-1.3-28.9-1.6-7.3-.4-14.2 2.4-21.2 4-9.3 2.8-19 5.5-27 11.2-4.5 2.9-6 8.4-7.3 13.3-3.1 12.5-3.5 25.4-3.5 38.1-.2 8 2.5 16 7.7 22.1 7 8.3 17.2 12.7 27.1 16.2 14.9 5 30.8 5.5 46.3 4.2 18.4-1.9 36.8-10 48.1-25.1-1.9-5.5-3.9-11.2-6-16.8zm-60.1-49.5c11.7-.6 24.4 2.6 32.8 11.2 1.9 1.6 2.4 4.2 3.1 6.4-12-.2-24 1.5-35.9-.3-7.4-1-15-.8-22.2-3.1 6.3-6.2 13.2-12.8 22.2-14.2zM660.5 151.8c-5.5-8.6-14.9-14-24.4-17.3-3.7-1.2-7.4-2.7-11.3-2.8-30.6-.1-61.2-1-91.9-1v148h12c9.1-.4 18.2-.5 27.2-.5-1.3-12.9-2.7-25.8-4-38.7 9.2-.2 18.5-.5 27.7-1.1 17.5-3.2 35.8-7.3 50.4-18.3 13-10.3 18.4-27.4 19-43.4 1-8.6.1-17.6-4.7-24.9zm-32.7 24.7c-.6 10.2-7.6 19.2-16.7 23.5-13.3 6.5-28.4 7.7-42.9 7.4-.3-17.9 1.2-35.8 2.7-53.7 10.2-.1 20.5.4 30.7.6 8 1.3 16.4 3.4 22.3 9.3 3.6 3.2 4.8 8.2 3.9 12.9zM784.4 191.7c-7 5.6-14 11.1-21 16.6-6.3 5.1-14.4 6.6-21.8 9.3-6.6 2.7-13.9.8-20.8 1-6.1.5-11.9-2-16.7-5.5-5.4-4-8-10.4-10.6-16.3 14-2.2 28.3-3 42.1-6.2 15.8-3.1 31.5-7 47.1-11.3 1.8-3.1 3.4-6.6 2.7-10.3-.9-4.6-1.7-9.2-3.8-13.4-4.3-8.7-13.5-14.6-23.1-15.4-11.2-1.3-22.7-2.1-33.8.4-6.2 1.4-12.8 1.3-18.5 4.2-12.4 5.2-24 13.3-31.9 24.3-4.3 5.5-4.6 12.8-4.5 19.5.7 10.3 1.2 21.2 6.2 30.5 4.6 8.8 13.5 15 23 17.4 12.6.3 25.1.7 37.7 1.1 7 .4 13.8-1.8 20.4-3.8 14.6-4.8 28-14.3 35.6-27.8-2.8-4.8-5.5-9.6-8.3-14.3zm-60.5-35.3c6.4-.2 12.9.5 19.3.9 5.5 1.5 12.1 3.9 14.1 9.8-10.2 1.8-20.4 3.5-30.6 5.2-7.8.4-15.6.9-23.4.6 5.4-6.8 11.5-14.7 20.6-16.5zM517 143.3c-10-11.6-25.4-16.3-39.9-19.4-7.4-.5-14.9-1.4-22.3-.3-12.6 1.7-25.3 4.5-36.8 10.4-11.5 5.6-21.1 15.5-25.3 27.7-4.3 12.6-3.2 26.4-.2 39.2 2.8 11.3 9.6 22.4 20.4 27.6 10.7 5.1 22.4 7.2 34 9.4 4.1.6 8.3 1.9 12.5 1.2 8.7-1 17.4-1.7 26.1-2.8 20.9-7.2 38.7-25.4 42.2-47.7 2.3-15.6-.2-33-10.7-45.3zm-28.1 53.6c-1.5 4.3-5.5 7.4-10.1 7.5-11.4.8-23.3 3.8-34.4-.6-4.9-1.1-6.9-6.4-7.9-10.7-1.7-8.4-2.8-17.7 1.3-25.6 2.2-4.4 6.7-7.1 11.4-8.3 6.4-1.7 13-.3 19.5-.5 5.9.2 12.3 1.3 17.1 5 2.7 3.1 2.7 7.5 3.4 11.4.7 7.1 2.2 14.7-.3 21.8z"/></svg>