<svg version="1.2" baseProfile="tiny" id="Layer_1" xmlns="http://www.w3.org/2000/svg" xmlns:xlink="http://www.w3.org/1999/xlink" x="0px" y="0px" viewBox="0 0 963.3 278.6" overflow="scroll" xml:space="preserve"><path fill="#AFAF41" stroke="#000000" stroke-width="4" stroke-miterlimit="10" d="M373.4,33.9c7.4-10.6,14.8-21.2,22.3-31.8 c1.5-0.1,2.4,0.5,2.7,2.1c2.7,10,4.9,20.2,7.4,30.3c15.2,0.1,30.5-0.1,45.7,0.1c2.3-0.4,2.6,2.8,0.7,3.4c-13.6,6.6-27.4,13-41,19.5 c4.1,16.3,8.3,32.5,12.4,48.8c0.5,1.6,0.6,3.3,0.5,5c-3.4-0.1-5.5-2.8-7.9-4.8c-13-11-26.1-21.9-39.1-32.9 C363,80,349.1,86.6,335.2,93c-1.4,1-2.7,0-3.9-0.7c8.1-12.2,17-23.8,25.5-35.8c-7.8-6.6-15.7-13-23.4-19.7c-2-0.9-0.8-3.6,1.2-3.2 C347.5,33.4,360.5,34.1,373.4,33.9L373.4,33.9z"/><path fill="#AFAF41" stroke="#000000" stroke-width="3" stroke-miterlimit="10" d="M177.2,27.5c0.5-1.8,1.3-3.6,2.4-5.1 c4.8,7.2,9.1,14.7,13.7,22c12-3.6,23.7-8.1,35.8-11.2l0.4,1.5c-1.7,2.4-4.2,4.2-6.3,6.3c-6.7,6.3-13.3,12.8-20.1,19 c7.5,12.3,16.1,24.1,23.1,36.8c-4-0.1-7.5-2-11.1-3.4c-10.9-4.3-21.9-8.6-32.9-12.9c-8.3,7.9-16.4,16-24.6,23.9 c-1.1,1.3-2.6,1.7-4.2,1.9c3-11.2,6.6-22.1,9.9-33.3c-6.3-2.6-12.8-5-19.2-7.6c-1.6-0.7-3.6-1.2-4.3-3c9.7-4.2,20.1-6.7,30.1-10.4 C172.2,43.9,174.8,35.7,177.2,27.5L177.2,27.5z"/><path fill="#FFFFFF" d="M789.2,81.7c4.8-0.9,9.6-2.4,14.5-2.2c7.5,0.2,15.1-0.6,22.5,0.9c-2.6,9-5.9,17.9-6.4,27.4 c10.2,0.1,20.5-0.8,30.7-0.7c2.2,7.3,0.2,14.9-0.1,22.4c-10.5,0.6-20.9,1.5-31.3,2.2c0.5,6.3,0.6,12.7,0.7,19 c0.7,11.7,1.8,23.5,3.7,35c1.3,6.2,2.9,13.5,8.7,17.2c6.4,2.2,14.2-0.3,18.2-5.8c3.6-5.1,6.2-11.7,4.5-17.9 c-1.7-6.6-5-12.8-8.2-18.8c2.3-0.5,4.6-1.2,7-1.4c5.6-0.4,11-2.2,16.6-2.3c8.9,14.9,15.2,32.4,12.9,49.9c-1,9.1-4.6,18.4-11.8,24.4 c-8.5,7.1-20,9.3-30.8,8.9c-13.2,0.7-26.9-4.7-35.1-15.3c-9.8-12.5-12.6-28.8-13.8-44.2c-1-15.6-0.4-31.5,3.4-46.7 c-5.9,0.1-11.7-0.2-17.5,0.1c-7.3,1-14.6,2.4-22,3.5c0-7.6,0-15.3,0-22.9c-0.1-2.6,0.7-5.1,1.3-7.5c5,0.8,9.8,2.4,14.9,2.4 c7,0.3,14,0.8,21,1c0.8-1.6,1.6-3.2,2.4-4.8C793.2,97.7,791.3,89.7,789.2,81.7L789.2,81.7z"/><path fill="#AFAF41" stroke="#787874" stroke-width="2" stroke-miterlimit="10" d="M38.8,132.5c8.2-6.3,16-13,24.5-19 c0,3.4-2,6.2-3.4,9.1c-3.2,6.4-6.5,12.8-9.6,19.3c6.1,4.6,12.1,9.3,18.1,13.9c3.1,2.5,6.6,4.6,9.2,7.8C65,164.1,52.4,163,39.8,163 c-4.1,8.2-8.2,16.4-12.3,24.6c-0.5,1.4-1.8,2-2.9,2.8c-0.6-9.4-0.8-18.9-1.4-28.3c-7-0.1-14,0-21-0.6c6.2-6.3,13.8-11,20.6-16.7 c-0.5-8.6-1-17.1-1.2-25.7C27.8,122.9,33.1,128.1,38.8,132.5L38.8,132.5z"/><path fill="#FFFFFF" d="M142.4,130.4c8.9-7.4,21-8.8,32.1-9.7c14.9-0.4,30.8-0.8,44.3,6.5c11.7,5.9,19.8,17.2,24.2,29.3 c8.1,25.2,13.7,51.3,15.7,77.8c-8.4,0.4-16.7,1.4-25.1,1.6c-2.2,0.2-4.6-0.5-5.9-2.4c-1.4-2.5-0.4-5.3-0.2-7.9c0.8-7,0.6-14,0.2-21 c-0.8-9.4-4.3-18.3-8.4-26.8c-3.4-7.8-10.3-13.9-18.5-16.3c-6.5-2.1-13.5-1.7-20.2-1.5c-6.7,0.6-14.1,1.7-19,6.8 c-6.1,8.9-9,19.6-11.5,30c-1.7,12.9,0.6,26.3,6.5,37.9c-10-0.2-20,0.6-30,0.2c-4.3-0.3-7.9-3.9-8.2-8.2c-0.3-5,0-10-0.1-14.9 c-0.3-20.5,2.1-41.5,10.7-60.4C132.7,143.8,137.2,136.8,142.4,130.4L142.4,130.4z"/><path fill="#FFFFFF" d="M894.8,140.8c13.6-10.9,32.9-12.9,49-7.1c6.4,2.3,11.6,6.9,16.2,11.8c1.8,2.2,4.2,5,2.6,8 c-2.5,4.8-8,6.3-12.8,7.7c-3.9,1.3-7.7,2.5-11.6,3.8c-1.7-3.2-4.2-6.3-7.9-7.2c-4.4-0.9-9.1,0.1-13,2.1c-2.9,4.5-3.8,11,0.1,15.2 c9.7,11.7,24,17.8,35.6,27.4c3.8,3.2,7.9,6.7,9.6,11.5c0.9,6.1-3.1,11.4-7.5,15.1c-8.7,7.2-20.3,9.2-31.2,9.7 c-6.4,0-12.9,0.5-19.1-1.2c-9.5-2.1-18.2-7.7-24.3-15.4c6.3-3.5,12.7-6.9,19-10.5c4.8-0.1,9.3,1.5,13.4,3.8 c4.2,2.4,9.1,0.9,13.4-0.3c1.8-0.5,2.5-2.4,3.4-3.9c-11.1-12.5-26.3-19.9-38.6-31c-5.3-5.1-10.9-11.6-9.9-19.5 C882.4,152.3,888.6,145.9,894.8,140.8L894.8,140.8z"/><path fill="#FFFFFF" d="M381.7,195.2c-9.1,5-18,10.3-27.1,15.2c-6.4,3.5-13.8,3.9-20.9,5.1c-6.8,1.1-13.8,2.7-20.6,0.4 c-7.8-2.6-15.7-6.2-21.2-12.6c-4.7-5.3-6-12.4-7.7-19c10.8,0.1,21.6,0.7,32.4,1c6.7,0.1,13.4-0.7,20.1-1.1 c15.1-1.2,30.3-1.8,45.4-3.3c3.7-3.6,5.3-9,4.6-14.1c0.2-8.8-2.4-18.2-9-24.4c-8.3-8.3-20.3-10.2-31.3-12.8 c-9.4-2.5-19.3-1.3-28.9-1.6c-7.3-0.4-14.2,2.4-21.2,4c-9.3,2.8-19,5.5-27,11.2c-4.5,2.9-6,8.4-7.3,13.3 c-3.1,12.5-3.5,25.4-3.5,38.1c-0.2,8,2.5,16,7.7,22.1c7,8.3,17.2,12.7,27.1,16.2c14.9,5,30.8,5.5,46.3,4.2 c18.4-1.9,36.8-10,48.1-25.1C385.8,206.5,383.8,200.8,381.7,195.2z M321.6,145.7c11.7-0.6,24.4,2.6,32.8,11.2 c1.9,1.6,2.4,4.2,3.1,6.4c-12-0.2-24,1.5-35.9-0.3c-7.4-1-15-0.8-22.2-3.1C305.7,153.7,312.6,147.1,321.6,145.7z"/><path fill="#FFFFFF" d="M660.5,151.8c-5.5-8.6-14.9-14-24.4-17.3c-3.7-1.2-7.4-2.7-11.3-2.8c-30.6-0.1-61.2-1-91.9-1 c0,49.3,0,98.7,0,148h12c9.1-0.4,18.2-0.5,27.2-0.5c-1.3-12.9-2.7-25.8-4-38.7c9.2-0.2,18.5-0.5,27.7-1.1 c17.5-3.2,35.8-7.3,50.4-18.3c13-10.3,18.4-27.4,19-43.4C666.2,168.1,665.3,159.1,660.5,151.8z M627.8,176.5 c-0.6,10.2-7.6,19.2-16.7,23.5c-13.3,6.5-28.4,7.7-42.9,7.4c-0.3-17.9,1.2-35.8,2.7-53.7c10.2-0.1,20.5,0.4,30.7,0.6 c8,1.3,16.4,3.4,22.3,9.3C627.5,166.8,628.7,171.8,627.8,176.5z"/><path fill="#FFFFFF" d="M784.4,191.7c-7,5.6-14,11.1-21,16.6c-6.3,5.1-14.4,6.6-21.8,9.3c-6.6,2.7-13.9,0.8-20.8,1 c-6.1,0.5-11.9-2-16.7-5.5c-5.4-4-8-10.4-10.6-16.3c14-2.2,28.3-3,42.1-6.2c15.8-3.1,31.5-7,47.1-11.3c1.8-3.1,3.4-6.6,2.7-10.3 c-0.9-4.6-1.7-9.2-3.8-13.4c-4.3-8.7-13.5-14.6-23.1-15.4c-11.2-1.3-22.7-2.1-33.8,0.4c-6.2,1.4-12.8,1.3-18.5,4.2 c-12.4,5.2-24,13.3-31.9,24.3c-4.3,5.5-4.6,12.8-4.5,19.5c0.7,10.3,1.2,21.2,6.2,30.5c4.6,8.8,13.5,15,23,17.4 c12.6,0.3,25.1,0.7,37.7,1.1c7,0.4,13.8-1.8,20.4-3.8c14.6-4.8,28-14.3,35.6-27.8C789.9,201.2,787.2,196.4,784.4,191.7z M723.9,156.4c6.4-0.2,12.9,0.5,19.3,0.9c5.5,1.5,12.1,3.9,14.1,9.8c-10.2,1.8-20.4,3.5-30.6,5.2c-7.8,0.4-15.6,0.9-23.4,0.6 C708.7,166.1,714.8,158.2,723.9,156.4z"/><path fill="#FFFFFF" d="M517,143.3c-10-11.6-25.4-16.3-39.9-19.4c-7.4-0.5-14.9-1.4-22.3-0.3c-12.6,1.7-25.3,4.5-36.8,10.4 c-11.5,5.6-21.1,15.5-25.3,27.7c-4.3,12.6-3.2,26.4-0.2,39.2c2.8,11.3,9.6,22.4,20.4,27.6c10.7,5.1,22.4,7.2,34,9.4 c4.1,0.6,8.3,1.9,12.5,1.2c8.7-1,17.4-1.7,26.1-2.8c20.9-7.2,38.7-25.4,42.2-47.7C530,173,527.5,155.6,517,143.3z M488.9,196.9 c-1.5,4.3-5.5,7.4-10.1,7.5c-11.4,0.8-23.3,3.8-34.4-0.6c-4.9-1.1-6.9-6.4-7.9-10.7c-1.7-8.4-2.8-17.7,1.3-25.6 c2.2-4.4,6.7-7.1,11.4-8.3c6.4-1.7,13-0.3,19.5-0.5c5.9,0.2,12.3,1.3,17.1,5c2.7,3.1,2.7,7.5,3.4,11.4 C489.9,182.2,491.4,189.8,488.9,196.9z"/></svg>