<svg version="1.2" baseProfile="tiny" id="svg2420" xmlns:svg="http://www.w3.org/2000/svg" xmlns="http://www.w3.org/2000/svg" xmlns:xlink="http://www.w3.org/1999/xlink" x="0px" y="0px" viewBox="159.7 324.6 803.4 145.5" xml:space="preserve"><path id="path3739" fill="#8DC63F" d="M905,385.2c-3.7,2.6-9.7,3.9-17.6,3.9h-3.9l5.3-28.5h3c6.6,0,11.4,1,14.4,3 c3,1.9,4.5,5.1,4.5,9.3C910.7,378.5,908.8,382.6,905,385.2 M373.3,430.7h-60.4l3-15.8h44.3l6.8-37h-44.3l2.6-13.9h60.3L373.3,430.7z M946.8,335.7c-10.9-7.4-26.8-11.1-47.9-11.1h-56l-19.6,106.1h-60.4l2.9-15.8h44.6l6.7-37h-44.7l2.7-13.9h44.6l7.4-39.4h-97.3 l-18.5,100.7h-23.3l18.7-100.7h-53.9l-18.5,100.7h-22.6l18.7-100.7h-53.8L557,430.7h-61l2.9-15.8h44.6l6.8-37h-44.7l2.7-13.9h47.5 l7.2-39.4H279.7l-14,75.8c-1.4-7.4-25.7-75.8-25.7-75.8h-53.4l-26.9,145.5h53.5c0,0,11.9-68.3,12.2-75.2l27,75.2h0.6h166.4 L438.9,364h16.8l-19.6,106.1h432.4l9.8-52.7l15.8,52.7h54.1l-21.1-55.8c11.4-2.4,20.3-7.7,26.6-15.7c6.2-8,9.3-18.1,9.3-30.2 C963.1,354.1,957.7,343.1,946.8,335.7"/></svg> 