<svg version="1.1" id="Layer_1" xmlns="http://www.w3.org/2000/svg" xmlns:xlink="http://www.w3.org/1999/xlink" x="0px" y="0px"    viewBox="0 0 122.1 37.4" style="enable-background:new 0 0 122.1 37.4;" xml:space="preserve"><style type="text/css">  .st0{fill:#C2C2C2;}   .st1{fill:#BE3038;} </style><polygon class="st0" points="0.1,25.3 122.1,25.3 122.1,26.3 0.1,26.3 "/><path class="st1" d="M20.3,9.2c0.1-0.1,0.2-0.2,0.2-0.3c0-0.1,0-0.2,0-0.3c0-0.4,0-0.7,0.1-0.9c0.1-0.3,0.1-0.7,0.1-1.3   c-0.1-0.5-0.3-0.9-0.6-1.3c-0.9-0.8-1.7-1.1-2.3-0.9c-0.3,0.1-0.8,0.1-1.3,0C15.7,4,15,4.1,14.4,4.4c-0.3,0.1-0.5,0.2-0.7,0.2   c-0.1,0-0.3,0-0.4,0c-0.1,0-0.1,0-0.1,0c-0.6,0.2-1,0.4-1.2,0.6c0,0,0,0.1-0.1,0.2c-0.3,0.6-0.4,1-0.4,1.2c0.1,0.5,0.1,0.9,0.1,1.1   c0,0.5,0.1,0.9,0.2,1.2c0,0,0,0,0,0L12,9c0.3,0.2,0.6,0.4,0.8,0.6c0,0,0.1,0.1,0.1,0.1c0.2-0.1,0.4-0.1,0.6-0.1   c0.2,0.1,0.5,0.1,0.7,0c0.2-0.1,0.4-0.1,0.6,0c0.3,0,0.5,0,0.6-0.1c0.2-0.1,0.5-0.1,0.9-0.1h0c0.2-0.1,0.3-0.2,0.3-0.2   C16.7,9,16.8,9,16.9,8.9c0-0.1,0.1-0.2,0.1-0.3c0.1-0.1,0.1-0.3,0.2-0.5c0-0.1,0-0.4-0.1-0.6c0-0.2,0-0.4,0-0.5   c0.1-0.3,0.2-0.5,0.2-0.7c0-0.4,0.1-0.7,0.4-0.9c0.3-0.3,0.6-0.4,0.8-0.3c0.2,0,0.3,0.2,0.4,0.4c0.1,0.3,0.2,0.6,0.2,0.9   c0,0.3-0.1,0.5-0.2,0.7c-0.1,0.2-0.2,0.4-0.4,0.6c-0.2,0.2-0.3,0.5-0.3,0.9c0,0.1,0,0.2-0.1,0.3c0.1,0.1,0.1,0.1,0.1,0.2   c0,0,0,0,0.1,0.1c0.2,0,0.5,0,0.8,0.1c0.3,0,0.6,0,0.8,0c0,0,0.1,0,0.1,0C20.2,9.3,20.2,9.3,20.3,9.2C20.2,9.3,20.2,9.3,20.3,9.2   L20.3,9.2z M15.1,12.7c0,0,0-0.1,0-0.1c0-0.2,0-0.4,0-0.5c0-0.1,0-0.2,0-0.3c0-0.1,0-0.2,0-0.3c-0.1-0.1-0.1-0.1-0.2-0.1   c-0.2-0.1-0.4-0.2-0.6-0.2h0c-0.3,0.1-0.5,0.2-0.7,0.2c-0.2,0-0.4,0.1-0.5,0.1c-0.1,0-0.1,0.1-0.1,0.1c-0.2,0.1-0.3,0.2-0.4,0.3   c-0.1,0.1-0.1,0.2-0.2,0.3c0,0.3-0.1,0.6-0.1,0.8c-0.1,0.2-0.1,0.5-0.1,0.7c0.2-0.2,0.4-0.4,0.7-0.4c0.3-0.1,0.5-0.1,0.6-0.1   c0.2,0,0.4,0,0.6,0c0.2,0,0.4,0,0.5,0c0,0,0,0,0.1,0C14.8,13,15,12.8,15.1,12.7L15.1,12.7z M22.9,19.9c0.1,0.4,0.1,0.7,0,1   c-0.1,0.2-0.1,0.3-0.1,0.4c-0.1,0.2-0.1,0.3-0.2,0.4C22.3,21.9,22,22,21.7,22c-0.3,0-0.5-0.2-0.7-0.4c-0.2-0.3-0.3-0.6-0.3-0.8   c0-0.2,0-0.4-0.1-0.5c0-0.1,0-0.3,0-0.4c0.1-0.2,0.1-0.4,0-0.6c-0.1-0.5-0.2-0.9-0.1-1.1c0.1-0.7,0.1-1.5,0-2.2c0-0.2,0-0.4,0-0.5   c0-0.2,0-0.5,0-0.8c0-0.4,0-0.8,0-1c0.1-0.3,0.1-0.7,0-1c0-0.2-0.1-0.4-0.1-0.7c-0.1-0.2-0.3-0.3-0.4-0.3c-0.2-0.2-0.4-0.3-0.4-0.4   c0,0-0.1,0-0.1,0c-0.5-0.2-1-0.2-1.5-0.1c-0.2,0.1-0.4,0.1-0.6,0.1C17.2,11,17,11,17,11.1c-0.1,0-0.2,0.1-0.2,0.2c0,0,0,0.1,0,0.1   c0,0.2,0,0.4,0,0.6c0,0.1,0,0.3-0.1,0.4c0,0,0,0.1,0,0.1c0.1,0.2,0.3,0.3,0.5,0.4c0,0,0,0,0,0.1c0.2,0,0.5,0,0.8,0   c0.3,0,0.6,0,0.8,0c0.3,0,0.5,0.1,0.8,0.3c0.3,0.2,0.4,0.4,0.4,0.8c0,0.3-0.1,0.5-0.5,0.7c-0.4,0.1-0.9,0.1-1.4,0   c-0.4-0.1-0.7-0.1-1.1,0c-0.3,0.1-0.6,0.1-0.8,0h0c-0.7,0.2-1.1,0.4-1.4,0.6l0,0c0,0.3,0,0.6-0.1,1c0,0.2,0,0.3,0,0.4   c0,0.1,0,0.3,0,0.5c0,0.2,0,0.4,0.1,0.5c0,0.1,0.1,0.2,0.1,0.2c0.2,0.1,0.3,0.3,0.2,0.6c-0.1,0.2-0.3,0.4-0.5,0.5   c-0.1,0-0.2,0-0.4,0c-0.1,0-0.2-0.1-0.4-0.1c-0.3-0.1-0.6-0.4-0.8-0.9c-0.1-0.7-0.2-1.2-0.1-1.6c0-0.2,0.1-0.4,0.1-0.5   c0-0.1,0-0.1,0-0.2c0-0.1-0.1-0.2-0.1-0.3c-0.1-0.1-0.1-0.2-0.1-0.2c-0.1,0-0.3,0-0.4,0C12.1,15,12,15,11.9,14.9c0,0,0,0.1,0,0.1   c0,0.2,0,0.5-0.1,0.8c-0.1,0.3-0.2,0.5-0.1,0.7c0,0.2,0,0.3,0,0.4c0,0.1-0.1,0.3,0,0.4c0,0.1,0,0.3-0.1,0.5   c-0.1,0.2-0.1,0.4-0.1,0.6c0,0.1,0,0.3-0.1,0.5c-0.2,0.6-0.4,1.1-0.5,1.5c-0.1,0.2-0.2,0.5-0.4,0.7c-0.3,0.3-0.6,0.4-0.8,0.5   c-0.2,0-0.5,0-0.7-0.2c-0.2-0.2-0.4-0.4-0.4-0.6c0-0.2-0.1-0.4,0-0.6c0.1-0.2,0.1-0.4,0.2-0.6C8.7,19.4,8.8,19.3,9,19   c0.3-0.3,0.4-0.6,0.4-0.8c0-0.2,0.1-0.3,0.1-0.4c0.1-0.4,0.3-0.7,0.3-1c0.1-0.2,0.1-0.4,0.1-0.6c0-0.7,0.1-1.3,0.4-1.9   c0.1-0.4,0.2-0.8,0.1-1.1c0-0.3,0.1-0.5,0.1-0.6c0.1-0.2,0.1-0.5,0.1-0.7c-0.1-0.4-0.1-0.8,0-1.1c0-0.3,0-0.9-0.1-1.8   c0-0.5-0.2-0.9-0.4-1.2c-0.3-0.4-0.5-1-0.5-1.6c-0.1-0.7,0-1.3,0.3-1.9c0.3-0.7,0.5-1.1,0.8-1.2c0.4-0.2,0.7-0.2,1,0c0,0,0,0,0,0   c0.1,0,0.2,0,0.3,0c0.1,0,0.3,0,0.4,0c0.4-0.1,0.8-0.2,1.1-0.1c0.3,0.1,0.5,0.1,0.6,0c0.3-0.2,0.6-0.2,0.8-0.2c0.1,0,0.2,0,0.4-0.1   c0.4-0.2,0.7-0.2,1-0.1c0.3,0.1,0.6,0.1,0.9,0c0.5-0.1,1-0.1,1.3,0c0.2,0,0.4,0,0.6,0c0.2,0,0.3,0.1,0.5,0.2   c0.2,0.1,0.4,0.2,0.6,0.1c0.3,0,0.5,0,0.6,0.1c0.2,0.1,0.4,0.2,0.4,0.3c0.1,0.2,0.2,0.3,0.5,0.5c0.4,0.2,0.7,0.6,0.8,1.1   c0.1,0.3,0.1,0.6,0,0.9c0,0.2-0.1,0.4-0.2,0.5c-0.1,0.1-0.2,0.3-0.2,0.5c0,0.2,0,0.3-0.1,0.4c-0.1,0.2-0.1,0.4-0.1,0.5   c0.1,0.1,0.1,0.3,0,0.5c-0.1,0.6-0.1,1.2-0.1,1.8c0,0.4-0.1,0.8-0.2,1c0,0.1,0,0.4,0,0.6c0,0.2,0,0.5,0,0.8c-0.1,0.2-0.1,0.5,0,0.8   c0.1,0.6,0.1,1.2,0.1,1.6c-0.1,0.8-0.1,1.3,0.1,1.7c0.3,1,0.5,1.7,0.5,2.3C22.7,19.1,22.8,19.5,22.9,19.9L22.9,19.9z M16.9,17.5   c0.1,0,0.4-0.1,0.6-0.1c0.3,0,0.5-0.1,0.6-0.1c0.3-0.1,0.7-0.1,1,0.1c0.3,0.1,0.4,0.4,0.5,0.7c0,0.4-0.1,0.6-0.3,0.8   c-0.3,0.2-0.8,0.3-1.3,0.2c-0.2,0-0.3,0-0.3,0c-0.1,0-0.2,0-0.3,0c-0.1,0-0.2,0-0.3,0.1c-0.3,0.1-0.7,0.1-1.1,0   c-0.2-0.1-0.4-0.4-0.4-0.6c0-0.2,0.1-0.4,0.2-0.6c0.2-0.2,0.4-0.4,0.7-0.4C16.6,17.6,16.8,17.5,16.9,17.5L16.9,17.5z M13.5,6.1   C13.6,6,13.7,6,13.7,5.9c0-0.1,0.2-0.2,0.5-0.2c0.2,0,0.5,0.1,0.6,0.3c0.2,0.3,0.3,0.5,0.3,0.7c0,0.1,0.1,0.2,0.1,0.3   c0,0.1,0,0.2,0,0.3c0,0.2,0.1,0.4,0.1,0.5c0,0.1,0,0.3-0.1,0.5c-0.1,0.3-0.3,0.4-0.4,0.5c-0.2,0.1-0.4,0-0.6-0.3   c-0.4-0.2-0.5-0.5-0.6-0.7c-0.2-0.4-0.3-0.6-0.3-0.8c0-0.1,0-0.3-0.1-0.5C13.4,6.2,13.5,6.1,13.5,6.1L13.5,6.1z M5.5,9.7   C5.5,9.7,5.5,9.7,5.5,9.7C5.3,9.9,5.1,9.9,4.9,9.9c-0.2,0-0.4,0.2-0.4,0.4c-0.1,0.3-0.4,0.6-0.7,0.8c-0.2,0.1-0.3,0.3-0.3,0.5   c0,0.3-0.1,0.5-0.3,0.6c-0.2,0.2-0.3,0.4-0.3,0.5c0.1,0.3,0.2,0.6,0.5,0.8c0.2,0.1,0.4,0.2,0.6,0.2c0.2,0,0.4,0.1,0.5,0.1   C4.5,14,4.7,14,4.8,14c0.2-0.1,0.4-0.1,0.5-0.1c0.2,0,0.4,0,0.7-0.1c0.3-0.1,0.6-0.3,0.7-0.6c0,0,0,0,0,0c0-0.3,0-0.5,0.1-0.7   C7,12.2,7,12,7,11.7c0-0.3-0.1-0.5-0.2-0.6c0-0.1-0.1-0.1-0.1-0.3c-0.1-0.2-0.2-0.3-0.3-0.4c-0.1-0.1-0.1-0.1-0.1-0.2   c0-0.1-0.1-0.1-0.1-0.1C5.9,9.9,5.7,9.8,5.5,9.7L5.5,9.7z M1.1,13.6c0-0.2,0-0.4-0.1-0.6c-0.1-0.3,0-0.5,0.2-0.8   c0.2-0.6,0.5-0.9,0.7-1c0.2-0.1,0.3-0.2,0.3-0.5c0-0.2,0.1-0.5,0.3-0.8c0.1-0.3,0.1-0.6,0-0.8c0-0.1-0.1-0.3-0.2-0.4   C2.3,8.5,2.2,8.4,2.1,8.4C1.8,8.3,1.7,8.1,1.6,8C1.5,7.9,1.5,7.8,1.3,7.8C1.2,7.7,1.2,7.6,1.2,7.4c0-0.1,0-0.2-0.1-0.3   C0.9,7,0.8,6.9,0.8,6.7c0-0.5,0-0.8,0.1-0.8c0.1-0.1,0.2-0.2,0.2-0.3c0-0.2,0.1-0.5,0.4-1C1.8,4,2,3.6,2.1,3.5   c0.1,0,0.1-0.2,0.2-0.3c0.1-0.1,0.2-0.3,0.3-0.3c0.1-0.1,0.2-0.2,0.2-0.3c0-0.1,0.1-0.3,0.2-0.3c0.1,0,0.2-0.1,0.3-0.3   c0.3-0.5,0.5-0.7,0.6-0.7c0.1,0,0.3,0,0.4-0.1C4.5,1,4.7,1,4.9,1.1c0.2,0.1,0.3,0.1,0.4,0.1c0.3-0.1,0.6,0,0.9,0.2   c0.4,0.3,0.6,0.6,0.6,0.9c0,0.3,0,0.5-0.1,0.5C6.5,3,6.3,3.1,6.1,3.1c-0.2,0-0.3,0-0.4,0.1C5.6,3.2,5.4,3.3,5.3,3.3   c-0.1,0-0.3,0-0.4,0.1C4.8,3.5,4.7,3.5,4.6,3.5c-0.1,0-0.2,0-0.3,0.1C4.2,3.8,4.1,3.9,4.1,4c0,0.2-0.1,0.3-0.2,0.3   C3.8,4.5,3.7,4.6,3.6,4.8C3.5,5.1,3.5,5.2,3.4,5.2C3.3,5.3,3.2,5.5,3.1,5.9c-0.2,0.4-0.3,0.8-0.2,1c0.2,0.3,0.3,0.5,0.4,0.5   c0.1,0,0.2,0.1,0.2,0.1c0,0.1,0.2,0.2,0.4,0.2c0.2,0,0.3,0.1,0.3,0.1C4.5,8,4.7,8,4.9,7.8C5,7.7,5.1,7.6,5.3,7.6   c0.2,0,0.3-0.1,0.4-0.3c0-0.1,0.1-0.2,0.2-0.3C6,6.9,6.1,6.7,6.2,6.5c0.1-0.2,0.1-0.3,0.2-0.4C6.5,6,6.5,5.8,6.4,5.7   c0-0.1-0.2-0.3-0.5-0.4C5.8,5.2,5.8,5,5.9,4.8C6,4.6,6.2,4.5,6.4,4.5c0.1,0,0.2-0.1,0.3-0.1c0.1-0.1,0.2-0.1,0.4,0   c0.1,0.1,0.2,0.1,0.4,0.1c0.5,0,0.8,0.2,1.1,0.6c0.2,0.2,0.2,0.4,0.2,0.5c-0.1,0.1-0.1,0.3,0,0.5c0.1,0.2,0.1,0.4,0,0.6   C8.7,7,8.6,7.2,8.4,7.2C8,7.3,7.7,7.5,7.4,7.7C7.3,7.9,7.2,8,7.2,8.1c0,0.1-0.1,0.2-0.1,0.3c0,0.1,0,0.1,0,0.1   c0,0.2,0.1,0.4,0.1,0.6c0,0,0,0,0.1,0.1c0,0.1,0.1,0.2,0.2,0.2c0.2,0.1,0.3,0.2,0.3,0.4c0.1,0.2,0.2,0.3,0.3,0.4   c0.1,0.1,0.2,0.2,0.3,0.4c0.1,0.4,0.2,0.7,0.2,0.9c0,0.4,0.1,0.6,0.1,0.8c0.1,0.2,0.1,0.4,0.1,0.6c0,0.4-0.1,0.7-0.3,0.9   C8.3,13.9,8.2,14,8,14.1c-0.1,0.1-0.2,0.2-0.4,0.3c-0.3,0.2-0.6,0.4-0.8,0.7c-0.3,0.4-0.8,0.6-1.4,0.6c-0.2,0-0.5,0-0.7,0.1   c-0.3,0.1-0.6,0-0.8-0.1c-0.3-0.2-0.6-0.3-0.9-0.2c-0.5,0-0.9-0.1-1.4-0.5C1.3,14.4,1.1,13.9,1.1,13.6L1.1,13.6z M6.9,16.5   c0.1-0.1,0.2-0.1,0.2-0.2c0-0.1,0.2-0.2,0.6-0.2c0.3,0,0.5,0.1,0.6,0.3c0.2,0.3,0.3,0.5,0.3,0.8c0,0.1,0.1,0.2,0.1,0.3   c0,0.1,0,0.2,0,0.3c0.1,0.2,0.1,0.4,0.1,0.5c0,0.2,0,0.3-0.1,0.5c-0.1,0.3-0.3,0.5-0.5,0.5c-0.2,0.1-0.4,0-0.6-0.3   c-0.4-0.3-0.5-0.5-0.6-0.8c-0.2-0.4-0.3-0.7-0.3-0.8c0-0.1,0-0.3-0.1-0.6C6.8,16.6,6.9,16.5,6.9,16.5L6.9,16.5z M4.3,17.2   c0.1,0,0.2-0.1,0.3-0.1c0.1-0.1,0.2-0.1,0.6,0c0.2,0.1,0.4,0.2,0.5,0.4c0.1,0.3,0.1,0.6,0.1,0.8c0,0.4,0,0.8,0.1,1.2   c0,0.3,0,0.7-0.2,1c0,0.2,0,0.4-0.1,0.5c0,0.1-0.1,0.3-0.2,0.5c-0.2,0.2-0.4,0.4-0.6,0.4c-0.2,0-0.3-0.1-0.5-0.4   C4.1,21.1,4,20.8,4,20.6c-0.1-0.9-0.2-1.5-0.1-1.8c0-0.2,0.1-0.6,0.2-1.2C4.1,17.3,4.2,17.2,4.3,17.2L4.3,17.2z M1.3,17.4   c0.1-0.5,0.3-0.7,0.6-0.8c0.3-0.1,0.5,0,0.7,0.3c0.1,0.2,0.1,0.6,0,1c0,0.3,0,0.6,0,0.9c0.1,0.3,0.1,0.6-0.1,0.9   c-0.1,0.3-0.3,0.5-0.5,0.7c-0.1,0.2-0.2,0.5-0.3,0.8c-0.1,0.3-0.2,0.5-0.4,0.6C1.1,22,0.9,22,0.6,21.9c-0.3-0.1-0.5-0.3-0.5-0.6   c-0.1-0.3-0.1-0.7,0-1c0.1-0.3,0.2-0.6,0.3-0.9c0-0.5,0.2-1,0.5-1.4C1.1,17.8,1.2,17.6,1.3,17.4L1.3,17.4z"/><path class="st1" d="M34.9,18.8c0.2-0.2,0.4-0.4,0.7-0.5c0.2-0.1,0.5-0.3,0.7-0.5c0.3-0.2,0.6-0.4,0.8-0.5c0.4-0.2,0.9-0.5,1.4-0.9   c0.5-0.3,0.8-0.6,1-0.7c0.1-0.2,0.3-0.4,0.5-0.5c0.5-0.3,0.9-0.6,1.3-1c0.3-0.2,0.6-0.3,0.9-0.3c0.4,0.1,0.6,0.3,0.5,0.7   c-0.1,0.3-0.3,0.6-0.6,0.8c-0.2,0.1-0.3,0.3-0.5,0.5c-0.4,0.3-0.7,0.6-1,0.8c-0.3,0.1-0.5,0.3-0.7,0.6c-0.4,0.4-0.7,0.6-1,0.8   c-0.1,0.2-0.1,0.4-0.1,0.5c-0.1,0.3-0.1,0.4-0.1,0.4c-0.1,0-0.3,0-0.4,0c-0.1,0-0.3,0-0.5,0c-0.1,0-0.1,0-0.1,0c0,0,0,0,0,0   c-0.2,0.1-0.4,0.3-0.6,0.5c-0.2,0.2-0.5,0.3-0.9,0.5c-0.2,0.1-0.5,0.3-0.7,0.5c-0.2,0.2-0.6,0.4-1.1,0.6c-0.7,0.3-1.2,0.5-1.4,0.5   c-0.2,0-0.4,0.1-0.7,0.4c-0.4,0.3-0.8,0.4-1.1,0.4c-0.5,0.1-0.8,0-1.1-0.1c-0.3-0.2-0.5-0.5-0.6-0.9c0-0.3,0.1-0.6,0.4-0.9   c0.3-0.3,0.7-0.5,1.1-0.5c0.8-0.1,1.3-0.2,1.6-0.4c0.2-0.1,0.5-0.2,0.9-0.3C34,19.3,34.6,19,34.9,18.8L34.9,18.8z M41.6,22.6   c-0.4,0.2-0.7,0.2-0.9,0.2c-0.3-0.1-0.5-0.2-0.7-0.2c-0.3,0-0.6-0.2-0.7-0.3c-0.1-0.2-0.2-0.4-0.3-0.5c-0.1-0.1-0.2-0.3-0.2-0.4   c0-0.1-0.1-0.3-0.2-0.4c-0.2-0.2-0.3-0.5-0.3-0.8c0-0.3,0.1-0.5,0.2-0.6c0.2-0.2,0.5-0.1,0.9,0.1c0.2,0.1,0.4,0.2,0.6,0.4   c0.1,0.1,0.2,0.1,0.3,0.1c0.3,0.1,0.8,0.1,1.4-0.1c0.8-0.2,1.3-0.3,1.5-0.5c0.1-0.1,0.2-0.2,0.3-0.2c0.3-0.1,0.7-0.5,1.1-1   c0.1-0.2,0.3-0.4,0.4-0.5c0.3-0.3,0.5-0.8,0.7-1.4c0.1-0.7,0.1-1.2,0-1.5c-0.2-0.5-0.5-1-1-1.4c-0.1-0.1-0.2-0.1-0.2-0.1   c-0.2,0-0.4,0-0.5,0c-0.3,0.1-0.4,0.1-0.6,0.1c-0.2,0-0.3,0.1-0.4,0.1c-0.1,0-0.2-0.2-0.2-0.5c-0.1-0.3-0.2-0.6-0.3-0.9   c-0.1-0.1-0.1-0.2-0.1-0.2c-0.1,0-0.2-0.1-0.3-0.1c-0.4-0.1-0.7-0.1-0.9,0c-0.3,0.1-0.6,0.1-0.7,0c0,0,0,0-0.1,0   c-0.1,0.3-0.3,0.5-0.6,0.7c-0.2,0.1-0.3,0.3-0.4,0.4c-0.3,0.3-0.7,0.5-1,0.7c-0.2,0.1-0.4,0.3-0.6,0.5c-0.4,0.3-0.7,0.5-0.9,0.7   c-0.2,0.1-0.3,0.2-0.5,0.4c-0.2,0.2-0.5,0.4-0.8,0.6c-0.2,0.1-0.4,0.2-0.6,0.4c-0.2,0.2-0.4,0.3-0.8,0.4c-0.2,0.1-0.4,0.2-0.7,0.5   c-0.2,0.1-0.6,0.3-1,0.5c-0.6,0.3-1,0.4-1.3,0.4c-0.1,0-0.4,0.1-0.7,0.3c-0.4,0.2-0.7,0.4-1,0.4c-0.4,0-0.8,0-1-0.2   C28.2,18.6,28,18.4,28,18c-0.1-0.2,0.1-0.5,0.4-0.8c0.3-0.3,0.6-0.4,1-0.4c0.7-0.1,1.2-0.2,1.5-0.4c0.2-0.1,0.4-0.2,0.8-0.2   c0.8-0.3,1.4-0.5,1.6-0.7c0.2-0.2,0.4-0.3,0.6-0.4c0.2-0.1,0.4-0.3,0.6-0.4c0.3-0.2,0.6-0.4,0.8-0.5c0.4-0.2,0.8-0.5,1.3-0.8   c0.4-0.3,0.7-0.5,0.9-0.6c0.1-0.1,0.3-0.3,0.5-0.4c0.4-0.2,0.7-0.4,1-0.7l0,0c-0.2-0.1-0.3-0.4-0.3-0.7c0-0.3,0.2-0.6,0.6-0.7   c0.4-0.1,0.7-0.2,1-0.1c0.3,0,0.7,0.1,1,0.1c0.4,0.1,0.7,0.2,0.9,0.1c0.1,0,0.3-0.1,0.5,0c0.2,0.1,0.4,0.1,0.7,0.1   c0.2,0,0.4,0,0.6,0.2c0.4,0.3,0.7,0.5,1.1,0.6c0.4,0.1,0.6,0.3,0.7,0.5c0.2,0.3,0.6,0.6,1,0.9c0.2,0.1,0.3,0.3,0.3,0.6   c0.1,0.2,0.2,0.4,0.4,0.7c0.2,0.2,0.2,0.4,0.2,0.7c0,0.2,0.1,0.4,0.2,0.5c0.1,0.1,0.1,0.3,0,0.4c-0.1,0.2-0.1,0.4-0.1,0.7   c0.1,0.2,0.1,0.6-0.1,1.1c0,0.1,0,0.3,0,0.5c0,0.3-0.2,0.7-0.5,1.2c-0.4,0.5-0.7,0.8-0.8,0.8c-0.1,0.1-0.2,0.2-0.3,0.5   c-0.2,0.3-0.6,0.7-1.1,1c-1,0.7-1.7,1.1-2.1,1.1C42.4,22.4,42,22.5,41.6,22.6L41.6,22.6z M33.5,2.4C33,2.3,32.7,2,32.7,1.6   c0-0.4,0.1-0.6,0.4-0.8c0.3-0.3,0.7-0.4,1.2-0.4c0.3,0,0.6-0.1,0.9-0.1C35.6,0.1,36.1,0,36.7,0c0.7,0,1.2,0,1.6,0.1   c0.5,0.1,1.1,0.2,1.6,0.1c0.9-0.1,1.6,0,2.3,0.3c0.2,0.1,0.4,0.2,0.7,0.2c0.4,0,0.7,0.2,1.1,0.5c0.4,0.3,0.6,0.5,0.6,0.7   c0,0.2,0.1,0.4,0.3,0.5c0.2,0.2,0.3,0.7,0.3,1.3c0.1,0.3,0.1,0.6,0.2,0.8c0.1,0.2,0.2,0.6,0.2,1c0,0.5,0,1,0,1.5   c0,0.7-0.2,1.2-0.5,1.5c-0.2,0.4-0.7,0.7-1.2,0.9c-0.4,0.2-0.9,0.3-1.6,0.2c-0.4,0-0.8,0-1.1,0.1c-0.4,0.1-0.7,0.1-1,0.1   c-0.3-0.1-0.6-0.2-0.9-0.1c-0.4,0.2-0.7,0.2-1,0.1c-0.2-0.1-0.5-0.1-0.7-0.1c-0.1,0.3-0.2,0.6-0.3,0.8c-0.1,0.2-0.4,0.5-0.7,0.7   c-0.2,0.1-0.3,0.3-0.4,0.4c-0.1,0.2-0.3,0.4-0.5,0.5c-0.2,0.1-0.4,0.2-0.6,0.4c-0.3,0.3-0.6,0.5-1,0.6c-0.3,0.1-0.6,0.3-0.8,0.4   c-0.2,0.2-0.6,0.3-1,0.3c-0.4,0-0.7,0.1-1,0.3c-0.3,0.1-0.6,0.2-0.7,0.2c-0.2,0-0.4,0-0.5,0c-0.4,0.1-0.8,0.2-1.2,0.1   c-0.3-0.1-0.5-0.2-0.5-0.3c0-0.1-0.1-0.2-0.1-0.2c-0.1,0-0.1-0.2-0.1-0.3c0-0.3,0-0.5,0.2-0.7c0.1-0.1,0.4-0.3,0.7-0.4   c0.3-0.1,0.6-0.1,0.9,0c0.2,0.1,0.5,0.1,0.8,0.1c0.3,0,0.6-0.1,0.9-0.3c0.3-0.2,0.5-0.3,0.8-0.3c0.3,0,0.6-0.2,0.8-0.4   c0.2-0.2,0.5-0.3,0.7-0.3c0.4-0.2,0.7-0.4,0.9-0.7c0.1-0.2,0.2-0.4,0.3-0.5c-0.4-0.1-0.8-0.1-1.2,0.1c-0.2,0.1-0.6,0.1-1.2-0.1   c-0.6-0.1-0.9-0.4-1-0.6c-0.1-0.3-0.2-0.5-0.5-0.7c-0.2-0.2-0.3-0.5-0.3-1c0-0.8-0.1-1.4-0.1-1.9c-0.1-0.3-0.1-0.6,0-0.9   c0-0.2,0-0.4,0-0.6c0-0.4,0.1-0.8,0.2-1.2c0.1-0.2,0.3-0.4,0.4-0.5c0.2-0.1,0.3-0.2,0.5-0.2c0.2,0,0.4,0.1,0.5,0.1   c0.1,0.1,0.3,0.3,0.3,0.6c0.1,0.3,0.1,0.8,0.1,1.4c-0.1,0.8-0.1,1.4-0.1,1.8c0.1,0.5,0.2,0.9,0.4,1.1c0.2,0.3,0.5,0.6,0.9,0.7   c0.6,0.2,1.3,0.2,2-0.1c1-0.3,1.9-0.3,2.8-0.1c0.6,0.1,1.1,0.1,1.5-0.1c0.4-0.1,0.9-0.2,1.5-0.2c0.5,0.1,0.9-0.1,1.1-0.4   c0.2-0.2,0.4-0.5,0.5-0.9c0.1-0.5,0-0.9-0.1-1.3c-0.1-0.3-0.2-0.6-0.2-0.9c0-0.2-0.1-0.4-0.1-0.6c-0.2-0.2-0.3-0.4-0.3-0.5   c-0.1-0.2-0.2-0.3-0.3-0.4c-0.2-0.1-0.3-0.1-0.4-0.2c-0.2-0.2-0.9-0.4-2.3-0.4c-0.9,0-1.7,0-2.3-0.1c-0.8-0.2-1.6-0.1-2.3,0.3   C34.6,2.4,34,2.5,33.5,2.4L33.5,2.4z M36.8,4c0.6-0.1,1.2-0.1,1.9,0c0.5,0.1,0.9,0.2,1.3,0.1c0.4-0.1,0.8-0.1,1.1,0.1   c0.3,0.2,0.5,0.5,0.5,0.9c-0.1,0.3-0.2,0.6-0.4,0.7c-0.3,0.1-0.6,0.1-0.8,0c-0.5-0.1-1-0.1-1.4,0c-0.5,0.2-0.9,0.2-1.3,0   c-0.4-0.1-1-0.1-1.7,0.1c-0.5,0.2-1,0.2-1.3,0c-0.3-0.2-0.4-0.5-0.4-0.8c0-0.3,0.2-0.6,0.4-0.8C34.7,4,35,4,35.4,4.1   C35.7,4.2,36.2,4.2,36.8,4L36.8,4z"/><polygon class="st0" points="67.2,12.7 74.5,12.7 74.5,14.6 69.9,14.6 69.9,16 74.2,16 74.2,17.8 69.9,17.8 69.9,19.6 74.6,19.6    74.6,21.6 67.2,21.6 "/><polygon class="st0" points="75.5,12.7 83.8,12.7 83.8,14.9 81,14.9 81,21.6 78.3,21.6 78.3,14.9 75.5,14.9 "/><path class="st0" d="M101.9,21.6h2.9l-3.3-8.9h-3l-3.3,8.9h2.8l0.4-1.5h3.1L101.9,21.6L101.9,21.6z M98.9,18.2l1-3.2l1,3.2H98.9   L98.9,18.2z"/><path class="st0" d="M105.2,18.7l2.6-0.2c0.1,0.4,0.2,0.7,0.3,1c0.3,0.4,0.7,0.5,1.2,0.5c0.4,0,0.7-0.1,0.9-0.3   c0.2-0.2,0.3-0.4,0.3-0.6c0-0.2-0.1-0.4-0.3-0.6c-0.2-0.2-0.7-0.4-1.4-0.5c-1.2-0.3-2.1-0.6-2.6-1.1c-0.5-0.4-0.8-1-0.8-1.7   c0-0.5,0.1-0.9,0.4-1.3c0.3-0.4,0.7-0.7,1.2-1c0.5-0.2,1.3-0.3,2.2-0.3c1.1,0,2,0.2,2.6,0.6c0.6,0.4,0.9,1.1,1.1,2l-2.6,0.2   c-0.1-0.4-0.2-0.7-0.4-0.9c-0.2-0.2-0.5-0.3-0.9-0.3c-0.3,0-0.6,0.1-0.7,0.2c-0.2,0.1-0.2,0.3-0.2,0.5c0,0.1,0.1,0.3,0.2,0.4   c0.1,0.1,0.4,0.2,0.9,0.3c1.2,0.3,2.1,0.5,2.6,0.8c0.5,0.3,0.9,0.6,1.1,1c0.2,0.4,0.3,0.8,0.3,1.3c0,0.6-0.2,1.1-0.5,1.6   c-0.3,0.5-0.8,0.8-1.3,1.1c-0.6,0.2-1.3,0.4-2.1,0.4c-1.5,0-2.6-0.3-3.1-0.9C105.6,20.3,105.2,19.6,105.2,18.7L105.2,18.7z"/><polygon class="st0" points="114.6,12.7 121.9,12.7 121.9,14.6 117.3,14.6 117.3,16 121.6,16 121.6,17.8 117.3,17.8 117.3,19.6    122.1,19.6 122.1,21.6 114.6,21.6 "/><polygon class="st0" points="55.5,10.4 58.2,10.4 61.8,16.6 61.8,10.4 64.6,10.4 64.6,21.6 61.8,21.6 58.2,15.4 58.2,21.6    55.5,21.6 "/><polygon class="st0" points="85.6,10.4 93.5,10.4 93.5,12.8 88.6,12.8 88.6,14.6 93.1,14.6 93.1,16.8 88.6,16.8 88.6,19.1    93.6,19.1 93.6,21.6 85.6,21.6 "/><path class="st0" d="M51.6,27.9v9.3h-2.4v-6.1c-0.4,0.3-0.8,0.6-1.1,0.8c-0.4,0.2-0.8,0.4-1.4,0.6v-2.1c0.8-0.3,1.5-0.6,1.9-1   c0.5-0.4,0.8-0.9,1.1-1.5H51.6L51.6,27.9z"/><path class="st0" d="M64.3,28.9c-0.3-0.3-0.6-0.6-1-0.7c-0.4-0.2-0.9-0.3-1.6-0.3c-1.2,0-2.1,0.4-2.7,1.2c-0.6,0.8-1,2-1,3.6   c0,1.1,0.2,2,0.5,2.7c0.3,0.7,0.7,1.2,1.3,1.5c0.5,0.3,1.2,0.5,2.1,0.5c0.7,0,1.3-0.1,1.8-0.4c0.5-0.3,0.8-0.6,1.1-1.1   c0.3-0.5,0.4-1.1,0.4-1.7c0-0.9-0.3-1.6-0.8-2.2c-0.5-0.6-1.2-0.9-1.9-0.9c-0.4,0-0.7,0.1-1,0.2c-0.3,0.1-0.6,0.4-0.9,0.7   c0.1-1,0.2-1.6,0.3-1.9c0.2-0.4,0.5-0.6,0.9-0.6c0.2,0,0.4,0.1,0.5,0.2c0.1,0.1,0.3,0.4,0.3,0.7l2.4-0.3   C64.7,29.6,64.5,29.2,64.3,28.9L64.3,28.9z M60.8,33.1c0.2-0.3,0.5-0.4,0.8-0.4c0.3,0,0.6,0.1,0.8,0.4c0.2,0.3,0.3,0.7,0.3,1.2   c0,0.5-0.1,0.9-0.3,1.1c-0.2,0.3-0.5,0.4-0.8,0.4c-0.3,0-0.6-0.1-0.9-0.4c-0.2-0.3-0.4-0.7-0.4-1.2C60.5,33.7,60.6,33.3,60.8,33.1   L60.8,33.1z"/><path class="st0" d="M72.8,30.7l-2.3-0.4c0.2-0.8,0.5-1.4,1.1-1.8c0.5-0.4,1.3-0.6,2.3-0.6c1.1,0,1.9,0.2,2.4,0.7   c0.5,0.5,0.8,1,0.8,1.7c0,0.4-0.1,0.8-0.3,1.1c-0.2,0.3-0.5,0.6-0.9,0.8c0.3,0.1,0.6,0.2,0.8,0.3c0.3,0.2,0.5,0.4,0.7,0.7   c0.2,0.3,0.2,0.7,0.2,1.1c0,0.5-0.1,1-0.4,1.5c-0.3,0.5-0.6,0.9-1.1,1.1c-0.5,0.3-1.1,0.4-2,0.4c-0.8,0-1.4-0.1-1.9-0.3   c-0.5-0.2-0.8-0.5-1.1-0.9c-0.3-0.4-0.5-0.9-0.7-1.4l2.4-0.3c0.1,0.5,0.2,0.9,0.4,1.1c0.2,0.2,0.4,0.3,0.8,0.3   c0.3,0,0.6-0.1,0.8-0.4c0.2-0.2,0.3-0.6,0.3-1c0-0.4-0.1-0.8-0.3-1c-0.2-0.2-0.5-0.4-0.8-0.4c-0.2,0-0.4,0-0.8,0.2l0.1-1.8   c0.1,0,0.2,0,0.3,0c0.3,0,0.6-0.1,0.8-0.3c0.2-0.2,0.3-0.5,0.3-0.8c0-0.3-0.1-0.5-0.2-0.7c-0.2-0.2-0.4-0.2-0.6-0.2   c-0.3,0-0.5,0.1-0.7,0.3C72.9,29.9,72.8,30.3,72.8,30.7L72.8,30.7z"/><polygon class="st0" points="0.1,30.5 1.9,30.5 2.6,34.1 3.6,30.5 5.4,30.5 6.4,34 7,30.5 8.9,30.5 7.5,36.8 5.6,36.8 4.5,32.9    3.4,36.8 1.5,36.8 "/><polygon class="st0" points="12.9,30.5 14.8,30.5 15.5,34.1 16.4,30.5 18.3,30.5 19.2,34 19.9,30.5 21.8,30.5 20.4,36.8 18.5,36.8    17.4,32.9 16.3,36.8 14.3,36.8 "/><polygon class="st0" points="25.8,30.5 27.7,30.5 28.3,34.1 29.3,30.5 31.1,30.5 32.1,34 32.8,30.5 34.6,30.5 33.2,36.8 31.3,36.8    30.2,32.9 29.1,36.8 27.2,36.8 "/><polygon class="st0" points="39.8,32.8 41.7,32.8 41.7,34.6 39.8,34.6 "/><polygon class="st0" points="83.1,32.8 85,32.8 85,34.6 83.1,34.6 "/><path class="st0" d="M95.4,34.3l1.7,0.5c-0.1,0.5-0.3,0.9-0.5,1.2c-0.2,0.3-0.5,0.6-0.9,0.7c-0.4,0.2-0.8,0.2-1.4,0.2   c-0.7,0-1.2-0.1-1.7-0.3c-0.4-0.2-0.8-0.5-1.1-1c-0.3-0.5-0.5-1.1-0.5-1.9c0-1,0.3-1.8,0.8-2.4c0.6-0.6,1.3-0.8,2.4-0.8   c0.8,0,1.4,0.2,1.9,0.5c0.5,0.3,0.8,0.8,1,1.5l-1.7,0.4c-0.1-0.2-0.1-0.3-0.2-0.4c-0.1-0.2-0.2-0.3-0.4-0.3   c-0.2-0.1-0.3-0.1-0.5-0.1c-0.4,0-0.8,0.2-1,0.5c-0.2,0.3-0.3,0.7-0.3,1.2c0,0.7,0.1,1.2,0.3,1.4c0.2,0.3,0.5,0.4,0.9,0.4   c0.4,0,0.7-0.1,0.8-0.3C95.2,35,95.3,34.7,95.4,34.3L95.4,34.3z"/><path class="st0" d="M102.7,35.5c0.3,0.5,0.7,0.8,1.1,1.1c0.5,0.2,1.1,0.3,1.8,0.3c0.7,0,1.3-0.1,1.8-0.4c0.5-0.3,0.8-0.6,1.1-1.1   c0.3-0.5,0.4-1.1,0.4-1.8c0-1-0.3-1.8-0.8-2.4c-0.6-0.6-1.4-0.8-2.4-0.8c-1,0-1.8,0.3-2.4,0.9c-0.6,0.6-0.9,1.4-0.9,2.4   C102.3,34.4,102.5,35,102.7,35.5L102.7,35.5z M104.6,32.3c0.2-0.3,0.6-0.4,0.9-0.4c0.4,0,0.7,0.1,1,0.4s0.4,0.7,0.4,1.3   c0,0.7-0.1,1.2-0.3,1.5c-0.2,0.3-0.6,0.4-1,0.4c-0.4,0-0.7-0.1-1-0.4c-0.2-0.3-0.4-0.7-0.4-1.4C104.3,33.1,104.4,32.6,104.6,32.3   L104.6,32.3z"/><path class="st0" d="M119.3,30.4c-0.6,0-1,0.4-1.3,0.7c-0.3-0.4-0.7-0.7-1.3-0.7c-0.5,0-0.8,0.2-1.1,0.5c0,0,0-0.3,0-0.3H114v6h1.7   V33c0-0.8,0.4-0.8,0.5-0.8c0.4,0,0.5,0.3,0.5,0.9v3.5h1.7V33c0-0.9,0.4-0.9,0.6-0.9c0.3,0,0.4,0.3,0.4,0.9v3.6h1.7v-4   C121.2,31.3,120.5,30.4,119.3,30.4L119.3,30.4z"/></svg> 