<svg id="Layer_1" xmlns="http://www.w3.org/2000/svg" viewBox="0 0 122.1 37.4"><style>.st0{fill:#c2c2c2}.st1{fill:#be3038}</style><path class="st0" d="M.1 25.3h122v1H.1z"/><path class="st1" d="M20.3 9.2c.1-.1.2-.2.2-.3v-.3c0-.4 0-.7.1-.9.1-.3.1-.7.1-1.3-.1-.5-.3-.9-.6-1.3-.9-.8-1.7-1.1-2.3-.9-.3.1-.8.1-1.3 0-.8-.2-1.5-.1-2.1.2-.3.1-.5.2-.7.2h-.5c-.6.2-1 .4-1.2.6 0 0 0 .1-.1.2-.3.6-.4 1-.4 1.2.1.5.1.9.1 1.1 0 .5.1.9.2 1.2l.2.1c.3.2.6.4.8.6l.1.1c.2-.1.4-.1.6-.1.2.1.5.1.7 0 .2-.1.4-.1.6 0 .3 0 .5 0 .6-.1.2-.1.5-.1.9-.1.2-.1.3-.2.3-.2.1-.2.2-.2.3-.3 0-.1.1-.2.1-.3.1-.1.1-.3.2-.5 0-.1 0-.4-.1-.6V7c.1-.3.2-.5.2-.7 0-.4.1-.7.4-.9.3-.3.6-.4.8-.3.2 0 .3.2.4.4.1.3.2.6.2.9 0 .3-.1.5-.2.7-.1.2-.2.4-.4.6-.2.2-.3.5-.3.9 0 .1 0 .2-.1.3.1.1.1.1.1.2l.1.1c.2 0 .5 0 .8.1h.9c.2 0 .2 0 .3-.1-.1.1-.1.1 0 0zm-5.2 3.5v-.1-.5-.3-.3c-.1-.1-.1-.1-.2-.1-.2-.1-.4-.2-.6-.2-.3.1-.5.2-.7.2-.2 0-.4.1-.5.1-.1 0-.1.1-.1.1-.2.1-.3.2-.4.3-.1.1-.1.2-.2.3 0 .3-.1.6-.1.8-.1.2-.1.5-.1.7.2-.2.4-.4.7-.4.3-.1.5-.1.6-.1H14.7c.1-.2.3-.4.4-.5zm7.8 7.2c.1.4.1.7 0 1-.1.2-.1.3-.1.4-.1.2-.1.3-.2.4-.3.2-.6.3-.9.3-.3 0-.5-.2-.7-.4-.2-.3-.3-.6-.3-.8 0-.2 0-.4-.1-.5v-.4c.1-.2.1-.4 0-.6-.1-.5-.2-.9-.1-1.1.1-.7.1-1.5 0-2.2v-.5-.8-1c.1-.3.1-.7 0-1 0-.2-.1-.4-.1-.7-.1-.2-.3-.3-.4-.3-.2-.2-.4-.3-.4-.4h-.1c-.5-.2-1-.2-1.5-.1-.2.1-.4.1-.6.1-.2-.3-.4-.3-.4-.2-.1 0-.2.1-.2.2v.7c0 .1 0 .3-.1.4v.1c.1.2.3.3.5.4v.1h1.6c.3 0 .5.1.8.3.3.2.4.4.4.8 0 .3-.1.5-.5.7-.4.1-.9.1-1.4 0-.4-.1-.7-.1-1.1 0-.3.1-.6.1-.8 0-.7.2-1.1.4-1.4.6 0 .3 0 .6-.1 1v.9c0 .2 0 .4.1.5 0 .1.1.2.1.2.2.1.3.3.2.6-.1.2-.3.4-.5.5h-.4c-.1 0-.2-.1-.4-.1-.3-.1-.6-.4-.8-.9-.1-.7-.2-1.2-.1-1.6 0-.2.1-.4.1-.5v-.2c0-.1-.1-.2-.1-.3-.1-.1-.1-.2-.1-.2h-.4c-.3-.3-.4-.3-.5-.4v.1c0 .2 0 .5-.1.8-.1.3-.2.5-.1.7v.4c0 .1-.1.3 0 .4 0 .1 0 .3-.1.5s-.1.4-.1.6c0 .1 0 .3-.1.5-.2.6-.4 1.1-.5 1.5-.1.2-.2.5-.4.7-.3.3-.6.4-.8.5-.2 0-.5 0-.7-.2-.2-.2-.4-.4-.4-.6 0-.2-.1-.4 0-.6.1-.2.1-.4.2-.6-.1-.2 0-.3.2-.6.3-.3.4-.6.4-.8 0-.2.1-.3.1-.4.1-.4.3-.7.3-1 .1-.2.1-.4.1-.6 0-.7.1-1.3.4-1.9.1-.4.2-.8.1-1.1 0-.3.1-.5.1-.6.1-.2.1-.5.1-.7-.1-.4-.1-.8 0-1.1 0-.3 0-.9-.1-1.8 0-.5-.2-.9-.4-1.2-.3-.4-.5-1-.5-1.6-.1-.7 0-1.3.3-1.9.3-.7.5-1.1.8-1.2.4-.2.7-.2 1 0h.7c.4-.1.8-.2 1.1-.1.3.1.5.1.6 0 .3-.2.6-.2.8-.2.1 0 .2 0 .4-.1.4-.2.7-.2 1-.1.3.1.6.1.9 0 .5-.1 1-.1 1.3 0h.6c.2 0 .3.1.5.2s.4.2.6.1c.3 0 .5 0 .6.1.2.1.4.2.4.3.1.2.2.3.5.5.4.2.7.6.8 1.1.1.3.1.6 0 .9 0 .2-.1.4-.2.5-.1.1-.2.3-.2.5s0 .3-.1.4c-.1.2-.1.4-.1.5.1.1.1.3 0 .5-.1.6-.1 1.2-.1 1.8 0 .4-.1.8-.2 1v1.4c-.1.2-.1.5 0 .8.1.6.1 1.2.1 1.6-.1.8-.1 1.3.1 1.7.3 1 .5 1.7.5 2.3.4.3.5.7.6 1.1zm-6-2.4c.1 0 .4-.1.6-.1.3 0 .5-.1.6-.1.3-.1.7-.1 1 .1.3.1.4.4.5.7 0 .4-.1.6-.3.8-.3.2-.8.3-1.3.2h-.6c-.1 0-.2 0-.3.1-.3.1-.7.1-1.1 0-.2-.1-.4-.4-.4-.6 0-.2.1-.4.2-.6.2-.2.4-.4.7-.4.1 0 .3-.1.4-.1zM13.5 6.1c.1-.1.2-.1.2-.2s.2-.2.5-.2c.2 0 .5.1.6.3.2.3.3.5.3.7 0 .1.1.2.1.3v.3c0 .2.1.4.1.5 0 .1 0 .3-.1.5-.1.3-.3.4-.4.5-.2.1-.4 0-.6-.3-.4-.2-.5-.5-.6-.7-.2-.4-.3-.6-.3-.8 0-.1 0-.3-.1-.5.2-.3.3-.4.3-.4zm-8 3.6c-.2.2-.4.2-.6.2-.2 0-.4.2-.4.4-.1.3-.4.6-.7.8-.2.1-.3.3-.3.5 0 .3-.1.5-.3.6-.2.2-.3.4-.3.5.1.3.2.6.5.8.2.1.4.2.6.2.2 0 .4.1.5.1 0 .2.2.2.3.2.2-.1.4-.1.5-.1.2 0 .4 0 .7-.1.3-.1.6-.3.7-.6 0-.3 0-.5.1-.7.2-.3.2-.5.2-.8 0-.3-.1-.5-.2-.6 0-.1-.1-.1-.1-.3-.1-.2-.2-.3-.3-.4-.1-.1-.1-.1-.1-.2s-.1-.1-.1-.1c-.3-.2-.5-.3-.7-.4zm-4.4 3.9c0-.2 0-.4-.1-.6-.1-.3 0-.5.2-.8.2-.6.5-.9.7-1 .2-.1.3-.2.3-.5 0-.2.1-.5.3-.8.1-.3.1-.6 0-.8 0-.1-.1-.3-.2-.4 0-.2-.1-.3-.2-.3-.3-.1-.4-.3-.5-.4-.1-.1-.1-.2-.3-.2-.1-.1-.1-.2-.1-.4 0-.1 0-.2-.1-.3-.2-.1-.3-.2-.3-.4 0-.5 0-.8.1-.8.1-.1.2-.2.2-.3 0-.2.1-.5.4-1 .3-.6.5-1 .6-1.1.1 0 .1-.2.2-.3.1-.1.2-.3.3-.3.1-.1.2-.2.2-.3 0-.1.1-.3.2-.3s.2-.1.3-.3c.3-.5.5-.7.6-.7.1 0 .3 0 .4-.1.2-.2.4-.2.6-.1.2.1.3.1.4.1.3-.1.6 0 .9.2.4.3.6.6.6.9 0 .3 0 .5-.1.5-.2.2-.4.3-.6.3-.2 0-.3 0-.4.1-.1 0-.3.1-.4.1-.1 0-.3 0-.4.1-.1.1-.2.1-.3.1-.1 0-.2 0-.3.1-.1.2-.2.3-.2.4 0 .2-.1.3-.2.3-.1.2-.2.3-.3.5-.1.3-.1.4-.2.4-.1.1-.2.3-.3.7-.2.4-.3.8-.2 1 .2.3.3.5.4.5.1 0 .2.1.2.1 0 .1.2.2.4.2s.3.1.3.1c.3.2.5.2.7 0 .1-.1.2-.2.4-.2s.3-.1.4-.3c0-.1.1-.2.2-.3.1-.1.2-.3.3-.5.1-.2.1-.3.2-.4.1-.1.1-.3 0-.4 0-.1-.2-.3-.5-.4-.1-.1-.1-.3 0-.5s.3-.3.5-.3c.1 0 .2-.1.3-.1.1-.1.2-.1.4 0 .1.1.2.1.4.1.5 0 .8.2 1.1.6.2.2.2.4.2.5-.1.1-.1.3 0 .5s.1.4 0 .6c-.1.3-.2.5-.4.5-.4.1-.7.3-1 .5-.1.2-.2.3-.2.4 0 .1-.1.2-.1.3v.1c0 .2.1.4.1.6l.1.1c0 .1.1.2.2.2.2.1.3.2.3.4.1.2.2.3.3.4.1.1.2.2.3.4.1.4.2.7.2.9 0 .4.1.6.1.8.1.2.1.4.1.6 0 .4-.1.7-.3.9-.2.1-.3.2-.5.3-.1.1-.2.2-.4.3-.3.2-.6.4-.8.7-.3.4-.8.6-1.4.6-.2 0-.5 0-.7.1-.3.1-.6 0-.8-.1-.3-.2-.6-.3-.9-.2-.5 0-.9-.1-1.4-.5-.3-.6-.5-1.1-.5-1.4zm5.8 2.9c.1-.1.2-.1.2-.2s.2-.2.6-.2c.3 0 .5.1.6.3.2.3.3.5.3.8 0 .1.1.2.1.3v.3c.1.2.1.4.1.5 0 .2 0 .3-.1.5-.1.3-.3.5-.5.5-.2.1-.4 0-.6-.3-.4-.3-.5-.5-.6-.8-.2-.4-.3-.7-.3-.8 0-.1 0-.3-.1-.6l.3-.3zm-2.6.7c.1 0 .2-.1.3-.1.1-.1.2-.1.6 0 .2.1.4.2.5.4.1.3.1.6.1.8 0 .4 0 .8.1 1.2 0 .3 0 .7-.2 1 0 .2 0 .4-.1.5 0 .1-.1.3-.2.5-.2.2-.4.4-.6.4-.2 0-.3-.1-.5-.4-.2-.4-.3-.7-.3-.9-.1-.9-.2-1.5-.1-1.8 0-.2.1-.6.2-1.2 0-.3.1-.4.2-.4zm-3 .2c.1-.5.3-.7.6-.8.3-.1.5 0 .7.3.1.2.1.6 0 1v.9c.1.3.1.6-.1.9-.1.3-.3.5-.5.7-.1.2-.2.5-.3.8-.1.3-.2.5-.4.6-.2.2-.4.2-.7.1-.3-.1-.5-.3-.5-.6-.1-.3-.1-.7 0-1l.3-.9c0-.5.2-1 .5-1.4.2-.2.3-.4.4-.6zM34.9 18.8c.2-.2.4-.4.7-.5.2-.1.5-.3.7-.5.3-.2.6-.4.8-.5.4-.2.9-.5 1.4-.9.5-.3.8-.6 1-.7.1-.2.3-.4.5-.5.5-.3.9-.6 1.3-1 .3-.2.6-.3.9-.3.4.1.6.3.5.7-.1.3-.3.6-.6.8-.2.1-.3.3-.5.5-.4.3-.7.6-1 .8-.3.1-.5.3-.7.6-.4.4-.7.6-1 .8-.1.2-.1.4-.1.5-.1.3-.1.4-.1.4h-1c-.2.1-.4.3-.6.5-.2.2-.5.3-.9.5-.2.1-.5.3-.7.5-.2.2-.6.4-1.1.6-.7.3-1.2.5-1.4.5-.2 0-.4.1-.7.4-.4.3-.8.4-1.1.4-.5.1-.8 0-1.1-.1-.3-.2-.5-.5-.6-.9 0-.3.1-.6.4-.9.3-.3.7-.5 1.1-.5.8-.1 1.3-.2 1.6-.4.2-.1.5-.2.9-.3.5 0 1.1-.3 1.4-.5zm6.7 3.8c-.4.2-.7.2-.9.2-.3-.1-.5-.2-.7-.2-.3 0-.6-.2-.7-.3-.1-.2-.2-.4-.3-.5-.1-.1-.2-.3-.2-.4 0-.1-.1-.3-.2-.4-.2-.2-.3-.5-.3-.8 0-.3.1-.5.2-.6.2-.2.5-.1.9.1.2.1.4.2.6.4.1.1.2.1.3.1.3.1.8.1 1.4-.1.8-.2 1.3-.3 1.5-.5.1-.1.2-.2.3-.2.3-.1.7-.5 1.1-1 .1-.2.3-.4.4-.5.3-.3.5-.8.7-1.4.1-.7.1-1.2 0-1.5-.2-.5-.5-1-1-1.4-.1-.1-.2-.1-.2-.1H44c-.3.1-.4.1-.6.1-.2 0-.3.1-.4.1-.1 0-.2-.2-.2-.5l-.3-.9c-.1-.1-.1-.2-.1-.2-.1 0-.2-.1-.3-.1-.4-.1-.7-.1-.9 0-.3.1-.6.1-.7 0h-.1c-.1.3-.3.5-.6.7-.2.1-.3.3-.4.4-.3.3-.7.5-1 .7-.2.1-.4.3-.6.5-.4.3-.7.5-.9.7-.2.1-.3.2-.5.4s-.5.4-.8.6c-.2.1-.4.2-.6.4-.2.2-.4.3-.8.4-.2.1-.4.2-.7.5l-1 .5c-.6.3-1 .4-1.3.4-.1 0-.4.1-.7.3-.4.2-.7.4-1 .4-.4 0-.8 0-1-.2-.3-.1-.5-.3-.5-.7-.1-.2.1-.5.4-.8.3-.3.6-.4 1-.4.7-.1 1.2-.2 1.5-.4.2-.1.4-.2.8-.2.8-.3 1.4-.5 1.6-.7.2-.2.4-.3.6-.4.2-.1.4-.3.6-.4.3-.2.6-.4.8-.5.4-.2.8-.5 1.3-.8.4-.3.7-.5.9-.6.1-.1.3-.3.5-.4.4-.2.7-.4 1-.7-.2-.1-.3-.4-.3-.7 0-.3.2-.6.6-.7.4-.1.7-.2 1-.1.3 0 .7.1 1 .1.4.1.7.2.9.1.1 0 .3-.1.5 0s.4.1.7.1c.2 0 .4 0 .6.2.4.3.7.5 1.1.6.4.1.6.3.7.5.2.3.6.6 1 .9.2.1.3.3.3.6.1.2.2.4.4.7.2.2.2.4.2.7 0 .2.1.4.2.5.1.1.1.3 0 .4-.1.2-.1.4-.1.7.1.2.1.6-.1 1.1v.5c0 .3-.2.7-.5 1.2-.4.5-.7.8-.8.8-.1.1-.2.2-.3.5-.2.3-.6.7-1.1 1-1 .7-1.7 1.1-2.1 1.1-.5-.1-.9 0-1.3.1zM33.5 2.4c-.5-.1-.8-.4-.8-.8s.1-.6.4-.8c.3-.3.7-.4 1.2-.4.3 0 .6-.1.9-.1.4-.2.9-.3 1.5-.3.7 0 1.2 0 1.6.1.5.1 1.1.2 1.6.1.9-.1 1.6 0 2.3.3.2.1.4.2.7.2.4 0 .7.2 1.1.5.4.3.6.5.6.7 0 .2.1.4.3.5.2.2.3.7.3 1.3.1.3.1.6.2.8.1.2.2.6.2 1V7c0 .7-.2 1.2-.5 1.5-.2.4-.7.7-1.2.9-.4.2-.9.3-1.6.2-.4 0-.8 0-1.1.1-.4.1-.7.1-1 .1-.3-.1-.6-.2-.9-.1-.4.2-.7.2-1 .1-.2-.1-.5-.1-.7-.1-.1.3-.2.6-.3.8-.1.2-.4.5-.7.7-.2.1-.3.3-.4.4-.1.2-.3.4-.5.5-.2.1-.4.2-.6.4-.3.3-.6.5-1 .6-.3.1-.6.3-.8.4-.2.2-.6.3-1 .3s-.7.1-1 .3c-.3.1-.6.2-.7.2h-.5c-.4.1-.8.2-1.2.1-.3-.1-.5-.2-.5-.3 0-.1-.1-.2-.1-.2-.1 0-.1-.2-.1-.3 0-.3 0-.5.2-.7.1-.1.4-.3.7-.4.3-.1.6-.1.9 0 .2.1.5.1.8.1.3 0 .6-.1.9-.3.3-.2.5-.3.8-.3.3 0 .6-.2.8-.4.2-.2.5-.3.7-.3.4-.2.7-.4.9-.7.1-.2.2-.4.3-.5-.4-.1-.8-.1-1.2.1-.2.1-.6.1-1.2-.1-.6-.1-.9-.4-1-.6-.1-.3-.2-.5-.5-.7-.2-.2-.3-.5-.3-1 0-.8-.1-1.4-.1-1.9-.1-.3-.1-.6 0-.9v-.6c0-.4.1-.8.2-1.2.1-.2.3-.4.4-.5.2-.1.3-.2.5-.2s.4.1.5.1c.1.1.3.3.3.6.1.3.1.8.1 1.4-.1.8-.1 1.4-.1 1.8.1.5.2.9.4 1.1.2.3.5.6.9.7.6.2 1.3.2 2-.1 1-.3 1.9-.3 2.8-.1.6.1 1.1.1 1.5-.1.4-.1.9-.2 1.5-.2.5.1.9-.1 1.1-.4.2-.2.4-.5.5-.9.1-.5 0-.9-.1-1.3-.1-.3-.2-.6-.2-.9 0-.2-.1-.4-.1-.6-.2-.2-.3-.4-.3-.5-.1-.2-.2-.3-.3-.4-.2-.1-.3-.1-.4-.2-.2-.2-.9-.4-2.3-.4-.9 0-1.7 0-2.3-.1-.8-.2-1.6-.1-2.3.3-.6.1-1.2.2-1.7.1zM36.8 4c.6-.1 1.2-.1 1.9 0 .5.1.9.2 1.3.1s.8-.1 1.1.1c.3.2.5.5.5.9-.1.3-.2.6-.4.7-.3.1-.6.1-.8 0-.5-.1-1-.1-1.4 0-.5.2-.9.2-1.3 0-.4-.1-1-.1-1.7.1-.5.2-1 .2-1.3 0-.3-.2-.4-.5-.4-.8 0-.3.2-.6.4-.8 0-.3.3-.3.7-.2.3.1.8.1 1.4-.1z"/><path class="st0" d="M67.2 12.7h7.3v1.9h-4.6V16h4.3v1.8h-4.3v1.8h4.7v2h-7.4zM75.5 12.7h8.3v2.2H81v6.7h-2.7v-6.7h-2.8zM101.9 21.6h2.9l-3.3-8.9h-3l-3.3 8.9H98l.4-1.5h3.1l.4 1.5zm-3-3.4l1-3.2 1 3.2h-2zM105.2 18.7l2.6-.2c.1.4.2.7.3 1 .3.4.7.5 1.2.5.4 0 .7-.1.9-.3.2-.2.3-.4.3-.6 0-.2-.1-.4-.3-.6-.2-.2-.7-.4-1.4-.5-1.2-.3-2.1-.6-2.6-1.1-.5-.4-.8-1-.8-1.7 0-.5.1-.9.4-1.3.3-.4.7-.7 1.2-1 .5-.2 1.3-.3 2.2-.3 1.1 0 2 .2 2.6.6.6.4.9 1.1 1.1 2l-2.6.2c-.1-.4-.2-.7-.4-.9-.2-.2-.5-.3-.9-.3-.3 0-.6.1-.7.2-.2.1-.2.3-.2.5 0 .1.1.3.2.4.1.1.4.2.9.3 1.2.3 2.1.5 2.6.8.5.3.9.6 1.1 1 .2.4.3.8.3 1.3 0 .6-.2 1.1-.5 1.6s-.8.8-1.3 1.1c-.6.2-1.3.4-2.1.4-1.5 0-2.6-.3-3.1-.9-.6-.6-1-1.3-1-2.2zM114.6 12.7h7.3v1.9h-4.6V16h4.3v1.8h-4.3v1.8h4.8v2h-7.5zM55.5 10.4h2.7l3.6 6.2v-6.2h2.8v11.2h-2.8l-3.6-6.2v6.2h-2.7zM85.6 10.4h7.9v2.4h-4.9v1.8h4.5v2.2h-4.5v2.3h5v2.5h-8zM51.6 27.9v9.3h-2.4v-6.1c-.4.3-.8.6-1.1.8-.4.2-.8.4-1.4.6v-2.1c.8-.3 1.5-.6 1.9-1 .5-.4.8-.9 1.1-1.5h1.9zM64.3 28.9c-.3-.3-.6-.6-1-.7-.4-.2-.9-.3-1.6-.3-1.2 0-2.1.4-2.7 1.2-.6.8-1 2-1 3.6 0 1.1.2 2 .5 2.7.3.7.7 1.2 1.3 1.5.5.3 1.2.5 2.1.5.7 0 1.3-.1 1.8-.4.5-.3.8-.6 1.1-1.1.3-.5.4-1.1.4-1.7 0-.9-.3-1.6-.8-2.2-.5-.6-1.2-.9-1.9-.9-.4 0-.7.1-1 .2-.3.1-.6.4-.9.7.1-1 .2-1.6.3-1.9.2-.4.5-.6.9-.6.2 0 .4.1.5.2.1.1.3.4.3.7l2.4-.3c-.3-.5-.5-.9-.7-1.2zm-3.5 4.2c.2-.3.5-.4.8-.4.3 0 .6.1.8.4.2.3.3.7.3 1.2s-.1.9-.3 1.1c-.2.3-.5.4-.8.4-.3 0-.6-.1-.9-.4-.2-.3-.4-.7-.4-1.2.2-.5.3-.9.5-1.1zM72.8 30.7l-2.3-.4c.2-.8.5-1.4 1.1-1.8.5-.4 1.3-.6 2.3-.6 1.1 0 1.9.2 2.4.7.5.5.8 1 .8 1.7 0 .4-.1.8-.3 1.1-.2.3-.5.6-.9.8.3.1.6.2.8.3.3.2.5.4.7.7.2.3.2.7.2 1.1 0 .5-.1 1-.4 1.5-.3.5-.6.9-1.1 1.1-.5.3-1.1.4-2 .4-.8 0-1.4-.1-1.9-.3-.5-.2-.8-.5-1.1-.9-.3-.4-.5-.9-.7-1.4l2.4-.3c.1.5.2.9.4 1.1.2.2.4.3.8.3.3 0 .6-.1.8-.4.2-.2.3-.6.3-1s-.1-.8-.3-1c-.2-.2-.5-.4-.8-.4-.2 0-.4 0-.8.2l.1-1.8h.3c.3 0 .6-.1.8-.3.2-.2.3-.5.3-.8 0-.3-.1-.5-.2-.7-.2-.2-.4-.2-.6-.2-.3 0-.5.1-.7.3-.3.2-.4.6-.4 1zM.1 30.5h1.8l.7 3.6 1-3.6h1.8l1 3.5.6-3.5h1.9l-1.4 6.3H5.6l-1.1-3.9-1.1 3.9H1.5zM12.9 30.5h1.9l.7 3.6.9-3.6h1.9l.9 3.5.7-3.5h1.9l-1.4 6.3h-1.9l-1.1-3.9-1.1 3.9h-2zM25.8 30.5h1.9l.6 3.6 1-3.6h1.8l1 3.5.7-3.5h1.8l-1.4 6.3h-1.9l-1.1-3.9-1.1 3.9h-1.9zM39.8 32.8h1.9v1.8h-1.9zM83.1 32.8H85v1.8h-1.9zM95.4 34.3l1.7.5c-.1.5-.3.9-.5 1.2-.2.3-.5.6-.9.7-.4.2-.8.2-1.4.2-.7 0-1.2-.1-1.7-.3-.4-.2-.8-.5-1.1-1-.3-.5-.5-1.1-.5-1.9 0-1 .3-1.8.8-2.4.6-.6 1.3-.8 2.4-.8.8 0 1.4.2 1.9.5s.8.8 1 1.5l-1.7.4c-.1-.2-.1-.3-.2-.4-.1-.2-.2-.3-.4-.3-.2-.1-.3-.1-.5-.1-.4 0-.8.2-1 .5-.2.3-.3.7-.3 1.2 0 .7.1 1.2.3 1.4.2.3.5.4.9.4s.7-.1.8-.3c.2-.3.3-.6.4-1zM102.7 35.5c.3.5.7.8 1.1 1.1.5.2 1.1.3 1.8.3s1.3-.1 1.8-.4c.5-.3.8-.6 1.1-1.1.3-.5.4-1.1.4-1.8 0-1-.3-1.8-.8-2.4-.6-.6-1.4-.8-2.4-.8s-1.8.3-2.4.9c-.6.6-.9 1.4-.9 2.4-.1.7.1 1.3.3 1.8zm1.9-3.2c.2-.3.6-.4.9-.4.4 0 .7.1 1 .4s.4.7.4 1.3c0 .7-.1 1.2-.3 1.5-.2.3-.6.4-1 .4s-.7-.1-1-.4c-.2-.3-.4-.7-.4-1.4.1-.6.2-1.1.4-1.4zM119.3 30.4c-.6 0-1 .4-1.3.7-.3-.4-.7-.7-1.3-.7-.5 0-.8.2-1.1.5v-.3H114v6h1.7V33c0-.8.4-.8.5-.8.4 0 .5.3.5.9v3.5h1.7V33c0-.9.4-.9.6-.9.3 0 .4.3.4.9v3.6h1.7v-4c.1-1.3-.6-2.2-1.8-2.2z"/></svg>