<svg xmlns="http://www.w3.org/2000/svg" viewBox="0 0 731.9 92.4"><path d="M503.6 1.4c10.6-1.8 21.5-1.8 32 .2 23.3 5 23.6 22.7 19.9 42.4-3.1 14.2-7.6 29.3-19.3 38.8-11.1 8.8-26.1 9.8-39.7 9.6-8.3-.5-17.2-1.7-24.1-6.9-13-9.7-8.9-31.6-5.2-45.2 5.2-19 15.1-35.8 36.4-38.9zm-7.2 26.9c-4.1 7.5-5.8 15.9-7.8 24.1-1 5-2.6 10.8.4 15.5 2.6 3.9 7.7 4.5 12 4.9 6.2.3 12.9.2 18.4-3.2 5.2-3.6 7.3-10 9.1-15.7 2.1-7.6 4.7-15.2 4.9-23.1.3-9.6-8.1-11.3-15.8-11.4-8.4-.1-16.9.7-21.2 8.9zm-394-26.6h7.1c1.7 0 2.7 1.4 2.2 3L92.6 74.9c-3.9 13.3-15.9 15.8-27 15.7-9.8-.1-14.5-2.6-16.9-9.3-1.1-3.1-1.6-6.6-1.9-10.2-.1-1.2-.2-2.5-.2-3.7-.9-14.5-1.7-28.9-2.5-43.5 0-.4-.1-.9-.2-1.3-.2-.6-.6-.8-1.5-.8-1 0-2.1.2-2.4 1.4L25.8 75c-1.2 4.2-2.2 8.7-5.3 11.9-2.9 2.9-7.2 3.7-11.2 3.7h-7c-1.7 0-2.7-1.4-2.2-3l19.1-70.2c3.9-13.3 15.9-15.8 27-15.7 9.8.2 14.5 2.6 16.9 9.3 1.1 3.1 1.6 6.6 1.9 10.2.1 1.2.2 2.5.2 3.7.9 14.5 1.7 29 2.5 43.5 0 .4.1.9.2 1.3.2.6.6.8 1.5.8 1 0 2.1-.2 2.4-1.4l14.1-51.7c1.2-4.2 2.2-8.7 5.3-11.9 2.9-2.9 7.2-3.7 11.2-3.8zm-1.5 85.9l15.3-56.4c2.2-7.9 4.1-16.3 9.8-22.5 5.3-5.4 13.1-6.9 20.4-7h46.2c1.7 0 2.7 1.4 2.2 3l-.2.7c-1.2 4.2-2.2 8.7-5.3 11.9-2.9 2.9-7.2 3.7-11.2 3.7H150c-2.9 0-6 .6-8.1 2.7-2.3 2.4-3 5.6-3.8 8.7l-.8 3.1h40.1c1.7 0 2.7 1.4 2.2 3l-.2.7c-1.2 4.2-2.2 8.7-5.3 11.9-2.8 3.1-7.1 3.9-11.1 3.9h-22.1c-2.9 0-6 .6-8.1 2.7-2.3 2.4-3 5.6-3.8 8.7l-1.3 4.8H178c1.7 0 2.7 1.4 2.2 3l-.2.8c-1.2 4.2-2.2 8.7-5.3 11.9-2.9 2.9-7.2 3.7-11.2 3.7h-60.4c-1.6 0-2.6-1.3-2.2-3zm453.1 0l15.3-56.4c2.2-7.9 4.1-16.3 9.8-22.5 5.3-5.4 13.1-6.9 20.4-7h46.2c1.7 0 2.7 1.4 2.2 3l-.2.7c-1.2 4.2-2.2 8.7-5.3 11.9-2.9 2.9-7.2 3.7-11.2 3.7h-28.1c-2.9 0-6 .6-8.1 2.7-2.3 2.4-3 5.6-3.8 8.7l-.8 3.1h40.1c1.7 0 2.7 1.4 2.2 3l-.2.7c-1.2 4.2-2.2 8.7-5.3 11.9-2.9 2.9-7.2 3.7-11.2 3.7h-22c-2.9 0-6 .6-8.1 2.7-2.3 2.4-3 5.6-3.8 8.7l-1.3 4.8h50.3c1.7 0 2.7 1.4 2.2 3l-.2.7c-1.2 4.2-2.2 8.7-5.3 11.9-2.9 2.9-7.2 3.7-11.2 3.7h-60.4c-1.7.3-2.7-1-2.2-2.7zM286.7 1.7H215c-4 0-8.3.9-11.2 3.7-3.1 3.3-4.1 7.8-5.3 11.9l-.2.7c-.5 1.7.5 3 2.2 3h27c1.7 0 2.7 1.4 2.2 3l-17.2 63.4c-.5 1.7.5 3 2.2 3h7.1c4 0 8.3-.9 11.2-3.7 3.1-3.3 4.1-7.8 5.3-11.9l10.4-38.1c1.2-4.2 2.2-8.7 5.3-11.9 2.9-2.9 7.2-3.7 11.2-3.7h7c4 0 8.3-.9 11.2-3.7 3.1-3.3 4.1-7.8 5.3-11.9l.2-.7c.4-1.7-.6-3.1-2.2-3.1zm73 85.9c-.5 1.7.5 3 2.2 3h7.1c4 0 8.3-.9 11.2-3.7 3.1-3.3 4.1-7.8 5.3-11.9l1.5-5.4c1.2-4.2 2.2-8.7 5.3-11.9 2.9-2.9 7.2-3.7 11.2-3.7h24.8c1.7 0 2.7 1.4 2.2 3L422 87.6c-.5 1.7.5 3 2.2 3h7.1c4 0 8.3-.9 11.2-3.7 3.1-3.3 4.1-7.8 5.3-11.9 6.4-23.4 12.7-46.8 19.1-70.2.5-1.7-.5-3-2.2-3h-7.1c-4 0-8.3.9-11.2 3.7-3.1 3.3-4.1 7.8-5.3 11.9l-.4 1.4c-1.2 4.2-2.2 8.7-5.3 11.9-2.9 2.9-7.2 3.7-11.2 3.7h-24.8c-1.7 0-2.7-1.4-2.2-3l7.3-26.7c.5-1.7-.5-3-2.2-3h-7.1c-4 0-8.3.9-11.2 3.7-3.1 3.3-4.1 7.8-5.3 11.9-6.3 23.5-12.7 46.9-19 70.3zm-31.6 3h-51.5c-1.7 0-2.7-1.4-2.2-3l.2-.7c1.2-4.2 2.2-8.7 5.3-11.9 2.9-2.9 7.2-3.7 11.2-3.7h37.5c1.2 0 2.6-.3 3.5-1.2.9-1 1.3-2.5 1-3.9-.3-1-1.1-1.7-1.9-2.2-.2-.1-.4-.2-.5-.3-8.2-5.1-16.6-10.2-24.8-15.4-1.1-.7-2.2-1.4-3.2-2.1-5-3.2-9.8-7.5-11.6-13.4-1.8-8.3.7-17.3 6.3-23.7 5.3-5.8 13.6-7.1 21.1-7.3h48.9c1.7 0 2.7 1.4 2.2 3l-.2.7c-1.2 4.2-2.2 8.7-5.3 11.9-2.9 2.9-7.2 3.7-11.2 3.7h-34.7c-1.2 0-2.6.3-3.5 1.2-.9 1-1.3 2.5-1 3.9.3 1 1.1 1.7 1.9 2.2 8.2 5.3 16.8 10.4 25.1 15.6 1.1.7 2.2 1.4 3.2 2.1 5 3.2 9.8 7.5 11.6 13.4 1.8 8.3-.7 17.4-6.3 23.7-5.3 5.9-13.6 7.2-21.1 7.4zm362.2 0h-51.5c-1.7 0-2.7-1.4-2.2-3l.2-.7c1.2-4.2 2.2-8.7 5.3-11.9 2.9-2.9 7.2-3.7 11.2-3.7h37.5c1.2 0 2.6-.3 3.5-1.2.9-1 1.3-2.5 1-3.9-.3-1-1.1-1.7-1.9-2.2-.2-.1-.4-.2-.5-.3-8.2-5.1-16.6-10.2-24.8-15.4-1.1-.7-2.2-1.4-3.2-2.1-5-3.2-9.8-7.5-11.6-13.4-1.8-8.3.7-17.3 6.3-23.7 5.3-5.8 13.6-7.1 21.1-7.3h48.9c1.7 0 2.7 1.4 2.2 3l-.2.7c-1.2 4.2-2.2 8.7-5.3 11.9-2.9 2.9-7.2 3.7-11.2 3.7h-34.7c-1.2 0-2.6.3-3.5 1.2-.9 1-1.3 2.5-1 3.9.3 1 1.1 1.7 1.9 2.2 8.2 5.3 16.8 10.4 25.1 15.6 1.1.7 2.2 1.4 3.2 2.1 5 3.2 9.8 7.5 11.6 13.4 1.8 8.3-.7 17.4-6.3 23.7-5.3 5.9-13.6 7.2-21.1 7.4z" fill="#fff"/></svg>