<svg xmlns="http://www.w3.org/2000/svg" xmlns:xlink="http://www.w3.org/1999/xlink" x="0px" y="0px" width="1044.343px" height="333.361px" viewBox="0 0 1044.343 333.361" xml:space="preserve"><path fill="#00AADF" d="M470.395,15.174c34.22-15.51,73.449-18.92,110.1-11.19c34.21,7.24,66.2,25.46,89.01,52.09 c7.391,8.54,13.86,17.87,19.28,27.79c-13.32,10.92-29.82,18.15-47.04,19.64c-17.5,1.79-35.66-3.26-49.49-14.21 c-22.59-17.28-54.24-21.38-80.59-10.79c-18.22,7.18-33.4,21.14-42.91,38.16c-16.71,29.28-17.31,66.92-1.75,96.791 c8.9,17.35,23.42,31.989,41.32,39.96c26.96,12.239,60.38,8.659,83.93-9.381c10.761-8.52,24.12-13.46,37.78-14.409 c21.19-1.381,42.36,6.46,58.729,19.75c-14.279,26.609-36.55,48.75-63.029,63.22c-35.93,19.71-78.96,25.24-119,17.229 c-33.95-6.71-65.85-24.21-89.03-50.01c-24.04-26.22-38.42-60.689-41.6-96.02c-3.311-35.95,3.88-73.2,22.439-104.36 C415.115,51.284,440.615,28.563,470.395,15.174L470.395,15.174z"/><path fill="#FCFEFF" d="M45.195,11.074c9.38-3.75,19.49-5.45,29.56-5.83c18.32-0.07,36.06,7.88,49.58,20 c6.1,5.61,12.11,11.53,16.18,18.83c38.83,61.56,77.45,123.26,116.46,184.709c0-74.55-0.03-149.09,0.01-223.64 c15.25,0.11,30.71-1.07,45.72,2.22c7.46,1.63,14.84,4.68,20.34,10.13c6.91,6.67,10.76,15.86,12.83,25.09 c2.8,11.83,2.77,24.06,2.73,36.14c0.06,55.35-0.26,110.69-0.13,166.05c0.31,12.91-2.03,25.88-6.75,37.9 c-5.12,12.96-13.57,24.84-25.1,32.83c-14.81,10.41-33.83,14.52-51.64,11.5c-18.67-2.91-35.84-13.061-48.44-27 c-5.09-5.44-8.55-12.09-12.6-18.29c-37.27-59.24-74.73-118.37-111.89-177.68c-0.16,68.56-0.02,137.12-0.07,205.68 c-0.07,6.14,0.24,12.29-0.31,18.41c-13.95-0.101-28,0.819-41.85-1.45c-10.89-1.54-21.97-6.19-28.45-15.48 c-9.75-13.689-10.83-31.189-11.31-47.43c-0.18-55.99,0.07-111.99,0.09-167.99c-0.13-20.03,2.81-40.88,13.43-58.25 C20.815,25.503,32.175,16.204,45.195,11.074L45.195,11.074z"/><path fill="#FCFEFF" d="M794.985,7.424c11-2.1,22.24-2.16,33.399-2.3c0.011,68.86,0,137.72,0,206.581 c0.17,9.829,1.25,20.25,6.671,28.729c6.77,9.78,18.43,14.38,29.43,17.59c20.91,5.601,43.41,5.41,64.18-0.729 c9.67-3.12,19.721-7.351,26.05-15.681c5.841-7.989,7.101-18.27,7.521-27.89c0.05-69.53,0-139.07,0.02-208.6 c17.03,0.16,34.75,0.39,50.551,7.56c12.109,5.36,21.069,16.32,25.43,28.67c7.16,19.28,6.02,40.18,6.07,60.38 c0,30.67,0,61.33,0,91.99c-0.11,13.25,0.619,26.6-1.66,39.73c-2.511,16.26-8.641,32.21-19.141,45.02 c-12.01,14.87-28.779,25.01-46.09,32.58c-39.62,16.92-84.51,20.24-126.59,11.75c-17.71-3.63-35.01-9.59-50.92-18.22 c-11.94-6.46-23.17-14.561-31.9-25.04c-15.399-18.15-21.5-42.45-21.64-65.851c0.01-45.33-0.05-90.66,0.03-135.99 c0.529-18,3.149-37.24,14.569-51.86C769.145,15.244,782.094,9.684,794.985,7.424L794.985,7.424z"/><path fill="#00AADF" d="M511.584,127.964c64.61-0.11,129.221,0,193.84-0.05c5.79,25.44,5.45,52.17-0.46,77.56 c-64.46,0.07-128.92,0.07-193.38,0C511.594,179.644,511.584,153.804,511.584,127.964L511.584,127.964z"/></svg> 