<svg xmlns="http://www.w3.org/2000/svg" width="1044.343" height="333.361"><path fill="#00AADF" d="M470.395 15.174c34.22-15.51 73.449-18.92 110.1-11.19 34.21 7.24 66.2 25.46 89.01 52.09a158.94 158.94 0 0 1 19.28 27.79c-13.32 10.92-29.82 18.15-47.04 19.64-17.5 1.79-35.66-3.26-49.49-14.21-22.59-17.28-54.24-21.38-80.59-10.79-18.22 7.18-33.4 21.14-42.91 38.16-16.71 29.28-17.31 66.92-1.75 96.791 8.9 17.35 23.42 31.989 41.32 39.96 26.96 12.239 60.38 8.659 83.93-9.381 10.761-8.52 24.12-13.46 37.78-14.409 21.19-1.381 42.36 6.46 58.729 19.75-14.279 26.609-36.55 48.75-63.029 63.22-35.93 19.71-78.96 25.24-119 17.229-33.95-6.71-65.85-24.21-89.03-50.01-24.04-26.22-38.42-60.689-41.6-96.02-3.311-35.95 3.88-73.2 22.439-104.36 16.571-28.15 42.071-50.871 71.851-64.26z"/><path fill="#FCFEFF" d="M45.195 11.074c9.38-3.75 19.49-5.45 29.56-5.83 18.32-.07 36.06 7.88 49.58 20 6.1 5.61 12.11 11.53 16.18 18.83 38.83 61.56 77.45 123.26 116.46 184.709 0-74.55-.03-149.09.01-223.64 15.25.11 30.71-1.07 45.72 2.22 7.46 1.63 14.84 4.68 20.34 10.13 6.91 6.67 10.76 15.86 12.83 25.09 2.8 11.83 2.77 24.06 2.73 36.14.06 55.35-.26 110.69-.13 166.05.31 12.91-2.03 25.88-6.75 37.9-5.12 12.96-13.57 24.84-25.1 32.83-14.81 10.41-33.83 14.52-51.64 11.5-18.67-2.91-35.84-13.061-48.44-27-5.09-5.44-8.55-12.09-12.6-18.29-37.27-59.24-74.73-118.37-111.89-177.68-.16 68.56-.02 137.12-.07 205.68-.07 6.14.24 12.29-.31 18.41-13.95-.101-28 .819-41.85-1.45-10.89-1.54-21.97-6.19-28.45-15.48-9.75-13.689-10.83-31.189-11.31-47.43-.18-55.99.07-111.99.09-167.99-.13-20.03 2.81-40.88 13.43-58.25 7.23-12.02 18.59-21.319 31.61-26.449zM794.985 7.424c11-2.1 22.24-2.16 33.399-2.3.011 68.86 0 137.72 0 206.581.17 9.829 1.25 20.25 6.671 28.729 6.77 9.78 18.43 14.38 29.43 17.59 20.91 5.601 43.41 5.41 64.18-.729 9.67-3.12 19.721-7.351 26.05-15.681 5.841-7.989 7.101-18.27 7.521-27.89.05-69.53 0-139.07.02-208.6 17.03.16 34.75.39 50.551 7.56 12.109 5.36 21.069 16.32 25.43 28.67 7.16 19.28 6.02 40.18 6.07 60.38v91.99c-.11 13.25.619 26.6-1.66 39.73-2.511 16.26-8.641 32.21-19.141 45.02-12.01 14.87-28.779 25.01-46.09 32.58-39.62 16.92-84.51 20.24-126.59 11.75-17.71-3.63-35.01-9.59-50.92-18.22-11.94-6.46-23.17-14.561-31.9-25.04-15.399-18.15-21.5-42.45-21.64-65.851.01-45.33-.05-90.66.03-135.99.529-18 3.149-37.24 14.569-51.86 8.18-10.599 21.129-16.159 34.02-18.419z"/><path fill="#00AADF" d="M511.584 127.964c64.61-.11 129.221 0 193.84-.05 5.79 25.44 5.45 52.17-.46 77.56-64.46.07-128.92.07-193.38 0 .01-25.83 0-51.67 0-77.51z"/></svg>