<svg xmlns="http://www.w3.org/2000/svg" viewBox="0 0 283.5 127.6"><style>.st0{fill:#fff}</style><ellipse class="st0" cx="100.1" cy="15.7" rx="16" ry="15.7"/><path class="st0" d="M275.5 27.4H131.8c-12.7 0-24.1 8.2-24.1 22.8v53.1c0 .5-.5 1-1.1 1H93.5c-.6 0-1.1-.5-1.1-1.1V51.1v-.7c0-14.8-11.3-23-24.5-23h-60c-4.4 0-7.9 3.5-7.9 7.8v84.1c0 4.3 3.6 8.3 7.9 8.3h267.6c4.4 0 7.9-4 7.9-8.3V35.2c.1-4.3-3.5-7.8-7.9-7.8zM81.1 93.6V95c0 .1 0 .3-.1.4v.2c0 .1-.1.3-.1.4v.2c0 .2-.1.3-.1.4v.1c-.1.2-.1.4-.2.6 0 0 0 .1-.1.1-.1.1-.1.3-.2.4 0 .1-.1.1-.1.2-.1.1-.1.2-.2.3 0 .1-.1.1-.1.2-.1.1-.1.2-.2.3 0 .1-.1.1-.1.2-.1.1-.2.2-.2.4l-.1.1c-.2.3-.5.6-.7.9l-.1.1-.3.3-.1.1-.3.3-.1.1-.3.3-.1.1c-.1.1-.3.2-.4.4l-.1.1c-.1.1-.2.1-.3.2-.1 0-.1.1-.2.1s-.2.1-.2.1c-.1 0-.1.1-.2.1s-.2.1-.2.1c-.1 0-.1.1-.2.1-.1.1-.2.1-.3.2 0 0-.1 0-.1.1-.1.1-.3.1-.4.2-.1 0-.1 0-.2.1-.1 0-.2.1-.3.1-.1 0-.1 0-.2.1-.1 0-.2.1-.3.1-.1 0-.1 0-.2.1-.1 0-.2.1-.3.1h-.1c-.2 0-.3.1-.5.1h-.1c-.1 0-.2 0-.4.1h-1.7c-3 0-5.8-1.2-7.8-3.2L36.1 75.2c-.4-.4-.9-.6-1.4-.6-1.1 0-2 .8-2 1.9v26.6c0 .6-.5 1.1-1.1 1.1h-13c-.6 0-1.1-.5-1.1-1.1V61.5v-.6-.2-.4-.2c0-.1 0-.3.1-.4v-.2c0-.1.1-.3.1-.4v-.2c0-.2.1-.3.1-.4v-.1c.1-.2.1-.4.2-.5 0 0 0-.1.1-.1.1-.1.1-.3.2-.4 0-.1.1-.1.1-.2.1-.1.1-.2.2-.3 0-.1.1-.1.1-.2.1-.1.1-.2.2-.3 0-.1.1-.1.1-.2.1-.1.2-.2.2-.4 0 0 0-.1.1-.1.2-.3.5-.6.7-.9l.1-.1.3-.3.1-.1.3-.3.1-.1.3-.3.1-.1c.1-.1.3-.2.5-.4l.1-.1c.1-.1.2-.1.3-.2.1 0 .1-.1.2-.1s.2-.1.2-.1c.1 0 .1-.1.2-.1s.2-.1.2-.1c.1 0 .1-.1.2-.1.1-.1.2-.1.3-.2 0 0 .1 0 .1-.1.1-.1.3-.1.4-.2.1 0 .1 0 .2-.1.1 0 .2-.1.3-.1.1 0 .1 0 .2-.1.1 0 .2-.1.3-.1.1 0 .1 0 .2-.1.1 0 .2-.1.3-.1h.1c.2 0 .3-.1.5-.1h.1c.1 0 .2 0 .4-.1h1.8c3 0 5.7 1.2 7.7 3.1L62.5 80c.4.4.9.6 1.4.6 1.1 0 2-.9 2-2V51.9c0-.6.5-1.1 1.1-1.1h13c.6 0 1.1.5 1.1 1.1v41.7zm57.1 7.4c-2 2-4.7 3.2-7.8 3.2h-1.7c-.1 0-.3 0-.4-.1h-.1c-.2 0-.3-.1-.5-.1h-.1c-.1 0-.2-.1-.3-.1-.1 0-.1 0-.2-.1-.1 0-.2-.1-.3-.1-.1 0-.1 0-.2-.1-.1 0-.2-.1-.3-.1-.1 0-.1 0-.2-.1s-.3-.1-.4-.2c0 0-.1 0-.1-.1-.1-.1-.2-.1-.3-.2-.1 0-.1-.1-.2-.1s-.2-.1-.2-.1c-.1 0-.1-.1-.2-.1s-.2-.1-.2-.1c-.1 0-.1-.1-.2-.1-.1-.1-.2-.1-.3-.2l-.1-.1c-.2-.1-.3-.2-.5-.4l-.1-.1-.3-.3-.1-.1-.3-.3-.1-.1-.3-.3-.1-.1c-.3-.3-.5-.6-.7-.9l-.1-.1c-.1-.1-.2-.2-.2-.4 0-.1-.1-.1-.1-.2-.1-.1-.1-.2-.2-.3 0-.1-.1-.1-.1-.2-.1-.1-.1-.2-.2-.3 0-.1-.1-.1-.1-.2-.1-.1-.1-.3-.2-.4 0 0 0-.1-.1-.1-.1-.2-.1-.4-.2-.6v-.1c0-.1-.1-.3-.1-.4V96c0-.1-.1-.3-.1-.4v-.2c0-.1 0-.3-.1-.4v-.2-.4-.2V51.9c0-.6.5-1.1 1.1-1.1h13.1c.6 0 1.1.5 1.1 1.1v26.5c0 1.1.9 2 2 2 .6 0 1.1-.2 1.4-.6L165 53.6c1.4-1.7 3.5-2.7 5.9-2.7 4.2 0 7.6 3.4 7.6 7.5 0 2.3-1.1 4.4-2.8 5.8l-30.1 29.5-7.4 7.3zm57.4-2.1c-3.6 0-6.5-2.9-6.5-6.4 0-3.5 2.9-6.4 6.5-6.4s6.5 2.9 6.5 6.4c0 3.5-2.9 6.4-6.5 6.4zm23.8 4.3c0 .6-.5 1.1-1.1 1.1h-13.1c-.6 0-1.1-.5-1.1-1.1V76.7c0-1.1-.9-2-2-2-.6 0-1.1.2-1.4.6L174 101.5c-1.4 1.7-3.5 2.7-5.9 2.7-4.2 0-7.6-3.4-7.6-7.5 0-2.3 1.1-4.4 2.8-5.8l30.1-29.5 7.5-7.4c2-2 4.7-3.2 7.8-3.2h1.8c.1 0 .3 0 .4.1h.1c.2 0 .3.1.5.1h.1c.1 0 .2.1.3.1.1 0 .1 0 .2.1.1 0 .2.1.3.1.1 0 .1 0 .2.1.1 0 .2.1.3.1.1 0 .1 0 .2.1s.3.1.4.2c0 0 .1 0 .1.1.1 0 .2.1.3.2.1 0 .1.1.2.1s.2.1.2.1c.1 0 .1.1.2.1s.2.1.2.1c.1 0 .1.1.2.1.1.1.2.1.3.2l.1.1c.2.1.3.2.4.4l.1.1.3.3.1.1.3.3.1.1.3.3.1.1c.3.3.5.6.7.9l.1.1c.1.1.2.2.2.4 0 .1.1.1.1.2.1.1.1.2.2.3 0 .1.1.1.1.2.1.1.1.2.2.3 0 .1.1.1.1.2.1.1.1.3.2.4 0 0 0 .1.1.1.1.2.1.4.2.5v.1c0 .1.1.3.1.5v.2c0 .1.1.3.1.4v.2c0 .1 0 .3.1.4v1.4l-.1 41.8zm47.6 0c0 .6-.5 1.1-1.1 1.1h-27.6c-4.2 0-7.6-3.3-7.6-7.5V51.9c0-.6.5-1.1 1.1-1.1h13.1c.6 0 1.1.5 1.1 1.1v35.4c0 .5.2 1 .6 1.4.4.4.9.6 1.4.6h17.9c.6 0 1.1.5 1.1 1.1v12.8z"/></svg>