<svg version="1.1" xmlns="http://www.w3.org/2000/svg" xmlns:xlink="http://www.w3.org/1999/xlink" x="0px" y="0px" viewBox="0 0 283.5 127.6" style="enable-background:new 0 0 283.5 127.6;" xml:space="preserve"><style type="text/css"> .st0{fill:#FFFFFF;}</style><ellipse class="st0" cx="100.1" cy="15.7" rx="16" ry="15.7"/><g><path class="st0" d="M275.5,27.4H131.8c-12.7,0-24.1,8.2-24.1,22.8v0.6v0.3v52.2c0,0.5-0.5,1-1.1,1H93.5h0c-0.6,0-1.1-0.5-1.1-1.1 V51.1c0-0.1,0-0.1,0-0.2v-0.5c0-14.8-11.3-23-24.5-23h-60c-4.4,0-7.9,3.5-7.9,7.8v84.1c0,4.3,3.6,8.3,7.9,8.3h267.6 c4.4,0,7.9-4,7.9-8.3V35.2C283.5,30.9,279.9,27.4,275.5,27.4z M81.1,93.6c0,0.2,0,0.4,0,0.6c0,0.1,0,0.1,0,0.2c0,0.1,0,0.3,0,0.4 c0,0.1,0,0.1,0,0.2c0,0.1,0,0.3-0.1,0.4c0,0.1,0,0.1,0,0.2c0,0.1-0.1,0.3-0.1,0.4c0,0.1,0,0.1,0,0.2c0,0.2-0.1,0.3-0.1,0.4 c0,0,0,0.1,0,0.1c-0.1,0.2-0.1,0.4-0.2,0.6c0,0,0,0.1-0.1,0.1c-0.1,0.1-0.1,0.3-0.2,0.4c0,0.1-0.1,0.1-0.1,0.2 c-0.1,0.1-0.1,0.2-0.2,0.3c0,0.1-0.1,0.1-0.1,0.2c-0.1,0.1-0.1,0.2-0.2,0.3c0,0.1-0.1,0.1-0.1,0.2c-0.1,0.1-0.2,0.2-0.2,0.4 c0,0-0.1,0.1-0.1,0.1c-0.2,0.3-0.5,0.6-0.7,0.9c0,0-0.1,0.1-0.1,0.1c-0.1,0.1-0.2,0.2-0.3,0.3c0,0-0.1,0.1-0.1,0.1 c-0.1,0.1-0.2,0.2-0.3,0.3c0,0-0.1,0.1-0.1,0.1c-0.1,0.1-0.2,0.2-0.3,0.3c0,0-0.1,0.1-0.1,0.1c-0.1,0.1-0.3,0.2-0.4,0.4 c0,0,0,0,0,0c0,0-0.1,0.1-0.1,0.1c-0.1,0.1-0.2,0.1-0.3,0.2c-0.1,0-0.1,0.1-0.2,0.1c-0.1,0-0.2,0.1-0.2,0.1c-0.1,0-0.1,0.1-0.2,0.1 c-0.1,0-0.2,0.1-0.2,0.1c-0.1,0-0.1,0.1-0.2,0.1c-0.1,0.1-0.2,0.1-0.3,0.2c0,0-0.1,0-0.1,0.1c-0.1,0.1-0.3,0.1-0.4,0.2 c-0.1,0-0.1,0-0.2,0.1c-0.1,0-0.2,0.1-0.3,0.1c-0.1,0-0.1,0-0.2,0.1c-0.1,0-0.2,0.1-0.3,0.1c-0.1,0-0.1,0-0.2,0.1 c-0.1,0-0.2,0.1-0.3,0.1c0,0-0.1,0-0.1,0c-0.2,0-0.3,0.1-0.5,0.1c0,0-0.1,0-0.1,0c-0.1,0-0.2,0-0.4,0.1c-0.1,0-0.1,0-0.2,0 c-0.1,0-0.2,0-0.3,0c-0.1,0-0.1,0-0.2,0c-0.1,0-0.2,0-0.3,0c-0.1,0-0.1,0-0.2,0c-0.2,0-0.3,0-0.5,0c-3,0-5.8-1.2-7.8-3.2L36.1,75.2 l0,0c-0.4-0.4-0.9-0.6-1.4-0.6c-1.1,0-2,0.8-2,1.9v26.6c0,0,0,0,0,0c0,0.6-0.5,1.1-1.1,1.1c0,0,0,0,0,0h-13c0,0,0,0,0,0 c-0.6,0-1.1-0.5-1.1-1.1V61.5c0-0.2,0-0.4,0-0.6c0-0.1,0-0.1,0-0.2c0-0.1,0-0.3,0-0.4c0-0.1,0-0.1,0-0.2c0-0.1,0-0.3,0.1-0.4 c0-0.1,0-0.1,0-0.2c0-0.1,0.1-0.3,0.1-0.4c0-0.1,0-0.1,0-0.2c0-0.2,0.1-0.3,0.1-0.4c0,0,0-0.1,0-0.1c0.1-0.2,0.1-0.4,0.2-0.5 c0,0,0-0.1,0.1-0.1c0.1-0.1,0.1-0.3,0.2-0.4c0-0.1,0.1-0.1,0.1-0.2c0.1-0.1,0.1-0.2,0.2-0.3c0-0.1,0.1-0.1,0.1-0.2 c0.1-0.1,0.1-0.2,0.2-0.3c0-0.1,0.1-0.1,0.1-0.2c0.1-0.1,0.2-0.2,0.2-0.4c0,0,0-0.1,0.1-0.1c0.2-0.3,0.5-0.6,0.7-0.9 c0,0,0.1-0.1,0.1-0.1c0.1-0.1,0.2-0.2,0.3-0.3c0,0,0.1-0.1,0.1-0.1c0.1-0.1,0.2-0.2,0.3-0.3c0,0,0.1-0.1,0.1-0.1 c0.1-0.1,0.2-0.2,0.3-0.3c0,0,0.1-0.1,0.1-0.1c0.1-0.1,0.3-0.2,0.5-0.4c0,0,0,0,0,0c0,0,0.1-0.1,0.1-0.1c0.1-0.1,0.2-0.1,0.3-0.2 c0.1,0,0.1-0.1,0.2-0.1c0.1,0,0.2-0.1,0.2-0.1c0.1,0,0.1-0.1,0.2-0.1c0.1,0,0.2-0.1,0.2-0.1c0.1,0,0.1-0.1,0.2-0.1 c0.1-0.1,0.2-0.1,0.3-0.2c0,0,0.1,0,0.1-0.1c0.1-0.1,0.3-0.1,0.4-0.2c0.1,0,0.1,0,0.2-0.1c0.1,0,0.2-0.1,0.3-0.1 c0.1,0,0.1,0,0.2-0.1c0.1,0,0.2-0.1,0.3-0.1c0.1,0,0.1,0,0.2-0.1c0.1,0,0.2-0.1,0.3-0.1c0,0,0.1,0,0.1,0c0.2,0,0.3-0.1,0.5-0.1 c0,0,0.1,0,0.1,0c0.1,0,0.2,0,0.4-0.1c0.1,0,0.1,0,0.2,0c0.1,0,0.2,0,0.3,0c0.1,0,0.1,0,0.2,0c0.1,0,0.2,0,0.4,0c0.1,0,0.1,0,0.2,0 c0.2,0,0.3,0,0.5,0c3,0,5.7,1.2,7.7,3.1l0,0l26.4,25.9l0,0c0.4,0.4,0.9,0.6,1.4,0.6c1.1,0,2-0.9,2-2V51.9c0-0.6,0.5-1.1,1.1-1.1H80 h0c0.6,0,1.1,0.5,1.1,1.1L81.1,93.6L81.1,93.6z M138.2,101c-2,2-4.7,3.2-7.8,3.2c-0.2,0-0.3,0-0.5,0c-0.1,0-0.1,0-0.2,0 c-0.1,0-0.2,0-0.3,0c-0.1,0-0.1,0-0.2,0c-0.1,0-0.2,0-0.3,0c-0.1,0-0.1,0-0.2,0c-0.1,0-0.3,0-0.4-0.1c0,0-0.1,0-0.1,0 c-0.2,0-0.3-0.1-0.5-0.1c0,0-0.1,0-0.1,0c-0.1,0-0.2-0.1-0.3-0.1c-0.1,0-0.1,0-0.2-0.1c-0.1,0-0.2-0.1-0.3-0.1 c-0.1,0-0.1,0-0.2-0.1c-0.1,0-0.2-0.1-0.3-0.1c-0.1,0-0.1,0-0.2-0.1c-0.1-0.1-0.3-0.1-0.4-0.2c0,0-0.1,0-0.1-0.1 c-0.1-0.1-0.2-0.1-0.3-0.2c-0.1,0-0.1-0.1-0.2-0.1c-0.1,0-0.2-0.1-0.2-0.1c-0.1,0-0.1-0.1-0.2-0.1c-0.1,0-0.2-0.1-0.2-0.1 c-0.1,0-0.1-0.1-0.2-0.1c-0.1-0.1-0.2-0.1-0.3-0.2c0,0-0.1-0.1-0.1-0.1c0,0,0,0,0,0c-0.2-0.1-0.3-0.2-0.5-0.4c0,0-0.1-0.1-0.1-0.1 c-0.1-0.1-0.2-0.2-0.3-0.3c0,0-0.1-0.1-0.1-0.1c-0.1-0.1-0.2-0.2-0.3-0.3c0,0-0.1-0.1-0.1-0.1c-0.1-0.1-0.2-0.2-0.3-0.3 c0,0-0.1-0.1-0.1-0.1c-0.3-0.3-0.5-0.6-0.7-0.9c0,0-0.1-0.1-0.1-0.1c-0.1-0.1-0.2-0.2-0.2-0.4c0-0.1-0.1-0.1-0.1-0.2 c-0.1-0.1-0.1-0.2-0.2-0.3c0-0.1-0.1-0.1-0.1-0.2c-0.1-0.1-0.1-0.2-0.2-0.3c0-0.1-0.1-0.1-0.1-0.2c-0.1-0.1-0.1-0.3-0.2-0.4 c0,0,0-0.1-0.1-0.1c-0.1-0.2-0.1-0.4-0.2-0.6c0,0,0-0.1,0-0.1c0-0.1-0.1-0.3-0.1-0.4c0-0.1,0-0.1,0-0.2c0-0.1-0.1-0.3-0.1-0.4 c0-0.1,0-0.1,0-0.2c0-0.1,0-0.3-0.1-0.4c0-0.1,0-0.1,0-0.2c0-0.1,0-0.3,0-0.4c0-0.1,0-0.1,0-0.2c0-0.2,0-0.4,0-0.6V51.9 c0-0.6,0.5-1.1,1.1-1.1h13.1c0.6,0,1.1,0.5,1.1,1.1v26.5c0,1.1,0.9,2,2,2c0.6,0,1.1-0.2,1.4-0.6l0,0L165,53.6 c1.4-1.7,3.5-2.7,5.9-2.7c4.2,0,7.6,3.4,7.6,7.5c0,2.3-1.1,4.4-2.8,5.8l-30.1,29.5L138.2,101z M195.6,98.9c-3.6,0-6.5-2.9-6.5-6.4 c0-3.5,2.9-6.4,6.5-6.4s6.5,2.9,6.5,6.4C202.1,96,199.2,98.9,195.6,98.9z M219.4,103.2c0,0.6-0.5,1.1-1.1,1.1h-13.1 c-0.6,0-1.1-0.5-1.1-1.1V76.7c0-1.1-0.9-2-2-2c-0.6,0-1.1,0.2-1.4,0.6l0,0L174,101.5c-1.4,1.7-3.5,2.7-5.9,2.7 c-4.2,0-7.6-3.4-7.6-7.5c0-2.3,1.1-4.4,2.8-5.8l30.1-29.5l7.5-7.4c2-2,4.7-3.2,7.8-3.2c0.2,0,0.3,0,0.5,0c0.1,0,0.1,0,0.2,0 c0.1,0,0.2,0,0.4,0c0.1,0,0.1,0,0.2,0c0.1,0,0.2,0,0.3,0c0.1,0,0.1,0,0.2,0c0.1,0,0.3,0,0.4,0.1c0,0,0.1,0,0.1,0 c0.2,0,0.3,0.1,0.5,0.1c0,0,0.1,0,0.1,0c0.1,0,0.2,0.1,0.3,0.1c0.1,0,0.1,0,0.2,0.1c0.1,0,0.2,0.1,0.3,0.1c0.1,0,0.1,0,0.2,0.1 c0.1,0,0.2,0.1,0.3,0.1c0.1,0,0.1,0,0.2,0.1c0.1,0.1,0.3,0.1,0.4,0.2c0,0,0.1,0,0.1,0.1c0.1,0,0.2,0.1,0.3,0.2 c0.1,0,0.1,0.1,0.2,0.1c0.1,0,0.2,0.1,0.2,0.1c0.1,0,0.1,0.1,0.2,0.1c0.1,0,0.2,0.1,0.2,0.1c0.1,0,0.1,0.1,0.2,0.1 c0.1,0.1,0.2,0.1,0.3,0.2c0,0,0.1,0.1,0.1,0.1c0,0,0,0,0,0c0.2,0.1,0.3,0.2,0.4,0.4c0,0,0.1,0.1,0.1,0.1c0.1,0.1,0.2,0.2,0.3,0.3 c0,0,0.1,0.1,0.1,0.1c0.1,0.1,0.2,0.2,0.3,0.3c0,0,0.1,0.1,0.1,0.1c0.1,0.1,0.2,0.2,0.3,0.3c0,0,0.1,0.1,0.1,0.1 c0.3,0.3,0.5,0.6,0.7,0.9c0,0,0.1,0.1,0.1,0.1c0.1,0.1,0.2,0.2,0.2,0.4c0,0.1,0.1,0.1,0.1,0.2c0.1,0.1,0.1,0.2,0.2,0.3 c0,0.1,0.1,0.1,0.1,0.2c0.1,0.1,0.1,0.2,0.2,0.3c0,0.1,0.1,0.1,0.1,0.2c0.1,0.1,0.1,0.3,0.2,0.4c0,0,0,0.1,0.1,0.1 c0.1,0.2,0.1,0.4,0.2,0.5c0,0,0,0.1,0,0.1c0,0.1,0.1,0.3,0.1,0.5c0,0.1,0,0.1,0,0.2c0,0.1,0.1,0.3,0.1,0.4c0,0.1,0,0.1,0,0.2 c0,0.1,0,0.3,0.1,0.4c0,0.1,0,0.1,0,0.2c0,0.1,0,0.3,0,0.4c0,0.1,0,0.1,0,0.2c0,0.2,0,0.4,0,0.6L219.4,103.2L219.4,103.2z M267,103.2c0,0.6-0.5,1.1-1.1,1.1h-13.5H249h-4.1h-3.1h-3.5c-4.2,0-7.6-3.3-7.6-7.5c0,0,0,0,0,0V73.4v-3.3V51.9 c0-0.6,0.5-1.1,1.1-1.1h0h13.1c0.6,0,1.1,0.5,1.1,1.1v18.2v3.3v13.9h0c0,0.5,0.2,1,0.6,1.4c0.4,0.4,0.9,0.6,1.4,0.6 c0.1,0,0.2,0,0.3,0h0.7h3.4h13.5c0.6,0,1.1,0.5,1.1,1.1V103.2z"/></g></svg> 