<svg xmlns="http://www.w3.org/2000/svg" xmlns:xlink="http://www.w3.org/1999/xlink" x="0px" y="0px" viewBox="0 0 193.2 49.5" style="enable-background:new 0 0 193.2 49.5;" xml:space="preserve"><style type="text/css"> .st0{fill:#FFFFFF;} .st1{enable-background:new ;} .st2{fill:#81ABC8;} .st3{display:none;enable-background:new ;} .st4{display:inline;}</style><g id="NULLED"><g><path class="st0" d="M71.4,35.2h-2.6v-21h3.8l14.1,17.3V14.2h2.6v21h-2.7L71.4,16.4V35.2z"/><path class="st0" d="M114.2,14.2v13.1c0,2.5-0.9,4.5-2.7,6s-4.3,2.3-7.6,2.3s-5.8-0.8-7.6-2.3c-1.8-1.5-2.7-3.5-2.7-6V14.2h2.7 v13.2c0,2,0.7,3.6,2,4.6c1.3,1.1,3.2,1.6,5.5,1.6s4.1-0.5,5.5-1.6c1.4-1.1,2-2.6,2-4.6V14.2H114.2z"/><path class="st0" d="M121.1,33.3h12.6v1.9h-15.4v-21h2.7L121.1,33.3L121.1,33.3z"/><path class="st0" d="M138.4,33.3H151v1.9h-15.4v-21h2.7L138.4,33.3L138.4,33.3z"/><path class="st0" d="M155.7,16.1v7.6h10.1v1.9h-10.1v7.8h13.9v1.8H153v-21h15.7v1.9H155.7z"/><path class="st0" d="M192.4,28.8c-0.5,1.2-1.3,2.3-2.4,3.2s-2.4,1.7-4.1,2.3c-1.7,0.6-3.6,0.8-5.8,0.8h-7.8V14.2h8.1 c2.3,0,4.3,0.3,5.9,0.9s3,1.4,4,2.4s1.7,2.2,2.2,3.4c0.5,1.3,0.7,2.7,0.7,4.2C193.2,26.4,192.9,27.7,192.4,28.8z M189.9,21.7 c-0.3-1-0.9-1.9-1.6-2.8c-0.7-0.9-1.8-1.6-3.3-2.1c-1.4-0.5-3.1-0.8-5.1-0.8h-4.8v17.2h4.4c7.3,0,11-2.8,11-8.4 C190.4,23.8,190.2,22.7,189.9,21.7z"/></g></g><g id="Blue1_1_" class="st1"><g id="Blue1"><g><polygon class="st2" points="10.8,45 8.1,49.5 44.1,49.5 44.1,45 "/></g></g></g><g id="Blue2_1_" class="st1"><g id="Blue2"><g><polygon class="st2" points="53.4,0.1 43.4,19.2 46.2,19.3 41.2,40.4 46.5,40.5 51.5,19.4 54.4,19.4 "/></g></g><rect x="38.5" y="41.6" transform="matrix(0.2325 -0.9726 0.9726 0.2325 -9.9877 75.7518)" class="st2" width="9" height="5.2"/><polygon class="st2" points="44.4,49.5 42.8,49.2 43.1,48 44.6,48.5 "/><rect x="42.9" y="48.9" class="st2" width="1.5" height="0.5"/></g><g id="Blue3_1_" class="st3"><g id="Blue3" class="st4"><g><polygon class="st2" points="41.4,40 39.2,49.1 44.6,48.8 46.7,39.7 "/></g></g></g><g id="Blue4_1_" class="st1"><g id="Blue4"><g><polygon class="st2" points="22.7,29.3 17,45.1 28.3,45.1 "/></g></g></g><g id="Blue1_copy" class="st1"><g id="Blue1_4_"><g><polygon class="st0" points="10.3,0 10.3,4.5 43.6,4.5 46.3,0 "/></g></g></g><g id="Blue2_copy" class="st1"><g id="Blue2_3_"><g><polygon class="st0" points="13.1,9 7.8,9 2.8,30.1 0,30.1 0.9,49.4 10.9,30.3 8.1,30.2 "/></g></g><rect x="6.8" y="2.6" transform="matrix(0.2325 -0.9726 0.9726 0.2325 3.6175 15.0127)" class="st0" width="9" height="5.2"/><polygon class="st0" points="9.9,0 11.5,0.3 11.3,1.5 9.7,1 "/><rect x="9.9" class="st0" width="1.5" height="0.5"/></g><g id="Blue3_copy" class="st3"><g id="Blue3_4_" class="st4"><g><polygon class="st2" points="41.4,40 39.2,49.1 44.6,48.8 46.7,39.7 "/></g></g></g><g id="Blue4_copy" class="st1"><g id="Blue4_4_"><g><polygon class="st0" points="26.1,4.4 31.7,20.2 37.3,4.4 "/></g></g></g></svg> 