<svg xmlns="http://www.w3.org/2000/svg" viewBox="0 0 193.2 49.5"><style>.st0{fill:#fff}.st1{enable-background:new}.st2{fill:#81abc8}.st3{display:none;enable-background:new}.st4{display:inline}</style><g id="NULLED"><path class="st0" d="M71.4 35.2h-2.6v-21h3.8l14.1 17.3V14.2h2.6v21h-2.7L71.4 16.4v18.8zM114.2 14.2v13.1c0 2.5-.9 4.5-2.7 6s-4.3 2.3-7.6 2.3-5.8-.8-7.6-2.3c-1.8-1.5-2.7-3.5-2.7-6V14.2h2.7v13.2c0 2 .7 3.6 2 4.6 1.3 1.1 3.2 1.6 5.5 1.6s4.1-.5 5.5-1.6c1.4-1.1 2-2.6 2-4.6V14.2h2.9zM121.1 33.3h12.6v1.9h-15.4v-21h2.7l.1 19.1zM138.4 33.3H151v1.9h-15.4v-21h2.7l.1 19.1zM155.7 16.1v7.6h10.1v1.9h-10.1v7.8h13.9v1.8H153v-21h15.7v1.9h-13zM192.4 28.8c-.5 1.2-1.3 2.3-2.4 3.2s-2.4 1.7-4.1 2.3c-1.7.6-3.6.8-5.8.8h-7.8V14.2h8.1c2.3 0 4.3.3 5.9.9s3 1.4 4 2.4 1.7 2.2 2.2 3.4c.5 1.3.7 2.7.7 4.2 0 1.3-.3 2.6-.8 3.7zm-2.5-7.1c-.3-1-.9-1.9-1.6-2.8-.7-.9-1.8-1.6-3.3-2.1-1.4-.5-3.1-.8-5.1-.8h-4.8v17.2h4.4c7.3 0 11-2.8 11-8.4-.1-1-.3-2.1-.6-3.1z"/></g><g id="Blue1_1_" class="st1"><path class="st2" d="M10.8 45l-2.7 4.5h36V45z" id="Blue1"/></g><g id="Blue2_1_" class="st1"><path class="st2" d="M53.4.1l-10 19.1 2.8.1-5 21.1 5.3.1 5-21.1h2.9z" id="Blue2"/><path transform="rotate(-76.556 43.003 44.204)" class="st2" d="M38.5 41.6h9v5.2h-9z"/><path class="st2" d="M44.4 49.5l-1.6-.3.3-1.2 1.5.5z"/><path class="st2" d="M42.9 48.9h1.5v.5h-1.5z"/></g><g id="Blue3_1_" class="st3"><g id="Blue3" class="st4"><path class="st2" d="M41.4 40l-2.2 9.1 5.4-.3 2.1-9.1z"/></g></g><g id="Blue4_1_" class="st1"><path class="st2" d="M22.7 29.3L17 45.1h11.3z" id="Blue4"/></g><g id="Blue1_copy" class="st1"><path class="st0" d="M10.3 0v4.5h33.3L46.3 0z" id="Blue1_4_"/></g><g id="Blue2_copy" class="st1"><path class="st0" d="M13.1 9H7.8l-5 21.1H0l.9 19.3 10-19.1-2.8-.1z" id="Blue2_3_"/><path transform="rotate(-76.556 11.321 5.214)" class="st0" d="M6.8 2.6h9v5.2h-9z"/><path class="st0" d="M9.9 0l1.6.3-.2 1.2L9.7 1z"/><path class="st0" d="M9.9 0h1.5v.5H9.9z"/></g><g id="Blue3_copy" class="st3"><g id="Blue3_4_" class="st4"><path class="st2" d="M41.4 40l-2.2 9.1 5.4-.3 2.1-9.1z"/></g></g><g id="Blue4_copy" class="st1"><path class="st0" d="M26.1 4.4l5.6 15.8 5.6-15.8z" id="Blue4_4_"/></g></svg>