<svg xmlns="http://www.w3.org/2000/svg" id="Layer_1" viewBox="0 0 186 29">
  <style>
    .st0{fill:#FFFFFF;} .st1{fill:#7DDB90;}
  </style>
  <path id="path0_fill_1_" d="M39.5 17.4l-.7-3.7-1.8 3.4 1.7-7.4V5.2c0-.2-.1-.3-.2-.5l-4.1-3.6c-.2-.2-.4-.3-.9-.3H6.4c-.5 0-.7.1-.9.3L1.4 4.7c-.1.1-.2.3-.2.5v4.5l1.7 7.4-1.8-3.4-.7 3.7c0 .2 0 .5.1.6l3 4.3c.1.2.4.3.6.3l2.2.1c.2 0 .3.1.5.2l2.7 2c.1.1.2.2.2.3l.8 1.8c.1.2.4.4.6.5l1.3.2-.3-2.6 1.6 2.8 2.5.3-.2-2.1 1.3 2.3 2.3.3 2.3-.3 1.3-2.3-.2 2.1 2.5-.3 1.6-2.8-.3 2.6 1.3-.2c.3 0 .5-.2.6-.5l.8-1.8c.1-.1.1-.2.2-.3l2.7-2c.1-.1.3-.2.5-.2l2.2-.1c.3 0 .5-.1.6-.3l3-4.3c.8-.1.9-.3.8-.6zm-23.3 3.1L10.6 19l2.2-.3-5.6-3-.4-4-1.7-2.4L16 14.1v-2.3l1.8 3.5c.2.4.2.9 0 1.3l-1.6 3.9zm3 4.5c0 .2-.2.2-.3.1l-.8-.7c-.3-.2-.4-.6-.4-.9l.6-3.1 1.3-2.5-.4 7.1zm2.7-.6l-.8.8c-.1.1-.3 0-.3-.1l-.3-7.2 1.3 2.5.6 3.1c-.1.3-.2.6-.5.9zm11.3-12.7l-.4 4-5.6 3 2.2.3-5.6 1.5-1.6-3.9c-.2-.4-.2-.9 0-1.3l1.8-3.5v2.3l10.9-4.8-1.7 2.4z" class="st0"/>
  <path id="path1_fill_1_" d="M12.9 17.6l-1.5-1.3c-.1-.1-.2-.3-.1-.5l.5-1.6c.1-.2.3-.4.6-.3l2.9 1.1c.2.1.3.3.3.5l-.3 1.4c0 .2-.2.3-.3.3l-1.6.3c-.2.2-.4.2-.5.1z" class="st1"/>
  <path id="path2_fill_1_" d="M27 17.6l1.5-1.3c.1-.1.2-.3.1-.5l-.5-1.5c-.1-.2-.3-.4-.6-.3l-2.9 1.1c-.2.1-.3.3-.3.5l.3 1.4c0 .2.2.3.3.3l1.6.3c.3.1.4.1.5 0z" class="st1"/>
  <desc>
    Created using Figma
  </desc>
  <path id="path3_fill" d="M170.2 9.9c0-.3.2-.8.4-1l4.5-4.5c.2-.2.7-.4 1-.4h4c.3 0 .8.2 1 .4l4.5 4.5c.2.2.4.7.4 1v11c0 .3-.2.8-.4 1l-4.5 4.5c-.2.2-.7.4-1 .4h-4c-.3 0-.8-.2-1-.4l-4.5-4.5c-.2-.2-.4-.7-.4-1v-11zm4.9 1.1c-.2.2-.4.7-.4 1v6.8c0 .3.2.8.4 1l2.1 2.1c.2.2.6.4.9.4.3 0 .7-.2.9-.4l2.1-2.1c.2-.2.4-.7.4-1V12c0-.3-.2-.8-.4-1L179 8.9c-.2-.2-.6-.4-.9-.4-.3 0-.7.2-.9.4l-2.1 2.1z" class="st0"/>
  <path id="path4_fill" d="M168.3 20.9c0 .3-.2.8-.4 1l-4.5 4.5c-.2.2-.7.4-1 .4h-4c-.3 0-.8-.2-1-.4l-4.5-4.5c-.2-.2-.4-.7-.4-1v-11c0-.3.2-.8.4-1l4.5-4.5c.2-.2.7-.4 1-.4h6.6c.3 0 .6.3.6.6v3.3c0 .3-.3.6-.6.6h-4.6c-.3 0-.8.2-1 .4l-2.1 2.1c-.2.2-.4.7-.4 1v6.8c0 .3.2.8.4 1l2.1 2.1c.2.2.6.4.9.4s.7-.2.9-.4l2-2c.2-.2.1-.4-.2-.4h-1.7c-.3 0-.6-.3-.6-.6v-3.3c0-.3.3-.6.6-.6h6.4c.3 0 .6.3.6.6v5.3z" class="st0"/>
  <path id="path5_fill" d="M45.6 9.9c0-.3.2-.8.4-1l4.5-4.5c.2-.2.7-.4 1-.4h4c.3 0 .8.2 1 .4L61 8.9c.2.2.4.7.4 1v11c0 .3-.2.8-.4 1l-4.5 4.5c-.2.2-.7.4-1 .4h-4c-.3 0-.8-.2-1-.4L46 21.9c-.2-.2-.4-.7-.4-1v-11zm4.9 1.1c-.2.2-.4.7-.4 1v6.8c0 .3.2.8.4 1l2.1 2.1c.2.2.6.4.9.4.3 0 .7-.2.9-.4l2.1-2.1c.2-.2.4-.7.4-1V12c0-.3-.2-.8-.4-1l-2.1-2.1c-.2-.2-.6-.4-.9-.4-.3 0-.7.2-.9.4L50.5 11z" class="st0"/>
  <path id="path6_fill" d="M63.4 4.6c0-.3.3-.6.6-.6h10.7c.3 0 .8.2 1 .4l3.2 3.2c.2.2.4.7.4 1V15c0 .3-.2.8-.4 1l-3.2 3.2c-.2.2-.7.4-1 .4h-6.2c-.3 0-.6.3-.6.6v6.1c0 .3-.3.6-.6.6H64c-.3 0-.6-.3-.6-.6V4.6zm4.5 9.9c0 .3.3.6.6.6h4.1c.3 0 .8-.2 1-.4l.7-.7c.2-.2.4-.7.4-1v-2.4c0-.3-.2-.8-.4-1l-.8-.8c-.2-.2-.7-.4-1-.4h-4.1c-.3 0-.6.3-.6.6l.1 5.5z" class="st0"/>
  <path id="path7_fill" d="M110 15.4c.2.3.3.2.3-.1V4.6c0-.3.3-.6.6-.6h3.3c.3 0 .6.3.6.6v21.7c0 .3-.3.6-.6.6h-2c-.3 0-.7-.2-.9-.5l-7.5-11c-.2-.3-.3-.2-.3.1v10.8c0 .3-.3.6-.6.6h-3.3c-.3 0-.6-.3-.6-.6V4.6c0-.3.3-.6.6-.6h2.1c.3 0 .7.2.9.5l7.4 10.9z" class="st0"/>
  <path id="path8_fill" d="M97.1 7.7v-3c0-.4-.3-.7-.7-.7H81.9c-.4 0-.7.3-.7.7v21.4c0 .4.3.7.7.7h14.4c.4 0 .7-.3.7-.7v-3c0-.4-.3-.7-.7-.7h-9.9c-.4 0-.7-.3-.7-.7v-1.3c0-.4.3-.7.7-.7h5.4c.4 0 .7-.3.7-.7v-3c0-.4-.3-.7-.7-.7h-5.4c-.4 0-.7-.3-.7-.7V9.5c0-.4.3-.7.7-.7h9.9c.4-.3.8-.6.8-1.1z" class="st0"/>
  <path id="path9_fill" d="M128.1 19.8c-.2 0-.4.1-.5.2l-1.9 1.9c-.2.2-.6.4-.9.4-.3 0-.7-.2-.9-.4l-2.1-2.1c-.2-.2-.4-.7-.4-1V12c0-.3.2-.8.4-1l2.1-2.1c.2-.2.6-.4.9-.4.3 0 .7.2.9.4l1.9 1.9c.1.1.3.2.5.2h3.9c.4 0 .7-.3.7-.7V10c0-.3-.2-.8-.4-1l-4.5-4.5c-.2-.2-.7-.4-1-.4h-4c-.3 0-.8.2-1 .4L117.3 9c-.2.2-.4.7-.4 1v11c0 .3.2.8.4 1l4.5 4.5c.2.2.7.4 1 .4h4c.3 0 .8-.2 1-.4l4.5-4.5c.2-.2.4-.7.4-1v-.4c0-.4-.3-.7-.7-.7h-3.9v-.1z" class="st0"/>
  <path id="path10_fill" d="M142.5 8.5c.3 0 .7.2.9.4l2 2c.1.1.2.1.3.1h4.2c.3 0 .5-.2.5-.5v-.6c0-.3-.2-.8-.4-1l-4.5-4.5c-.2-.2-.7-.4-1-.4h-4c-.3 0-.8.2-1 .4L135 8.9c-.2.2-.4.7-.4 1v.3c0 .3.1.5.3.7L144 20c.4.4.4 1 0 1.4l-.5.5c-.2.2-.6.4-.9.4s-.7-.2-.9-.4l-2-2c-.1-.1-.2-.1-.3-.1h-4.3c-.3 0-.5.2-.5.5v.6c0 .3.2.8.4 1l4.5 4.5c.2.2.7.4 1 .4h4c.3 0 .8-.2 1-.4l4.5-4.5c.2-.2.4-.7.4-1v-.3c0-.3-.1-.5-.3-.7l-9.1-9.1c-.4-.4-.4-1 0-1.4l.5-.5c.4-.2.8-.4 1-.4z" class="st0"/>
</svg>
