<svg xmlns="http://www.w3.org/2000/svg" xmlns:xlink="http://www.w3.org/1999/xlink" x="0px" y="0px" viewBox="0 0 855.7 587.3" xml:space="preserve"><g id="Layer_2"></g><g id="Layer_1"><path fill="#FFFFFF" d="M744,115.5c-0.5-1.3-1-2.5-1.4-3.8c-7.4-19.3-18.6-37-32.8-52C686.4,35.1,655.7,18.1,623,9.4 c-1.3-0.3-2.7-0.7-4-1c-2.4-0.5-4.8-1.2-7.2-1.7c-2-0.5-3.9-0.8-5.9-1.3c-1.7-0.3-3.4-0.5-5-0.9c-2-0.3-4-0.6-6-1 c-2.3-0.3-4.7-0.5-7-1c-6.7-0.8-13.4-1.2-20-2c-27-1.2-54.1,0-81.1,2c-3.9,0.8-8,0.6-12,1c-3.3,0.7-6.7,0.7-10,1c-3,0.7-6,0.8-9,1 c-3.3,0.6-6.6,0.7-9.9,1.3c-2.7,0.3-5.4,0.4-8,0.9c-2.7,0.3-5.3,0.5-7.9,1c-2.4,0.3-4.7,0.5-7,1c-2.3,0.3-4.7,0.5-7,1 c-2.3,0.3-4.6,0.6-6.9,1c-7.5,1-14.9,2.4-22.4,3.7c4,45.1,42.1,460.9,48.9,535.9c3.4-0.2,111.5-9.7,122.6-10.6 c-0.1-5.4-0.9-10.7-1.3-16c-4.5-49.8-9.3-99.6-13.7-149.3c40.7-4.3,81.3-13.7,117.8-32.6c31.9-16.1,58.2-42.6,74.8-74.2 c0.8-1.6,1.6-3.2,2.4-4.8c0.6-1.3,1.3-2.7,1.9-4c0.8-2.1,1.7-4.2,2.5-6.3C759.5,209.6,759.5,159.7,744,115.5z M614.4,234.2 c-7.6,10-18.2,17.3-29.7,22.3c-1.7,0.7-3.3,1.3-5,2c-5.8,2.2-11.8,3.8-17.9,5.3c-1.7,0.3-3.4,0.6-5.1,0.9 c-7.8,1.3-15.6,2.3-23.5,2.8c-0.8-4.9-14-150.3-14.3-157.1c17.4-2.6,35.4-4.8,52.8-0.4c17,3.8,32.8,13.5,43.1,27.7 c8.6,11.6,13.5,25.7,14.5,40.1C631.2,197.3,627.1,218.5,614.4,234.2z"/><path fill="#FFFFFF" d="M368,203.6c-0.9-7.7-1.7-15.4-3-23c-0.4-1.6-0.7-3.3-1-5c-6.3-30.2-20.7-58.7-42.2-81 C303.2,75.4,280,60.7,255,51.3c-4-1.4-8-2.7-12-4c-0.5-0.1-1.6-0.4-2.2-0.5c-2.4-0.7-4.7-1.4-7.1-2c-1.6-0.4-3.3-0.8-4.9-1.3 c-17.4-4-35.2-6.4-53.1-7.3c-21.3-0.8-42.6,0.1-63.9,1.3c-20.4,1.6-40.7,3.6-61,6c-7.3,1.1-14.7,2.1-22,3 c-4.6,0.9-9.3,1.4-13.9,2.2c-2,0.3-4,0.6-6,1c-3,0.5-5.9,1.1-8.9,1.6c0,3.4,0.1,6.8,0.4,10.3C9,154.6,45.6,556,48.4,587.3 c2.8-0.1,96.3-8.2,122.8-10.8c-2.2-23-12.3-133.1-15-165.2c34-3.9,67.9-10.7,99.5-24c3.7-1.5,7.4-3.2,11.1-4.9c2-1,4-2,6-3 c1-0.5,2.1-1.1,3.2-1.6c39.8-21,70.8-58.2,84.2-101.1c0.1-0.5,0.4-1.6,0.5-2.2c1.3-4.2,2.3-8.6,3.4-12.9c0.6-3.4,1.2-6.7,1.9-10.1 c0.3-2.3,0.5-4.7,1-7c0.3-3.3,0.4-6.7,1-10C368.5,224.3,368.5,213.9,368,203.6z M242.1,235.7c-0.7,3-1.4,6.1-2,9.1c-1,3-2,6-3,9 c-7,16.8-21,30.2-37.4,37.7c-3.5,1.6-7.1,3-10.8,4.4c-1,0.3-2,0.6-3.1,1c-2.3,0.6-4.7,1.3-7,2c-1.4,0.3-2.7,0.6-4.1,1 c-3.7,0.6-7.3,1.3-11,2c-5.8,0.4-11.6,1.5-17.4,1.6c-0.2-1.6-10.1-106.3-14.5-157.2c19.1-3,39-5.1,57.8,0.8 c21.2,6,39.2,22,47.4,42.4c0.5,1.4,1,2.9,1.5,4.3c1.6,4.5,2.4,9.2,3.4,13.8C242.8,216.9,242.9,226.3,242.1,235.7z"/><path fill="#459848" d="M775,397.9c14.2-1.4,28.8,1.4,41.5,8.1c13.6,7.1,25,18.6,31.7,32.3c9.2,18.3,9.9,40.7,1.6,59.4 c-11.3,26.3-39.3,44.8-68.1,43.8c-28,0.8-55-16.9-66.5-42.2c-9.1-19.4-8.5-42.9,1.4-61.9C727.8,415.4,750.6,400,775,397.9 L775,397.9z"/></g></svg> 