<svg xmlns="http://www.w3.org/2000/svg" viewBox="0 0 855.7 587.3"><path fill="#FFF" d="M744 115.5c-.5-1.3-1-2.5-1.4-3.8-7.4-19.3-18.6-37-32.8-52-23.4-24.6-54.1-41.6-86.8-50.3-1.3-.3-2.7-.7-4-1-2.4-.5-4.8-1.2-7.2-1.7-2-.5-3.9-.8-5.9-1.3-1.7-.3-3.4-.5-5-.9-2-.3-4-.6-6-1-2.3-.3-4.7-.5-7-1-6.7-.8-13.4-1.2-20-2-27-1.2-54.1 0-81.1 2-3.9.8-8 .6-12 1-3.3.7-6.7.7-10 1-3 .7-6 .8-9 1-3.3.6-6.6.7-9.9 1.3-2.7.3-5.4.4-8 .9-2.7.3-5.3.5-7.9 1-2.4.3-4.7.5-7 1-2.3.3-4.7.5-7 1-2.3.3-4.6.6-6.9 1-7.5 1-14.9 2.4-22.4 3.7 4 45.1 42.1 460.9 48.9 535.9 3.4-.2 111.5-9.7 122.6-10.6-.1-5.4-.9-10.7-1.3-16-4.5-49.8-9.3-99.6-13.7-149.3 40.7-4.3 81.3-13.7 117.8-32.6 31.9-16.1 58.2-42.6 74.8-74.2l2.4-4.8c.6-1.3 1.3-2.7 1.9-4 .8-2.1 1.7-4.2 2.5-6.3 16.9-43.9 16.9-93.8 1.4-138zM614.4 234.2c-7.6 10-18.2 17.3-29.7 22.3-1.7.7-3.3 1.3-5 2-5.8 2.2-11.8 3.8-17.9 5.3l-5.1.9c-7.8 1.3-15.6 2.3-23.5 2.8-.8-4.9-14-150.3-14.3-157.1 17.4-2.6 35.4-4.8 52.8-.4 17 3.8 32.8 13.5 43.1 27.7 8.6 11.6 13.5 25.7 14.5 40.1 1.9 19.5-2.2 40.7-14.9 56.4zM368 203.6c-.9-7.7-1.7-15.4-3-23-.4-1.6-.7-3.3-1-5-6.3-30.2-20.7-58.7-42.2-81C303.2 75.4 280 60.7 255 51.3c-4-1.4-8-2.7-12-4-.5-.1-1.6-.4-2.2-.5-2.4-.7-4.7-1.4-7.1-2-1.6-.4-3.3-.8-4.9-1.3-17.4-4-35.2-6.4-53.1-7.3-21.3-.8-42.6.1-63.9 1.3-20.4 1.6-40.7 3.6-61 6-7.3 1.1-14.7 2.1-22 3-4.6.9-9.3 1.4-13.9 2.2-2 .3-4 .6-6 1-3 .5-5.9 1.1-8.9 1.6 0 3.4.1 6.8.4 10.3 8.6 93 45.2 494.4 48 525.7 2.8-.1 96.3-8.2 122.8-10.8-2.2-23-12.3-133.1-15-165.2 34-3.9 67.9-10.7 99.5-24 3.7-1.5 7.4-3.2 11.1-4.9l6-3c1-.5 2.1-1.1 3.2-1.6 39.8-21 70.8-58.2 84.2-101.1.1-.5.4-1.6.5-2.2 1.3-4.2 2.3-8.6 3.4-12.9.6-3.4 1.2-6.7 1.9-10.1.3-2.3.5-4.7 1-7 .3-3.3.4-6.7 1-10 .5-10.2.5-20.6 0-30.9zm-125.9 32.1c-.7 3-1.4 6.1-2 9.1l-3 9c-7 16.8-21 30.2-37.4 37.7-3.5 1.6-7.1 3-10.8 4.4-1 .3-2 .6-3.1 1-2.3.6-4.7 1.3-7 2-1.4.3-2.7.6-4.1 1-3.7.6-7.3 1.3-11 2-5.8.4-11.6 1.5-17.4 1.6-.2-1.6-10.1-106.3-14.5-157.2 19.1-3 39-5.1 57.8.8 21.2 6 39.2 22 47.4 42.4.5 1.4 1 2.9 1.5 4.3 1.6 4.5 2.4 9.2 3.4 13.8.9 9.3 1 18.7.2 28.1z"/><path fill="#459848" d="M775 397.9c14.2-1.4 28.8 1.4 41.5 8.1 13.6 7.1 25 18.6 31.7 32.3 9.2 18.3 9.9 40.7 1.6 59.4-11.3 26.3-39.3 44.8-68.1 43.8-28 .8-55-16.9-66.5-42.2-9.1-19.4-8.5-42.9 1.4-61.9 11.2-22 34-37.4 58.4-39.5z"/></svg>