<?xml version="1.0" encoding="utf-8"?><!DOCTYPE svg PUBLIC "-//W3C//DTD SVG 1.1//EN" "http://www.w3.org/Graphics/SVG/1.1/DTD/svg11.dtd"><svg version="1.1" id="Layer_1" xmlns="http://www.w3.org/2000/svg" xmlns:xlink="http://www.w3.org/1999/xlink" x="0px" y="0px" width="47.363px" height="47.34px" viewBox="7.846 7.798 47.363 47.34" enable-background="new 7.846 7.798 47.363 47.34" xml:space="preserve"><path fill="#FF5900" d="M7.846,30.818c0-11.027,8.96-21.366,20.775-22.843c8.468-0.985,14.868,2.265,19.298,6.498	c4.135,3.938,6.598,8.96,7.188,14.868c0.492,5.907-0.787,11.027-4.233,15.852c-3.446,4.727-10.24,9.945-18.708,9.945h-11.52V32.394	c0.099-5.022,1.772-9.354,7.877-11.422c5.317-1.575,11.52,1.378,13.391,6.991c1.969,6.006-0.887,10.043-4.234,12.505	s-8.566,2.462-12.012,0.099v7.778c2.265,1.083,5.12,1.378,7.188,1.28c7.482-1.084,13.292-5.317,15.754-11.717	c2.561-6.794,0.787-14.671-4.529-19.594c-6.4-5.219-13.391-6.499-20.874-2.855c-5.218,2.659-8.861,8.074-9.748,13.981v25.699H7.945	L7.846,30.818z"/></svg>