<svg xmlns="http://www.w3.org/2000/svg" width="222.409" height="164.068"><path fill="#D8452A" d="M84.619 24.74c-3.92-6.86-4.52-15.93.48-22.43-.42 4.18-1.36 8.58.46 12.58 3.66 8.69 11 15.06 18.22 20.79 16.06 12.37 34 21.92 50.86 33.08 2.85 2.07 6.739 4.36 6.14 8.48-2.15-.65-4.29-1.36-6.33-2.31-14.14-6.88-28.05-14.25-41.33-22.68-11.26-6.97-22.05-15.73-28.5-27.51z"/><path fill="#D8452A" d="M80.309 24.89c4.82 9.72 12.39 17.79 21.22 24.01 16.05 11.43 33.399 20.89 51.03 29.64l-4.261 3.39c-6.3-1.74-12.6-3.61-18.59-6.25-8.71-3.81-16.43-9.42-24.3-14.67-8.43-6.02-16.82-12.93-21.49-22.41-2.209-4.24-3.029-9.01-3.609-13.71z"/><path fill="#D8452A" d="M92.009 55.6c10.84 8.86 22.6 16.65 35.29 22.59 6.011 2.77 12.521 4.1 18.74 6.27-1.43 1.4-2.82 2.91-4.62 3.85-11.24.53-21.99-4.14-31.29-10.069-8.42-5.061-15.69-12.941-18.12-22.641z"/><path fill="#D8452A" d="M104.179 77.66c5.92 3.75 11.76 7.75 18.38 10.2 5.76 2.43 12.01 3.18 18.199 3.56-2.81 2.59-6.39 4.521-10.34 4.05-10.979-.66-22.039-7.38-26.239-17.81zM78.369 92.96c9.81-4.86 21.43-5.45 31.74-1.87.02 3.5.2 7.12 2 10.22 2.42 3.86 1.45 8.641 3.2 12.73 1.42 3.28 2.18 6.87 4.13 9.9 1.489 2.189 4.34 2.369 6.72 2.779.25 5.851.69 12.19 4.52 16.95 3.811 5.07 10.24 6.64 15.58 9.5 2.511 1 2.061 4.05 2.57 6.21-6.53.101-13.67.18-19.36-3.5-5.84-3.85-8.64-10.59-11.069-16.87-2.68-7.069-4.74-14.359-6.26-21.76-.77-3.81-2.42-8.07-6.37-9.54-5.67-2.229-11.89.7-16.18 4.45-6.64 5.8-6.53 15.99-13.31 21.7-4.08 3.819-10.54 4.449-13.67 9.39-2.02 3.5-3.31 7.57-3.24 11.64.15 3.391 5.04 2.36 6.62 4.66.6 1.311.83 2.75 1.23 4.13-4.52.13-9.04.311-13.55.04-1.8-7.2.9-14.45.7-21.71.35-2.74-.72-6.319 1.79-8.279 3.36-2.94 8.61-4.19 10.2-8.811 2.33-7.6-.99-15.79 1.67-23.35 1.539-4.609 6.389-6.529 10.339-8.609z"/><path fill="#D8452A" d="M113.199 93.86c6.95 4.25 15.22 5.989 23.27 4.39-4.1 5.42-11.88 7.59-18.09 4.73-3.4-1.76-4.28-5.74-5.18-9.12z"/><path fill="#D8452A" d="M211.339 156.9c-4.06-.061-7.97-1.24-11.97-1.78-9.61-.94-19.41.34-28.9-1.771 3.761-2.229 8.86-3.06 10.971-7.31 2.189-4.96 2.79-10.83.79-15.95-2.391-5.32-.98-11.59 1.779-16.46 3.551-5 10.65-3.54 15.32-6.71 2.65-2.58 3.68-6.29 4.85-9.689-5.489-.601-11.06-.391-16.5-1.48-4.52-.79-9.329-1.65-13.789-.17-2.851 1.35-5.261 3.41-7.881 5.13-2.06 1.28-2.09 4-2.8 6.07-.81 4.01-2.96 7.52-4.95 11.029 2.46-.579 5.61-.43 7.23-2.72 2.36-3.41 2.68-7.7 3.689-11.62.87 2.42 1.131 5.09 2.45 7.33 1.73 1.82 4.061 2.9 6.101 4.32-2.61-.13-5.21-.36-7.801-.68-1.449 2.13-2.569 4.909-5.189 5.85-2.96 1.05-5.93 2.08-8.84 3.24-5.5 2.109-12.681-.59-14.771-6.25-1.43-3.82.34-7.92 2.391-11.141 5.83-8.77 16.02-13.33 22.22-21.77 2.85-3.76 3.75-9.07 1.55-13.36-2.649-5.17-7.81-8.28-12.47-11.44-16.87-10.9-34.61-20.79-49.44-34.5C98.449 18.5 90.609 10.4 91.859 0h-.35c-1.46 3.06-3.39 6.24-2.89 9.77.63 4.53 3.21 8.51 6.1 11.93 9.05 10.5 20.78 18.14 32.35 25.57 8.63 5.89 17.87 10.81 26.78 16.27 4.01 2.54 8.149 5.25 10.84 9.27 1.93 2.64 1.01 7.17-2.29 8.22-2.65 1.05-5.92-.22-8.221 1.75-11.819 9.331-19.81 23.041-23.229 37.61-1.47 6.95-2.35 15.011 1.88 21.19 4.26 5.89 12.2 6.24 17.72 10.31 3.69 2.681 2.641 7.721 3.24 11.65 5.53.63 11.11.53 16.67.51 8.771.05 17.16-3.49 25.97-3.06 6.771-.16 13.141 2.84 19.891 2.859 3.24.301 4.55-3.119 6.09-5.3v-.76c-3.651-.709-7.361-.819-11.071-.889zm-30.63-58.49a61.912 61.912 0 0 1 5.311-.09c.569 2.359.1 5-2.61 5.64-2.701-.66-2.861-3.21-2.701-5.55zM30.329 130.815c9.06-9.171 15.21-21.16 26.17-28.41-.87 4.16-1.59 8.7-4.6 11.939-7.22 7.46-12.85 16.511-21.36 22.66-6.75 5.021-15.95 6.94-24.01 4.26-3.24-.97-5.627-3.824-6.37-6.939-.202-.847-.223-2.64 0-3.48.91-3.438 4.42-5.5 7.87-6.52-1.56 1.88-3.47 3.54-4.6 5.75-1.47 3.569 1.43 7.63 5.05 8.27 8.06 2.15 16.27-1.87 21.85-7.53z"/><path fill="#D8452A" d="M117.199 106.14c5.02 1.841 10.3 1.21 15.34-.17-1.51 2.431-2.71 5.34-5.33 6.79-2.52 1.5-5.93 1.521-8.33-.26-.989-1.98-1.27-4.21-1.68-6.36zM103.079 112.54c2.07.75 4.07 2.19 4.09 4.63.5 5.9-.74 12.98-5.97 16.55-2.45 1.931-5.43 4.011-5.72 7.41-.5 4.92 1.15 9.7 2.36 14.41 2.25.69 4.63 1.1 6.7 2.28.88 1.5 1.4 3.189 2.03 4.81-4.37-1-8.74.29-13.12.28-1.34-5.67-2.92-11.29-5.23-16.65-1.02-3.17-2.87-6.34-2.48-9.76 2.78-3.68 8.11-6.25 8.17-11.39-1.07-1.87-3.2-2.721-4.84-3.99 1.32-1.26 2.4-3.15 4.34-3.47 2.94-.271 5.82.58 8.71.989.32-2.029.61-4.069.96-6.099zM120.079 117.43c2.85-.22 5.7-.51 8.51-1.04-.85 2.221-1.699 4.431-2.64 6.62-1.271-.25-2.771.09-3.84-.76-1-1.45-1.46-3.18-2.03-4.82zM190.689 130.28c2.819-2.83 5.239-6.4 8.96-8.11 3.319-.52 6.439 1.25 9.63 1.91 4.12 1.04 8.439.62 12.57 1.64-1.851 2.63-3.74 6.05-7.421 6.101-4.189-.84-8.189-4.181-12.51-3.311-7.42 5.74-7.85 17.05-16.21 21.99-.5-4.17.07-8.35.29-12.52-.079-3.26 2.831-5.38 4.691-7.7z"/><path fill="#D8452A" d="M204.399 135.16c5.399 0 10.79 0 16.18-.01 0 5.42.021 10.85-.02 16.279-5.391.03-10.771.03-16.16-.01-.009-5.419-.009-10.839 0-16.259z"/></svg>