<svg xmlns="http://www.w3.org/2000/svg" x="0px" y="0px" width="222.409px" height="164.068px" viewBox="0 0 222.409 164.068" xml:space="preserve"><path fill="#D8452A" d="M84.619,24.74c-3.92-6.86-4.52-15.93,0.48-22.43c-0.42,4.18-1.36,8.58,0.46,12.58 c3.66,8.69,11,15.06,18.22,20.79c16.06,12.37,34,21.92,50.86,33.08c2.85,2.07,6.739,4.36,6.14,8.48c-2.15-0.65-4.29-1.36-6.33-2.31 c-14.14-6.88-28.05-14.25-41.33-22.68C101.859,45.28,91.069,36.52,84.619,24.74L84.619,24.74z"/><path fill="#D8452A" d="M80.309,24.89c4.82,9.72,12.39,17.79,21.22,24.01c16.05,11.43,33.399,20.89,51.03,29.64 c-1.42,1.13-2.841,2.26-4.261,3.39c-6.3-1.74-12.6-3.61-18.59-6.25c-8.71-3.81-16.43-9.42-24.3-14.67 c-8.43-6.02-16.82-12.93-21.49-22.41C81.709,34.36,80.889,29.59,80.309,24.89L80.309,24.89z"/><path fill="#D8452A" d="M92.009,55.6c10.84,8.86,22.6,16.65,35.29,22.59c6.011,2.77,12.521,4.1,18.74,6.27 c-1.43,1.4-2.82,2.91-4.62,3.85c-11.24,0.53-21.99-4.14-31.29-10.069C101.709,73.18,94.439,65.3,92.009,55.6L92.009,55.6z"/><path fill="#D8452A" d="M104.179,77.66c5.92,3.75,11.76,7.75,18.38,10.2c5.76,2.43,12.01,3.18,18.199,3.56 c-2.81,2.59-6.39,4.521-10.34,4.05C119.439,94.81,108.379,88.09,104.179,77.66L104.179,77.66z"/><path fill="#D8452A" d="M78.369,92.96c9.81-4.86,21.43-5.45,31.74-1.87c0.02,3.5,0.2,7.12,2,10.22c2.42,3.86,1.45,8.641,3.2,12.73 c1.42,3.28,2.18,6.87,4.13,9.9c1.489,2.189,4.34,2.369,6.72,2.779c0.25,5.851,0.69,12.19,4.52,16.95 c3.811,5.07,10.24,6.64,15.58,9.5c2.511,1,2.061,4.05,2.57,6.21c-6.53,0.101-13.67,0.18-19.36-3.5 c-5.84-3.85-8.64-10.59-11.069-16.87c-2.68-7.069-4.74-14.359-6.26-21.76c-0.77-3.81-2.42-8.07-6.37-9.54 c-5.67-2.229-11.89,0.7-16.18,4.45c-6.64,5.8-6.53,15.99-13.31,21.7c-4.08,3.819-10.54,4.449-13.67,9.39 c-2.02,3.5-3.31,7.57-3.24,11.64c0.15,3.391,5.04,2.36,6.62,4.66c0.6,1.311,0.83,2.75,1.23,4.13c-4.52,0.13-9.04,0.311-13.55,0.04 c-1.8-7.2,0.9-14.45,0.7-21.71c0.35-2.74-0.72-6.319,1.79-8.279c3.36-2.94,8.61-4.19,10.2-8.811c2.33-7.6-0.99-15.79,1.67-23.35 C69.569,96.96,74.419,95.04,78.369,92.96L78.369,92.96z"/><path fill="#D8452A" d="M113.199,93.86c6.95,4.25,15.22,5.989,23.27,4.39c-4.1,5.42-11.88,7.59-18.09,4.73 C114.979,101.22,114.099,97.24,113.199,93.86L113.199,93.86z"/><g><path fill="#D8452A" d="M211.339,156.9c-4.06-0.061-7.97-1.24-11.97-1.78c-9.61-0.94-19.41,0.34-28.9-1.771 c3.761-2.229,8.86-3.06,10.971-7.31c2.189-4.96,2.79-10.83,0.79-15.95c-2.391-5.32-0.98-11.59,1.779-16.46 c3.551-5,10.65-3.54,15.32-6.71c2.65-2.58,3.68-6.29,4.85-9.689c-5.489-0.601-11.06-0.391-16.5-1.48 c-4.52-0.79-9.329-1.65-13.789-0.17c-2.851,1.35-5.261,3.41-7.881,5.13c-2.06,1.28-2.09,4-2.8,6.07 c-0.81,4.01-2.96,7.52-4.95,11.029c2.46-0.579,5.61-0.43,7.23-2.72c2.36-3.41,2.68-7.7,3.689-11.62c0.87,2.42,1.131,5.09,2.45,7.33 c1.73,1.82,4.061,2.9,6.101,4.32c-2.61-0.13-5.21-0.36-7.801-0.68c-1.449,2.13-2.569,4.909-5.189,5.85 c-2.96,1.05-5.93,2.08-8.84,3.24c-5.5,2.109-12.681-0.59-14.771-6.25c-1.43-3.82,0.34-7.92,2.391-11.141 c5.83-8.77,16.02-13.33,22.22-21.77c2.85-3.76,3.75-9.07,1.55-13.36c-2.649-5.17-7.81-8.28-12.47-11.44 c-16.87-10.9-34.61-20.79-49.44-34.5C98.449,18.5,90.609,10.4,91.859,0h-0.35c-1.46,3.06-3.39,6.24-2.89,9.77 c0.63,4.53,3.21,8.51,6.1,11.93c9.05,10.5,20.78,18.14,32.35,25.57c8.63,5.89,17.87,10.81,26.78,16.27 c4.01,2.54,8.149,5.25,10.84,9.27c1.93,2.64,1.01,7.17-2.29,8.22c-2.65,1.05-5.92-0.22-8.221,1.75 c-11.819,9.331-19.81,23.041-23.229,37.61c-1.47,6.95-2.35,15.011,1.88,21.19c4.26,5.89,12.2,6.24,17.72,10.31 c3.69,2.681,2.641,7.721,3.24,11.65c5.53,0.63,11.11,0.53,16.67,0.51c8.771,0.05,17.16-3.49,25.97-3.06 c6.771-0.16,13.141,2.84,19.891,2.859c3.24,0.301,4.55-3.119,6.09-5.3v-0.76C218.759,157.08,215.049,156.97,211.339,156.9z M180.709,98.41c1.771-0.101,3.54-0.141,5.311-0.09c0.569,2.359,0.1,5-2.61,5.64C180.709,103.3,180.549,100.75,180.709,98.41z"/></g><path fill="#D8452A" d="M30.329,130.815c9.06-9.171,15.21-21.16,26.17-28.41c-0.87,4.16-1.59,8.7-4.6,11.939 c-7.22,7.46-12.85,16.511-21.36,22.66c-6.75,5.021-15.95,6.94-24.01,4.26c-3.24-0.97-5.627-3.824-6.37-6.939 c-0.202-0.847-0.223-2.64,0-3.48c0.91-3.438,4.42-5.5,7.87-6.52c-1.56,1.88-3.47,3.54-4.6,5.75c-1.47,3.569,1.43,7.63,5.05,8.27 C16.539,140.495,24.749,136.475,30.329,130.815L30.329,130.815z"/><path fill="#D8452A" d="M117.199,106.14c5.02,1.841,10.3,1.21,15.34-0.17c-1.51,2.431-2.71,5.34-5.33,6.79 c-2.52,1.5-5.93,1.521-8.33-0.26C117.89,110.52,117.609,108.29,117.199,106.14L117.199,106.14z"/><path fill="#D8452A" d="M103.079,112.54c2.07,0.75,4.07,2.19,4.09,4.63c0.5,5.9-0.74,12.98-5.97,16.55 c-2.45,1.931-5.43,4.011-5.72,7.41c-0.5,4.92,1.15,9.7,2.36,14.41c2.25,0.69,4.63,1.1,6.7,2.28c0.88,1.5,1.4,3.189,2.03,4.81 c-4.37-1-8.74,0.29-13.12,0.28c-1.34-5.67-2.92-11.29-5.23-16.65c-1.02-3.17-2.87-6.34-2.48-9.76c2.78-3.68,8.11-6.25,8.17-11.39 c-1.07-1.87-3.2-2.721-4.84-3.99c1.32-1.26,2.4-3.15,4.34-3.47c2.94-0.271,5.82,0.58,8.71,0.989 C102.439,116.61,102.729,114.57,103.079,112.54L103.079,112.54z"/><path fill="#D8452A" d="M120.079,117.43c2.85-0.22,5.7-0.51,8.51-1.04c-0.85,2.221-1.699,4.431-2.64,6.62 c-1.271-0.25-2.771,0.09-3.84-0.76C121.109,120.8,120.649,119.07,120.079,117.43L120.079,117.43z"/><path fill="#D8452A" d="M190.689,130.28c2.819-2.83,5.239-6.4,8.96-8.11c3.319-0.52,6.439,1.25,9.63,1.91 c4.12,1.04,8.439,0.62,12.57,1.64c-1.851,2.63-3.74,6.05-7.421,6.101c-4.189-0.84-8.189-4.181-12.51-3.311 c-7.42,5.74-7.85,17.05-16.21,21.99c-0.5-4.17,0.07-8.35,0.29-12.52C185.919,134.72,188.829,132.6,190.689,130.28L190.689,130.28z"/><path fill="#D8452A" d="M204.399,135.16c5.399,0,10.79,0,16.18-0.01c0,5.42,0.021,10.85-0.02,16.279 c-5.391,0.03-10.771,0.03-16.16-0.01C204.39,146,204.39,140.58,204.399,135.16L204.399,135.16z"/></svg>