<svg width="3086" height="1000" xmlns="http://www.w3.org/2000/svg"><defs><radialGradient cx="89.267%" cy="49.76%" fx="89.267%" fy="49.76%" r="92.5%" id="a"><stop stop-color="#F9BE03" offset="0%"/><stop stop-color="#CC7C19" offset="100%"/></radialGradient></defs><g fill="none" fill-rule="evenodd"><path d="M3085.99 0h-290.001L2505.99 500l289.999 500h289.748l-289.748-499.75L3085.99 0" fill="#FFF"/><path d="M2186 0h290l320 500.25-320 500.25h-290l320-500.25L2186 0" fill="url(#a)"/><path d="M2085.947 1000h-577.073V0h577.073v173.737h-364.608v219.562h339.255V567.03h-339.255v257.865h364.608V1000M791.276 1000V0h212.04v824.895h405.609V1000H791.276" fill="#FFF"/><g fill="#FFF"><path d="M589.947 558.824c-67.268 57.007-162.91 85.501-286.938 85.501H212.04V1000H0V470.338l290 .36c177.563-2.07 186.842-110.819 186.842-148.498 0-34.979 0-146.755-157.842-148.5l-319 .003V0h319.424c121.293 0 213.515 26.107 276.677 78.321 63.152 52.213 94.733 130.071 94.733 233.581 0 107.625-33.632 189.928-100.887 246.922z"/><path d="M0 110h212.2v429H0z"/></g></g></svg>