<svg xmlns="http://www.w3.org/2000/svg" xmlns:xlink="http://www.w3.org/1999/xlink" x="0px" y="0px" width="451.1px" height="424.2px" viewBox="0 0 451.1 424.2" xml:space="preserve"><path fill="#FFF200" stroke="#000000" stroke-width="2.808" stroke-linecap="round" stroke-linejoin="round" d="M160.5,320.1 l-46.9-17.6l15-20.1c0,0-51.9-16.7-64.4-21.7l42.7-87.1l-90.4-8.4L1.4,88l180.9,43.6l-62,108.9l48.6,21.7l-26.9,33.5l30.2,20.2 L160.5,320.1z"/><polygon fill="#F2D200" points="114.6,302.2 129.6,282.1 128.8,281.8 128.8,281.8 128.6,281.7 128.3,281.6 128,281.6 127.6,281.4 127.1,281.3 126.6,281.1 126,280.9 125.5,280.7 124.7,280.5 124,280.3 123.2,280 122.4,279.7 121.5,279.4 120.6,279.1 119.6,278.8 118.5,278.5 117.5,278.1 116.4,277.7 115.3,277.4 114.2,277 112.9,276.7 111.7,276.2 110.5,275.9 109.3,275.4 108,275 106.7,274.6 105.3,274.1 103.9,273.6 101.6,272.8 101.3,272.1 117.3,276 110.6,263.3 127.6,265.7 123.8,253.4 140.7,258.7 137.3,248.7 168,262.5 141.3,295.9 171,315.7 160.5,319.4 "/><path fill="#F2D200" stroke="#000000" stroke-width="2.808" stroke-linecap="round" stroke-linejoin="round" d="M191.5,383.6 c0,0-21.7,22-25.6,34.6c-4,12.7,37.9-2.2,64.6-25.1C257.1,369.9,191.5,383.6,191.5,383.6z"/><path fill="#F2D200" stroke="#000000" stroke-width="2.808" stroke-linecap="round" stroke-linejoin="round" d="M335.8,383.6 c0,0,21.7,22,25.6,34.6c4,12.7-37.9-2.2-64.6-25.1C270.1,369.9,335.8,383.6,335.8,383.6z"/><path fill="#FFF200" stroke="#000000" stroke-width="2.808" stroke-linecap="round" stroke-linejoin="round" d="M179.3,198.4 c-12.6-13.2-20.9-36.1-18.1-50.8c3.1-15.9,9.3-31.6,10.4-40.2c1-8.6,7-26.9,7.3-26.8c-16.8-5.4-37.5-15.3-51.5-28.5 c-14-13.2-46-42.4-42.7-48.9c3.5-6.7,47.2,7.7,69,14.8c22,7.1,47.7,28.5,47.4,28.9c0.1,0.4,35.4-17,68.3-16.3 c32.8,0.6,52.8,9,63.6,15.9c-0.2-0.1,25.5-21.5,47.4-28.6c21.9-7.1,65.6-21.5,69-14.8c3.3,6.5-28.7,35.7-42.7,48.9 c-14,13.2-32.1,23.1-48.9,28.5c0.3-0.1,6.1,11.1,7.9,22.3c1.7,11.2,5,27.7,9.1,43.4c3.2,12.7-2.3,39-16.1,53.1 c-1.8,2.5,29.3,72,25,110.4c-4.4,38.4-13.3,66-37.2,78.1c-23.6,12-123.6,5-148.6-1.5c-22.7-6-41-32.9-49.7-73.5 S179.9,200,179.3,198.4z"/><path d="M329.6,95.7c9.9,0,18,7.2,18,16.1s-8.1,16.1-18,16.1c-9.9,0-18-7.2-18-16.1S319.7,95.7,329.6,95.7z"/><path d="M209.3,96.8c9.9,0,18,7.2,18,16.1c0,8.8-8.1,16-18,16c-9.9,0-18-7.2-18-16C191.3,104,199.4,96.8,209.3,96.8z"/><path d="M260.2,132.7l4.8,5c0.6,0.6,1.2,0.6,1.9-0.1l5.5-5.1c0.4-0.6,0.1-0.9-0.5-0.8H261C260,131.8,259.8,132.2,260.2,132.7z"/><path fill="#A25641" stroke="#000000" stroke-width="2.808" stroke-linecap="round" stroke-linejoin="round" d="M247.6,161.3 c13.8-2.7,18.7-7.5,18.7-7.5s3.7,4.5,15.7,7.3C266.9,215.6,247.6,162.6,247.6,161.3z"/><path stroke="#000000" stroke-width="0.216" d="M409,50c14.8-14,43.6-40.7,40.5-46.9c-1.9-3.9-17.4-0.7-34.3,4 c-0.5,2.7,3.2,12.5-1.4,26.7C412.2,38.9,410.5,44.5,409,50z"/><path stroke="#000000" stroke-width="0.216" d="M124.8,8.8c-19-5.5-37.9-10-40.1-5.7c-3.3,6.5,28.7,35.7,42.7,48.9 c2.3,2.2,4.8,4.3,7.6,6.5c-1.8-8.8-5.2-20.2-8.2-29.7C124.2,20.4,124.3,13.6,124.8,8.8z"/><path fill="#ED1C24" stroke="#000000" stroke-width="2.808" stroke-linecap="round" stroke-linejoin="round" d="M347.1,146.3 c8.8,0,16,7.5,16,16.6c0,9.1-7.2,16.6-16,16.6c-8.8,0-16-7.5-16-16.6C331.1,153.8,338.3,146.3,347.1,146.3z"/><path fill="#ED1C24" stroke="#000000" stroke-width="2.808" stroke-linecap="round" stroke-linejoin="round" d="M188.6,141.2 c8.8,0,16,7.5,16,16.6c0,9.1-7.2,16.6-16,16.6s-16-7.4-16-16.6C172.6,148.7,179.8,141.2,188.6,141.2z"/><path fill="#ED1C24" stroke="#000000" stroke-width="2.808" stroke-linecap="round" stroke-linejoin="round" d="M280,167.9 c-11.3,32.8-24.2,12.4-29.6,0.4c3.9-3.8,9.1-6.2,15-6.2C270.9,162.1,276.1,164.3,280,167.9z"/><g><path fill="none" stroke="#000000" stroke-width="2.808" stroke-linecap="round" stroke-linejoin="round" d="M266.4,153.6 c7.1,6.3,25.8,13.5,32.1,0.8"/></g><g><path fill="none" stroke="#000000" stroke-width="2.808" stroke-linecap="round" stroke-linejoin="round" d="M266.4,153.6 c-7.2,5.8-25.8,13.5-32.2,0.8"/></g><path fill="#FFFFFF" d="M267.1,132.6c1.7,0,3,0.4,3,0.9c0,0.6-1.3,1-3,1c-1.6,0-2.9-0.4-2.9-1C264.2,133,265.5,132.6,267.1,132.6z" /><g><path fill="none" stroke="#000000" stroke-width="3.168" stroke-linecap="round" stroke-linejoin="round" d="M227.1,231 c0,0,7.6,5.1,14.8,32.1c4.4,16.6,11.3,20.4,13.2,24.7c1.9,4.4,4.3,10.6-1.4,7.2c-5.7-3.4-7.4-3-5.2,1.6c2.3,4.6,1.1,7.5-7.1,1.5 c-6-4.4-6,0.5-4.2,3s1.7,9.5-5.5,3.3c-7.1-6.1-9.2-3.6-7.1,0.8c2.1,4.3,3.7,9.8-7.1,2.2c-3.2-2.2-8.1-12-12.8-17.2 c-11.2-12.5-24.3-24.5-28.8-42.3"/></g><g><path fill="none" stroke="#000000" stroke-width="3.456" stroke-linecap="round" stroke-linejoin="round" d="M308.3,242.7 c0,0-6.4,6-7.7,31.2c-0.9,15.6-6.8,20.2-7.8,24.3c-1,4.2-2,10.2,2.9,6.1c4.8-4,6.6-4.1,5.3,0.4c-1.2,4.5,0.6,6.8,7.3-0.1 c5-5,5.9-0.6,4.8,1.9c-1.2,2.6,0.4,8.7,6,1.9c5.6-6.8,8.3-5,7.1-0.7s-1.6,9.4,7.4,0.7c2.7-2.6,5.4-12.1,8.9-17.6 c8.4-13.2,18.6-26.2,19.2-42.9"/></g><g><line fill="none" stroke="#000000" stroke-width="0.936" x1="166.1" y1="421.4" x2="178.2" y2="408.1"/></g><g><line fill="none" stroke="#000000" stroke-width="0.936" x1="361.2" y1="421.4" x2="349.1" y2="408.1"/></g><g><line fill="none" stroke="#000000" stroke-width="0.936" x1="169.8" y1="422.3" x2="185.7" y2="411.6"/></g><g><line fill="none" stroke="#000000" stroke-width="0.936" x1="357.5" y1="422.3" x2="341.7" y2="411.6"/></g><path fill="#F2D200" d="M405.2,52.8c-13.8,12.5-31.2,21.9-47.4,27.1h-0.1c-4.1-7.8-8.4-18.1-11.7-19.2C372,64.2,391.8,59,405.2,52.8 z"/><path fill="#F2D200" d="M135.6,58.2c15,10.5,29,17.3,43.8,21.7c4.2-7.8,8.1-15,11.4-19C164.7,64.4,149,64.4,135.6,58.2z"/><path fill="#F2D200" d="M241.9,219c1.9,2.3,34,9.4,52.3-0.1C266.7,257,240.5,219.3,241.9,219z"/><path fill="#FFFFFF" d="M335.7,99.5c2.9,0,5.2,2.3,5.2,5c0,2.8-2.3,5-5.2,5c-2.8,0-5.1-2.2-5.1-5C330.6,101.8,332.9,99.5,335.7,99.5 z"/><path fill="#FFFFFF" d="M215.5,100.6c2.8,0,5.1,2.2,5.1,5s-2.3,5-5.1,5c-2.9,0-5.2-2.2-5.2-5S212.6,100.6,215.5,100.6z"/><path fill="#F2D200" d="M175.8,249.3c-1.4,8.4-2.3,15.3,10.5,35.8c12.7,20.4,28.7,21.4,28.7,21.4s-6.8-10.4-9.5-14 s-9.8-10.2-14.5-16C188.1,273.3,179.5,262.5,175.8,249.3z"/><path fill="#F2D200" d="M359,378.3c-3.6,3.5-7.7,6.6-12.5,8.9c-23.6,12-123.6,5-148.6-1.6c-12.5-3.2-23.7-13-32.7-27.8 c13.1,8.1,32.2,18.6,42.8,19.7c17.4,1.7,38-5.1,52.8-4.7c14.8,0.4,34.6,8.9,56.9,8.9C332,381.6,346,381.1,359,378.3z"/><path fill="#F2D200" d="M360.5,260.1c0,0-2.3,5.5-4.3,9.9c-1.9,4.3-6.5,11.3-8.3,13.7c-1.8,2.3-4.8,7-5.9,9.1 c-2,4.1-3.5,8.8-5.9,12.6c0,0,4.1-3.7,6.5-7c2.3-3.2,8.6-9.9,12.2-15.8C358.3,276.7,360.5,260.1,360.5,260.1z"/></svg> 