<svg xmlns="http://www.w3.org/2000/svg" width="451.1" height="424.2"><path fill="#FFF200" stroke="#000" stroke-width="2.808" stroke-linecap="round" stroke-linejoin="round" d="M160.5 320.1l-46.9-17.6 15-20.1s-51.9-16.7-64.4-21.7l42.7-87.1-90.4-8.4L1.4 88l180.9 43.6-62 108.9 48.6 21.7-26.9 33.5 30.2 20.2-11.7 4.2z"/><path fill="#F2D200" d="M114.6 302.2l15-20.1-.8-.3-.2-.1-.3-.1h-.3l-.4-.2-.5-.1-.5-.2-.6-.2-.5-.2-.8-.2-.7-.2-.8-.3-.8-.3-.9-.3-.9-.3-1-.3-1.1-.3-1-.4-1.1-.4-1.1-.3-1.1-.4-1.3-.3-1.2-.5-1.2-.3-1.2-.5-1.3-.4-1.3-.4-1.4-.5-1.4-.5-2.3-.8-.3-.7 16 3.9-6.7-12.7 17 2.4-3.8-12.3 16.9 5.3-3.4-10 30.7 13.8-26.7 33.4 29.7 19.8-10.5 3.7z"/><path fill="#F2D200" stroke="#000" stroke-width="2.808" stroke-linecap="round" stroke-linejoin="round" d="M191.5 383.6s-21.7 22-25.6 34.6c-4 12.7 37.9-2.2 64.6-25.1 26.6-23.2-39-9.5-39-9.5zM335.8 383.6s21.7 22 25.6 34.6c4 12.7-37.9-2.2-64.6-25.1-26.7-23.2 39-9.5 39-9.5z"/><path fill="#FFF200" stroke="#000" stroke-width="2.808" stroke-linecap="round" stroke-linejoin="round" d="M179.3 198.4c-12.6-13.2-20.9-36.1-18.1-50.8 3.1-15.9 9.3-31.6 10.4-40.2 1-8.6 7-26.9 7.3-26.8-16.8-5.4-37.5-15.3-51.5-28.5S81.4 9.7 84.7 3.2c3.5-6.7 47.2 7.7 69 14.8 22 7.1 47.7 28.5 47.4 28.9.1.4 35.4-17 68.3-16.3 32.8.6 52.8 9 63.6 15.9-.2-.1 25.5-21.5 47.4-28.6 21.9-7.1 65.6-21.5 69-14.8 3.3 6.5-28.7 35.7-42.7 48.9-14 13.2-32.1 23.1-48.9 28.5.3-.1 6.1 11.1 7.9 22.3 1.7 11.2 5 27.7 9.1 43.4 3.2 12.7-2.3 39-16.1 53.1-1.8 2.5 29.3 72 25 110.4-4.4 38.4-13.3 66-37.2 78.1-23.6 12-123.6 5-148.6-1.5-22.7-6-41-32.9-49.7-73.5s31.7-112.8 31.1-114.4z"/><path d="M329.6 95.7c9.9 0 18 7.2 18 16.1s-8.1 16.1-18 16.1-18-7.2-18-16.1 8.1-16.1 18-16.1zM209.3 96.8c9.9 0 18 7.2 18 16.1 0 8.8-8.1 16-18 16s-18-7.2-18-16c0-8.9 8.1-16.1 18-16.1zM260.2 132.7l4.8 5c.6.6 1.2.6 1.9-.1l5.5-5.1c.4-.6.1-.9-.5-.8H261c-1 .1-1.2.5-.8 1z"/><path fill="#A25641" stroke="#000" stroke-width="2.808" stroke-linecap="round" stroke-linejoin="round" d="M247.6 161.3c13.8-2.7 18.7-7.5 18.7-7.5s3.7 4.5 15.7 7.3c-15.1 54.5-34.4 1.5-34.4.2z"/><path stroke="#000" stroke-width=".216" d="M409 50c14.8-14 43.6-40.7 40.5-46.9-1.9-3.9-17.4-.7-34.3 4-.5 2.7 3.2 12.5-1.4 26.7-1.6 5.1-3.3 10.7-4.8 16.2zM124.8 8.8c-19-5.5-37.9-10-40.1-5.7-3.3 6.5 28.7 35.7 42.7 48.9 2.3 2.2 4.8 4.3 7.6 6.5-1.8-8.8-5.2-20.2-8.2-29.7-2.6-8.4-2.5-15.2-2-20z"/><path fill="#ED1C24" stroke="#000" stroke-width="2.808" stroke-linecap="round" stroke-linejoin="round" d="M347.1 146.3c8.8 0 16 7.5 16 16.6 0 9.1-7.2 16.6-16 16.6s-16-7.5-16-16.6c0-9.1 7.2-16.6 16-16.6zM188.6 141.2c8.8 0 16 7.5 16 16.6 0 9.1-7.2 16.6-16 16.6s-16-7.4-16-16.6c0-9.1 7.2-16.6 16-16.6zM280 167.9c-11.3 32.8-24.2 12.4-29.6.4 3.9-3.8 9.1-6.2 15-6.2 5.5 0 10.7 2.2 14.6 5.8z"/><path fill="none" stroke="#000" stroke-width="2.808" stroke-linecap="round" stroke-linejoin="round" d="M266.4 153.6c7.1 6.3 25.8 13.5 32.1.8M266.4 153.6c-7.2 5.8-25.8 13.5-32.2.8"/><path fill="#FFF" d="M267.1 132.6c1.7 0 3 .4 3 .9 0 .6-1.3 1-3 1-1.6 0-2.9-.4-2.9-1 0-.5 1.3-.9 2.9-.9z"/><path fill="none" stroke="#000" stroke-width="3.168" stroke-linecap="round" stroke-linejoin="round" d="M227.1 231s7.6 5.1 14.8 32.1c4.4 16.6 11.3 20.4 13.2 24.7 1.9 4.4 4.3 10.6-1.4 7.2-5.7-3.4-7.4-3-5.2 1.6 2.3 4.6 1.1 7.5-7.1 1.5-6-4.4-6 .5-4.2 3s1.7 9.5-5.5 3.3c-7.1-6.1-9.2-3.6-7.1.8 2.1 4.3 3.7 9.8-7.1 2.2-3.2-2.2-8.1-12-12.8-17.2-11.2-12.5-24.3-24.5-28.8-42.3"/><path fill="none" stroke="#000" stroke-width="3.456" stroke-linecap="round" stroke-linejoin="round" d="M308.3 242.7s-6.4 6-7.7 31.2c-.9 15.6-6.8 20.2-7.8 24.3-1 4.2-2 10.2 2.9 6.1 4.8-4 6.6-4.1 5.3.4-1.2 4.5.6 6.8 7.3-.1 5-5 5.9-.6 4.8 1.9-1.2 2.6.4 8.7 6 1.9 5.6-6.8 8.3-5 7.1-.7s-1.6 9.4 7.4.7c2.7-2.6 5.4-12.1 8.9-17.6 8.4-13.2 18.6-26.2 19.2-42.9"/><path fill="none" stroke="#000" stroke-width=".936" d="M166.1 421.4l12.1-13.3M361.2 421.4l-12.1-13.3M169.8 422.3l15.9-10.7M357.5 422.3l-15.8-10.7"/><path fill="#F2D200" d="M405.2 52.8c-13.8 12.5-31.2 21.9-47.4 27.1h-.1c-4.1-7.8-8.4-18.1-11.7-19.2 26 3.5 45.8-1.7 59.2-7.9zM135.6 58.2c15 10.5 29 17.3 43.8 21.7 4.2-7.8 8.1-15 11.4-19-26.1 3.5-41.8 3.5-55.2-2.7zM241.9 219c1.9 2.3 34 9.4 52.3-.1-27.5 38.1-53.7.4-52.3.1z"/><path fill="#FFF" d="M335.7 99.5c2.9 0 5.2 2.3 5.2 5 0 2.8-2.3 5-5.2 5-2.8 0-5.1-2.2-5.1-5 0-2.7 2.3-5 5.1-5zM215.5 100.6c2.8 0 5.1 2.2 5.1 5s-2.3 5-5.1 5c-2.9 0-5.2-2.2-5.2-5s2.3-5 5.2-5z"/><path fill="#F2D200" d="M175.8 249.3c-1.4 8.4-2.3 15.3 10.5 35.8 12.7 20.4 28.7 21.4 28.7 21.4s-6.8-10.4-9.5-14-9.8-10.2-14.5-16c-2.9-3.2-11.5-14-15.2-27.2zM359 378.3c-3.6 3.5-7.7 6.6-12.5 8.9-23.6 12-123.6 5-148.6-1.6-12.5-3.2-23.7-13-32.7-27.8 13.1 8.1 32.2 18.6 42.8 19.7 17.4 1.7 38-5.1 52.8-4.7 14.8.4 34.6 8.9 56.9 8.9 14.3-.1 28.3-.6 41.3-3.4zM360.5 260.1s-2.3 5.5-4.3 9.9c-1.9 4.3-6.5 11.3-8.3 13.7-1.8 2.3-4.8 7-5.9 9.1-2 4.1-3.5 8.8-5.9 12.6 0 0 4.1-3.7 6.5-7 2.3-3.2 8.6-9.9 12.2-15.8 3.5-5.9 5.7-22.5 5.7-22.5z"/></svg>