<svg version="1.2" baseProfile="tiny" id="Layer_1" xmlns="http://www.w3.org/2000/svg" xmlns:xlink="http://www.w3.org/1999/xlink" x="0px" y="0px" viewBox="0 0 714.5 64.1" overflow="auto" xml:space="preserve"><g><path fill="#FFFFFF" d="M0,49.5V0h16c6.1,0,10,0.2,11.9,0.7c2.8,0.7,5.2,2.4,7.1,4.8c1.9,2.5,2.9,5.7,2.9,9.6c0,3-0.6,5.6-1.7,7.7c-1.1,2.1-2.5,3.7-4.2,4.9s-3.4,2-5.2,2.3c-2.4,0.5-5.8,0.7-10.4,0.7H10v18.7H0z M10,8.4v14.1h5.5c3.9,0,6.6-0.3,7.9-0.8c1.3-0.5,2.4-1.3,3.1-2.4c0.8-1.1,1.1-2.4,1.1-3.9c0-1.8-0.5-3.3-1.6-4.5C25,9.7,23.7,9,22,8.7c-1.2-0.2-3.6-0.3-7.2-0.3H10z"/><path fill="#FFFFFF" d="M55.2,49.5h-9.5V13.7h8.8v5.1c1.5-2.4,2.9-4,4.1-4.8c1.2-0.8,2.6-1.1,4.1-1.1c2.2,0,4.2,0.6,6.3,1.8L66,22.9c-1.6-1-3.1-1.6-4.5-1.6c-1.3,0-2.5,0.4-3.4,1.1c-0.9,0.7-1.7,2.1-2.2,4c-0.5,1.9-0.8,5.9-0.8,12V49.5z"/><path fill="#FFFFFF" d="M70.8,31.1c0-3.2,0.8-6.2,2.3-9.2c1.6-3,3.8-5.2,6.6-6.8s6-2.3,9.5-2.3c5.4,0,9.9,1.8,13.3,5.3c3.5,3.5,5.2,8,5.2,13.4c0,5.4-1.8,9.9-5.3,13.5c-3.5,3.6-7.9,5.4-13.2,5.4c-3.3,0-6.4-0.7-9.4-2.2c-3-1.5-5.3-3.7-6.8-6.5S70.8,35.2,70.8,31.1z M80.6,31.6c0,3.6,0.8,6.3,2.5,8.2c1.7,1.9,3.8,2.8,6.3,2.8c2.5,0,4.6-0.9,6.2-2.8c1.7-1.9,2.5-4.6,2.5-8.2c0-3.5-0.8-6.2-2.5-8.1c-1.7-1.9-3.8-2.8-6.2-2.8c-2.5,0-4.6,0.9-6.3,2.8C81.4,25.3,80.6,28,80.6,31.6z"/><path fill="#FFFFFF" d="M114.4,51.9l10.8,1.3c0.2,1.3,0.6,2.1,1.3,2.6c0.9,0.7,2.3,1,4.3,1c2.5,0,4.3-0.4,5.6-1.1c0.8-0.5,1.5-1.3,1.9-2.4c0.3-0.8,0.4-2.2,0.4-4.4v-5.2c-2.8,3.9-6.4,5.8-10.7,5.8c-4.8,0-8.6-2-11.5-6.1c-2.2-3.2-3.3-7.2-3.3-12c0-6,1.4-10.6,4.3-13.8c2.9-3.2,6.5-4.8,10.8-4.8c4.4,0,8.1,1.9,11,5.8v-5h8.9v32.2c0,4.2-0.3,7.4-1,9.5c-0.7,2.1-1.7,3.7-2.9,4.9c-1.3,1.2-2.9,2.1-5.1,2.8c-2.1,0.7-4.8,1-8,1c-6.1,0-10.4-1-12.9-3.1c-2.5-2.1-3.8-4.7-3.8-7.9C114.4,52.7,114.4,52.3,114.4,51.9z M122.9,30.8c0,3.8,0.7,6.6,2.2,8.4c1.5,1.8,3.3,2.7,5.5,2.7c2.3,0,4.3-0.9,5.9-2.7c1.6-1.8,2.4-4.5,2.4-8.1c0-3.7-0.8-6.5-2.3-8.3c-1.5-1.8-3.5-2.7-5.8-2.7c-2.3,0-4.2,0.9-5.6,2.7C123.6,24.5,122.9,27.2,122.9,30.8z"/><path fill="#FFFFFF" d="M166.6,49.5h-9.5V13.7h8.8v5.1c1.5-2.4,2.9-4,4.1-4.8c1.2-0.8,2.6-1.1,4.1-1.1c2.2,0,4.2,0.6,6.3,1.8l-2.9,8.3c-1.6-1-3.1-1.6-4.5-1.6c-1.3,0-2.5,0.4-3.4,1.1c-0.9,0.7-1.7,2.1-2.2,4c-0.5,1.9-0.8,5.9-0.8,12V49.5z"/><path fill="#FFFFFF" d="M191.6,24.6L183,23c1-3.5,2.6-6,5-7.7c2.4-1.7,5.9-2.5,10.5-2.5c4.2,0,7.4,0.5,9.5,1.5c2.1,1,3.5,2.3,4.4,3.8s1.3,4.4,1.3,8.5l-0.1,11.1c0,3.2,0.2,5.5,0.5,7s0.9,3.1,1.7,4.8h-9.4c-0.2-0.6-0.6-1.6-0.9-2.8c-0.2-0.6-0.3-0.9-0.3-1.1c-1.6,1.6-3.4,2.8-5.2,3.5c-1.8,0.8-3.8,1.2-5.9,1.2c-3.7,0-6.6-1-8.7-3c-2.1-2-3.2-4.5-3.2-7.6c0-2,0.5-3.8,1.5-5.4c1-1.6,2.3-2.8,4.1-3.6s4.3-1.6,7.6-2.2c4.4-0.8,7.5-1.6,9.2-2.3v-0.9c0-1.8-0.5-3.1-1.4-3.9c-0.9-0.8-2.6-1.2-5.1-1.2c-1.7,0-3,0.3-4,1C192.9,21.8,192.2,22.9,191.6,24.6z M204.3,32.3c-1.2,0.4-3.1,0.9-5.8,1.5c-2.6,0.6-4.4,1.1-5.2,1.7c-1.2,0.9-1.9,2-1.9,3.3c0,1.3,0.5,2.5,1.5,3.4c1,1,2.3,1.5,3.8,1.5c1.7,0,3.3-0.6,4.9-1.7c1.1-0.9,1.9-1.9,2.3-3.1c0.2-0.8,0.4-2.4,0.4-4.6V32.3z"/><path fill="#FFFFFF" d="M222.3,13.7h8.8v4.9c3.1-3.8,6.9-5.7,11.2-5.7c2.3,0,4.3,0.5,6,1.4c1.7,0.9,3.1,2.4,4.2,4.3c1.6-1.9,3.3-3.3,5.1-4.3c1.8-0.9,3.8-1.4,5.8-1.4c2.6,0,4.9,0.5,6.7,1.6c1.8,1.1,3.2,2.6,4.1,4.7c0.7,1.5,1,4,1,7.4v22.9h-9.5V29c0-3.6-0.3-5.9-1-6.9c-0.9-1.4-2.2-2-4.1-2c-1.3,0-2.6,0.4-3.8,1.2c-1.2,0.8-2,2-2.5,3.6c-0.5,1.6-0.8,4-0.8,7.4v17.2H244V29.9c0-3.5-0.2-5.7-0.5-6.8s-0.9-1.8-1.6-2.3c-0.7-0.5-1.7-0.7-2.9-0.7c-1.5,0-2.8,0.4-4,1.2c-1.2,0.8-2,1.9-2.5,3.4c-0.5,1.5-0.8,4-0.8,7.4v17.4h-9.5V13.7z"/><path fill="#FFFFFF" d="M283.8,13.7h8.8v4.9c3.1-3.8,6.9-5.7,11.2-5.7c2.3,0,4.3,0.5,6,1.4c1.7,0.9,3.1,2.4,4.2,4.3c1.6-1.9,3.3-3.3,5.1-4.3c1.8-0.9,3.8-1.4,5.8-1.4c2.6,0,4.9,0.5,6.7,1.6c1.8,1.1,3.2,2.6,4.1,4.7c0.7,1.5,1,4,1,7.4v22.9h-9.5V29c0-3.6-0.3-5.9-1-6.9c-0.9-1.4-2.2-2-4.1-2c-1.3,0-2.6,0.4-3.8,1.2c-1.2,0.8-2,2-2.5,3.6s-0.8,4-0.8,7.4v17.2h-9.5V29.9c0-3.5-0.2-5.7-0.5-6.8s-0.9-1.8-1.6-2.3c-0.7-0.5-1.7-0.7-2.9-0.7c-1.5,0-2.8,0.4-4,1.2c-1.2,0.8-2,1.9-2.5,3.4c-0.5,1.5-0.8,4-0.8,7.4v17.4h-9.5V13.7z"/><path fill="#FFFFFF" d="M346,8.8V0h9.5v8.8H346z M346,49.5V13.7h9.5v35.9H346z"/><path fill="#FFFFFF" d="M397.9,49.5h-9.5V31.2c0-3.9-0.2-6.4-0.6-7.5s-1.1-2-2-2.7s-2-0.9-3.3-0.9c-1.6,0-3.1,0.5-4.4,1.4c-1.3,0.9-2.2,2.1-2.7,3.6c-0.5,1.5-0.7,4.2-0.7,8.2v16.3h-9.5V13.7h8.8v5.3c3.1-4.1,7.1-6.1,11.8-6.1c2.1,0,4,0.4,5.7,1.1c1.7,0.8,3,1.7,3.9,2.9c0.9,1.2,1.5,2.5,1.9,4c0.3,1.5,0.5,3.6,0.5,6.4V49.5z"/><path fill="#FFFFFF" d="M406.6,51.9l10.8,1.3c0.2,1.3,0.6,2.1,1.3,2.6c0.9,0.7,2.3,1,4.3,1c2.5,0,4.3-0.4,5.6-1.1c0.8-0.5,1.5-1.3,1.9-2.4c0.3-0.8,0.4-2.2,0.4-4.4v-5.2c-2.8,3.9-6.4,5.8-10.7,5.8c-4.8,0-8.6-2-11.5-6.1c-2.2-3.2-3.3-7.2-3.3-12c0-6,1.4-10.6,4.3-13.8c2.9-3.2,6.5-4.8,10.8-4.8c4.4,0,8.1,1.9,11,5.8v-5h8.9v32.2c0,4.2-0.3,7.4-1,9.5c-0.7,2.1-1.7,3.7-2.9,4.9c-1.3,1.2-2.9,2.1-5.1,2.8c-2.1,0.7-4.8,1-8,1c-6.1,0-10.4-1-12.9-3.1c-2.5-2.1-3.8-4.7-3.8-7.9C406.6,52.7,406.6,52.3,406.6,51.9z M415.1,30.8c0,3.8,0.7,6.6,2.2,8.4s3.3,2.7,5.5,2.7c2.3,0,4.3-0.9,5.9-2.7s2.4-4.5,2.4-8.1c0-3.7-0.8-6.5-2.3-8.3c-1.5-1.8-3.5-2.7-5.8-2.7c-2.3,0-4.2,0.9-5.6,2.7C415.9,24.5,415.1,27.2,415.1,30.8z"/><path fill="#FFFFFF" d="M469.1,49.5V0h34v8.4h-24v11.7h20.7v8.4h-20.7v21H469.1z"/><path fill="#FFFFFF" d="M509.1,31.1c0-3.2,0.8-6.2,2.3-9.2c1.6-3,3.8-5.2,6.6-6.8c2.8-1.6,6-2.3,9.5-2.3c5.4,0,9.9,1.8,13.3,5.3c3.5,3.5,5.2,8,5.2,13.4c0,5.4-1.8,9.9-5.3,13.5c-3.5,3.6-7.9,5.4-13.2,5.4c-3.3,0-6.4-0.7-9.4-2.2c-3-1.5-5.3-3.7-6.8-6.5C509.9,38.7,509.1,35.2,509.1,31.1z M518.8,31.6c0,3.6,0.8,6.3,2.5,8.2c1.7,1.9,3.8,2.8,6.3,2.8c2.5,0,4.6-0.9,6.2-2.8c1.7-1.9,2.5-4.6,2.5-8.2c0-3.5-0.8-6.2-2.5-8.1c-1.7-1.9-3.8-2.8-6.2-2.8c-2.5,0-4.6,0.9-6.3,2.8C519.7,25.3,518.8,28,518.8,31.6z"/><path fill="#FFFFFF" d="M562.6,49.5h-9.5V13.7h8.8v5.1c1.5-2.4,2.9-4,4.1-4.8c1.2-0.8,2.6-1.1,4.1-1.1c2.2,0,4.2,0.6,6.3,1.8l-2.9,8.3c-1.6-1-3.1-1.6-4.5-1.6c-1.3,0-2.5,0.4-3.4,1.1s-1.7,2.1-2.2,4c-0.5,1.9-0.8,5.9-0.8,12V49.5z"/><path fill="#FFFFFF" d="M604.1,49.5v-5.4c-1.3,1.9-3,3.4-5.2,4.5c-2.1,1.1-4.4,1.7-6.7,1.7c-2.4,0-4.6-0.5-6.5-1.6c-1.9-1.1-3.3-2.5-4.2-4.5c-0.9-1.9-1.3-4.6-1.3-7.9V13.7h9.5v16.5c0,5,0.2,8.1,0.5,9.3s1,2,1.9,2.7c0.9,0.7,2.1,1,3.5,1c1.6,0,3.1-0.4,4.4-1.3c1.3-0.9,2.2-2,2.6-3.3c0.5-1.3,0.7-4.5,0.7-9.7V13.7h9.5v35.9H604.1z"/><path fill="#FFFFFF" d="M622,13.7h8.8v4.9c3.1-3.8,6.9-5.7,11.2-5.7c2.3,0,4.3,0.5,6,1.4c1.7,0.9,3.1,2.4,4.2,4.3c1.6-1.9,3.3-3.3,5.1-4.3c1.8-0.9,3.8-1.4,5.8-1.4c2.6,0,4.9,0.5,6.7,1.6c1.8,1.1,3.2,2.6,4.1,4.7c0.7,1.5,1,4,1,7.4v22.9h-9.5V29c0-3.6-0.3-5.9-1-6.9c-0.9-1.4-2.2-2-4.1-2c-1.3,0-2.6,0.4-3.8,1.2c-1.2,0.8-2,2-2.5,3.6s-0.8,4-0.8,7.4v17.2h-9.5V29.9c0-3.5-0.2-5.7-0.5-6.8s-0.9-1.8-1.6-2.3c-0.7-0.5-1.7-0.7-2.9-0.7c-1.5,0-2.8,0.4-4,1.2c-1.2,0.8-2,1.9-2.5,3.4c-0.5,1.5-0.8,4-0.8,7.4v17.4H622V13.7z"/><path fill="#FFFFFF" d="M680.9,39.3l9.5-1.5c0.4,1.8,1.2,3.2,2.5,4.2c1.2,1,3,1.4,5.2,1.4c2.5,0,4.3-0.5,5.5-1.4c0.8-0.6,1.3-1.5,1.3-2.5c0-0.7-0.2-1.3-0.7-1.8c-0.5-0.5-1.5-0.9-3.2-1.3c-7.7-1.7-12.5-3.2-14.6-4.6c-2.8-1.9-4.3-4.6-4.3-8.1c0-3.1,1.2-5.7,3.7-7.8c2.5-2.1,6.3-3.2,11.4-3.2c4.9,0,8.6,0.8,10.9,2.4c2.4,1.6,4,4,4.9,7.1l-9,1.7c-0.4-1.4-1.1-2.5-2.2-3.2c-1.1-0.7-2.6-1.1-4.6-1.1c-2.5,0-4.3,0.3-5.4,1c-0.7,0.5-1.1,1.1-1.1,1.9c0,0.7,0.3,1.3,0.9,1.7c0.9,0.6,3.8,1.5,8.9,2.7c5.1,1.1,8.6,2.6,10.6,4.2c2,1.7,3,4,3,7.1c0,3.3-1.4,6.1-4.1,8.5c-2.7,2.4-6.8,3.5-12.2,3.5c-4.9,0-8.8-1-11.6-3S681.8,42.7,680.9,39.3z"/></g></svg>