<svg version="1.2" baseProfile="tiny" xmlns="http://www.w3.org/2000/svg" viewBox="0 0 714.5 64.1" overflow="auto"><g fill="#FFF"><path d="M0 49.5V0h16c6.1 0 10 .2 11.9.7 2.8.7 5.2 2.4 7.1 4.8 1.9 2.5 2.9 5.7 2.9 9.6 0 3-.6 5.6-1.7 7.7-1.1 2.1-2.5 3.7-4.2 4.9s-3.4 2-5.2 2.3c-2.4.5-5.8.7-10.4.7H10v18.7H0zM10 8.4v14.1h5.5c3.9 0 6.6-.3 7.9-.8 1.3-.5 2.4-1.3 3.1-2.4.8-1.1 1.1-2.4 1.1-3.9 0-1.8-.5-3.3-1.6-4.5-1-1.2-2.3-1.9-4-2.2-1.2-.2-3.6-.3-7.2-.3H10zM55.2 49.5h-9.5V13.7h8.8v5.1c1.5-2.4 2.9-4 4.1-4.8 1.2-.8 2.6-1.1 4.1-1.1 2.2 0 4.2.6 6.3 1.8l-3 8.2c-1.6-1-3.1-1.6-4.5-1.6-1.3 0-2.5.4-3.4 1.1-.9.7-1.7 2.1-2.2 4-.5 1.9-.8 5.9-.8 12v11.1zM70.8 31.1c0-3.2.8-6.2 2.3-9.2 1.6-3 3.8-5.2 6.6-6.8s6-2.3 9.5-2.3c5.4 0 9.9 1.8 13.3 5.3 3.5 3.5 5.2 8 5.2 13.4s-1.8 9.9-5.3 13.5c-3.5 3.6-7.9 5.4-13.2 5.4-3.3 0-6.4-.7-9.4-2.2-3-1.5-5.3-3.7-6.8-6.5s-2.2-6.5-2.2-10.6zm9.8.5c0 3.6.8 6.3 2.5 8.2 1.7 1.9 3.8 2.8 6.3 2.8s4.6-.9 6.2-2.8c1.7-1.9 2.5-4.6 2.5-8.2 0-3.5-.8-6.2-2.5-8.1-1.7-1.9-3.8-2.8-6.2-2.8-2.5 0-4.6.9-6.3 2.8-1.7 1.8-2.5 4.5-2.5 8.1zM114.4 51.9l10.8 1.3c.2 1.3.6 2.1 1.3 2.6.9.7 2.3 1 4.3 1 2.5 0 4.3-.4 5.6-1.1.8-.5 1.5-1.3 1.9-2.4.3-.8.4-2.2.4-4.4v-5.2c-2.8 3.9-6.4 5.8-10.7 5.8-4.8 0-8.6-2-11.5-6.1-2.2-3.2-3.3-7.2-3.3-12 0-6 1.4-10.6 4.3-13.8 2.9-3.2 6.5-4.8 10.8-4.8 4.4 0 8.1 1.9 11 5.8v-5h8.9v32.2c0 4.2-.3 7.4-1 9.5-.7 2.1-1.7 3.7-2.9 4.9-1.3 1.2-2.9 2.1-5.1 2.8-2.1.7-4.8 1-8 1-6.1 0-10.4-1-12.9-3.1s-3.8-4.7-3.8-7.9c-.1-.3-.1-.7-.1-1.1zm8.5-21.1c0 3.8.7 6.6 2.2 8.4 1.5 1.8 3.3 2.7 5.5 2.7 2.3 0 4.3-.9 5.9-2.7 1.6-1.8 2.4-4.5 2.4-8.1 0-3.7-.8-6.5-2.3-8.3-1.5-1.8-3.5-2.7-5.8-2.7s-4.2.9-5.6 2.7c-1.6 1.7-2.3 4.4-2.3 8zM166.6 49.5h-9.5V13.7h8.8v5.1c1.5-2.4 2.9-4 4.1-4.8 1.2-.8 2.6-1.1 4.1-1.1 2.2 0 4.2.6 6.3 1.8l-2.9 8.3c-1.6-1-3.1-1.6-4.5-1.6-1.3 0-2.5.4-3.4 1.1-.9.7-1.7 2.1-2.2 4-.5 1.9-.8 5.9-.8 12v11zM191.6 24.6L183 23c1-3.5 2.6-6 5-7.7 2.4-1.7 5.9-2.5 10.5-2.5 4.2 0 7.4.5 9.5 1.5 2.1 1 3.5 2.3 4.4 3.8s1.3 4.4 1.3 8.5l-.1 11.1c0 3.2.2 5.5.5 7s.9 3.1 1.7 4.8h-9.4c-.2-.6-.6-1.6-.9-2.8-.2-.6-.3-.9-.3-1.1-1.6 1.6-3.4 2.8-5.2 3.5-1.8.8-3.8 1.2-5.9 1.2-3.7 0-6.6-1-8.7-3-2.1-2-3.2-4.5-3.2-7.6 0-2 .5-3.8 1.5-5.4 1-1.6 2.3-2.8 4.1-3.6s4.3-1.6 7.6-2.2c4.4-.8 7.5-1.6 9.2-2.3v-.9c0-1.8-.5-3.1-1.4-3.9-.9-.8-2.6-1.2-5.1-1.2-1.7 0-3 .3-4 1-1.2.6-1.9 1.7-2.5 3.4zm12.7 7.7c-1.2.4-3.1.9-5.8 1.5-2.6.6-4.4 1.1-5.2 1.7-1.2.9-1.9 2-1.9 3.3 0 1.3.5 2.5 1.5 3.4 1 1 2.3 1.5 3.8 1.5 1.7 0 3.3-.6 4.9-1.7 1.1-.9 1.9-1.9 2.3-3.1.2-.8.4-2.4.4-4.6v-2zM222.3 13.7h8.8v4.9c3.1-3.8 6.9-5.7 11.2-5.7 2.3 0 4.3.5 6 1.4 1.7.9 3.1 2.4 4.2 4.3 1.6-1.9 3.3-3.3 5.1-4.3 1.8-.9 3.8-1.4 5.8-1.4 2.6 0 4.9.5 6.7 1.6 1.8 1.1 3.2 2.6 4.1 4.7.7 1.5 1 4 1 7.4v22.9h-9.5V29c0-3.6-.3-5.9-1-6.9-.9-1.4-2.2-2-4.1-2-1.3 0-2.6.4-3.8 1.2-1.2.8-2 2-2.5 3.6s-.8 4-.8 7.4v17.2H244V29.9c0-3.5-.2-5.7-.5-6.8s-.9-1.8-1.6-2.3c-.7-.5-1.7-.7-2.9-.7-1.5 0-2.8.4-4 1.2-1.2.8-2 1.9-2.5 3.4s-.8 4-.8 7.4v17.4h-9.5V13.7zM283.8 13.7h8.8v4.9c3.1-3.8 6.9-5.7 11.2-5.7 2.3 0 4.3.5 6 1.4 1.7.9 3.1 2.4 4.2 4.3 1.6-1.9 3.3-3.3 5.1-4.3 1.8-.9 3.8-1.4 5.8-1.4 2.6 0 4.9.5 6.7 1.6 1.8 1.1 3.2 2.6 4.1 4.7.7 1.5 1 4 1 7.4v22.9h-9.5V29c0-3.6-.3-5.9-1-6.9-.9-1.4-2.2-2-4.1-2-1.3 0-2.6.4-3.8 1.2-1.2.8-2 2-2.5 3.6s-.8 4-.8 7.4v17.2h-9.5V29.9c0-3.5-.2-5.7-.5-6.8s-.9-1.8-1.6-2.3c-.7-.5-1.7-.7-2.9-.7-1.5 0-2.8.4-4 1.2-1.2.8-2 1.9-2.5 3.4s-.8 4-.8 7.4v17.4h-9.5V13.7zM346 8.8V0h9.5v8.8H346zm0 40.7V13.7h9.5v35.9H346zM397.9 49.5h-9.5V31.2c0-3.9-.2-6.4-.6-7.5s-1.1-2-2-2.7-2-.9-3.3-.9c-1.6 0-3.1.5-4.4 1.4-1.3.9-2.2 2.1-2.7 3.6s-.7 4.2-.7 8.2v16.3h-9.5V13.7h8.8V19c3.1-4.1 7.1-6.1 11.8-6.1 2.1 0 4 .4 5.7 1.1 1.7.8 3 1.7 3.9 2.9.9 1.2 1.5 2.5 1.9 4 .3 1.5.5 3.6.5 6.4v22.2zM406.6 51.9l10.8 1.3c.2 1.3.6 2.1 1.3 2.6.9.7 2.3 1 4.3 1 2.5 0 4.3-.4 5.6-1.1.8-.5 1.5-1.3 1.9-2.4.3-.8.4-2.2.4-4.4v-5.2c-2.8 3.9-6.4 5.8-10.7 5.8-4.8 0-8.6-2-11.5-6.1-2.2-3.2-3.3-7.2-3.3-12 0-6 1.4-10.6 4.3-13.8 2.9-3.2 6.5-4.8 10.8-4.8 4.4 0 8.1 1.9 11 5.8v-5h8.9v32.2c0 4.2-.3 7.4-1 9.5-.7 2.1-1.7 3.7-2.9 4.9-1.3 1.2-2.9 2.1-5.1 2.8-2.1.7-4.8 1-8 1-6.1 0-10.4-1-12.9-3.1s-3.8-4.7-3.8-7.9c-.1-.3-.1-.7-.1-1.1zm8.5-21.1c0 3.8.7 6.6 2.2 8.4s3.3 2.7 5.5 2.7c2.3 0 4.3-.9 5.9-2.7s2.4-4.5 2.4-8.1c0-3.7-.8-6.5-2.3-8.3-1.5-1.8-3.5-2.7-5.8-2.7s-4.2.9-5.6 2.7c-1.5 1.7-2.3 4.4-2.3 8zM469.1 49.5V0h34v8.4h-24v11.7h20.7v8.4h-20.7v21h-10zM509.1 31.1c0-3.2.8-6.2 2.3-9.2 1.6-3 3.8-5.2 6.6-6.8 2.8-1.6 6-2.3 9.5-2.3 5.4 0 9.9 1.8 13.3 5.3 3.5 3.5 5.2 8 5.2 13.4s-1.8 9.9-5.3 13.5c-3.5 3.6-7.9 5.4-13.2 5.4-3.3 0-6.4-.7-9.4-2.2-3-1.5-5.3-3.7-6.8-6.5-1.4-3-2.2-6.5-2.2-10.6zm9.7.5c0 3.6.8 6.3 2.5 8.2 1.7 1.9 3.8 2.8 6.3 2.8s4.6-.9 6.2-2.8c1.7-1.9 2.5-4.6 2.5-8.2 0-3.5-.8-6.2-2.5-8.1-1.7-1.9-3.8-2.8-6.2-2.8-2.5 0-4.6.9-6.3 2.8-1.6 1.8-2.5 4.5-2.5 8.1zM562.6 49.5h-9.5V13.7h8.8v5.1c1.5-2.4 2.9-4 4.1-4.8 1.2-.8 2.6-1.1 4.1-1.1 2.2 0 4.2.6 6.3 1.8l-2.9 8.3c-1.6-1-3.1-1.6-4.5-1.6-1.3 0-2.5.4-3.4 1.1s-1.7 2.1-2.2 4c-.5 1.9-.8 5.9-.8 12v11zM604.1 49.5v-5.4c-1.3 1.9-3 3.4-5.2 4.5-2.1 1.1-4.4 1.7-6.7 1.7-2.4 0-4.6-.5-6.5-1.6-1.9-1.1-3.3-2.5-4.2-4.5-.9-1.9-1.3-4.6-1.3-7.9V13.7h9.5v16.5c0 5 .2 8.1.5 9.3s1 2 1.9 2.7c.9.7 2.1 1 3.5 1 1.6 0 3.1-.4 4.4-1.3 1.3-.9 2.2-2 2.6-3.3.5-1.3.7-4.5.7-9.7V13.7h9.5v35.9h-8.7zM622 13.7h8.8v4.9c3.1-3.8 6.9-5.7 11.2-5.7 2.3 0 4.3.5 6 1.4 1.7.9 3.1 2.4 4.2 4.3 1.6-1.9 3.3-3.3 5.1-4.3 1.8-.9 3.8-1.4 5.8-1.4 2.6 0 4.9.5 6.7 1.6 1.8 1.1 3.2 2.6 4.1 4.7.7 1.5 1 4 1 7.4v22.9h-9.5V29c0-3.6-.3-5.9-1-6.9-.9-1.4-2.2-2-4.1-2-1.3 0-2.6.4-3.8 1.2-1.2.8-2 2-2.5 3.6s-.8 4-.8 7.4v17.2h-9.5V29.9c0-3.5-.2-5.7-.5-6.8s-.9-1.8-1.6-2.3c-.7-.5-1.7-.7-2.9-.7-1.5 0-2.8.4-4 1.2-1.2.8-2 1.9-2.5 3.4s-.8 4-.8 7.4v17.4H622V13.7zM680.9 39.3l9.5-1.5c.4 1.8 1.2 3.2 2.5 4.2 1.2 1 3 1.4 5.2 1.4 2.5 0 4.3-.5 5.5-1.4.8-.6 1.3-1.5 1.3-2.5 0-.7-.2-1.3-.7-1.8-.5-.5-1.5-.9-3.2-1.3-7.7-1.7-12.5-3.2-14.6-4.6-2.8-1.9-4.3-4.6-4.3-8.1 0-3.1 1.2-5.7 3.7-7.8 2.5-2.1 6.3-3.2 11.4-3.2 4.9 0 8.6.8 10.9 2.4 2.4 1.6 4 4 4.9 7.1l-9 1.7c-.4-1.4-1.1-2.5-2.2-3.2-1.1-.7-2.6-1.1-4.6-1.1-2.5 0-4.3.3-5.4 1-.7.5-1.1 1.1-1.1 1.9 0 .7.3 1.3.9 1.7.9.6 3.8 1.5 8.9 2.7 5.1 1.1 8.6 2.6 10.6 4.2 2 1.7 3 4 3 7.1 0 3.3-1.4 6.1-4.1 8.5-2.7 2.4-6.8 3.5-12.2 3.5-4.9 0-8.8-1-11.6-3s-4.4-4.5-5.3-7.9z"/></g></svg>