<svg xmlns="http://www.w3.org/2000/svg" width="892.913" height="245.905"><path d="M248.902 138.433c1.088-6.412 1.782-12.986 1.782-19.664 0-5.938-.602-11.76-1.412-17.477h-46.759c6.331-6.261 21.123-21.192 35.89-35.926a123.283 123.283 0 0 0-20.427-30.173l-71.053 71.11c-3.414 3.369-5.278 7.558-5.278 12.466 0 4.791 1.864 9.595 5.29 12.928l70.81 70.89c8.24-8.877 15.15-19.062 20.497-30.138-13.947-13.831-29.687-28.02-35.729-34.016h46.389zM112.71 118.765c0-4.907-1.887-9.097-5.36-12.465L36.263 35.19c-8.206 8.958-15.116 19.085-20.428 30.173C30.626 80.166 45.453 94.969 51.772 101.3H4.944c-.799 5.706-1.4 11.528-1.4 17.465 0 6.679.705 13.264 1.735 19.665h46.493c-5.995 6.006-21.828 20.138-35.775 34.015 5.382 11.077 12.257 21.239 20.52 30.14l70.833-70.88c3.426-3.345 5.36-8.148 5.36-12.94M127.114 133.462c-4.815 0-9.34 1.863-12.732 5.29l-70.775 70.786A121.785 121.785 0 0 0 73.7 230.035c14.699-14.71 29.398-29.363 35.636-35.636v46.458c5.799.88 11.713 1.447 17.778 1.447 6.62 0 13.044-.695 19.328-1.655v-46.25c6.03 5.949 20.197 21.76 34.005 35.636 11.134-5.312 21.226-12.28 30.161-20.497l-70.879-70.74c-3.356-3.473-7.777-5.336-12.615-5.336" fill="#00295b"/><path d="M127.114 104.643c4.953 0 9.537-1.968 12.928-5.498l70.96-70.902A125.272 125.272 0 0 0 180.285 7.34c-10.36 10.405-25.602 26.736-34.016 35.127V22.132c0-10.266-8.68-18.53-19.098-18.53-10.416 0-18.02 8.125-18.136 18.275v20.59C99.382 32.896 83.642 17.12 73.943 7.34A126.571 126.571 0 0 0 43.19 28.243l70.983 70.983c3.449 3.45 8.032 5.417 12.94 5.417" fill="#c60751"/><path d="M411.286 12.82c59.757 0 98.252 41.91 98.252 98.993 0 32.303-8.877 56.342-21.794 69.93l23.252 20.544-23.541 22.418-24.456-21.654c-14.062 8.067-26.423 13.367-52.558 13.367-60.01 0-98.83-38.934-98.83-101.908 0-59.537 36.47-101.69 99.675-101.69m-1.134 168.657c8.31 0 17.558-1.864 23.553-5.058l-20.972-18.727 22.998-22.153L456.124 154c4.873-10.162 8.044-18.16 8.877-39.016 0-41.145-16.933-66.724-54.305-66.724-33.275 0-54.548 22.465-54.548 66.25 0 44.606 22.407 66.967 54.004 66.967M576.257 18.936l80.428 132.117V18.936h41.4v192.175h-44.224L571.65 76.598V211.11h-41.609V18.936h46.215zM812.392 18.936c48.61 0 70.682 18.171 70.682 50.185 0 15.74-4.364 28.565-25.023 38.935 18.113 5.868 31.32 20.81 31.32 44.826 0 28.044-15.788 58.229-77.246 58.229h-94.281V18.936h94.548zm-52.269 75.208h50.822c20.682 0 29.305-6.574 29.305-20.74 0-13.334-8.055-20.105-35.324-20.105h-44.803v40.845zm0 82.51h49.954c23.044 0 34.224-7.198 34.224-26.689 0-14.93-10.08-22.974-33.078-22.974h-51.1v49.664z" fill="#00295b"/></svg>