<?xml version="1.0" encoding="UTF-8" standalone="no"?>
<!-- Created with Inkscape (http://www.inkscape.org/) -->

<svg
   xmlns:dc="http://purl.org/dc/elements/1.1/"
   xmlns:cc="http://creativecommons.org/ns#"
   xmlns:rdf="http://www.w3.org/1999/02/22-rdf-syntax-ns#"
   xmlns:svg="http://www.w3.org/2000/svg"
   xmlns="http://www.w3.org/2000/svg"
   version="1.1"
   width="892.91339"
   height="245.9055"
   id="svg19164">
  <defs
     id="defs19166" />
  <metadata
     id="metadata19169">
    <rdf:RDF>
      <cc:Work
         rdf:about="">
        <dc:format>image/svg+xml</dc:format>
        <dc:type
           rdf:resource="http://purl.org/dc/dcmitype/StillImage" />
        <dc:title></dc:title>
      </cc:Work>
    </rdf:RDF>
  </metadata>
  <g
     transform="translate(54.673298,-210.3548)"
     id="layer1">
    <g
       transform="matrix(9.2591858,0,0,9.2591858,735.69601,-1527.1741)"
       id="g19205">
      <g
         transform="matrix(1.25,0,0,-1.25,-58.478982,202.60549)"
         id="g18010"
         style="fill:#00295b;fill-opacity:1">
        <path
           d="m 0,0 c 0.094,0.554 0.154,1.122 0.154,1.699 0,0.513 -0.052,1.016 -0.122,1.51 l -4.04,0 C -3.461,3.75 -2.183,5.04 -0.907,6.313 -1.366,7.271 -1.965,8.152 -2.672,8.92 L -8.811,2.776 C -9.106,2.485 -9.267,2.123 -9.267,1.699 c 0,-0.414 0.161,-0.829 0.457,-1.117 l 6.118,-6.125 c 0.712,0.767 1.309,1.647 1.771,2.604 C -2.126,-1.744 -3.486,-0.518 -4.008,0 L 0,0 z"
           id="path18012"
           style="fill:#00295b;fill-opacity:1;fill-rule:nonzero;stroke:none" />
      </g>
      <g
         transform="matrix(1.25,0,0,-1.25,-73.187882,200.48137)"
         id="g18014"
         style="fill:#00295b;fill-opacity:1">
        <path
           d="M 0,0 C 0,0.424 -0.163,0.786 -0.463,1.077 L -6.605,7.221 C -7.314,6.447 -7.911,5.572 -8.37,4.614 -7.092,3.335 -5.811,2.056 -5.265,1.509 l -4.046,0 C -9.38,1.016 -9.432,0.513 -9.432,0 c 0,-0.577 0.061,-1.146 0.15,-1.699 l 4.017,0 c -0.518,-0.519 -1.886,-1.74 -3.091,-2.939 0.465,-0.957 1.059,-1.835 1.773,-2.604 l 6.12,6.124 C -0.167,-0.829 0,-0.414 0,0"
           id="path18016"
           style="fill:#00295b;fill-opacity:1;fill-rule:nonzero;stroke:none" />
      </g>
      <g
         transform="matrix(1.25,0,0,-1.25,-71.632182,202.06862)"
         id="g18018"
         style="fill:#00295b;fill-opacity:1">
        <path
           d="m 0,0 c -0.416,0 -0.807,-0.161 -1.1,-0.457 l -6.115,-6.116 c 0.765,-0.71 1.642,-1.311 2.6,-1.771 1.27,1.271 2.54,2.537 3.079,3.079 l 0,-4.014 c 0.501,-0.076 1.012,-0.125 1.536,-0.125 0.572,0 1.127,0.06 1.67,0.143 l 0,3.996 c 0.521,-0.514 1.745,-1.88 2.938,-3.079 0.962,0.459 1.834,1.061 2.606,1.771 L 1.09,-0.461 C 0.8,-0.161 0.418,0 0,0"
           id="path18020"
           style="fill:#00295b;fill-opacity:1;fill-rule:nonzero;stroke:none" />
      </g>
      <g
         transform="matrix(1.25,0,0,-1.25,-71.632182,198.95611)"
         id="g18022">
        <path
           d="M 0,0 C 0.428,0 0.824,0.17 1.117,0.475 L 7.248,6.601 C 6.464,7.326 5.572,7.936 4.594,8.407 3.699,7.508 2.382,6.097 1.655,5.372 l 0,1.757 c 0,0.887 -0.75,1.601 -1.65,1.601 -0.9,0 -1.557,-0.702 -1.567,-1.579 l 0,-1.779 C -2.396,6.199 -3.756,7.562 -4.594,8.407 -5.57,7.936 -6.464,7.326 -7.251,6.601 L -1.118,0.468 C -0.82,0.17 -0.424,0 0,0"
           id="path18024"
           style="fill:#c60751;fill-opacity:1;fill-rule:nonzero;stroke:none" />
      </g>
      <g
         transform="matrix(1.25,0,0,-1.25,-40.941282,189.03924)"
         id="g18026"
         style="fill:#00295b;fill-opacity:1">
        <path
           d="m 0,0 c 5.163,0 8.489,-3.621 8.489,-8.553 0,-2.791 -0.767,-4.868 -1.883,-6.042 l 2.009,-1.775 -2.034,-1.937 -2.113,1.871 c -1.215,-0.697 -2.283,-1.155 -4.541,-1.155 -5.185,0 -8.539,3.364 -8.539,8.805 C -8.612,-3.642 -5.461,0 0,0 m -0.098,-14.572 c 0.718,0 1.517,0.161 2.035,0.437 l -1.812,1.618 1.987,1.914 1.762,-1.595 c 0.421,0.878 0.695,1.569 0.767,3.371 0,3.555 -1.463,5.765 -4.692,5.765 -2.875,0 -4.713,-1.941 -4.713,-5.724 0,-3.854 1.936,-5.786 4.666,-5.786"
           id="path18028"
           style="fill:#00295b;fill-opacity:1;fill-rule:nonzero;stroke:none" />
      </g>
      <g
         transform="matrix(1.25,0,0,-1.25,-23.124282,189.69974)"
         id="g18030"
         style="fill:#00295b;fill-opacity:1">
        <path
           d="m 0,0 6.949,-11.415 0,11.415 3.577,0 0,-16.604 -3.821,0 -7.103,11.622 0,-11.622 -3.595,0 L -3.993,0 0,0 z"
           id="path18032"
           style="fill:#00295b;fill-opacity:1;fill-rule:nonzero;stroke:none" />
      </g>
      <g
         transform="matrix(1.25,0,0,-1.25,2.3784179,189.69974)"
         id="g18042"
         style="fill:#00295b;fill-opacity:1">
        <path
           d="m 0,0 c 4.2,0 6.107,-1.57 6.107,-4.336 0,-1.36 -0.377,-2.468 -2.162,-3.364 1.565,-0.507 2.706,-1.798 2.706,-3.873 0,-2.423 -1.364,-5.031 -6.674,-5.031 l -8.146,0 L -8.169,0 0,0 z m -4.516,-6.498 4.391,0 c 1.787,0 2.532,0.568 2.532,1.792 0,1.152 -0.696,1.737 -3.052,1.737 l -3.871,0 0,-3.529 z m 0,-7.129 4.316,0 c 1.991,0 2.957,0.622 2.957,2.306 0,1.29 -0.871,1.985 -2.858,1.985 l -4.415,0 0,-4.291 z"
           id="path18044"
           style="fill:#00295b;fill-opacity:1;fill-rule:nonzero;stroke:none" />
      </g>
    </g>
  </g>
</svg>
