<svg baseProfile="full" xmlns="http://www.w3.org/2000/svg" height="56" width="239"><path fill="#4393CA" d="M239 7.435v39.13c0 3-2.436 5.435-5.438 5.435H70.437A5.438 5.438 0 0 1 65 46.565v-8.826l7.634-7.63a4.341 4.341 0 0 0 0-6.142L65 16.337V7.435C65 4.435 67.436 2 70.437 2h163.125A5.438 5.438 0 0 1 239 7.435z"/><path fill="#FFF" d="M215.119 9.998c-2.868 0-2.89 2.749-2.89 2.825v21.255c0 2.348-1.942 4.242-4.336 4.242s-4.335-1.894-4.335-4.242V12.834s-.022-2.836-2.88-2.836c-2.868 0-2.89 2.749-2.89 2.825v21.255c0 5.476 4.523 9.913 10.105 9.913 5.582 0 10.105-4.437 10.105-9.913V12.834s-.022-2.836-2.879-2.836zm-23.123 11.331c0-4.816-4.324-10.303-9.95-11.201a9.833 9.833 0 0 0-1.6-.13h-5.46c-2.891 0-2.891 2.836-2.891 2.836l.011 2.824V38.32h-.011v2.836c0 .086.045 2.835 2.891 2.835 1.445 0 2.162-.703 2.526-1.418.364-.714.364-1.417.364-1.417V38.32h-.011l.011-2.824V32.66h2.57c.552 0 1.092.076 1.6.217 2.416.681 4.17 2.867 4.17 5.443v2.836c0 1.569 1.302 2.835 2.89 2.835 1.6 0 2.89-1.266 2.89-2.835V38.32c0-2.9-1.577-6.039-4.048-8.29 2.471-1.85 4.048-4.448 4.048-8.701zm-9.95 5.444a5.993 5.993 0 0 1-1.6.216h-2.57l-.011-11.331h2.581c.552 0 1.092.087 1.6.228 2.416.681 4.17 2.857 4.17 5.443 0 2.587-1.754 4.762-4.17 5.444zm-21.81 11.547c-1.588 0-2.879 1.277-2.879 2.836 0 1.569 1.291 2.835 2.879 2.835 1.6 0 2.891-1.266 2.891-2.835 0-1.559-1.291-2.836-2.891-2.836zm-1.588-24.48a11.569 11.569 0 0 0-7.072-3.733 10.935 10.935 0 0 0-1.588-.109h-5.472c-2.89 0-2.89 2.836-2.89 2.836l.011 2.824-.011 25.541c.022.368.221 2.792 2.89 2.792 2.681 0 2.868-2.446 2.89-2.792l-.011-8.539h2.593c.54 0 1.07-.032 1.588-.108a11.57 11.57 0 0 0 7.072-3.734 11.147 11.147 0 0 0 0-14.978zm-7.072 12.933a5.905 5.905 0 0 1-1.588.216h-2.593V15.658h2.593c.551 0 1.081.076 1.588.228 2.416.671 4.181 2.857 4.181 5.443 0 2.587-1.765 4.773-4.181 5.444zM132.37 9.998c-2.868 0-2.89 2.749-2.89 2.825v28.333c0 .086.044 2.835 2.879 2.835h.011c2.88 0 2.88-2.835 2.88-2.835V12.834s-.022-2.836-2.88-2.836zm-12.675 27.099l-.254-.259a16.648 16.648 0 0 0 3.199-9.849c0-9.372-7.755-16.98-17.319-16.98a17.447 17.447 0 0 0-12.245 4.978c-3.133 3.074-5.075 7.316-5.075 12.002 0 9.383 7.755 16.991 17.32 16.991a17.91 17.91 0 0 0 5.361-.822 17.191 17.191 0 0 0 4.667-2.316l2.305 2.262c.044.043.938.887 2.118.887.607 0 1.28-.216 1.964-.887.684-.671.904-1.332.904-1.927 0-1.19-.904-2.078-.904-2.078l-2.041-2.002zm-4.424-4.35l-1.677-1.645s-2.051-1.981-4.081 0c-2.03 1.991-.066 3.95 0 4.004l1.677 1.645a11.66 11.66 0 0 1-5.869 1.569 11.63 11.63 0 0 1-8.164-3.311c-2.096-2.057-3.386-4.881-3.386-8.02 0-6.255 5.173-11.331 11.55-11.331a11.727 11.727 0 0 1 8.174 3.323c2.085 2.056 3.376 4.881 3.376 8.008 0 2.1-.585 4.069-1.6 5.758z"/><path fill="#99B941" d="M65.722 27.117l-9.845-8.626C51.946 7.711 41.516 0 29.277 0 13.659 0 .998 12.535.998 28s12.661 28 28.279 28c12.629 0 23.318-8.195 26.947-19.514l9.498-8.314c.347-.291.347-.764 0-1.055z"/><path fill="#FFF" d="M23.026 10.116a1.38 1.38 0 0 0-1.128-1.12 1.4 1.4 0 0 0-1.656 1.602l.742 4.596.04.157a4.04 4.04 0 0 1 .874-.911 6.17 6.17 0 0 1 1.677-.932l-.549-3.392zm-1.179 29.063l-1.29-8.616a1.403 1.403 0 0 0-1.402-1.183v-.011l-5.752-.063c-.772 0-1.402.702-1.402 1.466 0 .115.884 5.81.884 5.81.132.67.783 1.131 1.443 1.131h4.451l.284 1.864a1.395 1.395 0 0 0 1.596 1.172 1.384 1.384 0 0 0 1.188-1.57zm-6.361-4.115l-.436-3.046h2.875l.407 3.046h-2.846zm19.002-18.467c-1.514-.335-8.424-1.456-8.556-1.456-1.9 0-3.516 1.246-4.034 2.942a4.298 4.298 0 0 0-.183 1.194c0 .23.021.45.061.659 0 0 3.181 19.389 3.191 19.4l.03.199c.315 1.968 2.165 3.444 4.166 3.444l1.728.01a4.234 4.234 0 0 0 3.993-3.067v-.021l2.866-18.426v-.01c.03-.157.599-4.01-3.262-4.868zm-2.297 22.205v.429c-.081.691-.68.785-1.402.785-.091.011-1.626-.073-1.626-.073-.508 0-.945-.178-1.199-.576l-.111-.481c-.041-.095-.722-3.173-1.423-7.517h7.021l-1.26 7.433zm2.785-17.745l-1.006 7.276h-8.078c-.61-3.78-1.372-8.972-1.372-9.056 0-.764.63-1.382 1.412-1.382.051 0 6.625 1.11 7.946 1.403 1.342.293 1.098 1.748 1.098 1.759zm11.604 8.249l-5.751.063v.011a1.387 1.387 0 0 0-1.393 1.183l-1.3 8.616c-.112.753.427 1.465 1.199 1.57a1.4 1.4 0 0 0 1.595-1.172l.285-1.864h4.45c.661 0 1.311-.461 1.443-1.131 0 0 .884-5.695.884-5.81 0-.764-.63-1.466-1.412-1.466zm-2.073 5.758h-2.855l.416-3.046h2.866l-.427 3.046z"/></svg>