<svg version="1.2" baseProfile="tiny" id="Layer_1" xmlns="http://www.w3.org/2000/svg" xmlns:xlink="http://www.w3.org/1999/xlink" x="0px" y="0px" viewBox="0 0 148.2 168.7" xml:space="preserve"><path fill="#FFFFFF" d="M122.5,4.6c5.8-4.8,14.4-6.1,21.2-3c4.8,2,5.4,8.6,3.5,12.8c-4.2,6-12.5,3.9-18.3,7.2c0,2.1-0.1,4.3-0.1,6.4 c6.3,0,12.7,0,19,0c0,1.5,0,3,0,4.5c-8.3,0.1-16.6,0-24.9,0c0.2-4-0.5-8.1,0.4-12c3.7-6.8,12.8-4.3,18.5-7.9c0.5-1.6,0.4-3.3,0.1-5 c-0.6-2.3-3.2-2.8-5.2-3.1c-4.3-0.3-8.4,1.5-11.9,3.9C124,7.3,123.2,5.9,122.5,4.6L122.5,4.6z"/><path fill="#FFFFFF" d="M122,103.5c-6.6-5.3-16.3-0.5-19.5,6.5c-3.1,5.5-0.8,11.9-1.6,17.8c-1.7-0.1-3.4-0.4-4.7-1.7 c-6.4-5.7-10.9-13.1-16.1-19.8c-4.9-0.6-9.9-0.9-14.9-1.3c0.4-1.8,0.8-3.7,1.1-5.5c17.5-0.3,35.2-10.5,42.2-26.9 c4.3-10.1,3.7-22.3-2.3-31.6C99.8,30.4,88,23.9,75.9,22.1c-9.5-1.7-19.3,0-28.1,3.6c-12.4,5.4-22.8,16.4-25.5,30 c-0.9,6.5-0.7,13.5,2.1,19.6c5.3,12.5,17.7,21.1,31,23.4c-2.4,10.8-5.1,21.5-7.5,32.3c-9.4-5.5-18.5-11.3-28-16.5 c-6.2,7.1-12.1,14.6-16.1,23.2c-2.7,6.1-4.7,13-3.1,19.7c1.4,4.6,4.5,9.2,9.2,10.9c3,0.6,6.5,0.7,8.9-1.4c5-4.1,7.8-10.8,7.6-17.2 c0-2.6-2.3-5.4-0.8-7.9c2.1-2.1,5.4-2.1,8.2-2.1c7.6,0.6,15.1,2.2,22.3,4.6c2.1-8.3,4-16.6,6.2-24.8c5.2-0.9,10.3-1.7,15.5-2.5 c5.8,10.6,11.7,21.2,17.5,31.8c10.9-6,21.8-13.4,28.1-24.4C126.8,118,127.7,108.8,122,103.5z M47.1,82.3 C40.3,78.2,34.8,71,34.9,62.8C34.4,55.7,38,48.9,43,44.2c5.2-5.2,12.1-8.3,19.2-9.7c7.6-1,15.6-0.7,22.6,2.8 c8,3.6,14.6,11.4,14.7,20.5c0.6,7.6-3.3,14.9-8.8,19.9C79,88.1,60.5,90.3,47.1,82.3z"/></svg> 