<svg xmlns="http://www.w3.org/2000/svg" viewBox="0 0 330.5 111" overflow="scroll"><path fill="#FFF" d="M292.7 18.9c4.7-6.2 9.1-12.6 13.6-18.9 8 3.2 16.1 6 24.1 9.1-2.8 1-6 1.7-8 4.1-9.1 9.4-18.3 18.7-27.4 28 1.9 19.6 3.8 39.3 5.7 59 .4 3.6.8 7.2.7 10.8-5.5-19.4-12.4-38.4-18.4-57.6-18.2 18.5-36.2 37.2-54.6 55.5 16.8-23.1 33.3-46.5 50-69.7-2.4-7-4.5-14.1-7-21.1-1.8-1-3.5-2.1-5.3-3.2 8.4-4.2 16.8-8.3 25.2-12.6.5 5.5 1.2 11.1 1.4 16.6zM131.8 33.8h12.4c-.7 1.8-1.4 3.7-2.1 5.5-4.1-.1-8.2 0-12.3 0 .7-1.8 1.4-3.6 2-5.5zM100.9 42.5c.8-2.1 1.6-4.3 2.4-6.4h11.6c-.8 2.1-1.6 4.2-2.4 6.4h10.8c-.6 1.6-1.2 3.2-1.8 4.9h-10.9c-1.2 3.8-3.1 7.3-3.9 11.2-.3 1.6 1.6 1.9 2.8 2.1 2.5.2 4.9-.4 7.3-.8-.7 1.7-1.3 3.4-2 5.1-5 .4-10.2.8-15.2.1-2.4-.3-5.2-1.7-5.3-4.5 1-4.6 3.1-8.9 4.6-13.3-1.6 0-3.3 0-4.9.1.6-1.6 1.3-3.3 1.9-4.9 1.9-.1 3.4-.1 5 0zM48.1 43.6c.8-4.5-4.1-6.8-7.7-7.5-9.6-1.8-19.5-.6-29.2-1-3.9 10-7.4 20-11.2 30h12.4c1.4-3.7 2.7-7.3 4.1-11h6.9c3 3.7 6 7.3 9 11h13.9c-3.7-4.2-7.5-8.3-10.9-12.6 4.9-1.4 11.6-3.1 12.7-8.9zm-15 3.3c-4.4 2.5-9.8 1.7-14.6 1.8 1-2.7 2-5.3 3-8 3.8.2 7.8-.4 11.5.7 2.4.7 2.2 4.5.1 5.5zM120.5 65c2.9-7.5 5.5-15.2 8.6-22.7 3.8.1 7.7.1 11.5.1-2.8 7.6-5.5 15.2-8.4 22.7-3.9-.1-7.8-.1-11.7-.1zM141.7 65c2.9-7.5 5.5-15.2 8.5-22.6h11.6c-.2.6-.7 1.9-.9 2.5 6.1-2.6 13.2-4.3 19.7-2 2.3.8 4.2 3.2 3.5 5.7-1.5 5.6-4 11-5.9 16.5h-11.8c1.7-4.9 4-9.6 5.1-14.6.6-1.5-1.2-2.6-2.5-2.7-3.2-.5-6.4.4-9.5 1.2-2 5.4-4 10.7-6 16.1-4-.1-7.9-.1-11.8-.1zM89.1 55.2c1-2.7 2.3-5.8.6-8.5-2.1-3.2-6.3-4.1-9.9-4.6-7.7-.7-15.9-.3-22.7 3.8-4 2.3-7.2 6.9-6.3 11.7 1 4.1 5.2 6.1 9 7.1 8.3 1.9 17 1.2 25.2-.7.8-2.1 1.5-4.1 2.2-6.2-6.9 2.3-14.4 4-21.6 2-2.2-.5-3.3-2.5-4.1-4.4 9.2-.4 18.4-.3 27.6-.2zm-26.3-4.4c3.4-4.1 9.4-5.7 14.4-3.7 1.6.5 1.5 2.4 2 3.7-5.4.1-10.9.2-16.4 0zM221.7 42.9c-8.6-1.8-17.5-1-26.1.1-.6 1.9-1.1 3.7-1.7 5.6 6.1-1.2 12.3-2.5 18.5-1.3 1.5.2 2.2 1.6 3.3 2.5-7.9 1.6-16.3.5-23.8 3.7-2.6 1-5.1 3.1-5.3 6.1-.3 2.8 2.3 4.7 4.7 5.4 6.3 1.9 13.1.4 18.9-2.2-.3.6-.9 1.8-1.1 2.4h11.7c1.9-5.6 4.3-10.9 5.9-16.6.7-3.3-2.5-5.2-5-5.7zm-10.5 16.4c-3.8 1.2-8.1 2.5-12 .7-1.7-1.5.3-3.6 1.9-4.1 3.9-1.3 8-1.1 12-1.5-.6 1.6-1.3 3.3-1.9 4.9z"/></svg>