<svg xmlns="http://www.w3.org/2000/svg" xmlns:xlink="http://www.w3.org/1999/xlink" x="0px" y="0px" viewBox="0 0 330.5 111" overflow="scroll" xml:space="preserve"><path fill="#FFFFFF" d="M292.7,18.9c4.7-6.2,9.1-12.6,13.6-18.9c8,3.2,16.1,6,24.1,9.1c-2.8,1-6,1.7-8,4.1 c-9.1,9.4-18.3,18.7-27.4,28c1.9,19.6,3.8,39.3,5.7,59c0.4,3.6,0.8,7.2,0.7,10.8C295.9,91.6,289,72.6,283,53.4 c-18.2,18.5-36.2,37.2-54.6,55.5c16.8-23.1,33.3-46.5,50-69.7c-2.4-7-4.5-14.1-7-21.1c-1.8-1-3.5-2.1-5.3-3.2 c8.4-4.2,16.8-8.3,25.2-12.6C291.8,7.8,292.5,13.4,292.7,18.9L292.7,18.9z"/><path fill="#FFFFFF" d="M131.8,33.8c4.1,0,8.3,0,12.4,0c-0.7,1.8-1.4,3.7-2.1,5.5c-4.1-0.1-8.2,0-12.3,0 C130.5,37.5,131.2,35.7,131.8,33.8L131.8,33.8z"/><path fill="#FFFFFF" d="M100.9,42.5c0.8-2.1,1.6-4.3,2.4-6.4c3.9,0,7.8,0,11.6,0c-0.8,2.1-1.6,4.2-2.4,6.4c3.6,0,7.2,0,10.8,0 c-0.6,1.6-1.2,3.2-1.8,4.9c-3.6,0-7.2,0-10.9,0c-1.2,3.8-3.1,7.3-3.9,11.2c-0.3,1.6,1.6,1.9,2.8,2.1c2.5,0.2,4.9-0.4,7.3-0.8 c-0.7,1.7-1.3,3.4-2,5.1c-5,0.4-10.2,0.8-15.2,0.1c-2.4-0.3-5.2-1.7-5.3-4.5c1-4.6,3.1-8.9,4.6-13.3c-1.6,0-3.3,0-4.9,0.1 c0.6-1.6,1.3-3.3,1.9-4.9C97.8,42.4,99.3,42.4,100.9,42.5L100.9,42.5z"/><path fill="#FFFFFF" d="M48.1,43.6c0.8-4.5-4.1-6.8-7.7-7.5c-9.6-1.8-19.5-0.6-29.2-1C7.3,45.1,3.8,55.1,0,65.1c4.1,0,8.3,0,12.4,0 c1.4-3.7,2.7-7.3,4.1-11c2.3,0,4.6,0,6.9,0c3,3.7,6,7.3,9,11c4.6,0,9.3,0,13.9,0c-3.7-4.2-7.5-8.3-10.9-12.6 C40.3,51.1,47,49.4,48.1,43.6z M33.1,46.9c-4.4,2.5-9.8,1.7-14.6,1.8c1-2.7,2-5.3,3-8c3.8,0.2,7.8-0.4,11.5,0.7 C35.4,42.1,35.2,45.9,33.1,46.9z"/><path fill="#FFFFFF" d="M120.5,65c2.9-7.5,5.5-15.2,8.6-22.7c3.8,0.1,7.7,0.1,11.5,0.1c-2.8,7.6-5.5,15.2-8.4,22.7 C128.3,65,124.4,65,120.5,65L120.5,65z"/><path fill="#FFFFFF" d="M141.7,65c2.9-7.5,5.5-15.2,8.5-22.6c3.8,0,7.7,0,11.6,0c-0.2,0.6-0.7,1.9-0.9,2.5c6.1-2.6,13.2-4.3,19.7-2 c2.3,0.8,4.2,3.2,3.5,5.7c-1.5,5.6-4,11-5.9,16.5c-3.9,0-7.9,0-11.8,0c1.7-4.9,4-9.6,5.1-14.6c0.6-1.5-1.2-2.6-2.5-2.7 c-3.2-0.5-6.4,0.4-9.5,1.2c-2,5.4-4,10.7-6,16.1C149.5,65,145.6,65,141.7,65L141.7,65z"/><path fill="#FFFFFF" d="M89.1,55.2c1-2.7,2.3-5.8,0.6-8.5c-2.1-3.2-6.3-4.1-9.9-4.6c-7.7-0.7-15.9-0.3-22.7,3.8 c-4,2.3-7.2,6.9-6.3,11.7c1,4.1,5.2,6.1,9,7.1c8.3,1.9,17,1.2,25.2-0.7c0.8-2.1,1.5-4.1,2.2-6.2c-6.9,2.3-14.4,4-21.6,2 c-2.2-0.5-3.3-2.5-4.1-4.4C70.7,55,79.9,55.1,89.1,55.2z M62.8,50.8c3.4-4.1,9.4-5.7,14.4-3.7c1.6,0.5,1.5,2.4,2,3.7 C73.8,50.9,68.3,51,62.8,50.8z"/><path fill="#FFFFFF" d="M221.7,42.9c-8.6-1.8-17.5-1-26.1,0.1c-0.6,1.9-1.1,3.7-1.7,5.6c6.1-1.2,12.3-2.5,18.5-1.3 c1.5,0.2,2.2,1.6,3.3,2.5c-7.9,1.6-16.3,0.5-23.8,3.7c-2.6,1-5.1,3.1-5.3,6.1c-0.3,2.8,2.3,4.7,4.7,5.4c6.3,1.9,13.1,0.4,18.9-2.2 c-0.3,0.6-0.9,1.8-1.1,2.4c3.9,0,7.8,0,11.7,0c1.9-5.6,4.3-10.9,5.9-16.6C227.4,45.3,224.2,43.4,221.7,42.9z M211.2,59.3 c-3.8,1.2-8.1,2.5-12,0.7c-1.7-1.5,0.3-3.6,1.9-4.1c3.9-1.3,8-1.1,12-1.5C212.5,56,211.8,57.7,211.2,59.3z"/></svg>