<svg xmlns="http://www.w3.org/2000/svg" viewBox="0 0 294.2 24.9"><path fill="#FFF" d="M15.8 24.4L12 12.8c-.9 0-1.8-.1-2.7-.3l-2.1 7.2c-.3.9-.4 1.7-.4 2.4 0 .5.2.9.5 1.2.3.2 1 .4 2.1.5l-.2.7H0l.2-.7c.9 0 1.5-.1 1.8-.3.4-.2.8-.5 1-.8.4-.6.8-1.5 1.2-2.9L8.3 5.3c.3-1 .4-1.7.4-2.2 0-.5-.2-1-.7-1.4s-1-.5-1.8-.5l.2-.7h7.8c2.6 0 4.5.5 5.6 1.5s1.7 2.3 1.7 3.9c0 1.5-.6 2.9-1.8 4.2s-2.8 2.1-4.8 2.4l2.3 7c.6 1.7 1.1 2.8 1.7 3.3s1.5.8 2.7.9l-.2.7h-5.6zM9.5 11.5c.8.1 1.4.2 2 .2 2 0 3.6-.6 4.8-1.7s1.8-2.5 1.8-4.2c0-1.3-.4-2.3-1.1-3s-1.8-1-3.3-1c-.4 0-.8 0-1.3.1l-2.9 9.6zM40.6 0c1.6 0 3 .3 4.2 1s2.2 1.7 2.9 3 1 2.7 1 4.2c0 2.6-.7 5.2-2.2 8s-3.4 4.9-5.8 6.4-4.9 2.2-7.4 2.2c-1.8 0-3.4-.4-4.6-1.2s-2.2-1.9-2.7-3.2-1-2.6-1-3.8c0-2.2.5-4.4 1.6-6.6s2.4-4 3.8-5.4 3.1-2.6 4.8-3.4S38.7 0 40.6 0zM40 1.1c-1.2 0-2.3.3-3.4.9s-2.2 1.5-3.3 2.8-2.1 3-3 5.2c-1.1 2.6-1.6 5.1-1.6 7.4 0 1.7.4 3.1 1.3 4.4s2.2 1.9 3.9 1.9c1.1 0 2.1-.3 3.1-.8s2.1-1.4 3.2-2.7c1.4-1.6 2.6-3.7 3.5-6.1s1.4-4.8 1.4-7c0-1.6-.4-3-1.3-4.2S41.7 1.1 40 1.1zM49.1 24.9l2-8.8h.6c-.1.9-.1 1.6-.1 2.1 0 1.6.5 2.9 1.5 3.9s2.4 1.5 4 1.5c1.5 0 2.7-.5 3.5-1.4s1.2-2 1.2-3.3c0-.8-.2-1.5-.5-2.2-.6-1-2-2.7-4.4-5.1-1.2-1.2-1.9-2-2.2-2.6-.5-.9-.8-1.9-.8-3 0-1.7.6-3.1 1.9-4.3S58.5 0 60.4 0c.7 0 1.3.1 1.9.2.4.1 1 .3 2 .7.7.3 1.1.4 1.1.4.2 0 .3.1.5.1.3 0 .6-.1.9-.3s.5-.6.9-1.1h.7l-1.8 7.9H66c0-.7.1-1.3.1-1.7 0-1.4-.5-2.6-1.4-3.5S62.5 1.3 61 1.3c-1.2 0-2.2.4-3 1.1S56.7 4 56.7 4.9c0 .8.2 1.6.7 2.3s1.6 2 3.4 3.6 2.9 3 3.4 3.9.8 1.9.8 3c0 1.2-.3 2.4-1 3.5s-1.6 2-2.8 2.6-2.5.9-3.9.9c-.7 0-1.4-.1-2-.2s-1.6-.4-2.9-.9c-.5-.2-.8-.3-1.1-.3-.7 0-1.2.5-1.6 1.4h-.6zM78.5 1.8l-2.7 9.4H78c1.6 0 2.7-.2 3.5-.7s1.3-1.4 1.8-2.7h.7l-2.4 8.6h-.7c.2-.7.3-1.3.3-1.9 0-.5-.1-.9-.3-1.2s-.5-.5-.8-.7-1.1-.2-2.3-.2h-2.3l-2.3 7.9c-.2.8-.3 1.3-.3 1.7 0 .3.1.6.4.8.2.2.7.2 1.5.2h2.1c2.3 0 4.1-.4 5.5-1.2s2.6-2.2 3.7-4.2h.7l-2.3 6.6H66l.2-.7c.9 0 1.5-.1 1.8-.2.5-.2.8-.5 1-.8.3-.5.7-1.5 1.1-3l4.2-14.4c.3-1.2.5-2 .5-2.7 0-.4-.2-.8-.5-1s-.9-.4-1.8-.4h-.4l.2-.7h17.1L87.9 6h-.7c.1-.5.1-1 .1-1.4 0-.6-.2-1.1-.5-1.6-.4-.5-1-.9-1.7-1.2-.6-.2-1.9-.3-3.9-.3h-2.7zM94.1 1.2l.2-.7h8.5c1.4 0 2.7.2 3.8.7s2 1.1 2.5 1.9.8 1.6.8 2.5c0 1.4-.5 2.6-1.5 3.7s-2.6 1.9-4.8 2.5c1.4.5 2.5 1.3 3.2 2.1s1 1.9 1 2.9c0 1.2-.3 2.3-.9 3.4s-1.4 1.9-2.3 2.5-2.1 1-3.5 1.3c-1 .2-2.5.3-4.5.3H88l.2-.7c.9 0 1.5-.1 1.9-.3.5-.2.8-.5 1-.8.3-.4.7-1.5 1.1-3.1L96.5 5c.3-1 .5-1.9.5-2.4 0-.4-.2-.8-.5-1s-.9-.4-1.8-.4h-.6zm.1 21.6c1.3.2 2.3.2 3 .2 1.8 0 3.4-.6 4.9-1.7s2.1-2.6 2.1-4.5c0-1.4-.4-2.6-1.3-3.4s-2.3-1.2-4.2-1.2c-.4 0-.8 0-1.4.1l-3.1 10.5zm3.5-11.7h1.7c2.4 0 4.3-.5 5.4-1.6s1.8-2.4 1.8-4c0-1.2-.4-2.1-1.1-2.8s-1.9-1-3.5-1c-.4 0-1 .1-1.6.2l-2.7 9.2zM115.5.5h10.1l-.2.7c-1 0-1.8.1-2.2.3s-.8.5-1.1.9-.6 1.2-1 2.4l-2.4 8.4c-.4 1.5-.7 2.5-.8 3-.1.8-.2 1.4-.2 2.1 0 1.4.5 2.6 1.6 3.6s2.5 1.5 4.2 1.5c1.2 0 2.2-.2 3.1-.7s1.7-1.1 2.3-1.8 1.2-1.9 1.8-3.2 1-2.7 1.4-4.1l2.1-7.3c.5-1.8.8-3 .8-3.6 0-.4-.2-.7-.5-1s-1.1-.4-2.2-.5l.2-.7h7.6l-.2.7c-.9 0-1.5.1-1.9.3s-.7.5-1 .9-.6 1.3-1 2.6l-2.6 8.8c-.8 2.9-1.6 5-2.4 6.4s-1.8 2.5-3.2 3.4-3.1 1.4-5.2 1.4c-2.4 0-4.3-.7-5.8-2s-2.2-2.9-2.2-4.6c0-.7.1-1.4.2-2.2.1-.5.3-1.4.7-2.7l2.4-8.1c.3-1.2.5-2 .5-2.6 0-.4-.2-.8-.5-1s-1.2-.4-2.5-.5l.1-.8zM142.1.5h18.1l-2 6.3h-.7c.2-.9.3-1.8.3-2.5 0-.9-.3-1.5-.8-1.9-.3-.3-1.3-.4-3-.4h-1.9l-4.7 16.4c-.6 2.1-.9 3.3-.9 3.8 0 .4.2.8.6 1.1s1 .4 2 .4h.8l-.2.7h-10.4l.2-.7h.5c.9 0 1.6-.1 2.1-.4.3-.2.6-.6.9-1.1s.7-1.6 1.2-3.3L149.1 2h-1.4c-1.4 0-2.5.2-3.3.5s-1.5.9-2 1.5-.9 1.6-1.3 2.8h-.7l1.7-6.3zM162.1.5h18.1l-2 6.3h-.7c.2-.9.3-1.8.3-2.5 0-.9-.3-1.5-.8-1.9-.3-.3-1.3-.4-3-.4h-1.9l-4.7 16.4c-.6 2.1-.9 3.3-.9 3.8 0 .4.2.8.6 1.1s1 .4 2 .4h.8l-.2.7h-10.4l.2-.7h.5c.9 0 1.6-.1 2.1-.4.3-.2.6-.6.9-1.1s.7-1.6 1.2-3.3L169.1 2h-1.4c-1.4 0-2.5.2-3.3.5s-1.5.9-2 1.5-.9 1.6-1.3 2.8h-.7l1.7-6.3zM182.2 1.2l.2-.7h8.5c1.4 0 2.7.2 3.8.7s2 1.1 2.5 1.9.8 1.6.8 2.5c0 1.4-.5 2.6-1.5 3.7s-2.6 1.9-4.8 2.5c1.4.5 2.5 1.3 3.2 2.1s1 1.9 1 2.9c0 1.2-.3 2.3-.9 3.4s-1.4 1.9-2.3 2.5-2.1 1-3.5 1.3c-1 .2-2.5.3-4.5.3H176l.2-.7c.9 0 1.5-.1 1.9-.3.5-.2.8-.5 1-.8.3-.4.7-1.5 1.1-3.1L184.5 5c.4-1.2.5-2.1.5-2.6 0-.4-.2-.8-.5-1s-.9-.4-1.8-.4c-.2.2-.4.2-.5.2zm.1 21.6c1.3.2 2.3.2 3 .2 1.8 0 3.4-.6 4.9-1.7s2.1-2.6 2.1-4.5c0-1.4-.4-2.6-1.3-3.4s-2.3-1.2-4.2-1.2c-.4 0-.8 0-1.4.1l-3.1 10.5zm3.4-11.7h1.7c2.4 0 4.3-.5 5.4-1.6s1.8-2.4 1.8-4c0-1.2-.4-2.1-1.1-2.8s-1.9-1-3.5-1c-.4 0-1 .1-1.6.2l-2.7 9.2zM216.6 0c1.6 0 3 .3 4.2 1s2.2 1.7 2.9 3 1 2.7 1 4.2c0 2.6-.7 5.2-2.2 8s-3.4 4.9-5.8 6.4-4.9 2.2-7.4 2.2c-1.8 0-3.4-.4-4.6-1.2s-2.2-1.9-2.7-3.2-.9-2.6-.9-3.9c0-2.2.5-4.4 1.6-6.6s2.4-4 3.8-5.4 3.1-2.6 4.8-3.4 3.4-1.1 5.3-1.1zm-.6 1.1c-1.2 0-2.3.3-3.4.9s-2.2 1.5-3.3 2.8-2.1 3-3 5.2c-1.1 2.6-1.6 5.1-1.6 7.4 0 1.7.4 3.1 1.3 4.4s2.2 1.9 3.9 1.9c1.1 0 2.1-.3 3.1-.8s2.1-1.4 3.2-2.7c1.4-1.6 2.6-3.7 3.5-6.1s1.4-4.8 1.4-7c0-1.6-.4-3-1.3-4.2s-2.1-1.8-3.8-1.8zM243.4 0l-1.8 19.8c-.1.9-.1 1.5-.1 1.8 0 .5.1.8.3 1.1.2.3.5.6.9.8s1 .2 1.9.2l-.2.7H235l.2-.7h.4c.8 0 1.4-.2 1.9-.5.3-.2.6-.6.8-1.1.1-.4.3-1.2.4-2.6l.3-3h-7l-2.4 3.3c-.6.7-.9 1.3-1 1.6s-.2.6-.2.9c0 .4.2.7.5 1s.8.4 1.5.4l-.2.7h-7l.2-.7c.9 0 1.6-.3 2.3-.9s1.6-1.7 3-3.5L242.8 0h.6zm-3.5 5.9l-6.9 9.4h6l.9-9.4zM261.8 24.4L258 12.8c-.9 0-1.8-.1-2.7-.3l-2.1 7.2c-.3.9-.4 1.7-.4 2.4 0 .5.2.9.5 1.2.3.2 1 .4 2.1.5l-.2.7H246l.2-.7c.9 0 1.5-.1 1.8-.3.5-.2.8-.5 1.1-.8.4-.6.8-1.5 1.2-2.9l4.2-14.4c.3-1 .4-1.7.4-2.2 0-.5-.2-1-.7-1.4s-1.1-.6-1.9-.5l.2-.7h7.8c2.6 0 4.5.5 5.6 1.5s1.7 2.3 1.7 3.9c0 1.5-.6 2.9-1.8 4.2s-2.8 2.1-4.8 2.4l2.3 7c.6 1.7 1.1 2.8 1.7 3.3s1.5.8 2.7.9l-.2.7h-5.7zm-6.3-12.9c.8.1 1.4.2 2 .2 2 0 3.6-.6 4.8-1.7s1.8-2.5 1.8-4.2c0-1.3-.4-2.3-1.1-3s-1.8-1-3.3-1c-.4 0-.8 0-1.3.1l-2.9 9.6zM274.1 1.2l.2-.7h7.6c3.2 0 5.6.4 7.2 1.1s2.8 1.9 3.7 3.5 1.4 3.3 1.4 5.1c0 1.6-.3 3.1-.8 4.5s-1.1 2.6-1.8 3.5-1.7 1.9-3.1 2.9-2.9 1.9-4.5 2.4-3.7.8-6.1.8h-10.1l.2-.7c.9 0 1.5-.1 1.9-.2.5-.2.8-.5 1-.8.3-.5.7-1.5 1.1-3l4.2-14.4c.3-1.1.5-2 .5-2.7 0-.5-.2-.8-.5-1.1s-.9-.4-1.8-.4h-.3zm6.2.7l-5.2 17.8c-.4 1.3-.6 2.2-.6 2.5 0 .2.1.4.2.5s.3.3.5.4c.3.1.8.2 1.5.2 1.8 0 3.5-.2 5.1-.6s2.9-.9 3.9-1.7c1.4-1.1 2.6-2.6 3.4-4.5s1.3-4.1 1.3-6.5c0-2.8-.7-4.8-2-6.1s-3.2-2-5.7-2c-.6-.1-1.4-.1-2.4 0z"/></svg>