<svg xmlns="http://www.w3.org/2000/svg" xmlns:xlink="http://www.w3.org/1999/xlink" x="0px" y="0px"  viewBox="0 0 294.2 24.9" enable-background="new 0 0 294.2 24.9" xml:space="preserve"><path fill="#FFFFFF" d="M15.8,24.4L12,12.8c-0.9,0-1.8-0.1-2.7-0.3l-2.1,7.2c-0.3,0.9-0.4,1.7-0.4,2.4c0,0.5,0.2,0.9,0.5,1.2  c0.3,0.2,1,0.4,2.1,0.5l-0.2,0.7H0l0.2-0.7c0.9,0,1.5-0.1,1.8-0.3C2.4,23.3,2.8,23,3,22.7c0.4-0.6,0.8-1.5,1.2-2.9L8.3,5.3  c0.3-1,0.4-1.7,0.4-2.2c0-0.5-0.2-1-0.7-1.4S7,1.2,6.2,1.2l0.2-0.7h7.8c2.6,0,4.5,0.5,5.6,1.5s1.7,2.3,1.7,3.9  c0,1.5-0.6,2.9-1.8,4.2s-2.8,2.1-4.8,2.4l2.3,7c0.6,1.7,1.1,2.8,1.7,3.3s1.5,0.8,2.7,0.9l-0.2,0.7H15.8z M9.5,11.5  c0.8,0.1,1.4,0.2,2,0.2c2,0,3.6-0.6,4.8-1.7s1.8-2.5,1.8-4.2c0-1.3-0.4-2.3-1.1-3s-1.8-1-3.3-1c-0.4,0-0.8,0-1.3,0.1L9.5,11.5z"/><path fill="#FFFFFF" d="M40.6,0c1.6,0,3,0.3,4.2,1s2.2,1.7,2.9,3s1,2.7,1,4.2c0,2.6-0.7,5.2-2.2,8s-3.4,4.9-5.8,6.4  s-4.9,2.2-7.4,2.2c-1.8,0-3.4-0.4-4.6-1.2s-2.2-1.9-2.7-3.2S25,17.8,25,16.6c0-2.2,0.5-4.4,1.6-6.6s2.4-4,3.8-5.4s3.1-2.6,4.8-3.4  S38.7,0,40.6,0z M40,1.1c-1.2,0-2.3,0.3-3.4,0.9s-2.2,1.5-3.3,2.8s-2.1,3-3,5.2c-1.1,2.6-1.6,5.1-1.6,7.4c0,1.7,0.4,3.1,1.3,4.4  s2.2,1.9,3.9,1.9c1.1,0,2.1-0.3,3.1-0.8s2.1-1.4,3.2-2.7c1.4-1.6,2.6-3.7,3.5-6.1s1.4-4.8,1.4-7c0-1.6-0.4-3-1.3-4.2  S41.7,1.1,40,1.1z"/><path fill="#FFFFFF" d="M49.1,24.9l2-8.8h0.6c-0.1,0.9-0.1,1.6-0.1,2.1c0,1.6,0.5,2.9,1.5,3.9s2.4,1.5,4,1.5c1.5,0,2.7-0.5,3.5-1.4  s1.2-2,1.2-3.3c0-0.8-0.2-1.5-0.5-2.2c-0.6-1-2-2.7-4.4-5.1c-1.2-1.2-1.9-2-2.2-2.6c-0.5-0.9-0.8-1.9-0.8-3c0-1.7,0.6-3.1,1.9-4.3  S58.5,0,60.4,0c0.7,0,1.3,0.1,1.9,0.2c0.4,0.1,1,0.3,2,0.7c0.7,0.3,1.1,0.4,1.1,0.4c0.2,0,0.3,0.1,0.5,0.1c0.3,0,0.6-0.1,0.9-0.3  s0.5-0.6,0.9-1.1h0.7l-1.8,7.9h-0.6c0-0.7,0.1-1.3,0.1-1.7c0-1.4-0.5-2.6-1.4-3.5s-2.2-1.4-3.7-1.4c-1.2,0-2.2,0.4-3,1.1  S56.7,4,56.7,4.9c0,0.8,0.2,1.6,0.7,2.3s1.6,2,3.4,3.6s2.9,3,3.4,3.9s0.8,1.9,0.8,3c0,1.2-0.3,2.4-1,3.5s-1.6,2-2.8,2.6  s-2.5,0.9-3.9,0.9c-0.7,0-1.4-0.1-2-0.2s-1.6-0.4-2.9-0.9c-0.5-0.2-0.8-0.3-1.1-0.3c-0.7,0-1.2,0.5-1.6,1.4H49.1z"/><path fill="#FFFFFF" d="M78.5,1.8l-2.7,9.4H78c1.6,0,2.7-0.2,3.5-0.7s1.3-1.4,1.8-2.7h0.7l-2.4,8.6h-0.7c0.2-0.7,0.3-1.3,0.3-1.9  c0-0.5-0.1-0.9-0.3-1.2s-0.5-0.5-0.8-0.7s-1.1-0.2-2.3-0.2h-2.3l-2.3,7.9c-0.2,0.8-0.3,1.3-0.3,1.7c0,0.3,0.1,0.6,0.4,0.8  c0.2,0.2,0.7,0.2,1.5,0.2h2.1c2.3,0,4.1-0.4,5.5-1.2s2.6-2.2,3.7-4.2h0.7l-2.3,6.6H66l0.2-0.7c0.9,0,1.5-0.1,1.8-0.2  c0.5-0.2,0.8-0.5,1-0.8c0.3-0.5,0.7-1.5,1.1-3l4.2-14.4c0.3-1.2,0.5-2,0.5-2.7c0-0.4-0.2-0.8-0.5-1s-0.9-0.4-1.8-0.4h-0.4l0.2-0.7  h17.1l-1.5,5.7h-0.7c0.1-0.5,0.1-1,0.1-1.4c0-0.6-0.2-1.1-0.5-1.6c-0.4-0.5-1-0.9-1.7-1.2c-0.6-0.2-1.9-0.3-3.9-0.3H78.5z"/><path fill="#FFFFFF" d="M94.1,1.2l0.2-0.7h8.5c1.4,0,2.7,0.2,3.8,0.7s2,1.1,2.5,1.9s0.8,1.6,0.8,2.5c0,1.4-0.5,2.6-1.5,3.7  s-2.6,1.9-4.8,2.5c1.4,0.5,2.5,1.3,3.2,2.1s1,1.9,1,2.9c0,1.2-0.3,2.3-0.9,3.4s-1.4,1.9-2.3,2.5s-2.1,1-3.5,1.3  c-1,0.2-2.5,0.3-4.5,0.3H88l0.2-0.7c0.9,0,1.5-0.1,1.9-0.3c0.5-0.2,0.8-0.5,1-0.8c0.3-0.4,0.7-1.5,1.1-3.1l4.3-14.4  C96.8,4,97,3.1,97,2.6c0-0.4-0.2-0.8-0.5-1s-0.9-0.4-1.8-0.4C94.5,1.2,94.3,1.2,94.1,1.2z M94.2,22.8c1.3,0.2,2.3,0.2,3,0.2  c1.8,0,3.4-0.6,4.9-1.7s2.1-2.6,2.1-4.5c0-1.4-0.4-2.6-1.3-3.4s-2.3-1.2-4.2-1.2c-0.4,0-0.8,0-1.4,0.1L94.2,22.8z M97.7,11.1  c0.8,0,1.3,0,1.7,0c2.4,0,4.3-0.5,5.4-1.6s1.8-2.4,1.8-4c0-1.2-0.4-2.1-1.1-2.8s-1.9-1-3.5-1c-0.4,0-1,0.1-1.6,0.2L97.7,11.1z"/><path fill="#FFFFFF" d="M115.5,0.5h10.1l-0.2,0.7c-1,0-1.8,0.1-2.2,0.3s-0.8,0.5-1.1,0.9s-0.6,1.2-1,2.4l-2.4,8.4  c-0.4,1.5-0.7,2.5-0.8,3c-0.1,0.8-0.2,1.4-0.2,2.1c0,1.4,0.5,2.6,1.6,3.6s2.5,1.5,4.2,1.5c1.2,0,2.2-0.2,3.1-0.7s1.7-1.1,2.3-1.8  s1.2-1.9,1.8-3.2s1-2.7,1.4-4.1l2.1-7.3c0.5-1.8,0.8-3,0.8-3.6c0-0.4-0.2-0.7-0.5-1s-1.1-0.4-2.2-0.5l0.2-0.7h7.6l-0.2,0.7  c-0.9,0-1.5,0.1-1.9,0.3s-0.7,0.5-1,0.9s-0.6,1.3-1,2.6l-2.6,8.8c-0.8,2.9-1.6,5-2.4,6.4s-1.8,2.5-3.2,3.4s-3.1,1.4-5.2,1.4  c-2.4,0-4.3-0.7-5.8-2s-2.2-2.9-2.2-4.6c0-0.7,0.1-1.4,0.2-2.2c0.1-0.5,0.3-1.4,0.7-2.7l2.4-8.1c0.3-1.2,0.5-2,0.5-2.6  c0-0.4-0.2-0.8-0.5-1s-1.2-0.4-2.5-0.5L115.5,0.5z"/><path fill="#FFFFFF" d="M142.1,0.5h18.1l-2,6.3h-0.7c0.2-0.9,0.3-1.8,0.3-2.5c0-0.9-0.3-1.5-0.8-1.9C156.7,2.1,155.7,2,154,2h-1.9  l-4.7,16.4c-0.6,2.1-0.9,3.3-0.9,3.8c0,0.4,0.2,0.8,0.6,1.1s1,0.4,2,0.4h0.8l-0.2,0.7h-10.4l0.2-0.7h0.5c0.9,0,1.6-0.1,2.1-0.4  c0.3-0.2,0.6-0.6,0.9-1.1s0.7-1.6,1.2-3.3L149.1,2h-1.4c-1.4,0-2.5,0.2-3.3,0.5s-1.5,0.9-2,1.5s-0.9,1.6-1.3,2.8h-0.7L142.1,0.5z"/><path fill="#FFFFFF" d="M162.1,0.5h18.1l-2,6.3h-0.7c0.2-0.9,0.3-1.8,0.3-2.5c0-0.9-0.3-1.5-0.8-1.9C176.7,2.1,175.7,2,174,2h-1.9  l-4.7,16.4c-0.6,2.1-0.9,3.3-0.9,3.8c0,0.4,0.2,0.8,0.6,1.1s1,0.4,2,0.4h0.8l-0.2,0.7h-10.4l0.2-0.7h0.5c0.9,0,1.6-0.1,2.1-0.4  c0.3-0.2,0.6-0.6,0.9-1.1s0.7-1.6,1.2-3.3L169.1,2h-1.4c-1.4,0-2.5,0.2-3.3,0.5s-1.5,0.9-2,1.5s-0.9,1.6-1.3,2.8h-0.7L162.1,0.5z"/><path fill="#FFFFFF" d="M182.2,1.2l0.2-0.7h8.5c1.4,0,2.7,0.2,3.8,0.7s2,1.1,2.5,1.9s0.8,1.6,0.8,2.5c0,1.4-0.5,2.6-1.5,3.7  s-2.6,1.9-4.8,2.5c1.4,0.5,2.5,1.3,3.2,2.1s1,1.9,1,2.9c0,1.2-0.3,2.3-0.9,3.4s-1.4,1.9-2.3,2.5s-2.1,1-3.5,1.3  c-1,0.2-2.5,0.3-4.5,0.3H176l0.2-0.7c0.9,0,1.5-0.1,1.9-0.3c0.5-0.2,0.8-0.5,1-0.8c0.3-0.4,0.7-1.5,1.1-3.1l4.3-14.4  c0.4-1.2,0.5-2.1,0.5-2.6c0-0.4-0.2-0.8-0.5-1s-0.9-0.4-1.8-0.4C182.5,1.2,182.3,1.2,182.2,1.2z M182.3,22.8c1.3,0.2,2.3,0.2,3,0.2  c1.8,0,3.4-0.6,4.9-1.7s2.1-2.6,2.1-4.5c0-1.4-0.4-2.6-1.3-3.4s-2.3-1.2-4.2-1.2c-0.4,0-0.8,0-1.4,0.1L182.3,22.8z M185.7,11.1  c0.8,0,1.3,0,1.7,0c2.4,0,4.3-0.5,5.4-1.6s1.8-2.4,1.8-4c0-1.2-0.4-2.1-1.1-2.8s-1.9-1-3.5-1c-0.4,0-1,0.1-1.6,0.2L185.7,11.1z"/><path fill="#FFFFFF" d="M216.6,0c1.6,0,3,0.3,4.2,1s2.2,1.7,2.9,3s1,2.7,1,4.2c0,2.6-0.7,5.2-2.2,8s-3.4,4.9-5.8,6.4  s-4.9,2.2-7.4,2.2c-1.8,0-3.4-0.4-4.6-1.2s-2.2-1.9-2.7-3.2s-0.9-2.6-0.9-3.9c0-2.2,0.5-4.4,1.6-6.6s2.4-4,3.8-5.4s3.1-2.6,4.8-3.4  S214.7,0,216.6,0z M216,1.1c-1.2,0-2.3,0.3-3.4,0.9s-2.2,1.5-3.3,2.8s-2.1,3-3,5.2c-1.1,2.6-1.6,5.1-1.6,7.4c0,1.7,0.4,3.1,1.3,4.4  s2.2,1.9,3.9,1.9c1.1,0,2.1-0.3,3.1-0.8s2.1-1.4,3.2-2.7c1.4-1.6,2.6-3.7,3.5-6.1s1.4-4.8,1.4-7c0-1.6-0.4-3-1.3-4.2  S217.7,1.1,216,1.1z"/><path fill="#FFFFFF" d="M243.4,0l-1.8,19.8c-0.1,0.9-0.1,1.5-0.1,1.8c0,0.5,0.1,0.8,0.3,1.1c0.2,0.3,0.5,0.6,0.9,0.8s1,0.2,1.9,0.2  l-0.2,0.7h-9.4l0.2-0.7h0.4c0.8,0,1.4-0.2,1.9-0.5c0.3-0.2,0.6-0.6,0.8-1.1c0.1-0.4,0.3-1.2,0.4-2.6l0.3-3H232l-2.4,3.3  c-0.6,0.7-0.9,1.3-1,1.6s-0.2,0.6-0.2,0.9c0,0.4,0.2,0.7,0.5,1s0.8,0.4,1.5,0.4l-0.2,0.7h-7l0.2-0.7c0.9,0,1.6-0.3,2.3-0.9  s1.6-1.7,3-3.5L242.8,0H243.4z M239.9,5.9l-6.9,9.4h6L239.9,5.9z"/><path fill="#FFFFFF" d="M261.8,24.4L258,12.8c-0.9,0-1.8-0.1-2.7-0.3l-2.1,7.2c-0.3,0.9-0.4,1.7-0.4,2.4c0,0.5,0.2,0.9,0.5,1.2  c0.3,0.2,1,0.4,2.1,0.5l-0.2,0.7H246l0.2-0.7c0.9,0,1.5-0.1,1.8-0.3c0.5-0.2,0.8-0.5,1.1-0.8c0.4-0.6,0.8-1.5,1.2-2.9l4.2-14.4  c0.3-1,0.4-1.7,0.4-2.2c0-0.5-0.2-1-0.7-1.4s-1.1-0.6-1.9-0.5l0.2-0.7h7.8c2.6,0,4.5,0.5,5.6,1.5s1.7,2.3,1.7,3.9  c0,1.5-0.6,2.9-1.8,4.2s-2.8,2.1-4.8,2.4l2.3,7c0.6,1.7,1.1,2.8,1.7,3.3s1.5,0.8,2.7,0.9l-0.2,0.7H261.8z M255.5,11.5  c0.8,0.1,1.4,0.2,2,0.2c2,0,3.6-0.6,4.8-1.7s1.8-2.5,1.8-4.2c0-1.3-0.4-2.3-1.1-3s-1.8-1-3.3-1c-0.4,0-0.8,0-1.3,0.1L255.5,11.5z"/><path fill="#FFFFFF" d="M274.1,1.2l0.2-0.7h7.6c3.2,0,5.6,0.4,7.2,1.1s2.8,1.9,3.7,3.5s1.4,3.3,1.4,5.1c0,1.6-0.3,3.1-0.8,4.5  s-1.1,2.6-1.8,3.5s-1.7,1.9-3.1,2.9s-2.9,1.9-4.5,2.4s-3.7,0.8-6.1,0.8h-10.1l0.2-0.7c0.9,0,1.5-0.1,1.9-0.2c0.5-0.2,0.8-0.5,1-0.8  c0.3-0.5,0.7-1.5,1.1-3l4.2-14.4c0.3-1.1,0.5-2,0.5-2.7c0-0.5-0.2-0.8-0.5-1.1s-0.9-0.4-1.8-0.4H274.1z M280.3,1.9l-5.2,17.8  c-0.4,1.3-0.6,2.2-0.6,2.5c0,0.2,0.1,0.4,0.2,0.5s0.3,0.3,0.5,0.4c0.3,0.1,0.8,0.2,1.5,0.2c1.8,0,3.5-0.2,5.1-0.6s2.9-0.9,3.9-1.7  c1.4-1.1,2.6-2.6,3.4-4.5s1.3-4.1,1.3-6.5c0-2.8-0.7-4.8-2-6.1s-3.2-2-5.7-2C282.1,1.8,281.3,1.8,280.3,1.9z"/></svg> 