<svg version="1.2" baseProfile="tiny" xmlns="http://www.w3.org/2000/svg" viewBox="0 0 244.5 34.6"><g fill="#FFF"><path d="M1.1 29c1.9 1.2 4.6 2.1 7.5 2.1 4.3 0 6.8-2.3 6.8-5.5 0-3-1.7-4.8-6.1-6.4C4 17.3.8 14.6.8 10 .8 5 5 1.2 11.3 1.2c3.3 0 5.7.8 7.2 1.6l-1.2 3.4c-1.1-.6-3.2-1.5-6.1-1.5-4.4 0-6.1 2.6-6.1 4.8 0 3 2 4.5 6.4 6.2 5.5 2.1 8.3 4.8 8.3 9.5 0 5-3.7 9.3-11.3 9.3-3.1 0-6.5-.9-8.3-2.1l.9-3.4zM29.3 21.5c.7-.8 1.5-1.8 2.2-2.6l6.8-8h5.1l-9 9.6 10.2 13.7h-5.1l-8-11.1-2.2 2.4v8.7h-4.2V0h4.2v21.5zM53 5.3h-9.8V1.7h24v3.6h-9.9v28.8H53V5.3zM88.2 22.3c0 8.6-6 12.3-11.6 12.3-6.3 0-11.1-4.6-11.1-12 0-7.8 5.1-12.3 11.5-12.3 6.7 0 11.2 4.9 11.2 12zm-18.4.2c0 5.1 2.9 8.9 7.1 8.9 4 0 7.1-3.8 7.1-9 0-3.9-2-8.9-7-8.9s-7.2 4.6-7.2 9zM93.6 18.1c0-2.7 0-5.1-.2-7.2h3.7l.1 4.6h.2c1.1-3.1 3.6-5.1 6.4-5.1.5 0 .8 0 1.2.1v4c-.4-.1-.9-.1-1.4-.1-3 0-5.1 2.3-5.7 5.4-.1.6-.2 1.2-.2 2v12.4h-4.2V18.1zM109.4 18.1c0-2.7 0-5.1-.2-7.2h3.7l.1 4.6h.2c1.1-3.1 3.6-5.1 6.4-5.1.5 0 .8 0 1.2.1v4c-.4-.1-.9-.1-1.4-.1-3 0-5.1 2.3-5.7 5.4-.1.6-.2 1.2-.2 2v12.4h-4.2V18.1zM127 23.2c.1 5.7 3.7 8.1 8 8.1 3 0 4.8-.5 6.4-1.2l.7 3c-1.5.7-4 1.4-7.7 1.4-7.2 0-11.4-4.7-11.4-11.7 0-7 4.1-12.5 10.9-12.5 7.6 0 9.6 6.7 9.6 10.9 0 .9-.1 1.5-.1 2H127zm12.4-3c0-2.7-1.1-6.9-5.9-6.9-4.3 0-6.1 3.9-6.5 6.9h12.4zM148.7 17.1c0-2.4 0-4.4-.2-6.3h3.7l.2 3.8h.1c1.2-2.2 3.8-4.4 7.7-4.4 3.2 0 8.2 1.9 8.2 9.9V34h-4.2V20.7c0-3.7-1.4-6.9-5.4-6.9-2.8 0-4.9 2-5.7 4.3-.2.5-.3 1.2-.3 2v14h-4.2v-17zM180.2 4.2v6.7h6v3.2h-6v12.5c0 2.9.8 4.5 3.2 4.5 1.1 0 1.9-.1 2.4-.3l.2 3.2c-.8.3-2.1.6-3.7.6-2 0-3.6-.6-4.6-1.8-1.2-1.2-1.6-3.3-1.6-6V14.1h-3.6v-3.2h3.6V5.3l4.1-1.1zM189.9 31.6c0-1.8 1.2-3 2.9-3s2.8 1.2 2.8 3c0 1.7-1.1 3-2.9 3-1.7 0-2.8-1.3-2.8-3zM203.2 23.2c.1 5.7 3.7 8.1 8 8.1 3 0 4.8-.5 6.4-1.2l.7 3c-1.5.7-4 1.4-7.7 1.4-7.2 0-11.4-4.7-11.4-11.7 0-7 4.1-12.5 10.9-12.5 7.6 0 9.6 6.7 9.6 10.9 0 .9-.1 1.5-.1 2h-16.4zm12.4-3c0-2.7-1.1-6.9-5.9-6.9-4.3 0-6.1 3.9-6.5 6.9h12.4zM244.3 27.7c0 2.4 0 4.5.2 6.3h-3.7l-.2-3.8h-.1c-1.1 1.9-3.6 4.3-7.7 4.3-3.6 0-8-2-8-10.2V10.8h4.2v12.9c0 4.4 1.3 7.4 5.2 7.4 2.8 0 4.8-2 5.6-3.8.2-.6.4-1.4.4-2.2V10.8h4.2v16.9z"/></g></svg>