<svg version="1.2" baseProfile="tiny" id="Layer_1" xmlns="http://www.w3.org/2000/svg" xmlns:xlink="http://www.w3.org/1999/xlink" x="0px" y="0px" viewBox="0 0 244.5 34.6" xml:space="preserve"><g><path fill="#FFFFFF" d="M1.1,29c1.9,1.2,4.6,2.1,7.5,2.1c4.3,0,6.8-2.3,6.8-5.5c0-3-1.7-4.8-6.1-6.4c-5.3-1.9-8.5-4.6-8.5-9.2 c0-5,4.2-8.8,10.5-8.8c3.3,0,5.7,0.8,7.2,1.6l-1.2,3.4c-1.1-0.6-3.2-1.5-6.1-1.5c-4.4,0-6.1,2.6-6.1,4.8c0,3,2,4.5,6.4,6.2 c5.5,2.1,8.3,4.8,8.3,9.5c0,5-3.7,9.3-11.3,9.3c-3.1,0-6.5-0.9-8.3-2.1L1.1,29z"/><path fill="#FFFFFF" d="M29.3,21.5L29.3,21.5c0.7-0.8,1.5-1.8,2.2-2.6l6.8-8h5.1l-9,9.6l10.2,13.7h-5.1l-8-11.1l-2.2,2.4v8.7h-4.2 V0h4.2V21.5z"/><path fill="#FFFFFF" d="M53,5.3h-9.8V1.7h24v3.6h-9.9v28.8H53V5.3z"/><path fill="#FFFFFF" d="M88.2,22.3c0,8.6-6,12.3-11.6,12.3c-6.3,0-11.1-4.6-11.1-12c0-7.8,5.1-12.3,11.5-12.3 C83.7,10.3,88.2,15.2,88.2,22.3z M69.8,22.5c0,5.1,2.9,8.9,7.1,8.9c4,0,7.1-3.8,7.1-9c0-3.9-2-8.9-7-8.9S69.8,18.1,69.8,22.5z"/><path fill="#FFFFFF" d="M93.6,18.1c0-2.7,0-5.1-0.2-7.2h3.7l0.1,4.6h0.2c1.1-3.1,3.6-5.1,6.4-5.1c0.5,0,0.8,0,1.2,0.1v4 c-0.4-0.1-0.9-0.1-1.4-0.1c-3,0-5.1,2.3-5.7,5.4c-0.1,0.6-0.2,1.2-0.2,2v12.4h-4.2V18.1z"/><path fill="#FFFFFF" d="M109.4,18.1c0-2.7,0-5.1-0.2-7.2h3.7l0.1,4.6h0.2c1.1-3.1,3.6-5.1,6.4-5.1c0.5,0,0.8,0,1.2,0.1v4 c-0.4-0.1-0.9-0.1-1.4-0.1c-3,0-5.1,2.3-5.7,5.4c-0.1,0.6-0.2,1.2-0.2,2v12.4h-4.2V18.1z"/><path fill="#FFFFFF" d="M127,23.2c0.1,5.7,3.7,8.1,8,8.1c3,0,4.8-0.5,6.4-1.2l0.7,3c-1.5,0.7-4,1.4-7.7,1.4 c-7.2,0-11.4-4.7-11.4-11.7c0-7,4.1-12.5,10.9-12.5c7.6,0,9.6,6.7,9.6,10.9c0,0.9-0.1,1.5-0.1,2H127z M139.4,20.2 c0-2.7-1.1-6.9-5.9-6.9c-4.3,0-6.1,3.9-6.5,6.9H139.4z"/><path fill="#FFFFFF" d="M148.7,17.1c0-2.4,0-4.4-0.2-6.3h3.7l0.2,3.8h0.1c1.2-2.2,3.8-4.4,7.7-4.4c3.2,0,8.2,1.9,8.2,9.9v13.9h-4.2 V20.7c0-3.7-1.4-6.9-5.4-6.9c-2.8,0-4.9,2-5.7,4.3c-0.2,0.5-0.3,1.2-0.3,2v14h-4.2V17.1z"/><path fill="#FFFFFF" d="M180.2,4.2v6.7h6v3.2h-6v12.5c0,2.9,0.8,4.5,3.2,4.5c1.1,0,1.9-0.1,2.4-0.3L186,34 c-0.8,0.3-2.1,0.6-3.7,0.6c-2,0-3.6-0.6-4.6-1.8c-1.2-1.2-1.6-3.3-1.6-6V14.1h-3.6v-3.2h3.6V5.3L180.2,4.2z"/><path fill="#FFFFFF" d="M189.9,31.6c0-1.8,1.2-3,2.9-3c1.7,0,2.8,1.2,2.8,3c0,1.7-1.1,3-2.9,3C191,34.6,189.9,33.3,189.9,31.6z"/><path fill="#FFFFFF" d="M203.2,23.2c0.1,5.7,3.7,8.1,8,8.1c3,0,4.8-0.5,6.4-1.2l0.7,3c-1.5,0.7-4,1.4-7.7,1.4 c-7.2,0-11.4-4.7-11.4-11.7c0-7,4.1-12.5,10.9-12.5c7.6,0,9.6,6.7,9.6,10.9c0,0.9-0.1,1.5-0.1,2H203.2z M215.6,20.2 c0-2.7-1.1-6.9-5.9-6.9c-4.3,0-6.1,3.9-6.5,6.9H215.6z"/><path fill="#FFFFFF" d="M244.3,27.7c0,2.4,0,4.5,0.2,6.3h-3.7l-0.2-3.8h-0.1c-1.1,1.9-3.6,4.3-7.7,4.3c-3.6,0-8-2-8-10.2V10.8h4.2 v12.9c0,4.4,1.3,7.4,5.2,7.4c2.8,0,4.8-2,5.6-3.8c0.2-0.6,0.4-1.4,0.4-2.2V10.8h4.2V27.7z"/></g></svg> 