<svg xmlns="http://www.w3.org/2000/svg" width="451.003" height="507.332"><g transform="translate(-168.754 -52.413)"><path d="M284.953 425.625c-41.441-.008-74.219-15.391-94.77-44.48-23.637-33.461-28.066-83.176-11.559-129.75 21.262-60.016 68.266-89.355 68.742-89.641l2.801-1.703 4.555-14.98 21.422 4.02 14.844 29.734-.773 5.273c-.738 4.98-1.48 9.875-2.215 14.695l-.191 1.238c-5.277 34.695-9.832 64.66-6.102 82.488 2.242 10.711 7.199 17.898 15.895 22.906 2.984-3.594 5.02-5.305 7.535-5.305h.812l.98.34c3.582 1.434 4.047 5.508 3.922 10.246.348.098.703.199 1.07.289 6.363 1.621 11.062 5.375 13.602 10.852 4.191 9.082.234 17.125-3.254 24.215-2.578 5.238-6.379 12.953-8.754 23.418 3.586 6.008 4.141 11.75 3.934 15.641-.297 5.516-2.406 11.066-5.996 15.848 1.102 4.875.484 9.473-1.844 13.688-5.285 9.566-15.68 10.465-19.094 10.754a61.07 61.07 0 0 1-5.262.215h-.3zM506.766 425.695c-6.77 0-12.57-2.73-16.773-7.902-8.246-10.133-6.812-26.621-3.918-41.938-3.145-2.297-7.34-5.594-9.633-10.934l-5.355-12.438 11.875-6.527c24.914-13.723 34.227-39.723 27.668-77.289-2.957-4.148-7.086-11.844-10.824-25.562-2.727-10.008-13.16-72.691-7.508-83.227 1.012-1.898 5.035-8.109 14.039-8.109 5.695 0 19.23 3.664 28.004 12.398.246-.012.488-.016.734-.016 5.488 0 9.648 2.668 13.672 5.242l.477.301c1.07.68 2.219 1.41 3.492 2.164 2.246 1.336 6.668 3.961 10.598 9.719 6.301 1.035 11.359 5.949 20.273 15.086.207.219.996 1.027 1.203 1.227 2.219 2.195 3.977 5.051 5.602 9.125 11.438 4.383 18.34 21.609 19.629 27.852l.508 1.938c15.383 58.23 11.477 106.727-11.297 140.25-18.512 27.266-48.637 43.574-89.535 48.465a26.04 26.04 0 0 1-2.931.175z" fill="#260859"/><path d="M382.699 555.371c-19.875-6.996-194.086-71.027-194.086-164.996l.012-281.641c0-25.367 21.531-46.004 47.996-46.004 16.855 0 32.289 8.32 40.957 21.902 31.453-3.801 73.332-11.934 99.66-23.809l2.559-1.129 15.438-7.281 16.172 7.629c26.121 12.301 69 20.699 101.461 24.602 8.672-13.59 24.102-21.914 40.949-21.914 26.473 0 48.008 20.551 48.008 45.812l-.027 281.832c0 94.301-174.176 158.012-194.039 164.965l-12.523 4.406-12.537-4.374z" fill="#260859"/><path d="M389.637 535.469c-18.43-6.48-179.949-65.598-179.949-145.094l.012-281.641c0-13.93 12.086-24.93 26.922-24.93 14.336 0 26.137 10.309 26.867 23.469l.004.012c35.363-3.055 88.648-12.023 122.41-27.25l2.426-1.07 6.906-3.254 7.176 3.387c33.441 15.754 87.988 25.031 124.539 28.188h.004c.73-13.168 12.527-23.48 26.863-23.48 14.852 0 26.934 11.098 26.934 24.738l-.027 281.832c0 79.676-161.52 138.625-179.938 145.082l-5.57 1.961-5.579-1.95z" fill="#7c3a00"/><path d="M395.156 112.82l-1.527.621c-37.711 15.406-92.113 24.406-127.242 27.43l-22.969 1.984-.008 130.859h151.746V112.82z" fill="#ffef6f"/><path d="M395.223 75.715l-6.895 3.25-2.426 1.07c-33.762 15.227-87.047 24.195-122.41 27.25l-.004-.012c-.73-13.16-12.531-23.469-26.867-23.469-14.836 0-26.922 11-26.922 24.93l-.012 281.641c0 79.496 161.52 138.613 179.949 145.094l5.578 1.949.008-.004V75.715z" fill="#e8941a"/><path d="M553.816 100.664c-5.395 0-9.801 3.312-10.035 7.539l-.941 17.375-17.34-1.5c-38.246-3.301-94.871-13.051-130.277-29.734-.773.363-1.609.707-2.402 1.062.016-.004.031-.012.043-.016v307.098l171.008-126.707.02-167.238c-.001-4.27-4.615-7.879-10.076-7.879z" fill="#e8941a"/><path d="M392.863 397.402V95.391c-35.527 16.031-90.5 25.457-127.926 28.688l-17.336 1.5-.941-17.367c-.234-4.234-4.645-7.547-10.039-7.547-5.766 0-10.082 3.891-10.09 7.219l.027.852-.004 152.738 166.309 135.928z" fill="#ffef6f"/><path d="M525.5 124.078c-38.246-3.301-94.871-13.051-130.277-29.734-.492.23-1.031.449-1.527.676v41.531l30.055-1.555 113.195 21.496 10.082-13.633-4.188-17.281-17.34-1.5z" fill="#e8941a"/><path d="M393.695 95.02c-35.492 16.262-91.043 25.805-128.758 29.059l-17.336 1.5-4.184 17.277 19.438 6.918L365.3 138.02l28.395-1.469V95.02z" fill="#fff"/><path d="M226.555 243.211l-.008 147.652c0 55.215 105.336 106.918 168.656 129.176 63.324-22.238 168.66-73.918 168.66-129.176l.016-147.652H226.555z" fill="#ffd26c"/><path d="M393.746 508.047c-74.832-27.574-150.34-72.504-150.34-110.734l.012-254.457 22.969-1.984c35.129-3.023 89.531-12.023 127.242-27.43l1.594-.648 1.59.648c37.711 15.406 92.109 24.406 127.242 27.43l22.973 1.988-.023 254.453c0 38.266-75.508 83.188-150.344 110.734l-1.457.535-1.458-.535z" fill="#fff"/><path d="M524.055 140.871c-35.133-3.023-89.531-12.023-127.242-27.43l-1.59-.648-1.594.648 1.527-.621v160.895h151.859l.012-130.855-22.972-1.989z" fill="#ffd26c"/><path d="M395.156 112.82l-1.527.621c-37.711 15.406-92.113 24.406-127.242 27.43l-22.969 1.984-.008 130.859h151.746V112.82z" fill="#ffef6f"/><linearGradient x1="395.216" y1="132.925" x2="395.216" y2="491.238" id="a" gradientUnits="userSpaceOnUse"><stop offset="0" stop-color="#e8941a"/><stop offset="1" stop-color="#ffef6f"/></linearGradient><path d="M395.203 494.371c-79.438-29.762-139.152-71.68-139.152-97.785l.012-242.137 11.41-.984c34.82-2.996 88.879-11.863 127.75-27.043 38.859 15.18 92.914 24.047 127.742 27.043l11.418.988-.023 242.133c-.001 26.133-59.715 68.051-139.157 97.785z" fill="url(#a)"/><path d="M534.359 377.328c0 26.133-59.715 68.051-139.156 97.785-79.426-29.758-139.133-71.664-139.152-97.773v23.805c0 26.102 59.715 68.02 139.152 97.785 79.441-29.734 139.156-71.652 139.156-97.785l.023-246.691-.023 222.874z" fill="#260859"/><path d="M395.156 126.445c-38.867 15.164-92.883 24.023-127.684 27.02l-11.41.984v16.746l10.133-.867c35.152-2.996 89.707-11.855 128.961-27.02v-16.863z" fill="#a84d10"/><path d="M522.965 153.465c-34.828-2.996-88.883-11.863-127.742-27.043-.223.086-.457.164-.68.25.199-.074.41-.148.613-.227v16.863a.843.843 0 0 1 .066-.023c39.25 15.18 93.844 24.047 129.023 27.043l10.137.871v-16.746l-11.417-.988z" fill="#a84d10"/><path d="M256.062 158.086l-.012 238.5c0 7.613 5.105 16.57 14.262 26.176 1.164.109 2.312.242 3.492.328.074 1.215.168 2.344.277 3.438 23.133 22.137 66.586 47.148 118.852 66.977l-.059-1.766c-.59-18.352-2.348-35.594-4.691-46.121-5.438-24.406-22.613-48.82-37.359-62.367-6.184-15.457-1.742-25.371 4.391-39.07 1.871-4.168 3.992-8.887 5.699-13.855 5.145-14.93 4.266-38.211-1.984-53.98-2.898-9.637-9.184-16.973-16.832-19.625-2.328-.777-5.027-1.312-8.23-1.625-3.215-10.938-1.609-22.059-1.598-22.148l1.754-10.398-9.758-3.961c-.977-.398-9.941-3.902-23.02-3.902-6.027 0-12.105.785-18.117 2.34.82-5.617 1.695-11.391 2.598-17.309 0 0 1.664-10.949 2.402-15.922l.676-4.617-15.496-26.328s-3.242.398-5.836.617l-11.411 4.618zM514.695 428.105c.016-1.758.035-3.516-.082-5.402 2.242-.328 4.438-.699 6.609-1.102 8.461-9.164 13.137-17.707 13.137-25.016l-1.562-226.52s2.516-.133 2.234-.102c-3.75-10.566-23.34-16.086-28.695-16.086-7.617 0-11.059 4.895-12.184 6.996-5.09 9.496 4.488 69.965 7.688 81.676.309 1.141.621 2.191.938 3.234l-1.672 8.418c-14.316-13.652-32.395-28.645-42.766-28.645-.656 0-1.289.055-1.898.156-2.648.461-4.789 1.961-6.016 4.215-1.777 3.258-1.703 7.801.27 14.133-5.043-1.027-11.129-1.98-16.34-1.98-6.387 0-10.586 1.453-12.836 4.434-4.473 5.934-2.328 15.238 6.367 27.66 2.562 3.668 5.789 7.285 8.969 10.848.66.746 1.328 1.492 1.992 2.242-9.152 14.402-11.535 36.027-6.352 58.285 2.27 9.738 5.41 16.656 8.188 22.77 1.766 3.883 3.203 7.047 4.09 10.273-21.77 18.578-37.285 42.938-42.648 67.016-2.184 9.785-3.836 25.16-4.547 42.199l-.23 5.742c51.096-19.35 93.811-43.674 117.346-65.444z" fill="#260859"/><path d="M321.699 323.621c-1.984-4.289-5.723-7.242-10.809-8.539-19.477-4.91-29.746-14.688-33.309-31.699-3.887-18.574.723-48.887 6.062-83.988l.188-1.234c.734-4.816 1.477-9.707 2.211-14.672l.582-3.965-13.316-26.676-15.652-2.938-3.922 12.906-4.168 2.527c-.457.281-46.105 28.566-66.969 87.457-16.059 45.312-11.832 93.551 11.023 125.91 19.73 27.922 51.32 42.691 91.348 42.699a59.456 59.456 0 0 0 5.184-.195c4.969-.43 12.004-1.789 15.77-8.598 2.121-3.844 2.418-7.98.891-12.609 3.871-4.461 6.141-9.797 6.426-15.113.195-3.613-.395-9.031-4.211-14.613 2.449-11.852 6.652-20.379 9.449-26.062 3.375-6.86 6.57-13.344 3.222-20.598z" fill="#260859"/><path d="M199.93 259.562c14.34-66.531 55.953-77.508 55.953-77.508l-1.012 36.066.816 76.336s-2.602 60.848 30.262 73.891c32.863 13.039 6.941 42.215-36.23 31.109-41.219-9.854-65.254-69.296-49.789-139.894z" fill="#fff"/><path d="M228.879 317.406c-10.066-45.742 11.844-91.457 22.941-105.285l13.945-45.91 7.914 15.453c-4.523 30.586-9.375 58.598-9.957 80.766-.121 4.418.922 20.125 1.629 23.516 3.336 15.93 11.039 27.066 24.359 34.395 2.242 1.234 13.094-16.984 15.656-15.965 3.352 1.344-1.461 21.836 2.469 22.828 9.133 2.305-6.898 13.684-11.938 45.445-21.198 1.91-56.975-9.61-67.018-55.243z" fill="#f26531"/><path d="M194.371 256.984c19.648-55.469 61.68-80.957 61.68-80.957l-.434 15.422c-15.742 12.766-62.27 71.184-44.375 141.27 13.469 48.656 52.797 63.223 80.523 57.949-4.102 9.059 14.18 18.254-6.789 18.254-91.675-.02-114.8-83.645-90.605-151.938z" fill="#7ac143"/><path fill="#260859" d="M213.434 210.594l-8.125 11.535 34.285 10.726zM191.312 240.535l-5.144 16.844 44.82-.621zM183.648 279.039l-.566 17.606 43.098-12.313zM180.789 326.434l5.211 19.57 43.383-27.856zM201.324 373.969l13.043 15.484 27.406-43.668zM241.258 405.695l17.879 4.047 8.816-42.703z"/><path d="M324.59 268.086c.148.016.281.008.438.023-9.18-17.043-5.715-37.352-5.715-37.352s-16.691-6.77-37.332.254c-24.391 8.301-27.098 26.691-24.246 32.094 2.688 5.09 9.637 6.027 15.934 2.34 3.547 9.219 8 15.848 18.32 24.191l34.66-20.137c-.001.001-.837-.394-2.059-1.413z" fill="#fff200"/><path d="M274.98 347.574c-5.398 0-8.523-1.82-9.355-2.379l-9.891-6.449 12.168-6.41c5.203-1.285 10.617-7.621 15.832-14.719-1.098.18-2.164.363-3.195.535-6.023 1.031-11.086 1.895-14.895 1.895-.688 0-1.328-.031-1.918-.082a5.931 5.931 0 0 0-.59-.027c-4.445 0-10.258 3.727-12.125 5.164l-6.609 5.445-4.531-8.77c-.234-.688-2.207-6.969 1.93-14.664 3.105-5.758 12.41-13.875 23.41-13.875 1.82 0 3.633.219 5.387.652a7.238 7.238 0 0 0 1.734.223c2.828 0 5.781-1.98 8.781-5.883.738-1.004 1.242-1.891 1.648-2.598.473-.82.875-1.5 1.395-2.191 1.762-2.109 4.008-3.098 6.93-3.098 5.004 0 11.262 2.648 13.82 10.074.008 0 .719 1.465 4.141 4.703 3.637.766 6.613 2.043 8.863 3.809 3.297 2.598 5.059 6.297 4.953 10.43-.207 8.285-7.871 17.668-23.434 28.684-11.148 7.875-19.449 9.531-24.449 9.531z" fill="#260859"/><path d="M285.051 298.215c-8.113-6.562-13.383-12.48-17.387-19.559-.559.035-1.121.059-1.676.059-7.941 0-14.508-3.812-18.008-10.461-2.953-5.582-2.887-13.828.176-21.527 2.715-6.844 10.266-19.348 30.266-26.16a70.746 70.746 0 0 1 22.824-3.773c12.699 0 21.285 3.363 22.227 3.746l8.191 3.324-1.473 8.734c-.02.137-2.246 15.293 3.441 28.035l16.324 8.004-17.734 10.391-41.266 23.961-5.905-4.774z" fill="#260859"/><path d="M313.297 327.484c-4.66 0-5.777-4.406-6.758-8.293-.754-2.98-1.535-6.062-3.594-8.117-7.707-7.703-18.688-12.191-18.801-12.238l-1.008-.406-.25-1.062c-1.91-8.031-.074-15.875 5.312-22.695 8.305-10.508 25-17.848 40.602-17.848 4.613 0 8.863.637 12.629 1.895 11.438 3.969 18.797 19.078 16.785 34.398-2.59 19.672-19.195 32.516-44.418 34.352l-.499.014z" fill="#260859"/><path d="M390.77 491.805c-.586-18.211-2.32-35.305-4.645-45.73-5.391-24.207-22.441-48.285-37.074-61.586-6.785-16.547-1.922-27.41 4.227-41.141 1.859-4.137 3.961-8.82 5.645-13.711 6.371-18.496 3.301-52.016-9.367-64.766l-.875-.883-17.277 4.875-.285 1.207c-3.629 15.34-12.52 35.328-19.969 40.625l-5.223 3.711.672 6.355c1.371 13.16-5.613 28.898-23.094 64.328-6.949 14.074-9.164 28.023-7.043 43.664 23.328 21.27 64.762 44.902 114.336 63.93l-.028-.878z" fill="#260859"/><path d="M286.379 296.578c-8.293-6.707-13.605-12.801-17.535-20.16-.957.125-1.914.188-2.855.188-7.129 0-13.016-3.398-16.145-9.336-2.672-5.051-2.57-12.621.27-19.766 2.586-6.512 9.793-18.406 28.988-24.941a68.534 68.534 0 0 1 22.145-3.664c12.223 0 20.52 3.219 21.426 3.59l6.637 2.691-1.195 7.066c-.023.141-2.43 16.492 3.918 29.945l13.477 6.609-14.352 8.406-40 23.23-4.779-3.858z" fill="#260859"/><path d="M324.59 268.086c.148.016.281.008.438.023-9.18-17.043-5.715-37.352-5.715-37.352s-16.691-6.77-37.332.254c-24.391 8.301-27.098 26.691-24.246 32.094 2.688 5.09 9.637 6.027 15.934 2.34 3.547 9.219 8 15.848 18.32 24.191l34.66-20.137c-.001.001-.837-.394-2.059-1.413z" fill="#fff200"/><path d="M291.426 228.664a58.898 58.898 0 0 0-9.445 2.348 55.093 55.093 0 0 0-5.012 1.988c.133.762.27 1.52.402 2.305 2.273 13.105 5.395 30.973 23.766 49.016l3.77-2.191 4.488-4.691a65.007 65.007 0 0 1-1.398-1.371c-15.052-15.072-17.841-27.463-16.571-47.404zM319.312 230.758s-4.73-1.898-12.234-2.641c-2.945 19.641.68 32.223 5.871 43.66 2.867-2.016 6.352-4.246 12.078-3.668-9.179-17.043-5.715-37.351-5.715-37.351z" fill="#f26531"/><path d="M340.762 260.719c-22.492-7.508-62.18 9.445-55.824 36.164 0 0 11.375 4.582 19.496 12.699 5.488 5.477 3.191 16.223 9.211 15.781 55.078-4.008 48.554-57.203 27.117-64.644z" fill="#260859"/><path d="M384.066 446.531c-5.324-23.91-22.367-47.836-36.781-60.797-7.402-17.637-2.094-29.484 4.07-43.25 1.84-4.102 3.926-8.746 5.574-13.535 6.051-17.562 3.086-50.559-8.871-62.594l-14.891 4.199c-3.703 15.652-12.715 36.105-20.797 41.855l-4.219 3 .543 5.133c1.426 13.711-5.629 29.66-23.301 65.484-7.051 14.281-9.199 28.594-6.531 44.879 23.355 20.395 62.828 42.727 109.797 60.965-.671-20.983-2.706-36.886-4.593-45.339z" fill="#260859"/><path d="M375.43 448.457c-4.688-21.027-20.555-44.578-35.52-57.488-.02-.051-.031-.094-.059-.145-12.793-28.352 1.895-44.961 8.711-64.754 5.188-15.062 2.301-44.332-6.785-53.473-2.863 12.109-12.199 38.438-24.281 47.027 1.711 16.387-6.383 34.281-24.168 70.316-7.707 15.625-8.574 31.184-3.348 49.906 22.02 16.477 53.324 33.613 89.688 48.441-.727-17.475-2.406-31.607-4.238-39.83z" fill="#f26531"/><path d="M336.758 268.195c-10.891-5.066-39.801.785-49.402 24.723 0 0 8.891 5.105 14.688 12.75 3.91 5.168 3.672 14.082 8.707 14.211 42.866 1.105 42.554-43.981 26.007-51.684z" fill="#f26531"/><path d="M272.738 340.402c-1.93 0-3.652-.895-4.738-2.457-1.965-2.816-.754-6.086-.109-7.84 3.441-9.297 12.891-18.176 21.5-20.219l16.016-4.246 1.781.863c4.453 2.152 2.496-3.094 5.336-1.969 11.52 4.566 5.867 13.898 4.336 16.051-3.465 4.875-7.785 4.871-10.066 5.266-9.285 1.57-14.492 4.105-18.293 5.965-1.504.734-2.801 1.367-4.184 1.898-.977.379-3.066 2.02-4.32 3-2.829 2.224-4.7 3.688-7.259 3.688z" fill="#260859"/><path d="M304.859 311.324l-14.234 3.773c-6.875 1.625-14.824 9.062-17.707 16.859-2.891 7.805 4.785-1.43 9.469-3.234 4.668-1.812 10.121-5.887 23.5-8.156 13.379-2.265-1.028-9.242-1.028-9.242z" fill="#f26531"/><path d="M290.859 310.074s-11.062 22.945-25.168 28.18l10.75 1.375s15.59-9.383 18.441-19.707c2.852-10.312 2.551-15.832 2.551-15.832l-6.574 5.984z" fill="#260859"/><path d="M313.492 304.547c-6.148-4.84-21.82-2.699-21.82-2.699l8.758 5.172c-8.391 9.762-18.191 29.141-30.828 32.25 0 0 8.082 5.398 25.703-7.062s24.347-22.825 18.187-27.661z" fill="#fff200"/><path d="M289.879 287.703c-.773 1.035-1.34 2.477-3.102 4.871-2.613 3.402-8.828 10.496-17.902 8.246-9.074-2.25-18.012 4.523-20.785 9.676-2.77 5.152-1.465 8.965-1.465 8.965s9.391-7.359 17.73-6.609c8.348.758 32.059-6.914 50.258-4.016 0 0-14.355-10.16-16.457-16.086-2.011-5.848-7.902-5.488-8.277-5.047z" fill="#fff200"/><path d="M318.129 275.305c-8.238 10.934-12.203 12.973-19.973 17.445 18.227 33.57 52.637-9.355 19.973-17.445z" fill="#260859"/><path d="M315.082 300.051c-3.988 0-7.168-2.73-9.383-5.508 5.203-3.199 9.039-6.363 14.363-13.004 4.559 1.859 6.637 4.664 6.188 8.344-.574 4.703-5.578 10.168-11.168 10.168z" fill="#fff"/><path d="M317.875 282.395c-2.621 1.168-5.152 2.633-7.699 3.727-1.414.609-3.875 2.562-3.633 3.16 1.148 2.824 3.023 5.551 6.082 6.75.297.117.602.211.906.289a33.262 33.262 0 0 0 1.898-4.008c1.118-2.86 2.009-6.751 2.446-9.918z" fill="#260859"/><path d="M313.707 296.379c0-2.535-.289-4.934-.781-7.129-2.305 2.059-4.594 3.672-7.227 5.293 1.91 2.398 4.551 4.75 7.801 5.352a32.04 32.04 0 0 0 .207-3.516z" fill="#f37344"/><path d="M280.828 251.062c.438 9.141 4.355 19.59 12.043 29.02l4.793-4.211c-11.609-7.101-16.836-24.809-16.836-24.809zM291.141 238.789c-1.156 10.66 1.484 23.461 8.672 35.766l6.305-4c-12.141-10.336-14.977-31.766-14.977-31.766zM306.738 231.996c-2.785 10.348-2.152 23.402 3.047 36.672l6.844-2.973c-10.399-12.082-9.891-33.699-9.891-33.699z" fill="#260859"/><path d="M334.832 367.363c.266-6.996 2.133-13.312 4.527-19.387.395-1.004-7.34 5.734-15.191 7.973-7.262 2.07-14.66-.41-14.953.293-2.434 5.727-5.387 12.094-8.852 19.297 19.012 1.656 27.176-2.223 34.469-8.176z" fill="#7ac143"/><path d="M337.445 353.391c1.25-3.918 2.812-7.699 4.465-11.438-12.93 7.711-20.523 10.559-30.961 10.07-1.262 3.164-2.719 6.547-4.34 10.152 13.114 1.403 24.301-3.511 30.836-8.784zM293.305 389.996c-7.684 15.605-8.547 31.148-3.324 49.852 12.047 9.012 26.852 18.227 43.773 27.152 12.125-36.82-2.57-65.309-8.16-75.688-8.168 2.25-33.199 11.153-32.289-1.316z" fill="#fff"/><path d="M426.086 226.523c-3.566 0-6.266-1.336-7.719-2.051-.879-.445-2-1.012-7.145-4.84a58.328 58.328 0 0 1-32.309-.055c-5.227 3.891-6.375 4.465-7.148 4.855-1.371.684-4.199 2.09-7.797 2.09-4.008 0-7.691-1.621-10.949-4.805-4.895-4.824-6.535-9.34-5.664-15.602.137-.996.441-2.527 1.691-6.785a59.144 59.144 0 0 1-4.441-6.59c-9.844-3.238-12.664-4.578-14.113-5.461-4.582-2.82-6.859-8.195-6.98-16.441-.117-8.219 1.965-13.617 6.363-16.496.707-.461 1.859-1.211 8.289-4.105.246-1.074.527-2.141.832-3.195-5.164-7.422-5.906-9.02-6.309-9.887-1.41-3.07-2.191-8.109 2.059-14.746 1.551-2.414 7.227-10.281 15.102-10.281h.797l1.406.211c.941.184 2.262.449 9.582 3.125a58.766 58.766 0 0 1 13.707-7.109c2.277-5.695 3.047-6.969 3.422-7.594 2.812-4.617 8.301-6.957 16.328-6.957 8.25 0 13.824 2.352 16.57 6.988.398.676 1.055 1.781 3.363 7.566a58.723 58.723 0 0 1 13.676 7.098c7.227-2.648 8.523-2.91 9.391-3.09l.734-.148 1.395-.086c7.91 0 13.363 7.188 15.348 10.277 4.25 6.629 3.473 11.66 2.07 14.715-.418.906-1.176 2.527-6.289 9.871.312 1.074.594 2.156.844 3.246 6.473 2.906 7.566 3.625 8.297 4.105 4.398 2.875 6.48 8.273 6.359 16.496-.113 8.125-2.453 13.648-6.957 16.414-1.016.625-2.891 1.785-14.141 5.484a59.278 59.278 0 0 1-4.656 6.879c1.348 4.625 1.508 5.785 1.605 6.496.871 6.266-.762 10.777-5.645 15.582-3.269 3.201-6.956 4.826-10.968 4.826z" fill="#260859"/><path d="M426.086 224.414c-3.094 0-5.512-1.203-6.812-1.844-.746-.379-1.895-.953-7.633-5.262a56.012 56.012 0 0 1-16.461 2.473 56.067 56.067 0 0 1-16.676-2.527c-5.824 4.367-6.977 4.941-7.691 5.301-1.324.656-3.75 1.859-6.844 1.859-3.438 0-6.621-1.41-9.477-4.203-4.41-4.344-5.828-8.211-5.051-13.801.137-1 .48-2.645 1.938-7.531a56.628 56.628 0 0 1-5.344-7.887c-10.289-3.363-13.133-4.711-14.441-5.512-3.922-2.41-5.867-7.207-5.973-14.668-.109-7.441 1.664-12.254 5.41-14.707.672-.438 1.848-1.199 8.965-4.375a57.72 57.72 0 0 1 1.309-5.059c-5.598-8.008-6.336-9.613-6.707-10.41-1.188-2.582-1.816-6.879 1.922-12.715 1.41-2.195 6.527-9.309 13.328-9.309h.797l1.051.18c.832.164 2.242.457 10.258 3.406a57.092 57.092 0 0 1 14.992-7.801c2.492-6.301 3.273-7.594 3.621-8.176 2.402-3.941 7.281-5.934 14.523-5.934 7.453 0 12.418 2.004 14.754 5.953.371.625 1.039 1.754 3.574 8.16a57.228 57.228 0 0 1 14.965 7.789c8.012-2.953 9.32-3.219 10.129-3.383l.738-.152 1.047-.039c7.012 0 12.098 7.125 13.496 9.305 3.738 5.828 3.109 10.125 1.93 12.703-.387.828-1.137 2.441-6.684 10.375.52 1.68.957 3.387 1.32 5.109 7.172 3.195 8.281 3.922 8.969 4.375 3.746 2.449 5.52 7.262 5.414 14.707-.105 7.359-2.109 12.285-5.953 14.648-.922.566-2.789 1.711-14.469 5.527a56.534 56.534 0 0 1-5.559 8.168c1.59 5.371 1.758 6.566 1.852 7.25.777 5.59-.633 9.457-5.035 13.785-2.863 2.808-6.055 4.222-9.492 4.222z" fill="#260859"/><path d="M409.34 122.93s-5.383-14.453-6.75-16.773c-1.375-2.324-13.246-2.52-14.793.031-1.535 2.566-6.75 16.742-6.75 16.742h28.293zM380.41 205.176s-11.297 8.801-13.367 9.836c-2.066 1.031-3.934 1.836-6.656-.824-2.676-2.637-2.969-3.941-2.598-6.621.371-2.668 4.875-16.578 4.875-16.578l17.746 14.187zM409.645 205.176s11.297 8.801 13.367 9.836c2.066 1.031 3.938 1.836 6.656-.824 2.676-2.637 2.969-3.941 2.598-6.621-.371-2.668-4.875-16.578-4.875-16.578l-17.746 14.187zM352.539 155.469s-14.668 6.238-16.891 7.691c-2.211 1.449-2.164 13.59.336 15.125 2.5 1.531 17.105 6.121 17.105 6.121l-.55-28.937zM437.82 155.469s14.668 6.238 16.891 7.691c2.215 1.449 2.164 13.59-.336 15.125-2.5 1.531-17.105 6.121-17.105 6.121l.55-28.937z" fill="#7f3f98"/><path d="M348.719 153.543l-7.418 3.023c-.465 4.172.828 11.812 6.457 16.184 5.629 4.359.961-19.207.961-19.207zM441.246 153.543l7.418 3.023c.465 4.172-.828 11.812-6.457 16.184-5.629 4.359-.961-19.207-.961-19.207z" fill="#260859"/><path d="M367.875 129.066s-15.164-5.836-17.758-6.371c-2.598-.547-9.082 7.383-7.863 10.039 1.223 2.66 10.508 15.508 10.508 15.508l15.113-19.176zM422.438 129.066s15.164-5.836 17.754-6.371c2.598-.547 9.086 7.383 7.867 10.039-1.223 2.66-10.508 15.508-10.508 15.508l-15.113-19.176z" fill="#7f3f98"/><path d="M359.793 121.949c-2.27 3.754-6.828 9.09-3.359 17.332 2.875-3.961 11.133-15.062 11.43-16.781l-8.071-.551zM423.164 198.848l10.629-4.398 3.391 4.844c-4.156 3.188-7.762 6.547-14.637 6.121-8.692-.552.617-6.567.617-6.567zM366.891 198.848l-10.629-4.398-3.391 4.844c4.156 3.188 7.762 6.547 14.637 6.121 8.695-.552-.617-6.567-.617-6.567zM430.566 121.949c2.266 3.754 6.824 9.09 3.352 17.332-2.867-3.961-11.133-15.062-11.43-16.781l8.078-.551z" fill="#260859"/><path d="M443.168 163.367c0 26.504-21.488 47.984-47.988 47.984-26.508 0-47.992-21.48-47.992-47.984s21.484-47.996 47.992-47.996c26.5 0 47.988 21.492 47.988 47.996z" fill="#7f3f98"/><path d="M499.035 379.352c-24.148-14.574-50.754-40.875-46.246-67.043 1.824-10.57-6.406-19.781-14.363-28.688-3.098-3.477-6.305-7.066-8.812-10.648-5.574-7.969-11.219-18.809-6.41-25.188 1.828-2.426 5.477-3.598 11.152-3.598 6.438 0 14.301 1.52 19.57 2.734-2.094-5.496-3.824-12.004-1.652-15.984.93-1.707 2.5-2.793 4.531-3.148.484-.082 1-.121 1.535-.121 10.691 0 31.27 18.254 44.082 30.727l2.691-13.578 1.098 2.488c.855.215 21 5.586 31.73 37.02 15.328 14.332 30.715 37.719 28.375 60.863l-1.391 13.645-24.707-4.203-10.504-1.258 10.469 12.742-6.188 10.285-10.91 2.156c-4.785.953-10.098 1.809-15.793 2.543l-4.441.562-3.816-2.308z" fill="#260859"/><path d="M499.883 380.711c-8.453-18.031-15.75-33.605-11.617-49.598 5.477-21.191 4.926-37.324-1.633-47.938-5.246-8.492-12.496-10.414-13.895-10.715l-2.395-.512-14.07 3.293-.402.141c-17.102 5.828-29.754 33.488-21.32 69.688 2.219 9.543 5.305 16.332 8.051 22.375 2.02 4.445 3.656 8.047 4.535 11.91-21.969 18.406-37.598 42.656-42.953 66.711-2.16 9.668-3.797 24.91-4.496 41.824l-.195 4.844c48.699-18.664 89.555-41.785 113.125-62.766.469-12.918-2.551-27.004-8.867-40.922-1.278-2.812-2.579-5.585-3.868-8.335z" fill="#260859"/><path d="M506.766 421.48c-5.457 0-10.125-2.191-13.5-6.348-7.531-9.25-5.598-25.848-2.543-41.09-.52-.402-1.082-.809-1.566-1.16-2.887-2.09-6.832-4.945-8.84-9.621l-3.844-8.93 8.52-4.684c26.812-14.766 36.797-42.465 29.68-82.332-.055-.164-.105-.328-.164-.488-2.809-3.723-6.871-11.012-10.637-24.828-3.523-12.914-12.309-71.832-7.859-80.129.945-1.77 3.852-5.887 10.324-5.887 4.68 0 18.578 3.645 26.375 12.609a12.175 12.175 0 0 1 2.363-.227c4.25 0 7.562 2.121 11.398 4.578 1.246.789 2.582 1.645 4.094 2.543 2.199 1.305 6.66 3.945 10.301 10.102 5.594.066 9.668 3.734 19.703 14.016.09.102 1.055 1.09 1.293 1.32 2.059 2.035 3.676 4.914 5.316 9.516 10.035 2.156 17.312 18.496 18.711 25.281.051.262.152.633.289 1.145l.273 1.02c15.062 57.008 11.363 104.316-10.707 136.801-17.801 26.219-46.922 41.906-86.551 46.645a20.34 20.34 0 0 1-2.429.148z" fill="#260859"/><path d="M595.402 237.887c-1.785-8.676-10.664-20.074-11.051-16.191-.199 2.031 1.609 13.535 2.16 20.777-.961-.691-2.066-1.449-2.703-1.969-2.98-14.074-6.547-29.066-9.473-31.961-2.211-2.176-14.605-15.398-13.977-11.551 2.879 17.59 7.48 30.176 11.324 39.035-3.078-2.262-4.473-3.328-6.055-4.422-6.062-4.195-8.738-30.359-13.359-39.422-2.363-4.652-5.629-6.57-7.172-7.484-9.922-5.895-12.629-9.863-10.863 2.387 1.348 9.336 2.344 21.816 14.742 47.855l-8.207-6.227c-6.785-5.465-11.07-36.008-13.523-48.082-2.031-10.043-21.027-15.141-21.797-13.699-1.18 2.203 3.742 53.883 8.754 72.25 5.008 18.359 10.426 24.254 10.836 25.301 3.816 20.711 5.387 47.844-8.359 70.012-2.25 3.625-31.09-18.539-34.219-15.227-3.129 3.312 19.469 32.105 15.348 34.992a81.606 81.606 0 0 1-7.656 4.766c1.898 4.414 10.406 6.801 11.91 12.598.566 0-11.004 41.09 5.863 39.07 136.755-16.336 89.27-164.133 87.477-172.808z" fill="#fff"/><path d="M519.477 379.414c-7.062-21.422-20.711-50.16-20.711-50.16l-28.637-11.207 19.031 63.051-6.086-5.641-1.121 4.543 10.562 19.551s27.895 4.254 31.422-6.102c-1.546-5.48-2.132-6.969-4.46-14.035z" fill="#aaa4c4"/><path d="M506.004 389.176c-3.055.156-3.531-6.988-5.977-6.602-1.98 12.016-3.234 29.453 7.898 28.121 105.012-12.539 101.387-102.594 93.238-147.656-1.339 28.816 1.314 121.039-95.159 126.137z" fill="#aaa4c4"/><path d="M499.363 403.242c1.051 4.82 3.543 8.055 8.562 7.453 48.184-5.754 73.453-27.84 85.957-54.395-20.577 34.462-64.964 42.055-94.519 46.942z" fill="#f2f1f8"/><path d="M536.113 285.504c-10.438-31.156-30.414-36.156-30.414-36.156l-1.723 13.531c-1.992-1.926-34.645-35.117-46.812-33.012-8.293 1.434-.457 18.242.266 20.086-6.105-1.598-28.066-6.832-32.543-.898-4.473 5.93 2.891 17.617 6.457 22.711 8.84 12.648 26.277 24.93 23.523 40.898-4.41 25.586 22.328 51.047 45.258 64.883l3.191 1.93 3.703-.469c5.539-.715 10.805-1.555 15.66-2.52l9.992-1.977 4.938-8.211-12.848-15.648 15.812 1.898 22.48 3.824 1.168-11.398c2.088-20.64-11.045-43.691-28.108-59.472z" fill="#260859"/><path d="M511.441 262.371l.492 25.715 20.984 8.66c-10.007-19.324-21.476-34.375-21.476-34.375z" fill="#6b5f91"/><path d="M497.977 381.613c-8.625-18.406-16.074-34.297-11.754-51.027 5.328-20.621 4.859-36.199-1.383-46.305-4.797-7.758-11.289-9.492-12.543-9.758l-1.934-.414-13.398 3.125-.414.145c-16.215 5.523-28.109 32.18-19.945 67.215 2.172 9.352 5.219 16.047 7.902 21.953 2.297 5.055 4.102 9.027 4.949 13.617-21.887 18.016-37.902 42.508-43.219 66.363-2.129 9.539-3.754 24.648-4.445 41.449l-.16 3.938c46.297-17.949 85.312-39.887 108.82-60.047.855-12.961-2.055-27.484-8.621-41.949a755.49 755.49 0 0 0-3.855-8.305z" fill="#260859"/><path d="M414.879 448.457c-1.84 8.227-3.52 22.379-4.238 39.879 36.367-14.809 67.703-31.938 89.738-48.418 3.441-14 .355-31.008-6.609-46.34-10.18-22.418-21.957-42.605-16.117-65.207 10.691-41.363-7.207-45.191-7.207-45.191l-11.039 2.574c-11.812 4.027-21.172 26.828-14.184 56.836 4.383 18.836 12.867 26.305 13.566 41.469-24.969 19.054-39.453 44.386-43.91 64.398z" fill="#fff"/><path fill="#42316f" d="M524.949 339.023l28.61 4.872-12.61-16.165-43.086-11.558-19.035 6.008 26.383 19.078 10.219-.129 3.082 5z"/><path d="M512.535 370.281c-.336-.113-1.629-.211-2.324-.262-3.934-.297-11.246-.84-16.621-8.176-9.293-12.676-18.852-30.539-18.945-30.719l-1.918-3.586 16.203-15.387 3.598 2.605c10.914 7.887 31.23 22.578 27.18 51.25l-.93 6.586-6.243-2.311zM507.996 273.875c-8.719-4.91-1.633 8.113-1.633 8.113l17.391 8.082s-7.035-11.285-15.758-16.195z" fill="#260859"/><path d="M497.902 358.684c5.445 7.418 12.918 5.246 16.504 6.578 3.41-24.145-12.492-37.109-25.016-46.168l-10.02 9.52c.001-.001 9.341 17.515 18.532 30.07z" fill="#f6a0a6"/><path fill="#260859" d="M494.504 330.309l9.648-.957-3.941-9.211-9.762.839z"/><path d="M477.652 328.371c.344-1.586.645-3.094.914-4.574l-.824-32.625-7.129-5.695-4.527-1.277-6.68 1.555c-3.07 1.051-5.98 3.387-8.48 6.777 4.602 7.199 9.676 10.191 8.43 22.199-1.32 12.793 10.867 25.336 16.84 28.691-.165-4.742.284-9.649 1.456-15.051z" fill="#aaa4c4"/><path d="M515.441 362.789c2.875-.449 5.562-.922 8.031-1.41-11.984-10.055-24.457-25.418-30.348-40.766a64.317 64.317 0 0 1 3.461-.387l-12.074-9.066-1.441 17.137 20.973 26.426 11.398 8.066z" fill="#260859"/><g><path d="M520.594 365.984c-11.988-10.059-24.457-25.414-30.348-40.773 14.125-2 31.789-.09 63.312 18.684 2.402-23.664-8.188-64.223-120.211-88.75 19.531 31.617 35.305 33.953 32.133 58.875-2.477 19.504 17.742 40.82 40.18 54.359 5.613-.715 10.582-1.535 14.934-2.395z" fill="#fff"/></g><path fill="#fff" d="M502.367 321.293l11.742 15.074 14.336-11.074z"/><path fill="#260859" d="M474.906 256.566l-15.015 3.762 30.632 42.418z"/><path fill="#fff" d="M519.023 350.121l-12.242 7.008 7.285 5.883zM515.023 361.746l5.571 4.238 2.754-7.882z"/><g><path d="M462.426 239.809c11.012 28.695 21.609 50.254 24.316 56.68 3.309 7.875 6.352 11.246 16.789 16.836 6.863 3.676 19.824 10.402 31.555 10.422-8.766-21.824-16.195-32.91-38.211-53.188-11.328-10.43-24.145-21.758-34.449-30.75z" fill="#594c82"/></g><g><path d="M521.926 322.051c-16.145-3.691-25.535-15.551-26.453-33.383l-.387-7.441 6.039 4.363c20.16 14.57 24.406 26.645 25.137 32.543l.633 5.062-4.969-1.144z" fill="#260859"/></g><g><path d="M504.73 294.418c.742 14.297 7.789 26.453 23.688 30.094-.844-6.774-6.383-17.582-23.688-30.094z" fill="#fff"/></g><path d="M521.02 307.242l-1.926-.84a14.944 14.944 0 0 0-.918 1.844c-1.785 4.355-1.414 8.625.836 9.559 1.629.664 3.961-.762 5.711-3.18l-3.703-7.383z" fill="#260859"/><path d="M493.77 393.578c-.039-.094-.086-.184-.125-.273-1.496 2.672-2.945 5.547-2.945 5.547s-19.02-6.207-25.148-7.895c-5.867 10.895-20.238 38.785-8.461 75.781 16.672-8.82 31.375-17.91 43.289-26.82 3.44-14 .354-31.008-6.61-46.34z" fill="#6b5f91"/><path d="M282.871 437.34c22.973 18.836 59.043 39.004 101.59 55.91v-12.582c-45.699-18.512-81.504-40.121-101.59-58.043v14.715zM406.188 493.156c42.293-16.809 78.164-36.848 101.102-55.594v-14.703c-19.926 17.703-55.094 38.953-99.949 57.25l-1.153 13.047z" fill="#260859"/><path d="M403.402 148.789a11.76 11.76 0 0 1 .133-2.477c1.031-5.996 6.719-10.016 12.719-8.984 5.887 1.008 9.855 6.508 9.039 12.367-7.613-1.144-14.949-1.629-21.891-.906z" fill="#fff"/><path d="M365.43 162.512c6.816 9.141 17.707 15.051 29.973 15.051 12.27 0 23.16-5.91 29.973-15.051H365.43z" fill="#260859"/><path d="M416.684 170.902c-4.809-1.645-12.762-2.707-21.766-2.707-8.594 0-16.242.969-21.102 2.484 6.102 4.32 13.543 6.883 21.586 6.883a37.245 37.245 0 0 0 21.282-6.66z" fill="#b30838"/><path d="M359.141 162.512l.438 1.328c3.145 9.539 4.848 12.016 8.293 12.043h.027c3.363 0 5.168-2.57 8.371-11.938l.496-1.434h-17.625z" fill="#260859"/><g><path d="M363.828 162.43s2.953 8.965 4.055 8.973c1.102.012 4.156-8.914 4.156-8.914l-8.211-.059z" fill="#fff"/></g><path d="M414.266 162.512l.438 1.328c3.145 9.539 4.848 12.016 8.293 12.043h.027c3.363 0 5.168-2.57 8.375-11.938l.492-1.434h-17.625z" fill="#260859"/><g><path d="M418.953 162.43s2.953 8.965 4.055 8.973c1.105.012 4.156-8.914 4.156-8.914l-8.211-.059z" fill="#fff"/></g><path d="M411.148 196.828c0 4.668-7.133 8.449-15.926 8.449-8.797 0-15.93-3.781-15.93-8.449 0-4.668 7.133-8.449 15.93-8.449 8.794 0 15.926 3.781 15.926 8.449z" fill="#ffef6f"/><path d="M400.66 196.828c0 1.594-2.434 2.883-5.438 2.883-3 0-5.438-1.289-5.438-2.883 0-1.598 2.438-2.891 5.438-2.891 3.005.001 5.438 1.293 5.438 2.891z" fill="#7f3f98"/><path d="M410.676 141.695c.078 2.168 1.301 3.871 2.711 3.816 1.422-.066 2.496-1.863 2.402-4.031-.082-2.176-1.309-3.895-2.727-3.832-1.414.059-2.492 1.868-2.386 4.047z" fill="#260859"/><path d="M386.906 148.789a11.499 11.499 0 0 0-.133-2.477c-1.027-5.996-6.715-10.016-12.715-8.984-5.887 1.008-9.855 6.508-9.039 12.367 7.614-1.144 14.95-1.629 21.887-.906z" fill="#fff"/><path d="M379.633 141.695c-.082 2.168-1.301 3.871-2.707 3.816-1.426-.066-2.504-1.863-2.402-4.031.082-2.176 1.309-3.895 2.723-3.832 1.417.059 2.495 1.868 2.386 4.047z" fill="#260859"/></g></svg>