<svg xmlns="http://www.w3.org/2000/svg" xmlns:xlink="http://www.w3.org/1999/xlink" x="0px" y="0px" width="230.429px" height="216.579px" viewBox="0 0 230.429 216.579" xml:space="preserve"><path fill="#252120" d="M72.67,14.26c16.3-13.54,39.11-16.79,59.41-12.47c15.31,3.3,29.229,12.71,37.61,26 c4.58,7.12,7.779,15.21,8.159,23.73c0.54,6.01,0.551,12.05,0.32,18.08c-0.43,6.59-0.84,13.18-0.96,19.79 c4.03,1.17,8.26,0.3,11.99-1.43c5.439-3.14,13.05-1.56,16.7,3.56c1.42,1.83,0.989,4.23,0.899,6.36c-2.67,4.45-7.37,7.15-12.18,8.71 c-5.18,1.83-11.22,3.06-14.76,7.63c-2.721,4.03-0.04,8.85,1.89,12.61c6.57,12.1,15.76,23.27,27.97,29.97 c5.971,3.39,12.59,5.49,19.37,6.46c1,1.91,1.61,3.99,1.22,6.16c-0.42,0.67-0.829,1.34-1.26,2c-5.02,5.35-12.47,7.18-19.359,8.83 c-3.391,0.64-6.79,1.26-10.19,1.85c-0.72,2.15-1.32,4.34-1.74,6.58c-0.609,2.56-0.88,5.61-3.14,7.34c-1.71,1.32-4.01,0.88-6,0.79 c-9.85-2.24-20.74-3.34-30.2,0.94c-7.6,3.819-13.899,9.76-21.49,13.63c-10.38,5.59-22.91,6.46-34.24,3.62 c-10.2-2.65-18.26-9.73-26.97-15.261c-9.85-6.449-22.46-5.52-33.43-2.989c-2.44,0.26-5.39,0.62-7.2-1.431 c-1.86-2.64-2.12-5.979-2.84-9.04c-0.43-1.359-0.43-3.029-1.48-4.08c-3.15-0.89-6.41-1.25-9.61-1.89 c-7.34-1.68-15.26-3.74-20.4-9.649c-0.27-1.45-0.53-2.891-0.76-4.341c0.94-4.109,5.46-3.59,8.67-4.529 c4.98-1.311,9.69-3.471,14.11-6.101c10.89-6.67,19.27-16.8,25.48-27.85c2.1-3.95,5.02-8.84,2.67-13.3 c-3.54-4.95-10-6.11-15.39-8.061c-4.89-1.7-9.85-4.53-12.06-9.46c-0.37-3.02,0.86-5.84,3.11-7.84c2.84-1.68,6.09-3.1,9.48-2.57 c2.56,0.53,4.9,1.77,7.36,2.63c3.32,0.96,6.89,1.12,10.15-0.15c-0.34-4.36-0.45-8.73-0.94-13.08c-0.35-10.22-0.87-20.54,0.85-30.67 C55.9,33.14,63.46,22.39,72.67,14.26L72.67,14.26z"/><path fill="#FFFFFF" d="M91.55,8.79c13.82-5.04,29.33-5.35,43.46-1.38c20.67,5.85,37.86,25.16,38.33,47.08 c0.71,12.25-0.54,24.49-1.149,36.71c5.39,5.43,13.75,3.51,19.93,0.63c3.71-1.99,8.8-0.22,10.61,3.55 c-5.49,8.68-17.811,6.99-24.79,13.86c-4.341,3.59-4.931,10-2.641,14.91c9.101,20.95,27.351,39.67,50.67,43.3 c-1.189,1.82-2.88,3.24-4.87,4.11c-6.96,3.271-14.619,4.53-22.13,5.84c-2.33,0.181-3.739,2.33-4.37,4.37 c-1.1,3.43-1.54,7.03-2.689,10.45c-10.33-1.6-21.05-3.51-31.311-0.42c-9.699,3.16-16.88,10.87-25.85,15.42 c-9.32,5.12-20.63,5.71-30.83,3.26c-12.19-3.109-20.68-13.25-32.06-18.02c-10.6-3.95-22.08-2.03-32.88-0.12 c-2.75-4.34-1.16-11.55-6.12-14.59c-7.79-1.601-15.84-2.63-23.12-6.021c-2.03-0.939-3.99-2.229-5.11-4.229 c22.9-3.69,40.93-21.811,50.18-42.311c2.4-4.779,2.61-11.16-1.36-15.17c-6.25-6.65-16.42-6.16-23.35-11.72 c-1.24-0.99-2.72-2.83-1.44-4.38c2.07-2.44,5.89-3.66,8.79-1.96c6.48,2.9,15.63,4.91,21.01-1.07c-0.84-9.8-1.32-19.64-1.51-29.47 c0.23-6.68,0.37-13.49,2.39-19.92C64.68,26.63,76.64,14.2,91.55,8.79L91.55,8.79z"/><path fill="#040707" d="M88.51,44.2c2.9-1.58,6.36,0.26,7.8,2.93c2.66,4.66,2.39,11.23-1.38,15.21c-2.05,2.23-5.86,2.34-7.93,0.08 C82.24,57.57,82.56,47.95,88.51,44.2L88.51,44.2z"/><path fill="#040707" d="M137.521,44.01c3.899-1.61,7.479,2.07,8.449,5.58c1.551,5.01,0.4,11.98-4.89,14.27 c-4.15,1.3-7.53-2.77-8.34-6.43C131.58,52.66,132.69,46.31,137.521,44.01L137.521,44.01z"/><path fill="#252122" d="M86.8,80.31c-1.95-2.94,3.19-5.41,4.85-2.59c9.8,10.34,26.44,13.09,39.041,6.44 c3.13-1.46,5.68-3.8,8.42-5.85c2.56-1.47,5.399,2.39,3.109,4.29c-4.08,3.75-9.01,7.2-14.42,8.37c-0.43-0.22-1.279-0.67-1.71-0.9 c-2.88,0.47-5.84,1.01-8.26,2.74l-0.55,0.34C105.93,93.71,94.14,89.08,86.8,80.31L86.8,80.31z"/><path fill="#EF4D7F" d="M117.83,92.81c2.42-1.73,5.38-2.27,8.26-2.74c0.431,0.23,1.28,0.68,1.71,0.9 c0.771,3.46,1.69,7.22,0.38,10.65c-0.58,1.81-3.029,2.5-4.319,1.02C120.99,99.98,119.54,96.24,117.83,92.81L117.83,92.81z"/></svg>