<svg xmlns="http://www.w3.org/2000/svg" width="230.429" height="216.579"><path fill="#252120" d="M72.67 14.26C88.97.72 111.78-2.53 132.08 1.79c15.31 3.3 29.229 12.71 37.61 26 4.58 7.12 7.779 15.21 8.159 23.73.54 6.01.551 12.05.32 18.08-.43 6.59-.84 13.18-.96 19.79 4.03 1.17 8.26.3 11.99-1.43 5.439-3.14 13.05-1.56 16.7 3.56 1.42 1.83.989 4.23.899 6.36-2.67 4.45-7.37 7.15-12.18 8.71-5.18 1.83-11.22 3.06-14.76 7.63-2.721 4.03-.04 8.85 1.89 12.61 6.57 12.1 15.76 23.27 27.97 29.97 5.971 3.39 12.59 5.49 19.37 6.46 1 1.91 1.61 3.99 1.22 6.16-.42.67-.829 1.34-1.26 2-5.02 5.35-12.47 7.18-19.359 8.83-3.391.64-6.79 1.26-10.19 1.85-.72 2.15-1.32 4.34-1.74 6.58-.609 2.56-.88 5.61-3.14 7.34-1.71 1.32-4.01.88-6 .79-9.85-2.24-20.74-3.34-30.2.94-7.6 3.819-13.899 9.76-21.49 13.63-10.38 5.59-22.91 6.46-34.24 3.62-10.2-2.65-18.26-9.73-26.97-15.261-9.85-6.449-22.46-5.52-33.43-2.989-2.44.26-5.39.62-7.2-1.431-1.86-2.64-2.12-5.979-2.84-9.04-.43-1.359-.43-3.029-1.48-4.08-3.15-.89-6.41-1.25-9.61-1.89-7.34-1.68-15.26-3.74-20.4-9.649-.27-1.45-.53-2.891-.76-4.341.94-4.109 5.46-3.59 8.67-4.529 4.98-1.311 9.69-3.471 14.11-6.101 10.89-6.67 19.27-16.8 25.48-27.85 2.1-3.95 5.02-8.84 2.67-13.3-3.54-4.95-10-6.11-15.39-8.061-4.89-1.7-9.85-4.53-12.06-9.46-.37-3.02.86-5.84 3.11-7.84 2.84-1.68 6.09-3.1 9.48-2.57 2.56.53 4.9 1.77 7.36 2.63 3.32.96 6.89 1.12 10.15-.15-.34-4.36-.45-8.73-.94-13.08-.35-10.22-.87-20.54.85-30.67C55.9 33.14 63.46 22.39 72.67 14.26z"/><path fill="#FFF" d="M91.55 8.79c13.82-5.04 29.33-5.35 43.46-1.38 20.67 5.85 37.86 25.16 38.33 47.08.71 12.25-.54 24.49-1.149 36.71 5.39 5.43 13.75 3.51 19.93.63 3.71-1.99 8.8-.22 10.61 3.55-5.49 8.68-17.811 6.99-24.79 13.86-4.341 3.59-4.931 10-2.641 14.91 9.101 20.95 27.351 39.67 50.67 43.3a11.126 11.126 0 0 1-4.87 4.11c-6.96 3.271-14.619 4.53-22.13 5.84-2.33.181-3.739 2.33-4.37 4.37-1.1 3.43-1.54 7.03-2.689 10.45-10.33-1.6-21.05-3.51-31.311-.42-9.699 3.16-16.88 10.87-25.85 15.42-9.32 5.12-20.63 5.71-30.83 3.26-12.19-3.109-20.68-13.25-32.06-18.02-10.6-3.95-22.08-2.03-32.88-.12-2.75-4.34-1.16-11.55-6.12-14.59-7.79-1.601-15.84-2.63-23.12-6.021-2.03-.939-3.99-2.229-5.11-4.229 22.9-3.69 40.93-21.811 50.18-42.311 2.4-4.779 2.61-11.16-1.36-15.17-6.25-6.65-16.42-6.16-23.35-11.72-1.24-.99-2.72-2.83-1.44-4.38 2.07-2.44 5.89-3.66 8.79-1.96 6.48 2.9 15.63 4.91 21.01-1.07-.84-9.8-1.32-19.64-1.51-29.47.23-6.68.37-13.49 2.39-19.92C64.68 26.63 76.64 14.2 91.55 8.79z"/><path fill="#040707" d="M88.51 44.2c2.9-1.58 6.36.26 7.8 2.93 2.66 4.66 2.39 11.23-1.38 15.21-2.05 2.23-5.86 2.34-7.93.08-4.76-4.85-4.44-14.47 1.51-18.22zM137.521 44.01c3.899-1.61 7.479 2.07 8.449 5.58 1.551 5.01.4 11.98-4.89 14.27-4.15 1.3-7.53-2.77-8.34-6.43-1.16-4.77-.05-11.12 4.781-13.42z"/><path fill="#252122" d="M86.8 80.31c-1.95-2.94 3.19-5.41 4.85-2.59 9.8 10.34 26.44 13.09 39.041 6.44 3.13-1.46 5.68-3.8 8.42-5.85 2.56-1.47 5.399 2.39 3.109 4.29-4.08 3.75-9.01 7.2-14.42 8.37-.43-.22-1.279-.67-1.71-.9-2.88.47-5.84 1.01-8.26 2.74l-.55.34c-11.35.56-23.14-4.07-30.48-12.84z"/><path fill="#EF4D7F" d="M117.83 92.81c2.42-1.73 5.38-2.27 8.26-2.74.431.23 1.28.68 1.71.9.771 3.46 1.69 7.22.38 10.65-.58 1.81-3.029 2.5-4.319 1.02-2.871-2.66-4.321-6.4-6.031-9.83z"/></svg>