<svg xmlns="http://www.w3.org/2000/svg" viewBox="0 0 320 320"><path d="M154.428.012c-17.7.7-35.3 4-51.9 10.4-44.2 16.9-79.8 54.4-94.7 99.2-4.8 14.9-7.3 30.5-7.8 46.2v10c.8 20.8 5.4 41.5 14.1 60.5 15.8 34.6 44.2 63.3 78.7 79.3 16.1 7.4 33.6 11.8 51.2 13.7v-24c-25.4-3.5-50.3-13.2-70-29.9-6-4.9-11.3-10.5-16.5-16.2-23.9-26.5-35.6-63.3-32.7-98.7 2.4-32.6 16.4-64.5 39.8-87.4 23.1-23 55.2-35.3 87.3-38.1v295.2h16c.3-98.4-.6-196.8.4-295.3 20.1 1.9 40 7.2 57.9 16.8 14.3 7.6 27.1 18 37.4 30.5 21.1 25.2 32.2 58.2 31.7 90.9-.4 32.7-13.2 65-35.4 89-10.2 10.9-22 20.4-35.2 27.5-15.1 8.3-31.9 13.3-49 15.7v24c24.4-2.4 48.4-10.1 69.1-23.4 12.8-8.1 24.3-18.1 34.7-29.2 19.5-23.2 34.1-51.2 38.6-81.4 5.2-35.8-1.2-73.7-19.6-105-8.3-14.2-18.8-27.1-30.8-38.4-14.7-12.2-30.8-23.2-48.5-30.6-17.1-7.2-35.7-10.8-54.3-11.3h-10.5m-10.4 33.1c-28.1 3.7-55.2 16.6-75.4 36.7-23.7 23.7-36.6 57-36.7 90.3 29.3.3 58.6-.6 87.9.4v95.4c-21.8-9.5-41.4-26-51.4-47.9h27.5v-24h-61.8c5 21.6 14 42.5 28.3 59.6 20.2 24.5 50.6 38.4 81.5 43.5v-151.1c-28.3-.3-56.6.6-84.8-.4 4.1-16.4 11.8-31.9 23-44.5 10.3-11.6 23.4-20.6 37.7-26.4v47.5h24.1c.1-26.3.1-52.7.1-79.1m32 0c-.1.3-.2.7-.2 1v253.1c8.2-1.1 16.2-3 24.1-5.4v-217.6c5.4 2.9 11.5 4.9 15.9 9.4v201.2c8.9-3.4 17.1-8.7 24-15.1v-165.6c10 11.2 16.6 25.1 20.4 39.6 5.8 22 4.5 45.8-4.4 66.8-.2 14.6-.2 29.2-.1 43.8 5.6-4.8 10.2-10.8 14-17.1 8.7-14.8 13.8-31.5 16.3-48.3 2.8-19.6 2.1-39.9-4.2-58.8-7.8-20.9-20.1-40.4-36.7-55.4-18.9-17.5-43.7-27.9-69.1-31.6" fill="#fff"/></svg>