<svg version="1.1" id="svg2" inkscape:version="0.91 r13725" sodipodi:docname="Team_SoloMid_logo.svg" xmlns:cc="http://creativecommons.org/ns#" xmlns:dc="http://purl.org/dc/elements/1.1/" xmlns:inkscape="http://www.inkscape.org/namespaces/inkscape" xmlns:rdf="http://www.w3.org/1999/02/22-rdf-syntax-ns#" xmlns:sodipodi="http://sodipodi.sourceforge.net/DTD/sodipodi-0.dtd" xmlns:svg="http://www.w3.org/2000/svg" xmlns="http://www.w3.org/2000/svg" xmlns:xlink="http://www.w3.org/1999/xlink" x="0px" y="0px" viewBox="0 0 320 320" style="enable-background:new 0 0 320 320;" xml:space="preserve"><style type="text/css"> .st0{fill:#FFFFFF;}</style><sodipodi:namedview bordercolor="#666666" borderopacity="1.0" fit-margin-bottom="0" fit-margin-left="0" fit-margin-right="0" fit-margin-top="0" id="base" inkscape:current-layer="layer1" inkscape:cx="1213.7286" inkscape:cy="921.25449" inkscape:document-units="px" inkscape:pageopacity="0.0" inkscape:pageshadow="2" inkscape:window-height="705" inkscape:window-maximized="1" inkscape:window-width="1366" inkscape:window-x="-8" inkscape:window-y="-8" inkscape:zoom="0.35" pagecolor="#ffffff" showgrid="false"></sodipodi:namedview><g id="layer1" transform="translate(838.72845,-2082.1877)" inkscape:groupmode="layer" inkscape:label="Layer 1"><path id="path8060" inkscape:connector-curvature="0" class="st0" d="M-684.3,2082.2c-17.7,0.7-35.3,4-51.9,10.4 c-44.2,16.9-79.8,54.4-94.7,99.2c-4.8,14.9-7.3,30.5-7.8,46.2v10c0.8,20.8,5.4,41.5,14.1,60.5c15.8,34.6,44.2,63.3,78.7,79.3 c16.1,7.4,33.6,11.8,51.2,13.7c0-8,0-16,0-24c-25.4-3.5-50.3-13.2-70-29.9c-6-4.9-11.3-10.5-16.5-16.2 c-23.9-26.5-35.6-63.3-32.7-98.7c2.4-32.6,16.4-64.5,39.8-87.4c23.1-23,55.2-35.3,87.3-38.1c0,98.4,0,196.8,0,295.2h16 c0.3-98.4-0.6-196.8,0.4-295.3c20.1,1.9,40,7.2,57.9,16.8c14.3,7.6,27.1,18,37.4,30.5c21.1,25.2,32.2,58.2,31.7,90.9 c-0.4,32.7-13.2,65-35.4,89c-10.2,10.9-22,20.4-35.2,27.5c-15.1,8.3-31.9,13.3-49,15.7c0,8,0,16,0,24c24.4-2.4,48.4-10.1,69.1-23.4 c12.8-8.1,24.3-18.1,34.7-29.2c19.5-23.2,34.1-51.2,38.6-81.4c5.2-35.8-1.2-73.7-19.6-105c-8.3-14.2-18.8-27.1-30.8-38.4 c-14.7-12.2-30.8-23.2-48.5-30.6c-17.1-7.2-35.7-10.8-54.3-11.3L-684.3,2082.2 M-694.7,2115.3c-28.1,3.7-55.2,16.6-75.4,36.7 c-23.7,23.7-36.6,57-36.7,90.3c29.3,0.3,58.6-0.6,87.9,0.4c0,31.8,0,63.6,0,95.4c-21.8-9.5-41.4-26-51.4-47.9c9.2,0,18.3,0,27.5,0 c0-8,0-16,0-24c-20.6,0-41.2,0-61.8,0c5,21.6,14,42.5,28.3,59.6c20.2,24.5,50.6,38.4,81.5,43.5c0-50.4,0-100.7,0-151.1 c-28.3-0.3-56.6,0.6-84.8-0.4c4.1-16.4,11.8-31.9,23-44.5c10.3-11.6,23.4-20.6,37.7-26.4c0,15.8,0,31.7,0,47.5h24.1 C-694.7,2168.1-694.7,2141.7-694.7,2115.3 M-662.7,2115.3c-0.1,0.3-0.2,0.7-0.2,1c0,84.4,0,168.7,0,253.1c8.2-1.1,16.2-3,24.1-5.4 v-217.6c5.4,2.9,11.5,4.9,15.9,9.4c0,67.1,0,134.1,0,201.2c8.9-3.4,17.1-8.7,24-15.1c0-55.2,0-110.4,0-165.6 c10,11.2,16.6,25.1,20.4,39.6c5.8,22,4.5,45.8-4.4,66.8c-0.2,14.6-0.2,29.2-0.1,43.8c5.6-4.8,10.2-10.8,14-17.1 c8.7-14.8,13.8-31.5,16.3-48.3c2.8-19.6,2.1-39.9-4.2-58.8c-7.8-20.9-20.1-40.4-36.7-55.4C-612.5,2129.4-637.3,2119-662.7,2115.3" /></g></svg>