<svg xmlns="http://www.w3.org/2000/svg" width="100" height="17.519"><g fill-rule="evenodd" fill="#FFF"><path d="M17.282.958h2.302v5.349c-.707.042-1.492.007-2.229.019-.104-1.468-1.115-2.262-2.267-2.792-1.944-.894-4.874-1.186-7.434-.871-1.222.151-2.605.484-3.01 1.342-.565 1.196.971 1.572 1.869 1.741.955.18 1.705.234 2.556.326 3.639.396 7.242.575 9.628 2.303 1.109.804 2.036 2.109 1.813 4.062-.192 1.681-1.295 2.726-2.557 3.427-1.306.725-2.919 1.13-4.605 1.377-.833.122-1.713.22-2.612.163-1.741-.108-3.446-.538-5.004-.943-.6-.155-1.173-.309-1.741-.507-.35-.123-.551-.315-1.07-.309-.042.296-.006.671-.018.998H.275v-6.074h2.502c.063 1.528.987 2.362 2.049 2.974 1.061.61 2.431.996 3.825 1.196 2.875.413 6.482.309 7.58-1.868-.059-.719-.598-1.036-1.125-1.269-1.612-.712-4.017-.846-6.02-1.07-2.728-.306-5.621-.734-7.47-1.995C.636 7.87-.056 6.911.003 5.383.056 3.99.83 3.018 1.671 2.337 3.347.983 6.03.161 8.924.016c2.436-.123 4.641.479 6.49 1.161.305.112.628.23.925.362.271.121.584.414.907.2.08-.192.015-.53.036-.781M34.707.052c3.269-.149 6.144.688 8.285 1.977 1.11.667 1.988 1.381 2.793 2.412.732.936 1.408 2.191 1.56 3.644.326 3.154-1.505 5.407-3.374 6.817-.99.748-2.118 1.343-3.408 1.795-1.281.45-2.737.816-4.371.816-.837 0-1.726.031-2.52-.055-2.36-.255-4.214-.905-5.893-1.904-1.068-.634-2.012-1.423-2.792-2.411-.772-.977-1.381-2.149-1.542-3.662-.176-1.666.293-3.05.943-4.153 1.277-2.167 3.362-3.618 5.93-4.479.625-.21 1.315-.408 2.048-.544a16.986 16.986 0 0 1 2.341-.253m-4.28 4.533c-.797.698-1.581 1.73-1.886 2.992a6.532 6.532 0 0 0-.145 1.306c.059 1.982 1.073 3.355 2.23 4.279 1.242.992 2.906 1.577 4.914 1.578 1.997.001 3.579-.712 4.751-1.723 1.143-.985 2.163-2.407 2.067-4.388-.099-2.029-1.135-3.364-2.248-4.224-1.263-.978-2.888-1.562-4.915-1.561-1.974.003-3.688.796-4.768 1.741M49.356 1.413h6.964c.33 0 .709-.056.979 0 .205.042.491.402.689.579 3.321 2.98 6.628 5.973 9.936 8.921V4.966c0-.312.034-.652-.036-.852-.292-.833-2.046-.367-3.138-.489V1.413h9.248v2.212h-1.342c-.714 0-1.404-.123-1.595.434-.132.385-.054 1.065-.054 1.559v11.206H67.67c-.176 0-.67-.525-.816-.652-3.797-3.323-7.546-6.791-11.313-10.044v7.506c0 .366-.065.875.072 1.016.191.194 1.088.089 1.451.089h1.522v2.085h-9.192v-2.085h1.487c.457 0 1.11.076 1.287-.18.132-.19.073-.884.073-1.306V5.039c0-.407.079-1.074-.036-1.323-.146-.318-.823-.254-1.306-.254h-1.56V1.467c-.002-.026-.003-.051.017-.054M75.83 1.413h10.934a27.15 27.15 0 0 1 0 2.212h-.852c-.263 0-.658-.051-.762.09-.164.222.132.558.254.706 1.063 1.294 2.146 2.387 3.282 3.609.054.059.23.272.254.272.025 0 .205-.219.254-.272 1.198-1.303 2.22-2.519 3.481-3.808.072-.073.201-.208.2-.307-.006-.517-1.271-.206-1.759-.29V1.413H100v2.212h-1.868c-.215 0-.45-.04-.616 0-.128.03-.343.305-.49.452-1.699 1.736-3.279 3.559-4.968 5.313-.433.45-.883.965-1.36 1.451-.144.146-.405.363-.434.489-.055.217 0 .564 0 .853v1.687c0 .289-.023.668.054.78.165.237.978.126 1.414.126h1.614v1.976c-3.375.03-7.313.03-10.752 0v-1.976h1.45c.379 0 1.145.086 1.324-.126.195-.231.091-1.209.091-1.687v-.889c0-.303.049-.651 0-.888-.029-.142-.255-.351-.398-.507-2.013-2.208-4.021-4.352-6.039-6.601-.131-.146-.33-.422-.436-.452-.175-.051-.468 0-.706 0h-2.067a25.46 25.46 0 0 1 0-2.158c-.021-.028-.021-.046.017-.055"/></g></svg>