<svg xmlns="http://www.w3.org/2000/svg" x="0px" y="0px" width="100px" height="17.519px" viewBox="0 0 100 17.519" xml:space="preserve"><g><path fill-rule="evenodd" fill="#FFFFFF" d="M17.282,0.958h2.302v5.349c-0.707,0.042-1.492,0.007-2.229,0.019 c-0.104-1.468-1.115-2.262-2.267-2.792c-1.944-0.894-4.874-1.186-7.434-0.871C6.432,2.814,5.049,3.147,4.644,4.005 C4.079,5.201,5.615,5.577,6.513,5.746c0.955,0.18,1.705,0.234,2.556,0.326c3.639,0.396,7.242,0.575,9.628,2.303 c1.109,0.804,2.036,2.109,1.813,4.062c-0.192,1.681-1.295,2.726-2.557,3.427c-1.306,0.725-2.919,1.13-4.605,1.377 c-0.833,0.122-1.713,0.22-2.612,0.163c-1.741-0.108-3.446-0.538-5.004-0.943c-0.6-0.155-1.173-0.309-1.741-0.507 c-0.35-0.123-0.551-0.315-1.07-0.309c-0.042,0.296-0.006,0.671-0.018,0.998H0.275v-6.074h2.502 c0.063,1.528,0.987,2.362,2.049,2.974c1.061,0.61,2.431,0.996,3.825,1.196c2.875,0.413,6.482,0.309,7.58-1.868 c-0.059-0.719-0.598-1.036-1.125-1.269c-1.612-0.712-4.017-0.846-6.02-1.07c-2.728-0.306-5.621-0.734-7.47-1.995 C0.636,7.87-0.056,6.911,0.003,5.383C0.056,3.99,0.83,3.018,1.671,2.337C3.347,0.983,6.03,0.161,8.924,0.016 c2.436-0.123,4.641,0.479,6.49,1.161c0.305,0.112,0.628,0.23,0.925,0.362c0.271,0.121,0.584,0.414,0.907,0.2 C17.326,1.547,17.261,1.209,17.282,0.958"/><path fill-rule="evenodd" fill="#FFFFFF" d="M34.707,0.052c3.269-0.149,6.144,0.688,8.285,1.977 c1.11,0.667,1.988,1.381,2.793,2.412c0.732,0.936,1.408,2.191,1.56,3.644c0.326,3.154-1.505,5.407-3.374,6.817 c-0.99,0.748-2.118,1.343-3.408,1.795c-1.281,0.45-2.737,0.816-4.371,0.816c-0.837,0-1.726,0.031-2.52-0.055 c-2.36-0.255-4.214-0.905-5.893-1.904c-1.068-0.634-2.012-1.423-2.792-2.411c-0.772-0.977-1.381-2.149-1.542-3.662 c-0.176-1.666,0.293-3.05,0.943-4.153c1.277-2.167,3.362-3.618,5.93-4.479c0.625-0.21,1.315-0.408,2.048-0.544 C33.109,0.168,33.867,0.09,34.707,0.052 M30.427,4.585c-0.797,0.698-1.581,1.73-1.886,2.992c-0.09,0.375-0.154,1.025-0.145,1.306 c0.059,1.982,1.073,3.355,2.23,4.279c1.242,0.992,2.906,1.577,4.914,1.578c1.997,0.001,3.579-0.712,4.751-1.723 c1.143-0.985,2.163-2.407,2.067-4.388c-0.099-2.029-1.135-3.364-2.248-4.224c-1.263-0.978-2.888-1.562-4.915-1.561 C33.221,2.847,31.507,3.64,30.427,4.585"/><path fill-rule="evenodd" fill="#FFFFFF" d="M49.356,1.413h6.964c0.33,0,0.709-0.056,0.979,0c0.205,0.042,0.491,0.402,0.689,0.579 c3.321,2.98,6.628,5.973,9.936,8.921V4.966c0-0.312,0.034-0.652-0.036-0.852c-0.292-0.833-2.046-0.367-3.138-0.489V1.413h9.248 v2.212h-1.342c-0.714,0-1.404-0.123-1.595,0.434c-0.132,0.385-0.054,1.065-0.054,1.559c-0.001,3.66,0,7.678,0,11.206h-3.337 c-0.176,0-0.67-0.525-0.816-0.652c-3.797-3.323-7.546-6.791-11.313-10.044v7.506c0,0.366-0.065,0.875,0.072,1.016 c0.191,0.194,1.088,0.089,1.451,0.089h1.522v2.085h-9.192v-2.085h1.487c0.457,0,1.11,0.076,1.287-0.18 c0.132-0.19,0.073-0.884,0.073-1.306V5.039c0-0.407,0.079-1.074-0.036-1.323c-0.146-0.318-0.823-0.254-1.306-0.254h-1.56V1.467 C49.337,1.441,49.336,1.416,49.356,1.413"/><path fill-rule="evenodd" fill="#FFFFFF" d="M75.83,1.413h10.934c0.028,0.561,0.032,1.532,0,2.212h-0.852 c-0.263,0-0.658-0.051-0.762,0.09c-0.164,0.222,0.132,0.558,0.254,0.706c1.063,1.294,2.146,2.387,3.282,3.609 c0.054,0.059,0.23,0.272,0.254,0.272c0.025,0,0.205-0.219,0.254-0.272c1.198-1.303,2.22-2.519,3.481-3.808 c0.072-0.073,0.201-0.208,0.2-0.307c-0.006-0.517-1.271-0.206-1.759-0.29V1.413H100v2.212h-1.868c-0.215,0-0.45-0.04-0.616,0 c-0.128,0.03-0.343,0.305-0.49,0.452c-1.699,1.736-3.279,3.559-4.968,5.313c-0.433,0.45-0.883,0.965-1.36,1.451 c-0.144,0.146-0.405,0.363-0.434,0.489c-0.055,0.217,0,0.564,0,0.853v1.687c0,0.289-0.023,0.668,0.054,0.78 c0.165,0.237,0.978,0.126,1.414,0.126h1.614v1.976c-3.375,0.03-7.313,0.03-10.752,0v-1.976h1.45c0.379,0,1.145,0.086,1.324-0.126 c0.195-0.231,0.091-1.209,0.091-1.687v-0.889c0-0.303,0.049-0.651,0-0.888c-0.029-0.142-0.255-0.351-0.398-0.507 c-2.013-2.208-4.021-4.352-6.039-6.601c-0.131-0.146-0.33-0.422-0.436-0.452c-0.175-0.051-0.468,0-0.706,0h-2.067 c-0.03-0.678-0.031-1.481,0-2.158C75.792,1.44,75.792,1.422,75.83,1.413"/></g></svg>