<svg xmlns="http://www.w3.org/2000/svg" width="389.3" height="401.6"><path fill="#005B9A" d="M170.8 2.2c25-4.2 51.1-2.4 75.1 5.9 11.9 4.2 23.3 10.3 32.6 19 4.1 3.6 6.1 10.1 3.5 15.1-1.7 2.4-4.9 5.2-8 3.7-36.3-12.7-76.3-14.7-113.7-5.5-32.5 7.9-63.2 24.6-85.8 49.5-22.6 24.6-35.9 57-39.2 90.1-3.7 35.9 1.7 73.4 19.2 105.2 14.1 26.1 36.3 47.6 62.5 61.3 32.6 17.3 70.8 23 107.3 18 29.9-4.2 59-16.2 82-36 21.8-18.6 37.3-44.4 42.9-72.5 6.4-31.9 2.8-66.2-12.3-95.1-14.1-27.3-38.4-48.6-66.4-60.8-28-12.4-59.6-16.6-89.8-11.5-25.7 4.5-50.7 16.4-68.1 36.1-14.1 15.4-22.6 35.4-25.8 55.9-3.1 20.3-2.1 41.3 3.5 61 6.1 21.5 19.2 41.2 37.5 54.2 18.5 13.2 41.3 20.1 63.9 20.5 27.8.9 56.2-7.1 78.4-24.1 15.7-11.9 27.7-29.1 32.1-48.4 4.1-16.9 2.9-34.9-2.3-51.4-5.9-18.5-18.7-34.6-35.2-44.7-19.3-12-42.6-16.8-65.1-14.9-17.4 1.6-34.8 7.3-48.5 18.4-7.8 6.4-14.2 14.7-17.9 24.2-7.9 1.2-16.6.8-23.5-3.6-3.8-2.3-6.3-6-8.3-9.9 7.7-21.5 24.3-39.4 44.4-49.9 23.7-12.5 51.4-16 77.7-12.6 31.2 4 61.5 18.1 83.3 41.1 19.5 20.1 30.9 47.4 32.9 75.2 2.3 25-2.7 50.9-15.8 72.4-14.6 24.3-38.2 42.2-64.1 53.1-15.9 6.7-32.9 11-50 12.9-32.4 2.4-65.4-5.7-93.2-22.4-24.7-14.8-45-37-56.6-63.5-12.6-28-15.5-59.4-12.3-89.7 3.2-29.9 15-59.2 35.6-81.4 22.7-25 54.6-40.4 87.5-46.2 30.9-5.5 63-3.4 93.1 5.6 29.6 8.9 57.4 24.8 78.9 47.2 23.5 24 38.8 55.7 44 88.8 4.7 29.1 3.3 59.6-6.8 87.5-8.9 25-24 47.5-43.2 65.8-40 38.1-96.1 58-151.1 55.3-33.1-1.5-65.9-11.6-93.9-29.5-29.6-18.8-53.8-45.9-69.4-77.3C5 260.6-2.2 221.8.6 183.9c2.1-34.1 12.4-68 31.4-96.5 18.4-27.8 44.6-50.1 74.5-64.9 20.2-10 42-16.8 64.3-20.3z"/></svg>