<svg xmlns="http://www.w3.org/2000/svg" xmlns:xlink="http://www.w3.org/1999/xlink" x="0px" y="0px" width="389.3px" height="401.6px" viewBox="0 0 389.3 401.6" xml:space="preserve"><path fill="#005B9A" d="M170.8,2.2c25-4.2,51.1-2.4,75.1,5.9c11.9,4.2,23.3,10.3,32.6,19c4.1,3.6,6.1,10.1,3.5,15.1 c-1.7,2.4-4.9,5.2-8,3.7c-36.3-12.7-76.3-14.7-113.7-5.5C127.8,48.3,97.1,65,74.5,89.9c-22.6,24.6-35.9,57-39.2,90.1 c-3.7,35.9,1.7,73.4,19.2,105.2c14.1,26.1,36.3,47.6,62.5,61.3c32.6,17.3,70.8,23,107.3,18c29.9-4.2,59-16.2,82-36 c21.8-18.6,37.3-44.4,42.9-72.5c6.4-31.9,2.8-66.2-12.3-95.1c-14.1-27.3-38.4-48.6-66.4-60.8c-28-12.4-59.6-16.6-89.8-11.5 c-25.7,4.5-50.7,16.4-68.1,36.1c-14.1,15.4-22.6,35.4-25.8,55.9c-3.1,20.3-2.1,41.3,3.5,61c6.1,21.5,19.2,41.2,37.5,54.2 c18.5,13.2,41.3,20.1,63.9,20.5c27.8,0.9,56.2-7.1,78.4-24.1c15.7-11.9,27.7-29.1,32.1-48.4c4.1-16.9,2.9-34.9-2.3-51.4 c-5.9-18.5-18.7-34.6-35.2-44.7c-19.3-12-42.6-16.8-65.1-14.9c-17.4,1.6-34.8,7.3-48.5,18.4c-7.8,6.4-14.2,14.7-17.9,24.2 c-7.9,1.2-16.6,0.8-23.5-3.6c-3.8-2.3-6.3-6-8.3-9.9c7.7-21.5,24.3-39.4,44.4-49.9c23.7-12.5,51.4-16,77.7-12.6 c31.2,4,61.5,18.1,83.3,41.1c19.5,20.1,30.9,47.4,32.9,75.2c2.3,25-2.7,50.9-15.8,72.4c-14.6,24.3-38.2,42.2-64.1,53.1 c-15.9,6.7-32.9,11-50,12.9c-32.4,2.4-65.4-5.7-93.2-22.4c-24.7-14.8-45-37-56.6-63.5c-12.6-28-15.5-59.4-12.3-89.7 c3.2-29.9,15-59.2,35.6-81.4c22.7-25,54.6-40.4,87.5-46.2c30.9-5.5,63-3.4,93.1,5.6c29.6,8.9,57.4,24.8,78.9,47.2 c23.5,24,38.8,55.7,44,88.8c4.7,29.1,3.3,59.6-6.8,87.5c-8.9,25-24,47.5-43.2,65.8c-40,38.1-96.1,58-151.1,55.3 c-33.1-1.5-65.9-11.6-93.9-29.5c-29.6-18.8-53.8-45.9-69.4-77.3C5,260.6-2.2,221.8,0.6,183.9C2.7,149.8,13,115.9,32,87.4 c18.4-27.8,44.6-50.1,74.5-64.9C126.7,12.5,148.5,5.7,170.8,2.2L170.8,2.2z"/></svg>