<svg xmlns="http://www.w3.org/2000/svg" width="306" height="141.3"><path fill="#FECB01" d="M47 0c18.6 3.4 32.3 18.7 40.3 35 15.5.8 31.6-4.5 42.4-16 .4-.1 1.2-.2 1.6-.2 1 13.5-4.3 26.5-11.3 37.7 2.8-10 6.9-19.9 7.6-30.4-4.5 4.1-8.9 8.6-14.6 11.1-9.6 4.2-20 6.7-30.4 7.2-3.9-16.3-14-32.5-30.2-38.7.3 8.4.7 16.8.2 25.2-.2 7-1.8 13.8-2.4 20.7-15.1.5-30.4 7.3-40.2 19 13.5 2.2 26.2 7.7 38.8 12.9-.9 7.3-2.9 14.5-2.6 22-.4 8 1.5 15.9 4.8 23.1 2.3-5 4.7-9.9 7.8-14.4 5.3-8.2 12.9-14.6 21-19.9.9-.5 1.8-1.2 2.9-1.3 3.9 2.5 7.3 5.6 11.4 7.9 12.5 7.7 27 11.8 41.6 13.1 14.8.7 29.7.2 44.1-3.5 9.1-2.7 17.9-6.3 27-9 13.6-4.4 27.6-7.4 41.8-9.3 19.1-2.3 38.4-1.9 57.5-.1V113c-23.9-2.8-48.1-2.9-72 0-30.2 3.2-59.5 13.4-90 13.9-19.5-.2-38.1-7.9-54.3-18.2-2.9-1.6-5.3-4.6-8.7-4.9-14.9 7.8-24.2 22.6-30.8 37.6-2.5-6.3-5.8-12.3-7.8-18.8-3.7-10.3-4.1-21.4-3.1-32.1-4.1-2.7-8.1-5.6-12.5-7.7-8.4-4.3-17.7-5.8-26.9-5 5.3-11.1 14.6-19.9 25.2-25.9 5.5-3 11-6.3 17.2-7.4 5-14.2 7.5-29.6 4.6-44.5z"/><path fill="#FFF" d="M191.1 47.1h8.8c9 12.6 18.1 25.1 27.4 37.4-.5-12.5.6-25.1-.8-37.6 1.6 0 3.2 0 4.8-.1-.6 14.1-.1 28.1-.1 42.2-3 0-6 0-8.9.1-9.1-12.2-17.7-24.8-26.9-36.8-.1 9.4 0 18.8 0 28.3 0 2.9.4 5.8 1 8.6-1.6.3-3.3.5-4.9.6.8-6.4.4-12.8.5-19.2-.4-7.9.1-15.8-.9-23.5zM52.8 53.3c.3-4.1 4.9-5.1 8.3-5.1 9-.1 18.1-.1 27.1-.1.1.9.3 2.9.4 3.8-9.4-.1-18.9-.5-28.3.2-1.4 4.1-.5 8.8-.6 13.1 8.1.9 16.3-.2 24.4.5 2.7 0 5.4 2 5.3 4.9.3 5.3.6 10.7-.2 16-1.1 2.8-4.5 3.6-7.2 3.7-9.4.3-18.8.2-28.2.3-.2-1.4-.5-2.7-.7-4.1 9.7 1 19.5.4 29.3.3.9-4.9.5-9.8.2-14.7-7.8-.5-15.7.2-23.5-.2-2.6 0-5.5-1.4-6-4.2-.8-4.9-.6-9.7-.3-14.4zM281.4 51.4c1.9-.3 3.9-.5 5.8-.8 0 2.4 0 4.7-.1 7.1 5.2-.2 10.5-.4 15.7-.2v3.1c-5.2 0-10.4.1-15.6.1.3 8.2-.3 16.5.6 24.6 5.6.4 11.2.2 16.8-.4-.1.9-.3 2.8-.4 3.7-5.9-.3-11.8.4-17.7-.3-3.1-.2-4.9-3.4-4.9-6.2-.1-7.1 0-14.2-.1-21.4-1.6 0-3.3 0-4.9.1v-3.1h4.9c-.1-2.1-.1-4.2-.1-6.3zM99 53c1.9-.4 3.9-.7 5.8-1.1v7.2c5.2 0 10.5-.1 15.7-.1v3c-5.2 0-10.4.1-15.5.1.2 8.2-.2 16.4.4 24.6 5.7.6 11.4.4 17.1-.5-.2 1.2-.4 2.5-.6 3.7-6-.2-12.1.3-18.1-.2-3.2-.3-4.3-3.6-4.4-6.4-.2-7.1-.1-14.2-.1-21.3-1.7 0-3.4.1-5 .1 0-1 0-2-.1-3h5.1c-.1-2-.2-4.1-.3-6.1zM165.5 58.5c1.9 0 3.8 0 5.7-.1v2.9c1.1-1.1 1.9-2.8 3.7-2.7 4.4-.3 8.8 0 13.3-.1-.1 1.5-.2 3.1-.3 4.7-5.3-.3-10.5-1.2-15.8-.3-.6 8.9-.3 17.9.4 26.8-2.3 0-4.5-.1-6.8 0 .9-5 .5-10 .5-15.1-.1-5.4.1-10.8-.7-16.1zM247 85.9c-1.3-.2-3.6.4-3.9-1.5-.7-3-.2-6.1-.4-9.1 9.9-.1 19.8-.1 29.7-.2-.1-4.3.3-8.6-.4-12.8-.2-2.9-3.4-4.5-6-4.3-7.5.1-15 0-22.6.1-2.8-.1-5.7 1.5-6.1 4.5-.9 7-.5 14.1 0 21.1-.2 3.5 3.5 5.3 6.6 5.3 9.4.2 18.7-.1 28.1-.1.2-1.2.3-2.4.5-3.6-8.4 1-17 .4-25.5.6zM243.3 61c7.8.1 15.8-.9 23.5.4.1 3.6.1 7.1.1 10.7-8 0-16.1.1-24.1.2 0-3.8-.6-7.6.5-11.3zM160 66.4c0-2.2-.8-4.3-1.5-6.3-2.1-.7-4.2-1.4-6.5-1.3-8.6.1-17.2.2-25.9.1-.2 1.2-.3 2.4-.5 3.6 8.4-1.4 17-.5 25.4-.8 4.2-.8 3.1 4.5 2.5 7-7.5.4-15 0-22.5.4-2.7 0-5.2 2.1-5.5 4.8-.6 4.2-.7 8.6.5 12.7.9 2.9 4.4 3 6.9 3.3 6 0 12-.1 18-.2 1.5.2 2.6-.6 3.6-1.5.9 2.5 3.9 1.2 5.9 1.7-.5-7.9-.2-15.7-.4-23.5zm-6.4 20.1c-7.4.1-14.8.6-22.2-.1-.3-4.8-.4-9.6 0-14.4 7.6-.4 15.3-.2 22.9-.2-.3 4.9.7 10-.7 14.7z"/></svg>