<svg xmlns="http://www.w3.org/2000/svg" xmlns:xlink="http://www.w3.org/1999/xlink" x="0px" y="0px" width="306px" height="141.3px" viewBox="0 0 306 141.3" xml:space="preserve"><path fill="#FECB01" d="M47,0c18.6,3.4,32.3,18.7,40.3,35c15.5,0.8,31.6-4.5,42.4-16c0.4-0.1,1.2-0.2,1.6-0.2 c1,13.5-4.3,26.5-11.3,37.7c2.8-10,6.9-19.9,7.6-30.4c-4.5,4.1-8.9,8.6-14.6,11.1c-9.6,4.2-20,6.7-30.4,7.2 c-3.9-16.3-14-32.5-30.2-38.7c0.3,8.4,0.7,16.8,0.2,25.2c-0.2,7-1.8,13.8-2.4,20.7c-15.1,0.5-30.4,7.3-40.2,19 c13.5,2.2,26.2,7.7,38.8,12.9c-0.9,7.3-2.9,14.5-2.6,22c-0.4,8,1.5,15.9,4.8,23.1c2.3-5,4.7-9.9,7.8-14.4c5.3-8.2,12.9-14.6,21-19.9 c0.9-0.5,1.8-1.2,2.9-1.3c3.9,2.5,7.3,5.6,11.4,7.9c12.5,7.7,27,11.8,41.6,13.1c14.8,0.7,29.7,0.2,44.1-3.5c9.1-2.7,17.9-6.3,27-9 c13.6-4.4,27.6-7.4,41.8-9.3c19.1-2.3,38.4-1.9,57.5-0.1V113c-23.9-2.8-48.1-2.9-72,0c-30.2,3.2-59.5,13.4-90,13.9 c-19.5-0.2-38.1-7.9-54.3-18.2c-2.9-1.6-5.3-4.6-8.7-4.9c-14.9,7.8-24.2,22.6-30.8,37.6c-2.5-6.3-5.8-12.3-7.8-18.8 c-3.7-10.3-4.1-21.4-3.1-32.1c-4.1-2.7-8.1-5.6-12.5-7.7C18.5,78.5,9.2,77,0,77.8c5.3-11.1,14.6-19.9,25.2-25.9 c5.5-3,11-6.3,17.2-7.4C47.4,30.3,49.9,14.9,47,0L47,0z"/><path fill="#FFFFFF" d="M191.1,47.1c2.9,0,5.9,0,8.8,0c9,12.6,18.1,25.1,27.4,37.4c-0.5-12.5,0.6-25.1-0.8-37.6c1.6,0,3.2,0,4.8-0.1 c-0.6,14.1-0.1,28.1-0.1,42.2c-3,0-6,0-8.9,0.1c-9.1-12.2-17.7-24.8-26.9-36.8c-0.1,9.4,0,18.8,0,28.3c0,2.9,0.4,5.8,1,8.6 c-1.6,0.3-3.3,0.5-4.9,0.6c0.8-6.4,0.4-12.8,0.5-19.2C191.6,62.7,192.1,54.8,191.1,47.1L191.1,47.1z"/><path fill="#FFFFFF" d="M52.8,53.3c0.3-4.1,4.9-5.1,8.3-5.1c9-0.1,18.1-0.1,27.1-0.1c0.1,0.9,0.3,2.9,0.4,3.8 c-9.4-0.1-18.9-0.5-28.3,0.2c-1.4,4.1-0.5,8.8-0.6,13.1c8.1,0.9,16.3-0.2,24.4,0.5c2.7,0,5.4,2,5.3,4.9c0.3,5.3,0.6,10.7-0.2,16 c-1.1,2.8-4.5,3.6-7.2,3.7c-9.4,0.3-18.8,0.2-28.2,0.3c-0.2-1.4-0.5-2.7-0.7-4.1c9.7,1,19.5,0.4,29.3,0.3c0.9-4.9,0.5-9.8,0.2-14.7 c-7.8-0.5-15.7,0.2-23.5-0.2c-2.6,0-5.5-1.4-6-4.2C52.3,62.8,52.5,58,52.8,53.3L52.8,53.3z"/><path fill="#FFFFFF" d="M281.4,51.4c1.9-0.3,3.9-0.5,5.8-0.8c0,2.4,0,4.7-0.1,7.1c5.2-0.2,10.5-0.4,15.7-0.2c0,0.8,0,2.3,0,3.1 c-5.2,0-10.4,0.1-15.6,0.1c0.3,8.2-0.3,16.5,0.6,24.6c5.6,0.4,11.2,0.2,16.8-0.4c-0.1,0.9-0.3,2.8-0.4,3.7 c-5.9-0.3-11.8,0.4-17.7-0.3c-3.1-0.2-4.9-3.4-4.9-6.2c-0.1-7.1,0-14.2-0.1-21.4c-1.6,0-3.3,0-4.9,0.1c0-1,0-2,0-3.1 c1.6,0,3.3,0,4.9,0C281.4,55.6,281.4,53.5,281.4,51.4L281.4,51.4z"/><path fill="#FFFFFF" d="M99,53c1.9-0.4,3.9-0.7,5.8-1.1c0,2.4,0,4.8,0,7.2c5.2,0,10.5-0.1,15.7-0.1c0,1,0,2,0,3 c-5.2,0-10.4,0.1-15.5,0.1c0.2,8.2-0.2,16.4,0.4,24.6c5.7,0.6,11.4,0.4,17.1-0.5c-0.2,1.2-0.4,2.5-0.6,3.7c-6-0.2-12.1,0.3-18.1-0.2 c-3.2-0.3-4.3-3.6-4.4-6.4c-0.2-7.1-0.1-14.2-0.1-21.3c-1.7,0-3.4,0.1-5,0.1c0-1,0-2-0.1-3c1.7,0,3.4,0,5.1,0 C99.2,57.1,99.1,55,99,53L99,53z"/><path fill="#FFFFFF" d="M165.5,58.5c1.9,0,3.8,0,5.7-0.1c0,0.7,0,2.1,0,2.9c1.1-1.1,1.9-2.8,3.7-2.7c4.4-0.3,8.8,0,13.3-0.1 c-0.1,1.5-0.2,3.1-0.3,4.7c-5.3-0.3-10.5-1.2-15.8-0.3c-0.6,8.9-0.3,17.9,0.4,26.8c-2.3,0-4.5-0.1-6.8,0c0.9-5,0.5-10,0.5-15.1 C166.1,69.2,166.3,63.8,165.5,58.5L165.5,58.5z"/><g><path fill="#FFFFFF" d="M247,85.9c-1.3-0.2-3.6,0.4-3.9-1.5c-0.7-3-0.2-6.1-0.4-9.1c9.9-0.1,19.8-0.1,29.7-0.2 c-0.1-4.3,0.3-8.6-0.4-12.8c-0.2-2.9-3.4-4.5-6-4.3c-7.5,0.1-15,0-22.6,0.1c-2.8-0.1-5.7,1.5-6.1,4.5c-0.9,7-0.5,14.1,0,21.1 c-0.2,3.5,3.5,5.3,6.6,5.3c9.4,0.2,18.7-0.1,28.1-0.1c0.2-1.2,0.3-2.4,0.5-3.6C264.1,86.3,255.5,85.7,247,85.9z M243.3,61 c7.8,0.1,15.8-0.9,23.5,0.4c0.1,3.6,0.1,7.1,0.1,10.7c-8,0-16.1,0.1-24.1,0.2C242.8,68.5,242.2,64.7,243.3,61z"/></g><g><path fill="#FFFFFF" d="M160,66.4c0-2.2-0.8-4.3-1.5-6.3c-2.1-0.7-4.2-1.4-6.5-1.3c-8.6,0.1-17.2,0.2-25.9,0.1 c-0.2,1.2-0.3,2.4-0.5,3.6c8.4-1.4,17-0.5,25.4-0.8c4.2-0.8,3.1,4.5,2.5,7c-7.5,0.4-15,0-22.5,0.4c-2.7,0-5.2,2.1-5.5,4.8 c-0.6,4.2-0.7,8.6,0.5,12.7c0.9,2.9,4.4,3,6.9,3.3c6,0,12-0.1,18-0.2c1.5,0.2,2.6-0.6,3.6-1.5c0.9,2.5,3.9,1.2,5.9,1.7 C159.9,82,160.2,74.2,160,66.4z M153.6,86.5c-7.4,0.1-14.8,0.6-22.2-0.1c-0.3-4.8-0.4-9.6,0-14.4c7.6-0.4,15.3-0.2,22.9-0.2 C154,76.7,155,81.8,153.6,86.5z"/></g></svg> 