<svg xmlns="http://www.w3.org/2000/svg" width="100" height="100"><path fill="#096196" d="M0 0v49.796c12.619 8.334 29.696 13.451 48.494 13.451l.25-.002c-9.348-.411-26.451-2.743-35.983-13.781-12.725-14.733-2.636-25.83 4.084-31.24C28.892 8.525 48.239 7.657 48.239 7.657l-.766-4.134 14.089 10.26-10.414 12.711-.766-3.676s-33.945 3.37-32.925 20.317c.947 15.713 29.069 19.318 36.195 19.981 7.695-.388 15.046-1.633 21.856-3.6 2.11-13.948-25.891-21.231-25.891-21.231s26.023 3.337 41.057 15.213a68.683 68.683 0 0 0 9.326-5.82V0H0z"/><path fill="#004F7E" d="M55.283 63.247s-2.571.172-6.539-.002l-.25.002C29.696 63.247 12.619 58.13 0 49.796v35.292c10.35-.106 66.685-1.678 74.885-23.219.306-.805.507-1.588.623-2.353-6.81 1.967-14.161 3.212-21.856 3.6a54.4 54.4 0 0 0 1.631.131zM63.659 100H100V78.093C95.958 88.307 80.962 95.275 63.659 100zM100 65.877v-18.2a68.683 68.683 0 0 1-9.326 5.82c4.292 3.391 7.687 7.477 9.326 12.38z"/></svg>