<svg xmlns="http://www.w3.org/2000/svg" width="175.7" height="50.6"><path fill-rule="evenodd" fill="#00539F" d="M13.5 41.8h21.4c.3 0 .3.1 0 .3-2.4 1.1-5.9 4.6-5.9 4.6-2.4 2.4-4.3 3.9-8.4 3.9H.1c-.1 0-.1-.3 0-.3 2.3-1.3 5.6-4.8 5.6-4.8 1.4-1.6 4.3-3.7 7.8-3.7zM154.1 41.8h21.5c.1 0 .1.1 0 .3-2.5 1.1-5.9 4.6-5.9 4.6-2.5 2.4-4.4 3.9-8.4 3.9h-20.5c-.1 0-.1-.3 0-.3 2.3-1.3 5.6-4.8 5.6-4.8 1.5-1.6 4.2-3.7 7.7-3.7zM48.6 41.8H70c.3 0 .3.1 0 .3-2.4 1.1-5.9 4.6-5.9 4.6-2.4 2.4-4.3 3.9-8.4 3.9H35.4c-.3 0-.3-.3-.1-.3 2.3-1.3 5.6-4.8 5.6-4.8 1.4-1.6 4.2-3.7 7.7-3.7zM83.8 41.8h21.4c.3 0 .3.1 0 .3-2.4 1.1-5.9 4.6-5.9 4.6-2.4 2.4-4.3 3.9-8.3 3.9H70.5c-.1 0-.1-.3-.1-.3 2.4-1.3 5.6-4.8 5.6-4.8 1.4-1.6 4.3-3.7 7.8-3.7zM119 41.8h21.5c.1 0 .1.1-.1.3-2.4 1.1-5.9 4.6-5.9 4.6-2.4 2.4-4.3 3.9-8.3 3.9h-20.5c-.1 0-.1-.3 0-.3 2.3-1.3 5.6-4.8 5.6-4.8 1.3-1.6 4.2-3.7 7.7-3.7z"/><path fill-rule="evenodd" fill="#ED1C2E" d="M124.9 0c-13.5 0-22.5 7-22.5 17.6 0 9.8 8.3 16.3 20.5 16.3 4 0 7.5-.5 11.6-1.6v-8.1c-2.9 3.3-6.4 4.5-10.1 4.5-7.3 0-12.3-4.8-12.3-11.8 0-6.9 5.1-11.9 12.4-11.9 3.9 0 7 1.5 9.5 4.1V.9c-2.6-.5-5.9-.9-9.1-.9zM24 5.8c5 0 11 1 13.5 3.1V1.1H2v7.8c2.5-2.1 7.9-3 13.6-3v21.3c0 3.1-.3 4-1.5 5.6h11.4c-1.3-1.6-1.5-2.5-1.5-5.6V5.8zM60.3 13.4c-2 .8-5.8.9-7.6.9h-3V5.9h4c3.6 0 9.8.8 12.1 2.9V1.1H39.9c1.3 1.5 1.5 2.5 1.5 5.5v20.5c0 3.1-.3 4-1.4 5.6h27.5V25c-3.8 2.9-11 2.9-13.9 2.9h-4V19h2.9c2 0 5.6.3 7.8 1v-6.6zM98.7 2.1C94.6.8 89.2 0 85.1 0c-7.5 0-14.8 2.4-14.8 10.4 0 13.8 22.5 6.5 22.5 15 0 2.8-4 3.9-7.3 3.9-5.8 0-9.8-1-14.8-4.3v7c3.8 1.3 8.9 2 14.4 2 7.8 0 15-2.3 15-10.4 0-14.5-22.4-8-22.4-15 0-2.9 3.6-3.9 6.8-3.9 5.3 0 11 1.6 14.1 4.8V2.1h.1zM156.5.5c-12.1 0-20.8 7-20.8 16.9 0 9.8 7.8 16.1 19.1 16.1 12.3 0 20.8-6.8 20.8-16.8C175.7 7 167.9.5 156.5.5zm-.9 28.3c-6.5 0-10.6-5.3-10.6-11.8 0-6.5 4.1-11.8 10.6-11.8 6.4 0 10.6 5.3 10.6 11.8.1 6.5-4.2 11.8-10.6 11.8z"/></svg>