<svg xmlns="http://www.w3.org/2000/svg" viewBox="0 0 123.9 15.9"><path fill="#FFF" d="M1.1 9.3H0V7.5h1.5L2 5.1H0V3.2h2.4L3 0h1.9l-.7 3.2H6L6.7 0h1.9l-.7 3.2H9V5H7.6l-.5 2.5h2v1.8H6.7L6 12.5H4.2l.6-3.2H3l-.7 3.2H.5l.6-3.2zm2.7-4.2l-.4 2.4h1.8l.5-2.4H3.8z"/><path fill="#A4C9E3" d="M13.2 12.3v-10H9.6V.2h9.6v2.1h-3.6v10.1h-2.4zM23.2.2v4.5c.8-.9 1.6-1.3 2.7-1.3.5 0 1 .1 1.4.3s.8.5 1 .8.4.7.4 1 .1 1 .1 1.7v5.2h-2.3V7.7c0-.9 0-1.5-.1-1.8-.1-.2-.2-.4-.5-.6-.2-.1-.5-.2-.8-.2-.4 0-.7.1-1 .3s-.5.5-.7.8-.2.9-.2 1.7v4.4h-2.3V.2h2.3zM36.3 9.5l2.3.4c-.3.8-.8 1.5-1.4 1.9-.6.4-1.4.7-2.4.7-1.5 0-2.7-.5-3.4-1.5-.6-.8-.9-1.8-.9-3 0-1.5.4-2.6 1.1-3.4.8-.8 1.7-1.2 2.9-1.2 1.3 0 2.3.4 3.1 1.3.8.9 1.1 2.2 1.1 4h-5.8c0 .7.2 1.2.6 1.6.4.4.8.6 1.3.6.4 0 .7-.1.9-.3s.4-.6.6-1.1zm.1-2.3c0-.7-.2-1.2-.5-1.5-.3-.4-.7-.5-1.2-.5s-.9.2-1.3.6c-.3.4-.5.9-.5 1.5h3.5z"/><path fill="#FFF" d="M40.6 12.3V.2h8.3v2.1H43v2.9h5.1v2.1H43v5.2h-2.4zM52.7 6.2l-2.1-.4c.2-.8.6-1.4 1.2-1.8s1.4-.6 2.6-.6c1 0 1.8.1 2.3.4s.9.6 1.1.9c.2.3.3 1 .3 2v2.7c0 .8 0 1.3.1 1.7.1.4.2.8.4 1.2h-2.3c-.1-.2-.1-.4-.2-.7 0-.1-.1-.2-.1-.3-.4.4-.8.7-1.3.9s-.9.3-1.4.3c-.9 0-1.6-.2-2.1-.7-.5-.5-.8-1.1-.8-1.9 0-.5.1-.9.4-1.3.2-.4.6-.7 1-.9s1-.4 1.8-.5c1.1-.2 1.8-.4 2.3-.6v-.2c0-.4-.1-.8-.3-1s-.6-.3-1.2-.3c-.4 0-.7.1-1 .2-.4.2-.6.5-.7.9zm3.1 1.9c-.3.1-.8.2-1.4.4s-1.1.3-1.3.4c-.3.2-.5.5-.5.8 0 .3.1.6.4.8.2.2.6.4.9.4.4 0 .8-.1 1.2-.4.3-.2.5-.5.6-.8.1-.2.1-.6.1-1.1v-.5zM60.3 3.5h2.2v1.3c.3-.4.7-.8 1.1-1.1.5-.3 1-.4 1.6-.4 1 0 1.9.4 2.6 1.2s1.1 1.9 1.1 3.3c0 1.5-.4 2.6-1.1 3.4s-1.6 1.2-2.6 1.2c-.5 0-.9-.1-1.3-.3s-.8-.5-1.2-1v4.4h-2.3v-12zm2.3 4.3c0 1 .2 1.7.6 2.2.4.5.9.7 1.4.7.5 0 1-.2 1.3-.6s.5-1.1.5-2.1c0-.9-.2-1.6-.6-2.1-.4-.4-.8-.7-1.4-.7-.6 0-1 .2-1.4.7s-.4 1-.4 1.9zM70.7 3.5h2.2v1.3c.2-.4.6-.8 1.1-1 .5-.3 1-.4 1.6-.4 1 0 1.9.4 2.6 1.2s1.1 1.9 1.1 3.3c0 1.5-.4 2.6-1.1 3.4s-1.6 1.2-2.6 1.2c-.5 0-.9-.1-1.3-.3s-.8-.5-1.2-1v4.4h-2.3V3.5zM73 7.8c0 1 .2 1.7.6 2.2.4.5.9.7 1.4.7.5 0 1-.2 1.3-.6s.5-1.1.5-2.1c0-.9-.2-1.6-.6-2.1-.4-.4-.8-.7-1.4-.7-.6 0-1 .2-1.4.7s-.4 1-.4 1.9zM86.2 9.5l2.3.4c-.3.8-.8 1.5-1.4 1.9-.6.4-1.4.7-2.4.7-1.5 0-2.7-.5-3.4-1.5-.6-.8-.9-1.8-.9-3 0-1.5.4-2.6 1.1-3.4.8-.8 1.7-1.2 2.9-1.2 1.3 0 2.3.4 3.1 1.3.8.9 1.1 2.2 1.1 4h-5.8c0 .7.2 1.2.6 1.6.4.4.8.6 1.3.6.4 0 .7-.1.9-.3s.4-.6.6-1.1zm.1-2.3c0-.7-.2-1.2-.5-1.5-.3-.4-.7-.5-1.2-.5s-.9.2-1.3.6c-.3.4-.5.9-.5 1.5h3.5zM98.5 12.3h-2.3V7.8c0-.9 0-1.6-.1-1.8s-.3-.5-.5-.6c-.2-.2-.5-.2-.8-.2-.4 0-.8.1-1.1.3-.4.2-.6.5-.7.8-.1.4-.2 1-.2 2v4h-2.3V3.5h2.2v1.3c.8-1 1.7-1.5 2.9-1.5.5 0 1 .1 1.4.3.4.2.7.4 1 .7.2.3.4.6.5 1 .1.4.1.9.1 1.6v5.4zM100.8 2.4V.2h2.3v2.2h-2.3zm0 9.9V3.5h2.3v8.8h-2.3zM113.5 12.3h-2.3V7.8c0-.9 0-1.6-.1-1.8-.1-.3-.3-.5-.5-.6s-.5-.2-.8-.2c-.4 0-.8.1-1.1.3-.3.2-.5.5-.7.9-.1.4-.2 1-.2 2v4h-2.3V3.5h2.2v1.3c.8-1 1.7-1.5 2.9-1.5.5 0 1 .1 1.4.3s.7.4 1 .7.4.6.5 1c.1.4.1.9.1 1.6v5.4zM115.7 12.9l2.7.3c0 .3.1.5.3.6.2.2.6.2 1 .2.6 0 1.1-.1 1.4-.3.2-.1.4-.3.5-.6.1-.2.1-.5.1-1.1v-1.3c-.7.9-1.6 1.4-2.6 1.4-1.2 0-2.1-.5-2.8-1.5-.5-.8-.8-1.8-.8-2.9 0-1.5.4-2.6 1.1-3.4.7-.8 1.6-1.2 2.6-1.2 1.1 0 2 .5 2.7 1.4v-1h2.2v7.9c0 1-.1 1.8-.3 2.3s-.4.9-.7 1.2c-.3.3-.7.5-1.2.7-.5.2-1.2.2-2 .2-1.5 0-2.5-.3-3.2-.8-.6-.5-.9-1.2-.9-1.9-.1 0-.1-.1-.1-.2zm2.1-5.1c0 .9.2 1.6.5 2 .4.4.8.6 1.3.6.6 0 1-.2 1.4-.7.4-.4.6-1.1.6-2 0-.9-.2-1.6-.6-2-.4-.4-.8-.7-1.4-.7-.6 0-1 .2-1.4.6-.3.6-.4 1.3-.4 2.2z"/></svg>