<svg version="1.1" id="Layer_1" xmlns="http://www.w3.org/2000/svg" xmlns:xlink="http://www.w3.org/1999/xlink" x="0px" y="0px" viewBox="0 0 123.9 15.9" enable-background="new 0 0 123.9 15.9" xml:space="preserve"><path fill="#FFFFFF" d="M1.1,9.3H0V7.5h1.5L2,5.1H0V3.2h2.4L3,0h1.9L4.2,3.2H6L6.7,0h1.9L7.9,3.2h1.1v1.8H7.6L7.1,7.5h2v1.8H6.7 L6,12.5H4.2l0.6-3.2H3l-0.7,3.2H0.5L1.1,9.3z M3.8,5.1L3.4,7.5h1.8l0.5-2.4H3.8z"/><path fill="#A4C9E3" d="M13.2,12.3V2.3H9.6V0.2h9.6v2.1h-3.6v10.1H13.2z"/><path fill="#A4C9E3" d="M23.2,0.2v4.5c0.8-0.9,1.6-1.3,2.7-1.3c0.5,0,1,0.1,1.4,0.3s0.8,0.5,1,0.8s0.4,0.7,0.4,1s0.1,1,0.1,1.7v5.2 h-2.3V7.7c0-0.9,0-1.5-0.1-1.8c-0.1-0.2-0.2-0.4-0.5-0.6c-0.2-0.1-0.5-0.2-0.8-0.2c-0.4,0-0.7,0.1-1,0.3s-0.5,0.5-0.7,0.8 s-0.2,0.9-0.2,1.7v4.4h-2.3V0.2H23.2z"/><path fill="#A4C9E3" d="M36.3,9.5l2.3,0.4c-0.3,0.8-0.8,1.5-1.4,1.9c-0.6,0.4-1.4,0.7-2.4,0.7c-1.5,0-2.7-0.5-3.4-1.5 c-0.6-0.8-0.9-1.8-0.9-3c0-1.5,0.4-2.6,1.1-3.4c0.8-0.8,1.7-1.2,2.9-1.2c1.3,0,2.3,0.4,3.1,1.3c0.8,0.9,1.1,2.2,1.1,4h-5.8 c0,0.7,0.2,1.2,0.6,1.6c0.4,0.4,0.8,0.6,1.3,0.6c0.4,0,0.7-0.1,0.9-0.3S36.1,10,36.3,9.5z M36.4,7.2c0-0.7-0.2-1.2-0.5-1.5 c-0.3-0.4-0.7-0.5-1.2-0.5c-0.5,0-0.9,0.2-1.3,0.6c-0.3,0.4-0.5,0.9-0.5,1.5H36.4z"/><path fill="#FFFFFF" d="M40.6,12.3V0.2h8.3v2.1h-5.9v2.9h5.1v2.1h-5.1v5.2H40.6z"/><path fill="#FFFFFF" d="M52.7,6.2l-2.1-0.4C50.8,5,51.2,4.4,51.8,4s1.4-0.6,2.6-0.6c1,0,1.8,0.1,2.3,0.4s0.9,0.6,1.1,0.9 C58,5,58.1,5.7,58.1,6.7l0,2.7c0,0.8,0,1.3,0.1,1.7c0.1,0.4,0.2,0.8,0.4,1.2h-2.3c-0.1-0.2-0.1-0.4-0.2-0.7c0-0.1-0.1-0.2-0.1-0.3 c-0.4,0.4-0.8,0.7-1.3,0.9s-0.9,0.3-1.4,0.3c-0.9,0-1.6-0.2-2.1-0.7c-0.5-0.5-0.8-1.1-0.8-1.9c0-0.5,0.1-0.9,0.4-1.3 c0.2-0.4,0.6-0.7,1-0.9s1-0.4,1.8-0.5c1.1-0.2,1.8-0.4,2.3-0.6V6.4c0-0.4-0.1-0.8-0.3-1s-0.6-0.3-1.2-0.3c-0.4,0-0.7,0.1-1,0.2 C53,5.5,52.8,5.8,52.7,6.2z M55.8,8.1c-0.3,0.1-0.8,0.2-1.4,0.4s-1.1,0.3-1.3,0.4c-0.3,0.2-0.5,0.5-0.5,0.8c0,0.3,0.1,0.6,0.4,0.8 c0.2,0.2,0.6,0.4,0.9,0.4c0.4,0,0.8-0.1,1.2-0.4c0.3-0.2,0.5-0.5,0.6-0.8c0.1-0.2,0.1-0.6,0.1-1.1V8.1z"/><path fill="#FFFFFF" d="M60.3,3.5h2.2v1.3c0.3-0.4,0.7-0.8,1.1-1.1c0.5-0.3,1-0.4,1.6-0.4c1,0,1.9,0.4,2.6,1.2s1.1,1.9,1.1,3.3 c0,1.5-0.4,2.6-1.1,3.4s-1.6,1.2-2.6,1.2c-0.5,0-0.9-0.1-1.3-0.3s-0.8-0.5-1.2-1v4.4h-2.3V3.5z M62.6,7.8c0,1,0.2,1.7,0.6,2.2 c0.4,0.5,0.9,0.7,1.4,0.7c0.5,0,1-0.2,1.3-0.6s0.5-1.1,0.5-2.1c0-0.9-0.2-1.6-0.6-2.1c-0.4-0.4-0.8-0.7-1.4-0.7 c-0.6,0-1,0.2-1.4,0.7S62.6,6.9,62.6,7.8z"/><path fill="#FFFFFF" d="M70.7,3.5h2.2v1.3C73.1,4.4,73.5,4,74,3.8c0.5-0.3,1-0.4,1.6-0.4c1,0,1.9,0.4,2.6,1.2s1.1,1.9,1.1,3.3 c0,1.5-0.4,2.6-1.1,3.4s-1.6,1.2-2.6,1.2c-0.5,0-0.9-0.1-1.3-0.3s-0.8-0.5-1.2-1v4.4h-2.3V3.5z M73,7.8c0,1,0.2,1.7,0.6,2.2 c0.4,0.5,0.9,0.7,1.4,0.7c0.5,0,1-0.2,1.3-0.6s0.5-1.1,0.5-2.1c0-0.9-0.2-1.6-0.6-2.1c-0.4-0.4-0.8-0.7-1.4-0.7 c-0.6,0-1,0.2-1.4,0.7S73,6.9,73,7.8z"/><path fill="#FFFFFF" d="M86.2,9.5l2.3,0.4c-0.3,0.8-0.8,1.5-1.4,1.9c-0.6,0.4-1.4,0.7-2.4,0.7c-1.5,0-2.7-0.5-3.4-1.5 c-0.6-0.8-0.9-1.8-0.9-3c0-1.5,0.4-2.6,1.1-3.4c0.8-0.8,1.7-1.2,2.9-1.2c1.3,0,2.3,0.4,3.1,1.3c0.8,0.9,1.1,2.2,1.1,4h-5.8 c0,0.7,0.2,1.2,0.6,1.6c0.4,0.4,0.8,0.6,1.3,0.6c0.4,0,0.7-0.1,0.9-0.3S86,10,86.2,9.5z M86.3,7.2c0-0.7-0.2-1.2-0.5-1.5 c-0.3-0.4-0.7-0.5-1.2-0.5c-0.5,0-0.9,0.2-1.3,0.6c-0.3,0.4-0.5,0.9-0.5,1.5H86.3z"/><path fill="#FFFFFF" d="M98.5,12.3h-2.3V7.8c0-0.9,0-1.6-0.1-1.8s-0.3-0.5-0.5-0.6c-0.2-0.2-0.5-0.2-0.8-0.2c-0.4,0-0.8,0.1-1.1,0.3 C93.3,5.7,93.1,6,93,6.3c-0.1,0.4-0.2,1-0.2,2v4h-2.3V3.5h2.2v1.3c0.8-1,1.7-1.5,2.9-1.5c0.5,0,1,0.1,1.4,0.3c0.4,0.2,0.7,0.4,1,0.7 c0.2,0.3,0.4,0.6,0.5,1c0.1,0.4,0.1,0.9,0.1,1.6V12.3z"/><path fill="#FFFFFF" d="M100.8,2.4V0.2h2.3v2.2H100.8z M100.8,12.3V3.5h2.3v8.8H100.8z"/><path fill="#FFFFFF" d="M113.5,12.3h-2.3V7.8c0-0.9,0-1.6-0.1-1.8c-0.1-0.3-0.3-0.5-0.5-0.6s-0.5-0.2-0.8-0.2 c-0.4,0-0.8,0.1-1.1,0.3c-0.3,0.2-0.5,0.5-0.7,0.9c-0.1,0.4-0.2,1-0.2,2v4h-2.3V3.5h2.2v1.3c0.8-1,1.7-1.5,2.9-1.5 c0.5,0,1,0.1,1.4,0.3s0.7,0.4,1,0.7s0.4,0.6,0.5,1c0.1,0.4,0.1,0.9,0.1,1.6V12.3z"/><path fill="#FFFFFF" d="M115.7,12.9l2.7,0.3c0,0.3,0.1,0.5,0.3,0.6c0.2,0.2,0.6,0.2,1,0.2c0.6,0,1.1-0.1,1.4-0.3 c0.2-0.1,0.4-0.3,0.5-0.6c0.1-0.2,0.1-0.5,0.1-1.1v-1.3c-0.7,0.9-1.6,1.4-2.6,1.4c-1.2,0-2.1-0.5-2.8-1.5c-0.5-0.8-0.8-1.8-0.8-2.9 c0-1.5,0.4-2.6,1.1-3.4c0.7-0.8,1.6-1.2,2.6-1.2c1.1,0,2,0.5,2.7,1.4V3.5h2.2v7.9c0,1-0.1,1.8-0.3,2.3s-0.4,0.9-0.7,1.2 c-0.3,0.3-0.7,0.5-1.2,0.7c-0.5,0.2-1.2,0.2-2,0.2c-1.5,0-2.5-0.3-3.2-0.8c-0.6-0.5-0.9-1.2-0.9-1.9C115.7,13.1,115.7,13,115.7,12.9 z M117.8,7.8c0,0.9,0.2,1.6,0.5,2c0.4,0.4,0.8,0.6,1.3,0.6c0.6,0,1-0.2,1.4-0.7c0.4-0.4,0.6-1.1,0.6-2c0-0.9-0.2-1.6-0.6-2 c-0.4-0.4-0.8-0.7-1.4-0.7c-0.6,0-1,0.2-1.4,0.6C117.9,6.2,117.8,6.9,117.8,7.8z"/></svg> 