<svg version="1.1" id="Layer_2" xmlns="http://www.w3.org/2000/svg" xmlns:xlink="http://www.w3.org/1999/xlink" x="0px" y="0px" viewBox="0 0 411.8 37.1" style="enable-background:new 0 0 411.8 37.1;" xml:space="preserve"><style type="text/css">.st0{fill:#FFFFFF;}</style><g><path class="st0" d="M10.5,5.7H0V1.9h25.7v3.8H15.1v30.9h-4.5V5.7z"/><path class="st0" d="M40.5,0h4.5v15.5h0.1c0.7-1.3,1.9-2.4,3.2-3.2c1.3-0.8,2.9-1.3,4.6-1.3c3.3,0,8.7,2.1,8.7,10.6v14.8h-4.5V22.2c0-4-1.5-7.4-5.8-7.4c-2.9,0-5.2,2.1-6.1,4.5c-0.3,0.6-0.3,1.3-0.3,2.2v15h-4.5V0z"/><path class="st0" d="M83.1,24.9c0.1,6.1,4,8.6,8.5,8.6c3.2,0,5.2-0.6,6.9-1.3l0.8,3.2C97.7,36.2,95,37,91,37c-7.7,0-12.2-5-12.2-12.6s4.4-13.4,11.7-13.4c8.1,0,10.3,7.2,10.3,11.7c0,0.9-0.1,1.6-0.2,2.1H83.1z M96.4,21.7c0.1-2.9-1.2-7.4-6.3-7.4c-4.6,0-6.6,4.2-6.9,7.4H96.4z"/><path class="st0" d="M122.9,5.7h-10.5V1.9h25.7v3.8h-10.6v30.9h-4.5V5.7z"/><path class="st0" d="M163.1,36.5L151.8,1.9h4.8l5.4,17.1c1.5,4.7,2.8,8.9,3.7,13h0.1c1-4,2.4-8.4,4-12.9l5.9-17.1h4.8l-12.4,34.7H163.1z"/><path class="st0" d="M195.7,2.3c2.7-0.4,6-0.7,9.5-0.7c6.4,0,11,1.5,14,4.3c3.1,2.8,4.9,6.8,4.9,12.4c0,5.7-1.7,10.3-5,13.5c-3.2,3.2-8.6,5-15.3,5c-3.2,0-5.9-0.2-8.1-0.4V2.3z M200.2,33c1.1,0.2,2.8,0.3,4.5,0.3c9.6,0,14.8-5.3,14.8-14.7c0.1-8.2-4.6-13.4-14-13.4c-2.3,0-4.1,0.2-5.2,0.5V33z"/><path class="st0" d="M241.5,2.3c2-0.4,5-0.7,8.2-0.7c4.5,0,7.4,0.8,9.5,2.5c1.8,1.3,2.9,3.4,2.9,6.1c0,3.3-2.2,6.3-5.9,7.6V18c3.3,0.8,7.1,3.5,7.1,8.7c0,3-1.2,5.2-2.9,6.9c-2.4,2.2-6.3,3.2-12,3.2c-3.1,0-5.5-0.2-6.9-0.4V2.3z M246,16.5h4.1c4.7,0,7.5-2.5,7.5-5.8c0-4.1-3.1-5.7-7.6-5.7c-2.1,0-3.2,0.2-4,0.3V16.5z M246,33.1c0.9,0.2,2.2,0.2,3.8,0.2c4.6,0,8.9-1.7,8.9-6.7c0-4.7-4.1-6.7-9-6.7H246V33.1z"/><path class="st0" d="M279,33.8c0-1.9,1.3-3.2,3.1-3.2c1.8,0,3,1.3,3,3.2c0,1.9-1.2,3.2-3.1,3.2C280.2,37.1,279,35.7,279,33.8z"/><path class="st0" d="M320,35.6c-1.2,0.6-3.8,1.4-7.1,1.4c-7.5,0-12.4-5.1-12.4-12.7c0-7.7,5.2-13.2,13.4-13.2c2.7,0,5,0.7,6.3,1.3l-1,3.5c-1.1-0.6-2.8-1.2-5.2-1.2c-5.7,0-8.8,4.2-8.8,9.4c0,5.8,3.7,9.3,8.6,9.3c2.6,0,4.3-0.7,5.6-1.2L320,35.6z"/><path class="st0" d="M359.1,23.9c0,9.2-6.4,13.2-12.4,13.2c-6.7,0-11.9-4.9-11.9-12.8c0-8.3,5.5-13.2,12.3-13.2C354.2,11.1,359.1,16.3,359.1,23.9z M339.3,24.1c0,5.5,3.1,9.6,7.6,9.6c4.3,0,7.6-4.1,7.6-9.7c0-4.2-2.1-9.6-7.5-9.6S339.3,19.4,339.3,24.1z"/><path class="st0" d="M376.3,18.4c0-2.6-0.1-4.7-0.2-6.7h4l0.2,4h0.2c1.4-2.4,3.7-4.6,7.8-4.6c3.4,0,6,2.1,7,5h0.1c0.8-1.4,1.7-2.5,2.8-3.2c1.5-1.1,3.1-1.7,5.5-1.7c3.3,0,8.2,2.2,8.2,10.8v14.7h-4.4V22.4c0-4.8-1.7-7.7-5.4-7.7c-2.6,0-4.6,1.9-5.3,4.1c-0.2,0.6-0.4,1.4-0.4,2.3v15.4h-4.4V21.6c0-4-1.7-6.8-5.2-6.8c-2.8,0-4.9,2.3-5.6,4.5c-0.3,0.7-0.4,1.4-0.4,2.2v15h-4.4V18.4z"/></g></svg>