<svg id="Layer_2" xmlns="http://www.w3.org/2000/svg" viewBox="0 0 411.8 37.1"><style>.st0{fill:#fff}</style><path class="st0" d="M10.5 5.7H0V1.9h25.7v3.8H15.1v30.9h-4.5V5.7zM40.5 0H45v15.5h.1c.7-1.3 1.9-2.4 3.2-3.2 1.3-.8 2.9-1.3 4.6-1.3 3.3 0 8.7 2.1 8.7 10.6v14.8h-4.5V22.2c0-4-1.5-7.4-5.8-7.4-2.9 0-5.2 2.1-6.1 4.5-.3.6-.3 1.3-.3 2.2v15h-4.5V0zM83.1 24.9c.1 6.1 4 8.6 8.5 8.6 3.2 0 5.2-.6 6.9-1.3l.8 3.2C97.7 36.2 95 37 91 37c-7.7 0-12.2-5-12.2-12.6S83.2 11 90.5 11c8.1 0 10.3 7.2 10.3 11.7 0 .9-.1 1.6-.2 2.1H83.1zm13.3-3.2c.1-2.9-1.2-7.4-6.3-7.4-4.6 0-6.6 4.2-6.9 7.4h13.2zM122.9 5.7h-10.5V1.9h25.7v3.8h-10.6v30.9H123V5.7zM163.1 36.5L151.8 1.9h4.8L162 19c1.5 4.7 2.8 8.9 3.7 13h.1c1-4 2.4-8.4 4-12.9L175.7 2h4.8l-12.4 34.7h-5zM195.7 2.3c2.7-.4 6-.7 9.5-.7 6.4 0 11 1.5 14 4.3 3.1 2.8 4.9 6.8 4.9 12.4 0 5.7-1.7 10.3-5 13.5-3.2 3.2-8.6 5-15.3 5-3.2 0-5.9-.2-8.1-.4V2.3zm4.5 30.7c1.1.2 2.8.3 4.5.3 9.6 0 14.8-5.3 14.8-14.7.1-8.2-4.6-13.4-14-13.4-2.3 0-4.1.2-5.2.5V33zM241.5 2.3c2-.4 5-.7 8.2-.7 4.5 0 7.4.8 9.5 2.5 1.8 1.3 2.9 3.4 2.9 6.1 0 3.3-2.2 6.3-5.9 7.6v.2c3.3.8 7.1 3.5 7.1 8.7 0 3-1.2 5.2-2.9 6.9-2.4 2.2-6.3 3.2-12 3.2-3.1 0-5.5-.2-6.9-.4V2.3zm4.5 14.2h4.1c4.7 0 7.5-2.5 7.5-5.8 0-4.1-3.1-5.7-7.6-5.7-2.1 0-3.2.2-4 .3v11.2zm0 16.6c.9.2 2.2.2 3.8.2 4.6 0 8.9-1.7 8.9-6.7 0-4.7-4.1-6.7-9-6.7H246v13.2zM279 33.8c0-1.9 1.3-3.2 3.1-3.2s3 1.3 3 3.2c0 1.9-1.2 3.2-3.1 3.2-1.8.1-3-1.3-3-3.2zM320 35.6c-1.2.6-3.8 1.4-7.1 1.4-7.5 0-12.4-5.1-12.4-12.7 0-7.7 5.2-13.2 13.4-13.2 2.7 0 5 .7 6.3 1.3l-1 3.5c-1.1-.6-2.8-1.2-5.2-1.2-5.7 0-8.8 4.2-8.8 9.4 0 5.8 3.7 9.3 8.6 9.3 2.6 0 4.3-.7 5.6-1.2l.6 3.4zM359.1 23.9c0 9.2-6.4 13.2-12.4 13.2-6.7 0-11.9-4.9-11.9-12.8 0-8.3 5.5-13.2 12.3-13.2 7.1 0 12 5.2 12 12.8zm-19.8.2c0 5.5 3.1 9.6 7.6 9.6 4.3 0 7.6-4.1 7.6-9.7 0-4.2-2.1-9.6-7.5-9.6s-7.7 5-7.7 9.7zM376.3 18.4c0-2.6-.1-4.7-.2-6.7h4l.2 4h.2c1.4-2.4 3.7-4.6 7.8-4.6 3.4 0 6 2.1 7 5h.1c.8-1.4 1.7-2.5 2.8-3.2 1.5-1.1 3.1-1.7 5.5-1.7 3.3 0 8.2 2.2 8.2 10.8v14.7h-4.4V22.4c0-4.8-1.7-7.7-5.4-7.7-2.6 0-4.6 1.9-5.3 4.1-.2.6-.4 1.4-.4 2.3v15.4H392V21.6c0-4-1.7-6.8-5.2-6.8-2.8 0-4.9 2.3-5.6 4.5-.3.7-.4 1.4-.4 2.2v15h-4.4V18.4z"/></svg>