<svg xmlns="http://www.w3.org/2000/svg" width="162.2" height="27"><g fill="#0C3B55"><path d="M0 2.4h16.5v6H11v18.2H5.5V8.4H0v-6zM19 2.4h5.4v8.4h5.9V2.4h5.5v24.1h-5.5v-9.8h-5.9v9.8H19V2.4zM39.7 2.4h5.4v24.1h-5.4V2.4zM48.1 18.6l5.2-.4c.1 1.2.3 2 .7 2.6.6 1 1.4 1.5 2.4 1.5.8 0 1.4-.2 1.8-.7.4-.5.6-1.1.6-1.7 0-.6-.2-1.2-.6-1.7-.4-.5-1.3-1-2.8-1.4-2.4-.7-4.1-1.7-5.1-2.9s-1.5-2.8-1.5-4.7c0-1.2.3-2.4.8-3.5s1.3-2 2.4-2.6S54.4 2 56.2 2c2.2 0 4 .6 5.1 1.7 1.2 1.1 1.9 3 2.1 5.5l-5.1.4c-.1-1.1-.4-1.9-.9-2.4-.4-.5-1-.7-1.8-.7-.6 0-1.1.2-1.4.6-.3.4-.5.8-.5 1.3 0 .4.1.7.4 1 .3.3.9.6 1.9.9 2.4.7 4.1 1.4 5.1 2.1s1.8 1.6 2.2 2.7.7 2.3.7 3.6c0 1.5-.3 3-.9 4.3-.6 1.3-1.5 2.3-2.6 3-1.1.7-2.5 1-4.2 1-3 0-5.1-.8-6.2-2.4s-1.9-3.6-2-6zM66.8 2.4h5.4v8.4h5.9V2.4h5.5v24.1h-5.5v-9.8h-5.9v9.8h-5.4V2.4zM98.1 22.6h-6.2l-.9 4h-5.6L92 2.5h6l6.6 24.1H99l-.9-4zM97 17.3l-2-8.6-1.9 8.7H97zM106.4 2.4h10.2c1.7 0 3 .6 3.9 1.7.9 1.2 1.4 2.6 1.4 4.3 0 1.4-.3 2.7-1 3.7-.4.7-1.1 1.2-1.9 1.6 1.3.4 2.2 1.1 2.8 2.1.6 1 .9 2.3.9 3.8 0 1.3-.2 2.4-.6 3.4-.4 1-1 1.8-1.7 2.4-.5.4-1.1.6-2.1.8-1.2.2-2 .3-2.4.3h-9.4V2.4zm5.5 9.5h2.4c.8 0 1.4-.2 1.8-.6.3-.4.5-1 .5-1.7s-.2-1.3-.5-1.6c-.3-.4-.9-.6-1.7-.6H112v4.5zm0 9.5h2.8c.9 0 1.6-.2 2-.7.4-.5.6-1.1.6-1.8s-.2-1.3-.6-1.7c-.4-.4-1-.7-2-.7h-2.8v4.9zM125.5 2.4h10.2c1.7 0 3 .6 3.9 1.7.9 1.2 1.4 2.6 1.4 4.3 0 1.4-.3 2.7-1 3.7-.4.7-1.1 1.2-1.9 1.6 1.3.4 2.2 1.1 2.8 2.1.6 1 .9 2.3.9 3.8 0 1.3-.2 2.4-.6 3.4-.4 1-1 1.8-1.7 2.4-.5.4-1.1.6-2.1.8-1.2.2-2 .3-2.4.3h-9.4V2.4zm5.5 9.5h2.4c.8 0 1.4-.2 1.8-.6.3-.4.5-1 .5-1.7s-.2-1.3-.5-1.6c-.3-.4-.9-.6-1.7-.6H131v4.5zm0 9.5h2.8c.9 0 1.6-.2 2-.7.4-.5.6-1.1.6-1.8s-.2-1.3-.6-1.7c-.4-.4-1-.7-2-.7H131v4.9zM143.9 14.5c0-3.9.8-7 2.4-9.2 1.6-2.2 3.8-3.3 6.7-3.3 2.9 0 5.2 1.1 6.8 3.2 1.6 2.2 2.4 5.2 2.4 9.1 0 2.8-.3 5.1-1 6.9-.7 1.8-1.7 3.2-3 4.2s-2.9 1.5-4.9 1.5c-2 0-3.6-.4-4.9-1.3-1.3-.9-2.4-2.2-3.2-4.1-.9-1.8-1.3-4.2-1.3-7zm5.5 0c0 2.4.3 4.2 1 5.3s1.6 1.6 2.7 1.6c1.2 0 2.1-.5 2.7-1.6.6-1 1-2.9 1-5.6 0-2.3-.3-3.9-1-5-.7-1-1.6-1.6-2.7-1.6s-2 .5-2.6 1.6-1.1 2.9-1.1 5.3z"/></g><g fill="#FFF"><path d="M0 .4h16.5v6H11v18.2H5.5V6.4H0v-6zM19 .4h5.4v8.4h5.9V.4h5.5v24.1h-5.5v-9.8h-5.9v9.8H19V.4zM39.7.4h5.4v24.1h-5.4V.4zM48.1 16.6l5.2-.4c.1 1.2.3 2 .7 2.6.6 1 1.4 1.5 2.4 1.5.8 0 1.4-.2 1.8-.7.4-.5.6-1.1.6-1.7 0-.6-.2-1.2-.6-1.7-.4-.5-1.3-1-2.8-1.4-2.4-.7-4.1-1.7-5.1-2.9s-1.5-2.8-1.5-4.7c0-1.2.3-2.4.8-3.5s1.3-2 2.4-2.6S54.4 0 56.2 0c2.2 0 4 .6 5.1 1.7 1.2 1.1 1.9 3 2.1 5.5l-5.1.4c-.1-1.1-.4-1.9-.9-2.4-.4-.5-1-.7-1.8-.7-.6 0-1.1.2-1.4.6-.3.4-.5.8-.5 1.3 0 .4.1.7.4 1 .3.3.9.6 1.9.9 2.4.7 4.1 1.4 5.1 2.1s1.8 1.6 2.2 2.7.7 2.3.7 3.6c0 1.5-.3 3-.9 4.3-.6 1.3-1.5 2.3-2.6 3-1.1.7-2.5 1-4.2 1-3 0-5.1-.8-6.2-2.4s-1.9-3.6-2-6zM66.8.4h5.4v8.4h5.9V.4h5.5v24.1h-5.5v-9.8h-5.9v9.8h-5.4V.4zM98.1 20.6h-6.2l-.9 4h-5.6L92 .5h6l6.6 24.1H99l-.9-4zM97 15.3l-2-8.6-1.9 8.7H97zM106.4.4h10.2c1.7 0 3 .6 3.9 1.7.9 1.2 1.4 2.6 1.4 4.3 0 1.4-.3 2.7-1 3.7-.4.7-1.1 1.2-1.9 1.6 1.3.4 2.2 1.1 2.8 2.1.6 1 .9 2.3.9 3.8 0 1.3-.2 2.4-.6 3.4-.4 1-1 1.8-1.7 2.4-.5.4-1.1.6-2.1.8-1.2.2-2 .3-2.4.3h-9.4V.4zm5.5 9.5h2.4c.8 0 1.4-.2 1.8-.6.3-.4.5-1 .5-1.7s-.2-1.3-.5-1.6-.9-.6-1.7-.6H112v4.5zm0 9.5h2.8c.9 0 1.6-.2 2-.7.4-.5.6-1.1.6-1.8s-.2-1.3-.6-1.7c-.4-.4-1-.7-2-.7h-2.8v4.9zM125.5.4h10.2c1.7 0 3 .6 3.9 1.7.9 1.2 1.4 2.6 1.4 4.3 0 1.4-.3 2.7-1 3.7-.4.7-1.1 1.2-1.9 1.6 1.3.4 2.2 1.1 2.8 2.1.6 1 .9 2.3.9 3.8 0 1.3-.2 2.4-.6 3.4-.4 1-1 1.8-1.7 2.4-.5.4-1.1.6-2.1.8-1.2.2-2 .3-2.4.3h-9.4V.4zm5.5 9.5h2.4c.8 0 1.4-.2 1.8-.6.3-.4.5-1 .5-1.7s-.2-1.3-.5-1.6-.9-.6-1.7-.6H131v4.5zm0 9.5h2.8c.9 0 1.6-.2 2-.7.4-.5.6-1.1.6-1.8s-.2-1.3-.6-1.7c-.4-.4-1-.7-2-.7H131v4.9zM143.9 12.5c0-3.9.8-7 2.4-9.2 1.6-2.2 3.8-3.3 6.7-3.3 2.9 0 5.2 1.1 6.8 3.2 1.6 2.2 2.4 5.2 2.4 9.1 0 2.8-.3 5.1-1 6.9-.7 1.8-1.7 3.2-3 4.2s-2.9 1.5-4.9 1.5c-2 0-3.6-.4-4.9-1.3-1.3-.9-2.4-2.2-3.2-4.1-.9-1.8-1.3-4.2-1.3-7zm5.5 0c0 2.4.3 4.2 1 5.3s1.6 1.6 2.7 1.6c1.2 0 2.1-.5 2.7-1.6.6-1 1-2.9 1-5.6 0-2.3-.3-3.9-1-5-.7-1-1.6-1.6-2.7-1.6s-2 .5-2.6 1.6-1.1 2.9-1.1 5.3z"/></g></svg>