<svg xmlns="http://www.w3.org/2000/svg" xmlns:xlink="http://www.w3.org/1999/xlink" x="0px" y="0px" width="162.2px" height="27px" viewBox="0 0 162.2 27" xml:space="preserve"><g id="Layer_2"><path fill="#0C3B55" d="M0,2.4h16.5v6H11v18.2H5.5V8.4H0V2.4z"/><path fill="#0C3B55" d="M19,2.4h5.4v8.4h5.9V2.4h5.5v24.1h-5.5v-9.8h-5.9v9.8H19V2.4z"/><path fill="#0C3B55" d="M39.7,2.4h5.4v24.1h-5.4V2.4z"/><path fill="#0C3B55" d="M48.1,18.6l5.2-0.4c0.1,1.2,0.3,2,0.7,2.6c0.6,1,1.4,1.5,2.4,1.5c0.8,0,1.4-0.2,1.8-0.7 c0.4-0.5,0.6-1.1,0.6-1.7c0-0.6-0.2-1.2-0.6-1.7c-0.4-0.5-1.3-1-2.8-1.4c-2.4-0.7-4.1-1.7-5.1-2.9c-1-1.2-1.5-2.8-1.5-4.7 c0-1.2,0.3-2.4,0.8-3.5c0.5-1.1,1.3-2,2.4-2.6S54.4,2,56.2,2c2.2,0,4,0.6,5.1,1.7c1.2,1.1,1.9,3,2.1,5.5l-5.1,0.4 c-0.1-1.1-0.4-1.9-0.9-2.4c-0.4-0.5-1-0.7-1.8-0.7c-0.6,0-1.1,0.2-1.4,0.6c-0.3,0.4-0.5,0.8-0.5,1.3c0,0.4,0.1,0.7,0.4,1 C54.4,9.7,55,10,56,10.3c2.4,0.7,4.1,1.4,5.1,2.1s1.8,1.6,2.2,2.7s0.7,2.3,0.7,3.6c0,1.5-0.3,3-0.9,4.3c-0.6,1.3-1.5,2.3-2.6,3 c-1.1,0.7-2.5,1-4.2,1c-3,0-5.1-0.8-6.2-2.4S48.2,21,48.1,18.6z"/><path fill="#0C3B55" d="M66.8,2.4h5.4v8.4h5.9V2.4h5.5v24.1h-5.5v-9.8h-5.9v9.8h-5.4V2.4z"/><path fill="#0C3B55" d="M98.1,22.6h-6.2l-0.9,4h-5.6l6.6-24.1H98l6.6,24.1H99L98.1,22.6z M97,17.3L95,8.7l-1.9,8.7H97z"/><path fill="#0C3B55" d="M106.4,2.4h10.2c1.7,0,3,0.6,3.9,1.7c0.9,1.2,1.4,2.6,1.4,4.3c0,1.4-0.3,2.7-1,3.7 c-0.4,0.7-1.1,1.2-1.9,1.6c1.3,0.4,2.2,1.1,2.8,2.1c0.6,1,0.9,2.3,0.9,3.8c0,1.3-0.2,2.4-0.6,3.4c-0.4,1-1,1.8-1.7,2.4 c-0.5,0.4-1.1,0.6-2.1,0.8c-1.2,0.2-2,0.3-2.4,0.3h-9.4V2.4z M111.9,11.9h2.4c0.8,0,1.4-0.2,1.8-0.6c0.3-0.4,0.5-1,0.5-1.7 c0-0.7-0.2-1.3-0.5-1.6c-0.3-0.4-0.9-0.6-1.7-0.6h-2.4V11.9z M111.9,21.4h2.8c0.9,0,1.6-0.2,2-0.7c0.4-0.5,0.6-1.1,0.6-1.8 c0-0.7-0.2-1.3-0.6-1.7c-0.4-0.4-1-0.7-2-0.7h-2.8V21.4z"/><path fill="#0C3B55" d="M125.5,2.4h10.2c1.7,0,3,0.6,3.9,1.7c0.9,1.2,1.4,2.6,1.4,4.3c0,1.4-0.3,2.7-1,3.7 c-0.4,0.7-1.1,1.2-1.9,1.6c1.3,0.4,2.2,1.1,2.8,2.1c0.6,1,0.9,2.3,0.9,3.8c0,1.3-0.2,2.4-0.6,3.4c-0.4,1-1,1.8-1.7,2.4 c-0.5,0.4-1.1,0.6-2.1,0.8c-1.2,0.2-2,0.3-2.4,0.3h-9.4V2.4z M131,11.9h2.4c0.8,0,1.4-0.2,1.8-0.6c0.3-0.4,0.5-1,0.5-1.7 c0-0.7-0.2-1.3-0.5-1.6c-0.3-0.4-0.9-0.6-1.7-0.6H131V11.9z M131,21.4h2.8c0.9,0,1.6-0.2,2-0.7c0.4-0.5,0.6-1.1,0.6-1.8 c0-0.7-0.2-1.3-0.6-1.7c-0.4-0.4-1-0.7-2-0.7H131V21.4z"/><path fill="#0C3B55" d="M143.9,14.5c0-3.9,0.8-7,2.4-9.2c1.6-2.2,3.8-3.3,6.7-3.3c2.9,0,5.2,1.1,6.8,3.2c1.6,2.2,2.4,5.2,2.4,9.1 c0,2.8-0.3,5.1-1,6.9c-0.7,1.8-1.7,3.2-3,4.2c-1.3,1-2.9,1.5-4.9,1.5c-2,0-3.6-0.4-4.9-1.3c-1.3-0.9-2.4-2.2-3.2-4.1 C144.3,19.7,143.9,17.3,143.9,14.5z M149.4,14.5c0,2.4,0.3,4.2,1,5.3s1.6,1.6,2.7,1.6c1.2,0,2.1-0.5,2.7-1.6c0.6-1,1-2.9,1-5.6 c0-2.3-0.3-3.9-1-5c-0.7-1-1.6-1.6-2.7-1.6c-1.1,0-2,0.5-2.6,1.6S149.4,12.1,149.4,14.5z"/></g><g id="Layer_2_copy"><path fill="#FFFFFF" d="M0,0.4h16.5v6H11v18.2H5.5V6.4H0V0.4z"/><path fill="#FFFFFF" d="M19,0.4h5.4v8.4h5.9V0.4h5.5v24.1h-5.5v-9.8h-5.9v9.8H19V0.4z"/><path fill="#FFFFFF" d="M39.7,0.4h5.4v24.1h-5.4V0.4z"/><path fill="#FFFFFF" d="M48.1,16.6l5.2-0.4c0.1,1.2,0.3,2,0.7,2.6c0.6,1,1.4,1.5,2.4,1.5c0.8,0,1.4-0.2,1.8-0.7 c0.4-0.5,0.6-1.1,0.6-1.7c0-0.6-0.2-1.2-0.6-1.7c-0.4-0.5-1.3-1-2.8-1.4c-2.4-0.7-4.1-1.7-5.1-2.9c-1-1.2-1.5-2.8-1.5-4.7 c0-1.2,0.3-2.4,0.8-3.5c0.5-1.1,1.3-2,2.4-2.6S54.4,0,56.2,0c2.2,0,4,0.6,5.1,1.7c1.2,1.1,1.9,3,2.1,5.5l-5.1,0.4 c-0.1-1.1-0.4-1.9-0.9-2.4c-0.4-0.5-1-0.7-1.8-0.7c-0.6,0-1.1,0.2-1.4,0.6c-0.3,0.4-0.5,0.8-0.5,1.3c0,0.4,0.1,0.7,0.4,1 C54.4,7.7,55,8,56,8.3c2.4,0.7,4.1,1.4,5.1,2.1s1.8,1.6,2.2,2.7s0.7,2.3,0.7,3.6c0,1.5-0.3,3-0.9,4.3c-0.6,1.3-1.5,2.3-2.6,3 c-1.1,0.7-2.5,1-4.2,1c-3,0-5.1-0.8-6.2-2.4S48.2,19,48.1,16.6z"/><path fill="#FFFFFF" d="M66.8,0.4h5.4v8.4h5.9V0.4h5.5v24.1h-5.5v-9.8h-5.9v9.8h-5.4V0.4z"/><path fill="#FFFFFF" d="M98.1,20.6h-6.2l-0.9,4h-5.6l6.6-24.1H98l6.6,24.1H99L98.1,20.6z M97,15.3L95,6.7l-1.9,8.7H97z"/><path fill="#FFFFFF" d="M106.4,0.4h10.2c1.7,0,3,0.6,3.9,1.7c0.9,1.2,1.4,2.6,1.4,4.3c0,1.4-0.3,2.7-1,3.7 c-0.4,0.7-1.1,1.2-1.9,1.6c1.3,0.4,2.2,1.1,2.8,2.1c0.6,1,0.9,2.3,0.9,3.8c0,1.3-0.2,2.4-0.6,3.4c-0.4,1-1,1.8-1.7,2.4 c-0.5,0.4-1.1,0.6-2.1,0.8c-1.2,0.2-2,0.3-2.4,0.3h-9.4V0.4z M111.9,9.9h2.4c0.8,0,1.4-0.2,1.8-0.6c0.3-0.4,0.5-1,0.5-1.7 c0-0.7-0.2-1.3-0.5-1.6s-0.9-0.6-1.7-0.6h-2.4V9.9z M111.9,19.4h2.8c0.9,0,1.6-0.2,2-0.7c0.4-0.5,0.6-1.1,0.6-1.8 c0-0.7-0.2-1.3-0.6-1.7c-0.4-0.4-1-0.7-2-0.7h-2.8V19.4z"/><path fill="#FFFFFF" d="M125.5,0.4h10.2c1.7,0,3,0.6,3.9,1.7c0.9,1.2,1.4,2.6,1.4,4.3c0,1.4-0.3,2.7-1,3.7 c-0.4,0.7-1.1,1.2-1.9,1.6c1.3,0.4,2.2,1.1,2.8,2.1c0.6,1,0.9,2.3,0.9,3.8c0,1.3-0.2,2.4-0.6,3.4c-0.4,1-1,1.8-1.7,2.4 c-0.5,0.4-1.1,0.6-2.1,0.8c-1.2,0.2-2,0.3-2.4,0.3h-9.4V0.4z M131,9.9h2.4c0.8,0,1.4-0.2,1.8-0.6c0.3-0.4,0.5-1,0.5-1.7 c0-0.7-0.2-1.3-0.5-1.6s-0.9-0.6-1.7-0.6H131V9.9z M131,19.4h2.8c0.9,0,1.6-0.2,2-0.7c0.4-0.5,0.6-1.1,0.6-1.8 c0-0.7-0.2-1.3-0.6-1.7c-0.4-0.4-1-0.7-2-0.7H131V19.4z"/><path fill="#FFFFFF" d="M143.9,12.5c0-3.9,0.8-7,2.4-9.2c1.6-2.2,3.8-3.3,6.7-3.3c2.9,0,5.2,1.1,6.8,3.2c1.6,2.2,2.4,5.2,2.4,9.1 c0,2.8-0.3,5.1-1,6.9c-0.7,1.8-1.7,3.2-3,4.2c-1.3,1-2.9,1.5-4.9,1.5c-2,0-3.6-0.4-4.9-1.3c-1.3-0.9-2.4-2.2-3.2-4.1 C144.3,17.7,143.9,15.3,143.9,12.5z M149.4,12.5c0,2.4,0.3,4.2,1,5.3s1.6,1.6,2.7,1.6c1.2,0,2.1-0.5,2.7-1.6c0.6-1,1-2.9,1-5.6 c0-2.3-0.3-3.9-1-5c-0.7-1-1.6-1.6-2.7-1.6c-1.1,0-2,0.5-2.6,1.6S149.4,10.1,149.4,12.5z"/></g></svg> 