<svg xmlns="http://www.w3.org/2000/svg" xmlns:xlink="http://www.w3.org/1999/xlink" x="0px" y="0px" width="165px" height="160px" viewBox="0 0 165 160" xml:space="preserve"><g><path fill="#FFFFFF" d="M34.7,128h27v7.9h-9.1V160h-8.9v-24.1h-9.1V128z"/><path fill="#FFFFFF" d="M65.9,160v-32h14.8c2.7,0,4.8,0.3,6.3,0.8c1.5,0.5,2.6,1.5,3.5,2.9c0.9,1.4,1.3,3.1,1.3,5.2 c0,1.8-0.3,3.3-1,4.6c-0.7,1.3-1.6,2.3-2.8,3.1c-0.8,0.5-1.8,0.9-3.1,1.3c1.1,0.4,1.8,0.8,2.3,1.2c0.3,0.3,0.8,0.8,1.4,1.7 c0.6,0.9,1,1.5,1.2,2l4.3,9.3h-10l-4.7-9.8c-0.6-1.3-1.1-2.1-1.6-2.5c-0.6-0.5-1.4-0.7-2.2-0.7h-0.8v13H65.9z M74.8,140.9h3.7 c0.4,0,1.2-0.1,2.4-0.4c0.6-0.1,1.1-0.5,1.4-1c0.4-0.5,0.6-1.2,0.6-1.9c0-1-0.3-1.8-0.9-2.4c-0.6-0.6-1.7-0.8-3.3-0.8h-3.9V140.9z" /><path fill="#FFFFFF" d="M114.6,154.7h-10.1l-1.4,5.3h-9.1l10.8-32h9.7l10.8,32H116L114.6,154.7z M112.8,147.8l-3.2-11.5l-3.1,11.5 H112.8z"/><path fill="#FFFFFF" d="M128.5,128h8.9v32h-8.9V128z"/></g><path fill="#FFFFFF" d="M105.4,0.2c3.6-0.3,7.5-0.5,10.9,1.1c6.2,2.8,10.3,9.7,9.5,16.5c-0.3,10.4-12.1,18.4-21.9,14.8 c-6.3-2.4-11.9-8.8-11.3-15.8C91.9,9.1,98,1.7,105.4,0.2z"/><path fill="#FFFFFF" d="M35.1,45c6.4-7.2,15.6-12.3,25.2-12.9c8-0.9,14.3,4.9,20.8,8.4c6.5,3.7,13.9,5.8,21.1,7.5 c5.3,0.4,10.7,0.3,16,0c10.9-1.9,21.2-6.8,29.8-13.8c3.8-3.6,9.3-2.2,14-2c-5.4,7.9-12.6,14.4-20.2,20.1 C121,67.2,92.3,71.1,68.9,60.5c-7.1-3.3-13.2-8.4-20.3-11.8C44.4,46.6,39.6,46.2,35.1,45z"/><path fill="#FFFFFF" d="M143.7,73c4.2-2.8,8.1-7.1,13.5-6.9c2.6-0.1,5.3,0.3,7.8,1c-1.2,5-5.4,8.2-8.7,11.7 c-11.9,12.5-26.5,22.9-43.1,27.9c-6.6,2.3-13.5,3.5-20.4,4.4c-13.3,0.6-27,0.8-39.7-4.1c-14.9-4.5-26.1-16.4-40.9-21 c-4-1.4-8.3-0.7-12.4-1.1c4.9-5.9,11.6-10,18.3-13.6c8.1-3.9,17.8-6,26.5-2.6c4,1.4,7.5,3.9,11.1,6.1c11.6,7.4,25,11.9,38.7,13.3 C112.1,89.1,129.6,83.4,143.7,73z"/></svg> 