<svg xmlns="http://www.w3.org/2000/svg" width="165" height="160"><g fill="#FFF"><path d="M34.7 128h27v7.9h-9.1V160h-8.9v-24.1h-9.1V128zM65.9 160v-32h14.8c2.7 0 4.8.3 6.3.8s2.6 1.5 3.5 2.9c.9 1.4 1.3 3.1 1.3 5.2 0 1.8-.3 3.3-1 4.6-.7 1.3-1.6 2.3-2.8 3.1-.8.5-1.8.9-3.1 1.3 1.1.4 1.8.8 2.3 1.2.3.3.8.8 1.4 1.7.6.9 1 1.5 1.2 2l4.3 9.3h-10l-4.7-9.8c-.6-1.3-1.1-2.1-1.6-2.5-.6-.5-1.4-.7-2.2-.7h-.8v13h-8.9zm8.9-19.1h3.7c.4 0 1.2-.1 2.4-.4.6-.1 1.1-.5 1.4-1 .4-.5.6-1.2.6-1.9 0-1-.3-1.8-.9-2.4-.6-.6-1.7-.8-3.3-.8h-3.9v6.5z"/><path d="M114.6 154.7h-10.1l-1.4 5.3H94l10.8-32h9.7l10.8 32H116l-1.4-5.3zm-1.8-6.9l-3.2-11.5-3.1 11.5h6.3zM128.5 128h8.9v32h-8.9v-32z"/></g><path fill="#FFF" d="M105.4.2c3.6-.3 7.5-.5 10.9 1.1 6.2 2.8 10.3 9.7 9.5 16.5-.3 10.4-12.1 18.4-21.9 14.8-6.3-2.4-11.9-8.8-11.3-15.8C91.9 9.1 98 1.7 105.4.2z"/><path fill="#FFF" d="M35.1 45c6.4-7.2 15.6-12.3 25.2-12.9 8-.9 14.3 4.9 20.8 8.4 6.5 3.7 13.9 5.8 21.1 7.5 5.3.4 10.7.3 16 0 10.9-1.9 21.2-6.8 29.8-13.8 3.8-3.6 9.3-2.2 14-2-5.4 7.9-12.6 14.4-20.2 20.1-20.8 14.9-49.5 18.8-72.9 8.2-7.1-3.3-13.2-8.4-20.3-11.8-4.2-2.1-9-2.5-13.5-3.7z"/><path fill="#FFF" d="M143.7 73c4.2-2.8 8.1-7.1 13.5-6.9 2.6-.1 5.3.3 7.8 1-1.2 5-5.4 8.2-8.7 11.7-11.9 12.5-26.5 22.9-43.1 27.9-6.6 2.3-13.5 3.5-20.4 4.4-13.3.6-27 .8-39.7-4.1-14.9-4.5-26.1-16.4-40.9-21-4-1.4-8.3-.7-12.4-1.1 4.9-5.9 11.6-10 18.3-13.6 8.1-3.9 17.8-6 26.5-2.6 4 1.4 7.5 3.9 11.1 6.1 11.6 7.4 25 11.9 38.7 13.3 17.7 1 35.2-4.7 49.3-15.1z"/></svg>