<svg xmlns="http://www.w3.org/2000/svg" xmlns:xlink="http://www.w3.org/1999/xlink" x="0px" y="0px" viewBox="0 0 647 134" xml:space="preserve"><path fill="#FFFFFF" d="M627.5,97c-10.3,0-18.7,8.2-18.7,18.3c0,10.1,8.4,18.3,18.7,18.3c10.3,0,18.7-8.2,18.7-18.3 C646.1,105.2,637.8,97,627.5,97"/><path fill="#FFFFFF" d="M525.1,107.4l0-107.3h-11.3c0,0-18.8,6.8-32.3,8.2v20.3h8.5c2.7,0,3.9,1.2,3.9,3.7v75.1 c0,2.6-1.6,4.1-4.1,4.3c-2.2,0.1-7,0.5-7,0.5v20.3h53.2v-20.3c0,0-4.8-0.3-7-0.5C526.6,111.5,525.1,110.1,525.1,107.4L525.1,107.4z" /><path fill="#FFFFFF" d="M632.6,54.1c-1-22.6-31.7-23.7-47.7-8.4L582,37h-37v20.7l7.8,0c2.8,0,3.8,1.2,3.8,3.7v46 c0,2.6-1.6,4.1-4.1,4.3c-2.2,0.1-6.5,0.5-6.5,0.5v20.3h52.1v-20.3c0,0-4.3-0.3-6.5-0.5c-2.5-0.2-4.1-1.6-4.1-4.3l0-31.2 c0-5.8,1.3-15.6,11.6-18.1c1.3,9.7,10.7,12.7,15.3,12.7C626.1,70.8,632.6,62.1,632.6,54.1L632.6,54.1z"/><path fill="#FFFFFF" d="M436.2,35.7L436.2,35.7c-7.9,0.3-16.2,3.4-22.3,8.6V0.1h-11.2c0,0-18.3,6.5-32.4,8.2l-0.5,20.3l8.9,0 c2.7,0,3.9,1.2,4,3.7v100.1l25.6,0l3.7-8.2c0.8,0.4,12.5,11.5,31.2,9.3c23.6-2.8,36-21.4,36-49.8C479.2,68.8,474.6,34.1,436.2,35.7z M431.4,110.3L431.4,110.3c-4.3,0.3-12.4-0.4-17.5-9.5V87.5l0,0h0V72.2c0-6.6,6.1-12.5,15.6-12.8c9.6-0.4,18.1,6.2,18.1,24.7 C447.6,109.1,436.7,109.9,431.4,110.3z"/><path fill="#FFFFFF" d="M362.6,107.5c0,0,0-23.6,0-28.9c0-10.3-0.1-21-7-29.7c-6.3-8-16.6-13.8-32.4-13 c-10.5,0.5-21.6,5.4-27.8,13.7l-1,1.2l-0.6-0.7c-6.3-9.1-16.4-15-32.2-14.2c-10.5,0.5-21.6,5.4-27.8,13.7L233,37.1h-38.6v20.7 l8.9,0.1c2.7,0,3.9,1.2,3.9,3.7l0,40.6v5.2c0,2.6-1.6,4.1-4.1,4.3c-2.2,0.1-6.5,0.5-6.5,0.5v20.3l52.2,0v-20.3c0,0-4.1-0.3-6.5-0.5 c-2.5-0.2-4.1-1.6-4.1-4.3c0,0,0-25.9,0-31.1c0-5.2,4.3-15.8,17.9-15.8c11,0,13.2,6.7,13.2,14.5c0,7.8,0,32.4,0,32.4 c0,2.6-1.6,4.1-4.1,4.3c-2.2,0.1-6.5,0.5-6.5,0.5v20.3H311v-20.3c0,0-4.1-0.3-6.5-0.5c-2.5-0.2-4-1.6-4-4.3h-0.1c0,0,0-25.9,0-31.1 c0-5.2,3.8-15.8,17.4-15.8c11,0,13.7,6.7,13.7,14.5v27.2l0,5.2c0,2.6-1.6,4.1-4.1,4.3c-2.2,0.1-6.5,0.5-6.5,0.5v20.3h52.2v-20.3 c0,0-4.1-0.3-6.5-0.5C364.2,111.6,362.6,110.1,362.6,107.5L362.6,107.5z"/><path fill="#FFFFFF" d="M177.5,107.7V37.1h-43.4v20.7l8.4,0c2.8,0,3.9,1.2,3.9,3.7l0,32.2c0,3.2-2.3,15-18.1,15.3 c-10.8,0.2-13-6.1-13-14.5V37.1H83.3v59.1c0,15,6.8,38.5,38.7,37.6c10.5-0.3,22.5-5.6,28.7-13.3l0.3,11.9h35.6v-20.3 c0,0-2.9-0.2-5-0.4C179,111.7,177.5,110.4,177.5,107.7L177.5,107.7z"/><path fill="#FFFFFF" d="M59.2,110c-10.6,0.3-12.7-7.3-12.7-12.8V59.2h24.7V37.1H46.6V4.3H27.2c-0.3,0-0.9,0.3-1,1 c-1.1,10.1-6,27.8-26.1,34.9v19h15.3v40.1c0,14.5,9,35.1,37.9,34.6c9.7-0.2,20.5-4.2,22.9-7.6l-6.4-18.5C67.4,109,62.7,110,59.2,110 L59.2,110z"/></svg> 