<svg xmlns="http://www.w3.org/2000/svg" viewBox="0 0 647 134"><path fill="#FFF" d="M627.5 97c-10.3 0-18.7 8.2-18.7 18.3 0 10.1 8.4 18.3 18.7 18.3 10.3 0 18.7-8.2 18.7-18.3-.1-10.1-8.4-18.3-18.7-18.3M525.1 107.4V.1h-11.3S495 6.9 481.5 8.3v20.3h8.5c2.7 0 3.9 1.2 3.9 3.7v75.1c0 2.6-1.6 4.1-4.1 4.3-2.2.1-7 .5-7 .5v20.3H536v-20.3s-4.8-.3-7-.5c-2.4-.2-3.9-1.6-3.9-4.3zM632.6 54.1c-1-22.6-31.7-23.7-47.7-8.4L582 37h-37v20.7h7.8c2.8 0 3.8 1.2 3.8 3.7v46c0 2.6-1.6 4.1-4.1 4.3-2.2.1-6.5.5-6.5.5v20.3h52.1v-20.3s-4.3-.3-6.5-.5c-2.5-.2-4.1-1.6-4.1-4.3V76.2c0-5.8 1.3-15.6 11.6-18.1 1.3 9.7 10.7 12.7 15.3 12.7 11.7 0 18.2-8.7 18.2-16.7zM436.2 35.7c-7.9.3-16.2 3.4-22.3 8.6V.1h-11.2s-18.3 6.5-32.4 8.2l-.5 20.3h8.9c2.7 0 3.9 1.2 4 3.7v100.1h25.6l3.7-8.2c.8.4 12.5 11.5 31.2 9.3 23.6-2.8 36-21.4 36-49.8 0-14.9-4.6-49.6-43-48zm-4.8 74.6c-4.3.3-12.4-.4-17.5-9.5V72.2c0-6.6 6.1-12.5 15.6-12.8 9.6-.4 18.1 6.2 18.1 24.7 0 25-10.9 25.8-16.2 26.2zM362.6 107.5V78.6c0-10.3-.1-21-7-29.7-6.3-8-16.6-13.8-32.4-13-10.5.5-21.6 5.4-27.8 13.7l-1 1.2-.6-.7c-6.3-9.1-16.4-15-32.2-14.2-10.5.5-21.6 5.4-27.8 13.7l-.8-12.5h-38.6v20.7l8.9.1c2.7 0 3.9 1.2 3.9 3.7V107.4c0 2.6-1.6 4.1-4.1 4.3-2.2.1-6.5.5-6.5.5v20.3h52.2v-20.3s-4.1-.3-6.5-.5c-2.5-.2-4.1-1.6-4.1-4.3V76.3c0-5.2 4.3-15.8 17.9-15.8 11 0 13.2 6.7 13.2 14.5v32.4c0 2.6-1.6 4.1-4.1 4.3-2.2.1-6.5.5-6.5.5v20.3H311v-20.3s-4.1-.3-6.5-.5c-2.5-.2-4-1.6-4-4.3h-.1V76.3c0-5.2 3.8-15.8 17.4-15.8 11 0 13.7 6.7 13.7 14.5v32.4c0 2.6-1.6 4.1-4.1 4.3-2.2.1-6.5.5-6.5.5v20.3h52.2v-20.3s-4.1-.3-6.5-.5c-2.4-.1-4-1.6-4-4.2zM177.5 107.7V37.1h-43.4v20.7h8.4c2.8 0 3.9 1.2 3.9 3.7v32.2c0 3.2-2.3 15-18.1 15.3-10.8.2-13-6.1-13-14.5V37.1h-32v59.1c0 15 6.8 38.5 38.7 37.6 10.5-.3 22.5-5.6 28.7-13.3l.3 11.9h35.6v-20.3s-2.9-.2-5-.4c-2.6 0-4.1-1.3-4.1-4zM59.2 110c-10.6.3-12.7-7.3-12.7-12.8v-38h24.7V37.1H46.6V4.3H27.2c-.3 0-.9.3-1 1-1.1 10.1-6 27.8-26.1 34.9v19h15.3v40.1c0 14.5 9 35.1 37.9 34.6 9.7-.2 20.5-4.2 22.9-7.6l-6.4-18.5c-2.4 1.2-7.1 2.2-10.6 2.2z"/></svg>