<svg xmlns="http://www.w3.org/2000/svg" viewBox="0 0 120.8 140.7"><path fill="#F47D67" d="M120.8 17.2c.3-7.9-5.9-15.5-13.7-17-4.1-.1-8.7-.5-12.3 1.9-4.7 2.7-8.2 7.6-8.7 13.1-.3 21 .4 42.1-.4 63.1-.3 6.6-.7 13.5-4.4 19.2-8.1 14.2-31.7 14.7-40.5.9-5.5-8.3-5.3-18.6-5.6-28.2V22.3c0-4 .3-8.2-1.4-12-1.7-3.6-4.5-6.9-8.2-8.6C21.2-.7 16-.2 11.3.9 4.3 3.5-.3 10.8-.1 18.3.1 41-.5 63.7 1.3 86.4c1 14.8 6.4 29.9 17.3 40.3 8.5 8 19.9 12.2 31.4 13.5 13.1 1.5 26.8.5 39-4.9 14.1-6.3 24.5-19.7 28.4-34.5 2.6-11.6 3.1-23.6 3.4-35.4-.1-16.1 0-32.2 0-48.2zM103 31.3c-7.3-.1-13.8-6.6-13.5-13.9-.2-6.1 4.2-11.8 10-13.5 8.1-2.6 17.4 4 17.8 12.5.8 7.8-6.4 15.3-14.3 14.9z"/></svg>