<svg xmlns="http://www.w3.org/2000/svg" xmlns:xlink="http://www.w3.org/1999/xlink" 	 x="0px" y="0px" viewBox="0 0 120.8 140.7" xml:space="preserve"><path fill="#F47D67" d="M120.8,17.2c0.3-7.9-5.9-15.5-13.7-17c-4.1-0.1-8.7-0.5-12.3,1.9c-4.7,2.7-8.2,7.6-8.7,13.1 	c-0.3,21,0.4,42.1-0.4,63.1c-0.3,6.6-0.7,13.5-4.4,19.2c-8.1,14.2-31.7,14.7-40.5,0.9c-5.5-8.3-5.3-18.6-5.6-28.2c0-16,0-32,0-47.9 	c0-4,0.3-8.2-1.4-12c-1.7-3.6-4.5-6.9-8.2-8.6c-4.4-2.4-9.6-1.9-14.3-0.8c-7,2.6-11.6,9.9-11.4,17.4C0.1,41-0.5,63.7,1.3,86.4 	c1,14.8,6.4,29.9,17.3,40.3c8.5,8,19.9,12.2,31.4,13.5c13.1,1.5,26.8,0.5,39-4.9c14.1-6.3,24.5-19.7,28.4-34.5 	c2.6-11.6,3.1-23.6,3.4-35.4C120.7,49.3,120.8,33.2,120.8,17.2z M103,31.3c-7.3-0.1-13.8-6.6-13.5-13.9c-0.2-6.1,4.2-11.8,10-13.5 	c8.1-2.6,17.4,4,17.8,12.5C118.1,24.2,110.9,31.7,103,31.3z"/></svg> 