<svg version="1.2" baseProfile="tiny" xmlns="http://www.w3.org/2000/svg" viewBox="0 0 166.3 167.7" overflow="scroll"><path fill="#FFF" d="M36.2 62.9c-16.7 19.2-13.5 35-13.5 35S27.3 87 38.4 75.5c5.3-5.4 9.2-7.2 11.9-7.3 3 0 4.4 2.2 4.4 4.2v38.9c0 3.8-2.5 4.7-4.8 4.6-1.9 0-3.7-.7-3.7-.7 11.4 16.5 38.6 18.9 38.6 18.9l12-12.8.3.2 11 9.3c20-11.9 29.7-34 29.7-34-8.9 9.5-14.6 11.7-18 11.6-3 0-4.2-1.8-4.2-1.8-.2-.8-.4-12.7-.5-24.5-.1-12.3 0-24.5.6-24.6C119 51.4 130 38.3 130 38.3c-20.6 4.1-31.8 17.6-31.8 17.6-3.3-2.6-10.1-2.2-10.1-2.2 3.2 1.7 6.3 6.8 6.3 11v41.4s-6.9 6.1-12.2 6.1c-3.2 0-5.1-1.7-6.2-3.1-.7-1-1-1.8-1-1.8V56.1c-.7.5-1.6.9-2.5.9-1.1 0-2.3-.6-3.1-2.2-.6-1.3-1-3.1-1-5.9 0-9.4 10.7-15.7 10.7-15.7-13.7 3.6-26.2 10.6-42.9 29.7"/><path fill="#FFF" d="M0 83.8c0 46.3 37.2 83.8 83.1 83.8 45.9 0 83.1-37.5 83.1-83.8C166.3 37.5 129.1 0 83.1 0 37.2 0 0 37.5 0 83.8m26.9 56.7c-15-15.1-23.3-35.3-23.3-56.7 0-21.4 8.3-41.5 23.3-56.7 15-15.1 35-23.5 56.2-23.5 21.2 0 41.2 8.3 56.2 23.5 15 15.1 23.3 35.3 23.3 56.7 0 21.4-8.3 41.5-23.3 56.7-15 15.1-35 23.5-56.2 23.5-21.2 0-41.2-8.3-56.2-23.5"/></svg>