<svg version="1.2" baseProfile="tiny" id="svg2" xmlns:cc="http://creativecommons.org/ns#" xmlns:dc="http://purl.org/dc/elements/1.1/" xmlns:rdf="http://www.w3.org/1999/02/22-rdf-syntax-ns#" xmlns:svg="http://www.w3.org/2000/svg" xmlns="http://www.w3.org/2000/svg" xmlns:xlink="http://www.w3.org/1999/xlink" x="0px" y="0px" viewBox="0 0 166.3 167.7" overflow="scroll" xml:space="preserve"><path id="path8" fill="#FFFFFF" d="M36.2,62.9c-16.7,19.2-13.5,35-13.5,35l0,0c0,0,4.6-10.9,15.7-22.4l0,0c5.3-5.4,9.2-7.2,11.9-7.3 l0,0c3,0,4.4,2.2,4.4,4.2l0,0v38.9c0,3.8-2.5,4.7-4.8,4.6l0,0c-1.9,0-3.7-0.7-3.7-0.7l0,0c11.4,16.5,38.6,18.9,38.6,18.9l0,0 l12-12.8l0.3,0.2l11,9.3c20-11.9,29.7-34,29.7-34l0,0c-8.9,9.5-14.6,11.7-18,11.6l0,0c-3,0-4.2-1.8-4.2-1.8l0,0 c-0.2-0.8-0.4-12.7-0.5-24.5l0,0c-0.1-12.3,0-24.5,0.6-24.6l0,0C119,51.4,130,38.3,130,38.3l0,0c-20.6,4.1-31.8,17.6-31.8,17.6l0,0 c-3.3-2.6-10.1-2.2-10.1-2.2l0,0c3.2,1.7,6.3,6.8,6.3,11l0,0v41.4c0,0-6.9,6.1-12.2,6.1l0,0c-3.2,0-5.1-1.7-6.2-3.1l0,0 c-0.7-1-1-1.8-1-1.8l0,0V56.1c-0.7,0.5-1.6,0.9-2.5,0.9l0,0c-1.1,0-2.3-0.6-3.1-2.2l0,0c-0.6-1.3-1-3.1-1-5.9l0,0 c0-9.4,10.7-15.7,10.7-15.7l0,0C65.4,36.8,52.9,43.8,36.2,62.9"/><path id="path10" fill="#FFFFFF" d="M0,83.8c0,46.3,37.2,83.8,83.1,83.8l0,0c45.9,0,83.1-37.5,83.1-83.8l0,0 C166.3,37.5,129.1,0,83.1,0l0,0C37.2,0,0,37.5,0,83.8 M26.9,140.5c-15-15.1-23.3-35.3-23.3-56.7l0,0c0-21.4,8.3-41.5,23.3-56.7l0,0 c15-15.1,35-23.5,56.2-23.5l0,0c21.2,0,41.2,8.3,56.2,23.5l0,0c15,15.1,23.3,35.3,23.3,56.7l0,0c0,21.4-8.3,41.5-23.3,56.7l0,0 c-15,15.1-35,23.5-56.2,23.5l0,0C61.9,164,41.9,155.7,26.9,140.5"/></svg> 