<svg version="1.2" baseProfile="tiny" xmlns="http://www.w3.org/2000/svg" xmlns:xlink="http://www.w3.org/1999/xlink" x="0px" y="0px" viewBox="0 0 49.4 49.4" overflow="scroll" xml:space="preserve"><g id="Layer_2"><circle fill="#FFFFFF" cx="24.7" cy="24.7" r="24.7"/></g><g id="Layer_1"><g id="_x23_00853eff"><path fill="#00853E" d="M3.4,23.7c0.5-11.2,11-21,22.3-20.3C37.7,3.9,48,16,45.7,28c-1.9,0-3.8-0.7-4.9-2.4 c-2.8-4.2-4.1-9.2-6.6-13.5c-1.8,0.3-3.6,0.6-5.4,1c0.7,4.9,3.8,9,4.9,13.7c-0.5,4.1-5.7,6.5-9.3,4.5c-3-1.1-4.2-4.3-5.3-7.1 c-1-2.9-2.1-5.7-3.7-8.4c-2.3,0-4.7,0-6.8,1.1c1.9,9.6,7.1,18.2,9.3,27.8C9.3,41.9,2.8,32.9,3.4,23.7z"/><path fill="#00853E" d="M30.7,35.7c2.2-1.2,3.9-3.2,5.8-4.8c2.7,0.6,5.4,1,8.2,1.2c-3.1,7-9.5,12.5-17.1,13.9 c-2-3-3.3-6.4-4.3-9.8C25.8,36.2,28.4,36.5,30.7,35.7z"/></g></g></svg> 