<svg version="1.2" baseProfile="tiny" xmlns="http://www.w3.org/2000/svg" viewBox="0 0 49.4 49.4" overflow="scroll"><circle fill="#FFF" cx="24.7" cy="24.7" r="24.7"/><g fill="#00853E"><path d="M3.4 23.7c.5-11.2 11-21 22.3-20.3C37.7 3.9 48 16 45.7 28c-1.9 0-3.8-.7-4.9-2.4-2.8-4.2-4.1-9.2-6.6-13.5-1.8.3-3.6.6-5.4 1 .7 4.9 3.8 9 4.9 13.7-.5 4.1-5.7 6.5-9.3 4.5-3-1.1-4.2-4.3-5.3-7.1-1-2.9-2.1-5.7-3.7-8.4-2.3 0-4.7 0-6.8 1.1 1.9 9.6 7.1 18.2 9.3 27.8-8.6-2.8-15.1-11.8-14.5-21z"/><path d="M30.7 35.7c2.2-1.2 3.9-3.2 5.8-4.8 2.7.6 5.4 1 8.2 1.2-3.1 7-9.5 12.5-17.1 13.9-2-3-3.3-6.4-4.3-9.8 2.5 0 5.1.3 7.4-.5z"/></g></svg>