<svg xmlns="http://www.w3.org/2000/svg" xmlns:xlink="http://www.w3.org/1999/xlink" x="0px" y="0px" width="154.396px" height="39.148px" viewBox="0 0 154.396 39.148" enable-background="new 0 0 154.396 39.148" xml:space="preserve"><g><g><path fill="#184D66" d="M43.483,17.816v-0.107c1.405-0.607,2.56-1.69,3.465-3.246c0.903-1.557,1.355-3.372,1.355-5.447 c0-2.861-2.006-5.447-3.579-6.654C43.012,1.049,39.762,0,36.999,0h-6.316v38.477h6.816c2.811,0,6.052-0.992,8.048-3.099 c1.804-1.903,3.741-4.86,3.741-8.386c0-2.414-0.525-4.462-1.58-6.145C46.654,19.168,45.246,18.156,43.483,17.816z M36.262,6.387 h1.641c2.717,0,4.527,1.412,4.527,4.238c0,1.521-0.332,2.715-0.994,3.582c-0.662,0.868-2.02,1.303-3.171,1.303h-2.003V6.387z M42.318,30.695c-0.732,0.931-2.192,1.396-3.483,1.396h-2.572V21.948h2.607c1.29,0,2.745,0.438,3.465,1.315 c0.72,0.876,1.08,2.084,1.08,3.623C43.415,28.496,43.048,29.766,42.318,30.695z"/><path fill="#184D66" d="M64.198,26.725c0,1.824-0.294,3.27-0.882,4.334c-0.587,1.063-1.37,1.596-2.349,1.596 c-1.981,0-2.972-1.941-2.972-5.822v-15.83h-5.442v16.581c0,7.71,1.938,10.472,6.15,10.966c2.242,0.262,4.06-1.021,5.407-4.258 h0.087v4.186h5.441V11.002h-5.441V26.725z"/><rect x="74.235" y="1.143" fill="#184D66" width="5.459" height="37.334"/><rect x="84.289" y="1.143" fill="#184D66" width="5.459" height="37.334"/><path fill="#184D66" d="M102.135,10.33c-2.486,0-4.584,1.333-6.287,3.998c-1.705,2.666-2.557,6.279-2.557,10.841 c0,4.399,0.787,7.83,2.365,10.29c1.578,2.459,3.795,3.689,6.652,3.689c2.613,0,4.74-0.68,6.375-2.039v-6.118 c-1.475,1.431-3.186,2.146-5.131,2.146c-3.053,0-4.672-1.995-4.855-5.983h11.541v-3.569c0-4.078-0.705-7.307-2.117-9.686 C106.711,11.52,104.715,10.33,102.135,10.33z M98.662,21.948c0.139-1.681,0.527-3.085,1.168-4.213 c0.639-1.126,1.396-1.689,2.271-1.689c2.049,0,3.074,1.968,3.074,5.902H98.662z"/><path fill="#184D66" d="M120.207,1.273l-5.443-0.074v9.803h-2.867v6.252h2.867v12.583c0,6.207,1.924,9.312,5.771,9.312 c1.623,0,2.838-0.332,3.645-0.993v-6.278c-0.611,0.519-1.203,0.777-1.779,0.777c-1.463,0-2.193-1.432-2.193-4.293V17.254h3.973 v-6.252h-3.973V1.273z"/><rect x="127.254" y="11.002" fill="#184D66" width="5.461" height="27.475"/><path fill="#184D66" d="M148.521,10.33c-2.488,0-4.381,1.674-5.684,5.018h-0.068v-4.346h-5.459v27.475h5.459v-15.67 c0-1.733,0.305-3.166,0.916-4.293c0.609-1.127,1.387-1.689,2.33-1.689c1.959,0,2.938,2.129,2.938,6.386v15.267h5.443V21.653 C154.396,14.105,152.438,10.33,148.521,10.33z"/><rect x="127.17" y="1.199" fill="#184D66" width="5.404" height="5.533"/></g><g><polygon fill="#184D66" points="13.249,23.768 16.01,8.611 0,8.611 0,15.918 11.553,15.918 "/><polygon fill="#184D66" points="24.146,8.611 17.35,33.018 9.773,33.018 5.872,21.512 0,21.448 0,38.477 27.155,38.477 27.155,8.611 "/></g></g></svg>