<svg xmlns="http://www.w3.org/2000/svg" xmlns:xlink="http://www.w3.org/1999/xlink" x="0px" y="0px" width="234.943px" height="64.229px" viewBox="0 0 234.943 64.229" xml:space="preserve"><g id="Layer_2"><g><path fill="#FFFFFF" d="M26.701,63.667L17.255,0.469h4.036l4.508,31.13c1.245,8.533,2.319,16.221,3.092,23.629h0.086 c0.815-7.314,2.018-15.284,3.306-23.536l4.895-31.224h3.993L30.823,63.667H26.701z"/><path fill="#FFFFFF" d="M67.877,13.037h-11.25v46.785h12.538v3.845H52.892V0.469h15.63v3.845H56.628v4.972h11.25V13.037z"/><path fill="#FFFFFF" d="M82.604,0.313C84.494,0.469,87.199,0,89.775,0c3.993,0,7.046,0.797,8.85,4.36 c1.46,2.813,1.798,2.923,1.798,7.799c0,13.678-1.375,10.326-4.423,12.576l-1.125,0.75c2.233,1.688,3.659,14.271,4.346,20.835 c0.945,8.814,1.632,14.909,2.233,17.347h-3.865c-0.472-1.875-1.116-7.22-1.932-15.097c-0.859-8.72-2.404-22.001-5.796-22.283 H86.34v37.379h-3.736V0.313z M86.34,22.099h3.821c3.993,0,6.527-1.782,6.527-9.002c0-8.158-2.705-8.721-6.656-8.814 c-1.803,0-3.091,0.375-3.692,0.75V22.099z"/><path fill="#FFFFFF" d="M118.027,0.469v63.198h-3.736V0.469H118.027z"/><path fill="#FFFFFF" d="M133.14,0.469h15.587v3.845h-11.851v6.003h10.949v3.751h-10.949v49.599h-3.736V0.469z"/><path fill="#FFFFFF" d="M166.374,0.469v63.198h-3.736V0.469H166.374z"/><path fill="#FFFFFF" d="M196.473,13.037h-11.25v46.785h12.539v3.845h-16.273V0.469h15.629v3.845h-11.895v4.972h11.25V13.037z"/><path fill="#FFFFFF" d="M211.199,1.313C213.475,0.563,216.18,0,219.143,0c5.367,0,9.189,2.719,11.723,7.876 c2.576,5.157,4.078,12.471,4.078,22.691c0,10.314-1.459,18.753-4.164,24.567c-2.705,5.907-7.17,9.095-12.795,9.095 c-2.662,0-4.896-0.281-6.785-0.75V1.313z M214.936,57.197c0.943,0.375,2.318,0.469,3.777,0.469 c7.986,0,12.324-9.752,12.324-26.817C231.08,15.94,227.215,6.47,219.314,6.47c-1.932,0-3.393,0.375-4.379,0.844V57.197z"/></g></g><g id="Layer_3"><path fill="#EE1C49" d="M27.375,20.61V0.36H0c0,0,11,1.125,17.75,6.25S27.375,20.61,27.375,20.61z"/></g></svg>