<svg xmlns="http://www.w3.org/2000/svg" width="234.943" height="64.229"><g fill="#FFF"><path d="M26.701 63.667L17.255.469h4.036l4.508 31.13c1.245 8.533 2.319 16.221 3.092 23.629h.086c.815-7.314 2.018-15.284 3.306-23.536L37.178.468h3.993L30.823 63.667h-4.122zM67.877 13.037h-11.25v46.785h12.538v3.845H52.892V.469h15.63v3.845H56.628v4.972h11.25v3.751zM82.604.313C84.494.469 87.199 0 89.775 0c3.993 0 7.046.797 8.85 4.36 1.46 2.813 1.798 2.923 1.798 7.799 0 13.678-1.375 10.326-4.423 12.576l-1.125.75c2.233 1.688 3.659 14.271 4.346 20.835.945 8.814 1.632 14.909 2.233 17.347h-3.865c-.472-1.875-1.116-7.22-1.932-15.097-.859-8.72-2.404-22.001-5.796-22.283H86.34v37.379h-3.736V.313zm3.736 21.786h3.821c3.993 0 6.527-1.782 6.527-9.002 0-8.158-2.705-8.721-6.656-8.814-1.803 0-3.091.375-3.692.75v17.066zM118.027.469v63.198h-3.736V.469h3.736zM133.14.469h15.587v3.845h-11.851v6.003h10.949v3.751h-10.949v49.599h-3.736V.469zM166.374.469v63.198h-3.736V.469h3.736zM196.473 13.037h-11.25v46.785h12.539v3.845h-16.273V.469h15.629v3.845h-11.895v4.972h11.25v3.751zM211.199 1.313C213.475.563 216.18 0 219.143 0c5.367 0 9.189 2.719 11.723 7.876 2.576 5.157 4.078 12.471 4.078 22.691 0 10.314-1.459 18.753-4.164 24.567-2.705 5.907-7.17 9.095-12.795 9.095-2.662 0-4.896-.281-6.785-.75V1.313zm3.737 55.884c.943.375 2.318.469 3.777.469 7.986 0 12.324-9.752 12.324-26.817.043-14.909-3.822-24.379-11.723-24.379-1.932 0-3.393.375-4.379.844v49.883z"/></g><path fill="#EE1C49" d="M27.375 20.61V.36H0s11 1.125 17.75 6.25 9.625 14 9.625 14z"/></svg>