<svg xmlns:svg="http://www.w3.org/2000/svg" xmlns="http://www.w3.org/2000/svg" xmlns:xlink="http://www.w3.org/1999/xlink" x="0px" y="0px" viewBox="0 0 657 374.8" xml:space="preserve"><path fill="#4C75A3" d="M585.9,258.8c-55-51.1-47.6-42.8,18.6-131.1C644.9,73.9,661,41.1,656,27c-4.8-13.4-34.5-9.9-34.5-9.9 l-98.8,0.6c0,0-7.3-1-12.8,2.3c-5.3,3.2-8.7,10.6-8.7,10.6s-15.6,41.6-36.5,77c-44,74.7-61.6,78.6-68.8,74 c-16.7-10.8-12.5-43.4-12.5-66.6c0-72.4,11-102.6-21.4-110.4c-10.7-2.6-18.6-4.3-46.1-4.6c-35.3-0.4-65.1,0.1-82,8.4 C222.7,14,214,26.2,219.3,26.9c6.5,0.9,21.3,4,29.2,14.7c10.1,13.8,9.8,44.7,9.8,44.7s5.8,85.2-13.6,95.8 c-13.3,7.3-31.6-7.6-70.8-75.3c-20.1-34.7-35.3-73.1-35.3-73.1s-2.9-7.2-8.1-11c-6.3-4.7-15.2-6.1-15.2-6.1l-93.9,0.6 c0,0-14.1,0.4-19.3,6.5c-4.6,5.5-0.4,16.7-0.4,16.7S75.3,212.3,158.5,299c76.3,79.5,163,74.2,163,74.2h39.3c0,0,11.9-1.3,17.9-7.8 c5.6-6,5.4-17.2,5.4-17.2s-0.8-52.7,23.7-60.5c24.1-7.6,55.1,50.9,87.9,73.4c24.8,17,43.7,13.3,43.7,13.3l87.7-1.2 c0,0,45.9-2.8,24.1-38.9C649.4,331.4,638.5,307.6,585.9,258.8z"/></svg> 