<svg xmlns="http://www.w3.org/2000/svg" viewBox="0 0 657 374.8"><path fill="#4C75A3" d="M585.9 258.8c-55-51.1-47.6-42.8 18.6-131.1C644.9 73.9 661 41.1 656 27c-4.8-13.4-34.5-9.9-34.5-9.9l-98.8.6s-7.3-1-12.8 2.3c-5.3 3.2-8.7 10.6-8.7 10.6s-15.6 41.6-36.5 77c-44 74.7-61.6 78.6-68.8 74-16.7-10.8-12.5-43.4-12.5-66.6 0-72.4 11-102.6-21.4-110.4C351.3 2 343.4.3 315.9 0c-35.3-.4-65.1.1-82 8.4-11.2 5.6-19.9 17.8-14.6 18.5 6.5.9 21.3 4 29.2 14.7 10.1 13.8 9.8 44.7 9.8 44.7s5.8 85.2-13.6 95.8c-13.3 7.3-31.6-7.6-70.8-75.3-20.1-34.7-35.3-73.1-35.3-73.1s-2.9-7.2-8.1-11c-6.3-4.7-15.2-6.1-15.2-6.1l-93.9.6s-14.1.4-19.3 6.5c-4.6 5.5-.4 16.7-.4 16.7S75.3 212.3 158.5 299c76.3 79.5 163 74.2 163 74.2h39.3s11.9-1.3 17.9-7.8c5.6-6 5.4-17.2 5.4-17.2s-.8-52.7 23.7-60.5c24.1-7.6 55.1 50.9 87.9 73.4 24.8 17 43.7 13.3 43.7 13.3l87.7-1.2s45.9-2.8 24.1-38.9c-1.8-2.9-12.7-26.7-65.3-75.5z"/></svg>