<svg xmlns="http://www.w3.org/2000/svg" width="100" height="97.487"><path fill-rule="evenodd" fill="#ED1C2E" d="M69.278 3.757C60.443 5.702 53.79 13.622 53.79 23.104c0 .205.049.445.056.65 13.969 2.993 21.016 12.475 21.016 24.988 0 14.055-11.412 25.453-25.362 25.453-13.949 0-26.98-11.727-26.98-29.113 0-21.227 18.058-41.138 43.793-41.77.462-.011 1.198.007 1.949.041A50.99 50.99 0 0 0 50.004 0C22.389 0 0 21.822 0 48.742c0 26.922 22.389 48.745 50.004 48.745C77.613 97.487 100 75.664 100 48.742c0-20.258-12.68-37.632-30.722-44.985z"/></svg>