<svg xmlns="http://www.w3.org/2000/svg" x="0px" y="0px" width="100px" height="97.487px" viewBox="0 0 100 97.487" xml:space="preserve"><path fill-rule="evenodd" fill="#ED1C2E" d="M69.278,3.757C60.443,5.702,53.79,13.622,53.79,23.104c0,0.205,0.049,0.445,0.056,0.65 c13.969,2.993,21.016,12.475,21.016,24.988c0,14.055-11.412,25.453-25.362,25.453c-13.949,0-26.98-11.727-26.98-29.113 c0-21.227,18.058-41.138,43.793-41.77c0.462-0.011,1.198,0.007,1.949,0.041C62.605,1.188,56.446,0,50.004,0 C22.389,0,0,21.822,0,48.742c0,26.922,22.389,48.745,50.004,48.745C77.613,97.487,100,75.664,100,48.742C100,28.484,87.32,11.11,69.278,3.757L69.278,3.757z"/></svg>