<svg version="1.2" baseProfile="tiny" xmlns="http://www.w3.org/2000/svg" viewBox="0 0 569.5 143.1"><path fill="#FFFEFE" d="M468.8 5.4c3-3.4 7.5-5.3 12.1-5.4 5.4-.1 10.9 0 16.3 0-.1 15.4.1 30.9-.1 46.3 9.3-7.8 22.1-9.4 33.9-9 14.2.5 28.8 7.5 35.4 20.6 2.3 4.5 3.3 9.5 3.2 14.5-.1 19.7 0 39.3-.1 59 .2 5.4-4.2 10.3-9.6 10.7-7.8.5-15.7.2-23.5.2V78.5c.1-4.6-1.4-9.5-4.9-12.7-4.1-3.8-10-5-15.4-5-5.1.2-10.8 1.5-14.3 5.5-3.6 3.7-4.6 9.1-4.6 14.1.1 20.4 0 40.8 0 61.2h-33.4V20.4c0-5.3 1-11.1 5-15zM166.1 16.4h34c.4 7.5-1.6 16.1 3.6 22.3 4.3 5.2 11.6 5.6 17.8 5.3 0 6.7-.1 13.4.1 20.1-7.2.1-14.3 0-21.5.1v42.3c-.2 4.1 1.7 8.3 5.5 10.2 4.9 2.3 10.6 1.7 15.8.5.3 7.1 0 14.3.1 21.4-13.7 4.8-29.5 6.6-43.1.6-8-3.5-12.2-12.3-12.2-20.7-.2-34.1 0-68.1-.1-102.1zM361 51.6c12-11.2 29-14.7 44.9-14.2 12.7.4 26.1 2.8 36.4 10.8 7.7 6.1 12.6 15.5 13.3 25.3-9.9-.1-19.8 0-29.8 0-3.5 0-7.4-1.4-9-4.7-4.4-9.6-19-10.6-25.6-3-5 5.7-6 13.5-6.5 20.7-.2 9.1 0 19.1 5.4 26.9 5.8 8.5 21.1 9 26-.7 1.7-3.4 5.1-5.6 8.9-5.7 10.2-.1 20.4 0 30.6 0-1 11.6-7.8 22.6-18 28.3-12.3 7-27 8.3-40.9 7.6-14.7-.8-29.8-6.3-39.2-18.1-8.3-9.7-10.8-22.9-10.5-35.4.1-13.6 3.5-28.4 14-37.8zM0 37.9c10.6-.3 21.3-.1 31.9-.1 4.4-.1 8.2 2.9 9.8 6.8 11.4 23.2 22.4 46.7 33.6 70 5-16 9.4-32.1 14.4-48.1 2.3-7 3.5-14.8 8.9-20.2 5.1-5.6 12.8-8 20.2-7.8 11.9.1 23.8-.2 35.7.1-.2 8.4 0 16.8-.2 25.2-7.8 0-15.6-.2-23.4.1-4 .1-8 2.5-9.2 6.4-8 24-15.8 48.1-23.7 72.2-10.4.1-20.7-.2-31.1.1-8.6-.1-15.3-6.7-19.1-13.8C31.8 98.4 16.1 68.1 0 37.9zM264.9 96.8c24.4-.1 48.8 0 73.3 0 1.1-13.4.5-28-7-39.7-6.1-9.9-17.2-15.6-28.3-17.9-13.4-2.7-27.5-2.6-40.9.3-11.1 2.3-21.9 8.4-27.9 18.2-7.6 12-8.5 26.8-7.8 40.6.8 13.6 7.2 27.3 18.7 34.9 13.4 8.9 30.2 10.5 45.9 9.4 10.9-.9 22.2-3.5 31-10.3 8.2-6 13.3-15.6 14.9-25.5h-29.7c-3.8 0-7.4 2.1-9 5.5-2.3 4.6-6.8 8.1-12 8.6-6.3.7-13.4 0-18.2-4.6-4.3-4-5.8-10.1-6.1-15.8-.2-1.6 1-3.9 3.1-3.7zm8.9-37.1c7-1.9 15-2 21.5 1.5 6.1 3.5 8.4 10.7 8.9 17.3-12.8.1-25.6 0-38.4 0-1.8.3-3.4-1.4-3.4-3.1.2-7 4.7-13.7 11.4-15.7z"/></svg>