<?xml version="1.0" encoding="utf-8"?>
<!-- Generator: Adobe Illustrator 19.1.1, SVG Export Plug-In . SVG Version: 6.00 Build 0)  -->
<svg version="1.2" baseProfile="tiny" id="Layer_1" xmlns="http://www.w3.org/2000/svg" xmlns:xlink="http://www.w3.org/1999/xlink"
	 x="0px" y="0px" viewBox="0 0 569.5 143.1" xml:space="preserve">
<path fill="#FFFEFE" d="M468.8,5.4c3-3.4,7.5-5.3,12.1-5.4c5.4-0.1,10.9,0,16.3,0c-0.1,15.4,0.1,30.9-0.1,46.3
	c9.3-7.8,22.1-9.4,33.9-9c14.2,0.5,28.8,7.5,35.4,20.6c2.3,4.5,3.3,9.5,3.2,14.5c-0.1,19.7,0,39.3-0.1,59c0.2,5.4-4.2,10.3-9.6,10.7
	c-7.8,0.5-15.7,0.2-23.5,0.2c0-21.3,0-42.5,0-63.8c0.1-4.6-1.4-9.5-4.9-12.7c-4.1-3.8-10-5-15.4-5c-5.1,0.2-10.8,1.5-14.3,5.5
	c-3.6,3.7-4.6,9.1-4.6,14.1c0.1,20.4,0,40.8,0,61.2c-11.1,0-22.3,0-33.4,0c0-40.4,0-80.8,0-121.2C463.8,15.1,464.8,9.3,468.8,5.4
	L468.8,5.4z"/>
<path fill="#FFFEFE" d="M166.1,16.4c11.3,0,22.7,0,34,0c0.4,7.5-1.6,16.1,3.6,22.3c4.3,5.2,11.6,5.6,17.8,5.3
	c0,6.7-0.1,13.4,0.1,20.1c-7.2,0.1-14.3,0-21.5,0.1c0,14.1,0,28.2,0,42.3c-0.2,4.1,1.7,8.3,5.5,10.2c4.9,2.3,10.6,1.7,15.8,0.5
	c0.3,7.1,0,14.3,0.1,21.4c-13.7,4.8-29.5,6.6-43.1,0.6c-8-3.5-12.2-12.3-12.2-20.7C166,84.4,166.2,50.4,166.1,16.4L166.1,16.4z"/>
<path fill="#FFFEFE" d="M361,51.6c12-11.2,29-14.7,44.9-14.2c12.7,0.4,26.1,2.8,36.4,10.8c7.7,6.1,12.6,15.5,13.3,25.3
	c-9.9-0.1-19.8,0-29.8,0c-3.5,0-7.4-1.4-9-4.7c-4.4-9.6-19-10.6-25.6-3c-5,5.7-6,13.5-6.5,20.7c-0.2,9.1,0,19.1,5.4,26.9
	c5.8,8.5,21.1,9,26-0.7c1.7-3.4,5.1-5.6,8.9-5.7c10.2-0.1,20.4,0,30.6,0c-1,11.6-7.8,22.6-18,28.3c-12.3,7-27,8.3-40.9,7.6
	c-14.7-0.8-29.8-6.3-39.2-18.1c-8.3-9.7-10.8-22.9-10.5-35.4C347.1,75.8,350.5,61,361,51.6L361,51.6z"/>
<path fill="#FFFEFE" d="M0,37.9c10.6-0.3,21.3-0.1,31.9-0.1c4.4-0.1,8.2,2.9,9.8,6.8c11.4,23.2,22.4,46.7,33.6,70
	c5-16,9.4-32.1,14.4-48.1c2.3-7,3.5-14.8,8.9-20.2c5.1-5.6,12.8-8,20.2-7.8c11.9,0.1,23.8-0.2,35.7,0.1c-0.2,8.4,0,16.8-0.2,25.2
	c-7.8,0-15.6-0.2-23.4,0.1c-4,0.1-8,2.5-9.2,6.4c-8,24-15.8,48.1-23.7,72.2c-10.4,0.1-20.7-0.2-31.1,0.1
	c-8.6-0.1-15.3-6.7-19.1-13.8C31.8,98.4,16.1,68.1,0,37.9L0,37.9z"/>
<path fill="#FFFEFE" d="M264.9,96.8c24.4-0.1,48.8,0,73.3,0c1.1-13.4,0.5-28-7-39.7c-6.1-9.9-17.2-15.6-28.3-17.9
	c-13.4-2.7-27.5-2.6-40.9,0.3c-11.1,2.3-21.9,8.4-27.9,18.2c-7.6,12-8.5,26.8-7.8,40.6c0.8,13.6,7.2,27.3,18.7,34.9
	c13.4,8.9,30.2,10.5,45.9,9.4c10.9-0.9,22.2-3.5,31-10.3c8.2-6,13.3-15.6,14.9-25.5c-9.9,0-19.8,0-29.7,0c-3.8,0-7.4,2.1-9,5.5
	c-2.3,4.6-6.8,8.1-12,8.6c-6.3,0.7-13.4,0-18.2-4.6c-4.3-4-5.8-10.1-6.1-15.8C261.6,98.9,262.8,96.6,264.9,96.8z M273.8,59.7
	c7-1.9,15-2,21.5,1.5c6.1,3.5,8.4,10.7,8.9,17.3c-12.8,0.1-25.6,0-38.4,0c-1.8,0.3-3.4-1.4-3.4-3.1
	C262.6,68.4,267.1,61.7,273.8,59.7z"/>
</svg>
