<svg xmlns="http://www.w3.org/2000/svg" xmlns:xlink="http://www.w3.org/1999/xlink" x="0px" y="0px" viewBox="0 0 1040.8 420.4" overflow="scroll" xml:space="preserve"><path fill="#FFFFFF" d="M533.1,1.7c0.1-0.4,0.3-1.3,0.4-1.7c1.5,2.1,0.6,5.1,1.9,7.4c5.8,13.2,16.6,23.2,27,32.7 c28.5,24.5,61,43.8,93.6,62.2c7.1,35.7-2.8,74.1-25.5,102.4c-5,6.1-10.1,12.1-16.1,17.2c8.3-9.8,16.4-20.1,21.4-32 c5.5-12.2,7.8-26.1,4.9-39.3c-1.6-7-4-14.3-9.4-19.3c-6.3-5.6-13.8-9.7-21.1-13.9c-25.8-14.5-51.4-29.4-76.6-45 c-25.5,15.9-51.5,30.9-77.7,45.6c-8.1,5-17,9.2-23,16.7c-6.4,9.6-8.2,21.6-7.4,33c1.4,15.9,9,30.6,18.5,43.2c2.8,3.8,6,7.1,8.8,10.9 c-17.9-16.3-31.8-37.3-38.6-60.6c-5.6-19.1-6.9-39.6-2.9-59.2c19.5-10.8,38.6-22.1,57.1-34.6c17.2-11.8,34.2-24.2,48.7-39.3 c5-5.4,9.8-11.2,13.3-17.8c1.2-2.5,2.5-5.1,2.5-7.9L533.1,1.7L533.1,1.7z"/><path fill="#FFFFFF" d="M526,106.3c3.5-4.2,7.2-8.7,7.7-14.3c0.7,5.5,4.1,10,7.6,14.1c9.5,10.6,21.1,19.1,32.8,27.1 c13.1,8.7,26.7,16.6,40.5,24c2.3,21-1.6,43.2-13.2,61.2c-4.1,6.2-8.9,12.1-14.8,16.6c9.8-10.3,17.5-23.6,17.8-38.1 c-0.2-7.9-2-16.3-7.9-22c-6-5.7-13.6-9.1-20.7-13.1c-14.6-7.7-28.7-16.4-42.3-25.6c-15,10.5-30.9,19.7-47,28.3 c-7,4-14.9,7.8-19.3,14.9c-4.6,8-5.3,17.8-3.2,26.6c2.5,11.1,9,20.8,16.6,29c-22.5-18.4-31.3-49.6-27.9-77.8 c16.3-8.7,32.4-18.1,47.5-28.8C509.5,121.7,518.5,114.7,526,106.3L526,106.3z"/><path fill="#FFFFFF" d="M343.2,155.5c18.2-3.9,35-12.4,50.7-22.3c1,7.8,2.4,15.6,5.3,23c-13.4,5.9-26.3,13.2-38.3,21.6 c4.8,17.3,11.1,34.3,19.7,50.1c6.8,12.2,14.9,24.9,27.7,31.6c-10.6-2.5-21.2-5-32-6.2c-10.1-22.3-19.9-44.8-31.5-66.4 c-6.8-12.1-14.4-25.1-27.4-31.4C325.9,157.8,334.7,157.3,343.2,155.5L343.2,155.5z"/><path fill="#FFFFFF" d="M673.6,133.2c13.8,8.7,28.4,16.2,44.2,20.7c10.5,2.9,21.7,4.5,32.3,1.5c-13.2,6.4-20.8,19.6-27.7,31.9 c-11.4,21.5-21.2,43.7-31.1,65.9c-10.8,1.3-21.5,3.6-32,6.3c12.5-6.7,20.6-18.9,27.4-30.9c8.6-16.1,15.2-33.2,20-50.8 c-12-8.4-24.9-15.7-38.3-21.6C671.3,148.8,672.6,141,673.6,133.2L673.6,133.2z"/><path fill="#FFFFFF" d="M533.7,153.7c1,5,4.8,8.6,8.2,12.1c13,12.1,28.1,21.8,43.8,30.2c0.2,0.2,0.7,0.6,0.9,0.8 c2.6,18.6-3.4,39-18,51.4c4.8-6,9.3-12.5,10.9-20.2c1.4-6.8,0.3-14.8-5.1-19.7c-4-3.6-9-5.7-13.7-8.2c-9.5-4.9-18.5-10.5-26.9-17.1 c-8.4,6.5-17.4,12.2-26.8,17c-4.9,2.6-10.2,4.9-14.4,8.7c-5.3,5.5-6,13.9-4.1,21c1.8,7,6,12.9,10.5,18.4 c-14.7-12.3-20.6-32.8-18.1-51.5c15.2-8.2,30-17.4,42.8-29C527.6,163.5,532.6,159.6,533.7,153.7L533.7,153.7z"/><path fill="#FFFFFF" d="M375.9,182.8c10.5,2.3,21.1-1.7,30.6-6c2.2,3.8,4.9,7.2,8,10.1c-4.5,2.5-9.1,5-13.4,7.8 c5.6,14.6,12.8,28.9,22.9,41c1.6,2.2,4.3,3.7,5.5,6.2c-6.7-2.6-13.9-3.4-20.9-4.9c-5.4-10.4-10.2-21.2-15.5-31.7 C388.7,197,384,188.1,375.9,182.8L375.9,182.8z"/><path fill="#FFFFFF" d="M661.2,176.8c9.4,4.4,20,8.3,30.6,6c-6.4,4-10.5,10.5-14.2,16.8c-6.8,12.2-12,25.1-18.6,37.4 c-7,1.3-13.9,2.8-20.9,4.4c13.3-12.8,21.8-29.7,28.4-46.7c-4.4-2.7-8.9-5.3-13.4-7.7C656.2,183.9,658.9,180.5,661.2,176.8 L661.2,176.8z"/><path fill="#FFFFFF" d="M0,282.1c15.4,0,30.8,0,46.3,0c-5.1,2.1-10,4.7-14.2,8.4c11.9,24.8,23.6,49.7,35.5,74.5 c14.5-26.8,28.9-53.6,43.4-80.4c14.2,26.7,28.4,53.4,42.5,80c11.8-25.2,23.4-50.6,35.2-75.8c-3.7-2.8-7.9-4.9-12.2-6.6 c15.1,0,30.3,0,45.4,0c-23.3,45.3-46.5,90.7-69.6,136c-13.9-25.3-27.8-50.6-41.7-76c-13.2,25.2-26,50.7-39.2,75.9 C47.7,372.6,23.8,327.4,0,282.1L0,282.1z"/><path fill="#FFFFFF" d="M307.8,282.1c19.3,0,38.7,0,58,0c13.5,0.5,27.4,4.8,37.3,14.4c9.2,9,13.6,22.4,11.9,35.2 c-1.2,9.2-5.4,18-12,24.4c-6.2,6.4-14.6,10.1-23.2,11.8c9.3,12.6,18.6,25.3,27.9,37.9c4.6,6.3,11.3,10.4,17.9,14.2 c-12.2,0.1-24.4,0-36.6,0.1c-17.3-23.4-34.7-46.8-52-70.3c10.3,0,20.7,0.1,31,0c6-0.1,11.7-3.7,14.8-8.8c4.9-8,5.5-18.8,0.8-27.1 c-2.9-5.3-8.8-8.6-14.8-8.6c-12,0-24,0-36,0c0,38.3,0,76.7,0,115c-8.2-16.4-16.2-32.9-24.4-49.4c-0.7-1.3-0.6-2.8-0.6-4.2 C307.8,338.6,307.8,310.3,307.8,282.1L307.8,282.1z"/><path fill="#FFFFFF" d="M431.3,282.1c32.3,0,64.5,0,96.8,0c0,7.7,0,15.3,0,23c-23.8,0-47.5,0-71.3,0c0,13.3,0,26.5,0,39.8 c15.9,0,31.8,0,47.8,0c0.8-2.1,1.7-4.2,2.5-6.2c4.5,9.7,9.3,19.3,13.8,29c-21.4,0-42.7,0-64.1,0c0,14.9,0,29.7,0,44.5 c4.1,3.4,8.8,5.8,13.7,7.9c-13,0.1-26.1,0-39.1,0.1C431.3,374.1,431.3,328.1,431.3,282.1L431.3,282.1z"/><path fill="#FFFFFF" d="M542.5,282.1c15.8,0,31.5,0,47.3,0c6,0.1,12-0.3,17.9,0.6c13.4,1.7,26.8,7.9,34.7,19.2 c9,12.4,10,29.8,3.1,43.4c-5.9,12.1-18,20.3-31,22.6c9.2,12.5,18.4,25,27.6,37.6c4.7,6.4,11.5,10.6,18.2,14.6 c-12.2,0.1-24.4,0-36.6,0c-17.3-23.4-34.6-46.9-52-70.3c10,0,20.1,0,30.2,0c5.4,0,10.8-2.4,14.2-6.7c6.6-8.4,7.6-21.1,1.7-30.2 c-3.2-4.9-9-7.8-14.8-7.6c-11.8,0-23.5,0-35.3,0c0,35.5,0,71,0,106.6c4,3.6,9,5.9,13.9,8.1c-13,0.1-25.9,0-38.9,0.1 C542.5,374.1,542.5,328.1,542.5,282.1L542.5,282.1z"/><path fill="#FFFFFF" d="M924.1,282c38.9,0.2,77.8,0,116.7,0.1c0,7.5,0,15,0,22.5c-25.8,0-51.5,0-77.2,0c0,11.9,0,23.8,0,35.7 c21.6,0,43.2,0,64.7,0c-4.6,9.3-8.8,18.7-13.7,27.8c-0.6-2-1.2-4-1.8-6.1c-16.4,0-32.9,0-49.3,0c0,12.3,0,24.5,0,36.8 c25.8,0,51.5,0,77.2,0c0,7.1,0,14.2,0,21.3c-34.6,0-69.2,0-103.8,0c0-43.6,0-87.2,0-130.7C933.2,286.2,928.7,283.9,924.1,282 L924.1,282z"/><path fill="#FFFFFF" d="M742.8,337c9.6-17.7,19.3-35.4,29-53c13.9,25.7,27.8,51.5,41.8,77.1c14-25.5,27.4-51.4,41.2-77.1 c24,45.3,47.9,90.7,71.8,136c-16.3,0-32.7,0-49,0c4.9-2.1,9.8-4.5,13.9-8c-11.8-24.7-23.7-49.3-35.4-74.1 c-14.5,26.7-28.8,53.6-43.5,80.2c-14.4-26.8-28.6-53.7-42.9-80.5c-4.7,10-9.4,20.1-14.1,30.1C751.4,357.5,746.7,347.4,742.8,337 L742.8,337z"/><path fill="#FFFFFF" d="M174.6,420c23-45.3,46-90.6,69.2-135.8c23.8,45.3,47.6,90.5,71.3,135.8c-15.9-0.1-31.7,0.1-47.6-0.1 c4.6-2.3,9.3-4.5,13.3-7.9c-12.4-25.7-24.8-51.4-37.1-77c-12.5,25.6-25.1,51.2-37.6,76.8c3.9,3.5,8.7,5.6,13.2,8.1 C204.4,420.2,189.5,420,174.6,420L174.6,420z"/><path fill="#FFFFFF" d="M692.3,284c24,45.3,48,90.6,72,135.9c-0.9-0.1-2.6-0.2-3.4-0.2c-2.7,0.4-5.4,0.3-8,0.3 c-12.7-0.1-25.3,0.1-38-0.1c5-2.3,10.1-4.6,14.2-8.4c-12.3-25.3-24.7-50.5-36.9-75.9c-10.1,21.1-19.9,42.4-29.9,63.5 c-5.7-7.8-11.5-15.4-17.2-23.2C660.9,345.4,676.6,314.7,692.3,284L692.3,284z"/></svg> 