<svg xmlns="http://www.w3.org/2000/svg" viewBox="0 0 1040.8 420.4" overflow="scroll"><path fill="#FFF" d="M533.1 1.7c.1-.4.3-1.3.4-1.7 1.5 2.1.6 5.1 1.9 7.4 5.8 13.2 16.6 23.2 27 32.7 28.5 24.5 61 43.8 93.6 62.2 7.1 35.7-2.8 74.1-25.5 102.4-5 6.1-10.1 12.1-16.1 17.2 8.3-9.8 16.4-20.1 21.4-32 5.5-12.2 7.8-26.1 4.9-39.3-1.6-7-4-14.3-9.4-19.3-6.3-5.6-13.8-9.7-21.1-13.9-25.8-14.5-51.4-29.4-76.6-45-25.5 15.9-51.5 30.9-77.7 45.6-8.1 5-17 9.2-23 16.7-6.4 9.6-8.2 21.6-7.4 33 1.4 15.9 9 30.6 18.5 43.2 2.8 3.8 6 7.1 8.8 10.9-17.9-16.3-31.8-37.3-38.6-60.6-5.6-19.1-6.9-39.6-2.9-59.2 19.5-10.8 38.6-22.1 57.1-34.6 17.2-11.8 34.2-24.2 48.7-39.3 5-5.4 9.8-11.2 13.3-17.8 1.2-2.5 2.5-5.1 2.5-7.9l.2-.7z"/><path fill="#FFF" d="M526 106.3c3.5-4.2 7.2-8.7 7.7-14.3.7 5.5 4.1 10 7.6 14.1 9.5 10.6 21.1 19.1 32.8 27.1 13.1 8.7 26.7 16.6 40.5 24 2.3 21-1.6 43.2-13.2 61.2-4.1 6.2-8.9 12.1-14.8 16.6 9.8-10.3 17.5-23.6 17.8-38.1-.2-7.9-2-16.3-7.9-22-6-5.7-13.6-9.1-20.7-13.1-14.6-7.7-28.7-16.4-42.3-25.6-15 10.5-30.9 19.7-47 28.3-7 4-14.9 7.8-19.3 14.9-4.6 8-5.3 17.8-3.2 26.6 2.5 11.1 9 20.8 16.6 29-22.5-18.4-31.3-49.6-27.9-77.8 16.3-8.7 32.4-18.1 47.5-28.8 9.3-6.7 18.3-13.7 25.8-22.1zM343.2 155.5c18.2-3.9 35-12.4 50.7-22.3 1 7.8 2.4 15.6 5.3 23-13.4 5.9-26.3 13.2-38.3 21.6 4.8 17.3 11.1 34.3 19.7 50.1 6.8 12.2 14.9 24.9 27.7 31.6-10.6-2.5-21.2-5-32-6.2-10.1-22.3-19.9-44.8-31.5-66.4-6.8-12.1-14.4-25.1-27.4-31.4 8.5 2.3 17.3 1.8 25.8 0zM673.6 133.2c13.8 8.7 28.4 16.2 44.2 20.7 10.5 2.9 21.7 4.5 32.3 1.5-13.2 6.4-20.8 19.6-27.7 31.9-11.4 21.5-21.2 43.7-31.1 65.9-10.8 1.3-21.5 3.6-32 6.3 12.5-6.7 20.6-18.9 27.4-30.9 8.6-16.1 15.2-33.2 20-50.8-12-8.4-24.9-15.7-38.3-21.6 2.9-7.4 4.2-15.2 5.2-23z"/><path fill="#FFF" d="M533.7 153.7c1 5 4.8 8.6 8.2 12.1 13 12.1 28.1 21.8 43.8 30.2.2.2.7.6.9.8 2.6 18.6-3.4 39-18 51.4 4.8-6 9.3-12.5 10.9-20.2 1.4-6.8.3-14.8-5.1-19.7-4-3.6-9-5.7-13.7-8.2-9.5-4.9-18.5-10.5-26.9-17.1-8.4 6.5-17.4 12.2-26.8 17-4.9 2.6-10.2 4.9-14.4 8.7-5.3 5.5-6 13.9-4.1 21 1.8 7 6 12.9 10.5 18.4-14.7-12.3-20.6-32.8-18.1-51.5 15.2-8.2 30-17.4 42.8-29 3.9-4.1 8.9-8 10-13.9zM375.9 182.8c10.5 2.3 21.1-1.7 30.6-6 2.2 3.8 4.9 7.2 8 10.1-4.5 2.5-9.1 5-13.4 7.8 5.6 14.6 12.8 28.9 22.9 41 1.6 2.2 4.3 3.7 5.5 6.2-6.7-2.6-13.9-3.4-20.9-4.9-5.4-10.4-10.2-21.2-15.5-31.7-4.4-8.3-9.1-17.2-17.2-22.5zM661.2 176.8c9.4 4.4 20 8.3 30.6 6-6.4 4-10.5 10.5-14.2 16.8-6.8 12.2-12 25.1-18.6 37.4-7 1.3-13.9 2.8-20.9 4.4 13.3-12.8 21.8-29.7 28.4-46.7-4.4-2.7-8.9-5.3-13.4-7.7 3.1-3.1 5.8-6.5 8.1-10.2zM0 282.1h46.3c-5.1 2.1-10 4.7-14.2 8.4C44 315.3 55.7 340.2 67.6 365c14.5-26.8 28.9-53.6 43.4-80.4 14.2 26.7 28.4 53.4 42.5 80 11.8-25.2 23.4-50.6 35.2-75.8-3.7-2.8-7.9-4.9-12.2-6.6h45.4c-23.3 45.3-46.5 90.7-69.6 136-13.9-25.3-27.8-50.6-41.7-76-13.2 25.2-26 50.7-39.2 75.9-23.7-45.5-47.6-90.7-71.4-136zM307.8 282.1h58c13.5.5 27.4 4.8 37.3 14.4 9.2 9 13.6 22.4 11.9 35.2-1.2 9.2-5.4 18-12 24.4-6.2 6.4-14.6 10.1-23.2 11.8 9.3 12.6 18.6 25.3 27.9 37.9 4.6 6.3 11.3 10.4 17.9 14.2-12.2.1-24.4 0-36.6.1-17.3-23.4-34.7-46.8-52-70.3 10.3 0 20.7.1 31 0 6-.1 11.7-3.7 14.8-8.8 4.9-8 5.5-18.8.8-27.1-2.9-5.3-8.8-8.6-14.8-8.6h-36v115c-8.2-16.4-16.2-32.9-24.4-49.4-.7-1.3-.6-2.8-.6-4.2v-84.6zM431.3 282.1h96.8v23h-71.3v39.8h47.8c.8-2.1 1.7-4.2 2.5-6.2 4.5 9.7 9.3 19.3 13.8 29h-64.1v44.5c4.1 3.4 8.8 5.8 13.7 7.9-13 .1-26.1 0-39.1.1-.1-46.1-.1-92.1-.1-138.1zM542.5 282.1h47.3c6 .1 12-.3 17.9.6 13.4 1.7 26.8 7.9 34.7 19.2 9 12.4 10 29.8 3.1 43.4-5.9 12.1-18 20.3-31 22.6 9.2 12.5 18.4 25 27.6 37.6 4.7 6.4 11.5 10.6 18.2 14.6-12.2.1-24.4 0-36.6 0-17.3-23.4-34.6-46.9-52-70.3h30.2c5.4 0 10.8-2.4 14.2-6.7 6.6-8.4 7.6-21.1 1.7-30.2-3.2-4.9-9-7.8-14.8-7.6h-35.3v106.6c4 3.6 9 5.9 13.9 8.1-13 .1-25.9 0-38.9.1-.2-46-.2-92-.2-138zM924.1 282c38.9.2 77.8 0 116.7.1v22.5h-77.2v35.7h64.7c-4.6 9.3-8.8 18.7-13.7 27.8-.6-2-1.2-4-1.8-6.1h-49.3v36.8h77.2v21.3H936.9V289.4c-3.7-3.2-8.2-5.5-12.8-7.4zM742.8 337c9.6-17.7 19.3-35.4 29-53 13.9 25.7 27.8 51.5 41.8 77.1 14-25.5 27.4-51.4 41.2-77.1 24 45.3 47.9 90.7 71.8 136h-49c4.9-2.1 9.8-4.5 13.9-8-11.8-24.7-23.7-49.3-35.4-74.1-14.5 26.7-28.8 53.6-43.5 80.2-14.4-26.8-28.6-53.7-42.9-80.5-4.7 10-9.4 20.1-14.1 30.1-4.2-10.2-8.9-20.3-12.8-30.7zM174.6 420c23-45.3 46-90.6 69.2-135.8 23.8 45.3 47.6 90.5 71.3 135.8-15.9-.1-31.7.1-47.6-.1 4.6-2.3 9.3-4.5 13.3-7.9-12.4-25.7-24.8-51.4-37.1-77-12.5 25.6-25.1 51.2-37.6 76.8 3.9 3.5 8.7 5.6 13.2 8.1-14.9.3-29.8.1-44.7.1z"/><path fill="#FFF" d="M692.3 284l72 135.9c-.9-.1-2.6-.2-3.4-.2-2.7.4-5.4.3-8 .3-12.7-.1-25.3.1-38-.1 5-2.3 10.1-4.6 14.2-8.4-12.3-25.3-24.7-50.5-36.9-75.9-10.1 21.1-19.9 42.4-29.9 63.5-5.7-7.8-11.5-15.4-17.2-23.2 15.8-30.5 31.5-61.2 47.2-91.9z"/></svg>