<svg xmlns="http://www.w3.org/2000/svg" viewBox="0 0 519.5 116.6"><path fill="#73CB0B" d="M396.9 7.8c3.3-.6 6.8-.1 10.1-.3.9 3 1.7 6 2.4 9-2.2-.5-4.4-1.2-6.5-1.8-1.1 1.9-2.2 3.8-3.2 5.7 2.3 2 4.4 4.1 6.5 6.2-1 4.3-5.8 4.1-9.3 4.8-.1 1.8-.1 3.7-.1 5.6-12.3 2.1-21.5 14.4-20.5 26.7.6 8.7 5.8 16.9 13.5 20.9 8.3 4.5 19.2 3.9 26.9-1.7 2.4-1.5 4-4 6.3-5.7 7 0 14.1-.3 21.1.2 2.7 2.2 5 4.9 7.6 7.3-1.5 3.1-3.2 6.1-5.3 9-4.3-1.3-8.6-2.5-12.9-3.7l-3.6 3.6c1.3 4.3 2.6 8.5 3.7 12.9-2.9 1.9-5.9 3.6-9 5.2-3.1-3.1-6.2-6.2-9-9.5-1.8.4-3.5.9-5.3 1.3-1.1 4.4-2.3 8.7-3.3 13-3.4.1-6.9.1-10.3 0-1.3-4.2-2-8.5-3.4-12.7-1.2-1.3-3.4-1.2-4.9-1.9-3.4 3-6 7-9.7 9.4-3.1-1.4-6.1-3.2-8.7-5.3 1.3-4.1 2.7-8.1 3.5-12.3-.9-1.5-2.2-2.6-3.3-3.8-4.3 1.1-8.6 2.4-12.8 3.7-2.1-2.8-3.8-5.9-5.4-9 3.2-3 6.4-6.1 9.6-9.1-.4-1.7-.9-3.5-1.4-5.2-4.3-1-8.7-2-12.9-3.3.1-3.4 0-6.8.1-10.3 4.3-1.1 8.6-2.1 13-3.2.4-1.6.9-3.1 1.1-4.7-2.7-3.6-6.5-6.3-9.4-9.7 1.7-3 3.4-6 5.4-8.8 3.8 1.1 7.6 2.4 11.5 3.3 2.2.6 3.3-1.9 4.8-3-1-4.4-2.4-8.6-3.6-12.9 2.8-1.8 5.5-3.8 8.7-4.9 3.8 1.9 6 6.1 9.3 8.8 1.8.5 3.6-.6 5.4-.9 1.1-4.4 1.8-8.8 3.3-12.9z"/><path fill="#FCFCFC" d="M.6 15c-.2-.9-.5-1.8-.6-2.7 6.3.2 12.6.1 19 .1 7.5 24.5 14.9 49.1 22.5 73.7 1.3-2.7 2-5.6 2.9-8.4 7-21.8 14-43.5 21.1-65.3 5.3.1 10.7 0 16 .1 7.8 24.5 15.8 49 23.7 73.5.7-1.4 1.2-2.9 1.7-4.4 6.9-23.1 14.2-46 21.1-69.1 6.4-.1 12.8 0 19.2-.1-10.8 33.5-21.6 67-32.3 100.5H96c-6.6-20.8-13.3-41.6-20-62.4-.7-2.4-1.4-4.8-2.5-7C66 66.6 58.6 89.8 51 112.9c-6.3-.1-12.6.2-18.9-.2C21.7 80.1 11.1 47.6.6 15zM154 112.7c.3-33.5-.1-66.9.2-100.4 6 .2 12 .1 18 0 .2 13.9 0 27.9.1 41.8h42.6V12.4h18.2v99.2c-.1.3-.2.9-.2 1.2-6 .2-11.9 0-17.9.1V71.3h-42.6c.1 13.8-.1 27.7.1 41.5-6.2.2-12.4.3-18.5-.1zM243.3 112.7c.3-33.4-.1-66.9.1-100.3 6.8.1 13.5 0 20.3.1 9.2 13.6 18.7 27 28 40.5.6 1.7 2 0 2.4-.8 9.1-13.3 18.4-26.6 27.6-39.8H342v100.5h-18.3v-74c-10 14.1-19.8 28.1-29.6 42.2-.5.7-1.1 1.3-1.7 1.9-10.1-14.6-20.2-29.3-30.7-43.7-.1 24.5 0 49 0 73.6-6.2-.1-12.3.3-18.4-.2zM511.3 64.2c-7.2-7-17.2-9.6-26.6-12.3-4.9-1.5-10.1-2.7-14-6.2-3.5-3.3-3-9.3.4-12.5 3.9-3.7 9.5-4.6 14.6-5 9.7-.7 19.3 2.5 27.5 7.6V18.1c-15.7-8.5-35.7-9.8-51.5-.9-.2-.6-.7-2-.9-2.6-3.7.3-8.2 3.9-11 0 .7-2.8 1.4-5.6 2.5-8.3-1.8-1.1-3.5-2.5-5.6-3.2-3.4 1.4-5.1 7.8-9.6 5.1-.8-2.8-1.5-5.5-2-8.3h-6.8c-.5 2.8-1.2 5.5-2 8.2-.7.3-2.2.8-2.9 1.1-2.2-2-4.3-4.1-6.2-6.4-2.1 1-4.1 2.1-6 3.5.8 2.2 1.7 4.4 2.2 6.7.8 2.2-1.9 4.3-3.9 3.3-2.2-.5-4.4-1.2-6.5-1.8-1.1 1.8-2.2 3.8-3.2 5.7 2.3 2 4.4 4.1 6.5 6.2-1 4.3-5.8 4.1-9.3 4.8-.1 1.8-.1 3.7-.1 5.6v1.3c2.8.7 5.6 1.4 8.3 2.1.2 1.2.4 2.3.5 3.5-1.9 1.9-3.8 3.8-5.9 5.6.7 2.2 2 4.2 3.5 6 3.3-.8 7.7-4.2 10.4-.4-.4 2.9-1.6 5.6-2.2 8.4 1.6 1.7 3.8 2.5 5.9 3.3 1.7-2.1 3.6-4 5.5-5.9 1.1.2 2.3.4 3.4.5.9 2.9 1.6 5.8 2.3 8.8h6.5c.6-2.9 1.4-5.9 2.3-8.7l3.3-.6c2 1.9 3.8 3.8 5.6 5.9 2.3-.7 4.3-1.9 6.1-3.4-1.2-2.6-1.9-5.5-2.5-8.3 1-.8 2-1.5 2.9-2.3 2.2 3.7 5.2 6.9 9 9.1 10 6.2 22.1 7.1 32.5 12.5 4.6 2.3 7.9 7.2 7 12.4-.5 5-5.3 7.9-9.7 8.9-13.7 3.1-28.7.1-39.9-8.5-.1 6.2-.1 12.4 0 18.6 7.1 4.1 15 6.9 23.1 7.8 10.3 1.4 21.2.8 30.4-4.3 7.2-3.8 13-10.8 14.1-19.1 1-9-1.1-19.2-8-25.8zm-95.1-23.7c3.4 2.7 6.6 5.8 8.6 9.7-3.9-2-7.4-5.3-8.6-9.7zm29.7-10.1c-4 1.1-7.9 2.7-12 3.2-1.7-.8-2.7-2.4-3.9-3.7 1.4-3.9 2.5-7.8 3.5-11.8 7.3 1 13.3 6.7 14.9 13.8-.6-.3-1.9-1.1-2.5-1.5z"/><path fill="#73CB0B" d="M422.9 20.9c3.1-2.1 6.9-2.7 10.6-2.6-1 4-2.1 7.9-3.5 11.8 1.2 1.3 2.2 2.9 3.9 3.7 4.1-.5 8-2.1 12-3.2.6.4 1.9 1.2 2.6 1.6.4 4.8-.5 9.9-3.8 13.6-4.6 5.9-13.1 7.4-19.9 4.6-2-3.9-5.2-7-8.6-9.7-3.1-7.1.3-15.9 6.7-19.8z"/></svg>