<svg xmlns="http://www.w3.org/2000/svg" xmlns:xlink="http://www.w3.org/1999/xlink" x="0px" y="0px" viewBox="0 0 519.5 116.6" xml:space="preserve"><path fill="#73CB0B" d="M396.9,7.8c3.3-0.6,6.8-0.1,10.1-0.3c0.9,3,1.7,6,2.4,9c-2.2-0.5-4.4-1.2-6.5-1.8c-1.1,1.9-2.2,3.8-3.2,5.7 c2.3,2,4.4,4.1,6.5,6.2c-1,4.3-5.8,4.1-9.3,4.8c-0.1,1.8-0.1,3.7-0.1,5.6c-12.3,2.1-21.5,14.4-20.5,26.7c0.6,8.7,5.8,16.9,13.5,20.9 c8.3,4.5,19.2,3.9,26.9-1.7c2.4-1.5,4-4,6.3-5.7c7,0,14.1-0.3,21.1,0.2c2.7,2.2,5,4.9,7.6,7.3c-1.5,3.1-3.2,6.1-5.3,9 c-4.3-1.3-8.6-2.5-12.9-3.7c-1.2,1.2-2.4,2.4-3.6,3.6c1.3,4.3,2.6,8.5,3.7,12.9c-2.9,1.9-5.9,3.6-9,5.2c-3.1-3.1-6.2-6.2-9-9.5 c-1.8,0.4-3.5,0.9-5.3,1.3c-1.1,4.4-2.3,8.7-3.3,13c-3.4,0.1-6.9,0.1-10.3,0c-1.3-4.2-2-8.5-3.4-12.7c-1.2-1.3-3.4-1.2-4.9-1.9 c-3.4,3-6,7-9.7,9.4c-3.1-1.4-6.1-3.2-8.7-5.3c1.3-4.1,2.7-8.1,3.5-12.3c-0.9-1.5-2.2-2.6-3.3-3.8c-4.3,1.1-8.6,2.4-12.8,3.7 c-2.1-2.8-3.8-5.9-5.4-9c3.2-3,6.4-6.1,9.6-9.1c-0.4-1.7-0.9-3.5-1.4-5.2c-4.3-1-8.7-2-12.9-3.3c0.1-3.4,0-6.8,0.1-10.3 c4.3-1.1,8.6-2.1,13-3.2c0.4-1.6,0.9-3.1,1.1-4.7c-2.7-3.6-6.5-6.3-9.4-9.7c1.7-3,3.4-6,5.4-8.8c3.8,1.1,7.6,2.4,11.5,3.3 c2.2,0.6,3.3-1.9,4.8-3c-1-4.4-2.4-8.6-3.6-12.9c2.8-1.8,5.5-3.8,8.7-4.9c3.8,1.9,6,6.1,9.3,8.8c1.8,0.5,3.6-0.6,5.4-0.9 C394.7,16.3,395.4,11.9,396.9,7.8L396.9,7.8z"/><path fill="#FCFCFC" d="M0.6,15c-0.2-0.9-0.5-1.8-0.6-2.7c6.3,0.2,12.6,0.1,19,0.1c7.5,24.5,14.9,49.1,22.5,73.7 c1.3-2.7,2-5.6,2.9-8.4c7-21.8,14-43.5,21.1-65.3c5.3,0.1,10.7,0,16,0.1c7.8,24.5,15.8,49,23.7,73.5c0.7-1.4,1.2-2.9,1.7-4.4 c6.9-23.1,14.2-46,21.1-69.1c6.4-0.1,12.8,0,19.2-0.1c-10.8,33.5-21.6,67-32.3,100.5c-6.3,0-12.6,0-18.9,0 c-6.6-20.8-13.3-41.6-20-62.4c-0.7-2.4-1.4-4.8-2.5-7c-7.5,23.1-14.9,46.3-22.5,69.4c-6.3-0.1-12.6,0.2-18.9-0.2 C21.7,80.1,11.1,47.6,0.6,15L0.6,15z"/><path fill="#FCFCFC" d="M154,112.7c0.3-33.5-0.1-66.9,0.2-100.4c6,0.2,12,0.1,18,0c0.2,13.9,0,27.9,0.1,41.8c14.2,0,28.4,0,42.6,0 c0-13.9,0-27.8,0-41.7c6.1,0,12.1,0,18.2,0c0,33.1,0,66.2,0,99.2c-0.1,0.3-0.2,0.9-0.2,1.2c-6,0.2-11.9,0-17.9,0.1 c0-13.9,0-27.7,0-41.6c-14.2,0-28.4,0-42.6,0c0.1,13.8-0.1,27.7,0.1,41.5C166.3,113,160.1,113.1,154,112.7L154,112.7z"/><path fill="#FCFCFC" d="M243.3,112.7c0.3-33.4-0.1-66.9,0.1-100.3c6.8,0.1,13.5,0,20.3,0.1c9.2,13.6,18.7,27,28,40.5 c0.6,1.7,2,0,2.4-0.8c9.1-13.3,18.4-26.6,27.6-39.8c6.8,0,13.5,0,20.3,0c0,33.5,0,67,0,100.5c-6.1,0-12.2,0-18.3,0 c0-24.7,0-49.3,0-74C313.7,53,303.9,67,294.1,81.1c-0.5,0.7-1.1,1.3-1.7,1.9c-10.1-14.6-20.2-29.3-30.7-43.7c-0.1,24.5,0,49,0,73.6 C255.5,112.8,249.4,113.2,243.3,112.7L243.3,112.7z"/><path fill="#FCFCFC" d="M511.3,64.2c-7.2-7-17.2-9.6-26.6-12.3c-4.9-1.5-10.1-2.7-14-6.2c-3.5-3.3-3-9.3,0.4-12.5 c3.9-3.7,9.5-4.6,14.6-5c9.7-0.7,19.3,2.5,27.5,7.6c0-5.9,0-11.8,0-17.7c-15.7-8.5-35.7-9.8-51.5-0.9c-0.2-0.6-0.7-2-0.9-2.6 c-3.7,0.3-8.2,3.9-11,0c0.7-2.8,1.4-5.6,2.5-8.3c-1.8-1.1-3.5-2.5-5.6-3.2c-3.4,1.4-5.1,7.8-9.6,5.1c-0.8-2.8-1.5-5.5-2-8.3 c-2.3,0-4.5,0-6.8,0c-0.5,2.8-1.2,5.5-2,8.2c-0.7,0.3-2.2,0.8-2.9,1.1c-2.2-2-4.3-4.1-6.2-6.4c-2.1,1-4.1,2.1-6,3.5 c0.8,2.2,1.7,4.4,2.2,6.7c0.8,2.2-1.9,4.3-3.9,3.3c-2.2-0.5-4.4-1.2-6.5-1.8c-1.1,1.8-2.2,3.8-3.2,5.7c2.3,2,4.4,4.1,6.5,6.2 c-1,4.3-5.8,4.1-9.3,4.8c-0.1,1.8-0.1,3.7-0.1,5.6l0,1.3c2.8,0.7,5.6,1.4,8.3,2.1c0.2,1.2,0.4,2.3,0.5,3.5c-1.9,1.9-3.8,3.8-5.9,5.6 c0.7,2.2,2,4.2,3.5,6c3.3-0.8,7.7-4.2,10.4-0.4c-0.4,2.9-1.6,5.6-2.2,8.4c1.6,1.7,3.8,2.5,5.9,3.3c1.7-2.1,3.6-4,5.5-5.9 c1.1,0.2,2.3,0.4,3.4,0.5c0.9,2.9,1.6,5.8,2.3,8.8c2.2,0,4.3,0,6.5,0c0.6-2.9,1.4-5.9,2.3-8.7c1.1-0.2,2.2-0.4,3.3-0.6 c2,1.9,3.8,3.8,5.6,5.9c2.3-0.7,4.3-1.9,6.1-3.4c-1.2-2.6-1.9-5.5-2.5-8.3c1-0.8,2-1.5,2.9-2.3c2.2,3.7,5.2,6.9,9,9.1 c10,6.2,22.1,7.1,32.5,12.5c4.6,2.3,7.9,7.2,7,12.4c-0.5,5-5.3,7.9-9.7,8.9c-13.7,3.1-28.7,0.1-39.9-8.5c-0.1,6.2-0.1,12.4,0,18.6 c7.1,4.1,15,6.9,23.1,7.8c10.3,1.4,21.2,0.8,30.4-4.3c7.2-3.8,13-10.8,14.1-19.1C520.3,81,518.2,70.8,511.3,64.2z M416.2,40.5 c3.4,2.7,6.6,5.8,8.6,9.7C420.9,48.2,417.4,44.9,416.2,40.5z M445.9,30.4c-4,1.1-7.9,2.7-12,3.2c-1.7-0.8-2.7-2.4-3.9-3.7 c1.4-3.9,2.5-7.8,3.5-11.8c7.3,1,13.3,6.7,14.9,13.8C447.8,31.6,446.5,30.8,445.9,30.4z"/><path fill="#73CB0B" d="M422.9,20.9c3.1-2.1,6.9-2.7,10.6-2.6c-1,4-2.1,7.9-3.5,11.8c1.2,1.3,2.2,2.9,3.9,3.7c4.1-0.5,8-2.1,12-3.2 c0.6,0.4,1.9,1.2,2.6,1.6c0.4,4.8-0.5,9.9-3.8,13.6c-4.6,5.9-13.1,7.4-19.9,4.6c-2-3.9-5.2-7-8.6-9.7 C413.1,33.6,416.5,24.8,422.9,20.9L422.9,20.9z"/></svg> 