<svg xmlns="http://www.w3.org/2000/svg" xmlns:xlink="http://www.w3.org/1999/xlink" x="0px" y="0px" width="177.865px" height="74.501px" viewBox="0 0 177.865 74.501" xml:space="preserve"><g> <path fill="#FFFFFF" d="M7.034,50.884L0,23.157h3.785l3.291,14.028c0.823,3.456,1.563,6.911,2.057,9.585h0.083 c0.452-2.756,1.316-6.047,2.263-9.626l3.702-13.986h3.744l3.373,14.069c0.782,3.291,1.522,6.582,1.934,9.503h0.083 c0.576-3.044,1.357-6.129,2.221-9.585l3.661-13.986h3.662l-7.857,27.727h-3.744l-3.497-14.439c-0.864-3.538-1.44-6.253-1.81-9.05 h-0.083c-0.494,2.756-1.11,5.471-2.139,9.05l-3.949,14.439H7.034z"/> <path fill="#FFFFFF" d="M40.557,25.378c0.041,1.234-0.864,2.221-2.304,2.221c-1.275,0-2.18-0.987-2.18-2.221 c0-1.275,0.946-2.263,2.262-2.263C39.693,23.116,40.557,24.103,40.557,25.378z M36.525,50.884V30.973h3.62v19.911H36.525z"/> <path fill="#FFFFFF" d="M46.15,36.362c0-2.057-0.041-3.744-0.165-5.389h3.209l0.206,3.291h0.083 c0.987-1.892,3.291-3.744,6.582-3.744c2.756,0,7.034,1.646,7.034,8.475v11.889h-3.62V39.406c0-3.208-1.193-5.883-4.607-5.883 c-2.386,0-4.237,1.687-4.854,3.703c-0.165,0.453-0.247,1.07-0.247,1.687v11.971h-3.62V36.362z"/></g><g> <path fill="#FFFFFF" d="M116.165,50.31h-1.388l-9.83-26.901h2.082l7.785,21.667c0.325,0.9,0.557,1.751,0.694,2.551h0.075 c0.124-0.638,0.381-1.501,0.769-2.589l8.273-21.63h1.988L116.165,50.31z"/> <path fill="#FFFFFF" d="M131.304,26.26c-0.375,0-0.707-0.137-0.994-0.413c-0.288-0.275-0.432-0.625-0.432-1.051 c0-0.413,0.146-0.747,0.44-1.003s0.622-0.385,0.985-0.385c0.388,0,0.729,0.125,1.022,0.375s0.44,0.588,0.44,1.013 c0,0.4-0.144,0.745-0.432,1.032C132.048,26.116,131.705,26.26,131.304,26.26z M130.459,50.31V31.1h1.727v19.21H130.459z"/> <path fill="#FFFFFF" d="M137.344,49.465v-2.082c0.65,0.563,1.438,1.007,2.364,1.332c0.925,0.326,1.726,0.488,2.401,0.488 c3.014,0,4.521-1.231,4.521-3.695c0-0.851-0.331-1.576-0.994-2.176c-0.663-0.601-1.738-1.219-3.227-1.857 c-1.839-0.8-3.13-1.629-3.874-2.485s-1.116-1.898-1.116-3.124c0-1.563,0.598-2.826,1.792-3.79c1.193-0.963,2.666-1.444,4.418-1.444 c1.65,0,3.063,0.337,4.239,1.013v1.951c-1.426-0.925-2.901-1.388-4.428-1.388c-1.263,0-2.282,0.328-3.058,0.985 s-1.163,1.51-1.163,2.561c0,0.913,0.244,1.654,0.731,2.223c0.488,0.569,1.563,1.223,3.228,1.96c2,0.9,3.376,1.735,4.127,2.504 c0.75,0.769,1.125,1.792,1.125,3.067c0,1.526-0.572,2.786-1.716,3.78c-1.145,0.994-2.724,1.491-4.737,1.491 C140.127,50.778,138.583,50.341,137.344,49.465z"/> <path fill="#FFFFFF" d="M160.849,50.047c-0.9,0.425-1.744,0.638-2.532,0.638c-2.839,0-4.259-1.701-4.259-5.103V32.676h-3.451V31.1 h3.451v-4.99c0.275-0.1,0.563-0.2,0.863-0.3c0.3-0.087,0.588-0.181,0.863-0.281V31.1h5.064v1.576h-5.064v12.681 c0,1.326,0.209,2.286,0.628,2.88c0.419,0.594,1.129,0.891,2.13,0.891c0.713,0,1.481-0.231,2.307-0.694V50.047z"/> <path fill="#FFFFFF" d="M176.139,50.31v-3.846h-0.075c-0.613,1.313-1.504,2.361-2.673,3.142c-1.17,0.782-2.468,1.172-3.893,1.172 c-1.826,0-3.271-0.512-4.334-1.538c-1.063-1.025-1.595-2.32-1.595-3.883c0-3.352,2.22-5.377,6.66-6.078l5.909-0.881 c0-4.127-1.551-6.191-4.652-6.191c-2.114,0-4.171,0.851-6.172,2.551v-2.082c0.713-0.563,1.679-1.044,2.898-1.445 c1.219-0.4,2.366-0.6,3.442-0.6c1.976,0,3.505,0.613,4.586,1.838c1.082,1.226,1.623,3.008,1.623,5.347V50.31H176.139z M170.849,40.742c-2.014,0.288-3.427,0.753-4.24,1.397c-0.813,0.645-1.219,1.692-1.219,3.143c0,1.138,0.378,2.076,1.135,2.813 c0.756,0.738,1.811,1.107,3.161,1.107c1.851,0,3.389-0.685,4.614-2.054c1.226-1.369,1.839-3.136,1.839-5.299v-1.876L170.849,40.742 z"/></g><path fill="none" stroke="#1883A0" stroke-width="8" stroke-linecap="round" stroke-linejoin="round" d="M59.048,4 c17.667,5,53.667,1.167,53.667,1.167s-37,31-46,65.334"/></svg> 