<svg xmlns="http://www.w3.org/2000/svg" width="177.865" height="74.501"><g fill="#FFF"><path d="M7.034 50.884L0 23.157h3.785l3.291 14.028c.823 3.456 1.563 6.911 2.057 9.585h.083c.452-2.756 1.316-6.047 2.263-9.626l3.702-13.986h3.744l3.373 14.069c.782 3.291 1.522 6.582 1.934 9.503h.083c.576-3.044 1.357-6.129 2.221-9.585l3.661-13.986h3.662l-7.857 27.727h-3.744l-3.497-14.439c-.864-3.538-1.44-6.253-1.81-9.05h-.083c-.494 2.756-1.11 5.471-2.139 9.05L10.78 50.886H7.034zM40.557 25.378c.041 1.234-.864 2.221-2.304 2.221-1.275 0-2.18-.987-2.18-2.221 0-1.275.946-2.263 2.262-2.263 1.358.001 2.222.988 2.222 2.263zm-4.032 25.506V30.973h3.62v19.911h-3.62zM46.15 36.362c0-2.057-.041-3.744-.165-5.389h3.209l.206 3.291h.083c.987-1.892 3.291-3.744 6.582-3.744 2.756 0 7.034 1.646 7.034 8.475v11.889h-3.62V39.406c0-3.208-1.193-5.883-4.607-5.883-2.386 0-4.237 1.687-4.854 3.703-.165.453-.247 1.07-.247 1.687v11.971h-3.62V36.362z"/></g><g fill="#FFF"><path d="M116.165 50.31h-1.388l-9.83-26.901h2.082l7.785 21.667c.325.9.557 1.751.694 2.551h.075c.124-.638.381-1.501.769-2.589l8.273-21.63h1.988L116.165 50.31zM131.304 26.26c-.375 0-.707-.137-.994-.413-.288-.275-.432-.625-.432-1.051 0-.413.146-.747.44-1.003s.622-.385.985-.385c.388 0 .729.125 1.022.375s.44.588.44 1.013c0 .4-.144.745-.432 1.032a1.395 1.395 0 0 1-1.029.432zm-.845 24.05V31.1h1.727v19.21h-1.727zM137.344 49.465v-2.082c.65.563 1.438 1.007 2.364 1.332.925.326 1.726.488 2.401.488 3.014 0 4.521-1.231 4.521-3.695 0-.851-.331-1.576-.994-2.176-.663-.601-1.738-1.219-3.227-1.857-1.839-.8-3.13-1.629-3.874-2.485s-1.116-1.898-1.116-3.124c0-1.563.598-2.826 1.792-3.79 1.193-.963 2.666-1.444 4.418-1.444 1.65 0 3.063.337 4.239 1.013v1.951c-1.426-.925-2.901-1.388-4.428-1.388-1.263 0-2.282.328-3.058.985s-1.163 1.51-1.163 2.561c0 .913.244 1.654.731 2.223.488.569 1.563 1.223 3.228 1.96 2 .9 3.376 1.735 4.127 2.504.75.769 1.125 1.792 1.125 3.067 0 1.526-.572 2.786-1.716 3.78-1.145.994-2.724 1.491-4.737 1.491-1.85-.001-3.394-.438-4.633-1.314zM160.849 50.047c-.9.425-1.744.638-2.532.638-2.839 0-4.259-1.701-4.259-5.103V32.676h-3.451V31.1h3.451v-4.99c.275-.1.563-.2.863-.3.3-.087.588-.181.863-.281V31.1h5.064v1.576h-5.064v12.681c0 1.326.209 2.286.628 2.88.419.594 1.129.891 2.13.891.713 0 1.481-.231 2.307-.694v1.613zM176.139 50.31v-3.846h-.075c-.613 1.313-1.504 2.361-2.673 3.142a6.854 6.854 0 0 1-3.893 1.172c-1.826 0-3.271-.512-4.334-1.538-1.063-1.025-1.595-2.32-1.595-3.883 0-3.352 2.22-5.377 6.66-6.078l5.909-.881c0-4.127-1.551-6.191-4.652-6.191-2.114 0-4.171.851-6.172 2.551v-2.082c.713-.563 1.679-1.044 2.898-1.445 1.219-.4 2.366-.6 3.442-.6 1.976 0 3.505.613 4.586 1.838 1.082 1.226 1.623 3.008 1.623 5.347V50.31h-1.724zm-5.29-9.568c-2.014.288-3.427.753-4.24 1.397-.813.645-1.219 1.692-1.219 3.143 0 1.138.378 2.076 1.135 2.813.756.738 1.811 1.107 3.161 1.107 1.851 0 3.389-.685 4.614-2.054 1.226-1.369 1.839-3.136 1.839-5.299v-1.876l-5.29.769z"/></g><path fill="none" stroke="#1883A0" stroke-width="8" stroke-linecap="round" stroke-linejoin="round" d="M59.048 4c17.667 5 53.667 1.167 53.667 1.167s-37 31-46 65.334"/></svg>