<?xml version="1.0" encoding="utf-8"?>
<!-- Generator: Adobe Illustrator 13.0.0, SVG Export Plug-In . SVG Version: 6.00 Build 14948)  -->
<svg version="1.2" baseProfile="tiny" id="Spades" xmlns="http://www.w3.org/2000/svg" xmlns:xlink="http://www.w3.org/1999/xlink"
	 x="0px" y="0px" width="113.8px" height="166px" viewBox="0 0 113.8 166" xml:space="preserve">
<path fill="#FFFFFF" stroke="#FFFFFF" stroke-width="5" stroke-linejoin="round" d="M111.3,159.5c0,2.2-1.8,4-4,4H6.5
	c-2.2,0-4-1.8-4-4V6.5c0-2.2,1.8-4,4-4h100.8c2.2,0,4,1.8,4,4V159.5z"/>
<g>
	<path fill="#EC1F32" stroke="#000000" stroke-width="5" d="M111.1,49.6L86.8,163.5h20.5c2.2,0,4-1.8,4-4v-110h-0.1
		C111.1,49.5,111.1,49.6,111.1,49.6z"/>
	<path fill="#369ED9" stroke="#000000" stroke-width="5" stroke-linejoin="round" d="M107.3,2.5H6.5c-2.2,0-4,1.8-4,4v31l2.3-10.6
		c0.5-2.2,2.6-3.5,4.7-3.1l98.5,21c2.1,0.5,3.5,2.5,3.1,4.6h0.1v-43C111.3,4.3,109.5,2.5,107.3,2.5z"/>
</g>
<g>
	<path fill="#010101" d="M39.7,122.8c0-2.3,0.2-4.6,0.4-6.6c1,3,3.3,5.3,6.3,5.9c4.7,1,9.5-2.7,10.6-8.1
		c2.3-11.5-9.3-22.5-11.3-32.4c-5.7,8.3-20.6,14-23,25.5c-1.1,5.4,1.8,10.6,6.6,11.6c2.9,0.6,5.8-0.6,7.9-2.8
		c-1,3.2-2.4,7.2-4.3,10.5l7.2,1.4C39.8,126.2,39.7,124.5,39.7,122.8z"/>
</g>
<g>
	<path fill="#010101" d="M14.8,49.5c0-0.8,0.1-1.6,0.1-2.3c0.4,1.1,1.2,1.9,2.2,2.1c1.7,0.3,3.3-0.9,3.7-2.9c0.8-4.1-3.3-8-4-11.5
		c-2,2.9-7.3,4.9-8.1,9c-0.4,1.9,0.7,3.8,2.3,4.1c1,0.2,2.1-0.2,2.8-1c-0.4,1.1-0.9,2.6-1.5,3.7l2.5,0.5
		C14.9,50.7,14.8,50.1,14.8,49.5z"/>
</g>
</svg>
