<svg version="1.2" baseProfile="tiny" xmlns="http://www.w3.org/2000/svg" width="113.8" height="166"><path fill="#FFF" stroke="#FFF" stroke-width="5" stroke-linejoin="round" d="M111.3 159.5c0 2.2-1.8 4-4 4H6.5c-2.2 0-4-1.8-4-4V6.5c0-2.2 1.8-4 4-4h100.8c2.2 0 4 1.8 4 4v153z"/><g stroke="#000" stroke-width="5"><path fill="#EC1F32" d="M111.1 49.6L86.8 163.5h20.5c2.2 0 4-1.8 4-4v-110h-.1c-.1 0-.1.1-.1.1z"/><path fill="#369ED9" stroke-linejoin="round" d="M107.3 2.5H6.5c-2.2 0-4 1.8-4 4v31l2.3-10.6c.5-2.2 2.6-3.5 4.7-3.1l98.5 21c2.1.5 3.5 2.5 3.1 4.6h.1v-43c.1-2.1-1.7-3.9-3.9-3.9z"/></g><path fill="#010101" d="M39.7 122.8c0-2.3.2-4.6.4-6.6 1 3 3.3 5.3 6.3 5.9 4.7 1 9.5-2.7 10.6-8.1 2.3-11.5-9.3-22.5-11.3-32.4-5.7 8.3-20.6 14-23 25.5-1.1 5.4 1.8 10.6 6.6 11.6 2.9.6 5.8-.6 7.9-2.8-1 3.2-2.4 7.2-4.3 10.5l7.2 1.4c-.3-1.6-.4-3.3-.4-5zM14.8 49.5c0-.8.1-1.6.1-2.3.4 1.1 1.2 1.9 2.2 2.1 1.7.3 3.3-.9 3.7-2.9.8-4.1-3.3-8-4-11.5-2 2.9-7.3 4.9-8.1 9-.4 1.9.7 3.8 2.3 4.1 1 .2 2.1-.2 2.8-1-.4 1.1-.9 2.6-1.5 3.7l2.5.5c.1-.5 0-1.1 0-1.7z"/></svg>