<svg version="1" id="Layer_1" xmlns="http://www.w3.org/2000/svg" width="190" height="47" viewBox="0 0 348.1 85.4"><style>.st0{fill:#303030}</style><path class="st0" d="M154.5 45.5H142v14.3h-6.7V25.6h6.7v13.9h12.5V25.6h6.7v34.2h-6.7V45.5zM185.3 52.1h-10.5l-2.6 7.6h-6.7l12.3-34.4h4.9L195 59.7h-7l-2.7-7.6zm-8.8-5.3h7.3l-2.1-7.7-1.5-5.3h-.2l-1.4 5.3-2.1 7.7zM226.4 42.2v-6.9h-.4l-2.5 5.3-6.2 13h-2.1L208 40.2l-2.6-5h-.4l.1 6.7v17.9h-5.7V25.6h6.3l8.5 14.5 2.1 3.8h.2l1.9-3.8 8-14.4h6.2v34.2h-6.2V42.2zM254.5 50.6c0-1-.4-1.9-1.1-2.5-.9-.7-1.8-1.3-2.9-1.8-1.2-.5-2.4-1.1-3.8-1.7-1.3-.6-2.6-1.3-3.8-2.1-1.2-.8-2.1-1.9-2.9-3.1-.8-1.4-1.2-3.1-1.1-4.7 0-1.5.2-3 .8-4.3.5-1.2 1.3-2.2 2.4-3.1 1.1-.8 2.3-1.5 3.6-1.8 1.5-.4 3.1-.6 4.7-.6 1.9 0 3.8.2 5.6.5 1.9.3 3.6.9 5.3 1.9l-2 5.7c-1.3-.7-2.7-1.3-4.2-1.8-1.5-.4-3.1-.6-4.6-.6-1.3-.1-2.5.2-3.6.9-.8.6-1.3 1.5-1.2 2.5 0 .9.4 1.8 1.1 2.4.9.7 1.8 1.3 2.9 1.8 1.2.6 2.4 1.1 3.8 1.7 1.3.6 2.6 1.3 3.8 2.1 1.2.8 2.1 1.9 2.9 3.1.8 1.4 1.2 3 1.1 4.6 0 1.6-.3 3.2-.9 4.7-.6 1.3-1.4 2.4-2.5 3.3-1.2.9-2.5 1.6-4 2-1.7.4-3.4.7-5.1.6-2.2 0-4.3-.2-6.4-.7-1.1-.2-2.2-.5-3.3-.9V52c.8.4 2.2.9 2.8 1.1.6.2 1.3.5 1.9.6.7.2 1.5.4 2.3.5.8.1 1.6.2 2.5.2 1.6.1 3.2-.3 4.6-1 .8-.4 1.4-1.6 1.3-2.8zM291.5 31.5h-10v28.2h-6.7V31.5h-10.1l2.1-6h24.6l.1 6zM296.2 25.6h20.3v6h-13.6v8h9.1v6h-9.1V54h13.6v6h-20.3V25.6zM323.8 25.9c.7-.1 1.6-.3 2.4-.4s1.7-.2 2.6-.3c.9-.1.6-.1 1.4-.1h2.2c1.9 0 3.9.1 5.8.4 1.5.3 2.9.8 4.2 1.5 1.2.7 2.2 1.7 2.9 3 .8 1.4 1.2 3.1 1.1 4.7.1 2.4-.6 4.8-2 6.8-1.3 1.5-3.1 2.6-5 3.1.9.7 1.8 1.6 2.4 2.6.5 1 6.2 12.5 6.2 12.5h-7.5l-6.8-14h-3.4v14h-6.7V25.9zm10.2 5.2h-2c-.5 0-1 .1-1.5.2v9.9h2.8c1.6.1 3.1-.4 4.4-1.3 1.2-1.1 1.8-2.6 1.7-4.2.1-1.3-.4-2.6-1.4-3.4-1.1-.9-2.5-1.3-4-1.2z"/><path d="M122.1 59.8l-6.9-11.3-6.8 11.3h-7.7L111 42.7l-10.2-17.1h7.7l6.8 11 6.8-11h7.7l-10.2 17.1 10.2 17.1h-7.7z" fill="#e2454a"/><path class="st0" d="M91.4 41.2c-2.3-5.2-5.1-6.9-8.6-9.5-1.3-.8-2.4-1.8-3.3-2.9-.4-.6-.6-1.3-.6-2.1 0-.9.2-1.8.5-2.6 1.2-3.5 1.9-7.1 1.9-10.8.1-5.1-2-13.3-8.4-13.3-.9 0-1.8.1-2.6.4-1.5.6-2.7 1.5-3.7 2.7-1.3 1.4-5 7.1-6.3 7.6-.3.1-.6.1-.8 0-4.3-1.4-8.7-2.2-13.3-2.2-4.5 0-9 .8-13.3 2.2-.3.1-.6.1-.8 0-1.3-.5-5-6.2-6.3-7.6-1-1.2-2.3-2.1-3.7-2.7-.9-.3-1.8-.4-2.7-.4-6.4 0-8.5 8.2-8.5 13.3 0 3.7.7 7.3 1.9 10.8.3.9.5 1.7.5 2.6 0 .7-.2 1.4-.6 2.1-.9 1.2-2 2.2-3.3 2.9C6 34.3 3.2 36 .9 41.2c-.6 1.6-.9 3.2-.9 4.9 0 2.8 1 5.2 2.5 8.1 3.2 6.5 9.7 14 14.1 17.8 8.5 7.5 19.2 12.8 28.5 13.3h2c9.3-.6 20-5.9 28.5-13.3 4.4-3.9 10.9-11.3 14.1-17.8 1.4-2.9 2.5-5.3 2.5-8.1.1-1.7-.2-3.3-.8-4.9zM68.9 12.6c1.3-1.5 4.3-3.5 6.2-2.2 2.2 1.3 1.9 6.1 1.5 8.3-.3 1.4-.7 2.8-1.3 4.1-.5 1.1-.9 2.2-1.4 3.5-2.3-1.6-4.3-3.7-5.9-6-1.6-2.7-1.1-5.5.9-7.7zm-5.2 11.1c2.6 1.5 4.2 4.2 4.4 7.2.1 1.1-.2 2.2-.9 3.1-.4.5-1 .7-1.7.8 1.5-2 1.4-4.7-.2-6.6-.9-1.2-2.3-1.9-3.8-2-3.6-.1-6 2.7-6 6.2-.4-.6-.7-1.2-1-1.9-.8-2.3-.5-5.2 1.2-6.8 2.2-1.6 5.9-1.2 8 0zm-28.5-9.5c.4-.5 1-.9 1.6-1 3-.8 6.1-1.3 9.1-1.3h.4c3.1 0 6.2.5 9.1 1.3.6.1 1.2.5 1.6 1 .1.3.1.5 0 .8-.8 1-1.8 1.9-2.8 2.6-3.3 2.7-5.4 4.8-6.5 9.2-.6 2.2-.5 4.5.2 6.7 1.1 3.5 3.7 5.6 4.9 8.8.7 1.5.8 3.2.2 4.8-1.1 2.3-4.4 2.7-6.6 2.7H46c-2.3 0-5.5-.4-6.6-2.7-.6-1.5-.5-3.3.2-4.8 1.2-3.2 3.7-5.3 4.9-8.8.7-2.2.8-4.5.2-6.7-1.1-4.3-3.2-6.5-6.5-9.2-1-.8-2-1.7-2.8-2.6-.3-.2-.3-.5-.2-.8zm-6.7 9.5c2.1-1.3 5.8-1.6 7.8.1 1.8 1.5 2 4.4 1.2 6.8-.2.7-.5 1.3-1 1.9 0-3.5-2.4-6.4-6-6.2-1.5.1-2.9.8-3.8 2-1.6 1.9-1.7 4.6-.2 6.6-.6 0-1.2-.3-1.7-.8-.7-.9-1-2-.9-3.1.4-3 2.1-5.7 4.6-7.3zM17.1 10.3c2-1.2 5 .8 6.2 2.2 2 2.3 2.5 5.1.9 7.7-1.6 2.3-3.6 4.4-5.9 6-.5-1.3-.9-2.5-1.4-3.5-.6-1.3-1-2.7-1.3-4.1-.4-2.2-.7-6.9 1.5-8.3zm70.4 37.9c-1.4 4-5.9 10.3-9.4 14.7-3.7 4.6-8.3 8.6-13.3 11.7-5.1 3.1-12.5 6.1-18.6 6.3-6.1-.2-13.5-3.2-18.6-6.3-5.1-3.1-9.6-7-13.3-11.7-3.6-4.4-8-10.7-9.4-14.7-.6-1.6-.6-3.4 0-5C6 40.3 8 37.8 10.6 36c.7-.6 1.6-.9 2.5-.9 2 .3 3.1 3.1 3.9 4.7-.5.5-1.1 1-1.7 1.6-3.4 3.7-2.9 8.5-.8 13 2.9 6 8.6 12 13.5 16.4-3.5-8.3-2.2-19 6.4-23.9-.9 10.3 22.8 12.1 23.6-.1 8.5 4.8 9.9 15.5 6.4 23.9 5-4.3 10.7-10.3 13.6-16.4 2.1-4.6 2.6-9.3-.8-13-.5-.6-1.1-1-1.7-1.6.8-1.6 1.9-4.4 3.9-4.7.9 0 1.8.3 2.5.9 2.6 1.8 4.6 4.3 5.7 7.2.5 1.7.5 3.5-.1 5.1z"/><path class="st0" d="M54.2 62c-1 .3-2 .4-3 .4-1.6 0-3-.9-3.8-2.3-.1-.3-.4-.3-1.2-.3h-.4c-.8 0-1 0-1.2.3-.7 1.4-2.2 2.3-3.8 2.3-1 .1-2-.1-3-.4-3.4-1.1-3.6-1.5-7.4-1.5 3.5 8.1 9.1 14.2 15.4 14.2h.2c6.3 0 11.8-6 15.4-14.2-3.6 0-3.8.4-7.2 1.5zm-9 11.1c-.7-.1-1.3-.2-1.9-.4-.6-.1-1.1-.4-1.6-.7-.3-.2-.5-.5-.6-.8-.9-2.1-1.7-4.4-2.3-6.6 2.3.3 4.6-.3 6.5-1.5l-.1 10zm6-2c-.1.3-.4.6-.6.8-.5.3-1.1.6-1.6.7-.6.2-1.3.4-1.9.4V63c1.9 1.3 4.2 1.8 6.5 1.5-.7 2.3-1.4 4.5-2.4 6.6z"/></svg>