<svg xmlns="http://www.w3.org/2000/svg" width="100" height="57.729"><path fill-rule="evenodd" fill="#63246B" d="M37.69 1.021C16.875 1.021 0 13.716 0 29.375s16.875 28.354 37.69 28.354c20.816 0 37.69-12.694 37.69-28.354S58.506 1.021 37.69 1.021zm21.799 21.317c-.809.081-4.181.836-5.314 1.079-1.213.322-12.3 8.887-13.028 10.992-.162.728-.243 1.848-.243 2.899l-.081 1.699c0 1.215.336 3.169.499 4.222.729.161 6.003.021 6.975.182l-.12 2.174c-.949-.067-7.647-.052-11.475-.052-1.942 0-8.187.215-10.105.155l.362-2.068c1.052-.081 5.409.188 6.367-.822.475-.501.323-1.039.323-3.953v-1.376c0-.646 0-1.859-.161-2.992-.405-1.215-10.17-13.407-12.679-15.35-.729-.242-5.293-.698-6.426-.94l-.057-1.865c.565-.283 5.642.069 10.567-.113 3.237-.12 10.623 0 11.534.108l-.233 1.644c-.972.243-5.648.332-6.861.655 3.156 4.693 8.146 10.736 9.765 13.084.889-1.295 8.713-6.678 8.956-8.538-1.214-.243-5.233-.823-5.881-.823l-.385-2.118c1.103-.173 6.896 0 9.775 0 2.486 0 7.798 0 9.308.124l-1.382 1.993zM89.847 41.146l-7.2-.696c.755-3.641.097-31.593.038-34.574L82.316 0c2.004.397 1.701.191 10.165 1.081 5.152.54 5.823.771 7.519.837l-2.211 6.963c-1.888 5.57-7.362 30.407-7.942 32.265zm-4.971 14.766l-3.858-.333-.042-8.357 4.886.611 4.378.203-1.216 8.182-4.148-.306z"/></svg>