<svg xmlns="http://www.w3.org/2000/svg" width="429.556" height="169.231"><path fill="#FFF" d="M189.039 64.124c-9.83 0-20.079 7.175-20.079 7.175v-4.612c0-1.011-.405-1.416-1.415-1.416h-12.547c-1.011 0-1.619.608-1.619 1.416v98.338c0 1.014.406 1.622 1.417 1.622h12.748c.807 0 1.415-.608 1.415-1.622V80.85s5.917-3.749 13.103-3.749c6.842 0 12.244 3.396 12.244 10.36v77.563c0 1.014.606 1.622 1.619 1.622h12.544c1.012 0 1.416-.811 1.416-1.622V83.053c0-12.346-7.59-18.929-20.846-18.929zM286.631 14.797h-12.546c-1.012 0-1.619.607-1.619 1.417v49.61C267.65 63.976 263.265 63 259.721 63c-20.376 0-34.364 19.479-34.364 56.934 0 32.089 13.607 49.298 31.365 49.298 7.485 0 13.664-4.289 18.188-8.313l2.739 4.643c.462.803.84 1.078 1.768 1.078l7.215.007c.809 0 1.417-.608 1.417-1.622V16.214c-.001-1.013-.407-1.417-1.418-1.417zm-44.683 101.824c0-20.639 6.041-41.076 18.376-41.076 4.178 0 8.191 1.375 12.143 4.514v72.712c-3.09 1.681-6.979 3.231-11.179 3.231-13.413 0-19.34-15.909-19.34-39.381zM334.69 63.203c-20.893 0-31.206 27.332-31.206 57.076 0 31.133 14.708 48.583 33.618 48.583 8.313 0 16.587-3.272 22.013-6.287.831-.462.981-1.114.782-1.918l-1.587-6.578c-.198-.804-.602-1.205-1.607-1.205-.442 0-7.296 2.005-13.965 2.005-15.476 0-22.573-13.757-22.573-32.028v-4.441s7.692 1.064 12.313 1.064h29.196v-8.438c0-31.151-10.908-47.833-26.984-47.833zm-1.005 43.611c-4.621 0-13.031 1.142-13.031 1.142s.112-3.353.515-6.568c1.809-17.083 5.883-25.724 12.917-25.724 6.116 0 10.305 8.841 11.312 24.317.199 3.216.199 6.833.199 6.833h-11.912zM129.552 75.977c-4.639-9.141-12.903-13.136-22.369-13.136-6.081 0-15.571 2.325-21.91 5.174-1.24.558-2.024 1.048-2.024 2.024 0 .58.289 1.246.607 1.822l4.27 9.143c.441 1.032 1.145 1.268 1.728 1.268.632 0 1.145-.299 1.712-.662 6.182-3.951 10.711-6.123 14.296-6.123 4.743 0 7.964 3.146 9.95 7.878 1.85 4.409 2.567 10.501 2.567 17.54 0 .897.004 2.068.004 2.068-3.896-2.438-10.645-3.781-14.014-3.781-18.127 0-27.903 17.222-27.903 35.64 0 19.844 11.425 34.4 25.155 34.4 7.647 0 14.569-4.488 19.205-10.146 0 0 2.468 5.884 2.791 6.59.325.705.667.965 1.595.965l7.336.007c.808 0 1.416-.608 1.416-1.622v-57.045c-.002-14.018-.71-24.711-4.412-32.004zm-11.17 74.735c-3.594 3.471-7.899 5.29-11.773 5.29-3.873 0-6.866-1.789-9.267-5.103-2.921-4.032-4.285-10.24-4.285-17.119 0-10.88 4.017-22.044 12.531-22.044 4.213 0 8.842 1.372 12.793 4.514v34.462zM427.932 65.258h-11.183c-1.249 0-1.886.654-2.208 1.502a7605.927 7605.927 0 0 0-7.373 19.463c-1.382 3.684-5.103 14.233-5.103 14.233l-.433-.003c-.014-.038-2.739-7.673-4.214-11.498-1.194-3.1-7.424-19.51-8.212-21.533-.421-1.087-.892-2.164-2.493-2.164H374.47c-1.346 0-2.107 1.476-1.673 2.392.436.919 19.942 45.35 19.942 45.35s-20.948 49.752-21.561 50.868c-.612 1.118.157 2.771 1.648 2.771h10.729c1.826 0 2.546-.957 3.094-2.498 1.542-4.32 3.838-10.327 7.09-19.612 2.153-6.153 5.56-16.952 5.56-16.952h.375s3.731 11.006 5.119 14.604c3.505 9.1 7.989 20.986 8.465 22.241.495 1.313 1.188 2.217 2.443 2.217h12.167c1.204 0 1.761-1.374 1.194-2.57-1.354-2.853-12.909-30.929-20.932-49.387 0 0 20.823-45.951 21.229-47.088.409-1.137.289-2.336-1.427-2.336z"/><path fill="red" d="M89.138 0H75.033c-1.249 0-2.029.613-2.209 1.502-.179.893-21.152 64.84-22.676 70.167-1.081 3.776-4.605 17.089-5.45 20.286l-7.294-19.914c-1.773-5.481-18.76-52.938-19.257-54.834-.275-1.042-.754-2.338-2.581-2.338H1.796c-1.347 0-2.108 1.477-1.674 2.393.347.733 25.219 66.904 35.268 92.183v55.58c0 1.014.406 1.622 1.417 1.622h13.042c.809 0 1.416-.608 1.416-1.622V109.883C59.64 86.488 90.237 3.27 90.57 2.338 90.975 1.199 90.855 0 89.138 0z"/></svg>