<svg xmlns="http://www.w3.org/2000/svg" xmlns:xlink="http://www.w3.org/1999/xlink" x="0px" y="0px" width="429.556px" height="169.231px" viewBox="0 0 429.556 169.231" xml:space="preserve"><path fill="#FFFFFF" d="M189.039,64.124c-9.83,0-20.079,7.175-20.079,7.175v-4.612c0-1.011-0.405-1.416-1.415-1.416h-12.547 c-1.011,0-1.619,0.608-1.619,1.416v98.338c0,1.014,0.406,1.622,1.417,1.622h12.748c0.807,0,1.415-0.608,1.415-1.622V80.85 c0,0,5.917-3.749,13.103-3.749c6.842,0,12.244,3.396,12.244,10.36c0,4.852,0,77.563,0,77.563c0,1.014,0.606,1.622,1.619,1.622 h12.544c1.012,0,1.416-0.811,1.416-1.622V83.053C209.885,70.707,202.295,64.124,189.039,64.124z"/><path fill="#FFFFFF" d="M286.631,14.797h-12.546c-1.012,0-1.619,0.607-1.619,1.417v49.61C267.65,63.976,263.265,63,259.721,63 c-20.376,0-34.364,19.479-34.364,56.934c0,32.089,13.607,49.298,31.365,49.298c7.485,0,13.664-4.289,18.188-8.313l2.739,4.643 c0.462,0.803,0.84,1.078,1.768,1.078l7.215,0.007c0.809,0,1.417-0.608,1.417-1.622V16.214 C288.048,15.201,287.642,14.797,286.631,14.797z M241.948,116.621c0-20.639,6.041-41.076,18.376-41.076 c4.178,0,8.191,1.375,12.143,4.514v72.712c-3.09,1.681-6.979,3.231-11.179,3.231C247.875,156.002,241.948,140.093,241.948,116.621z" /><path fill="#FFFFFF" d="M334.69,63.203c-20.893,0-31.206,27.332-31.206,57.076c0,31.133,14.708,48.583,33.618,48.583 c8.313,0,16.587-3.272,22.013-6.287c0.831-0.462,0.981-1.114,0.782-1.918l-1.587-6.578c-0.198-0.804-0.602-1.205-1.607-1.205 c-0.442,0-7.296,2.005-13.965,2.005c-15.476,0-22.573-13.757-22.573-32.028c0-2.41,0-4.441,0-4.441s7.692,1.064,12.313,1.064h29.196 v-8.438C361.674,79.885,350.766,63.203,334.69,63.203z M333.685,106.814c-4.621,0-13.031,1.142-13.031,1.142 s0.112-3.353,0.515-6.568c1.809-17.083,5.883-25.724,12.917-25.724c6.116,0,10.305,8.841,11.312,24.317 c0.199,3.216,0.199,6.833,0.199,6.833H333.685z"/><path fill="#FFFFFF" d="M129.552,75.977c-4.639-9.141-12.903-13.136-22.369-13.136c-6.081,0-15.571,2.325-21.91,5.174 c-1.24,0.558-2.024,1.048-2.024,2.024c0,0.58,0.289,1.246,0.607,1.822l4.27,9.143c0.441,1.032,1.145,1.268,1.728,1.268 c0.632,0,1.145-0.299,1.712-0.662c6.182-3.951,10.711-6.123,14.296-6.123c4.743,0,7.964,3.146,9.95,7.878 c1.85,4.409,2.567,10.501,2.567,17.54c0,0.897,0.004,2.068,0.004,2.068c-3.896-2.438-10.645-3.781-14.014-3.781 c-18.127,0-27.903,17.222-27.903,35.64c0,19.844,11.425,34.4,25.155,34.4c7.647,0,14.569-4.488,19.205-10.146 c0,0,2.468,5.884,2.791,6.59c0.325,0.705,0.667,0.965,1.595,0.965l7.336,0.007c0.808,0,1.416-0.608,1.416-1.622v-57.045 C133.962,93.963,133.254,83.27,129.552,75.977z M118.382,150.712c-3.594,3.471-7.899,5.29-11.773,5.29 c-3.873,0-6.866-1.789-9.267-5.103c-2.921-4.032-4.285-10.24-4.285-17.119c0-10.88,4.017-22.044,12.531-22.044 c4.213,0,8.842,1.372,12.793,4.514V150.712z"/><path fill="#FFFFFF" d="M427.932,65.258c-1.717,0-9.935,0-11.183,0c-1.249,0-1.886,0.654-2.208,1.502 c-0.709,1.859-5.435,14.307-7.373,19.463c-1.382,3.684-5.103,14.233-5.103,14.233l-0.433-0.003 c-0.014-0.038-2.739-7.673-4.214-11.498c-1.194-3.1-7.424-19.51-8.212-21.533c-0.421-1.087-0.892-2.164-2.493-2.164 c-2.162,0-10.896,0-12.243,0c-1.346,0-2.107,1.476-1.673,2.392c0.436,0.919,19.942,45.35,19.942,45.35s-20.948,49.752-21.561,50.868 c-0.612,1.118,0.157,2.771,1.648,2.771c1.487,0,8.906,0,10.729,0c1.826,0,2.546-0.957,3.094-2.498 c1.542-4.32,3.838-10.327,7.09-19.612c2.153-6.153,5.56-16.952,5.56-16.952h0.375c0,0,3.731,11.006,5.119,14.604 c3.505,9.1,7.989,20.986,8.465,22.241c0.495,1.313,1.188,2.217,2.443,2.217c1.257,0,10.959,0,12.167,0 c1.204,0,1.761-1.374,1.194-2.57c-1.354-2.853-12.909-30.929-20.932-49.387c0,0,20.823-45.951,21.229-47.088 C429.768,66.457,429.648,65.258,427.932,65.258z"/><path fill="#FF0000" d="M89.138,0H75.033c-1.249,0-2.029,0.613-2.209,1.502c-0.179,0.893-21.152,64.84-22.676,70.167 c-1.081,3.776-4.605,17.089-5.45,20.286l-7.294-19.914c-1.773-5.481-18.76-52.938-19.257-54.834 c-0.275-1.042-0.754-2.338-2.581-2.338H1.796c-1.347,0-2.108,1.477-1.674,2.393c0.347,0.733,25.219,66.904,35.268,92.183v55.58 c0,1.014,0.406,1.622,1.417,1.622h13.042c0.809,0,1.416-0.608,1.416-1.622v-52.687v-2.455C59.64,86.488,90.237,3.27,90.57,2.338 C90.975,1.199,90.855,0,89.138,0z"/></svg> 