<svg width="720" height="720" xmlns="http://www.w3.org/2000/svg"><g fill="none" fill-rule="evenodd"><rect fill="#CB202D" width="720" height="720" rx="28.8"/><path d="M142.617 406.912v-15.825H90.839l51.778-58.516v-13.27H67.774v15.829h50.003L66 393.645v13.267h76.617zm56.84 1.918c27.107 0 47.107-20.621 47.107-45.562v-.32c0-25.101-19.84-45.405-46.777-45.405-27.096 0-47.102 20.784-47.102 45.725v.32c0 24.94 19.835 45.242 46.772 45.242zm.33-16.784c-16.132 0-27.746-13.11-27.746-28.778v-.32c0-15.508 10.804-28.618 27.416-28.618 16.132 0 27.746 13.27 27.746 28.938v.32c0 15.507-10.804 28.458-27.416 28.458zm63.942 14.866h19.35v-49.4c0-13.75 8.066-22.382 19.68-22.382 11.615 0 18.392 7.674 18.392 21.583v50.2h19.51v-49.56c0-14.39 8.225-22.223 19.52-22.223 11.614 0 18.55 7.674 18.55 21.903v49.88h19.361v-55.636c0-21.424-11.785-33.734-31.135-33.734-13.713 0-22.908 6.235-30.005 15.508-4.677-9.273-13.702-15.508-26.606-15.508-13.713 0-21.46 7.355-27.267 15.348v-13.59h-19.35v87.611zm186.36-12.308c-9.834 0-17.74-4.957-17.74-13.75v-.319c0-9.273 7.906-15.03 21.289-15.03 8.386 0 15.493 1.6 20.81 3.52v6.393c0 11.352-10.485 19.186-24.358 19.186zm-5.156 14.066c13.713 0 23.068-5.754 29.035-12.947v11.19h18.87v-52.119c0-11.51-2.908-20.624-9.355-26.859-6.297-6.235-16.132-9.752-29.195-9.752-14.033 0-23.548 2.878-33.234 7.194l5.168 15.028c8.066-3.357 15.482-5.435 25.487-5.435 14.513 0 22.419 6.875 22.419 19.664v2.239c-6.937-2.239-14.193-3.677-24.198-3.677-21.609 0-36.612 9.273-36.612 28.138v.32c0 17.586 15.003 27.016 31.615 27.016zm97.655-.32c7.416 0 12.903-1.598 17.9-4.315V388.21c-4.027 1.919-8.065 3.038-12.583 3.038-7.097 0-11.284-3.358-11.284-11.351v-43.967h24.187V319.3h-24.187V295h-19.36v24.301h-11.455v16.628h11.454v47.004c0 19.024 10.485 25.418 25.328 25.418zm119.683-45.082v-.32c0-25.101-19.84-45.405-46.777-45.405-27.096 0-47.096 20.784-47.096 45.725v.32c0 24.94 19.84 45.242 46.777 45.242 27.096 0 47.096-20.621 47.096-45.562zm-46.777 28.778c-16.132 0-27.746-13.11-27.746-28.778v-.32c0-15.508 10.815-28.618 27.427-28.618 16.132 0 27.735 13.27 27.735 28.938v.32c0 15.507-10.804 28.458-27.416 28.458z" fill="#FFF"/></g></svg>