<svg version="1.2" baseProfile="tiny" xmlns="http://www.w3.org/2000/svg" viewBox="0 0 100 33.5" overflow="scroll"><path fill="#99242F" d="M51 21.9V10.1c0-2.7 2.2-4.9 4.9-4.9s4.9 2.2 4.9 4.9c0 1.3-.5 2.4-1.3 3.3L51 21.9z"/><path fill="#FFF" d="M16.9 22.9c0-6.1 4.8-10.5 10.9-10.5s10.9 4.5 10.9 10.5S34 33.5 27.8 33.5c-6.1 0-10.9-4.5-10.9-10.6zm15.8 0c0-3.2-1.9-5.5-4.9-5.5-3 0-4.9 2.3-4.9 5.5s1.9 5.5 4.9 5.5c3 .1 4.9-2.2 4.9-5.5zM40.1 22.9c0-6.1 4.8-10.5 10.9-10.5s11 4.5 11 10.5-4.8 10.6-11 10.6c-6.1 0-10.9-4.5-10.9-10.6zm15.8 0c0-3.2-1.9-5.5-4.9-5.5s-4.9 2.3-4.9 5.5 1.9 5.5 4.9 5.5c3.1.1 4.9-2.2 4.9-5.5z"/><path fill="#DB3641" d="M51 21.9V10.1c0-2.7-2.2-4.9-4.9-4.9s-4.9 2.2-4.9 4.9c0 1.3.5 2.4 1.3 3.3h-.1l8.6 8.5z"/><path fill="#FFF" d="M15.3 28.1H9l9.2-14.9V13H1.3v2.4c0 1.3 1.1 2.4 2.4 2.4h5.5L0 32.7v.2h17.7v-2.4c0-1.3-1.1-2.4-2.4-2.4zM72.1 20.5c-3.3-.6-4.1-1-4.1-2 0-.8.8-1.4 2.3-1.4 1.5 0 2.9.5 3.8 1.4l3.1-3.6c-1.9-1.6-4.1-2.5-7.1-2.5-4.5 0-7.4 2.6-7.4 6.3s2.4 5.6 6.6 6.5c3.3.7 3.9 1.1 3.9 2 0 .8-.8 1.5-2.9 1.5-1.8 0-3.4-.7-4.8-2.1l-3.2 3.7c2.3 2.1 5.2 3.1 8.1 3.1 5.5 0 8.4-2.6 8.4-6.6-.1-3.2-2.2-5.4-6.7-6.3zM92 21.1l7.2-8.2h-4.3c-2.1 0-3.2.8-4 1.7l-5.1 6V2.4c0-1.2-.8-2.1-1.9-2.4H80v32.9h5.8v-3c0-1 .1-2 .6-2.5l1.7-1.9 3.5 5.2c1 1.6 2.7 2.1 3.9 2.1h4.5l-8-11.7z"/></svg>