<svg version="1.2" baseProfile="tiny" id="z-logo" xmlns="http://www.w3.org/2000/svg" xmlns:xlink="http://www.w3.org/1999/xlink" x="0px" y="0px" viewBox="0 0 100 33.5" overflow="scroll" xml:space="preserve"><path fill="#99242F" d="M51,21.9V10.1c0-2.7,2.2-4.9,4.9-4.9c2.7,0,4.9,2.2,4.9,4.9c0,1.3-0.5,2.4-1.3,3.3h0L51,21.9z"/><path fill="#FFFFFF" d="M16.9,22.9c0-6.1,4.8-10.5,10.9-10.5s10.9,4.5,10.9,10.5S34,33.5,27.8,33.5C21.7,33.5,16.9,29,16.9,22.9z M32.7,22.9c0-3.2-1.9-5.5-4.9-5.5c-3,0-4.9,2.3-4.9,5.5c0,3.2,1.9,5.5,4.9,5.5C30.8,28.5,32.7,26.2,32.7,22.9z"/><path fill="#FFFFFF" d="M40.1,22.9c0-6.1,4.8-10.5,10.9-10.5S62,16.9,62,22.9S57.2,33.5,51,33.5C44.9,33.5,40.1,29,40.1,22.9z M55.9,22.9c0-3.2-1.9-5.5-4.9-5.5s-4.9,2.3-4.9,5.5c0,3.2,1.9,5.5,4.9,5.5C54.1,28.5,55.9,26.2,55.9,22.9z"/><path fill="#DB3641" d="M51,21.9V10.1c0-2.7-2.2-4.9-4.9-4.9s-4.9,2.2-4.9,4.9c0,1.3,0.5,2.4,1.3,3.3h-0.1L51,21.9z"/><path fill="#FFFFFF" d="M15.3,28.1H9l9.2-14.9v-0.2H1.3v2.4c0,1.3,1.1,2.4,2.4,2.4h5.5L0,32.7v0.2h17.7v-2.4C17.7,29.2,16.6,28.1,15.3,28.1z"/><path fill="#FFFFFF" d="M72.1,20.5c-3.3-0.6-4.1-1-4.1-2c0-0.8,0.8-1.4,2.3-1.4c1.5,0,2.9,0.5,3.8,1.4l3.1-3.6c-1.9-1.6-4.1-2.5-7.1-2.5c-4.5,0-7.4,2.6-7.4,6.3s2.4,5.6,6.6,6.5c3.3,0.7,3.9,1.1,3.9,2c0,0.8-0.8,1.5-2.9,1.5c-1.8,0-3.4-0.7-4.8-2.1l-3.2,3.7c2.3,2.1,5.2,3.1,8.1,3.1c5.5,0,8.4-2.6,8.4-6.6C78.7,23.6,76.6,21.4,72.1,20.5z"/><path fill="#FFFFFF" d="M92,21.1l7.2-8.2h-4.3c-2.1,0-3.2,0.8-4,1.7l0,0l-5.1,6V2.4c0-1.2-0.8-2.1-1.9-2.4H80v32.9h5.8v-3c0-1,0.1-2,0.6-2.5l0,0l1.7-1.9l3.5,5.2c1,1.6,2.7,2.1,3.9,2.1h4.5L92,21.1z"/></svg>