<svg xmlns="http://www.w3.org/2000/svg" width="24" height="24" viewBox="0 0 24 24">
  <path fill="#7542E5" d="M12,0 C5.372583,-4.05812251e-16 8.11624501e-16,5.372583 0,12 C-8.11624501e-16,18.627417 5.372583,24 12,24 C18.627417,24 24,18.627417 24,12 C23.9925602,5.37566713 18.6243329,0.00743982682 12,0 Z M19.7445,7.437 L17.4165,7.437 C17.0966628,6.16828066 16.5635761,4.96312946 15.84,3.873 C17.4673795,4.6456621 18.8269618,5.88667923 19.7445,7.437 L19.7445,7.437 Z M21,12 C20.9978921,13.0002097 20.8280357,13.992982 20.4975,14.937 L17.766,14.937 C17.9219977,13.9657827 18.0002461,12.9836657 18,12 C18.0002461,11.0163343 17.9219977,10.0342173 17.766,9.063 L20.4975,9.063 C20.8280357,10.007018 20.9978921,10.9997903 21,12 L21,12 Z M12,21 C10.3875,21 8.9445,19.2 8.1495,16.563 L15.852,16.563 C15.0555,19.2 13.6125,21 12,21 Z M7.761,14.937 C7.41237598,12.9945182 7.41237598,11.0054818 7.761,9.063 L16.2375,9.063 C16.4115792,10.0323247 16.4994227,11.0151683 16.5,12 C16.4999178,12.9847873 16.4125763,13.9676305 16.239,14.937 L7.761,14.937 Z M3,12 C3.00210793,10.9997903 3.17196428,10.007018 3.5025,9.063 L6.234,9.063 C5.92187972,11.0085614 5.92187972,12.9914386 6.234,14.937 L3.5025,14.937 C3.17196428,13.992982 3.00210793,13.0002097 3,12 Z M12,3 C13.6125,3 15.0555,4.8 15.8505,7.437 L8.1495,7.437 C8.9445,4.8 10.3875,3 12,3 Z M8.16,3.873 C7.4364239,4.96312946 6.90333723,6.16828066 6.5835,7.437 L4.2555,7.437 C5.17303818,5.88667923 6.53262049,4.6456621 8.16,3.873 L8.16,3.873 Z M4.26,16.563 L6.5835,16.563 C6.90333723,17.8317193 7.4364239,19.0368705 8.16,20.127 C6.53262049,19.3543379 5.17303818,18.1133208 4.2555,16.563 L4.26,16.563 Z M15.8445,20.127 C16.5680761,19.0368705 17.1011628,17.8317193 17.421,16.563 L19.749,16.563 C18.8302669,18.11399 17.4690412,19.3550769 15.84,20.127 L15.8445,20.127 Z"/>
</svg>
