<svg xmlns="http://www.w3.org/2000/svg" width="24" height="24" viewBox="0 0 24 24">
  <path fill="#7542E5" d="M0.924306832,20.7236036 C0.346993314,19.9676986 0.00305825233,19.023998 0,18 L0,6 C0.0057732181,3.5171139 2.0171139,1.50577322 4.5,1.5 L19.5,1.5 C19.7052791,1.50081623 19.9073258,1.51531614 20.1052754,1.54263506 L21.2085706,0.439339828 C21.794357,-0.146446609 22.7441045,-0.146446609 23.3298909,0.439339828 C23.9156774,1.02512627 23.9156774,1.97487373 23.3298909,2.56066017 L2.56066017,23.3298909 C1.97487373,23.9156774 1.02512627,23.9156774 0.439339828,23.3298909 C-0.146446609,22.7441045 -0.146446609,21.794357 0.439339828,21.2085706 L0.924306832,20.7236036 Z M17.1479104,4.5 L4.5,4.5 C3.67157288,4.5 3,5.17157288 3,6 L3,7.5 L14.1479104,7.5 L17.1479104,4.5 Z M11.1479104,10.5 L3,10.5 L3,17.7 C3,17.9851163 3.05524159,18.2547498 3.15358168,18.4943287 L11.1479104,10.5 Z M6.85208957,22.5 L9.85208957,19.5 L19.5,19.5 C20.3284271,19.5 21,18.6941125 21,17.7 L21,10.5 L18.8520896,10.5 L23.9573649,5.39472464 C23.9846839,5.59267422 23.9991838,5.7947209 24,6 L24,18 C23.995871,20.4835691 21.9835691,22.495871 19.5,22.5 L6.85208957,22.5 Z"/>
</svg>
