<svg xmlns="http://www.w3.org/2000/svg" width="24" height="24" viewBox="0 0 24 24">
  <path fill="#7542E5" d="M23.55,10.95 L13.05,0.45 C12.45,-0.15 11.55,-0.15 10.95,0.45 L0.45,10.95 C-0.15,11.55 -0.15,12.45 0.45,13.05 C1.05,13.65 1.95,13.65 2.55,13.05 L3,12.6 L3,19.5 C3,22.05 4.95,24 7.5,24 L16.5,24 C19.05,24 21,22.05 21,19.5 L21,12.6 L21.45,13.05 C21.75,13.35 22.05,13.5 22.5,13.5 C22.95,13.5 23.25,13.35 23.55,13.05 C24.15,12.45 24.15,11.55 23.55,10.95 Z M12,17.25 C12,16.8 12.3,16.5 12.75,16.5 C13.2,16.5 13.5,16.8 13.5,17.25 C13.5,17.7 13.2,18 12.75,18 C12.3,18 12,17.7 12,17.25 Z M18,19.5 C18,20.4 17.4,21 16.5,21 L15,21 L15,13.5 C15,12.6 14.4,12 13.5,12 L10.5,12 C9.6,12 9,12.6 9,13.5 L9,21 L7.5,21 C6.6,21 6,20.4 6,19.5 L6,9.6 L12,3.6 L18,9.6 L18,19.5 Z"/>
</svg>
