<svg width="600" height="450" viewBox="0 0 600 450" fill="none" xmlns="http://www.w3.org/2000/svg">
<rect width="600" height="450" rx="15" fill="#ECDFFF"/>
<g filter="url(#filter0_d_1_22)">
<g clip-path="url(#clip0_1_22)">
<rect x="46" y="46" width="507.821" height="358.053" rx="5.95103" fill="white"/>
<rect width="525.674" height="28.7633" transform="translate(40.0491 42.0332)" fill="#C9C3D2"/>
<circle cx="57.3644" cy="57.3651" r="3.09949" fill="#592ACB"/>
<circle cx="67.696" cy="57.3651" r="3.09949" fill="#592ACB"/>
<circle cx="78.0277" cy="57.3651" r="3.09949" fill="#592ACB"/>
<path d="M99.289 246.289C95.3796 246.289 91.8973 244.975 89.2691 242.544L92.0616 239.226C94.197 241.066 96.628 242.182 99.4861 242.182C101.917 242.182 103.166 241.066 103.166 239.653C103.166 238.043 101.851 237.55 98.402 236.762C93.6385 235.678 90.2547 234.331 90.2547 229.961C90.2547 225.789 93.6713 222.931 98.5991 222.931C102.279 222.931 105.137 224.081 107.436 226.052L104.907 229.534C102.903 227.925 100.636 227.038 98.4677 227.038C96.3981 227.038 95.1497 228.122 95.1497 229.469C95.1497 231.111 96.4966 231.637 99.9789 232.425C104.841 233.51 108.061 234.955 108.061 239.127C108.061 243.431 104.808 246.289 99.289 246.289ZM119.717 246.289C114.691 246.289 110.453 242.215 110.453 237.386C110.453 232.557 114.723 228.516 119.75 228.516C122.509 228.516 124.776 229.633 126.419 231.407L123.232 234.134C122.378 233.181 121.031 232.557 119.717 232.557C117.22 232.557 115.118 234.758 115.118 237.353C115.118 240.014 117.22 242.248 119.75 242.248C121.064 242.248 122.444 241.591 123.331 240.606L126.517 243.299C124.842 245.139 122.542 246.289 119.717 246.289ZM136.992 228.516C141.427 228.516 144.45 231.308 144.45 235.743V245.895H139.817V244.186C138.602 245.566 136.664 246.289 134.824 246.289C131.21 246.289 128.418 244.121 128.418 240.868C128.418 237.517 131.539 235.218 135.481 235.218C136.861 235.218 138.372 235.513 139.817 236.072V235.743C139.817 233.937 138.701 232.36 135.908 232.36C134.331 232.36 132.853 232.885 131.506 233.575L129.896 230.389C132.294 229.173 134.627 228.516 136.992 228.516ZM135.908 242.971C137.748 242.971 139.489 242.117 139.817 240.54V238.963C138.733 238.569 137.485 238.339 136.171 238.339C134.43 238.339 133.05 239.357 133.05 240.737C133.05 242.117 134.265 242.971 135.908 242.971ZM158.315 228.516C161.994 228.516 164.623 231.243 164.623 235.086V245.895H159.99V236.105C159.99 234.002 158.676 232.557 156.771 232.557C154.767 232.557 153.223 234.002 153.223 235.842L153.19 235.743V245.895H148.394V228.91H153.19V231.046C154.208 229.502 156.114 228.516 158.315 228.516ZM178.495 228.516C182.174 228.516 184.802 231.243 184.802 235.086V245.895H180.17V236.105C180.17 234.002 178.856 232.557 176.951 232.557C174.947 232.557 173.403 234.002 173.403 235.842L173.37 235.743V245.895H168.573V228.91H173.37V231.046C174.388 229.502 176.294 228.516 178.495 228.516ZM191.25 226.578C189.771 226.578 188.622 225.395 188.622 223.95C188.622 222.603 189.771 221.387 191.25 221.387C192.662 221.387 193.812 222.603 193.812 223.95C193.812 225.395 192.662 226.578 191.25 226.578ZM188.819 245.895V228.91H193.615V245.895H188.819ZM207.625 228.516C211.305 228.516 213.933 231.243 213.933 235.086V245.895H209.301V236.105C209.301 234.002 207.987 232.557 206.081 232.557C204.077 232.557 202.533 234.002 202.533 235.842L202.5 235.743V245.895H197.704V228.91H202.5V231.046C203.519 229.502 205.424 228.516 207.625 228.516ZM230.269 228.91H235.098V244.088C235.098 248.457 231.32 251.545 225.965 251.545C222.976 251.545 220.15 250.593 218.475 249.279L220.15 245.895C221.267 246.88 223.238 247.505 225.21 247.505C228.298 247.505 230.269 246.092 230.269 243.891V242.018C228.922 243.661 226.885 244.646 224.651 244.646C220.38 244.646 217.128 241.295 217.128 236.565C217.128 231.834 220.38 228.516 224.651 228.516C226.951 228.516 229.119 229.6 230.269 231.21V228.91ZM226.162 240.606C228.56 240.606 230.269 238.93 230.269 236.565C230.269 234.199 228.56 232.557 226.162 232.557C223.764 232.557 222.056 234.199 222.056 236.565C222.056 238.93 223.764 240.606 226.162 240.606ZM254.176 227.99V228.91H257.855V232.787H254.176V245.895H249.576V232.787H247.244V228.91H249.576V227.432C249.576 224.377 251.679 222.241 254.668 222.241C256.048 222.241 257.592 222.833 258.578 223.72L257.428 226.643C257.099 226.315 256.442 226.085 255.785 226.085C254.898 226.085 254.176 226.873 254.176 227.99ZM269.284 246.289C264.225 246.289 259.987 242.215 259.987 237.386C259.987 232.557 264.225 228.516 269.284 228.516C274.311 228.516 278.516 232.557 278.516 237.386C278.516 242.215 274.311 246.289 269.284 246.289ZM269.284 242.248C271.814 242.248 273.949 240.014 273.949 237.386C273.949 234.758 271.814 232.557 269.284 232.557C266.722 232.557 264.587 234.758 264.587 237.386C264.587 240.014 266.722 242.248 269.284 242.248ZM286.558 232.064C287.675 229.863 289.777 228.516 292.373 228.516V232.557C288.825 232.557 286.558 234.594 286.558 237.78V245.895H281.761V228.91H286.558V232.064ZM312.331 242.051C313.678 242.051 315.321 241.427 316.24 240.54L319.296 243.661C317.784 245.238 314.861 246.289 312.364 246.289C307.305 246.289 303.362 242.577 303.362 237.353C303.362 232.228 307.14 228.516 312.101 228.516C317.423 228.516 320.544 232.557 320.544 238.963H308.29C308.849 240.803 310.327 242.051 312.331 242.051ZM312.298 232.754C310.491 232.754 308.98 233.805 308.356 235.513H315.945C315.485 233.838 314.236 232.754 312.298 232.754ZM339.788 245.895H334.63L330.951 240.77L327.238 245.895H322.179L328.421 237.255L322.442 228.91H327.633L331.016 233.641L334.433 228.91H339.492L333.546 237.156L339.788 245.895ZM352.876 228.516C357.41 228.516 360.695 232.195 360.695 237.386C360.695 242.61 357.41 246.289 352.876 246.289C350.511 246.289 348.54 245.271 347.193 243.497V251.545H342.397V228.91H347.193V231.276C348.54 229.534 350.511 228.516 352.876 228.516ZM351.497 242.248C354.158 242.248 356.03 240.244 356.03 237.386C356.03 234.561 354.158 232.557 351.497 232.557C349.164 232.557 347.456 234.265 347.193 236.729V238.043C347.456 240.54 349.164 242.248 351.497 242.248ZM372.429 246.289C367.369 246.289 363.131 242.215 363.131 237.386C363.131 232.557 367.369 228.516 372.429 228.516C377.455 228.516 381.66 232.557 381.66 237.386C381.66 242.215 377.455 246.289 372.429 246.289ZM372.429 242.248C374.958 242.248 377.093 240.014 377.093 237.386C377.093 234.758 374.958 232.557 372.429 232.557C369.866 232.557 367.731 234.758 367.731 237.386C367.731 240.014 369.866 242.248 372.429 242.248ZM391.279 246.289C388.552 246.289 385.661 245.369 383.624 243.727L385.694 240.408C387.205 241.493 389.11 242.314 391.377 242.314C392.658 242.314 393.578 241.788 393.578 241.033C393.578 239.981 392.33 239.653 390.589 239.193C387.106 238.339 384.413 237.386 384.38 234.035C384.347 230.816 387.008 228.516 391.016 228.516C393.447 228.516 395.845 229.37 397.718 230.619L395.779 234.035C394.235 233.082 392.461 232.524 391.016 232.524C389.833 232.524 389.012 232.951 389.012 233.542C389.012 234.462 389.702 234.725 392.001 235.349C394.925 236.105 398.178 237.09 398.178 240.803C398.178 244.154 395.451 246.289 391.279 246.289ZM412.664 228.91H417.46V245.895H412.664V243.759C411.645 245.303 409.74 246.289 407.539 246.289C403.859 246.289 401.231 243.562 401.231 239.719V228.91H405.863V238.7C405.863 240.803 407.178 242.248 409.083 242.248C411.087 242.248 412.631 240.803 412.631 238.963L412.664 239.062V228.91ZM426.372 232.064C427.489 229.863 429.591 228.516 432.186 228.516V232.557C428.638 232.557 426.372 234.594 426.372 237.78V245.895H421.575V228.91H426.372V232.064ZM442.969 242.051C444.316 242.051 445.959 241.427 446.879 240.54L449.934 243.661C448.423 245.238 445.499 246.289 443.002 246.289C437.943 246.289 434.001 242.577 434.001 237.353C434.001 232.228 437.779 228.516 442.739 228.516C448.061 228.516 451.182 232.557 451.182 238.963H438.929C439.487 240.803 440.965 242.051 442.969 242.051ZM442.937 232.754C441.13 232.754 439.618 233.805 438.994 235.513H446.583C446.123 233.838 444.875 232.754 442.937 232.754ZM460.801 246.289C458.074 246.289 455.183 245.369 453.146 243.727L455.216 240.408C456.727 241.493 458.632 242.314 460.899 242.314C462.18 242.314 463.1 241.788 463.1 241.033C463.1 239.981 461.852 239.653 460.111 239.193C456.628 238.339 453.935 237.386 453.902 234.035C453.869 230.816 456.53 228.516 460.538 228.516C462.969 228.516 465.367 229.37 467.24 230.619L465.301 234.035C463.757 233.082 461.983 232.524 460.538 232.524C459.355 232.524 458.534 232.951 458.534 233.542C458.534 234.462 459.224 234.725 461.523 235.349C464.447 236.105 467.7 237.09 467.7 240.803C467.7 244.154 464.973 246.289 460.801 246.289ZM473.644 246.289C471.936 246.289 470.589 244.909 470.589 243.234C470.589 241.69 471.936 240.31 473.644 240.31C475.254 240.31 476.568 241.69 476.568 243.234C476.568 244.909 475.254 246.289 473.644 246.289ZM483.173 246.289C481.464 246.289 480.117 244.909 480.117 243.234C480.117 241.69 481.464 240.31 483.173 240.31C484.782 240.31 486.096 241.69 486.096 243.234C486.096 244.909 484.782 246.289 483.173 246.289ZM492.701 246.289C490.993 246.289 489.646 244.909 489.646 243.234C489.646 241.69 490.993 240.31 492.701 240.31C494.311 240.31 495.625 241.69 495.625 243.234C495.625 244.909 494.311 246.289 492.701 246.289Z" fill="#0C0C0D"/>
<rect x="89.4242" y="295.895" width="423.385" height="44.6304" rx="22.3152" fill="#EAEAEA"/>
<rect x="88.2179" y="295.895" width="91.0062" height="44.7842" rx="22.3921" fill="url(#paint0_radial_1_22)"/>
<path d="M115.607 315.349C118.451 315.349 120.802 317.185 120.802 320.231C120.802 323.388 118.272 325.56 114.913 325.56C110.412 325.56 108.374 322.335 108.374 317.857C108.374 313.065 111.173 309.639 115.428 309.639C117.354 309.639 118.899 310.289 120.153 311.296L118.585 313.804C117.645 313.02 116.727 312.55 115.45 312.55C113.457 312.55 112.091 314.207 111.8 316.805C112.763 315.887 114.152 315.349 115.607 315.349ZM114.734 322.761C116.368 322.761 117.398 321.619 117.398 320.387C117.398 318.909 116.144 318.036 114.644 318.036C113.368 318.036 112.338 318.73 111.89 319.828C112.181 321.709 113.01 322.761 114.734 322.761ZM126.458 317.633C124.174 317.633 122.629 315.909 122.629 313.715C122.629 311.498 124.174 309.751 126.48 309.751C128.809 309.751 130.309 311.52 130.309 313.692C130.309 315.909 128.742 317.633 126.458 317.633ZM124.644 325.291L135.347 309.908H137.721L127.018 325.291H124.644ZM126.48 315.707C127.421 315.707 128.115 314.924 128.115 313.692C128.115 312.505 127.421 311.699 126.458 311.699C125.517 311.699 124.846 312.483 124.846 313.692C124.846 314.901 125.562 315.707 126.48 315.707ZM135.862 325.538C133.556 325.538 132.011 323.791 132.011 321.597C132.011 319.402 133.578 317.656 135.862 317.656C138.169 317.656 139.691 319.425 139.691 321.597C139.691 323.813 138.102 325.538 135.862 325.538ZM135.862 323.589C136.825 323.589 137.497 322.806 137.497 321.597C137.497 320.387 136.78 319.581 135.862 319.581C134.877 319.581 134.205 320.365 134.205 321.597C134.205 322.783 134.9 323.589 135.862 323.589Z" fill="white"/>
<rect x="164.232" y="131.895" width="27.7758" height="27.7758" rx="13.8879" fill="#592ACB"/>
<path d="M175.798 152.738C175.49 152.738 175.196 152.616 174.978 152.398L171.501 148.921C171.29 148.702 171.173 148.41 171.176 148.106C171.178 147.802 171.3 147.511 171.515 147.296C171.73 147.081 172.021 146.959 172.325 146.957C172.629 146.954 172.921 147.071 173.14 147.282L175.64 149.782L182.961 139.324C183.138 139.075 183.407 138.907 183.708 138.855C184.009 138.803 184.318 138.872 184.569 139.047C184.819 139.222 184.99 139.489 185.045 139.79C185.099 140.09 185.033 140.4 184.861 140.652L176.747 152.243C176.65 152.383 176.524 152.499 176.378 152.585C176.231 152.67 176.068 152.723 175.899 152.738C175.865 152.74 175.831 152.74 175.798 152.738V152.738Z" fill="white"/>
<rect x="192.008" y="144.046" width="83.3275" height="3.47198" fill="#D9BFFF"/>
<rect x="275.336" y="131.895" width="27.7758" height="27.7758" rx="13.8879" fill="#592ACB"/>
<path d="M286.901 152.738C286.594 152.738 286.299 152.616 286.082 152.398L282.604 148.921C282.393 148.702 282.276 148.41 282.279 148.106C282.282 147.802 282.403 147.511 282.618 147.296C282.833 147.081 283.124 146.959 283.428 146.957C283.732 146.954 284.025 147.071 284.243 147.282L286.743 149.782L294.064 139.324C294.242 139.075 294.51 138.907 294.811 138.855C295.112 138.803 295.422 138.872 295.672 139.047C295.922 139.222 296.093 139.489 296.148 139.79C296.203 140.09 296.137 140.4 295.964 140.652L287.85 152.243C287.754 152.383 287.628 152.499 287.481 152.585C287.334 152.67 287.171 152.723 287.002 152.738C286.968 152.74 286.935 152.74 286.901 152.738V152.738Z" fill="white"/>
<rect x="303.111" y="144.046" width="41.6638" height="3.47198" fill="#D9BFFF"/>
<rect x="344.775" y="144.046" width="39.0598" height="3.47198" fill="#D9BFFF"/>
<rect x="382.099" y="130.159" width="31.2478" height="31.2478" rx="15.6239" fill="#592ACB"/>
<rect x="382.099" y="130.159" width="31.2478" height="31.2478" rx="15.6239" stroke="#D9BFFF" stroke-width="3.47198"/>
<path d="M404.423 151.257L400.244 147.078C401.002 146.013 401.333 144.701 401.169 143.403C401.006 142.105 400.361 140.916 399.362 140.071C398.363 139.226 397.084 138.788 395.777 138.842C394.47 138.897 393.231 139.441 392.306 140.366C391.381 141.291 390.837 142.529 390.783 143.836C390.728 145.143 391.167 146.423 392.011 147.422C392.856 148.421 394.045 149.066 395.343 149.229C396.641 149.393 397.953 149.062 399.019 148.304L403.197 152.483C403.361 152.64 403.58 152.728 403.807 152.726C404.034 152.724 404.252 152.633 404.412 152.472C404.573 152.311 404.664 152.094 404.666 151.867C404.668 151.64 404.581 151.421 404.423 151.257ZM396.011 147.537C395.325 147.537 394.655 147.334 394.085 146.953C393.515 146.572 393.07 146.03 392.808 145.397C392.546 144.764 392.477 144.067 392.611 143.394C392.745 142.722 393.075 142.104 393.559 141.619C394.044 141.134 394.662 140.804 395.334 140.671C396.007 140.537 396.704 140.605 397.337 140.868C397.971 141.13 398.512 141.575 398.893 142.145C399.274 142.715 399.477 143.385 399.477 144.07C399.477 144.99 399.112 145.871 398.462 146.522C397.812 147.172 396.93 147.537 396.011 147.537Z" fill="white"/>
<path d="M154.781 173.457C154.537 172.655 153.916 172.166 153.002 172.166C151.778 172.166 150.894 173.113 150.894 174.818C150.894 176.535 151.763 177.485 153.032 177.485C154.171 177.485 154.892 176.801 154.915 175.721H153.169V174.648H156.242V175.558C156.242 177.511 154.9 178.717 153.024 178.717C150.935 178.717 149.514 177.23 149.514 174.833C149.514 172.392 151.001 170.935 152.984 170.935C154.659 170.935 155.947 171.97 156.18 173.457H154.781ZM160.025 178.724C158.313 178.724 157.266 177.589 157.266 175.806C157.266 174.053 158.328 172.858 159.955 172.858C161.353 172.858 162.552 173.735 162.552 175.728V176.139H158.594C158.605 177.112 159.178 177.681 160.044 177.681C160.621 177.681 161.065 177.43 161.246 176.949L162.496 177.09C162.26 178.077 161.35 178.724 160.025 178.724ZM158.598 175.236H161.268C161.261 174.463 160.743 173.901 159.974 173.901C159.175 173.901 158.638 174.511 158.598 175.236ZM166.522 172.932V173.968H165.401V176.905C165.401 177.445 165.671 177.563 166.007 177.563C166.174 177.563 166.325 177.53 166.399 177.511L166.625 178.558C166.481 178.606 166.218 178.68 165.837 178.691C164.831 178.721 164.054 178.195 164.062 177.127V173.968H163.255V172.932H164.062V171.571H165.401V172.932H166.522ZM174.715 174.434L173.495 174.567C173.391 174.193 173.066 173.857 172.448 173.857C171.889 173.857 171.464 174.123 171.468 174.508C171.464 174.837 171.693 175.037 172.27 175.166L173.24 175.373C174.312 175.606 174.834 176.102 174.837 176.912C174.834 177.988 173.831 178.724 172.411 178.724C171.017 178.724 170.14 178.107 169.973 177.064L171.279 176.938C171.394 177.448 171.793 177.715 172.407 177.715C173.043 177.715 173.465 177.422 173.465 177.034C173.465 176.712 173.221 176.501 172.699 176.387L171.73 176.183C170.639 175.958 170.129 175.41 170.133 174.582C170.129 173.531 171.061 172.858 172.429 172.858C173.761 172.858 174.53 173.472 174.715 174.434ZM178.779 172.932V173.968H177.658V176.905C177.658 177.445 177.928 177.563 178.264 177.563C178.431 177.563 178.583 177.53 178.656 177.511L178.882 178.558C178.738 178.606 178.475 178.68 178.094 178.691C177.088 178.721 176.311 178.195 176.319 177.127V173.968H175.512V172.932H176.319V171.571H177.658V172.932H178.779ZM181.533 178.728C180.449 178.728 179.632 178.136 179.632 177.019C179.632 175.739 180.686 175.41 181.788 175.292C182.791 175.185 183.194 175.166 183.194 174.781V174.759C183.194 174.201 182.854 173.883 182.232 173.883C181.578 173.883 181.2 174.216 181.067 174.604L179.817 174.426C180.113 173.391 181.03 172.858 182.225 172.858C183.309 172.858 184.533 173.309 184.533 174.811V178.613H183.246V177.833H183.201C182.957 178.31 182.425 178.728 181.533 178.728ZM181.881 177.744C182.687 177.744 183.198 177.208 183.198 176.575V175.906C183.024 176.046 182.321 176.135 181.97 176.183C181.371 176.268 180.923 176.483 180.923 176.997C180.923 177.489 181.322 177.744 181.881 177.744ZM185.879 178.613V172.932H187.178V173.879H187.237C187.444 173.221 187.988 172.851 188.639 172.851C188.787 172.851 188.998 172.865 189.12 172.888V174.119C189.005 174.082 188.724 174.042 188.498 174.042C187.762 174.042 187.218 174.552 187.218 175.273V178.613H185.879ZM193.151 172.932V173.968H192.031V176.905C192.031 177.445 192.301 177.563 192.637 177.563C192.804 177.563 192.955 177.53 193.029 177.511L193.255 178.558C193.111 178.606 192.848 178.68 192.467 178.691C191.461 178.721 190.684 178.195 190.692 177.127V173.968H189.885V172.932H190.692V171.571H192.031V172.932H193.151ZM196.725 178.724C195.013 178.724 193.966 177.589 193.966 175.806C193.966 174.053 195.028 172.858 196.655 172.858C198.053 172.858 199.252 173.735 199.252 175.728V176.139H195.294C195.305 177.112 195.878 177.681 196.744 177.681C197.321 177.681 197.765 177.43 197.946 176.949L199.196 177.09C198.959 178.077 198.05 178.724 196.725 178.724ZM195.298 175.236H197.968C197.961 174.463 197.443 173.901 196.674 173.901C195.875 173.901 195.338 174.511 195.298 175.236ZM202.493 178.713C201.154 178.713 200.151 177.652 200.151 175.78C200.151 173.886 201.183 172.858 202.496 172.858C203.499 172.858 203.917 173.461 204.12 173.872H204.176V171.038H205.518V178.613H204.202V177.718H204.12C203.909 178.133 203.469 178.713 202.493 178.713ZM202.866 177.615C203.721 177.615 204.202 176.875 204.202 175.773C204.202 174.67 203.728 173.957 202.866 173.957C201.975 173.957 201.516 174.715 201.516 175.773C201.516 176.838 201.982 177.615 202.866 177.615Z" fill="#592ACB"/>
<path d="M265.013 178.613V171.038H269.94V172.189H266.386V174.245H269.685V175.395H266.386V177.463H269.97V178.613H265.013ZM272.62 175.284V178.613H271.281V172.932H272.561V173.897H272.627C272.886 173.265 273.471 172.858 274.322 172.858C275.494 172.858 276.271 173.635 276.267 174.996V178.613H274.928V175.203C274.928 174.445 274.514 173.99 273.822 173.99C273.116 173.99 272.62 174.463 272.62 175.284ZM280.465 172.932V173.968H279.345V176.905C279.345 177.445 279.615 177.563 279.951 177.563C280.118 177.563 280.269 177.53 280.343 177.511L280.569 178.558C280.425 178.606 280.162 178.68 279.781 178.691C278.775 178.721 277.998 178.195 278.006 177.127V173.968H277.199V172.932H278.006V171.571H279.345V172.932H280.465ZM284.039 178.724C282.327 178.724 281.28 177.589 281.28 175.806C281.28 174.053 282.342 172.858 283.969 172.858C285.367 172.858 286.566 173.735 286.566 175.728V176.139H282.608C282.619 177.112 283.192 177.681 284.058 177.681C284.635 177.681 285.079 177.43 285.26 176.949L286.51 177.09C286.273 178.077 285.363 178.724 284.039 178.724ZM282.612 175.236H285.282C285.275 174.463 284.757 173.901 283.988 173.901C283.189 173.901 282.652 174.511 282.612 175.236ZM287.698 178.613V172.932H288.997V173.879H289.056C289.263 173.221 289.807 172.851 290.458 172.851C290.606 172.851 290.817 172.865 290.939 172.888V174.119C290.824 174.082 290.543 174.042 290.317 174.042C289.581 174.042 289.037 174.552 289.037 175.273V178.613H287.698ZM294.412 178.613V172.932H295.751V178.613H294.412ZM295.085 172.126C294.656 172.126 294.308 171.8 294.308 171.401C294.308 170.998 294.656 170.672 295.085 170.672C295.51 170.672 295.858 170.998 295.858 171.401C295.858 171.8 295.51 172.126 295.085 172.126ZM298.467 175.284V178.613H297.128V172.932H298.407V173.897H298.474C298.733 173.265 299.317 172.858 300.168 172.858C301.341 172.858 302.117 173.635 302.114 174.996V178.613H300.775V175.203C300.775 174.445 300.36 173.99 299.669 173.99C298.962 173.99 298.467 174.463 298.467 175.284ZM306.353 172.932V173.968H305.173V178.613H303.834V173.968H302.994V172.932H303.834V172.396C303.834 171.249 304.622 170.683 305.609 170.683C306.071 170.683 306.452 170.779 306.626 170.838L306.356 171.874C306.245 171.841 306.068 171.793 305.857 171.793C305.358 171.793 305.173 172.041 305.173 172.484V172.932H306.353ZM309.666 178.724C308.001 178.724 306.943 177.552 306.943 175.795C306.943 174.034 308.001 172.858 309.666 172.858C311.33 172.858 312.388 174.034 312.388 175.795C312.388 177.552 311.33 178.724 309.666 178.724ZM309.673 177.652C310.579 177.652 311.031 176.831 311.031 175.791C311.031 174.752 310.579 173.92 309.673 173.92C308.752 173.92 308.301 174.752 308.301 175.791C308.301 176.831 308.752 177.652 309.673 177.652Z" fill="#592ACB"/>
<path d="M362.054 178.613V171.038H366.907V172.189H363.426V174.245H366.574V175.395H363.426V178.613H362.054ZM368.098 178.613V172.932H369.437V178.613H368.098ZM368.771 172.126C368.342 172.126 367.994 171.8 367.994 171.401C367.994 170.998 368.342 170.672 368.771 170.672C369.197 170.672 369.544 170.998 369.544 171.401C369.544 171.8 369.197 172.126 368.771 172.126ZM372.153 175.284V178.613H370.814V172.932H372.094V173.897H372.16C372.419 173.265 373.004 172.858 373.854 172.858C375.027 172.858 375.804 173.635 375.8 174.996V178.613H374.461V175.203C374.461 174.445 374.047 173.99 373.355 173.99C372.648 173.99 372.153 174.463 372.153 175.284ZM379.269 178.713C377.93 178.713 376.928 177.652 376.928 175.78C376.928 173.886 377.96 172.858 379.273 172.858C380.275 172.858 380.693 173.461 380.897 173.872H380.952V171.038H382.295V178.613H380.978V177.718H380.897C380.686 178.133 380.246 178.713 379.269 178.713ZM379.643 177.615C380.497 177.615 380.978 176.875 380.978 175.773C380.978 174.67 380.505 173.957 379.643 173.957C378.752 173.957 378.293 174.715 378.293 175.773C378.293 176.838 378.759 177.615 379.643 177.615ZM388.821 178.724C387.108 178.724 386.061 177.589 386.061 175.806C386.061 174.053 387.123 172.858 388.75 172.858C390.149 172.858 391.347 173.735 391.347 175.728V176.139H387.389C387.4 177.112 387.974 177.681 388.839 177.681C389.416 177.681 389.86 177.43 390.041 176.949L391.292 177.09C391.055 178.077 390.145 178.724 388.821 178.724ZM387.393 175.236H390.064C390.056 174.463 389.538 173.901 388.769 173.901C387.97 173.901 387.434 174.511 387.393 175.236ZM393.463 172.932L394.609 175.029L395.775 172.932H397.191L395.479 175.773L397.221 178.613H395.812L394.609 176.568L393.418 178.613H391.998L393.729 175.773L392.042 172.932H393.463ZM398.227 180.744V172.932H399.544V173.872H399.621C399.825 173.461 400.243 172.858 401.245 172.858C402.558 172.858 403.59 173.886 403.59 175.78C403.59 177.652 402.588 178.713 401.249 178.713C400.272 178.713 399.832 178.133 399.621 177.718H399.566V180.744H398.227ZM399.54 175.773C399.54 176.875 400.021 177.615 400.875 177.615C401.759 177.615 402.225 176.838 402.225 175.773C402.225 174.715 401.767 173.957 400.875 173.957C400.013 173.957 399.54 174.67 399.54 175.773ZM407.215 178.724C405.551 178.724 404.493 177.552 404.493 175.795C404.493 174.034 405.551 172.858 407.215 172.858C408.88 172.858 409.937 174.034 409.937 175.795C409.937 177.552 408.88 178.724 407.215 178.724ZM407.222 177.652C408.129 177.652 408.58 176.831 408.58 175.791C408.58 174.752 408.129 173.92 407.222 173.92C406.301 173.92 405.85 174.752 405.85 175.791C405.85 176.831 406.301 177.652 407.222 177.652ZM415.564 174.434L414.344 174.567C414.24 174.193 413.915 173.857 413.297 173.857C412.738 173.857 412.313 174.123 412.317 174.508C412.313 174.837 412.542 175.037 413.119 175.166L414.088 175.373C415.161 175.606 415.683 176.102 415.686 176.912C415.683 177.988 414.68 178.724 413.26 178.724C411.865 178.724 410.989 178.107 410.822 177.064L412.128 176.938C412.243 177.448 412.642 177.715 413.256 177.715C413.892 177.715 414.314 177.422 414.314 177.034C414.314 176.712 414.07 176.501 413.548 176.387L412.579 176.183C411.488 175.958 410.978 175.41 410.981 174.582C410.978 173.531 411.91 172.858 413.278 172.858C414.61 172.858 415.379 173.472 415.564 174.434ZM420.412 176.224V172.932H421.751V178.613H420.452V177.604H420.393C420.134 178.24 419.535 178.687 418.684 178.687C417.567 178.687 416.79 177.914 416.79 176.549V172.932H418.129V176.342C418.129 177.064 418.558 177.519 419.202 177.519C419.794 177.519 420.412 177.09 420.412 176.224ZM423.127 178.613V172.932H424.426V173.879H424.485C424.692 173.221 425.236 172.851 425.887 172.851C426.035 172.851 426.246 172.865 426.368 172.888V174.119C426.253 174.082 425.972 174.042 425.746 174.042C425.01 174.042 424.466 174.552 424.466 175.273V178.613H423.127ZM429.539 178.724C427.826 178.724 426.779 177.589 426.779 175.806C426.779 174.053 427.841 172.858 429.468 172.858C430.866 172.858 432.065 173.735 432.065 175.728V176.139H428.107C428.118 177.112 428.691 177.681 429.557 177.681C430.134 177.681 430.578 177.43 430.759 176.949L432.009 177.09C431.773 178.077 430.863 178.724 429.539 178.724ZM428.111 175.236H430.781C430.774 174.463 430.256 173.901 429.487 173.901C428.688 173.901 428.151 174.511 428.111 175.236ZM437.688 174.434L436.467 174.567C436.364 174.193 436.038 173.857 435.421 173.857C434.862 173.857 434.437 174.123 434.44 174.508C434.437 174.837 434.666 175.037 435.243 175.166L436.212 175.373C437.285 175.606 437.806 176.102 437.81 176.912C437.806 177.988 436.804 178.724 435.384 178.724C433.989 178.724 433.113 178.107 432.946 177.064L434.252 176.938C434.366 177.448 434.766 177.715 435.38 177.715C436.016 177.715 436.438 177.422 436.438 177.034C436.438 176.712 436.194 176.501 435.672 176.387L434.703 176.183C433.612 175.958 433.101 175.41 433.105 174.582C433.101 173.531 434.034 172.858 435.402 172.858C436.734 172.858 437.503 173.472 437.688 174.434Z" fill="#592ACB"/>
</g>
</g>
<defs>
<filter id="filter0_d_1_22" x="34.0979" y="38.0653" width="531.625" height="381.858" filterUnits="userSpaceOnUse" color-interpolation-filters="sRGB">
<feFlood flood-opacity="0" result="BackgroundImageFix"/>
<feColorMatrix in="SourceAlpha" type="matrix" values="0 0 0 0 0 0 0 0 0 0 0 0 0 0 0 0 0 0 127 0" result="hardAlpha"/>
<feOffset dy="3.96735"/>
<feGaussianBlur stdDeviation="5.95103"/>
<feComposite in2="hardAlpha" operator="out"/>
<feColorMatrix type="matrix" values="0 0 0 0 0 0 0 0 0 0 0 0 0 0 0 0 0 0 0.08 0"/>
<feBlend mode="normal" in2="BackgroundImageFix" result="effect1_dropShadow_1_22"/>
<feBlend mode="normal" in="SourceGraphic" in2="effect1_dropShadow_1_22" result="shape"/>
</filter>
<radialGradient id="paint0_radial_1_22" cx="0" cy="0" r="1" gradientUnits="userSpaceOnUse" gradientTransform="translate(179.224 295.895) rotate(153.798) scale(101.429 80.3648)">
<stop stop-color="#9D62FC"/>
<stop offset="1" stop-color="#FD3296"/>
</radialGradient>
<clipPath id="clip0_1_22">
<rect x="46" y="46" width="507.821" height="358.053" rx="5.95103" fill="white"/>
</clipPath>
</defs>
</svg>
