<svg width="41" height="32" viewBox="0 0 41 32" fill="none" xmlns="http://www.w3.org/2000/svg">
<path opacity="0.5" fill-rule="evenodd" clip-rule="evenodd" d="M17.2844 1.67559C22.5116 1.37237 27.1204 5.4488 30.1319 9.7751C32.9046 13.7585 33.9906 18.8758 32.3662 23.4605C30.9103 27.5696 26.6381 29.1935 22.591 30.7221C19.1334 32.028 15.508 32.0912 11.9778 31.0014C7.33439 29.5679 1.56841 28.4591 0.247481 23.7398C-1.09832 18.9316 3.34216 15.1057 6.39194 11.1716C9.49674 7.16644 12.2565 1.96723 17.2844 1.67559Z" fill="#D9BFFF"/>
<path d="M15.8881 5.58562C15.901 5.90714 15.8887 6.12993 15.8881 6.70279C15.888 6.7529 15.8881 6.65262 15.8881 6.70279C15.8879 7.1589 15.8774 7.52746 15.8881 7.81996C15.8934 7.96524 16.0209 8.10454 16.1674 8.09926C16.3139 8.09398 16.452 7.96524 16.4467 7.81996C16.4364 7.53564 16.4465 7.15283 16.4467 6.70279C16.4467 6.65276 16.4466 6.75287 16.4467 6.70279C16.4473 6.12289 16.4599 5.91655 16.4467 5.58562C16.4409 5.44035 16.3138 5.30058 16.1674 5.30632C16.0209 5.31207 15.8823 5.44035 15.8881 5.58562Z" fill="#FCD400"/>
<path d="M15.3284 6.98234C15.4715 6.99002 15.6761 6.97652 15.887 6.98234C15.9141 6.98308 15.8379 6.98102 15.887 6.98234C16.3208 6.99401 16.4953 6.96184 16.7249 6.98234C16.8621 6.99459 16.9918 6.83961 17.0042 6.70304C17.0164 6.56649 16.8622 6.436 16.7249 6.42375C16.4814 6.40202 16.3313 6.4357 15.887 6.42375C15.8381 6.42245 15.9141 6.4245 15.887 6.42375C15.6802 6.41804 15.4661 6.43115 15.3284 6.42375C15.1908 6.41637 15.0565 6.56613 15.0491 6.70304C15.0416 6.83995 15.1908 6.97495 15.3284 6.98234Z" fill="#FCD400"/>
<path d="M32.6452 18.9919C32.8361 18.9838 32.8595 18.9841 33.2038 18.9919C33.2578 18.9932 33.4528 18.9913 33.4831 18.9919C33.7562 18.9978 33.8535 19.0009 34.0417 18.9919C34.185 18.9849 34.3276 18.8632 34.3209 18.7126C34.3145 18.5621 34.1848 18.4265 34.0417 18.4333C33.8676 18.4418 33.7457 18.4389 33.4831 18.4333C33.4532 18.4326 33.2576 18.4347 33.2038 18.4333C32.8488 18.4252 32.8504 18.4246 32.6452 18.4333C32.502 18.4393 32.3602 18.562 32.3659 18.7126C32.3716 18.8632 32.5019 18.998 32.6452 18.9919Z" fill="#EAF3F3"/>
<path d="M33.7626 19.5505C33.7655 19.4184 33.7615 19.1804 33.7626 18.9919C33.7627 18.9597 33.7623 19.0499 33.7626 18.9919C33.7647 18.5543 33.7512 18.3859 33.7626 18.154C33.7696 18.0113 33.6311 17.8815 33.4833 17.8747C33.3354 17.868 33.211 18.0112 33.204 18.154C33.1922 18.3957 33.2062 18.5469 33.204 18.9919C33.2037 19.0499 33.2041 18.9598 33.204 18.9919C33.2029 19.1778 33.2068 19.4218 33.204 19.5505C33.2008 19.6933 33.3354 19.8268 33.4833 19.8298C33.6312 19.8329 33.7594 19.6933 33.7626 19.5505Z" fill="#EAF3F3"/>
<path d="M30.6905 2.51364C30.6978 2.66506 30.6752 2.83883 30.6905 3.07223C30.6928 3.10518 30.6884 3.03931 30.6905 3.07223C30.7282 3.6421 30.6905 3.87013 30.6905 4.1894C30.6905 4.32359 30.8394 4.46869 30.9698 4.46869C31.1003 4.46869 31.2491 4.32359 31.2491 4.1894C31.2491 3.85552 31.2875 3.65298 31.2491 3.07223C31.247 3.03932 31.2513 3.10509 31.2491 3.07223C31.234 2.84149 31.2563 2.66147 31.2491 2.51364C31.2425 2.3796 31.1001 2.22763 30.9698 2.23435C30.8395 2.24105 30.6839 2.37962 30.6905 2.51364Z" fill="#90BFFF"/>
<path d="M30.4107 3.63055C30.6757 3.66004 30.7791 3.65944 31.2486 3.63055C31.3587 3.62378 31.4667 3.63368 31.5279 3.63055C31.6463 3.62449 31.7136 3.63055 31.8072 3.63055C31.9475 3.63055 32.0865 3.4929 32.0865 3.35126C32.0865 3.20961 31.9475 3.07196 31.8072 3.07196C31.704 3.07196 31.6541 3.0655 31.5279 3.07196C31.4644 3.07521 31.3604 3.06509 31.2486 3.07196C30.8082 3.09906 30.6371 3.09717 30.4107 3.07196C30.2713 3.05645 30.1468 3.21047 30.1314 3.35126C30.1161 3.49204 30.2713 3.61504 30.4107 3.63055Z" fill="#90BFFF"/>
<path d="M7.50893 25.9741C7.51625 26.1255 7.49346 26.2993 7.50893 26.5327C7.51105 26.5657 7.5068 26.4999 7.50893 26.5327C7.5466 27.1026 7.50893 27.3306 7.50893 27.6498C7.50893 27.784 7.65783 27.9291 7.78822 27.9291C7.91873 27.9291 8.06752 27.784 8.06752 27.6498C8.06752 27.316 8.1059 27.1134 8.06752 26.5327C8.06539 26.4997 8.06976 26.5655 8.06752 26.5327C8.0524 26.302 8.07472 26.1219 8.06752 25.9741C8.06102 25.8401 7.91861 25.6881 7.78822 25.6948C7.65795 25.7016 7.50243 25.8401 7.50893 25.9741Z" fill="#90BFFF"/>
<path d="M7.22908 27.0914C7.4939 27.1209 7.5975 27.1204 8.06696 27.0914C8.13158 27.0874 8.31007 27.0935 8.34625 27.0914C8.51129 27.0818 8.50926 27.0914 8.62555 27.0914C8.7657 27.0914 8.90484 26.9538 8.90484 26.8121C8.90484 26.6704 8.7657 26.5328 8.62555 26.5328C8.49771 26.5328 8.52005 26.5227 8.34625 26.5328C8.30931 26.5349 8.13221 26.5287 8.06696 26.5328C7.62657 26.5599 7.45543 26.5581 7.22908 26.5328C7.08969 26.5173 6.96515 26.6713 6.94979 26.8121C6.93442 26.9529 7.08969 27.0759 7.22908 27.0914Z" fill="#90BFFF"/>
<path fill-rule="evenodd" clip-rule="evenodd" d="M33.4834 12.8476C33.503 13.1521 34.0156 13.1514 34.042 12.8476C34.1034 12.1419 34.4021 11.7737 34.8799 11.7304C34.918 11.7298 34.8398 11.733 34.8799 11.7304C35.1973 11.709 35.198 11.1718 34.8799 11.1718C34.8378 11.1718 34.9204 11.1687 34.8799 11.1718C34.3716 11.1759 34.1562 11.2089 34.042 10.6132C34.0367 10.5856 34.0556 10.4067 34.042 10.3339C34.0294 10.2667 34.0505 10.376 34.042 10.3339C33.9841 10.0499 33.4987 10.0445 33.4834 10.3339C33.4811 10.3766 33.4856 10.26 33.4834 10.3339C33.4804 10.4336 33.4887 10.5625 33.4834 10.6132C33.4704 10.7362 33.5491 10.7775 33.4834 10.8925C33.3674 11.0949 32.9922 11.1775 32.6455 11.1718C32.3285 11.1667 32.3297 11.702 32.6455 11.7304C33.0554 11.7673 33.1569 11.9192 33.2041 12.0097C33.3489 12.2917 33.4628 12.5292 33.4834 12.8476ZM34.8799 11.1718C34.9118 11.1714 34.8454 11.1741 34.8799 11.1718V11.1718C34.8504 11.1603 34.9177 11.1713 34.8799 11.1718ZM34.8799 11.7304C34.9098 11.7279 34.8479 11.7304 34.8799 11.7304V11.7304C34.8531 11.743 34.9149 11.7275 34.8799 11.7304ZM33.4834 11.4511C33.5855 11.3789 33.6932 11.2761 33.7627 11.1718C33.8372 11.305 33.9269 11.3707 34.042 11.4511C33.939 11.5435 33.8365 11.8803 33.7627 12.0097C33.7388 11.9548 33.7901 11.7838 33.7627 11.7304C33.7162 11.6415 33.5694 11.5135 33.4834 11.4511Z" fill="#FCD400"/>
<path fill-rule="evenodd" clip-rule="evenodd" d="M4.99417 18.9921C5.31183 18.9711 5.31257 18.4335 4.99417 18.4335C4.95272 18.4335 5.03414 18.4305 4.99417 18.4335C4.48272 18.4377 4.27114 18.4756 4.15629 17.875C4.15123 17.8487 4.16912 17.6645 4.15629 17.5957C4.14371 17.5281 4.1648 17.6378 4.15629 17.5957C4.09856 17.3117 3.613 17.3062 3.5977 17.5957C3.59548 17.6382 3.59992 17.5221 3.5977 17.5957C3.59487 17.6935 3.60276 17.8251 3.5977 17.875C3.585 18 3.66383 18.0384 3.5977 18.1543C3.4815 18.3567 3.10548 18.4403 2.75982 18.4335C2.44266 18.4275 2.44402 18.963 2.75982 18.9921C3.17037 19.0301 3.27116 19.1811 3.31841 19.2714C3.46274 19.5535 3.57673 19.7909 3.5977 20.1093C3.61794 20.4136 4.12977 20.4129 4.15629 20.1093C4.21773 19.4029 4.51541 19.0347 4.99417 18.9921C5.03167 18.9915 4.95482 18.9947 4.99417 18.9921ZM4.99417 18.4335C5.02563 18.4332 4.96025 18.4358 4.99417 18.4335V18.4335C4.96506 18.4224 5.03143 18.4331 4.99417 18.4335ZM4.99417 18.9921C5.02365 18.9898 4.96284 18.9921 4.99417 18.9921V18.9921C4.96765 19.0042 5.02859 18.9894 4.99417 18.9921ZM3.5977 18.7128C3.69985 18.6406 3.80755 18.538 3.877 18.4335C3.95138 18.5668 4.04107 18.6326 4.15629 18.7128C4.05328 18.8054 3.95089 19.1419 3.877 19.2714C3.85319 19.2165 3.90438 19.0455 3.877 18.9921C3.83049 18.903 3.68381 18.7754 3.5977 18.7128Z" fill="#EAF3F3"/>
<path d="M20.0771 3.35156V3.35156C20.0771 3.21715 19.9522 3.07227 19.7978 3.07227C19.6437 3.07227 19.5186 3.21715 19.5186 3.35156V3.35156C19.5186 3.48598 19.6437 3.63085 19.7978 3.63085C19.9522 3.63085 20.0771 3.48598 20.0771 3.35156Z" fill="#90BFFF"/>
<path d="M38.7891 16.199V16.199C38.7891 16.0645 38.6639 15.9197 38.5098 15.9197C38.3555 15.9197 38.2305 16.0645 38.2305 16.199V16.199C38.2305 16.3334 38.3555 16.4783 38.5098 16.4783C38.6639 16.4783 38.7891 16.3334 38.7891 16.199Z" fill="#90BFFF"/>
<path d="M37.9521 6.98217V6.98217C37.9521 6.84747 37.827 6.70288 37.6728 6.70288C37.5185 6.70288 37.3936 6.84747 37.3936 6.98217V6.98217C37.3936 7.11689 37.5185 7.26147 37.6728 7.26147C37.827 7.26147 37.9521 7.11689 37.9521 6.98217Z" fill="#EAF3F3"/>
<path d="M39.6269 9.49585V9.49585C39.6269 9.36142 39.5018 9.21655 39.3477 9.21655C39.1933 9.21655 39.0684 9.36142 39.0684 9.49585V9.49585C39.0684 9.63027 39.1933 9.77514 39.3477 9.77514C39.5018 9.77514 39.6269 9.63027 39.6269 9.49585Z" fill="#4E6AF0"/>
<path d="M36.2759 1.39648V1.39648C36.2759 1.26205 36.1509 1.11719 35.9966 1.11719C35.8423 1.11719 35.7173 1.26205 35.7173 1.39648V1.39648C35.7173 1.53091 35.8423 1.67577 35.9966 1.67577C36.1509 1.67577 36.2759 1.53091 36.2759 1.39648Z" fill="#FCD400"/>
<path d="M2.20214 21.7849V21.7849C2.20214 21.6501 2.07702 21.5056 1.92285 21.5056C1.76854 21.5056 1.64355 21.6501 1.64355 21.7849V21.7849C1.64355 21.9197 1.76854 22.0642 1.92285 22.0642C2.07702 22.0642 2.20214 21.9197 2.20214 21.7849Z" fill="#FCD400"/>
<path d="M10.8599 7.82031V7.82031C10.8599 7.67648 10.7349 7.54102 10.5806 7.54102C10.4264 7.54102 10.3013 7.67648 10.3013 7.82031V7.82031C10.3013 7.96414 10.4264 8.0996 10.5806 8.0996C10.7349 8.0996 10.8599 7.96414 10.8599 7.82031Z" fill="#EAF3F3"/>
<path d="M12.5361 1.67578V1.67578C12.5361 1.53229 12.4111 1.39648 12.2568 1.39648C12.1027 1.39648 11.9775 1.53229 11.9775 1.67578V1.67578C11.9775 1.81927 12.1027 1.95507 12.2568 1.95507C12.4111 1.95507 12.5361 1.81927 12.5361 1.67578Z" fill="#4E6AF0"/>
<path d="M27.897 3.91015V3.91015C27.897 3.78372 27.772 3.63086 27.6177 3.63086C27.4635 3.63086 27.3384 3.78372 27.3384 3.91015V3.91015C27.3384 4.03659 27.4635 4.18945 27.6177 4.18945C27.772 4.18945 27.897 4.03659 27.897 3.91015Z" fill="#EAF3F3"/>
<path d="M25.1045 0.279293V0.279293C25.1045 0.144586 24.9795 0 24.8252 0C24.671 0 24.5459 0.144586 24.5459 0.279293V0.279293C24.5459 0.414013 24.671 0.558587 24.8252 0.558587C24.9795 0.558587 25.1045 0.414013 25.1045 0.279293Z" fill="#FCD400"/>
<path d="M36.5547 25.6948V25.6948C36.5547 25.5603 36.4297 25.4155 36.2754 25.4155C36.1211 25.4155 35.9961 25.5603 35.9961 25.6948V25.6948C35.9961 25.8292 36.1211 25.9741 36.2754 25.9741C36.4297 25.9741 36.5547 25.8292 36.5547 25.6948Z" fill="#FCD400"/>
<path d="M5.83251 12.5681V12.5681C5.83251 12.4291 5.70753 12.2888 5.55322 12.2888C5.39905 12.2888 5.27393 12.4291 5.27393 12.5681V12.5681C5.27393 12.7071 5.39905 12.8474 5.55322 12.8474C5.70753 12.8474 5.83251 12.7071 5.83251 12.5681Z" fill="#90BFFF"/>
<path d="M34.6006 22.0642V22.0642C34.6006 21.9252 34.4755 21.7849 34.3213 21.7849C34.167 21.7849 34.042 21.9252 34.042 22.0642V22.0642C34.042 22.2031 34.167 22.3435 34.3213 22.3435C34.4755 22.3435 34.6006 22.2031 34.6006 22.0642Z" fill="#4E6AF0"/>
<path d="M8.06689 20.1091V20.1091C8.06689 19.9698 7.94176 19.8298 7.78759 19.8298C7.63328 19.8298 7.5083 19.9698 7.5083 20.1091V20.1091C7.5083 20.2485 7.63328 20.3884 7.78759 20.3884C7.94176 20.3884 8.06689 20.2485 8.06689 20.1091Z" fill="#4E6AF0"/>
<path d="M31.5283 15.6404V15.6404C31.5283 15.5014 31.4033 15.3611 31.249 15.3611C31.0947 15.3611 30.9697 15.5014 30.9697 15.6404V15.6404C30.9697 15.7793 31.0947 15.9197 31.249 15.9197C31.4033 15.9197 31.5283 15.7793 31.5283 15.6404Z" fill="#EAF3F3"/>
<path d="M3.04052 25.6948V25.6948C3.04052 25.5558 2.9154 25.4155 2.76123 25.4155C2.60692 25.4155 2.48193 25.5558 2.48193 25.6948V25.6948C2.48193 25.8337 2.60692 25.9741 2.76123 25.9741C2.9154 25.9741 3.04052 25.8337 3.04052 25.6948Z" fill="#EAF3F3"/>
<path d="M38.8949 2.50439H24.7366C24.0909 2.50439 23.5674 3.02786 23.5674 3.67359V13.4656C23.5674 14.1114 24.0909 14.6348 24.7366 14.6348H38.8949C39.5406 14.6348 40.0641 14.1114 40.0641 13.4656V3.67359C40.0641 3.02786 39.5406 2.50439 38.8949 2.50439Z" fill="#140B28"/>
<path d="M38.0726 1.90137H23.9143C23.2686 1.90137 22.7451 2.42484 22.7451 3.07057V12.8626C22.7451 13.5084 23.2686 14.0318 23.9143 14.0318H38.0726C38.7183 14.0318 39.2418 13.5084 39.2418 12.8626V3.07057C39.2418 2.42484 38.7183 1.90137 38.0726 1.90137Z" fill="white"/>
<path d="M38.0732 1.84668H23.9149C23.2389 1.84668 22.6909 2.39469 22.6909 3.07069V12.8627C22.6909 13.5387 23.2389 14.0867 23.9149 14.0867H38.0732C38.7492 14.0867 39.2972 13.5387 39.2972 12.8627V3.07069C39.2972 2.39469 38.7492 1.84668 38.0732 1.84668ZM23.9149 1.95629H38.0732C38.6887 1.95629 39.1876 2.45522 39.1876 3.07069V12.8627C39.1876 13.4782 38.6887 13.9771 38.0732 13.9771H23.9149C23.2995 13.9771 22.8005 13.4782 22.8005 12.8627V3.07069C22.8005 2.45522 23.2995 1.95629 23.9149 1.95629Z" fill="#140B28"/>
<path d="M24.1836 12.0737H37.3202C37.4413 12.0737 37.5395 11.9756 37.5395 11.8545V6.80052C37.5395 6.67945 37.4413 6.5813 37.3202 6.5813H24.1836C24.0625 6.5813 23.9644 6.67945 23.9644 6.80052V11.8545C23.9644 11.9756 24.0625 12.0737 24.1836 12.0737Z" fill="#F770FF"/>
<path d="M36.2178 7.76587H25.1104C25.0246 7.76587 24.9551 7.83539 24.9551 7.92115V8.0125C24.9551 8.09826 25.0246 8.16778 25.1104 8.16778H36.2178C36.3035 8.16778 36.373 8.09826 36.373 8.0125V7.92115C36.373 7.83539 36.3035 7.76587 36.2178 7.76587Z" fill="white"/>
<path d="M36.2178 9.09937H25.1104C25.0246 9.09937 24.9551 9.16889 24.9551 9.25465V9.34599C24.9551 9.43175 25.0246 9.50128 25.1104 9.50128H36.2178C36.3035 9.50128 36.373 9.43175 36.373 9.34599V9.25465C36.373 9.16889 36.3035 9.09937 36.2178 9.09937Z" fill="white"/>
<path d="M33.7698 10.4329H25.1104C25.0246 10.4329 24.9551 10.5024 24.9551 10.5881V10.6795C24.9551 10.7653 25.0246 10.8348 25.1104 10.8348H33.7698C33.8555 10.8348 33.925 10.7653 33.925 10.6795V10.5881C33.925 10.5024 33.8555 10.4329 33.7698 10.4329Z" fill="white"/>
<path fill-rule="evenodd" clip-rule="evenodd" d="M24.1836 5.48408H25.7362C25.8572 5.48408 25.9554 5.38593 25.9554 5.26485V3.71239C25.9554 3.59131 25.8572 3.49316 25.7362 3.49316H24.1836C24.0625 3.49316 23.9644 3.59131 23.9644 3.71239V5.26485C23.9644 5.38593 24.0625 5.48408 24.1836 5.48408Z" fill="#9059FF"/>
<path d="M28.4116 3.39777C28.7095 3.29946 29.0592 3.36754 29.2476 3.58508C29.3525 3.70625 29.3691 3.85338 29.2983 4.00558C29.2364 4.13849 29.1079 4.27759 28.9132 4.42775C28.8349 4.48812 28.7454 4.55068 28.6445 4.61546L28.6347 4.62173L28.6382 4.62448C28.9351 4.8509 29.2146 4.89518 29.5648 4.80741L29.596 4.79934C29.7023 4.77118 29.7854 4.74224 29.9687 4.67028L30.1499 4.5985C30.4854 4.46626 30.6774 4.40726 30.9109 4.37974C31.2352 4.34153 31.547 4.39433 31.8679 4.55856C33.2541 5.26795 33.957 5.37634 34.9859 4.99659C35.0427 4.97563 35.1057 5.00468 35.1267 5.06148C35.1477 5.11827 35.1186 5.1813 35.0618 5.20226C34.4861 5.41475 34.0014 5.47576 33.4901 5.3969L33.4612 5.39231C32.989 5.31491 32.4833 5.11973 31.768 4.75372C31.4865 4.60964 31.2185 4.56424 30.9366 4.59746L30.9181 4.59972C30.7131 4.62587 30.5335 4.68246 30.2147 4.80861L30.0543 4.87221C29.8463 4.95397 29.7593 4.98375 29.6304 5.01693C29.2134 5.12425 28.8621 5.07095 28.5053 4.79878C28.4835 4.78216 28.4614 4.76383 28.4393 4.7441L28.4373 4.7423L28.4276 4.74798L28.3962 4.76625C28.0471 4.96783 27.5989 5.18898 27.0509 5.43035L27.0243 5.44203C26.9689 5.46636 26.9042 5.44116 26.8799 5.38573C26.8555 5.3303 26.8808 5.26563 26.9362 5.2413L26.9859 5.21942C27.5046 4.99029 27.9303 4.78038 28.2625 4.59028L28.2808 4.57971L28.2763 4.57437C28.1589 4.43423 28.0585 4.27293 28.0165 4.14294L28.0138 4.13433C27.907 3.78638 28.0829 3.50624 28.4116 3.39777ZM29.0818 3.72858C28.9562 3.58351 28.6997 3.53357 28.4803 3.60596C28.2579 3.67934 28.1542 3.84456 28.2233 4.07002C28.2563 4.17734 28.3514 4.32605 28.46 4.45192L28.4718 4.46539L28.4785 4.46115C28.5889 4.39197 28.6856 4.32571 28.7686 4.2624L28.7793 4.25416C29.1001 4.00672 29.1779 3.83956 29.0818 3.72858Z" fill="#9059FF"/>
<path d="M29.2934 7.36401H8.00327C7.03227 7.36401 6.24512 8.15117 6.24512 9.12217V23.8467C6.24512 24.8177 7.03227 25.6049 8.00327 25.6049H29.2934C30.2644 25.6049 31.0516 24.8177 31.0516 23.8467V9.12217C31.0516 8.15117 30.2644 7.36401 29.2934 7.36401Z" fill="#140B28"/>
<path d="M28.0571 6.45752H6.76694C5.79594 6.45752 5.00879 7.24467 5.00879 8.21567V22.9402C5.00879 23.9112 5.79594 24.6984 6.76694 24.6984H28.0571C29.0281 24.6984 29.8152 23.9112 29.8152 22.9402V8.21567C29.8152 7.24467 29.0281 6.45752 28.0571 6.45752Z" fill="white"/>
<path d="M28.0565 6.375H6.76635C5.74983 6.375 4.92578 7.19905 4.92578 8.21557V22.9401C4.92578 23.9566 5.74983 24.7807 6.76635 24.7807H28.0565C29.073 24.7807 29.8971 23.9566 29.8971 22.9401V8.21557C29.8971 7.19905 29.073 6.375 28.0565 6.375ZM6.76635 6.53983H28.0565C28.982 6.53983 29.7322 7.29008 29.7322 8.21557V22.9401C29.7322 23.8656 28.982 24.6158 28.0565 24.6158H6.76635C5.84086 24.6158 5.09061 23.8656 5.09061 22.9401V8.21557C5.09061 7.29008 5.84086 6.53983 6.76635 6.53983Z" fill="#140B28"/>
<path d="M7.16852 21.7535H26.9224C27.1045 21.7535 27.2521 21.6059 27.2521 21.4238V13.824C27.2521 13.642 27.1045 13.4944 26.9224 13.4944H7.16852C6.98646 13.4944 6.83887 13.642 6.83887 13.824V21.4238C6.83887 21.6059 6.98646 21.7535 7.16852 21.7535Z" fill="#F770FF"/>
<path d="M25.267 15.2759H8.56456C8.4356 15.2759 8.33105 15.3804 8.33105 15.5094V15.6467C8.33105 15.7757 8.4356 15.8802 8.56456 15.8802H25.267C25.396 15.8802 25.5005 15.7757 25.5005 15.6467V15.5094C25.5005 15.3804 25.396 15.2759 25.267 15.2759Z" fill="white"/>
<path d="M25.267 17.281H8.56456C8.4356 17.281 8.33105 17.3855 8.33105 17.5145V17.6519C8.33105 17.7808 8.4356 17.8854 8.56456 17.8854H25.267C25.396 17.8854 25.5005 17.7808 25.5005 17.6519V17.5145C25.5005 17.3855 25.396 17.281 25.267 17.281Z" fill="white"/>
<path d="M21.5859 19.2864H8.56456C8.4356 19.2864 8.33105 19.3909 8.33105 19.5199V19.6572C8.33105 19.7862 8.4356 19.8907 8.56456 19.8907H21.5859C21.7148 19.8907 21.8194 19.7862 21.8194 19.6572V19.5199C21.8194 19.3909 21.7148 19.2864 21.5859 19.2864Z" fill="white"/>
<path fill-rule="evenodd" clip-rule="evenodd" d="M7.16852 11.8449H9.50317C9.68524 11.8449 9.83283 11.6973 9.83283 11.5152V9.18073C9.83283 8.99867 9.68524 8.85107 9.50317 8.85107H7.16852C6.98646 8.85107 6.83887 8.99867 6.83887 9.18073V11.5152C6.83887 11.6973 6.98646 11.8449 7.16852 11.8449Z" fill="#9059FF"/>
<path d="M13.5282 8.7073C13.9762 8.55946 14.502 8.66183 14.7852 8.98895C14.943 9.17117 14.968 9.39241 14.8615 9.62127C14.7685 9.82114 14.5752 10.0303 14.2824 10.2561C14.1647 10.3469 14.0301 10.4409 13.8784 10.5384L13.8636 10.5478L13.8689 10.5519C14.3153 10.8924 14.7356 10.959 15.2622 10.827L15.3091 10.8149C15.469 10.7725 15.594 10.729 15.8697 10.6208L16.1421 10.5129C16.6465 10.314 16.9354 10.2253 17.2865 10.1839C17.7741 10.1264 18.2429 10.2058 18.7255 10.4528C20.81 11.5195 21.8669 11.6825 23.4141 11.1115C23.4995 11.08 23.5943 11.1236 23.6258 11.209C23.6573 11.2944 23.6137 11.3892 23.5283 11.4207C22.6625 11.7403 21.9337 11.832 21.1648 11.7134L21.1214 11.7065C20.4114 11.5901 19.6508 11.2966 18.5753 10.7463C18.1519 10.5296 17.7489 10.4613 17.325 10.5113L17.2973 10.5147C16.9889 10.554 16.7189 10.6391 16.2396 10.8288L15.9983 10.9244C15.6855 11.0474 15.5547 11.0922 15.3609 11.1421C14.7338 11.3034 14.2056 11.2233 13.669 10.814C13.6362 10.789 13.603 10.7615 13.5698 10.7318L13.5668 10.7291L13.5523 10.7376L13.505 10.7651C12.9801 11.0682 12.3061 11.4008 11.482 11.7637L11.4421 11.7813C11.3587 11.8179 11.2615 11.78 11.2249 11.6966C11.1883 11.6133 11.2262 11.516 11.3095 11.4794L11.3843 11.4465C12.1643 11.102 12.8045 10.7864 13.3039 10.5005L13.3315 10.4846L13.3247 10.4766C13.1482 10.2658 12.9973 10.0233 12.934 9.82783L12.9299 9.81487C12.7694 9.29165 13.0338 8.8704 13.5282 8.7073ZM14.536 9.20475C14.3471 8.9866 13.9614 8.91149 13.6315 9.02035C13.297 9.1307 13.1411 9.37915 13.2451 9.71817C13.2946 9.87955 13.4377 10.1032 13.601 10.2924L13.6186 10.3127L13.6288 10.3063C13.7948 10.2023 13.9402 10.1027 14.065 10.0075L14.0811 9.99507C14.5635 9.62298 14.6805 9.37163 14.536 9.20475Z" fill="#9059FF"/>
<circle cx="30.3508" cy="22.05" r="4.00476" fill="#9059FF" stroke="#9059FF" stroke-width="7.31707"/>
<path d="M29.5411 25.2378C29.3778 25.2377 29.2212 25.1728 29.1058 25.0574L27.2588 23.2104C27.1466 23.0942 27.0846 22.9387 27.086 22.7773C27.0874 22.6159 27.1521 22.4614 27.2663 22.3473C27.3804 22.2331 27.5348 22.1684 27.6963 22.167C27.8577 22.1656 28.0132 22.2276 28.1293 22.3398L29.4573 23.6678L33.3459 18.1126C33.4402 17.9805 33.5828 17.8909 33.7427 17.8634C33.9026 17.8359 34.0669 17.8726 34.1999 17.9656C34.3329 18.0586 34.4238 18.2003 34.4528 18.36C34.4819 18.5196 34.4467 18.6843 34.355 18.8181L30.0453 24.9749C29.994 25.049 29.9271 25.111 29.8492 25.1564C29.7713 25.2018 29.6844 25.2296 29.5946 25.2378C29.5768 25.2387 29.5589 25.2387 29.5411 25.2378V25.2378Z" fill="white"/>
</svg>
