<svg width="41" height="31" viewBox="0 0 41 31" fill="none" xmlns="http://www.w3.org/2000/svg">
<path opacity="0.5" fill-rule="evenodd" clip-rule="evenodd" d="M17.2844 0.0159198C22.5116 -0.287293 27.1204 3.78913 30.1319 8.11543C32.9046 12.0988 33.9906 17.2162 32.3662 21.8008C30.9103 25.91 26.6381 27.5338 22.591 29.0624C19.1334 30.3684 15.508 30.4316 11.9778 29.3417C7.33439 27.9082 1.56841 26.7995 0.247481 22.0801C-1.09832 17.2719 3.34216 13.446 6.39194 9.5119C9.49674 5.50677 12.2565 0.307566 17.2844 0.0159198Z" fill="#D9BFFF"/>
<path d="M15.8886 3.92693C15.9015 4.24845 15.8892 4.47124 15.8886 5.0441C15.8885 5.09421 15.8886 4.99393 15.8886 5.0441C15.8884 5.5002 15.8779 5.86877 15.8886 6.16127C15.8939 6.30655 16.0214 6.44584 16.1679 6.44057C16.3144 6.43529 16.4525 6.30655 16.4472 6.16127C16.4369 5.87695 16.4469 5.49414 16.4472 5.0441C16.4472 4.99407 16.4471 5.09418 16.4472 5.0441C16.4477 4.46419 16.4603 4.25786 16.4472 3.92693C16.4414 3.78166 16.3143 3.64189 16.1679 3.64763C16.0214 3.65338 15.8828 3.78166 15.8886 3.92693Z" fill="#FCD400"/>
<path d="M15.3284 5.32291C15.4715 5.3306 15.6761 5.31709 15.887 5.32291C15.9141 5.32366 15.8379 5.3216 15.887 5.32291C16.3208 5.33458 16.4953 5.30242 16.7249 5.32291C16.8621 5.33517 16.9918 5.18018 17.0042 5.04362C17.0164 4.90707 16.8622 4.77658 16.7249 4.76433C16.4814 4.74259 16.3313 4.77628 15.887 4.76433C15.8381 4.76302 15.9141 4.76507 15.887 4.76433C15.6802 4.75862 15.4661 4.77172 15.3284 4.76433C15.1908 4.75694 15.0565 4.90671 15.0491 5.04362C15.0416 5.18053 15.1908 5.31553 15.3284 5.32291Z" fill="#FCD400"/>
<path d="M38.8958 0.844727H24.7376C24.0918 0.844727 23.5684 1.3682 23.5684 2.01393V11.806C23.5684 12.4517 24.0918 12.9752 24.7376 12.9752H38.8958C39.5416 12.9752 40.065 12.4517 40.065 11.806V2.01393C40.065 1.3682 39.5416 0.844727 38.8958 0.844727Z" fill="#140B28"/>
<path d="M38.0726 0.242188H23.9143C23.2686 0.242188 22.7451 0.765656 22.7451 1.41139V11.2034C22.7451 11.8492 23.2686 12.3726 23.9143 12.3726H38.0726C38.7183 12.3726 39.2418 11.8492 39.2418 11.2034V1.41139C39.2418 0.765656 38.7183 0.242188 38.0726 0.242188Z" fill="white"/>
<path d="M38.0737 0.1875H23.9154C23.2394 0.1875 22.6914 0.735506 22.6914 1.41151V11.2036C22.6914 11.8796 23.2394 12.4276 23.9154 12.4276H38.0737C38.7497 12.4276 39.2977 11.8796 39.2977 11.2036V1.41151C39.2977 0.735506 38.7497 0.1875 38.0737 0.1875ZM23.9154 0.297113H38.0737C38.6892 0.297113 39.1881 0.796044 39.1881 1.41151V11.2036C39.1881 11.819 38.6892 12.318 38.0737 12.318H23.9154C23.2999 12.318 22.801 11.819 22.801 11.2036V1.41151C22.801 0.796044 23.2999 0.297113 23.9154 0.297113Z" fill="#140B28"/>
<path d="M24.1841 10.4143H37.3207C37.4418 10.4143 37.54 10.3162 37.54 10.1951V5.1411C37.54 5.02003 37.4418 4.92188 37.3207 4.92188H24.1841C24.063 4.92188 23.9648 5.02003 23.9648 5.1411V10.1951C23.9648 10.3162 24.063 10.4143 24.1841 10.4143Z" fill="#F770FF"/>
<path d="M36.2187 6.10645H25.1113C25.0256 6.10645 24.9561 6.17597 24.9561 6.26173V6.35307C24.9561 6.43883 25.0256 6.50836 25.1113 6.50836H36.2187C36.3045 6.50836 36.374 6.43883 36.374 6.35307V6.26173C36.374 6.17597 36.3045 6.10645 36.2187 6.10645Z" fill="white"/>
<path d="M36.2187 7.44043H25.1113C25.0256 7.44043 24.9561 7.50995 24.9561 7.59571V7.68706C24.9561 7.77282 25.0256 7.84234 25.1113 7.84234H36.2187C36.3045 7.84234 36.374 7.77282 36.374 7.68706V7.59571C36.374 7.50995 36.3045 7.44043 36.2187 7.44043Z" fill="white"/>
<path d="M33.7707 8.77344H25.1113C25.0256 8.77344 24.9561 8.84296 24.9561 8.92872V9.02007C24.9561 9.10583 25.0256 9.17535 25.1113 9.17535H33.7707C33.8565 9.17535 33.926 9.10583 33.926 9.02007V8.92872C33.926 8.84296 33.8565 8.77344 33.7707 8.77344Z" fill="white"/>
<path d="M29.2934 5.70508H8.00327C7.03227 5.70508 6.24512 6.49223 6.24512 7.46323V22.1878C6.24512 23.1588 7.03227 23.9459 8.00327 23.9459H29.2934C30.2644 23.9459 31.0516 23.1588 31.0516 22.1878V7.46323C31.0516 6.49223 30.2644 5.70508 29.2934 5.70508Z" fill="#140B28"/>
<path d="M28.0571 4.79883H6.76694C5.79594 4.79883 5.00879 5.58598 5.00879 6.55698V21.2815C5.00879 22.2525 5.79594 23.0397 6.76694 23.0397H28.0571C29.0281 23.0397 29.8152 22.2525 29.8152 21.2815V6.55698C29.8152 5.58598 29.0281 4.79883 28.0571 4.79883Z" fill="white"/>
<path d="M28.0565 4.71582H6.76635C5.74983 4.71582 4.92578 5.53987 4.92578 6.55639V21.2809C4.92578 22.2974 5.74983 23.1215 6.76635 23.1215H28.0565C29.073 23.1215 29.8971 22.2974 29.8971 21.2809V6.55639C29.8971 5.53987 29.073 4.71582 28.0565 4.71582ZM6.76635 4.88065H28.0565C28.982 4.88065 29.7322 5.6309 29.7322 6.55639V21.2809C29.7322 22.2064 28.982 22.9567 28.0565 22.9567H6.76635C5.84086 22.9567 5.09061 22.2064 5.09061 21.2809V6.55639C5.09061 5.6309 5.84086 4.88065 6.76635 4.88065Z" fill="#140B28"/>
<path d="M7.16852 20.0941H26.9224C27.1045 20.0941 27.2521 19.9465 27.2521 19.7644V12.1646C27.2521 11.9826 27.1045 11.835 26.9224 11.835H7.16852C6.98646 11.835 6.83887 11.9826 6.83887 12.1646V19.7644C6.83887 19.9465 6.98646 20.0941 7.16852 20.0941Z" fill="#F770FF"/>
<path d="M25.267 13.6162H8.56456C8.4356 13.6162 8.33105 13.7208 8.33105 13.8497V13.9871C8.33105 14.116 8.4356 14.2206 8.56456 14.2206H25.267C25.396 14.2206 25.5005 14.116 25.5005 13.9871V13.8497C25.5005 13.7208 25.396 13.6162 25.267 13.6162Z" fill="white"/>
<path d="M25.267 15.6221H8.56456C8.4356 15.6221 8.33105 15.7266 8.33105 15.8556V15.9929C8.33105 16.1219 8.4356 16.2264 8.56456 16.2264H25.267C25.396 16.2264 25.5005 16.1219 25.5005 15.9929V15.8556C25.5005 15.7266 25.396 15.6221 25.267 15.6221Z" fill="white"/>
<path d="M21.5859 17.627H8.56456C8.4356 17.627 8.33105 17.7315 8.33105 17.8605V17.9978C8.33105 18.1268 8.4356 18.2313 8.56456 18.2313H21.5859C21.7148 18.2313 21.8194 18.1268 21.8194 17.9978V17.8605C21.8194 17.7315 21.7148 17.627 21.5859 17.627Z" fill="white"/>
<path d="M13.5282 7.04861C13.9762 6.90077 14.502 7.00314 14.7852 7.33026C14.943 7.51248 14.968 7.73372 14.8615 7.96257C14.7685 8.16245 14.5752 8.37161 14.2824 8.59741C14.1647 8.68818 14.0301 8.78226 13.8784 8.87967L13.8636 8.8891L13.8689 8.89323C14.3153 9.23371 14.7356 9.30029 15.2622 9.1683L15.3091 9.15617C15.469 9.11382 15.594 9.07031 15.8697 8.9621L16.1421 8.85416C16.6465 8.65531 16.9354 8.56659 17.2865 8.52522C17.7741 8.46775 18.2429 8.54715 18.7255 8.79412C20.81 9.86084 21.8669 10.0238 23.4141 9.45279C23.4995 9.42127 23.5943 9.46495 23.6258 9.55035C23.6573 9.63575 23.6137 9.73054 23.5283 9.76205C22.6625 10.0816 21.9337 10.1733 21.1648 10.0547L21.1214 10.0478C20.4114 9.93144 19.6508 9.63795 18.5753 9.08758C18.1519 8.87091 17.7489 8.80265 17.325 8.85261L17.2973 8.85601C16.9889 8.89532 16.7189 8.98043 16.2396 9.17012L15.9983 9.26576C15.6855 9.3887 15.5547 9.43348 15.3609 9.48336C14.7338 9.64475 14.2056 9.5646 13.669 9.15534C13.6362 9.13034 13.603 9.10278 13.5698 9.07311L13.5668 9.07041L13.5523 9.07894L13.505 9.10642C12.9801 9.40954 12.3061 9.74209 11.482 10.105L11.4421 10.1226C11.3587 10.1592 11.2615 10.1213 11.2249 10.0379C11.1883 9.95459 11.2262 9.85735 11.3095 9.82075L11.3843 9.78785C12.1643 9.44331 12.8045 9.12766 13.3039 8.84181L13.3315 8.82591L13.3247 8.81788C13.1482 8.60714 12.9973 8.3646 12.934 8.16914L12.9299 8.15618C12.7694 7.63296 13.0338 7.21171 13.5282 7.04861ZM14.536 7.54605C14.3471 7.3279 13.9614 7.2528 13.6315 7.36166C13.297 7.47201 13.1411 7.72046 13.2451 8.05947C13.2946 8.22086 13.4377 8.44448 13.601 8.63376L13.6186 8.654L13.6288 8.64763C13.7948 8.54361 13.9402 8.44397 14.065 8.34877L14.0811 8.33638C14.5635 7.96429 14.6805 7.71294 14.536 7.54605Z" fill="#9059FF"/>
<circle cx="30.3508" cy="20.3908" r="4.00476" fill="#9059FF" stroke="#9059FF" stroke-width="7.31707"/>
<path d="M25.1496 16.8588L26.5407 17.662C27.8628 15.3721 30.8022 14.5741 33.1043 15.9032C33.9292 16.3795 34.5626 17.0735 34.9787 17.8882L33.4947 18.5252C33.2254 18.025 32.8182 17.5929 32.3012 17.2944C30.7746 16.413 28.8133 16.9386 27.9319 18.4651L29.2984 19.2541L25.6186 20.8229L25.1496 16.8588ZM33.4596 21.6566C32.5782 23.1831 30.6169 23.7087 29.0903 22.8273C28.5733 22.5288 28.1855 22.0915 27.8968 21.5965L26.4128 22.2335C26.8288 23.0482 27.4623 23.7422 28.2871 24.2185C30.577 25.5405 33.5216 24.7619 34.8508 22.4597L36.2296 23.2558L35.7483 19.2846L32.0684 20.8534L33.4596 21.6566Z" fill="white"/>
</svg>
