<svg width="40" height="31" viewBox="0 0 40 31" fill="none" xmlns="http://www.w3.org/2000/svg">
<path opacity="0.5" fill-rule="evenodd" clip-rule="evenodd" d="M16.6471 1.61372C21.6816 1.32169 26.1205 5.24781 29.0209 9.41459C31.6914 13.2511 32.7373 18.1798 31.1728 22.5954C29.7706 26.553 25.656 28.117 21.758 29.5893C18.4279 30.847 14.9362 30.9079 11.5362 29.8583C7.06396 28.4776 1.51058 27.4097 0.238356 22.8644C-1.05783 18.2334 3.21893 14.5486 6.15626 10.7596C9.14659 6.90212 11.8046 1.89461 16.6471 1.61372Z" fill="#D9BFFF"/>
<path d="M15.3001 5.37976C15.3125 5.68943 15.3006 5.904 15.3001 6.45574C15.2999 6.504 15.3001 6.40742 15.3001 6.45574C15.2998 6.89503 15.2897 7.25 15.3001 7.53172C15.3052 7.67164 15.428 7.8058 15.5691 7.80072C15.7101 7.79563 15.8432 7.67164 15.8381 7.53172C15.8281 7.25788 15.8378 6.88918 15.8381 6.45574C15.8381 6.40755 15.8379 6.50397 15.8381 6.45574C15.8386 5.89721 15.8507 5.69849 15.8381 5.37976C15.8324 5.23985 15.71 5.10523 15.5691 5.11076C15.428 5.1163 15.2944 5.23985 15.3001 5.37976Z" fill="#FCD400"/>
<path d="M14.7619 6.72489C14.8998 6.73229 15.0968 6.71929 15.2999 6.72489C15.326 6.72561 15.2527 6.72363 15.2999 6.72489C15.7177 6.73613 15.8858 6.70516 16.1069 6.72489C16.2391 6.73669 16.364 6.58743 16.3759 6.4559C16.3877 6.32438 16.2392 6.1987 16.1069 6.1869C15.8725 6.16597 15.7278 6.19841 15.2999 6.1869C15.2528 6.18565 15.326 6.18762 15.2999 6.1869C15.1008 6.1814 14.8946 6.19403 14.7619 6.1869C14.6294 6.17979 14.5 6.32404 14.4929 6.4559C14.4857 6.58776 14.6294 6.71778 14.7619 6.72489Z" fill="#FCD400"/>
<path d="M31.4391 18.2916C31.623 18.2839 31.6455 18.2841 31.9771 18.2916C32.0291 18.2929 32.2169 18.2911 32.2461 18.2916C32.5091 18.2973 32.6029 18.3003 32.7841 18.2916C32.9221 18.2849 33.0594 18.1677 33.0531 18.0226C33.0468 17.8777 32.922 17.7471 32.7841 17.7536C32.6164 17.7618 32.499 17.759 32.2461 17.7536C32.2173 17.753 32.029 17.7549 31.9771 17.7536C31.6352 17.7459 31.6368 17.7452 31.4391 17.7536C31.3012 17.7594 31.1646 17.8775 31.1701 18.0226C31.1756 18.1677 31.301 18.2975 31.4391 18.2916Z" fill="#EAF3F3"/>
<path d="M32.5153 18.8295C32.5181 18.7023 32.5142 18.4731 32.5153 18.2915C32.5154 18.2605 32.515 18.3474 32.5153 18.2915C32.5173 17.8701 32.5043 17.7079 32.5153 17.4845C32.522 17.3471 32.3886 17.222 32.2463 17.2156C32.1038 17.2091 31.984 17.347 31.9773 17.4845C31.9659 17.7173 31.9793 17.863 31.9773 18.2915C31.977 18.3474 31.9774 18.2606 31.9773 18.2915C31.9762 18.4706 31.98 18.7055 31.9773 18.8295C31.9742 18.9671 32.1038 19.0957 32.2463 19.0985C32.3887 19.1015 32.5122 18.9671 32.5153 18.8295Z" fill="#EAF3F3"/>
<path d="M29.5565 2.42081C29.5636 2.56665 29.5417 2.73401 29.5565 2.95881C29.5587 2.99054 29.5545 2.92711 29.5565 2.95881C29.5928 3.50767 29.5565 3.72729 29.5565 4.03479C29.5565 4.16403 29.6999 4.30378 29.8255 4.30378C29.9512 4.30378 30.0945 4.16403 30.0945 4.03479C30.0945 3.71322 30.1315 3.51815 30.0945 2.95881C30.0925 2.92712 30.0967 2.99046 30.0945 2.95881C30.08 2.73658 30.1015 2.56319 30.0945 2.42081C30.0881 2.29172 29.951 2.14535 29.8255 2.15182C29.7001 2.15828 29.5502 2.29173 29.5565 2.42081Z" fill="#90BFFF"/>
<path d="M29.2876 3.49681C29.5428 3.52522 29.6424 3.52464 30.0946 3.49681C30.2006 3.49029 30.3046 3.49983 30.3636 3.49681C30.4777 3.49097 30.5424 3.49681 30.6326 3.49681C30.7677 3.49681 30.9016 3.36424 30.9016 3.22782C30.9016 3.0914 30.7677 2.95882 30.6326 2.95882C30.5332 2.95882 30.4851 2.9526 30.3636 2.95882C30.3024 2.96195 30.2023 2.9522 30.0946 2.95882C29.6704 2.98492 29.5056 2.9831 29.2876 2.95882C29.1533 2.94388 29.0334 3.09222 29.0186 3.22782C29.0038 3.36341 29.1533 3.48187 29.2876 3.49681Z" fill="#90BFFF"/>
<path d="M7.22992 25.0165C7.23697 25.1623 7.21502 25.3297 7.22992 25.5545C7.23196 25.5863 7.22787 25.5229 7.22992 25.5545C7.2662 26.1034 7.22992 26.323 7.22992 26.6305C7.22992 26.7597 7.37333 26.8995 7.49891 26.8995C7.62461 26.8995 7.76791 26.7597 7.76791 26.6305C7.76791 26.3089 7.80488 26.1138 7.76791 25.5545C7.76586 25.5228 7.77007 25.5861 7.76791 25.5545C7.75335 25.3323 7.77485 25.1589 7.76791 25.0165C7.76165 24.8874 7.62449 24.7411 7.49891 24.7475C7.37344 24.7541 7.22366 24.8874 7.22992 25.0165Z" fill="#90BFFF"/>
<path d="M6.96093 26.0924C7.21598 26.1208 7.31577 26.1203 7.76792 26.0924C7.83015 26.0885 8.00207 26.0944 8.03691 26.0924C8.19586 26.0831 8.19391 26.0924 8.30591 26.0924C8.44089 26.0924 8.5749 25.9598 8.5749 25.8234C8.5749 25.6869 8.44089 25.5544 8.30591 25.5544C8.18278 25.5544 8.2043 25.5446 8.03691 25.5544C8.00133 25.5564 7.83076 25.5504 7.76792 25.5544C7.34376 25.5804 7.17894 25.5787 6.96093 25.5544C6.82668 25.5394 6.70673 25.6878 6.69193 25.8234C6.67714 25.959 6.82668 26.0774 6.96093 26.0924Z" fill="#90BFFF"/>
<path fill-rule="evenodd" clip-rule="evenodd" d="M32.2465 12.3739C32.2654 12.6672 32.7591 12.6666 32.7845 12.3739C32.8436 11.6943 33.1313 11.3396 33.5915 11.2979C33.6282 11.2973 33.5529 11.3004 33.5915 11.2979C33.8972 11.2774 33.8979 10.7599 33.5915 10.7599C33.551 10.7599 33.6306 10.757 33.5915 10.7599C33.102 10.7639 32.8945 10.7956 32.7845 10.2219C32.7794 10.1954 32.7975 10.023 32.7845 9.95294C32.7724 9.88825 32.7927 9.99347 32.7845 9.95294C32.7288 9.67944 32.2612 9.67421 32.2465 9.95294C32.2442 9.99408 32.2486 9.88175 32.2465 9.95294C32.2436 10.049 32.2516 10.1731 32.2465 10.2219C32.234 10.3404 32.3098 10.3802 32.2465 10.4909C32.1348 10.6859 31.7734 10.7654 31.4395 10.7599C31.1342 10.7551 31.1353 11.2706 31.4395 11.2979C31.8343 11.3335 31.932 11.4798 31.9775 11.5669C32.117 11.8386 32.2266 12.0673 32.2465 12.3739ZM33.5915 10.7599C33.6222 10.7596 33.5583 10.7622 33.5915 10.7599V10.7599C33.5631 10.7489 33.6279 10.7595 33.5915 10.7599ZM33.5915 11.2979C33.6203 11.2955 33.5607 11.2979 33.5915 11.2979V11.2979C33.5657 11.31 33.6252 11.2952 33.5915 11.2979ZM32.2465 11.0289C32.3449 10.9594 32.4486 10.8604 32.5155 10.7599C32.5872 10.8882 32.6736 10.9515 32.7845 11.0289C32.6853 11.118 32.5865 11.4423 32.5155 11.5669C32.4924 11.514 32.5419 11.3494 32.5155 11.2979C32.4707 11.2123 32.3293 11.0891 32.2465 11.0289Z" fill="#FCD400"/>
<path fill-rule="evenodd" clip-rule="evenodd" d="M4.8088 18.2918C5.11474 18.2716 5.11545 17.7539 4.8088 17.7539C4.76888 17.7539 4.84729 17.7509 4.8088 17.7539C4.3162 17.7579 4.11243 17.7943 4.00181 17.2159C3.99694 17.1905 4.01417 17.0132 4.00181 16.9469C3.98969 16.8818 4.01001 16.9874 4.00181 16.9469C3.94621 16.6733 3.47855 16.6681 3.46382 16.9469C3.46168 16.9879 3.46596 16.876 3.46382 16.9469C3.46109 17.0411 3.46869 17.1678 3.46382 17.2159C3.45158 17.3363 3.5275 17.3732 3.46382 17.4849C3.3519 17.6798 2.98975 17.7604 2.65683 17.7539C2.35137 17.748 2.35267 18.2638 2.65683 18.2918C3.05224 18.3285 3.14932 18.4738 3.19482 18.5608C3.33384 18.8325 3.44362 19.0611 3.46382 19.3678C3.48331 19.6609 3.97627 19.6603 4.00181 19.3678C4.06098 18.6875 4.34769 18.3329 4.8088 18.2918C4.84492 18.2912 4.7709 18.2943 4.8088 18.2918ZM4.8088 17.7539C4.8391 17.7535 4.77612 17.756 4.8088 17.7539V17.7539C4.78076 17.7432 4.84468 17.7534 4.8088 17.7539ZM4.8088 18.2918C4.83719 18.2896 4.77862 18.2918 4.8088 18.2918V18.2918C4.78325 18.3035 4.84195 18.2892 4.8088 18.2918ZM3.46382 18.0228C3.5622 17.9533 3.66592 17.8544 3.73282 17.7539C3.80446 17.8822 3.89084 17.9456 4.00181 18.0228C3.9026 18.112 3.80398 18.4361 3.73282 18.5608C3.70989 18.5079 3.75919 18.3432 3.73282 18.2918C3.68802 18.206 3.54675 18.0831 3.46382 18.0228Z" fill="#EAF3F3"/>
<path d="M19.3349 3.22798V3.22798C19.3349 3.09852 19.2145 2.95898 19.0659 2.95898C18.9174 2.95898 18.7969 3.09852 18.7969 3.22798V3.22798C18.7969 3.35745 18.9174 3.49698 19.0659 3.49698C19.2145 3.49698 19.3349 3.35745 19.3349 3.22798Z" fill="#90BFFF"/>
<path d="M37.3573 15.6018V15.6018C37.3573 15.4722 37.2368 15.3328 37.0883 15.3328C36.9397 15.3328 36.8193 15.4722 36.8193 15.6018V15.6018C36.8193 15.7313 36.9397 15.8708 37.0883 15.8708C37.2368 15.8708 37.3573 15.7313 37.3573 15.6018Z" fill="#90BFFF"/>
<path d="M36.5502 6.72505V6.72505C36.5502 6.59531 36.4297 6.45605 36.2812 6.45605C36.1326 6.45605 36.0122 6.59531 36.0122 6.72505V6.72505C36.0122 6.8548 36.1326 6.99405 36.2812 6.99405C36.4297 6.99405 36.5502 6.8548 36.5502 6.72505Z" fill="#EAF3F3"/>
<path d="M38.1645 9.14595V9.14595C38.1645 9.01648 38.0439 8.87695 37.8955 8.87695C37.7468 8.87695 37.6265 9.01648 37.6265 9.14595V9.14595C37.6265 9.27542 37.7468 9.41494 37.8955 9.41494C38.0439 9.41494 38.1645 9.27542 38.1645 9.14595Z" fill="#4E6AF0"/>
<path d="M34.9364 1.34492V1.34492C34.9364 1.21545 34.8161 1.07593 34.6674 1.07593C34.5188 1.07593 34.3984 1.21545 34.3984 1.34492V1.34492C34.3984 1.47439 34.5188 1.61392 34.6674 1.61392C34.8161 1.61392 34.9364 1.47439 34.9364 1.34492Z" fill="#FCD400"/>
<path d="M2.11905 20.9816V20.9816C2.11905 20.8518 1.99854 20.7126 1.85005 20.7126C1.70143 20.7126 1.58105 20.8518 1.58105 20.9816V20.9816C1.58105 21.1114 1.70143 21.2506 1.85005 21.2506C1.99854 21.2506 2.11905 21.1114 2.11905 20.9816Z" fill="#FCD400"/>
<path d="M10.4579 7.53194V7.53194C10.4579 7.39341 10.3375 7.26294 10.1889 7.26294C10.0404 7.26294 9.91992 7.39341 9.91992 7.53194V7.53194C9.91992 7.67046 10.0404 7.80093 10.1889 7.80093C10.3375 7.80093 10.4579 7.67046 10.4579 7.53194Z" fill="#EAF3F3"/>
<path d="M12.0722 1.61397V1.61397C12.0722 1.47577 11.9518 1.34497 11.8032 1.34497C11.6547 1.34497 11.5342 1.47577 11.5342 1.61397V1.61397C11.5342 1.75217 11.6547 1.88296 11.8032 1.88296C11.9518 1.88296 12.0722 1.75217 12.0722 1.61397Z" fill="#4E6AF0"/>
<path d="M26.8666 3.76582V3.76582C26.8666 3.64405 26.7462 3.49683 26.5976 3.49683C26.4491 3.49683 26.3286 3.64405 26.3286 3.76582V3.76582C26.3286 3.8876 26.4491 4.03482 26.5976 4.03482C26.7462 4.03482 26.8666 3.8876 26.8666 3.76582Z" fill="#EAF3F3"/>
<path d="M24.1767 0.268996V0.268996C24.1767 0.139255 24.0563 0 23.9077 0C23.7592 0 23.6387 0.139255 23.6387 0.268996V0.268996C23.6387 0.398748 23.7592 0.537991 23.9077 0.537991C24.0563 0.537991 24.1767 0.398748 24.1767 0.268996Z" fill="#FCD400"/>
<path d="M35.2055 24.7475V24.7475C35.2055 24.618 35.0851 24.4785 34.9365 24.4785C34.7879 24.4785 34.6675 24.618 34.6675 24.7475V24.7475C34.6675 24.8769 34.7879 25.0165 34.9365 25.0165C35.0851 25.0165 35.2055 24.8769 35.2055 24.7475Z" fill="#FCD400"/>
<path d="M5.61612 12.1049V12.1049C5.61612 11.971 5.49574 11.8359 5.34712 11.8359C5.19864 11.8359 5.07812 11.971 5.07812 12.1049V12.1049C5.07812 12.2388 5.19864 12.3739 5.34712 12.3739C5.49574 12.3739 5.61612 12.2388 5.61612 12.1049Z" fill="#90BFFF"/>
<path d="M33.3227 21.2507V21.2507C33.3227 21.1168 33.2021 20.9817 33.0537 20.9817C32.905 20.9817 32.7847 21.1168 32.7847 21.2507V21.2507C32.7847 21.3845 32.905 21.5197 33.0537 21.5197C33.2021 21.5197 33.3227 21.3845 33.3227 21.2507Z" fill="#4E6AF0"/>
<path d="M7.76797 19.3676V19.3676C7.76797 19.2334 7.64746 19.0986 7.49898 19.0986C7.35036 19.0986 7.22998 19.2334 7.22998 19.3676V19.3676C7.22998 19.5018 7.35036 19.6366 7.49898 19.6366C7.64746 19.6366 7.76797 19.5018 7.76797 19.3676Z" fill="#4E6AF0"/>
<path d="M30.3632 15.0637V15.0637C30.3632 14.9298 30.2428 14.7947 30.0942 14.7947C29.9456 14.7947 29.8252 14.9298 29.8252 15.0637V15.0637C29.8252 15.1974 29.9456 15.3327 30.0942 15.3327C30.2428 15.3327 30.3632 15.1974 30.3632 15.0637Z" fill="#EAF3F3"/>
<path d="M2.92617 24.7475V24.7475C2.92617 24.6136 2.80566 24.4785 2.65718 24.4785C2.50856 24.4785 2.38818 24.6136 2.38818 24.7475V24.7475C2.38818 24.8813 2.50856 25.0165 2.65718 25.0165C2.80566 25.0165 2.92617 24.8813 2.92617 24.7475Z" fill="#EAF3F3"/>
<path d="M38.6466 4.19141H25.0104C24.3884 4.19141 23.8843 4.69557 23.8843 5.3175V14.7485C23.8843 15.3704 24.3884 15.8746 25.0104 15.8746H38.6466C39.2685 15.8746 39.7727 15.3704 39.7727 14.7485V5.3175C39.7727 4.69557 39.2685 4.19141 38.6466 4.19141Z" fill="#140B28"/>
<path d="M37.8551 3.6106H24.2189C23.5969 3.6106 23.0928 4.11476 23.0928 4.73669V14.1677C23.0928 14.7896 23.5969 15.2938 24.2189 15.2938H37.8551C38.477 15.2938 38.9812 14.7896 38.9812 14.1677V4.73669C38.9812 4.11476 38.477 3.6106 37.8551 3.6106Z" fill="white"/>
<path d="M37.8552 3.55786H24.2189C23.5678 3.55786 23.04 4.08566 23.04 4.73674V14.1677C23.04 14.8188 23.5678 15.3466 24.2189 15.3466H37.8552C38.5062 15.3466 39.034 14.8188 39.034 14.1677V4.73674C39.034 4.08566 38.5062 3.55786 37.8552 3.55786ZM24.2189 3.66343H37.8552C38.4479 3.66343 38.9285 4.14397 38.9285 4.73674V14.1677C38.9285 14.7605 38.4479 15.2411 37.8552 15.2411H24.2189C23.6261 15.2411 23.1456 14.7605 23.1456 14.1677V4.73674C23.1456 4.14397 23.6261 3.66343 24.2189 3.66343Z" fill="#140B28"/>
<path d="M24.4777 13.4078H37.13C37.2467 13.4078 37.3412 13.3133 37.3412 13.1967V8.32906C37.3412 8.21245 37.2467 8.11792 37.13 8.11792H24.4777C24.3611 8.11792 24.2666 8.21245 24.2666 8.32906V13.1967C24.2666 13.3133 24.3611 13.4078 24.4777 13.4078Z" fill="#F770FF"/>
<path d="M36.0691 9.25879H25.3712C25.2886 9.25879 25.2217 9.32575 25.2217 9.40835V9.49632C25.2217 9.57892 25.2886 9.64588 25.3712 9.64588H36.0691C36.1517 9.64588 36.2187 9.57892 36.2187 9.49632V9.40835C36.2187 9.32575 36.1517 9.25879 36.0691 9.25879Z" fill="white"/>
<path d="M36.0691 10.5432H25.3712C25.2886 10.5432 25.2217 10.6102 25.2217 10.6928V10.7807C25.2217 10.8633 25.2886 10.9303 25.3712 10.9303H36.0691C36.1517 10.9303 36.2187 10.8633 36.2187 10.7807V10.6928C36.2187 10.6102 36.1517 10.5432 36.0691 10.5432Z" fill="white"/>
<path d="M33.7113 11.8274H25.3712C25.2886 11.8274 25.2217 11.8944 25.2217 11.977V12.0649C25.2217 12.1475 25.2886 12.2145 25.3712 12.2145H33.7113C33.7939 12.2145 33.8609 12.1475 33.8609 12.0649V11.977C33.8609 11.8944 33.7939 11.8274 33.7113 11.8274Z" fill="white"/>
<path fill-rule="evenodd" clip-rule="evenodd" d="M24.4777 7.06106H25.9731C26.0897 7.06106 26.1842 6.96653 26.1842 6.84992V5.3547C26.1842 5.23809 26.0897 5.14355 25.9731 5.14355H24.4777C24.3611 5.14355 24.2666 5.23809 24.2666 5.3547V6.84992C24.2666 6.96653 24.3611 7.06106 24.4777 7.06106Z" fill="#9059FF"/>
<path d="M28.5496 5.05167C28.8366 4.95698 29.1733 5.02254 29.3548 5.23207C29.4558 5.34877 29.4718 5.49048 29.4036 5.63706C29.344 5.76508 29.2202 5.89904 29.0327 6.04367C28.9573 6.10181 28.8711 6.16206 28.7739 6.22445L28.7644 6.2305L28.7679 6.23314C29.0538 6.45122 29.323 6.49386 29.6602 6.40933L29.6903 6.40156C29.7927 6.37443 29.8728 6.34656 30.0493 6.27725L30.2238 6.20812C30.5469 6.08076 30.7319 6.02393 30.9568 5.99743C31.2691 5.96062 31.5694 6.01148 31.8785 6.16966C33.2136 6.85289 33.8905 6.95729 34.8815 6.59154C34.9362 6.57135 34.9969 6.59933 35.0171 6.65403C35.0373 6.70873 35.0093 6.76943 34.9546 6.78962C34.4001 6.99428 33.9333 7.05303 33.4408 6.97708L33.413 6.97266C32.9583 6.89812 32.4711 6.71014 31.7823 6.35762C31.5111 6.21885 31.253 6.17513 30.9815 6.20712L30.9637 6.2093C30.7662 6.23448 30.5933 6.28899 30.2862 6.41049L30.1317 6.47174C29.9314 6.55049 29.8476 6.57917 29.7234 6.61112C29.3218 6.71449 28.9835 6.66315 28.6398 6.40102C28.6188 6.38501 28.5976 6.36736 28.5763 6.34835L28.5743 6.34662L28.5651 6.35209L28.5348 6.36969C28.1986 6.56384 27.7669 6.77683 27.239 7.0093L27.2135 7.02055C27.1601 7.04399 27.0978 7.01971 27.0744 6.96632C27.0509 6.91294 27.0752 6.85066 27.1286 6.82722L27.1764 6.80614C27.6761 6.58546 28.0861 6.3833 28.406 6.20021L28.4236 6.19003L28.4193 6.18488C28.3062 6.0499 28.2096 5.89456 28.1691 5.76936L28.1664 5.76106C28.0636 5.42595 28.233 5.15614 28.5496 5.05167ZM29.1951 5.37028C29.0741 5.23056 28.8271 5.18245 28.6158 5.25218C28.4016 5.32285 28.3017 5.48199 28.3683 5.69913C28.4 5.80249 28.4917 5.94572 28.5962 6.06695L28.6076 6.07992L28.6141 6.07584C28.7204 6.00921 28.8135 5.94539 28.8934 5.88442L28.9038 5.87648C29.2128 5.63816 29.2877 5.47717 29.1951 5.37028Z" fill="#9059FF"/>
<path d="M29.3987 8.87158H8.89352C7.95832 8.87158 7.2002 9.62971 7.2002 10.5649V24.7465C7.2002 25.6817 7.95832 26.4399 8.89352 26.4399H29.3987C30.3339 26.4399 31.092 25.6817 31.092 24.7465V10.5649C31.092 9.62971 30.3339 8.87158 29.3987 8.87158Z" fill="#140B28"/>
<path d="M28.2082 7.99854H7.70309C6.76789 7.99854 6.00977 8.75666 6.00977 9.69186V23.8735C6.00977 24.8087 6.76789 25.5668 7.70309 25.5668H28.2082C29.1434 25.5668 29.9016 24.8087 29.9016 23.8735V9.69186C29.9016 8.75666 29.1434 7.99854 28.2082 7.99854Z" fill="white"/>
<path d="M28.2075 7.91895H7.70239C6.72335 7.91895 5.92969 8.71261 5.92969 9.69165V23.8733C5.92969 24.8523 6.72335 25.646 7.70239 25.646H28.2075C29.1866 25.646 29.9802 24.8523 29.9802 23.8733V9.69165C29.9802 8.71261 29.1866 7.91895 28.2075 7.91895ZM7.70239 8.07769H28.2075C29.0989 8.07769 29.8215 8.80029 29.8215 9.69165V23.8733C29.8215 24.7646 29.0989 25.4872 28.2075 25.4872H7.70239C6.81103 25.4872 6.08844 24.7646 6.08844 23.8733V9.69165C6.08844 8.80029 6.81103 8.07769 7.70239 8.07769Z" fill="#140B28"/>
<path d="M8.09045 22.7305H27.116C27.2914 22.7305 27.4335 22.5883 27.4335 22.413V15.0934C27.4335 14.918 27.2914 14.7759 27.116 14.7759H8.09045C7.9151 14.7759 7.77295 14.918 7.77295 15.0934V22.413C7.77295 22.5883 7.9151 22.7305 8.09045 22.7305Z" fill="#F770FF"/>
<path d="M25.5215 16.4917H9.43486C9.31065 16.4917 9.20996 16.5924 9.20996 16.7166V16.8489C9.20996 16.9731 9.31065 17.0738 9.43486 17.0738H25.5215C25.6457 17.0738 25.7464 16.9731 25.7464 16.8489V16.7166C25.7464 16.5924 25.6457 16.4917 25.5215 16.4917Z" fill="white"/>
<path d="M25.5215 18.4229H9.43486C9.31065 18.4229 9.20996 18.5235 9.20996 18.6477V18.78C9.20996 18.9042 9.31065 19.0049 9.43486 19.0049H25.5215C25.6457 19.0049 25.7464 18.9042 25.7464 18.78V18.6477C25.7464 18.5235 25.6457 18.4229 25.5215 18.4229Z" fill="white"/>
<path d="M21.9761 20.3542H9.43486C9.31065 20.3542 9.20996 20.4549 9.20996 20.5791V20.7114C9.20996 20.8356 9.31065 20.9363 9.43486 20.9363H21.9761C22.1003 20.9363 22.201 20.8356 22.201 20.7114V20.5791C22.201 20.4549 22.1003 20.3542 21.9761 20.3542Z" fill="white"/>
<path fill-rule="evenodd" clip-rule="evenodd" d="M8.09045 13.1871H10.339C10.5144 13.1871 10.6565 13.045 10.6565 12.8696V10.6212C10.6565 10.4459 10.5144 10.3037 10.339 10.3037H8.09045C7.9151 10.3037 7.77295 10.4459 7.77295 10.6212V12.8696C7.77295 13.045 7.9151 13.1871 8.09045 13.1871Z" fill="#9059FF"/>
<path d="M14.2147 10.1653C14.6462 10.0229 15.1526 10.1215 15.4254 10.4366C15.5774 10.6121 15.6015 10.8252 15.4989 11.0456C15.4093 11.2381 15.2231 11.4395 14.9412 11.657C14.8278 11.7444 14.6981 11.835 14.552 11.9289L14.5378 11.9379L14.5429 11.9419C14.9728 12.2698 15.3776 12.334 15.8848 12.2068L15.93 12.1952C16.0839 12.1544 16.2044 12.1125 16.4699 12.0082L16.7323 11.9043C17.2181 11.7128 17.4963 11.6273 17.8344 11.5875C18.3041 11.5321 18.7556 11.6086 19.2204 11.8465C21.228 12.8738 22.2459 13.0308 23.7362 12.4808C23.8184 12.4505 23.9097 12.4926 23.94 12.5748C23.9704 12.6571 23.9283 12.7484 23.8461 12.7787C23.0122 13.0864 22.3103 13.1748 21.5697 13.0606L21.5279 13.0539C20.8441 12.9419 20.1116 12.6592 19.0757 12.1291C18.668 11.9204 18.2798 11.8547 17.8716 11.9028L17.8449 11.9061C17.5479 11.9439 17.2878 12.0259 16.8261 12.2086L16.5937 12.3007C16.2925 12.4191 16.1665 12.4622 15.9798 12.5103C15.3759 12.6657 14.8671 12.5885 14.3504 12.1944C14.3188 12.1703 14.2868 12.1437 14.2548 12.1152L14.2519 12.1126L14.2379 12.1208L14.1924 12.1472C13.6868 12.4392 13.0377 12.7595 12.244 13.109L12.2055 13.126C12.1252 13.1612 12.0316 13.1247 11.9963 13.0444C11.9611 12.9641 11.9976 12.8705 12.0779 12.8352L12.1498 12.8036C12.9011 12.4717 13.5177 12.1677 13.9987 11.8924L14.0253 11.8771L14.0187 11.8693C13.8487 11.6664 13.7034 11.4328 13.6425 11.2445L13.6385 11.232C13.4839 10.7281 13.7386 10.3224 14.2147 10.1653ZM15.1854 10.6444C15.0035 10.4343 14.6319 10.362 14.3142 10.4668C13.9921 10.5731 13.8419 10.8124 13.942 11.1389C13.9897 11.2943 14.1276 11.5097 14.2848 11.692L14.3018 11.7115L14.3116 11.7054C14.4715 11.6052 14.6116 11.5092 14.7317 11.4175L14.7473 11.4056C15.2119 11.0472 15.3246 10.8051 15.1854 10.6444Z" fill="#9059FF"/>
<circle cx="30.4198" cy="23.0158" r="3.72221" fill="#9059FF" stroke="#9059FF" stroke-width="7.31707"/>
<rect x="28.1547" y="22.7641" width="4.52909" height="0.838721" fill="#F9F9FA" stroke="#F9F9FA" stroke-width="0.838721"/>
</svg>
