<svg width="242" height="194" viewBox="0 0 242 194" fill="none" xmlns="http://www.w3.org/2000/svg">
<g opacity="0.5">
<path fill-rule="evenodd" clip-rule="evenodd" d="M105.704 10.4157C137.48 8.56229 165.516 34.3151 183.823 60.7591C200.678 85.107 205.849 116.063 195.975 144.086C187.124 169.203 161.554 178.142 136.951 187.486C115.933 195.468 94.1799 195.883 72.7199 189.222C44.4929 180.46 9.57447 174.669 1.54462 145.822C-6.63642 116.433 19.4609 91.7501 38.0003 67.7031C56.8742 43.2222 75.1396 12.1983 105.704 10.4157Z" fill="#D9BFFF"/>
</g>
<path d="M97.0263 34.7195C97.1048 36.7177 97.0296 38.1031 97.0263 41.6634C97.0255 41.9748 97.0263 41.3516 97.0263 41.6634C97.0247 44.4981 96.9608 46.7894 97.0263 48.6073C97.0587 49.5102 97.8691 50.3761 98.7623 50.3433C99.6555 50.3105 100.531 49.5102 100.498 48.6073C100.435 46.8403 100.497 44.4603 100.498 41.6634C100.498 41.3525 100.497 41.9746 100.498 41.6634C100.502 38.0593 100.578 36.7762 100.498 34.7195C100.463 33.8167 99.6547 32.9478 98.7623 32.9835C97.8691 33.0192 96.9907 33.8167 97.0263 34.7195Z" fill="#FCD400"/>
<path d="M93.5571 43.3995C94.4462 43.4464 95.7192 43.364 97.0291 43.3995C97.1973 43.4041 96.7245 43.3915 97.0291 43.3995C99.7241 43.4708 100.811 43.2744 102.237 43.3995C103.09 43.4743 103.896 42.4973 103.973 41.6636C104.049 40.8299 103.09 40.0024 102.237 39.9276C100.725 39.7949 99.7892 40.0005 97.0291 39.9276C96.7252 39.9196 97.1973 39.9321 97.0291 39.9276C95.7447 39.8927 94.4128 39.9727 93.5571 39.9276C92.7022 39.8825 91.8669 40.8277 91.8211 41.6636C91.7746 42.4994 92.7022 43.3544 93.5571 43.3995Z" fill="#FCD400"/>
<path d="M199.451 116.311C200.638 116.262 200.784 116.263 202.923 116.311C203.259 116.319 204.471 116.307 204.659 116.311C206.357 116.346 206.962 116.365 208.131 116.311C209.022 116.268 209.908 115.491 209.867 114.575C209.827 113.659 209.021 112.797 208.131 112.839C207.049 112.89 206.291 112.873 204.659 112.839C204.474 112.834 203.258 112.847 202.923 112.839C200.718 112.79 200.727 112.785 199.451 112.839C198.562 112.875 197.68 113.658 197.715 114.575C197.751 115.491 198.561 116.348 199.451 116.311Z" fill="#EAF3F3"/>
<path d="M204.657 119.783C204.675 118.962 204.651 117.483 204.657 116.311C204.658 116.111 204.656 116.671 204.657 116.311C204.671 113.592 204.587 112.544 204.657 111.103C204.7 110.216 203.83 109.409 202.921 109.367C202.012 109.325 201.228 110.215 201.185 111.103C201.113 112.605 201.199 113.546 201.185 116.311C201.184 116.671 201.186 116.112 201.185 116.311C201.179 117.467 201.203 118.983 201.185 119.783C201.166 120.671 202.012 121.501 202.921 121.519C203.831 121.538 204.638 120.671 204.657 119.783Z" fill="#EAF3F3"/>
<path d="M187.297 15.624C187.341 16.5651 187.206 17.6454 187.297 19.096C187.311 19.3008 187.285 18.8914 187.297 19.096C187.522 22.6378 187.297 24.0557 187.297 26.0399C187.297 26.874 188.254 27.7759 189.033 27.7759C189.813 27.7759 190.769 26.874 190.769 26.0399C190.769 23.9649 190.999 22.7054 190.769 19.096C190.757 18.8915 190.783 19.3003 190.769 19.096C190.679 17.662 190.812 16.5428 190.769 15.624C190.73 14.791 189.812 13.8463 189.033 13.8881C188.255 13.9297 187.258 14.7911 187.297 15.624Z" fill="#90BFFF"/>
<path d="M185.562 22.5677C187.208 22.7432 187.854 22.7396 190.77 22.5677C191.454 22.5274 192.126 22.5863 192.506 22.5677C193.242 22.5316 193.661 22.5677 194.242 22.5677C195.114 22.5677 195.978 21.6747 195.978 20.8317C195.978 19.9887 195.114 19.0957 194.242 19.0957C193.601 19.0957 193.29 19.0572 192.506 19.0957C192.112 19.115 191.465 19.0548 190.77 19.0957C188.034 19.257 186.968 19.2458 185.562 19.0957C184.696 19.0034 183.922 19.9938 183.826 20.8317C183.731 21.6696 184.696 22.4753 185.562 22.5677Z" fill="#90BFFF"/>
<path d="M46.6829 157.975C46.7267 158.915 46.5905 159.996 46.6829 161.447C46.6956 161.652 46.6702 161.243 46.6829 161.447C46.908 164.989 46.6829 166.406 46.6829 168.391C46.6829 169.224 47.64 170.126 48.4189 170.126C49.1986 170.126 50.1549 169.224 50.1549 168.391C50.1549 166.316 50.3842 165.056 50.1549 161.447C50.1422 161.242 50.1683 161.65 50.1549 161.447C50.0646 160.013 50.198 158.894 50.1549 157.975C50.1161 157.142 49.1979 156.197 48.4189 156.239C47.6407 156.281 46.6441 157.142 46.6829 157.975Z" fill="#90BFFF"/>
<path d="M44.9477 164.919C46.5928 165.094 47.2393 165.091 50.1557 164.919C50.5571 164.895 51.6669 164.931 51.8917 164.919C52.9169 164.862 52.9052 164.919 53.6276 164.919C54.4983 164.919 55.3636 164.024 55.3636 163.183C55.3636 162.342 54.4983 161.447 53.6276 161.447C52.8335 161.447 52.9713 161.387 51.8917 161.447C51.6622 161.459 50.561 161.422 50.1557 161.447C47.4199 161.607 46.3539 161.597 44.9477 161.447C44.0818 161.355 43.3072 162.347 43.2117 163.183C43.1163 164.018 44.0818 164.827 44.9477 164.919Z" fill="#90BFFF"/>
<path fill-rule="evenodd" clip-rule="evenodd" d="M204.657 78.119C204.77 79.9068 206.24 79.9032 206.393 78.119C206.747 73.9761 208.846 71.4295 211.601 71.1751C211.82 71.1715 211.369 71.1903 211.601 71.1751C213.431 71.0497 213.435 69.4391 211.601 69.4391C211.358 69.4391 211.835 69.421 211.601 69.4391C208.67 69.463 207.051 69.4643 206.393 65.9672C206.362 65.8052 206.471 64.6583 206.393 64.2312C206.32 63.8368 206.442 64.4782 206.393 64.2312C206.059 62.5639 204.745 62.532 204.657 64.2312C204.643 64.4819 204.669 63.7972 204.657 64.2312C204.64 64.8165 204.687 65.6692 204.657 65.9672C204.582 66.6891 205.036 67.0282 204.657 67.7031C203.988 68.8915 201.447 69.4725 199.449 69.4391C197.621 69.4094 197.628 71.0084 199.449 71.1751C201.812 71.3918 202.648 72.3799 202.921 72.9111C203.756 74.567 204.538 76.2501 204.657 78.119ZM211.601 69.4391C211.785 69.437 211.402 69.4529 211.601 69.4391V69.4391C211.431 69.3717 211.819 69.4362 211.601 69.4391ZM211.601 71.1751C211.773 71.1606 211.416 71.1751 211.601 71.1751V71.1751C211.446 71.249 211.803 71.1584 211.601 71.1751ZM204.657 71.1751C205.246 70.7512 204.256 70.0515 204.657 69.4391C205.086 70.221 205.729 70.7033 206.393 71.1751C205.799 71.7179 205.082 72.1516 204.657 72.9111C204.519 72.5886 204.815 71.4889 204.657 71.1751C204.389 70.6533 205.152 71.5418 204.657 71.1751Z" fill="#FCD400"/>
<path fill-rule="evenodd" clip-rule="evenodd" d="M29.3226 114.575C31.1538 114.452 31.1581 112.839 29.3226 112.839C29.0836 112.839 29.553 112.821 29.3226 112.839C26.3742 112.863 24.7767 112.893 24.1146 109.367C24.0855 109.212 24.1886 108.035 24.1146 107.631C24.0421 107.234 24.1637 107.878 24.1146 107.631C23.7818 105.963 22.4668 105.931 22.3787 107.631C22.3659 107.881 22.3915 107.199 22.3787 107.631C22.3623 108.206 22.4078 109.074 22.3787 109.367C22.3054 110.101 22.7598 110.422 22.3787 111.103C21.7088 112.291 19.1634 112.879 17.1707 112.839C15.3423 112.803 15.3502 114.404 17.1707 114.575C19.5374 114.798 20.3703 115.78 20.6427 116.311C21.4747 117.967 22.2578 119.649 22.3787 121.519C22.4953 123.305 23.9617 123.301 24.1146 121.519C24.4688 117.371 26.5626 114.825 29.3226 114.575C29.5388 114.571 29.0957 114.59 29.3226 114.575ZM29.3226 112.839C29.5039 112.837 29.127 112.852 29.3226 112.839V112.839C29.1548 112.774 29.5374 112.836 29.3226 112.839ZM29.3226 114.575C29.4926 114.561 29.142 114.575 29.3226 114.575V114.575C29.1697 114.646 29.521 114.559 29.3226 114.575ZM22.3787 114.575C22.9675 114.151 21.9783 113.452 22.3787 112.839C22.8075 113.621 23.4504 114.104 24.1146 114.575C23.5208 115.118 22.8046 115.551 22.3787 116.311C22.2414 115.988 22.5365 114.888 22.3787 114.575C22.1106 114.052 22.875 114.942 22.3787 114.575Z" fill="#EAF3F3"/>
<path d="M123.067 20.8317V20.8317C123.067 19.9962 122.29 19.0957 121.331 19.0957C120.373 19.0957 119.595 19.9962 119.595 20.8317V20.8317C119.595 21.6672 120.373 22.5677 121.331 22.5677C122.29 22.5677 123.067 21.6672 123.067 20.8317Z" fill="#90BFFF"/>
<path d="M235.906 98.9508V98.9508C235.906 98.115 235.128 97.2148 234.17 97.2148C233.211 97.2148 232.434 98.115 232.434 98.9508V98.9508C232.434 99.7867 233.211 100.687 234.17 100.687C235.128 100.687 235.906 99.7867 235.906 98.9508Z" fill="#90BFFF"/>
<path d="M230.698 43.3996V43.3996C230.698 42.5623 229.92 41.6636 228.962 41.6636C228.003 41.6636 227.226 42.5623 227.226 43.3996V43.3996C227.226 44.2369 228.003 45.1355 228.962 45.1355C229.92 45.1355 230.698 44.2369 230.698 43.3996Z" fill="#EAF3F3"/>
<path d="M241.114 57.2873V57.2873C241.114 56.4517 240.336 55.5513 239.378 55.5513C238.419 55.5513 237.642 56.4517 237.642 57.2873V57.2873C237.642 58.1228 238.419 59.0232 239.378 59.0232C240.336 59.0232 241.114 58.1228 241.114 57.2873Z" fill="#4E6AF0"/>
<path d="M220.282 8.67983V8.67983C220.282 7.84429 219.505 6.94385 218.546 6.94385C217.587 6.94385 216.81 7.84429 216.81 8.67983V8.67983C216.81 9.51537 217.587 10.4158 218.546 10.4158C219.505 10.4158 220.282 9.51537 220.282 8.67983Z" fill="#FCD400"/>
<path d="M13.7002 131.935V131.935C13.7002 131.097 12.9225 130.199 11.9643 130.199C11.0051 130.199 10.2283 131.097 10.2283 131.935V131.935C10.2283 132.772 11.0051 133.671 11.9643 133.671C12.9225 133.671 13.7002 132.772 13.7002 131.935Z" fill="#FCD400"/>
<path d="M65.7797 46.8717V46.8717C65.7797 45.9778 65.0029 45.1357 64.0437 45.1357C63.0855 45.1357 62.3077 45.9778 62.3077 46.8717V46.8717C62.3077 47.7657 63.0855 48.6077 64.0437 48.6077C65.0029 48.6077 65.7797 47.7657 65.7797 46.8717Z" fill="#EAF3F3"/>
<path d="M76.1956 10.4157V10.4157C76.1956 9.52378 75.4187 8.67969 74.4596 8.67969C73.5014 8.67969 72.7236 9.52378 72.7236 10.4157V10.4157C72.7236 11.3076 73.5014 12.1517 74.4596 12.1517C75.4187 12.1517 76.1956 11.3076 76.1956 10.4157Z" fill="#4E6AF0"/>
<path d="M169.939 24.3039V24.3039C169.939 23.518 169.162 22.5679 168.203 22.5679C167.244 22.5679 166.467 23.518 166.467 24.3039V24.3039C166.467 25.0897 167.244 26.0398 168.203 26.0398C169.162 26.0398 169.939 25.0897 169.939 24.3039Z" fill="#EAF3F3"/>
<path d="M152.579 1.73598V1.73598C152.579 0.898693 151.802 0 150.843 0C149.885 0 149.107 0.898693 149.107 1.73598V1.73598C149.107 2.57335 149.885 3.47197 150.843 3.47197C151.802 3.47197 152.579 2.57335 152.579 1.73598Z" fill="#FCD400"/>
<path d="M222.018 156.238V156.238C222.018 155.403 221.241 154.502 220.282 154.502C219.323 154.502 218.546 155.403 218.546 156.238V156.238C218.546 157.074 219.323 157.974 220.282 157.974C221.241 157.974 222.018 157.074 222.018 156.238Z" fill="#FCD400"/>
<path d="M36.268 76.3834V76.3834C36.268 75.5194 35.4911 74.6475 34.532 74.6475C33.5737 74.6475 32.796 75.5194 32.796 76.3834V76.3834C32.796 77.2475 33.5737 78.1194 34.532 78.1194C35.4911 78.1194 36.268 77.2475 36.268 76.3834Z" fill="#90BFFF"/>
<path d="M209.866 133.671V133.671C209.866 132.806 209.089 131.935 208.13 131.935C207.171 131.935 206.394 132.806 206.394 133.671V133.671C206.394 134.534 207.171 135.407 208.13 135.407C209.089 135.407 209.866 134.534 209.866 133.671Z" fill="#4E6AF0"/>
<path d="M50.1559 123.255V123.255C50.1559 122.389 49.3782 121.519 48.4199 121.519C47.4608 121.519 46.684 122.389 46.684 123.255V123.255C46.684 124.121 47.4608 124.991 48.4199 124.991C49.3782 124.991 50.1559 124.121 50.1559 123.255Z" fill="#4E6AF0"/>
<path d="M192.506 95.4791V95.4791C192.506 94.6151 191.73 93.7432 190.77 93.7432C189.811 93.7432 189.034 94.6151 189.034 95.4791V95.4791C189.034 96.3424 189.811 97.2151 190.77 97.2151C191.73 97.2151 192.506 96.3424 192.506 95.4791Z" fill="#EAF3F3"/>
<path d="M18.9082 156.238V156.238C18.9082 155.374 18.1305 154.502 17.1723 154.502C16.2131 154.502 15.4363 155.374 15.4363 156.238V156.238C15.4363 157.102 16.2131 157.974 17.1723 157.974C18.1305 157.974 18.9082 157.102 18.9082 156.238Z" fill="#EAF3F3"/>
<path d="M202.922 32.2476H133.483C130.091 32.2476 126.539 35.8358 126.539 39.1915V87.799C126.539 91.1547 130.091 93.007 133.483 93.007H202.922C206.314 93.007 209.866 91.1547 209.866 87.799V39.1915C209.866 35.8358 206.314 32.2476 202.922 32.2476ZM133.483 32.2476H202.922C206.01 32.2476 209.866 36.1363 209.866 39.1915V87.799C209.866 90.8541 206.01 93.007 202.922 93.007H133.483C130.394 93.007 126.539 90.8541 126.539 87.799V39.1915C126.539 36.1363 130.394 32.2476 133.483 32.2476Z" fill="#140B28"/>
<path d="M208.13 34.7197H136.955C133.761 34.7197 131.747 36.6933 131.747 39.9277V90.2712C131.747 93.5055 133.761 95.4791 136.955 95.4791H208.13C211.324 95.4791 213.338 93.5055 213.338 90.2712V39.9277C213.338 36.6933 211.324 34.7197 208.13 34.7197Z" fill="#140B28"/>
<path d="M202.922 31.2476H131.747C128.553 31.2476 126.539 33.2211 126.539 36.4555V86.799C126.539 90.0334 128.553 92.007 131.747 92.007H202.922C206.116 92.007 208.13 90.0334 208.13 86.799V36.4555C208.13 33.2211 206.116 31.2476 202.922 31.2476Z" fill="white"/>
<path d="M155.765 40.2872C157.052 39.8628 158.561 40.1566 159.374 41.0957C159.827 41.6189 159.899 42.254 159.593 42.911C159.326 43.4848 158.771 44.0853 157.931 44.7335C157.593 44.9941 157.206 45.2642 156.771 45.5438L156.728 45.5709L156.744 45.5828C158.025 46.5602 159.232 46.7514 160.743 46.3725L160.878 46.3376C161.337 46.216 161.696 46.0911 162.487 45.7805L163.27 45.4706C164.718 44.8997 165.547 44.6451 166.555 44.5263C167.955 44.3613 169.3 44.5892 170.686 45.2982C176.67 48.3606 179.704 48.8285 184.146 47.1892C184.391 47.0987 184.664 47.2241 184.754 47.4693C184.844 47.7144 184.719 47.9865 184.474 48.077C181.988 48.9943 179.896 49.2577 177.689 48.9172L177.564 48.8974C175.526 48.5633 173.342 47.7207 170.255 46.1407C169.039 45.5187 167.882 45.3227 166.666 45.4661L166.586 45.4759C165.701 45.5888 164.925 45.8331 163.549 46.3777L162.857 46.6522C161.959 47.0052 161.583 47.1337 161.027 47.2769C159.227 47.7403 157.71 47.5101 156.17 46.3352C156.076 46.2635 155.98 46.1843 155.885 46.0992L155.876 46.0914L155.835 46.1159L155.699 46.1948C154.192 47.065 152.257 48.0197 149.891 49.0617L149.777 49.1121C149.537 49.2171 149.258 49.1083 149.153 48.869C149.048 48.6297 149.157 48.3506 149.396 48.2455L149.611 48.1511C151.85 47.1619 153.688 46.2558 155.122 45.4351L155.201 45.3895L155.181 45.3665C154.675 44.7615 154.241 44.0652 154.06 43.504L154.048 43.4668C153.587 41.9648 154.346 40.7554 155.765 40.2872ZM158.659 41.7153C158.116 41.089 157.009 40.8734 156.062 41.1859C155.102 41.5027 154.654 42.2159 154.953 43.1892C155.095 43.6525 155.506 44.2945 155.974 44.8379L156.025 44.896L156.054 44.8777C156.531 44.5791 156.948 44.293 157.306 44.0197L157.353 43.9841C158.738 42.9159 159.074 42.1943 158.659 41.7153Z" fill="#9059FF"/>
<path d="M135.219 83.327H199.45C200.054 83.327 201.186 82.2033 201.186 81.591V57.2873C201.186 56.675 200.054 55.5513 199.45 55.5513H135.219C134.615 55.5513 133.483 56.675 133.483 57.2873V81.591C133.483 82.2033 134.615 83.327 135.219 83.327Z" fill="#F770FF"/>
<path d="M195.98 60.7594H138.692V62.4953H195.98V60.7594Z" fill="white"/>
<path d="M195.98 67.7032H138.692V69.4392H195.98V67.7032Z" fill="white"/>
<path d="M183.825 74.6471H138.689V76.383H183.825V74.6471Z" fill="white"/>
<path fill-rule="evenodd" clip-rule="evenodd" d="M135.219 50.3431H142.163C142.796 50.3431 143.899 49.2406 143.899 48.6072V41.6632C143.899 41.0298 142.796 39.9272 142.163 39.9272H135.219C134.585 39.9272 133.483 41.0298 133.483 41.6632V48.6072C133.483 49.2406 134.585 50.3431 135.219 50.3431Z" fill="#9059FF"/>
<path d="M159.518 59.0234H51.8869C46.9944 59.0234 43.207 62.8056 43.207 67.7034V142.351C43.207 147.248 46.9944 151.031 51.8869 151.031H159.518C164.41 151.031 168.198 147.248 168.198 142.351V67.7034C168.198 62.8056 164.41 59.0234 159.518 59.0234Z" fill="#140B28"/>
<path d="M152.574 53.8154H44.943C40.0504 53.8154 36.2631 57.5976 36.2631 62.4953V137.143C36.2631 142.04 40.0504 145.823 44.943 145.823H152.574C157.466 145.823 161.254 142.04 161.254 137.143V62.4953C161.254 57.5976 157.466 53.8154 152.574 53.8154Z" fill="white"/>
<path d="M79.2509 66.3582C81.0178 65.7752 83.0912 66.1789 84.2083 67.4689C84.8306 68.1875 84.9293 69.06 84.5092 69.9625C84.1423 70.7507 83.3801 71.5756 82.2255 72.4661C81.7614 72.824 81.2303 73.195 80.632 73.5792L80.5737 73.6164L80.5948 73.6327C82.3552 74.9754 84.0126 75.238 86.0893 74.7175L86.2743 74.6696C86.9047 74.5026 87.398 74.331 88.4849 73.9043L89.5594 73.4786C91.5486 72.6944 92.6877 72.3445 94.0722 72.1814C95.9953 71.9547 97.8439 72.2678 99.7472 73.2418C107.968 77.4485 112.136 78.0913 118.237 75.8394C118.574 75.7151 118.948 75.8873 119.072 76.2241C119.197 76.5609 119.024 76.9347 118.688 77.059C115.273 78.3191 112.399 78.6809 109.367 78.2132L109.196 78.186C106.396 77.727 103.396 76.5696 99.1549 74.3991C97.4853 73.5447 95.8959 73.2755 94.2244 73.4725L94.115 73.4859C92.899 73.6409 91.834 73.9765 89.9437 74.7246L88.9921 75.1018C87.7586 75.5866 87.2427 75.7632 86.4784 75.9599C84.0057 76.5964 81.9223 76.2803 79.8064 74.6663C79.6771 74.5677 79.5462 74.459 79.4151 74.342L79.4033 74.3314L79.3461 74.365L79.1595 74.4734C77.0896 75.6688 74.4315 76.9803 71.1816 78.4116L71.0242 78.4808C70.6955 78.6251 70.312 78.4757 70.1677 78.147C70.0234 77.8183 70.1728 77.4348 70.5015 77.2905L70.7962 77.1607C73.8724 75.802 76.397 74.5572 78.3665 73.4299L78.4753 73.3672L78.4486 73.3355C77.7524 72.5045 77.1573 71.548 76.9078 70.7771L76.8917 70.726C76.2586 68.6627 77.3015 67.0014 79.2509 66.3582ZM83.2256 68.3199C82.4806 67.4596 80.9593 67.1634 79.6583 67.5927C78.3394 68.0279 77.7243 69.0077 78.1346 70.3447C78.3298 70.9811 78.8942 71.863 79.538 72.6094L79.6077 72.6892L79.6479 72.6641C80.3026 72.2539 80.876 71.861 81.3678 71.4855L81.4315 71.4366C83.334 69.9693 83.7954 68.978 83.2256 68.3199Z" fill="#9059FF"/>
<path d="M48.4149 131.935H147.366C148.279 131.935 149.102 131.117 149.102 130.199V92.007C149.102 91.0886 148.279 90.271 147.366 90.271H48.4149C47.5014 90.271 46.679 91.0886 46.679 92.007V130.199C46.679 131.117 47.5014 131.935 48.4149 131.935Z" fill="#F770FF"/>
<path d="M138.686 98.9512H55.3589C54.707 98.9512 53.6229 99.9463 53.6229 100.687C53.6229 101.428 54.707 102.423 55.3589 102.423H138.686C139.338 102.423 140.422 101.428 140.422 100.687C140.422 99.9463 139.338 98.9512 138.686 98.9512Z" fill="white"/>
<path d="M138.686 109.367H55.3589C54.707 109.367 53.6229 110.362 53.6229 111.103C53.6229 111.844 54.707 112.839 55.3589 112.839H138.686C139.338 112.839 140.422 111.844 140.422 111.103C140.422 110.362 139.338 109.367 138.686 109.367Z" fill="white"/>
<path d="M119.59 119.783H55.3589C54.7116 119.783 53.6229 120.778 53.6229 121.519C53.6229 122.26 54.7116 123.255 55.3589 123.255H119.59C120.238 123.255 121.326 122.26 121.326 121.519C121.326 120.778 120.238 119.783 119.59 119.783Z" fill="white"/>
<path fill-rule="evenodd" clip-rule="evenodd" d="M48.4149 81.5911H60.5668C61.5169 81.5911 62.3028 80.8053 62.3028 79.8551V67.7033C62.3028 66.7531 61.5169 65.9673 60.5668 65.9673H48.4149C47.4649 65.9673 46.679 66.7531 46.679 67.7033V79.8551C46.679 80.8053 47.4649 81.5911 48.4149 81.5911Z" fill="#9059FF"/>
<path d="M198.581 132.802C198.581 152.07 183.334 167.522 164.729 167.522C146.125 167.522 130.878 152.07 130.878 132.802C130.878 113.535 146.125 98.0826 164.729 98.0826C183.334 98.0826 198.581 113.535 198.581 132.802Z" fill="#9059FF" stroke="#9059FF" stroke-width="8.67991"/>
<path fill-rule="evenodd" clip-rule="evenodd" d="M150.836 141.946C148.586 136.09 148.086 128.671 148.436 119.475L164.729 115.235L181.022 119.475C181.373 128.671 180.873 136.09 178.622 141.946C176.382 147.777 172.3 152.321 164.729 155.403C157.159 152.321 153.077 147.777 150.836 141.946ZM145.274 116.817L164.729 111.753L184.185 116.817C185.266 137.632 182.888 152.26 164.729 159.011C146.571 152.26 144.193 137.632 145.274 116.817ZM155.002 124.593L164.729 121.88V147.197C155.65 143.58 154.461 135.744 155.002 124.593Z" fill="#F9F9FA"/>
</svg>
