<svg width="236" height="220" viewBox="0 0 236 220" fill="none" xmlns="http://www.w3.org/2000/svg">
<path opacity="0.5" fill-rule="evenodd" clip-rule="evenodd" d="M102.825 9.96775C133.922 8.16394 161.34 32.4146 179.255 58.1518C195.75 81.8488 202.21 112.292 192.547 139.566C183.885 164.012 158.47 173.672 134.394 182.766C113.824 190.535 92.2573 190.91 71.256 184.427C43.6323 175.899 9.33049 169.303 1.47227 141.228C-6.53392 112.624 19.8825 89.8635 38.0256 66.4593C56.4962 42.6328 72.9141 11.7028 102.825 9.96775Z" fill="#D9BFFF"/>
<path d="M94.5134 33.2317C94.59 35.1445 94.5165 36.4698 94.5134 39.8778C94.5126 40.1759 94.5134 39.5793 94.5134 39.8778C94.5118 42.5912 94.4495 44.7838 94.5134 46.5239C94.545 47.3881 95.3035 48.2168 96.1749 48.1854C97.0463 48.154 97.868 47.3881 97.8364 46.5239C97.7749 44.8325 97.8348 42.5551 97.8364 39.8778C97.8356 40.1757 97.8364 39.5802 97.8364 39.8778C97.8396 36.428 97.9146 35.2005 97.8364 33.2317C97.8017 32.3676 97.0455 31.5361 96.1749 31.5702C95.3035 31.6044 94.4787 32.3676 94.5134 33.2317Z" fill="#FCD400"/>
<path d="M91.1905 41.5394C92.0418 41.5851 93.2592 41.5047 94.5135 41.5394C94.2218 41.5315 94.6746 41.5438 94.5135 41.5394C97.0942 41.6088 98.1324 41.4174 99.4981 41.5394C100.314 41.6122 101.086 40.6902 101.16 39.8778C101.232 39.0655 100.315 38.2892 99.4981 38.2163C98.05 38.087 97.1566 38.2874 94.5135 38.2163C94.2226 38.2086 94.6746 38.2207 94.5135 38.2163C93.2836 38.1824 92.0099 38.2603 91.1905 38.2163C90.3718 38.1724 89.5727 39.0634 89.529 39.8778C89.4844 40.6923 90.3718 41.4954 91.1905 41.5394Z" fill="#FCD400"/>
<path d="M194.202 112.982C195.338 112.934 195.477 112.936 197.525 112.982C197.846 112.99 199.007 112.979 199.187 112.982C200.812 113.017 201.391 113.036 202.51 112.982C203.362 112.941 204.211 112.217 204.171 111.321C204.133 110.426 203.361 109.619 202.51 109.659C201.474 109.71 200.749 109.693 199.187 109.659C199.009 109.655 197.846 109.667 197.525 109.659C195.414 109.611 195.423 109.607 194.202 109.659C193.35 109.695 192.507 110.425 192.541 111.321C192.575 112.217 193.349 113.019 194.202 112.982Z" fill="#EAF3F3"/>
<path d="M200.848 116.305C200.865 115.519 200.842 114.104 200.848 112.982C200.846 113.327 200.849 112.791 200.848 112.982C200.861 110.379 200.78 109.377 200.848 107.998C200.889 107.149 200.065 106.376 199.186 106.336C198.307 106.296 197.566 107.148 197.525 107.998C197.455 109.436 197.538 110.335 197.525 112.982C197.523 113.327 197.526 112.791 197.525 112.982C197.518 114.088 197.542 115.539 197.525 116.305C197.506 117.155 198.307 117.949 199.186 117.967C200.066 117.985 200.829 117.155 200.848 116.305Z" fill="#EAF3F3"/>
<path d="M182.574 14.9543C182.618 15.8551 182.483 16.8889 182.574 18.2773C182.562 18.0815 182.588 18.4734 182.574 18.2773C182.798 21.6675 182.574 23.0241 182.574 24.9234C182.574 25.7217 183.46 26.5849 184.236 26.5849C185.012 26.5849 185.897 25.7217 185.897 24.9234C185.897 22.9372 186.126 21.7323 185.897 18.2773C185.885 18.0816 185.911 18.4728 185.897 18.2773C185.807 16.9047 185.94 15.8337 185.897 14.9543C185.858 14.1569 185.011 13.2528 184.236 13.2928C183.461 13.3327 182.535 14.157 182.574 14.9543Z" fill="#90BFFF"/>
<path d="M180.912 21.5993C182.488 21.7747 183.103 21.7711 185.896 21.5993C186.551 21.559 187.194 21.6179 187.558 21.5993C188.262 21.5632 188.663 21.5993 189.219 21.5993C190.054 21.5993 190.881 20.7804 190.881 19.9378C190.881 19.0951 190.054 18.2762 189.219 18.2762C188.605 18.2762 188.308 18.2378 187.558 18.2762C187.18 18.2955 186.562 18.2354 185.896 18.2762C183.276 18.4374 182.258 18.4262 180.912 18.2762C180.082 18.1839 179.341 19.1002 179.25 19.9378C179.159 20.7753 180.082 21.507 180.912 21.5993Z" fill="#90BFFF"/>
<path d="M44.6677 154.52C44.7112 155.421 44.5756 156.455 44.6677 157.843C44.655 157.648 44.6803 158.04 44.6677 157.843C44.8918 161.234 44.6677 162.59 44.6677 164.49C44.6677 165.287 45.5535 166.151 46.3292 166.151C47.1056 166.151 47.9907 165.287 47.9907 164.49C47.9907 162.503 48.2191 161.298 47.9907 157.843C47.9781 157.648 48.0041 158.039 47.9907 157.843C47.9008 156.471 48.0336 155.4 47.9907 154.52C47.9521 153.723 47.1049 152.819 46.3292 152.859C45.5542 152.899 44.629 153.723 44.6677 154.52Z" fill="#90BFFF"/>
<path d="M43.0053 161.165C44.5807 161.341 45.197 161.338 47.9899 161.165C48.3743 161.142 49.4361 161.178 49.6514 161.165C50.6332 161.108 50.6211 161.165 51.3129 161.165C52.1467 161.165 52.9744 160.347 52.9744 159.504C52.9744 158.661 52.1467 157.842 51.3129 157.842C50.5524 157.842 50.6853 157.782 49.6514 157.842C49.4316 157.855 48.3781 157.818 47.9899 157.842C45.37 158.003 44.3519 157.993 43.0053 157.842C42.1761 157.75 41.4352 158.666 41.3438 159.504C41.2524 160.341 42.1761 161.073 43.0053 161.165Z" fill="#90BFFF"/>
<path fill-rule="evenodd" clip-rule="evenodd" d="M199.19 76.4303C199.307 78.2418 202.356 78.2381 202.513 76.4303C202.878 72.2324 204.655 70.042 207.497 69.7843C207.259 69.7997 207.724 69.7806 207.497 69.7843C209.386 69.6572 209.39 66.4612 207.497 66.4612C207.247 66.4612 207.739 66.4429 207.497 66.4612C204.474 66.4855 203.193 66.6817 202.513 63.1382C202.481 62.9741 202.594 61.9095 202.513 61.4767C202.438 61.0771 202.564 61.727 202.513 61.4767C202.169 59.7873 199.281 59.755 199.19 61.4767C199.176 61.7307 199.203 61.0369 199.19 61.4767C199.172 62.0698 199.221 62.8363 199.19 63.1382C199.113 63.8697 199.581 64.1158 199.19 64.7997C198.5 66.0039 196.268 66.495 194.205 66.4612C192.319 66.4311 192.327 69.6154 194.205 69.7843C196.644 70.0038 197.247 70.9076 197.528 71.4458C198.39 73.1236 199.067 74.5366 199.19 76.4303ZM207.497 66.4612C207.293 66.4752 207.688 66.459 207.497 66.4612C207.322 66.3929 207.723 66.4583 207.497 66.4612ZM207.497 69.7843C207.307 69.7843 207.676 69.7696 207.497 69.7843C207.338 69.8592 207.706 69.7674 207.497 69.7843ZM199.19 68.1227C199.798 67.6932 200.438 67.0817 200.851 66.4612C201.295 67.2535 201.828 67.6447 202.513 68.1227C201.9 68.6727 201.29 70.6763 200.851 71.4458C200.709 71.119 201.014 70.1022 200.851 69.7843C200.575 69.2556 199.701 68.4943 199.19 68.1227Z" fill="#FCD400"/>
<path fill-rule="evenodd" clip-rule="evenodd" d="M29.7129 112.985C31.6026 112.86 31.607 109.662 29.7129 109.662C29.4663 109.662 29.9507 109.644 29.7129 109.662C26.6702 109.687 25.4116 109.912 24.7283 106.339C24.6982 106.183 24.8046 105.087 24.7283 104.678C24.6535 104.276 24.779 104.928 24.7283 104.678C24.3849 102.988 21.4963 102.956 21.4053 104.678C21.3921 104.931 21.4185 104.24 21.4053 104.678C21.3884 105.26 21.4354 106.042 21.4053 106.339C21.3297 107.083 21.7986 107.311 21.4053 108.001C20.714 109.205 18.4771 109.702 16.4207 109.662C14.5339 109.626 14.542 112.812 16.4207 112.985C18.8631 113.211 19.4627 114.109 19.7438 114.647C20.6024 116.324 21.2805 117.737 21.4053 119.631C21.5256 121.441 24.5705 121.438 24.7283 119.631C25.0938 115.429 26.8647 113.238 29.7129 112.985C29.936 112.981 29.4788 113.001 29.7129 112.985ZM29.7129 109.662C29.5111 109.675 29.9 109.66 29.7129 109.662C29.5397 109.596 29.9345 109.659 29.7129 109.662ZM29.7129 112.985C29.5265 112.985 29.8883 112.971 29.7129 112.985C29.5551 113.057 29.9176 112.969 29.7129 112.985ZM21.4053 111.324C22.0129 110.894 22.6536 110.283 23.0668 109.662C23.5093 110.455 24.0429 110.846 24.7283 111.324C24.1155 111.874 23.5064 113.876 23.0668 114.647C22.9252 114.32 23.2297 113.302 23.0668 112.985C22.7901 112.455 21.9175 111.696 21.4053 111.324Z" fill="#EAF3F3"/>
<path d="M119.437 19.9393C119.437 19.1397 118.693 18.2778 117.775 18.2778C116.858 18.2778 116.114 19.1397 116.114 19.9393C116.114 20.739 116.858 21.6009 117.775 21.6009C118.693 21.6009 119.437 20.739 119.437 19.9393Z" fill="#90BFFF"/>
<path d="M230.757 96.3681C230.757 95.5681 230.013 94.7065 229.096 94.7065C228.178 94.7065 227.434 95.5681 227.434 96.3681C227.434 97.1681 228.178 98.0296 229.096 98.0296C230.013 98.0296 230.757 97.1681 230.757 96.3681Z" fill="#90BFFF"/>
<path d="M225.771 41.5391C225.771 40.7377 225.026 39.8776 224.109 39.8776C223.191 39.8776 222.448 40.7377 222.448 41.5391C222.448 42.3405 223.191 43.2006 224.109 43.2006C225.026 43.2006 225.771 42.3405 225.771 41.5391Z" fill="#EAF3F3"/>
<path d="M235.744 56.4938C235.744 55.6941 234.999 54.8323 234.082 54.8323C233.164 54.8323 232.421 55.6941 232.421 56.4938C232.421 57.2935 233.164 58.1553 234.082 58.1553C234.999 58.1553 235.744 57.2935 235.744 56.4938Z" fill="#4E6AF0"/>
<path d="M215.803 8.30666C215.803 7.50696 215.059 6.64514 214.141 6.64514C213.223 6.64514 212.479 7.50696 212.479 8.30666C212.479 9.10636 213.223 9.96818 214.141 9.96818C215.059 9.96818 215.803 9.10636 215.803 8.30666Z" fill="#FCD400"/>
<path d="M13.0984 129.6C13.0984 128.798 12.3541 127.938 11.4369 127.938C10.5189 127.938 9.77539 128.798 9.77539 129.6C9.77539 130.401 10.5189 131.261 11.4369 131.261C12.3541 131.261 13.0984 130.401 13.0984 129.6Z" fill="#FCD400"/>
<path d="M64.6043 46.5222C64.6043 45.6666 63.8608 44.8607 62.9428 44.8607C62.0256 44.8607 61.2812 45.6666 61.2812 46.5222C61.2812 47.3779 62.0256 48.1838 62.9428 48.1838C63.8608 48.1838 64.6043 47.3779 64.6043 46.5222Z" fill="#EAF3F3"/>
<path d="M74.5765 9.96987C74.5765 9.11623 73.8329 8.30835 72.9149 8.30835C71.9978 8.30835 71.2534 9.11623 71.2534 9.96987C71.2534 10.8235 71.9978 11.6314 72.9149 11.6314C73.8329 11.6314 74.5765 10.8235 74.5765 9.96987Z" fill="#4E6AF0"/>
<path d="M165.957 23.2614C165.957 22.5092 165.213 21.5999 164.295 21.5999C163.378 21.5999 162.634 22.5092 162.634 23.2614C162.634 24.0135 163.378 24.9229 164.295 24.9229C165.213 24.9229 165.957 24.0135 165.957 23.2614Z" fill="#EAF3F3"/>
<path d="M149.342 1.66152C149.342 0.860144 148.599 0 147.681 0C146.763 0 146.019 0.860144 146.019 1.66152C146.019 2.46296 146.763 3.32303 147.681 3.32303C148.599 3.32303 149.342 2.46296 149.342 1.66152Z" fill="#FCD400"/>
<path d="M217.466 152.86C217.466 152.06 216.722 151.199 215.804 151.199C214.886 151.199 214.143 152.06 214.143 152.86C214.143 153.66 214.886 154.522 215.804 154.522C216.722 154.522 217.466 153.66 217.466 152.86Z" fill="#FCD400"/>
<path d="M34.6988 74.7672C34.6988 73.9402 33.9552 73.1057 33.0372 73.1057C32.1201 73.1057 31.3757 73.9402 31.3757 74.7672C31.3757 75.5942 32.1201 76.4287 33.0372 76.4287C33.9552 76.4287 34.6988 75.5942 34.6988 74.7672Z" fill="#90BFFF"/>
<path d="M205.834 131.259C205.834 130.432 205.09 129.598 204.173 129.598C203.255 129.598 202.511 130.432 202.511 131.259C202.511 132.086 203.255 132.921 204.173 132.921C205.09 132.921 205.834 132.086 205.834 131.259Z" fill="#4E6AF0"/>
<path d="M47.9903 119.628C47.9903 118.799 47.2459 117.966 46.3288 117.966C45.4108 117.966 44.6672 118.799 44.6672 119.628C44.6672 120.457 45.4108 121.289 46.3288 121.289C47.2459 121.289 47.9903 120.457 47.9903 119.628Z" fill="#4E6AF0"/>
<path d="M187.556 93.0449C187.556 92.2179 186.813 91.3834 185.895 91.3834C184.977 91.3834 184.233 92.2179 184.233 93.0449C184.233 93.8712 184.977 94.7065 185.895 94.7065C186.813 94.7065 187.556 93.8712 187.556 93.0449Z" fill="#EAF3F3"/>
<path d="M18.0848 152.86C18.0848 152.033 17.3404 151.199 16.4232 151.199C15.5052 151.199 14.7617 152.033 14.7617 152.86C14.7617 153.687 15.5052 154.522 16.4232 154.522C17.3404 154.522 18.0848 153.687 18.0848 152.86Z" fill="#EAF3F3"/>
<path fill-rule="evenodd" clip-rule="evenodd" d="M72.8125 138.389C64.6063 117.642 62.7827 91.3629 64.0611 58.7904L123.473 43.77L182.885 58.7904C184.164 91.3629 182.34 117.642 174.134 138.389C165.964 159.044 151.08 175.139 123.473 186.055C95.8663 175.139 80.9823 159.044 72.8125 138.389ZM52.5302 49.3724L123.473 31.4368L194.416 49.3724C198.358 123.108 189.687 174.922 123.473 198.836C57.2597 174.922 48.5889 123.108 52.5302 49.3724ZM88.0017 76.9163L123.473 67.308V156.986C90.3665 144.175 86.0311 116.417 88.0017 76.9163Z" fill="#9059FF"/>
<path d="M123.475 67.3062L158.947 76.9145C160.917 116.416 156.582 144.173 123.475 156.984V67.3062Z" fill="#9059FF"/>
</svg>
