<svg width="24" height="24" viewBox="0 0 24 24" fill="none" xmlns="http://www.w3.org/2000/svg">
<path fill-rule="evenodd" clip-rule="evenodd" d="M6.35082 14.9262C5.43574 12.6128 5.23239 9.68236 5.37494 6.05021L12 4.37528L18.6251 6.05021C18.7676 9.68236 18.5643 12.6128 17.6492 14.9262C16.7382 17.2294 15.0785 19.0243 12 20.2414C8.92155 19.0243 7.26183 17.2294 6.35082 14.9262ZM4.08913 5L12 3L19.9109 5C20.3504 13.2222 19.3835 19 12 21.6667C4.61653 19 3.64964 13.2222 4.08913 5ZM8.04457 8.07143L12 7V17C8.30826 15.5714 7.82482 12.4762 8.04457 8.07143Z" fill="white"/>
</svg>
