<svg width="47" height="38" viewBox="0 0 47 38" fill="none" xmlns="http://www.w3.org/2000/svg">
<path opacity="0.5" fill-rule="evenodd" clip-rule="evenodd" d="M20.2454 1.96249C26.3681 1.60734 31.7664 6.3821 35.2938 11.4495C38.5415 16.1153 39.8135 22.1093 37.9109 27.4793C36.2055 32.2924 31.2015 34.1945 26.461 35.9849C22.4111 37.5146 18.1647 37.5886 14.0297 36.3121C8.59084 34.633 1.8371 33.3343 0.289877 27.8065C-1.28647 22.1746 3.91471 17.6933 7.48694 13.0852C11.1236 8.39398 14.3562 2.3041 20.2454 1.96249Z" fill="#D9BFFF"/>
<path d="M18.6077 6.54267C18.6228 6.91928 18.6083 7.18023 18.6077 7.85123C18.6076 7.90992 18.6077 7.79246 18.6077 7.85123C18.6074 8.38547 18.5951 8.81717 18.6077 9.15978C18.6139 9.32995 18.7633 9.4931 18.9349 9.48692C19.1064 9.48074 19.2682 9.32995 19.262 9.15978C19.2499 8.82676 19.2617 8.37836 19.262 7.85123C19.262 7.79263 19.2618 7.90989 19.262 7.85123C19.2626 7.17198 19.2774 6.9303 19.262 6.54267C19.2552 6.37252 19.1063 6.20881 18.9349 6.21553C18.7633 6.22227 18.6009 6.37252 18.6077 6.54267Z" fill="#FCD400"/>
<path d="M17.9534 8.17843C18.1211 8.18743 18.3607 8.17161 18.6077 8.17843C18.6394 8.17931 18.5503 8.17689 18.6077 8.17843C19.1158 8.1921 19.3202 8.15443 19.5891 8.17843C19.7499 8.19278 19.9018 8.01125 19.9163 7.85129C19.9306 7.69135 19.75 7.53851 19.5891 7.52416C19.304 7.4987 19.1281 7.53816 18.6077 7.52416C18.5504 7.52263 18.6394 7.52503 18.6077 7.52416C18.3656 7.51747 18.1148 7.53282 17.9534 7.52416C17.7922 7.5155 17.6349 7.69093 17.6263 7.85129C17.6175 8.01166 17.7922 8.16978 17.9534 8.17843Z" fill="#FCD400"/>
<path d="M38.2355 22.2454C38.4592 22.236 38.4866 22.2363 38.8898 22.2454C38.9531 22.247 39.1815 22.2448 39.217 22.2454C39.5369 22.2523 39.6509 22.2559 39.8712 22.2454C40.0391 22.2372 40.2061 22.0947 40.1984 21.9183C40.1908 21.742 40.039 21.5831 39.8712 21.5911C39.6673 21.601 39.5246 21.5977 39.217 21.5911C39.182 21.5903 38.9529 21.5927 38.8898 21.5911C38.4741 21.5817 38.4759 21.5809 38.2355 21.5911C38.0678 21.5981 37.9017 21.7418 37.9084 21.9183C37.9151 22.0947 38.0677 22.2526 38.2355 22.2454Z" fill="#EAF3F3"/>
<path d="M39.5442 22.8996C39.5476 22.7449 39.5429 22.4662 39.5442 22.2453C39.5443 22.2076 39.5439 22.3132 39.5442 22.2453C39.5467 21.7328 39.5308 21.5355 39.5442 21.2639C39.5523 21.0968 39.3901 20.9447 39.217 20.9368C39.0438 20.9289 38.8981 21.0966 38.8899 21.2639C38.8761 21.547 38.8924 21.7241 38.8899 22.2453C38.8896 22.3132 38.8901 22.2078 38.8899 22.2453C38.8886 22.4631 38.8932 22.7488 38.8899 22.8996C38.8861 23.0669 39.0438 23.2233 39.217 23.2268C39.3903 23.2304 39.5404 23.0669 39.5442 22.8996Z" fill="#EAF3F3"/>
<path d="M35.9458 2.94409C35.9544 3.12145 35.9279 3.32499 35.9458 3.59837C35.9485 3.63696 35.9434 3.55982 35.9458 3.59837C35.99 4.26586 35.9458 4.53296 35.9458 4.90692C35.9458 5.06411 36.1203 5.23406 36.273 5.23406C36.4258 5.23406 36.6001 5.06411 36.6001 4.90692C36.6001 4.51585 36.6451 4.27862 36.6001 3.59837C36.5976 3.55983 36.6028 3.63686 36.6001 3.59837C36.5824 3.3281 36.6086 3.11724 36.6001 2.94409C36.5924 2.78709 36.4256 2.60908 36.273 2.61695C36.1204 2.62481 35.9381 2.78711 35.9458 2.94409Z" fill="#90BFFF"/>
<path d="M35.6189 4.25261C35.9293 4.28716 36.0504 4.28645 36.6003 4.25261C36.7292 4.24468 36.8558 4.25628 36.9275 4.25261C37.0662 4.24551 37.145 4.25261 37.2546 4.25261C37.4189 4.25261 37.5817 4.09138 37.5817 3.92547C37.5817 3.75957 37.4189 3.59834 37.2546 3.59834C37.1337 3.59834 37.0753 3.59077 36.9275 3.59834C36.8531 3.60214 36.7313 3.59028 36.6003 3.59834C36.0845 3.63007 35.884 3.62786 35.6189 3.59834C35.4556 3.58016 35.3098 3.76057 35.2918 3.92547C35.2738 4.09038 35.4556 4.23444 35.6189 4.25261Z" fill="#90BFFF"/>
<path d="M8.79356 30.4238C8.80214 30.6011 8.77544 30.8047 8.79356 31.0781C8.79605 31.1168 8.79107 31.0397 8.79356 31.0781C8.83769 31.7457 8.79356 32.0127 8.79356 32.3867C8.79356 32.5438 8.96798 32.7138 9.1207 32.7138C9.27357 32.7138 9.44784 32.5438 9.44784 32.3867C9.44784 31.9956 9.4928 31.7583 9.44784 31.0781C9.44535 31.0395 9.45047 31.1165 9.44784 31.0781C9.43014 30.8079 9.45628 30.597 9.44784 30.4238C9.44023 30.2669 9.27343 30.0889 9.1207 30.0967C8.96812 30.1047 8.78596 30.2669 8.79356 30.4238Z" fill="#90BFFF"/>
<path d="M8.46607 31.7323C8.77625 31.7669 8.8976 31.7662 9.44749 31.7323C9.52317 31.7276 9.73225 31.7347 9.77463 31.7323C9.96793 31.721 9.96556 31.7323 10.1018 31.7323C10.2659 31.7323 10.4289 31.5711 10.4289 31.4052C10.4289 31.2392 10.2659 31.078 10.1018 31.078C9.95203 31.078 9.97819 31.0662 9.77463 31.078C9.73135 31.0804 9.52392 31.0732 9.44749 31.078C8.93166 31.1097 8.7312 31.1076 8.46607 31.078C8.3028 31.0599 8.15692 31.2403 8.13893 31.4052C8.12094 31.5701 8.3028 31.7141 8.46607 31.7323Z" fill="#90BFFF"/>
<path fill-rule="evenodd" clip-rule="evenodd" d="M39.2174 15.0484C39.2404 15.4051 39.8407 15.4043 39.8717 15.0484C39.9436 14.2219 40.2935 13.7906 40.8531 13.7398C40.8977 13.7391 40.8061 13.7429 40.8531 13.7398C41.2249 13.7148 41.2257 13.0856 40.8531 13.0856C40.8038 13.0856 40.9006 13.082 40.8531 13.0856C40.2578 13.0903 40.0055 13.129 39.8717 12.4313C39.8655 12.399 39.8876 12.1894 39.8717 12.1042C39.8569 12.0255 39.8816 12.1534 39.8717 12.1042C39.8039 11.7715 39.2353 11.7652 39.2174 12.1042C39.2146 12.1542 39.22 12.0176 39.2174 12.1042C39.2139 12.2209 39.2236 12.3719 39.2174 12.4313C39.2022 12.5753 39.2944 12.6238 39.2174 12.7584C39.0816 12.9955 38.642 13.0922 38.236 13.0856C37.8646 13.0796 37.8661 13.7066 38.236 13.7398C38.7161 13.7831 38.8349 13.961 38.8903 14.067C39.0599 14.3973 39.1933 14.6755 39.2174 15.0484ZM40.8531 13.0856C40.8905 13.0851 40.8128 13.0883 40.8531 13.0856V13.0856C40.8186 13.0721 40.8974 13.085 40.8531 13.0856ZM40.8531 13.7398C40.8882 13.737 40.8157 13.7398 40.8531 13.7398V13.7398C40.8217 13.7546 40.8941 13.7365 40.8531 13.7398ZM39.2174 13.4127C39.337 13.3281 39.4632 13.2077 39.5445 13.0856C39.6318 13.2416 39.7369 13.3186 39.8717 13.4127C39.751 13.521 39.6309 13.9155 39.5445 14.067C39.5165 14.0027 39.5766 13.8024 39.5445 13.7398C39.4901 13.6358 39.3181 13.4859 39.2174 13.4127Z" fill="#FCD400"/>
<path fill-rule="evenodd" clip-rule="evenodd" d="M5.84875 22.2457C6.22082 22.2212 6.22169 21.5915 5.84875 21.5915C5.8002 21.5915 5.89557 21.5878 5.84875 21.5915C5.24968 21.5964 5.00186 21.6407 4.86733 20.9372C4.86141 20.9064 4.88236 20.6907 4.86733 20.61C4.8526 20.531 4.8773 20.6593 4.86733 20.61C4.79971 20.2774 4.23097 20.271 4.21306 20.61C4.21045 20.6599 4.21566 20.5239 4.21306 20.61C4.20973 20.7247 4.21898 20.8788 4.21306 20.9372C4.19817 21.0836 4.2905 21.1286 4.21306 21.2643C4.07694 21.5014 3.63651 21.5994 3.23164 21.5915C2.86014 21.5844 2.86173 22.2116 3.23164 22.2457C3.71252 22.2903 3.83058 22.467 3.88592 22.5729C4.05498 22.9032 4.18849 23.1813 4.21306 23.5543C4.23675 23.9107 4.83627 23.9099 4.86733 23.5543C4.93929 22.7269 5.28797 22.2956 5.84875 22.2457C5.89268 22.245 5.80266 22.2488 5.84875 22.2457ZM5.84875 21.5915C5.8856 21.591 5.80901 21.5941 5.84875 21.5915V21.5915C5.81465 21.5784 5.89239 21.5909 5.84875 21.5915ZM5.84875 22.2457C5.88328 22.243 5.81205 22.2457 5.84875 22.2457V22.2457C5.81768 22.2599 5.88906 22.2426 5.84875 22.2457ZM4.21306 21.9186C4.3327 21.834 4.45884 21.7138 4.54019 21.5915C4.62732 21.7476 4.73238 21.8246 4.86733 21.9186C4.74668 22.027 4.62675 22.4212 4.54019 22.5729C4.51231 22.5085 4.57227 22.3082 4.54019 22.2457C4.48572 22.1414 4.31391 21.9919 4.21306 21.9186Z" fill="#EAF3F3"/>
<path d="M23.5146 3.92553V3.92553C23.5146 3.76809 23.3682 3.59839 23.1875 3.59839C23.0069 3.59839 22.8604 3.76809 22.8604 3.92553V3.92553C22.8604 4.08298 23.0069 4.25267 23.1875 4.25267C23.3682 4.25267 23.5146 4.08298 23.5146 3.92553Z" fill="#90BFFF"/>
<path d="M45.4326 18.9741V18.9741C45.4326 18.8166 45.286 18.647 45.1055 18.647C44.9247 18.647 44.7783 18.8166 44.7783 18.9741V18.9741C44.7783 19.1316 44.9247 19.3013 45.1055 19.3013C45.286 19.3013 45.4326 19.1316 45.4326 18.9741Z" fill="#90BFFF"/>
<path d="M44.4512 8.17846V8.17846C44.4512 8.02067 44.3046 7.85132 44.124 7.85132C43.9433 7.85132 43.7969 8.02067 43.7969 8.17846V8.17846C43.7969 8.33626 43.9433 8.5056 44.124 8.5056C44.3046 8.5056 44.4512 8.33626 44.4512 8.17846Z" fill="#EAF3F3"/>
<path d="M46.4145 11.1228V11.1228C46.4145 10.9653 46.268 10.7957 46.0874 10.7957C45.9066 10.7957 45.7603 10.9653 45.7603 11.1228V11.1228C45.7603 11.2802 45.9066 11.4499 46.0874 11.4499C46.268 11.4499 46.4145 11.2802 46.4145 11.1228Z" fill="#4E6AF0"/>
<path d="M42.4883 1.63573V1.63573C42.4883 1.47828 42.3419 1.30859 42.1611 1.30859C41.9804 1.30859 41.834 1.47828 41.834 1.63573V1.63573C41.834 1.79319 41.9804 1.96287 42.1611 1.96287C42.3419 1.96287 42.4883 1.79319 42.4883 1.63573Z" fill="#FCD400"/>
<path d="M2.57762 25.5168V25.5168C2.57762 25.359 2.43106 25.1897 2.25048 25.1897C2.06973 25.1897 1.92334 25.359 1.92334 25.5168V25.5168C1.92334 25.6747 2.06973 25.844 2.25048 25.844C2.43106 25.844 2.57762 25.6747 2.57762 25.5168Z" fill="#FCD400"/>
<path d="M12.7187 9.1599V9.1599C12.7187 8.99144 12.5723 8.83276 12.3916 8.83276C12.211 8.83276 12.0645 8.99144 12.0645 9.1599V9.1599C12.0645 9.32837 12.211 9.48704 12.3916 9.48704C12.5723 9.48704 12.7187 9.32837 12.7187 9.1599Z" fill="#EAF3F3"/>
<path d="M14.6821 1.96288V1.96288C14.6821 1.79481 14.5357 1.63574 14.355 1.63574C14.1744 1.63574 14.0278 1.79481 14.0278 1.96288V1.96288C14.0278 2.13095 14.1744 2.29002 14.355 2.29002C14.5357 2.29002 14.6821 2.13095 14.6821 1.96288Z" fill="#4E6AF0"/>
<path d="M32.6743 4.57982V4.57982C32.6743 4.43173 32.5279 4.25269 32.3472 4.25269C32.1666 4.25269 32.02 4.43173 32.02 4.57982V4.57982C32.02 4.72792 32.1666 4.90696 32.3472 4.90696C32.5279 4.90696 32.6743 4.72792 32.6743 4.57982Z" fill="#EAF3F3"/>
<path d="M29.4028 0.327139V0.327139C29.4028 0.169355 29.2564 0 29.0757 0C28.8951 0 28.7485 0.169355 28.7485 0.327139V0.327139C28.7485 0.484937 28.8951 0.654278 29.0757 0.654278C29.2564 0.654278 29.4028 0.484937 29.4028 0.327139Z" fill="#FCD400"/>
<path d="M42.8159 30.0969V30.0969C42.8159 29.9394 42.6695 29.7698 42.4888 29.7698C42.308 29.7698 42.1616 29.9394 42.1616 30.0969V30.0969C42.1616 30.2543 42.308 30.4241 42.4888 30.4241C42.6695 30.4241 42.8159 30.2543 42.8159 30.0969Z" fill="#FCD400"/>
<path d="M6.83055 14.7214V14.7214C6.83055 14.5586 6.68415 14.3943 6.50341 14.3943C6.32283 14.3943 6.17627 14.5586 6.17627 14.7214V14.7214C6.17627 14.8843 6.32283 15.0486 6.50341 15.0486C6.68415 15.0486 6.83055 14.8843 6.83055 14.7214Z" fill="#90BFFF"/>
<path d="M40.5259 25.844V25.844C40.5259 25.6812 40.3793 25.5168 40.1987 25.5168C40.018 25.5168 39.8716 25.6812 39.8716 25.844V25.844C39.8716 26.0067 40.018 26.1711 40.1987 26.1711C40.3793 26.1711 40.5259 26.0067 40.5259 25.844Z" fill="#4E6AF0"/>
<path d="M9.44774 23.5542V23.5542C9.44774 23.391 9.30118 23.2271 9.1206 23.2271C8.93985 23.2271 8.79346 23.391 8.79346 23.5542V23.5542C8.79346 23.7174 8.93985 23.8813 9.1206 23.8813C9.30118 23.8813 9.44774 23.7174 9.44774 23.5542Z" fill="#4E6AF0"/>
<path d="M36.9272 18.3198V18.3198C36.9272 18.157 36.7808 17.9927 36.6001 17.9927C36.4193 17.9927 36.2729 18.157 36.2729 18.3198V18.3198C36.2729 18.4825 36.4193 18.647 36.6001 18.647C36.7808 18.647 36.9272 18.4825 36.9272 18.3198Z" fill="#EAF3F3"/>
<path d="M3.55955 30.0969V30.0969C3.55955 29.9341 3.41299 29.7698 3.23241 29.7698C3.05167 29.7698 2.90527 29.9341 2.90527 30.0969V30.0969C2.90527 30.2596 3.05167 30.4241 3.23241 30.4241C3.41299 30.4241 3.55955 30.2596 3.55955 30.0969Z" fill="#EAF3F3"/>
<circle cx="21.894" cy="20.2538" r="6.17538" fill="#9059FF" stroke="#9059FF" stroke-width="7.31707"/>
<path d="M20.8561 24.3447C20.6466 24.3446 20.4457 24.2614 20.2975 24.1132L17.9273 21.743C17.7834 21.594 17.7038 21.3944 17.7056 21.1873C17.7074 20.9801 17.7905 20.782 17.937 20.6355C18.0835 20.489 18.2816 20.4059 18.4888 20.4041C18.6959 20.4023 18.8955 20.482 19.0445 20.6259L20.7487 22.33L25.7387 15.2013C25.8596 15.0318 26.0426 14.9169 26.2478 14.8816C26.453 14.8462 26.6639 14.8934 26.8345 15.0127C27.0052 15.132 27.1218 15.3139 27.1591 15.5188C27.1964 15.7236 27.1513 15.9349 27.0336 16.1067L21.5032 24.0073C21.4373 24.1025 21.3514 24.182 21.2515 24.2403C21.1516 24.2986 21.0401 24.3342 20.9248 24.3447C20.9019 24.3458 20.879 24.3458 20.8561 24.3447V24.3447Z" fill="white"/>
</svg>
