<svg width="22" height="22" viewBox="0 0 22 22" fill="none" xmlns="http://www.w3.org/2000/svg">
<path fill-rule="evenodd" clip-rule="evenodd" d="M11 19C6.58172 19 3 15.4183 3 11C3 6.58172 6.58172 3 11 3C15.4183 3 19 6.58172 19 11C18.9952 15.4163 15.4163 18.9952 11 19ZM15.5324 12.7674C14.3474 11.3999 12.7066 13.24 10.9998 13.24C9.294 13.24 7.65207 11.3999 6.46711 12.7674C6.13111 13.1549 6.10423 13.7194 6.39207 14.1427C7.39671 15.6211 9.0767 16.6 10.9998 16.6C12.9228 16.6 14.6028 15.6211 15.6074 14.1427C15.8964 13.7194 15.8684 13.1549 15.5324 12.7674ZM11 12.2C12.8779 12.2 14.4 10.6779 14.4 8.79999C14.4 6.92206 12.8779 5.39999 11 5.39999C9.122 5.39999 7.59998 6.92206 7.59998 8.79999C7.59998 10.6779 9.122 12.2 11 12.2Z" fill="white"/>
</svg>
