<svg width="22" height="22" viewBox="0 0 22 22" fill="none" xmlns="http://www.w3.org/2000/svg">
<path fill-rule="evenodd" clip-rule="evenodd" d="M11 20C6.02943 20 2 15.9706 2 11C2 6.02943 6.02943 2 11 2C15.9706 2 20 6.02943 20 11C19.9946 15.9683 15.9683 19.9946 11 20ZM16.099 12.9883C14.7658 11.4499 12.9199 13.52 10.9998 13.52C9.08075 13.52 7.23358 11.4499 5.9005 12.9883C5.5225 13.4243 5.49226 14.0593 5.81608 14.5355C6.9463 16.1987 8.83629 17.3 10.9998 17.3C13.1631 17.3 15.0531 16.1987 16.1833 14.5355C16.5084 14.0593 16.477 13.4243 16.099 12.9883ZM11 12.35C13.1126 12.35 14.825 10.6376 14.825 8.52499C14.825 6.41232 13.1126 4.69999 11 4.69999C8.88725 4.69999 7.17498 6.41232 7.17498 8.52499C7.17498 10.6376 8.88725 12.35 11 12.35Z" fill="white"/>
</svg>
