<svg width="122" height="125" viewBox="0 0 122 125" fill="none" xmlns="http://www.w3.org/2000/svg">
<path d="M114.707 62.1904C114.707 92.8681 90.43 117.471 60.8084 117.471C31.1867 117.471 6.91004 92.8681 6.91004 62.1904C6.91004 31.5127 31.1867 6.91004 60.8084 6.91004C90.43 6.91004 114.707 31.5127 114.707 62.1904Z" fill="#C50042" stroke="#C50042" stroke-width="13.8201"/>
<path d="M90.5126 79.1292L69.4829 37.0699C68.7777 35.6591 67.6936 34.4725 66.352 33.6432C65.0104 32.8138 63.4643 32.3746 61.8871 32.3746C60.3098 32.3746 58.7637 32.8138 57.4221 33.6432C56.0805 34.4725 54.9964 35.6591 54.2912 37.0699L33.2616 79.1462C32.6186 80.4402 32.3164 81.8769 32.3837 83.3203C32.4509 84.7636 32.8854 86.166 33.6459 87.3946C34.4064 88.6232 35.4679 89.6374 36.7298 90.3412C37.9918 91.0451 39.4124 91.4152 40.8574 91.4167H82.9125C84.3601 91.4174 85.7839 91.048 87.0486 90.3435C88.3132 89.6391 89.3768 88.6231 90.1383 87.3919C90.8998 86.1608 91.334 84.7554 91.3994 83.3092C91.4649 81.8631 91.1596 80.4242 90.5126 79.1292ZM57.6412 48.9583C57.6412 47.8322 58.0886 46.7523 58.8848 45.956C59.6811 45.1598 60.761 44.7124 61.8871 44.7124C63.0131 44.7124 64.0931 45.1598 64.8893 45.956C65.6856 46.7523 66.1329 47.8322 66.1329 48.9583V65.9417C66.1329 67.0677 65.6856 68.1477 64.8893 68.9439C64.0931 69.7402 63.0131 70.1875 61.8871 70.1875C60.761 70.1875 59.6811 69.7402 58.8848 68.9439C58.0886 68.1477 57.6412 67.0677 57.6412 65.9417V48.9583ZM61.8871 83.9865C60.8374 83.9865 59.8113 83.6752 58.9385 83.092C58.0657 82.5089 57.3855 81.68 56.9838 80.7102C56.5821 79.7404 56.477 78.6733 56.6817 77.6438C56.8865 76.6143 57.392 75.6686 58.1342 74.9263C58.8765 74.1841 59.8221 73.6786 60.8517 73.4739C61.8812 73.2691 62.9483 73.3742 63.9181 73.7759C64.8879 74.1776 65.7168 74.8578 66.2999 75.7306C66.8831 76.6034 67.1944 77.6295 67.1944 78.6792C67.1944 80.0868 66.6352 81.4367 65.6399 82.432C64.6446 83.4273 63.2947 83.9865 61.8871 83.9865Z" fill="white"/>
</svg>
