<svg xmlns="http://www.w3.org/2000/svg" viewBox="0 0 133.41 136.62"><defs><style>.cls-1{fill:#ffea80}.cls-2{fill:#ffd567}.cls-3{fill:#ffa266}.cls-4{fill:#ffbd4f}.cls-8{fill:#06378b}</style></defs><g id="Layer_2" data-name="Layer 2"><g id="Layer_1-2" data-name="Layer 1"><path class="cls-1" d="M133.39 28.54a1 1 0 00-.83-1c-1.94-.34-7.38-1.63-9.22-3.47s-3.12-7.3-3.47-9.24a1 1 0 00-1-.83v14.54z"/><path class="cls-2" d="M118.89 14a1 1 0 00-1 .84c-.32 1.94-1.53 7.38-3.36 9.21s-7.31 3.12-9.31 3.49a1 1 0 00-.83 1h14.5zM118.89 28.54V43a1 1 0 001-.83c.34-2 1.64-7.48 3.47-9.32s7.27-3.05 9.21-3.36a1 1 0 00.84-1h-14.52z"/><path class="cls-3" d="M104.39 28.54a1 1 0 00.83 1c2 .31 7.47 1.53 9.31 3.36s3 7.34 3.36 9.31a1 1 0 001 .84V28.54z"/><path class="cls-1" d="M111.22 17.54a.42.42 0 00-.34-.41c-.81-.14-3.06-.67-3.82-1.43s-1.29-3-1.43-3.82a.42.42 0 00-.41-.34v6z"/><path class="cls-2" d="M105.22 11.54a.42.42 0 00-.41.35 9.41 9.41 0 01-1.39 3.81c-.76.81-3 1.29-3.86 1.43a.42.42 0 00-.34.41h6zM105.22 17.54v6a.43.43 0 00.41-.34c.14-.82.67-3.1 1.43-3.86s3-1.26 3.81-1.39a.43.43 0 00.35-.41z"/><path class="cls-3" d="M99.22 17.54a.42.42 0 00.35.41c.81.13 3.09.63 3.85 1.39s1.26 3 1.39 3.85a.41.41 0 00.41.35v-6z"/><path class="cls-1" d="M110.22 40.54a.54.54 0 00-.46-.54c-1.07-.19-4.07-.9-5.08-1.92s-1.73-4-1.92-5.08a.54.54 0 00-.54-.46v8z"/><path class="cls-2" d="M102.22 32.54a.54.54 0 00-.54.46c-.18 1.07-.85 4.07-1.86 5.08s-4.06 1.73-5.14 1.92a.54.54 0 00-.46.54h8zM102.22 40.54v8a.55.55 0 00.54-.46c.19-1.08.91-4.13 1.92-5.14s4-1.68 5.08-1.86a.56.56 0 00.46-.54z"/><path class="cls-3" d="M94.22 40.54a.56.56 0 00.46.54c1.09.18 4.13.85 5.14 1.86s1.68 4.05 1.86 5.14a.55.55 0 00.54.46v-8z"/><path class="cls-4" d="M33.48 36.67h15.19v11.87H33.48z"/><path d="M21.79 81.17l.06 26.7h91.79l-.06-26.7z" fill="#0047b4"/><path d="M113.52 54.47H21.7l.09 26.7h91.79z" fill="#0056db"/><circle cx="67.36" cy="80.84" r="18.13" fill="#0085eb"/><path class="cls-8" d="M70.18 81.62a6.5 6.5 0 10-8.71-3 6.58 6.58 0 003 3l-3 6.61a1.32 1.32 0 000 1.25 1.26 1.26 0 001.09.59h9.58a1.28 1.28 0 001.1-.59 1.32 1.32 0 000-1.25z"/><path class="cls-4" d="M86.61 36.67h15.19v11.87H86.61z"/><path class="cls-8" d="M21.85 113.8a3 3 0 002.82 2.82h86.18a3 3 0 003-3v-5.93h-92z"/><path d="M113.67 48.54a3 3 0 00-3-2.82h-86a3 3 0 00-2.82 2.82v5.93h91.82z" fill="#00d8ff"/><path class="cls-2" d="M101.8 32.16a34.17 34.17 0 00-68.23 0v4.51h15.19v-4.51a19 19 0 0137.94 0v4.51h15.1z"/><path class="cls-1" d="M39.17 116.62a1 1 0 00-.83-1c-1.94-.34-7.38-1.63-9.22-3.47s-3.12-7.3-3.47-9.24a1 1 0 00-1-.83v14.54z"/><path class="cls-2" d="M24.67 102.08a1 1 0 00-1 .84c-.32 1.94-1.53 7.38-3.36 9.21S13 115.25 11 115.62a1 1 0 00-.83 1h14.5zM24.67 116.62v14.5a1 1 0 001-.83c.34-2 1.64-7.48 3.47-9.32s7.27-3 9.21-3.36a1 1 0 00.84-1H24.67z"/><path class="cls-3" d="M10.17 116.62a1 1 0 00.83 1c2 .31 7.47 1.53 9.31 3.36s3 7.34 3.36 9.31a1 1 0 001 .84v-14.51z"/><path class="cls-1" d="M17 105.62a.42.42 0 00-.34-.41c-.81-.14-3.06-.67-3.82-1.43s-1.29-3-1.43-3.82a.42.42 0 00-.41-.34v6z"/><path class="cls-2" d="M11 99.62a.42.42 0 00-.41.35 9.41 9.41 0 01-1.39 3.81c-.76.81-3 1.29-3.86 1.43a.42.42 0 00-.34.41h6zM11 105.62v6a.42.42 0 00.41-.34c.14-.82.67-3.1 1.43-3.86s3-1.26 3.81-1.39a.42.42 0 00.35-.41z"/><path class="cls-3" d="M5 105.62a.41.41 0 00.35.41c.81.13 3.09.63 3.85 1.39s1.26 3 1.39 3.85a.42.42 0 00.41.35v-6z"/><path class="cls-1" d="M16 128.62a.54.54 0 00-.46-.54c-1.07-.19-4.07-.9-5.08-1.92s-1.73-4-1.92-5.08a.54.54 0 00-.54-.46v8z"/><path class="cls-2" d="M8 120.62a.55.55 0 00-.54.46c-.18 1.07-.85 4.07-1.86 5.08s-4.06 1.73-5.14 1.92a.54.54 0 00-.46.54h8zM8 128.62v8a.54.54 0 00.54-.46c.19-1.08.91-4.13 1.92-5.14s4-1.68 5.08-1.86a.55.55 0 00.46-.54z"/><path class="cls-3" d="M0 128.62a.55.55 0 00.46.54c1.09.18 4.13.85 5.14 1.86s1.68 4 1.86 5.14a.55.55 0 00.54.46v-8z"/></g></g></svg>