<svg xmlns="http://www.w3.org/2000/svg" viewBox="0 0 460.43 36.68"><defs><style>.cls-1{fill:#fff;}</style></defs><g id="Layer_2" data-name="Layer 2"><g id="Layer_1-2" data-name="Layer 1"><path class="cls-1" d="M0,2.21H17.59v5H5.31v6.33H17.59v4.94H5.31v11H0Z"/><path class="cls-1" d="M24.1.26a3.21,3.21,0,0,1,3.33,3.37A3.17,3.17,0,0,1,24.1,6.92a3.16,3.16,0,0,1-3.29-3.29A3.22,3.22,0,0,1,24.1.26ZM21.48,9.32h5.28V29.53H21.48Z"/><path class="cls-1" d="M30.88,9.32H36v3.11A5.52,5.52,0,0,1,41.54,9,7.5,7.5,0,0,1,45,9.73l-1.87,5.09a4.76,4.76,0,0,0-2.7-.71c-2.65,0-4.38,1.35-4.38,4.75V29.53H30.88Z"/><path class="cls-1" d="M45.29,19.46A10.43,10.43,0,0,1,55.88,8.91,10.07,10.07,0,0,1,66.32,19.28v1.94H50.26a5.62,5.62,0,0,0,5.81,4.27,5.5,5.5,0,0,0,5-2.7l4.23,2.48A10.62,10.62,0,0,1,56,29.94C49.48,29.94,45.29,25.34,45.29,19.46Zm5.12-2.28H61.19a5.09,5.09,0,0,0-5.31-3.89A5.63,5.63,0,0,0,50.41,17.18Z"/><path class="cls-1" d="M67.82,9.32h3.33V8.61C71.15,2.06,73.21,0,79.79,0h1.35V4.75h-.86c-3.59,0-4,.53-4,3.6v1h4.86V14H76.28V29.53H71.15V14H67.82Z"/><path class="cls-1" d="M82.34,19.43A10.69,10.69,0,1,1,93,29.94,10.47,10.47,0,0,1,82.34,19.43Zm16.24,0A5.54,5.54,0,1,0,93,25,5.57,5.57,0,0,0,98.58,19.39Z"/><path class="cls-1" d="M111.46,19.16l-7.15-9.84h6.14l4.23,6,4.26-6H125l-7.19,9.88,7.71,10.33h-6.25l-4.64-6.32-4.53,6.32H103.9Z"/><path class="cls-1" d="M137.92,2.21h10.29c6,0,10,4.15,10,9.54s-4.08,9.58-10,9.58h-7.15v8.2h-3.14Zm3.14,2.84v13.4h7c4.42,0,7.08-2.92,7.08-6.7s-2.7-6.7-7.11-6.7Z"/><path class="cls-1" d="M163.11,9.32h2.95v3.82A5.6,5.6,0,0,1,171.83,9a6.6,6.6,0,0,1,3.37.75l-1.28,2.92a4.36,4.36,0,0,0-2.47-.64c-3.37,0-5.31,1.95-5.31,6.4V29.53h-3Z"/><path class="cls-1" d="M180.51.67a2.36,2.36,0,0,1,2.43,2.44,2.42,2.42,0,1,1-4.83,0A2.38,2.38,0,0,1,180.51.67ZM179,9.32h3.11V29.53H179Z"/><path class="cls-1" d="M185.71,9.32H189l6.51,16.47,6.63-16.47h3.25l-8.49,20.21h-3Z"/><path class="cls-1" d="M207.27,24c0-4.15,3.52-6.55,9.17-6.55h6.4v-.78c0-3.07-2-5.13-5.91-5.13a7.13,7.13,0,0,0-6.44,3.4l-2.66-1.68A10.91,10.91,0,0,1,217,8.91c5.77,0,8.87,3.18,8.87,7.75V29.53h-3V26a10.24,10.24,0,0,1-8.38,4C209.63,29.94,207.27,27.25,207.27,24Zm15.57-1.31V19.91h-6.25c-4.19,0-6.18,1.35-6.18,3.86,0,2,1.42,3.48,4.61,3.48A8.89,8.89,0,0,0,222.84,22.68Z"/><path class="cls-1" d="M230.29,19.43A10.37,10.37,0,0,1,240.84,8.91a10.18,10.18,0,0,1,9.55,6.14l-2.81,1.23a7.14,7.14,0,0,0-6.78-4.49,7.47,7.47,0,0,0-7.44,7.64,7.55,7.55,0,0,0,7.56,7.63,7.22,7.22,0,0,0,6.73-4.68l2.85,1.2a10.11,10.11,0,0,1-9.62,6.36A10.41,10.41,0,0,1,230.29,19.43Z"/><path class="cls-1" d="M251.06,34.88l2-2.5A3.66,3.66,0,0,0,256,33.76c2.14,0,3.15-.9,4.64-4.23l.45-1L252.59,9.32h3.33L262.7,25l6.44-15.65h3.33L263.3,30.43c-1.95,4.53-3.78,6.25-7.3,6.25A7.36,7.36,0,0,1,251.06,34.88Z"/><path class="cls-1" d="M285.72,2.21h8c8.53,0,14.22,5.91,14.22,13.66s-6.07,13.66-14.11,13.66h-8.12Zm3.14,2.84V26.61h4.68c6.59,0,11.26-4.64,11.26-10.74S300.43,5.05,293.43,5.05Z"/><path class="cls-1" d="M312.1,19.5A10.37,10.37,0,0,1,322.66,8.91,10,10,0,0,1,333,19.2v1.39H315.1a7.3,7.3,0,0,0,7.67,6.58,7.21,7.21,0,0,0,6.77-3.89l2.63,1.54a10.38,10.38,0,0,1-9.4,5.12C316.29,29.94,312.1,25.42,312.1,19.5Zm3.07-1.61h14.64a6.81,6.81,0,0,0-7.15-6.25A7.52,7.52,0,0,0,315.17,17.89Z"/><path class="cls-1" d="M335,9.32h3.74V7.75c0-6,1.69-7.71,7.6-7.71h.94V2.92h-.71c-4.12,0-4.79.67-4.79,4.87V9.32h5.5v2.73h-5.5V29.53h-3V12.05H335Z"/><path class="cls-1" d="M348.86,19.5A10.36,10.36,0,0,1,359.41,8.91,10,10,0,0,1,369.7,19.2v1.39H351.85a7.31,7.31,0,0,0,7.67,6.58,7.24,7.24,0,0,0,6.78-3.89l2.62,1.54a10.38,10.38,0,0,1-9.4,5.12C353.05,29.94,348.86,25.42,348.86,19.5Zm3.07-1.61h14.63a6.81,6.81,0,0,0-7.15-6.25A7.5,7.5,0,0,0,351.93,17.89Z"/><path class="cls-1" d="M374.31,9.32h3v3.37a8.08,8.08,0,0,1,7-3.78c5.28,0,8.61,3.44,8.61,9.09V29.53h-3.11V18.15c0-3.93-2.17-6.47-6.1-6.47a6.3,6.3,0,0,0-6.36,6.62V29.53h-3.07Z"/><path class="cls-1" d="M397.36,19.43a10.2,10.2,0,0,1,10.3-10.52,9.18,9.18,0,0,1,7.56,3.93V0h3V29.53h-3V25.94a9.14,9.14,0,0,1-7.56,4A10.16,10.16,0,0,1,397.36,19.43Zm18.08,0a7.53,7.53,0,0,0-7.52-7.67,7.44,7.44,0,0,0-7.45,7.67,7.38,7.38,0,0,0,7.45,7.67A7.48,7.48,0,0,0,415.44,19.39Z"/><path class="cls-1" d="M422.89,19.5A10.36,10.36,0,0,1,433.44,8.91a10,10,0,0,1,10.3,10.29v1.39H425.88a7.31,7.31,0,0,0,7.67,6.58,7.24,7.24,0,0,0,6.78-3.89L443,24.82a10.38,10.38,0,0,1-9.4,5.12C427.08,29.94,422.89,25.42,422.89,19.5ZM426,17.89h14.63a6.81,6.81,0,0,0-7.15-6.25A7.5,7.5,0,0,0,426,17.89Z"/><path class="cls-1" d="M448.34,9.32h3v3.82A5.61,5.61,0,0,1,457.06,9a6.6,6.6,0,0,1,3.37.75l-1.28,2.92a4.36,4.36,0,0,0-2.47-.64c-3.36,0-5.31,1.95-5.31,6.4V29.53h-3Z"/></g></g></svg>