<svg xmlns="http://www.w3.org/2000/svg" viewBox="0 0 3625.2 2039.17"><defs><linearGradient id="linear-gradient" x1="-246.29" y1="780.16" x2="1459.37" y2="1190.1" gradientUnits="userSpaceOnUse"><stop offset="0" stop-color="#073072"/><stop offset="1" stop-color="#20123a"/></linearGradient><linearGradient id="linear-gradient-2" x1="569.95" y1="765.77" x2="2110.66" y2="778.83" gradientUnits="userSpaceOnUse"><stop offset=".01" stop-color="#0047b4"/><stop offset=".39" stop-color="#073072"/><stop offset="1" stop-color="#20123a"/></linearGradient><linearGradient id="linear-gradient-3" x1="1087.22" y1="711.97" x2="2681.91" y2="1453.18" gradientUnits="userSpaceOnUse"><stop offset="0" stop-color="#45278d"/><stop offset="1" stop-color="#0c1e44"/></linearGradient><style>.cls-1{fill:none}</style></defs><g id="Layer_2" data-name="Layer 2"><g id="Layer_1-2" data-name="Layer 1"><path class="cls-1" d="M1595.24 5.91L1605.56 0h-291A1174.63 1174.63 0 011489 78.55a804.21 804.21 0 01106.24-72.64zM3625.2 798.68V688.4l-253.94 145.34 253.94-35.06zM523 0H0v370.85C135.54 203.32 316 73.61 523 0zM0 1855.7v183.47h185.25A1188.25 1188.25 0 010 1855.7z"/><path d="M185.25 2039.17h1406a812.69 812.69 0 01-34.32-144.5 802.12 802.12 0 0120.75-328.67l-274.27-470.92C1102.94 750.87 1189.23 320.88 1489 78.55A1174.63 1174.63 0 001314.56 0H523C316 73.61 135.54 203.32 0 370.85V1855.7a1188.25 1188.25 0 00185.25 183.47z" fill-rule="evenodd" fill="url(#linear-gradient)"/><path d="M1489 78.55c-299.74 242.33-386 672.32-185.56 1016.51L1577.68 1566c82.3-296.73 332.43-530.54 655.91-575.19l1137.67-157L3625.2 688.4V0H1605.56l-10.32 5.91A804.21 804.21 0 001489 78.55z" fill="url(#linear-gradient-2)"/><path d="M2233.59 990.79c-323.48 44.65-573.59 278.46-655.91 575.21a802.12 802.12 0 00-20.77 328.69 812.69 812.69 0 0034.32 144.5h2034V798.68l-253.94 35.06z" fill="url(#linear-gradient-3)"/></g></g></svg>