<svg xmlns="http://www.w3.org/2000/svg" xmlns:xlink="http://www.w3.org/1999/xlink" viewBox="0 0 247.26 168.52"><defs><linearGradient id="New_Gradient_Swatch_2" x1="265.35" y1="117.17" x2="-26.03" y2="120.4" gradientTransform="rotate(-28.38 149.04 80.036)" gradientUnits="userSpaceOnUse"><stop offset="0" stop-color="#f3ec5e"/><stop offset=".21" stop-color="#ff9215"/><stop offset=".49" stop-color="#f5156c"/><stop offset=".86" stop-color="#7d64e6"/><stop offset="1" stop-color="#3a8ee6"/></linearGradient><linearGradient id="New_Gradient_Swatch_2-3" x1="298.36" y1="5.15" x2="6.98" y2="8.39" xlink:href="#New_Gradient_Swatch_2"/><linearGradient id="New_Gradient_Swatch_2-5" x1="207.1" y1="5.21" x2="-84.28" y2="8.45" xlink:href="#New_Gradient_Swatch_2"/><linearGradient id="linear-gradient" x1="253.4" y1="-1.12" x2="1.78" y2="132.39" xlink:href="#New_Gradient_Swatch_2"/><linearGradient id="linear-gradient-2" x1="-70.65" y1="162.33" x2="100.14" y2="98.7" gradientUnits="userSpaceOnUse"><stop offset="0" stop-color="#0c1e44"/><stop offset="1" stop-color="#06378b"/></linearGradient><linearGradient id="New_Gradient_Swatch_2-7" x1="276.49" y1="73.04" x2="-14.89" y2="76.28" xlink:href="#New_Gradient_Swatch_2"/><linearGradient id="New_Gradient_Swatch_2-9" x1="276.49" y1="73.28" x2="-14.89" y2="76.51" xlink:href="#New_Gradient_Swatch_2"/><linearGradient id="New_Gradient_Swatch_2-11" x1="276.49" y1="73.51" x2="-14.89" y2="76.75" xlink:href="#New_Gradient_Swatch_2"/><linearGradient id="New_Gradient_Swatch_2-13" x1="276.5" y1="73.75" x2="-14.89" y2="76.98" xlink:href="#New_Gradient_Swatch_2"/><linearGradient id="New_Gradient_Swatch_2-15" x1="276.49" y1="72.81" x2="-14.9" y2="76.04" xlink:href="#New_Gradient_Swatch_2"/><linearGradient id="New_Gradient_Swatch_2-17" x1="276.5" y1="74.32" x2="-14.88" y2="77.56" xlink:href="#New_Gradient_Swatch_2"/><linearGradient id="New_Gradient_Swatch_2-19" x1="276.5" y1="74.52" x2="-14.88" y2="77.76" xlink:href="#New_Gradient_Swatch_2"/><linearGradient id="New_Gradient_Swatch_2-21" x1="276.51" y1="74.73" x2="-14.88" y2="77.97" xlink:href="#New_Gradient_Swatch_2"/><linearGradient id="New_Gradient_Swatch_2-23" x1="276.51" y1="75.14" x2="-14.87" y2="78.37" xlink:href="#New_Gradient_Swatch_2"/><linearGradient id="New_Gradient_Swatch_2-25" x1="276.51" y1="75.34" x2="-14.87" y2="78.58" xlink:href="#New_Gradient_Swatch_2"/><linearGradient id="New_Gradient_Swatch_2-27" x1="276.5" y1="74.04" x2="-14.88" y2="77.28" xlink:href="#New_Gradient_Swatch_2"/><linearGradient id="New_Gradient_Swatch_2-28" x1="276.54" y1="77.54" x2="-14.84" y2="80.78" xlink:href="#New_Gradient_Swatch_2"/><style>.cls-1{fill:url(#New_Gradient_Swatch_2)}.cls-2{fill:url(#New_Gradient_Swatch_2-3)}.cls-3{fill:url(#New_Gradient_Swatch_2-5)}.cls-5{fill:#bd7dff}.cls-10{fill:url(#New_Gradient_Swatch_2-7)}.cls-11{fill:url(#New_Gradient_Swatch_2-9)}.cls-12{fill:url(#New_Gradient_Swatch_2-11)}.cls-13{fill:url(#New_Gradient_Swatch_2-13)}.cls-14{fill:url(#New_Gradient_Swatch_2-15)}.cls-15{fill:url(#New_Gradient_Swatch_2-17)}.cls-16{fill:url(#New_Gradient_Swatch_2-19)}.cls-17{fill:url(#New_Gradient_Swatch_2-21)}.cls-18{fill:url(#New_Gradient_Swatch_2-23)}.cls-19{fill:url(#New_Gradient_Swatch_2-25)}</style></defs><g id="Layer_2" data-name="Layer 2"><g id="Layer_1-2" data-name="Layer 1"><path class="cls-1" d="M93.7 152.77l-2.78 2 .56-3.33a.55.55 0 00-.12-.44.52.52 0 00-.4-.21l-2.37-.1a.5.5 0 00-.43.16.59.59 0 00-.16.44l.3 3.36-2.63-2.13a.55.55 0 00-.44-.12.55.55 0 00-.4.21l-1.27 2a.54.54 0 00.24.8l3 1.42-3.16 1.2h-.07a.56.56 0 00-.23.75l1.18 2.22a.54.54 0 00.36.28.55.55 0 00.45-.08l2.81-1.94-.55 3.34a.2.2 0 000 .07.55.55 0 00.53.57l2.38.11a.55.55 0 00.42-.17.52.52 0 00.15-.43l-.29-3.42 2.68 2.12a.52.52 0 00.43.11.56.56 0 00.41-.22l1.26-2a.57.57 0 00.07-.46.59.59 0 00-.31-.35L92.24 157l3.12-1.15a.59.59 0 00.32-.32.57.57 0 000-.46L94.51 153a.5.5 0 00-.36-.29.55.55 0 00-.45.06z"/><path class="cls-1" d="M95.66 155.11a.57.57 0 010 .46.59.59 0 01-.32.32l-3.1 1.11 3.07 1.42a.59.59 0 01.31.35.57.57 0 01-.07.46l-1.26 2a.56.56 0 01-.41.22.52.52 0 01-.43-.11l-2.68-2.12.29 3.42a.52.52 0 01-.15.43.55.55 0 01-.42.17l-2.38-.11a.55.55 0 01-.53-.57.2.2 0 010-.07l.55-3.34-2.81 1.94a.55.55 0 01-.45.08.54.54 0 01-.36-.28l-1.13-2.08a.56.56 0 01.23-.75h.07l3.16-1.2-3-1.42a.54.54 0 01-.24-.8l1.27-2a.55.55 0 01.4-.21.55.55 0 01.44.12l2.63 2.13-.3-3.36a.59.59 0 01.16-.44.5.5 0 01.43-.16l2.37.1a.52.52 0 01.4.21.55.55 0 01.12.44l-.56 3.33 2.78-2a.55.55 0 01.45-.08.5.5 0 01.36.29z"/><path class="cls-2" d="M88 28.27l-2.78 2 .57-3.27a.52.52 0 00-.12-.44.55.55 0 00-.4-.21l-2.37-.1a.53.53 0 00-.43.16.6.6 0 00-.16.44l.3 3.36L80 28a.55.55 0 00-.44-.12.53.53 0 00-.4.22l-1.27 2a.57.57 0 00-.07.46.55.55 0 00.31.34l3 1.42L78 33.58h-.07a.56.56 0 00-.23.75l1.13 2.08a.54.54 0 00.36.28.55.55 0 00.45-.08l2.81-1.94-.55 3.35a.13.13 0 000 .06.55.55 0 00.53.57l2.38.11a.55.55 0 00.57-.6l-.29-3.41 2.68 2.11a.49.49 0 00.43.11.52.52 0 00.41-.21l1.26-2a.57.57 0 00.07-.46.55.55 0 00-.31-.34l-3.06-1.43 3.11-1.15a.59.59 0 00.32-.32.57.57 0 000-.46l-1.15-2.13a.5.5 0 00-.36-.29.52.52 0 00-.49.09z"/><path class="cls-2" d="M90 30.6a.57.57 0 010 .46.59.59 0 01-.32.32l-3.11 1.15L89.62 34a.55.55 0 01.31.34.57.57 0 01-.07.46l-1.26 2a.52.52 0 01-.41.21.49.49 0 01-.43-.11l-2.68-2.11.29 3.41a.55.55 0 01-.57.6l-2.38-.11a.55.55 0 01-.53-.57.13.13 0 010-.06l.55-3.35-2.81 1.94a.55.55 0 01-.45.08.54.54 0 01-.36-.28l-1.12-2.09a.56.56 0 01.23-.75H78l3.16-1.2-3-1.42a.55.55 0 01-.31-.34.57.57 0 01.07-.46l1.27-2a.53.53 0 01.4-.22.55.55 0 01.41.03l2.63 2.13-.3-3.36a.6.6 0 01.16-.44.53.53 0 01.43-.16l2.37.1a.55.55 0 01.4.21.52.52 0 01.12.44l-.56 3.34 2.78-2a.52.52 0 01.45-.09.5.5 0 01.36.29z"/><path class="cls-3" d="M133.27 2.07l-2.77 2 .56-3.33a.54.54 0 00-.12-.44.52.52 0 00-.41-.21L128.16 0a.52.52 0 00-.42.17.56.56 0 00-.16.43l.29 3.4-2.63-2.13a.5.5 0 00-.44-.12.59.59 0 00-.4.21l-1.26 2a.55.55 0 00-.07.45.54.54 0 00.3.34l3.06 1.42-3.16 1.2h-.07a.57.57 0 00-.23.76l1.12 2.07a.58.58 0 00.82.2l2.81-1.94-.55 3.35a.17.17 0 000 .07.54.54 0 00.53.56l2.38.12a.58.58 0 00.42-.18.52.52 0 00.15-.43l-.29-3.41L133 10.7a.54.54 0 00.44.11.56.56 0 00.41-.22l1.26-2a.58.58 0 00.07-.46.57.57 0 00-.31-.35l-3.07-1.43 3.12-1.15a.56.56 0 00.32-.32.61.61 0 000-.46l-1.15-2.13a.55.55 0 00-.37-.29.52.52 0 00-.45.07z"/><path class="cls-3" d="M135.24 4.4a.61.61 0 010 .46.56.56 0 01-.32.32l-3.12 1.15 3.07 1.43a.57.57 0 01.31.35.58.58 0 01-.07.46l-1.26 2a.56.56 0 01-.41.22.54.54 0 01-.44-.11l-2.67-2.12.29 3.41a.52.52 0 01-.15.43.58.58 0 01-.42.18l-2.38-.12a.54.54 0 01-.53-.56.17.17 0 010-.07l.55-3.35-2.81 1.94a.58.58 0 01-.82-.2L123 8.17a.57.57 0 01.23-.76h.07l3.16-1.2-3.06-1.42a.54.54 0 01-.3-.34.55.55 0 01.07-.45l1.26-2a.59.59 0 01.4-.21.5.5 0 01.44.12l2.6 2.09-.29-3.4a.56.56 0 01.16-.43.52.52 0 01.42-.17l2.37.11a.52.52 0 01.41.21.54.54 0 01.12.44l-.56 3.33 2.77-2a.52.52 0 01.45-.09.55.55 0 01.37.29z"/><path d="M179.3 19.81l-154 86.58a9.65 9.65 0 00-3.66 13.19l4.36 7.64a9.83 9.83 0 0013.31 3.62l154-86.57A9.66 9.66 0 00197 31.08l-4.37-7.64a9.84 9.84 0 00-13.33-3.63z" fill="url(#linear-gradient)"/><path class="cls-5" d="M121.89 42.33c51.67 0 83.82 35.34 88.25 41.48a5.53 5.53 0 00.56-1.21c0-1.64-33-57.23-88.81-57.23S33.09 81 33.09 82.6a5.49 5.49 0 00.55 1.21c4.43-6.14 36.59-41.48 88.25-41.48z"/><path d="M121.89 42.33c-51.66 0-83.82 35.34-88.25 41.48a71 71 0 004.39 7c11.18 15.82 40.7 49 83.8 49s72.63-33.22 83.81-49a72.88 72.88 0 004.39-7c-4.32-6.14-36.47-41.48-88.14-41.48z" fill="#e2daff"/><circle class="cls-5" cx="121.89" cy="76.23" r="50.88"/><circle cx="121.67" cy="76.23" r="38.15" fill="#a266ff"/><circle cx="122" cy="76.12" r="25.56" fill="#45278d"/><path d="M32.52 113.3L217.9 13.15a14.7 14.7 0 0119.93 6l7.66 14.17a14.71 14.71 0 01-6 19.93L29.36 166.75a14.71 14.71 0 01-19.93-6l-7.66-14.13a14.71 14.71 0 015.95-19.93l24.8-13.39" fill="url(#linear-gradient-2)"/><path class="cls-10" d="M45.52 129.18l-2.77 2 .56-3.33a.57.57 0 00-.12-.44.52.52 0 00-.41-.21l-2.37-.11a.52.52 0 00-.42.17.53.53 0 00-.16.43l.29 3.37-2.63-2.06a.5.5 0 00-.44-.12.57.57 0 00-.4.21l-1.27 2a.59.59 0 00-.06.45.54.54 0 00.3.34l3.05 1.42-3.16 1.2h-.06a.57.57 0 00-.23.76l1.12 2.07a.55.55 0 00.37.28.56.56 0 00.45-.08l2.84-1.92-.59 3.39a.54.54 0 00.53.56l2.37.12a.58.58 0 00.43-.18.56.56 0 00.15-.43l-.29-3.41 2.67 2.12a.62.62 0 00.84-.11l1.27-2a.62.62 0 00.07-.46.57.57 0 00-.31-.35l-3.07-1.43 3.12-1.15a.56.56 0 00.32-.32.61.61 0 000-.46l-1.15-2.13a.55.55 0 00-.37-.29.52.52 0 00-.47.1z"/><path class="cls-10" d="M47.49 131.51a.61.61 0 010 .46.56.56 0 01-.32.32l-3.12 1.15 3.07 1.43a.57.57 0 01.31.35.62.62 0 01-.07.46l-1.27 2a.62.62 0 01-.84.11l-2.67-2.12.29 3.41a.56.56 0 01-.15.43.58.58 0 01-.43.18l-2.37-.12a.54.54 0 01-.53-.56V139l.56-3.35-2.81 1.94a.56.56 0 01-.45.08.55.55 0 01-.37-.28l-1.12-2.07a.57.57 0 01.23-.76h.06l3.16-1.2-3.05-1.42a.54.54 0 01-.3-.34.59.59 0 01.06-.45l1.27-2a.57.57 0 01.4-.21.5.5 0 01.44.12l2.63 2.13-.29-3.37a.53.53 0 01.16-.43.52.52 0 01.42-.17l2.37.11a.52.52 0 01.41.21.57.57 0 01.12.44l-.56 3.33 2.77-2a.52.52 0 01.45-.09.55.55 0 01.37.29z"/><path class="cls-11" d="M64.14 119.12l-2.77 2 .55-3.33a.55.55 0 00-.52-.65l-2.37-.1a.5.5 0 00-.43.16.59.59 0 00-.16.44l.3 3.36-2.63-2.13a.62.62 0 00-.84.09L54 121a.54.54 0 00.24.8l3 1.42-3.16 1.2h-.06a.54.54 0 00-.23.75L55 127.3a.54.54 0 00.36.28.59.59 0 00.45-.08l2.81-1.94-.62 3.34v.07a.55.55 0 00.54.57l2.37.11a.55.55 0 00.42-.17.52.52 0 00.15-.43l-.29-3.42 2.68 2.12a.52.52 0 00.43.11.55.55 0 00.41-.22l1.27-2a.61.61 0 00.06-.46.59.59 0 00-.31-.35l-3.06-1.42 3.11-1.15a.56.56 0 00.32-.32.61.61 0 000-.46l-1.1-2.15a.5.5 0 00-.36-.29.55.55 0 00-.5.08z"/><path class="cls-11" d="M66.11 121.46a.61.61 0 010 .46.56.56 0 01-.32.32l-3.11 1.15 3.06 1.42a.59.59 0 01.31.35.61.61 0 01-.06.46l-1.27 2a.55.55 0 01-.41.22.52.52 0 01-.43-.11l-2.68-2.12.29 3.42a.52.52 0 01-.15.43.55.55 0 01-.42.17l-2.37-.11A.55.55 0 0158 129v-.07l.55-3.34-2.81 1.94a.59.59 0 01-.45.08.54.54 0 01-.36-.28l-1.12-2.08a.54.54 0 01.23-.75h.06l3.16-1.2-3-1.42A.54.54 0 0154 121l1.27-2a.62.62 0 01.84-.09l2.63 2.09-.3-3.36a.59.59 0 01.16-.44.5.5 0 01.43-.16l2.37.1a.55.55 0 01.52.65l-.55 3.33 2.77-2a.55.55 0 01.45-.08.5.5 0 01.36.29z"/><path class="cls-12" d="M82.75 109.07l-2.77 2 .56-3.33a.54.54 0 00-.12-.44.56.56 0 00-.41-.22l-2.37-.1a.54.54 0 00-.42.16.6.6 0 00-.16.44l.29 3.37-2.63-2.14a.57.57 0 00-.44-.12.54.54 0 00-.4.22l-1.26 2a.58.58 0 00-.07.46.56.56 0 00.3.34l3.06 1.42-3.16 1.2h-.07a.56.56 0 00-.23.75l1.12 2.08a.58.58 0 00.37.28.55.55 0 00.45-.08l2.81-1.94-.55 3.35a.15.15 0 000 .07.55.55 0 00.53.56l2.38.11a.53.53 0 00.42-.17.52.52 0 00.15-.43l-.29-3.41 2.67 2.11a.5.5 0 00.44.12.56.56 0 00.41-.22l1.26-2a.59.59 0 00.07-.45.54.54 0 00-.31-.35l-3.07-1.43 3.12-1.15a.59.59 0 00.32-.32.61.61 0 000-.46l-1.15-2.13a.55.55 0 00-.37-.29.52.52 0 00-.48.14z"/><path class="cls-12" d="M84.72 111.4a.61.61 0 010 .46.59.59 0 01-.32.32l-3.12 1.15 3.07 1.43a.54.54 0 01.31.35.59.59 0 01-.07.45l-1.26 2a.56.56 0 01-.41.22.5.5 0 01-.44-.12l-2.67-2.11.29 3.41a.52.52 0 01-.15.43.53.53 0 01-.42.17l-2.38-.11a.55.55 0 01-.53-.56.15.15 0 010-.07l.55-3.35-2.81 1.94a.55.55 0 01-.45.08.58.58 0 01-.37-.28l-1.12-2.08a.56.56 0 01.23-.75h.07l3.16-1.2-3.06-1.42a.56.56 0 01-.3-.34.58.58 0 01.07-.46l1.26-2a.54.54 0 01.4-.22.57.57 0 01.44.12l2.66 2.14-.29-3.37a.6.6 0 01.16-.44.54.54 0 01.42-.16l2.37.1a.56.56 0 01.41.22.54.54 0 01.12.44l-.54 3.3 2.77-2a.52.52 0 01.45-.09.55.55 0 01.37.29z"/><path class="cls-13" d="M101.37 99l-2.77 2 .56-3.33a.57.57 0 00-.12-.44.52.52 0 00-.41-.21l-2.37-.11a.54.54 0 00-.43.17.56.56 0 00-.16.43l.3 3.37-2.63-2.13a.5.5 0 00-.44-.12.57.57 0 00-.4.21l-1.27 2a.51.51 0 00-.06.45.53.53 0 00.3.35l3 1.41-3.16 1.21h-.06a.56.56 0 00-.23.76l1.12 2.07a.51.51 0 00.36.28.58.58 0 00.45-.07l2.81-1.94-.55 3.34v.07a.56.56 0 00.54.57l2.37.11a.59.59 0 00.42-.17.56.56 0 00.15-.44l-.29-3.41 2.68 2.12a.53.53 0 00.44.11.54.54 0 00.4-.22l1.27-2a.62.62 0 00.06-.46.59.59 0 00-.31-.35l-3.06-1.43 3.11-1.15a.51.51 0 00.32-.32.61.61 0 000-.46l-1.16-2.13a.54.54 0 00-.81-.2z"/><path class="cls-13" d="M103.34 101.34a.61.61 0 010 .46.51.51 0 01-.32.32l-3.11 1.15 3.09 1.43a.59.59 0 01.31.35.62.62 0 01-.06.46l-1.27 2a.54.54 0 01-.4.22.53.53 0 01-.44-.11l-2.68-2.12.29 3.41a.56.56 0 01-.15.44.59.59 0 01-.42.17l-2.37-.11a.56.56 0 01-.54-.57v-.07l.55-3.34-2.82 1.96a.58.58 0 01-.45.07.51.51 0 01-.36-.28l-1.12-2.07a.56.56 0 01.23-.76h.06l3.16-1.21-3-1.41a.53.53 0 01-.3-.35.51.51 0 01.06-.45l1.27-2a.57.57 0 01.4-.21.5.5 0 01.44.12l2.61 2.07-.3-3.37a.56.56 0 01.16-.43.54.54 0 01.43-.17l2.37.11a.52.52 0 01.41.21.57.57 0 01.12.44l-.59 3.3 2.77-2a.54.54 0 01.81.2z"/><path class="cls-14" d="M26.91 139.24l-2.78 2 .56-3.33a.56.56 0 00-.11-.45.59.59 0 00-.41-.21l-2.37-.1a.56.56 0 00-.43.16.6.6 0 00-.16.44l.3 3.36-2.63-2.11a.55.55 0 00-.44-.12.53.53 0 00-.4.22l-1.27 2a.58.58 0 00-.07.46.55.55 0 00.31.34l3 1.42-3.16 1.2h-.06a.54.54 0 00-.23.75l1.12 2.08a.54.54 0 00.36.28.55.55 0 00.45-.08l2.81-1.94-.5 3.39v.07a.55.55 0 00.53.56l2.38.11a.55.55 0 00.57-.6l-.28-3.39 2.68 2.11a.52.52 0 00.43.12.56.56 0 00.41-.22l1.26-2a.55.55 0 00.07-.45.54.54 0 00-.31-.35l-3.06-1.43 3.11-1.15a.53.53 0 00.32-.32.61.61 0 000-.46l-1.16-2.13a.53.53 0 00-.36-.29.52.52 0 00-.48.06z"/><path class="cls-14" d="M28.88 141.57a.61.61 0 010 .46.53.53 0 01-.32.32l-3.11 1.15 3.06 1.43a.54.54 0 01.31.35.55.55 0 01-.07.45l-1.26 2a.56.56 0 01-.41.22.52.52 0 01-.43-.12L24 145.75l.29 3.41a.55.55 0 01-.57.6l-2.38-.11a.55.55 0 01-.53-.56v-.07l.55-3.35-2.81 1.94a.55.55 0 01-.45.08.54.54 0 01-.36-.28l-1.12-2.08a.54.54 0 01.23-.75h.06l3.16-1.2-3-1.42a.55.55 0 01-.31-.34.58.58 0 01.07-.46l1.27-2a.53.53 0 01.4-.22.55.55 0 01.44.12l2.63 2.13-.3-3.36a.6.6 0 01.16-.44.56.56 0 01.43-.16l2.37.1a.59.59 0 01.41.21.56.56 0 01.11.45l-.56 3.33 2.78-2a.52.52 0 01.45-.09.53.53 0 01.36.29z"/><path class="cls-15" d="M146.66 74.55l-2.78 2 .56-3.34a.52.52 0 00-.12-.44.55.55 0 00-.4-.21l-2.37-.1a.53.53 0 00-.43.16.6.6 0 00-.16.44l.3 3.36-2.63-2.13a.55.55 0 00-.44-.12.53.53 0 00-.4.22l-1.27 2a.57.57 0 00-.07.46.55.55 0 00.31.34l3.05 1.42-3.16 1.2h-.06a.54.54 0 00-.23.75l1.12 2.08a.54.54 0 00.36.28.55.55 0 00.45-.08L141.1 81l-.55 3.35a.13.13 0 000 .06.55.55 0 00.53.57l2.38.11a.55.55 0 00.57-.6l-.29-3.41 2.68 2.11a.52.52 0 00.43.12.56.56 0 00.41-.22l1.26-2a.57.57 0 00.07-.46.55.55 0 00-.31-.34l-3.06-1.43 3.11-1.15a.59.59 0 00.32-.32.57.57 0 000-.46l-1.15-2.13a.5.5 0 00-.36-.29.52.52 0 00-.48.04z"/><path class="cls-15" d="M148.62 76.88a.57.57 0 010 .46.59.59 0 01-.32.32l-3.11 1.15 3.06 1.43a.55.55 0 01.31.34.57.57 0 01-.07.46l-1.26 2a.56.56 0 01-.41.22.52.52 0 01-.43-.12l-2.68-2.11.29 3.41a.55.55 0 01-.57.6l-2.36-.04a.55.55 0 01-.53-.57.13.13 0 010-.06l.56-3.37-2.81 1.94a.55.55 0 01-.45.08.54.54 0 01-.36-.28l-1.12-2.08a.54.54 0 01.23-.75h.06l3.16-1.2-3.05-1.42a.55.55 0 01-.31-.34.57.57 0 01.07-.46l1.27-2a.53.53 0 01.4-.22.55.55 0 01.44.12l2.63 2.13-.3-3.36a.6.6 0 01.16-.44.53.53 0 01.43-.16l2.37.1a.55.55 0 01.4.21.52.52 0 01.12.44l-.56 3.34 2.78-2a.52.52 0 01.45-.09.5.5 0 01.36.29z"/><path class="cls-16" d="M162.86 65.79l-2.77 2 .56-3.33a.57.57 0 00-.12-.44.52.52 0 00-.41-.21l-2.37-.11a.51.51 0 00-.42.17.5.5 0 00-.16.43l.29 3.37-2.63-2.13a.5.5 0 00-.44-.12.57.57 0 00-.4.21l-1.27 2a.55.55 0 00.24.8l3 1.41-3.16 1.21h-.06a.55.55 0 00-.23.75l1.17 2.2a.55.55 0 00.36.29.67.67 0 00.46-.08l2.8-1.94-.55 3.34v.07a.55.55 0 00.53.57l2.37.11a.59.59 0 00.42-.17.54.54 0 00.16-.43l-.3-3.42 2.68 2.12a.62.62 0 00.84-.11l1.27-2a.57.57 0 00.06-.46.61.61 0 00-.3-.35l-3.07-1.42 3.11-1.15a.59.59 0 00.33-.33.63.63 0 000-.45L163.68 66a.55.55 0 00-.37-.28.55.55 0 00-.45.07z"/><path class="cls-16" d="M164.83 68.13a.63.63 0 010 .45.59.59 0 01-.33.33l-3.11 1.15 3.07 1.42a.61.61 0 01.3.35.57.57 0 01-.06.46l-1.27 2a.62.62 0 01-.84.11l-2.68-2.12.3 3.42a.54.54 0 01-.16.43.59.59 0 01-.42.17l-2.37-.11a.55.55 0 01-.53-.57v-.07l.55-3.34-2.8 1.94a.67.67 0 01-.46.08.55.55 0 01-.36-.29l-1.12-2.07a.55.55 0 01.23-.75h.06L156 69.9l-3-1.41a.55.55 0 01-.24-.8l1.27-2a.57.57 0 01.4-.21.5.5 0 01.44.12l2.63 2.13-.29-3.37a.5.5 0 01.16-.43.51.51 0 01.42-.17l2.37.11a.52.52 0 01.41.21.57.57 0 01.12.44l-.56 3.33 2.77-2a.55.55 0 01.45-.08.55.55 0 01.37.28z"/><path class="cls-17" d="M179.06 57l-2.77 2 .56-3.33a.54.54 0 00-.12-.44.52.52 0 00-.41-.21L174 55a.52.52 0 00-.42.17.56.56 0 00-.16.43l.29 3.37L171 56.8a.53.53 0 00-.44-.11.55.55 0 00-.4.21l-1.26 2a.55.55 0 00-.07.45.56.56 0 00.3.34l3.06 1.42-3.16 1.2h-.07a.57.57 0 00-.23.76l1.12 2.07a.58.58 0 00.82.2l2.81-1.94-.48 3.42a.17.17 0 000 .07.55.55 0 00.53.56l2.38.12a.58.58 0 00.42-.18.52.52 0 00.15-.43l-.29-3.41 2.67 2.12a.53.53 0 00.44.11.56.56 0 00.41-.22l1.26-2a.62.62 0 00.07-.46.57.57 0 00-.31-.35l-3.07-1.43 3.12-1.15a.59.59 0 00.32-.32.61.61 0 000-.46l-1.15-2.13a.55.55 0 00-.37-.29.52.52 0 00-.52.03z"/><path class="cls-17" d="M181 59.37a.61.61 0 010 .46.59.59 0 01-.32.32l-3.12 1.15 3.07 1.43a.57.57 0 01.31.35.62.62 0 01-.07.46l-1.26 2a.56.56 0 01-.41.22.53.53 0 01-.44-.11l-2.67-2.12.29 3.41a.52.52 0 01-.15.43.58.58 0 01-.42.18l-2.38-.12a.55.55 0 01-.53-.56.17.17 0 010-.07l.55-3.35-2.81 1.94a.58.58 0 01-.82-.2l-1.12-2.07a.57.57 0 01.23-.76h.07l3.16-1.2-3.06-1.42a.56.56 0 01-.3-.34.55.55 0 01.07-.45l1.26-2a.55.55 0 01.4-.21.53.53 0 01.44.11l2.63 2.14-.29-3.37a.56.56 0 01.16-.43.52.52 0 01.53-.19l2.37.11a.52.52 0 01.41.21.54.54 0 01.12.44l-.56 3.33 2.77-2a.52.52 0 01.45-.09.55.55 0 01.37.29z"/><path class="cls-18" d="M211.47 39.53l-2.77 2 .56-3.33a.57.57 0 00-.12-.44.52.52 0 00-.41-.21l-2.37-.11a.51.51 0 00-.42.17.5.5 0 00-.16.43l.29 3.37-2.63-2.13a.5.5 0 00-.44-.12.57.57 0 00-.4.21l-1.27 2a.56.56 0 00-.06.46.59.59 0 00.3.34l3.05 1.41-3.16 1.21h-.06a.55.55 0 00-.23.75l1.12 2.07a.55.55 0 00.36.29.67.67 0 00.46-.08l2.8-1.94-.55 3.34v.07a.55.55 0 00.53.57l2.37.11a.59.59 0 00.42-.17.54.54 0 00.16-.43l-.3-3.42 2.68 2.12a.62.62 0 00.84-.11l1.27-2a.57.57 0 00.06-.46.58.58 0 00-.3-.35L210 43.8l3.11-1.16a.55.55 0 00.33-.32.58.58 0 000-.45l-1.15-2.14a.55.55 0 00-.37-.28.55.55 0 00-.45.08z"/><path class="cls-18" d="M213.44 41.87a.58.58 0 010 .45.55.55 0 01-.33.32L210 43.8l3.07 1.42a.58.58 0 01.3.35.57.57 0 01-.06.46l-1.27 2a.62.62 0 01-.84.11L208.54 46l.3 3.42a.54.54 0 01-.16.43.59.59 0 01-.42.17l-2.37-.02a.55.55 0 01-.53-.57v-.07l.55-3.34-2.8 1.94a.67.67 0 01-.46.08.55.55 0 01-.36-.29l-1.12-2.07a.55.55 0 01.23-.75h.06l3.16-1.21-3.05-1.41a.59.59 0 01-.3-.34.56.56 0 01.06-.46l1.27-2a.57.57 0 01.4-.21.5.5 0 01.44.12l2.63 2.13-.29-3.37a.5.5 0 01.16-.43.51.51 0 01.42-.17l2.37.11a.52.52 0 01.41.21.57.57 0 01.12.44l-.56 3.33 2.77-2a.55.55 0 01.45-.08.55.55 0 01.37.28z"/><path class="cls-19" d="M227.67 30.78l-2.77 2 .56-3.33a.54.54 0 00-.12-.44.52.52 0 00-.41-.21l-2.37-.11a.52.52 0 00-.42.17.56.56 0 00-.16.43l.29 3.37-2.63-2.14a.53.53 0 00-.44-.11.55.55 0 00-.4.21l-1.26 2a.55.55 0 00-.07.45.56.56 0 00.3.34l3.06 1.42-3.16 1.2h-.07a.57.57 0 00-.23.76l1.12 2.21a.58.58 0 00.82.2l2.81-1.94-.55 3.35a.17.17 0 000 .07.55.55 0 00.53.56l2.38.12a.58.58 0 00.42-.18.52.52 0 00.15-.43l-.29-3.41 2.67 2.12a.54.54 0 00.44.11.56.56 0 00.41-.22l1.26-2a.58.58 0 00.07-.46.57.57 0 00-.31-.35L226.22 35l3.12-1.15a.56.56 0 00.32-.32.61.61 0 000-.46L228.49 31a.55.55 0 00-.37-.29.52.52 0 00-.45.07z"/><path class="cls-19" d="M229.64 33.11a.61.61 0 010 .46.56.56 0 01-.32.32l-3.1 1.11 3.07 1.43a.57.57 0 01.31.35.58.58 0 01-.07.46l-1.26 2a.56.56 0 01-.41.22.54.54 0 01-.44-.11l-2.67-2.12.25 3.47a.52.52 0 01-.15.43.58.58 0 01-.42.18l-2.38-.12a.55.55 0 01-.53-.56.17.17 0 010-.07l.55-3.35-2.81 1.94a.58.58 0 01-.82-.2l-1.12-2.07a.57.57 0 01.23-.76h.07l3.16-1.2-3.06-1.42a.56.56 0 01-.3-.34.55.55 0 01.07-.45l1.26-2a.55.55 0 01.4-.21.53.53 0 01.44.11l2.63 2.14-.22-3.44a.56.56 0 01.16-.43.52.52 0 01.42-.17l2.37.11a.52.52 0 01.41.21.54.54 0 01.12.44l-.56 3.33 2.77-2a.52.52 0 01.45-.09.55.55 0 01.37.29z"/><path d="M121.91 104a13.25 13.25 0 01-9.64-2.9 13.22 13.22 0 01-3.41-4.13 12.71 12.71 0 01-1.54-5.11 13.56 13.56 0 01.55-5.16 14.29 14.29 0 012.43-4.59 13.24 13.24 0 014.12-3.43 14 14 0 015.21-1.68 13.15 13.15 0 015 .38 12.09 12.09 0 014.19 2.11 11.3 11.3 0 013 3.54 10.73 10.73 0 011 2.71 7.82 7.82 0 01.17 2.61 5.49 5.49 0 01-.79 2.28 4.86 4.86 0 01-1.87 1.71 4.64 4.64 0 01-2.59.66 4.24 4.24 0 01-2.06-.68 5.51 5.51 0 01-.87 2.32 6 6 0 01-4.27 2.58 5.34 5.34 0 01-2.25-.21 5.72 5.72 0 01-2.08-1.2 6.14 6.14 0 01-1.57-2.34 8.46 8.46 0 01-.59-2.87 7 7 0 01.39-2.48 6.39 6.39 0 011.18-2 6.05 6.05 0 011.67-1.35 5.09 5.09 0 012.34-.67 4.26 4.26 0 012 .42 7.35 7.35 0 00-.35-.79 3.29 3.29 0 01-.21-.46.9.9 0 01-.07-.27l2.33-1.26 2.46 6a4.34 4.34 0 001.57 2.26 1.88 1.88 0 001.92-.1 2.36 2.36 0 001.23-2.21 7.12 7.12 0 00-1-3.46 9 9 0 00-2.37-2.8 9.5 9.5 0 00-3.35-1.67 10.85 10.85 0 00-4-.3 11.34 11.34 0 00-4.21 1.36 10.49 10.49 0 00-3.33 2.78 10.71 10.71 0 00-1.93 3.71 11.41 11.41 0 00-.4 4.17 10.69 10.69 0 001.26 4.14 11.14 11.14 0 006.39 5.34 10.44 10.44 0 004.1.45 10.29 10.29 0 004.11-1.24 10.79 10.79 0 003.43-2.85 10.55 10.55 0 001.91-3.87l2.5.57a13.7 13.7 0 01-2.32 4.67 13.51 13.51 0 01-9.43 5.24zm1.22-10.86a3.73 3.73 0 00.6-1.35 4.71 4.71 0 00.06-1.5 5.47 5.47 0 00-.42-1.53 4.1 4.1 0 00-1.87-2.18 2.71 2.71 0 00-2.72.1 4 4 0 00-1.88 2.24 4.27 4.27 0 00.18 3.2 4 4 0 00.84 1.36 3.3 3.3 0 001.18.83 3.13 3.13 0 001.39.25 3.34 3.34 0 001.46-.42 3.63 3.63 0 001.18-1.05z" fill="url(#New_Gradient_Swatch_2-27)"/><path d="M189.42 53.89a2.91 2.91 0 011.45-1.76 3 3 0 012.31-.27 2.91 2.91 0 011.82 1.49 3 3 0 01.28 2.33 2.84 2.84 0 01-1.48 1.8 2.76 2.76 0 01-2.31.25 3.13 3.13 0 01-1.76-1.53 3 3 0 01-.31-2.31z" fill="url(#New_Gradient_Swatch_2-28)"/></g></g></svg>