<svg xmlns="http://www.w3.org/2000/svg" viewBox="0 0 227.31 178.55"><defs><style>.cls-1{fill:#06378b}.cls-3{fill:#0047b4}.cls-7{fill:#b02ddd}</style></defs><g id="Layer_2" data-name="Layer 2"><g id="Layer_1-2" data-name="Layer 1"><path class="cls-1" d="M85.23 0l-4.52 8.12-9.2 5.32c-3.27-3.11-6.35-6.9-9.61-3.79L50.36.73 3 45.9c1.77 1.69 3.49 34.42 5.9 34.44l116.63 19.19c2.6 0 6.12-52.07 7.9-54z"/><path d="M98.42.85H22.16A3.17 3.17 0 0019 4v127.1a3.18 3.18 0 003.17 3.18h92.15a3.19 3.19 0 003.18-3.18V19.91z" fill="#0085eb"/><path class="cls-3" d="M98.42 16.73a3.18 3.18 0 003.18 3.18h15.89L98.42.85zM68.31 27.24a5 5 0 015 5v21a5 5 0 01-5 5 5 5 0 01-5-5v-21a5 5 0 015-5z"/><path d="M87 53L73.2 25.43a5.55 5.55 0 00-9.94 0L49.5 53a5.55 5.55 0 002.5 7.4 5.45 5.45 0 002.47.59H82a5.57 5.57 0 005-8zM65.54 33.21a2.78 2.78 0 015.54 0v11.11a2.78 2.78 0 11-5.54.45 1.69 1.69 0 010-.45zm2.76 22.93a3.49 3.49 0 113.49-3.49 3.47 3.47 0 01-3.45 3.49z" fill="#ff6532"/><path class="cls-1" d="M86 90.77l-17.76 17L52.4 92.71l-1.27-1.2-2 2.15-46.2 47a9.73 9.73 0 006.89 2.86h116.9a9.73 9.73 0 006.88-2.86L88.12 93.08z"/><path class="cls-3" d="M51.08 91.59L2.8 45.93a10.25 10.25 0 00-2.8 6.8v81.17a9.71 9.71 0 002.86 6.88l46.2-47zm84.68-42a10.07 10.07 0 00-2.64-4.15L85.8 90.58l2.2 2.15 45.66 47.9a9.71 9.71 0 002.86-6.88V52.58a9.51 9.51 0 00-.71-3z"/><path d="M172.8 25.91l-4.8 8.63-9.79 5.67c-3.47-3.31-6.75-7.35-10.22-4l-12.27-9.49-50.35 48.02c1.84 1.79 3.67 36.61 6.23 36.63l124.07 20.41c2.77 0 6.51-55.38 8.4-57.41z" fill="#8b27b0"/><path d="M186.83 25.81h-81.12a3.38 3.38 0 00-3.38 3.38v135.2a3.38 3.38 0 003.38 3.38h98a3.38 3.38 0 003.38-3.38V46.09z" fill="#f359ff"/><path class="cls-7" d="M186.83 42.71a3.38 3.38 0 003.38 3.38h16.9l-20.28-20.28zM173.61 122.47l-18.9 18.08-16.84-16-1.35-1.28-2.15 2.29-49.15 50a10.27 10.27 0 007.32 3H216.9a10.31 10.31 0 007.32-3l-48.35-50.59z"/><path d="M136.47 123.34L85.11 74.77a10.94 10.94 0 00-3 7.23v86.35a10.31 10.31 0 003 7.32l49.15-50zm90.08-44.71a10.56 10.56 0 00-2.81-4.41l-50.34 48.05 2.29 2.29 48.58 50.95a10.36 10.36 0 003-7.32V81.84a10.17 10.17 0 00-.76-3.21z" fill="#d043ef"/><path d="M155.84 102a23.74 23.74 0 1123.73-23.7 23.76 23.76 0 01-23.73 23.7z" fill="#37dda7"/><path d="M155.84 55.56a22.74 22.74 0 11-22.73 22.74 22.76 22.76 0 0122.73-22.74m0-2a24.74 24.74 0 1024.73 24.74 24.74 24.74 0 00-24.73-24.74z" fill="#7dffcb"/><path d="M152 89.77a1.92 1.92 0 01-1.36-.56l-5.74-5.74a1.92 1.92 0 012.71-2.71l4.13 4.13 12.08-17.27a1.92 1.92 0 013.14 2.2L153.57 89a1.89 1.89 0 01-1.4.82z" fill="#fff"/></g></g></svg>