<svg xmlns="http://www.w3.org/2000/svg" xmlns:xlink="http://www.w3.org/1999/xlink" viewBox="0 0 230.98 150.64"><defs><linearGradient id="linear-gradient" x1="143.56" y1="43.79" x2="88.95" y2="98.41" gradientUnits="userSpaceOnUse"><stop offset=".23" stop-color="#ff7139"/><stop offset=".4" stop-color="#ff624a"/><stop offset=".72" stop-color="#ff3c75"/><stop offset=".86" stop-color="#ff298a"/></linearGradient><linearGradient id="linear-gradient-2" x1="49.01" y1="139.68" x2="286.45" y2="-97.76" gradientUnits="userSpaceOnUse"><stop offset=".28" stop-color="#7542e5"/><stop offset=".42" stop-color="#824deb"/><stop offset=".79" stop-color="#a067fa"/><stop offset="1" stop-color="#ab71ff"/></linearGradient><linearGradient id="linear-gradient-3" x1="38.62" y1="139.68" x2="276.06" y2="-97.76" xlink:href="#linear-gradient-2"/><linearGradient id="linear-gradient-4" x1="68.5" y1="126.77" x2="261.14" y2="-65.86" xlink:href="#linear-gradient-2"/><linearGradient id="linear-gradient-5" x1="79.72" y1="123.88" x2="262.11" y2="-58.5" xlink:href="#linear-gradient-2"/><linearGradient id="linear-gradient-6" x1="87.7" y1="123.88" x2="270.09" y2="-58.5" xlink:href="#linear-gradient-2"/><linearGradient id="linear-gradient-7" x1="95.68" y1="123.88" x2="278.06" y2="-58.5" xlink:href="#linear-gradient-2"/><linearGradient id="linear-gradient-8" x1="103.66" y1="123.88" x2="286.04" y2="-58.5" xlink:href="#linear-gradient-2"/><linearGradient id="linear-gradient-9" x1="111.64" y1="123.88" x2="294.02" y2="-58.5" xlink:href="#linear-gradient-2"/><linearGradient id="linear-gradient-10" x1="119.62" y1="123.88" x2="302" y2="-58.5" xlink:href="#linear-gradient-2"/><linearGradient id="linear-gradient-11" x1="127.6" y1="123.88" x2="309.98" y2="-58.5" xlink:href="#linear-gradient-2"/><radialGradient id="radial-gradient" cx="132.1" cy="98.21" r="80.86" gradientUnits="userSpaceOnUse"><stop offset=".4" stop-color="#cdcdd4" stop-opacity=".1"/><stop offset=".66" stop-color="#cdcdd4" stop-opacity=".12"/><stop offset=".93" stop-color="#cdcdd4" stop-opacity=".18"/><stop offset="1" stop-color="#cdcdd4" stop-opacity=".2"/></radialGradient><style>.cls-13{fill:#06378b}</style></defs><g id="Layer_2" data-name="Layer 2"><g id="Layer_1-2" data-name="Layer 1"><path d="M208.67 136.86a10 10 0 002.31-6.31V10a10.09 10.09 0 00-10-10H30.13a10.08 10.08 0 00-10 10v120.55a9.9 9.9 0 002.31 6.31L0 140.59v10h231v-10z" fill="#e2daff"/><path d="M138.12 56H112.6v4.62a3.69 3.69 0 002.91 3.59.21.21 0 010-.06.23.23 0 010-.18l.47-.79a.22.22 0 01.14-.11.28.28 0 01.18 0l1 .8-.16-1.3a.21.21 0 010-.17.21.21 0 01.16-.08h.93a.21.21 0 01.17.08.21.21 0 010 .17l-.16 1.31 1-.79a.19.19 0 01.18 0 .21.21 0 01.14.1l.45.81a.23.23 0 010 .18.22.22 0 01-.1.11h2.49a.2.2 0 01-.12-.13.23.23 0 010-.18l.46-.79a.27.27 0 01.15-.11.25.25 0 01.17 0l1 .8-.16-1.3a.21.21 0 010-.17.25.25 0 01.17-.08h.93a.21.21 0 01.16.08.21.21 0 01.06.17l-.17 1.31 1.06-.79a.18.18 0 01.17 0 .23.23 0 01.15.1l.45.81a.23.23 0 010 .18.2.2 0 01-.11.11h2.49a.22.22 0 01-.12-.13.28.28 0 010-.18l.47-.79a.22.22 0 01.15-.11.25.25 0 01.17 0l1.05.8-.16-1.3a.21.21 0 010-.17.21.21 0 01.16-.08h.94a.21.21 0 01.16.08.21.21 0 010 .17l-.16 1.31 1.05-.79a.2.2 0 01.18 0 .21.21 0 01.14.1l.46.81a.23.23 0 010 .18.16.16 0 01-.1.11h7.67v-4.62a3.69 3.69 0 00-3.2-3.69z" fill="url(#linear-gradient)"/><path d="M133.83 50.76a.32.32 0 01-.18-.2.3.3 0 010-.26l.69-1.18a.32.32 0 01.22-.15.28.28 0 01.25.06l1.56 1.18-.24-1.93a.34.34 0 01.08-.26.32.32 0 01.24-.11h1.38a.33.33 0 01.25.11.3.3 0 01.07.26l-.24 1.94L139.5 49a.35.35 0 01.48.1l.67 1.2a.3.3 0 010 .26.34.34 0 01-.19.2l-1.8.75 1.8.75a.3.3 0 01.19.19.32.32 0 010 .27l-.71 1.2a.34.34 0 01-.22.15.35.35 0 01-.26-.06l-1.52-1.18.24 2a.29.29 0 01-.07.25.33.33 0 01-.25.11h-1.38a.32.32 0 01-.24-.11.33.33 0 01-.08-.25l.24-2-1.58 1.19a.3.3 0 01-.26.06.31.31 0 01-.21-.16l-.67-1.2a.3.3 0 010-.26.31.31 0 01.18-.19l1.81-.76z" fill="url(#linear-gradient-2)"/><path d="M123.44 50.76a.32.32 0 01-.18-.2.3.3 0 010-.26l.69-1.18a.34.34 0 01.22-.15.28.28 0 01.25.06l1.58 1.18-.24-1.93a.34.34 0 01.08-.26.32.32 0 01.24-.11h1.39a.32.32 0 01.24.11.34.34 0 01.08.26l-.25 1.94 1.58-1.22a.34.34 0 01.26 0 .3.3 0 01.21.15l.67 1.2a.3.3 0 010 .26.35.35 0 01-.18.2l-1.81.75 1.81.75a.31.31 0 01.18.19.32.32 0 010 .27l-.71 1.2a.34.34 0 01-.22.15.32.32 0 01-.25-.06l-1.52-1.18.24 2a.33.33 0 01-.08.25.32.32 0 01-.24.11h-1.39a.32.32 0 01-.24-.11.33.33 0 01-.08-.25l.25-2-1.58 1.19a.31.31 0 01-.26.06.33.33 0 01-.18-.13l-.67-1.2a.3.3 0 010-.26.31.31 0 01.18-.19l1.81-.76z" fill="url(#linear-gradient-3)"/><path d="M142.72 55.88a.29.29 0 01.15.16.29.29 0 010 .22l-.57 1a.28.28 0 01-.18.12.27.27 0 01-.21-.05l-1.23-.95.19 1.58a.24.24 0 01-.06.2.25.25 0 01-.2.09h-1.12a.27.27 0 01-.26-.29l.2-1.59-1.28 1a.26.26 0 01-.39-.08l-.54-1a.22.22 0 010-.21.25.25 0 01.14-.16l1.47-.61-1.47-.64a.29.29 0 01-.15-.16.26.26 0 010-.21l.56-1a.26.26 0 01.17-.12.23.23 0 01.21 0l1.27 1-.2-1.57a.27.27 0 01.07-.21.28.28 0 01.19-.09h1.12a.29.29 0 01.2.09.26.26 0 01.06.21l-.19 1.57 1.27-.95a.25.25 0 01.21 0 .26.26 0 01.17.12l.55 1a.34.34 0 010 .22.25.25 0 01-.15.15l-1.47.61z" fill="url(#linear-gradient-4)"/><path d="M150 56.76a.23.23 0 01.14.15.23.23 0 010 .21l-.55.91a.2.2 0 01-.16.12.21.21 0 01-.2 0L148 57.2l.19 1.5a.22.22 0 01-.06.19.27.27 0 01-.13.11h-1.06a.27.27 0 01-.19-.08.31.31 0 01-.06-.19l.19-1.51-1.21.92a.24.24 0 01-.2 0 .26.26 0 01-.17-.12l-.52-.92a.23.23 0 010-.2.24.24 0 01.13-.15l1.39-.58-1.39-.6a.29.29 0 01-.14-.15.24.24 0 010-.2l.53-.91a.25.25 0 01.16-.12.28.28 0 01.2 0l1.2.91-.19-1.49a.31.31 0 01.06-.19.25.25 0 01.19-.09H148a.25.25 0 01.19.09.22.22 0 01.06.19l-.25 1.55 1.2-.9a.24.24 0 01.2 0 .26.26 0 01.17.12l.51.92a.2.2 0 010 .2.23.23 0 01-.14.15l-1.39.57z" fill="url(#linear-gradient-5)"/><path d="M158 56.76a.23.23 0 01.14.15.26.26 0 010 .21l-.55.91a.2.2 0 01-.16.12.21.21 0 01-.2 0L156 57.2l.19 1.5a.26.26 0 01-.06.19.27.27 0 01-.13.11h-1.06a.27.27 0 01-.19-.08.26.26 0 01-.06-.19l.19-1.51-1.21.92a.24.24 0 01-.2 0 .26.26 0 01-.17-.12l-.52-.92a.23.23 0 010-.2.24.24 0 01.13-.15l1.39-.58-1.39-.6a.29.29 0 01-.14-.15.24.24 0 010-.2l.53-.91a.25.25 0 01.16-.12.29.29 0 01.2 0l1.2.91-.19-1.49a.26.26 0 01.06-.19.25.25 0 01.19-.09H156a.25.25 0 01.19.09.26.26 0 01.06.19l-.25 1.55 1.2-.9a.24.24 0 01.2 0 .26.26 0 01.17.12l.51.92a.25.25 0 01-.12.35l-1.39.57z" fill="url(#linear-gradient-6)"/><path d="M166 56.76a.23.23 0 01.14.15.26.26 0 010 .21l-.55.91a.2.2 0 01-.16.12.21.21 0 01-.2 0L164 57.2l.19 1.5a.26.26 0 01-.06.19.27.27 0 01-.19.08h-1.06a.27.27 0 01-.19-.08.26.26 0 01-.06-.19l.19-1.51-1.21.92a.24.24 0 01-.2 0 .26.26 0 01-.17-.12l-.52-.92a.28.28 0 010-.2.29.29 0 01.14-.15l1.39-.58-1.39-.6a.29.29 0 01-.14-.15.24.24 0 010-.2l.53-.91a.25.25 0 01.16-.12.29.29 0 01.2 0l1.2.91-.19-1.49a.26.26 0 01.06-.19.25.25 0 01.19-.09h1.06a.25.25 0 01.19.09.26.26 0 01.06.19l-.18 1.58 1.2-.9a.24.24 0 01.2 0 .26.26 0 01.17.12l.51.92a.25.25 0 01-.12.35l-1.39.57z" fill="url(#linear-gradient-7)"/><path d="M173.93 56.76a.23.23 0 01.14.15.26.26 0 010 .21l-.55.91a.2.2 0 01-.16.12.21.21 0 01-.2 0L172 57.2l.19 1.5a.26.26 0 01-.06.19.27.27 0 01-.19.08h-1.06a.27.27 0 01-.19-.08.26.26 0 01-.06-.19l.19-1.51-1.22.92a.23.23 0 01-.2 0 .22.22 0 01-.16-.12l-.52-.92a.28.28 0 010-.2.29.29 0 01.14-.15l1.39-.58-1.39-.6a.26.26 0 01-.14-.15.27.27 0 010-.2l.54-.91a.25.25 0 01.16-.12.29.29 0 01.2 0l1.2.91-.19-1.49a.26.26 0 01.06-.19.25.25 0 01.19-.09h1.06a.25.25 0 01.19.09.26.26 0 01.06.19l-.19 1.58 1.2-.9a.24.24 0 01.2 0 .22.22 0 01.16.12l.52.92a.25.25 0 01-.12.35l-1.39.57z" fill="url(#linear-gradient-8)"/><path d="M181.91 56.76a.23.23 0 01.14.15.26.26 0 010 .21l-.55.91a.2.2 0 01-.16.12.21.21 0 01-.2 0L180 57.2l.19 1.5a.31.31 0 01-.06.19.27.27 0 01-.19.08h-1.06a.27.27 0 01-.19-.08.22.22 0 01-.06-.19l.19-1.51-1.22.92a.23.23 0 01-.2 0 .22.22 0 01-.16-.12l-.52-.92a.28.28 0 010-.2.29.29 0 01.14-.15l1.39-.58-1.39-.6a.23.23 0 01-.14-.15.27.27 0 010-.2l.54-.91a.25.25 0 01.16-.12.29.29 0 01.2 0l1.2.91-.19-1.49a.22.22 0 01.06-.19.25.25 0 01.19-.09h1.06a.25.25 0 01.19.09.31.31 0 01.06.19l-.19 1.58 1.2-.9a.24.24 0 01.2 0 .22.22 0 01.16.12l.52.92a.25.25 0 01-.12.35l-1.39.57z" fill="url(#linear-gradient-9)"/><path d="M189.89 56.76a.23.23 0 01.14.15.31.31 0 010 .21l-.55.91a.21.21 0 01-.16.12.21.21 0 01-.2 0l-1.17-.9.19 1.5a.31.31 0 01-.06.19.27.27 0 01-.19.08h-1.06a.27.27 0 01-.19-.08.22.22 0 01-.06-.19l.19-1.51-1.22.92a.23.23 0 01-.2 0 .22.22 0 01-.16-.12l-.52-.92a.28.28 0 010-.2.29.29 0 01.14-.15l1.39-.58-1.39-.6a.23.23 0 01-.14-.15.27.27 0 010-.2l.54-.91a.25.25 0 01.16-.12.29.29 0 01.2 0l1.2.91-.19-1.49a.22.22 0 01.06-.19.25.25 0 01.19-.09h1.06a.25.25 0 01.19.09.31.31 0 01.06.19l-.19 1.49 1.2-.9a.24.24 0 01.2 0 .22.22 0 01.16.12l.52.92a.25.25 0 01-.12.35l-1.39.57z" fill="url(#linear-gradient-10)"/><path d="M197.87 56.76a.23.23 0 01.14.15.31.31 0 010 .21l-.55.91a.21.21 0 01-.17.12.2.2 0 01-.19 0l-1.17-.9.18 1.5a.22.22 0 01-.06.19.23.23 0 01-.18.08h-1.06a.26.26 0 01-.19-.08.22.22 0 01-.06-.19l.19-1.51-1.22.92a.23.23 0 01-.2 0 .22.22 0 01-.16-.12l-.52-.92a.28.28 0 010-.2.29.29 0 01.14-.15l1.39-.58-1.39-.6a.23.23 0 01-.14-.15.27.27 0 010-.2l.53-.91a.3.3 0 01.17-.12.29.29 0 01.2 0l1.2.91-.19-1.49a.22.22 0 01.06-.19.23.23 0 01.19-.09h1.06a.21.21 0 01.18.09.22.22 0 01.06.19l-.18 1.49 1.2-.9a.24.24 0 01.2 0 .22.22 0 01.16.12l.52.92a.27.27 0 010 .2.26.26 0 01-.14.15l-1.39.57z" fill="url(#linear-gradient-11)"/><rect class="cls-13" x="29.6" y="11.29" width="171.24" height="120" rx="5.57"/><circle cx="115" cy="71.29" r="42.5" fill="url(#radial-gradient)"/><circle class="cls-13" cx="114.23" cy="70.92" r="32.07"/><path d="M194.28 80.63H83.69a33.09 33.09 0 004.34 9c.31.46.64.91 1 1.35a33.13 33.13 0 0017.51 11.91h87.76a3.69 3.69 0 003.7-3.64V84.31a3.69 3.69 0 00-3.72-3.68zM189 89.46l.59 1.05-.78-1.19a.3.3 0 01.19.14z" fill="#0056db"/><path d="M134.12 64.3a.16.16 0 00.1-.11.23.23 0 000-.18l-.46-.81a.21.21 0 00-.14-.1.2.2 0 00-.18 0l-1.05.79.16-1.31a.21.21 0 000-.17.21.21 0 00-.16-.08h-.94a.21.21 0 00-.16.08.21.21 0 000 .17l.16 1.3-1.05-.8a.25.25 0 00-.17 0 .22.22 0 00-.15.11l-.47.79a.28.28 0 000 .18.22.22 0 00.12.13h-2.49a.2.2 0 00.11-.11.23.23 0 000-.18l-.45-.81a.23.23 0 00-.15-.1.18.18 0 00-.17 0l-1.06.79.17-1.31a.21.21 0 00-.06-.17.21.21 0 00-.16-.08h-.93a.25.25 0 00-.17.08.21.21 0 000 .17l.17 1.3-1.06-.8a.25.25 0 00-.17 0 .27.27 0 00-.15.11l-.46.79a.23.23 0 000 .18.2.2 0 00.12.13h-2.49a.22.22 0 00.1-.11.23.23 0 000-.18l-.45-.81a.21.21 0 00-.14-.1.19.19 0 00-.18 0l-1 .79.16-1.31a.21.21 0 000-.17.21.21 0 00-.17-.08h-.93a.21.21 0 00-.16.08.21.21 0 000 .17l.16 1.3-1-.8a.28.28 0 00-.18 0 .22.22 0 00-.14.11l-.47.79a.23.23 0 000 .18.21.21 0 000 .06 3.69 3.69 0 01-2.91-3.59V56H85.68a32.85 32.85 0 00-2.54 6.36 33.31 33.31 0 00-1 4.81 32.42 32.42 0 00-.26 4.09c0 .86 0 1.7.1 2.54h56.11a3.68 3.68 0 003.67-3.68V64.3z" fill="#fe7e46"/><rect x="112.49" y="39.45" width="106.87" height="25.38" rx="3.42" fill="#d043ef"/></g></g></svg>