<svg xmlns="http://www.w3.org/2000/svg" viewBox="0 0 757.54 611"><defs><linearGradient id="a" x1="151.7" y1="305.5" x2="756.5" y2="305.5" gradientUnits="userSpaceOnUse"><stop offset="0" stop-color="#7d64e6" stop-opacity=".2"/><stop offset="1" stop-color="#3a8ee6" stop-opacity=".1"/></linearGradient><linearGradient id="b" x1="841.82" y1="609.71" x2="-225.34" y2="504.78" gradientUnits="userSpaceOnUse"><stop offset="0" stop-color="#0047b4"/><stop offset=".03" stop-color="#0045b0"/><stop offset=".7" stop-color="#092962"/><stop offset="1" stop-color="#0c1e44"/></linearGradient><linearGradient id="c" x1="899.63" y1="365.27" x2="276.75" y2="659.97" gradientUnits="userSpaceOnUse"><stop offset="0" stop-color="#3a8ee6" stop-opacity=".1"/><stop offset=".24" stop-color="#5c79f0" stop-opacity=".1"/><stop offset=".63" stop-color="#9059ff" stop-opacity=".2"/><stop offset="1" stop-color="#0047b4" stop-opacity=".6"/></linearGradient><linearGradient id="d" x1="257.23" y1="447.19" x2="757.03" y2="447.19" gradientUnits="userSpaceOnUse"><stop offset="0" stop-color="#f3ec5e"/><stop offset=".21" stop-color="#ff9215"/><stop offset=".49" stop-color="#f5156c"/><stop offset=".86" stop-color="#7d64e6"/><stop offset="1" stop-color="#3a8ee6"/></linearGradient></defs><g data-name="Layer 2"><g data-name="Layer 1"><path d="M424 236.6A906.23 906.23 0 01151.7 611h604.8V0C612.8 6.1 479.2 95 424 236.6z" fill-opacity=".54" fill="url(#a)"/><path d="M115.8 542.7A903.86 903.86 0 010 611h614.4c-122.5-146.8-339.5-178.6-498.6-68.3z" style="isolation:isolate" opacity=".56" fill="url(#b)"/><path d="M257.8 610.6a1148.85 1148.85 0 00200.7-175.1c80.3-88.4 187.2-139 298-150.7v325.8" fill="url(#c)"/><path d="M257.74 610.52a1228 1228 0 00118.87-94.62c9.37-8.52 18.65-17.15 27.74-26l6.84-6.59 6.75-6.68c4.53-4.43 8.95-9 13.38-13.49 2.22-2.26 4.43-4.52 6.6-6.83l6.58-6.86c4.37-4.57 8.64-9.26 13-13.88l13.19-13.73c1.11-1.13 2.17-2.31 3.32-3.41l3.45-3.27 6.92-6.54 3.45-3.27 1.73-1.63 1.81-1.55 7.21-6.21 7.19-6.23c2.46-2 5-3.93 7.46-5.9 5-3.9 9.89-7.95 15.13-11.53l7.74-5.53 3.86-2.77c1.28-.94 2.64-1.76 4-2.64l8-5.2 4-2.6c1.33-.86 2.63-1.78 4-2.55l16.4-9.66c5.56-3.05 11.2-6 16.79-8.94 2.78-1.55 5.68-2.83 8.54-4.2l8.61-4.06a474.52 474.52 0 01146.1-40.33l1.08-.12v1.1l.06 81.45c0 27.15 0 54.3-.13 81.45l-.33 81.45-.18 40.72-.3 40.73h-.2l-.3-40.73-.18-40.72-.33-81.45c-.14-27.15-.09-54.3-.13-81.45l.06-81.45 1.08 1a479.73 479.73 0 00-146 39.35l-8.61 4c-2.86 1.35-5.77 2.62-8.54 4.14-5.61 3-11.25 5.83-16.82 8.84l-16.41 9.56c-1.39.76-2.69 1.67-4 2.52l-4 2.57-8 5.16c-1.31.87-2.68 1.68-4 2.61l-3.86 2.77-7.71 5.55c-5.22 3.6-10.08 7.67-15.06 11.58-2.47 2-5 3.92-7.42 5.92l-7.16 6.25-7.13 6.26-1.79 1.57-1.71 1.65-3.41 3.3-6.78 6.6-3.41 3.3c-1.13 1.1-2.19 2.29-3.28 3.43l-13 13.82c-8.53 9.38-17.1 18.73-26 27.81-4.42 4.55-8.84 9.1-13.35 13.56l-6.74 6.71-6.84 6.62c-9.11 8.82-18.46 17.4-27.86 25.91Q349.44 542.6 319.4 566t-61.54 44.69z" opacity=".19" fill="url(#d)"/></g></g></svg>