<svg width="417" height="349" viewBox="0 0 417 349" fill="none" xmlns="http://www.w3.org/2000/svg">
<path opacity="0.5" fill-rule="evenodd" clip-rule="evenodd" d="M181.742 17.6182C236.706 14.43 285.166 57.2929 316.831 102.783C345.986 144.667 357.405 198.476 340.325 246.682C325.016 289.889 280.095 306.964 237.54 323.037C201.184 336.768 163.064 337.433 125.944 325.973C77.1197 310.901 16.4916 299.242 2.60221 249.619C-11.5486 199.061 35.1422 158.833 67.21 117.467C99.8564 75.3535 128.875 20.6849 181.742 17.6182Z" fill="#D9BFFF"/>
<g opacity="0.4">
<g opacity="0.5">
<path d="M149.816 55.9385C149.952 59.3193 149.822 61.6618 149.816 67.6854C149.815 68.2122 149.816 67.1578 149.816 67.6854C149.814 72.4812 149.703 76.3566 149.816 79.4322C149.872 80.9598 151.213 82.4245 152.753 82.369C154.293 82.3135 155.746 80.9598 155.69 79.4322C155.581 76.4427 155.687 72.4174 155.69 67.6854C155.689 68.212 155.69 67.1593 155.69 67.6854C155.695 61.5878 155.828 59.4183 155.69 55.9385C155.629 54.4111 154.292 52.9415 152.753 53.0018C151.213 53.0623 149.755 54.4111 149.816 55.9385Z" fill="#FCD400"/>
</g>
<g opacity="0.5">
<path d="M143.94 70.6245C145.444 70.7053 147.596 70.5633 149.813 70.6245C149.297 70.6107 150.098 70.6323 149.813 70.6245C154.374 70.7472 156.209 70.409 158.623 70.6245C160.066 70.7533 161.43 69.1237 161.56 67.6878C161.688 66.252 160.068 64.8799 158.623 64.7511C156.064 64.5226 154.485 64.8768 149.813 64.7511C149.299 64.7374 150.098 64.7589 149.813 64.7511C147.639 64.691 145.388 64.8289 143.94 64.7511C142.493 64.6734 141.08 66.2482 141.003 67.6878C140.924 69.1274 142.493 70.5469 143.94 70.6245Z" fill="#FCD400"/>
</g>
<g opacity="0.5">
<path d="M343.263 199.697C345.271 199.612 345.516 199.615 349.136 199.697C349.704 199.711 351.755 199.691 352.073 199.697C354.945 199.759 355.968 199.792 357.946 199.697C359.453 199.624 360.953 198.344 360.883 196.76C360.815 195.178 359.452 193.752 357.946 193.823C356.116 193.912 354.834 193.882 352.073 193.823C351.759 193.816 349.703 193.838 349.136 193.823C345.404 193.739 345.421 193.732 343.263 193.823C341.757 193.887 340.266 195.176 340.326 196.76C340.386 198.344 341.756 199.761 343.263 199.697Z" fill="#EAF3F3"/>
</g>
<g opacity="0.5">
<path d="M355.008 205.57C355.039 204.181 354.997 201.679 355.008 199.696C355.005 200.306 355.009 199.358 355.008 199.696C355.03 195.095 354.888 193.324 355.008 190.886C355.081 189.385 353.625 188.02 352.071 187.949C350.516 187.879 349.208 189.384 349.134 190.886C349.01 193.428 349.157 195.017 349.134 199.696C349.132 200.306 349.136 199.359 349.134 199.696C349.123 201.651 349.164 204.216 349.134 205.57C349.101 207.072 350.516 208.475 352.071 208.506C353.626 208.539 354.974 207.072 355.008 205.57Z" fill="#EAF3F3"/>
</g>
<g opacity="0.5">
<path d="M322.704 26.4298C322.781 28.0219 322.542 29.8491 322.704 32.3032C322.682 31.9571 322.727 32.6497 322.704 32.3032C323.1 38.2953 322.704 40.693 322.704 44.0501C322.704 45.4611 324.27 46.9868 325.641 46.9868C327.013 46.9868 328.577 45.4611 328.577 44.0501C328.577 40.5394 328.981 38.4098 328.577 32.3032C328.555 31.9572 328.601 32.6488 328.577 32.3032C328.418 29.877 328.653 27.9841 328.577 26.4298C328.508 25.0204 327.01 23.4224 325.641 23.493C324.271 23.5636 322.634 25.0205 322.704 26.4298Z" fill="#90BFFF"/>
</g>
<g opacity="0.5">
<path d="M319.768 38.1758C322.554 38.4859 323.642 38.4796 328.578 38.1758C329.736 38.1046 330.872 38.2087 331.515 38.1758C332.76 38.112 333.468 38.1758 334.452 38.1758C335.927 38.1758 337.388 36.7284 337.388 35.2391C337.388 33.7497 335.927 32.3024 334.452 32.3024C333.366 32.3024 332.842 32.2344 331.515 32.3024C330.848 32.3365 329.754 32.2301 328.578 32.3024C323.947 32.5873 322.148 32.5674 319.768 32.3024C318.302 32.1392 316.993 33.7588 316.831 35.2391C316.67 36.7194 318.302 38.0127 319.768 38.1758Z" fill="#90BFFF"/>
</g>
<g opacity="0.5">
<path d="M78.9583 273.114C79.0353 274.706 78.7957 276.533 78.9583 278.987C78.936 278.642 78.9807 279.335 78.9583 278.987C79.3545 284.98 78.9583 287.377 78.9583 290.734C78.9583 292.145 80.524 293.671 81.8951 293.671C83.2673 293.671 84.8318 292.145 84.8318 290.734C84.8318 287.224 85.2354 285.094 84.8318 278.987C84.8094 278.641 84.8554 279.332 84.8318 278.987C84.6728 276.561 84.9075 274.669 84.8318 273.114C84.7635 271.705 83.2661 270.107 81.8951 270.177C80.5253 270.249 78.89 271.705 78.9583 273.114Z" fill="#90BFFF"/>
</g>
<g opacity="0.5">
<path d="M76.0201 284.86C78.8046 285.17 79.8939 285.165 84.8302 284.86C85.5097 284.818 87.3865 284.882 87.7669 284.86C89.5022 284.759 89.4809 284.86 90.7037 284.86C92.1773 284.86 93.6404 283.413 93.6404 281.923C93.6404 280.434 92.1773 278.987 90.7037 278.987C89.3595 278.987 89.5944 278.88 87.7669 278.987C87.3785 279.008 85.5163 278.944 84.8302 278.987C80.1996 279.271 78.4001 279.252 76.0201 278.987C74.5544 278.824 73.2449 280.443 73.0834 281.923C72.9218 283.404 74.5544 284.697 76.0201 284.86Z" fill="#90BFFF"/>
</g>
<g opacity="0.5">
<path fill-rule="evenodd" clip-rule="evenodd" d="M352.073 135.09C352.279 138.292 357.669 138.285 357.946 135.09C358.592 127.67 361.733 123.799 366.757 123.343C366.335 123.37 367.157 123.337 366.757 123.343C370.094 123.119 370.102 117.47 366.757 117.47C366.314 117.47 367.183 117.437 366.757 117.47C361.413 117.513 359.148 117.859 357.946 111.596C357.891 111.306 358.089 109.425 357.946 108.66C357.814 107.953 358.036 109.102 357.946 108.66C357.338 105.674 352.234 105.617 352.073 108.66C352.048 109.109 352.096 107.882 352.073 108.66C352.042 109.708 352.129 111.063 352.073 111.596C351.937 112.889 352.764 113.324 352.073 114.533C350.854 116.661 346.908 117.529 343.263 117.47C339.929 117.417 339.942 123.045 343.263 123.343C347.573 123.731 348.64 125.329 349.136 126.28C350.659 129.245 351.856 131.743 352.073 135.09ZM366.757 117.47C366.395 117.494 367.093 117.466 366.757 117.47C366.447 117.349 367.155 117.465 366.757 117.47ZM366.757 123.343C366.421 123.343 367.072 123.317 366.757 123.343C366.475 123.476 367.125 123.313 366.757 123.343ZM352.073 120.406C353.147 119.647 354.279 118.566 355.01 117.47C355.793 118.87 356.736 119.562 357.946 120.406C356.863 121.379 355.785 124.92 355.01 126.28C354.758 125.702 355.298 123.905 355.01 123.343C354.521 122.409 352.977 121.063 352.073 120.406Z" fill="#FCD400"/>
</g>
<g opacity="0.5">
<path fill-rule="evenodd" clip-rule="evenodd" d="M52.5267 199.698C55.8667 199.477 55.8745 193.825 52.5267 193.825C52.0908 193.825 52.9469 193.792 52.5267 193.825C47.1488 193.869 44.9241 194.266 43.7165 187.951C43.6633 187.675 43.8514 185.739 43.7165 185.014C43.5842 184.304 43.806 185.457 43.7165 185.014C43.1095 182.028 38.0039 181.971 37.8431 185.014C37.8197 185.462 37.8664 184.241 37.8431 185.014C37.8132 186.044 37.8963 187.427 37.8431 187.951C37.7095 189.266 38.5383 189.669 37.8431 190.888C36.6212 193.016 32.6675 193.896 29.0329 193.825C25.698 193.761 25.7123 199.392 29.0329 199.698C33.3498 200.098 34.4096 201.685 34.9064 202.635C36.424 205.6 37.6226 208.096 37.8431 211.445C38.0558 214.644 43.4376 214.637 43.7165 211.445C44.3625 204.017 47.4925 200.146 52.5267 199.698C52.921 199.691 52.1129 199.725 52.5267 199.698ZM52.5267 193.825C52.17 193.848 52.8574 193.821 52.5267 193.825C52.2205 193.708 52.9184 193.819 52.5267 193.825ZM52.5267 199.698C52.1972 199.698 52.8367 199.673 52.5267 199.698C52.2478 199.825 52.8886 199.669 52.5267 199.698ZM37.8431 196.761C38.9171 196.002 40.0495 194.922 40.7798 193.825C41.562 195.226 42.505 195.918 43.7165 196.761C42.6334 197.735 41.5568 201.273 40.7798 202.635C40.5295 202.057 41.0678 200.259 40.7798 199.698C40.2908 198.761 38.7485 197.419 37.8431 196.761Z" fill="#EAF3F3"/>
</g>
<g opacity="0.5">
<path d="M211.11 35.2405C211.11 33.8272 209.796 32.3038 208.173 32.3038C206.552 32.3038 205.236 33.8272 205.236 35.2405C205.236 36.654 206.552 38.1772 208.173 38.1772C209.796 38.1772 211.11 36.654 211.11 35.2405Z" fill="#90BFFF"/>
</g>
<g opacity="0.5">
<path d="M407.871 170.329C407.871 168.916 406.556 167.393 404.935 167.393C403.312 167.393 401.998 168.916 401.998 170.329C401.998 171.743 403.312 173.266 404.935 173.266C406.556 173.266 407.871 171.743 407.871 170.329Z" fill="#90BFFF"/>
</g>
<g opacity="0.5">
<path d="M399.059 73.4179C399.059 72.0014 397.743 70.4811 396.122 70.4811C394.5 70.4811 393.186 72.0014 393.186 73.4179C393.186 74.8344 394.5 76.3546 396.122 76.3546C397.743 76.3546 399.059 74.8344 399.059 73.4179Z" fill="#EAF3F3"/>
</g>
<g opacity="0.5">
<path d="M416.682 99.8483C416.682 98.4349 415.366 96.9116 413.745 96.9116C412.123 96.9116 410.809 98.4349 410.809 99.8483C410.809 101.262 412.123 102.785 413.745 102.785C415.366 102.785 416.682 101.262 416.682 99.8483Z" fill="#4E6AF0"/>
</g>
<g opacity="0.5">
<path d="M381.442 14.6836C381.442 13.2701 380.128 11.7468 378.505 11.7468C376.883 11.7468 375.568 13.2701 375.568 14.6836C375.568 16.097 376.883 17.6203 378.505 17.6203C380.128 17.6203 381.442 16.097 381.442 14.6836Z" fill="#FCD400"/>
</g>
<g opacity="0.5">
<path d="M23.1605 229.064C23.1605 227.647 21.8449 226.127 20.2238 226.127C18.6013 226.127 17.2871 227.647 17.2871 229.064C17.2871 230.481 18.6013 232.001 20.2238 232.001C21.8449 232.001 23.1605 230.481 23.1605 229.064Z" fill="#FCD400"/>
</g>
<g opacity="0.5">
<path d="M114.2 82.228C114.2 80.7157 112.885 79.2913 111.263 79.2913C109.642 79.2913 108.326 80.7157 108.326 82.228C108.326 83.7403 109.642 85.1648 111.263 85.1648C112.885 85.1648 114.2 83.7403 114.2 82.228Z" fill="#EAF3F3"/>
</g>
<g opacity="0.5">
<path d="M131.821 17.6203C131.821 16.1116 130.507 14.6836 128.884 14.6836C127.263 14.6836 125.947 16.1116 125.947 17.6203C125.947 19.1291 127.263 20.5571 128.884 20.5571C130.507 20.5571 131.821 19.1291 131.821 17.6203Z" fill="#4E6AF0"/>
</g>
<g opacity="0.5">
<path d="M293.338 41.114C293.338 39.7845 292.024 38.1772 290.402 38.1772C288.78 38.1772 287.465 39.7845 287.465 41.114C287.465 42.4434 288.78 44.0507 290.402 44.0507C292.024 44.0507 293.338 42.4434 293.338 41.114Z" fill="#EAF3F3"/>
</g>
<g opacity="0.5">
<path d="M263.971 2.93672C263.971 1.5203 262.657 0 261.034 0C259.413 0 258.098 1.5203 258.098 2.93672C258.098 4.35326 259.413 5.87343 261.034 5.87343C262.657 5.87343 263.971 4.35326 263.971 2.93672Z" fill="#FCD400"/>
</g>
<g opacity="0.5">
<path d="M384.377 270.178C384.377 268.764 383.063 267.241 381.441 267.241C379.818 267.241 378.504 268.764 378.504 270.178C378.504 271.591 379.818 273.115 381.441 273.115C383.063 273.115 384.377 271.591 384.377 270.178Z" fill="#FCD400"/>
</g>
<g opacity="0.5">
<path d="M61.3383 132.152C61.3383 130.69 60.0241 129.215 58.4016 129.215C56.7805 129.215 55.4648 130.69 55.4648 132.152C55.4648 133.614 56.7805 135.089 58.4016 135.089C60.0241 135.089 61.3383 133.614 61.3383 132.152Z" fill="#90BFFF"/>
</g>
<g opacity="0.5">
<path d="M363.819 232.001C363.819 230.539 362.503 229.064 360.882 229.064C359.259 229.064 357.945 230.539 357.945 232.001C357.945 233.461 359.259 234.937 360.882 234.937C362.503 234.937 363.819 233.461 363.819 232.001Z" fill="#4E6AF0"/>
</g>
<g opacity="0.5">
<path d="M84.8324 211.444C84.8324 209.979 83.5168 208.507 81.8957 208.507C80.2732 208.507 78.959 209.979 78.959 211.444C78.959 212.909 80.2732 214.38 81.8957 214.38C83.5168 214.38 84.8324 212.909 84.8324 211.444Z" fill="#4E6AF0"/>
</g>
<g opacity="0.5">
<path d="M331.516 164.456C331.516 162.994 330.202 161.519 328.579 161.519C326.957 161.519 325.643 162.994 325.643 164.456C325.643 165.917 326.957 167.393 328.579 167.393C330.202 167.393 331.516 165.917 331.516 164.456Z" fill="#EAF3F3"/>
</g>
<g opacity="0.5">
<path d="M31.9711 270.178C31.9711 268.716 30.6554 267.241 29.0344 267.241C27.4118 267.241 26.0977 268.716 26.0977 270.178C26.0977 271.638 27.4118 273.115 29.0344 273.115C30.6554 273.115 31.9711 271.638 31.9711 270.178Z" fill="#EAF3F3"/>
</g>
</g>
<path d="M233.953 72.8392H172.833C170.045 72.8392 167.785 75.099 167.785 77.8866V120.158C167.785 122.946 170.045 125.206 172.833 125.206H233.953C236.741 125.206 239.001 122.946 239.001 120.158V77.8866C239.001 75.099 236.741 72.8392 233.953 72.8392Z" fill="#140B28"/>
<path d="M230.404 70.2367H169.284C166.496 70.2367 164.236 72.4965 164.236 75.2841V117.556C164.236 120.344 166.496 122.603 169.284 122.603H230.404C233.192 122.603 235.452 120.344 235.452 117.556V75.2841C235.452 72.4965 233.192 70.2367 230.404 70.2367Z" fill="white"/>
<path d="M230.405 70H169.284C166.366 70 164 72.3657 164 75.284V117.556C164 120.474 166.366 122.84 169.284 122.84H230.405C233.323 122.84 235.689 120.474 235.689 117.556V75.284C235.689 72.3657 233.323 70 230.405 70ZM169.284 70.4732H230.405C233.062 70.4732 235.216 72.6271 235.216 75.284V117.556C235.216 120.213 233.062 122.367 230.405 122.367H169.284C166.627 122.367 164.473 120.213 164.473 117.556V75.284C164.473 72.6271 166.627 70.4732 169.284 70.4732Z" fill="#140B28"/>
<path d="M170.441 114.15H227.151C227.674 114.15 228.097 113.726 228.097 113.203V91.3854C228.097 90.8628 227.674 90.439 227.151 90.439H170.441C169.918 90.439 169.494 90.8628 169.494 91.3854V113.203C169.494 113.726 169.918 114.15 170.441 114.15Z" fill="#F770FF"/>
<path d="M222.398 95.5524H174.448C174.077 95.5524 173.777 95.8526 173.777 96.2228V96.6171C173.777 96.9873 174.077 97.2875 174.448 97.2875H222.398C222.768 97.2875 223.068 96.9873 223.068 96.6171V96.2228C223.068 95.8526 222.768 95.5524 222.398 95.5524Z" fill="white"/>
<path d="M222.398 101.31H174.448C174.077 101.31 173.777 101.61 173.777 101.98V102.374C173.777 102.745 174.077 103.045 174.448 103.045H222.398C222.768 103.045 223.068 102.745 223.068 102.374V101.98C223.068 101.61 222.768 101.31 222.398 101.31Z" fill="white"/>
<path d="M211.83 107.067H174.448C174.077 107.067 173.777 107.367 173.777 107.737V108.131C173.777 108.502 174.077 108.802 174.448 108.802H211.83C212.2 108.802 212.5 108.502 212.5 108.131V107.737C212.5 107.367 212.2 107.067 211.83 107.067Z" fill="white"/>
<path fill-rule="evenodd" clip-rule="evenodd" d="M170.441 85.7025H177.143C177.666 85.7025 178.089 85.2788 178.089 84.7561V78.0542C178.089 77.5315 177.666 77.1078 177.143 77.1078H170.441C169.918 77.1078 169.494 77.5315 169.494 78.0542V84.7561C169.494 85.2788 169.918 85.7025 170.441 85.7025Z" fill="#9059FF"/>
<path d="M188.695 76.6956C189.982 76.2711 191.491 76.5649 192.304 77.504C192.757 78.0272 192.829 78.6623 192.523 79.3193C192.256 79.8931 191.701 80.4936 190.861 81.1418C190.523 81.4024 190.136 81.6726 189.701 81.9523L189.658 81.9793L189.674 81.9912C190.955 82.9687 192.162 83.1597 193.673 82.7808L193.808 82.7461C194.267 82.6245 194.626 82.4996 195.417 82.1889L196.2 81.8789C197.648 81.3081 198.477 81.0535 199.485 80.9347C200.885 80.7697 202.231 80.9975 203.616 81.7065C209.6 84.7689 212.634 85.237 217.076 83.5976C217.322 83.5071 217.594 83.6325 217.684 83.8777C217.775 84.1229 217.649 84.3949 217.404 84.4854C214.919 85.4027 212.826 85.666 210.619 85.3256L210.494 85.3059C208.456 84.9717 206.273 84.1292 203.185 82.5491C201.969 81.9271 200.812 81.7312 199.596 81.8746L199.516 81.8843C198.631 81.9972 197.856 82.2415 196.479 82.7861L195.787 83.0606C194.889 83.4135 194.513 83.5422 193.957 83.6854C192.157 84.1487 190.64 83.9185 189.1 82.7436C189.006 82.6718 188.91 82.5927 188.815 82.5075L188.806 82.4998L188.765 82.5243L188.629 82.6032C187.122 83.4734 185.187 84.4281 182.821 85.4701L182.707 85.5205C182.467 85.6256 182.188 85.5167 182.083 85.2774C181.978 85.0381 182.087 84.7589 182.326 84.6539L182.541 84.5595C184.78 83.5704 186.618 82.6641 188.052 81.8435L188.131 81.7978L188.111 81.7749C187.604 81.1699 187.171 80.4735 186.99 79.9123L186.978 79.8751C186.517 78.3731 187.276 77.1638 188.695 76.6956ZM191.589 78.1237C191.046 77.4974 189.939 77.2817 188.992 77.5942C188.032 77.911 187.584 78.6243 187.883 79.5976C188.025 80.0609 188.436 80.7029 188.904 81.2463L188.955 81.3043L188.984 81.2861C189.461 80.9875 189.878 80.7014 190.236 80.4281L190.283 80.3925C191.668 79.3244 192.004 78.6027 191.589 78.1237Z" fill="#9059FF"/>
<path d="M300.992 110.288H214.442C210.495 110.288 207.295 113.488 207.295 117.435V177.294C207.295 181.242 210.495 184.442 214.442 184.442H300.992C304.939 184.442 308.139 181.242 308.139 177.294V117.435C308.139 113.488 304.939 110.288 300.992 110.288Z" fill="#140B28"/>
<path d="M295.967 106.603H209.417C205.47 106.603 202.27 109.803 202.27 113.75V173.609C202.27 177.556 205.47 180.756 209.417 180.756H295.967C299.914 180.756 303.114 177.556 303.114 173.609V113.75C303.114 109.803 299.914 106.603 295.967 106.603Z" fill="white"/>
<path d="M295.968 106.268H209.418C205.286 106.268 201.936 109.618 201.936 113.75V173.609C201.936 177.741 205.286 181.091 209.418 181.091H295.968C300.1 181.091 303.45 177.741 303.45 173.609V113.75C303.45 109.618 300.1 106.268 295.968 106.268ZM209.418 106.938H295.968C299.73 106.938 302.78 109.988 302.78 113.75V173.609C302.78 177.371 299.73 180.421 295.968 180.421H209.418C205.656 180.421 202.606 177.371 202.606 173.609V113.75C202.606 109.988 205.656 106.938 209.418 106.938Z" fill="#140B28"/>
<path d="M211.057 168.786H291.362C292.102 168.786 292.702 168.186 292.702 167.446V136.55C292.702 135.81 292.102 135.21 291.362 135.21H211.057C210.317 135.21 209.717 135.81 209.717 136.55V167.446C209.717 168.186 210.317 168.786 211.057 168.786Z" fill="#F770FF"/>
<path d="M284.63 142.451H216.731C216.206 142.451 215.781 142.876 215.781 143.4V143.959C215.781 144.483 216.206 144.908 216.731 144.908H284.63C285.155 144.908 285.58 144.483 285.58 143.959V143.4C285.58 142.876 285.155 142.451 284.63 142.451Z" fill="white"/>
<path d="M284.63 150.604H216.731C216.206 150.604 215.781 151.029 215.781 151.553V152.111C215.781 152.635 216.206 153.06 216.731 153.06H284.63C285.155 153.06 285.58 152.635 285.58 152.111V151.553C285.58 151.029 285.155 150.604 284.63 150.604Z" fill="white"/>
<path d="M269.666 158.756H216.731C216.206 158.756 215.781 159.181 215.781 159.705V160.263C215.781 160.788 216.206 161.213 216.731 161.213H269.666C270.19 161.213 270.615 160.788 270.615 160.263V159.705C270.615 159.181 270.19 158.756 269.666 158.756Z" fill="white"/>
<path fill-rule="evenodd" clip-rule="evenodd" d="M211.057 128.503H220.548C221.288 128.503 221.888 127.903 221.888 127.163V117.673C221.888 116.933 221.288 116.333 220.548 116.333H211.057C210.317 116.333 209.717 116.933 209.717 117.673V127.163C209.717 127.903 210.317 128.503 211.057 128.503Z" fill="#9059FF"/>
<path d="M236.906 115.749C238.728 115.148 240.865 115.564 242.017 116.894C242.658 117.635 242.76 118.534 242.327 119.464C241.949 120.277 241.163 121.127 239.973 122.045C239.494 122.414 238.947 122.797 238.33 123.193L238.27 123.231L238.292 123.248C240.106 124.632 241.815 124.903 243.956 124.366L244.146 124.317C244.796 124.144 245.305 123.968 246.425 123.528L247.533 123.089C249.583 122.281 250.758 121.92 252.185 121.752C254.167 121.518 256.073 121.841 258.035 122.845C266.509 127.181 270.805 127.844 277.095 125.522C277.443 125.394 277.828 125.572 277.956 125.919C278.084 126.266 277.907 126.652 277.559 126.78C274.04 128.079 271.077 128.452 267.951 127.97L267.775 127.941C264.888 127.468 261.797 126.275 257.424 124.038C255.703 123.157 254.065 122.879 252.342 123.083L252.229 123.096C250.975 123.256 249.878 123.602 247.929 124.373L246.948 124.762C245.677 125.262 245.145 125.444 244.357 125.647C241.808 126.303 239.66 125.977 237.479 124.313C237.346 124.212 237.211 124.1 237.076 123.979L237.064 123.968L237.005 124.003L236.812 124.114C234.678 125.347 231.938 126.699 228.588 128.174L228.426 128.245C228.087 128.394 227.692 128.24 227.543 127.901C227.394 127.562 227.548 127.167 227.887 127.018L228.191 126.885C231.362 125.484 233.964 124.201 235.995 123.039L236.107 122.974L236.079 122.941C235.362 122.085 234.748 121.099 234.491 120.304L234.474 120.251C233.822 118.124 234.897 116.412 236.906 115.749ZM241.004 117.771C240.236 116.884 238.668 116.579 237.326 117.021C235.967 117.47 235.333 118.48 235.756 119.858C235.957 120.514 236.539 121.423 237.202 122.193L237.274 122.275L237.316 122.249C237.991 121.826 238.582 121.421 239.089 121.034L239.154 120.984C241.115 119.471 241.591 118.45 241.004 117.771Z" fill="#9059FF"/>
<path d="M242.293 139.995H112.146C106.21 139.995 101.398 144.807 101.398 150.742V240.754C101.398 246.689 106.21 251.501 112.146 251.501H242.293C248.229 251.501 253.041 246.689 253.041 240.754V150.742C253.041 144.807 248.229 139.995 242.293 139.995Z" fill="#140B28"/>
<path d="M234.74 134.453H104.593C98.6576 134.453 93.8457 139.265 93.8457 145.201V235.212C93.8457 241.148 98.6576 245.96 104.593 245.96H234.74C240.676 245.96 245.488 241.148 245.488 235.212V145.201C245.488 139.265 240.676 134.453 234.74 134.453Z" fill="white"/>
<path d="M234.738 133.949H104.591C98.3773 133.949 93.3398 138.987 93.3398 145.201V235.212C93.3398 241.426 98.3773 246.464 104.591 246.464H234.738C240.952 246.464 245.99 241.426 245.99 235.212V145.201C245.99 138.987 240.952 133.949 234.738 133.949ZM104.591 134.957H234.738C240.396 134.957 244.982 139.543 244.982 145.201V235.212C244.982 240.87 240.396 245.456 234.738 245.456H104.591C98.9338 245.456 94.3474 240.87 94.3474 235.212V145.201C94.3474 139.543 98.9338 134.957 104.591 134.957Z" fill="#140B28"/>
<path d="M107.056 227.959H227.812C228.925 227.959 229.827 227.057 229.827 225.944V179.486C229.827 178.373 228.925 177.471 227.812 177.471H107.056C105.943 177.471 105.041 178.373 105.041 179.486V225.944C105.041 227.057 105.943 227.959 107.056 227.959Z" fill="#F770FF"/>
<path d="M217.692 188.359H115.59C114.801 188.359 114.162 188.998 114.162 189.786V190.626C114.162 191.414 114.801 192.053 115.59 192.053H217.692C218.48 192.053 219.119 191.414 219.119 190.626V189.786C219.119 188.998 218.48 188.359 217.692 188.359Z" fill="white"/>
<path d="M217.692 200.618H115.59C114.801 200.618 114.162 201.257 114.162 202.046V202.885C114.162 203.674 114.801 204.313 115.59 204.313H217.692C218.48 204.313 219.119 203.674 219.119 202.885V202.046C219.119 201.257 218.48 200.618 217.692 200.618Z" fill="white"/>
<path d="M195.189 212.877H115.59C114.801 212.877 114.162 213.516 114.162 214.304V215.144C114.162 215.932 114.801 216.571 115.59 216.571H195.189C195.977 216.571 196.617 215.932 196.617 215.144V214.304C196.617 213.516 195.977 212.877 195.189 212.877Z" fill="white"/>
<path fill-rule="evenodd" clip-rule="evenodd" d="M107.056 167.385H121.328C122.441 167.385 123.343 166.483 123.343 165.37V151.099C123.343 149.986 122.441 149.084 121.328 149.084H107.056C105.943 149.084 105.041 149.986 105.041 151.099V165.37C105.041 166.483 105.943 167.385 107.056 167.385Z" fill="#9059FF"/>
<path d="M145.925 148.206C148.664 147.303 151.878 147.928 153.609 149.928C154.574 151.042 154.727 152.394 154.076 153.793C153.507 155.015 152.326 156.294 150.536 157.674C149.816 158.229 148.993 158.804 148.066 159.4L147.976 159.457L148.008 159.482C150.737 161.564 153.306 161.971 156.525 161.164L156.812 161.09C157.789 160.831 158.554 160.565 160.239 159.903L161.904 159.244C164.988 158.028 166.753 157.486 168.899 157.233C171.881 156.881 174.746 157.367 177.696 158.877C190.439 165.397 196.9 166.394 206.358 162.903C206.88 162.71 207.46 162.977 207.652 163.499C207.845 164.022 207.578 164.601 207.056 164.794C201.763 166.747 197.308 167.308 192.608 166.583L192.342 166.541C188.002 165.829 183.353 164.035 176.778 160.67C174.19 159.346 171.726 158.929 169.135 159.234L168.966 159.255C167.081 159.495 165.43 160.015 162.5 161.175L161.025 161.76C159.113 162.511 158.313 162.785 157.128 163.09C153.295 164.077 150.066 163.587 146.786 161.085C146.586 160.932 146.383 160.763 146.18 160.582L146.161 160.566L146.073 160.618L145.783 160.786C142.575 162.639 138.454 164.672 133.417 166.89L133.173 166.998C132.663 167.221 132.069 166.99 131.845 166.48C131.621 165.971 131.853 165.376 132.363 165.152L132.819 164.951C137.588 162.845 141.501 160.916 144.554 159.168L144.723 159.071L144.681 159.022C143.602 157.734 142.68 156.251 142.293 155.056L142.268 154.977C141.287 151.778 142.903 149.203 145.925 148.206ZM152.086 151.247C150.931 149.914 148.573 149.454 146.556 150.12C144.512 150.794 143.559 152.313 144.195 154.386C144.497 155.372 145.372 156.739 146.37 157.896L146.478 158.02L146.54 157.981C147.555 157.345 148.444 156.736 149.206 156.154L149.305 156.078C152.254 153.804 152.969 152.267 152.086 151.247Z" fill="#9059FF"/>
<path fill-rule="evenodd" clip-rule="evenodd" d="M252.588 279.406C233.678 290.714 208.653 286.369 194.289 268.389C178.64 248.799 181.57 220.443 200.834 205.053C220.098 189.663 248.402 193.067 264.051 212.657C277.986 230.099 277.19 254.493 263.248 270.495L295.026 310.272C297.42 313.269 296.932 317.639 293.935 320.033C290.938 322.428 286.567 321.939 284.173 318.942L252.588 279.406ZM207.961 262.66C218.434 275.769 237.551 277.906 250.659 267.434C263.768 256.961 265.905 237.845 255.433 224.736C244.96 211.627 225.844 209.49 212.735 219.962C199.626 230.435 197.489 249.551 207.961 262.66Z" fill="#321C64"/>
<path fill-rule="evenodd" clip-rule="evenodd" d="M257.697 274.047C238.817 285.393 213.99 281.295 199.865 263.613C184.475 244.349 187.616 216.256 206.88 200.866C226.144 185.476 254.237 188.617 269.627 207.881C283.33 225.034 282.342 249.187 268.361 265.14L302.424 307.778C304.819 310.775 304.33 315.146 301.333 317.54C298.336 319.935 293.965 319.446 291.571 316.449L257.697 274.047ZM210.961 254.66C221.433 267.769 240.55 269.906 253.658 259.434C266.767 248.961 268.904 229.845 258.432 216.736C247.959 203.627 228.843 201.49 215.734 211.962C202.625 222.435 200.488 241.551 210.961 254.66Z" fill="#9059FF"/>
</svg>
