<svg width="22" height="22" viewBox="0 0 22 22" fill="none" xmlns="http://www.w3.org/2000/svg">
<path fill-rule="evenodd" clip-rule="evenodd" d="M11 19C6.58172 19 3 15.4183 3 11C3 6.58172 6.58172 3 11 3C15.4183 3 19 6.58172 19 11C18.9951 15.4163 15.4163 18.9951 11 19ZM15.531 12.7673C14.346 11.3997 12.7052 13.2399 10.9984 13.2399C9.29261 13.2399 7.65069 11.3997 6.46573 12.7673C6.12973 13.1548 6.10285 13.7193 6.39069 14.1426C7.39533 15.621 9.07533 16.5999 10.9984 16.5999C12.9214 16.5999 14.6014 15.621 15.606 14.1426C15.895 13.7193 15.867 13.1548 15.531 12.7673ZM10.999 12.1997C12.8769 12.1997 14.399 10.6777 14.399 8.79974C14.399 6.92181 12.8769 5.39974 10.999 5.39974C9.12103 5.39974 7.59896 6.92181 7.59896 8.79974C7.59896 10.6777 9.12103 12.1997 10.999 12.1997Z" fill="white"/>
</svg>
