<svg width="22" height="22" viewBox="0 0 22 22" fill="none" xmlns="http://www.w3.org/2000/svg">
<path d="M18.9982 14.2283V8.01616C18.9961 7.67732 18.903 7.34487 18.7282 7.05167C18.5533 6.75847 18.3027 6.51468 18.0011 6.34437L16.3561 5.42211L18.0011 6.34437C18.3031 6.51418 18.5541 6.75787 18.729 7.05118C18.904 7.34449 18.9968 7.67719 18.9982 8.01616V14.2283ZM18.7315 15.1629C18.5585 15.4573 18.3074 15.7013 18.0043 15.8692L15.4257 17.3159C15.4193 17.319 15.4098 17.322 15.4035 17.3251C15.3698 17.3431 15.3348 17.3585 15.2987 17.3714C15.2891 17.3745 15.2764 17.3806 15.2637 17.3837C15.2183 17.3984 15.1715 17.4087 15.124 17.4146C15.1126 17.4171 15.1008 17.4182 15.0891 17.4177C15.0638 17.4212 15.0384 17.4233 15.0129 17.4238C15.0002 17.4238 14.9875 17.4207 14.9748 17.4207C14.9621 17.4207 14.9494 17.4177 14.9367 17.4177C14.8915 17.415 14.8468 17.4077 14.8033 17.3961C14.7945 17.3955 14.7859 17.3934 14.7779 17.3899C14.7397 17.3798 14.7025 17.3664 14.6667 17.3498C14.6572 17.3467 14.6477 17.3405 14.6382 17.3375C14.5972 17.3168 14.5579 17.293 14.5207 17.2665C14.5111 17.2604 14.5048 17.2542 14.4953 17.248C14.4623 17.2227 14.4315 17.1949 14.4032 17.1647C14.3968 17.1586 14.3905 17.1555 14.3873 17.1493C14.3622 17.1208 14.3389 17.091 14.3174 17.0599L12.9488 15.0395C12.4835 15.2034 11.9924 15.2869 11.4975 15.2863C9.12537 15.2863 7.1978 13.4109 7.1978 11.1068C7.1978 8.8027 9.12854 6.92734 11.5007 6.92734C13.8728 6.92734 15.8036 8.8027 15.8036 11.1068C15.8036 11.693 15.6764 12.2727 15.4301 12.8079C15.1839 13.3431 14.8242 13.8218 14.3746 14.2129L15.2764 15.5423L17.0611 14.5398C17.1026 14.5155 17.141 14.4865 17.1754 14.4535C17.1406 14.4883 17.1011 14.5184 17.0579 14.5429L15.2733 15.5454L15.5527 15.9803C15.7117 16.2296 15.9644 16.409 16.2573 16.4804C16.5501 16.5518 16.8601 16.5096 17.1214 16.3628L18.0043 15.8692C18.306 15.6995 18.5567 15.456 18.7315 15.1629ZM11.2721 4.68184C11.2534 4.68988 11.2354 4.69915 11.2181 4.7096L6.87389 7.14634L5.94027 7.6707C5.85423 7.71942 5.78285 7.78921 5.73326 7.8731C5.68366 7.95699 5.65759 8.05205 5.65765 8.14879V14.0648C5.65759 14.1616 5.68366 14.2566 5.73326 14.3405C5.78285 14.4244 5.85423 14.4942 5.94027 14.5429L11.2149 17.5009C11.3726 17.5895 11.4958 17.7263 11.5654 17.8898C11.6349 18.0534 11.6469 18.2347 11.5995 18.4056C11.552 18.5765 11.4479 18.7274 11.3031 18.8349C11.1583 18.9423 10.9811 19.0004 10.7989 19C10.6538 19.0003 10.5113 18.9631 10.3861 18.892L4.99395 15.8692C4.69229 15.6993 4.44177 15.4555 4.26736 15.1622C4.09296 14.8688 4.00078 14.5362 4 14.1975V8.01616C4.00039 7.67735 4.09242 7.34459 4.26686 7.05119C4.4413 6.75779 4.69203 6.51405 4.99395 6.34437L5.11145 6.2796L10.3892 3.32158L10.5067 3.25681C10.8088 3.08854 11.1509 3 11.4991 3C11.8473 3 12.1894 3.08854 12.4915 3.25681L12.609 3.32158L14.2857 4.25926C14.2126 4.21608 14.1396 4.17598 14.0666 4.13897C13.8083 3.99339 13.5158 3.91467 13.2172 3.91035C12.9186 3.90603 12.6239 3.97625 12.3613 4.11429L11.2721 4.68184ZM8.84909 11.1068C8.84909 11.6156 9.00442 12.113 9.29543 12.536C9.58645 12.959 10.0001 13.2887 10.484 13.4835C10.9679 13.6782 11.5005 13.7291 12.0142 13.6298C12.5279 13.5306 12.9998 13.2856 13.3702 12.9258C13.7406 12.566 13.9929 12.1077 14.0951 11.6087C14.1972 11.1097 14.1448 10.5924 13.9443 10.1224C13.7439 9.65232 13.4044 9.25056 12.9689 8.96789C12.5334 8.68523 12.0213 8.53435 11.4975 8.53435C10.7953 8.53501 10.1221 8.80624 9.62554 9.28853C9.12901 9.77082 8.84977 10.4248 8.84909 11.1068Z" fill="white"/>
<path fill-rule="evenodd" clip-rule="evenodd" d="M18.003 6.34436L16.358 5.4221C16.358 5.4221 14.9957 4.65715 14.0685 4.13896C13.8102 3.99338 13.5177 3.91466 13.2191 3.91034C12.9205 3.90602 12.6258 3.97625 12.3632 4.11428L11.2168 4.71267C11.3029 4.66508 11.4003 4.64006 11.4994 4.64006C11.5985 4.64006 11.6959 4.66508 11.782 4.71267L17.0598 7.67069C17.1459 7.71941 17.2173 7.7892 17.2669 7.87309C17.3165 7.95699 17.3425 8.05205 17.3425 8.14879V14.0648C17.3425 14.1616 17.3165 14.2566 17.2669 14.3405C17.2173 14.4244 17.1459 14.4942 17.0598 14.5429L15.2752 15.5454L15.5546 15.9803C15.7136 16.2296 15.9663 16.409 16.2592 16.4804C16.552 16.5518 16.862 16.5096 17.1234 16.3628L18.0062 15.8692C18.3081 15.6996 18.5588 15.4558 18.7333 15.1624C18.9077 14.869 18.9997 14.5363 19.0001 14.1975V8.01615C18.9987 7.67718 18.9059 7.34448 18.731 7.05117C18.556 6.75786 18.305 6.51417 18.003 6.34436Z" fill="white"/>
<path fill-rule="evenodd" clip-rule="evenodd" d="M18.003 6.34436L16.358 5.4221C16.358 5.4221 14.9957 4.65715 14.0685 4.13896C13.8102 3.99338 13.5177 3.91466 13.2191 3.91034C12.9205 3.90602 12.6258 3.97625 12.3632 4.11428L11.2168 4.71267C11.3029 4.66508 11.4003 4.64006 11.4994 4.64006C11.5985 4.64006 11.6959 4.66508 11.782 4.71267L17.0598 7.67069C17.1459 7.71941 17.2173 7.7892 17.2669 7.87309C17.3165 7.95699 17.3425 8.05205 17.3425 8.14879V14.0648C17.3425 14.1616 17.3165 14.2566 17.2669 14.3405C17.2173 14.4244 17.1459 14.4942 17.0598 14.5429L15.2752 15.5454L15.5546 15.9803C15.7136 16.2296 15.9663 16.409 16.2592 16.4804C16.552 16.5518 16.862 16.5096 17.1234 16.3628L18.0062 15.8692C18.3081 15.6996 18.5588 15.4558 18.7333 15.1624C18.9077 14.869 18.9997 14.5363 19.0001 14.1975V8.01615C18.9987 7.67718 18.9059 7.34448 18.731 7.05117C18.556 6.75786 18.305 6.51417 18.003 6.34436Z" fill="white"/>
<path fill-rule="evenodd" clip-rule="evenodd" d="M18.003 6.34436L16.358 5.4221C16.358 5.4221 14.9957 4.65715 14.0685 4.13896C13.8102 3.99338 13.5177 3.91466 13.2191 3.91034C12.9205 3.90602 12.6258 3.97625 12.3632 4.11428L11.2168 4.71267C11.3029 4.66508 11.4003 4.64006 11.4994 4.64006C11.5985 4.64006 11.6959 4.66508 11.782 4.71267L17.0598 7.67069C17.1459 7.71941 17.2173 7.7892 17.2669 7.87309C17.3165 7.95699 17.3425 8.05205 17.3425 8.14879V14.0648C17.3425 14.1616 17.3165 14.2566 17.2669 14.3405C17.2173 14.4244 17.1459 14.4942 17.0598 14.5429L15.2752 15.5454L15.5546 15.9803C15.7136 16.2296 15.9663 16.409 16.2592 16.4804C16.552 16.5518 16.862 16.5096 17.1234 16.3628L18.0062 15.8692C18.3081 15.6996 18.5588 15.4558 18.7333 15.1624C18.9077 14.869 18.9997 14.5363 19.0001 14.1975V8.01615C18.9987 7.67718 18.9059 7.34448 18.731 7.05117C18.556 6.75786 18.305 6.51417 18.003 6.34436Z" fill="white"/>
<path opacity="0.9" fill-rule="evenodd" clip-rule="evenodd" d="M15.1474 15.3576L14.3726 14.2163C13.9586 14.578 13.4766 14.8587 12.9531 15.043L13.7756 16.2582C14.2392 15.9652 14.6965 15.665 15.1474 15.3576Z" fill="white"/>
</svg>
