<svg width="22" height="22" viewBox="0 0 22 22" fill="none" xmlns="http://www.w3.org/2000/svg">
<path d="M8.32504 19.0139C7.97091 19.0139 7.63131 18.8731 7.38094 18.6227L3.37485 14.6166C3.13161 14.3647 2.99701 14.0274 3.00005 13.6773C3.00309 13.3272 3.14353 12.9922 3.39112 12.7447C3.63871 12.4971 3.97363 12.3566 4.32376 12.3536C4.67389 12.3505 5.0112 12.4851 5.26306 12.7284L8.14343 15.6088L16.5776 3.55978C16.782 3.27327 17.0913 3.07905 17.4381 3.01935C17.785 2.95966 18.1414 3.03931 18.4298 3.24099C18.7183 3.44267 18.9154 3.75007 18.9784 4.09634C19.0414 4.44261 18.9652 4.79976 18.7663 5.09011L9.41871 18.4437C9.30746 18.6046 9.16226 18.739 8.99335 18.8375C8.82445 18.936 8.63596 18.9963 8.44122 19.0139C8.40252 19.0159 8.36375 19.0159 8.32504 19.0139V19.0139Z" fill="white"/>
</svg>
