<svg width="22" height="22" viewBox="0 0 22 22" fill="none" xmlns="http://www.w3.org/2000/svg">
<path d="M18.7197 17.308L13.9055 12.4937C14.7793 11.2658 15.1599 9.75444 14.9717 8.25916C14.7836 6.76387 14.0405 5.39386 12.8897 4.42072C11.7389 3.44759 10.2645 2.94237 8.75872 3.00523C7.25295 3.06809 5.82577 3.69444 4.76011 4.76011C3.69444 5.82577 3.06809 7.25295 3.00523 8.75872C2.94237 10.2645 3.44759 11.7389 4.42072 12.8897C5.39386 14.0405 6.76387 14.7836 8.25916 14.9717C9.75444 15.1599 11.2658 14.7793 12.4937 13.9055L17.308 18.7197C17.4963 18.9016 17.7485 19.0022 18.0103 19C18.2721 18.9977 18.5225 18.8927 18.7076 18.7076C18.8927 18.5225 18.9977 18.2721 19 18.0103C19.0022 17.7485 18.9016 17.4963 18.7197 17.308ZM9.02828 13.0219C8.23842 13.0219 7.4663 12.7877 6.80956 12.3488C6.15281 11.91 5.64094 11.2863 5.33868 10.5566C5.03641 9.82683 4.95733 9.02385 5.11142 8.24917C5.26551 7.47449 5.64587 6.7629 6.20438 6.20438C6.7629 5.64587 7.47449 5.26551 8.24917 5.11142C9.02385 4.95733 9.82683 5.03641 10.5566 5.33868C11.2863 5.64094 11.91 6.15281 12.3488 6.80956C12.7877 7.4663 13.0219 8.23842 13.0219 9.02828C13.0219 10.0874 12.6011 11.1032 11.8522 11.8522C11.1032 12.6011 10.0874 13.0219 9.02828 13.0219Z" fill="white"/>
</svg>
