<svg width="339" height="215" viewBox="0 0 339 215" fill="none" xmlns="http://www.w3.org/2000/svg">
<g opacity="0.5">
<path fill-rule="evenodd" clip-rule="evenodd" d="M182.504 4.10849C219.03 1.978 251.257 31.5816 272.3 61.9797C291.675 89.9683 297.619 125.553 286.268 157.767C276.095 186.639 246.702 196.915 218.422 207.656C194.262 216.832 169.258 217.309 144.59 209.651C112.144 199.579 72.0056 192.922 62.7755 159.762C53.3716 125.978 83.3698 97.6046 104.68 69.962C126.376 41.8205 147.371 6.15771 182.504 4.10849Z" fill="#D9BFFF"/>
</g>
<path d="M279.189 119.52C280.409 119.47 280.558 119.471 282.757 119.52C283.102 119.529 284.348 119.517 284.541 119.52C286.285 119.557 286.907 119.576 288.109 119.52C289.024 119.477 289.935 118.678 289.893 117.736C289.851 116.795 289.023 115.91 288.109 115.952C286.997 116.005 286.218 115.987 284.541 115.952C284.35 115.948 283.101 115.961 282.757 115.952C280.49 115.902 280.5 115.898 279.189 115.952C278.275 115.99 277.369 116.794 277.405 117.736C277.442 118.678 278.274 119.558 279.189 119.52Z" fill="#EAF3F3"/>
<path d="M284.539 123.088C284.558 122.244 284.533 120.724 284.539 119.52C284.538 119.89 284.54 119.314 284.539 119.52C284.553 116.726 284.468 115.649 284.539 114.168C284.584 113.257 283.689 112.428 282.756 112.385C281.821 112.342 281.016 113.256 280.972 114.168C280.897 115.712 280.985 116.678 280.972 119.52C280.97 119.89 280.973 119.315 280.972 119.52C280.965 120.708 280.989 122.266 280.972 123.088C280.951 124 281.821 124.853 282.756 124.872C283.69 124.892 284.519 124 284.539 123.088Z" fill="#EAF3F3"/>
<path d="M279.842 58.7853C279.887 59.7523 279.748 60.8624 279.842 62.353C279.829 62.1428 279.856 62.5635 279.842 62.353C280.073 65.9925 279.842 67.4495 279.842 69.4885C279.842 70.3456 280.825 71.2724 281.626 71.2724C282.427 71.2724 283.41 70.3456 283.41 69.4885C283.41 67.3562 283.646 66.062 283.41 62.353C283.397 62.1429 283.424 62.5629 283.41 62.353C283.317 60.8794 283.454 59.7293 283.41 58.7853C283.369 57.9292 282.426 56.9585 281.626 57.0014C280.826 57.0442 279.802 57.9293 279.842 58.7853Z" fill="#90BFFF"/>
<path d="M277.599 65.5853C279.291 65.7657 279.954 65.762 282.951 65.5853C283.654 65.5439 284.344 65.6045 284.735 65.5853C285.491 65.5482 285.921 65.5853 286.519 65.5853C287.414 65.5853 288.302 64.6677 288.302 63.8014C288.302 62.9352 287.414 62.0176 286.519 62.0176C285.86 62.0176 285.54 61.978 284.735 62.0176C284.33 62.0374 283.665 61.9755 282.951 62.0176C280.139 62.1833 279.044 62.1718 277.599 62.0176C276.709 61.9227 275.913 62.9404 275.815 63.8014C275.717 64.6625 276.709 65.4904 277.599 65.5853Z" fill="#90BFFF"/>
<path d="M122.206 162.333C122.251 163.3 122.111 164.41 122.206 165.901C122.193 165.692 122.219 166.112 122.206 165.901C122.437 169.541 122.206 170.997 122.206 173.037C122.206 173.893 123.189 174.82 123.99 174.82C124.791 174.82 125.773 173.893 125.773 173.037C125.773 170.904 126.009 169.61 125.773 165.901C125.76 165.691 125.787 166.111 125.773 165.901C125.681 164.428 125.818 163.278 125.773 162.333C125.734 161.477 124.79 160.507 123.99 160.549C123.19 160.593 122.166 161.477 122.206 162.333Z" fill="#90BFFF"/>
<path d="M120.423 169.469C122.114 169.649 122.778 169.645 125.775 169.469C126.188 169.445 127.328 169.481 127.559 169.469C128.612 169.41 128.6 169.469 129.343 169.469C130.238 169.469 131.127 168.549 131.127 167.685C131.127 166.821 130.238 165.901 129.343 165.901C128.527 165.901 128.668 165.839 127.559 165.901C127.323 165.914 126.192 165.876 125.775 165.901C122.964 166.066 121.868 166.055 120.423 165.901C119.534 165.806 118.738 166.826 118.64 167.685C118.541 168.544 119.534 169.374 120.423 169.469Z" fill="#90BFFF"/>
<path fill-rule="evenodd" clip-rule="evenodd" d="M237.758 121.292C237.874 123.129 239.385 123.126 239.541 121.292C239.905 117.035 242.063 114.418 244.893 114.157C244.656 114.172 245.119 114.153 244.893 114.157C246.774 114.028 246.778 112.373 244.893 112.373C244.644 112.373 245.134 112.354 244.893 112.373C241.882 112.398 240.218 112.399 239.541 108.805C239.51 108.639 239.622 107.46 239.541 107.021C239.467 106.616 239.592 107.275 239.541 107.021C239.199 105.308 237.848 105.275 237.758 107.021C237.744 107.279 237.771 106.575 237.758 107.021C237.74 107.623 237.789 108.499 237.758 108.805C237.681 109.547 238.147 109.895 237.758 110.589C237.071 111.81 234.46 112.407 232.406 112.373C230.528 112.342 230.535 113.986 232.406 114.157C234.834 114.38 235.694 115.395 235.974 115.941C236.832 117.642 237.636 119.372 237.758 121.292ZM244.893 112.373C244.689 112.387 245.082 112.371 244.893 112.373C244.718 112.304 245.117 112.37 244.893 112.373ZM244.893 114.157C244.704 114.157 245.071 114.142 244.893 114.157C244.735 114.233 245.101 114.14 244.893 114.157ZM237.758 114.157C238.363 113.721 237.346 113.002 237.758 112.373C238.199 113.176 238.86 113.672 239.541 114.157C238.931 114.715 238.195 115.16 237.758 115.941C237.616 115.609 237.92 114.479 237.758 114.157C238.267 114.534 237.482 113.621 237.758 114.157Z" fill="#FCD400"/>
<path fill-rule="evenodd" clip-rule="evenodd" d="M104.366 117.736C106.248 117.61 106.252 115.952 104.366 115.952C104.12 115.952 104.603 115.934 104.366 115.952C101.336 115.978 99.6946 116.008 99.0143 112.385C98.9843 112.226 99.0903 111.016 99.0143 110.601C98.9397 110.193 99.0647 110.855 99.0143 110.601C98.6723 108.887 97.321 108.854 97.2304 110.601C97.2172 110.858 97.2436 110.157 97.2304 110.601C97.2136 111.191 97.2604 112.084 97.2304 112.385C97.1551 113.139 97.6221 113.469 97.2304 114.168C96.542 115.39 93.9264 115.993 91.8788 115.952C89.9999 115.916 90.008 117.56 91.8788 117.736C94.3108 117.966 95.1666 118.975 95.4465 119.52C96.3015 121.222 97.1062 122.95 97.2304 124.872C97.3502 126.707 98.8572 126.704 99.0143 124.872C99.3782 120.61 101.53 117.993 104.366 117.736C104.588 117.732 104.133 117.752 104.366 117.736ZM104.366 115.952C104.165 115.966 104.552 115.95 104.366 115.952C104.193 115.885 104.587 115.949 104.366 115.952ZM104.366 117.736C104.18 117.736 104.541 117.722 104.366 117.736C104.209 117.809 104.57 117.72 104.366 117.736ZM97.2304 117.736C97.8355 117.301 96.819 116.582 97.2304 115.952C97.6711 116.757 98.3317 117.252 99.0143 117.736C98.4041 118.295 97.6681 118.739 97.2304 119.52C97.0894 119.189 97.3926 118.058 97.2304 117.736C97.7405 118.114 96.9549 117.199 97.2304 117.736Z" fill="#EAF3F3"/>
<path d="M166.568 69.4066C166.568 68.5481 165.769 67.6227 164.784 67.6227C163.799 67.6227 163 68.5481 163 69.4066C163 70.2652 163.799 71.1905 164.784 71.1905C165.769 71.1905 166.568 70.2652 166.568 69.4066Z" fill="#90BFFF"/>
<path d="M111.917 106.868C111.917 106.009 111.118 105.084 110.133 105.084C109.148 105.084 108.35 106.009 108.35 106.868C108.35 107.727 109.148 108.652 110.133 108.652C111.118 108.652 111.917 107.727 111.917 106.868Z" fill="#90BFFF"/>
<path d="M106.568 49.7839C106.568 48.9235 105.769 48 104.784 48C103.798 48 103 48.9235 103 49.7839C103 50.6444 103.798 51.5678 104.784 51.5678C105.769 51.5678 106.568 50.6444 106.568 49.7839Z" fill="#EAF3F3"/>
<path d="M117.269 64.055C117.269 63.1964 116.47 62.2711 115.485 62.2711C114.499 62.2711 113.701 63.1964 113.701 64.055C113.701 64.9136 114.499 65.8389 115.485 65.8389C116.47 65.8389 117.269 64.9136 117.269 64.055Z" fill="#4E6AF0"/>
<path d="M189.568 1.78388C189.568 0.925287 188.769 0 187.784 0C186.798 0 186 0.925287 186 1.78388C186 2.64248 186.798 3.56776 187.784 3.56776C188.769 3.56776 189.568 2.64248 189.568 1.78388Z" fill="#FCD400"/>
<path d="M88.3119 135.575C88.3119 134.714 87.5127 133.791 86.528 133.791C85.5424 133.791 84.7441 134.714 84.7441 135.575C84.7441 136.436 85.5424 137.359 86.528 137.359C87.5127 137.359 88.3119 136.436 88.3119 135.575Z" fill="#FCD400"/>
<path d="M141.829 48.1648C141.829 47.2462 141.031 46.3809 140.046 46.3809C139.061 46.3809 138.262 47.2462 138.262 48.1648C138.262 49.0834 139.061 49.9487 140.046 49.9487C141.031 49.9487 141.829 49.0834 141.829 48.1648Z" fill="#EAF3F3"/>
<path d="M152.533 10.7033C152.533 9.7868 151.734 8.91942 150.749 8.91942C149.764 8.91942 148.965 9.7868 148.965 10.7033C148.965 11.6198 149.764 12.4872 150.749 12.4872C151.734 12.4872 152.533 11.6198 152.533 10.7033Z" fill="#4E6AF0"/>
<path d="M248.861 24.9743C248.861 24.1668 248.062 23.1905 247.077 23.1905C246.092 23.1905 245.293 24.1668 245.293 24.9743C245.293 25.7819 246.092 26.7582 247.077 26.7582C248.062 26.7582 248.861 25.7819 248.861 24.9743Z" fill="#EAF3F3"/>
<path d="M196.892 49.7839C196.892 48.9235 196.094 48 195.108 48C194.123 48 193.324 48.9235 193.324 49.7839C193.324 50.6444 194.123 51.5678 195.108 51.5678C196.094 51.5678 196.892 50.6444 196.892 49.7839Z" fill="#FCD400"/>
<path d="M264.568 162.784C264.568 161.925 263.769 161 262.784 161C261.798 161 261 161.925 261 162.784C261 163.642 261.798 164.568 262.784 164.568C263.769 164.568 264.568 163.642 264.568 162.784Z" fill="#FCD400"/>
<path d="M111.501 78.4908C111.501 77.6029 110.703 76.7069 109.717 76.7069C108.733 76.7069 107.934 77.6029 107.934 78.4908C107.934 79.3787 108.733 80.2747 109.717 80.2747C110.703 80.2747 111.501 79.3787 111.501 78.4908Z" fill="#90BFFF"/>
<path d="M166.568 124.784C166.568 123.896 165.769 123 164.784 123C163.798 123 163 123.896 163 124.784C163 125.671 163.798 126.568 164.784 126.568C165.769 126.568 166.568 125.671 166.568 124.784Z" fill="#4E6AF0"/>
<path d="M125.773 126.656C125.773 125.766 124.974 124.872 123.989 124.872C123.003 124.872 122.205 125.766 122.205 126.656C122.205 127.545 123.003 128.439 123.989 128.439C124.974 128.439 125.773 127.545 125.773 126.656Z" fill="#4E6AF0"/>
<path d="M272.054 98.1135C272.054 97.2256 271.256 96.3296 270.27 96.3296C269.285 96.3296 268.486 97.2256 268.486 98.1135C268.486 99.0006 269.285 99.8974 270.27 99.8974C271.256 99.8974 272.054 99.0006 272.054 98.1135Z" fill="#EAF3F3"/>
<path d="M93.6654 160.549C93.6654 159.661 92.8662 158.765 91.8815 158.765C90.8959 158.765 90.0977 159.661 90.0977 160.549C90.0977 161.436 90.8959 162.333 91.8815 162.333C92.8662 162.333 93.6654 161.436 93.6654 160.549Z" fill="#EAF3F3"/>
<path d="M95.4416 63.0753H94.0079C93.2161 63.0753 92.5742 63.7192 92.5742 64.5136V74.582C92.5742 75.3764 93.2161 76.0204 94.0079 76.0204H95.4416C96.2334 76.0204 96.8752 75.3764 96.8752 74.582V64.5136C96.8752 63.7192 96.2334 63.0753 95.4416 63.0753Z" fill="#CB9EFF"/>
<path d="M101.461 57.8971H100.027C99.2356 57.8971 98.5938 58.5411 98.5938 59.3355V69.4039C98.5938 70.1983 99.2356 70.8422 100.027 70.8422H101.461C102.253 70.8422 102.895 70.1983 102.895 69.4039V59.3355C102.895 58.5411 102.253 57.8971 101.461 57.8971Z" fill="#45278D"/>
<path fill-rule="evenodd" clip-rule="evenodd" d="M85.4062 76.2682L130.28 52V186.342H85.4062V76.2682Z" fill="#9059FF"/>
<path d="M157.951 52H130.281V186.342H157.951V52Z" fill="#7542E5"/>
<path fill-rule="evenodd" clip-rule="evenodd" d="M225 61H266V186H232H225H201H168H158L158 128H168V112H201V128H225V61Z" fill="#F6B8FF"/>
<rect x="242" y="77" width="8" height="8" fill="#7542E5"/>
<rect x="242" y="91" width="8" height="8" fill="#7542E5"/>
<rect x="242" y="105" width="8" height="8" fill="#7542E5"/>
<rect x="196" y="153" width="7" height="7" fill="#7542E5"/>
<rect x="211" y="153" width="7" height="7" fill="#7542E5"/>
<rect x="228" y="153" width="7" height="7" fill="#7542E5"/>
<rect x="243" y="153" width="7" height="7" fill="#7542E5"/>
<rect x="173" y="155" width="17" height="31" fill="#7542E5"/>
<path fill-rule="evenodd" clip-rule="evenodd" d="M107.053 168.937H108.773C111.149 168.937 113.074 170.869 113.074 173.253V186.341H102.752V173.253C102.752 170.869 104.678 168.937 107.053 168.937Z" fill="#CB9EFF"/>
<path d="M95.4715 85.9334H92.0307C90.1303 85.9334 88.5898 87.479 88.5898 89.3855V94.5635C88.5898 96.47 90.1303 98.0156 92.0307 98.0156H95.4715C97.3718 98.0156 98.9123 96.47 98.9123 94.5635V89.3855C98.9123 87.479 97.3718 85.9334 95.4715 85.9334Z" fill="#CB9EFF"/>
<path d="M95.7273 127.369H92.2865C90.3862 127.369 88.8457 128.915 88.8457 130.821V135.999C88.8457 137.906 90.3862 139.451 92.2865 139.451H95.7273C97.6276 139.451 99.1681 137.906 99.1681 135.999V130.821C99.1681 128.915 97.6276 127.369 95.7273 127.369Z" fill="#F68FFF"/>
<path d="M95.7273 106.657H92.2865C90.3862 106.657 88.8457 108.203 88.8457 110.109V115.287C88.8457 117.194 90.3862 118.739 92.2865 118.739H95.7273C97.6276 118.739 99.1681 117.194 99.1681 115.287V110.109C99.1681 108.203 97.6276 106.657 95.7273 106.657Z" fill="#CB9EFF"/>
<path d="M109.634 85.8012H106.193C104.292 85.8012 102.752 87.3468 102.752 89.2533V94.4313C102.752 96.3378 104.292 97.8833 106.193 97.8833H109.634C111.534 97.8833 113.074 96.3378 113.074 94.4313V89.2533C113.074 87.3468 111.534 85.8012 109.634 85.8012Z" fill="#CB9EFF"/>
<path d="M109.634 127.369H106.193C104.292 127.369 102.752 128.915 102.752 130.821V135.999C102.752 137.906 104.292 139.451 106.193 139.451H109.634C111.534 139.451 113.074 137.906 113.074 135.999V130.821C113.074 128.915 111.534 127.369 109.634 127.369Z" fill="#CB9EFF"/>
<path d="M109.634 106.657H106.193C104.292 106.657 102.752 108.203 102.752 110.109V115.287C102.752 117.194 104.292 118.739 106.193 118.739H109.634C111.534 118.739 113.074 117.194 113.074 115.287V110.109C113.074 108.203 111.534 106.657 109.634 106.657Z" fill="#CB9EFF"/>
<path d="M123.397 85.8012H119.956C118.056 85.8012 116.516 87.3468 116.516 89.2533V94.4313C116.516 96.3378 118.056 97.8833 119.956 97.8833H123.397C125.298 97.8833 126.838 96.3378 126.838 94.4313V89.2533C126.838 87.3468 125.298 85.8012 123.397 85.8012Z" fill="#F68FFF"/>
<path d="M123.397 127.369H119.956C118.056 127.369 116.516 128.915 116.516 130.821V135.999C116.516 137.906 118.056 139.451 119.956 139.451H123.397C125.298 139.451 126.838 137.906 126.838 135.999V130.821C126.838 128.915 125.298 127.369 123.397 127.369Z" fill="#CB9EFF"/>
<path d="M123.397 106.657H119.956C118.056 106.657 116.516 108.203 116.516 110.109V115.287C116.516 117.194 118.056 118.739 119.956 118.739H123.397C125.298 118.739 126.838 117.194 126.838 115.287V110.109C126.838 108.203 125.298 106.657 123.397 106.657Z" fill="#CB9EFF"/>
<path d="M148.776 85.8012H139.6C137.383 85.8012 135.586 87.6043 135.586 89.8286V93.856C135.586 96.0802 137.383 97.8833 139.6 97.8833H148.776C150.993 97.8833 152.79 96.0802 152.79 93.856V89.8286C152.79 87.6043 150.993 85.8012 148.776 85.8012Z" fill="#D9BFFF"/>
<path d="M148.776 127.369H139.6C137.383 127.369 135.586 129.172 135.586 131.397V135.424C135.586 137.648 137.383 139.451 139.6 139.451H148.776C150.993 139.451 152.79 137.648 152.79 135.424V131.397C152.79 129.172 150.993 127.369 148.776 127.369Z" fill="#D9BFFF"/>
<path d="M148.776 60.7739H139.6C137.383 60.7739 135.586 62.5771 135.586 64.8013V73.1437C135.586 75.368 137.383 77.1711 139.6 77.1711H148.776C150.993 77.1711 152.79 75.368 152.79 73.1437V64.8013C152.79 62.5771 150.993 60.7739 148.776 60.7739Z" fill="#D9BFFF"/>
<path d="M148.776 106.657H139.6C137.383 106.657 135.586 108.46 135.586 110.685V114.712C135.586 116.936 137.383 118.739 139.6 118.739H148.776C150.993 118.739 152.79 116.936 152.79 114.712V110.685C152.79 108.46 150.993 106.657 148.776 106.657Z" fill="#D9BFFF"/>
<path d="M95.7273 148.225H92.2865C90.3862 148.225 88.8457 149.771 88.8457 151.677V156.855C88.8457 158.762 90.3862 160.308 92.2865 160.308H95.7273C97.6276 160.308 99.1681 158.762 99.1681 156.855V151.677C99.1681 149.771 97.6276 148.225 95.7273 148.225Z" fill="#CB9EFF"/>
<path d="M95.7273 169.081H92.2865C90.3862 169.081 88.8457 170.627 88.8457 172.533V177.712C88.8457 179.618 90.3862 181.164 92.2865 181.164H95.7273C97.6276 181.164 99.1681 179.618 99.1681 177.712V172.533C99.1681 170.627 97.6276 169.081 95.7273 169.081Z" fill="#CB9EFF"/>
<path d="M109.634 148.225H106.193C104.292 148.225 102.752 149.771 102.752 151.677V156.855C102.752 158.762 104.292 160.308 106.193 160.308H109.634C111.534 160.308 113.074 158.762 113.074 156.855V151.677C113.074 149.771 111.534 148.225 109.634 148.225Z" fill="#CB9EFF"/>
<path d="M123.397 148.225H119.956C118.056 148.225 116.516 149.771 116.516 151.677V156.855C116.516 158.762 118.056 160.308 119.956 160.308H123.397C125.298 160.308 126.838 158.762 126.838 156.855V151.677C126.838 149.771 125.298 148.225 123.397 148.225Z" fill="#CB9EFF"/>
<path d="M123.397 169.081H119.956C118.056 169.081 116.516 170.627 116.516 172.533V177.712C116.516 179.618 118.056 181.164 119.956 181.164H123.397C125.298 181.164 126.838 179.618 126.838 177.712V172.533C126.838 170.627 125.298 169.081 123.397 169.081Z" fill="#CB9EFF"/>
<path d="M148.776 148.225H139.6C137.383 148.225 135.586 150.029 135.586 152.253V156.28C135.586 158.504 137.383 160.308 139.6 160.308H148.776C150.993 160.308 152.79 158.504 152.79 156.28V152.253C152.79 150.029 150.993 148.225 148.776 148.225Z" fill="#D9BFFF"/>
<path d="M148.776 169.081H139.6C137.383 169.081 135.586 170.885 135.586 173.109V177.136C135.586 179.36 137.383 181.164 139.6 181.164H148.776C150.993 181.164 152.79 179.36 152.79 177.136V173.109C152.79 170.885 150.993 169.081 148.776 169.081Z" fill="#D9BFFF"/>
<path fill-rule="evenodd" clip-rule="evenodd" d="M112.777 26.7428C113.655 25.3927 114.974 23.0876 113.965 21.8814C113.369 21.1685 112.312 21.3726 111.589 21.8814C110.865 22.3901 109.695 23.4804 109.213 24.3121C109.986 22.3904 111.534 19.1592 111.589 17.02C111.644 14.8807 109.687 12.8488 108.025 12.1585C106.302 11.4427 104.76 13.3096 103.273 14.5892C100.098 17.3209 97.4241 20.6522 94.9571 24.3121C95.113 23.1634 95.1388 21.8092 94.9571 20.666C94.7755 19.5227 94.678 18.5941 93.7691 18.2353C92.868 17.8794 91.0511 17.7157 90.2052 18.2353C87.2936 20.0228 84.8817 23.4334 83.0773 26.7428C82.8096 26.7428 83.3449 26.7428 83.0773 26.7428H112.777Z" fill="#F6B8FF"/>
<path fill-rule="evenodd" clip-rule="evenodd" d="M339 125.041V126.105H294.984V125.884C294.984 124.271 295.666 122.809 296.77 121.752C297.874 120.694 299.398 120.04 301.081 120.04C302.879 120.04 304.493 120.786 305.609 121.971V120.406C305.609 117.928 306.657 115.685 308.35 114.061C310.044 112.437 312.384 111.434 314.968 111.434C319.234 111.434 322.832 114.171 323.959 117.912C325.535 116.756 327.503 116.067 329.64 116.067C334.809 116.067 339 120.086 339 125.041Z" fill="#D9BFFF"/>
<path fill-rule="evenodd" clip-rule="evenodd" d="M54.0547 65.3007V66.6454H0V66.3655C0 64.3278 0.837654 62.481 2.19315 61.146C3.54839 59.8096 5.41991 58.9835 7.48767 58.9835C9.69462 58.9835 11.6774 59.9263 13.0478 61.4232V59.4458C13.0478 56.3161 14.3351 53.4827 16.4139 51.4315C18.4942 49.3801 21.3675 48.1123 24.5415 48.1123C29.7804 48.1123 34.1983 51.5701 35.5829 56.2956C37.5185 54.8356 39.9354 53.9657 42.5597 53.9657C48.9076 53.9657 54.0547 59.0412 54.0547 65.3007Z" fill="#D9BFFF"/>
<path fill-rule="evenodd" clip-rule="evenodd" d="M266.822 43.9767C265.791 42.422 264.242 39.7676 265.427 38.3786C266.127 37.5577 267.367 37.7928 268.217 38.3786C269.066 38.9645 270.441 40.2199 271.006 41.1776C270.099 38.9648 268.281 35.244 268.217 32.7806C268.152 30.3172 270.45 27.9774 272.401 27.1825C274.425 26.3583 276.235 28.5081 277.981 29.9816C281.709 33.1271 284.849 36.9632 287.745 41.1776C287.562 39.8549 287.532 38.2955 287.745 36.9791C287.959 35.6625 288.073 34.5933 289.14 34.1801C290.198 33.7702 292.332 33.5818 293.325 34.1801C296.744 36.2384 299.576 40.1658 301.694 43.9767C302.009 43.9767 301.38 43.9767 301.694 43.9767H266.822Z" fill="#F770FF"/>
</svg>
