<svg xmlns="http://www.w3.org/2000/svg" viewBox="0 0 85 85"><g fill="#7542E5"><path d="M34.6 60.7h27c.6 0 1-.5 1-1V33.2c0-.3-.2-.6-.4-.8l-.9-.7c-.5-.4-1-.3-1.4.2-.4.5-.3 1 .2 1.4l.5.4v25H49.3V46.3c0-.6-.5-1-1-1s-1 .5-1 1v12.4h-8.5v-2.3c0-.6-.5-1-1-1s-1 .5-1 1v2.3h-2.2c-.6-.1-1 .4-1.1.9-.1.6.4 1 .9 1.1h.2zM43.2 16.6c-.4-.3-.9-.3-1.3 0l-19 15.9c-.2.2-.4.5-.4.8v23.3c0 .6.5 1 1 1 .6 0 1-.5 1-1V33.7l18-15 10 8.4c.5.4 1 .3 1.4-.1.4-.5.3-1-.1-1.4l-10.6-9z"/><path d="M43.7 34.6h-6.1c-.6 0-1 .5-1 1v6.5c0 .6.5 1 1 1s1-.5 1-1v-5.5h5.1c.6-.1.9-.6.9-1.1.1-.5-.3-.9-.9-.9z"/><circle cx="44.5" cy="48.6" r="1"/><path d="M42.5 1C19.5 1 1 19.6 1 42.5S19.5 84 42.5 84 84 65.4 84 42.5C84 19.5 65.5 1 42.5 1zM5.1 42.5C5 21.8 21.7 5.1 42.4 5c9.7 0 19.2 3.8 26.2 10.6L15.7 68.5c-6.9-6.9-10.6-16.3-10.6-26zm37.4 37.4c-8.8 0-17.2-3-23.9-8.7l52.7-52.7C84.6 34.4 82.5 58 66.6 71.2c-6.8 5.7-15.3 8.8-24.1 8.7z"/><path d="M16.7 64.8c.3 0 .5-.1.7-.2.5-.4.5-1 .1-1.4C6.1 49.4 8 29 21.8 17.5c12-9.8 29.3-9.8 41.2 0 .4.4 1 .4 1.4-.1.4-.4.4-1-.1-1.4l-.1-.1c-14.7-12.1-36.4-10-48.5 4.7-10.5 12.8-10.5 31.1 0 43.8.4.2.7.4 1 .4zM72 24.7c-.3-.6-.7-1-1-1.6-.3-.5-.9-.6-1.4-.3s-.6.9-.3 1.4c.3.5.7.9.9 1.5C79.4 41.2 74.4 61 59 70.2c-10.2 6.1-23 6.1-33.3 0-.5-.3-.9-.6-1.3-.9-.5-.3-1.1-.2-1.4.3-.3.5-.2 1.1.3 1.4.5.3.9.6 1.4.9 16.4 9.8 37.4 4.5 47.3-11.8 6.6-10.8 6.6-24.4 0-35.4z"/><path d="M43.3 13.1c-.4-.3-.9-.3-1.3 0L18.5 32.5c-.5.4-.5 1-.1 1.4.2.2.5.4.8.4.2 0 .5-.1.7-.2l22.9-18.8 11.8 10.2c.4.4 1 .3 1.4-.1.4-.4.3-1-.1-1.4L43.3 13.1zM65.2 34.1c.2.2.4.2.7.2.3 0 .6-.1.8-.4.4-.5.3-1-.2-1.4l-3.1-2.6c-.5-.4-1-.3-1.4.2-.4.5-.3 1 .2 1.4l3 2.6z"/></g></svg>