<?xml version="1.0" encoding="utf-8"?>
<!-- Generator: Adobe Illustrator 21.0.2, SVG Export Plug-In . SVG Version: 6.00 Build 0)  -->
<svg version="1.1" id="Layer_1" xmlns="http://www.w3.org/2000/svg" xmlns:xlink="http://www.w3.org/1999/xlink" x="0px" y="0px"
	 viewBox="0 0 87.8 87.8" enable-background="new 0 0 87.8 87.8" xml:space="preserve">
<g>
	<path fill="#7542E5" d="M43.7,16.1c-9.5,0-17.1,7.7-17.1,17.2c0,6.2,3.4,11.9,8.8,15c0.2,0.1,0.3,0.1,0.5,0.1
		c0.6,0,1.1-0.5,1.1-1.1c0-0.4-0.2-0.7-0.5-0.9c-7.3-4-9.9-13.1-5.9-20.4s13.1-9.9,20.4-5.9c2.3,1.3,4.2,3.1,5.6,5.3
		c0.3,0.5,1,0.7,1.5,0.4l0,0c0.5-0.3,0.7-1,0.3-1.5C55.2,19.1,49.6,16.1,43.7,16.1z"/>
	<path fill="#7542E5" d="M49.1,49.4c0.1,0,0.2,0,0.4-0.1c5.1-1.8,9.1-5.9,10.7-11.1c0.2-0.6-0.1-1.2-0.7-1.3l0,0
		c-0.6-0.2-1.2,0.2-1.3,0.7c-1.4,4.5-4.9,8.1-9.3,9.7c-0.6,0.2-0.9,0.8-0.7,1.4C48.2,49.1,48.6,49.4,49.1,49.4z"/>
	<path fill="#7542E5" d="M29.7,68c12.6,7.4,28.8,3.7,36.9-8.4c1.7-2.4,1.5-5.7-0.4-7.9c-4-4.6-9-2.5-13.8-0.5
		c-3.2,1.4-6.6,2.7-9.9,2.3c-0.6-0.1-1.1,0.4-1.2,0.9s0.4,1.1,0.9,1.2l0,0c3.8,0.4,7.5-1,11-2.5c5.2-2.2,8.5-3.3,11.3,0
		c1.3,1.5,1.4,3.6,0.3,5.2c-7.4,11.2-22.3,14.6-33.9,7.8c-0.5-0.3-1.2-0.2-1.5,0.3S29.2,67.6,29.7,68C29.8,67.9,29.8,68,29.7,68
		L29.7,68z"/>
	<path fill="#7542E5" d="M32.6,50.2c-3.9-1.5-8-2.4-11.4,1.5c-1.9,2.2-2.1,5.5-0.4,7.9c0.3,0.5,0.7,0.9,1,1.4
		c0.2,0.3,0.5,0.4,0.8,0.4c0.2,0,0.5-0.1,0.7-0.2c0.5-0.4,0.6-1,0.2-1.5l0,0c-0.3-0.4-0.6-0.8-0.9-1.3c-1.1-1.6-1-3.8,0.3-5.3
		c2.4-2.7,5.1-2.4,9-0.9c0.5,0.2,1.2-0.1,1.4-0.6C33.5,51,33.2,50.4,32.6,50.2L32.6,50.2z"/>
	<path fill="#7542E5" d="M43.9,0C19.6,0,0,19.7,0,43.9s19.6,43.9,43.9,43.9s43.9-19.7,43.9-43.9l0,0C87.8,19.7,68.2,0,43.9,0z
		 M4.3,43.9C4.2,22.1,21.9,4.3,43.8,4.3c10.3,0,20.3,4,27.7,11.2l-56,56C8.3,64.1,4.3,54.2,4.3,43.9z M43.9,83.6
		c-9.3,0-18.2-3.2-25.3-9.2l55.8-55.8c14,16.8,11.8,41.8-5,55.8C62.2,80.4,53.2,83.6,43.9,83.6L43.9,83.6z"/>
	<path fill="#7542E5" d="M16.6,67.5c0.3,0,0.5-0.1,0.7-0.2c0.5-0.4,0.5-1.1,0.1-1.5c-12-14.6-10-36.2,4.6-48.3
		c12.7-10.4,31-10.4,43.6,0c0.4,0.4,1.1,0.4,1.5-0.1c0.4-0.4,0.4-1.1-0.1-1.5c0,0,0,0-0.1-0.1C51.4,3,28.4,5.2,15.6,20.8
		c-11.1,13.5-11.1,32.9,0,46.3C16,67.3,16.3,67.5,16.6,67.5z"/>
	<path fill="#7542E5" d="M74.1,23.5c-0.3-0.5-1-0.6-1.5-0.3s-0.6,1-0.3,1.5l0,0c0.3,0.5,0.7,1,1,1.6c9.7,16.3,4.4,37.3-11.8,47
		c-10.8,6.5-24.3,6.5-35.2,0c-0.5-0.3-0.9-0.6-1.4-0.9s-1.2-0.2-1.5,0.3s-0.2,1.2,0.3,1.5s1,0.6,1.5,0.9c17.3,10.4,39.6,4.8,50-12.5
		c6.9-11.5,6.9-26,0-37.5C74.8,24.6,74.4,24,74.1,23.5z"/>
</g>
</svg>
