<?xml version="1.0" encoding="utf-8"?>
<!-- Generator: Adobe Illustrator 21.0.2, SVG Export Plug-In . SVG Version: 6.00 Build 0)  -->
<svg version="1.1" id="Layer_1" xmlns="http://www.w3.org/2000/svg" xmlns:xlink="http://www.w3.org/1999/xlink" x="0px" y="0px"
	 viewBox="0 0 85 85" enable-background="new 0 0 85 85" xml:space="preserve">
<g>
	<path fill="#7542E5" d="M34.6,60.7h27c0.6,0,1-0.5,1-1l0,0V33.2c0-0.3-0.2-0.6-0.4-0.8l-0.9-0.7c-0.5-0.4-1-0.3-1.4,0.2
		c-0.4,0.5-0.3,1,0.2,1.4l0,0l0.5,0.4v25H49.3V46.3c0-0.6-0.5-1-1-1s-1,0.5-1,1v12.4h-8.5v-2.3c0-0.6-0.5-1-1-1s-1,0.5-1,1v2.3h-2.2
		c-0.6-0.1-1,0.4-1.1,0.9c-0.1,0.6,0.4,1,0.9,1.1C34.5,60.7,34.5,60.7,34.6,60.7z"/>
	<path fill="#7542E5" d="M43.2,16.6c-0.4-0.3-0.9-0.3-1.3,0l-19,15.9c-0.2,0.2-0.4,0.5-0.4,0.8v23.3c0,0.6,0.5,1,1,1
		c0.6,0,1-0.5,1-1V33.7l18-15l10,8.4c0.5,0.4,1,0.3,1.4-0.1c0.4-0.5,0.3-1-0.1-1.4l0,0L43.2,16.6z"/>
	<path fill="#7542E5" d="M43.7,34.6h-6.1c-0.6,0-1,0.5-1,1v6.5c0,0.6,0.5,1,1,1s1-0.5,1-1v-5.5h5.1c0.6-0.1,0.9-0.6,0.9-1.1
		C44.7,35,44.3,34.6,43.7,34.6z"/>
	<circle fill="#7542E5" cx="44.5" cy="48.6" r="1"/>
	<path fill="#7542E5" d="M42.5,1C19.5,1,1,19.6,1,42.5S19.5,84,42.5,84S84,65.4,84,42.5l0,0C84,19.5,65.5,1,42.5,1z M5.1,42.5
		C5,21.8,21.7,5.1,42.4,5c9.7,0,19.2,3.8,26.2,10.6L15.7,68.5C8.8,61.6,5.1,52.2,5.1,42.5z M42.5,79.9c-8.8,0-17.2-3-23.9-8.7
		l52.7-52.7C84.6,34.4,82.5,58,66.6,71.2C59.8,76.9,51.3,80,42.5,79.9L42.5,79.9z"/>
	<path fill="#7542E5" d="M16.7,64.8c0.3,0,0.5-0.1,0.7-0.2c0.5-0.4,0.5-1,0.1-1.4C6.1,49.4,8,29,21.8,17.5c12-9.8,29.3-9.8,41.2,0
		c0.4,0.4,1,0.4,1.4-0.1c0.4-0.4,0.4-1-0.1-1.4c0,0,0,0-0.1-0.1c-14.7-12.1-36.4-10-48.5,4.7c-10.5,12.8-10.5,31.1,0,43.8
		C16.1,64.6,16.4,64.8,16.7,64.8z"/>
	<path fill="#7542E5" d="M72,24.7c-0.3-0.6-0.7-1-1-1.6c-0.3-0.5-0.9-0.6-1.4-0.3s-0.6,0.9-0.3,1.4l0,0c0.3,0.5,0.7,0.9,0.9,1.5
		C79.4,41.2,74.4,61,59,70.2c-10.2,6.1-23,6.1-33.3,0c-0.5-0.3-0.9-0.6-1.3-0.9c-0.5-0.3-1.1-0.2-1.4,0.3c-0.3,0.5-0.2,1.1,0.3,1.4
		c0.5,0.3,0.9,0.6,1.4,0.9c16.4,9.8,37.4,4.5,47.3-11.8C78.6,49.3,78.6,35.7,72,24.7L72,24.7z"/>
	<path fill="#7542E5" d="M43.3,13.1c-0.4-0.3-0.9-0.3-1.3,0L18.5,32.5c-0.5,0.4-0.5,1-0.1,1.4l0,0c0.2,0.2,0.5,0.4,0.8,0.4
		c0.2,0,0.5-0.1,0.7-0.2l22.9-18.8l11.8,10.2c0.4,0.4,1,0.3,1.4-0.1c0.4-0.4,0.3-1-0.1-1.4l0,0L43.3,13.1z"/>
	<path fill="#7542E5" d="M65.2,34.1c0.2,0.2,0.4,0.2,0.7,0.2c0.3,0,0.6-0.1,0.8-0.4c0.4-0.5,0.3-1-0.2-1.4l-3.1-2.6
		c-0.5-0.4-1-0.3-1.4,0.2c-0.4,0.5-0.3,1,0.2,1.4L65.2,34.1z"/>
</g>
</svg>
