<?xml version="1.0" encoding="utf-8"?>
<!-- Generator: Adobe Illustrator 21.0.2, SVG Export Plug-In . SVG Version: 6.00 Build 0)  -->
<svg version="1.1" id="Layer_1" xmlns="http://www.w3.org/2000/svg" xmlns:xlink="http://www.w3.org/1999/xlink" x="0px" y="0px"
	 viewBox="0 0 87.8 87.9" enable-background="new 0 0 87.8 87.9" xml:space="preserve">
<g>
	<path fill="#7542E5" d="M34.3,69.7h19.3c3,0,5.4-2.4,5.4-5.3V38.6c0-0.6-0.5-1.1-1.1-1.1s-1.1,0.5-1.1,1.1l0,0v25.7
		c0,1.8-1.4,3.2-3.2,3.2H34.3c-1.1,0-2.2-0.6-2.8-1.6c-0.2-0.6-0.8-0.9-1.3-0.7c-0.6,0.2-0.9,0.8-0.7,1.3c0,0.1,0.1,0.3,0.2,0.4
		C30.6,68.6,32.3,69.7,34.3,69.7z"/>
	<path fill="#7542E5" d="M53.5,18.3H34.3c-3,0-5.4,2.4-5.4,5.3v30c0,0.6,0.5,1.1,1.1,1.1s1.1-0.5,1.1-1.1l0,0v-30
		c0-1.8,1.4-3.2,3.2-3.2h19.3c1.8,0,3.2,1.4,3.2,3.2v2.2c0,0.6,0.5,1.1,1.1,1.1s1.1-0.5,1.1-1.1l0,0v-2.2
		C58.9,20.7,56.5,18.3,53.5,18.3z"/>
	<path fill="#7542E5" d="M51.4,22.5h-15c-1.8,0-3.2,1.4-3.2,3.2v23.6c0,0.6,0.5,1.1,1.1,1.1s1.1-0.5,1.1-1.1V29h17.1v0.3
		c0,0.6,0.5,1.1,1.1,1.1s1.1-0.5,1.1-1.1l0,0v-3.5C54.6,24,53.2,22.5,51.4,22.5z M35.3,26.8v-1.1c0-0.6,0.5-1.1,1.1-1.1l0,0h15
		c0.6,0,1.1,0.5,1.1,1.1l0,0v1.1H35.3z"/>
	<path fill="#7542E5" d="M34.9,62.9c0.5,0.3,1,0.4,1.5,0.4h15c1.8,0,3.2-1.4,3.2-3.2V43.6c0-0.6-0.5-1.1-1.1-1.1s-1.1,0.5-1.1,1.1
		v16.5c0,0.6-0.5,1.1-1.1,1.1h-15c-0.2,0-0.4,0-0.5-0.1c-0.5-0.3-1.2-0.1-1.5,0.4l0,0C34.2,61.9,34.3,62.6,34.9,62.9L34.9,62.9z"/>
	<path fill="#7542E5" d="M38.2,60c1,0,1.8-0.8,1.8-1.8s-0.8-1.8-1.8-1.8s-1.8,0.8-1.8,1.8l0,0C36.4,59.2,37.2,60,38.2,60z"/>
	<path fill="#7542E5" d="M43.9,60c1,0,1.8-0.8,1.8-1.8s-0.8-1.8-1.8-1.8s-1.8,0.8-1.8,1.8l0,0C42.1,59.2,42.9,60,43.9,60z"/>
	<path fill="#7542E5" d="M49.6,60c1,0,1.8-0.8,1.8-1.8s-0.8-1.8-1.8-1.8s-1.8,0.8-1.8,1.8l0,0C47.8,59.2,48.6,60,49.6,60z"/>
	<path fill="#7542E5" d="M41.8,64.3c-0.6,0-1.1,0.5-1.1,1.1s0.5,1.1,1.1,1.1h3.7c0.6,0,1.1-0.5,1.1-1.1s-0.5-1.1-1.1-1.1H41.8z"/>
	<path fill="#7542E5" d="M43.9,0C19.6,0,0,19.7,0,43.9s19.6,44,43.9,44S87.8,68.2,87.8,44l0,0C87.8,19.7,68.2,0,43.9,0z M4.3,44
		C4.2,22.1,21.9,4.4,43.8,4.3c10.3,0,20.3,4,27.7,11.2l-56,56C8.3,64.2,4.3,54.3,4.3,44z M43.9,83.6c-9.3,0-18.2-3.2-25.3-9.2
		l55.8-55.8c14,16.8,11.8,41.8-5,55.8C62.2,80.4,53.2,83.7,43.9,83.6L43.9,83.6z"/>
	<path fill="#7542E5" d="M16.6,67.5c0.6,0,1.1-0.5,1.1-1c0-0.3-0.1-0.5-0.3-0.7c-12-14.6-10-36.2,4.6-48.3c12.7-10.4,31-10.4,43.6,0
		c0.4,0.4,1.1,0.4,1.5-0.1c0.4-0.4,0.4-1.1-0.1-1.5c0,0,0,0-0.1-0.1C51.4,3,28.4,5.2,15.6,20.8c-11.1,13.5-11.1,32.9,0,46.3
		C16,67.4,16.3,67.5,16.6,67.5z"/>
	<path fill="#7542E5" d="M74.1,23.5c-0.3-0.5-1-0.6-1.5-0.3s-0.6,1-0.3,1.5l0,0c0.3,0.5,0.7,1,1,1.6c9.7,16.3,4.4,37.3-11.8,47
		c-10.8,6.5-24.3,6.5-35.2,0c-0.5-0.3-0.9-0.6-1.4-0.9s-1.2-0.2-1.5,0.3s-0.2,1.1,0.3,1.5l0,0c0.5,0.3,1,0.6,1.5,0.9
		c17.3,10.4,39.6,4.8,50-12.5c6.9-11.5,6.9-26,0-37.5C74.8,24.6,74.4,24.1,74.1,23.5z"/>
</g>
</svg>
