<?xml version="1.0" encoding="utf-8"?>
<!-- Generator: Adobe Illustrator 21.0.2, SVG Export Plug-In . SVG Version: 6.00 Build 0)  -->
<svg version="1.1" id="Layer_1" xmlns="http://www.w3.org/2000/svg" xmlns:xlink="http://www.w3.org/1999/xlink" x="0px" y="0px"
	 viewBox="0 0 96.1 73.7" enable-background="new 0 0 96.1 73.7" xml:space="preserve">
<path fill="none" d="M3.8,20.6c0,1.7,1.4,3.1,3.1,3.1l0,0h40.3v-6.2H6.9C5.2,17.5,3.8,18.9,3.8,20.6L3.8,20.6z"/>
<circle fill="none" cx="76.4" cy="19.7" r="10.2"/>
<path fill="none" d="M58.3,23.7h2.5l1,2.3c3.5,8.1,12.9,11.9,21,8.4s11.9-12.9,8.4-21S78.3,1.5,70.2,5c-4.3,1.8-7.6,5.4-9,9.9
	l-0.8,2.6h-2.8v6.2C57.6,23.7,58.3,23.7,58.3,23.7z M76.4,7.6c6.7,0,12.1,5.4,12.1,12.1s-5.4,12.1-12.1,12.1s-12.1-5.4-12.1-12.1
	l0,0C64.4,13,69.8,7.6,76.4,7.6z"/>
<path fill="none" d="M86.8,51.2h-79c-1,0-1.9,0.8-1.9,1.9v15c0,1,0.9,1.9,1.9,1.9h79c1,0,1.9-0.8,1.9-1.9V53
	C88.7,52,87.8,51.2,86.8,51.2z M22.4,62.5l-1.1,1.9c-0.1,0.2-0.4,0.3-0.7,0.2c0,0-0.1,0-0.1-0.1l-2.4-1.8l0.4,3
	c0,0.3-0.2,0.5-0.4,0.6c0,0,0,0-0.1,0h-2.2c-0.1,0-0.3-0.1-0.4-0.2c-0.1-0.1-0.1-0.2-0.1-0.4l0.4-3l-2.5,1.8
	c-0.1,0.1-0.3,0.1-0.4,0.1c-0.1,0-0.3-0.1-0.3-0.2l-1-1.9c-0.1-0.1-0.1-0.3,0-0.4c0-0.1,0.1-0.2,0.3-0.3l2.8-1.2l-2.9-1.2
	c-0.1-0.1-0.2-0.2-0.3-0.3s-0.1-0.3,0-0.4l1.1-1.8c0.1-0.1,0.2-0.2,0.3-0.2s0.3,0,0.4,0.1l2.4,1.8l-0.4-3c0-0.1,0-0.3,0.1-0.4
	c0.1-0.1,0.2-0.2,0.4-0.2h2.4c0.3,0,0.5,0.2,0.5,0.5c0,0,0,0,0,0.1l-0.4,3l2.4-1.8c0.1-0.1,0.3-0.1,0.4-0.1c0.1,0,0.3,0.1,0.3,0.2
	l1,1.9c0.1,0.1,0.1,0.3,0,0.4c-0.1,0.1-0.2,0.2-0.3,0.3l-2.8,1.2l2.8,1.2c0.1,0.1,0.2,0.2,0.3,0.3C22.4,62.2,22.4,62.3,22.4,62.5z
	 M37.8,62.5l-1.1,1.9c-0.1,0.1-0.2,0.2-0.3,0.2s-0.3,0-0.4-0.1l-2.4-1.8l0.4,3c0,0.1,0,0.3-0.1,0.4s-0.2,0.2-0.4,0.2h-2.2
	c-0.1,0-0.3-0.1-0.4-0.2c-0.1-0.1-0.1-0.2-0.1-0.4l0.4-3l-2.5,1.8c-0.1,0.1-0.3,0.1-0.4,0.1c-0.1,0-0.3-0.1-0.3-0.2l-1-1.9
	c-0.1-0.1-0.1-0.3,0-0.4c0-0.1,0.2-0.2,0.3-0.3l2.8-1.2l-2.8-1.2C27,59.3,26.9,59,27,58.8c0,0,0,0,0-0.1l1.1-1.8
	c0.1-0.1,0.2-0.2,0.3-0.2s0.3,0,0.4,0.1l2.4,1.8l-0.4-3c0-0.1,0-0.3,0.1-0.4c0.1-0.1,0.2-0.2,0.4-0.2h2.2c0.1,0,0.3,0.1,0.4,0.2
	c0.1,0.1,0.1,0.2,0.1,0.4l-0.4,3l2.4-1.8c0.1-0.1,0.3-0.1,0.4-0.1c0.1,0,0.3,0.1,0.3,0.2l1,1.9c0.1,0.1,0.1,0.3,0,0.4
	c-0.1,0.1-0.2,0.2-0.3,0.3l-2.8,1.2l2.8,1.2c0.1,0.1,0.2,0.2,0.3,0.3C37.9,62.2,37.9,62.3,37.8,62.5z M52.9,62.5l-1.1,1.9
	c-0.1,0.1-0.2,0.2-0.3,0.2c-0.1,0-0.3,0-0.4-0.1l-2.4-1.8l0.4,3c0,0.3-0.2,0.5-0.4,0.6c0,0,0,0-0.1,0h-2.2c-0.1,0-0.3-0.1-0.4-0.2
	s-0.1-0.2-0.1-0.4l0.4-3l-2.4,1.8c-0.1,0.1-0.3,0.1-0.4,0.1s-0.3-0.1-0.3-0.2l-1-1.9c-0.1-0.1-0.1-0.3,0-0.4c0-0.1,0.1-0.2,0.3-0.3
	l2.8-1.2l-2.8-1.2c-0.3-0.1-0.4-0.4-0.3-0.6c0,0,0,0,0-0.1l1-1.8c0.1-0.1,0.2-0.2,0.3-0.2c0.1,0,0.3,0,0.4,0.1l2.4,1.8l-0.4-3
	c0-0.1,0-0.3,0.1-0.4c0.1-0.1,0.2-0.2,0.4-0.2h2.2c0.3,0,0.5,0.2,0.5,0.5c0,0,0,0,0,0.1l-0.4,3l2.4-1.9c0.1-0.1,0.3-0.1,0.4-0.1
	s0.3,0.1,0.3,0.2l1,1.9c0.1,0.1,0.1,0.3,0,0.4c-0.1,0.1-0.2,0.2-0.3,0.3l-2.8,1.2l2.8,1.2c0.1,0.1,0.2,0.2,0.3,0.3
	C52.9,62.2,52.9,62.3,52.9,62.5L52.9,62.5z M67.9,62.5l-1.1,1.9c-0.1,0.1-0.2,0.2-0.3,0.2c-0.1,0-0.3,0-0.4-0.1l-2.4-1.8l0.4,3
	c0,0.3-0.2,0.5-0.4,0.6c0,0,0,0-0.1,0h-2.2c-0.1,0-0.3-0.1-0.4-0.2s-0.1-0.2-0.1-0.4l0.4-3l-2.4,1.8c-0.1,0.1-0.3,0.1-0.4,0.1
	s-0.3-0.1-0.3-0.2l-1-1.9c-0.1-0.2-0.1-0.3-0.1-0.4s0.1-0.2,0.3-0.3l2.7-1.2l-2.8-1.2C57,59.3,56.9,59,57,58.8c0,0,0,0,0-0.1
	l1.1-1.8c0.1-0.1,0.2-0.2,0.3-0.2c0.1,0,0.3,0,0.4,0.1l2.4,1.8l-0.4-3c0-0.1,0-0.3,0.1-0.4c0.1-0.1,0.2-0.2,0.4-0.2h2.2
	c0.3,0,0.5,0.2,0.5,0.5c0,0,0,0,0,0.1l-0.4,3l2.4-1.9c0.1-0.1,0.3-0.1,0.4-0.1s0.3,0.1,0.3,0.2l1,1.9c0.1,0.1,0.1,0.3,0,0.4
	c-0.1,0.1-0.2,0.2-0.3,0.3l-2.8,1.2l2.8,1.2c0.1,0.1,0.2,0.2,0.3,0.3C67.9,62.2,67.9,62.3,67.9,62.5L67.9,62.5z M83,66.2H71.7v-1.9
	H83V66.2z"/>
<g>
	<path fill="#7542E5" d="M19.8,27.6v9.5c0,0.5-0.4,0.9-0.9,0.9S18,37.6,18,37.1l0,0v-5.7c0-0.5-0.4-0.9-0.9-0.9s-0.9,0.4-0.9,0.9V33
		h-4.4v-1.6c0-0.5-0.4-0.9-0.9-0.9S10,30.9,10,31.4v5.7c0,0.5-0.5,0.9-1,0.9s-0.9-0.4-0.9-0.9l0,0v-9.4c0-0.1,0-0.1,0-0.2h-1
		c-0.3,0-0.6,0-0.9-0.1v0.3v9.4c-0.1,1.6,1.1,2.9,2.7,3s2.9-1.1,3-2.7c0-0.1,0-0.2,0-0.3v-2.2h4.5v2.2c-0.1,1.6,1.1,2.9,2.7,3
		c1.6,0.1,2.9-1.1,3-2.7c0-0.1,0-0.2,0-0.3v-9.4c0-0.1,0-0.1,0-0.2h-1.9C19.8,27.5,19.8,27.6,19.8,27.6z"/>
	<path fill="#7542E5" d="M47.2,23.7H6.9c-1.7,0.1-3.2-1.2-3.3-2.9c-0.1-1.7,1.2-3.2,2.9-3.3c0.1,0,0.2,0,0.4,0h40.3v-3.8H6.9
		c-3.8-0.1-6.9,3-6.9,6.7c-0.1,3.5,2.6,6.5,6,6.9c0.3,0.1,0.6,0.1,0.9,0.1h40.3V23.7z"/>
	<path fill="#7542E5" d="M76.4,0c-8.6,0-16.2,5.6-18.8,13.7v3.8h2.8l0.8-2.6C63.9,6.5,72.9,1.8,81.3,4.5s13.1,11.7,10.4,20.1
		S80,37.7,71.6,35c-4.4-1.4-8-4.7-9.9-9l-1-2.3h-3.1v3.8h0.6c4.3,10,15.9,14.7,25.9,10.5c10-4.3,14.7-15.9,10.5-25.9
		C91.5,4.7,84.4,0,76.4,0z"/>
	<path fill="#7542E5" d="M76.4,31.9c6.7,0,12.1-5.4,12.1-12.1S83.1,7.7,76.4,7.7s-12.1,5.4-12.1,12.1l0,0
		C64.3,26.4,69.8,31.8,76.4,31.9z M76.4,9.5c5.6,0,10.2,4.6,10.2,10.2S82,29.9,76.4,29.9s-10.2-4.6-10.2-10.2l0,0
		C66.2,14.1,70.8,9.5,76.4,9.5L76.4,9.5z"/>
	<path fill="#7542E5" d="M57.6,23.7v-10c0-1.5-1.2-2.6-2.7-2.6c-1.2,0-2.3,0.8-2.6,2c-0.3-1.4-1.8-2.3-3.2-2c-1.2,0.3-2.1,1.4-2,2.6
		v13.8c0,1.5,1.2,2.7,2.6,2.7c1.2,0,2.3-0.8,2.6-2c0.4,1.4,1.8,2.3,3.2,1.9c1.2-0.3,2-1.3,2-2.6L57.6,23.7L57.6,23.7z M50.6,27.4
		c0,0.4-0.3,0.8-0.8,0.8l0,0c-0.4,0-0.8-0.3-0.8-0.8V13.7c0-0.4,0.4-0.8,0.8-0.8s0.8,0.3,0.8,0.8V27.4z M55.8,27.4
		c0,0.4-0.3,0.8-0.8,0.8c-0.4,0-0.8-0.3-0.8-0.8l0,0V13.7c0-0.4,0.4-0.8,0.8-0.8s0.8,0.3,0.8,0.8V27.4z"/>
	<path fill="#7542E5" d="M86.8,47.4h-79c-3.1,0-5.7,2.5-5.7,5.6l0,0v15.1c0,3.1,2.5,5.6,5.6,5.6h79c3.1,0,5.6-2.5,5.6-5.6V53
		C92.4,49.9,89.9,47.4,86.8,47.4z M88.7,68.1c0,1-0.8,1.9-1.9,1.9h-79c-1,0-1.9-0.8-1.9-1.9V53c0-1,0.9-1.9,1.9-1.9h79
		c1,0,1.9,0.8,1.9,1.9V68.1z"/>
	<path fill="#7542E5" d="M19.3,60.6l2.8-1.2c0.1-0.1,0.2-0.2,0.3-0.3s0.1-0.3,0-0.4l-1-1.9c-0.1-0.1-0.2-0.2-0.3-0.2s-0.3,0-0.4,0.1
		l-2.4,1.8l0.4-3c0-0.3-0.2-0.5-0.4-0.6c0,0,0,0-0.1,0H16c-0.1,0-0.3,0.1-0.4,0.2c-0.1,0.1-0.1,0.2-0.1,0.4l0.4,3l-2.4-1.8
		c-0.1-0.1-0.3-0.1-0.4-0.1c-0.1,0-0.3,0.1-0.3,0.2l-1.1,1.8c-0.1,0.1-0.1,0.3,0,0.4c0,0.1,0.1,0.2,0.3,0.3l2.8,1.2L12,61.7
		c-0.1,0-0.2,0.2-0.3,0.3c-0.1,0.1-0.1,0.3,0,0.4l1,1.9c0.1,0.1,0.2,0.2,0.3,0.2s0.3,0,0.4-0.1l2.5-1.8l-0.4,3c0,0.1,0,0.3,0.1,0.4
		s0.2,0.2,0.4,0.2h2.1c0.3,0,0.5-0.2,0.5-0.5c0,0,0,0,0-0.1l-0.4-3l2.4,1.8c0.2,0.2,0.5,0.1,0.7-0.1c0,0,0-0.1,0.1-0.1l1.1-1.8
		c0.1-0.1,0.1-0.3,0-0.4c0-0.1-0.1-0.3-0.3-0.3L19.3,60.6z"/>
	<path fill="#7542E5" d="M34.8,60.6l2.8-1.2c0.1-0.1,0.2-0.2,0.3-0.3s0.1-0.3,0-0.4l-1.1-1.8c-0.1-0.1-0.2-0.2-0.3-0.2
		s-0.3,0-0.4,0.1l-2.4,1.8l0.4-3c0-0.1,0-0.3-0.1-0.4c-0.1-0.1-0.2-0.2-0.4-0.2h-2.2c-0.1,0-0.3,0.1-0.4,0.2
		c-0.1,0.1-0.1,0.2-0.1,0.4l0.4,3l-2.4-1.8c-0.1-0.1-0.3-0.1-0.4-0.1c-0.1,0.1-0.2,0.2-0.3,0.3l-1.1,1.8C27,59,27,59.3,27.3,59.5
		c0,0,0,0,0.1,0l2.8,1.2l-2.8,1.2c-0.1,0.1-0.2,0.2-0.3,0.3c-0.1,0.1-0.1,0.3,0,0.4l1,1.9c0.1,0.1,0.2,0.2,0.3,0.2s0.3,0,0.4-0.1
		l2.5-1.8l-0.4,3c0,0.1,0,0.3,0.1,0.4s0.2,0.2,0.4,0.2h2.2c0.1,0,0.3-0.1,0.4-0.2c0.1-0.1,0.1-0.2,0.1-0.4l-0.4-3l2.4,1.8
		c0.1,0.1,0.3,0.1,0.4,0.1c0.1,0,0.3-0.1,0.3-0.2l1.1-1.9c0.1-0.1,0.1-0.3,0-0.4c0-0.1-0.1-0.2-0.3-0.3L34.8,60.6z"/>
	<path fill="#7542E5" d="M49.8,60.6l2.8-1.2c0.1-0.1,0.2-0.2,0.3-0.3c0.1-0.1,0.1-0.3,0-0.4l-1-1.9c-0.1-0.1-0.2-0.2-0.3-0.2
		c-0.1,0-0.3,0-0.4,0.1l-2.4,1.8l0.4-3c0-0.3-0.2-0.5-0.4-0.6c0,0,0,0-0.1,0h-2.2c-0.1,0-0.3,0.1-0.4,0.2C46,55.2,46,55.3,46,55.5
		l0.4,3L44,56.7c-0.1-0.1-0.3-0.1-0.4-0.1s-0.3,0.1-0.3,0.3l-1.1,1.8c-0.1,0.2-0.1,0.5,0.2,0.7c0,0,0,0,0.1,0l2.8,1.2l-2.8,1.2
		c-0.1,0-0.2,0.2-0.3,0.3c-0.1,0.1-0.1,0.3,0,0.4l1,1.9c0.1,0.1,0.2,0.2,0.3,0.2c0.1,0,0.3,0,0.4-0.1l2.4-1.8l-0.4,3
		c0,0.1,0,0.3,0.1,0.4s0.2,0.2,0.4,0.2h2.2c0.3,0,0.5-0.2,0.5-0.5c0,0,0,0,0-0.1l-0.4-3l2.4,1.8c0.1,0.1,0.3,0.1,0.4,0.1
		s0.3-0.1,0.3-0.2l1.1-1.9c0.1-0.1,0.1-0.3,0-0.4c0-0.1-0.1-0.2-0.3-0.3L49.8,60.6z"/>
	<path fill="#7542E5" d="M64.9,60.6l2.8-1.2c0.1-0.1,0.2-0.2,0.3-0.3c0.1-0.1,0.1-0.3,0-0.4l-1-1.9c-0.1-0.1-0.2-0.2-0.3-0.2
		c-0.1,0-0.3,0-0.4,0.1l-2.5,1.8l0.4-3c0-0.3-0.2-0.5-0.4-0.6c0,0,0,0-0.1,0h-2.2c-0.1,0-0.3,0.1-0.4,0.2C61,55.2,61,55.3,61,55.5
		l0.4,3L59,56.7c-0.1-0.1-0.3-0.1-0.4-0.1s-0.3,0.1-0.3,0.2l-1.2,1.8c-0.1,0.2-0.1,0.5,0.2,0.7c0,0,0,0,0.1,0l2.8,1.2l-2.8,1.2
		c-0.1,0-0.2,0.2-0.3,0.3c-0.1,0.1-0.1,0.3,0,0.4l1,1.9c0.1,0.1,0.2,0.2,0.3,0.2c0.1,0,0.3,0,0.4-0.1l2.4-1.8l-0.4,3
		c0,0.1,0,0.3,0.1,0.4s0.2,0.2,0.4,0.2h2.2c0.3,0,0.5-0.2,0.5-0.5c0,0,0,0,0-0.1l-0.4-3l2.5,1.8c0.1,0.1,0.3,0.1,0.4,0.1
		s0.3-0.1,0.3-0.2l1.1-1.9c0.1-0.1,0.1-0.3,0-0.4c0-0.1-0.1-0.2-0.3-0.3L64.9,60.6z"/>
	<path fill="#7542E5" d="M71.7,64.3H83v1.9H71.7V64.3z"/>
</g>
</svg>
