<svg xmlns="http://www.w3.org/2000/svg" viewBox="0 0 96.4 73.5"><path fill="none" d="M6.9 17.5c-1.7 0-3.1 1.4-3.1 3.1s1.4 3.1 3.1 3.1h40.3v-6.2H6.9zM3.8 54.1c0 1.7 1.4 3.1 3.1 3.1h40.3V51H6.9c-1.7 0-3.1 1.4-3.1 3.1z"/><circle fill="none" cx="76.4" cy="83.2" r="10.2"/><path fill="none" d="M58.3 87.2h2.5l1 2.3a16.1 16.1 0 0021 8.5 16.1 16.1 0 008.5-21 16.1 16.1 0 00-21-8.5c-4.3 1.8-7.6 5.4-9 9.9l-.8 2.6h-2.8v6.2h.6zm18.1-16.1c6.7 0 12.1 5.4 12.1 12.1s-5.4 12.1-12.1 12.1-12.1-5.4-12.1-12.1c.1-6.7 5.5-12.1 12.1-12.1z"/><g fill="#7542E5"><path d="M19.7 27.5v9.6c.1.5-.3 1-.8 1-.5.1-1-.3-1-.8v-5.9c0-.5-.4-.9-.9-.9s-.9.4-.9.9V33h-4.4v-1.6c0-.5-.4-.9-.9-.9s-.9.4-.9.9v5.7c0 .5-.5 1-1 .9-.5 0-.9-.4-.9-.9v-9.4-.2H7c-.3 0-.6 0-.9-.1V37.1c-.1 1.6 1.1 2.9 2.7 3 1.6.1 2.9-1.1 3-2.7v-2.5h4.5v2.2c-.1 1.6 1.1 2.9 2.7 3 1.6.1 2.9-1.1 3-2.7V27.7v-.2h-2.3zM57.6 13.8c-1.3 3.9-1.3 8.1 0 12v1.7h.7c.9 2.1 2.2 4.1 3.8 5.8.7.8 1.9.8 2.7.1.8-.7.8-1.9.1-2.7-6.1-6.4-5.7-16.6.7-22.6C72 2 82.2 2.4 88.2 8.8c5.8 6.2 5.8 15.8 0 21.9-.7.8-.5 2 .3 2.7.7.6 1.8.6 2.5-.1 7.5-7.9 7.1-20.4-.8-27.9s-20.6-7.2-28.1.8c-2.1 2.2-3.6 4.7-4.5 7.6z"/><path d="M6 27.4c.3.1.6.1.9.1h40.3v-3.8H6.9c-1.7 0-3.1-1.4-3.1-3.1s1.4-3.1 3.1-3.1h40.3v-3.7H6.9c-3.8 0-6.9 3-6.9 6.8-.1 3.4 2.5 6.4 6 6.8zM82.5 28c-.4.3-.5.9-.2 1.3.2.2.5.4.8.4.2 0 .4-.1.6-.2 5.4-3.9 6.6-11.5 2.6-16.9S74.8 6 69.4 10s-6.6 11.5-2.6 16.9c.7 1 1.6 1.9 2.6 2.6.4.3 1 .3 1.3-.1.3-.4.3-1-.1-1.3l-.1-.1c-4.6-3.3-5.6-9.7-2.2-14.3s9.7-5.6 14.3-2.2 5.6 9.7 2.2 14.3c-.7.9-1.5 1.6-2.3 2.2z"/><path d="M47.2 17.5v10c0 1.5 1.2 2.7 2.6 2.7 1.2 0 2.3-.8 2.6-2 .4 1.4 1.8 2.3 3.2 1.9 1.2-.3 2-1.3 2-2.6v-1.8c-1.3-3.9-1.3-8.1 0-12 0-1.5-1.2-2.7-2.7-2.6-1.2 0-2.3.8-2.6 2-.3-1.4-1.8-2.3-3.2-2-1.2.3-2.1 1.4-2 2.6l.1 3.8zm2.6-4.5c.4 0 .8.4.8.8v13.7c0 .4-.3.8-.7.9-.4 0-.8-.3-.9-.7V13.8c0-.5.4-.8.8-.8zm5.2 0c.4 0 .8.3.8.8v13.7c0 .4-.3.8-.8.8-.4 0-.8-.3-.8-.8V13.8c0-.5.3-.8.8-.8zM19.8 61.1v9.4c0 .5-.4.9-.9.9s-.9-.4-.9-.9v-5.7c0-.5-.4-.9-.9-.9s-.9.4-.9.9v1.6h-4.4v-1.6c0-.5-.4-.9-.9-.9s-.9.4-.9.9v5.7c0 .5-.5.9-1 .9s-.9-.4-.9-.9v-9.4-.2h-1c-.3 0-.6 0-.9-.1V70.5c-.1 1.6 1.1 2.9 2.7 3 1.6.1 2.9-1.1 3-2.7v-2.5h4.5v2.2c-.1 1.6 1.1 2.9 2.7 3 1.6.1 2.9-1.1 3-2.7V61.1v-.2h-1.9c-.4.1-.4.2-.4.2z"/><path d="M47.2 57.2H6.9c-1.7 0-3.1-1.4-3.1-3.1S5.2 51 6.9 51h40.3v-3.8H6.9c-3.8-.1-6.9 3-6.9 6.7-.1 3.5 2.6 6.5 6 6.9.3.1.6.1.9.1h40.3v-3.7zM76.4 33.5c-8.6 0-16.2 5.6-18.8 13.7V51h2.8l.8-2.6C63.9 40 72.9 35.3 81.3 38s13.1 11.7 10.4 20.1S80 71.2 71.6 68.5c-4.4-1.4-8-4.7-9.9-9l-1-2.3h-3.1V61h.6c4.3 10 15.9 14.7 25.9 10.5 10-4.3 14.7-15.9 10.5-25.9-3.1-7.4-10.2-12.1-18.2-12.1z"/><path d="M76.4 65.3c6.7 0 12.1-5.4 12.1-12.1s-5.4-12.1-12.1-12.1-12.1 5.4-12.1 12.1c0 6.7 5.5 12.1 12.1 12.1zm0-22.3c5.6 0 10.2 4.6 10.2 10.2S82 63.4 76.4 63.4s-10.2-4.6-10.2-10.2S70.8 43 76.4 43zM57.6 57.2v-10c0-1.5-1.2-2.6-2.7-2.6-1.2 0-2.3.8-2.6 2-.3-1.4-1.8-2.3-3.2-2-1.2.3-2.1 1.4-2 2.6V61c0 1.5 1.2 2.7 2.6 2.7 1.2 0 2.3-.8 2.6-2 .4 1.4 1.8 2.3 3.2 1.9 1.2-.3 2-1.3 2-2.6l.1-3.8zm-7 3.8c0 .4-.3.8-.8.8-.4 0-.8-.3-.8-.8V47.2c0-.4.3-.8.8-.8.4 0 .8.3.8.7V61zm5.2 0c0 .4-.4.8-.8.8s-.8-.3-.8-.8V47.2c0-.4.4-.8.8-.8s.8.3.8.8V61z"/></g></svg>