<?xml version="1.0" encoding="utf-8"?>
<!-- Generator: Adobe Illustrator 21.0.2, SVG Export Plug-In . SVG Version: 6.00 Build 0)  -->
<svg version="1.1" id="Layer_1" xmlns="http://www.w3.org/2000/svg" xmlns:xlink="http://www.w3.org/1999/xlink" x="0px" y="0px"
	 viewBox="0 0 96.4 73.5" enable-background="new 0 0 96.4 73.5" xml:space="preserve">
<path fill="none" d="M6.9,17.5c-1.7,0-3.1,1.4-3.1,3.1s1.4,3.1,3.1,3.1l0,0h40.3v-6.2H6.9z"/>
<path fill="none" d="M3.8,54.1c0,1.7,1.4,3.1,3.1,3.1l0,0h40.3V51H6.9C5.2,51,3.8,52.4,3.8,54.1L3.8,54.1z"/>
<circle fill="none" cx="76.4" cy="83.2" r="10.2"/>
<path fill="none" d="M58.3,87.2h2.5l1,2.3c3.5,8.1,12.8,11.9,21,8.5c8.1-3.5,11.9-12.8,8.5-21c-3.5-8.1-12.8-11.9-21-8.5
	c-4.3,1.8-7.6,5.4-9,9.9L60.5,81h-2.8v6.2H58.3z M76.4,71.1c6.7,0,12.1,5.4,12.1,12.1s-5.4,12.1-12.1,12.1s-12.1-5.4-12.1-12.1l0,0
	C64.4,76.5,69.8,71.1,76.4,71.1z"/>
<g>
	<path fill="#7542E5" d="M19.7,27.5c0,0.1,0,0.1,0,0.2v9.4c0.1,0.5-0.3,1-0.8,1c-0.5,0.1-1-0.3-1-0.8c0-0.1,0-0.1,0-0.2v-5.7
		c0-0.5-0.4-0.9-0.9-0.9s-0.9,0.4-0.9,0.9V33h-4.4v-1.6c0-0.5-0.4-0.9-0.9-0.9s-0.9,0.4-0.9,0.9v5.7c0,0.5-0.5,1-1,0.9
		C8.4,38,8,37.6,8,37.1v-9.4c0-0.1,0-0.1,0-0.2H7c-0.3,0-0.6,0-0.9-0.1c0,0.1,0,0.2,0,0.3v9.4c-0.1,1.6,1.1,2.9,2.7,3
		c1.6,0.1,2.9-1.1,3-2.7c0-0.1,0-0.2,0-0.3v-2.2h4.5v2.2c-0.1,1.6,1.1,2.9,2.7,3c1.6,0.1,2.9-1.1,3-2.7c0-0.1,0-0.2,0-0.3v-9.4
		c0-0.1,0-0.1,0-0.2H19.7z"/>
	<path fill="#7542E5" d="M57.6,13.8c-1.3,3.9-1.3,8.1,0,12v1.7h0.7c0.9,2.1,2.2,4.1,3.8,5.8c0.7,0.8,1.9,0.8,2.7,0.1
		c0.8-0.7,0.8-1.9,0.1-2.7c-6.1-6.4-5.7-16.6,0.7-22.6C72,2,82.2,2.4,88.2,8.8c5.8,6.2,5.8,15.8,0,21.9c-0.7,0.8-0.5,2,0.3,2.7
		c0.7,0.6,1.8,0.6,2.5-0.1c7.5-7.9,7.1-20.4-0.8-27.9S69.6-1.8,62.1,6.2C60,8.4,58.5,10.9,57.6,13.8z"/>
	<path fill="#7542E5" d="M6,27.4c0.3,0.1,0.6,0.1,0.9,0.1h40.3v-3.8H6.9c-1.7,0-3.1-1.4-3.1-3.1s1.4-3.1,3.1-3.1h40.3v-3.7H6.9
		c-3.8,0-6.9,3-6.9,6.8C-0.1,24,2.5,27,6,27.4z"/>
	<path fill="#7542E5" d="M82.5,28c-0.4,0.3-0.5,0.9-0.2,1.3l0,0c0.2,0.2,0.5,0.4,0.8,0.4c0.2,0,0.4-0.1,0.6-0.2
		c5.4-3.9,6.6-11.5,2.6-16.9S74.8,6,69.4,10s-6.6,11.5-2.6,16.9c0.7,1,1.6,1.9,2.6,2.6c0.4,0.3,1,0.3,1.3-0.1c0.3-0.4,0.3-1-0.1-1.3
		L70.5,28c-4.6-3.3-5.6-9.7-2.2-14.3s9.7-5.6,14.3-2.2s5.6,9.7,2.2,14.3C84.1,26.7,83.3,27.4,82.5,28z"/>
	<path fill="#7542E5" d="M47.2,17.5v10c0,1.5,1.2,2.7,2.6,2.7c1.2,0,2.3-0.8,2.6-2c0.4,1.4,1.8,2.3,3.2,1.9c1.2-0.3,2-1.3,2-2.6
		v-1.8c-1.3-3.9-1.3-8.1,0-12c0-1.5-1.2-2.7-2.7-2.6c-1.2,0-2.3,0.8-2.6,2c-0.3-1.4-1.8-2.3-3.2-2c-1.2,0.3-2.1,1.4-2,2.6L47.2,17.5
		L47.2,17.5z M49.8,13c0.4,0,0.8,0.4,0.8,0.8v13.7c0,0.4-0.3,0.8-0.7,0.9c-0.4,0-0.8-0.3-0.9-0.7c0-0.1,0-0.1,0-0.2V13.8
		C49,13.3,49.4,13,49.8,13z M55,13c0.4,0,0.8,0.3,0.8,0.8v13.7c0,0.4-0.3,0.8-0.8,0.8c-0.4,0-0.8-0.3-0.8-0.8l0,0V13.8
		C54.2,13.3,54.5,13,55,13z"/>
	<path fill="#7542E5" d="M19.8,61.1v9.4c0,0.5-0.4,0.9-0.9,0.9S18,71,18,70.5l0,0v-5.7c0-0.5-0.4-0.9-0.9-0.9s-0.9,0.4-0.9,0.9l0,0
		v1.6h-4.4v-1.6c0-0.5-0.4-0.9-0.9-0.9S10,64.3,10,64.8l0,0v5.7c0,0.5-0.5,0.9-1,0.9S8.1,71,8.1,70.5l0,0v-9.4c0-0.1,0-0.1,0-0.2h-1
		c-0.3,0-0.6,0-0.9-0.1v0.3v9.4c-0.1,1.6,1.1,2.9,2.7,3c1.6,0.1,2.9-1.1,3-2.7c0-0.1,0-0.2,0-0.3v-2.2h4.5v2.2
		c-0.1,1.6,1.1,2.9,2.7,3c1.6,0.1,2.9-1.1,3-2.7c0-0.1,0-0.2,0-0.3v-9.4c0-0.1,0-0.1,0-0.2h-1.9C19.8,61,19.8,61.1,19.8,61.1z"/>
	<path fill="#7542E5" d="M47.2,57.2H6.9c-1.7,0-3.1-1.4-3.1-3.1S5.2,51,6.9,51h40.3v-3.8H6.9c-3.8-0.1-6.9,3-6.9,6.7
		c-0.1,3.5,2.6,6.5,6,6.9c0.3,0.1,0.6,0.1,0.9,0.1h40.3V57.2z"/>
	<path fill="#7542E5" d="M76.4,33.5c-8.6,0-16.2,5.6-18.8,13.7V51h2.8l0.8-2.6C63.9,40,72.9,35.3,81.3,38s13.1,11.7,10.4,20.1
		S80,71.2,71.6,68.5c-4.4-1.4-8-4.7-9.9-9l-1-2.3h-3.1V61h0.6c4.3,10,15.9,14.7,25.9,10.5c10-4.3,14.7-15.9,10.5-25.9
		C91.5,38.2,84.4,33.5,76.4,33.5z"/>
	<path fill="#7542E5" d="M76.4,65.3c6.7,0,12.1-5.4,12.1-12.1s-5.4-12.1-12.1-12.1s-12.1,5.4-12.1,12.1l0,0
		C64.3,59.9,69.8,65.3,76.4,65.3z M76.4,43c5.6,0,10.2,4.6,10.2,10.2S82,63.4,76.4,63.4s-10.2-4.6-10.2-10.2l0,0
		C66.2,47.6,70.8,43,76.4,43z"/>
	<path fill="#7542E5" d="M57.6,57.2v-10c0-1.5-1.2-2.6-2.7-2.6c-1.2,0-2.3,0.8-2.6,2c-0.3-1.4-1.8-2.3-3.2-2c-1.2,0.3-2.1,1.4-2,2.6
		V61c0,1.5,1.2,2.7,2.6,2.7c1.2,0,2.3-0.8,2.6-2c0.4,1.4,1.8,2.3,3.2,1.9c1.2-0.3,2-1.3,2-2.6L57.6,57.2L57.6,57.2z M50.6,61
		c0,0.4-0.3,0.8-0.8,0.8l0,0c-0.4,0-0.8-0.3-0.8-0.8V47.2c0-0.4,0.3-0.8,0.8-0.8l0,0c0.4,0,0.8,0.3,0.8,0.7l0,0V61z M55.8,61
		c0,0.4-0.4,0.8-0.8,0.8s-0.8-0.3-0.8-0.8V47.2c0-0.4,0.4-0.8,0.8-0.8s0.8,0.3,0.8,0.8V61z"/>
</g>
</svg>
