<svg xmlns="http://www.w3.org/2000/svg" viewBox="0 0 21.65 15.55"><g fill="#7542E5"><path class="cls-1" d="M7.3,6l-.47.06a3.77,3.77,0,0,0-1.24.4A1.9,1.9,0,0,0,4.47,7.87c0,.72,1.68,1.43,2.66,1.43A6,6,0,0,0,8,9.22a5.46,5.46,0,0,0,1.25-.36A1,1,0,0,0,10,8,2.49,2.49,0,0,0,7.3,6ZM8.88,8a4.55,4.55,0,0,1-1,.28,5.24,5.24,0,0,1-.74.07,3.13,3.13,0,0,1-1.57-.52,1.68,1.68,0,0,1,.51-.4,2.86,2.86,0,0,1,1-.3,2.6,2.6,0,0,1,.36,0,1.56,1.56,0,0,1,1.55.89Zm7.17-1.43a4,4,0,0,0-1.27-.43l-.41,0a2.45,2.45,0,0,0-2.71,2c0,.47.52.71.69.79a5.06,5.06,0,0,0,1.27.35,5.8,5.8,0,0,0,.91.08c1.11,0,2.65-.72,2.65-1.43C17.18,7.46,16.71,6.9,16.05,6.52ZM14.53,8.3a6.32,6.32,0,0,1-.76-.06,3.87,3.87,0,0,1-1-.28l0,0A1.45,1.45,0,0,1,14.29,7l.36,0a3,3,0,0,1,.91.31,2.18,2.18,0,0,1,.51.41A2.91,2.91,0,0,1,14.53,8.3ZM18.46,0H3.18A3.19,3.19,0,0,0,0,3.19v9.17a3.19,3.19,0,0,0,3.18,3.19H18.46a3.19,3.19,0,0,0,3.19-3.19V3.19A3.19,3.19,0,0,0,18.46,0ZM3.18,1H18.46a2.19,2.19,0,0,1,1.68.8l-2.32,2-.08,0a7.12,7.12,0,0,0-2.08-.25,8.14,8.14,0,0,0-3.46.74,3.54,3.54,0,0,1-1.37.39,3.32,3.32,0,0,1-1.32-.38A8.09,8.09,0,0,0,6,3.47a7.85,7.85,0,0,0-2.09.22l-.1,0L1.51,1.8A2.18,2.18,0,0,1,3.18,1ZM18.55,6.74c0,3-1.23,4.95-3.2,4.95a3.73,3.73,0,0,1-2-.95A7.17,7.17,0,0,0,12,9.9a2.85,2.85,0,0,0-1.13-.27A2.71,2.71,0,0,0,9.7,9.9a7.36,7.36,0,0,0-1.42.86,3.74,3.74,0,0,1-2,.93c-2,0-3.2-1.9-3.2-4.95A2.48,2.48,0,0,1,3.51,5a1.38,1.38,0,0,1,.66-.37A7.25,7.25,0,0,1,6,4.47a7,7,0,0,1,3.12.67,4.15,4.15,0,0,0,1.72.46,4.54,4.54,0,0,0,1.75-.46,7.08,7.08,0,0,1,3.08-.67,5.77,5.77,0,0,1,1.78.21,1.5,1.5,0,0,1,.67.38A2.4,2.4,0,0,1,18.55,6.74Zm2.1,5.62a2.19,2.19,0,0,1-2.19,2.19H3.18A2.19,2.19,0,0,1,1,12.36V3.19a2.24,2.24,0,0,1,.05-.46L2.88,4.26s-.08,0-.11.09A3.3,3.3,0,0,0,2.1,6.74c0,3.61,1.65,5.95,4.2,5.95a4.51,4.51,0,0,0,2.56-1.12,6.55,6.55,0,0,1,1.23-.75,1.46,1.46,0,0,1,1.46,0,7,7,0,0,1,1.17.73,4.61,4.61,0,0,0,2.63,1.14c2.55,0,4.2-2.34,4.2-5.95a3.24,3.24,0,0,0-.71-2.36h0l-.11-.09L20.6,2.73a2.24,2.24,0,0,1,0,.46Z"/></g></svg>
