<svg xmlns="http://www.w3.org/2000/svg" viewBox="0 0 66.3 90"><path fill="none" d="M62.1 16.4h-7.9c-2.3 0-4.2-1.9-4.2-4.2v-8H4.3v81.4h57.9l-.1-69.2zM8.6 41.8V25.2c0-1.8 1.4-3.2 3.2-3.2h27.6c1.8 0 3.2 1.4 3.2 3.2v16.6c0 1.8-1.4 3.2-3.2 3.2H11.8c-1.8 0-3.2-1.4-3.2-3.2zm25.7 27.9H10.7c-.6 0-1.1-.5-1.1-1.1s.5-1.1 1.1-1.1h23.6c.6 0 1.1.5 1.1 1.1-.1.6-.5 1.1-1.1 1.1zm21.4-4.3h-45c-.6-.1-1-.6-1-1.2 0-.5.5-.9 1-1h45c.6.1 1 .6 1 1.2-.1.5-.5.9-1 1zm0-4.3h-45c-.6 0-1.1-.5-1.1-1.1s.5-1.1 1.1-1.1h45c.6 0 1.1.5 1.1 1.1s-.5 1.1-1.1 1.1zm0-4.3h-45c-.6-.1-1-.6-1-1.2 0-.5.5-.9 1-1h45c.6.1 1 .6 1 1.2-.1.6-.5 1-1 1zm0-4.3h-45c-.6 0-1.1-.5-1.1-1.1s.5-1.1 1.1-1.1h45c.6 0 1.1.5 1.1 1.1 0 .7-.5 1.1-1.1 1.1z"/><path fill="none" d="M54.2 14.3h7.6l-9.6-9.6v7.6c0 1.1.9 2 2 2zM14.5 37.5h3.7v1.6h-3.7v-1.6z"/><path fill="none" d="M39.3 42.9c.6 0 1.1-.5 1.1-1.1V30H10.7v-4.3h29.7v-.6c0-.6-.5-1.1-1.1-1.1H11.8c-.6 0-1.1.5-1.1 1.1v16.6c0 .6.5 1.1 1.1 1.1l27.5.1zm-19-2.7c0 .6-.5 1.1-1 1.1h-5.9c-.6 0-1.1-.5-1.1-1v-3.7c0-.6.5-1.1 1.1-1.1h5.9c.6 0 1.1.5 1.1 1.1l-.1 3.6zm10.6-9.1h1.2c.6 0 1.1.5 1.1 1.1 0 .6-.5 1.1-1.1 1.1h-1.2c-.6 0-1.1-.5-1.1-1.1 0-.6.5-1.1 1.1-1.1zm-17.6 0h14.6c.6 0 1.1.5 1.1 1.1 0 .6-.5 1.1-1.1 1.1H13.3c-.6 0-1.1-.5-1.1-1.1 0-.6.5-1.1 1.1-1.1z"/><g fill="#7542E5"><path d="M55.7 50.4h-45c-.6 0-1.1.5-1.1 1.1s.5 1.1 1.1 1.1h45c.6 0 1.1-.5 1.1-1.1s-.5-1.1-1.1-1.1zM55.7 54.7h-45c-.6.1-1 .6-1 1.2 0 .5.5.9 1 1h45c.6-.1 1-.6 1-1.2-.1-.6-.5-1-1-1zM55.7 59h-45c-.6 0-1.1.5-1.1 1.1s.5 1.1 1.1 1.1h45c.6 0 1.1-.5 1.1-1.1 0-.7-.5-1.1-1.1-1.1zM55.7 63.2h-45c-.6.1-1 .6-1 1.2 0 .5.5.9 1 1h45c.6-.1 1-.6 1-1.2-.1-.5-.5-.9-1-1zM34.3 67.5H10.7c-.6 0-1.1.5-1.1 1.1s.5 1.1 1.1 1.1h23.6c.6 0 1.1-.5 1.1-1.1-.1-.6-.5-1.1-1.1-1.1z"/><path d="M2.1 90h62.1c1.2 0 2.1-1 2.1-2.1v-75L53.6 0H2.1C.9 0 0 1 0 2.1v85.7C0 89.1.9 90 2.1 90zM52.2 4.7l9.6 9.6h-7.6c-1.1 0-2-.9-2-2V4.7zM4.3 4.3H50v8c0 2.3 1.9 4.1 4.2 4.1h8v69.3H4.3V4.3z"/><path d="M39.3 45c1.8 0 3.2-1.4 3.2-3.2V25.2c0-1.8-1.4-3.2-3.2-3.2H11.8c-1.8 0-3.2 1.4-3.2 3.2v16.6c0 1.8 1.4 3.2 3.2 3.2h27.5zm-28.6-3.2V25.2c0-.6.5-1.1 1.1-1.1h27.6c.6 0 1.1.5 1.1 1.1v.6H10.7v4.3h29.7v11.8c0 .6-.5 1.1-1.1 1.1H11.8c-.6-.1-1.1-.6-1.1-1.2z"/><path d="M13.3 33.2h14.6c.6 0 1.1-.5 1.1-1.1 0-.6-.5-1.1-1.1-1.1H13.3c-.6 0-1.1.5-1.1 1.1 0 .6.5 1.1 1.1 1.1zM30.9 33.2h1.2c.6 0 1.1-.5 1.1-1.1 0-.6-.5-1.1-1.1-1.1h-1.2c-.6 0-1.1.5-1.1 1.1 0 .7.5 1.1 1.1 1.1zM19.3 35.4h-5.9c-.6 0-1.1.5-1.1 1.1v3.7c0 .6.5 1.1 1 1.1h5.9c.6 0 1.1-.5 1.1-1v-3.7c0-.7-.4-1.2-1-1.2zm-1.1 3.7h-3.7v-1.6h3.7v1.6z"/></g></svg>