<?xml version="1.0" encoding="utf-8"?>
<!-- Generator: Adobe Illustrator 21.0.2, SVG Export Plug-In . SVG Version: 6.00 Build 0)  -->
<svg version="1.1" id="Layer_1" xmlns="http://www.w3.org/2000/svg" xmlns:xlink="http://www.w3.org/1999/xlink" x="0px" y="0px"
	 viewBox="0 0 66.3 90" enable-background="new 0 0 66.3 90" xml:space="preserve">
<path fill="none" d="M62.1,16.4h-7.9c-2.3,0-4.2-1.9-4.2-4.2l0,0v-8H4.3v81.4h57.9L62.1,16.4z M8.6,41.8V25.2c0-1.8,1.4-3.2,3.2-3.2
	h27.6c1.8,0,3.2,1.4,3.2,3.2v16.6c0,1.8-1.4,3.2-3.2,3.2H11.8C10,45,8.6,43.6,8.6,41.8z M34.3,69.7H10.7c-0.6,0-1.1-0.5-1.1-1.1
	s0.5-1.1,1.1-1.1l0,0h23.6c0.6,0,1.1,0.5,1.1,1.1C35.3,69.2,34.9,69.7,34.3,69.7L34.3,69.7z M55.7,65.4h-45c-0.6-0.1-1-0.6-1-1.2
	c0-0.5,0.5-0.9,1-1h45c0.6,0.1,1,0.6,1,1.2C56.6,64.9,56.2,65.3,55.7,65.4z M55.7,61.1h-45c-0.6,0-1.1-0.5-1.1-1.1s0.5-1.1,1.1-1.1
	h45c0.6,0,1.1,0.5,1.1,1.1S56.3,61.1,55.7,61.1z M55.7,56.8h-45c-0.6-0.1-1-0.6-1-1.2c0-0.5,0.5-0.9,1-1h45c0.6,0.1,1,0.6,1,1.2
	C56.6,56.4,56.2,56.8,55.7,56.8z M55.7,52.5h-45c-0.6,0-1.1-0.5-1.1-1.1s0.5-1.1,1.1-1.1h45c0.6,0,1.1,0.5,1.1,1.1
	C56.8,52.1,56.3,52.5,55.7,52.5z"/>
<path fill="none" d="M54.2,14.3h7.6l-9.6-9.6v7.6C52.2,13.4,53.1,14.3,54.2,14.3L54.2,14.3z"/>
<path fill="none" d="M14.5,37.5h3.7v1.6h-3.7V37.5z"/>
<path fill="none" d="M39.3,42.9c0.6,0,1.1-0.5,1.1-1.1V30H10.7v-4.3h29.7v-0.6c0-0.6-0.5-1.1-1.1-1.1H11.8c-0.6,0-1.1,0.5-1.1,1.1
	v16.6c0,0.6,0.5,1.1,1.1,1.1L39.3,42.9z M20.3,40.2c0,0.6-0.5,1.1-1,1.1l0,0h-5.9c-0.6,0-1.1-0.5-1.1-1l0,0v-3.7
	c0-0.6,0.5-1.1,1.1-1.1h5.9c0.6,0,1.1,0.5,1.1,1.1L20.3,40.2L20.3,40.2z M30.9,31.1h1.2c0.6,0,1.1,0.5,1.1,1.1
	c0,0.6-0.5,1.1-1.1,1.1h-1.2c-0.6,0-1.1-0.5-1.1-1.1C29.8,31.6,30.3,31.1,30.9,31.1L30.9,31.1z M13.3,31.1h14.6
	c0.6,0,1.1,0.5,1.1,1.1c0,0.6-0.5,1.1-1.1,1.1H13.3c-0.6,0-1.1-0.5-1.1-1.1C12.2,31.6,12.7,31.1,13.3,31.1L13.3,31.1z"/>
<g>
	<path fill="#7542E5" d="M55.7,50.4h-45c-0.6,0-1.1,0.5-1.1,1.1s0.5,1.1,1.1,1.1h45c0.6,0,1.1-0.5,1.1-1.1S56.3,50.4,55.7,50.4z"/>
	<path fill="#7542E5" d="M55.7,54.7h-45c-0.6,0.1-1,0.6-1,1.2c0,0.5,0.5,0.9,1,1h45c0.6-0.1,1-0.6,1-1.2
		C56.6,55.1,56.2,54.7,55.7,54.7z"/>
	<path fill="#7542E5" d="M55.7,59h-45c-0.6,0-1.1,0.5-1.1,1.1s0.5,1.1,1.1,1.1h45c0.6,0,1.1-0.5,1.1-1.1C56.8,59.4,56.3,59,55.7,59z
		"/>
	<path fill="#7542E5" d="M55.7,63.2h-45c-0.6,0.1-1,0.6-1,1.2c0,0.5,0.5,0.9,1,1h45c0.6-0.1,1-0.6,1-1.2
		C56.6,63.7,56.2,63.3,55.7,63.2z"/>
	<path fill="#7542E5" d="M34.3,67.5H10.7c-0.6,0-1.1,0.5-1.1,1.1s0.5,1.1,1.1,1.1l0,0h23.6c0.6,0,1.1-0.5,1.1-1.1
		C35.3,68,34.9,67.5,34.3,67.5L34.3,67.5z"/>
	<path fill="#7542E5" d="M2.1,90h62.1c1.2,0,2.1-1,2.1-2.1v-75L53.6,0H2.1C0.9,0,0,1,0,2.1v85.7C0,89.1,0.9,90,2.1,90z M52.2,4.7
		l9.6,9.6h-7.6c-1.1,0-2-0.9-2-2V4.7z M4.3,4.3H50v8c0,2.3,1.9,4.1,4.2,4.1h8v69.3H4.3V4.3z"/>
	<path fill="#7542E5" d="M39.3,45c1.8,0,3.2-1.4,3.2-3.2V25.2c0-1.8-1.4-3.2-3.2-3.2H11.8c-1.8,0-3.2,1.4-3.2,3.2v16.6
		c0,1.8,1.4,3.2,3.2,3.2H39.3z M10.7,41.8V25.2c0-0.6,0.5-1.1,1.1-1.1h27.6c0.6,0,1.1,0.5,1.1,1.1v0.6H10.7v4.3h29.7v11.8
		c0,0.6-0.5,1.1-1.1,1.1H11.8C11.2,42.9,10.7,42.4,10.7,41.8z"/>
	<path fill="#7542E5" d="M13.3,33.2h14.6c0.6,0,1.1-0.5,1.1-1.1c0-0.6-0.5-1.1-1.1-1.1H13.3c-0.6,0-1.1,0.5-1.1,1.1
		C12.2,32.7,12.7,33.2,13.3,33.2L13.3,33.2z"/>
	<path fill="#7542E5" d="M30.9,33.2h1.2c0.6,0,1.1-0.5,1.1-1.1c0-0.6-0.5-1.1-1.1-1.1h-1.2c-0.6,0-1.1,0.5-1.1,1.1
		C29.8,32.8,30.3,33.2,30.9,33.2L30.9,33.2z"/>
	<path fill="#7542E5" d="M19.3,35.4h-5.9c-0.6,0-1.1,0.5-1.1,1.1v3.7c0,0.6,0.5,1.1,1,1.1l0,0h5.9c0.6,0,1.1-0.5,1.1-1l0,0v-3.7
		C20.3,35.9,19.9,35.4,19.3,35.4z M18.2,39.1h-3.7v-1.6h3.7V39.1z"/>
</g>
</svg>
