<?xml version="1.0" encoding="utf-8"?>
<!-- Generator: Adobe Illustrator 21.0.2, SVG Export Plug-In . SVG Version: 6.00 Build 0)  -->
<svg version="1.1" id="Layer_1" xmlns="http://www.w3.org/2000/svg" xmlns:xlink="http://www.w3.org/1999/xlink" x="0px" y="0px"
	 viewBox="0 0 66.3 90" enable-background="new 0 0 66.3 90" xml:space="preserve">
<path fill="none" d="M62.1,16.4h-7.9c-2.3,0-4.2-1.9-4.2-4.2l0,0v-8H4.3v81.4h57.9L62.1,16.4z M16.9,35.4c-2-0.2-6.2-0.8-6.2-5.4
	c-0.1-2.3,1.8-4.2,4.1-4.3c0.1,0,0.1,0,0.2,0c0-1.2,1-2.1,2.1-2.1c1.2,0,2.1,1,2.1,2.1h2.1c1.2-0.1,2.2,0.8,2.3,2s-0.8,2.2-2,2.3
	c-0.1,0-0.2,0-0.3,0h-6.4c0,0.7,0,0.8,2.4,1.1c2,0.2,6.2,0.8,6.2,5.3c0,2.3-1.8,4.2-4.1,4.3c-0.1,0-0.1,0-0.2,0c0,1.2-1,2.1-2.1,2.1
	s-2.1-1-2.1-2.1l0,0h-2.2c-1.2,0-2.1-1-2.1-2.1s1-2.1,2.1-2.1l0,0h6.4C19.3,35.8,19.3,35.6,16.9,35.4L16.9,35.4z M34.3,69.7H10.7
	c-0.6,0-1.1-0.5-1.1-1.1s0.5-1.1,1.1-1.1l0,0h23.6c0.6,0,1.1,0.5,1.1,1.1C35.3,69.2,34.9,69.7,34.3,69.7L34.3,69.7z M55.7,65.3h-45
	c-0.6-0.1-1-0.6-1-1.2c0-0.5,0.5-0.9,1-1h45c0.6,0.1,1,0.6,1,1.2C56.6,64.9,56.2,65.3,55.7,65.3z M55.7,61h-45
	c-0.6,0-1.1-0.5-1.1-1.1s0.5-1.1,1.1-1.1h45c0.6,0,1.1,0.5,1.1,1.1C56.8,60.6,56.3,61,55.7,61z M55.7,56.8h-45c-0.6-0.1-1-0.6-1-1.2
	c0-0.5,0.5-0.9,1-1h45c0.6,0.1,1,0.6,1,1.2C56.6,56.3,56.2,56.7,55.7,56.8z M55.7,52.5h-45c-0.6,0-1.1-0.5-1.1-1.1s0.5-1.1,1.1-1.1
	h45c0.6,0,1.1,0.5,1.1,1.1S56.3,52.5,55.7,52.5z"/>
<path fill="none" d="M54.2,14.2h7.6l-9.6-9.6v7.6C52.2,13.3,53.1,14.2,54.2,14.2L54.2,14.2z"/>
<g>
	<path fill="#7542E5" d="M55.7,50.3h-45c-0.6,0-1.1,0.5-1.1,1.1s0.5,1.1,1.1,1.1h45c0.6,0,1.1-0.5,1.1-1.1S56.3,50.3,55.7,50.3z"/>
	<path fill="#7542E5" d="M55.7,54.6h-45c-0.6,0.1-1,0.6-1,1.2c0,0.5,0.5,0.9,1,1h45c0.6-0.1,1-0.6,1-1.2
		C56.6,55.1,56.2,54.7,55.7,54.6z"/>
	<path fill="#7542E5" d="M55.7,58.9h-45c-0.6,0-1.1,0.5-1.1,1.1s0.5,1.1,1.1,1.1h45c0.6,0,1.1-0.5,1.1-1.1S56.3,58.9,55.7,58.9z"/>
	<path fill="#7542E5" d="M55.7,63.2h-45c-0.6,0.1-1,0.6-1,1.2c0,0.5,0.5,0.9,1,1h45c0.6-0.1,1-0.6,1-1.2
		C56.6,63.6,56.2,63.2,55.7,63.2z"/>
	<path fill="#7542E5" d="M34.3,67.5H10.7c-0.6,0-1.1,0.5-1.1,1.1s0.5,1.1,1.1,1.1l0,0h23.6c0.6,0,1.1-0.5,1.1-1.1
		C35.3,68,34.9,67.5,34.3,67.5L34.3,67.5z"/>
	<path fill="#7542E5" d="M2.1,90h62.1c1.2,0,2.1-1,2.1-2.1v-75L53.6,0H2.1C0.9,0,0,1,0,2.1v85.7C0,89,0.9,90,2.1,90z M52.2,4.6
		l9.6,9.6h-7.6c-1.1,0-2-0.9-2-2V4.6z M4.3,4.3H50v8c0,2.3,1.9,4.1,4.2,4.1h8v69.3H4.3V4.3z"/>
	<path fill="#7542E5" d="M10.7,38.5c0,1.2,1,2.1,2.1,2.1H15c0,1.2,1,2.1,2.1,2.1s2.1-1,2.1-2.1l0,0c2.3,0.1,4.2-1.8,4.3-4.1
		c0-0.1,0-0.1,0-0.2c0-4.6-4.2-5.1-6.2-5.3c-2.4-0.3-2.4-0.5-2.4-1.1h6.4c1.2,0.1,2.2-0.8,2.3-2s-0.8-2.2-2-2.3c-0.1,0-0.2,0-0.3,0
		h-2.1c0-1.2-1-2.1-2.1-2.1c-1.2,0-2.1,1-2.1,2.1c-2.3-0.1-4.2,1.8-4.3,4.1c0,0.1,0,0.1,0,0.2c0,4.6,4.2,5.1,6.2,5.4
		c2.4,0.3,2.4,0.4,2.4,1.1h-6.4C11.7,36.4,10.7,37.4,10.7,38.5z"/>
</g>
</svg>
