<?xml version="1.0" encoding="utf-8"?>
<!-- Generator: Adobe Illustrator 21.0.2, SVG Export Plug-In . SVG Version: 6.00 Build 0)  -->
<svg version="1.1" id="Layer_1" xmlns="http://www.w3.org/2000/svg" xmlns:xlink="http://www.w3.org/1999/xlink" x="0px" y="0px"
	 viewBox="0 0 66.3 90" enable-background="new 0 0 66.3 90" xml:space="preserve">
<path fill="none" d="M18.2,31c3.6,0,6.4-2.9,6.4-6.4s-2.9-6.4-6.4-6.4c-3.6,0-6.4,2.9-6.4,6.4C11.8,28.2,14.7,31,18.2,31z
	 M14.2,25.2c0.4-0.4,1.1-0.4,1.5,0l0,0l1,0.9l3.8-5.4c0.3-0.5,1-0.6,1.5-0.3c0.5,0.3,0.6,1,0.3,1.5l-4.6,6.4
	c-0.2,0.3-0.5,0.4-0.8,0.4h-0.1c-0.3,0-0.6-0.1-0.8-0.3l-1.8-1.7C13.8,26.3,13.8,25.7,14.2,25.2L14.2,25.2z"/>
<path fill="none" d="M62.1,16.4h-7.9c-2.3,0-4.2-1.9-4.2-4.2l0,0v-8H4.3v81.4h57.9L62.1,16.4z M39.4,31.5c0.3,0.5,0.2,1.1-0.2,1.5
	l-15,10.7c-0.3,0.2-0.7,0.3-1,0.1l-5.9-2l-6,4c-0.2,0.1-0.4,0.2-0.6,0.2c-0.6,0-1.1-0.4-1.1-1c0-0.4,0.2-0.8,0.5-1l6.4-4.3
	c0.3-0.2,0.6-0.2,0.9-0.1l5.9,2l14.6-10.4C38.4,30.9,39.1,31,39.4,31.5L39.4,31.5L39.4,31.5z M18.2,16c4.7,0,8.6,3.8,8.6,8.6
	s-3.8,8.6-8.6,8.6s-8.6-3.8-8.6-8.6C9.6,19.9,13.5,16,18.2,16z M34.3,69.6H10.7c-0.6,0-1.1-0.5-1.1-1.1s0.5-1.1,1.1-1.1l0,0h23.6
	c0.6,0,1.1,0.5,1.1,1.1C35.3,69.1,34.9,69.6,34.3,69.6L34.3,69.6z M55.7,65.3h-45c-0.6-0.1-1-0.6-1-1.2c0-0.5,0.5-0.9,1-1h45
	c0.6,0.1,1,0.6,1,1.2C56.6,64.9,56.2,65.3,55.7,65.3z M55.7,61h-45c-0.6,0-1.1-0.5-1.1-1.1s0.5-1.1,1.1-1.1h45
	c0.6,0,1.1,0.5,1.1,1.1C56.8,60.6,56.3,61,55.7,61z M55.7,56.8h-45c-0.6-0.1-1-0.6-1-1.2c0-0.5,0.5-0.9,1-1h45c0.6,0.1,1,0.6,1,1.2
	C56.6,56.3,56.2,56.7,55.7,56.8z M55.7,52.5h-45c-0.6,0-1.1-0.5-1.1-1.1s0.5-1.1,1.1-1.1h45c0.6,0,1.1,0.5,1.1,1.1
	S56.3,52.5,55.7,52.5z"/>
<path fill="none" d="M54.2,14.2h7.6l-9.6-9.6v7.6C52.2,13.3,53.1,14.2,54.2,14.2L54.2,14.2z"/>
<g>
	<path fill="#7542E5" d="M55.7,50.3h-45c-0.6,0-1.1,0.5-1.1,1.1s0.5,1.1,1.1,1.1h45c0.6,0,1.1-0.5,1.1-1.1S56.3,50.3,55.7,50.3z"/>
	<path fill="#7542E5" d="M55.7,54.6h-45c-0.6,0.1-1,0.6-1,1.2c0,0.5,0.5,0.9,1,1h45c0.6-0.1,1-0.6,1-1.2
		C56.6,55.1,56.2,54.7,55.7,54.6z"/>
	<path fill="#7542E5" d="M55.7,58.9h-45c-0.6,0-1.1,0.5-1.1,1.1s0.5,1.1,1.1,1.1h45c0.6,0,1.1-0.5,1.1-1.1S56.3,58.9,55.7,58.9z"/>
	<path fill="#7542E5" d="M55.7,63.2h-45c-0.6,0.1-1,0.6-1,1.2c0,0.5,0.5,0.9,1,1h45c0.6-0.1,1-0.6,1-1.2
		C56.6,63.6,56.2,63.2,55.7,63.2z"/>
	<path fill="#7542E5" d="M34.3,67.5H10.7c-0.6,0-1.1,0.5-1.1,1.1s0.5,1.1,1.1,1.1l0,0h23.6c0.6,0,1.1-0.5,1.1-1.1
		C35.3,67.9,34.9,67.5,34.3,67.5L34.3,67.5z"/>
	<path fill="#7542E5" d="M2.1,90h62.1c1.2,0,2.1-1,2.1-2.1v-75L53.6,0H2.1C0.9,0,0,1,0,2.1v85.7C0,89,0.9,90,2.1,90z M52.2,4.6
		l9.6,9.6h-7.6c-1.1,0-2-0.9-2-2V4.6z M4.3,4.3H50v8c0,2.3,1.9,4.1,4.2,4.1h8v69.3H4.3V4.3z"/>
	<path fill="#7542E5" d="M16.1,28.6c0.2,0.2,0.5,0.3,0.8,0.3H17c0.3,0,0.6-0.2,0.8-0.4l4.6-6.4c0.3-0.5,0.2-1.2-0.3-1.5
		s-1.2-0.2-1.5,0.3l-3.8,5.4l-1-0.9c-0.4-0.4-1.1-0.4-1.5,0l0,0c-0.4,0.4-0.4,1.1,0,1.5l0,0L16.1,28.6z"/>
	<path fill="#7542E5" d="M17.5,39.7c-0.3-0.1-0.7-0.1-1,0.1l-6.4,4.3c-0.5,0.3-0.7,0.9-0.4,1.5c0.2,0.4,0.6,0.6,1,0.5
		c0.2,0,0.4-0.1,0.6-0.2l6-4l5.9,2c0.3,0.1,0.7,0.1,1-0.1l15-10.8c0.5-0.3,0.6-1,0.2-1.5c-0.3-0.5-1-0.6-1.5-0.2L23.4,41.6
		L17.5,39.7z"/>
	<path fill="#7542E5" d="M18.2,33.2c4.7,0,8.6-3.8,8.6-8.6S23,16,18.2,16s-8.6,3.8-8.6,8.6S13.5,33.2,18.2,33.2L18.2,33.2z
		 M18.2,18.2c3.6,0,6.4,2.9,6.4,6.4S21.7,31,18.2,31s-6.4-2.9-6.4-6.4S14.7,18.2,18.2,18.2z"/>
</g>
</svg>
