<?xml version="1.0" encoding="utf-8"?>
<!-- Generator: Adobe Illustrator 21.0.2, SVG Export Plug-In . SVG Version: 6.00 Build 0)  -->
<svg version="1.1" id="Layer_1" xmlns="http://www.w3.org/2000/svg" xmlns:xlink="http://www.w3.org/1999/xlink" x="0px" y="0px"
	 viewBox="0 0 55.3 89.9" enable-background="new 0 0 55.3 89.9" xml:space="preserve">
<path fill="none" d="M22.2,34.8c0.1-3.1,2.7-5.5,5.8-5.4c2.9,0.1,5.2,2.5,5.4,5.4v2.3H35v-2.3c-0.1-4-3.5-7.1-7.5-7
	c-3.8,0.1-6.8,3.2-7,7v2.3h1.6L22.2,34.8z"/>
<path fill="none" d="M37.9,54.1V39H17.8v15.1H37.9z"/>
<path fill="none" d="M27.8,31.2c-2,0-3.6,1.6-3.6,3.5l0,0V37h7.1v-2.3C31.4,32.8,29.8,31.2,27.8,31.2z"/>
<path fill="none" d="M45.1,15.3H10.3v-2h34.8v-3.1H10.3v65.4h34.8C45.1,75.6,45.1,15.3,45.1,15.3z M17.4,37h1.1v-2.3
	c0-5.1,4.2-9.3,9.3-9.3s9.3,4.2,9.3,9.3V37h1.1c0.9,0,1.7,0.8,1.7,1.7v15.8c0,0.9-0.8,1.7-1.7,1.7H17.5c-0.9,0-1.7-0.8-1.7-1.7V38.7
	C15.8,37.8,16.5,37,17.4,37z M17.4,71.5c-1.7,0-3.1-1.4-3.1-3.1s1.4-3.1,3.1-3.1c1.7,0,3.1,1.4,3.1,3.1S19.1,71.5,17.4,71.5
	L17.4,71.5z M27.7,71.5c-1.7,0-3.1-1.4-3.1-3.1s1.4-3.1,3.1-3.1s3.1,1.4,3.1,3.1l0,0C30.7,70.1,29.4,71.5,27.7,71.5L27.7,71.5z
	 M37.9,71.5c-1.7,0-3.1-1.4-3.1-3.1s1.4-3.1,3.1-3.1s3.1,1.4,3.1,3.1l0,0C41,70.2,39.6,71.5,37.9,71.5L37.9,71.5z"/>
<path fill="none" d="M6.2,85.9h43c1.1,0,2-0.9,2-2V6.1c0-1.1-0.9-2-2-2h-43c-1.1,0-2,0.9-2,2v77.7C4.2,84.9,5.1,85.8,6.2,85.9z
	 M30.8,83.9h-6.1c-1.1,0-2-0.9-2-2s0.9-2,2-2h6.1c1.1,0,2,0.9,2,2S31.9,83.9,30.8,83.9z M8.3,10.2c0-1.1,0.9-2,2-2h34.8
	c1.1,0,2,0.9,2,2v65.4c0,1.1-0.9,2-2,2H10.3c-1.1,0-2-0.9-2-2V10.2z"/>
<g>
	<path fill="#7542E5" d="M6.2,89.9h43c3.4,0,6.1-2.8,6.1-6.1V6.1c0-3.4-2.8-6.1-6.2-6.1l0,0h-43C2.7,0,0,2.8,0,6.1v77.7
		C0.1,87.2,2.8,90,6.2,89.9L6.2,89.9z M4.2,6.1c0-1.1,0.9-2,2-2h43c1.1,0,2,0.9,2,2v77.7c0,1.1-0.9,2-2,2h-43c-1.1,0-2-0.9-2-2V6.1z
		"/>
	<path fill="#7542E5" d="M10.3,77.7h34.8c1.1,0,2-0.9,2-2V10.2c0-1.1-0.9-2-2-2H10.3c-1.1,0-2,0.9-2,2v65.4
		C8.3,76.7,9.2,77.7,10.3,77.7z M10.3,10.2h34.8v3.1H10.3v2h34.8v60.3H10.3V10.2z"/>
	<circle fill="#7542E5" cx="17.5" cy="68.5" r="3.1"/>
	<circle fill="#7542E5" cx="27.7" cy="68.5" r="3.1"/>
	<circle fill="#7542E5" cx="37.9" cy="68.5" r="3.1"/>
	<path fill="#7542E5" d="M30.8,79.7h-6.1c-1.1,0-2,0.9-2,2s0.9,2,2,2h6.1c1.1,0,2-0.9,2-2S31.9,79.7,30.8,79.7z"/>
	<path fill="#7542E5" d="M17.5,56.2h20.8c0.9,0,1.7-0.8,1.7-1.7V38.7c0-0.9-0.8-1.7-1.7-1.7h-1.2v-2.3c0-5.1-4.2-9.3-9.3-9.3
		c-5.1,0-9.3,4.2-9.3,9.3V37h-1.1c-0.9,0-1.7,0.8-1.7,1.7v15.8C15.7,55.4,16.5,56.2,17.5,56.2C17.4,56.2,17.5,56.2,17.5,56.2z
		 M20.6,34.8c0.1-4,3.5-7.1,7.5-7c3.8,0.1,6.8,3.2,7,7v2.3h-1.6v-2.3c-0.1-3.1-2.7-5.5-5.8-5.4c-2.9,0.1-5.2,2.5-5.4,5.4v2.3h-1.6
		L20.6,34.8z M31.4,37h-7.1v-2.3c0-2,1.6-3.6,3.6-3.6s3.6,1.6,3.6,3.6L31.4,37L31.4,37z M37.9,39v15.1H17.8V39H37.9z"/>
</g>
</svg>
