<?xml version="1.0" encoding="utf-8"?>
<!-- Generator: Adobe Illustrator 21.0.2, SVG Export Plug-In . SVG Version: 6.00 Build 0)  -->
<svg version="1.1" id="Layer_1" xmlns="http://www.w3.org/2000/svg" xmlns:xlink="http://www.w3.org/1999/xlink" x="0px" y="0px"
	 viewBox="0 0 62.1 78.6" enable-background="new 0 0 62.1 78.6" xml:space="preserve">
<g>
	<path fill="none" d="M3.8,72.1v2.8l54.6-0.1v-2.7C58.4,72.1,3.8,72.1,3.8,72.1z"/>
	<path fill="none" d="M17.1,23.1c0.2-7.7,6.6-13.7,14.3-13.5c7.4,0.2,13.3,6.1,13.5,13.5v6.7h5.9v-6.7c0-10.9-8.9-19.8-19.8-19.8
		s-19.8,8.9-19.8,19.8v6.7h5.9L17.1,23.1z"/>
	<path fill="none" d="M3.6,38.2l0.2,32h54.5l-0.2-32H3.6z M30.8,66.5c-6.9,0-12.4-5.6-12.4-12.4S24,41.7,30.8,41.7
		s12.4,5.6,12.4,12.4l0,0C43.2,60.9,37.7,66.5,30.8,66.5z"/>
	<path fill="none" d="M58.2,36.4v-2.7H3.6v2.7H58.2z"/>
	<path fill="none" d="M31,13c-5.6,0-10.2,4.5-10.2,10.1l0,0v6.7h20.3v-6.7C41.1,17.6,36.6,13,31,13z"/>
</g>
<path fill="#7542E5" d="M3.7,78.6h54.7c2,0,3.7-1.6,3.7-3.7L62,33.5c0-2-1.6-3.7-3.7-3.7h-3.8v-6.7c-0.3-13-11-23.3-24-23.1
	C17.9,0.3,7.7,10.5,7.4,23.1v6.7H3.6c-2,0-3.6,1.7-3.6,3.7l0.1,41.4C0.1,76.9,1.7,78.6,3.7,78.6z M3.8,74.9v-2.8h54.5v2.7L3.8,74.9z
	 M3.8,70.2l-0.2-32h54.5l0.2,32H3.8z M11.2,23.1C11.2,12.2,20,3.3,31,3.3s19.8,8.9,19.8,19.8v6.7h-5.9v-6.7
	c-0.2-7.7-6.6-13.7-14.3-13.5c-7.4,0.2-13.3,6.1-13.5,13.5v6.7h-5.9C11.2,29.8,11.2,23.1,11.2,23.1z M41.1,29.9H20.8v-6.8
	c0.2-5.6,4.9-10,10.5-9.8c5.4,0.2,9.7,4.5,9.8,9.8C41.1,23.1,41.1,29.9,41.1,29.9z M58.2,33.6v2.7H3.6v-2.7H58.2z"/>
<path fill="#7542E5" d="M30.8,41.6c-6.9,0-12.4,5.6-12.4,12.4S24,66.4,30.8,66.4S43.2,60.8,43.2,54l0,0
	C43.2,47.2,37.7,41.6,30.8,41.6z M20.3,54c0-5.8,4.7-10.5,10.5-10.5s10.6,4.7,10.6,10.6c0,5.8-4.7,10.5-10.6,10.5
	C25,64.6,20.3,59.9,20.3,54z"/>
<path fill="#7542E5" d="M34.9,50.8c0-2.3-1.8-4.1-4.1-4.1c-2.3,0-4.1,1.8-4.1,4.1c0,1.6,0.9,3,2.3,3.7l-2,4.2
	c-0.1,0.2-0.1,0.5,0,0.8c0.2,0.2,0.4,0.4,0.7,0.4h6c0.3,0,0.5-0.1,0.7-0.4c0.2-0.2,0.2-0.5,0.1-0.8l-1.9-4.2
	C34,53.8,34.9,52.4,34.9,50.8z"/>
</svg>
