<svg xmlns="http://www.w3.org/2000/svg" viewBox="0 0 62.1 78.6"><g fill="none"><path d="M3.8 72.1v2.8l54.6-.1v-2.7H3.8zM17.1 23.1c.2-7.7 6.6-13.7 14.3-13.5 7.4.2 13.3 6.1 13.5 13.5v6.7h5.9v-6.7c0-10.9-8.9-19.8-19.8-19.8s-19.8 8.9-19.8 19.8v6.7h5.9v-6.7zM3.6 38.2l.2 32h54.5l-.2-32H3.6zm27.2 28.3c-6.9 0-12.4-5.6-12.4-12.4S24 41.7 30.8 41.7s12.4 5.6 12.4 12.4c0 6.8-5.5 12.4-12.4 12.4zM58.2 36.4v-2.7H3.6v2.7h54.6z"/><path d="M31 13c-5.6 0-10.2 4.5-10.2 10.1v6.7h20.3v-6.7C41.1 17.6 36.6 13 31 13z"/></g><path fill="#7542E5" d="M3.7 78.6h54.7c2 0 3.7-1.6 3.7-3.7L62 33.5c0-2-1.6-3.7-3.7-3.7h-3.8v-6.7c-.3-13-11-23.3-24-23.1C17.9.3 7.7 10.5 7.4 23.1v6.7H3.6c-2 0-3.6 1.7-3.6 3.7l.1 41.4c0 2 1.6 3.7 3.6 3.7zm.1-3.7v-2.8h54.5v2.7l-54.5.1zm0-4.7l-.2-32h54.5l.2 32H3.8zm7.4-47.1C11.2 12.2 20 3.3 31 3.3s19.8 8.9 19.8 19.8v6.7h-5.9v-6.7c-.2-7.7-6.6-13.7-14.3-13.5-7.4.2-13.3 6.1-13.5 13.5v6.7h-5.9v-6.7zm29.9 6.8H20.8v-6.8c.2-5.6 4.9-10 10.5-9.8 5.4.2 9.7 4.5 9.8 9.8v6.8zm17.1 3.7v2.7H3.6v-2.7h54.6z"/><path fill="#7542E5" d="M30.8 41.6c-6.9 0-12.4 5.6-12.4 12.4S24 66.4 30.8 66.4 43.2 60.8 43.2 54c0-6.8-5.5-12.4-12.4-12.4zM20.3 54c0-5.8 4.7-10.5 10.5-10.5s10.6 4.7 10.6 10.6c0 5.8-4.7 10.5-10.6 10.5-5.8 0-10.5-4.7-10.5-10.6z"/><path fill="#7542E5" d="M34.9 50.8c0-2.3-1.8-4.1-4.1-4.1s-4.1 1.8-4.1 4.1c0 1.6.9 3 2.3 3.7l-2 4.2c-.1.2-.1.5 0 .8.2.2.4.4.7.4h6c.3 0 .5-.1.7-.4.2-.2.2-.5.1-.8l-1.9-4.2c1.4-.7 2.3-2.1 2.3-3.7z"/></svg>