<?xml version="1.0" encoding="utf-8"?>
<!-- Generator: Adobe Illustrator 21.0.2, SVG Export Plug-In . SVG Version: 6.00 Build 0)  -->
<svg version="1.1" id="Layer_1" xmlns="http://www.w3.org/2000/svg" xmlns:xlink="http://www.w3.org/1999/xlink" x="0px" y="0px"
	 viewBox="0 0 62.1 78.5" enable-background="new 0 0 62.1 78.5" xml:space="preserve">
<g>
	<path fill="none" d="M17.1,23c0.2-7.7,6.6-13.7,14.3-13.5c7.4,0.2,13.3,6.1,13.5,13.5v6.7h5.9V23c0-10.9-8.9-19.8-19.8-19.8
		S11.2,12.1,11.2,23v6.7h5.9L17.1,23z"/>
	<path fill="none" d="M58.4,70.1l-0.2-32H3.6l0.2,32H58.4z M41,51.5l1.1-1.8c0.1-0.2,0.4-0.3,0.7-0.2c0,0,0,0,0.1,0l2.4,1.8l-0.4-3
		c0-0.1,0-0.3,0.2-0.4c0.1-0.1,0.2-0.2,0.4-0.2h2.2c0.1,0,0.3,0.1,0.4,0.2c0.1,0.1,0.1,0.2,0.1,0.4l-0.4,3l2.4-1.8
		c0.1-0.1,0.3-0.1,0.4-0.1s0.3,0.1,0.3,0.2l1,1.9c0.1,0.1,0.1,0.3,0,0.4c-0.1,0.1-0.2,0.2-0.3,0.3l-2.8,1.2l2.8,1.2
		c0.1,0.1,0.2,0.2,0.3,0.3c0,0.1,0,0.3-0.1,0.4l-1.1,1.9c-0.1,0.1-0.2,0.2-0.3,0.2c-0.1,0-0.3,0-0.4-0.1l-2.4-1.8l0.4,3
		c0,0.1,0,0.3-0.1,0.4c-0.1,0.1-0.2,0.2-0.4,0.2h-2.1c-0.1,0-0.3-0.1-0.4-0.2c-0.1-0.1-0.1-0.3-0.1-0.4l0.4-3l-2.4,1.8
		c-0.1,0.1-0.3,0.1-0.4,0.1s-0.3-0.1-0.3-0.2l-1-1.9c-0.1-0.1-0.1-0.3,0-0.4c0-0.1,0.1-0.2,0.3-0.3l2.8-1.2l-2.8-1.2
		c-0.1-0.1-0.2-0.2-0.3-0.3C41,51.9,41,51.7,41,51.5z M26,51.5l1.1-1.8c0.1-0.1,0.2-0.2,0.3-0.2c0.1,0,0.3,0,0.4,0.1l2.4,1.8l-0.4-3
		c0-0.1,0-0.3,0.2-0.4c0.1-0.1,0.2-0.2,0.4-0.2h2.2c0.1,0,0.3,0.1,0.4,0.2c0.1,0.1,0.1,0.2,0.1,0.4l-0.4,3l2.3-1.8
		c0.1-0.1,0.3-0.1,0.4-0.1s0.3,0.1,0.3,0.2l1,1.9c0.1,0.1,0.1,0.3,0,0.4c-0.1,0.1-0.2,0.2-0.3,0.3l-2.8,1.2l2.8,1.2
		c0.3,0.1,0.4,0.4,0.3,0.6c0,0,0,0,0,0.1l-1,1.9c-0.1,0.1-0.2,0.2-0.3,0.2c-0.1,0-0.3,0-0.4-0.1l-2.4-1.8l0.4,3
		c0,0.3-0.2,0.5-0.4,0.6c0,0,0,0-0.1,0h-2.2c-0.3,0-0.5-0.2-0.5-0.5v-0.1l0.4-3l-2.4,1.8c-0.1,0.1-0.3,0.1-0.4,0.1s-0.3-0.1-0.3-0.2
		l-1-1.9c-0.1-0.1-0.1-0.3,0-0.4c0-0.1,0.1-0.2,0.3-0.3l2.7-1.2l-2.8-1.2c-0.1-0.1-0.2-0.2-0.3-0.3C25.9,51.8,25.9,51.7,26,51.5z
		 M11.6,49.7c0.1-0.1,0.2-0.2,0.3-0.2s0.3,0,0.4,0.1l2.4,1.8l-0.4-3c0-0.1,0-0.3,0.1-0.4c0.1-0.1,0.2-0.2,0.4-0.2H17
		c0.3,0,0.5,0.2,0.5,0.5c0,0,0,0,0,0.1l-0.4,3l2.4-1.8c0.1-0.1,0.3-0.1,0.4-0.1c0.1,0,0.3,0.1,0.3,0.2l1,1.9c0.1,0.1,0.1,0.3,0,0.4
		c-0.1,0.1-0.2,0.2-0.3,0.3l-2.8,1.2l2.8,1.2c0.1,0.1,0.2,0.2,0.3,0.3s0.1,0.3,0,0.4l-0.9,1.8c-0.1,0.1-0.2,0.2-0.3,0.2
		s-0.3,0-0.4-0.1l-2.4-1.8l0.4,3c0,0.1,0,0.3-0.1,0.4c-0.1,0.1-0.2,0.2-0.4,0.2h-2.2c-0.1,0-0.3-0.1-0.4-0.2
		c-0.1-0.1-0.1-0.3-0.1-0.4l0.4-3l-2.5,1.8c-0.1,0.1-0.3,0.1-0.4,0.1c-0.1,0-0.3-0.1-0.3-0.2l-1-1.9c-0.1-0.1-0.1-0.3,0-0.4
		c0-0.1,0.1-0.3,0.3-0.3l2.8-1.2l-2.9-1.2c-0.3-0.1-0.4-0.4-0.3-0.7c0,0,0,0,0-0.1L11.6,49.7z"/>
	<path fill="none" d="M3.8,72v2.8l54.6-0.1V72C58.4,72,3.8,72,3.8,72z"/>
	<path fill="none" d="M58.2,36.3v-2.7H3.6v2.7H58.2z"/>
	<path fill="none" d="M31,12.9c-5.6,0-10.2,4.5-10.2,10.1l0,0v6.7h20.3V23C41.1,17.5,36.6,12.9,31,12.9z"/>
</g>
<path fill="#7542E5" d="M58.3,29.8h-3.8v-6.7c-0.3-13-11-23.3-24-23.1C17.9,0.2,7.7,10.4,7.4,23v6.7H3.6c-2,0-3.6,1.7-3.6,3.7
	l0.1,41.4c0,2,1.6,3.7,3.7,3.7h54.6c2,0,3.7-1.6,3.7-3.7L62,33.4C61.9,31.4,60.3,29.8,58.3,29.8L58.3,29.8L58.3,29.8z M11.2,23
	C11.2,12.1,20,3.2,31,3.2S50.8,12.1,50.8,23v6.7h-5.9V23c-0.2-7.7-6.6-13.7-14.3-13.5C23.2,9.7,17.3,15.6,17.1,23v6.7h-5.9
	C11.2,29.7,11.2,23,11.2,23z M41.1,29.8H20.8v-6.7c0.2-5.6,4.9-10,10.5-9.8c5.4,0.2,9.7,4.5,9.8,9.8C41.1,23.1,41.1,29.8,41.1,29.8z
	 M58.2,33.5v2.7H3.6v-2.7H58.2z M58.2,38.1l0.2,32H3.8l-0.2-32H58.2z M3.8,74.8V72h54.5v2.7L3.8,74.8z"/>
<path fill="#7542E5" d="M10.8,52.3l2.8,1.2l-2.8,1.2c-0.1,0-0.2,0.2-0.3,0.3s-0.1,0.3,0,0.4l1,1.9c0.1,0.1,0.2,0.2,0.3,0.2
	s0.3,0,0.4-0.1l2.5-1.8l-0.4,3c0,0.1,0,0.3,0.1,0.4c0.1,0.1,0.2,0.2,0.4,0.2H17c0.1,0,0.3-0.1,0.4-0.2c0.1-0.1,0.1-0.3,0.1-0.4
	l-0.4-3l2.4,1.8c0.1,0.1,0.3,0.1,0.4,0.1c0.1,0,0.3-0.1,0.3-0.2l1.1-1.9c0.1-0.1,0.1-0.3,0-0.4c0-0.1-0.1-0.2-0.3-0.3l-2.8-1.2
	l2.8-1.2c0.1-0.1,0.2-0.2,0.3-0.3s0.1-0.3,0-0.4l-1-1.9c-0.1-0.1-0.2-0.2-0.3-0.2s-0.3,0-0.4,0.1l-2.4,1.8l0.4-3
	c0-0.3-0.2-0.5-0.4-0.6c0,0,0,0-0.1,0h-2.2c-0.1,0-0.3,0.1-0.4,0.2c-0.1,0.1-0.1,0.2-0.1,0.4l0.4,3l-2.4-1.8
	c-0.1-0.1-0.3-0.1-0.4-0.1c-0.1,0-0.3,0.1-0.3,0.2l-1.1,1.8C10.4,51.8,10.5,52.1,10.8,52.3C10.8,52.2,10.8,52.2,10.8,52.3L10.8,52.3
	z"/>
<path fill="#7542E5" d="M29,53.5l-2.8,1.2c-0.1,0.1-0.2,0.2-0.3,0.3c-0.1,0.1-0.1,0.3,0,0.4l1,1.9c0.1,0.1,0.2,0.2,0.3,0.2
	c0.1,0,0.3,0,0.4-0.1l2.4-1.8l-0.4,3c0,0.3,0.2,0.5,0.4,0.6c0,0,0,0,0.1,0h2.2c0.3,0,0.5-0.2,0.5-0.5v-0.1l-0.4-3l2.5,1.8
	c0.1,0.1,0.3,0.1,0.4,0.1s0.3-0.1,0.3-0.2l1.1-1.9c0.1-0.2,0.1-0.5-0.2-0.7c0,0,0,0-0.1,0l-2.8-1.2l2.8-1.2c0.1-0.1,0.2-0.2,0.3-0.3
	c0.1-0.1,0.1-0.3,0-0.4l-1-1.9c-0.1-0.1-0.2-0.2-0.3-0.2c-0.1,0-0.3,0-0.4,0.1l-2.6,1.8l0.4-3c0-0.1,0-0.3-0.1-0.4
	c-0.1-0.1-0.2-0.2-0.4-0.2h-2.2c-0.1,0-0.2,0.1-0.3,0.2c-0.1,0.1-0.1,0.2-0.1,0.4l0.4,3l-2.4-1.8c-0.1-0.1-0.3-0.1-0.4-0.1
	S27,49.6,27,49.7l-1,1.8c-0.1,0.1-0.1,0.3,0,0.4c0,0.1,0.1,0.2,0.3,0.3L29,53.5z"/>
<path fill="#7542E5" d="M44.1,53.5l-2.8,1.2c-0.1,0.1-0.2,0.2-0.3,0.3c-0.1,0.1-0.1,0.3,0,0.4l1,1.9c0.1,0.1,0.2,0.2,0.3,0.2
	c0.1,0,0.3,0,0.4-0.1l2.4-1.8l-0.4,3c0,0.1,0,0.3,0.1,0.4c0.1,0.1,0.2,0.2,0.4,0.2h2.2c0.1,0,0.3-0.1,0.4-0.2
	c0.1-0.1,0.1-0.3,0.1-0.4l-0.4-3l2.4,1.8c0.1,0.1,0.3,0.1,0.4,0.1s0.3-0.1,0.3-0.2l1.1-1.9c0.1-0.1,0.1-0.3,0.1-0.4
	c0-0.1-0.1-0.2-0.3-0.3l-2.8-1.2l2.8-1.2c0.1-0.1,0.2-0.2,0.3-0.3c0.1-0.1,0.1-0.3,0-0.4l-1-1.9c-0.1-0.1-0.2-0.2-0.3-0.2
	c-0.1,0-0.3,0-0.4,0.1l-2.4,1.8l0.4-3c0-0.1,0-0.3-0.1-0.4c-0.1-0.1-0.2-0.2-0.4-0.2h-2.2c-0.1,0-0.3,0.1-0.4,0.2
	c-0.1,0.1-0.1,0.2-0.1,0.4l0.4,3l-2.4-1.8c-0.2-0.2-0.5-0.1-0.7,0.1c0,0,0,0,0,0.1L41,51.5c-0.1,0.1-0.1,0.3,0,0.4
	c0,0.1,0.1,0.2,0.3,0.3L44.1,53.5z"/>
</svg>
