<?xml version="1.0" encoding="utf-8"?>
<!-- Generator: Adobe Illustrator 21.0.2, SVG Export Plug-In . SVG Version: 6.00 Build 0)  -->
<svg version="1.1" id="Layer_1" xmlns="http://www.w3.org/2000/svg" xmlns:xlink="http://www.w3.org/1999/xlink" x="0px" y="0px"
	 viewBox="0 0 106.9 64" enable-background="new 0 0 106.9 64" xml:space="preserve">
<path fill="none" d="M101.2,3.8h-79c-1,0-1.9,0.8-1.9,1.9v15c0,1,0.8,1.9,1.9,1.9h79c1,0,1.9-0.8,1.9-1.9v-15
	C103.1,4.6,102.2,3.8,101.2,3.8z M36.8,15.1L35.7,17c-0.1,0.1-0.2,0.2-0.3,0.2s-0.3,0-0.4-0.1l-2.4-1.8l0.4,3c0,0.1,0,0.3-0.1,0.4
	s-0.2,0.2-0.4,0.2h-2.2c-0.1,0-0.3-0.1-0.4-0.2c-0.1-0.1-0.1-0.2-0.1-0.4l0.4-3l-2.5,1.8c-0.1,0.1-0.3,0.1-0.4,0.1
	c-0.1,0-0.3-0.1-0.3-0.2l-1-1.9c-0.1-0.1-0.1-0.3,0-0.4s0.2-0.2,0.3-0.3l2.8-1.2L26.2,12c-0.3-0.1-0.4-0.4-0.3-0.7c0,0,0,0,0-0.1
	L27,9.4c0.1-0.1,0.2-0.2,0.3-0.2s0.3,0,0.4,0.1l2.4,1.8l-0.4-3c0-0.1,0-0.3,0.1-0.4c0.1-0.1,0.2-0.2,0.4-0.2h2.2
	c0.3,0,0.5,0.2,0.5,0.5c0,0,0,0,0,0.1l-0.4,3l2.4-1.8c0.2-0.2,0.5-0.1,0.7,0.1c0,0,0,0,0,0.1l1,1.9c0.1,0.1,0.1,0.3,0,0.4
	c0,0.1-0.1,0.3-0.3,0.3l-2.8,1.2l2.8,1.2c0.1,0.1,0.2,0.2,0.3,0.3C36.8,14.8,36.8,14.9,36.8,15.1L36.8,15.1z M52.2,15.1L51.1,17
	c-0.1,0.1-0.2,0.2-0.3,0.2c-0.1,0-0.3,0-0.4-0.1L48,15.3l0.4,3c0,0.1,0,0.3-0.1,0.4s-0.2,0.2-0.4,0.2h-2.2c-0.1,0-0.3-0.1-0.4-0.2
	s-0.1-0.2-0.1-0.4l0.4-3l-2.5,1.8c-0.1,0.1-0.3,0.1-0.4,0.1c-0.1,0-0.3-0.1-0.3-0.2l-1-1.9c-0.1-0.1-0.1-0.3,0-0.4
	c0-0.1,0.1-0.2,0.3-0.3l2.7-1.2L41.6,12c-0.1-0.1-0.2-0.2-0.3-0.3c-0.1-0.1-0.1-0.3,0-0.4l1.1-1.8c0.1-0.1,0.2-0.2,0.3-0.2
	s0.3,0,0.4,0.1l2.4,1.8l-0.4-3c0-0.3,0.2-0.5,0.4-0.6c0,0,0,0,0.1,0h2.2c0.3,0,0.5,0.2,0.5,0.5v0.1l-0.4,3l2.4-1.8
	c0.1-0.1,0.3-0.1,0.4-0.1S51,9.4,51,9.5l1,1.9c0.1,0.2,0.1,0.5-0.2,0.7c0,0,0,0-0.1,0l-2.8,1.2l2.8,1.2c0.1,0.1,0.2,0.2,0.3,0.3
	C52.2,14.8,52.3,14.9,52.2,15.1z M67.2,15.1L66.1,17c-0.1,0.1-0.2,0.2-0.3,0.2c-0.1,0-0.3,0-0.4-0.1L63,15.3l0.4,3
	c0,0.1,0,0.3-0.1,0.4s-0.2,0.2-0.4,0.2h-2.1c-0.1,0-0.3-0.1-0.4-0.2s-0.1-0.2-0.1-0.4l0.4-3l-2.5,1.8c-0.1,0.1-0.3,0.1-0.4,0.1
	s-0.3-0.1-0.3-0.2l-1-1.9c-0.1-0.1-0.1-0.3,0-0.4s0.2-0.2,0.3-0.3l2.8-1.2L56.7,12c-0.1-0.1-0.2-0.2-0.3-0.3c-0.1-0.1-0.1-0.3,0-0.4
	l1.1-1.8c0.1-0.1,0.2-0.2,0.3-0.2c0.1,0,0.3,0,0.4,0.1l2.4,1.8l-0.4-3c0-0.3,0.2-0.5,0.4-0.6c0,0,0,0,0.1,0h2.2
	c0.3,0,0.5,0.2,0.5,0.5c0,0,0,0,0,0.1l-0.4,3l2.4-1.8c0.1-0.1,0.3-0.1,0.4-0.1s0.3,0.1,0.3,0.2l1.1,1.9c0.1,0.1,0.1,0.3,0,0.4
	c0,0.1-0.1,0.2-0.3,0.3l-2.8,1.2l2.8,1.2c0.1,0.1,0.2,0.2,0.3,0.3C67.3,14.8,67.3,14.9,67.2,15.1L67.2,15.1z M82.2,15.1L81.1,17
	c-0.1,0.1-0.2,0.2-0.3,0.2c-0.1,0-0.3,0-0.4-0.1L78,15.3l0.4,3c0,0.1,0,0.3-0.1,0.4s-0.2,0.2-0.4,0.2h-2.1c-0.1,0-0.3-0.1-0.4-0.2
	s-0.1-0.2-0.1-0.4l0.4-3l-2.5,1.8c-0.1,0.1-0.3,0.1-0.4,0.1s-0.3-0.1-0.3-0.2l-1-1.9c-0.1-0.1-0.1-0.3,0-0.4s0.2-0.2,0.3-0.3
	l2.8-1.2L71.7,12c-0.1-0.1-0.2-0.2-0.3-0.3c-0.1-0.1-0.1-0.3,0-0.4l1.1-1.8c0.1-0.1,0.2-0.2,0.3-0.2c0.1,0,0.3,0,0.4,0.1l2.4,1.8
	l-0.4-3c0-0.1,0-0.3,0.1-0.4c0.1-0.1,0.2-0.2,0.4-0.2h2.2c0.3,0,0.5,0.2,0.5,0.5c0,0,0,0,0,0.1l-0.4,3l2.4-1.8
	c0.1-0.1,0.3-0.1,0.4-0.1s0.3,0.1,0.3,0.2l1,1.9c0.1,0.1,0.1,0.3,0,0.4c0,0.1-0.1,0.2-0.3,0.3L79,13.3l2.8,1.2
	c0.1,0.1,0.2,0.2,0.3,0.3C82.3,14.8,82.3,14.9,82.2,15.1L82.2,15.1z"/>
<path fill="none" d="M101.2,41.4h-79c-1,0-1.9,0.8-1.9,1.9v15c0,1,0.8,1.9,1.9,1.9h79c1,0,1.9-0.8,1.9-1.9v-15
	C103.1,42.3,102.2,41.4,101.2,41.4z M36.8,52.7l-1.1,1.9c-0.1,0.1-0.2,0.2-0.3,0.2s-0.3,0-0.4-0.1l-2.4-1.8l0.4,3
	c0,0.3-0.2,0.5-0.4,0.6c0,0,0,0-0.1,0h-2.2c-0.1,0-0.3-0.1-0.4-0.2c-0.1-0.1-0.1-0.3-0.1-0.4l0.4-3l-2.5,1.8
	c-0.1,0.1-0.3,0.1-0.4,0.1c-0.1,0-0.3-0.1-0.3-0.2l-1-1.9c-0.1-0.1-0.1-0.3,0-0.4c0-0.1,0.1-0.2,0.3-0.3l2.8-1.2l-2.8-1.2
	c-0.1-0.1-0.2-0.2-0.3-0.3s-0.1-0.3,0-0.4l1-1.9c0.1-0.1,0.2-0.2,0.3-0.2s0.3,0,0.4,0.1l2.4,1.8l-0.4-3c0-0.1,0-0.3,0.1-0.4
	c0.1-0.1,0.2-0.2,0.4-0.2h2.2c0.1,0,0.3,0.1,0.4,0.2c0.1,0.1,0.1,0.2,0.1,0.4l-0.4,3l2.4-1.8c0.1-0.1,0.3-0.1,0.4-0.1
	c0.1,0,0.3,0.1,0.3,0.2l1,1.9c0.1,0.2,0,0.6-0.2,0.7l0,0l-2.8,1.2l2.8,1.2c0.1,0.1,0.2,0.2,0.3,0.3C36.9,52.4,36.9,52.6,36.8,52.7z
	 M52.2,52.7l-1.1,1.9c-0.1,0.1-0.2,0.2-0.3,0.2c-0.1,0-0.3,0-0.4-0.1L48,52.9l0.4,3c0,0.3-0.2,0.5-0.4,0.6c0,0,0,0-0.1,0h-2.2
	c-0.3,0-0.5-0.2-0.5-0.5c0,0,0,0,0-0.1l0.4-3l-2.5,1.8c-0.1,0.1-0.3,0.1-0.4,0.1c-0.1,0-0.3-0.1-0.3-0.2l-1-1.9
	c-0.1-0.1-0.1-0.3,0-0.4c0-0.1,0.1-0.2,0.3-0.3l2.7-1.2l-2.8-1.2c-0.1-0.1-0.2-0.2-0.3-0.3s-0.1-0.3,0-0.4l1.2-1.9
	c0.1-0.1,0.2-0.2,0.3-0.2s0.3,0,0.4,0.1l2.4,1.8l-0.4-3c0-0.1,0-0.3,0.1-0.4c0.1-0.1,0.2-0.2,0.4-0.2h2.2c0.1,0,0.3,0.1,0.4,0.2
	c0.1,0.1,0.1,0.2,0.1,0.4l-0.4,3l2.4-1.8c0.1-0.1,0.3-0.1,0.4-0.1s0.3,0.1,0.3,0.2l1,1.9c0.1,0.1,0.1,0.3,0,0.4
	c0,0.1-0.1,0.2-0.3,0.3L49,50.8l2.9,1.2c0.1,0.1,0.2,0.2,0.3,0.3C52.3,52.4,52.3,52.6,52.2,52.7z M67.2,52.7l-1.1,1.9
	c-0.1,0.1-0.2,0.2-0.3,0.2c-0.1,0-0.3,0-0.4-0.1L63,52.9l0.4,3c0,0.3-0.2,0.5-0.4,0.6c0,0,0,0-0.1,0h-2.1c-0.3,0-0.5-0.2-0.5-0.5
	c0,0,0,0,0-0.1l0.4-3l-2.5,1.8c-0.1,0.1-0.3,0.1-0.4,0.1s-0.3-0.1-0.3-0.2l-1-1.9c-0.1-0.1-0.1-0.3,0-0.4c0-0.1,0.1-0.2,0.3-0.3
	l2.8-1.2l-2.8-1.2c-0.1-0.1-0.2-0.2-0.3-0.3c-0.1-0.1-0.1-0.3,0-0.4l1-1.9c0.1-0.1,0.2-0.2,0.3-0.2c0.1,0,0.3,0,0.4,0.1l2.4,1.8
	l-0.4-3c0-0.1,0-0.3,0.1-0.4c0.1-0.1,0.2-0.2,0.4-0.2h2.2c0.1,0,0.3,0.1,0.4,0.2c0.1,0.1,0.1,0.2,0.1,0.4l-0.4,3l2.4-1.8
	c0.1-0.1,0.3-0.1,0.4-0.1s0.3,0.1,0.3,0.2l1.1,1.9c0.1,0.1,0.1,0.3,0,0.4c0,0.1-0.1,0.2-0.3,0.3l-2.8,1.2l2.8,1.2
	c0.1,0,0.2,0.2,0.3,0.3C67.3,52.4,67.3,52.6,67.2,52.7L67.2,52.7z M82.2,52.7l-1.1,1.9c-0.1,0.1-0.2,0.2-0.3,0.2
	c-0.1,0-0.3,0-0.4-0.1L78,52.9l0.4,3c0,0.3-0.2,0.5-0.4,0.6c0,0,0,0-0.1,0h-2.1c-0.1,0-0.3-0.1-0.4-0.2s-0.1-0.3-0.1-0.4l0.4-3
	l-2.5,1.8c-0.1,0.1-0.3,0.1-0.4,0.1s-0.3-0.1-0.3-0.2l-1-1.9c-0.1-0.1-0.1-0.3,0-0.4c0-0.1,0.1-0.2,0.3-0.3l2.8-1.2l-2.8-1.2
	c-0.1-0.1-0.2-0.2-0.3-0.3c-0.1-0.1-0.1-0.3,0-0.4l1-1.9c0.1-0.1,0.2-0.2,0.3-0.2c0.1,0,0.3,0,0.4,0.1l2.4,1.8l-0.4-3
	c0-0.1,0-0.3,0.1-0.4c0.1-0.1,0.2-0.2,0.4-0.2h2.2c0.1,0,0.3,0.1,0.4,0.2c0.1,0.1,0.1,0.2,0.1,0.4l-0.4,3l2.4-1.8
	c0.1-0.1,0.3-0.1,0.4-0.1s0.3,0.1,0.3,0.2l1,1.9c0.1,0.1,0.1,0.3,0,0.4c0,0.1-0.1,0.2-0.3,0.3L79,50.8l2.9,1.2
	c0.1,0,0.2,0.2,0.3,0.3C82.2,52.4,82.2,52.6,82.2,52.7C82.2,52.7,82.2,52.7,82.2,52.7z M97.2,52.7l-1.1,1.9
	c-0.1,0.1-0.2,0.2-0.3,0.2c-0.1,0-0.3,0-0.4-0.1L93,52.9l0.4,3c0,0.3-0.2,0.5-0.4,0.6c0,0,0,0-0.1,0h-2.2c-0.1,0-0.3-0.1-0.4-0.2
	s-0.1-0.3-0.1-0.4l0.4-3l-2.5,1.8c-0.1,0.1-0.3,0.1-0.4,0.1s-0.3-0.1-0.3-0.2l-1-1.9c-0.1-0.1-0.1-0.3,0-0.4c0-0.1,0.1-0.2,0.3-0.3
	l2.8-1.2l-2.8-1.2c-0.1-0.1-0.2-0.2-0.3-0.3c-0.1-0.1-0.1-0.3,0-0.4l1.2-1.9c0.1-0.1,0.2-0.2,0.3-0.2c0.1,0,0.3,0,0.4,0.1l2.4,1.8
	l-0.4-3c0-0.1,0-0.3,0.1-0.4c0.1-0.1,0.2-0.2,0.4-0.2H93c0.1,0,0.3,0.1,0.4,0.2c0.1,0.1,0.1,0.2,0.1,0.4l-0.4,3l2.4-1.8
	c0.1-0.1,0.3-0.1,0.4-0.1s0.3,0.1,0.3,0.2l1,1.9c0.1,0.1,0.1,0.3,0,0.4c0,0.1-0.1,0.2-0.3,0.3l-2.8,1.2L97,52c0.1,0,0.2,0.2,0.3,0.3
	C97.4,52.4,97.4,52.6,97.2,52.7C97.3,52.7,97.2,52.7,97.2,52.7z"/>
<g>
	<path fill="#7542E5" d="M5.4,3.8c-2.2-0.1-4.2,1-5.3,2.9C0,6.9,0,7.1,0.1,7.3c0.1,0.2,0.2,0.4,0.4,0.5l0.9,0.4
		c0.4,0.1,0.7,0,0.9-0.3c0.6-1.1,1.8-1.8,3-1.8c1.8,0,3,1,3,2.5s-0.8,2-1.7,2.8c-1.8,1.2-2.9,3.3-2.8,5.5c0,0.2,0.1,0.4,0.2,0.5
		s0.3,0.2,0.5,0.2h0.9c0.4,0,0.7-0.3,0.8-0.7c0.1-2.2,1.2-3,2.3-4c1.5-0.9,2.4-2.5,2.4-4.3C10.9,5.7,8.6,3.8,5.4,3.8z"/>
	<path fill="#7542E5" d="M6.8,20.7c0-1-0.8-1.8-1.8-1.8s-1.8,0.8-1.8,1.8l0,0c0,1,0.8,1.8,1.8,1.8C6,22.6,6.8,21.7,6.8,20.7
		L6.8,20.7z"/>
	<path fill="#7542E5" d="M101.2,0h-79c-3.1,0-5.6,2.5-5.6,5.6v15.1c0,3.1,2.5,5.6,5.6,5.7h79c3.1,0,5.6-2.5,5.7-5.7v-15
		C106.8,2.5,104.3,0,101.2,0z M103.1,20.7c0,1-0.8,1.9-1.9,1.9h-79c-1,0-1.9-0.8-1.9-1.9v-15c0-1,0.8-1.9,1.9-1.9h79
		c1,0,1.9,0.8,1.9,1.9V20.7z"/>
	<path fill="#7542E5" d="M33.8,13.2l2.8-1.2c0.1,0,0.2-0.2,0.3-0.3c0.1-0.1,0.1-0.3,0-0.4l-1-1.9c-0.1-0.2-0.4-0.3-0.7-0.2
		c0,0,0,0-0.1,0L32.6,11L33,8c0-0.3-0.2-0.5-0.4-0.6c0,0,0,0-0.1,0h-2.2c-0.1,0-0.3,0.1-0.4,0.2c-0.1,0.1-0.1,0.3-0.1,0.4l0.4,3
		l-2.4-1.8c-0.1-0.1-0.3-0.1-0.4-0.1c-0.1,0-0.3,0.1-0.3,0.2L26,11.1c-0.1,0.2-0.1,0.5,0.2,0.7c0,0,0,0,0.1,0l2.8,1.2l-2.8,1.2
		c-0.1,0.1-0.2,0.2-0.3,0.3c-0.1,0.1-0.1,0.3,0,0.4l1,1.9c0.1,0.1,0.2,0.2,0.3,0.2s0.3,0,0.4-0.1l2.5-1.8l-0.4,3
		c0,0.1,0,0.3,0.1,0.4s0.2,0.2,0.4,0.2h2.1c0.1,0,0.3-0.1,0.4-0.2c0.1-0.1,0.1-0.2,0.1-0.4l-0.4-3l2.4,1.8C35,17,35.2,17,35.3,17
		c0.1,0,0.3-0.1,0.3-0.2l1.1-1.9c0.1-0.1,0.1-0.3,0-0.4c0-0.1-0.2-0.3-0.3-0.3L33.8,13.2z"/>
	<path fill="#7542E5" d="M49.2,13.2L52,12c0.3-0.1,0.4-0.4,0.3-0.7c0,0,0,0,0-0.1l-1-1.9c-0.1-0.1-0.2-0.2-0.3-0.2
		c-0.1,0-0.3,0-0.4,0.1L48.2,11l0.4-3c0-0.3-0.2-0.5-0.4-0.6c0,0,0,0-0.1,0h-2.2c-0.3,0-0.5,0.2-0.5,0.5c0,0,0,0,0,0.1l0.4,3
		l-2.4-1.8c-0.1-0.1-0.3-0.1-0.4-0.1c-0.1,0-0.3,0.1-0.3,0.2l-1.3,1.9c-0.1,0.1-0.1,0.3,0,0.4c0,0.1,0.1,0.2,0.3,0.3l2.7,1.2
		l-2.8,1.2c-0.1,0.1-0.2,0.2-0.3,0.3c-0.1,0.1-0.1,0.3,0,0.4l1,1.9c0.1,0.1,0.2,0.2,0.3,0.2s0.3,0,0.4-0.1l2.5-1.8l-0.4,3
		c0,0.1,0,0.3,0.1,0.4s0.2,0.2,0.4,0.2h2.2c0.1,0,0.3-0.1,0.4-0.2s0.1-0.2,0.1-0.4l-0.4-3l2.5,1.8c0.1,0.1,0.3,0.1,0.4,0.1
		s0.3-0.1,0.3-0.2l1.1-1.9c0.1-0.1,0.1-0.3,0-0.4c0-0.1-0.1-0.3-0.3-0.3L49.2,13.2z"/>
	<path fill="#7542E5" d="M64.2,13.2L67,12c0.1-0.1,0.2-0.2,0.3-0.3c0.1-0.1,0.1-0.3,0-0.4l-1.1-1.9c-0.1-0.1-0.2-0.2-0.3-0.2
		c-0.1,0-0.3,0-0.4,0.1l-2.4,1.8l0.4-3c0-0.3-0.2-0.5-0.4-0.6c0,0,0,0-0.1,0h-2.2c-0.3,0-0.5,0.2-0.5,0.5c0,0,0,0,0,0.1l0.4,3
		l-2.4-1.8c-0.1-0.1-0.3-0.1-0.4-0.1s-0.3,0.1-0.3,0.2l-1.2,1.8c-0.1,0.1-0.1,0.3,0,0.4c0,0.1,0.1,0.2,0.3,0.3l2.8,1.2l-2.8,1.2
		c-0.1,0.1-0.2,0.2-0.3,0.3c-0.1,0.1-0.1,0.3,0,0.4l1,1.9c0.1,0.1,0.2,0.2,0.3,0.2c0.1,0,0.3,0,0.4-0.1l2.5-1.8l-0.4,3
		c0,0.1,0,0.3,0.1,0.4s0.2,0.2,0.4,0.2h2.2c0.1,0,0.3-0.1,0.4-0.2s0.1-0.2,0.1-0.4l-0.4-3l2.4,1.8c0.1,0.1,0.3,0.1,0.4,0.1
		s0.3-0.1,0.3-0.2l1.1-1.9c0.1-0.1,0.1-0.3,0-0.4c0-0.1-0.1-0.3-0.3-0.3L64.2,13.2z"/>
	<path fill="#7542E5" d="M79.3,13.2l2.8-1.2c0.1-0.1,0.2-0.2,0.3-0.3c0.1-0.1,0.1-0.3,0-0.4l-1-1.9c-0.1-0.1-0.2-0.2-0.3-0.2
		c-0.1,0-0.3,0-0.4,0.1l-2.4,1.8l0.4-3c0-0.3-0.2-0.5-0.4-0.6c0,0,0,0-0.1,0H76c-0.1,0-0.3,0.1-0.4,0.2c-0.1,0.1-0.1,0.3-0.1,0.4
		l0.4,3l-2.4-1.8c-0.1-0.1-0.3-0.1-0.4-0.1s-0.3,0.1-0.3,0.2l-1.1,1.8c-0.1,0.1-0.1,0.3,0,0.4c0,0.1,0.1,0.2,0.3,0.3l2.8,1.2
		L72,14.3c-0.1,0.1-0.2,0.2-0.3,0.3c-0.1,0.1-0.1,0.3,0,0.4l1,1.9c0.1,0.1,0.2,0.2,0.3,0.2c0.1,0,0.3,0,0.4-0.1l2.5-1.8l-0.4,3
		c0,0.1,0,0.3,0.1,0.4s0.2,0.2,0.4,0.2h2.2c0.1,0,0.3-0.1,0.4-0.2s0.1-0.2,0.1-0.4l-0.4-3l2.1,1.8c0.1,0.1,0.3,0.1,0.4,0.1
		s0.3-0.1,0.3-0.2l1.1-1.9c0.1-0.1,0.1-0.3,0-0.4c0-0.1-0.1-0.3-0.3-0.3L79.3,13.2z"/>
	<path fill="#7542E5" d="M101.2,37.6h-79c-3.1,0-5.6,2.5-5.6,5.7v15c0,3.1,2.5,5.7,5.6,5.7l0,0h79c3.1,0,5.6-2.5,5.7-5.6v-15
		C106.9,40.2,104.4,37.7,101.2,37.6L101.2,37.6z M103.1,58.3c0,1-0.8,1.9-1.9,1.9h-79c-1,0-1.9-0.8-1.9-1.9v-15c0-1,0.8-1.9,1.9-1.9
		h79c1,0,1.9,0.8,1.9,1.9V58.3z"/>
	<path fill="#7542E5" d="M33.8,50.8l2.8-1.2c0.3-0.1,0.4-0.4,0.3-0.7l0,0l-1-1.9c-0.1-0.1-0.2-0.2-0.3-0.2s-0.3,0-0.4,0.1l-2.5,1.8
		l0.4-3c0-0.1,0-0.3-0.1-0.4c-0.1-0.1-0.2-0.2-0.4-0.2h-2.2c-0.1,0-0.3,0.1-0.4,0.2c-0.1,0.1-0.1,0.2-0.1,0.4l0.4,3l-2.4-1.8
		c-0.1-0.1-0.3-0.1-0.4-0.1c-0.1,0-0.3,0.1-0.3,0.2l-1.1,1.8c-0.1,0.1-0.1,0.3,0,0.4c0,0.1,0.1,0.3,0.3,0.3l2.8,1.2l-3,1.3
		c-0.1,0.1-0.2,0.2-0.3,0.3s-0.1,0.3,0,0.4l1,1.9c0.1,0.1,0.2,0.2,0.3,0.2s0.3,0,0.4-0.1l2.5-1.8l-0.4,3c0,0.1,0,0.3,0.1,0.4
		s0.2,0.2,0.4,0.2h2.2c0.3,0,0.5-0.2,0.5-0.5c0,0,0,0,0-0.1l-0.4-3l2.4,1.8c0.1,0.1,0.3,0.1,0.4,0.1c0.1,0,0.3-0.1,0.3-0.2l1.1-1.9
		c0.1-0.1,0.1-0.3,0-0.4c0-0.1-0.2-0.2-0.3-0.3L33.8,50.8z"/>
	<path fill="#7542E5" d="M49.2,50.8l2.8-1.2c0.1-0.1,0.2-0.2,0.3-0.3c0.1-0.1,0.1-0.3,0-0.4l-1-1.9c-0.1-0.1-0.2-0.2-0.3-0.2
		c-0.1,0-0.3,0-0.4,0.1l-2.4,1.8l0.4-3c0-0.1,0-0.3-0.1-0.4c-0.1-0.1-0.2-0.2-0.4-0.2h-2.2c-0.1,0-0.3,0.1-0.4,0.2
		c-0.1,0.1-0.1,0.2-0.1,0.4l0.4,3l-2.4-1.8c-0.1-0.1-0.3-0.1-0.4-0.1c-0.1,0-0.3,0.1-0.3,0.2l-1.3,1.9c-0.1,0.1-0.1,0.3,0,0.4
		c0,0.1,0.1,0.3,0.3,0.3l2.7,1.2L41.6,52c-0.1,0.1-0.2,0.2-0.3,0.3s-0.1,0.3,0,0.4l1,1.9c0.1,0.1,0.2,0.2,0.3,0.2s0.3,0,0.4-0.1
		l2.5-1.8l-0.4,3c0,0.3,0.2,0.5,0.4,0.6c0,0,0,0,0.1,0h2.2c0.3,0,0.5-0.2,0.5-0.5v-0.1l-0.4-3l2.5,1.8c0.1,0.1,0.3,0.1,0.4,0.1
		s0.3-0.1,0.3-0.2l1.1-1.9c0.1-0.1,0.1-0.3,0-0.4c0-0.1-0.1-0.2-0.3-0.3L49.2,50.8z"/>
	<path fill="#7542E5" d="M64.2,50.8l2.8-1.2c0.1-0.1,0.2-0.2,0.3-0.3c0.1-0.1,0.1-0.3,0-0.4L66.2,47c-0.1-0.1-0.2-0.2-0.3-0.2
		c-0.1,0-0.3,0-0.4,0.1l-2.4,1.8l0.4-3c0-0.1,0-0.3-0.1-0.4c-0.1-0.1-0.2-0.2-0.4-0.2h-2.2c-0.1,0-0.3,0.1-0.4,0.2
		c-0.1,0.1-0.1,0.2-0.1,0.4l0.4,3l-2.4-1.8c-0.1-0.1-0.3-0.1-0.4-0.1s-0.3,0.1-0.3,0.2l-1.2,1.9c-0.1,0.1-0.1,0.3,0,0.4
		c0,0.1,0.1,0.3,0.3,0.3l2.8,1.2L56.7,52c-0.1,0.1-0.2,0.2-0.3,0.3c-0.1,0.1-0.1,0.3,0,0.4l1,1.9c0.1,0.1,0.2,0.2,0.3,0.2
		c0.1,0,0.3,0,0.4-0.1l2.5-1.8l-0.4,3c0,0.3,0.2,0.5,0.4,0.6c0,0,0,0,0.1,0h2.2c0.3,0,0.5-0.2,0.5-0.5c0,0,0,0,0-0.1l-0.4-3l2.4,1.8
		c0.1,0.1,0.3,0.1,0.4,0.1s0.3-0.1,0.3-0.2l1.1-1.9c0.1-0.1,0.1-0.3,0-0.4c0-0.1-0.1-0.3-0.3-0.3L64.2,50.8z"/>
	<path fill="#7542E5" d="M79.3,50.8l2.8-1.2c0.1-0.1,0.2-0.2,0.3-0.3c0.1-0.1,0.1-0.3,0-0.4l-1-1.9c-0.1-0.1-0.2-0.2-0.3-0.2
		c-0.1,0-0.3,0-0.4,0.1l-2.4,1.8l0.4-3c0-0.1,0-0.3-0.1-0.4c-0.1-0.1-0.2-0.2-0.4-0.2H76c-0.1,0-0.3,0.1-0.4,0.2
		c-0.1,0.1-0.1,0.2-0.1,0.4l0.4,3l-2.4-1.8c-0.1-0.1-0.3-0.1-0.4-0.1s-0.3,0.1-0.3,0.2l-1.1,1.8c-0.1,0.1-0.1,0.3,0,0.4
		c0,0.1,0.1,0.3,0.3,0.3l2.8,1.2L71.7,52c-0.1,0.1-0.2,0.2-0.3,0.3c-0.1,0.1-0.1,0.3,0,0.4l1,1.9c0.1,0.1,0.2,0.2,0.3,0.2
		c0.1,0,0.3,0,0.4-0.1l2.5-1.8l-0.4,3c0,0.1,0,0.3,0.1,0.4s0.2,0.2,0.4,0.2h2.2c0.3,0,0.5-0.2,0.5-0.5c0,0,0,0,0-0.1l-0.4-3l2.4,1.8
		c0.1,0.1,0.3,0.1,0.4,0.1s0.3-0.1,0.3-0.2l1.1-1.9c0.1-0.1,0.1-0.3,0-0.4c0-0.1-0.1-0.3-0.3-0.3L79.3,50.8z"/>
	<path fill="#7542E5" d="M94.3,50.8l2.8-1.2c0.1-0.1,0.2-0.2,0.3-0.3c0.1-0.1,0.1-0.3,0-0.4l-1-1.9c-0.1-0.1-0.2-0.2-0.3-0.2
		c-0.1,0-0.3,0-0.4,0.1l-2.4,1.8l0.4-3c0-0.1,0-0.3-0.1-0.4c-0.1-0.1-0.2-0.2-0.4-0.2H91c-0.1,0-0.3,0.1-0.4,0.2
		c-0.1,0.1-0.1,0.2-0.1,0.4l0.4,3l-2.4-1.8c-0.1-0.1-0.3-0.1-0.4-0.1s-0.3,0.1-0.3,0.2l-1.1,1.8c-0.1,0.1-0.1,0.3,0,0.4
		c0,0.1,0.1,0.3,0.3,0.3l2.8,1.2l-2.9,1.2c-0.1,0.1-0.2,0.2-0.3,0.3c-0.1,0.1-0.1,0.3,0,0.4l1,1.9c0.1,0.1,0.2,0.2,0.3,0.2
		c0.1,0,0.3,0,0.4-0.1l2.5-1.8l-0.4,3c0,0.1,0,0.3,0.1,0.4s0.2,0.2,0.4,0.2h2.2c0.3,0,0.5-0.2,0.5-0.5c0,0,0,0,0-0.1l-0.4-3l2.4,1.8
		c0.1,0.1,0.3,0.1,0.4,0.1s0.3-0.1,0.3-0.2l1.2-1.9c0.1-0.1,0.1-0.3,0-0.4c0-0.1-0.1-0.3-0.3-0.3L94.3,50.8z"/>
	<path fill="#7542E5" d="M5.4,41.4c-2.2-0.1-4.2,1-5.3,2.9c-0.1,0.2-0.1,0.4,0,0.6c0.1,0.2,0.2,0.4,0.4,0.4l0.9,0.4
		c0.3,0.1,0.7,0,0.9-0.3c0.6-1.1,1.8-1.8,3-1.8c1.8,0,3,1.1,3,2.5s-0.8,2-1.7,2.8c-1.8,1.2-2.9,3.3-2.8,5.5c0,0.2,0.1,0.4,0.2,0.6
		c0.1,0.1,0.3,0.2,0.5,0.2h0.9c0.4,0,0.7-0.3,0.8-0.7c0.1-2.2,1.2-3,2.3-4c1.5-0.9,2.4-2.5,2.4-4.3C10.9,43.4,8.6,41.4,5.4,41.4z"/>
	<path fill="#7542E5" d="M5,56.5c-1,0-1.9,0.8-1.9,1.8s0.8,1.9,1.8,1.9s1.9-0.8,1.9-1.8c0,0,0,0,0-0.1C6.8,57.4,6,56.6,5,56.5
		L5,56.5z"/>
</g>
</svg>
