<?xml version="1.0" encoding="utf-8"?>
<!-- Generator: Adobe Illustrator 21.0.2, SVG Export Plug-In . SVG Version: 6.00 Build 0)  -->
<svg version="1.1" id="Layer_1" xmlns="http://www.w3.org/2000/svg" xmlns:xlink="http://www.w3.org/1999/xlink" x="0px" y="0px"
	 viewBox="0 0 95.8 72.7" enable-background="new 0 0 95.8 72.7" xml:space="preserve">
<path fill="none" d="M50,25.9c0.6-1.9,1.6-3.6,2.9-5.1c1.5-1.3,3.2-2.3,5.1-2.8c-1.9-0.6-3.6-1.6-5.1-2.9c-1.3-1.5-2.3-3.2-2.9-5.1
	c-0.6,1.9-1.6,3.6-2.9,5.1c-1.5,1.3-3.2,2.3-5.1,2.9c1.9,0.6,3.6,1.6,5.1,2.8C48.4,22.3,49.4,24,50,25.9z"/>
<path fill="none" d="M34.1,8c0.2-0.4,0.4-0.8,0.7-1.1s0.7-0.6,1.1-0.7c-0.8-0.3-1.5-1-1.8-1.8c-0.2,0.4-0.4,0.8-0.7,1.1
	s-0.7,0.6-1.1,0.7C33.1,6.5,33.7,7.2,34.1,8z"/>
<path fill="none" d="M31.6,32.8c0.2-0.3,0.4-0.6,0.6-0.8c0.3-0.2,0.5-0.5,0.8-0.6c-0.3-0.2-0.6-0.4-0.8-0.6
	c-0.2-0.2-0.5-0.5-0.6-0.8c-0.2,0.3-0.4,0.6-0.6,0.8c-0.2,0.2-0.5,0.5-0.8,0.6c0.3,0.2,0.6,0.4,0.8,0.6
	C31.2,32.2,31.4,32.5,31.6,32.8z"/>
<path fill="none" d="M57.9,56.3h2.5l1,2.3c3.5,8.1,12.8,11.9,21,8.5c8.1-3.5,11.9-12.8,8.5-21c-3.5-8.1-12.8-11.9-21-8.5
	c-4.3,1.8-7.6,5.4-9,9.9l-0.8,2.6h-2.8v6.2H57.9z M76.1,40.3c6.7,0,12.1,5.4,12.1,12.1s-5.4,12.1-12.1,12.1S64,59.1,64,52.4
	S69.5,40.3,76.1,40.3z"/>
<path fill="none" d="M3.5,53.2c0,1.7,1.4,3.1,3.1,3.1h40.2v-6.2H6.6C4.9,50.2,3.5,51.5,3.5,53.2z"/>
<circle fill="none" cx="76.1" cy="52.4" r="10.2"/>
<g>
	<path fill="#7542E5" d="M19.5,60.3v9.4c0,0.5-0.4,1-1,1s-1-0.4-1-1V64c0-0.5-0.4-0.9-0.9-0.9s-0.9,0.4-0.9,0.9v1.6h-4.4V64
		c0-0.5-0.4-0.9-0.9-0.9S9.5,63.5,9.5,64v5.7c0,0.5-0.4,1-0.9,1c-0.6,0-1-0.4-1-1v-9.4c0-0.1,0-0.1,0-0.2h-1c-0.3,0-0.6,0-0.9-0.1
		c0,0.1,0,0.2,0,0.3v9.4c-0.1,1.6,1.1,2.9,2.7,3c1.6,0.1,2.9-1.1,3-2.7c0-0.1,0-0.2,0-0.3v-2.2h4.4v2.2c0,1.6,1.3,2.8,2.8,2.8
		c1.6,0,2.8-1.3,2.8-2.8l0,0v-9.4c0,0,0-0.1,0-0.2h-1.9C19.4,60.2,19.5,60.2,19.5,60.3z"/>
	<path fill="#7542E5" d="M46.8,56.3H6.6c-1.7,0.1-3.2-1.2-3.3-2.9s1.2-3.2,2.9-3.3c0.1,0,0.2,0,0.4,0h40.3v-3.8H6.6
		c-3.8,0.1-6.8,3.3-6.6,7.1C0.1,57,3,59.9,6.6,60h40.3L46.8,56.3L46.8,56.3z"/>
	<path fill="#7542E5" d="M76.1,32.6c-8.6,0-16.2,5.6-18.8,13.7v3.8h2.8l0.8-2.6c2.7-8.4,11.7-13.1,20.1-10.4s13.1,11.7,10.4,20.1
		S79.7,70.3,71.3,67.6c-4.4-1.4-8-4.7-9.9-9l-1-2.3h-3.1v3.8h0.6c4.3,10,15.9,14.7,25.9,10.5s14.7-15.9,10.5-25.9
		C91.2,37.4,84.1,32.6,76.1,32.6z"/>
	<path fill="#7542E5" d="M76.1,64.5c6.7,0,12.1-5.4,12.1-12.1s-5.4-12.1-12.1-12.1S64,45.7,64,52.4l0,0C64,59.1,69.5,64.5,76.1,64.5
		z M76.1,42.2c5.6,0,10.2,4.6,10.2,10.2s-4.6,10.2-10.2,10.2S65.9,58,65.9,52.4l0,0C65.9,46.7,70.5,42.2,76.1,42.2z"/>
	<path fill="#7542E5" d="M57.3,56.3v-10c0-1.5-1.2-2.7-2.6-2.7c-1.2,0-2.3,0.8-2.6,2c-0.4-1.4-1.8-2.3-3.2-1.9c-1.2,0.3-2,1.3-2,2.6
		v13.8c0,1.5,1.2,2.6,2.7,2.6c1.2,0,2.3-0.8,2.6-2c0.3,1.4,1.8,2.3,3.2,2c1.2-0.3,2.1-1.4,2-2.6L57.3,56.3L57.3,56.3z M50.3,60.1
		c0,0.4-0.4,0.8-0.8,0.8s-0.8-0.3-0.8-0.8V46.4c0-0.4,0.4-0.8,0.8-0.8s0.8,0.3,0.8,0.8V60.1z M55.5,60.1c0,0.4-0.4,0.7-0.9,0.7
		c-0.4,0-0.6-0.3-0.7-0.7V46.4c0-0.4,0.4-0.7,0.9-0.7c0.4,0,0.6,0.3,0.7,0.7V60.1z"/>
	<path fill="#7542E5" d="M48.1,33.6c0.1,0.9,0.9,1.6,1.8,1.6s1.7-0.7,1.8-1.6c0.5-3,2-8.5,3.7-10.2s7.1-3.1,10.1-3.6
		c1-0.2,1.7-1.1,1.5-2.2c-0.1-0.8-0.8-1.4-1.5-1.5c-3-0.5-8.3-2-10.1-3.7s-3.2-7.1-3.7-10.1c-0.2-0.9-0.9-1.6-1.8-1.6
		s-1.7,0.7-1.8,1.6c-0.5,3-1.9,8.3-3.6,10s-7.2,3.2-10.2,3.7c-1,0.2-1.7,1.1-1.5,2.2c0.1,0.8,0.8,1.4,1.5,1.5
		c3,0.5,8.4,1.9,10.2,3.6S47.6,30.6,48.1,33.6z M47.2,15c1.3-1.5,2.3-3.2,2.9-5.1c0.6,1.9,1.6,3.6,2.9,5.1c1.5,1.3,3.2,2.3,5.1,2.9
		c-1.9,0.6-3.6,1.6-5.1,2.8c-1.3,1.5-2.3,3.2-2.9,5.1c-0.6-1.9-1.6-3.6-2.9-5.1c-1.5-1.3-3.2-2.3-5.1-2.8
		C43.9,17.3,45.7,16.3,47.2,15z"/>
	<path fill="#7542E5" d="M22.5,31.4c0,0.9,0.7,1.7,1.6,1.8c1.6,0.3,3.7,0.9,4.2,1.4c0.8,1.3,1.2,2.7,1.4,4.2
		c0.1,0.9,0.9,1.6,1.8,1.6c0.9,0,1.8-0.6,1.9-1.6c0.2-1.5,0.7-2.9,1.5-4.2c1.3-0.8,2.7-1.2,4.2-1.4c0.9-0.1,1.6-0.9,1.6-1.8
		c0-0.9-0.6-1.7-1.6-1.9c-1.5-0.2-2.9-0.7-4.2-1.5c-0.7-1.3-1.2-2.7-1.4-4.2c-0.2-0.9-0.9-1.5-1.8-1.5c-0.9,0-1.7,0.7-1.8,1.6
		c-0.2,1.5-0.9,3.7-1.4,4.2c-1.3,0.8-2.7,1.3-4.2,1.5C23.2,29.6,22.5,30.4,22.5,31.4z M31,30.7c0.2-0.2,0.5-0.5,0.6-0.8
		c0.2,0.3,0.4,0.6,0.6,0.8c0.3,0.2,0.5,0.5,0.8,0.6c-0.3,0.2-0.6,0.4-0.8,0.6c-0.2,0.2-0.5,0.5-0.6,0.8c-0.2-0.3-0.4-0.6-0.7-0.8
		c-0.2-0.2-0.5-0.5-0.8-0.6C30.5,31.1,30.7,30.9,31,30.7L31,30.7z"/>
	<path fill="#7542E5" d="M32,8.2c0.6,1,1,2.1,1.1,3.2c0.1,0.5,0.5,0.8,0.9,0.8c0.5,0,0.8-0.3,0.9-0.8c0.2-1.1,0.6-2.2,1.2-3.2
		c1-0.6,2.1-1,3.2-1.1C39.8,7,40.2,6.5,40.1,6c-0.1-0.4-0.4-0.7-0.8-0.8C38.2,5,37.1,4.6,36.1,4c-0.6-1-1-2.1-1.2-3.2
		C34.8,0.4,34.4,0,34,0c-0.5,0-0.9,0.3-0.9,0.8C33,1.9,32.6,3,32,4c-1,0.6-2.1,1-3.2,1.2c-0.5,0.1-0.9,0.6-0.8,1.1
		c0.1,0.4,0.4,0.7,0.8,0.8C29.9,7.2,31,7.6,32,8.2z M33.3,5.4c0.3-0.3,0.6-0.7,0.7-1.1c0.3,0.8,1,1.5,1.8,1.8
		c-0.4,0.2-0.8,0.4-1.1,0.7S34.1,7.5,34,7.9c-0.3-0.8-1-1.5-1.8-1.8C32.6,6,33,5.7,33.3,5.4z"/>
</g>
</svg>
