<?xml version="1.0" encoding="utf-8"?>
<!-- Generator: Adobe Illustrator 21.0.2, SVG Export Plug-In . SVG Version: 6.00 Build 0)  -->
<svg version="1.1" id="Layer_1" xmlns="http://www.w3.org/2000/svg" xmlns:xlink="http://www.w3.org/1999/xlink" x="0px" y="0px"
	 viewBox="0 0 96.3 73.8" enable-background="new 0 0 96.3 73.8" xml:space="preserve">
<path fill="none" d="M58.3,23.7h2.5l1,2.3c3.5,8.1,12.9,11.9,21,8.4c8.1-3.5,11.9-12.9,8.4-21C87.8,5.3,78.4,1.5,70.2,5
	c-4.3,1.8-7.6,5.4-9,9.9l-0.8,2.6h-2.8v6.2H58.3z M76.5,7.7c6.7,0,12.1,5.4,12.1,12.1c0,6.7-5.4,12.1-12.1,12.1
	c-6.7,0-12.1-5.4-12.1-12.1c0,0,0,0,0,0C64.4,13.1,69.8,7.7,76.5,7.7z"/>
<path fill="none" d="M86.9,51.2h-79c-1,0-1.9,0.8-1.9,1.9v15.1c0,1,0.9,1.9,1.9,1.9h79c1,0,1.9-0.8,1.9-1.9V53.1
	C88.7,52,87.9,51.2,86.9,51.2z M22.5,62.5l-1.1,1.9c-0.1,0.2-0.4,0.3-0.7,0.2c0,0-0.1,0-0.1-0.1l-2.4-1.8l0.4,3
	c0,0.3-0.2,0.5-0.4,0.6c0,0,0,0-0.1,0H16c-0.1,0-0.3-0.1-0.4-0.2c-0.1-0.1-0.1-0.2-0.1-0.4l0.4-3l-2.5,1.8c-0.1,0.1-0.3,0.1-0.4,0.1
	c-0.1,0-0.3-0.1-0.3-0.2l-1-1.9c-0.1-0.1-0.1-0.3,0-0.4c0-0.1,0.1-0.2,0.3-0.3l2.8-1.2l-2.9-1.2c-0.1-0.1-0.2-0.2-0.3-0.3
	c-0.1-0.1-0.1-0.3,0-0.4l1.1-1.8c0.1-0.1,0.2-0.2,0.3-0.2c0.1,0,0.3,0,0.4,0.1l2.4,1.8l-0.4-3c0-0.1,0-0.3,0.1-0.4
	c0.1-0.1,0.2-0.2,0.4-0.2h2.2c0.3,0,0.5,0.2,0.5,0.5c0,0,0,0,0,0.1l-0.4,3l2.4-1.8c0.1-0.1,0.3-0.1,0.4-0.1c0.1,0,0.3,0.1,0.3,0.2
	l1,1.9c0.1,0.1,0.1,0.3,0,0.4c-0.1,0.1-0.2,0.2-0.3,0.3l-2.8,1.2l2.8,1.2c0.1,0.1,0.2,0.2,0.3,0.3C22.5,62.2,22.5,62.4,22.5,62.5z
	 M37.9,62.5l-1.1,1.9c-0.1,0.1-0.2,0.2-0.3,0.2c-0.1,0-0.3,0-0.4-0.1l-2.4-1.8l0.4,3c0,0.1,0,0.3-0.1,0.4c-0.1,0.1-0.2,0.2-0.4,0.2
	h-2.2c-0.1,0-0.3-0.1-0.4-0.2c-0.1-0.1-0.1-0.2-0.1-0.4l0.4-3l-2.5,1.8c-0.1,0.1-0.3,0.1-0.4,0.1c-0.1,0-0.3-0.1-0.3-0.2l-1-1.9
	c-0.1-0.1-0.1-0.3,0-0.4c0-0.1,0.2-0.2,0.3-0.3l2.8-1.2l-2.8-1.2c-0.3-0.1-0.4-0.4-0.3-0.6c0,0,0,0,0-0.1l1.1-1.8
	c0.1-0.1,0.2-0.2,0.3-0.2c0.1,0,0.3,0,0.4,0.1l2.4,1.8l-0.4-3c0-0.1,0-0.3,0.1-0.4c0.1-0.1,0.2-0.2,0.4-0.2h2.2
	c0.1,0,0.3,0.1,0.4,0.2c0.1,0.1,0.1,0.2,0.1,0.4l-0.4,3l2.4-1.8c0.1-0.1,0.3-0.1,0.4-0.1c0.1,0,0.3,0.1,0.3,0.2l1,1.9
	c0.1,0.1,0.1,0.3,0,0.4c-0.1,0.1-0.2,0.2-0.3,0.3l-2.8,1.2l2.8,1.2c0.1,0.1,0.2,0.2,0.3,0.3C38,62.2,37.9,62.4,37.9,62.5z
	 M52.9,62.5l-1.1,1.9c-0.1,0.1-0.2,0.2-0.3,0.2c-0.1,0-0.3,0-0.4-0.1l-2.4-1.8l0.4,3c0,0.3-0.2,0.5-0.4,0.6c0,0,0,0-0.1,0h-2.2
	c-0.1,0-0.3-0.1-0.4-0.2c-0.1-0.1-0.1-0.2-0.1-0.4l0.4-3l-2.4,1.8c-0.1,0.1-0.3,0.1-0.4,0.1c-0.1,0-0.3-0.1-0.3-0.2l-1-1.9
	c-0.1-0.1-0.1-0.3,0-0.4c0-0.1,0.2-0.2,0.3-0.3l2.7-1.2l-2.8-1.2c-0.3-0.1-0.4-0.4-0.3-0.6c0,0,0,0,0-0.1l1-1.8
	c0.1-0.1,0.2-0.2,0.3-0.2c0.1,0,0.3,0,0.4,0.1l2.4,1.8l-0.4-3c0-0.1,0-0.3,0.1-0.4c0.1-0.1,0.2-0.2,0.4-0.2h2.2
	c0.3,0,0.5,0.2,0.5,0.5c0,0,0,0,0,0.1l-0.4,3l2.4-1.9c0.1-0.1,0.3-0.1,0.4-0.1c0.1,0,0.3,0.1,0.3,0.2l1,1.9c0.1,0.1,0.1,0.3,0,0.4
	c-0.1,0.1-0.2,0.2-0.3,0.3l-2.8,1.2l2.8,1.2c0.1,0.1,0.2,0.2,0.3,0.3C53,62.2,53,62.4,52.9,62.5L52.9,62.5z M67.9,62.5l-1.1,1.9
	c-0.1,0.1-0.2,0.2-0.3,0.2c-0.1,0-0.3,0-0.4-0.1l-2.4-1.8l0.4,3c0,0.3-0.2,0.5-0.4,0.6c0,0,0,0-0.1,0h-2.2c-0.1,0-0.3-0.1-0.4-0.2
	C61,66,61,65.8,61,65.7l0.4-3l-2.4,1.8c-0.1,0.1-0.3,0.1-0.4,0.1c-0.1,0-0.3-0.1-0.3-0.2l-1-1.9c-0.1-0.1-0.1-0.3,0-0.4
	c0-0.1,0.1-0.2,0.3-0.3l2.7-1.2l-2.8-1.2c-0.3-0.1-0.4-0.4-0.3-0.6c0,0,0,0,0-0.1l1.1-1.8c0.1-0.1,0.2-0.2,0.3-0.2
	c0.1,0,0.3,0,0.4,0.1l2.4,1.8l-0.4-3c0-0.1,0-0.3,0.1-0.4c0.1-0.1,0.2-0.2,0.4-0.2h2.2c0.3,0,0.5,0.2,0.5,0.5c0,0,0,0,0,0.1l-0.4,3
	l2.4-1.9c0.1-0.1,0.3-0.1,0.4-0.1c0.1,0,0.3,0.1,0.3,0.2l1,1.9c0.1,0.1,0.1,0.3,0,0.4c-0.1,0.1-0.2,0.2-0.3,0.3l-2.8,1.2l2.8,1.2
	c0.1,0.1,0.2,0.2,0.3,0.3C68,62.2,68,62.3,67.9,62.5L67.9,62.5z M83,66.2H71.8v-1.9h11.3L83,66.2z"/>
<circle fill="none" cx="76.5" cy="19.8" r="10.2"/>
<path fill="none" d="M3.8,20.6c0,1.7,1.4,3.1,3.1,3.1h0h40.3v-6.2H6.9C5.2,17.5,3.8,18.9,3.8,20.6C3.8,20.6,3.8,20.6,3.8,20.6z"/>
<g>
	<path fill="#7542E5" d="M19.8,27.6v9.4c0,0.5-0.4,0.9-0.9,0.9c-0.5,0-0.9-0.4-0.9-0.9c0,0,0,0,0,0v-5.7c0-0.5-0.4-0.9-0.9-0.9
		c-0.5,0-0.9,0.4-0.9,0.9V33h-4.4v-1.6c0-0.5-0.4-0.9-0.9-0.9c-0.5,0-0.9,0.4-0.9,0.9v5.7c0,0.5-0.5,0.9-1,0.9
		c-0.5,0-0.9-0.4-0.9-0.9l0,0v-9.4c0-0.1,0-0.1,0-0.2h-1c-0.3,0-0.6,0-0.9-0.1v0.3v9.4c-0.1,1.6,1.1,2.9,2.7,3
		c1.6,0.1,2.9-1.1,3-2.7c0-0.1,0-0.2,0-0.3v-2.2h4.5v2.2c-0.1,1.6,1.1,2.9,2.7,3c1.6,0.1,2.9-1.1,3-2.7c0-0.1,0-0.2,0-0.3v-9.4
		c0-0.1,0-0.1,0-0.2h-1.9C19.8,27.5,19.8,27.6,19.8,27.6z"/>
	<path fill="#7542E5" d="M47.2,23.7H6.9c-1.7,0.1-3.2-1.2-3.3-2.9c-0.1-1.7,1.2-3.2,2.9-3.3c0.1,0,0.2,0,0.4,0h40.3v-3.8H6.9
		c-3.8-0.1-6.9,3-6.9,6.7C-0.1,24,2.6,27,6,27.4c0.3,0.1,0.6,0.1,0.9,0.1h40.3V23.7z"/>
	<path fill="#7542E5" d="M76.5,0c-8.6,0-16.2,5.6-18.8,13.7v3.8h2.8l0.8-2.6C64,6.5,73,1.8,81.4,4.5s13.1,11.7,10.4,20.1
		C89.1,33.1,80.1,37.7,71.6,35c-4.4-1.4-8-4.7-9.9-9l-1-2.3h-3.1v3.8h0.6c4.3,10,15.9,14.7,25.9,10.5C94.3,33.7,99,22.1,94.7,12
		C91.6,4.7,84.4,0,76.5,0z"/>
	<path fill="#7542E5" d="M76.5,31.9c6.7,0,12.1-5.4,12.1-12.1S83.2,7.7,76.5,7.7c-6.7,0-12.1,5.4-12.1,12.1c0,0,0,0,0,0
		C64.4,26.5,69.8,31.9,76.5,31.9z M76.5,9.6c5.6,0,10.2,4.6,10.2,10.2S82.2,30,76.5,30c-5.6,0-10.2-4.6-10.2-10.2c0,0,0,0,0,0
		C66.3,14.1,70.9,9.5,76.5,9.6L76.5,9.6z"/>
	<path fill="#7542E5" d="M57.7,23.7v-10c0-1.5-1.2-2.6-2.7-2.6c-1.2,0-2.3,0.8-2.6,2c-0.3-1.4-1.8-2.3-3.2-2c-1.2,0.3-2.1,1.4-2,2.6
		v13.8c0,1.5,1.2,2.7,2.6,2.7c1.2,0,2.3-0.8,2.6-2c0.4,1.4,1.8,2.3,3.2,1.9c1.2-0.3,2-1.3,2-2.6V23.7z M50.7,27.5
		c0,0.4-0.3,0.8-0.8,0.8c0,0,0,0,0,0c-0.4,0-0.8-0.3-0.8-0.8V13.7c0-0.4,0.4-0.8,0.8-0.8c0.4,0,0.8,0.3,0.8,0.8V27.5z M55.9,27.5
		c0,0.4-0.3,0.8-0.8,0.8c-0.4,0-0.8-0.3-0.8-0.8c0,0,0,0,0,0V13.7c0-0.4,0.4-0.8,0.8-0.8c0.4,0,0.8,0.3,0.8,0.8V27.5z"/>
	<path fill="#7542E5" d="M86.9,47.4h-79c-3.1,0-5.7,2.5-5.7,5.6c0,0,0,0,0,0v15.1c0,3.1,2.5,5.6,5.6,5.6h79c3.1,0,5.6-2.5,5.6-5.6
		V53.1C92.4,50,90,47.5,86.9,47.4z M88.7,68.1c0,1-0.8,1.9-1.9,1.9h-79c-1,0-1.9-0.8-1.9-1.9V53.1c0-1,0.9-1.9,1.9-1.9h79
		c1,0,1.9,0.8,1.9,1.9V68.1z"/>
	<path fill="#7542E5" d="M19.4,60.6l2.8-1.2c0.1-0.1,0.2-0.2,0.3-0.3c0.1-0.1,0.1-0.3,0-0.4l-1-1.9c-0.1-0.1-0.2-0.2-0.3-0.2
		c-0.1,0-0.3,0-0.4,0.1l-2.4,1.8l0.4-3c0-0.3-0.2-0.5-0.4-0.6c0,0,0,0-0.1,0H16c-0.1,0-0.3,0.1-0.4,0.2c-0.1,0.1-0.1,0.2-0.1,0.4
		l0.4,3l-2.4-1.8c-0.1-0.1-0.3-0.1-0.4-0.1c-0.1,0-0.3,0.1-0.3,0.2l-1.1,1.8c-0.1,0.1-0.1,0.3,0,0.4c0,0.1,0.1,0.2,0.3,0.3l2.8,1.2
		l-2.8,1.2c-0.1,0-0.2,0.2-0.3,0.3c-0.1,0.1-0.1,0.3,0,0.4l1,1.9c0.1,0.1,0.2,0.2,0.3,0.2c0.1,0,0.3,0,0.4-0.1l2.5-1.8l-0.4,3
		c0,0.1,0,0.3,0.1,0.4c0.1,0.1,0.2,0.2,0.4,0.2h2.2c0.3,0,0.5-0.2,0.5-0.5c0,0,0,0,0-0.1l-0.4-3l2.4,1.8c0.2,0.2,0.5,0.1,0.7-0.1
		c0,0,0-0.1,0.1-0.1l1.1-1.8c0.1-0.1,0.1-0.3,0-0.4c0-0.1-0.1-0.3-0.3-0.3L19.4,60.6z"/>
	<path fill="#7542E5" d="M34.8,60.6l2.8-1.2c0.1-0.1,0.2-0.2,0.3-0.3c0.1-0.1,0.1-0.3,0-0.4l-1.1-1.8c-0.1-0.1-0.2-0.2-0.3-0.2
		c-0.1,0-0.3,0-0.4,0.1l-2.4,1.8l0.4-3c0-0.1,0-0.3-0.1-0.4C33.8,55,33.7,55,33.5,55h-2.2c-0.1,0-0.3,0.1-0.4,0.2
		c-0.1,0.1-0.1,0.2-0.1,0.4l0.4,3l-2.4-1.8c-0.1-0.1-0.3-0.1-0.4-0.1c-0.1,0.1-0.2,0.2-0.3,0.3l-1.1,1.8C27,59,27,59.3,27.3,59.4
		c0,0,0,0,0.1,0l2.8,1.2l-2.8,1.2c-0.1,0.1-0.2,0.2-0.3,0.3c-0.1,0.1-0.1,0.3,0,0.4l1,1.9c0.1,0.1,0.2,0.2,0.3,0.2
		c0.1,0,0.3,0,0.4-0.1l2.5-1.8l-0.4,3c0,0.1,0,0.3,0.1,0.4c0.1,0.1,0.2,0.2,0.4,0.2h2.2c0.1,0,0.3-0.1,0.4-0.2
		c0.1-0.1,0.1-0.2,0.1-0.4l-0.4-3l2.4,1.8c0.1,0.1,0.3,0.1,0.4,0.1c0.1,0,0.3-0.1,0.3-0.2l1.1-1.9c0.1-0.1,0.1-0.3,0-0.4
		c0-0.1-0.1-0.2-0.3-0.3L34.8,60.6z"/>
	<path fill="#7542E5" d="M49.9,60.6l2.8-1.2c0.1-0.1,0.2-0.2,0.3-0.3c0.1-0.1,0.1-0.3,0-0.4l-1-1.9c-0.1-0.1-0.2-0.2-0.3-0.2
		c-0.1,0-0.3,0-0.4,0.1l-2.4,1.8l0.4-3c0-0.3-0.2-0.5-0.4-0.6c0,0,0,0-0.1,0h-2.2c-0.1,0-0.3,0.1-0.4,0.2c-0.1,0.1-0.1,0.2-0.1,0.4
		l0.4,3l-2.4-1.8c-0.1-0.1-0.3-0.1-0.4-0.1c-0.1,0-0.3,0.1-0.3,0.3l-1.1,1.8C42,59,42,59.3,42.3,59.4c0,0,0,0,0.1,0l2.8,1.2
		l-2.8,1.2c-0.1,0-0.2,0.2-0.3,0.3c-0.1,0.1-0.1,0.3,0,0.4l1,1.9c0.1,0.1,0.2,0.2,0.3,0.2c0.1,0,0.3,0,0.4-0.1l2.4-1.8l-0.4,3
		c0,0.1,0,0.3,0.1,0.4c0.1,0.1,0.2,0.2,0.4,0.2h2.2c0.3,0,0.5-0.2,0.5-0.5c0,0,0,0,0-0.1l-0.4-3l2.4,1.8c0.1,0.1,0.3,0.1,0.4,0.1
		c0.1,0,0.3-0.1,0.3-0.2l1.1-1.9c0.1-0.1,0.1-0.3,0-0.4c0-0.1-0.1-0.2-0.3-0.3L49.9,60.6z"/>
	<path fill="#7542E5" d="M64.9,60.6l2.8-1.2c0.1-0.1,0.2-0.2,0.3-0.3c0.1-0.1,0.1-0.3,0-0.4l-1-1.9c-0.1-0.1-0.2-0.2-0.3-0.2
		c-0.1,0-0.3,0-0.4,0.1l-2.5,1.8l0.4-3c0-0.3-0.2-0.5-0.4-0.6c0,0,0,0-0.1,0h-2.2c-0.1,0-0.3,0.1-0.4,0.2C61,55.3,61,55.4,61,55.5
		l0.4,3L59,56.7c-0.1-0.1-0.3-0.1-0.4-0.1c-0.1,0-0.3,0.1-0.3,0.2l-1.1,1.8c-0.1,0.2-0.1,0.5,0.2,0.7c0,0,0,0,0.1,0l2.8,1.2
		l-2.8,1.2c-0.1,0-0.2,0.2-0.3,0.3c-0.1,0.1-0.1,0.3,0,0.4l1,1.9c0.1,0.1,0.2,0.2,0.3,0.2c0.1,0,0.3,0,0.4-0.1l2.4-1.8l-0.4,3
		c0,0.1,0,0.3,0.1,0.4c0.1,0.1,0.2,0.2,0.4,0.2h2.2c0.3,0,0.5-0.2,0.5-0.5c0,0,0,0,0-0.1l-0.4-3l2.5,1.8c0.1,0.1,0.3,0.1,0.4,0.1
		c0.1,0,0.3-0.1,0.3-0.2l1.1-1.9c0.1-0.1,0.1-0.3,0-0.4c0-0.1-0.1-0.2-0.3-0.3L64.9,60.6z"/>
	<path fill="#7542E5" d="M71.8,64.4h11.3v1.9H71.8V64.4z"/>
</g>
</svg>
