<?xml version="1.0" encoding="utf-8"?>
<!-- Generator: Adobe Illustrator 21.0.2, SVG Export Plug-In . SVG Version: 6.00 Build 0)  -->
<svg version="1.1" id="Layer_1" xmlns="http://www.w3.org/2000/svg" xmlns:xlink="http://www.w3.org/1999/xlink" x="0px" y="0px"
	 viewBox="0 0 129.8 88.4" enable-background="new 0 0 129.8 88.4" xml:space="preserve">
<path fill="none" d="M112.9,75.2c1,0,1.9-0.8,1.9-1.9V5.6c0-1-0.8-1.9-1.9-1.9h-96c-1,0-1.9,0.8-1.9,1.9v67.7c0,1,0.9,1.8,1.9,1.8
	L112.9,75.2L112.9,75.2z M20.7,71.5c-1,0-1.9-0.8-1.9-1.9V9.4c0-1,0.8-1.9,1.9-1.9h88.4c1,0,1.9,0.9,1.9,1.9v60.2
	c0,1-0.8,1.9-1.9,1.9H20.7z"/>
<path fill="none" d="M109.1,14.1H20.7v-1.9h88.4V9.4H20.7v60.2h88.4V14.1z M73.4,55.9L73.4,55.9c-1.1,0-1.9-0.8-1.9-1.8l-0.2-5.5
	l-8,8c-1.1,1.2-2.7,2-4.4,2c-0.6,0-1.3-0.2-1.9-0.4c-1-0.3-1.9-0.9-2.7-1.6L48.8,51c-0.7-0.7-0.7-1.9,0-2.7c0.7-0.7,1.9-0.7,2.7,0
	l5.5,5.5c0.9,1,2.4,1.1,3.4,0.3c0.1-0.1,0.2-0.2,0.3-0.3l7.8-7.8h-4.9c-1,0-1.9-0.8-1.9-1.9c0-1,0.8-1.9,1.9-1.9l0,0h9.3
	c1,0,1.8,0.8,1.9,1.8l0.4,9.8C75.2,55,74.4,55.9,73.4,55.9z M79.8,32.5c-0.7,0.7-1.9,0.7-2.7,0L71.6,27c-0.9-1-2.4-1.1-3.4-0.2
	C68.1,26.9,68,27,68,27l-7.8,7.8h4.9c1,0,1.9,0.8,1.9,1.9c0,1-0.8,1.9-1.9,1.9h-9.4c-1,0-1.8-0.8-1.9-1.8L53.4,27c0-1,0.8-1.9,1.8-2
	s1.9,0.8,2,1.8l0,0l0.2,5.5l8-8c1.6-1.7,4-2.4,6.2-1.6c1,0.3,1.9,0.9,2.7,1.6l5.5,5.5C80.6,30.5,80.6,31.7,79.8,32.5
	C79.8,32.4,79.8,32.5,79.8,32.5z"/>
<path fill="none" d="M22.9,79L3.8,82.2v2.5h122.3v-2.5L106.9,79H22.9z M71.5,83.7H58.3c-0.5,0-0.9-0.4-0.9-0.9s0.4-0.9,0.9-0.9h13.2
	c0.5,0,0.9,0.4,0.9,0.9S72,83.7,71.5,83.7L71.5,83.7L71.5,83.7z"/>
<g>
	<path fill="#7542E5" d="M72.9,42.3h-9.4c-1,0-1.9,0.8-1.9,1.9c0,1,0.8,1.9,1.9,1.9h4.9l-7.8,7.8c-0.9,1-2.4,1.1-3.4,0.3
		c-0.1-0.1-0.2-0.2-0.3-0.3l-5.5-5.5c-0.7-0.7-1.9-0.7-2.7,0c-0.7,0.7-0.7,1.9,0,2.7l5.5,5.5c0.8,0.7,1.7,1.3,2.7,1.6
		c0.6,0.2,1.3,0.3,1.9,0.3c1.7,0,3.2-0.8,4.4-2l8-8l0.2,5.5c0,1,0.9,1.8,1.9,1.8h0.1c1,0,1.9-0.9,1.8-2l0,0L74.8,44
		C74.7,43,73.9,42.3,72.9,42.3L72.9,42.3z"/>
	<path fill="#7542E5" d="M74.3,24.3c-0.8-0.7-1.7-1.3-2.7-1.6c-2.2-0.7-4.7-0.1-6.2,1.6l-8,8l-0.2-5.5c0-1-0.9-1.8-2-1.8
		c-1,0-1.8,0.9-1.8,2l0.4,9.8c0,1,0.9,1.8,1.9,1.8h9.4c1,0,1.9-0.8,1.9-1.9c0-1-0.8-1.9-1.9-1.9h-4.9L68,27c0.9-1,2.4-1.1,3.4-0.2
		c0.1,0.1,0.2,0.2,0.2,0.2l5.5,5.5c0.7,0.7,1.9,0.7,2.7,0c0.7-0.7,0.7-1.9,0-2.7L74.3,24.3z"/>
	<path fill="#7542E5" d="M118.5,73.3V5.6c0-3.1-2.5-5.6-5.6-5.6h-96c-3.1,0-5.6,2.5-5.6,5.6v67.7c0,1.3,0.5,2.6,1.3,3.6L0,79v9.4
		h129.8V79l-12.6-2.1C118.1,75.9,118.5,74.6,118.5,73.3z M16.9,75.2c-1,0-1.9-0.8-1.9-1.9V5.6c0-1,0.8-1.9,1.9-1.9h96
		c1,0,1.9,0.8,1.9,1.9v67.7c0,1-0.9,1.8-1.9,1.8L16.9,75.2L16.9,75.2z M126,84.6H3.8v-2.4L22.9,79h84l19.1,3.2V84.6z"/>
	<path fill="#7542E5" d="M111,69.6V9.4c0-1-0.8-1.9-1.9-1.9H20.7c-1,0-1.9,0.9-1.9,1.9v60.2c0,1,0.8,1.9,1.9,1.9h88.4
		C110.1,71.5,111,70.6,111,69.6z M20.7,9.4h88.4v2.8H20.7v1.9h88.4v55.5H20.7V9.4z"/>
	<path fill="#7542E5" d="M71.5,81.8H58.3c-0.5,0-0.9,0.4-0.9,0.9s0.4,0.9,0.9,0.9h13.2c0.5,0,0.9-0.4,0.9-0.9S72,81.8,71.5,81.8
		L71.5,81.8z"/>
</g>
</svg>
