<svg xmlns="http://www.w3.org/2000/svg" viewBox="0 0 82 55.8"><g fill="none"><path d="M40.9 15c-3.8 0-6.9 3.1-6.9 7 0 3 4.3 10.1 6.9 13.9C43.5 32.1 48 25 48 22c-.1-3.9-3.2-7-7.1-7zm0 10.7c-2 0-3.7-1.6-3.7-3.7s1.6-3.7 3.7-3.7c2 0 3.7 1.6 3.7 3.7s-1.6 3.7-3.7 3.7z"/><path d="M68.9 5.9H13.1v1.8h55.8v1.2H13.1V44h55.8V5.9zM41.8 38.7c-.3.3-.6.5-.9.5s-.8-.2-.9-.5c-1-1.2-8.4-11.9-8.4-16.7.1-5.2 4.4-9.2 9.6-9.1 5 .1 9 4.1 9.1 9.1 0 4.8-7.7 15.5-8.5 16.7z"/><path d="M71.3 47.4c.6 0 1.2-.5 1.2-1.2V3.5c0-.6-.5-1.2-1.2-1.2H10.7c-.6 0-1.2.5-1.2 1.2v42.8c0 .6.6 1.1 1.2 1.1h60.6zm-58.2-2.3c-.6 0-1.2-.5-1.2-1.2v-38c0-.6.5-1.2 1.2-1.2h55.8c.6 0 1.2.6 1.2 1.2v38c0 .6-.5 1.2-1.2 1.2H13.1zM14.5 49.8l-12.1 2v1.6h77.3v-1.6l-12.1-2H14.5zm30.7 3.1h-8.3c-.3 0-.6-.3-.6-.6s.3-.6.6-.6h8.3c.3 0 .6.3.6.6-.1.3-.3.6-.6.6z"/><path d="M40.9 19.6c-1.4 0-2.5 1.1-2.5 2.5s1.1 2.5 2.5 2.5 2.5-1.1 2.5-2.5-1.1-2.5-2.5-2.5z"/></g><path fill="#7542E5" d="M40.9 12.7c-5.2 0-9.3 4.2-9.3 9.3 0 4.7 7.4 15.4 8.3 16.6.2.3.6.5.9.5s.8-.2.9-.5c.9-1.2 8.5-11.9 8.5-16.7.1-5-4.1-9.2-9.3-9.2zm-.1 23.2C38.3 32.1 33.9 25 33.9 22c0-3.9 3.1-7 6.9-7s7 3.1 7 7c.1 3-4.3 10.1-7 13.9z"/><path fill="#7542E5" d="M40.9 18.4c-2 0-3.7 1.6-3.7 3.7s1.6 3.7 3.7 3.7c2 0 3.7-1.6 3.7-3.7s-1.6-3.7-3.7-3.7zm0 6.1c-1.4 0-2.5-1.1-2.5-2.5s1.1-2.5 2.5-2.5 2.5 1.1 2.5 2.5-1.1 2.5-2.5 2.5z"/><path fill="#7542E5" d="M74.9 46.3V3.5c0-2-1.6-3.5-3.5-3.5H10.7c-2 0-3.5 1.6-3.5 3.5v42.8c0 .8.3 1.6.8 2.3l-8 1.3v5.9h82v-5.9l-8-1.3c.6-.7.9-1.5.9-2.3zm-64.2 1.1c-.6 0-1.2-.5-1.2-1.2V3.5c0-.6.5-1.2 1.2-1.2h60.6c.6 0 1.2.5 1.2 1.2v42.8c0 .6-.6 1.1-1.2 1.1H10.7zm68.9 6H2.4v-1.5l12.1-2.1h53.1l12.1 2v1.6z"/><path fill="#7542E5" d="M70.1 43.9v-38c0-.6-.5-1.2-1.2-1.2H13.1c-.6 0-1.2.6-1.2 1.2v38c0 .6.5 1.2 1.2 1.2h55.8c.7 0 1.2-.5 1.2-1.2zm-57-35.1h55.8V7.6H13.1V5.9h55.8v38H13.1V8.8zM45.2 51.7h-8.3c-.3 0-.6.3-.6.6s.3.6.6.6h8.3c.3 0 .6-.3.6-.6s-.3-.6-.6-.6z"/></svg>