<?xml version="1.0" encoding="utf-8"?>
<!-- Generator: Adobe Illustrator 21.0.2, SVG Export Plug-In . SVG Version: 6.00 Build 0)  -->
<svg version="1.1" id="Layer_1" xmlns="http://www.w3.org/2000/svg" xmlns:xlink="http://www.w3.org/1999/xlink" x="0px" y="0px"
	 viewBox="0 0 82 55.8" enable-background="new 0 0 82 55.8" xml:space="preserve">
<g>
	<g>
		<path fill="none" d="M40.9,15C37.1,15,34,18.1,34,22c0,3,4.3,10.1,6.9,13.9c2.6-3.8,7.1-10.9,7.1-13.9C47.9,18.1,44.8,15,40.9,15z
			 M40.9,25.7c-2,0-3.7-1.6-3.7-3.7s1.6-3.7,3.7-3.7c2,0,3.7,1.6,3.7,3.7C44.6,24.1,43,25.7,40.9,25.7L40.9,25.7z"/>
		<path fill="none" d="M68.9,5.9H13.1v1.8h55.8v1.2H13.1v35.1h55.8V5.9z M41.8,38.7c-0.3,0.3-0.6,0.5-0.9,0.5s-0.8-0.2-0.9-0.5
			C39,37.5,31.6,26.8,31.6,22c0.1-5.2,4.4-9.2,9.6-9.1c5,0.1,9,4.1,9.1,9.1C50.3,26.8,42.6,37.5,41.8,38.7z"/>
		<path fill="none" d="M71.3,47.4c0.6,0,1.2-0.5,1.2-1.2V3.5c0-0.6-0.5-1.2-1.2-1.2H10.7c-0.6,0-1.2,0.5-1.2,1.2v42.8
			c0,0.6,0.6,1.1,1.2,1.1H71.3z M13.1,45.1c-0.6,0-1.2-0.5-1.2-1.2v-38c0-0.6,0.5-1.2,1.2-1.2h55.8c0.6,0,1.2,0.6,1.2,1.2v38
			c0,0.6-0.5,1.2-1.2,1.2H13.1z"/>
		<path fill="none" d="M14.5,49.8l-12.1,2v1.6h77.3v-1.6l-12.1-2H14.5z M45.2,52.9h-8.3c-0.3,0-0.6-0.3-0.6-0.6
			c0-0.3,0.3-0.6,0.6-0.6l0,0h8.3c0.3,0,0.6,0.3,0.6,0.6C45.7,52.6,45.5,52.9,45.2,52.9L45.2,52.9L45.2,52.9z"/>
		<path fill="none" d="M40.9,19.6c-1.4,0-2.5,1.1-2.5,2.5c0,1.4,1.1,2.5,2.5,2.5c1.4,0,2.5-1.1,2.5-2.5l0,0
			C43.4,20.7,42.3,19.6,40.9,19.6z"/>
	</g>
	<path fill="#7542E5" d="M40.9,12.7c-5.2,0-9.3,4.2-9.3,9.3c0,4.7,7.4,15.4,8.3,16.6c0.2,0.3,0.6,0.5,0.9,0.5s0.8-0.2,0.9-0.5
		c0.9-1.2,8.5-11.9,8.5-16.7C50.3,16.9,46.1,12.7,40.9,12.7z M40.8,35.9C38.3,32.1,33.9,25,33.9,22c0-3.9,3.1-7,6.9-7s7,3.1,7,7
		C47.9,25,43.5,32.1,40.8,35.9z"/>
	<path fill="#7542E5" d="M40.9,18.4c-2,0-3.7,1.6-3.7,3.7s1.6,3.7,3.7,3.7c2,0,3.7-1.6,3.7-3.7S43,18.4,40.9,18.4L40.9,18.4z
		 M40.9,24.5c-1.4,0-2.5-1.1-2.5-2.5c0-1.4,1.1-2.5,2.5-2.5c1.4,0,2.5,1.1,2.5,2.5C43.4,23.4,42.3,24.5,40.9,24.5L40.9,24.5z"/>
	<path fill="#7542E5" d="M74.9,46.3V3.5c0-2-1.6-3.5-3.5-3.5H10.7c-2,0-3.5,1.6-3.5,3.5v42.8c0,0.8,0.3,1.6,0.8,2.3l-8,1.3v5.9h82
		v-5.9l-8-1.3C74.6,47.9,74.9,47.1,74.9,46.3z M10.7,47.4c-0.6,0-1.2-0.5-1.2-1.2V3.5c0-0.6,0.5-1.2,1.2-1.2h60.6
		c0.6,0,1.2,0.5,1.2,1.2v42.8c0,0.6-0.6,1.1-1.2,1.1H10.7z M79.6,53.4H2.4v-1.5l12.1-2.1h53.1l12.1,2V53.4z"/>
	<path fill="#7542E5" d="M70.1,43.9v-38c0-0.6-0.5-1.2-1.2-1.2H13.1c-0.6,0-1.2,0.6-1.2,1.2v38c0,0.6,0.5,1.2,1.2,1.2h55.8
		C69.6,45.1,70.1,44.6,70.1,43.9z M13.1,8.8h55.8V7.6H13.1V5.9h55.8v38H13.1V8.8z"/>
	<path fill="#7542E5" d="M45.2,51.7h-8.3c-0.3,0-0.6,0.3-0.6,0.6s0.3,0.6,0.6,0.6l0,0h8.3c0.3,0,0.6-0.3,0.6-0.6
		S45.5,51.7,45.2,51.7L45.2,51.7z"/>
</g>
</svg>
