<?xml version="1.0" encoding="utf-8"?>
<!-- Generator: Adobe Illustrator 21.0.2, SVG Export Plug-In . SVG Version: 6.00 Build 0)  -->
<svg version="1.1" id="Layer_1" xmlns="http://www.w3.org/2000/svg" xmlns:xlink="http://www.w3.org/1999/xlink" x="0px" y="0px"
	 viewBox="0 0 84 57.2" enable-background="new 0 0 84 57.2" xml:space="preserve">
<g>
	<path fill="none" d="M14.8,51.1L2.5,53.2v1.6h79.1v-1.6l-12.4-2.1H14.8z M46.3,54.2h-8.5c-0.3,0-0.6-0.3-0.6-0.6s0.3-0.6,0.6-0.6
		h8.5c0.3,0,0.6,0.3,0.6,0.6S46.6,54.2,46.3,54.2L46.3,54.2L46.3,54.2z"/>
	<path fill="none" d="M70.6,9.1H13.4V7.9h57.2V6.1H13.4v39h57.2V9.1z M28.4,26.3l-0.6,1c-0.1,0.1-0.1,0.1-0.2,0.1s-0.1,0-0.2-0.1
		l-1.3-1l0.2,1.6c0,0.1,0,0.1-0.1,0.2s-0.1,0.1-0.2,0.1h-1.2c-0.1,0-0.1-0.1-0.2-0.1c-0.1-0.1-0.1-0.1-0.1-0.2l0.2-1.6l-1.3,1
		c-0.1,0.1-0.3,0.1-0.4-0.1l0,0l-0.6-1c0-0.1,0-0.1,0-0.2c0-0.1,0.1-0.1,0.1-0.1l1.5-0.6l-1.5-0.6c-0.1,0-0.1-0.1-0.1-0.2
		c0-0.1,0-0.1,0-0.2l0.6-1c0.1-0.1,0.3-0.2,0.4-0.1c0,0,0,0,0.1,0l1.3,1l-0.2-1.6c0-0.1,0-0.1,0.1-0.2c0.1-0.1,0.1-0.1,0.2-0.1h1.2
		c0.1,0,0.1,0.1,0.2,0.1c0.1,0.1,0.1,0.1,0.1,0.2l-0.2,1.6l1.3-1c0.1-0.1,0.1-0.1,0.2-0.1c0.1,0,0.1,0.1,0.2,0.1l0.6,1
		c0,0.1,0,0.1,0,0.2s-0.1,0.1-0.1,0.1l-1.5,0.6l1.5,0.6c0.1,0,0.1,0.1,0.1,0.1C28.4,26.1,28.4,26.2,28.4,26.3z M30.9,30.4
		c-0.6,0-1.2-0.5-1.1-1.2c0-0.6,0.5-1.2,1.2-1.1c0.6,0,1.1,0.5,1.2,1.2C32,29.9,31.5,30.4,30.9,30.4L30.9,30.4z M39.2,26.3l-0.6,1
		c-0.1,0.1-0.1,0.1-0.2,0.1c-0.1,0-0.1,0-0.2-0.1l-1.3-1l0.2,1.6c0,0.1,0,0.1-0.1,0.2s-0.1,0.1-0.2,0.1h-1.2c-0.1,0-0.3-0.1-0.3-0.3
		c0,0,0,0,0-0.1l0.2-1.6l-1.3,1c-0.1,0.1-0.1,0.1-0.2,0.1S34,27.3,34,27.2l-0.6-1c0-0.1,0-0.1,0-0.2c0-0.1,0.1-0.1,0.1-0.1l1.5-0.6
		l-1.4-0.6c-0.1,0-0.1-0.1-0.1-0.2c0-0.1,0-0.1,0-0.2l0.6-1c0.1-0.1,0.1-0.1,0.2-0.1c0.1,0,0.1,0,0.2,0.1l1.3,1l-0.2-1.6
		c0-0.1,0-0.1,0.1-0.2c0.1-0.1,0.1-0.1,0.2-0.1H37c0.1,0,0.1,0.1,0.2,0.1c0.1,0.1,0.1,0.1,0.1,0.2L37,24.1l1.3-1
		c0.1-0.1,0.1-0.1,0.2-0.1c0.1,0,0.1,0.1,0.2,0.1l0.6,1c0.1,0.1,0,0.3-0.1,0.4l0,0l-1.5,0.6l1.5,0.6c0.1,0,0.1,0.1,0.1,0.1
		C39.3,26.1,39.3,26.2,39.2,26.3L39.2,26.3z M41.7,30.4c-0.6,0-1.2-0.5-1.1-1.2c0-0.6,0.5-1.2,1.2-1.1c0.6,0,1.1,0.5,1.2,1.2
		C42.8,29.9,42.3,30.4,41.7,30.4L41.7,30.4z M50,26.3l-0.6,1c-0.1,0.1-0.1,0.1-0.2,0.1s-0.1,0-0.2-0.1l-1.3-1L48,28
		c0,0.1,0,0.1-0.1,0.2c-0.1,0.1-0.1,0.1-0.2,0.1h-1.2c-0.1,0-0.3-0.1-0.3-0.3c0,0,0,0,0-0.1l0.2-1.6l-1.3,1
		c-0.1,0.1-0.1,0.1-0.2,0.1c-0.1,0-0.1-0.1-0.2-0.1l-0.6-1c0-0.1,0-0.1,0-0.2c0-0.1,0.1-0.1,0.1-0.1l1.5-0.6l-1.5-0.6
		c-0.1,0-0.1-0.1-0.1-0.2c0-0.1,0-0.1,0-0.2l0.6-1c0.1-0.1,0.1-0.1,0.2-0.1c0.1,0,0.1,0,0.2,0.1l1.3,1l-0.2-1.6c0-0.1,0-0.1,0.1-0.2
		c0.1-0.1,0.1-0.1,0.2-0.1h1.2c0.1,0,0.1,0.1,0.2,0.1c0.1,0.1,0.1,0.1,0.1,0.2l-0.2,1.6l1.3-1c0.1-0.1,0.1-0.1,0.2-0.1
		c0.1,0,0.1,0.1,0.2,0.1l0.6,1c0.1,0.1,0.1,0.3-0.1,0.4c0,0,0,0-0.1,0l-1.5,0.6l1.5,0.6C50,25.9,50,26,50,26
		C50.1,26.1,50.1,26.2,50,26.3L50,26.3z M52.5,30.4c-0.6,0-1.2-0.5-1.1-1.2c0-0.6,0.5-1.2,1.2-1.1c0.6,0,1.1,0.5,1.1,1.2
		C53.6,29.9,53.1,30.4,52.5,30.4L52.5,30.4z M60.8,26.3l-0.6,1c-0.1,0.1-0.1,0.1-0.2,0.1c-0.1,0-0.1,0-0.2-0.1l-1.3-1l0.2,1.6
		c0,0.1,0,0.1-0.1,0.2s-0.1,0.1-0.2,0.1h-1.2c-0.1,0-0.1,0-0.2-0.1c-0.1-0.1-0.1-0.1-0.1-0.2l0.2-1.6l-1.3,1
		c-0.1,0.1-0.1,0.1-0.2,0.1c-0.1,0-0.1-0.1-0.2-0.1l-0.6-1c0-0.1,0-0.1,0-0.2c0-0.1,0.1-0.1,0.1-0.1l1.5-0.6l-1.5-0.6
		c-0.1,0-0.1-0.1-0.1-0.2c0-0.1,0-0.1,0-0.2l0.6-1c0.1-0.1,0.1-0.1,0.2-0.1c0.1,0,0.1,0,0.2,0.1l1.3,1l-0.2-1.6c0-0.1,0-0.1,0.1-0.2
		c0.1-0.1,0.1-0.1,0.2-0.1h1.2c0.1,0,0.1,0.1,0.2,0.1c0.1,0.1,0.1,0.1,0.1,0.2l-0.2,1.6l1.3-1c0.1-0.1,0.1-0.1,0.2-0.1
		c0.1,0,0.1,0.1,0.2,0.1l0.6,1c0,0.1,0,0.1,0,0.2s-0.1,0.1-0.1,0.1l-1.5,0.6l1.5,0.6c0.1,0,0.1,0.1,0.1,0.1
		C60.8,26.1,60.8,26.2,60.8,26.3L60.8,26.3z"/>
	<path fill="none" d="M73.1,48.7c0.6,0,1.2-0.5,1.2-1.2V3.6c0-0.6-0.5-1.2-1.2-1.2H10.9c-0.6,0-1.2,0.5-1.2,1.2v43.8
		c0,0.6,0.6,1.2,1.2,1.2L73.1,48.7L73.1,48.7z M13.4,46.3c-0.6,0-1.2-0.5-1.2-1.2v-39c0-0.6,0.5-1.2,1.2-1.2h57.2
		c0.6,0,1.2,0.6,1.2,1.2v39c0,0.6-0.5,1.2-1.2,1.2H13.4z"/>
	<g>
		<path fill="#7542E5" d="M76.7,47.4V3.6c0-2-1.6-3.6-3.6-3.6H10.9c-2,0-3.6,1.6-3.6,3.6v43.8c0,0.8,0.3,1.7,0.8,2.3L0,51.1v6.1h84
			v-6.1l-8.2-1.4C76.4,49.1,76.7,48.3,76.7,47.4z M10.9,48.7c-0.6,0-1.2-0.5-1.2-1.2V3.6c0-0.6,0.5-1.2,1.2-1.2h62.1
			c0.6,0,1.2,0.5,1.2,1.2v43.8c0,0.6-0.6,1.2-1.2,1.2L10.9,48.7L10.9,48.7z M81.5,54.7H2.5v-1.6l12.4-2.1h54.4l12.4,2.1V54.7z"/>
		<path fill="#7542E5" d="M71.8,45v-39c0-0.6-0.5-1.2-1.2-1.2H13.4c-0.6,0-1.2,0.6-1.2,1.2v39c0,0.6,0.5,1.2,1.2,1.2h57.2
			C71.3,46.3,71.8,45.7,71.8,45z M13.4,6.1h57.2v1.8H13.4v1.2h57.2V45H13.4V6.1z"/>
		<path fill="#7542E5" d="M46.3,52.9h-8.5c-0.3,0-0.6,0.3-0.6,0.6s0.3,0.6,0.6,0.6h8.5c0.3,0,0.6-0.3,0.6-0.6S46.6,52.9,46.3,52.9
			L46.3,52.9z"/>
		<path fill="#7542E5" d="M48.4,25.3l1.5-0.6c0.1-0.1,0.2-0.2,0.1-0.3v-0.1l-0.6-1c-0.1-0.1-0.1-0.1-0.2-0.1s-0.1,0-0.2,0.1l-1.3,1
			l0.2-1.6c0-0.1,0-0.1-0.1-0.2c-0.1-0.1-0.1-0.1-0.2-0.1h-1.2c-0.1,0-0.1,0.1-0.2,0.1c-0.1,0.1-0.1,0.1-0.1,0.2l0.2,1.6l-1.3-1
			c-0.1-0.1-0.1-0.1-0.2-0.1c-0.1,0-0.1,0.1-0.2,0.1l-0.6,1c0,0.1,0,0.1,0,0.2s0.1,0.1,0.1,0.2l1.5,0.6L44.3,26
			c-0.1,0-0.1,0.1-0.1,0.1c0,0.1,0,0.1,0,0.2l0.6,1c0.1,0.1,0.1,0.1,0.2,0.1c0.1,0,0.1,0,0.2-0.1l1.3-1L46.3,28
			c0,0.1,0.1,0.3,0.2,0.3c0,0,0,0,0.1,0h1.2c0.1,0,0.1-0.1,0.2-0.1c0.1-0.1,0.1-0.1,0.1-0.2l-0.2-1.6l1.3,1c0.1,0.1,0.1,0.1,0.2,0.1
			c0.1,0,0.1-0.1,0.2-0.1l0.6-1c0-0.1,0-0.1,0-0.2c0-0.1-0.1-0.1-0.1-0.1L48.4,25.3z"/>
		<path fill="#7542E5" d="M37.6,25.3l1.5-0.6c0.1-0.1,0.2-0.2,0.1-0.4l0,0l-0.6-1c-0.1-0.1-0.1-0.1-0.2-0.1c-0.1,0-0.1,0-0.2,0.1
			l-1.3,1l0.2-1.6c0-0.1,0-0.1-0.1-0.2s-0.1-0.1-0.2-0.1h-1.2c-0.1,0-0.1,0.1-0.2,0.1c-0.1,0.1-0.1,0.1-0.1,0.2l0.2,1.6l-1.3-1
			c-0.1-0.1-0.1-0.1-0.2-0.1c-0.1,0-0.1,0.1-0.2,0.1l-0.6,1c0,0.1,0,0.1,0,0.2s0.1,0.1,0.1,0.2l1.5,0.6L33.5,26
			c-0.1,0-0.1,0.1-0.1,0.1c0,0.1,0,0.1,0,0.2l0.6,1c0.1,0.1,0.1,0.1,0.2,0.1c0.1,0,0.1,0,0.2-0.1l1.3-1L35.5,28
			c0,0.1,0.1,0.3,0.2,0.3c0,0,0,0,0.1,0h1.2c0.1,0,0.1-0.1,0.2-0.1c0.1-0.1,0.1-0.1,0.1-0.2L37,26.5l1.3,1c0.1,0.1,0.1,0.1,0.2,0.1
			c0.1,0,0.1-0.1,0.2-0.1l0.6-1c0-0.1,0-0.1,0-0.2c0-0.1-0.1-0.1-0.1-0.1L37.6,25.3z"/>
		<path fill="#7542E5" d="M26.8,25.3l1.5-0.6c0.1,0,0.1-0.1,0.1-0.1c0-0.1,0-0.1,0-0.2l-0.6-1c-0.1-0.1-0.1-0.1-0.2-0.1
			s-0.1,0-0.2,0.1l-1.3,1l0.2-1.6c0-0.1,0-0.1-0.1-0.2c-0.1-0.1-0.1-0.1-0.2-0.1h-1.2c-0.1,0-0.1,0.1-0.2,0.1
			c-0.1,0.1-0.1,0.1-0.1,0.2l0.2,1.6l-1.3-1c-0.1-0.1-0.3-0.1-0.4,0.1c0,0,0,0,0,0.1l-0.6,1c0,0.1,0,0.1,0,0.2s0.1,0.1,0.1,0.2
			l1.5,0.6l-1.5,0.6c-0.1,0-0.1,0.1-0.1,0.1c0,0.1,0,0.1,0,0.2l0.6,1c0.1,0.1,0.3,0.2,0.4,0.1l0,0l1.3-1l-0.2,1.6
			c0,0.1,0,0.1,0.1,0.2c0.1,0.1,0.1,0.1,0.2,0.1H26c0.1,0,0.1-0.1,0.2-0.1c0.1-0.1,0.1-0.1,0.1-0.2l-0.2-1.6l1.3,1
			c0.1,0.1,0.1,0.1,0.2,0.1s0.1-0.1,0.2-0.1l0.6-1c0-0.1,0-0.1,0-0.2c0-0.1-0.1-0.1-0.1-0.1L26.8,25.3z"/>
		<path fill="#7542E5" d="M59.2,25.3l1.5-0.6c0.1,0,0.1-0.1,0.1-0.1c0-0.1,0-0.1,0-0.2l-0.6-1c-0.1-0.1-0.1-0.1-0.2-0.1
			c-0.1,0-0.1,0-0.2,0.1l-1.3,1l0.2-1.6c0-0.1,0-0.1-0.1-0.2c-0.1-0.1-0.1-0.1-0.2-0.1h-1.2c-0.1,0-0.1,0.1-0.2,0.1
			c-0.1,0.1-0.1,0.1-0.1,0.2l0.2,1.6l-1.3-1c-0.1-0.1-0.1-0.1-0.2-0.1c-0.1,0-0.1,0.1-0.2,0.1l-0.6,1c0,0.1,0,0.1,0,0.2
			c0,0.1,0.1,0.1,0.1,0.2l1.5,0.6L55.1,26c-0.1,0-0.1,0.1-0.1,0.1c0,0.1,0,0.1,0,0.2l0.6,1c0.1,0.1,0.1,0.1,0.2,0.1
			c0.1,0,0.1,0,0.2-0.1l1.3-1l-0.2,1.6c0,0.1,0,0.1,0.1,0.2c0.1,0.1,0.1,0.1,0.2,0.1h1.2c0.1,0,0.1-0.1,0.2-0.1
			c0.1-0.1,0.1-0.1,0.1-0.2l-0.2-1.6l1.3,1c0.1,0.1,0.1,0.1,0.2,0.1c0.1,0,0.1-0.1,0.2-0.1l0.6-1c0-0.1,0-0.1,0-0.2S60.8,26,60.7,26
			L59.2,25.3z"/>
		<circle fill="#7542E5" cx="30.9" cy="29.3" r="1.2"/>
		<circle fill="#7542E5" cx="41.7" cy="29.3" r="1.2"/>
		<circle fill="#7542E5" cx="52.5" cy="29.3" r="1.2"/>
	</g>
</g>
</svg>
