<svg id="a3eaa534-1af5-444f-a742-1ad08674765e" data-name="Layer 1" xmlns="http://www.w3.org/2000/svg" xmlns:xlink="http://www.w3.org/1999/xlink" viewBox="0 0 36.52 47.5"><defs><linearGradient id="a8d50a1c-ea1b-4eb4-963e-4b0065ec6283" x1="-366.04" y1="325.02" x2="-366.4" y2="324.2" gradientTransform="matrix(36.52, 0, 0, -47.5, 13390.11, 15440.13)" gradientUnits="userSpaceOnUse"><stop offset="0" stop-color="#ff9640"/><stop offset="0.6" stop-color="#fc4055"/><stop offset="1" stop-color="#e31587"/></linearGradient><linearGradient id="f4abcb62-311b-46d2-9343-6bc8ca0c215e" x1="-366.04" y1="325.02" x2="-366.4" y2="324.2" gradientTransform="matrix(36.52, 0, 0, -47.5, 13390.11, 15440.13)" gradientUnits="userSpaceOnUse"><stop offset="0" stop-color="#fff36e" stop-opacity="0.8"/><stop offset="0.09" stop-color="#fff36e" stop-opacity="0.7"/><stop offset="0.75" stop-color="#fff36e" stop-opacity="0"/></linearGradient><linearGradient id="fc6e127c-0988-4d27-bbad-5bf835f75372" x1="-353.47" y1="318.84" x2="-353.89" y2="319.7" gradientTransform="matrix(16.56, 0, 0, -24.93, 5876.53, 7981.5)" gradientUnits="userSpaceOnUse"><stop offset="0" stop-color="#b833e1"/><stop offset="0.37" stop-color="#9059ff"/><stop offset="0.61" stop-color="#5b6df8"/><stop offset="1" stop-color="#0090ed"/></linearGradient><linearGradient id="a56a8177-bd41-4f5c-be49-4073f7387023" x1="-332.68" y1="297.85" x2="-333.13" y2="298.44" gradientTransform="matrix(8.67, 0, 0, -8.74, 2906.2, 2640.06)" gradientUnits="userSpaceOnUse"><stop offset="0" stop-color="#722291" stop-opacity="0.5"/><stop offset="0.5" stop-color="#722291" stop-opacity="0"/></linearGradient></defs><title>fpn-logo</title><path d="M22.42,25.66h0Zm9.07-20A18.25,18.25,0,0,0,18.21,0C8,0,0,8.2,0,18.66c0,9.7,14.8,26.2,16.49,28.06a2.39,2.39,0,0,0,4.05-.91A2.47,2.47,0,0,0,20,43.45c-.05-.05-3.93-4.34-7.77-9.61-6.5-9-7.47-13.36-7.47-15.18A13.5,13.5,0,0,1,28,9a13.31,13.31,0,0,1,3.67,9.79c-.14,3.84-4,9.93-7.68,14.6L22.7,34.78a3,3,0,0,1-4.27-.63c1,1.25,2.13,2.59,3.39,4a3,3,0,0,0,4.19.28,2.27,2.27,0,0,0,.31-.31C28.67,35.42,36.24,26,36.5,19A18.16,18.16,0,0,0,31.49,5.65Zm-11,17.25V23a2.84,2.84,0,0,1,.09-.42A1.89,1.89,0,0,0,20.48,22.9Z" transform="translate(0 0)" fill="url(#a8d50a1c-ea1b-4eb4-963e-4b0065ec6283)"/><path d="M22.42,25.66h0Zm9.07-20A18.25,18.25,0,0,0,18.21,0C8,0,0,8.2,0,18.66c0,9.7,14.8,26.2,16.49,28.06a2.39,2.39,0,0,0,4.05-.91A2.47,2.47,0,0,0,20,43.45c-.05-.05-3.93-4.34-7.77-9.61-6.5-9-7.47-13.36-7.47-15.18A13.5,13.5,0,0,1,28,9a13.31,13.31,0,0,1,3.67,9.79c-.14,3.84-4,9.93-7.68,14.6L22.7,34.78a3,3,0,0,1-4.27-.63c1,1.25,2.13,2.59,3.39,4a3,3,0,0,0,4.19.28,2.27,2.27,0,0,0,.31-.31C28.67,35.42,36.24,26,36.5,19A18.16,18.16,0,0,0,31.49,5.65Zm-11,17.25V23a2.84,2.84,0,0,1,.09-.42A1.89,1.89,0,0,0,20.48,22.9Z" transform="translate(0 0)" fill="url(#f4abcb62-311b-46d2-9343-6bc8ca0c215e)"/><path d="M22.7,34.78a3,3,0,0,1-4.27-.64l-.18-.22c-6.81-8.51-8-12.65-8.27-14.14a8.21,8.21,0,0,1,8.47-9.29,8.08,8.08,0,0,1,5.88,2.81A9,9,0,0,1,26.43,20a9,9,0,0,1-1.65,4.68,2.37,2.37,0,0,1-3.31.56,2.34,2.34,0,0,1-.85-1.09A2.42,2.42,0,0,1,21,21.7a4.77,4.77,0,0,0,.65-2.17,4.06,4.06,0,0,0-1-3A3.33,3.33,0,0,0,18.3,15.3a3.57,3.57,0,0,0-2.76,1.15,3.29,3.29,0,0,0-.82,2.68c.36,2.67,4.84,8.94,9.29,14.22L22.7,34.78Z" transform="translate(0 0)" fill="url(#fc6e127c-0988-4d27-bbad-5bf835f75372)"/><path d="M15.36,30.12c.92,1.3,1.88,2.56,2.89,3.8l.18.22a3,3,0,0,0,4.27.64L24,33.39q-2.75-3.27-5.24-6.72l-3.43,3.45Z" transform="translate(0 0)" fill="url(#a56a8177-bd41-4f5c-be49-4073f7387023)"/></svg>