<svg id="bdb9ff55-4393-47bd-bff5-3f66e7fb9e44" data-name="Layer 1" xmlns="http://www.w3.org/2000/svg" xmlns:xlink="http://www.w3.org/1999/xlink" viewBox="0 0 662.43 662.94"><defs><linearGradient id="e61ea5d0-6ac6-4d5c-ae6d-6c92157dc02d" x1="821.91" y1="1647.1" x2="785.65" y2="1584.31" gradientTransform="matrix(8.29, 0, 0, -8.29, -5413.84, 14644.29)" gradientUnits="userSpaceOnUse"><stop offset="0" stop-color="#ff980e"/><stop offset="0.11" stop-color="#ff851b"/><stop offset="0.57" stop-color="#ff3750"/><stop offset="0.8" stop-color="#f92261"/><stop offset="1" stop-color="#f5156c"/></linearGradient><linearGradient id="ae7bf850-8d55-4ab2-a6c1-4f22566ee548" x1="821.59" y1="1657.36" x2="791.96" y2="1587.53" gradientTransform="matrix(8.29, 0, 0, -8.29, -5413.84, 14644.29)" gradientUnits="userSpaceOnUse"><stop offset="0" stop-color="#fff261" stop-opacity="0.8"/><stop offset="0.06" stop-color="#fff261" stop-opacity="0.68"/><stop offset="0.19" stop-color="#fff261" stop-opacity="0.48"/><stop offset="0.31" stop-color="#fff261" stop-opacity="0.31"/><stop offset="0.42" stop-color="#fff261" stop-opacity="0.17"/><stop offset="0.53" stop-color="#fff261" stop-opacity="0.08"/><stop offset="0.63" stop-color="#fff261" stop-opacity="0.02"/><stop offset="0.72" stop-color="#fff261" stop-opacity="0"/></linearGradient><linearGradient id="f7578917-d317-477b-8b05-1c1e9d29fbfc" x1="835.89" y1="1580.7" x2="835.89" y2="1628.26" gradientTransform="matrix(8.29, 0, 0, -8.29, -5413.84, 14644.29)" gradientUnits="userSpaceOnUse"><stop offset="0" stop-color="#0090ed"/><stop offset="0.5" stop-color="#9059ff"/><stop offset="0.81" stop-color="#b833e1"/></linearGradient><linearGradient id="b55ffa87-6c8b-4de7-a207-144ff41524c9" x1="782.19" y1="1578.07" x2="812.8" y2="1630.16" gradientTransform="matrix(8.29, 0, 0, -8.29, -5413.84, 14644.29)" gradientUnits="userSpaceOnUse"><stop offset="0.02" stop-color="#0090ed"/><stop offset="0.49" stop-color="#9059ff"/><stop offset="1" stop-color="#b833e1"/></linearGradient><linearGradient id="a507863a-16e2-4047-af91-edf42c659397" x1="786.18" y1="1598.14" x2="768.33" y2="1615.99" gradientTransform="matrix(8.29, 0, 0, -8.29, -5413.84, 14644.29)" gradientUnits="userSpaceOnUse"><stop offset="0.14" stop-color="#592acb" stop-opacity="0"/><stop offset="0.33" stop-color="#542bc8" stop-opacity="0.03"/><stop offset="0.53" stop-color="#462fbf" stop-opacity="0.11"/><stop offset="0.74" stop-color="#2f35b1" stop-opacity="0.25"/><stop offset="0.95" stop-color="#0f3d9c" stop-opacity="0.44"/><stop offset="1" stop-color="#054096" stop-opacity="0.5"/></linearGradient><linearGradient id="a80a0835-9175-460a-b19e-d5d02c0f69ec" x1="840.13" y1="1617.86" x2="831.14" y2="1602.3" gradientTransform="matrix(8.29, 0, 0, -8.29, -5413.84, 14644.29)" gradientUnits="userSpaceOnUse"><stop offset="0" stop-color="#722291" stop-opacity="0.5"/><stop offset="0.5" stop-color="#b833e1" stop-opacity="0"/></linearGradient><linearGradient id="b2690bc7-503b-48ec-af29-c07ec290c2dd" x1="821.15" y1="1595.59" x2="810.71" y2="1583.82" gradientTransform="matrix(8.29, 0, 0, -8.29, -5413.84, 14644.29)" gradientUnits="userSpaceOnUse"><stop offset="0" stop-color="#054096" stop-opacity="0.5"/><stop offset="0.03" stop-color="#0f3d9c" stop-opacity="0.44"/><stop offset="0.17" stop-color="#2f35b1" stop-opacity="0.25"/><stop offset="0.3" stop-color="#462fbf" stop-opacity="0.11"/><stop offset="0.43" stop-color="#542bc8" stop-opacity="0.03"/><stop offset="0.56" stop-color="#592acb" stop-opacity="0"/></linearGradient></defs><title>fx-lockwise</title><path d="M1552.3,1168.93a2587.73,2587.73,0,0,0-220.56-220.56,128.17,128.17,0,0,0-163.22,0A2588.13,2588.13,0,0,0,948.13,1169a128.17,128.17,0,0,0,0,163.22,2587.07,2587.07,0,0,0,220.55,220.39,128.17,128.17,0,0,0,163.39-.16c40.6-36.62,77.64-72.09,113.35-108.29a36.87,36.87,0,0,0-2.82-50.54L1333.07,1291.3a125.79,125.79,0,0,0,42.09-99.42,127.61,127.61,0,0,0-119.31-121.3,126.56,126.56,0,0,0-99.12,213.35q3.58,3.79,7.48,7.29l-39.6,35.87a32,32,0,1,0,42.75,47.73l43.91-39.77,1.08-1.08a60,60,0,0,0,17.4-45,60.82,60.82,0,0,0-21-43.91,62.8,62.8,0,1,1,88.49-7.55,61.89,61.89,0,0,1-7.55,7.55,61.3,61.3,0,0,0-21.7,44.16,60.06,60.06,0,0,0,17.4,44.74l.82.83,92,86.17c-28.17,27.84-57.5,55.51-88.65,83.85a65.46,65.46,0,0,1-78.46,0A2546,2546,0,0,1,995.69,1289.4a65.45,65.45,0,0,1,0-78.47,2522.57,2522.57,0,0,1,215.42-215.42,65.45,65.45,0,0,1,78.29,0,2522.57,2522.57,0,0,1,215.42,215.42,65.46,65.46,0,0,1,0,78.3c-11,12.43-22,24.86-33.14,36.21a31.93,31.93,0,0,0,47,43.25c10.94-11.85,22.21-24.28,33.14-37a128.17,128.17,0,0,0,.5-162.81Z" transform="translate(-918.79 -919.03)" fill="url(#e61ea5d0-6ac6-4d5c-ae6d-6c92157dc02d)"/><path d="M1552.3,1168.93a2587.73,2587.73,0,0,0-220.56-220.56,128.17,128.17,0,0,0-163.22,0A2588.13,2588.13,0,0,0,948.13,1169a128.17,128.17,0,0,0,0,163.22,2587.07,2587.07,0,0,0,220.55,220.39,128.17,128.17,0,0,0,163.39-.16c40.6-36.62,77.64-72.09,113.35-108.29a36.87,36.87,0,0,0-2.82-50.54L1333.07,1291.3a125.79,125.79,0,0,0,42.09-99.42,127.61,127.61,0,0,0-119.31-121.3,126.56,126.56,0,0,0-99.12,213.35q3.58,3.79,7.48,7.29l-39.6,35.87a32,32,0,1,0,42.75,47.73l43.91-39.77,1.08-1.08a60,60,0,0,0,17.4-45,60.82,60.82,0,0,0-21-43.91,62.8,62.8,0,1,1,88.49-7.55,61.89,61.89,0,0,1-7.55,7.55,61.3,61.3,0,0,0-21.7,44.16,60.06,60.06,0,0,0,17.4,44.74l.82.83,92,86.17c-28.17,27.84-57.5,55.51-88.65,83.85a65.46,65.46,0,0,1-78.46,0A2546,2546,0,0,1,995.69,1289.4a65.45,65.45,0,0,1,0-78.47,2522.57,2522.57,0,0,1,215.42-215.42,65.45,65.45,0,0,1,78.29,0,2522.57,2522.57,0,0,1,215.42,215.42,65.46,65.46,0,0,1,0,78.3c-11,12.43-22,24.86-33.14,36.21a31.93,31.93,0,0,0,47,43.25c10.94-11.85,22.21-24.28,33.14-37a128.17,128.17,0,0,0,.5-162.81Z" transform="translate(-918.79 -919.03)" fill="url(#ae7bf850-8d55-4ab2-a6c1-4f22566ee548)"/><path d="M1504.58,1211.35a65.45,65.45,0,0,1,0,78.29c-11.11,12.43-22.13,24.86-33.15,36.21a31.9,31.9,0,0,0,44.3,45.91,33,33,0,0,0,2.6-2.82c10.94-11.77,22.2-24.2,33.14-37,39.94-44.16-47-120.72-47-120.72Z" transform="translate(-918.79 -919.03)" fill="url(#f7578917-d317-477b-8b05-1c1e9d29fbfc)"/><path d="M1378.22,1420.89c-28.17,27.92-57.5,55.51-88.65,83.93a65.46,65.46,0,0,1-78.46,0A2546,2546,0,0,1,995.69,1289.4a65.45,65.45,0,0,1,0-78.47l-14.5,16.57a106.88,106.88,0,0,0,1.65,143.09,2565.85,2565.85,0,0,0,185.84,182,128.17,128.17,0,0,0,163.39-.16c23.2-20.88,48.89-45,71.84-67.11a27.93,27.93,0,0,0,.87-39.48c-.28-.3-.58-.59-.87-.87Z" transform="translate(-918.79 -919.03)" fill="url(#b55ffa87-6c8b-4de7-a207-144ff41524c9)"/><path d="M983.26,1370.92c24.19,26.27,48.3,51.37,72.91,75.9l9.94-16.16c8.29-13.25,16.57-26.1,25.44-38.94-31.9-32.48-63.39-66-95.7-101.91a65.46,65.46,0,0,1,0-78.46l-14.42,16.57a106.88,106.88,0,0,0,1.5,142.67Z" transform="translate(-918.79 -919.03)" opacity="0.9" fill="url(#a507863a-16e2-4047-af91-edf42c659397)" style="isolation:isolate"/><path d="M1504.58,1211.35a65.45,65.45,0,0,1,0,78.29c-11.11,12.43-22.13,24.86-33.15,36.21a31.9,31.9,0,0,0,44.3,45.91,33,33,0,0,0,2.6-2.82c10.94-11.77,22.2-24.2,33.14-37,39.94-44.16-47-120.72-47-120.72Z" transform="translate(-918.79 -919.03)" fill="url(#a80a0835-9175-460a-b19e-d5d02c0f69ec)"/><path d="M1403.49,1445l-25.27-24c-28.17,27.84-57.5,55.51-88.82,83.85a63.82,63.82,0,0,1-50.29,12.18v64.37c3.65,0,7.29.5,11,.5a123.71,123.71,0,0,0,81.78-29.49c23.2-20.88,48.88-45,71.83-67.12a27.83,27.83,0,0,0,.75-39.36c-.32-.34-.66-.67-1-1Z" transform="translate(-918.79 -919.03)" opacity="0.9" fill="url(#b2690bc7-503b-48ec-af29-c07ec290c2dd)" style="isolation:isolate"/></svg>