<svg id="a2e91ae9-0cc3-4aec-90e3-ff31da627f85" data-name="Layer 1" xmlns="http://www.w3.org/2000/svg" xmlns:xlink="http://www.w3.org/1999/xlink" viewBox="0 0 80.02 79.86"><defs><radialGradient id="b768e516-4ebb-4748-8ae5-3be338f0e972" cx="-1186.91" cy="599.68" r="90.78" gradientTransform="matrix(1, 0, 0, -1, 1258.44, 616.06)" gradientUnits="userSpaceOnUse"><stop offset="0" stop-color="#fff36e"/><stop offset="0.5" stop-color="#fc4055"/><stop offset="1" stop-color="#e31587"/></radialGradient><radialGradient id="e14aeadf-8afd-43d1-97a2-9ba900524693" cx="-1251.81" cy="595.92" r="53.73" gradientTransform="matrix(1, 0, 0, -1, 1258.44, 616.06)" gradientUnits="userSpaceOnUse"><stop offset="0" stop-color="#c60084"/><stop offset="1" stop-color="#fc4055" stop-opacity="0"/></radialGradient><radialGradient id="a10512c5-0d57-46cc-b22d-1b5b7cd343a1" cx="-1179.15" cy="604.84" r="106.6" gradientTransform="matrix(1, 0, 0, -1, 1258.44, 616.06)" gradientUnits="userSpaceOnUse"><stop offset="0" stop-color="#ffde67" stop-opacity="0.6"/><stop offset="0.09" stop-color="#ffd966" stop-opacity="0.58"/><stop offset="0.2" stop-color="#ffca65" stop-opacity="0.52"/><stop offset="0.32" stop-color="#feb262" stop-opacity="0.43"/><stop offset="0.45" stop-color="#fe8f5e" stop-opacity="0.3"/><stop offset="0.57" stop-color="#fd6459" stop-opacity="0.14"/><stop offset="0.66" stop-color="#fc4055" stop-opacity="0"/></radialGradient><radialGradient id="ac489aa5-896c-41f3-839d-7ea78099e43f" cx="42.28" cy="37.5" r="137.52" gradientTransform="matrix(1, 0, 0, -1, 0, 81.91)" gradientUnits="userSpaceOnUse"><stop offset="0.15" stop-color="#810220"/><stop offset="0.17" stop-color="#920b27" stop-opacity="0.86"/><stop offset="0.22" stop-color="#cb2740" stop-opacity="0.4"/><stop offset="0.25" stop-color="#ef394f" stop-opacity="0.11"/><stop offset="0.27" stop-color="#fc4055" stop-opacity="0"/></radialGradient><radialGradient id="f5da31d1-51da-4813-af86-db6dc695f9ec" cx="31.88" cy="39.23" r="137.52" gradientTransform="matrix(1, 0, 0, -1, 0, 81.91)" gradientUnits="userSpaceOnUse"><stop offset="0.11" stop-color="#810220"/><stop offset="0.13" stop-color="#920b27" stop-opacity="0.86"/><stop offset="0.2" stop-color="#cb2740" stop-opacity="0.4"/><stop offset="0.26" stop-color="#ef394f" stop-opacity="0.11"/><stop offset="0.28" stop-color="#fc4055" stop-opacity="0"/></radialGradient><linearGradient id="bd6450d5-aa7b-4c2d-b6e5-c55fcea7e42c" x1="-1212.61" y1="607.1" x2="-1189.05" y2="566.3" gradientTransform="matrix(1, 0, 0, -1, 1258.44, 614.89)" gradientUnits="userSpaceOnUse"><stop offset="0" stop-color="#ffbd4f"/><stop offset="0.51" stop-color="#ff9640" stop-opacity="0"/></linearGradient><radialGradient id="bb58d36e-6ffb-4ed5-9c8f-87d046cebf2b" cx="-1240.76" cy="148.64" r="88.86" gradientTransform="matrix(0.96, 0, 0, -0.96, 1259.34, 154.94)" gradientUnits="userSpaceOnUse"><stop offset="0" stop-color="#ff9640"/><stop offset="0.8" stop-color="#fc4055"/></radialGradient><radialGradient id="a2327a51-46e7-4bbc-b41a-07e24ae9afde" cx="-1240.76" cy="148.64" r="88.86" gradientTransform="matrix(0.96, 0, 0, -0.96, 1259.34, 154.94)" gradientUnits="userSpaceOnUse"><stop offset="0.08" stop-color="#ffde67"/><stop offset="0.15" stop-color="#ffdc66" stop-opacity="0.97"/><stop offset="0.25" stop-color="#ffd562" stop-opacity="0.88"/><stop offset="0.37" stop-color="#ffcb5d" stop-opacity="0.73"/><stop offset="0.51" stop-color="#ffbc55" stop-opacity="0.53"/><stop offset="0.67" stop-color="#ffaa4b" stop-opacity="0.28"/><stop offset="0.82" stop-color="#ff9640" stop-opacity="0"/></radialGradient><radialGradient id="ff4866ae-ebf1-4e31-b78b-2228d9826629" cx="39.09" cy="575.4" r="41.79" gradientTransform="matrix(0.25, 0.97, 1.01, -0.26, -541.45, 149.73)" gradientUnits="userSpaceOnUse"><stop offset="0.36" stop-color="#fc4055"/><stop offset="0.44" stop-color="#fd604d" stop-opacity="0.63"/><stop offset="0.55" stop-color="#fe8644" stop-opacity="0.18"/><stop offset="0.59" stop-color="#ff9640" stop-opacity="0"/></radialGradient><radialGradient id="ff8babfe-fee8-452c-8acd-3805a8fa0acf" cx="42.74" cy="39.81" r="41.79" gradientTransform="matrix(1, 0, 0, -1, 0, 81.91)" gradientUnits="userSpaceOnUse"><stop offset="0.22" stop-color="#fc4055" stop-opacity="0.8"/><stop offset="0.27" stop-color="#fd5251" stop-opacity="0.63"/><stop offset="0.41" stop-color="#fe8345" stop-opacity="0.18"/><stop offset="0.47" stop-color="#ff9640" stop-opacity="0"/></radialGradient><radialGradient id="b4fe9342-448b-4b06-943b-5df6aaf21d96" cx="-1223.02" cy="158.68" r="150.2" gradientTransform="matrix(0.96, 0, 0, -0.96, 1259.34, 154.94)" gradientUnits="userSpaceOnUse"><stop offset="0.05" stop-color="#fff36e"/><stop offset="0.46" stop-color="#ff9640"/><stop offset="0.64" stop-color="#ff9640"/></radialGradient><linearGradient id="a3f6be1c-ae1d-4f0a-81ba-7e6ace148683" x1="59.03" y1="74.93" x2="18.13" y2="4.09" gradientTransform="matrix(1, 0, 0, -1, 0, 82)" gradientUnits="userSpaceOnUse"><stop offset="0" stop-color="#fff36e" stop-opacity="0.8"/><stop offset="0.09" stop-color="#fff36e" stop-opacity="0.7"/><stop offset="0.75" stop-color="#fff36e" stop-opacity="0"/></linearGradient><linearGradient id="e859c31c-880c-432b-95bc-d11711c7eeb6" x1="40.59" y1="82.67" x2="62.3" y2="19.8" gradientTransform="matrix(1, 0, 0, -1, 0, 82)" gradientUnits="userSpaceOnUse"><stop offset="0" stop-color="#b833e1"/><stop offset="0.37" stop-color="#9059ff"/><stop offset="0.61" stop-color="#5b6df8"/><stop offset="1" stop-color="#0090ed"/></linearGradient><linearGradient id="b6059726-c009-4e5c-bc66-522e89d9c6b6" x1="-1230.73" y1="614.56" x2="-1190.37" y2="574.2" gradientTransform="matrix(1, 0, 0, -1, 1258.44, 614.89)" gradientUnits="userSpaceOnUse"><stop offset="0.81" stop-color="#722291" stop-opacity="0"/><stop offset="1" stop-color="#592acb" stop-opacity="0.5"/></linearGradient></defs><title>fx-master-logo</title><path d="M71.94,15.7A39.44,39.44,0,0,0,41.59,0C32.3-.18,25.88,2.61,22.25,4.86,27.11,2,34.14.44,40.29.52c15.83.2,32.84,11,35.36,30.41,2.9,22.31-12.64,40.93-34.49,41C17.11,72,2.49,50.69,6.31,31.56a20,20,0,0,1,.41-2.78,37.85,37.85,0,0,1,4.2-14c-2.77,1.43-6.3,6-8,10.16A41.49,41.49,0,0,0,.28,45.1c.06.52.12,1,.19,1.55A40.06,40.06,0,1,0,71.94,15.7Z" transform="translate(0.02 0)" fill="url(#b768e516-4ebb-4748-8ae5-3be338f0e972)"/><path d="M71.94,15.7A39.44,39.44,0,0,0,41.59,0C32.3-.18,25.88,2.61,22.25,4.86,27.11,2,34.14.44,40.29.52c15.83.2,32.84,11,35.36,30.41,2.9,22.31-12.64,40.93-34.49,41C17.11,72,2.49,50.69,6.31,31.56a20,20,0,0,1,.41-2.78,37.85,37.85,0,0,1,4.2-14c-2.77,1.43-6.3,6-8,10.16A41.49,41.49,0,0,0,.28,45.1c.06.52.12,1,.19,1.55A40.06,40.06,0,1,0,71.94,15.7Z" transform="translate(0.02 0)" opacity="0.67" fill="url(#e14aeadf-8afd-43d1-97a2-9ba900524693)" style="isolation:isolate"/><path d="M71.94,15.7A39.44,39.44,0,0,0,41.59,0C32.3-.18,25.88,2.61,22.25,4.86,27.11,2,34.14.44,40.29.52c15.83.2,32.84,11,35.36,30.41,2.9,22.31-12.64,40.93-34.49,41C17.11,72,2.49,50.69,6.31,31.56a20,20,0,0,1,.41-2.78,37.85,37.85,0,0,1,4.2-14c-2.77,1.43-6.3,6-8,10.16A41.49,41.49,0,0,0,.28,45.1c.06.52.12,1,.19,1.55A40.06,40.06,0,1,0,71.94,15.7Z" transform="translate(0.02 0)" fill="url(#a10512c5-0d57-46cc-b22d-1b5b7cd343a1)"/><path d="M71.94,15.7A39.44,39.44,0,0,0,41.59,0C32.3-.18,25.88,2.61,22.25,4.86,27.11,2,34.14.44,40.29.52c15.83.2,32.84,11,35.36,30.41,2.9,22.31-12.64,40.93-34.49,41C17.11,72,2.49,50.69,6.31,31.56a20,20,0,0,1,.41-2.78,37.85,37.85,0,0,1,4.2-14c-2.77,1.43-6.3,6-8,10.16A41.49,41.49,0,0,0,.28,45.1c.06.52.12,1,.19,1.55A40.06,40.06,0,1,0,71.94,15.7Z" transform="translate(0.02 0)" fill="url(#ac489aa5-896c-41f3-839d-7ea78099e43f)"/><path d="M71.94,15.7A39.44,39.44,0,0,0,41.59,0C32.3-.18,25.88,2.61,22.25,4.86,27.11,2,34.14.44,40.29.52c15.83.2,32.84,11,35.36,30.41,2.9,22.31-12.64,40.93-34.49,41C17.11,72,2.49,50.69,6.31,31.56a20,20,0,0,1,.41-2.78,37.85,37.85,0,0,1,4.2-14c-2.77,1.43-6.3,6-8,10.16A41.49,41.49,0,0,0,.28,45.1c.06.52.12,1,.19,1.55A40.06,40.06,0,1,0,71.94,15.7Z" transform="translate(0.02 0)" fill="url(#f5da31d1-51da-4813-af86-db6dc695f9ec)"/><path d="M75.65,30.93a40.89,40.89,0,0,1,.3,7.25c1.33-.2,2.66-.37,4-.53a40,40,0,0,0-8-21.95A39.44,39.44,0,0,0,41.59,0C32.3-.18,25.88,2.61,22.25,4.86,27.11,2,34.14.44,40.29.52,56.12.72,73.13,11.5,75.65,30.93Z" transform="translate(0.02 0)" fill="url(#bd6450d5-aa7b-4c2d-b6e5-c55fcea7e42c)"/><path d="M76.62,29.83C74.37,9.52,56.26.39,40.29.52c-6.15,0-13.18,1.52-18,4.34a19.87,19.87,0,0,0-3.56,2.7,13.45,13.45,0,0,1,1.16-.86l.06,0,.05,0A27,27,0,0,1,27.66,3,43.75,43.75,0,0,1,40.84,1.5a33.26,33.26,0,0,1,31.25,32c.37,13.21-10.44,23.74-22.9,24.35-9.06.44-17.6-3.94-21.77-12.71a21.73,21.73,0,0,1-2-6.34c-2-13.35,7-24.73,15.21-27.55-4.43-3.87-15.54-3.61-23.82,2.47a28.77,28.77,0,0,0-11.1,19,33,33,0,0,0,2.34,18A35.31,35.31,0,0,0,38.17,72.16c1,.07,2,.11,3,.11C67.62,72.27,79.1,52.18,76.62,29.83Z" transform="translate(0.02 0)" fill="url(#bb58d36e-6ffb-4ed5-9c8f-87d046cebf2b)"/><path d="M76.62,29.83C74.37,9.52,56.26.39,40.29.52c-6.15,0-13.18,1.52-18,4.34a19.87,19.87,0,0,0-3.56,2.7,13.45,13.45,0,0,1,1.16-.86l.06,0,.05,0A27,27,0,0,1,27.66,3,43.75,43.75,0,0,1,40.84,1.5a33.26,33.26,0,0,1,31.25,32c.37,13.21-10.44,23.74-22.9,24.35-9.06.44-17.6-3.94-21.77-12.71a21.73,21.73,0,0,1-2-6.34c-2-13.35,7-24.73,15.21-27.55-4.43-3.87-15.54-3.61-23.82,2.47a28.77,28.77,0,0,0-11.1,19,33,33,0,0,0,2.34,18A35.31,35.31,0,0,0,38.17,72.16c1,.07,2,.11,3,.11C67.62,72.27,79.1,52.18,76.62,29.83Z" transform="translate(0.02 0)" fill="url(#a2327a51-46e7-4bbc-b41a-07e24ae9afde)"/><path d="M76.62,29.83C74.37,9.52,56.26.39,40.29.52c-6.15,0-13.18,1.52-18,4.34a19.87,19.87,0,0,0-3.56,2.7,13.45,13.45,0,0,1,1.16-.86l.06,0,.05,0A27,27,0,0,1,27.66,3,43.75,43.75,0,0,1,40.84,1.5a33.26,33.26,0,0,1,31.25,32c.37,13.21-10.44,23.74-22.9,24.35-9.06.44-17.6-3.94-21.77-12.71a21.73,21.73,0,0,1-2-6.34c-2-13.35,7-24.73,15.21-27.55-4.43-3.87-15.54-3.61-23.82,2.47a28.77,28.77,0,0,0-11.1,19,33,33,0,0,0,2.34,18A35.31,35.31,0,0,0,38.17,72.16c1,.07,2,.11,3,.11C67.62,72.27,79.1,52.18,76.62,29.83Z" transform="translate(0.02 0)" opacity="0.53" fill="url(#ff4866ae-ebf1-4e31-b78b-2228d9826629)" style="isolation:isolate"/><path d="M76.62,29.83C74.37,9.52,56.26.39,40.29.52c-6.15,0-13.18,1.52-18,4.34a19.87,19.87,0,0,0-3.56,2.7,13.45,13.45,0,0,1,1.16-.86l.06,0,.05,0A27,27,0,0,1,27.66,3,43.75,43.75,0,0,1,40.84,1.5a33.26,33.26,0,0,1,31.25,32c.37,13.21-10.44,23.74-22.9,24.35-9.06.44-17.6-3.94-21.77-12.71a21.73,21.73,0,0,1-2-6.34c-2-13.35,7-24.73,15.21-27.55-4.43-3.87-15.54-3.61-23.82,2.47a28.77,28.77,0,0,0-11.1,19,33,33,0,0,0,2.34,18A35.31,35.31,0,0,0,38.17,72.16c1,.07,2,.11,3,.11C67.62,72.27,79.1,52.18,76.62,29.83Z" transform="translate(0.02 0)" opacity="0.53" fill="url(#ff8babfe-fee8-452c-8acd-3805a8fa0acf)" style="isolation:isolate"/><path d="M49.19,57.84c17.1-1,24.42-15.2,24.88-25.24C74.78,16.9,65.47,0,40.84,1.5A43.44,43.44,0,0,0,27.66,3.05,28.35,28.35,0,0,0,20,6.62l-.06,0-.06,0c-.39.27-.76.55-1.13.84a33.48,33.48,0,0,1,21-3.93C53.84,5.46,66.77,16.46,66.77,31c0,11.17-8.63,19.7-18.74,19.08-15-.9-18.8-16.3-11-23-2.11-.45-6.07.44-8.82,4.56-2.48,3.7-2.34,9.41-.81,13.46A22.11,22.11,0,0,0,49.19,57.84Z" transform="translate(0.02 0)" fill="url(#b4fe9342-448b-4b06-943b-5df6aaf21d96)"/><path d="M71.94,15.7a39.82,39.82,0,0,0-3.48-4,30.41,30.41,0,0,0-3.18-2.93,24.08,24.08,0,0,1,1.85,1.79A22.48,22.48,0,0,1,72,18.73C74.1,25.06,74,33,70,39.2A23.56,23.56,0,0,1,49.12,50.09c-.36,0-.72,0-1.09,0-15-.9-18.8-16.3-11-23-2.11-.45-6.07.44-8.83,4.56-2.47,3.7-2.33,9.41-.8,13.46a21.73,21.73,0,0,1-2-6.34c-2-13.35,7-24.73,15.21-27.55-4.43-3.87-15.54-3.61-23.82,2.47A27.9,27.9,0,0,0,6.76,28.31a38.27,38.27,0,0,1,4.16-13.55c-2.77,1.43-6.3,6-8,10.16A41.49,41.49,0,0,0,.28,45.1c.06.52.12,1,.19,1.55A40.06,40.06,0,1,0,71.94,15.7Z" transform="translate(0.02 0)" fill="url(#a3f6be1c-ae1d-4f0a-81ba-7e6ace148683)"/><path d="M72,18.73a22.48,22.48,0,0,0-4.89-8.15A30.17,30.17,0,0,0,58,4.09,40.67,40.67,0,0,0,49.1.92,39.88,39.88,0,0,0,32.53.82C26.85,2,21.85,4.48,18.69,7.55a32.39,32.39,0,0,1,8-3.2,33.6,33.6,0,0,1,31.18,8.1,27.57,27.57,0,0,1,4.33,5.3c4.89,8,4.43,18,.61,23.87C60,46,53.93,50.12,48.27,50.07A23.62,23.62,0,0,0,70,39.2C74,33,74.11,25.06,72,18.73Z" transform="translate(0.02 0)" fill="url(#e859c31c-880c-432b-95bc-d11711c7eeb6)"/><path d="M72,18.73a22.48,22.48,0,0,0-4.89-8.15A30.17,30.17,0,0,0,58,4.09,40.67,40.67,0,0,0,49.1.92,39.88,39.88,0,0,0,32.53.82C26.85,2,21.85,4.48,18.69,7.55a32.39,32.39,0,0,1,8-3.2,33.6,33.6,0,0,1,31.18,8.1,27.57,27.57,0,0,1,4.33,5.3c4.89,8,4.43,18,.61,23.87C60,46,53.93,50.12,48.27,50.07A23.62,23.62,0,0,0,70,39.2C74,33,74.11,25.06,72,18.73Z" transform="translate(0.02 0)" fill="url(#b6059726-c009-4e5c-bc66-522e89d9c6b6)"/></svg>