<svg width="80" height="80" fill="none" xmlns="http://www.w3.org/2000/svg"><path fill-rule="evenodd" clip-rule="evenodd" d="M40 9a6 6 0 100 12 6 6 0 000-12zm-14 6c0-7.732 6.268-14 14-14s14 6.268 14 14-6.268 14-14 14c-2.411 0-4.68-.61-6.66-1.683l-6.023 6.023c.455.838.826 1.729 1.103 2.66h23.16C53.3 30.217 58.658 26 65 26c7.732 0 14 6.268 14 14s-6.268 14-14 14c-2.411 0-4.68-.61-6.66-1.683l-6.023 6.023A13.938 13.938 0 0154 65c0 7.732-6.268 14-14 14s-14-6.268-14-14 6.268-14 14-14c2.411 0 4.68.61 6.66 1.683l6.023-6.023A13.91 13.91 0 0151.58 44H28.42C26.7 49.783 21.342 54 15 54 7.268 54 1 47.732 1 40s6.268-14 14-14c2.411 0 4.68.61 6.66 1.683l6.023-6.023A13.939 13.939 0 0126 15zm8 50a6 6 0 1112 0 6 6 0 01-12 0zM15 34a6 6 0 100 12 6 6 0 000-12zm44 6a6 6 0 1112 0 6 6 0 01-12 0z" fill="#20123a"/></svg>