<svg width="219" height="34" viewBox="0 0 219 34" fill="none" xmlns="http://www.w3.org/2000/svg">
<path d="M28.2601 7.83383L24.9422 5.93332L17.3673 1.59621L17.1316 1.46072C15.8898 0.75398 14.3675 0.75398 13.1256 1.46072L12.89 1.59739L2.23866 7.69833L2.00301 7.83501C0.767639 8.54235 0.0039367 9.85547 0 11.279V24.0217C0.00424533 25.4455 0.767807 26.7588 2.00301 27.4669L12.8935 33.7033C13.6916 34.1615 14.7098 33.8913 15.1758 33.0977C15.3975 32.7169 15.4576 32.2632 15.3427 31.8378C15.2278 31.4124 14.9475 31.0506 14.5643 30.8331L3.91294 24.7334C3.55901 24.5315 3.34011 24.1558 3.33914 23.7483V11.5524C3.34011 11.1449 3.55901 10.7692 3.91294 10.5674L5.79813 9.4869L14.5525 4.46288C14.9068 4.26135 15.3411 4.26135 15.6954 4.46288L26.3502 10.565C26.7025 10.7676 26.9203 11.1424 26.9217 11.5488V23.7531C26.9207 24.1605 26.7018 24.5363 26.3479 24.7381L22.7436 26.8024L20.9244 24.0594C22.7586 22.4348 23.809 20.1023 23.8099 17.6521C23.8099 12.9003 19.9135 9.03446 15.1227 9.03446C10.332 9.03446 6.43556 12.9003 6.43556 17.6521C6.43556 22.404 10.332 26.2698 15.1227 26.2698C16.1221 26.2706 17.1142 26.0992 18.0554 25.7631L20.8184 29.9294C20.8615 29.993 20.9083 30.0539 20.9586 30.112L20.988 30.1415C21.0463 30.2044 21.1098 30.2623 21.1777 30.3147C21.1942 30.3277 21.2095 30.3418 21.2272 30.3548C21.302 30.4086 21.3807 30.4567 21.4629 30.4985L21.5194 30.5232C21.5929 30.5561 21.6685 30.5841 21.7456 30.6069L21.7975 30.6234C21.8852 30.6456 21.9747 30.6602 22.0649 30.667H22.1392C22.1651 30.667 22.1898 30.667 22.2158 30.667C22.2664 30.667 22.3171 30.6611 22.3666 30.6564C22.3901 30.6564 22.4125 30.6564 22.4361 30.6564C22.5312 30.6433 22.6251 30.622 22.7165 30.5928C22.7413 30.5857 22.7648 30.5751 22.7896 30.5657C22.8623 30.5391 22.9332 30.5077 23.0016 30.4714C23.017 30.4632 23.0346 30.4584 23.05 30.449L28.2601 27.4716C29.4966 26.7625 30.2604 25.4471 30.2632 24.0217V11.2778C30.2592 9.85429 29.4955 8.54117 28.2601 7.83383ZM9.77588 17.6521C9.75773 15.4855 11.0489 13.5222 13.0454 12.6805C15.0419 11.8387 17.3489 12.2851 18.8874 13.8107C20.4259 15.3363 20.8916 17.6395 20.0667 19.643C19.2418 21.6465 17.2894 22.9542 15.1227 22.9542C12.1837 22.9627 9.7921 20.5911 9.77588 17.6521Z" fill="url(#paint0_linear_336_1884)"/>
<path d="M28.2601 7.83383L24.9422 5.93332L17.3673 1.59621L17.1316 1.46072C15.8898 0.75398 14.3675 0.75398 13.1256 1.46072L12.89 1.59739L2.23866 7.69833L2.00301 7.83501C0.767639 8.54235 0.0039367 9.85547 0 11.279V24.0217C0.00424533 25.4455 0.767807 26.7588 2.00301 27.4669L12.8935 33.7033C13.6916 34.1615 14.7098 33.8913 15.1758 33.0977C15.3975 32.7169 15.4576 32.2632 15.3427 31.8378C15.2278 31.4124 14.9475 31.0506 14.5643 30.8331L3.91294 24.7334C3.55901 24.5315 3.34011 24.1558 3.33914 23.7483V11.5524C3.34011 11.1449 3.55901 10.7692 3.91294 10.5674L5.79813 9.4869L14.5525 4.46288C14.9068 4.26135 15.3411 4.26135 15.6954 4.46288L26.3502 10.565C26.7025 10.7676 26.9203 11.1424 26.9217 11.5488V23.7531C26.9207 24.1605 26.7018 24.5363 26.3479 24.7381L22.7436 26.8024L20.9244 24.0594C22.7586 22.4348 23.809 20.1023 23.8099 17.6521C23.8099 12.9003 19.9135 9.03446 15.1227 9.03446C10.332 9.03446 6.43556 12.9003 6.43556 17.6521C6.43556 22.404 10.332 26.2698 15.1227 26.2698C16.1221 26.2706 17.1142 26.0992 18.0554 25.7631L20.8184 29.9294C20.8615 29.993 20.9083 30.0539 20.9586 30.112L20.988 30.1415C21.0463 30.2044 21.1098 30.2623 21.1777 30.3147C21.1942 30.3277 21.2095 30.3418 21.2272 30.3548C21.302 30.4086 21.3807 30.4567 21.4629 30.4985L21.5194 30.5232C21.5929 30.5561 21.6685 30.5841 21.7456 30.6069L21.7975 30.6234C21.8852 30.6456 21.9747 30.6602 22.0649 30.667H22.1392C22.1651 30.667 22.1898 30.667 22.2158 30.667C22.2664 30.667 22.3171 30.6611 22.3666 30.6564C22.3901 30.6564 22.4125 30.6564 22.4361 30.6564C22.5312 30.6433 22.6251 30.622 22.7165 30.5928C22.7413 30.5857 22.7648 30.5751 22.7896 30.5657C22.8623 30.5391 22.9332 30.5077 23.0016 30.4714C23.017 30.4632 23.0346 30.4584 23.05 30.449L28.2601 27.4716C29.4966 26.7625 30.2604 25.4471 30.2632 24.0217V11.2778C30.2592 9.85429 29.4955 8.54117 28.2601 7.83383ZM9.77588 17.6521C9.75773 15.4855 11.0489 13.5222 13.0454 12.6805C15.0419 11.8387 17.3489 12.2851 18.8874 13.8107C20.4259 15.3363 20.8916 17.6395 20.0667 19.643C19.2418 21.6465 17.2894 22.9542 15.1227 22.9542C12.1837 22.9627 9.7921 20.5911 9.77588 17.6521Z" fill="url(#paint1_linear_336_1884)"/>
<path d="M28.2589 7.8336L24.941 5.93309L20.3129 3.2844C19.2491 2.67677 17.9481 2.6572 16.8665 3.23256L14.5513 4.46265C14.9056 4.26112 15.3399 4.26112 15.6942 4.46265L26.349 10.5648C26.7013 10.7673 26.9191 11.1422 26.9205 11.5486V23.7528C26.92 24.1604 26.7009 24.5364 26.3467 24.7378L22.7424 26.8021L23.3044 27.7011C23.9773 28.7736 25.3774 29.1228 26.4751 28.4917L28.2589 27.4714C29.4974 26.7642 30.262 25.4476 30.262 24.0215V11.2776C30.2602 9.85347 29.4959 8.53933 28.2589 7.8336Z" fill="url(#paint2_linear_336_1884)"/>
<path d="M26.9205 11.5521V17.4728H30.262V11.2776C30.2602 9.85347 29.4959 8.53933 28.2589 7.8336L24.941 5.93309L20.3129 3.2844C19.2491 2.67677 17.9481 2.6572 16.8665 3.23256L14.5513 4.46265C14.9058 4.26183 15.3397 4.26183 15.6942 4.46265L26.349 10.5648C26.7024 10.768 26.9203 11.1445 26.9205 11.5521Z" fill="url(#paint3_linear_336_1884)"/>
<path opacity="0.9" d="M26.9202 18.4258V23.7526C26.9198 24.1602 26.7007 24.5362 26.3464 24.7376L22.7422 26.8019L23.3042 27.7009C23.9771 28.7734 25.3772 29.1225 26.4749 28.4915L28.2587 27.4712C29.4972 26.764 30.2616 25.4474 30.2617 24.0213V18.4258H26.9202Z" fill="url(#paint4_linear_336_1884)"/>
<path opacity="0.9" d="M22.4872 26.4161L20.9237 24.0596C20.0863 24.8073 19.112 25.3859 18.0547 25.7633L19.7172 28.2718C20.6559 27.6732 21.5792 27.0547 22.4872 26.4161Z" fill="url(#paint5_linear_336_1884)"/>
<path d="M44.1602 26.459V9.82635H47.7192L52.876 19.22L58.0087 9.82635H61.5918V26.459H58.0087V16.0969L52.876 25.4906L47.7192 16.0969V26.459H44.1602ZM70.8897 26.7495C67.1613 26.7495 64.0382 23.7474 64.0382 20.1885C64.0382 16.6295 67.1613 13.6516 70.8897 13.6516C74.5939 13.6516 77.6929 16.6295 77.6929 20.1885C77.6929 23.7474 74.5939 26.7495 70.8897 26.7495ZM70.8897 23.7716C72.7539 23.7716 74.3276 22.1253 74.3276 20.1885C74.3276 18.2516 72.7539 16.6295 70.8897 16.6295C69.0013 16.6295 67.4276 18.2516 67.4276 20.1885C67.4276 22.1253 69.0013 23.7716 70.8897 23.7716ZM79.3549 26.459V23.9653L85.6496 16.9442H79.5243V13.9421H90.2496V16.4358L83.9549 23.4569H90.298V26.459H79.3549ZM94.3916 12.2232C93.3021 12.2232 92.4548 11.3516 92.4548 10.2864C92.4548 9.29372 93.3021 8.39793 94.3916 8.39793C95.4327 8.39793 96.28 9.29372 96.28 10.2864C96.28 11.3516 95.4327 12.2232 94.3916 12.2232ZM92.6 26.459V13.9421H96.1348V26.459H92.6ZM99.0477 26.459V9.53582H102.582V26.459H99.0477ZM105.495 26.459V9.53582H109.03V26.459H105.495ZM117.535 13.6516C120.803 13.6516 123.03 15.7095 123.03 18.9779V26.459H119.617V25.2C118.721 26.2169 117.293 26.7495 115.937 26.7495C113.274 26.7495 111.216 25.1516 111.216 22.7548C111.216 20.2853 113.516 18.5906 116.421 18.5906C117.438 18.5906 118.551 18.8085 119.617 19.22V18.9779C119.617 17.6464 118.794 16.4842 116.736 16.4842C115.574 16.4842 114.484 16.8716 113.491 17.38L112.305 15.0316C114.073 14.1358 115.791 13.6516 117.535 13.6516ZM116.736 24.3042C118.091 24.3042 119.375 23.6748 119.617 22.5127V21.3506C118.818 21.06 117.898 20.8906 116.929 20.8906C115.646 20.8906 114.629 21.6411 114.629 22.6579C114.629 23.6748 115.525 24.3042 116.736 24.3042ZM132.983 26.459V9.82635H135.428L141.263 20.6969L147.097 9.82635H149.543V26.459H147.097V14.62L141.263 25.4906L135.428 14.62V26.459H132.983ZM158.814 26.7495C155.231 26.7495 152.205 23.7474 152.205 20.1885C152.205 16.6295 155.231 13.6516 158.814 13.6516C162.373 13.6516 165.376 16.6295 165.376 20.1885C165.376 23.7474 162.373 26.7495 158.814 26.7495ZM158.814 24.6674C161.066 24.6674 162.979 22.6337 162.979 20.1885C162.979 17.7674 161.066 15.7337 158.814 15.7337C156.514 15.7337 154.602 17.7674 154.602 20.1885C154.602 22.6337 156.514 24.6674 158.814 24.6674ZM174.029 13.6516C176.789 13.6516 178.725 15.6611 178.725 18.4937V26.459H176.377V18.9053C176.377 17.0411 175.191 15.7337 173.496 15.7337C171.753 15.7337 170.252 16.8716 170.058 18.3485V26.459H167.661V13.9421H170.058V15.7579C170.809 14.5232 172.334 13.6516 174.029 13.6516ZM182.822 11.86C181.999 11.86 181.369 11.1821 181.369 10.4074C181.369 9.65688 181.999 8.97898 182.822 8.97898C183.597 8.97898 184.25 9.65688 184.25 10.4074C184.25 11.1821 183.597 11.86 182.822 11.86ZM181.611 26.459V13.9421H184.008V26.459H181.611ZM192.816 24.2074L193.687 25.8537C193.009 26.4106 192.089 26.7495 191.193 26.7495C189.257 26.7495 187.901 25.3453 187.901 23.3358V15.9758H186.012V13.9421H187.901V10.5042H190.249V13.9421H193.203V15.9758H190.249V23.1664C190.249 24.0379 190.83 24.6674 191.532 24.6674C192.065 24.6674 192.549 24.4737 192.816 24.2074ZM201.543 26.7495C197.96 26.7495 194.933 23.7474 194.933 20.1885C194.933 16.6295 197.96 13.6516 201.543 13.6516C205.102 13.6516 208.104 16.6295 208.104 20.1885C208.104 23.7474 205.102 26.7495 201.543 26.7495ZM201.543 24.6674C203.795 24.6674 205.707 22.6337 205.707 20.1885C205.707 17.7674 203.795 15.7337 201.543 15.7337C199.243 15.7337 197.33 17.7674 197.33 20.1885C197.33 22.6337 199.243 24.6674 201.543 24.6674ZM212.908 16.339C213.706 14.6927 215.401 13.6516 217.556 13.6516V15.7337C214.965 15.7337 213.125 17.1621 212.908 19.3411V26.459H210.511V13.9421H212.908V16.339Z" fill="black"/>
<defs>
<linearGradient id="paint0_linear_336_1884" x1="21.203" y1="5.13683" x2="6.34906" y2="30.8631" gradientUnits="userSpaceOnUse">
<stop stop-color="#FF980E"/>
<stop offset="0.21" stop-color="#FF7139"/>
<stop offset="0.36" stop-color="#FF5854"/>
<stop offset="0.46" stop-color="#FF4F5E"/>
<stop offset="0.69" stop-color="#FF3750"/>
<stop offset="0.86" stop-color="#F92261"/>
<stop offset="1" stop-color="#F5156C"/>
</linearGradient>
<linearGradient id="paint1_linear_336_1884" x1="21.203" y1="5.13683" x2="6.34906" y2="30.8631" gradientUnits="userSpaceOnUse">
<stop stop-color="#FFF44F" stop-opacity="0.8"/>
<stop offset="0.09" stop-color="#FFF44F" stop-opacity="0.7"/>
<stop offset="0.75" stop-color="#FFF44F" stop-opacity="0"/>
</linearGradient>
<linearGradient id="paint2_linear_336_1884" x1="22.4066" y1="35.0027" x2="22.4066" y2="3.12888" gradientUnits="userSpaceOnUse">
<stop stop-color="#3A8EE6"/>
<stop offset="0.24" stop-color="#5C79F0"/>
<stop offset="0.63" stop-color="#9059FF"/>
<stop offset="1" stop-color="#C139E6"/>
</linearGradient>
<linearGradient id="paint3_linear_336_1884" x1="16.9879" y1="3.0135" x2="30.2346" y2="16.2602" gradientUnits="userSpaceOnUse">
<stop stop-color="#6E008B" stop-opacity="0.5"/>
<stop offset="0.5" stop-color="#C846CB" stop-opacity="0"/>
</linearGradient>
<linearGradient id="paint4_linear_336_1884" x1="28.9866" y1="19.4002" x2="22.7658" y2="25.621" gradientUnits="userSpaceOnUse">
<stop offset="0.14" stop-color="#6A2BEA" stop-opacity="0"/>
<stop offset="0.34" stop-color="#642DE4" stop-opacity="0.03"/>
<stop offset="0.55" stop-color="#5131D3" stop-opacity="0.12"/>
<stop offset="0.76" stop-color="#3139B7" stop-opacity="0.27"/>
<stop offset="0.98" stop-color="#054490" stop-opacity="0.48"/>
<stop offset="1" stop-color="#00458B" stop-opacity="0.5"/>
</linearGradient>
<linearGradient id="paint5_linear_336_1884" x1="19.0079" y1="24.7511" x2="20.8113" y2="26.9012" gradientUnits="userSpaceOnUse">
<stop stop-color="#960E18" stop-opacity="0.6"/>
<stop offset="0.19" stop-color="#AC1624" stop-opacity="0.48"/>
<stop offset="0.58" stop-color="#E42C41" stop-opacity="0.16"/>
<stop offset="0.75" stop-color="#FF3750" stop-opacity="0"/>
</linearGradient>
</defs>
</svg>
