<svg width="98" height="21" viewBox="0 0 98 21" fill="none" xmlns="http://www.w3.org/2000/svg">
<path fill-rule="evenodd" clip-rule="evenodd" d="M2.21101 1.47008C0.247657 2.77492 0 3.76441 0 10.2934C0 20.1892 0.710151 20.7718 12.7598 20.7718H21.8814L21.8297 15.8149L21.7789 10.858L20.2283 14.4071C18.5524 18.2423 16.413 19.2233 10.8293 18.7173L7.45956 18.4113V10.3859V2.36043L10.8293 2.05452C16.233 1.56449 18.7862 2.60591 20.3139 5.91996L21.7193 8.96963L21.7998 4.48481L21.8814 0H13.1517C6.85981 0 3.80338 0.410715 2.21101 1.47008ZM24.8652 10.3859V20.7718L30.0869 20.735L35.3086 20.6981L32.0682 19.3612C30.2669 18.6181 28.3901 16.9299 27.8411 15.5599C26.6863 12.6764 26.5153 5.64803 27.6004 5.7028C28.0111 5.72451 31.1949 9.12353 34.677 13.2562C40.3443 19.9834 41.3618 20.7718 44.3744 20.7718H47.7412V10.3859V0L42.5195 0.0774219L37.2978 0.1539L40.5611 1.50784C44.3555 3.08178 45.9728 6.35616 45.5511 11.6095L45.2547 15.3041L38.8007 7.65157C32.7863 0.521183 32.092 0 28.6059 0H24.8652V10.3859ZM50.725 10.3859V20.7718H61.6657H72.6064L72.5248 15.8149L72.4443 10.858L71.1045 13.7547C69.2555 17.7514 67.6682 18.7852 62.3112 19.483L57.6873 20.0844V15.6449C57.6873 11.3584 57.7818 11.2149 60.4224 11.5038C62.1133 11.6879 63.5326 12.6132 64.1393 13.9265C65.7953 17.5097 66.6387 16.3153 66.6387 10.3859C66.6387 7.23896 66.1971 4.72086 65.6441 4.72086C65.0971 4.72086 64.6495 5.11552 64.6495 5.59799C64.6495 7.11905 61.602 9.44171 59.6059 9.44171C58.0304 9.44171 57.6873 8.76569 57.6873 5.66503V1.88834H62.5897C67.5568 1.88834 70.6172 3.51232 70.6172 6.14844C70.6172 6.86035 71.0647 7.70444 71.6118 8.02546C72.2195 8.38235 72.6064 6.934 72.6064 4.30448V0H61.6657H50.725V10.3859ZM74.5956 4.24877C74.5956 9.25477 75.5206 9.6145 77.5794 5.40821C78.4 3.73231 79.8541 2.22352 80.8119 2.05546C82.3635 1.7826 82.5525 2.66445 82.5525 10.1725C82.5525 17.9742 82.3874 18.67 80.3146 19.6199C78.5104 20.4451 79.7158 20.6538 86.5309 20.6943C93.9676 20.7378 94.6857 20.6009 92.4985 19.5528C90.1712 18.4368 89.9941 17.8354 89.7246 10.1244C89.4968 3.60862 89.7246 1.88834 90.8137 1.88834C92.6457 1.88834 95.4824 4.94463 95.4824 6.91983C95.4824 7.78753 95.9299 8.49754 96.477 8.49754C97.024 8.49754 97.4716 6.5856 97.4716 4.24877V0H86.0336H74.5956V4.24877Z" fill="#9E9E9E"/>
</svg>
