<svg width="106" height="27" viewBox="0 0 106 27" fill="none" xmlns="http://www.w3.org/2000/svg">
<g style="mix-blend-mode:luminosity">
<path fill-rule="evenodd" clip-rule="evenodd" d="M64.5345 7.57725C62.8583 7.57725 61.5132 8.02455 60.1163 8.69546C60.1267 4.80219 60.1784 1.40699 60.2716 0.126221L52.1284 1.67129V2.39305L52.9251 2.49474C54.0633 2.64726 54.4978 3.2978 54.6324 4.7921C54.891 7.64847 54.8496 22.9573 54.6324 25.4071C56.8259 25.895 59.1954 26.261 61.5752 26.261C68.0317 26.261 71.9223 22.3373 71.9223 16.1262C71.9223 11.1554 68.7665 7.57725 64.5345 7.57725ZM61.6994 25.0004C61.2338 25.0004 60.644 24.9293 60.3129 24.8683C60.1888 23.1504 60.106 16.0652 60.1163 9.87455C60.8612 9.63055 61.3683 9.56962 62.0202 9.56962C64.6898 9.56962 66.2004 12.5988 66.2004 16.4312C66.2004 21.3004 64.3483 25.0004 61.6994 25.0004ZM21.5218 7.7704L20.2491 8.11601C19.142 4.47682 17.3726 2.42352 14.0822 2.42352H9.86074C9.66413 4.74125 9.5917 8.60393 9.61245 12.6192L12.4579 12.5277C14.3514 12.4667 15.1377 11.0843 15.593 9.04108H16.6588V17.5493H15.593C15.1377 15.506 14.341 14.1337 12.4579 14.0626L9.62278 13.9711C9.65379 17.0207 9.73656 19.623 9.87107 21.1681C10.0677 23.435 10.6885 24.4311 12.3233 24.6649L13.7719 24.8174V25.8339H0V24.8174L1.13822 24.6649C2.77308 24.4311 3.39391 23.4349 3.59044 21.1681C3.90082 17.4374 3.95258 9.67117 3.59044 5.34082C3.39384 3.07392 2.77301 2.07777 1.13822 1.844L0 1.69154V0.675008H21.408L21.5218 7.7704ZM28.3716 7.37394C34.4557 7.37394 37.4769 11.4298 37.4769 16.7666C37.4769 21.9813 34.0624 26.2609 27.9783 26.2609C21.8942 26.2609 18.8626 22.205 18.8626 16.8683C18.8626 11.6535 22.2772 7.37394 28.3716 7.37394ZM28.0508 8.53284C25.3606 8.53284 24.6053 12.111 24.6053 16.8175C24.6053 21.402 25.7952 25.1021 28.2888 25.1021C30.979 25.1021 31.7343 21.524 31.7343 16.8175C31.7343 12.2329 30.5445 8.53284 28.0508 8.53284ZM73.4122 16.9902C73.4018 12.0398 76.5887 7.39425 82.8591 7.39425C87.9602 7.39425 90.402 11.1148 90.4228 15.9737H79.041C78.9169 20.3854 81.1932 23.6282 85.5389 23.6282C87.4531 23.6282 88.4878 23.1606 89.6468 22.2965L90.1848 22.9268C88.9225 24.6447 86.284 26.2813 82.7867 26.2813C77.2924 26.2711 73.4226 22.449 73.4122 16.9902ZM79.0824 14.7133L84.7939 14.5913C84.8249 12.111 84.4214 8.56331 82.3624 8.56331C80.293 8.56331 79.1341 11.9178 79.0824 14.7133ZM105.054 12.9445L104.122 13.1885C103.129 10.0271 101.618 8.68531 99.4145 8.68531C97.9452 8.68531 96.8794 9.77292 96.8794 11.3486C96.8794 12.9141 98.0694 13.7374 101.515 15.0487C104.691 16.2584 105.954 17.651 105.954 20.1821C105.954 23.9636 103.005 26.2812 98.1623 26.2812C95.8343 26.2812 93.2475 25.773 91.7369 25.1733L91.5713 19.9483L92.5025 19.7044C93.8373 23.3638 95.5757 24.6955 97.8623 24.6955C99.8076 24.6955 100.894 23.3333 100.894 21.8797C100.894 20.4668 100.077 19.6231 96.9724 18.5252C94.0856 17.5087 91.9956 16.2686 91.9956 13.097C91.9956 10.017 94.7685 7.38416 99.3522 7.38416C101.484 7.38416 103.501 7.75015 104.857 8.36L105.054 12.9445ZM51.373 12.8022C48.9104 11.1758 46.2512 11.8874 45.7028 12.7717C45.5165 15.6993 45.5579 20.1821 45.7649 22.4388C45.8994 23.9331 46.3339 24.5836 47.4721 24.7362L48.9414 24.8379V25.8544H37.6426V24.8379L38.4393 24.7362C39.5775 24.5836 40.012 23.9331 40.1465 22.4388C40.3638 19.9889 40.4052 14.886 40.1465 12.0297C40.012 10.5354 39.5775 9.88483 38.4393 9.7323L37.6426 9.63062V8.90886L45.7547 7.36372L45.6616 11.5315C47.555 7.24179 51.3007 6.68272 53.3598 7.88224L51.373 12.8022Z" fill="#9E9E9E"/>
</g>
</svg>
