<svg width="83" height="27" viewBox="0 0 83 27" fill="none" xmlns="http://www.w3.org/2000/svg">
<path fill-rule="evenodd" clip-rule="evenodd" d="M10.7343 20.6563C13.8322 20.6563 16.1665 19.6677 17.9939 17.8103C19.875 15.9736 20.459 13.4022 20.459 11.3219C20.459 10.6759 20.4082 10.0836 20.3067 9.58626H10.7343V12.36H17.5389C17.3358 13.9202 16.8005 15.0594 15.9913 15.8518C14.9993 16.8156 13.4521 17.8826 10.7343 17.8826C6.54532 17.8826 3.26913 14.5888 3.26913 10.5026C3.26913 6.41633 6.54532 3.12051 10.7343 3.12051C12.9925 3.12051 14.6457 3.98935 15.8624 5.10378L17.869 3.14733C16.1665 1.56443 13.9083 0.348877 10.7343 0.348877C4.99472 0.348877 0.170898 4.90359 0.170898 10.5026C0.170898 16.0995 4.99472 20.6563 10.7343 20.6563ZM28.2062 20.6563C31.9113 20.6563 34.9329 17.8826 34.9329 14.1163C34.9329 10.3293 31.9113 7.58034 28.2062 7.58034C24.4947 7.58034 21.4731 10.3293 21.4731 14.1163C21.4731 17.8826 24.4947 20.6563 28.2062 20.6563ZM28.2056 18.0806C26.1721 18.0806 24.418 16.4461 24.418 14.1161C24.418 11.7655 26.1721 10.1578 28.2056 10.1578C30.2348 10.1578 31.9869 11.7655 31.9869 14.1161C31.9869 16.4461 30.2348 18.0806 28.2056 18.0806V18.0806ZM42.8802 20.6563C46.5875 20.6563 49.6091 17.8826 49.6091 14.1163C49.6091 10.3293 46.5875 7.58034 42.8802 7.58034C39.1709 7.58034 36.1493 10.3293 36.1493 14.1163C36.1493 17.8826 39.1709 20.6563 42.8802 20.6563ZM42.8797 18.0806C40.8483 18.0806 39.0942 16.4461 39.0942 14.1161C39.0942 11.7655 40.8483 10.1578 42.8797 10.1578C44.911 10.1578 46.6631 11.7655 46.6631 14.1161C46.6631 16.4461 44.911 18.0806 42.8797 18.0806V18.0806ZM57.3027 26.5256C60.7538 26.5256 63.6781 24.5465 63.6781 19.7152V7.97658H60.8829V9.04148H60.7814C60.1191 8.27376 58.8495 7.58034 57.254 7.58034C53.9002 7.58034 50.8299 10.4531 50.8299 14.1431C50.8299 17.8104 53.9002 20.6563 57.254 20.6563C58.8495 20.6563 60.1191 19.9629 60.7814 19.1704H60.8829V20.1115C60.8829 22.6148 59.5118 23.9501 57.3027 23.9501C55.502 23.9501 54.3826 22.6891 53.9234 21.6201L51.361 22.6623C52.0995 24.3979 54.0525 26.5256 57.3027 26.5256V26.5256ZM57.503 18.0806C55.4737 18.0806 53.7704 16.4234 53.7704 14.143C53.7704 11.8398 55.4737 10.1578 57.503 10.1578C59.511 10.1578 61.0853 11.8398 61.0853 14.143C61.0853 16.4234 59.511 18.0806 57.503 18.0806ZM68.6531 1.04237H65.7076V20.2601H68.6531V1.04237ZM76.728 20.6563C79.7983 20.6563 81.5778 18.8258 82.3142 17.7588L80.0268 16.275C79.2672 17.3605 78.2261 18.0807 76.728 18.0807C75.2298 18.0807 74.1613 17.4121 73.4778 16.0995L82.4411 12.4818L82.1364 11.7409C81.5778 10.2797 79.8744 7.58034 76.3979 7.58034C72.9446 7.58034 70.0753 10.2323 70.0753 14.1163C70.0753 17.7836 72.9192 20.6563 76.728 20.6563V20.6563ZM72.9945 13.9202C72.9183 11.3962 75.0004 10.1063 76.4985 10.1063C77.6666 10.1063 78.6568 10.6759 78.9891 11.4932L72.9945 13.9202Z" fill="#9E9E9E"/>
</svg>
