<?xml version="1.0" encoding="UTF-8"?>
<svg width="87px" height="87px" viewBox="0 0 87 87" version="1.1" xmlns="http://www.w3.org/2000/svg" xmlns:xlink="http://www.w3.org/1999/xlink">
    <!-- Generator: Sketch 51.1 (57501) - http://www.bohemiancoding.com/sketch -->
    <title>tip-4</title>
    <desc>Created with Sketch.</desc>
    <defs>
        <linearGradient x1="89.9287684%" y1="19.2233456%" x2="14.0441176%" y2="85.9352022%" id="linearGradient-1">
            <stop stop-color="#18BAFF" offset="0%"></stop>
            <stop stop-color="#0A84FF" offset="100%"></stop>
        </linearGradient>
    </defs>
    <g id="Page-1" stroke="none" stroke-width="1" fill="none" fill-rule="evenodd">
        <g id="Homepage" transform="translate(-258.000000, -1329.000000)">
            <g id="Passwords" transform="translate(186.000000, 808.000000)">
                <g id="Tips-4" transform="translate(0.000000, 522.000000)">
                    <g id="tip-4" transform="translate(73.000000, 0.000000)">
                        <circle id="Oval" stroke="url(#linearGradient-1)" stroke-width="2" cx="42.5" cy="42.5" r="42.5"></circle>
                        <g id="Tip-4" transform="translate(24.000000, 25.000000)" fill="#0A84FF" fill-rule="nonzero">
                            <path d="M25.6937773,0 C20.0013442,-1.77090732e-07 15.3863172,4.61387558 15.3848973,10.3063085 C15.3848973,10.563452 15.4414689,10.7871668 15.4568975,11.031453 C15.3051829,11.1600247 15.1508968,11.2551678 14.9991822,11.3991681 L12.0008898,14.4000319 C11.7123404,14.7483178 11.7123404,15.2526058 12.0008898,15.6008917 C12.2305293,16.0117841 12.5190093,16.3868947 12.8571774,16.7143227 C13.0280237,16.8846337 13.1240492,17.1159464 13.1240492,17.3571813 C13.1240492,17.5984162 13.0280237,17.8297289 12.8571774,18.0000399 L6.10487395e-06,30.8572112 L6.10487395e-06,35.4009356 C-0.002809523,35.560685 0.0594098479,35.7147211 0.172387308,35.8276985 C0.285364768,35.940676 0.439400845,36.0028954 0.599150289,36.0000797 L7.12287903,36.0000797 C7.28129798,36.0007957 7.43332328,35.9376502 7.54461537,35.8249065 C7.65590746,35.7121627 7.7170777,35.5593319 7.71430891,35.4009356 L7.71430891,33.4003597 L9.64288461,33.4003597 C9.80079836,33.4045369 9.95366256,33.3445326 10.0665684,33.2340496 C10.1794742,33.1235667 10.2427799,32.9720399 10.2420288,32.8140727 L10.2420288,30.8392112 L10.80003,30.8392112 C10.80003,30.8392112 11.5200316,30.8392112 11.5200316,30.2349241 L11.5200316,29.5714941 L13.5231789,29.5714941 C13.5231789,29.5714941 14.1223231,29.3143507 14.1223231,28.9440641 L14.1223231,25.6757712 L16.3208994,25.6757712 L19.2009058,22.8009077 L19.80005,22.8009077 L21.0009098,24.0017675 C21.600054,24.6009116 21.600054,24.6009116 21.9394833,24.6009116 C22.2065939,24.5798417 22.4573853,24.4640217 22.6466277,24.2743395 L25.2000619,21.0009037 C25.2874907,20.8646176 25.3389194,20.7257602 25.4160624,20.5869027 C25.508634,20.5869027 25.5960628,20.6151885 25.6912059,20.6151885 C31.383933,20.6151885 35.9988001,16.0003214 35.9988001,10.3075943 C35.9988001,4.61486714 31.383933,3.99681174e-15 25.6912059,3.42583864e-15 L25.6937773,0 Z M29.5715002,8.97173416 C28.1513363,8.97173416 27.0000659,7.82046382 27.0000659,6.40029989 C27.0000659,4.98013596 28.1513363,3.82886562 29.5715002,3.82886562 C30.9916641,3.82886562 32.1429345,4.98013596 32.1429345,6.40029989 C32.1429345,7.82046382 30.9916641,8.97173416 29.5715002,8.97173416 Z" id="Shape"></path>
                        </g>
                    </g>
                </g>
            </g>
        </g>
    </g>
</svg>