<?xml version="1.0" encoding="UTF-8"?>
<svg width="87px" height="87px" viewBox="0 0 87 87" version="1.1" xmlns="http://www.w3.org/2000/svg" xmlns:xlink="http://www.w3.org/1999/xlink">
    <!-- Generator: Sketch 51.1 (57501) - http://www.bohemiancoding.com/sketch -->
    <title>tip-3</title>
    <desc>Created with Sketch.</desc>
    <defs>
        <linearGradient x1="89.9287684%" y1="19.2233456%" x2="14.0441176%" y2="85.9352022%" id="linearGradient-1">
            <stop stop-color="#18BAFF" offset="0%"></stop>
            <stop stop-color="#0A84FF" offset="100%"></stop>
        </linearGradient>
    </defs>
    <g id="Page-1" stroke="none" stroke-width="1" fill="none" fill-rule="evenodd">
        <g id="Homepage" transform="translate(-858.000000, -1030.000000)">
            <g id="Passwords" transform="translate(186.000000, 808.000000)">
                <g id="Tips-3" transform="translate(600.000000, 223.000000)">
                    <g id="tip-3" transform="translate(73.000000, 0.000000)">
                        <circle id="Oval" stroke="url(#linearGradient-1)" stroke-width="2" cx="42.5" cy="42.5" r="42.5"></circle>
                        <g id="Tip-3" transform="translate(23.000000, 21.000000)" fill="#0A84FF">
                            <g id="Reader-Mode">
                                <path d="M5.42857143,8.52181818 C5.42857143,6.76741818 6.71281633,5.47272727 8.45306122,5.47272727 L30.322449,5.47272727 C32.0626939,5.47272727 33.3469388,6.76741818 33.3469388,8.52181818 L33.3469388,35.26 C33.3469388,37.0144 32.0626939,38.3090909 30.322449,38.3090909 L8.45306122,38.3090909 C6.71281633,38.3090909 5.42857143,37.0144 5.42857143,35.26 L5.42857143,8.52181818 Z M8.45306122,0.781818182 C6.40979323,0.758325097 4.44340904,1.56624078 2.99850643,3.02289619 C1.55360381,4.4795516 0.752206669,6.46193031 0.775510204,8.52181818 L0.775510204,35.26 C0.775510204,39.6037818 4.14432653,43 8.45306122,43 L30.322449,43 C34.6311837,43 38,39.6037818 38,35.26 L38,8.52181818 C38,4.17803636 34.6311837,0.781818182 30.322449,0.781818182 L8.45306122,0.781818182 Z M11.244898,10.1636364 C10.6024443,10.1636364 10.0816327,10.6886842 10.0816327,11.3363636 C10.0816327,11.984043 10.6024443,12.5090909 11.244898,12.5090909 L27.5306122,12.5090909 C28.1730659,12.5090909 28.6938776,11.984043 28.6938776,11.3363636 C28.6938776,10.6886842 28.1730659,10.1636364 27.5306122,10.1636364 L11.244898,10.1636364 Z M10.0816327,16.0272727 C10.0816327,15.3795933 10.6024443,14.8545455 11.244898,14.8545455 L27.5306122,14.8545455 C28.1730659,14.8545455 28.6938776,15.3795933 28.6938776,16.0272727 C28.6938776,16.6749521 28.1730659,17.2 27.5306122,17.2 L11.244898,17.2 C10.6024443,17.2 10.0816327,16.6749521 10.0816327,16.0272727 Z M11.244898,19.5454545 C10.6024443,19.5454545 10.0816327,20.0705024 10.0816327,20.7181818 C10.0816327,21.3658612 10.6024443,21.8909091 11.244898,21.8909091 L27.5306122,21.8909091 C28.1730659,21.8909091 28.6938776,21.3658612 28.6938776,20.7181818 C28.6938776,20.0705024 28.1730659,19.5454545 27.5306122,19.5454545 L11.244898,19.5454545 Z M11.244898,24.2363636 C10.6024443,24.2363636 10.0816327,24.7614115 10.0816327,25.4090909 C10.0816327,26.0567703 10.6024443,26.5818182 11.244898,26.5818182 L18.2244898,26.5818182 C18.8669435,26.5818182 19.3877551,26.0567703 19.3877551,25.4090909 C19.3877551,24.7614115 18.8669435,24.2363636 18.2244898,24.2363636 L11.244898,24.2363636 Z" id="Shape"></path>
                                <path d="M12.0204082,30.1 C12.0204082,29.4523206 12.5412198,28.9272727 13.1836735,28.9272727 C13.8261272,28.9272727 14.3469388,29.4523206 14.3469388,30.1 L14.3469388,31.2727273 L12.0204082,31.2727273 L12.0204082,30.1 Z M11.244898,31.2727273 L11.244898,30.1 C11.244898,29.0205344 12.1129173,28.1454545 13.1836735,28.1454545 C14.2544296,28.1454545 15.122449,29.0205344 15.122449,30.1 L15.122449,31.2727273 L15.5102041,31.2727273 C15.9385065,31.2727273 16.2857143,31.6227592 16.2857143,32.0545455 L16.2857143,35.1818182 C16.2857143,35.6136044 15.9385065,35.9636364 15.5102041,35.9636364 L10.8571429,35.9636364 C10.4288404,35.9636364 10.0816327,35.6136044 10.0816327,35.1818182 L10.0816327,32.0545455 C10.0816327,31.6227592 10.4288404,31.2727273 10.8571429,31.2727273 L11.244898,31.2727273 Z" id="Shape"></path>
                            </g>
                        </g>
                    </g>
                </g>
            </g>
        </g>
    </g>
</svg>