<?xml version="1.0" encoding="UTF-8"?>
<svg width="87px" height="87px" viewBox="0 0 87 87" version="1.1" xmlns="http://www.w3.org/2000/svg" xmlns:xlink="http://www.w3.org/1999/xlink">
    <!-- Generator: Sketch 51.1 (57501) - http://www.bohemiancoding.com/sketch -->
    <title>tip-6</title>
    <desc>Created with Sketch.</desc>
    <defs>
        <linearGradient x1="89.9287684%" y1="19.2233456%" x2="14.0441176%" y2="85.9352022%" id="linearGradient-1">
            <stop stop-color="#18BAFF" offset="0%"></stop>
            <stop stop-color="#0A84FF" offset="100%"></stop>
        </linearGradient>
    </defs>
    <g id="Page-1" stroke="none" stroke-width="1" fill="none" fill-rule="evenodd">
        <g id="Homepage" transform="translate(-858.000000, -1329.000000)">
            <g id="Passwords" transform="translate(186.000000, 808.000000)">
                <g id="Tips-6" transform="translate(600.000000, 522.000000)">
                    <g id="tip-6" transform="translate(73.000000, 0.000000)">
                        <circle id="Oval" stroke="url(#linearGradient-1)" stroke-width="2" cx="42.5" cy="42.5" r="42.5"></circle>
                        <g id="Tip-6" transform="translate(24.000000, 21.000000)" fill="#0A84FF">
                            <g id="Secure">
                                <path d="M31.7332174,3.09866667 C33.755607,3.44930914 35.2280794,5.19932069 35.2173913,7.23955556 C35.2252174,10.3973333 35.2048696,16.0751111 34.9653913,18.6231111 C34.3033043,25.8564444 32.961913,29.8091111 29.6436522,34.2875556 C26.8720905,37.9921261 22.7561813,40.4765622 18.1706087,41.2128889 L17.9953043,41.2315556 L17.82,41.2128889 C13.2344274,40.4765622 9.11851821,37.9921261 6.34695652,34.2875556 C3.03182609,29.8091111 1.69043478,25.8564444 1.02521739,18.6231111 C0.793565217,16.0751111 0.773217391,10.3973333 0.782608696,7.238 C0.773343427,5.19773344 2.24602226,3.44826247 4.26834783,3.09711111 L18,0.754444444 L31.7332174,3.09866667 Z M14.0869565,17.1111111 L13.3043478,17.1111111 C12.4399021,17.1111111 11.7391304,17.8075571 11.7391304,18.6666667 L11.7391304,24.8888889 C11.7391304,25.7479985 12.4399021,26.4444444 13.3043478,26.4444444 L22.6956522,26.4444444 C23.5600979,26.4444444 24.2608696,25.7479985 24.2608696,24.8888889 L24.2608696,18.6666667 C24.2608696,17.8075571 23.5600979,17.1111111 22.6956522,17.1111111 L21.9130435,17.1111111 L21.9130435,14.7777778 C21.9130435,12.6300038 20.1611142,10.8888889 18,10.8888889 C15.8388858,10.8888889 14.0869565,12.6300038 14.0869565,14.7777778 L14.0869565,17.1111111 Z" id="Shape"></path>
                                <path d="M15.6521739,14.7777778 C15.6521739,13.4891134 16.7033315,12.4444444 18,12.4444444 C19.2966685,12.4444444 20.3478261,13.4891134 20.3478261,14.7777778 L20.3478261,17.1111111 L15.6521739,17.1111111 L15.6521739,14.7777778 Z" id="Path"></path>
                            </g>
                        </g>
                    </g>
                </g>
            </g>
        </g>
    </g>
</svg>