<?xml version="1.0" encoding="UTF-8"?>
<svg width="87px" height="87px" viewBox="0 0 87 87" version="1.1" xmlns="http://www.w3.org/2000/svg" xmlns:xlink="http://www.w3.org/1999/xlink">
    <!-- Generator: Sketch 51.1 (57501) - http://www.bohemiancoding.com/sketch -->
    <title>tip-1</title>
    <desc>Created with Sketch.</desc>
    <defs>
        <linearGradient x1="89.9287684%" y1="19.2233456%" x2="14.0441176%" y2="85.9352022%" id="linearGradient-1">
            <stop stop-color="#18BAFF" offset="0%"></stop>
            <stop stop-color="#0A84FF" offset="100%"></stop>
        </linearGradient>
    </defs>
    <g id="Page-1" stroke="none" stroke-width="1" fill="none" fill-rule="evenodd">
        <g id="Homepage" transform="translate(-258.000000, -1030.000000)">
            <g id="Passwords" transform="translate(186.000000, 808.000000)">
                <g id="Tip-1" transform="translate(0.000000, 223.000000)">
                    <g id="tip-1" transform="translate(73.000000, 0.000000)">
                        <circle id="Oval" stroke="url(#linearGradient-1)" stroke-width="2" cx="42.5" cy="42.5" r="42.5"></circle>
                        <g id="Tip-1" transform="translate(17.000000, 18.000000)" fill="#0A84FF">
                            <g id="Login">
                                <g id="Secure" transform="translate(30.000000, 9.367647)">
                                    <path d="M9.10569106,16.0780643 L9.10569106,14.1459414 C9.10569106,13.8106791 9.37747484,13.5388953 9.71273713,13.5388953 C10.0479994,13.5388953 10.3197832,13.8106791 10.3197832,14.1459414 L10.3197832,16.0780643 C11.3670756,16.3513302 12.1409214,17.3151151 12.1409214,18.46213 C12.1409214,19.8216437 11.0537863,20.9237473 9.71273713,20.9237473 C8.37168798,20.9237473 7.28455285,19.8216437 7.28455285,18.46213 C7.28455285,17.3151151 8.05839866,16.3513302 9.10569106,16.0780643 Z M6.0704607,6.15404332 C6.0704607,4.11477275 7.7011634,2.46161733 9.71273713,2.46161733 C11.7243109,2.46161733 13.3550136,4.11477275 13.3550136,6.15404332 L13.3550136,9.84646931 L6.0704607,9.84646931 L6.0704607,6.15404332 Z M3.64227642,9.84646931 L3.64227642,6.15404332 C3.64227642,2.75525904 6.36011426,5.46588847e-16 9.71273713,0 C13.06536,-1.09317769e-15 15.7831978,2.75525904 15.7831978,6.15404332 L15.7831978,9.84646931 L16.99729,9.84646931 C18.3383391,9.84646931 19.4254743,10.9485729 19.4254743,12.3080866 L19.4254743,22.1545559 C19.4254743,23.5140696 18.3383391,24.6161733 16.99729,24.6161733 L2.42818428,24.6161733 C1.08713513,24.6161733 0,23.5140696 0,22.1545559 L0,12.3080866 C0,10.9485729 1.08713513,9.84646931 2.42818428,9.84646931 L3.64227642,9.84646931 Z" id="Shape"></path>
                                </g>
                                <g id="Tip-4" fill-rule="nonzero">
                                    <path d="M15.8062699,28.1029412 C13.0956609,28.1029411 10.8980885,30.3193508 10.8974124,33.0538769 C10.8974124,33.1774032 10.9243505,33.2848711 10.9316973,33.4022211 C10.8594542,33.4639843 10.7859866,33.5096891 10.7137435,33.5788638 L9.28602392,35.0204162 C9.14862315,35.1877255 9.14862315,35.4299749 9.28602392,35.5972842 C9.39537307,35.7946683 9.53274078,35.9748636 9.69376888,36.1321532 C9.77512202,36.2139671 9.82084722,36.3250849 9.82084722,36.4409691 C9.82084722,36.5568533 9.77512202,36.6679711 9.69376888,36.7497849 L3.57147218,42.9261019 L3.57147218,45.1088123 C3.57013144,45.1855526 3.59975891,45.2595483 3.65355624,45.3138204 C3.70735357,45.3680924 3.7807021,45.3979813 3.8567712,45.3966287 L6.96322455,45.3966287 C7.0386601,45.3969726 7.11105114,45.3666388 7.16404594,45.3124791 C7.21704074,45.2583194 7.24616863,45.1849026 7.2448502,45.1088123 L7.2448502,44.1477774 L8.1631947,44.1477774 C8.23838969,44.149784 8.3111802,44.1209592 8.36494341,44.0678855 C8.41870663,44.0148118 8.4488514,43.9420215 8.44849373,43.8661373 L8.44849373,42.9174551 L8.71420141,42.9174551 C8.71420141,42.9174551 9.05705002,42.9174551 9.05705002,42.6271682 L9.05705002,42.3084702 L10.0109038,42.3084702 C10.0109038,42.3084702 10.2962029,42.1849439 10.2962029,42.0070659 L10.2962029,40.4370462 L11.3431156,40.4370462 L12.7145101,39.0560217 L12.9998091,39.0560217 L13.5716316,39.6328897 C13.8569306,39.9207061 13.8569306,39.9207061 14.0185593,39.9207061 C14.1457514,39.9105845 14.2651726,39.854947 14.3552856,39.7638276 L15.5711737,38.1913373 C15.6128053,38.1258684 15.6372945,38.0591641 15.6740283,37.9924599 C15.7181088,37.9924599 15.7597405,38.0060478 15.8050454,38.0060478 C18.5157945,38.0060478 20.7132907,35.7891619 20.7132907,33.0544945 C20.7132907,30.3198271 18.5157945,28.1029412 15.8050454,28.1029412 L15.8062699,28.1029412 Z M17.6527546,32.4127752 C16.9765044,32.4127752 16.4282953,31.8597289 16.4282953,31.1775118 C16.4282953,30.4952946 16.9765044,29.9422484 17.6527546,29.9422484 C18.3290048,29.9422484 18.8772139,30.4952946 18.8772139,31.1775118 C18.8772139,31.8597289 18.3290048,32.4127752 17.6527546,32.4127752 Z" id="Shape" transform="translate(12.142360, 36.749807) scale(-1, -1) rotate(45.000000) translate(-12.142360, -36.749807) "></path>
                                    <path d="M15.8062699,15.8529412 C13.0956609,15.8529411 10.8980885,18.0693508 10.8974124,20.8038769 C10.8974124,20.9274032 10.9243505,21.0348711 10.9316973,21.1522211 C10.8594542,21.2139843 10.7859866,21.2596891 10.7137435,21.3288638 L9.28602392,22.7704162 C9.14862315,22.9377255 9.14862315,23.1799749 9.28602392,23.3472842 C9.39537307,23.5446683 9.53274078,23.7248636 9.69376888,23.8821532 C9.77512202,23.9639671 9.82084722,24.0750849 9.82084722,24.1909691 C9.82084722,24.3068533 9.77512202,24.4179711 9.69376888,24.4997849 L3.57147218,30.6761019 L3.57147218,32.8588123 C3.57013144,32.9355526 3.59975891,33.0095483 3.65355624,33.0638204 C3.70735357,33.1180924 3.7807021,33.1479813 3.8567712,33.1466287 L6.96322455,33.1466287 C7.0386601,33.1469726 7.11105114,33.1166388 7.16404594,33.0624791 C7.21704074,33.0083194 7.24616863,32.9349026 7.2448502,32.8588123 L7.2448502,31.8977774 L8.1631947,31.8977774 C8.23838969,31.899784 8.3111802,31.8709592 8.36494341,31.8178855 C8.41870663,31.7648118 8.4488514,31.6920215 8.44849373,31.6161373 L8.44849373,30.6674551 L8.71420141,30.6674551 C8.71420141,30.6674551 9.05705002,30.6674551 9.05705002,30.3771682 L9.05705002,30.0584702 L10.0109038,30.0584702 C10.0109038,30.0584702 10.2962029,29.9349439 10.2962029,29.7570659 L10.2962029,28.1870462 L11.3431156,28.1870462 L12.7145101,26.8060217 L12.9998091,26.8060217 L13.5716316,27.3828897 C13.8569306,27.6707061 13.8569306,27.6707061 14.0185593,27.6707061 C14.1457514,27.6605845 14.2651726,27.604947 14.3552856,27.5138276 L15.5711737,25.9413373 C15.6128053,25.8758684 15.6372945,25.8091641 15.6740283,25.7424599 C15.7181088,25.7424599 15.7597405,25.7560478 15.8050454,25.7560478 C18.5157945,25.7560478 20.7132907,23.5391619 20.7132907,20.8044945 C20.7132907,18.0698271 18.5157945,15.8529412 15.8050454,15.8529412 L15.8062699,15.8529412 Z M17.6527546,20.1627752 C16.9765044,20.1627752 16.4282953,19.6097289 16.4282953,18.9275118 C16.4282953,18.2452946 16.9765044,17.6922484 17.6527546,17.6922484 C18.3290048,17.6922484 18.8772139,18.2452946 18.8772139,18.9275118 C18.8772139,19.6097289 18.3290048,20.1627752 17.6527546,20.1627752 Z" id="Shape" transform="translate(12.142360, 24.499807) scale(-1, -1) rotate(45.000000) translate(-12.142360, -24.499807) "></path>
                                    <path d="M15.8062699,3.60294118 C13.0956609,3.60294109 10.8980885,5.81935078 10.8974124,8.55387686 C10.8974124,8.6774032 10.9243505,8.78487111 10.9316973,8.90222114 C10.8594542,8.9639843 10.7859866,9.00968905 10.7137435,9.0788638 L9.28602392,10.5204162 C9.14862315,10.6877255 9.14862315,10.9299749 9.28602392,11.0972842 C9.39537307,11.2946683 9.53274078,11.4748636 9.69376888,11.6321532 C9.77512202,11.7139671 9.82084722,11.8250849 9.82084722,11.9409691 C9.82084722,12.0568533 9.77512202,12.1679711 9.69376888,12.2497849 L3.57147218,18.4261019 L3.57147218,20.6088123 C3.57013144,20.6855526 3.59975891,20.7595483 3.65355624,20.8138204 C3.70735357,20.8680924 3.7807021,20.8979813 3.8567712,20.8966287 L6.96322455,20.8966287 C7.0386601,20.8969726 7.11105114,20.8666388 7.16404594,20.8124791 C7.21704074,20.7583194 7.24616863,20.6849026 7.2448502,20.6088123 L7.2448502,19.6477774 L8.1631947,19.6477774 C8.23838969,19.649784 8.3111802,19.6209592 8.36494341,19.5678855 C8.41870663,19.5148118 8.4488514,19.4420215 8.44849373,19.3661373 L8.44849373,18.4174551 L8.71420141,18.4174551 C8.71420141,18.4174551 9.05705002,18.4174551 9.05705002,18.1271682 L9.05705002,17.8084702 L10.0109038,17.8084702 C10.0109038,17.8084702 10.2962029,17.6849439 10.2962029,17.5070659 L10.2962029,15.9370462 L11.3431156,15.9370462 L12.7145101,14.5560217 L12.9998091,14.5560217 L13.5716316,15.1328897 C13.8569306,15.4207061 13.8569306,15.4207061 14.0185593,15.4207061 C14.1457514,15.4105845 14.2651726,15.354947 14.3552856,15.2638276 L15.5711737,13.6913373 C15.6128053,13.6258684 15.6372945,13.5591641 15.6740283,13.4924599 C15.7181088,13.4924599 15.7597405,13.5060478 15.8050454,13.5060478 C18.5157945,13.5060478 20.7132907,11.2891619 20.7132907,8.55449449 C20.7132907,5.81982711 18.5157945,3.60294118 15.8050454,3.60294118 L15.8062699,3.60294118 Z M17.6527546,7.91277516 C16.9765044,7.91277516 16.4282953,7.3597289 16.4282953,6.67751176 C16.4282953,5.99529463 16.9765044,5.44224837 17.6527546,5.44224837 C18.3290048,5.44224837 18.8772139,5.99529463 18.8772139,6.67751176 C18.8772139,7.3597289 18.3290048,7.91277516 17.6527546,7.91277516 Z" id="Shape" transform="translate(12.142360, 12.249807) scale(-1, -1) rotate(45.000000) translate(-12.142360, -12.249807) "></path>
                                </g>
                            </g>
                        </g>
                    </g>
                </g>
            </g>
        </g>
    </g>
</svg>