<?xml version="1.0" encoding="UTF-8"?>
<svg width="87px" height="87px" viewBox="0 0 87 87" version="1.1" xmlns="http://www.w3.org/2000/svg" xmlns:xlink="http://www.w3.org/1999/xlink">
    <!-- Generator: Sketch 51.1 (57501) - http://www.bohemiancoding.com/sketch -->
    <title>tip-5</title>
    <desc>Created with Sketch.</desc>
    <defs>
        <linearGradient x1="89.9287684%" y1="19.2233456%" x2="14.0441176%" y2="85.9352022%" id="linearGradient-1">
            <stop stop-color="#18BAFF" offset="0%"></stop>
            <stop stop-color="#0A84FF" offset="100%"></stop>
        </linearGradient>
    </defs>
    <g id="Page-1" stroke="none" stroke-width="1" fill="none" fill-rule="evenodd">
        <g id="Homepage" transform="translate(-558.000000, -1329.000000)">
            <g id="Passwords" transform="translate(186.000000, 808.000000)">
                <g id="Tips-5" transform="translate(301.000000, 522.000000)">
                    <g id="tip-5" transform="translate(72.000000, 0.000000)">
                        <circle id="Oval" stroke="url(#linearGradient-1)" stroke-width="2" cx="42.5" cy="42.5" r="42.5"></circle>
                        <g id="Tip-5" transform="translate(18.000000, 24.000000)" fill="#0A84FF">
                            <g id="Shape">
                                <path d="M42.6774194,14.9574468 L33.983871,14.9574468 L33.983871,33.0638298 L1.18548387,33.0638298 C0.530759208,33.0638298 0,32.5351448 0,31.8829787 L0,29.5212766 C0,28.8691106 0.530759208,28.3404255 1.18548387,28.3404255 L4.74193548,28.3404255 L4.74193548,2.36170213 C4.74193548,1.05737006 5.8034539,0 7.11290323,0 L40.3064516,0 C41.6159009,0 42.6774194,1.05737006 42.6774194,2.36170213 L42.6774194,14.9574468 Z M47.4193548,29.5212766 L47.4193548,31.8829787 L47.4193548,29.5212766 Z M37.9354839,14.9574468 L33.983871,14.9574468 L33.983871,25.9787234 L9.48387097,25.9787234 L9.48387097,4.72340426 L37.9354839,4.72340426 L37.9354839,14.9574468 Z M18.9677419,28.3404255 L18.9677419,30.7021277 L28.4516129,30.7021277 L28.4516129,28.3404255 L18.9677419,28.3404255 Z"></path>
                                <path d="M32.4032258,15.7446809 C32.4032258,14.4403488 33.4647442,13.3829787 34.7741935,13.3829787 L46.6290323,13.3829787 C47.9384816,13.3829787 49,14.4403488 49,15.7446809 L49,34.6382979 C49,35.9426299 47.9384816,37 46.6290323,37 L34.7741935,37 C33.4647442,37 32.4032258,35.9426299 32.4032258,34.6382979 L32.4032258,15.7446809 Z M34.7741935,16.3469149 L34.7741935,32.8552128 C34.7741935,33.1878174 35.0448807,33.4574468 35.3787903,33.4574468 L46.0244355,33.4574468 C46.3583451,33.4574468 46.6290323,33.1878174 46.6290323,32.8552128 L46.6290323,16.3469149 C46.6290323,16.0143102 46.3583451,15.7446809 46.0244355,15.7446809 L35.3787903,15.7446809 C35.0448807,15.7446809 34.7741935,16.0143102 34.7741935,16.3469149 Z M38.9233871,34.6382979 C38.5960248,34.6382979 38.3306452,34.9026404 38.3306452,35.2287234 C38.3306452,35.5548064 38.5960248,35.8191489 38.9233871,35.8191489 L42.4798387,35.8191489 C42.807201,35.8191489 43.0725806,35.5548064 43.0725806,35.2287234 C43.0725806,34.9026404 42.807201,34.6382979 42.4798387,34.6382979 L38.9233871,34.6382979 Z"></path>
                            </g>
                        </g>
                    </g>
                </g>
            </g>
        </g>
    </g>
</svg>