<?xml version="1.0" encoding="UTF-8"?>
<svg width="87px" height="87px" viewBox="0 0 87 87" version="1.1" xmlns="http://www.w3.org/2000/svg" xmlns:xlink="http://www.w3.org/1999/xlink">
    <!-- Generator: Sketch 51.1 (57501) - http://www.bohemiancoding.com/sketch -->
    <title>tip-2</title>
    <desc>Created with Sketch.</desc>
    <defs>
        <linearGradient x1="89.9287684%" y1="19.2233456%" x2="14.0441176%" y2="85.9352022%" id="linearGradient-1">
            <stop stop-color="#18BAFF" offset="0%"></stop>
            <stop stop-color="#0A84FF" offset="100%"></stop>
        </linearGradient>
    </defs>
    <g id="Page-1" stroke="none" stroke-width="1" fill="none" fill-rule="evenodd">
        <g id="Homepage" transform="translate(-558.000000, -1030.000000)">
            <g id="Passwords" transform="translate(186.000000, 808.000000)">
                <g id="Tips-2" transform="translate(301.000000, 223.000000)">
                    <g id="tip-2" transform="translate(72.000000, 0.000000)">
                        <circle id="Oval" stroke="url(#linearGradient-1)" stroke-width="2" cx="42.5" cy="42.5" r="42.5"></circle>
                        <g id="Tip-2" transform="translate(28.000000, 21.000000)" fill="#0A84FF">
                            <g id="Secure">
                                <path d="M14.0853659,24.981937 L14.0853659,21.9756257 C14.0853659,21.4570168 14.5057814,21.0366013 15.0243902,21.0366013 C15.5429991,21.0366013 15.9634146,21.4570168 15.9634146,21.9756257 L15.9634146,24.981937 C17.5834451,25.4065348 18.7804878,26.9040542 18.7804878,28.6862745 C18.7804878,30.7986734 17.0988256,32.5111111 15.0243902,32.5111111 C12.9499548,32.5111111 11.2682927,30.7986734 11.2682927,28.6862745 C11.2682927,26.9040542 12.4653354,25.4065348 14.0853659,24.981937 Z M9.3902439,9.5620915 C9.3902439,6.39349312 11.9127371,3.8248366 15.0243902,3.8248366 C18.1360433,3.8248366 20.6585366,6.39349312 20.6585366,9.5620915 L20.6585366,15.2993464 L9.3902439,15.2993464 L9.3902439,9.5620915 Z M5.63414634,15.2993464 L5.63414634,9.5620915 C5.63414634,4.28109419 9.83830174,8.49284332e-16 15.0243902,0 C20.2104787,-1.69856866e-15 24.4146341,4.28109419 24.4146341,9.5620915 L24.4146341,15.2993464 L26.2926829,15.2993464 C28.3671183,15.2993464 30.0487805,17.0117841 30.0487805,19.124183 L30.0487805,34.4235294 C30.0487805,36.5359283 28.3671183,38.248366 26.2926829,38.248366 L3.75609756,38.248366 C1.68166216,38.248366 0,36.5359283 0,34.4235294 L0,19.124183 C0,17.0117841 1.68166216,15.2993464 3.75609756,15.2993464 L5.63414634,15.2993464 Z" id="Shape"></path>
                            </g>
                        </g>
                    </g>
                </g>
            </g>
        </g>
    </g>
</svg>