<svg fill="none" height="16" viewBox="0 0 90 16" width="90" xmlns="http://www.w3.org/2000/svg" xmlns:xlink="http://www.w3.org/1999/xlink"><clipPath id="a"><path d="m34 0h55.4667v16h-55.4667z"/></clipPath><path d="m.479403 5h.658377v-1.53409h.89489c1.01207 0 1.51278-.61151 1.51278-1.4169 0-.80327-.49644-1.412646-1.51065-1.412646h-1.555397zm.658377-2.09233v-1.70668h.82671c.65199 0 .91832.3537.91832.84802 0 .49431-.26633.85866-.9098.85866zm4.46591 2.15838c.92259 0 1.52557-.67543 1.52557-1.6875 0-1.01846-.60298-1.69389-1.52557-1.69389-.92258 0-1.52557.67543-1.52557 1.69389 0 1.01207.60299 1.6875 1.52557 1.6875zm.00213-.5348c-.60298 0-.88423-.52628-.88423-1.15483 0-.62642.28125-1.15909.88423-1.15909.59873 0 .87998.53267.87998 1.15909 0 .62855-.28125 1.15483-.87998 1.15483zm2.84446.46875h.64773l.66477-2.36293h.04901l.66481 2.36293h.6498l.961-3.27273h-.6584l-.6371 2.39276h-.032l-.6392-2.39276h-.65834l-.64347 2.40341h-.03196l-.64133-2.40341h-.65838zm5.55252.06605c.7138 0 1.2188-.35156 1.3637-.88423l-.603-.10867c-.1151.30895-.3921.46662-.7543.46662-.5454 0-.9119-.35369-.9289-.98437h2.3267v-.22585c0-1.18253-.7074-1.64489-1.4489-1.64489-.9119 0-1.5128.6946-1.5128 1.70028 0 1.01634.5923 1.68111 1.5575 1.68111zm-.9204-1.98793c.0256-.46448.3622-.86718.88-.86718.4943 0 .8181.36647.8203.86718zm3.0314 1.92188h.6371v-1.99858c0-.42827.3302-.73722.7819-.73722.1322 0 .2813.02344.3324.03836v-.60938c-.0639-.00852-.1896-.01491-.2706-.01491-.3835 0-.7116.21733-.8309.56889h-.0341v-.51989h-.6158zm3.5961.06605c.7138 0 1.2187-.35156 1.3636-.88423l-.603-.10867c-.115.30895-.392.46662-.7542.46662-.5455 0-.912-.35369-.929-.98437h2.3267v-.22585c0-1.18253-.7074-1.64489-1.4489-1.64489-.9119 0-1.5128.6946-1.5128 1.70028 0 1.01634.5924 1.68111 1.5576 1.68111zm-.9205-1.98793c.0256-.46448.3622-.86718.88-.86718.4943 0 .8182.36647.8203.86718zm4.2566 1.9858c.5966 0 .831-.36435.946-.57315h.0533v.50923h.6221v-4.363636h-.637v1.621446h-.0384c-.115-.20241-.3324-.57315-.9418-.57315-.7904 0-1.3721.62429-1.3721 1.68537 0 1.05895.5731 1.69389 1.3679 1.69389zm.1406-.54332c-.5689 0-.865-.50071-.865-1.15696 0-.64986.2897-1.13779.865-1.13779.5561 0 .8544.45384.8544 1.13779 0 .68821-.3047 1.15696-.8544 1.15696zm4.0291.4794h.6222v-.50923h.0533c.115.2088.3494.57315.946.57315.7926 0 1.3679-.63494 1.3679-1.69389 0-1.06108-.5838-1.68537-1.3743-1.68537-.6073 0-.8267.37074-.9396.57315h-.0384v-1.621446h-.6371zm.6243-1.63636c0-.68395.2983-1.13779.8544-1.13779.5774 0 .8672.48793.8672 1.13779 0 .65625-.2983 1.15696-.8672 1.15696-.5476 0-.8544-.46875-.8544-1.15696zm3.366 2.86363c.5262 0 .8586-.27486 1.0483-.79048l1.3487-3.70952h-.684l-.8288 2.53978h-.0341l-.8288-2.53978h-.6818l1.1974 3.31534-.0788.21733c-.162.43466-.39.47088-.7394.375l-.1534.52202c.0767.03409.2429.07031.4347.07031z" fill="#9059ff"/><g clip-path="url(#a)"><path clip-rule="evenodd" d="m45.4173.840644c2.8717 2.933146 2.8649 7.670576-.0204 10.595156-2.1976 2.2276-5.4329 2.7625-8.1289 1.6047l-2.4537 2.4871c-1.0857-1.1006-1.0857-2.8849 0-3.9854.036-.0365.0726-.0717.11-.1057l-.0006-.0007 6.471-6.55913c-.2543-.26296-.4487-.56326-.583-.88326l-1.2569-.9194 1.0921-.79888c.1093-.52582.3653-1.02656.7681-1.434854 1.1053-1.120368 2.8974-1.120368 4.0027 0z" fill="#ffd600" fill-rule="evenodd"/><g fill="#111"><path d="m53.9589 13.0045-1.7907-2.5761v2.5761h-1.8337v-8.04332h1.8337v4.41293l1.7907-2.43472h2.1554l-2.4127 3.03252 2.4663 3.03259z"/><path d="m59.1109 6.86328c.4575 0 .8507.10508 1.1796.31524.3288.21012.5719.49635.7292.85869v-1.09782h1.8229v6.06511h-1.8229v-1.0978c-.1573.3623-.4004.6485-.7292.8586-.3289.2102-.7221.3152-1.1796.3152-.4932 0-.9365-.1231-1.3297-.3695-.386-.2536-.6934-.6159-.9222-1.0869-.2216-.471-.3324-1.0217-.3324-1.65219 0-.63767.1108-1.18837.3324-1.65211.2288-.47101.5362-.82971.9222-1.07606.3932-.25363.8365-.38046 1.3297-.38046zm.5898 1.6304c-.3932 0-.7113.13047-.9544.39131-.2359.26089-.3538.62318-.3538 1.08692 0 .46379.1179.82609.3538 1.08699.2431.2608.5612.3912.9544.3912.3861 0 .7006-.134.9437-.4021.2502-.2681.3753-.6268.3753-1.07609 0-.45648-.1251-.81518-.3753-1.07607-.2431-.2681-.5576-.40216-.9437-.40216z"/><path d="m67.9013 6.87427c.6863 0 1.2296.23187 1.6299.69561.4075.46378.6112 1.10145.6112 1.91304v3.52168h-1.8337v-3.3043c0-.40579-.1072-.72104-.3216-.94564-.2073-.23187-.4862-.34781-.8365-.34781-.3717 0-.6684.11953-.89.35866-.2145.23914-.3217.57972-.3217 1.02171v3.21738h-1.8337v-6.06512h1.8337v1.10867c.1716-.36234.4254-.64856.7614-.85868.3431-.21016.7435-.3152 1.201-.3152z"/><path d="m73.6251 6.86328c.4575 0 .8507.10508 1.1795.31524.3289.21012.5719.49635.7292.85869v-1.09782h1.8232v6.06511h-1.8232v-1.0978c-.1573.3623-.4003.6485-.7292.8586-.3288.2102-.722.3152-1.1795.3152-.4933 0-.9365-.1231-1.3297-.3695-.3861-.2536-.6934-.6159-.9222-1.0869-.2216-.471-.3324-1.0217-.3324-1.65219 0-.63767.1108-1.18837.3324-1.65211.2288-.47101.5361-.82971.9222-1.07606.3932-.25363.8364-.38046 1.3297-.38046zm.5897 1.6304c-.3931 0-.7113.13047-.9543.39131-.2359.26089-.3539.62318-.3539 1.08692 0 .46379.118.82609.3539 1.08699.243.2608.5612.3912.9543.3912.3861 0 .7006-.134.9437-.4021.2502-.2681.3753-.6268.3753-1.07609 0-.45648-.1251-.81518-.3753-1.07607-.2431-.2681-.5576-.40216-.9437-.40216z"/><path d="m80.453 8.08075c.2287-.36955.5218-.66304.8793-.88043.3648-.21738.7578-.32605 1.1798-.32605v1.98906h-.5257c-.486 0-.8649.10508-1.1366.31524-.2646.21012-.3968.56519-.3968 1.06513v2.7609h-1.8339v-6.06512h1.8339z"/><path d="m84.6627 6.93945 1.4366 3.71735 1.3406-3.71735h2.0266l-3.7316 8.95635h-2.016l1.4046-3.1195-2.5092-5.83685z"/></g></g></svg>