<?xml version="1.0" encoding="utf-8"?>
<!-- Generator: Adobe Illustrator 25.2.1, SVG Export Plug-In . SVG Version: 6.00 Build 0)  -->
<svg version="1.1" id="Layer_1" xmlns="http://www.w3.org/2000/svg" xmlns:xlink="http://www.w3.org/1999/xlink" x="0px" y="0px"
	 viewBox="0 0 55.5 16" style="enable-background:new 0 0 55.5 16;" xml:space="preserve">
<style type="text/css">
	.st0{clip-path:url(#SVGID_2_);}
	.st1{fill-rule:evenodd;clip-rule:evenodd;fill:#FFD600;}
	.st2{fill:#111111;}
</style>
<g>
	<defs>
		<rect id="SVGID_1_" x="0" y="0" width="55.5" height="16"/>
	</defs>
	<clipPath id="SVGID_2_">
		<use xlink:href="#SVGID_1_"  style="overflow:visible;"/>
	</clipPath>
	<g class="st0">
		<path class="st1" d="M11.4,0.8c2.9,2.9,2.9,7.7,0,10.6C9.2,13.7,6,14.2,3.3,13l-2.5,2.5c-1.1-1.1-1.1-2.9,0-4c0,0,0.1-0.1,0.1-0.1
			l0,0l6.5-6.6C7.1,4.6,6.9,4.3,6.8,4L5.6,3.1l1.1-0.8c0.1-0.5,0.4-1,0.8-1.4C8.5-0.3,10.3-0.3,11.4,0.8L11.4,0.8z"/>
		<g>
			<path class="st2" d="M20,13l-1.8-2.6V13h-1.8V5h1.8v4.4L20,6.9h2.2l-2.4,3l2.5,3L20,13z"/>
			<path class="st2" d="M25.1,6.9c0.5,0,0.9,0.1,1.2,0.3C26.6,7.4,26.9,7.7,27,8V6.9h1.8V13H27v-1.1c-0.2,0.4-0.4,0.6-0.7,0.9
				c-0.3,0.2-0.7,0.3-1.2,0.3c-0.5,0-0.9-0.1-1.3-0.4c-0.4-0.3-0.7-0.6-0.9-1.1c-0.2-0.5-0.3-1-0.3-1.7c0-0.6,0.1-1.2,0.3-1.7
				c0.2-0.5,0.5-0.8,0.9-1.1C24.2,7,24.6,6.9,25.1,6.9z M25.7,8.5c-0.4,0-0.7,0.1-1,0.4c-0.2,0.3-0.4,0.6-0.4,1.1
				c0,0.5,0.1,0.8,0.4,1.1c0.2,0.3,0.6,0.4,1,0.4c0.4,0,0.7-0.1,0.9-0.4c0.3-0.3,0.4-0.6,0.4-1.1c0-0.5-0.1-0.8-0.4-1.1
				C26.4,8.6,26.1,8.5,25.7,8.5z"/>
			<path class="st2" d="M33.9,6.9c0.7,0,1.2,0.2,1.6,0.7c0.4,0.5,0.6,1.1,0.6,1.9V13h-1.8V9.7c0-0.4-0.1-0.7-0.3-0.9
				c-0.2-0.2-0.5-0.3-0.8-0.3c-0.4,0-0.7,0.1-0.9,0.4c-0.2,0.2-0.3,0.6-0.3,1V13h-1.8V6.9h1.8V8c0.2-0.4,0.4-0.6,0.8-0.9
				C33,7,33.4,6.9,33.9,6.9L33.9,6.9z"/>
			<path class="st2" d="M39.6,6.9c0.5,0,0.9,0.1,1.2,0.3c0.3,0.2,0.6,0.5,0.7,0.9V6.9h1.8V13h-1.8v-1.1c-0.2,0.4-0.4,0.6-0.7,0.9
				c-0.3,0.2-0.7,0.3-1.2,0.3c-0.5,0-0.9-0.1-1.3-0.4c-0.4-0.3-0.7-0.6-0.9-1.1c-0.2-0.5-0.3-1-0.3-1.7c0-0.6,0.1-1.2,0.3-1.7
				c0.2-0.5,0.5-0.8,0.9-1.1C38.7,7,39.1,6.9,39.6,6.9z M40.2,8.5c-0.4,0-0.7,0.1-1,0.4C39,9.1,38.9,9.5,38.9,10
				c0,0.5,0.1,0.8,0.4,1.1c0.2,0.3,0.6,0.4,1,0.4c0.4,0,0.7-0.1,0.9-0.4c0.3-0.3,0.4-0.6,0.4-1.1c0-0.5-0.1-0.8-0.4-1.1
				C40.9,8.6,40.6,8.5,40.2,8.5z"/>
			<path class="st2" d="M46.5,8.1c0.2-0.4,0.5-0.7,0.9-0.9c0.4-0.2,0.8-0.3,1.2-0.3v2H48c-0.5,0-0.9,0.1-1.1,0.3
				c-0.3,0.2-0.4,0.6-0.4,1.1V13h-1.8V6.9h1.8L46.5,8.1z"/>
			<path class="st2" d="M50.7,6.9l1.4,3.7l1.3-3.7h2l-3.7,9h-2l1.4-3.1l-2.5-5.8H50.7z"/>
		</g>
	</g>
</g>
</svg>
