<svg enable-background="new 0 0 192.5 150.3" viewBox="0 0 192.5 150.3" xmlns="http://www.w3.org/2000/svg" xmlns:xlink="http://www.w3.org/1999/xlink"><clipPath id="a"><path d="m34 37.8h128.9v22.8h-128.9z"/></clipPath><g clip-path="url(#a)" opacity=".3"><g fill="#5c5c67"><path d="m56.4 51c0 .4.3.7.7.6 3.1-.7 5.4-3.4 5.4-6.7s-2.3-6-5.4-6.7c-.4-.1-.7.2-.7.6 0 .3.3.6.6.7 2.4.6 4.2 2.7 4.2 5.3s-1.8 4.7-4.2 5.3c-.3.3-.6.6-.6.9z"/><path d="m54.5 50.3c.3.1.6.4.6.7 0 .4-.3.7-.7.6-.9-.2-1.7-.6-2.4-1.1-.3-.2-.3-.7-.1-1s.6-.3.9-.1c.5.5 1.1.8 1.7.9z"/><path d="m49.8 45.7c.3 0 .6.3.7.6.1.5.3 1 .6 1.5.2.3.1.7-.1.9-.3.3-.8.3-1-.1-.4-.7-.7-1.4-.9-2.2 0-.4.3-.7.7-.7z"/><path d="m51.2 41.1c.2.3.3.7.1 1-.3.5-.6 1.1-.7 1.7-.1.3-.4.6-.7.6-.4 0-.7-.4-.6-.8.2-.9.5-1.7 1-2.5.1-.3.6-.3.9 0z"/><path d="m55.1 39c0 .3-.3.6-.6.7-.5.1-1 .3-1.5.6-.3.2-.7.1-.9-.1-.3-.3-.3-.8.1-1 .6-.4 1.4-.7 2.1-.9.5-.1.8.2.8.7z"/></g><path d="m153.3 56.3h-106c-3.3 0-6-2.7-6-6v-11.4c0-3.3 2.7-6 6-6h106c3.3 0 6 2.7 6 6v11.4c0 3.3-2.7 6-6 6z" fill="none" stroke="#ccc" stroke-miterlimit="10" stroke-width="2"/><path d="m145 42.1c0-.3-.2-.6-.5-.7s-.6-.1-.8.2l-3.3 3.2-3.3-3.2c-.3-.3-.8-.3-1.1 0s-.3.8 0 1l3.9 3.7c.3.3.8.3 1.1 0l3.9-3.7c0-.1.1-.3.1-.5z" fill="#676767"/></g><path d="m185.6 148h-178.8c-2.5 0-4.6-2.1-4.6-4.6v-141.2h188v141.2c0 2.6-2 4.6-4.6 4.6z" fill="none" stroke="#010101" stroke-linejoin="round" stroke-miterlimit="10" stroke-width="4.5"/><path d="m2.2 35.8h188" fill="none" stroke="#010101" stroke-miterlimit="10" stroke-width="4.5"/><g fill="#010101"><path d="m18.7 24.4c2.2 0 4-1.8 4-4s-1.8-4-4-4-4 1.8-4 4c0 2.1 1.8 4 4 4z"/><path d="m36.7 24.1c2.2 0 4-1.8 4-4s-1.8-4-4-4-4 1.8-4 4 1.8 4 4 4z"/><path d="m54.6 24.1c2.2 0 4-1.8 4-4s-1.8-4-4-4-4 1.8-4 4 1.8 4 4 4z"/></g><path d="m145.8 123.1h-93.7c-1.4 0-2.5-1.1-2.5-2.5s1.1-2.5 2.5-2.5h93.8c1.4 0 2.5 1.1 2.5 2.5-.1 1.4-1.2 2.5-2.6 2.5z" fill="#5c5d68"/><path d="m145.8 112.4h-93.7c-1.4 0-2.5-1.1-2.5-2.5s1.1-2.5 2.5-2.5h93.8c1.4 0 2.5 1.1 2.5 2.5-.1 1.3-1.2 2.5-2.6 2.5z" fill="#5c5d68"/><path d="m145.8 102.3h-93.7c-1.4 0-2.5-1.1-2.5-2.5s1.1-2.5 2.5-2.5h93.8c1.4 0 2.5 1.1 2.5 2.5-.1 1.4-1.2 2.5-2.6 2.5z" fill="#5c5d68"/><path d="m63.2 85-5-8.6c-.7-1.2-2.4-1.2-3.1 0l-5 8.6c-.7 1.2.2 2.6 1.5 2.6h9.9c1.5 0 2.4-1.4 1.7-2.6zm-5.5-2.8c0 .5-.4.9-.9.9s-.9-.4-.9-.9v-2.6c0-.5.4-.9.9-.9s.9.4.9.9zm-1 3.9c-.5 0-.9-.4-.9-.9s.4-.9.9-.9.9.4.9.9c.1.4-.4.9-.9.9z" fill="#5c5c67"/><path d="m153.6 137h-106c-3.3 0-6-2.7-6-6v-53.8c0-3.3 2.7-6 6-6h106c3.3 0 6 2.7 6 6v53.8c0 3.3-2.7 6-6 6z" fill="none" stroke="#ccc" stroke-miterlimit="10" stroke-width="2"/><path d="m41 91.4h118.6" fill="none" stroke="#ccc" stroke-miterlimit="10"/><g opacity=".9"><g clip-rule="evenodd" fill-rule="evenodd"><circle cx="29.3" cy="100.6" fill="#fff" r="14.3"/><circle cx="29.3" cy="101.6" fill="#fff" r="14.3"/><ellipse cx="29.7" cy="100.7" fill="#fff" rx="14.3" ry="14.4"/><ellipse cx="29.7" cy="101.7" fill="#fff" rx="14.3" ry="14.4"/><path d="m29.7 115.1c7.9 0 14.3-6.5 14.3-14.4 0-8-6.4-14.1-14.3-14.1s-14.3 6.2-14.3 14.1c0 8 6.4 14.4 14.3 14.4z" fill="#fff"/><path d="m29.7 118.7c9.9 0 17.9-8 17.9-17.9s-8-17.9-17.9-17.9-17.9 8-17.9 17.9 8 17.9 17.9 17.9zm0-3.6c7.9 0 14.3-6.4 14.3-14.3s-6.4-14.3-14.3-14.3-14.3 6.4-14.3 14.3 6.4 14.3 14.3 14.3z" fill="#634ea0"/></g><path d="m27.9 105.2c3.4 0 6.1-2.7 6.1-6.1s-2.7-6.1-6.1-6.1-6.1 2.7-6.1 6.1 2.8 6.1 6.1 6.1z" fill="none" stroke="#634ea0" stroke-width="2"/><path d="m32.3 103.5 5.2 5.2" fill="none" stroke="#634ea0" stroke-linecap="round" stroke-width="2"/></g><path d="m136 84c0 .3.2.6.5.7s.6.1.8-.2l3.3-3.2 3.3 3.2c.3.3.8.3 1.1 0s.3-.8 0-1l-3.9-3.7c-.3-.3-.8-.3-1.1 0l-3.9 3.7c0 .2-.1.3-.1.5z" fill="#676767"/><path d="m159.4 103.8-8.1-20.4 20.4 8.1-6 2.9 6.6 6.6-3.7 3.2-6.7-6.9z" style="fill:#fff;stroke:#010101;stroke-width:1.5;stroke-linecap:round;stroke-linejoin:round;stroke-miterlimit:10"/><path d="m179.2 139.6v-93.7c0-1.4 1.1-2.5 2.5-2.5s2.5 1.1 2.5 2.5v93.8c0 1.4-1.1 2.5-2.5 2.5s-2.5-1.2-2.5-2.6z" fill="#e2e2e2"/></svg>