<?xml version="1.0" encoding="utf-8"?>
<!-- Generator: Adobe Illustrator 25.2.1, SVG Export Plug-In . SVG Version: 6.00 Build 0)  -->
<svg version="1.1" id="Layer_1" xmlns="http://www.w3.org/2000/svg" xmlns:xlink="http://www.w3.org/1999/xlink" x="0px" y="0px"
	 viewBox="0 0 192.5 150.3" style="enable-background:new 0 0 192.5 150.3;" xml:space="preserve">
<style type="text/css">
	.st0{fill:none;stroke:#010101;stroke-width:4.5;stroke-linejoin:round;stroke-miterlimit:10;}
	.st1{fill:none;stroke:#010101;stroke-width:4.5;stroke-miterlimit:10;}
	.st2{fill:#010101;}
	.st3{fill:#634EA0;}
	.st4{fill:none;stroke:#CCCCCC;stroke-width:2;stroke-miterlimit:10;}
	.st5{fill:#676767;}
	.st6{fill-rule:evenodd;clip-rule:evenodd;fill:#5C5C67;}
	.st7{fill:#5C5C67;}
	.st8{fill:#E2E2E2;}
</style>
<title>An illustration of several removal results</title>
<path class="st0" d="M185.6,148H6.8c-2.5,0-4.6-2.1-4.6-4.6V2.2h188v141.2C190.2,146,188.2,148,185.6,148z"/>
<path class="st1" d="M2.2,35.8h188"/>
<path class="st2" d="M18.7,24.4c2.2,0,4-1.8,4-4c0-2.2-1.8-4-4-4s-4,1.8-4,4C14.7,22.5,16.5,24.4,18.7,24.4z"/>
<path class="st2" d="M36.7,24.1c2.2,0,4-1.8,4-4c0-2.2-1.8-4-4-4s-4,1.8-4,4C32.7,22.3,34.5,24.1,36.7,24.1z"/>
<path class="st2" d="M54.6,24.1c2.2,0,4-1.8,4-4c0-2.2-1.8-4-4-4c-2.2,0-4,1.8-4,4C50.6,22.3,52.4,24.1,54.6,24.1z"/>
<path class="st3" d="M54.9,124l-5-8.6c-0.7-1.2-2.4-1.2-3.1,0l-5,8.6c-0.7,1.2,0.2,2.6,1.5,2.6h9.9C54.7,126.6,55.5,125.2,54.9,124z
	 M49.3,121.2c0,0.5-0.4,0.9-0.9,0.9s-0.9-0.4-0.9-0.9v-2.6c0-0.5,0.4-0.9,0.9-0.9s0.9,0.4,0.9,0.9V121.2z M48.3,125
	c-0.5,0-0.9-0.4-0.9-0.9c0-0.5,0.4-0.9,0.9-0.9s0.9,0.4,0.9,0.9C49.3,124.6,48.9,125,48.3,125z"/>
<path class="st4" d="M145.2,133.5h-106c-3.3,0-6-2.7-6-6v-11.4c0-3.3,2.7-6,6-6h106c3.3,0,6,2.7,6,6v11.4
	C151.2,130.8,148.5,133.5,145.2,133.5z"/>
<path class="st5" d="M136.9,119.3c0-0.3-0.2-0.6-0.5-0.7c-0.3-0.1-0.6-0.1-0.8,0.2l-3.3,3.2l-3.3-3.2c-0.3-0.3-0.8-0.3-1.1,0
	c-0.3,0.3-0.3,0.8,0,1l3.9,3.7c0.3,0.3,0.8,0.3,1.1,0l3.9-3.7C136.8,119.7,136.9,119.5,136.9,119.3z"/>
<path class="st4" d="M145.2,103.5h-106c-3.3,0-6-2.7-6-6V86.2c0-3.3,2.7-6,6-6h106c3.3,0,6,2.7,6,6v11.4
	C151.2,100.8,148.5,103.5,145.2,103.5z"/>
<path class="st5" d="M136.9,89.3c0-0.3-0.2-0.6-0.5-0.7c-0.3-0.1-0.6-0.1-0.8,0.2l-3.3,3.2l-3.3-3.2c-0.3-0.3-0.8-0.3-1.1,0
	c-0.3,0.3-0.3,0.8,0,1l3.9,3.7c0.3,0.3,0.8,0.3,1.1,0l3.9-3.7C136.8,89.7,136.9,89.5,136.9,89.3z"/>
<path class="st4" d="M145.2,73.5h-106c-3.3,0-6-2.7-6-6V56.2c0-3.3,2.7-6,6-6h106c3.3,0,6,2.7,6,6v11.4
	C151.2,70.8,148.5,73.5,145.2,73.5z"/>
<path class="st5" d="M136.9,59.3c0-0.3-0.2-0.6-0.5-0.7c-0.3-0.1-0.6-0.1-0.8,0.2l-3.3,3.2l-3.3-3.2c-0.3-0.3-0.8-0.3-1.1,0
	c-0.3,0.3-0.3,0.8,0,1l3.9,3.7c0.3,0.3,0.8,0.3,1.1,0l3.9-3.7C136.8,59.7,136.9,59.5,136.9,59.3z"/>
<path class="st6" d="M46.7,68.9c4,0,7.2-3.1,7.2-6.9c0-3.8-3.2-6.9-7.2-6.9c-4,0-7.2,3.1-7.2,6.9C39.6,65.9,42.8,68.9,46.7,68.9z
	 M46.7,67.6c3.2,0,5.7-2.5,5.7-5.5c0-3-2.6-5.5-5.7-5.5c-3.2,0-5.7,2.5-5.7,5.5C41,65.1,43.6,67.6,46.7,67.6z"/>
<path class="st7" d="M50,59.6l-4.3,4.2L43.8,62c-0.3-0.3-0.7-0.3-1,0c-0.3,0.3-0.3,0.7,0,0.9l2.5,2.4c0.2,0.2,0.5,0.2,0.7,0l5-4.8
	c0.3-0.3,0.3-0.7,0-0.9C50.7,59.4,50.3,59.4,50,59.6z"/>
<path class="st7" d="M48.3,98.2c0,0.4,0.3,0.7,0.7,0.6c3.1-0.7,5.4-3.4,5.4-6.7c0-3.3-2.3-6-5.4-6.7c-0.4-0.1-0.7,0.2-0.7,0.6
	c0,0.3,0.3,0.6,0.6,0.7c2.4,0.6,4.2,2.7,4.2,5.3c0,2.6-1.8,4.7-4.2,5.3C48.6,97.6,48.3,97.9,48.3,98.2z"/>
<path class="st7" d="M46.4,97.5c0.3,0.1,0.6,0.4,0.6,0.7c0,0.4-0.3,0.7-0.7,0.6c-0.9-0.2-1.7-0.6-2.4-1.1c-0.3-0.2-0.3-0.7-0.1-1
	c0.2-0.3,0.6-0.3,0.9-0.1C45.2,97.1,45.8,97.4,46.4,97.5z"/>
<path class="st7" d="M41.7,92.9c0.3,0,0.6,0.3,0.7,0.6c0.1,0.5,0.3,1,0.6,1.5c0.2,0.3,0.1,0.7-0.1,0.9c-0.3,0.3-0.8,0.3-1-0.1
	c-0.4-0.7-0.7-1.4-0.9-2.2C41,93.2,41.3,92.9,41.7,92.9z"/>
<path class="st7" d="M43.1,88.3c0.2,0.3,0.3,0.7,0.1,1c-0.3,0.5-0.6,1.1-0.7,1.7c-0.1,0.3-0.4,0.6-0.7,0.6c-0.4,0-0.7-0.4-0.6-0.8
	c0.2-0.9,0.5-1.7,1-2.5C42.3,88,42.8,88,43.1,88.3z"/>
<path class="st7" d="M47,86.2c0,0.3-0.3,0.6-0.6,0.7c-0.5,0.1-1,0.3-1.5,0.6c-0.3,0.2-0.7,0.1-0.9-0.1c-0.3-0.3-0.3-0.8,0.1-1
	c0.6-0.4,1.4-0.7,2.1-0.9C46.7,85.4,47,85.8,47,86.2z"/>
<path class="st8" d="M178.2,138.2V44.5c0-1.4,1.1-2.5,2.5-2.5c1.4,0,2.5,1.1,2.5,2.5v93.8c0,1.4-1.1,2.5-2.5,2.5
	C179.3,140.7,178.2,139.6,178.2,138.2z"/>
</svg>
