<svg enable-background="new 0 0 192.5 157.8" viewBox="0 0 192.5 157.8" xmlns="http://www.w3.org/2000/svg"><path d="m185.6 148h-178.8c-2.5 0-4.6-2.1-4.6-4.6v-141.2h188v141.2c0 2.6-2 4.6-4.6 4.6z" fill="none" stroke="#010101" stroke-linejoin="round" stroke-miterlimit="10" stroke-width="4.5"/><path d="m2.2 35.8h188" fill="none" stroke="#010101" stroke-miterlimit="10" stroke-width="4.5"/><g fill="#010101"><path d="m18.7 24.4c2.2 0 4-1.8 4-4s-1.8-4-4-4-4 1.8-4 4c0 2.1 1.8 4 4 4z"/><path d="m36.7 24.1c2.2 0 4-1.8 4-4s-1.8-4-4-4-4 1.8-4 4 1.8 4 4 4z"/><path d="m54.6 24.1c2.2 0 4-1.8 4-4s-1.8-4-4-4-4 1.8-4 4 1.8 4 4 4z"/></g><path d="m132.3 79.4h-109.5c-1.4 0-2.5-1.1-2.5-2.5s1.1-2.5 2.5-2.5h109.4c1.4 0 2.5 1.1 2.5 2.5.1 1.4-1.1 2.5-2.4 2.5z" fill="#5c5d68"/><path d="m132.3 67.7h-109.5c-1.4 0-2.5-1.1-2.5-2.5s1.1-2.5 2.5-2.5h109.4c1.4 0 2.5 1.1 2.5 2.5.1 1.4-1.1 2.5-2.4 2.5z" fill="#5c5d68"/><path d="m132.3 91.1h-109.5c-1.4 0-2.5-1.1-2.5-2.5s1.1-2.5 2.5-2.5h109.4c1.4 0 2.5 1.1 2.5 2.5.1 1.4-1.1 2.5-2.4 2.5z" fill="#5c5d68"/><path d="m157.1 62.7c-6.3 0-11.4 5.1-11.4 11.4s5.1 11.4 11.4 11.4 11.4-5.1 11.4-11.4c0-6.2-5.1-11.4-11.4-11.4zm0 2.3c2.4 0 4.4 2 4.4 4.4s-2 4.4-4.4 4.4-4.4-2-4.4-4.4 2-4.4 4.4-4.4zm0 17.1c-3.4 0-6.3-1.8-7.9-4.5.6-.7 1.6-1.2 2.6-1.2h10.6c1.1 0 2 .5 2.6 1.2-1.6 2.6-4.5 4.5-7.9 4.5z" fill="#5c5c67"/><path d="m157.5 58.7c-8.6 0-15.5 6.9-15.5 15.5s6.9 15.5 15.5 15.5 15.5-6.9 15.5-15.5-6.9-15.5-15.5-15.5zm0 4.3c2.3 0 4.5.7 6.2 1.9l-15.5 15.5c-1.2-1.8-1.9-3.9-1.9-6.2 0-6.2 5-11.2 11.2-11.2zm0 22.4c-2.3 0-4.5-.7-6.2-1.9l15.5-15.5c1.2 1.8 1.9 3.9 1.9 6.2 0 6.2-5 11.2-11.2 11.2z" fill="#fff" stroke="#5c5c67" stroke-miterlimit="10"/><path d="m82.9 108.8h-43c-1.4 0-2.5-1.1-2.5-2.5s1.1-2.5 2.5-2.5h43c1.4 0 2.5 1.1 2.5 2.5s-1.1 2.5-2.5 2.5z" fill="#5c5d68"/><path d="m82.3 128.8h-43c-1.4 0-2.5-1.7-2.5-3.8s1.1-3.8 2.5-3.8h43c1.4 0 2.5 1.7 2.5 3.8s-1.1 3.8-2.5 3.8z" fill="#634ea0"/><path d="m20.3 101.5h11.4v11.4h-11.4z" fill="none" stroke="#ccc" stroke-miterlimit="10"/><path d="m26.6 110.2-4.8-4.8c-.4-.4-.4-1.2 0-1.6s1.2-.4 1.6 0l3.8 3.8 6.9-6.9c.4-.4 1.2-.4 1.6 0s.4 1.2 0 1.6l-8 8h-1.1z" fill="#5c5c67"/><path d="m83.4 156.6-12.5-31.5 31.5 12.5-9.3 4.5 10.1 10.1-5.7 4.9-10.3-10.7z" style="fill:#fff;stroke:#010101;stroke-width:1.5;stroke-linecap:round;stroke-linejoin:round;stroke-miterlimit:10"/></svg>