<svg fill="none" height="16" viewBox="0 0 16 16" width="16" xmlns="http://www.w3.org/2000/svg"><path d="m7.625.5c-.98491 0-1.96018.193993-2.87013.5709-.90994.37691-1.73673.92936-2.43317 1.6258s-1.24889 1.52323-1.625796 2.43317c-.376911.90995-.570904 1.88522-.570904 2.87013s.193993 1.96018.570904 2.8701c.376906.91.929356 1.7368 1.625796 2.4332s1.52323 1.2489 2.43317 1.6258c.90995.3769 1.88522.5709 2.87013.5709 1.98912 0 3.8968-.7902 5.3033-2.1967s2.1967-3.31418 2.1967-5.3033-.7902-3.89678-2.1967-5.3033-3.31418-2.1967-5.3033-2.1967zm.625 11.25-.25.25h-.75l-.25-.25v-.75l.25-.25h.75l.25.25zm0-3.329v.663c0 .16576-.06585.32473-.18306.44194s-.27618.18306-.44194.18306-.32473-.06585-.44194-.18306-.18306-.27618-.18306-.44194v-.767c0-.527.37-.987.879-1.092.577-.12.996-.635.996-1.225-.0022-.29444-.1081-.57868-.2991-.80277-.19099-.2241-.45486-.3737-.74523-.42254-.29036-.04883-.58865.00624-.84244.15553-.25379.1493-.44684.38326-.54523.66078-.06139.14685-.17642.2648-.32168.32986-.14526.06507-.30985.07235-.46029.02038-.15044-.05198-.27544-.1593-.34957-.30016-.07412-.14085-.09181-.30465-.04946-.45808.14134-.40847.38617-.77332.71059-1.05893s.71735-.48224 1.14044-.57068c.42308-.08844.86187-.06568 1.27354.06607.41166.13174.78214.36797 1.07526.68562.29313.31765.49889.70587.59717 1.12678.0983.4209.0859.8601-.0362 1.27473-.1221.41464-.3496.79054-.6603 1.09101-.31071.30048-.69401.51527-1.1125.6234z" fill="#979797"/></svg>