<svg fill="none" height="92" viewBox="0 0 174 92" width="174" xmlns="http://www.w3.org/2000/svg"><g stroke="#ccc" stroke-linecap="round" stroke-linejoin="round" stroke-width="4"><path d="m92 32v17"/><path d="m2 35v14"/><path d="m102 26v23"/><path d="m12 26v23"/><path d="m112 40v9"/><path d="m22 32v17"/><path d="m122 26v23"/><path d="m32 18v31"/><path d="m142 32v17"/><path d="m52 26v23"/><path d="m132 21v28"/><path d="m42 43v6"/><path d="m152 44v5"/><path d="m62 32v17"/><path d="m162 28v21"/><path d="m72 26v23"/><path d="m172 38v11"/><path d="m82 38v11"/></g><path d="m109.418 53.6683h-3.028l-1.074-1.035c4.6-5.3666 6.977-12.6883 5.674-20.47-1.802-10.6566-10.695-19.1666-21.4286-20.47-16.215-1.9933-29.8616 11.6534-27.8683 27.8684 1.3033 10.7333 9.8133 19.6266 20.47 21.4283 7.7817 1.3033 15.1033-1.0733 20.4699-5.6733l1.035 1.0733v3.0283l16.292 16.2917c1.571 1.5717 4.14 1.5717 5.711 0 1.572-1.5717 1.572-4.14 0-5.7117zm-22.9999 0c-9.545 0-17.25-7.705-17.25-17.25s7.705-17.25 17.25-17.25 17.2499 7.705 17.2499 17.25-7.7049 17.25-17.2499 17.25z" fill="#0060df"/></svg>