<svg enable-background="new 0 0 192.5 150.3" viewBox="0 0 192.5 150.3" xmlns="http://www.w3.org/2000/svg"><path d="m185.6 148h-178.8c-2.5 0-4.6-2.1-4.6-4.6v-141.2h188v141.2c0 2.6-2 4.6-4.6 4.6z" fill="none" stroke="#010101" stroke-linejoin="round" stroke-miterlimit="10" stroke-width="4.5"/><path d="m2.2 35.8h188" fill="none" stroke="#010101" stroke-miterlimit="10" stroke-width="4.5"/><path d="m18.7 24.4c2.2 0 4-1.8 4-4s-1.8-4-4-4-4 1.8-4 4c0 2.1 1.8 4 4 4z" fill="#010101"/><path d="m36.7 24.1c2.2 0 4-1.8 4-4s-1.8-4-4-4-4 1.8-4 4 1.8 4 4 4z" fill="#010101"/><path d="m54.6 24.1c2.2 0 4-1.8 4-4s-1.8-4-4-4-4 1.8-4 4 1.8 4 4 4z" fill="#010101"/><path d="m54.9 124-5-8.6c-.7-1.2-2.4-1.2-3.1 0l-5 8.6c-.7 1.2.2 2.6 1.5 2.6h9.9c1.5 0 2.3-1.4 1.7-2.6zm-5.6-2.8c0 .5-.4.9-.9.9s-.9-.4-.9-.9v-2.6c0-.5.4-.9.9-.9s.9.4.9.9zm-1 3.8c-.5 0-.9-.4-.9-.9s.4-.9.9-.9.9.4.9.9c.1.5-.3.9-.9.9z" fill="#634ea0"/><path d="m145.2 133.5h-106c-3.3 0-6-2.7-6-6v-11.4c0-3.3 2.7-6 6-6h106c3.3 0 6 2.7 6 6v11.4c0 3.3-2.7 6-6 6z" fill="none" stroke="#ccc" stroke-miterlimit="10" stroke-width="2"/><path d="m136.9 119.3c0-.3-.2-.6-.5-.7s-.6-.1-.8.2l-3.3 3.2-3.3-3.2c-.3-.3-.8-.3-1.1 0s-.3.8 0 1l3.9 3.7c.3.3.8.3 1.1 0l3.9-3.7c0-.1.1-.3.1-.5z" fill="#676767"/><path d="m145.2 103.5h-106c-3.3 0-6-2.7-6-6v-11.3c0-3.3 2.7-6 6-6h106c3.3 0 6 2.7 6 6v11.4c0 3.2-2.7 5.9-6 5.9z" fill="none" stroke="#ccc" stroke-miterlimit="10" stroke-width="2"/><path d="m136.9 89.3c0-.3-.2-.6-.5-.7s-.6-.1-.8.2l-3.3 3.2-3.3-3.2c-.3-.3-.8-.3-1.1 0s-.3.8 0 1l3.9 3.7c.3.3.8.3 1.1 0l3.9-3.7c0-.1.1-.3.1-.5z" fill="#676767"/><path d="m145.2 73.5h-106c-3.3 0-6-2.7-6-6v-11.3c0-3.3 2.7-6 6-6h106c3.3 0 6 2.7 6 6v11.4c0 3.2-2.7 5.9-6 5.9z" fill="none" stroke="#ccc" stroke-miterlimit="10" stroke-width="2"/><path d="m136.9 59.3c0-.3-.2-.6-.5-.7s-.6-.1-.8.2l-3.3 3.2-3.3-3.2c-.3-.3-.8-.3-1.1 0s-.3.8 0 1l3.9 3.7c.3.3.8.3 1.1 0l3.9-3.7c0-.1.1-.3.1-.5z" fill="#676767"/><g fill="#5c5c67"><path clip-rule="evenodd" d="m46.7 68.9c4 0 7.2-3.1 7.2-6.9s-3.2-6.9-7.2-6.9-7.2 3.1-7.2 6.9c.1 3.9 3.3 6.9 7.2 6.9zm0-1.3c3.2 0 5.7-2.5 5.7-5.5s-2.6-5.5-5.7-5.5c-3.2 0-5.7 2.5-5.7 5.5s2.6 5.5 5.7 5.5z" fill-rule="evenodd"/><path d="m50 59.6-4.3 4.2-1.9-1.8c-.3-.3-.7-.3-1 0s-.3.7 0 .9l2.5 2.4c.2.2.5.2.7 0l5-4.8c.3-.3.3-.7 0-.9s-.7-.2-1 0z"/><path d="m48.3 98.2c0 .4.3.7.7.6 3.1-.7 5.4-3.4 5.4-6.7s-2.3-6-5.4-6.7c-.4-.1-.7.2-.7.6 0 .3.3.6.6.7 2.4.6 4.2 2.7 4.2 5.3s-1.8 4.7-4.2 5.3c-.3.3-.6.6-.6.9z"/><path d="m46.4 97.5c.3.1.6.4.6.7 0 .4-.3.7-.7.6-.9-.2-1.7-.6-2.4-1.1-.3-.2-.3-.7-.1-1s.6-.3.9-.1c.5.5 1.1.8 1.7.9z"/><path d="m41.7 92.9c.3 0 .6.3.7.6.1.5.3 1 .6 1.5.2.3.1.7-.1.9-.3.3-.8.3-1-.1-.4-.7-.7-1.4-.9-2.2 0-.4.3-.7.7-.7z"/><path d="m43.1 88.3c.2.3.3.7.1 1-.3.5-.6 1.1-.7 1.7-.1.3-.4.6-.7.6-.4 0-.7-.4-.6-.8.2-.9.5-1.7 1-2.5.1-.3.6-.3.9 0z"/><path d="m47 86.2c0 .3-.3.6-.6.7-.5.1-1 .3-1.5.6-.3.2-.7.1-.9-.1-.3-.3-.3-.8.1-1 .6-.4 1.4-.7 2.1-.9.5-.1.8.3.8.7z"/></g><path d="m178.2 138.2v-93.7c0-1.4 1.1-2.5 2.5-2.5s2.5 1.1 2.5 2.5v93.8c0 1.4-1.1 2.5-2.5 2.5-1.4-.1-2.5-1.2-2.5-2.6z" fill="#e2e2e2"/></svg>