<svg fill="none" height="24" viewBox="0 0 24 24" width="24" xmlns="http://www.w3.org/2000/svg"><g fill="#fff"><path d="m13.0552 22.8179c0 .731.6263 1.3083 1.3346 1.1578 5.4892-1.1665 9.6102-6.0851 9.6102-11.9757 0-5.89063-4.121-10.80921-9.6102-11.9757095-.7083-.1505215-1.3346.4268035-1.3346 1.1578095 0 .62682.4667 1.14647 1.0706 1.291 4.2722 1.02236 7.4506 4.89977 7.4506 9.5269 0 4.6271-3.1784 8.5045-7.4506 9.5269-.6039.1445-1.0706.6642-1.0706 1.291z"/><path d="m9.63945 21.5272c.60395.1444 1.07035.664 1.07035 1.2909 0 .731-.6258 1.3083-1.33405 1.1579-1.59191-.3381-3.06878-.9918-4.36347-1.8932-.58529-.4075-.61315-1.2449-.11047-1.7526.44682-.4512 1.15635-.4767 1.68537-.1277.92079.6074 1.95014 1.0611 3.05227 1.3247z"/><path d="m1.17032 13.1843c.62068 0 1.13517.471 1.27823 1.0809.22153.9445.57852 1.8361 1.04912 2.6526.30626.5314.26323 1.2149-.16727 1.6496-.52143.5266-1.38633.4765-1.7731-.1575-.717197-1.1758-1.242993-2.4833-1.5335325-3.8783-.1489825-.7153.4227435-1.3473 1.1465525-1.3473z"/><path d="m3.63398 4.95003c.44684.45126.4721 1.16787.12647 1.70213-.60159.92993-1.05082 1.96952-1.3119 3.08261-.14306.60993-.65755 1.08093-1.27823 1.08093-.723809 0-1.295526-.632-1.1465406-1.34733.3348526-1.60775.9821806-3.09929 1.8748506-4.40682.40352-.59106 1.23269-.61917 1.73535-.11152z"/><path d="m10.7098 1.18192c0 .62685-.4664 1.14645-1.07034 1.29091-.93517.22368-1.81794.58416-2.62646 1.05935-.52617.30925-1.20288.26578-1.63336-.16897-.52144-.52662-.47182-1.40014.15606-1.79073 1.16419-.724204 2.45884-1.25513 3.84011-1.5484854.70829-.1504286 1.33399.4269594 1.33399 1.1579254z"/></g></svg>