<?xml version="1.0" encoding="utf-8"?>
<!-- Generator: Adobe Illustrator 25.2.1, SVG Export Plug-In . SVG Version: 6.00 Build 0)  -->
<svg version="1.1" id="Layer_1" xmlns="http://www.w3.org/2000/svg" xmlns:xlink="http://www.w3.org/1999/xlink" x="0px" y="0px"
	 viewBox="0 0 192.5 157.8" style="enable-background:new 0 0 192.5 157.8;" xml:space="preserve">
<style type="text/css">
	.st0{fill:none;stroke:#010101;stroke-width:4.5;stroke-linejoin:round;stroke-miterlimit:10;}
	.st1{fill:none;stroke:#010101;stroke-width:4.5;stroke-miterlimit:10;}
	.st2{fill:#010101;}
	.st3{fill:#5C5D68;}
	.st4{fill:#5C5C67;}
	.st5{fill:#FFFFFF;stroke:#5C5C67;stroke-miterlimit:10;}
	.st6{fill:#634EA0;}
	.st7{fill:none;stroke:#CCCCCC;stroke-miterlimit:10;}
	.st8{fill:#FFFFFF;stroke:#010101;stroke-width:1.5;stroke-linecap:round;stroke-linejoin:round;stroke-miterlimit:10;}
</style>
<title>An illustration of a form submission button being clicked</title>
<path class="st0" d="M185.6,148H6.8c-2.5,0-4.6-2.1-4.6-4.6V2.2h188v141.2C190.2,146,188.2,148,185.6,148z"/>
<path class="st1" d="M2.2,35.8h188"/>
<path class="st2" d="M18.7,24.4c2.2,0,4-1.8,4-4c0-2.2-1.8-4-4-4s-4,1.8-4,4C14.7,22.5,16.5,24.4,18.7,24.4z"/>
<path class="st2" d="M36.7,24.1c2.2,0,4-1.8,4-4c0-2.2-1.8-4-4-4s-4,1.8-4,4C32.7,22.3,34.5,24.1,36.7,24.1z"/>
<path class="st2" d="M54.6,24.1c2.2,0,4-1.8,4-4c0-2.2-1.8-4-4-4c-2.2,0-4,1.8-4,4C50.6,22.3,52.4,24.1,54.6,24.1z"/>
<path class="st3" d="M132.3,79.4H22.8c-1.4,0-2.5-1.1-2.5-2.5c0-1.4,1.1-2.5,2.5-2.5h109.4c1.4,0,2.5,1.1,2.5,2.5
	C134.8,78.3,133.6,79.4,132.3,79.4z"/>
<path class="st3" d="M132.3,67.7H22.8c-1.4,0-2.5-1.1-2.5-2.5c0-1.4,1.1-2.5,2.5-2.5h109.4c1.4,0,2.5,1.1,2.5,2.5
	C134.8,66.6,133.6,67.7,132.3,67.7z"/>
<path class="st3" d="M132.3,91.1H22.8c-1.4,0-2.5-1.1-2.5-2.5c0-1.4,1.1-2.5,2.5-2.5h109.4c1.4,0,2.5,1.1,2.5,2.5
	C134.8,90,133.6,91.1,132.3,91.1z"/>
<g>
	<path class="st4" d="M157.1,62.7c-6.3,0-11.4,5.1-11.4,11.4c0,6.3,5.1,11.4,11.4,11.4s11.4-5.1,11.4-11.4
		C168.5,67.9,163.4,62.7,157.1,62.7z M157.1,65c2.4,0,4.4,2,4.4,4.4c0,2.4-2,4.4-4.4,4.4s-4.4-2-4.4-4.4C152.7,67,154.7,65,157.1,65
		z M157.1,82.1c-3.4,0-6.3-1.8-7.9-4.5c0.6-0.7,1.6-1.2,2.6-1.2h10.6c1.1,0,2,0.5,2.6,1.2C163.4,80.2,160.5,82.1,157.1,82.1z"/>
	<path class="st5" d="M157.5,58.7c-8.6,0-15.5,6.9-15.5,15.5s6.9,15.5,15.5,15.5c8.6,0,15.5-6.9,15.5-15.5S166.1,58.7,157.5,58.7z
		 M157.5,63c2.3,0,4.5,0.7,6.2,1.9l-15.5,15.5c-1.2-1.8-1.9-3.9-1.9-6.2C146.3,68,151.3,63,157.5,63z M157.5,85.4
		c-2.3,0-4.5-0.7-6.2-1.9l15.5-15.5c1.2,1.8,1.9,3.9,1.9,6.2C168.7,80.4,163.7,85.4,157.5,85.4z"/>
</g>
<path class="st3" d="M82.9,108.8h-43c-1.4,0-2.5-1.1-2.5-2.5c0-1.4,1.1-2.5,2.5-2.5h43c1.4,0,2.5,1.1,2.5,2.5
	C85.4,107.7,84.3,108.8,82.9,108.8z"/>
<path class="st6" d="M82.3,128.8h-43c-1.4,0-2.5-1.7-2.5-3.8s1.1-3.8,2.5-3.8h43c1.4,0,2.5,1.7,2.5,3.8S83.7,128.8,82.3,128.8z"/>
<g>
	<rect x="20.3" y="101.5" class="st7" width="11.4" height="11.4"/>
</g>
<path class="st4" d="M26.6,110.2l-4.8-4.8c-0.4-0.4-0.4-1.2,0-1.6c0.4-0.4,1.2-0.4,1.6,0l3.8,3.8l6.9-6.9c0.4-0.4,1.2-0.4,1.6,0
	c0.4,0.4,0.4,1.2,0,1.6l-8,8H26.6z"/>
<path class="st8" d="M83.4,156.6l-12.5-31.5l31.5,12.5l-9.3,4.5l10.1,10.1l-5.7,4.9l-10.3-10.7L83.4,156.6z"/>
</svg>
