<svg fill="none" height="14" viewBox="0 0 14 14" width="14" xmlns="http://www.w3.org/2000/svg"><path d="m13.6929 11.0119-4.95296-9.90604c-.16608-.332284-.42142-.611752-.7374-.807076s-.68012-.298784-1.0516-.298784-.73562.10346-1.0516.298784-.57132.474792-.7374.807076l-4.953 9.91004c-.1514428.3047-.2226119.6431-.20677222.9831.01583972.3399.11816422.6702.29729022.9596.179125.2893.429126.5282.726342.694.29722.1657.63182.2529.97214.2533h9.90496c.341.0001.6763-.0869.9742-.2528.2978-.1659.5484-.4052.7277-.6952.1794-.2899.2816-.6209.297-.9615.0154-.3407-.0565-.6795-.2089-.9845zm-7.74196-7.10604c0-.26521.10536-.51957.29289-.7071.18754-.18754.44189-.2929.70711-.2929s.51957.10536.70711.2929c.18753.18753.29289.44189.29289.7071v4c0 .26522-.10536.51957-.29289.70711-.18754.18754-.44189.29289-.70711.29289s-.51957-.10535-.70711-.29289c-.18753-.18754-.29289-.44189-.29289-.70711zm1 8.25004c-.24723 0-.4889-.0733-.69446-.2107s-.36578-.3326-.46039-.561-.11936-.4797-.07113-.7222.16728-.4652.3421-.64c.17481-.17484.39754-.29389.64002-.34212.24247-.04823.49381-.02347.72221.07113.22841.09461.42364.25479.56099.46039s.21066.4472.21066.6945c0 .3315-.1317.6494-.36612.8838-.23442.2345-.55236.3662-.88388.3662z" fill="#fff"/></svg>