<svg fill="none" height="24" viewBox="0 0 24 24" width="24" xmlns="http://www.w3.org/2000/svg"><g fill="#fff"><path clip-rule="evenodd" d="m12 24c6.6274 0 12-5.3726 12-12 0-6.62742-5.3726-12-12-12-6.62742 0-12 5.37258-12 12 0 6.6274 5.37258 12 12 12zm0-2.4c5.3019 0 9.6-4.2981 9.6-9.6 0-5.30193-4.2981-9.6-9.6-9.6-5.30193 0-9.6 4.29807-9.6 9.6 0 5.3019 4.29807 9.6 9.6 9.6z" fill-rule="evenodd"/><path d="m17.4955 7.78791-7.2747 7.27499-3.11213-3.1102c-.45358-.4533-1.1887-.4531-1.64213.0003-.45361.4536-.45353 1.1891.00018 1.6426l4.18362 4.1817c.30183.3017.79086.3023 1.09336.0013l8.39-8.34842c.4549-.45262.4558-1.18855.002-1.64229-.4529-.45295-1.1873-.45295-1.6402.00002z"/></g></svg>