<svg width="16" height="16" viewBox="0 0 16 16" fill="none" xmlns="http://www.w3.org/2000/svg">
<title>Question mark inside a circle</title>
<path d="M7.625 0.5C6.64009 0.5 5.66482 0.693993 4.75487 1.0709C3.84493 1.44781 3.01814 2.00026 2.3217 2.6967C1.62526 3.39314 1.07281 4.21993 0.695904 5.12987C0.318993 6.03982 0.125 7.01509 0.125 8C0.125 8.98491 0.318993 9.96018 0.695904 10.8701C1.07281 11.7801 1.62526 12.6069 2.3217 13.3033C3.01814 13.9997 3.84493 14.5522 4.75487 14.9291C5.66482 15.306 6.64009 15.5 7.625 15.5C9.61412 15.5 11.5218 14.7098 12.9283 13.3033C14.3348 11.8968 15.125 9.98912 15.125 8C15.125 6.01088 14.3348 4.10322 12.9283 2.6967C11.5218 1.29018 9.61412 0.5 7.625 0.5ZM8.25 11.75L8 12H7.25L7 11.75V11L7.25 10.75H8L8.25 11V11.75ZM8.25 8.421V9.084C8.25 9.24976 8.18415 9.40873 8.06694 9.52594C7.94973 9.64315 7.79076 9.709 7.625 9.709C7.45924 9.709 7.30027 9.64315 7.18306 9.52594C7.06585 9.40873 7 9.24976 7 9.084V8.317C7 7.79 7.37 7.33 7.879 7.225C8.456 7.105 8.875 6.59 8.875 6C8.8728 5.70556 8.7669 5.42132 8.5759 5.19723C8.38491 4.97313 8.12104 4.82353 7.83067 4.77469C7.54031 4.72586 7.24202 4.78093 6.98823 4.93022C6.73444 5.07952 6.54139 5.31348 6.443 5.591C6.38161 5.73785 6.26658 5.8558 6.12132 5.92086C5.97606 5.98593 5.81147 5.99321 5.66103 5.94124C5.51059 5.88926 5.38559 5.78194 5.31146 5.64108C5.23734 5.50023 5.21965 5.33643 5.262 5.183C5.40334 4.77453 5.64817 4.40968 5.97259 4.12407C6.29701 3.83846 6.68994 3.64183 7.11303 3.55339C7.53611 3.46495 7.9749 3.48771 8.38657 3.61946C8.79823 3.7512 9.16871 3.98743 9.46183 4.30508C9.75496 4.62273 9.96072 5.01095 10.059 5.43186C10.1573 5.85276 10.1449 6.29196 10.0228 6.70659C9.9007 7.12123 9.6732 7.49713 9.3625 7.7976C9.05179 8.09808 8.66849 8.31287 8.25 8.421Z" fill="#979797"/>
</svg>
