<svg fill="none" height="18" viewBox="0 0 18 18" width="18" xmlns="http://www.w3.org/2000/svg"><path d="m4.91988 5.98495c-.345-.345-.9375-.285-1.17.1425-.21.3825-.375.7725-.5025 1.185-.1425.4725.2325.9375.72.9375h.0075c.3225 0 .615-.21.705-.525.09-.3.21-.5925.36-.8775.165-.2775.1125-.63-.12-.8625zm-.9375 3.765h-.015c-.4875 0-.8625.46505-.72.93755.12.405.285.8025.495 1.185.2325.4275.8325.495 1.1775.15.225-.2325.285-.5775.1275-.8625-.15-.2775-.27-.57-.36-.87-.09-.33005-.3825-.54005-.705-.54005zm2.1375 4.51505c.3825.21.78.375 1.1925.495.465.135.93-.24.93-.72v-.0225c0-.3225-.21-.615-.525-.705-.3-.09-.585-.21-.8625-.36-.285-.1575-.645-.105-.87.1275l-.0225.0225c-.3375.3375-.27.93.1575 1.1625zm3.63-11.21255v-.495c0-.6675-.81-1.005-1.2825-.5325l-1.59 1.5975c-.3.3-.3.78 0 1.0725l1.5975 1.56c.4725.465 1.275.1275 1.275-.54v-1.1475c2.13002.36 3.75002 2.205 3.75002 4.4325 0 2.04755-1.365 3.76505-3.24 4.31255-.30752.09-.51002.3825-.51002.705v.015c0 .4875.45752.855.92252.72 2.505-.72 4.3275-3.0225 4.3275-5.75255 0-3.06-2.2875-5.58-5.25002-5.9475z" fill="#0060df"/></svg>