<svg fill="none" height="24" viewBox="0 0 24 24" width="24" xmlns="http://www.w3.org/2000/svg"><g fill="#fff"><path clip-rule="evenodd" d="m12 24c6.6274 0 12-5.3726 12-12 0-6.62742-5.3726-12-12-12-6.62742 0-12 5.37258-12 12 0 6.6274 5.37258 12 12 12zm0-2.4c5.3019 0 9.6-4.2981 9.6-9.6 0-5.30193-4.2981-9.6-9.6-9.6-5.30193 0-9.6 4.29807-9.6 9.6 0 5.3019 4.29807 9.6 9.6 9.6z" fill-rule="evenodd"/><path d="m9.26764 17.5683c-.68771.6877-1.80271.6877-2.49042 0s-.68771-1.8027 0-2.4904l8.30138-8.30144c.6877-.68771 1.8027-.68771 2.4904 0 .6878.68771.6878 1.80271 0 2.49043z"/><path d="m17.5691 15.0783c.6877.6877.6877 1.8027 0 2.4904-.6878.6877-1.8028.6877-2.4905 0l-8.30138-8.30144c-.68771-.68771-.68771-1.80271 0-2.49042s1.80271-.68771 2.49042 0z"/></g></svg>