<?xml version="1.0" encoding="utf-8"?>
<!-- Generator: Adobe Illustrator 25.2.1, SVG Export Plug-In . SVG Version: 6.00 Build 0)  -->
<svg version="1.1" id="Layer_1" xmlns="http://www.w3.org/2000/svg" xmlns:xlink="http://www.w3.org/1999/xlink" x="0px" y="0px"
	 viewBox="0 0 192.5 150.3" style="enable-background:new 0 0 192.5 150.3;" xml:space="preserve">
<style type="text/css">
	.st0{opacity:0.3;clip-path:url(#SVGID_1_);}
	.st1{fill:#5C5C67;}
	.st2{fill:none;stroke:#CCCCCC;stroke-width:2;stroke-miterlimit:10;}
	.st3{fill:#676767;}
	.st4{fill:none;stroke:#010101;stroke-width:4.5;stroke-linejoin:round;stroke-miterlimit:10;}
	.st5{fill:none;stroke:#010101;stroke-width:4.5;stroke-miterlimit:10;}
	.st6{fill:#010101;}
	.st7{fill:#5C5D68;}
	.st8{fill:none;stroke:#CCCCCC;stroke-miterlimit:10;}
	.st9{opacity:0.9;}
	.st10{fill-rule:evenodd;clip-rule:evenodd;fill:#FFFFFF;}
	.st11{fill-rule:evenodd;clip-rule:evenodd;fill:#634EA0;}
	.st12{fill:none;stroke:#634EA0;stroke-width:2;}
	.st13{fill:none;stroke:#634EA0;stroke-width:2;stroke-linecap:round;}
	.st14{fill:#FFFFFF;stroke:#010101;stroke-width:1.5;stroke-linecap:round;stroke-linejoin:round;stroke-miterlimit:10;}
	.st15{fill:#E2E2E2;}
</style>
<g>
	<defs>
		<rect id="SVGID_3_" x="34" y="37.8" width="128.9" height="22.8"/>
	</defs>
	<clipPath id="SVGID_1_">
		<use xlink:href="#SVGID_3_"  style="overflow:visible;"/>
	</clipPath>
	<g class="st0">
		<path class="st1" d="M56.4,51c0,0.4,0.3,0.7,0.7,0.6c3.1-0.7,5.4-3.4,5.4-6.7c0-3.3-2.3-6-5.4-6.7c-0.4-0.1-0.7,0.2-0.7,0.6
			c0,0.3,0.3,0.6,0.6,0.7c2.4,0.6,4.2,2.7,4.2,5.3c0,2.6-1.8,4.7-4.2,5.3C56.7,50.4,56.4,50.7,56.4,51z"/>
		<path class="st1" d="M54.5,50.3c0.3,0.1,0.6,0.4,0.6,0.7c0,0.4-0.3,0.7-0.7,0.6c-0.9-0.2-1.7-0.6-2.4-1.1c-0.3-0.2-0.3-0.7-0.1-1
			c0.2-0.3,0.6-0.3,0.9-0.1C53.3,49.9,53.9,50.2,54.5,50.3z"/>
		<path class="st1" d="M49.8,45.7c0.3,0,0.6,0.3,0.7,0.6c0.1,0.5,0.3,1,0.6,1.5c0.2,0.3,0.1,0.7-0.1,0.9c-0.3,0.3-0.8,0.3-1-0.1
			c-0.4-0.7-0.7-1.4-0.9-2.2C49.1,46,49.4,45.7,49.8,45.7z"/>
		<path class="st1" d="M51.2,41.1c0.2,0.3,0.3,0.7,0.1,1c-0.3,0.5-0.6,1.1-0.7,1.7c-0.1,0.3-0.4,0.6-0.7,0.6c-0.4,0-0.7-0.4-0.6-0.8
			c0.2-0.9,0.5-1.7,1-2.5C50.4,40.8,50.9,40.8,51.2,41.1z"/>
		<path class="st1" d="M55.1,39c0,0.3-0.3,0.6-0.6,0.7c-0.5,0.1-1,0.3-1.5,0.6c-0.3,0.2-0.7,0.1-0.9-0.1c-0.3-0.3-0.3-0.8,0.1-1
			c0.6-0.4,1.4-0.7,2.1-0.9C54.8,38.2,55.1,38.5,55.1,39z"/>
		<path class="st2" d="M153.3,56.3h-106c-3.3,0-6-2.7-6-6V38.9c0-3.3,2.7-6,6-6h106c3.3,0,6,2.7,6,6v11.4
			C159.3,53.6,156.6,56.3,153.3,56.3z"/>
		<path class="st3" d="M145,42.1c0-0.3-0.2-0.6-0.5-0.7c-0.3-0.1-0.6-0.1-0.8,0.2l-3.3,3.2l-3.3-3.2c-0.3-0.3-0.8-0.3-1.1,0
			c-0.3,0.3-0.3,0.8,0,1l3.9,3.7c0.3,0.3,0.8,0.3,1.1,0l3.9-3.7C144.9,42.5,145,42.3,145,42.1z"/>
	</g>
</g>
<path class="st4" d="M185.6,148H6.8c-2.5,0-4.6-2.1-4.6-4.6V2.2h188v141.2C190.2,146,188.2,148,185.6,148z"/>
<path class="st5" d="M2.2,35.8h188"/>
<path class="st6" d="M18.7,24.4c2.2,0,4-1.8,4-4c0-2.2-1.8-4-4-4s-4,1.8-4,4C14.7,22.5,16.5,24.4,18.7,24.4z"/>
<path class="st6" d="M36.7,24.1c2.2,0,4-1.8,4-4c0-2.2-1.8-4-4-4s-4,1.8-4,4C32.7,22.3,34.5,24.1,36.7,24.1z"/>
<path class="st6" d="M54.6,24.1c2.2,0,4-1.8,4-4c0-2.2-1.8-4-4-4c-2.2,0-4,1.8-4,4C50.6,22.3,52.4,24.1,54.6,24.1z"/>
<path class="st7" d="M145.8,123.1H52.1c-1.4,0-2.5-1.1-2.5-2.5c0-1.4,1.1-2.5,2.5-2.5h93.8c1.4,0,2.5,1.1,2.5,2.5
	C148.3,122,147.2,123.1,145.8,123.1z"/>
<path class="st7" d="M145.8,112.4H52.1c-1.4,0-2.5-1.1-2.5-2.5c0-1.4,1.1-2.5,2.5-2.5h93.8c1.4,0,2.5,1.1,2.5,2.5
	C148.3,111.2,147.2,112.4,145.8,112.4z"/>
<path class="st7" d="M145.8,102.3H52.1c-1.4,0-2.5-1.1-2.5-2.5c0-1.4,1.1-2.5,2.5-2.5h93.8c1.4,0,2.5,1.1,2.5,2.5
	C148.3,101.2,147.2,102.3,145.8,102.3z"/>
<path class="st1" d="M63.2,85l-5-8.6c-0.7-1.2-2.4-1.2-3.1,0l-5,8.6c-0.7,1.2,0.2,2.6,1.5,2.6h9.9C63,87.6,63.9,86.2,63.2,85z
	 M57.7,82.2c0,0.5-0.4,0.9-0.9,0.9c-0.5,0-0.9-0.4-0.9-0.9v-2.6c0-0.5,0.4-0.9,0.9-0.9c0.5,0,0.9,0.4,0.9,0.9V82.2z M56.7,86.1
	c-0.5,0-0.9-0.4-0.9-0.9c0-0.5,0.4-0.9,0.9-0.9s0.9,0.4,0.9,0.9C57.7,85.6,57.2,86.1,56.7,86.1z"/>
<path class="st2" d="M153.6,137h-106c-3.3,0-6-2.7-6-6V77.2c0-3.3,2.7-6,6-6h106c3.3,0,6,2.7,6,6V131
	C159.6,134.3,156.9,137,153.6,137z"/>
<line class="st8" x1="41" y1="91.4" x2="159.6" y2="91.4"/>
<g class="st9">
	<circle class="st10" cx="29.3" cy="100.6" r="14.3"/>
	<circle class="st10" cx="29.3" cy="101.6" r="14.3"/>
	<ellipse class="st10" cx="29.7" cy="100.7" rx="14.3" ry="14.4"/>
	<ellipse class="st10" cx="29.7" cy="101.7" rx="14.3" ry="14.4"/>
	<path class="st10" d="M29.7,115.1c7.9,0,14.3-6.5,14.3-14.4c0-8-6.4-14.1-14.3-14.1c-7.9,0-14.3,6.2-14.3,14.1
		C15.4,108.7,21.8,115.1,29.7,115.1z"/>
	<path class="st11" d="M29.7,118.7c9.9,0,17.9-8,17.9-17.9c0-9.9-8-17.9-17.9-17.9c-9.9,0-17.9,8-17.9,17.9
		C11.8,110.7,19.8,118.7,29.7,118.7z M29.7,115.1c7.9,0,14.3-6.4,14.3-14.3c0-7.9-6.4-14.3-14.3-14.3c-7.9,0-14.3,6.4-14.3,14.3
		C15.4,108.7,21.8,115.1,29.7,115.1z"/>
	<path class="st12" d="M27.9,105.2c3.4,0,6.1-2.7,6.1-6.1c0-3.4-2.7-6.1-6.1-6.1c-3.4,0-6.1,2.7-6.1,6.1
		C21.8,102.5,24.6,105.2,27.9,105.2z"/>
	<path class="st13" d="M32.3,103.5l5.2,5.2"/>
</g>
<path class="st3" d="M136,84c0,0.3,0.2,0.6,0.5,0.7c0.3,0.1,0.6,0.1,0.8-0.2l3.3-3.2l3.3,3.2c0.3,0.3,0.8,0.3,1.1,0s0.3-0.8,0-1
	l-3.9-3.7c-0.3-0.3-0.8-0.3-1.1,0l-3.9,3.7C136.1,83.7,136,83.8,136,84z"/>
<path class="st14" d="M159.4,103.8l-8.1-20.4l20.4,8.1l-6,2.9l6.6,6.6l-3.7,3.2l-6.7-6.9L159.4,103.8z"/>
<path class="st15" d="M179.2,139.6V45.9c0-1.4,1.1-2.5,2.5-2.5s2.5,1.1,2.5,2.5v93.8c0,1.4-1.1,2.5-2.5,2.5S179.2,141,179.2,139.6z"
	/>
</svg>
