<svg width="18" height="18" viewBox="0 0 18 18" fill="none" xmlns="http://www.w3.org/2000/svg">
<path d="M14.4588 7.10118H13.8837L4.3731 16.6118H14.4588C14.9308 16.6118 15.3835 16.4243 15.7173 16.0905C16.0511 15.7567 16.2386 15.304 16.2386 14.832V8.88101C16.2386 8.40897 16.0511 7.95627 15.7173 7.62248C15.3835 7.2887 14.9308 7.10118 14.4588 7.10118ZM6.7462 7.10118V4.74627C6.7462 4.11689 6.99623 3.51328 7.44127 3.06824C7.88631 2.62319 8.48992 2.37317 9.11931 2.37317C9.74869 2.37317 10.3523 2.62319 10.7973 3.06824C11.2424 3.51328 11.4924 4.11689 11.4924 4.74627V5.93283L13.7374 3.68787C13.4781 2.551 12.8091 1.54952 11.858 0.874825C10.907 0.20013 9.74071 -0.100462 8.58204 0.0304982C7.42337 0.161458 6.35358 0.714785 5.57714 1.58473C4.80069 2.45467 4.37204 3.58023 4.3731 4.74627V7.10118H3.77983C3.30779 7.10118 2.85508 7.2887 2.5213 7.62248C2.18752 7.95627 2 8.40897 2 8.88101V14.832C2.00241 15.0052 2.0304 15.1771 2.08306 15.3422L10.3241 7.10118H6.7462Z" fill="#D647C1"/>
<path d="M1.20492 17.6495C0.966639 17.6496 0.733679 17.579 0.535521 17.4467C0.337362 17.3144 0.18291 17.1262 0.0917086 16.9061C0.00050741 16.686 -0.0233441 16.4437 0.0231721 16.21C0.0696884 15.9763 0.184482 15.7617 0.353027 15.5933L15.6084 0.338077C15.8356 0.118694 16.1398 -0.0026985 16.4556 4.55278e-05C16.7714 0.00278956 17.0735 0.129451 17.2968 0.352748C17.5201 0.576046 17.6467 0.878114 17.6495 1.19389C17.6522 1.50967 17.5308 1.81389 17.3114 2.04104L2.05601 17.2962C1.83036 17.5222 1.52423 17.6492 1.20492 17.6495Z" fill="#D647C1"/>
</svg>
