<svg width="20" height="13" viewBox="0 0 20 13" fill="none" xmlns="http://www.w3.org/2000/svg">
<path d="M19.0296 8.79236C19.0296 9.2681 17.7609 9.42668 16.6509 9.58526C15.9372 8.23733 15.1444 7.12727 13.4793 6.41366C13.6378 6.17579 13.3207 5.85863 13.4793 5.62077H14.2722C16.7301 5.54148 19.0296 7.44443 19.0296 8.79236ZM5.55029 5.62077H4.75739C2.2994 5.62077 0 7.44443 0 8.79236C0 9.2681 1.26864 9.42668 2.37869 9.58526C3.0923 8.23733 3.8852 7.12727 5.55029 6.41366V5.62077ZM9.51478 6.41366C11.2592 6.41366 12.6864 4.98645 12.6864 3.24207C12.6864 1.4977 11.2592 0.0704798 9.51478 0.0704798C7.7704 0.0704798 6.34318 1.4977 6.34318 3.24207C6.34318 4.98645 7.7704 6.41366 9.51478 6.41366ZM9.51478 7.20656C6.26389 7.20656 3.17159 9.2681 3.17159 11.1711C3.17159 12.7568 9.51478 12.7568 9.51478 12.7568C9.51478 12.7568 15.858 12.7568 15.858 11.1711C15.858 9.2681 12.7657 7.20656 9.51478 7.20656ZM14.2722 4.82787C15.6201 4.82787 16.6509 3.7971 16.6509 2.44917C16.6509 1.10125 15.6201 0.0704798 14.2722 0.0704798C13.8757 0.0704798 13.7964 -0.0880998 13.4793 0.0704798C14.1136 0.863378 14.2722 2.13201 14.2722 3.24207C14.2722 3.7971 14.4307 4.35213 14.2722 4.82787ZM4.75739 4.82787C4.59881 4.35213 4.75739 3.7971 4.75739 3.24207C4.75739 2.13201 4.91597 0.863378 5.55029 0.0704798C5.23313 -0.0880998 5.15384 0.0704798 4.75739 0.0704798C3.40946 0.0704798 2.37869 1.10125 2.37869 2.44917C2.37869 3.7971 3.40946 4.82787 4.75739 4.82787Z" fill="#D647C1"/>
</svg>
