<svg width="514" height="387" viewBox="0 0 514 387" fill="none" xmlns="http://www.w3.org/2000/svg">
<rect y="0.702148" width="514" height="385.5" rx="12.85" fill="#ECDFFF"/>
<g filter="url(#filter0_d_1942_15476)">
<g clip-path="url(#clip0_1942_15476)">
<rect x="46" y="50" width="421" height="296.838" rx="4.93359" fill="white"/>
<rect width="435.801" height="23.8457" transform="translate(41.0664 46.7109)" fill="#C9C3D2"/>
<circle cx="55.4211" cy="59.4221" r="2.56958" fill="#592ACB"/>
<circle cx="63.9863" cy="59.4221" r="2.56958" fill="#592ACB"/>
<circle cx="72.5518" cy="59.4221" r="2.56958" fill="#592ACB"/>
<g clip-path="url(#clip1_1942_15476)">
<path d="M74.6354 236.347V229.904H78.7626V230.883H75.8025V232.632H78.4795V233.61H75.8025V236.347H74.6354ZM79.7755 236.347V231.515H80.9142V236.347H79.7755ZM80.348 230.829C79.9831 230.829 79.6874 230.552 79.6874 230.213C79.6874 229.87 79.9831 229.593 80.348 229.593C80.7098 229.593 81.0055 229.87 81.0055 230.213C81.0055 230.552 80.7098 230.829 80.348 230.829ZM82.0852 236.347V231.515H83.1894V232.32H83.2397C83.4158 231.76 83.8783 231.446 84.4319 231.446C84.5577 231.446 84.737 231.458 84.8408 231.477V232.525C84.7433 232.493 84.5043 232.459 84.3124 232.459C83.6864 232.459 83.224 232.893 83.224 233.506V236.347H82.0852ZM89.4162 232.792L88.3782 232.905C88.2901 232.588 88.0133 232.301 87.4879 232.301C87.0129 232.301 86.6512 232.528 86.6543 232.855C86.6512 233.135 86.8462 233.305 87.3369 233.415L88.1611 233.591C89.0734 233.789 89.5169 234.211 89.5201 234.9C89.5169 235.815 88.6644 236.441 87.4565 236.441C86.2706 236.441 85.525 235.916 85.3835 235.029L86.4939 234.922C86.5914 235.356 86.9312 235.582 87.4533 235.582C87.9944 235.582 88.353 235.334 88.353 235.003C88.353 234.73 88.1454 234.55 87.7018 234.453L86.8777 234.28C85.9497 234.088 85.5156 233.623 85.5187 232.918C85.5156 232.024 86.3083 231.452 87.4722 231.452C88.6047 231.452 89.259 231.974 89.4162 232.792ZM92.8718 231.515V232.396H91.9186V234.893C91.9186 235.353 92.1483 235.453 92.4345 235.453C92.5761 235.453 92.7051 235.425 92.768 235.409L92.9599 236.299C92.8372 236.34 92.6138 236.403 92.2898 236.413C91.4342 236.438 90.7736 235.991 90.7799 235.082V232.396H90.0941V231.515H90.7799V230.357H91.9186V231.515H92.8718ZM97.1602 233.516V236.347H96.0214V231.515H97.1098V232.336H97.1664C97.3866 231.798 97.8837 231.452 98.6072 231.452C99.6044 231.452 100.265 232.113 100.262 233.27V236.347H99.1231V233.446C99.1231 232.801 98.7707 232.415 98.1825 232.415C97.5817 232.415 97.1602 232.817 97.1602 233.516ZM102.81 236.444C101.888 236.444 101.193 235.941 101.193 234.991C101.193 233.902 102.089 233.623 103.027 233.522C103.879 233.431 104.222 233.415 104.222 233.088V233.069C104.222 232.594 103.933 232.323 103.404 232.323C102.848 232.323 102.527 232.606 102.413 232.937L101.35 232.786C101.602 231.905 102.382 231.452 103.398 231.452C104.32 231.452 105.361 231.836 105.361 233.113V236.347H104.266V235.683H104.229C104.021 236.089 103.568 236.444 102.81 236.444ZM103.106 235.607C103.791 235.607 104.225 235.151 104.225 234.613V234.044C104.078 234.164 103.48 234.239 103.181 234.28C102.671 234.352 102.291 234.535 102.291 234.972C102.291 235.39 102.631 235.607 103.106 235.607ZM106.506 236.347V231.515H107.594V232.336H107.651C107.852 231.785 108.337 231.452 108.985 231.452C109.636 231.452 110.105 231.789 110.29 232.336H110.341C110.555 231.798 111.089 231.452 111.791 231.452C112.678 231.452 113.301 232.024 113.301 233.103V236.347H112.159V233.28C112.159 232.682 111.794 232.411 111.335 232.411C110.784 232.411 110.46 232.789 110.46 233.333V236.347H109.343V233.232C109.343 232.735 109.013 232.411 108.532 232.411C108.041 232.411 107.645 232.814 107.645 233.409V236.347H106.506ZM116.595 236.441C115.139 236.441 114.248 235.475 114.248 233.959C114.248 232.468 115.151 231.452 116.535 231.452C117.724 231.452 118.744 232.198 118.744 233.893V234.242H115.378C115.387 235.07 115.875 235.554 116.611 235.554C117.101 235.554 117.479 235.34 117.633 234.931L118.696 235.051C118.495 235.891 117.721 236.441 116.595 236.441ZM115.381 233.475H117.652C117.646 232.817 117.205 232.339 116.551 232.339C115.872 232.339 115.415 232.858 115.381 233.475Z" fill="#0C0C0D"/>
<rect x="74.2953" y="245.295" width="174.409" height="23.6299" rx="2.06693" fill="white"/>
<rect x="74.2953" y="245.295" width="174.409" height="23.6299" rx="2.06693" stroke="#9E9E9E" stroke-width="0.590551"/>
<path d="M84.1248 259.61V254.027H87.4945V254.627H84.801V256.513H87.32V257.113H84.801V259.011H87.5381V259.61H84.1248ZM89.2693 257.091V259.61H88.6259V255.423H89.2475V256.077H89.302C89.4002 255.864 89.5492 255.694 89.7491 255.565C89.9491 255.434 90.2071 255.368 90.5234 255.368C90.8069 255.368 91.055 255.426 91.2677 255.543C91.4803 255.657 91.6457 255.832 91.7638 256.066C91.882 256.299 91.941 256.593 91.941 256.95V259.61H91.2977V256.993C91.2977 256.664 91.2122 256.408 91.0414 256.224C90.8705 256.039 90.6361 255.946 90.338 255.946C90.1326 255.946 89.9491 255.991 89.7873 256.08C89.6274 256.169 89.501 256.299 89.4083 256.47C89.3157 256.641 89.2693 256.848 89.2693 257.091ZM94.9379 255.423V255.968H92.7678V255.423H94.9379ZM93.4003 254.42H94.0437V258.411C94.0437 258.593 94.07 258.729 94.1227 258.82C94.1773 258.909 94.2463 258.969 94.3299 259C94.4154 259.029 94.5053 259.043 94.5998 259.043C94.6707 259.043 94.7289 259.04 94.7743 259.032C94.8198 259.023 94.8561 259.016 94.8834 259.011L95.0142 259.589C94.9706 259.605 94.9097 259.621 94.8316 259.638C94.7534 259.656 94.6544 259.665 94.5344 259.665C94.3527 259.665 94.1745 259.626 94.0001 259.548C93.8274 259.469 93.6838 259.35 93.5693 259.191C93.4566 259.031 93.4003 258.829 93.4003 258.585V254.42ZM97.6165 259.698C97.213 259.698 96.8649 259.609 96.5723 259.43C96.2815 259.25 96.057 259 95.8989 258.678C95.7426 258.354 95.6644 257.978 95.6644 257.549C95.6644 257.12 95.7426 256.742 95.8989 256.415C96.057 256.086 96.2769 255.83 96.5587 255.646C96.8422 255.461 97.173 255.368 97.551 255.368C97.7691 255.368 97.9845 255.405 98.1971 255.477C98.4098 255.55 98.6034 255.668 98.7778 255.832C98.9523 255.994 99.0914 256.208 99.195 256.475C99.2986 256.742 99.3504 257.071 99.3504 257.462V257.735H96.1225V257.179H98.6961C98.6961 256.942 98.6488 256.731 98.5543 256.546C98.4616 256.361 98.3289 256.214 98.1563 256.107C97.9854 256 97.7837 255.946 97.551 255.946C97.2948 255.946 97.073 256.01 96.8858 256.137C96.7004 256.262 96.5578 256.426 96.4578 256.628C96.3578 256.83 96.3078 257.046 96.3078 257.277V257.647C96.3078 257.964 96.3624 258.232 96.4714 258.452C96.5823 258.67 96.7359 258.836 96.9322 258.951C97.1285 259.063 97.3565 259.12 97.6165 259.12C97.7855 259.12 97.9382 259.096 98.0745 259.049C98.2126 259 98.3316 258.927 98.4316 258.831C98.5316 258.732 98.6088 258.611 98.6633 258.465L99.2849 258.64C99.2195 258.851 99.1095 259.036 98.9551 259.196C98.8006 259.354 98.6097 259.478 98.3825 259.567C98.1553 259.654 97.9 259.698 97.6165 259.698ZM100.329 259.61V255.423H100.951V256.055H100.994C101.071 255.848 101.209 255.68 101.409 255.551C101.609 255.422 101.834 255.357 102.085 255.357C102.132 255.357 102.191 255.358 102.262 255.36C102.333 255.362 102.387 255.365 102.423 255.368V256.023C102.401 256.017 102.351 256.009 102.273 255.998C102.197 255.985 102.116 255.979 102.03 255.979C101.827 255.979 101.645 256.022 101.485 256.107C101.327 256.191 101.201 256.307 101.109 256.456C101.018 256.603 100.972 256.771 100.972 256.96V259.61H100.329ZM107.21 255.423V255.968H104.952V255.423H107.21ZM105.628 259.61V254.845C105.628 254.605 105.685 254.405 105.797 254.245C105.91 254.085 106.056 253.965 106.236 253.885C106.416 253.805 106.606 253.765 106.806 253.765C106.964 253.765 107.093 253.778 107.193 253.803C107.293 253.829 107.368 253.852 107.417 253.874L107.231 254.43C107.199 254.42 107.153 254.406 107.095 254.39C107.039 254.373 106.964 254.365 106.871 254.365C106.659 254.365 106.505 254.419 106.411 254.526C106.318 254.633 106.272 254.79 106.272 254.998V259.61H105.628ZM108.111 259.61V255.423H108.755V259.61H108.111ZM108.438 254.725C108.313 254.725 108.205 254.682 108.114 254.597C108.025 254.511 107.98 254.409 107.98 254.289C107.98 254.169 108.025 254.066 108.114 253.981C108.205 253.895 108.313 253.852 108.438 253.852C108.564 253.852 108.671 253.895 108.76 253.981C108.851 254.066 108.896 254.169 108.896 254.289C108.896 254.409 108.851 254.511 108.76 254.597C108.671 254.682 108.564 254.725 108.438 254.725ZM109.933 259.61V255.423H110.555V256.055H110.598C110.675 255.848 110.813 255.68 111.013 255.551C111.213 255.422 111.438 255.357 111.689 255.357C111.736 255.357 111.795 255.358 111.866 255.36C111.937 255.362 111.99 255.365 112.027 255.368V256.023C112.005 256.017 111.955 256.009 111.877 255.998C111.801 255.985 111.72 255.979 111.634 255.979C111.431 255.979 111.249 256.022 111.089 256.107C110.931 256.191 110.805 256.307 110.713 256.456C110.622 256.603 110.576 256.771 110.576 256.96V259.61H109.933ZM115.756 256.361L115.178 256.524C115.141 256.428 115.088 256.334 115.017 256.243C114.948 256.151 114.853 256.074 114.733 256.014C114.613 255.954 114.46 255.924 114.273 255.924C114.016 255.924 113.803 255.984 113.632 256.102C113.463 256.218 113.378 256.366 113.378 256.546C113.378 256.706 113.437 256.832 113.553 256.925C113.669 257.018 113.851 257.095 114.098 257.157L114.72 257.309C115.094 257.4 115.373 257.539 115.557 257.727C115.74 257.912 115.832 258.151 115.832 258.444C115.832 258.683 115.763 258.898 115.625 259.087C115.488 259.276 115.298 259.425 115.052 259.534C114.807 259.643 114.522 259.698 114.196 259.698C113.769 259.698 113.416 259.605 113.136 259.42C112.856 259.234 112.679 258.963 112.604 258.607L113.215 258.454C113.273 258.68 113.383 258.849 113.545 258.962C113.708 259.074 113.922 259.131 114.185 259.131C114.485 259.131 114.723 259.067 114.9 258.94C115.078 258.811 115.167 258.656 115.167 258.476C115.167 258.331 115.116 258.209 115.014 258.111C114.912 258.011 114.756 257.936 114.545 257.887L113.847 257.724C113.464 257.633 113.182 257.492 113.002 257.301C112.824 257.109 112.735 256.868 112.735 256.579C112.735 256.342 112.801 256.133 112.934 255.952C113.068 255.77 113.251 255.627 113.482 255.524C113.715 255.42 113.978 255.368 114.273 255.368C114.687 255.368 115.012 255.459 115.249 255.641C115.487 255.823 115.656 256.063 115.756 256.361ZM118.622 255.423V255.968H116.452V255.423H118.622ZM117.084 254.42H117.727V258.411C117.727 258.593 117.754 258.729 117.807 258.82C117.861 258.909 117.93 258.969 118.014 259C118.099 259.029 118.189 259.043 118.284 259.043C118.354 259.043 118.413 259.04 118.458 259.032C118.504 259.023 118.54 259.016 118.567 259.011L118.698 259.589C118.654 259.605 118.593 259.621 118.515 259.638C118.437 259.656 118.338 259.665 118.218 259.665C118.036 259.665 117.858 259.626 117.684 259.548C117.511 259.469 117.368 259.35 117.253 259.191C117.14 259.031 117.084 258.829 117.084 258.585V254.42ZM122.392 257.091V259.61H121.749V255.423H122.37V256.077H122.425C122.523 255.864 122.672 255.694 122.872 255.565C123.072 255.434 123.33 255.368 123.646 255.368C123.93 255.368 124.178 255.426 124.39 255.543C124.603 255.657 124.768 255.832 124.887 256.066C125.005 256.299 125.064 256.593 125.064 256.95V259.61H124.42V256.993C124.42 256.664 124.335 256.408 124.164 256.224C123.993 256.039 123.759 255.946 123.461 255.946C123.255 255.946 123.072 255.991 122.91 256.08C122.75 256.169 122.624 256.299 122.531 256.47C122.438 256.641 122.392 256.848 122.392 257.091ZM127.472 259.708C127.206 259.708 126.966 259.659 126.749 259.559C126.533 259.457 126.361 259.31 126.234 259.12C126.107 258.927 126.043 258.694 126.043 258.422C126.043 258.182 126.09 257.987 126.185 257.838C126.28 257.687 126.406 257.569 126.564 257.484C126.722 257.398 126.897 257.335 127.087 257.293C127.28 257.249 127.474 257.215 127.668 257.189C127.923 257.157 128.129 257.132 128.287 257.116C128.447 257.098 128.563 257.068 128.636 257.026C128.71 256.984 128.748 256.911 128.748 256.808V256.786C128.748 256.517 128.674 256.308 128.527 256.159C128.381 256.01 128.161 255.935 127.864 255.935C127.557 255.935 127.316 256.003 127.142 256.137C126.967 256.272 126.845 256.415 126.774 256.568L126.163 256.35C126.272 256.095 126.418 255.897 126.599 255.755C126.783 255.612 126.983 255.512 127.199 255.456C127.417 255.397 127.632 255.368 127.843 255.368C127.977 255.368 128.132 255.385 128.306 255.417C128.482 255.448 128.652 255.513 128.816 255.611C128.981 255.709 129.118 255.857 129.228 256.055C129.337 256.253 129.391 256.519 129.391 256.851V259.61H128.748V259.043H128.715C128.671 259.134 128.599 259.231 128.497 259.335C128.395 259.439 128.26 259.527 128.091 259.599C127.922 259.672 127.715 259.708 127.472 259.708ZM127.57 259.131C127.824 259.131 128.039 259.081 128.213 258.981C128.39 258.881 128.522 258.752 128.611 258.593C128.702 258.435 128.748 258.269 128.748 258.095V257.506C128.72 257.538 128.66 257.568 128.568 257.596C128.477 257.621 128.371 257.644 128.252 257.664C128.133 257.682 128.018 257.698 127.905 257.713C127.794 257.726 127.704 257.736 127.635 257.746C127.468 257.767 127.312 257.803 127.166 257.852C127.023 257.899 126.907 257.971 126.817 258.067C126.73 258.162 126.687 258.291 126.687 258.454C126.687 258.678 126.769 258.847 126.935 258.962C127.102 259.074 127.314 259.131 127.57 259.131ZM130.565 259.61V255.423H131.187V256.077H131.242C131.329 255.854 131.47 255.68 131.664 255.556C131.859 255.431 132.092 255.368 132.365 255.368C132.641 255.368 132.871 255.431 133.055 255.556C133.24 255.68 133.384 255.854 133.488 256.077H133.532C133.639 255.861 133.8 255.689 134.014 255.562C134.229 255.433 134.486 255.368 134.786 255.368C135.16 255.368 135.466 255.486 135.704 255.72C135.943 255.953 136.062 256.315 136.062 256.808V259.61H135.418V256.808C135.418 256.499 135.334 256.278 135.165 256.145C134.996 256.013 134.797 255.946 134.568 255.946C134.273 255.946 134.045 256.035 133.883 256.213C133.722 256.39 133.641 256.613 133.641 256.884V259.61H132.986V256.742C132.986 256.504 132.909 256.312 132.755 256.167C132.6 256.02 132.401 255.946 132.158 255.946C131.99 255.946 131.834 255.991 131.689 256.08C131.545 256.169 131.429 256.292 131.34 256.451C131.252 256.607 131.209 256.788 131.209 256.993V259.61H130.565ZM138.994 259.698C138.59 259.698 138.242 259.609 137.95 259.43C137.659 259.25 137.434 259 137.276 258.678C137.12 258.354 137.042 257.978 137.042 257.549C137.042 257.12 137.12 256.742 137.276 256.415C137.434 256.086 137.654 255.83 137.936 255.646C138.219 255.461 138.55 255.368 138.928 255.368C139.146 255.368 139.362 255.405 139.574 255.477C139.787 255.55 139.981 255.668 140.155 255.832C140.33 255.994 140.469 256.208 140.572 256.475C140.676 256.742 140.728 257.071 140.728 257.462V257.735H137.5V257.179H140.073C140.073 256.942 140.026 256.731 139.932 256.546C139.839 256.361 139.706 256.214 139.533 256.107C139.363 256 139.161 255.946 138.928 255.946C138.672 255.946 138.45 256.01 138.263 256.137C138.078 256.262 137.935 256.426 137.835 256.628C137.735 256.83 137.685 257.046 137.685 257.277V257.647C137.685 257.964 137.74 258.232 137.849 258.452C137.96 258.67 138.113 258.836 138.309 258.951C138.506 259.063 138.734 259.12 138.994 259.12C139.163 259.12 139.315 259.096 139.452 259.049C139.59 259 139.709 258.927 139.809 258.831C139.909 258.732 139.986 258.611 140.041 258.465L140.662 258.64C140.597 258.851 140.487 259.036 140.332 259.196C140.178 259.354 139.987 259.478 139.76 259.567C139.533 259.654 139.277 259.698 138.994 259.698Z" fill="#6D6D6E"/>
<path d="M271.635 236.347V229.904H272.802V235.368H275.64V236.347H271.635ZM277.993 236.444C277.071 236.444 276.376 235.941 276.376 234.991C276.376 233.902 277.273 233.623 278.21 233.522C279.062 233.431 279.405 233.415 279.405 233.088V233.069C279.405 232.594 279.116 232.323 278.587 232.323C278.031 232.323 277.71 232.606 277.597 232.937L276.533 232.786C276.785 231.905 277.565 231.452 278.581 231.452C279.503 231.452 280.544 231.836 280.544 233.113V236.347H279.449V235.683H279.412C279.204 236.089 278.751 236.444 277.993 236.444ZM278.289 235.607C278.974 235.607 279.408 235.151 279.408 234.613V234.044C279.261 234.164 278.663 234.239 278.364 234.28C277.854 234.352 277.474 234.535 277.474 234.972C277.474 235.39 277.814 235.607 278.289 235.607ZM285.508 232.792L284.47 232.905C284.382 232.588 284.105 232.301 283.58 232.301C283.105 232.301 282.743 232.528 282.746 232.855C282.743 233.135 282.938 233.305 283.429 233.415L284.253 233.591C285.165 233.789 285.609 234.211 285.612 234.9C285.609 235.815 284.756 236.441 283.548 236.441C282.362 236.441 281.617 235.916 281.475 235.029L282.586 234.922C282.683 235.356 283.023 235.582 283.545 235.582C284.086 235.582 284.445 235.334 284.445 235.003C284.445 234.73 284.237 234.55 283.794 234.453L282.969 234.28C282.041 234.088 281.607 233.623 281.61 232.918C281.607 232.024 282.4 231.452 283.564 231.452C284.696 231.452 285.351 231.974 285.508 232.792ZM288.963 231.515V232.396H288.01V234.893C288.01 235.353 288.24 235.453 288.526 235.453C288.668 235.453 288.797 235.425 288.86 235.409L289.052 236.299C288.929 236.34 288.706 236.403 288.382 236.413C287.526 236.438 286.865 235.991 286.872 235.082V232.396H286.186V231.515H286.872V230.357H288.01V231.515H288.963ZM293.252 233.516V236.347H292.113V231.515H293.202V232.336H293.258C293.478 231.798 293.975 231.452 294.699 231.452C295.696 231.452 296.357 232.113 296.353 233.27V236.347H295.215V233.446C295.215 232.801 294.862 232.415 294.274 232.415C293.673 232.415 293.252 232.817 293.252 233.516ZM298.901 236.444C297.98 236.444 297.285 235.941 297.285 234.991C297.285 233.902 298.181 233.623 299.119 233.522C299.971 233.431 300.314 233.415 300.314 233.088V233.069C300.314 232.594 300.025 232.323 299.496 232.323C298.939 232.323 298.618 232.606 298.505 232.937L297.442 232.786C297.694 231.905 298.474 231.452 299.49 231.452C300.411 231.452 301.453 231.836 301.453 233.113V236.347H300.358V235.683H300.32C300.113 236.089 299.66 236.444 298.901 236.444ZM299.197 235.607C299.883 235.607 300.317 235.151 300.317 234.613V234.044C300.169 234.164 299.572 234.239 299.273 234.28C298.763 234.352 298.382 234.535 298.382 234.972C298.382 235.39 298.722 235.607 299.197 235.607ZM302.598 236.347V231.515H303.686V232.336H303.743C303.944 231.785 304.428 231.452 305.076 231.452C305.728 231.452 306.196 231.789 306.382 232.336H306.432C306.646 231.798 307.181 231.452 307.882 231.452C308.77 231.452 309.392 232.024 309.392 233.103V236.347H308.25V233.28C308.25 232.682 307.886 232.411 307.426 232.411C306.876 232.411 306.552 232.789 306.552 233.333V236.347H305.435V233.232C305.435 232.735 305.105 232.411 304.624 232.411C304.133 232.411 303.736 232.814 303.736 233.409V236.347H302.598ZM312.687 236.441C311.23 236.441 310.34 235.475 310.34 233.959C310.34 232.468 311.243 231.452 312.627 231.452C313.816 231.452 314.835 232.198 314.835 233.893V234.242H311.469C311.479 235.07 311.966 235.554 312.702 235.554C313.193 235.554 313.571 235.34 313.725 234.931L314.788 235.051C314.587 235.891 313.813 236.441 312.687 236.441ZM311.472 233.475H313.744C313.737 232.817 313.297 232.339 312.643 232.339C311.963 232.339 311.507 232.858 311.472 233.475Z" fill="#0C0C0D"/>
<rect x="271.295" y="245.295" width="174.409" height="23.6299" rx="2.06693" fill="white"/>
<rect x="271.295" y="245.295" width="174.409" height="23.6299" rx="2.06693" stroke="#9E9E9E" stroke-width="0.590551"/>
<path d="M281.125 259.61V254.027H284.495V254.627H281.801V256.513H284.32V257.113H281.801V259.011H284.538V259.61H281.125ZM286.269 257.091V259.61H285.626V255.423H286.247V256.077H286.302C286.4 255.864 286.549 255.694 286.749 255.565C286.949 255.434 287.207 255.368 287.523 255.368C287.807 255.368 288.055 255.426 288.268 255.543C288.48 255.657 288.646 255.832 288.764 256.066C288.882 256.299 288.941 256.593 288.941 256.95V259.61H288.298V256.993C288.298 256.664 288.212 256.408 288.041 256.224C287.871 256.039 287.636 255.946 287.338 255.946C287.133 255.946 286.949 255.991 286.787 256.08C286.627 256.169 286.501 256.299 286.408 256.47C286.316 256.641 286.269 256.848 286.269 257.091ZM291.938 255.423V255.968H289.768V255.423H291.938ZM290.4 254.42H291.044V258.411C291.044 258.593 291.07 258.729 291.123 258.82C291.177 258.909 291.246 258.969 291.33 259C291.415 259.029 291.505 259.043 291.6 259.043C291.671 259.043 291.729 259.04 291.774 259.032C291.82 259.023 291.856 259.016 291.883 259.011L292.014 259.589C291.971 259.605 291.91 259.621 291.832 259.638C291.753 259.656 291.654 259.665 291.534 259.665C291.353 259.665 291.175 259.626 291 259.548C290.827 259.469 290.684 259.35 290.569 259.191C290.457 259.031 290.4 258.829 290.4 258.585V254.42ZM294.616 259.698C294.213 259.698 293.865 259.609 293.572 259.43C293.281 259.25 293.057 259 292.899 258.678C292.743 258.354 292.664 257.978 292.664 257.549C292.664 257.12 292.743 256.742 292.899 256.415C293.057 256.086 293.277 255.83 293.559 255.646C293.842 255.461 294.173 255.368 294.551 255.368C294.769 255.368 294.984 255.405 295.197 255.477C295.41 255.55 295.603 255.668 295.778 255.832C295.952 255.994 296.091 256.208 296.195 256.475C296.299 256.742 296.35 257.071 296.35 257.462V257.735H293.122V257.179H295.696C295.696 256.942 295.649 256.731 295.554 256.546C295.462 256.361 295.329 256.214 295.156 256.107C294.985 256 294.784 255.946 294.551 255.946C294.295 255.946 294.073 256.01 293.886 256.137C293.7 256.262 293.558 256.426 293.458 256.628C293.358 256.83 293.308 257.046 293.308 257.277V257.647C293.308 257.964 293.362 258.232 293.471 258.452C293.582 258.67 293.736 258.836 293.932 258.951C294.128 259.063 294.357 259.12 294.616 259.12C294.785 259.12 294.938 259.096 295.074 259.049C295.213 259 295.332 258.927 295.432 258.831C295.532 258.732 295.609 258.611 295.663 258.465L296.285 258.64C296.219 258.851 296.11 259.036 295.955 259.196C295.801 259.354 295.61 259.478 295.383 259.567C295.155 259.654 294.9 259.698 294.616 259.698ZM297.329 259.61V255.423H297.951V256.055H297.994C298.071 255.848 298.209 255.68 298.409 255.551C298.609 255.422 298.834 255.357 299.085 255.357C299.132 255.357 299.191 255.358 299.262 255.36C299.333 255.362 299.387 255.365 299.423 255.368V256.023C299.401 256.017 299.351 256.009 299.273 255.998C299.197 255.985 299.116 255.979 299.03 255.979C298.827 255.979 298.645 256.022 298.485 256.107C298.327 256.191 298.201 256.307 298.109 256.456C298.018 256.603 297.972 256.771 297.972 256.96V259.61H297.329ZM302.988 254.027V259.61H302.345V254.027H302.988ZM305.399 259.708C305.133 259.708 304.893 259.659 304.676 259.559C304.46 259.457 304.288 259.31 304.161 259.12C304.034 258.927 303.97 258.694 303.97 258.422C303.97 258.182 304.018 257.987 304.112 257.838C304.207 257.687 304.333 257.569 304.491 257.484C304.649 257.398 304.824 257.335 305.014 257.293C305.207 257.249 305.401 257.215 305.595 257.189C305.85 257.157 306.056 257.132 306.214 257.116C306.374 257.098 306.49 257.068 306.563 257.026C306.637 256.984 306.675 256.911 306.675 256.808V256.786C306.675 256.517 306.601 256.308 306.454 256.159C306.309 256.01 306.088 255.935 305.791 255.935C305.484 255.935 305.243 256.003 305.069 256.137C304.894 256.272 304.772 256.415 304.701 256.568L304.09 256.35C304.199 256.095 304.345 255.897 304.526 255.755C304.71 255.612 304.91 255.512 305.126 255.456C305.344 255.397 305.559 255.368 305.77 255.368C305.904 255.368 306.059 255.385 306.233 255.417C306.409 255.448 306.579 255.513 306.743 255.611C306.908 255.709 307.046 255.857 307.155 256.055C307.264 256.253 307.318 256.519 307.318 256.851V259.61H306.675V259.043H306.642C306.598 259.134 306.526 259.231 306.424 259.335C306.322 259.439 306.187 259.527 306.018 259.599C305.849 259.672 305.642 259.708 305.399 259.708ZM305.497 259.131C305.751 259.131 305.966 259.081 306.14 258.981C306.317 258.881 306.449 258.752 306.538 258.593C306.629 258.435 306.675 258.269 306.675 258.095V257.506C306.647 257.538 306.587 257.568 306.495 257.596C306.404 257.621 306.299 257.644 306.179 257.664C306.06 257.682 305.945 257.698 305.832 257.713C305.721 257.726 305.631 257.736 305.562 257.746C305.395 257.767 305.239 257.803 305.093 257.852C304.95 257.899 304.834 257.971 304.745 258.067C304.657 258.162 304.614 258.291 304.614 258.454C304.614 258.678 304.696 258.847 304.862 258.962C305.029 259.074 305.241 259.131 305.497 259.131ZM311.459 256.361L310.881 256.524C310.844 256.428 310.791 256.334 310.72 256.243C310.651 256.151 310.556 256.074 310.436 256.014C310.316 255.954 310.163 255.924 309.976 255.924C309.719 255.924 309.506 255.984 309.335 256.102C309.166 256.218 309.081 256.366 309.081 256.546C309.081 256.706 309.14 256.832 309.256 256.925C309.372 257.018 309.554 257.095 309.801 257.157L310.423 257.309C310.797 257.4 311.076 257.539 311.26 257.727C311.443 257.912 311.535 258.151 311.535 258.444C311.535 258.683 311.466 258.898 311.328 259.087C311.191 259.276 311.001 259.425 310.755 259.534C310.51 259.643 310.225 259.698 309.899 259.698C309.472 259.698 309.119 259.605 308.839 259.42C308.559 259.234 308.382 258.963 308.307 258.607L308.918 258.454C308.976 258.68 309.086 258.849 309.248 258.962C309.411 259.074 309.625 259.131 309.888 259.131C310.188 259.131 310.426 259.067 310.603 258.94C310.781 258.811 310.87 258.656 310.87 258.476C310.87 258.331 310.819 258.209 310.717 258.111C310.615 258.011 310.459 257.936 310.248 257.887L309.55 257.724C309.167 257.633 308.885 257.492 308.705 257.301C308.527 257.109 308.438 256.868 308.438 256.579C308.438 256.342 308.504 256.133 308.637 255.952C308.771 255.77 308.954 255.627 309.185 255.524C309.418 255.42 309.681 255.368 309.976 255.368C310.39 255.368 310.715 255.459 310.952 255.641C311.19 255.823 311.359 256.063 311.459 256.361ZM314.325 255.423V255.968H312.155V255.423H314.325ZM312.787 254.42H313.43V258.411C313.43 258.593 313.457 258.729 313.509 258.82C313.564 258.909 313.633 258.969 313.717 259C313.802 259.029 313.892 259.043 313.987 259.043C314.057 259.043 314.116 259.04 314.161 259.032C314.206 259.023 314.243 259.016 314.27 259.011L314.401 259.589C314.357 259.605 314.296 259.621 314.218 259.638C314.14 259.656 314.041 259.665 313.921 259.665C313.739 259.665 313.561 259.626 313.387 259.548C313.214 259.469 313.071 259.35 312.956 259.191C312.843 259.031 312.787 258.829 312.787 258.585V254.42ZM318.095 257.091V259.61H317.452V255.423H318.073V256.077H318.128C318.226 255.864 318.375 255.694 318.575 255.565C318.775 255.434 319.033 255.368 319.349 255.368C319.633 255.368 319.881 255.426 320.093 255.543C320.306 255.657 320.471 255.832 320.59 256.066C320.708 256.299 320.767 256.593 320.767 256.95V259.61H320.123V256.993C320.123 256.664 320.038 256.408 319.867 256.224C319.696 256.039 319.462 255.946 319.164 255.946C318.958 255.946 318.775 255.991 318.613 256.08C318.453 256.169 318.327 256.299 318.234 256.47C318.141 256.641 318.095 256.848 318.095 257.091ZM323.175 259.708C322.909 259.708 322.669 259.659 322.452 259.559C322.236 259.457 322.064 259.31 321.937 259.12C321.81 258.927 321.746 258.694 321.746 258.422C321.746 258.182 321.793 257.987 321.888 257.838C321.982 257.687 322.109 257.569 322.267 257.484C322.425 257.398 322.6 257.335 322.79 257.293C322.983 257.249 323.177 257.215 323.371 257.189C323.626 257.157 323.832 257.132 323.99 257.116C324.15 257.098 324.266 257.068 324.339 257.026C324.413 256.984 324.451 256.911 324.451 256.808V256.786C324.451 256.517 324.377 256.308 324.23 256.159C324.084 256.01 323.864 255.935 323.567 255.935C323.26 255.935 323.019 256.003 322.845 256.137C322.67 256.272 322.548 256.415 322.477 256.568L321.866 256.35C321.975 256.095 322.121 255.897 322.302 255.755C322.486 255.612 322.686 255.512 322.902 255.456C323.12 255.397 323.335 255.368 323.546 255.368C323.68 255.368 323.835 255.385 324.009 255.417C324.185 255.448 324.355 255.513 324.519 255.611C324.684 255.709 324.821 255.857 324.93 256.055C325.04 256.253 325.094 256.519 325.094 256.851V259.61H324.451V259.043H324.418C324.374 259.134 324.302 259.231 324.2 259.335C324.098 259.439 323.963 259.527 323.794 259.599C323.625 259.672 323.418 259.708 323.175 259.708ZM323.273 259.131C323.527 259.131 323.742 259.081 323.916 258.981C324.093 258.881 324.225 258.752 324.314 258.593C324.405 258.435 324.451 258.269 324.451 258.095V257.506C324.423 257.538 324.363 257.568 324.271 257.596C324.18 257.621 324.074 257.644 323.954 257.664C323.836 257.682 323.721 257.698 323.608 257.713C323.497 257.726 323.407 257.736 323.338 257.746C323.171 257.767 323.015 257.803 322.869 257.852C322.726 257.899 322.61 257.971 322.52 258.067C322.433 258.162 322.39 258.291 322.39 258.454C322.39 258.678 322.472 258.847 322.638 258.962C322.805 259.074 323.017 259.131 323.273 259.131ZM326.268 259.61V255.423H326.89V256.077H326.945C327.032 255.854 327.173 255.68 327.367 255.556C327.562 255.431 327.795 255.368 328.068 255.368C328.344 255.368 328.574 255.431 328.757 255.556C328.943 255.68 329.087 255.854 329.191 256.077H329.235C329.342 255.861 329.503 255.689 329.717 255.562C329.932 255.433 330.189 255.368 330.489 255.368C330.863 255.368 331.169 255.486 331.407 255.72C331.646 255.953 331.765 256.315 331.765 256.808V259.61H331.121V256.808C331.121 256.499 331.037 256.278 330.868 256.145C330.699 256.013 330.5 255.946 330.271 255.946C329.976 255.946 329.748 256.035 329.586 256.213C329.425 256.39 329.344 256.613 329.344 256.884V259.61H328.689V256.742C328.689 256.504 328.612 256.312 328.458 256.167C328.303 256.02 328.104 255.946 327.861 255.946C327.693 255.946 327.537 255.991 327.392 256.08C327.248 256.169 327.132 256.292 327.043 256.451C326.955 256.607 326.912 256.788 326.912 256.993V259.61H326.268ZM334.697 259.698C334.293 259.698 333.945 259.609 333.652 259.43C333.362 259.25 333.137 259 332.979 258.678C332.823 258.354 332.745 257.978 332.745 257.549C332.745 257.12 332.823 256.742 332.979 256.415C333.137 256.086 333.357 255.83 333.639 255.646C333.922 255.461 334.253 255.368 334.631 255.368C334.849 255.368 335.065 255.405 335.277 255.477C335.49 255.55 335.684 255.668 335.858 255.832C336.033 255.994 336.172 256.208 336.275 256.475C336.379 256.742 336.431 257.071 336.431 257.462V257.735H333.203V257.179H335.776C335.776 256.942 335.729 256.731 335.634 256.546C335.542 256.361 335.409 256.214 335.236 256.107C335.066 256 334.864 255.946 334.631 255.946C334.375 255.946 334.153 256.01 333.966 256.137C333.781 256.262 333.638 256.426 333.538 256.628C333.438 256.83 333.388 257.046 333.388 257.277V257.647C333.388 257.964 333.443 258.232 333.552 258.452C333.662 258.67 333.816 258.836 334.012 258.951C334.209 259.063 334.437 259.12 334.697 259.12C334.866 259.12 335.018 259.096 335.155 259.049C335.293 259 335.412 258.927 335.512 258.831C335.612 258.732 335.689 258.611 335.744 258.465L336.365 258.64C336.3 258.851 336.19 259.036 336.035 259.196C335.881 259.354 335.69 259.478 335.463 259.567C335.236 259.654 334.98 259.698 334.697 259.698Z" fill="#6D6D6E"/>
<path d="M80.1498 286.731H78.9733C78.8381 285.961 78.2247 285.517 77.4414 285.517C76.3876 285.517 75.6452 286.326 75.6452 287.779C75.6452 289.257 76.3939 290.041 77.4382 290.041C78.2089 290.041 78.8255 289.616 78.9733 288.861L80.1498 288.867C79.9705 290.097 78.9545 291.088 77.4225 291.088C75.7238 291.088 74.4719 289.858 74.4719 287.779C74.4719 285.696 75.7396 284.47 77.4225 284.47C78.8507 284.47 79.9516 285.3 80.1498 286.731ZM81.1682 291V286.168H82.307V291H81.1682ZM81.7408 285.482C81.3759 285.482 81.0802 285.206 81.0802 284.866C81.0802 284.523 81.3759 284.246 81.7408 284.246C82.1025 284.246 82.3982 284.523 82.3982 284.866C82.3982 285.206 82.1025 285.482 81.7408 285.482ZM85.8907 286.168V287.049H84.9376V289.547C84.9376 290.006 85.1672 290.107 85.4535 290.107C85.595 290.107 85.724 290.078 85.7869 290.063L85.9788 290.953C85.8561 290.994 85.6328 291.057 85.3088 291.066C84.4531 291.091 83.7925 290.645 83.7988 289.735V287.049H83.1131V286.168H83.7988V285.011H84.9376V286.168H85.8907ZM87.5509 292.812C87.2394 292.812 86.9626 292.755 86.8085 292.692L87.0727 291.805C87.5697 291.95 87.9032 291.912 88.1139 291.362L88.2114 291.101L86.4593 286.168H87.6672L88.7808 289.817H88.8311L89.9479 286.168H91.159L89.2244 291.585C88.9507 292.356 88.4379 292.812 87.5509 292.812ZM95.5346 291.098C94.6129 291.098 93.9177 290.594 93.9177 289.644C93.9177 288.556 94.8143 288.276 95.7517 288.175C96.6042 288.084 96.947 288.068 96.947 287.741V287.722C96.947 287.247 96.6576 286.977 96.1292 286.977C95.5724 286.977 95.2515 287.26 95.1383 287.59L94.075 287.439C94.3267 286.558 95.1068 286.105 96.1229 286.105C97.0446 286.105 98.0858 286.489 98.0858 287.766V291H96.9911V290.336H96.9533C96.7457 290.742 96.2927 291.098 95.5346 291.098ZM95.8303 290.261C96.5161 290.261 96.9502 289.805 96.9502 289.267V288.697C96.8023 288.817 96.2047 288.892 95.9058 288.933C95.3962 289.006 95.0156 289.188 95.0156 289.625C95.0156 290.044 95.3553 290.261 95.8303 290.261ZM100.37 288.169V291H99.2308V286.168H100.319V286.989H100.376C100.596 286.451 101.093 286.105 101.817 286.105C102.814 286.105 103.474 286.766 103.471 287.924V291H102.332V288.1C102.332 287.455 101.98 287.068 101.392 287.068C100.791 287.068 100.37 287.471 100.37 288.169ZM106.422 291.085C105.283 291.085 104.431 290.182 104.431 288.59C104.431 286.98 105.308 286.105 106.425 286.105C107.277 286.105 107.633 286.618 107.806 286.967H107.853V284.558H108.995V291H107.875V290.239H107.806C107.627 290.591 107.252 291.085 106.422 291.085ZM106.74 290.151C107.466 290.151 107.875 289.522 107.875 288.584C107.875 287.647 107.473 287.04 106.74 287.04C105.981 287.04 105.591 287.684 105.591 288.584C105.591 289.49 105.988 290.151 106.74 290.151ZM116.225 287.445L115.187 287.559C115.098 287.241 114.822 286.955 114.296 286.955C113.821 286.955 113.46 287.181 113.463 287.508C113.46 287.788 113.655 287.958 114.145 288.068L114.969 288.244C115.882 288.443 116.325 288.864 116.328 289.553C116.325 290.468 115.473 291.094 114.265 291.094C113.079 291.094 112.333 290.569 112.192 289.682L113.302 289.575C113.4 290.009 113.74 290.236 114.262 290.236C114.803 290.236 115.161 289.987 115.161 289.657C115.161 289.383 114.954 289.204 114.51 289.106L113.686 288.933C112.758 288.741 112.324 288.276 112.327 287.571C112.324 286.678 113.117 286.105 114.281 286.105C115.413 286.105 116.067 286.627 116.225 287.445ZM119.68 286.168V287.049H118.727V289.547C118.727 290.006 118.957 290.107 119.243 290.107C119.384 290.107 119.513 290.078 119.576 290.063L119.768 290.953C119.646 290.994 119.422 291.057 119.098 291.066C118.243 291.091 117.582 290.645 117.588 289.735V287.049H116.903V286.168H117.588V285.011H118.727V286.168H119.68ZM122.023 291.098C121.101 291.098 120.406 290.594 120.406 289.644C120.406 288.556 121.303 288.276 122.24 288.175C123.092 288.084 123.435 288.068 123.435 287.741V287.722C123.435 287.247 123.146 286.977 122.617 286.977C122.061 286.977 121.74 287.26 121.627 287.59L120.563 287.439C120.815 286.558 121.595 286.105 122.611 286.105C123.533 286.105 124.574 286.489 124.574 287.766V291H123.479V290.336H123.442C123.234 290.742 122.781 291.098 122.023 291.098ZM122.319 290.261C123.004 290.261 123.438 289.805 123.438 289.267V288.697C123.291 288.817 122.693 288.892 122.394 288.933C121.885 289.006 121.504 289.188 121.504 289.625C121.504 290.044 121.844 290.261 122.319 290.261ZM128.132 286.168V287.049H127.179V289.547C127.179 290.006 127.408 290.107 127.695 290.107C127.836 290.107 127.965 290.078 128.028 290.063L128.22 290.953C128.097 290.994 127.874 291.057 127.55 291.066C126.694 291.091 126.034 290.645 126.04 289.735V287.049H125.354V286.168H126.04V285.011H127.179V286.168H128.132ZM131.171 291.094C129.715 291.094 128.825 290.129 128.825 288.612C128.825 287.121 129.728 286.105 131.112 286.105C132.301 286.105 133.32 286.851 133.32 288.546V288.896H129.954C129.963 289.723 130.451 290.207 131.187 290.207C131.678 290.207 132.055 289.993 132.209 289.584L133.273 289.704C133.071 290.544 132.298 291.094 131.171 291.094ZM129.957 288.128H132.228C132.222 287.471 131.782 286.992 131.127 286.992C130.448 286.992 129.992 287.511 129.957 288.128Z" fill="#0C0C0D"/>
<rect x="74.2953" y="299.295" width="174.409" height="23.6299" rx="2.06693" fill="white"/>
<rect x="74.2953" y="299.295" width="174.409" height="23.6299" rx="2.06693" stroke="#9E9E9E" stroke-width="0.590551"/>
<path d="M84.1248 313.61V308.027H87.4945V308.627H84.801V310.513H87.32V311.113H84.801V313.011H87.5381V313.61H84.1248ZM89.2693 311.091V313.61H88.6259V309.423H89.2475V310.077H89.302C89.4002 309.864 89.5492 309.694 89.7491 309.565C89.9491 309.434 90.2071 309.368 90.5234 309.368C90.8069 309.368 91.055 309.426 91.2677 309.543C91.4803 309.657 91.6457 309.832 91.7638 310.066C91.882 310.299 91.941 310.593 91.941 310.95V313.61H91.2977V310.993C91.2977 310.664 91.2122 310.408 91.0414 310.224C90.8705 310.039 90.6361 309.946 90.338 309.946C90.1326 309.946 89.9491 309.991 89.7873 310.08C89.6274 310.169 89.501 310.299 89.4083 310.47C89.3157 310.641 89.2693 310.848 89.2693 311.091ZM94.9379 309.423V309.968H92.7678V309.423H94.9379ZM93.4003 308.42H94.0437V312.411C94.0437 312.593 94.07 312.729 94.1227 312.82C94.1773 312.909 94.2463 312.969 94.3299 313C94.4154 313.029 94.5053 313.043 94.5998 313.043C94.6707 313.043 94.7289 313.04 94.7743 313.032C94.8198 313.023 94.8561 313.016 94.8834 313.011L95.0142 313.589C94.9706 313.605 94.9097 313.621 94.8316 313.638C94.7534 313.656 94.6544 313.665 94.5344 313.665C94.3527 313.665 94.1745 313.626 94.0001 313.548C93.8274 313.469 93.6838 313.35 93.5693 313.191C93.4566 313.031 93.4003 312.829 93.4003 312.585V308.42ZM97.6165 313.698C97.213 313.698 96.8649 313.609 96.5723 313.43C96.2815 313.25 96.057 313 95.8989 312.678C95.7426 312.354 95.6644 311.978 95.6644 311.549C95.6644 311.12 95.7426 310.742 95.8989 310.415C96.057 310.086 96.2769 309.83 96.5587 309.646C96.8422 309.461 97.173 309.368 97.551 309.368C97.7691 309.368 97.9845 309.405 98.1971 309.477C98.4098 309.55 98.6034 309.668 98.7778 309.832C98.9523 309.994 99.0914 310.208 99.195 310.475C99.2986 310.742 99.3504 311.071 99.3504 311.462V311.735H96.1225V311.179H98.6961C98.6961 310.942 98.6488 310.731 98.5543 310.546C98.4616 310.361 98.3289 310.214 98.1563 310.107C97.9854 310 97.7837 309.946 97.551 309.946C97.2948 309.946 97.073 310.01 96.8858 310.137C96.7004 310.262 96.5578 310.426 96.4578 310.628C96.3578 310.83 96.3078 311.046 96.3078 311.277V311.647C96.3078 311.964 96.3624 312.232 96.4714 312.452C96.5823 312.67 96.7359 312.836 96.9322 312.951C97.1285 313.063 97.3565 313.12 97.6165 313.12C97.7855 313.12 97.9382 313.096 98.0745 313.049C98.2126 313 98.3316 312.927 98.4316 312.831C98.5316 312.732 98.6088 312.611 98.6633 312.465L99.2849 312.64C99.2195 312.851 99.1095 313.036 98.9551 313.196C98.8006 313.354 98.6097 313.478 98.3825 313.567C98.1553 313.654 97.9 313.698 97.6165 313.698ZM100.329 313.61V309.423H100.951V310.055H100.994C101.071 309.848 101.209 309.68 101.409 309.551C101.609 309.422 101.834 309.357 102.085 309.357C102.132 309.357 102.191 309.358 102.262 309.36C102.333 309.362 102.387 309.365 102.423 309.368V310.023C102.401 310.017 102.351 310.009 102.273 309.998C102.197 309.985 102.116 309.979 102.03 309.979C101.827 309.979 101.645 310.022 101.485 310.107C101.327 310.191 101.201 310.307 101.109 310.456C101.018 310.603 100.972 310.771 100.972 310.96V313.61H100.329ZM107.046 313.698C106.653 313.698 106.315 313.605 106.032 313.42C105.748 313.234 105.53 312.979 105.377 312.653C105.225 312.328 105.148 311.956 105.148 311.538C105.148 311.113 105.227 310.738 105.383 310.412C105.541 310.085 105.761 309.83 106.043 309.646C106.326 309.461 106.657 309.368 107.035 309.368C107.329 309.368 107.595 309.423 107.831 309.532C108.067 309.641 108.261 309.794 108.412 309.99C108.563 310.186 108.656 310.415 108.693 310.677H108.049C108 310.486 107.891 310.317 107.722 310.17C107.555 310.021 107.329 309.946 107.046 309.946C106.795 309.946 106.575 310.012 106.386 310.143C106.199 310.272 106.053 310.454 105.947 310.691C105.844 310.925 105.792 311.2 105.792 311.517C105.792 311.84 105.843 312.122 105.945 312.362C106.048 312.602 106.194 312.788 106.381 312.921C106.57 313.053 106.791 313.12 107.046 313.12C107.213 313.12 107.365 313.091 107.501 313.032C107.638 312.974 107.753 312.891 107.847 312.782C107.942 312.673 108.009 312.542 108.049 312.389H108.693C108.656 312.636 108.566 312.859 108.423 313.057C108.281 313.253 108.093 313.41 107.858 313.526C107.626 313.64 107.355 313.698 107.046 313.698ZM109.633 313.61V309.423H110.277V313.61H109.633ZM109.96 308.725C109.835 308.725 109.727 308.682 109.636 308.597C109.547 308.511 109.502 308.409 109.502 308.289C109.502 308.169 109.547 308.066 109.636 307.981C109.727 307.895 109.835 307.852 109.96 307.852C110.086 307.852 110.193 307.895 110.282 307.981C110.373 308.066 110.418 308.169 110.418 308.289C110.418 308.409 110.373 308.511 110.282 308.597C110.193 308.682 110.086 308.725 109.96 308.725ZM113.276 309.423V309.968H111.106V309.423H113.276ZM111.739 308.42H112.382V312.411C112.382 312.593 112.408 312.729 112.461 312.82C112.515 312.909 112.585 312.969 112.668 313C112.754 313.029 112.844 313.043 112.938 313.043C113.009 313.043 113.067 313.04 113.113 313.032C113.158 313.023 113.194 313.016 113.222 313.011L113.352 313.589C113.309 313.605 113.248 313.621 113.17 313.638C113.092 313.656 112.993 313.665 112.873 313.665C112.691 313.665 112.513 313.626 112.338 313.548C112.166 313.469 112.022 313.35 111.908 313.191C111.795 313.031 111.739 312.829 111.739 312.585V308.42ZM114.658 315.181C114.549 315.181 114.452 315.172 114.367 315.153C114.281 315.137 114.222 315.121 114.189 315.104L114.353 314.537C114.509 314.577 114.647 314.592 114.767 314.581C114.887 314.57 114.994 314.516 115.086 314.42C115.181 314.326 115.267 314.172 115.345 313.959L115.465 313.632L113.917 309.423H114.615L115.771 312.76H115.814L116.97 309.423H117.668L115.891 314.221C115.811 314.437 115.712 314.616 115.593 314.758C115.475 314.902 115.338 315.008 115.182 315.077C115.027 315.146 114.853 315.181 114.658 315.181ZM121.909 313.708C121.643 313.708 121.403 313.659 121.186 313.559C120.97 313.457 120.798 313.31 120.671 313.12C120.544 312.927 120.48 312.694 120.48 312.422C120.48 312.182 120.528 311.987 120.622 311.838C120.717 311.687 120.843 311.569 121.001 311.484C121.159 311.398 121.334 311.335 121.524 311.293C121.717 311.249 121.911 311.215 122.105 311.189C122.36 311.157 122.566 311.132 122.724 311.116C122.884 311.098 123 311.068 123.073 311.026C123.147 310.984 123.185 310.911 123.185 310.808V310.786C123.185 310.517 123.111 310.308 122.964 310.159C122.819 310.01 122.598 309.935 122.301 309.935C121.994 309.935 121.753 310.003 121.579 310.137C121.404 310.272 121.282 310.415 121.211 310.568L120.6 310.35C120.709 310.095 120.855 309.897 121.036 309.755C121.22 309.612 121.42 309.512 121.636 309.456C121.854 309.397 122.069 309.368 122.28 309.368C122.414 309.368 122.569 309.385 122.743 309.417C122.919 309.448 123.089 309.513 123.253 309.611C123.418 309.709 123.556 309.857 123.665 310.055C123.774 310.253 123.828 310.519 123.828 310.851V313.61H123.185V313.043H123.152C123.108 313.134 123.036 313.231 122.934 313.335C122.832 313.439 122.697 313.527 122.528 313.599C122.359 313.672 122.152 313.708 121.909 313.708ZM122.007 313.131C122.261 313.131 122.476 313.081 122.65 312.981C122.827 312.881 122.959 312.752 123.048 312.593C123.139 312.435 123.185 312.269 123.185 312.095V311.506C123.157 311.538 123.098 311.568 123.005 311.596C122.914 311.621 122.809 311.644 122.689 311.664C122.57 311.682 122.455 311.698 122.342 311.713C122.231 311.726 122.141 311.736 122.072 311.746C121.905 311.767 121.749 311.803 121.604 311.852C121.46 311.899 121.344 311.971 121.255 312.067C121.167 312.162 121.124 312.291 121.124 312.454C121.124 312.678 121.206 312.847 121.372 312.962C121.539 313.074 121.751 313.131 122.007 313.131ZM125.646 311.091V313.61H125.002V309.423H125.624V310.077H125.679C125.777 309.864 125.926 309.694 126.126 309.565C126.326 309.434 126.584 309.368 126.9 309.368C127.183 309.368 127.432 309.426 127.644 309.543C127.857 309.657 128.022 309.832 128.14 310.066C128.259 310.299 128.318 310.593 128.318 310.95V313.61H127.674V310.993C127.674 310.664 127.589 310.408 127.418 310.224C127.247 310.039 127.013 309.946 126.715 309.946C126.509 309.946 126.326 309.991 126.164 310.08C126.004 310.169 125.878 310.299 125.785 310.47C125.692 310.641 125.646 310.848 125.646 311.091ZM131.075 313.698C130.726 313.698 130.418 313.609 130.15 313.433C129.883 313.255 129.674 313.004 129.523 312.681C129.372 312.355 129.297 311.971 129.297 311.527C129.297 311.088 129.372 310.706 129.523 310.382C129.674 310.059 129.884 309.809 130.153 309.633C130.422 309.456 130.733 309.368 131.085 309.368C131.358 309.368 131.573 309.414 131.732 309.505C131.892 309.594 132.013 309.695 132.097 309.81C132.182 309.923 132.249 310.015 132.296 310.088H132.35V308.027H132.994V313.61H132.372V312.967H132.296C132.249 313.043 132.181 313.14 132.094 313.256C132.007 313.37 131.882 313.473 131.721 313.564C131.559 313.653 131.344 313.698 131.075 313.698ZM131.162 313.12C131.42 313.12 131.638 313.052 131.816 312.918C131.994 312.782 132.13 312.593 132.222 312.354C132.315 312.112 132.361 311.833 132.361 311.517C132.361 311.204 132.316 310.93 132.225 310.696C132.134 310.46 132 310.276 131.822 310.145C131.643 310.013 131.424 309.946 131.162 309.946C130.889 309.946 130.662 310.016 130.48 310.156C130.3 310.294 130.165 310.482 130.074 310.721C129.985 310.957 129.94 311.222 129.94 311.517C129.94 311.815 129.986 312.085 130.077 312.329C130.169 312.571 130.306 312.763 130.486 312.907C130.667 313.049 130.893 313.12 131.162 313.12ZM139.387 310.361L138.809 310.524C138.773 310.428 138.719 310.334 138.648 310.243C138.579 310.151 138.485 310.074 138.365 310.014C138.245 309.954 138.091 309.924 137.904 309.924C137.648 309.924 137.434 309.984 137.263 310.102C137.094 310.218 137.01 310.366 137.01 310.546C137.01 310.706 137.068 310.832 137.184 310.925C137.3 311.018 137.482 311.095 137.729 311.157L138.351 311.309C138.725 311.4 139.004 311.539 139.188 311.727C139.371 311.912 139.463 312.151 139.463 312.444C139.463 312.683 139.394 312.898 139.256 313.087C139.12 313.276 138.929 313.425 138.684 313.534C138.438 313.643 138.153 313.698 137.828 313.698C137.4 313.698 137.047 313.605 136.767 313.42C136.487 313.234 136.31 312.963 136.235 312.607L136.846 312.454C136.904 312.68 137.014 312.849 137.176 312.962C137.34 313.074 137.553 313.131 137.817 313.131C138.117 313.131 138.355 313.067 138.531 312.94C138.709 312.811 138.798 312.656 138.798 312.476C138.798 312.331 138.747 312.209 138.645 312.111C138.544 312.011 138.387 311.936 138.176 311.887L137.479 311.724C137.095 311.633 136.813 311.492 136.633 311.301C136.455 311.109 136.366 310.868 136.366 310.579C136.366 310.342 136.433 310.133 136.565 309.952C136.7 309.77 136.882 309.627 137.113 309.524C137.346 309.42 137.609 309.368 137.904 309.368C138.318 309.368 138.644 309.459 138.88 309.641C139.118 309.823 139.287 310.063 139.387 310.361ZM142.253 309.423V309.968H140.083V309.423H142.253ZM140.715 308.42H141.359V312.411C141.359 312.593 141.385 312.729 141.438 312.82C141.492 312.909 141.561 312.969 141.645 313C141.73 313.029 141.82 313.043 141.915 313.043C141.986 313.043 142.044 313.04 142.089 313.032C142.135 313.023 142.171 313.016 142.198 313.011L142.329 313.589C142.286 313.605 142.225 313.621 142.147 313.638C142.068 313.656 141.969 313.665 141.849 313.665C141.668 313.665 141.49 313.626 141.315 313.548C141.142 313.469 140.999 313.35 140.884 313.191C140.772 313.031 140.715 312.829 140.715 312.585V308.42ZM144.453 313.708C144.188 313.708 143.947 313.659 143.731 313.559C143.514 313.457 143.343 313.31 143.215 313.12C143.088 312.927 143.024 312.694 143.024 312.422C143.024 312.182 143.072 311.987 143.166 311.838C143.261 311.687 143.387 311.569 143.545 311.484C143.703 311.398 143.878 311.335 144.069 311.293C144.261 311.249 144.455 311.215 144.649 311.189C144.904 311.157 145.11 311.132 145.268 311.116C145.428 311.098 145.544 311.068 145.617 311.026C145.692 310.984 145.729 310.911 145.729 310.808V310.786C145.729 310.517 145.655 310.308 145.508 310.159C145.363 310.01 145.142 309.935 144.846 309.935C144.538 309.935 144.298 310.003 144.123 310.137C143.949 310.272 143.826 310.415 143.755 310.568L143.144 310.35C143.253 310.095 143.399 309.897 143.581 309.755C143.764 309.612 143.964 309.512 144.18 309.456C144.399 309.397 144.613 309.368 144.824 309.368C144.958 309.368 145.113 309.385 145.287 309.417C145.464 309.448 145.634 309.513 145.797 309.611C145.962 309.709 146.1 309.857 146.209 310.055C146.318 310.253 146.372 310.519 146.372 310.851V313.61H145.729V313.043H145.696C145.653 313.134 145.58 313.231 145.478 313.335C145.376 313.439 145.241 313.527 145.072 313.599C144.903 313.672 144.697 313.708 144.453 313.708ZM144.551 313.131C144.806 313.131 145.02 313.081 145.195 312.981C145.371 312.881 145.504 312.752 145.593 312.593C145.683 312.435 145.729 312.269 145.729 312.095V311.506C145.702 311.538 145.642 311.568 145.549 311.596C145.458 311.621 145.353 311.644 145.233 311.664C145.115 311.682 144.999 311.698 144.887 311.713C144.776 311.726 144.686 311.736 144.617 311.746C144.449 311.767 144.293 311.803 144.148 311.852C144.004 311.899 143.888 311.971 143.799 312.067C143.711 312.162 143.668 312.291 143.668 312.454C143.668 312.678 143.751 312.847 143.916 312.962C144.083 313.074 144.295 313.131 144.551 313.131ZM149.368 309.423V309.968H147.198V309.423H149.368ZM147.83 308.42H148.474V312.411C148.474 312.593 148.5 312.729 148.553 312.82C148.607 312.909 148.676 312.969 148.76 313C148.845 313.029 148.935 313.043 149.03 313.043C149.101 313.043 149.159 313.04 149.204 313.032C149.25 313.023 149.286 313.016 149.313 313.011L149.444 313.589C149.401 313.605 149.34 313.621 149.261 313.638C149.183 313.656 149.084 313.665 148.964 313.665C148.783 313.665 148.604 313.626 148.43 313.548C148.257 313.469 148.114 313.35 147.999 313.191C147.887 313.031 147.83 312.829 147.83 312.585V308.42ZM152.046 313.698C151.643 313.698 151.295 313.609 151.002 313.43C150.711 313.25 150.487 313 150.329 312.678C150.173 312.354 150.094 311.978 150.094 311.549C150.094 311.12 150.173 310.742 150.329 310.415C150.487 310.086 150.707 309.83 150.989 309.646C151.272 309.461 151.603 309.368 151.981 309.368C152.199 309.368 152.414 309.405 152.627 309.477C152.84 309.55 153.033 309.668 153.208 309.832C153.382 309.994 153.521 310.208 153.625 310.475C153.728 310.742 153.78 311.071 153.78 311.462V311.735H150.552V311.179H153.126C153.126 310.942 153.079 310.731 152.984 310.546C152.891 310.361 152.759 310.214 152.586 310.107C152.415 310 152.214 309.946 151.981 309.946C151.725 309.946 151.503 310.01 151.316 310.137C151.13 310.262 150.988 310.426 150.888 310.628C150.788 310.83 150.738 311.046 150.738 311.277V311.647C150.738 311.964 150.792 312.232 150.901 312.452C151.012 312.67 151.166 312.836 151.362 312.951C151.558 313.063 151.786 313.12 152.046 313.12C152.215 313.12 152.368 313.096 152.504 313.049C152.642 313 152.762 312.927 152.862 312.831C152.961 312.732 153.039 312.611 153.093 312.465L153.715 312.64C153.649 312.851 153.539 313.036 153.385 313.196C153.23 313.354 153.04 313.478 152.812 313.567C152.585 313.654 152.33 313.698 152.046 313.698Z" fill="#6D6D6E"/>
<path d="M273.819 291H271.635V284.558H273.863C275.781 284.558 276.945 285.766 276.945 287.773C276.945 289.786 275.781 291 273.819 291ZM272.802 289.99H273.762C275.105 289.99 275.788 289.254 275.788 287.773C275.788 286.297 275.105 285.567 273.797 285.567H272.802V289.99ZM279.394 291.098C278.473 291.098 277.777 290.594 277.777 289.644C277.777 288.556 278.674 288.276 279.611 288.175C280.464 288.084 280.807 288.068 280.807 287.741V287.722C280.807 287.247 280.517 286.977 279.989 286.977C279.432 286.977 279.111 287.26 278.998 287.59L277.935 287.439C278.186 286.558 278.966 286.105 279.983 286.105C280.904 286.105 281.945 286.489 281.945 287.766V291H280.851V290.336H280.813C280.605 290.742 280.152 291.098 279.394 291.098ZM279.69 290.261C280.376 290.261 280.81 289.805 280.81 289.267V288.697C280.662 288.817 280.064 288.892 279.765 288.933C279.256 289.006 278.875 289.188 278.875 289.625C278.875 290.044 279.215 290.261 279.69 290.261ZM285.503 286.168V287.049H284.55V289.547C284.55 290.006 284.78 290.107 285.066 290.107C285.208 290.107 285.336 290.078 285.399 290.063L285.591 290.953C285.469 290.994 285.245 291.057 284.921 291.066C284.066 291.091 283.405 290.645 283.411 289.735V287.049H282.726V286.168H283.411V285.011H284.55V286.168H285.503ZM288.543 291.094C287.086 291.094 286.196 290.129 286.196 288.612C286.196 287.121 287.099 286.105 288.483 286.105C289.672 286.105 290.691 286.851 290.691 288.546V288.896H287.325C287.335 289.723 287.822 290.207 288.558 290.207C289.049 290.207 289.427 289.993 289.581 289.584L290.644 289.704C290.443 290.544 289.669 291.094 288.543 291.094ZM287.328 288.128H289.6C289.593 287.471 289.153 286.992 288.499 286.992C287.819 286.992 287.363 287.511 287.328 288.128ZM295.959 291.094C294.544 291.094 293.644 290.097 293.644 288.603C293.644 287.106 294.544 286.105 295.959 286.105C297.375 286.105 298.275 287.106 298.275 288.603C298.275 290.097 297.375 291.094 295.959 291.094ZM295.966 290.182C296.736 290.182 297.12 289.484 297.12 288.6C297.12 287.716 296.736 287.008 295.966 287.008C295.183 287.008 294.799 287.716 294.799 288.6C294.799 289.484 295.183 290.182 295.966 290.182ZM301.689 286.168V287.049H300.685V291H299.546V287.049H298.832V286.168H299.546V285.712C299.546 284.737 300.216 284.256 301.056 284.256C301.45 284.256 301.774 284.337 301.921 284.388L301.692 285.269C301.597 285.24 301.446 285.199 301.267 285.199C300.842 285.199 300.685 285.41 300.685 285.788V286.168H301.689ZM304.828 291V284.558H305.967V286.967H306.014C306.187 286.618 306.542 286.105 307.395 286.105C308.512 286.105 309.389 286.98 309.389 288.59C309.389 290.182 308.537 291.085 307.398 291.085C306.568 291.085 306.193 290.591 306.014 290.239H305.948V291H304.828ZM305.945 288.584C305.945 289.522 306.354 290.151 307.08 290.151C307.832 290.151 308.228 289.49 308.228 288.584C308.228 287.684 307.838 287.04 307.08 287.04C306.347 287.04 305.945 287.647 305.945 288.584ZM310.357 291V286.168H311.496V291H310.357ZM310.93 285.482C310.565 285.482 310.269 285.206 310.269 284.866C310.269 284.523 310.565 284.246 310.93 284.246C311.292 284.246 311.587 284.523 311.587 284.866C311.587 285.206 311.292 285.482 310.93 285.482ZM312.667 291V286.168H313.771V286.974H313.822C313.998 286.414 314.46 286.099 315.014 286.099C315.14 286.099 315.319 286.112 315.423 286.13V287.178C315.325 287.147 315.086 287.112 314.894 287.112C314.268 287.112 313.806 287.546 313.806 288.159V291H312.667ZM318.851 286.168V287.049H317.898V289.547C317.898 290.006 318.128 290.107 318.414 290.107C318.556 290.107 318.685 290.078 318.748 290.063L318.94 290.953C318.817 290.994 318.594 291.057 318.27 291.066C317.414 291.091 316.753 290.645 316.76 289.735V287.049H316.074V286.168H316.76V285.011H317.898V286.168H318.851ZM321.046 288.169V291H319.908V284.558H321.021V286.989H321.078C321.301 286.442 321.773 286.105 322.515 286.105C323.519 286.105 324.179 286.756 324.179 287.924V291H323.041V288.1C323.041 287.449 322.688 287.068 322.091 287.068C321.48 287.068 321.046 287.471 321.046 288.169Z" fill="#0C0C0D"/>
<rect x="271.295" y="300.295" width="174.409" height="23.0315" rx="2.06693" fill="white"/>
<rect x="271.295" y="300.295" width="174.409" height="23.0315" rx="2.06693" stroke="#9E9E9E" stroke-width="0.590551"/>
<path d="M281.125 308.728H281.932L283.829 313.362H283.895L285.792 308.728H286.599V314.311H285.967V310.069H285.912L284.167 314.311H283.557L281.812 310.069H281.757V314.311H281.125V308.728ZM287.955 308.728H288.762L290.659 313.362H290.725L292.622 308.728H293.429V314.311H292.797V310.069H292.742L290.997 314.311H290.387L288.642 310.069H288.587V314.311H287.955V308.728ZM296.671 308.466L294.872 315.151H294.283L296.083 308.466H296.671ZM299.244 314.311H297.521V308.728H299.321C299.862 308.728 300.326 308.839 300.711 309.063C301.096 309.285 301.392 309.604 301.597 310.02C301.802 310.434 301.905 310.93 301.905 311.508C301.905 312.09 301.802 312.591 301.594 313.011C301.387 313.429 301.085 313.75 300.689 313.976C300.293 314.199 299.811 314.311 299.244 314.311ZM298.197 313.711H299.201C299.662 313.711 300.045 313.622 300.348 313.444C300.652 313.266 300.878 313.012 301.027 312.683C301.176 312.354 301.251 311.963 301.251 311.508C301.251 311.058 301.177 310.67 301.03 310.344C300.883 310.017 300.663 309.766 300.37 309.592C300.078 309.416 299.713 309.327 299.277 309.327H298.197V313.711ZM304.762 314.311H303.039V308.728H304.839C305.38 308.728 305.844 308.839 306.229 309.063C306.614 309.285 306.91 309.604 307.115 310.02C307.32 310.434 307.423 310.93 307.423 311.508C307.423 312.09 307.319 312.591 307.112 313.011C306.905 313.429 306.603 313.75 306.207 313.976C305.811 314.199 305.329 314.311 304.762 314.311ZM303.715 313.711H304.719C305.18 313.711 305.563 313.622 305.866 313.444C306.17 313.266 306.396 313.012 306.545 312.683C306.694 312.354 306.769 311.963 306.769 311.508C306.769 311.058 306.695 310.67 306.548 310.344C306.401 310.017 306.181 309.766 305.888 309.592C305.596 309.416 305.231 309.327 304.795 309.327H303.715V313.711ZM310.136 308.466L308.337 315.151H307.748L309.548 308.466H310.136ZM310.506 308.728H311.281L312.829 311.334H312.895L314.443 308.728H315.217L313.2 312.01V314.311H312.524V312.01L310.506 308.728ZM315.612 308.728H316.386L317.935 311.334H318L319.549 308.728H320.323L318.306 312.01V314.311H317.63V312.01L315.612 308.728ZM320.718 308.728H321.492L323.041 311.334H323.106L324.654 308.728H325.429L323.411 312.01V314.311H322.735V312.01L320.718 308.728ZM325.823 308.728H326.598L328.146 311.334H328.212L329.76 308.728H330.534L328.517 312.01V314.311H327.841V312.01L325.823 308.728Z" fill="#6D6D6E"/>
<path fill-rule="evenodd" clip-rule="evenodd" d="M432.565 307.53C432.565 307.285 432.366 307.087 432.122 307.087C431.877 307.087 431.678 307.285 431.678 307.53V307.704H431.237C430.258 307.704 429.464 308.497 429.464 309.476V314.764C429.464 315.743 430.258 316.536 431.237 316.536H437.141C438.12 316.536 438.913 315.743 438.913 314.764V309.476C438.913 308.497 438.12 307.704 437.141 307.704H436.698V307.53C436.698 307.285 436.5 307.087 436.255 307.087C436.01 307.087 435.812 307.285 435.812 307.53V307.704H432.565V307.53ZM435.812 309.06V308.885H432.565V309.06C432.565 309.304 432.366 309.503 432.122 309.503C431.877 309.503 431.678 309.304 431.678 309.06V308.885H431.237C430.911 308.885 430.646 309.15 430.646 309.476V314.764C430.646 315.091 430.911 315.355 431.237 315.355H437.141C437.467 315.355 437.732 315.091 437.732 314.764V309.476C437.732 309.15 437.467 308.885 437.141 308.885H436.698V309.06C436.698 309.304 436.5 309.503 436.255 309.503C436.01 309.503 435.812 309.304 435.812 309.06ZM431.709 310.53C431.464 310.53 431.266 310.728 431.266 310.973C431.266 311.218 431.464 311.416 431.709 311.416H432.536C432.78 311.416 432.979 311.218 432.979 310.973C432.979 310.728 432.78 310.53 432.536 310.53H431.709ZM433.333 310.973C433.333 310.728 433.531 310.53 433.776 310.53H434.602C434.847 310.53 435.045 310.728 435.045 310.973C435.045 311.218 434.847 311.416 434.602 311.416H433.776C433.531 311.416 433.333 311.218 433.333 310.973ZM435.841 310.53C435.597 310.53 435.398 310.728 435.398 310.973C435.398 311.218 435.597 311.416 435.841 311.416H436.668C436.913 311.416 437.111 311.218 437.111 310.973C437.111 310.728 436.913 310.53 436.668 310.53H435.841ZM431.266 312.503C431.266 312.258 431.464 312.06 431.709 312.06H432.536C432.78 312.06 432.979 312.258 432.979 312.503C432.979 312.748 432.78 312.946 432.536 312.946H431.709C431.464 312.946 431.266 312.748 431.266 312.503ZM433.776 312.06C433.531 312.06 433.333 312.258 433.333 312.503C433.333 312.748 433.531 312.946 433.776 312.946H434.602C434.847 312.946 435.045 312.748 435.045 312.503C435.045 312.258 434.847 312.06 434.602 312.06H433.776ZM435.398 312.503C435.398 312.258 435.597 312.06 435.841 312.06H436.668C436.913 312.06 437.111 312.258 437.111 312.503C437.111 312.748 436.913 312.946 436.668 312.946H435.841C435.597 312.946 435.398 312.748 435.398 312.503ZM431.709 313.59C431.464 313.59 431.266 313.789 431.266 314.033C431.266 314.278 431.464 314.476 431.709 314.476H432.536C432.78 314.476 432.979 314.278 432.979 314.033C432.979 313.789 432.78 313.59 432.536 313.59H431.709ZM433.333 314.033C433.333 313.789 433.531 313.59 433.776 313.59H434.602C434.847 313.59 435.045 313.789 435.045 314.033C435.045 314.278 434.847 314.476 434.602 314.476H433.776C433.531 314.476 433.333 314.278 433.333 314.033ZM435.841 313.59C435.597 313.59 435.398 313.789 435.398 314.033C435.398 314.278 435.597 314.476 435.841 314.476H436.668C436.913 314.476 437.111 314.278 437.111 314.033C437.111 313.789 436.913 313.59 436.668 313.59H435.841Z" fill="#6D6D6E"/>
<rect x="171.63" y="98" width="18.8976" height="18.8976" rx="9.44882" fill="#592ACB"/>
<path d="M179.499 112.182C179.29 112.182 179.09 112.099 178.942 111.951L176.576 109.585C176.432 109.436 176.353 109.237 176.355 109.03C176.356 108.823 176.439 108.626 176.585 108.479C176.732 108.333 176.929 108.25 177.136 108.248C177.343 108.247 177.542 108.326 177.691 108.47L179.392 110.171L184.373 103.055C184.493 102.886 184.676 102.771 184.881 102.736C185.086 102.701 185.296 102.748 185.467 102.867C185.637 102.986 185.753 103.168 185.791 103.372C185.828 103.577 185.783 103.787 185.665 103.959L180.145 111.845C180.079 111.94 179.994 112.019 179.894 112.077C179.794 112.136 179.683 112.171 179.568 112.182C179.545 112.183 179.522 112.183 179.499 112.182Z" fill="white"/>
<rect x="190.528" y="106.268" width="56.6929" height="2.3622" fill="#D9BFFF"/>
<rect x="246.039" y="96.8189" width="21.2598" height="21.2598" rx="10.6299" fill="#592ACB"/>
<rect x="246.039" y="96.8189" width="21.2598" height="21.2598" rx="10.6299" stroke="#D9BFFF" stroke-width="2.3622"/>
<path fill-rule="evenodd" clip-rule="evenodd" d="M256.669 112.173C254.06 112.173 251.945 110.058 251.945 107.449C251.945 104.84 254.06 102.725 256.669 102.725C259.278 102.725 261.394 104.84 261.394 107.449C261.391 110.057 259.277 112.171 256.669 112.173ZM259.344 108.492C258.645 107.685 257.676 108.772 256.668 108.772C255.66 108.772 254.691 107.685 253.991 108.492C253.792 108.721 253.777 109.055 253.947 109.305C254.54 110.178 255.532 110.756 256.668 110.756C257.803 110.756 258.795 110.178 259.389 109.305C259.559 109.055 259.543 108.721 259.344 108.492ZM256.669 108.157C257.778 108.157 258.676 107.258 258.676 106.149C258.676 105.04 257.778 104.142 256.669 104.142C255.56 104.142 254.661 105.04 254.661 106.149C254.661 107.258 255.56 108.157 256.669 108.157Z" fill="white"/>
<rect x="266.118" y="106.268" width="28.3465" height="2.3622" fill="#D9BFFF"/>
<rect x="294.465" y="106.268" width="26.5748" height="2.3622" fill="#9E9E9E"/>
<rect x="321.039" y="98" width="18.8976" height="18.8976" rx="9.44882" fill="#9E9E9E"/>
<path d="M335.046 111.174L332.203 108.331C332.719 107.606 332.944 106.713 332.833 105.83C332.722 104.947 332.283 104.138 331.604 103.564C330.924 102.989 330.053 102.691 329.164 102.728C328.275 102.765 327.432 103.135 326.803 103.764C326.173 104.393 325.803 105.236 325.766 106.125C325.729 107.015 326.028 107.885 326.602 108.565C327.177 109.245 327.986 109.683 328.869 109.795C329.752 109.906 330.645 109.681 331.37 109.165L334.213 112.008C334.324 112.115 334.473 112.175 334.628 112.173C334.782 112.172 334.93 112.11 335.039 112.001C335.149 111.891 335.211 111.744 335.212 111.589C335.213 111.434 335.154 111.285 335.046 111.174ZM329.323 108.643C328.857 108.643 328.401 108.505 328.013 108.246C327.625 107.986 327.323 107.618 327.144 107.187C326.966 106.756 326.919 106.282 327.01 105.825C327.101 105.367 327.326 104.947 327.656 104.617C327.985 104.287 328.406 104.063 328.863 103.972C329.321 103.881 329.795 103.927 330.226 104.106C330.657 104.284 331.025 104.587 331.284 104.974C331.543 105.362 331.682 105.818 331.682 106.285C331.682 106.91 331.433 107.51 330.991 107.952C330.549 108.395 329.949 108.643 329.323 108.643Z" fill="white"/>
<path d="M164.97 126.114C164.804 125.568 164.381 125.236 163.759 125.236C162.926 125.236 162.325 125.88 162.325 127.04C162.325 128.208 162.916 128.855 163.779 128.855C164.554 128.855 165.045 128.389 165.06 127.654H163.872V126.924H165.964V127.543C165.964 128.872 165.05 129.693 163.774 129.693C162.352 129.693 161.386 128.681 161.386 127.05C161.386 125.389 162.398 124.398 163.747 124.398C164.887 124.398 165.762 125.102 165.921 126.114H164.97ZM168.537 129.698C167.372 129.698 166.66 128.925 166.66 127.712C166.66 126.519 167.382 125.706 168.49 125.706C169.441 125.706 170.256 126.303 170.256 127.659V127.938H167.564C167.571 128.6 167.961 128.988 168.55 128.988C168.943 128.988 169.245 128.817 169.368 128.49L170.219 128.585C170.057 129.257 169.438 129.698 168.537 129.698ZM167.566 127.324H169.383C169.378 126.798 169.026 126.416 168.502 126.416C167.959 126.416 167.594 126.831 167.566 127.324ZM172.957 125.757V126.461H172.195V128.459C172.195 128.827 172.378 128.907 172.607 128.907C172.721 128.907 172.824 128.885 172.874 128.872L173.028 129.584C172.93 129.617 172.751 129.667 172.492 129.675C171.807 129.695 171.279 129.338 171.284 128.61V126.461H170.735V125.757H171.284V124.831H172.195V125.757H172.957ZM178.532 126.778L177.702 126.869C177.631 126.615 177.41 126.386 176.989 126.386C176.609 126.386 176.32 126.567 176.322 126.829C176.32 127.053 176.476 127.189 176.869 127.277L177.528 127.418C178.258 127.576 178.613 127.913 178.615 128.464C178.613 129.197 177.931 129.698 176.964 129.698C176.015 129.698 175.419 129.277 175.306 128.568L176.194 128.482C176.272 128.829 176.544 129.011 176.962 129.011C177.395 129.011 177.681 128.812 177.681 128.548C177.681 128.329 177.515 128.185 177.16 128.107L176.501 127.969C175.759 127.815 175.411 127.443 175.414 126.879C175.411 126.164 176.046 125.706 176.977 125.706C177.883 125.706 178.406 126.124 178.532 126.778ZM181.296 125.757V126.461H180.534V128.459C180.534 128.827 180.718 128.907 180.947 128.907C181.06 128.907 181.163 128.885 181.213 128.872L181.367 129.584C181.269 129.617 181.09 129.667 180.831 129.675C180.146 129.695 179.618 129.338 179.623 128.61V126.461H179.074V125.757H179.623V124.831H180.534V125.757H181.296ZM183.171 129.7C182.433 129.7 181.877 129.297 181.877 128.537C181.877 127.667 182.594 127.443 183.344 127.362C184.026 127.289 184.301 127.277 184.301 127.015V127C184.301 126.62 184.069 126.403 183.646 126.403C183.201 126.403 182.944 126.63 182.854 126.894L182.003 126.773C182.204 126.069 182.828 125.706 183.641 125.706C184.379 125.706 185.212 126.013 185.212 127.035V129.622H184.336V129.091H184.306C184.139 129.416 183.777 129.7 183.171 129.7ZM183.407 129.031C183.956 129.031 184.303 128.666 184.303 128.235V127.78C184.185 127.876 183.707 127.936 183.468 127.969C183.06 128.027 182.755 128.173 182.755 128.522C182.755 128.857 183.027 129.031 183.407 129.031ZM186.128 129.622V125.757H187.011V126.401H187.051C187.192 125.953 187.562 125.701 188.005 125.701C188.106 125.701 188.249 125.711 188.332 125.726V126.564C188.254 126.539 188.063 126.512 187.909 126.512C187.408 126.512 187.039 126.859 187.039 127.35V129.622H186.128ZM191.075 125.757V126.461H190.313V128.459C190.313 128.827 190.496 128.907 190.725 128.907C190.839 128.907 190.942 128.885 190.992 128.872L191.146 129.584C191.047 129.617 190.869 129.667 190.61 129.675C189.925 129.695 189.397 129.338 189.402 128.61V126.461H188.853V125.757H189.402V124.831H190.313V125.757H191.075ZM193.507 129.698C192.342 129.698 191.629 128.925 191.629 127.712C191.629 126.519 192.352 125.706 193.459 125.706C194.41 125.706 195.226 126.303 195.226 127.659V127.938H192.533C192.54 128.6 192.93 128.988 193.519 128.988C193.912 128.988 194.214 128.817 194.337 128.49L195.188 128.585C195.027 129.257 194.408 129.698 193.507 129.698ZM192.535 127.324H194.352C194.347 126.798 193.995 126.416 193.472 126.416C192.928 126.416 192.563 126.831 192.535 127.324ZM197.431 129.69C196.52 129.69 195.838 128.968 195.838 127.694C195.838 126.406 196.54 125.706 197.433 125.706C198.115 125.706 198.4 126.117 198.538 126.396H198.576V124.468H199.489V129.622H198.593V129.013H198.538C198.395 129.295 198.095 129.69 197.431 129.69ZM197.685 128.943C198.266 128.943 198.593 128.439 198.593 127.689C198.593 126.939 198.271 126.454 197.685 126.454C197.078 126.454 196.766 126.97 196.766 127.689C196.766 128.414 197.083 128.943 197.685 128.943Z" fill="#592ACB"/>
<path d="M240.53 129.622V124.468H243.882V125.251H241.463V126.65H243.708V127.433H241.463V128.839H243.902V129.622H240.53ZM245.705 127.357V129.622H244.794V125.757H245.665V126.413H245.71C245.886 125.983 246.284 125.706 246.863 125.706C247.66 125.706 248.189 126.235 248.186 127.161V129.622H247.275V127.302C247.275 126.786 246.994 126.476 246.523 126.476C246.042 126.476 245.705 126.798 245.705 127.357ZM251.043 125.757V126.461H250.28V128.459C250.28 128.827 250.464 128.907 250.693 128.907C250.806 128.907 250.909 128.885 250.96 128.872L251.113 129.584C251.015 129.617 250.836 129.667 250.577 129.675C249.893 129.695 249.364 129.338 249.369 128.61V126.461H248.821V125.757H249.369V124.831H250.28V125.757H251.043ZM253.474 129.698C252.309 129.698 251.597 128.925 251.597 127.712C251.597 126.519 252.319 125.706 253.426 125.706C254.378 125.706 255.193 126.303 255.193 127.659V127.938H252.5C252.508 128.6 252.898 128.988 253.487 128.988C253.879 128.988 254.181 128.817 254.305 128.49L255.155 128.585C254.994 129.257 254.375 129.698 253.474 129.698ZM252.503 127.324H254.32C254.315 126.798 253.963 126.416 253.439 126.416C252.896 126.416 252.531 126.831 252.503 127.324ZM255.964 129.622V125.757H256.847V126.401H256.887C257.028 125.953 257.398 125.701 257.841 125.701C257.942 125.701 258.085 125.711 258.168 125.726V126.564C258.09 126.539 257.899 126.512 257.746 126.512C257.245 126.512 256.875 126.859 256.875 127.35V129.622H255.964ZM260.531 129.622V125.757H261.442V129.622H260.531ZM260.989 125.208C260.697 125.208 260.461 124.987 260.461 124.715C260.461 124.44 260.697 124.219 260.989 124.219C261.279 124.219 261.515 124.44 261.515 124.715C261.515 124.987 261.279 125.208 260.989 125.208ZM263.29 127.357V129.622H262.379V125.757H263.25V126.413H263.295C263.471 125.983 263.869 125.706 264.448 125.706C265.245 125.706 265.774 126.235 265.771 127.161V129.622H264.86V127.302C264.86 126.786 264.579 126.476 264.108 126.476C263.627 126.476 263.29 126.798 263.29 127.357ZM268.655 125.757V126.461H267.853V129.622H266.942V126.461H266.37V125.757H266.942V125.392C266.942 124.612 267.478 124.227 268.15 124.227C268.464 124.227 268.723 124.292 268.842 124.332L268.658 125.037C268.582 125.014 268.462 124.982 268.318 124.982C267.978 124.982 267.853 125.15 267.853 125.452V125.757H268.655ZM270.91 129.698C269.777 129.698 269.057 128.9 269.057 127.704C269.057 126.507 269.777 125.706 270.91 125.706C272.042 125.706 272.762 126.507 272.762 127.704C272.762 128.9 272.042 129.698 270.91 129.698ZM270.915 128.968C271.531 128.968 271.838 128.409 271.838 127.702C271.838 126.995 271.531 126.429 270.915 126.429C270.288 126.429 269.981 126.995 269.981 127.702C269.981 128.409 270.288 128.968 270.915 128.968Z" fill="#592ACB"/>
<path d="M306.528 129.622V124.468H309.829V125.251H307.461V126.65H309.603V127.433H307.461V129.622H306.528ZM310.64 129.622V125.757H311.551V129.622H310.64ZM311.098 125.208C310.806 125.208 310.569 124.987 310.569 124.715C310.569 124.44 310.806 124.219 311.098 124.219C311.387 124.219 311.624 124.44 311.624 124.715C311.624 124.987 311.387 125.208 311.098 125.208ZM313.398 127.357V129.622H312.487V125.757H313.358V126.413H313.403C313.58 125.983 313.977 125.706 314.556 125.706C315.354 125.706 315.882 126.235 315.88 127.161V129.622H314.969V127.302C314.969 126.786 314.687 126.476 314.216 126.476C313.736 126.476 313.398 126.798 313.398 127.357ZM318.24 129.69C317.329 129.69 316.647 128.968 316.647 127.694C316.647 126.406 317.349 125.706 318.243 125.706C318.925 125.706 319.209 126.117 319.348 126.396H319.385V124.468H320.299V129.622H319.403V129.013H319.348C319.204 129.295 318.905 129.69 318.24 129.69ZM318.494 128.943C319.076 128.943 319.403 128.439 319.403 127.689C319.403 126.939 319.081 126.454 318.494 126.454C317.888 126.454 317.576 126.97 317.576 127.689C317.576 128.414 317.893 128.943 318.494 128.943ZM324.739 129.698C323.574 129.698 322.861 128.925 322.861 127.712C322.861 126.519 323.584 125.706 324.691 125.706C325.642 125.706 326.457 126.303 326.457 127.659V127.938H323.765C323.772 128.6 324.162 128.988 324.751 128.988C325.144 128.988 325.446 128.817 325.569 128.49L326.42 128.585C326.259 129.257 325.64 129.698 324.739 129.698ZM323.767 127.324H325.584C325.579 126.798 325.227 126.416 324.703 126.416C324.16 126.416 323.795 126.831 323.767 127.324ZM327.897 125.757L328.677 127.184L329.47 125.757H330.434L329.268 127.689L330.454 129.622H329.495L328.677 128.23L327.867 129.622H326.9L328.078 127.689L326.931 125.757H327.897ZM331.138 131.072V125.757H332.034V126.396H332.087C332.225 126.117 332.51 125.706 333.192 125.706C334.085 125.706 334.787 126.406 334.787 127.694C334.787 128.968 334.105 129.69 333.194 129.69C332.53 129.69 332.23 129.295 332.087 129.013H332.049V131.072H331.138ZM332.032 127.689C332.032 128.439 332.359 128.943 332.94 128.943C333.542 128.943 333.859 128.414 333.859 127.689C333.859 126.97 333.547 126.454 332.94 126.454C332.354 126.454 332.032 126.939 332.032 127.689ZM337.254 129.698C336.121 129.698 335.401 128.9 335.401 127.704C335.401 126.507 336.121 125.706 337.254 125.706C338.386 125.706 339.106 126.507 339.106 127.704C339.106 128.9 338.386 129.698 337.254 129.698ZM337.259 128.968C337.875 128.968 338.182 128.409 338.182 127.702C338.182 126.995 337.875 126.429 337.259 126.429C336.632 126.429 336.325 126.995 336.325 127.702C336.325 128.409 336.632 128.968 337.259 128.968ZM342.934 126.778L342.104 126.869C342.033 126.615 341.812 126.386 341.391 126.386C341.011 126.386 340.722 126.567 340.724 126.829C340.722 127.053 340.878 127.189 341.271 127.277L341.93 127.418C342.66 127.576 343.015 127.913 343.017 128.464C343.015 129.197 342.333 129.698 341.366 129.698C340.417 129.698 339.821 129.277 339.708 128.568L340.596 128.482C340.674 128.829 340.946 129.011 341.364 129.011C341.797 129.011 342.083 128.812 342.083 128.548C342.083 128.329 341.917 128.185 341.562 128.107L340.903 127.969C340.161 127.815 339.813 127.443 339.816 126.879C339.813 126.164 340.448 125.706 341.379 125.706C342.285 125.706 342.808 126.124 342.934 126.778ZM346.232 127.996V125.757H347.143V129.622H346.26V128.935H346.219C346.043 129.368 345.636 129.672 345.057 129.672C344.297 129.672 343.768 129.146 343.768 128.218V125.757H344.679V128.077C344.679 128.568 344.971 128.877 345.409 128.877C345.812 128.877 346.232 128.585 346.232 127.996ZM348.08 129.622V125.757H348.963V126.401H349.003C349.144 125.953 349.514 125.701 349.957 125.701C350.058 125.701 350.201 125.711 350.284 125.726V126.564C350.206 126.539 350.015 126.512 349.861 126.512C349.361 126.512 348.991 126.859 348.991 127.35V129.622H348.08ZM352.442 129.698C351.276 129.698 350.564 128.925 350.564 127.712C350.564 126.519 351.286 125.706 352.394 125.706C353.345 125.706 354.16 126.303 354.16 127.659V127.938H351.468C351.475 128.6 351.865 128.988 352.454 128.988C352.847 128.988 353.149 128.817 353.272 128.49L354.123 128.585C353.962 129.257 353.342 129.698 352.442 129.698ZM351.47 127.324H353.287C353.282 126.798 352.93 126.416 352.406 126.416C351.863 126.416 351.498 126.831 351.47 127.324ZM357.986 126.778L357.156 126.869C357.085 126.615 356.864 126.386 356.443 126.386C356.063 126.386 355.774 126.567 355.777 126.829C355.774 127.053 355.93 127.189 356.323 127.277L356.982 127.418C357.712 127.576 358.067 127.913 358.069 128.464C358.067 129.197 357.385 129.698 356.418 129.698C355.47 129.698 354.873 129.277 354.76 128.568L355.648 128.482C355.726 128.829 355.998 129.011 356.416 129.011C356.849 129.011 357.136 128.812 357.136 128.548C357.136 128.329 356.969 128.185 356.615 128.107L355.955 127.969C355.213 127.815 354.866 127.443 354.868 126.879C354.866 126.164 355.5 125.706 356.431 125.706C357.337 125.706 357.86 126.124 357.986 126.778Z" fill="#9E9E9E"/>
<path d="M153.44 159.258H144.677V162.409H152.612V165.468H144.677V168.941H153.44V172H141.273V156.199H153.44V159.258ZM162.792 159.833C165.368 159.833 167.208 161.742 167.208 164.433V172H163.965V165.146C163.965 163.674 163.045 162.662 161.711 162.662C160.308 162.662 159.227 163.674 159.227 164.962L159.204 164.893V172H155.846V160.109H159.204V161.604C159.917 160.523 161.251 159.833 162.792 159.833ZM176.299 169.056L177.104 171.241C176.414 171.862 175.333 172.276 174.367 172.276C172.274 172.276 170.802 170.781 170.802 168.642V162.823H169.169V160.109H170.802V156.843H174.022V160.109H176.598V162.823H174.022V168.113C174.022 168.895 174.528 169.447 175.149 169.447C175.609 169.447 176.069 169.286 176.299 169.056ZM184.819 169.309C185.762 169.309 186.912 168.872 187.556 168.251L189.695 170.436C188.637 171.54 186.59 172.276 184.842 172.276C181.3 172.276 178.54 169.677 178.54 166.02C178.54 162.432 181.185 159.833 184.658 159.833C188.384 159.833 190.569 162.662 190.569 167.147H181.99C182.381 168.435 183.416 169.309 184.819 169.309ZM184.796 162.8C183.531 162.8 182.473 163.536 182.036 164.732H187.349C187.027 163.559 186.153 162.8 184.796 162.8ZM196.199 162.317C196.981 160.776 198.453 159.833 200.27 159.833V162.662C197.786 162.662 196.199 164.088 196.199 166.319V172H192.841V160.109H196.199V162.317ZM214.887 169.056L215.692 171.241C215.002 171.862 213.921 172.276 212.955 172.276C210.862 172.276 209.39 170.781 209.39 168.642V162.823H207.757V160.109H209.39V156.843H212.61V160.109H215.186V162.823H212.61V168.113C212.61 168.895 213.116 169.447 213.737 169.447C214.197 169.447 214.657 169.286 214.887 169.056ZM224.672 159.833C227.248 159.833 229.088 161.742 229.088 164.433V172H225.845V165.146C225.845 163.674 224.925 162.662 223.591 162.662C222.188 162.662 221.107 163.674 221.107 164.962V172H217.749V155.923H221.107V161.558C221.843 160.523 223.154 159.833 224.672 159.833ZM237.535 169.309C238.478 169.309 239.628 168.872 240.272 168.251L242.411 170.436C241.353 171.54 239.306 172.276 237.558 172.276C234.016 172.276 231.256 169.677 231.256 166.02C231.256 162.432 233.901 159.833 237.374 159.833C241.1 159.833 243.285 162.662 243.285 167.147H234.706C235.097 168.435 236.132 169.309 237.535 169.309ZM237.512 162.8C236.247 162.8 235.189 163.536 234.752 164.732H240.065C239.743 163.559 238.869 162.8 237.512 162.8ZM260.859 155.923H264.217V172H260.859V170.298C259.916 171.54 258.536 172.276 256.857 172.276C253.683 172.276 251.383 169.7 251.383 166.043C251.383 162.409 253.683 159.833 256.857 159.833C258.536 159.833 259.916 160.569 260.859 161.811V155.923ZM257.823 169.447C259.594 169.447 260.859 168.044 260.859 166.043C260.859 164.065 259.594 162.662 257.823 162.662C255.96 162.662 254.649 164.065 254.649 166.043C254.649 168.044 255.96 169.447 257.823 169.447ZM272.776 169.309C273.719 169.309 274.869 168.872 275.513 168.251L277.652 170.436C276.594 171.54 274.547 172.276 272.799 172.276C269.257 172.276 266.497 169.677 266.497 166.02C266.497 162.432 269.142 159.833 272.615 159.833C276.341 159.833 278.526 162.662 278.526 167.147H269.947C270.338 168.435 271.373 169.309 272.776 169.309ZM272.753 162.8C271.488 162.8 270.43 163.536 269.993 164.732H275.306C274.984 163.559 274.11 162.8 272.753 162.8ZM287.054 169.056L287.859 171.241C287.169 171.862 286.088 172.276 285.122 172.276C283.029 172.276 281.557 170.781 281.557 168.642V162.823H279.924V160.109H281.557V156.843H284.777V160.109H287.353V162.823H284.777V168.113C284.777 168.895 285.283 169.447 285.904 169.447C286.364 169.447 286.824 169.286 287.054 169.056ZM295.275 159.833C298.38 159.833 300.496 161.788 300.496 164.893V172H297.253V170.804C296.402 171.77 295.045 172.276 293.757 172.276C291.227 172.276 289.272 170.758 289.272 168.481C289.272 166.135 291.457 164.525 294.217 164.525C295.183 164.525 296.241 164.732 297.253 165.123V164.893C297.253 163.628 296.471 162.524 294.516 162.524C293.412 162.524 292.377 162.892 291.434 163.375L290.307 161.144C291.986 160.293 293.619 159.833 295.275 159.833ZM294.516 169.953C295.804 169.953 297.023 169.355 297.253 168.251V167.147C296.494 166.871 295.62 166.71 294.7 166.71C293.481 166.71 292.515 167.423 292.515 168.389C292.515 169.355 293.366 169.953 294.516 169.953ZM305.005 158.476C303.97 158.476 303.165 157.648 303.165 156.636C303.165 155.693 303.97 154.842 305.005 154.842C305.994 154.842 306.799 155.693 306.799 156.636C306.799 157.648 305.994 158.476 305.005 158.476ZM303.303 172V160.109H306.661V172H303.303ZM309.593 172V155.923H312.951V172H309.593ZM320.344 172.276C318.435 172.276 316.411 171.632 314.985 170.482L316.434 168.159C317.492 168.918 318.826 169.493 320.413 169.493C321.31 169.493 321.954 169.125 321.954 168.596C321.954 167.86 321.08 167.63 319.861 167.308C317.423 166.71 315.537 166.043 315.514 163.697C315.491 161.443 317.354 159.833 320.16 159.833C321.862 159.833 323.541 160.431 324.852 161.305L323.495 163.697C322.414 163.03 321.172 162.639 320.16 162.639C319.332 162.639 318.757 162.938 318.757 163.352C318.757 163.996 319.24 164.18 320.85 164.617C322.897 165.146 325.174 165.836 325.174 168.435C325.174 170.781 323.265 172.276 320.344 172.276ZM336.565 176.14C335.576 176.14 334.38 175.841 333.575 175.404L334.288 173.104C334.863 173.426 335.461 173.633 335.852 173.633C336.496 173.633 337.002 173.426 337.255 172.989L337.669 172.115L332.724 160.109H336.197L339.325 168.458L342.292 160.109H345.719L340.843 172.598C339.946 174.921 338.428 176.14 336.565 176.14ZM352.9 172.276C349.358 172.276 346.391 169.424 346.391 166.043C346.391 162.662 349.358 159.833 352.9 159.833C356.419 159.833 359.363 162.662 359.363 166.043C359.363 169.424 356.419 172.276 352.9 172.276ZM352.9 169.447C354.671 169.447 356.166 167.883 356.166 166.043C356.166 164.203 354.671 162.662 352.9 162.662C351.106 162.662 349.611 164.203 349.611 166.043C349.611 167.883 351.106 169.447 352.9 169.447ZM369.524 160.109H372.882V172H369.524V170.505C368.811 171.586 367.477 172.276 365.936 172.276C363.36 172.276 361.52 170.367 361.52 167.676V160.109H364.763V166.963C364.763 168.435 365.683 169.447 367.017 169.447C368.42 169.447 369.501 168.435 369.501 167.147L369.524 167.216V160.109ZM173.46 197L169.412 185.109H172.701L174.955 192.515L177.301 185.109H180.084L182.43 192.515L184.684 185.109H187.973L183.925 197H180.912L178.704 189.525L176.473 197H173.46ZM195.122 184.833C198.227 184.833 200.343 186.788 200.343 189.893V197H197.1V195.804C196.249 196.77 194.892 197.276 193.604 197.276C191.074 197.276 189.119 195.758 189.119 193.481C189.119 191.135 191.304 189.525 194.064 189.525C195.03 189.525 196.088 189.732 197.1 190.123V189.893C197.1 188.628 196.318 187.524 194.363 187.524C193.259 187.524 192.224 187.892 191.281 188.375L190.154 186.144C191.833 185.293 193.466 184.833 195.122 184.833ZM194.363 194.953C195.651 194.953 196.87 194.355 197.1 193.251V192.147C196.341 191.871 195.467 191.71 194.547 191.71C193.328 191.71 192.362 192.423 192.362 193.389C192.362 194.355 193.213 194.953 194.363 194.953ZM210.05 184.833C212.626 184.833 214.466 186.742 214.466 189.433V197H211.223V190.146C211.223 188.674 210.303 187.662 208.969 187.662C207.566 187.662 206.485 188.674 206.485 189.962L206.462 189.893V197H203.104V185.109H206.462V186.604C207.175 185.523 208.509 184.833 210.05 184.833ZM223.557 194.056L224.362 196.241C223.672 196.862 222.591 197.276 221.625 197.276C219.532 197.276 218.06 195.781 218.06 193.642V187.823H216.427V185.109H218.06V181.843H221.28V185.109H223.856V187.823H221.28V193.113C221.28 193.895 221.786 194.447 222.407 194.447C222.867 194.447 223.327 194.286 223.557 194.056ZM239.145 194.056L239.95 196.241C239.26 196.862 238.179 197.276 237.213 197.276C235.12 197.276 233.648 195.781 233.648 193.642V187.823H232.015V185.109H233.648V181.843H236.868V185.109H239.444V187.823H236.868V193.113C236.868 193.895 237.374 194.447 237.995 194.447C238.455 194.447 238.915 194.286 239.145 194.056ZM247.895 197.276C244.353 197.276 241.386 194.424 241.386 191.043C241.386 187.662 244.353 184.833 247.895 184.833C251.414 184.833 254.358 187.662 254.358 191.043C254.358 194.424 251.414 197.276 247.895 197.276ZM247.895 194.447C249.666 194.447 251.161 192.883 251.161 191.043C251.161 189.203 249.666 187.662 247.895 187.662C246.101 187.662 244.606 189.203 244.606 191.043C244.606 192.883 246.101 194.447 247.895 194.447ZM270.391 184.833C273.565 184.833 275.865 187.409 275.865 191.043C275.865 194.7 273.565 197.276 270.391 197.276C268.735 197.276 267.355 196.563 266.412 195.321V200.956H263.054V185.109H266.412V186.765C267.355 185.546 268.735 184.833 270.391 184.833ZM269.425 194.447C271.288 194.447 272.599 193.044 272.599 191.043C272.599 189.065 271.288 187.662 269.425 187.662C267.792 187.662 266.596 188.858 266.412 190.583V191.503C266.596 193.251 267.792 194.447 269.425 194.447ZM281.596 187.317C282.378 185.776 283.85 184.833 285.667 184.833V187.662C283.183 187.662 281.596 189.088 281.596 191.319V197H278.238V185.109H281.596V187.317ZM293.176 197.276C289.634 197.276 286.667 194.424 286.667 191.043C286.667 187.662 289.634 184.833 293.176 184.833C296.695 184.833 299.639 187.662 299.639 191.043C299.639 194.424 296.695 197.276 293.176 197.276ZM293.176 194.447C294.947 194.447 296.442 192.883 296.442 191.043C296.442 189.203 294.947 187.662 293.176 187.662C291.382 187.662 289.887 189.203 289.887 191.043C289.887 192.883 291.382 194.447 293.176 194.447ZM308.167 194.056L308.972 196.241C308.282 196.862 307.201 197.276 306.235 197.276C304.142 197.276 302.67 195.781 302.67 193.642V187.823H301.037V185.109H302.67V181.843H305.89V185.109H308.466V187.823H305.89V193.113C305.89 193.895 306.396 194.447 307.017 194.447C307.477 194.447 307.937 194.286 308.167 194.056ZM316.688 194.309C317.631 194.309 318.781 193.872 319.425 193.251L321.564 195.436C320.506 196.54 318.459 197.276 316.711 197.276C313.169 197.276 310.409 194.677 310.409 191.02C310.409 187.432 313.054 184.833 316.527 184.833C320.253 184.833 322.438 187.662 322.438 192.147H313.859C314.25 193.435 315.285 194.309 316.688 194.309ZM316.665 187.8C315.4 187.8 314.342 188.536 313.905 189.732H319.218C318.896 188.559 318.022 187.8 316.665 187.8ZM330.528 197.276C327.009 197.276 324.042 194.424 324.042 191.043C324.042 187.662 327.032 184.833 330.551 184.833C332.483 184.833 334.07 185.615 335.22 186.857L332.989 188.766C332.391 188.099 331.448 187.662 330.528 187.662C328.78 187.662 327.308 189.203 327.308 191.02C327.308 192.883 328.78 194.447 330.551 194.447C331.471 194.447 332.437 193.987 333.058 193.297L335.289 195.183C334.116 196.471 332.506 197.276 330.528 197.276ZM343.566 194.056L344.371 196.241C343.681 196.862 342.6 197.276 341.634 197.276C339.541 197.276 338.069 195.781 338.069 193.642V187.823H336.436V185.109H338.069V181.843H341.289V185.109H343.865V187.823H341.289V193.113C341.289 193.895 341.795 194.447 342.416 194.447C342.876 194.447 343.336 194.286 343.566 194.056Z" fill="#0C0C0D"/>
</g>
</g>
</g>
<defs>
<filter id="filter0_d_1942_15476" x="36.1328" y="43.4219" width="440.734" height="316.572" filterUnits="userSpaceOnUse" color-interpolation-filters="sRGB">
<feFlood flood-opacity="0" result="BackgroundImageFix"/>
<feColorMatrix in="SourceAlpha" type="matrix" values="0 0 0 0 0 0 0 0 0 0 0 0 0 0 0 0 0 0 127 0" result="hardAlpha"/>
<feOffset dy="3.28906"/>
<feGaussianBlur stdDeviation="4.93359"/>
<feComposite in2="hardAlpha" operator="out"/>
<feColorMatrix type="matrix" values="0 0 0 0 0 0 0 0 0 0 0 0 0 0 0 0 0 0 0.08 0"/>
<feBlend mode="normal" in2="BackgroundImageFix" result="effect1_dropShadow_1942_15476"/>
<feBlend mode="normal" in="SourceGraphic" in2="effect1_dropShadow_1942_15476" result="shape"/>
</filter>
<clipPath id="clip0_1942_15476">
<rect x="46" y="50" width="421" height="296.838" rx="4.93359" fill="white"/>
</clipPath>
<clipPath id="clip1_1942_15476">
<rect width="421" height="291.082" fill="white" transform="translate(46 70.5566)"/>
</clipPath>
</defs>
</svg>
