<svg width="400" height="200" viewBox="0 0 400 200" fill="none" xmlns="http://www.w3.org/2000/svg">
<rect width="400" height="200" fill="#E7DFFF"/>
<path d="M117.58 87.6827L117.579 87.6819C117.537 87.6403 117.499 87.5886 117.474 87.5268C117.449 87.4685 117.437 87.4065 117.437 87.3446C117.437 87.2817 117.45 87.2195 117.474 87.1609L117.475 87.1598C117.499 87.1034 117.534 87.0513 117.578 87.0073C117.579 87.007 117.579 87.0068 117.579 87.0065L117.58 87.6827ZM117.58 87.6827C117.648 87.7488 117.733 87.7925 117.824 87.8102L117.837 87.8222L117.913 87.8195C118.036 87.8151 118.152 87.7637 118.237 87.6791L118.238 87.6779C122.148 83.742 126.67 81.4732 131.485 79.0575L131.486 79.0574C131.674 78.9628 131.862 78.8681 132.051 78.7731C132.472 78.5618 132.895 78.349 133.321 78.1323C134.984 77.2896 137.56 75.983 139.78 74.2165C141.996 72.453 143.892 70.2049 144.139 67.4703L143.962 67.4544L144.139 67.4703C144.279 65.9219 143.381 64.6449 142.215 63.624C141.049 62.6034 139.578 61.8066 138.492 61.2183L138.486 61.2146L138.485 61.2143L138.317 61.1243L138.317 61.124L138.308 61.1194C136.428 60.254 134.221 59.1461 132.362 57.8078C130.498 56.4659 129.014 54.9129 128.538 53.1672L128.538 53.1671C128.131 51.677 128.483 50.1058 129.626 48.4836L129.627 48.4828M117.58 87.6827L129.627 48.4828M219.652 35.6023L219.652 35.6024C219.715 35.6089 219.775 35.6272 219.83 35.6566M219.652 35.6023L219.572 36.3778L219.553 36.554C219.553 36.554 219.553 36.554 219.554 36.554C219.618 36.5606 219.681 36.5537 219.739 36.537C219.802 36.519 219.857 36.489 219.905 36.451L219.907 36.4498C219.956 36.4102 219.997 36.3611 220.027 36.3063C220.057 36.2511 220.076 36.1904 220.082 36.1278C220.089 36.0633 220.082 36.0004 220.065 35.9419C220.047 35.8804 220.016 35.8237 219.976 35.775C219.937 35.7276 219.888 35.6867 219.83 35.6566M219.652 35.6023C201.194 33.7421 181.306 33.6559 165.08 35.3405C158.342 36.0389 150.665 37.2164 143.986 39.2001C137.319 41.1806 131.605 43.9767 128.843 47.9405C127.55 49.7751 127.125 51.6222 127.615 53.4157C128.151 55.3777 129.688 57.0374 131.592 58.4407C133.498 59.8451 135.794 61.0095 137.887 61.9738L138.031 62.0505L138.032 62.0511L219.652 35.6023ZM219.83 35.6566C219.831 35.6567 219.831 35.6568 219.831 35.6569L219.748 35.8132L219.83 35.6562C219.83 35.6563 219.83 35.6564 219.83 35.6566ZM129.627 48.4828C131.699 45.5084 135.792 42.9544 141.781 40.8956M129.627 48.4828L141.781 40.8956M141.781 40.8956C147.765 38.8387 155.616 37.2847 165.171 36.2921L141.781 40.8956ZM165.098 35.5167C181.311 33.8335 201.187 33.9194 219.634 35.7786L165.098 35.5167Z" fill="#9059FF" stroke="#9059FF" stroke-width="0.354286"/>
<path d="M143.278 175.118L143.277 175.178C139.766 175.147 136.281 174.582 132.943 173.504C128.17 171.973 124.191 169.544 121.764 166.661C118.987 163.366 118.187 159.447 119.435 155.359C121.535 147.161 124.755 141.914 129.885 138.391C134.557 135.175 140.469 133.649 148.238 131.838C152.078 130.783 155.021 129.315 156.946 127.566C158.869 125.819 159.772 123.799 159.559 121.621L159.559 121.62C159.295 118.897 157.351 116.268 154.38 114.229C151.413 112.192 147.445 110.761 143.187 110.425L143.185 110.424L143.185 110.424C139.905 110.114 137.181 109.791 134.614 109.41C134.487 109.392 134.373 109.325 134.297 109.223C134.221 109.122 134.187 108.993 134.206 108.866C134.206 108.866 134.206 108.866 134.206 108.866L134.381 108.892L143.278 175.118ZM143.278 175.118L143.277 175.178C144.177 175.18 145.076 175.134 145.97 175.038C154.59 175.23 161.956 172.722 169.052 170.306L169.058 170.304C174.635 168.405 180.382 166.449 186.703 165.8L186.704 165.8C187.229 165.744 187.759 165.744 188.284 165.8C190.714 166.081 193.207 166.559 195.837 167.078L195.837 167.078L195.876 167.085C203.715 168.621 211.917 170.228 218.854 165.909L218.854 165.908C219.143 165.726 219.419 165.527 219.681 165.31C223.814 161.989 227.536 157.577 231.46 152.925L231.474 152.908L231.474 152.908C234.754 149.012 238.081 145.067 241.694 141.751C245.306 138.436 249.196 135.759 253.598 134.394L253.598 134.394L253.604 134.392L254.47 134.088L254.411 133.921L254.47 134.088L254.479 134.085C260.466 131.985 266.681 129.805 272.032 126.218C278.237 122.638 282.579 116.112 283.371 109.18L283.371 109.178C283.377 109.116 283.372 109.054 283.354 108.994C283.354 108.993 283.354 108.993 283.354 108.993L283.184 109.043L143.278 175.118ZM282.945 108.65C282.945 108.651 282.946 108.651 282.946 108.651L282.925 108.827L282.943 108.65C282.944 108.65 282.944 108.65 282.945 108.65ZM282.945 108.65C282.881 108.643 282.819 108.649 282.759 108.666M282.945 108.65L282.412 109.072L282.588 109.092M282.759 108.666C282.759 108.665 282.76 108.665 282.76 108.665L282.807 108.836L282.758 108.666C282.758 108.666 282.758 108.666 282.759 108.666ZM282.759 108.666C282.696 108.683 282.64 108.713 282.592 108.751M282.592 108.751C282.592 108.75 282.592 108.75 282.593 108.75L282.701 108.89L282.591 108.751C282.591 108.751 282.591 108.751 282.592 108.751ZM282.592 108.751C282.541 108.789 282.5 108.838 282.469 108.893C282.469 108.894 282.469 108.894 282.469 108.895L282.624 108.98C282.604 109.014 282.592 109.052 282.588 109.092M282.588 109.092C281.823 115.789 277.621 122.098 271.621 125.555L160.516 121.522C160.757 123.993 159.759 126.255 157.695 128.168C155.636 130.078 152.512 131.647 148.479 132.756L148.472 132.757L148.472 132.757C140.654 134.58 134.695 136.152 130.155 139.336C125.627 142.511 122.491 147.303 120.364 155.61L120.362 155.619L120.362 155.618C119.183 159.458 119.903 162.956 122.505 166.045L122.37 166.159L122.505 166.045C125.02 169.031 129.031 171.245 133.342 172.611C137.651 173.977 142.237 174.488 145.882 174.088L145.892 174.087H145.901H145.942H145.946C154.385 174.285 161.624 171.822 168.676 169.422L168.731 169.404L168.75 169.397C174.349 167.492 180.161 165.514 186.59 164.853C187.184 164.79 187.784 164.79 188.379 164.853L188.38 164.853C190.842 165.128 193.345 165.619 195.985 166.136L196.013 166.141C203.781 167.664 211.72 169.214 218.33 165.1L218.424 165.25L218.33 165.1C218.588 164.94 218.834 164.763 219.068 164.572L219.069 164.571C223.13 161.298 226.817 156.93 230.734 152.286L230.751 152.265C237.347 144.444 244.213 136.303 253.293 133.485C253.294 133.484 253.295 133.484 253.296 133.484L254.146 133.186L254.147 133.186L254.173 133.177C260.13 131.088 266.274 128.933 271.504 125.419L271.506 125.417L271.525 125.406L271.532 125.401L271.532 125.401C277.485 121.972 281.653 115.712 282.411 109.073L282.588 109.092ZM155.125 113.565C151.891 111.277 147.679 109.816 143.271 109.468L160.516 121.522C160.236 118.643 158.305 115.82 155.125 113.566L155.125 113.565Z" fill="#9059FF" stroke="#9059FF" stroke-width="0.354286"/>
<path d="M266.035 89.0899L266.191 89.0924V89.0573C266.219 89.0461 266.246 89.0323 266.272 89.016M266.272 89.016C266.272 89.0162 266.271 89.0164 266.271 89.0165L266.178 88.866L266.273 89.0156C266.272 89.0157 266.272 89.0159 266.272 89.016ZM266.272 89.016C266.349 88.9677 266.412 88.8975 266.451 88.8141C266.451 88.8138 266.451 88.8135 266.451 88.8132L266.29 88.7392C266.315 88.6866 266.323 88.6291 266.315 88.5716M266.315 88.5716L266.49 88.5478C266.49 88.5475 266.49 88.5471 266.49 88.5468C266.49 88.5465 266.49 88.5462 266.49 88.5459L266.315 88.5716ZM266.315 88.5716C266.307 88.5148 266.282 88.4615 266.244 88.4185L266.378 88.3022C264.685 86.3571 263.593 83.9753 263.229 81.4373C262.864 78.9 263.244 76.3122 264.323 73.9812C264.619 73.3487 264.93 72.7138 265.236 72.0886C265.343 71.8704 265.449 71.6535 265.554 71.4383L265.568 71.4094C267.643 67.1904 269.632 63.1462 269.196 58.879L269.196 58.879C268.7 54.0327 265.157 49.8013 258.153 45.5517L258.153 45.5517L258.152 45.551C258.099 45.5195 258.04 45.4978 257.978 45.4881C257.914 45.478 257.85 45.4816 257.791 45.4953L257.791 45.4953L257.788 45.4961C257.729 45.511 257.672 45.5366 257.622 45.5725C257.569 45.6098 257.526 45.6571 257.494 45.7082C257.46 45.762 257.437 45.822 257.427 45.8839C257.417 45.9477 257.421 46.0116 257.435 46.0707C257.449 46.1319 257.476 46.1897 257.514 46.2406C257.551 46.2914 257.598 46.334 257.652 46.3666M257.652 46.3666C257.652 46.3666 257.652 46.3666 257.652 46.3665L257.744 46.2151L257.652 46.3667C257.652 46.3667 257.652 46.3666 257.652 46.3666Z" fill="#9059FF" stroke="#9059FF" stroke-width="0.354286"/>
<path d="M139.964 121.449L141.851 120.615C141.928 120.581 142.012 120.568 142.095 120.579C142.178 120.59 142.256 120.624 142.321 120.677C142.385 120.73 142.434 120.799 142.461 120.877C142.487 120.955 142.491 121.039 142.472 121.12L141.995 123.116C141.979 123.186 141.98 123.259 141.999 123.329C142.017 123.398 142.052 123.462 142.1 123.516L143.488 125.027C143.544 125.089 143.582 125.164 143.597 125.245C143.612 125.327 143.603 125.411 143.572 125.488C143.541 125.565 143.489 125.631 143.422 125.68C143.355 125.73 143.275 125.759 143.191 125.766L141.132 125.934C141.059 125.939 140.989 125.963 140.927 126.001C140.865 126.04 140.814 126.093 140.778 126.156L139.75 127.924C139.709 127.997 139.648 128.058 139.573 128.098C139.499 128.138 139.415 128.157 139.33 128.151C139.245 128.146 139.163 128.117 139.095 128.068C139.026 128.02 138.972 127.952 138.941 127.874L138.141 125.991C138.113 125.926 138.07 125.867 138.014 125.821C137.958 125.776 137.891 125.744 137.82 125.73L135.797 125.31C135.715 125.294 135.638 125.255 135.578 125.198C135.517 125.141 135.473 125.068 135.452 124.988C135.431 124.907 135.433 124.823 135.458 124.744C135.484 124.664 135.531 124.594 135.595 124.54L137.162 123.21C137.218 123.163 137.261 123.104 137.287 123.037C137.314 122.971 137.324 122.898 137.316 122.826L137.094 120.798C137.085 120.716 137.099 120.633 137.136 120.559C137.172 120.484 137.229 120.421 137.3 120.377C137.371 120.333 137.452 120.309 137.536 120.308C137.619 120.308 137.701 120.33 137.773 120.373L139.539 121.433C139.603 121.47 139.675 121.492 139.749 121.494C139.824 121.497 139.897 121.481 139.964 121.449Z" fill="#9059FF"/>
<path d="M163.005 42.2959L165.554 41.7486C165.657 41.7258 165.765 41.732 165.866 41.7673C165.965 41.802 166.054 41.8636 166.12 41.9453C166.186 42.0271 166.227 42.1254 166.24 42.2294C166.252 42.3333 166.235 42.4385 166.189 42.5334L165.077 44.8637C165.038 44.9461 165.019 45.0362 165.024 45.1269C165.028 45.2177 165.054 45.3063 165.101 45.3846L166.416 47.6109C166.469 47.701 166.496 47.8042 166.493 47.9081C166.49 48.012 166.457 48.1138 166.399 48.2011C166.341 48.2884 166.259 48.3577 166.163 48.4006C166.067 48.4443 165.96 48.4602 165.855 48.447L163.266 48.1235C163.175 48.1125 163.082 48.1235 162.995 48.1554C162.909 48.1873 162.832 48.2392 162.77 48.3071L161.032 50.23C160.962 50.3076 160.871 50.3651 160.77 50.3942C160.668 50.4233 160.561 50.4247 160.459 50.397C160.357 50.3693 160.265 50.3139 160.194 50.237C160.122 50.1601 160.074 50.0652 160.054 49.9627L159.565 47.4308C159.546 47.3429 159.506 47.2611 159.449 47.1912C159.391 47.1219 159.318 47.0665 159.235 47.0311L156.846 45.9928C156.75 45.9505 156.668 45.8827 156.609 45.7968C156.55 45.7109 156.516 45.6104 156.511 45.5072C156.506 45.404 156.531 45.3008 156.583 45.21C156.634 45.1193 156.71 45.0445 156.801 44.9939L159.089 43.754C159.17 43.7097 159.238 43.6473 159.288 43.5718C159.339 43.4963 159.37 43.409 159.38 43.319L159.645 40.7511C159.656 40.6472 159.696 40.5489 159.761 40.4664C159.825 40.384 159.911 40.321 160.01 40.2843C160.109 40.2475 160.217 40.2392 160.32 40.2593C160.423 40.2801 160.519 40.3286 160.596 40.3999L162.5 42.1629C162.567 42.2231 162.649 42.2661 162.736 42.2889C162.824 42.3118 162.917 42.3139 163.005 42.2945V42.2959Z" fill="#9059FF"/>
<path d="M238.17 49.4994C235.716 49.4994 233.316 48.7811 231.275 47.4352C229.234 46.0893 227.643 44.176 226.704 41.9379C225.765 39.6998 225.519 37.2366 225.998 34.8606C226.477 32.4847 227.659 30.302 229.394 28.5889C231.13 26.8759 233.342 25.7094 235.749 25.2362C238.157 24.7638 240.652 25.0063 242.92 25.9331C245.188 26.8599 247.126 28.4303 248.49 30.4446C249.853 32.459 250.581 34.8274 250.581 37.2504C250.578 40.4985 249.269 43.6115 246.942 45.9085C244.616 48.2048 241.461 49.4967 238.17 49.5001V49.4994ZM238.17 25.5992C235.836 25.5992 233.554 26.2829 231.612 27.563C229.671 28.8431 228.158 30.6628 227.264 32.7915C226.371 34.9202 226.137 37.2629 226.593 39.5232C227.048 41.7835 228.173 43.8588 229.823 45.4887C231.475 47.1179 233.578 48.2276 235.867 48.6772C238.157 49.1268 240.531 48.8961 242.688 48.0143C244.844 47.1325 246.688 45.639 247.985 43.723C249.282 41.807 249.975 39.5543 249.975 37.2504C249.971 34.1617 248.727 31.1997 246.513 29.0156C244.301 26.8315 241.3 25.6027 238.17 25.5999V25.5992Z" fill="#592ACB"/>
<path d="M228.191 35.4407H226.388C226.308 35.4407 226.23 35.4088 226.174 35.3527C226.117 35.2966 226.085 35.2204 226.085 35.1408C226.085 35.0611 226.117 34.9849 226.174 34.9288C226.23 34.8727 226.308 34.8408 226.388 34.8408H228.191C228.271 34.8408 228.348 34.8727 228.405 34.9288C228.462 34.9849 228.494 35.0611 228.494 35.1408C228.494 35.2204 228.462 35.2966 228.405 35.3527C228.348 35.4088 228.271 35.4407 228.191 35.4407Z" fill="#592ACB"/>
<path d="M231.405 29.5031H229.41C229.33 29.5031 229.253 29.4712 229.196 29.4151C229.139 29.359 229.107 29.2828 229.107 29.2031C229.107 29.1235 229.139 29.0473 229.196 28.9912C229.253 28.9351 229.33 28.9032 229.41 28.9032H231.405C231.485 28.9032 231.562 28.9344 231.619 28.9912C231.677 29.0473 231.708 29.1235 231.708 29.2031C231.708 29.2828 231.677 29.359 231.619 29.4151C231.562 29.4712 231.485 29.5031 231.405 29.5031Z" fill="#592ACB"/>
<path d="M228.258 40.4446H226.755C226.675 40.4446 226.598 40.4127 226.541 40.3566C226.484 40.3005 226.452 40.2243 226.452 40.1447C226.452 40.065 226.484 39.9888 226.541 39.9327C226.598 39.8766 226.675 39.8447 226.755 39.8447H228.258C228.339 39.8447 228.416 39.8766 228.473 39.9327C228.53 39.9888 228.562 40.065 228.562 40.1447C228.562 40.2243 228.53 40.3005 228.473 40.3566C228.416 40.4127 228.339 40.4446 228.258 40.4446Z" fill="#592ACB"/>
<path d="M230.854 45.2786H229.41C229.33 45.2786 229.253 45.2467 229.196 45.1906C229.138 45.1345 229.107 45.0583 229.107 44.9787C229.107 44.899 229.138 44.8228 229.196 44.7667C229.253 44.7106 229.33 44.6787 229.41 44.6787H230.854C230.935 44.6787 231.012 44.7106 231.069 44.7667C231.126 44.8228 231.158 44.899 231.158 44.9787C231.158 45.0583 231.126 45.1345 231.069 45.1906C231.012 45.2467 230.935 45.2786 230.854 45.2786Z" fill="#F9F9FA"/>
<path d="M240.363 49.1999C247.05 49.1999 252.471 43.8495 252.471 37.2494C252.471 30.6494 247.05 25.299 240.363 25.299C233.676 25.299 228.255 30.6494 228.255 37.2494C228.255 43.8495 233.676 49.1999 240.363 49.1999Z" fill="#FCD010"/>
<path d="M240.365 49.4994C237.91 49.4994 235.511 48.7811 233.47 47.4352C231.429 46.0893 229.839 44.176 228.899 41.9379C227.96 39.6998 227.713 37.2366 228.193 34.8606C228.671 32.4847 229.853 30.302 231.59 28.5889C233.325 26.8759 235.537 25.7094 237.944 25.2362C240.351 24.7638 242.847 25.0063 245.115 25.9331C247.383 26.8599 249.321 28.4303 250.685 30.4446C252.049 32.459 252.776 34.8274 252.776 37.2504C252.773 40.4985 251.464 43.6115 249.137 45.9085C246.81 48.2048 243.656 49.4967 240.365 49.5001V49.4994ZM240.365 25.5992C238.031 25.5992 235.749 26.2829 233.807 27.563C231.866 28.8431 230.353 30.6628 229.46 32.7915C228.566 34.9202 228.332 37.2629 228.788 39.5232C229.243 41.7835 230.368 43.8588 232.018 45.4887C233.669 47.1179 235.773 48.2276 238.063 48.6772C240.352 49.1268 242.726 48.8961 244.883 48.0143C247.04 47.1325 248.883 45.639 250.18 43.723C251.477 41.807 252.169 39.5543 252.169 37.2504C252.166 34.1617 250.921 31.1997 248.709 29.0156C246.496 26.8315 243.495 25.6027 240.365 25.5999V25.5992Z" fill="#FCD010"/>
<path d="M240.365 49.4997C237.074 49.4997 233.917 48.2092 231.59 45.9122C229.262 43.6152 227.954 40.4994 227.954 37.25C227.954 34.0005 229.262 30.8855 231.59 28.5885C233.917 26.2915 237.074 25.001 240.365 25.001C240.446 25.001 240.523 25.0321 240.58 25.0889C240.637 25.1451 240.668 25.2213 240.668 25.3009C240.668 25.3806 240.637 25.4568 240.58 25.5129C240.523 25.569 240.446 25.6009 240.365 25.6009C237.832 25.6029 235.367 26.4099 233.334 27.902C231.301 29.3948 229.81 31.493 229.08 33.8876C228.35 36.2823 228.421 38.8446 229.281 41.1963C230.142 43.548 231.747 45.5638 233.859 46.945C235.97 48.3263 238.477 48.9996 241.006 48.8659C243.536 48.7315 245.955 47.797 247.904 46.2011C249.854 44.6044 251.231 42.4307 251.832 40.0014C252.432 37.5721 252.225 35.0167 251.239 32.7135C250.854 31.8809 250.393 31.085 249.861 30.3355C249.82 30.269 249.808 30.1893 249.825 30.1138C249.842 30.0383 249.889 29.9718 249.955 29.9295C250.021 29.8873 250.101 29.8713 250.178 29.8859C250.255 29.9004 250.323 29.9441 250.369 30.0078C250.921 30.7864 251.399 31.6142 251.797 32.4794C252.594 34.342 252.911 36.3703 252.721 38.3832C252.531 40.3962 251.839 42.3316 250.707 44.017C249.575 45.7023 248.039 47.0849 246.235 48.0416C244.43 48.9982 242.414 49.4997 240.365 49.5011V49.4997Z" fill="#592ACB"/>
<path d="M231.039 38.8753C230.965 38.8753 230.895 38.8483 230.84 38.8005C230.785 38.7527 230.749 38.6869 230.739 38.6155C230.502 36.9011 230.718 35.1548 231.365 33.5464C232.012 31.9379 233.069 30.522 234.434 29.4352C235.798 28.3483 237.424 27.6279 239.154 27.3432C240.883 27.0585 242.658 27.2199 244.306 27.8108C244.376 27.8413 244.432 27.8967 244.462 27.966C244.492 28.0352 244.495 28.1135 244.47 28.1849C244.444 28.2562 244.392 28.3151 244.324 28.3504C244.256 28.3858 244.177 28.3934 244.104 28.374C242.658 27.8551 241.107 27.6875 239.582 27.8863C238.057 28.0844 236.602 28.6427 235.342 29.5135C234.081 30.3842 233.053 31.5417 232.342 32.8883C231.631 34.2349 231.26 35.7304 231.259 37.2488C231.259 37.679 231.288 38.1085 231.346 38.5345C231.357 38.6128 231.335 38.6924 231.287 38.7555C231.238 38.8185 231.167 38.8608 231.087 38.8718L231.039 38.8739V38.8753Z" fill="#592ACB"/>
<path d="M240.82 47.2872C240.74 47.2872 240.662 47.2553 240.605 47.1992C240.549 47.1431 240.516 47.0669 240.516 46.9872C240.516 46.9076 240.549 46.8314 240.605 46.7753C240.662 46.7192 240.74 46.6873 240.82 46.6873C243.357 46.6845 245.788 45.6891 247.582 43.9186C249.375 42.148 250.384 39.7478 250.387 37.2444C250.394 35.1393 249.681 33.0938 248.363 31.4382C248.314 31.3752 248.292 31.2962 248.302 31.2172C248.312 31.1383 248.354 31.0669 248.417 31.0177C248.481 30.9692 248.561 30.9471 248.641 30.9575C248.721 30.9672 248.794 31.008 248.843 31.0711C250.243 32.8319 251 35.007 250.992 37.2451C250.988 39.9072 249.916 42.4591 248.009 44.3411C246.102 46.2232 243.517 47.2823 240.82 47.2865V47.2872Z" fill="#592ACB"/>
<path d="M252.097 33.2045C258.905 34.2546 221.181 47.2615 226.535 41.5148L225.957 39.2663C219.667 42.2775 219.079 43.7592 219.507 44.8571C219.872 45.7874 220.96 46.1892 223.066 46.0853C224.437 45.9931 225.8 45.8089 227.146 45.5339C230.452 44.8883 233.717 44.0543 236.925 43.036L237.448 42.8746C238.61 42.5172 239.796 42.1341 240.994 41.7303C242.485 41.2274 243.943 40.7078 245.343 40.1849C248.371 39.0738 251.338 37.8075 254.232 36.3909C258.614 34.1944 260.175 32.7272 259.625 31.319C259.075 29.9114 256.006 30.1566 250.993 31.1292L252.097 33.2038V33.2045Z" fill="#E7DFFF"/>
<path d="M222.472 46.3961C220.65 46.3961 219.603 45.9327 219.222 44.9608C218.743 43.7326 219.21 42.1658 225.824 38.9967C225.859 38.9773 225.899 38.9655 225.94 38.962C225.981 38.9586 226.022 38.9627 226.061 38.9752C226.1 38.9877 226.137 39.0077 226.167 39.0348C226.198 39.0618 226.224 39.0936 226.241 39.1303C226.259 39.1671 226.269 39.2065 226.271 39.2467C226.273 39.2876 226.266 39.3278 226.252 39.3659C226.238 39.404 226.215 39.4386 226.187 39.4677C226.158 39.4968 226.124 39.5203 226.087 39.5363C219.864 42.5156 219.453 43.885 219.789 44.7454C219.991 45.2483 220.537 45.9056 223.05 45.7837C224.409 45.6909 225.761 45.5087 227.096 45.2365C230.392 44.5923 233.647 43.7624 236.846 42.7504L237.371 42.589C238.532 42.2295 239.723 41.8464 240.907 41.4467C242.382 40.9494 243.842 40.4305 245.248 39.9055C248.266 38.7979 251.223 37.5364 254.107 36.1254C258.26 34.0445 259.828 32.6411 259.355 31.4289C258.841 30.1128 255.066 30.6503 251.06 31.4289C251.021 31.4372 250.981 31.4372 250.942 31.4296C250.903 31.422 250.865 31.4067 250.832 31.3853C250.799 31.3631 250.771 31.3347 250.748 31.3021C250.726 31.2696 250.712 31.2322 250.704 31.1934C250.688 31.1158 250.705 31.0348 250.75 30.969C250.794 30.9032 250.864 30.8574 250.943 30.8422C256.14 29.8336 259.275 29.5725 259.917 31.2176C260.546 32.8247 258.992 34.3528 254.378 36.6643C251.474 38.0844 248.497 39.3541 245.458 40.468C244.042 40.9972 242.58 41.5181 241.099 42.0175C239.91 42.4165 238.714 42.8044 237.547 43.1653L237.025 43.3253C233.803 44.3443 230.524 45.1797 227.205 45.8274C225.845 46.1065 224.468 46.2929 223.082 46.3843C222.868 46.3905 222.665 46.3961 222.472 46.3961Z" fill="#592ACB"/>
<path d="M251.503 35.3435C251.437 35.3435 251.373 35.322 251.321 35.2825C251.269 35.243 251.231 35.1883 251.213 35.126C251.195 35.0636 251.198 34.9971 251.222 34.9369C251.245 34.8766 251.288 34.8253 251.343 34.7907C252.622 34.0121 252.618 33.6983 252.618 33.6962C252.618 33.6962 252.541 33.5764 252.049 33.4967C251.969 33.485 251.897 33.4413 251.848 33.3769C251.8 33.3125 251.78 33.2307 251.792 33.1518C251.805 33.0721 251.848 33.0008 251.914 32.9537C251.98 32.9059 252.062 32.8865 252.142 32.8983C252.381 32.9364 253.105 33.0479 253.213 33.5688C253.31 34.0461 252.832 34.567 251.663 35.2901C251.616 35.3227 251.561 35.3414 251.503 35.3442V35.3435Z" fill="#F9F9FA"/>
<path d="M227.381 43.2616C226.538 43.2616 226.016 43.1036 225.815 42.7884C225.461 42.2274 226.104 41.5388 226.314 41.3109C226.339 41.277 226.372 41.2479 226.408 41.2264C226.445 41.2049 226.486 41.1918 226.529 41.1876C226.571 41.1828 226.614 41.1876 226.655 41.2008C226.696 41.2139 226.733 41.2354 226.765 41.2638C226.796 41.2922 226.821 41.3268 226.839 41.3656C226.856 41.4044 226.865 41.446 226.864 41.4882C226.864 41.5305 226.855 41.5721 226.837 41.6109C226.819 41.649 226.793 41.6836 226.762 41.7113C226.332 42.1706 226.292 42.4061 226.331 42.4663C226.545 42.8078 228.716 42.9415 235.382 41.0006C235.42 40.986 235.462 40.9798 235.504 40.9826C235.545 40.9847 235.586 40.995 235.623 41.0137C235.66 41.0324 235.692 41.0581 235.72 41.0893C235.747 41.1204 235.766 41.1571 235.778 41.1966C235.789 41.2361 235.793 41.277 235.788 41.3178C235.783 41.3587 235.77 41.3982 235.749 41.4335C235.728 41.4689 235.699 41.4993 235.666 41.5236C235.632 41.5478 235.594 41.5651 235.554 41.5741C231.705 42.6963 228.972 43.2636 227.381 43.2636V43.2616Z" fill="#592ACB"/>
<path d="M276.695 106.659C274.382 106.654 272.134 105.912 270.283 104.542C268.433 103.173 267.081 101.25 266.429 99.0593C265.778 96.869 265.861 94.5297 266.667 92.39C267.472 90.2509 268.957 88.4256 270.899 87.1871C272.842 85.9486 275.138 85.3632 277.446 85.5184C279.753 85.6735 281.947 86.5609 283.702 88.0481C285.457 89.5354 286.677 91.5428 287.181 93.7705C287.685 95.9982 287.446 98.3271 286.499 100.409C285.657 102.279 284.282 103.866 282.54 104.976C280.799 106.085 278.768 106.671 276.695 106.659ZM276.726 86.0788C274.227 86.076 271.816 86.9862 269.957 88.6341C268.097 90.2814 266.921 92.55 266.656 95.0021C266.391 97.4543 267.055 99.9168 268.519 101.915C269.984 103.913 272.146 105.305 274.589 105.823C277.032 106.341 279.583 105.949 281.749 104.721C283.917 103.493 285.546 101.517 286.325 99.1736C287.104 96.8302 286.976 94.2852 285.967 92.0298C284.958 89.7736 283.138 87.9664 280.859 86.9557C279.558 86.3801 278.151 86.0809 276.726 86.0788Z" fill="#592ACB"/>
<path d="M269.625 91.2363C269.581 91.2384 269.537 91.2308 269.496 91.2142L268.08 90.5873C268.043 90.5713 268.01 90.5478 267.983 90.5194C267.956 90.491 267.935 90.4571 267.921 90.4203C267.906 90.3836 267.899 90.3441 267.901 90.3047C267.902 90.2659 267.911 90.2271 267.927 90.1911C267.944 90.155 267.967 90.1225 267.996 90.0955C268.025 90.0684 268.059 90.0477 268.096 90.0331C268.134 90.0193 268.173 90.013 268.213 90.0137C268.253 90.0151 268.293 90.0241 268.329 90.04L269.745 90.669C269.807 90.6981 269.858 90.7466 269.888 90.8076C269.919 90.8685 269.928 90.9378 269.913 91.0043C269.899 91.0708 269.862 91.1304 269.808 91.1733C269.755 91.2163 269.688 91.2398 269.62 91.2405L269.625 91.2363Z" fill="#592ACB"/>
<path d="M274.267 87.6926C274.225 87.6926 274.183 87.6843 274.144 87.667L272.576 86.9701C272.537 86.9556 272.502 86.9334 272.473 86.905C272.442 86.8766 272.419 86.8426 272.403 86.8045C272.388 86.7671 272.379 86.7263 272.38 86.6854C272.381 86.6445 272.39 86.6044 272.407 86.567C272.424 86.5295 272.449 86.4963 272.479 86.4686C272.51 86.4409 272.546 86.4201 272.585 86.4069C272.624 86.3931 272.666 86.3882 272.707 86.391C272.748 86.3945 272.788 86.4056 272.825 86.4249L274.393 87.1197C274.457 87.1474 274.509 87.1966 274.54 87.2576C274.572 87.3192 274.581 87.3892 274.566 87.4564C274.551 87.5236 274.514 87.5838 274.459 87.6268C274.405 87.6697 274.337 87.6933 274.267 87.6926Z" fill="#592ACB"/>
<path d="M267.887 95.192C267.844 95.192 267.803 95.183 267.763 95.1657L266.584 94.6427C266.547 94.6275 266.513 94.6046 266.484 94.5762C266.456 94.5478 266.434 94.5139 266.419 94.4772C266.404 94.4398 266.397 94.4003 266.398 94.3608C266.399 94.3206 266.408 94.2811 266.424 94.2451C266.441 94.2084 266.464 94.1758 266.494 94.1481C266.523 94.1211 266.558 94.0996 266.596 94.0858C266.634 94.0719 266.674 94.0657 266.714 94.0678C266.755 94.0692 266.794 94.0789 266.831 94.0955L268.012 94.6192C268.076 94.6469 268.127 94.6954 268.159 94.757C268.191 94.8187 268.2 94.8886 268.185 94.9558C268.17 95.023 268.133 95.0833 268.078 95.1262C268.024 95.1692 267.956 95.1927 267.887 95.192Z" fill="#592ACB"/>
<path d="M268.2 99.8917C268.157 99.8917 268.115 99.8833 268.077 99.866L266.94 99.3624C266.867 99.3299 266.809 99.2703 266.78 99.1955C266.752 99.1214 266.754 99.0389 266.787 98.9662C266.82 98.8942 266.881 98.8374 266.957 98.809C267.032 98.7806 267.115 98.7833 267.189 98.8159L268.324 99.3188C268.387 99.3465 268.439 99.3957 268.47 99.4566C268.502 99.5176 268.511 99.5876 268.497 99.6548C268.482 99.7219 268.445 99.7822 268.391 99.8252C268.337 99.8681 268.27 99.8917 268.2 99.8917Z" fill="#F9F9FA"/>
<path d="M278.433 107.125C284.191 107.125 288.86 102.517 288.86 96.8335C288.86 91.1499 284.191 86.5427 278.433 86.5427C272.674 86.5427 268.007 91.1499 268.007 96.8335C268.007 102.517 272.674 107.125 278.433 107.125Z" fill="#FCD010"/>
<path d="M278.429 107.43C275.743 107.435 273.153 106.45 271.166 104.667C269.179 102.884 267.939 100.432 267.69 97.7931C267.442 95.1539 268.202 92.5181 269.821 90.404C271.441 88.2899 273.803 86.8498 276.444 86.367C279.084 85.8835 281.812 86.3926 284.092 87.7932C286.372 89.1946 288.038 91.3863 288.764 93.9382C289.49 96.4901 289.223 99.2172 288.016 101.585C286.808 103.953 284.748 105.788 282.238 106.733C281.022 107.192 279.731 107.428 278.429 107.43ZM278.447 86.8435C275.948 86.8408 273.537 87.751 271.677 89.3989C269.818 91.0462 268.643 93.3147 268.377 95.7669C268.112 98.2191 268.776 100.682 270.241 102.679C271.705 104.678 273.867 106.069 276.31 106.588C278.753 107.106 281.304 106.714 283.471 105.485C285.638 104.258 287.268 102.282 288.047 99.9383C288.825 97.5949 288.697 95.05 287.688 92.7945C286.679 90.5384 284.859 88.7312 282.58 87.7205C281.28 87.1449 279.872 86.8456 278.447 86.8435Z" fill="#FCD010"/>
<path d="M278.431 107.429C276.836 107.421 275.263 107.063 273.826 106.38C272.39 105.697 271.126 104.706 270.126 103.48C269.127 102.254 268.417 100.823 268.048 99.2911C267.68 97.7595 267.662 96.167 267.996 94.6278C268.331 93.0886 269.009 91.643 269.981 90.3954C270.953 89.1472 272.195 88.1296 273.616 87.4154C275.037 86.7012 276.601 86.3092 278.196 86.2676C279.79 86.226 281.373 86.5357 282.831 87.1744C282.868 87.1903 282.902 87.2131 282.929 87.2415C282.957 87.2706 282.979 87.3046 282.994 87.342C283.008 87.3787 283.014 87.4189 283.013 87.4584C283.011 87.4985 283.001 87.5373 282.985 87.5734C282.968 87.6094 282.945 87.6419 282.915 87.6689C282.886 87.696 282.851 87.7174 282.814 87.7313C282.776 87.7451 282.736 87.7514 282.696 87.75C282.656 87.7486 282.617 87.7396 282.58 87.723C280.597 86.846 278.381 86.623 276.259 87.0857C274.137 87.5491 272.223 88.6741 270.799 90.295C269.376 91.9159 268.52 93.9462 268.357 96.0846C268.194 98.2236 268.733 100.357 269.895 102.17C271.056 103.983 272.778 105.378 274.805 106.149C276.833 106.92 279.058 107.027 281.152 106.452C283.246 105.878 285.096 104.653 286.43 102.96C287.763 101.267 288.509 99.1941 288.556 97.0502C288.55 96.2654 288.473 95.4826 288.325 94.7116C288.312 94.632 288.332 94.5509 288.38 94.4858C288.428 94.4207 288.499 94.377 288.58 94.3646C288.661 94.3514 288.743 94.3708 288.809 94.4179C288.875 94.465 288.919 94.5364 288.932 94.616C289.088 95.4237 289.168 96.2439 289.171 97.0661C289.105 99.8341 287.946 102.468 285.941 104.405C283.935 106.341 281.243 107.428 278.437 107.432L278.431 107.429Z" fill="#592ACB"/>
<path d="M270.634 94.928C270.604 94.9287 270.575 94.9238 270.547 94.9141C270.509 94.9031 270.474 94.8844 270.443 94.8601C270.412 94.8352 270.387 94.8047 270.368 94.7701C270.349 94.7354 270.338 94.698 270.333 94.6585C270.329 94.6197 270.333 94.5803 270.345 94.5428C270.773 93.1062 271.571 91.8039 272.659 90.7607C273.748 89.7175 275.09 88.9694 276.558 88.5891C278.025 88.2095 279.567 88.2095 281.035 88.5905C282.502 88.9715 283.844 89.7196 284.933 90.7635C284.963 90.7905 284.987 90.8231 285.004 90.8598C285.021 90.8958 285.03 90.9353 285.032 90.9754C285.033 91.0156 285.026 91.0558 285.011 91.0932C284.997 91.1306 284.974 91.1646 284.946 91.1936C284.917 91.222 284.884 91.2449 284.846 91.2608C284.808 91.2761 284.768 91.2844 284.728 91.2844C284.687 91.2837 284.646 91.2761 284.609 91.2601C284.572 91.2442 284.538 91.2214 284.509 91.1923C283.565 90.2848 282.412 89.6157 281.15 89.2409C279.887 88.8669 278.552 88.799 277.256 89.0428C275.961 89.2859 274.745 89.8346 273.71 90.6416C272.676 91.4479 271.853 92.489 271.314 93.6763C271.16 94.0129 271.03 94.3593 270.924 94.7126C270.905 94.7742 270.867 94.8289 270.815 94.8677C270.763 94.9065 270.7 94.928 270.634 94.928Z" fill="#592ACB"/>
<path d="M278.781 105.681C277.541 105.681 276.316 105.421 275.186 104.918C275.147 104.904 275.112 104.882 275.082 104.853C275.053 104.824 275.029 104.79 275.013 104.753C274.997 104.715 274.989 104.675 274.99 104.634C274.991 104.592 275 104.552 275.017 104.515C275.034 104.478 275.058 104.444 275.089 104.417C275.12 104.389 275.156 104.368 275.195 104.355C275.234 104.341 275.276 104.336 275.316 104.339C275.358 104.343 275.399 104.354 275.435 104.373C276.836 104.996 278.386 105.218 279.908 105.013C281.43 104.808 282.864 104.186 284.045 103.216C285.226 102.246 286.107 100.969 286.588 99.5279C287.069 98.0878 287.13 96.5431 286.764 95.0704C286.749 94.9949 286.765 94.9173 286.807 94.8529C286.85 94.7892 286.915 94.7427 286.99 94.7247C287.066 94.7067 287.145 94.7178 287.212 94.7559C287.28 94.7933 287.33 94.8557 287.352 94.9284C287.826 96.8084 287.642 98.7902 286.831 100.553C286.132 102.083 285.002 103.381 283.573 104.291C282.145 105.2 280.481 105.683 278.781 105.681Z" fill="#592ACB"/>
<path d="M289.092 97.7402C294.064 100.935 259.781 98.0159 266.041 95.3663L266.392 93.399C260.374 93.5729 259.382 94.5337 259.327 95.5416C259.281 96.3984 259.993 97.0932 261.682 97.7381C262.792 98.1434 263.929 98.4738 265.085 98.7266C267.914 99.3715 270.779 99.855 273.664 100.174L274.131 100.23C275.174 100.354 276.242 100.466 277.326 100.566C278.677 100.689 280.009 100.791 281.295 100.867C284.071 101.049 286.854 101.089 289.634 100.985C293.86 100.785 295.612 100.176 295.682 98.8783C295.753 97.5802 293.255 96.706 288.97 95.7237L289.092 97.7402Z" fill="#E7DFFF"/>
<path d="M286.873 101.351C285.162 101.351 283.272 101.292 281.28 101.174C279.987 101.096 278.65 100.994 277.3 100.87C276.222 100.772 275.144 100.658 274.098 100.534L273.631 100.479C270.735 100.157 267.859 99.6714 265.019 99.0251C263.85 98.7702 262.701 98.437 261.58 98.0269C260.451 97.5898 258.95 96.8569 259.031 95.527C259.093 94.375 260.03 93.2847 266.388 93.1011C266.469 93.0997 266.546 93.1302 266.604 93.1842C266.663 93.239 266.697 93.3138 266.7 93.3927C266.702 93.4717 266.672 93.5486 266.618 93.6061C266.562 93.6636 266.486 93.6975 266.406 93.7003C260.487 93.8721 259.68 94.7844 259.637 95.5588C259.611 96.0105 259.809 96.699 261.8 97.4679C262.897 97.869 264.02 98.1952 265.162 98.4446C267.981 99.086 270.834 99.5675 273.708 99.8861L274.175 99.9415C275.215 100.066 276.287 100.178 277.361 100.277C278.7 100.399 280.034 100.501 281.32 100.577C284.085 100.758 286.858 100.797 289.626 100.694C293.604 100.507 295.327 99.9616 295.388 98.8713C295.453 97.6896 292.311 96.805 288.915 96.0243C288.875 96.0167 288.837 96.0008 288.802 95.9786C288.769 95.9557 288.74 95.9266 288.718 95.8934C288.696 95.8595 288.681 95.8214 288.674 95.7819C288.667 95.7424 288.668 95.7015 288.677 95.6627C288.687 95.6232 288.703 95.5865 288.728 95.554C288.752 95.5214 288.782 95.4937 288.817 95.4736C288.852 95.4528 288.891 95.439 288.932 95.4334C288.972 95.4279 289.013 95.4307 289.052 95.4411C293.517 96.4656 296.084 97.3598 295.999 98.9032C295.916 100.413 294.14 101.082 289.661 101.299C288.795 101.332 287.865 101.351 286.873 101.351Z" fill="#592ACB"/>
<path d="M119.69 111.233H119.309C117.19 111.158 115.142 110.466 113.422 109.242C111.703 108.018 110.389 106.319 109.647 104.359C108.905 102.399 108.769 100.266 109.256 98.2292C109.742 96.1926 110.829 94.3438 112.379 92.9175C113.93 91.4906 115.875 90.5492 117.967 90.2125C120.059 89.8759 122.206 90.1592 124.135 91.0265C126.064 91.8937 127.69 93.3061 128.806 95.0843C129.923 96.8632 130.48 98.9288 130.407 101.02C130.305 103.76 129.133 106.355 127.134 108.259C125.135 110.163 122.467 111.229 119.689 111.233H119.69ZM119.678 90.6531C117.011 90.7002 114.472 91.785 112.611 93.6712C110.75 95.5574 109.72 98.092 109.744 100.724C109.768 103.357 110.844 105.873 112.738 107.726C114.632 109.579 117.191 110.619 119.858 110.619C122.525 110.619 125.084 109.579 126.978 107.726C128.872 105.873 129.948 103.357 129.972 100.724C129.996 98.092 128.966 95.5574 127.105 93.6712C125.245 91.785 122.705 90.7002 120.038 90.6531H119.676H119.678Z" fill="#592ACB"/>
<path d="M111.161 98.8325L109.609 98.7805C109.529 98.777 109.453 98.7424 109.397 98.6842C109.343 98.626 109.313 98.5485 109.316 98.4688C109.321 98.3905 109.356 98.3164 109.414 98.2631C109.472 98.2097 109.55 98.1799 109.63 98.1813L111.183 98.2354C111.264 98.2367 111.341 98.27 111.396 98.3275C111.452 98.3843 111.482 98.4612 111.481 98.5408C111.48 98.6205 111.446 98.696 111.388 98.7507C111.329 98.8061 111.252 98.8359 111.172 98.8345L111.162 98.8325H111.161Z" fill="#592ACB"/>
<path d="M114.111 93.8108L112.394 93.7533C112.313 93.7505 112.237 93.7166 112.183 93.6584C112.128 93.6002 112.098 93.5233 112.101 93.4437C112.104 93.364 112.138 93.2892 112.197 93.2345C112.256 93.1804 112.334 93.1513 112.415 93.1541L114.132 93.2137C114.213 93.2137 114.29 93.2455 114.347 93.3017C114.404 93.3578 114.436 93.434 114.436 93.5136C114.436 93.5933 114.404 93.6688 114.347 93.7256C114.29 93.7817 114.213 93.8129 114.132 93.8129L114.112 93.8108H114.111Z" fill="#592ACB"/>
<path d="M111.065 103.139L109.772 103.095C109.693 103.094 109.617 103.061 109.562 103.005C109.506 102.949 109.475 102.874 109.475 102.795C109.479 102.716 109.514 102.641 109.573 102.587C109.632 102.533 109.71 102.504 109.79 102.506L111.083 102.55C111.164 102.551 111.24 102.585 111.296 102.642C111.351 102.699 111.382 102.776 111.381 102.855C111.379 102.935 111.346 103.011 111.287 103.065C111.229 103.121 111.152 103.15 111.071 103.149L111.065 103.139Z" fill="#592ACB"/>
<path d="M113.153 107.387H113.141L111.897 107.344C111.857 107.342 111.818 107.333 111.782 107.317C111.745 107.301 111.713 107.277 111.686 107.249C111.658 107.22 111.637 107.186 111.623 107.15C111.609 107.112 111.603 107.074 111.604 107.034C111.608 106.954 111.643 106.88 111.702 106.826C111.761 106.772 111.839 106.742 111.919 106.744L113.164 106.788C113.245 106.788 113.322 106.82 113.379 106.876C113.435 106.932 113.468 107.008 113.468 107.088C113.468 107.168 113.435 107.243 113.379 107.3C113.322 107.356 113.245 107.387 113.164 107.387H113.154H113.153Z" fill="#F9F9FA"/>
<path d="M121.574 111.001C127.333 111.001 132.001 106.393 132.001 100.709C132.001 95.0257 127.333 90.4186 121.574 90.4186C115.816 90.4186 111.148 95.0257 111.148 100.709C111.148 106.393 115.816 111.001 121.574 111.001Z" fill="#FFBD4F"/>
<path d="M121.584 111.299H121.204C118.387 111.249 115.704 110.104 113.738 108.112C111.772 106.119 110.684 103.441 110.709 100.661C110.734 97.8797 111.87 95.2211 113.872 93.2635C115.873 91.3059 118.576 90.208 121.394 90.208C124.212 90.208 126.915 91.3059 128.916 93.2635C130.917 95.2211 132.054 97.8797 132.079 100.661C132.105 103.441 131.015 106.119 129.05 108.112C127.085 110.104 124.401 111.249 121.584 111.299ZM121.574 90.7171C119.589 90.7185 117.648 91.2962 115.994 92.3782C114.339 93.4602 113.044 94.9987 112.268 96.8018C111.493 98.6056 111.273 100.594 111.634 102.52C111.996 104.446 112.924 106.225 114.302 107.634C115.681 109.044 117.448 110.022 119.386 110.447C121.324 110.871 123.345 110.724 125.199 110.023C127.052 109.323 128.656 108.099 129.81 106.505C130.963 104.911 131.617 103.018 131.688 101.061C131.736 99.7486 131.521 98.4407 131.056 97.2119C130.591 95.9824 129.885 94.8553 128.979 93.8953C128.072 92.9359 126.983 92.1614 125.773 91.6177C124.563 91.0739 123.256 90.7705 121.927 90.7255C121.82 90.7192 121.693 90.7171 121.573 90.7171H121.574Z" fill="#FFBD4F"/>
<path d="M121.579 111.299H121.198C119.791 111.25 118.406 110.928 117.124 110.351C115.842 109.774 114.688 108.954 113.727 107.937C111.787 105.883 110.753 103.151 110.853 100.345C110.953 97.5384 112.179 94.8861 114.26 92.9708C116.342 91.0561 119.108 90.0351 121.952 90.1342C122.033 90.1369 122.109 90.1709 122.163 90.2291C122.218 90.2879 122.248 90.3648 122.244 90.4445C122.241 90.5241 122.206 90.599 122.147 90.653C122.088 90.707 122.01 90.7361 121.93 90.7326C119.758 90.6599 117.62 91.2792 115.833 92.4997C114.046 93.7196 112.704 95.4749 112.007 97.5059C111.309 99.5369 111.293 101.736 111.96 103.777C112.628 105.818 113.944 107.593 115.712 108.838C117.482 110.084 119.609 110.734 121.782 110.692C123.955 110.651 126.056 109.92 127.775 108.608C129.494 107.296 130.739 105.472 131.326 103.407C131.912 101.342 131.81 99.1455 131.034 97.1422C130.73 96.4162 130.359 95.7201 129.925 95.062C129.883 94.9934 129.871 94.9124 129.89 94.8348C129.91 94.7579 129.959 94.6914 130.028 94.6506C130.097 94.6097 130.18 94.5972 130.258 94.6159C130.335 94.6353 130.403 94.6845 130.444 94.7524C130.897 95.4409 131.284 96.1696 131.602 96.9288C132.222 98.5324 132.438 100.261 132.232 101.965C132.025 103.67 131.403 105.299 130.418 106.713C129.432 108.128 128.113 109.285 126.574 110.084C125.035 110.884 123.323 111.303 121.584 111.305L121.579 111.299H121.579Z" fill="#592ACB"/>
<path d="M113.506 101.871C113.431 101.871 113.359 101.843 113.302 101.793C113.247 101.743 113.212 101.675 113.204 101.601C113.052 100.111 113.293 98.6082 113.902 97.2374C114.511 95.8658 115.469 94.673 116.682 93.7746C117.895 92.8761 119.323 92.3019 120.827 92.1072C122.331 91.9133 123.86 92.1058 125.267 92.6662C125.306 92.6794 125.342 92.7002 125.372 92.7279C125.402 92.7549 125.426 92.7882 125.443 92.8249C125.46 92.8623 125.469 92.9018 125.47 92.9419C125.471 92.9828 125.464 93.023 125.448 93.0604C125.433 93.0978 125.41 93.1317 125.381 93.1601C125.352 93.1892 125.317 93.2114 125.279 93.2266C125.241 93.2412 125.2 93.2488 125.159 93.2481C125.118 93.2467 125.078 93.2377 125.04 93.2211C123.819 92.7327 122.495 92.5429 121.183 92.6669C119.87 92.7909 118.608 93.2252 117.501 93.9339C116.395 94.6425 115.479 95.6033 114.83 96.7358C114.18 97.8684 113.818 99.1388 113.771 100.439C113.757 100.807 113.769 101.175 113.808 101.541C113.815 101.621 113.792 101.7 113.74 101.761C113.689 101.824 113.615 101.863 113.535 101.871H113.505H113.506Z" fill="#592ACB"/>
<path d="M121.966 109.412H121.652C121.572 109.409 121.496 109.375 121.442 109.317C121.387 109.259 121.358 109.182 121.361 109.103C121.364 109.024 121.4 108.949 121.458 108.895C121.516 108.841 121.594 108.812 121.674 108.813C123.848 108.885 125.961 108.102 127.551 106.637C129.141 105.172 130.076 103.143 130.152 100.998C130.224 99.1971 129.675 97.4245 128.598 95.9685C128.551 95.9041 128.532 95.8237 128.545 95.7447C128.557 95.6665 128.602 95.5958 128.667 95.5494C128.699 95.5258 128.736 95.5092 128.774 95.5002C128.813 95.4905 128.853 95.4891 128.892 95.4954C128.932 95.5016 128.969 95.5154 129.003 95.5355C129.037 95.5563 129.066 95.5833 129.089 95.6152C130.246 97.1793 130.834 99.0829 130.758 101.018C130.678 103.269 129.717 105.401 128.077 106.966C126.437 108.532 124.246 109.409 121.965 109.412H121.966Z" fill="#592ACB"/>
<path d="M131.789 97.5765C137.617 98.6841 104.754 108.757 109.537 103.966L109.108 102.013C103.601 104.409 103.053 105.675 103.386 106.629C103.67 107.44 104.6 107.827 106.421 107.793C107.604 107.754 108.783 107.637 109.949 107.44C112.816 106.983 115.652 106.364 118.446 105.585L118.899 105.461C119.91 105.188 120.944 104.894 121.986 104.582C123.285 104.183 124.556 103.784 125.778 103.385C128.417 102.519 131.009 101.519 133.544 100.39C137.388 98.6307 138.771 97.4123 138.34 96.1848C137.909 94.9567 135.261 95.0786 130.916 95.7651L131.789 97.5765Z" fill="#E7DFFF"/>
<path d="M106.226 108.095C105.037 108.095 103.519 107.923 103.101 106.729C102.719 105.639 103.168 104.281 108.986 101.738C109.022 101.72 109.062 101.711 109.102 101.709C109.142 101.708 109.183 101.714 109.221 101.728C109.259 101.742 109.293 101.763 109.323 101.79C109.352 101.817 109.376 101.85 109.392 101.887C109.408 101.923 109.418 101.962 109.418 102.002C109.419 102.042 109.412 102.082 109.397 102.119C109.382 102.156 109.36 102.189 109.332 102.218C109.304 102.247 109.27 102.269 109.233 102.285C103.811 104.653 103.419 105.791 103.676 106.533C103.825 106.961 104.27 107.532 106.409 107.496C107.577 107.457 108.742 107.34 109.895 107.146C112.75 106.69 115.576 106.073 118.359 105.297L118.814 105.176C119.825 104.901 120.863 104.605 121.89 104.297C123.175 103.914 124.447 103.51 125.673 103.099C128.302 102.233 130.884 101.233 133.409 100.104C137.02 98.4487 138.409 97.3085 138.046 96.2688C137.654 95.1501 134.405 95.502 130.966 96.0471C130.885 96.0596 130.803 96.0402 130.737 95.9931C130.671 95.946 130.627 95.8746 130.613 95.795C130.601 95.716 130.62 95.635 130.668 95.5692C130.716 95.504 130.788 95.4604 130.869 95.4479C135.396 94.731 138.115 94.6035 138.629 96.0651C139.129 97.4928 137.739 98.7764 133.673 100.639C131.124 101.781 128.517 102.793 125.862 103.668C124.63 104.08 123.352 104.485 122.061 104.867C121.027 105.176 119.988 105.465 118.968 105.749L118.513 105.872C115.707 106.653 112.859 107.274 109.982 107.734C108.801 107.932 107.608 108.052 106.411 108.091L106.227 108.095H106.226Z" fill="#592ACB"/>
<path d="M131.226 99.4436C131.158 99.4443 131.092 99.4228 131.038 99.3826C130.984 99.3424 130.946 99.2856 130.928 99.2212C130.911 99.1568 130.915 99.0882 130.942 99.0273C130.969 98.9656 131.015 98.915 131.074 98.8825C132.013 98.3553 132.156 98.0838 132.179 98.0277C132.046 97.9404 131.893 97.8871 131.734 97.8718C131.694 97.8642 131.656 97.8497 131.622 97.8275C131.589 97.8053 131.559 97.7769 131.536 97.7444C131.513 97.7111 131.497 97.6737 131.489 97.6342C131.48 97.5954 131.48 97.5546 131.487 97.5158C131.495 97.4763 131.511 97.4389 131.532 97.4056C131.555 97.3717 131.584 97.3433 131.617 97.3204C131.65 97.2983 131.687 97.2823 131.728 97.274C131.768 97.2657 131.808 97.2657 131.848 97.2733C132.05 97.3128 132.7 97.4347 132.781 97.9162C132.854 98.3491 132.421 98.8042 131.365 99.3937C131.323 99.4207 131.275 99.438 131.225 99.4436H131.226Z" fill="#592ACB"/>
<path d="M110.382 105.55C109.122 105.55 108.931 105.221 108.839 105.061C108.536 104.542 109.126 103.951 109.32 103.755C109.348 103.726 109.381 103.702 109.419 103.685C109.456 103.669 109.496 103.66 109.536 103.659C109.577 103.658 109.618 103.665 109.656 103.681C109.694 103.695 109.728 103.717 109.757 103.746C109.786 103.774 109.809 103.808 109.824 103.845C109.84 103.882 109.847 103.922 109.847 103.963C109.847 104.003 109.837 104.042 109.821 104.079C109.805 104.116 109.781 104.149 109.751 104.177C109.318 104.61 109.363 104.762 109.364 104.764C109.534 105.053 111.387 105.217 117.151 103.751C117.229 103.731 117.312 103.743 117.381 103.784C117.451 103.824 117.501 103.89 117.521 103.967C117.541 104.044 117.53 104.126 117.489 104.195C117.448 104.263 117.381 104.312 117.303 104.332C113.596 105.273 111.539 105.55 110.382 105.55Z" fill="#592ACB"/>
<g clip-path="url(#clip0_1_3079)">
<path d="M238.261 139.316C236.235 141.739 233.32 143.972 229.498 145.734C218.653 150.731 159.43 151.382 150.752 138.354C149.606 136.628 148.85 134.911 148.413 133.231C148.18 132.347 148.036 131.469 147.963 130.609C147.15 120.779 156.036 112.834 156.036 112.834C156.048 112.783 156.69 110.885 157.726 108.07C158.769 105.249 160.225 101.498 161.877 97.745C164.08 92.7485 166.631 87.7489 169.051 84.8946C173.862 79.2131 180.222 75.5321 187.405 74.1804C187.399 74.1744 187.399 74.1683 187.393 74.1532C186.835 73.3446 186.247 72.4847 185.638 71.6007C182.576 67.1321 178.965 61.8278 175.914 57.2809C176.369 55.4464 177.162 54.1852 178.042 53.3192C178.874 52.4925 179.785 52.0248 180.547 51.7533C180.638 51.7201 180.728 51.6899 180.815 51.6628C180.463 50.6188 180.201 49.7136 180.053 48.9895C180.987 44.8468 185.798 44.8468 186.202 44.8468C187.534 41.724 189.891 40.8339 192.345 40.0042C192.833 39.8382 193.325 39.6723 193.813 39.4973C196.752 38.4262 203.696 42.5688 204.902 46.5817C209.571 47.7796 211.443 49.3908 211.307 51.1287C210.726 52.399 210.117 53.7507 209.502 55.1356C211.603 55.6817 214.545 56.783 214.249 59.0158C213.532 60.6179 209.053 66.8455 205.472 71.7455C205.409 71.83 205.345 71.9175 205.285 72.0019C204.528 73.0338 203.811 74.0084 203.196 74.8563C203.076 75.0222 202.958 75.1821 202.843 75.336C205.161 76.0933 207.847 77.267 210.843 79.1015C221.471 85.6157 227.256 100.596 230.939 113.407C235.424 117.318 237.736 119.774 240.777 125.854C242.737 129.791 241.983 134.869 238.261 139.313V139.316Z" fill="#592ACB"/>
<path d="M190.086 71.3598C189.131 71.7189 180.887 58.271 178.036 53.3198C178.868 52.4961 179.775 52.0254 180.537 51.7568L180.83 52.1068C180.83 52.1068 191.241 70.9253 190.083 71.3598H190.086Z" fill="#9059FF"/>
<path d="M194.139 73.6406C193.416 74.944 186.196 44.8501 186.196 44.8501C187.532 41.7303 189.892 40.8372 192.342 40.0074C192.795 45.9122 194.787 72.4729 194.139 73.6406Z" fill="#9059FF"/>
<path d="M200.164 75.9716C199.058 74.2488 196.914 74.11 195.154 74.7587C194.976 74.7587 194.792 74.7738 194.6 74.81C194.575 74.816 194.551 74.8221 194.53 74.8281C193.762 74.3061 192.939 73.8143 192.004 73.6966C190.943 73.5639 189.873 73.8958 189.228 74.7859C188.631 75.6065 188.532 76.8014 189.135 77.6492C189.723 78.4729 190.744 78.7716 191.715 78.6359C192.053 78.5876 192.378 78.5031 192.692 78.3884C192.05 79.5772 191.54 80.8445 191.103 82.1147C190.334 84.3595 189.931 86.7582 189.825 89.1268C189.765 90.4785 189.801 91.8423 190.066 93.1699C190.151 93.5983 190.657 93.8548 191.055 93.7854C191.492 93.71 191.805 93.3479 191.805 92.8953C191.805 90.7199 191.736 88.5354 192.043 86.4113C192.357 84.2328 192.921 82.0664 193.71 80.0117C193.994 79.2725 194.307 78.5423 194.621 77.8152C194.687 78.7746 194.747 79.7341 194.768 80.7027C194.802 82.2022 194.82 83.6988 194.838 85.1983C194.847 85.9376 194.844 86.6738 194.838 87.41C194.835 87.7901 194.832 88.1703 194.823 88.5505C194.82 88.7406 194.808 88.9307 194.811 89.1207C194.814 89.3108 194.865 89.4858 194.877 89.6759C194.919 90.3789 194.82 91.1242 194.774 91.8272C194.726 92.5845 194.699 93.3449 194.669 94.1022C194.651 94.5457 195.052 94.9319 195.471 94.9712C195.869 95.0104 196.393 94.7539 196.444 94.3013C196.535 93.5108 196.619 92.7203 196.658 91.9238C196.691 91.2087 196.64 90.4634 196.725 89.7513C196.776 89.3259 196.824 88.9276 196.827 88.4962C196.827 88.116 196.833 87.7358 196.827 87.3557C196.818 86.6195 196.794 85.8833 196.764 85.147C196.703 83.6535 196.562 82.1479 196.357 80.6665C196.275 80.0811 196.197 79.4927 196.113 78.9044C196.505 79.4958 197.044 79.9514 197.816 80.0328C198.826 80.1384 199.763 79.5742 200.278 78.7173C200.785 77.8725 200.691 76.7742 200.167 75.9596L200.164 75.9716ZM194.226 76.1647C194.226 76.4363 193.352 76.6535 192.273 76.6535C191.193 76.6535 190.319 76.4333 190.319 76.1647C190.319 75.8962 191.193 75.6759 192.273 75.6759C193.352 75.6759 194.226 75.8962 194.226 76.1647ZM195.92 75.5522C196.122 75.2022 196.948 75.2988 197.768 75.7725C198.587 76.2462 199.085 76.913 198.883 77.263C198.681 77.613 197.855 77.5165 197.035 77.0428C196.215 76.569 195.718 75.9022 195.92 75.5522Z" fill="#9059FF"/>
<path d="M214.249 59.0222C213.531 60.6243 209.052 66.8519 205.471 71.7519C205.408 71.8364 205.345 71.9239 205.285 72.0083C204.528 73.0402 203.811 74.0148 203.196 74.8626C203.075 75.0286 202.958 75.1885 202.843 75.3424L197.032 74.392L204.899 46.5881C209.568 47.786 211.44 49.3972 211.304 51.1351C210.722 52.4054 210.113 53.7571 209.498 55.142C211.599 55.6881 214.541 56.7894 214.246 59.0222H214.249Z" fill="#9059FF"/>
<path d="M201.677 115.233C200.278 113.703 200.034 113.29 197.062 112.227V106.682C198.009 107.75 197.933 108.99 197.933 108.99L202.518 108.208C202.518 108.208 201.96 103.668 197.062 102.002V99.0602C197.062 99.0602 194.955 98.9546 194.85 99.0602C194.81 99.0995 194.798 100.008 194.807 101.492C194.042 101.393 193.318 101.371 192.637 101.414V99.0602C192.637 99.0602 190.53 98.9546 190.425 99.0602C190.383 99.1025 190.374 100.143 190.386 101.821C187.703 102.648 185.961 104.512 185.132 106.009C183.83 108.362 184.647 111.292 187.447 113.223C188.601 114.02 189.644 114.515 190.6 114.858C190.651 117.345 190.705 119.831 190.753 122.067C189.508 121.056 188.544 119.571 187.905 117.897C186.94 118.156 183.875 119.982 183.875 119.982C183.875 119.982 185.337 126.173 190.711 127.468C190.765 127.48 190.823 127.495 190.877 127.507C190.922 129.408 190.949 130.587 190.949 130.587H192.634V127.842C193.508 127.962 194.407 128.017 195.311 127.947C195.35 129.589 195.374 130.587 195.374 130.587H197.059V127.652C198.09 127.371 199.109 126.888 200.076 126.125C203.066 123.768 204.845 118.699 201.674 115.236L201.677 115.233ZM194.247 105.282C194.458 105.318 194.66 105.36 194.847 105.412C194.874 107.246 194.91 109.346 194.952 111.533C194.147 111.295 193.358 111.084 192.631 110.873V105.203C193.159 105.164 193.707 105.194 194.244 105.285L194.247 105.282ZM189.132 107.934C189.346 107.029 189.813 106.377 190.434 105.937C190.455 107.228 190.479 108.637 190.506 110.103C189.472 109.596 188.894 108.951 189.132 107.934ZM192.634 123.135V115.447C193.499 115.652 194.295 115.821 195.046 116.114C195.1 118.687 195.154 121.213 195.205 123.418C194.28 123.521 193.421 123.412 192.634 123.135ZM197.059 122.749V117.387C198.862 119.152 198.705 121.575 197.059 122.749Z" fill="white"/>
</g>
<defs>
<clipPath id="clip0_1_3079">
<rect width="94.1463" height="110.156" fill="white" transform="translate(147.723 39.0625)"/>
</clipPath>
</defs>
</svg>
