<svg width="48" height="48" viewBox="0 0 48 48" fill="none" xmlns="http://www.w3.org/2000/svg">
<rect width="48" height="48" fill="#7542E5"/>
<path d="M30.5392 24.3834C29.3184 23.0268 29.1053 22.6602 26.511 21.7184V16.8004C27.3372 17.7476 27.2714 18.8473 27.2714 18.8473L31.2733 18.1543C31.2733 18.1543 30.7866 14.1274 26.511 12.6504V10.0416C26.511 10.0416 24.6719 9.94797 24.5798 10.0416C24.5456 10.0764 24.5351 10.8818 24.543 12.1982C23.8747 12.1099 23.2432 12.0912 22.6486 12.1287V10.0416C22.6486 10.0416 20.8095 9.94797 20.7174 10.0416C20.6805 10.0791 20.6726 11.0022 20.6832 12.4899C18.3415 13.223 16.8207 14.8766 16.0972 16.2038C14.9605 18.2908 15.6736 20.8889 18.1178 22.6013C19.1256 23.3077 20.0359 23.7466 20.87 24.0516C20.9147 26.2564 20.9621 28.4611 21.0042 30.4438C19.9175 29.5475 19.0756 28.231 18.5178 26.746C17.6758 26.9761 15 28.5949 15 28.5949C15 28.5949 16.2761 34.0855 20.9673 35.2333C21.0147 35.244 21.0647 35.2574 21.112 35.2681C21.1515 36.9538 21.1752 38 21.1752 38H22.646V35.5651C23.409 35.6721 24.193 35.7203 24.9824 35.6588C25.0166 37.1143 25.0376 38 25.0376 38H26.5084V35.3965C27.4082 35.1477 28.2976 34.7196 29.1421 34.0426C31.7522 31.9529 33.3045 27.4577 30.5366 24.386L30.5392 24.3834ZM24.0536 15.5589C24.2378 15.591 24.4141 15.6285 24.5772 15.674C24.6009 17.3008 24.6324 19.1631 24.6693 21.103C23.9668 20.8916 23.2774 20.7043 22.6433 20.517V15.4893C23.1038 15.4546 23.5826 15.4813 24.051 15.5616L24.0536 15.5589ZM19.5886 17.9109C19.7754 17.1081 20.1833 16.5302 20.7253 16.1395C20.7437 17.2847 20.7647 18.5343 20.7884 19.8347C19.8859 19.3852 19.3808 18.8126 19.5886 17.9109ZM22.646 31.391V24.5733C23.4011 24.7553 24.0957 24.9051 24.7508 25.1647C24.7982 27.447 24.8456 29.6866 24.8903 31.6425C24.0825 31.7335 23.3327 31.6372 22.646 31.391ZM26.5084 31.0485V26.2938C28.0818 27.8591 27.945 30.0077 26.5084 31.0485Z" fill="white"/>
<path d="M10.739 36.9431L12.298 36.2531C12.3612 36.2251 12.4307 36.2148 12.4992 36.2239C12.5676 36.2331 12.6325 36.2611 12.6858 36.3047C12.7392 36.3482 12.7792 36.4054 12.8012 36.4701C12.8232 36.5343 12.8267 36.6041 12.8111 36.6706L12.4168 38.3209C12.4035 38.3787 12.4047 38.4394 12.4197 38.4967C12.4348 38.554 12.4638 38.6072 12.5038 38.6513L13.65 39.9008C13.6963 39.9517 13.7276 40.0142 13.7398 40.0812C13.752 40.1487 13.745 40.218 13.7195 40.2816C13.694 40.3451 13.6511 40.4001 13.5955 40.4408C13.5398 40.4814 13.4737 40.5061 13.4047 40.5112L11.7037 40.6504C11.6435 40.6549 11.5855 40.6744 11.5345 40.7059C11.4834 40.738 11.4411 40.7815 11.411 40.8336L10.5622 42.2955C10.528 42.3562 10.4776 42.406 10.4161 42.4393C10.3547 42.4725 10.2851 42.4879 10.215 42.4833C10.1448 42.4793 10.0776 42.4553 10.0207 42.4146C9.96393 42.3746 9.91987 42.3184 9.89378 42.2543L9.23345 40.6979C9.21026 40.6435 9.17431 40.5948 9.12793 40.557C9.08155 40.5198 9.02648 40.4935 8.96792 40.482L7.29651 40.135C7.22868 40.1212 7.16549 40.0892 7.11563 40.0416C7.06519 39.9947 7.02925 39.9346 7.01186 39.8681C6.99447 39.8017 6.99621 39.7319 7.01708 39.6666C7.03795 39.6007 7.07679 39.5429 7.12955 39.4982L8.4247 38.3988C8.4705 38.3598 8.50587 38.3112 8.5279 38.2556C8.54993 38.2006 8.55804 38.1411 8.55167 38.0815L8.36788 36.4049C8.36093 36.3367 8.37252 36.2686 8.40267 36.2067C8.43282 36.1455 8.47978 36.0934 8.53833 36.0567C8.59688 36.0206 8.66413 36.0006 8.73312 36C8.80211 35.9994 8.86995 36.0178 8.92908 36.0533L10.3877 36.9294C10.4405 36.9603 10.5002 36.9781 10.5616 36.9804C10.6231 36.9826 10.684 36.9695 10.739 36.9431Z" fill="#FFBD4F"/>
<path d="M39.3649 7.69235L41.4705 7.23997C41.5558 7.22107 41.645 7.22623 41.7279 7.25543C41.8103 7.28406 41.8833 7.33502 41.9378 7.4026C41.9923 7.47017 42.0265 7.55148 42.0369 7.63737C42.0474 7.72327 42.0329 7.81031 41.9952 7.88876L41.0763 9.81509C41.0438 9.88324 41.0288 9.95768 41.0322 10.0327C41.0357 10.1077 41.0578 10.181 41.096 10.2457L42.1825 12.0862C42.2265 12.1606 42.2486 12.2459 42.2462 12.3318C42.2439 12.4177 42.2167 12.5019 42.1685 12.574C42.1204 12.6462 42.0526 12.7034 41.9738 12.739C41.8943 12.775 41.8062 12.7882 41.7192 12.7773L39.5806 12.5099C39.5052 12.5007 39.4281 12.5099 39.3568 12.5362C39.2855 12.5626 39.2217 12.6055 39.1707 12.6616L37.7352 14.2513C37.6773 14.3154 37.6019 14.3629 37.5184 14.387C37.4343 14.411 37.3456 14.4122 37.2616 14.3893C37.1775 14.3664 37.1016 14.3206 37.0424 14.257C36.9833 14.1934 36.9433 14.115 36.9271 14.0302L36.523 11.9373C36.5079 11.8645 36.4749 11.797 36.4273 11.7391C36.3798 11.6819 36.3189 11.6361 36.2505 11.6069L34.277 10.7485C34.1976 10.7136 34.1304 10.6574 34.0811 10.5864C34.0324 10.5154 34.0046 10.4324 34.0005 10.3471C33.9964 10.2617 34.0173 10.1764 34.0596 10.1014C34.102 10.0264 34.1646 9.96455 34.2399 9.92275L36.1299 8.89774C36.1966 8.86109 36.2528 8.80955 36.2946 8.74714C36.3363 8.68472 36.3624 8.61257 36.3705 8.53813L36.5896 6.41538C36.5983 6.32948 36.6314 6.24817 36.6847 6.18003C36.7381 6.11188 36.8094 6.05977 36.8911 6.02942C36.9729 5.99907 37.0616 5.9922 37.1468 6.00881C37.232 6.02599 37.3114 6.06607 37.3752 6.12505L38.9475 7.5824C39.0031 7.63222 39.0704 7.66772 39.1428 7.68662C39.2153 7.70552 39.2918 7.70724 39.3649 7.6912V7.69235Z" fill="#FFBD4F"/>
</svg>
