<svg width="756" height="792" viewBox="0 0 756 792" fill="none" xmlns="http://www.w3.org/2000/svg">
<path d="M287.48 14.0312C346.377 -4.67705 409.623 -4.67709 468.52 14.0312L547.52 39.125C671.294 78.4416 756 193.431 756 324.084V392.282C756 516.42 690.056 609.508 654.938 651.111C632.313 677.913 603.258 706.244 567.964 730.377C540.834 748.927 472.399 791.458 378 791.458C285.914 791.458 218.393 751.536 188.246 731.127C151.576 706.301 121.83 677.037 98.959 649.55C62.3922 605.603 0.000153221 513.447 0 392.282V324.084C0 193.43 84.7066 78.4414 208.48 39.125L287.48 14.0312ZM381.481 285.581C379.358 284.906 377.087 284.865 374.945 285.455L374.519 285.581L295.519 310.676C290.744 312.192 287.5 316.615 287.5 321.625V389.823C287.5 413.287 301.646 441.193 319.959 463.202C329.123 474.216 339.353 483.779 349.419 490.594C359.473 497.4 369.417 501.5 378 501.5C386.058 501.5 395.74 497.396 405.689 490.593C415.654 483.78 425.948 474.218 435.244 463.205C453.819 441.2 468.5 413.292 468.5 389.823V321.625C468.5 316.615 465.256 312.192 460.481 310.676L381.481 285.581ZM376.738 285.614C376.459 285.646 376.18 285.689 375.903 285.743C376.042 285.716 376.181 285.691 376.32 285.67L376.738 285.614Z" fill="#0060DF" fill-opacity="0.035"/>
<path d="M302.012 59.7792C351.453 44.0743 404.547 44.0742 453.988 59.7792L532.988 84.8739C636.903 117.882 708 214.417 708 324.085V392.282C708 499.592 650.637 581.793 618.258 620.15C597.858 644.317 571.935 669.514 540.871 690.755C516.625 707.333 457.994 743.459 378 743.459C299.859 743.459 241.951 709.521 215.154 691.38C182.927 669.562 156.44 643.586 135.856 618.849C102.309 578.531 48.0001 497.108 48 392.282V324.085C48 214.416 119.098 117.882 223.012 84.8739L302.012 59.7792ZM381.481 285.581C379.358 284.906 377.087 284.865 374.945 285.455L374.519 285.581L295.519 310.676C290.744 312.192 287.5 316.615 287.5 321.625V389.823C287.5 413.287 301.646 441.193 319.959 463.202C329.123 474.216 339.353 483.779 349.419 490.594C359.473 497.4 369.417 501.5 378 501.5C386.058 501.5 395.74 497.396 405.689 490.593C415.654 483.78 425.948 474.218 435.244 463.205C453.819 441.2 468.5 413.292 468.5 389.823V321.625C468.5 316.615 465.256 312.192 460.481 310.676L381.481 285.581ZM380.511 285.832C380.786 285.896 381.059 285.971 381.33 286.058C381.195 286.015 381.058 285.975 380.922 285.937L380.511 285.832Z" fill="#0060DF" fill-opacity="0.035"/>
<path d="M316.544 106.069C356.53 93.3676 399.47 93.3676 439.456 106.069L518.456 131.163C602.509 157.862 660 235.942 660 324.627V392.825C660 483.313 611.211 554.627 581.579 589.731C563.405 611.262 540.613 633.325 513.778 651.674C492.412 666.283 443.587 696.001 378 696.001C313.802 696.001 265.509 668.046 242.063 652.174C214.278 633.363 191.05 610.677 172.754 588.689C142.235 552.011 96.0001 481.32 96 392.825V324.627C96 235.941 153.492 157.862 237.544 131.163L316.544 106.069ZM381.481 285.581C379.358 284.906 377.087 284.865 374.945 285.455L374.519 285.581L295.519 310.676C290.744 312.192 287.5 316.615 287.5 321.625V389.823C287.5 413.286 301.646 441.193 319.959 463.202C329.123 474.216 339.353 483.779 349.419 490.594C359.473 497.4 369.417 501.5 378 501.5C386.058 501.5 395.74 497.396 405.689 490.593C415.654 483.779 425.948 474.217 435.244 463.205C453.819 441.2 468.5 413.292 468.5 389.823V321.625C468.5 316.615 465.256 312.192 460.481 310.676L381.481 285.581ZM374.67 286.058L297.17 310.676L374.67 286.057L375.078 285.937C374.941 285.975 374.805 286.015 374.67 286.058ZM381.33 286.057L458.83 310.676L381.33 286.058L380.922 285.937C381.058 285.975 381.195 286.014 381.33 286.057ZM375.903 285.744L375.489 285.832C375.627 285.8 375.765 285.77 375.903 285.743L376.32 285.671C376.181 285.692 376.042 285.717 375.903 285.744ZM380.097 285.743L380.511 285.832C380.373 285.8 380.235 285.771 380.097 285.744L379.68 285.671C379.819 285.692 379.958 285.716 380.097 285.743Z" fill="#0060DF" fill-opacity="0.035"/>
<path d="M331.075 151.815C361.607 142.116 394.393 142.116 424.925 151.815L503.925 176.908C568.113 197.298 612 256.92 612 324.624V392.823C612 466.497 571.777 526.926 544.899 558.767C528.95 577.661 509.291 596.591 486.686 612.048C468.193 624.693 429.176 647.999 378 647.999C327.745 647.999 289.065 626.026 268.973 612.424C245.629 596.621 225.659 577.224 209.651 557.987C182.171 524.96 144 464.997 144 392.823V324.624C144 256.919 187.888 197.297 252.075 176.908L331.075 151.815ZM381.481 285.581C379.358 284.907 377.087 284.865 374.945 285.455L374.519 285.581L295.519 310.676C290.744 312.193 287.5 316.615 287.5 321.625V389.824C287.5 413.287 301.646 441.193 319.959 463.202C329.123 474.216 339.353 483.78 349.419 490.594C359.473 497.401 369.417 501.5 378 501.5C386.058 501.5 395.74 497.396 405.689 490.593C415.654 483.78 425.948 474.218 435.244 463.205C453.819 441.2 468.5 413.292 468.5 389.824V321.625C468.5 316.615 465.256 312.193 460.481 310.676L381.481 285.581ZM379.68 285.67C379.958 285.713 380.235 285.767 380.511 285.831C380.373 285.799 380.235 285.77 380.097 285.743L379.68 285.67Z" fill="#0060DF" fill-opacity="0.035"/>
<path d="M345.606 197.562C366.683 190.867 389.317 190.867 410.394 197.562L489.394 222.656C533.713 236.734 564 277.896 564 324.625V392.823C564 449.691 532.334 499.239 508.221 527.805C494.496 544.064 477.97 559.86 459.593 572.426C443.968 583.109 414.761 600 378 600C341.686 600 312.619 584.007 295.882 572.676C276.98 559.879 260.268 543.772 246.549 527.285C222.119 497.924 192 448.689 192 392.823V324.625C192 277.896 222.287 236.734 266.606 222.656L345.606 197.562ZM381.481 285.581C379.358 284.906 377.087 284.865 374.945 285.455L374.519 285.581L295.519 310.675C290.744 312.192 287.5 316.614 287.5 321.625V389.823C287.5 413.286 301.646 441.193 319.959 463.202C329.123 474.216 339.353 483.779 349.419 490.593C359.473 497.4 369.417 501.5 378 501.5C386.058 501.5 395.74 497.396 405.689 490.592C415.654 483.779 425.948 474.217 435.244 463.205C453.819 441.2 468.5 413.292 468.5 389.823V321.625C468.5 316.614 465.256 312.192 460.481 310.675L381.481 285.581ZM380.511 285.832C380.786 285.896 381.059 285.971 381.33 286.057C381.195 286.014 381.058 285.975 380.922 285.937L380.511 285.832Z" fill="#0060DF" fill-opacity="0.035"/>
<path d="M360.139 243.31C371.76 239.618 384.24 239.618 395.861 243.31L474.861 268.404C499.309 276.17 516 298.869 516 324.625V392.823C516 432.897 492.879 471.566 471.541 496.844C460.042 510.466 446.648 523.129 432.5 532.803C419.735 541.531 400.339 551.999 378 551.999C355.626 551.999 336.17 541.986 322.79 532.928C308.33 523.138 294.876 510.32 283.446 496.583C262.081 470.906 240 432.394 240 392.823V324.625C240 298.868 256.692 276.17 281.139 268.404L360.139 243.31ZM381.481 285.581C379.358 284.907 377.087 284.865 374.945 285.455L374.519 285.581L295.519 310.676C290.744 312.192 287.5 316.615 287.5 321.625V389.823C287.5 413.287 301.646 441.193 319.959 463.202C329.123 474.216 339.353 483.779 349.419 490.594C359.473 497.401 369.417 501.5 378 501.5C386.058 501.5 395.74 497.396 405.689 490.593C415.654 483.78 425.948 474.218 435.244 463.205C453.819 441.2 468.5 413.292 468.5 389.823V321.625C468.5 316.615 465.256 312.192 460.481 310.676L381.481 285.581Z" fill="#0060DF" fill-opacity="0.035"/>
<path d="M374.928 285.196C377.023 284.619 379.245 284.659 381.322 285.319L460.739 310.546L461.173 310.693C465.605 312.301 468.583 316.509 468.583 321.257V389.809C468.583 413.298 453.88 441.278 435.233 463.367C425.906 474.417 415.58 484.007 405.592 490.837C395.611 497.661 385.937 501.75 377.917 501.75C369.368 501.75 359.428 497.663 349.345 490.837C339.256 484.007 328.997 474.416 319.802 463.366C301.42 441.275 287.25 413.295 287.25 389.809V321.257C287.25 316.356 290.423 312.03 295.094 310.546L374.511 285.319L374.928 285.196Z" stroke="black" stroke-opacity="0.08" stroke-width="0.5" stroke-linecap="round" stroke-linejoin="round"/>
<path d="M378.5 469V318.481C378.5 315.771 381.139 313.845 383.72 314.672L439.72 332.61C441.376 333.14 442.5 334.68 442.5 336.419V391C442.5 422.612 401.437 466.328 382.407 472.311C380.3 472.974 378.5 471.209 378.5 469Z" fill="#0060DF" fill-opacity="0.16"/>
<path d="M378.75 318.481C378.75 316.02 381.072 314.248 383.417 314.845L383.644 314.91L439.644 332.848C441.196 333.345 442.25 334.789 442.25 336.419V391C442.25 406.717 432.031 425.492 419.396 441.109C413.083 448.912 406.177 455.914 399.665 461.336C393.351 466.593 387.425 470.35 382.778 471.927L382.332 472.073C381.368 472.376 380.481 472.126 379.829 471.546C379.173 470.962 378.75 470.038 378.75 469V318.481Z" stroke="black" stroke-opacity="0.04" stroke-width="0.5" stroke-linecap="round" stroke-linejoin="round"/>
</svg>
