<svg width="60" height="64" viewBox="0 0 60 64" fill="none" xmlns="http://www.w3.org/2000/svg">
<path d="M55.595 13.3897L49.1264 9.7034L34.3587 1.29093L33.8992 1.02811C31.4782 -0.342704 28.5103 -0.342704 26.0892 1.02811L25.6298 1.29322L4.86441 13.1269L4.405 13.392C1.99656 14.764 0.507675 17.311 0.5 20.0722V44.7885C0.508277 47.5501 1.99689 50.0975 4.405 51.4709L25.6367 63.5674C27.1927 64.4562 29.1778 63.9321 30.0861 62.3928C30.5183 61.6541 30.6355 60.7741 30.4116 59.9489C30.1876 59.1238 29.6411 58.4221 28.894 58.0003L8.12853 46.1689C7.43851 45.7774 7.01176 45.0486 7.00987 44.2583V20.6024C7.01176 19.8121 7.43851 19.0832 8.12853 18.6918L28.871 6.85125C29.5617 6.46037 30.4084 6.46037 31.0991 6.85125L51.8714 18.6872C52.5583 19.0801 52.9828 19.8073 52.9855 20.5955V44.2674C52.9836 45.0577 52.5569 45.7866 51.8668 46.178L44.8401 50.182L41.2935 44.8616C44.8693 41.7105 46.9172 37.1863 46.919 32.4338C46.919 23.2168 39.3226 15.7185 29.9828 15.7185C20.6429 15.7185 13.0465 23.2168 13.0465 32.4338C13.0465 41.6507 20.6429 49.149 29.9828 49.149C31.9311 49.1506 33.8652 48.8182 35.7001 48.1663L41.0867 56.2474C41.1708 56.3707 41.2621 56.4889 41.3601 56.6016L41.4175 56.6587C41.5312 56.7807 41.6549 56.8931 41.7873 56.9947C41.8195 57.0198 41.8494 57.0473 41.8838 57.0724C42.0296 57.1769 42.1831 57.2701 42.3432 57.3512L42.4535 57.3992C42.5967 57.463 42.744 57.5172 42.8945 57.5615L42.9956 57.5935C43.1666 57.6366 43.3411 57.6649 43.517 57.678H43.6617C43.7123 57.678 43.7605 57.678 43.8111 57.678C43.9098 57.678 44.0086 57.6666 44.1051 57.6575C44.151 57.6575 44.1947 57.6575 44.2406 57.6575C44.4261 57.6321 44.609 57.5908 44.7873 57.534C44.8355 57.5203 44.8815 57.4998 44.9297 57.4815C45.0716 57.43 45.2097 57.369 45.3432 57.2987C45.3731 57.2827 45.4075 57.2735 45.4374 57.2552L55.595 51.4801C58.0056 50.1047 59.4945 47.5532 59.5 44.7885V20.0699C59.4923 17.3087 58.0034 14.7617 55.595 13.3897ZM19.5587 32.4338C19.5233 28.2313 22.0405 24.4231 25.9328 22.7905C29.8251 21.1578 34.3229 22.0236 37.3223 24.9827C40.3216 27.9419 41.2296 32.4094 39.6214 36.2954C38.0132 40.1815 34.2068 42.718 29.9828 42.718C24.2529 42.7344 19.5903 38.1344 19.5587 32.4338Z" fill="url(#paint0_linear_10625_32)"/>
<path d="M55.595 13.3897L49.1264 9.7034L34.3587 1.29093L33.8992 1.02811C31.4782 -0.342704 28.5103 -0.342704 26.0892 1.02811L25.6298 1.29322L4.86441 13.1269L4.405 13.392C1.99656 14.764 0.507675 17.311 0.5 20.0722V44.7885C0.508277 47.5501 1.99689 50.0975 4.405 51.4709L25.6367 63.5674C27.1927 64.4562 29.1778 63.9321 30.0861 62.3928C30.5183 61.6541 30.6355 60.7741 30.4116 59.9489C30.1876 59.1238 29.6411 58.4221 28.894 58.0003L8.12853 46.1689C7.43851 45.7774 7.01176 45.0486 7.00987 44.2583V20.6024C7.01176 19.8121 7.43851 19.0832 8.12853 18.6918L28.871 6.85125C29.5617 6.46037 30.4084 6.46037 31.0991 6.85125L51.8714 18.6872C52.5583 19.0801 52.9828 19.8073 52.9855 20.5955V44.2674C52.9836 45.0577 52.5569 45.7866 51.8668 46.178L44.8401 50.182L41.2935 44.8616C44.8693 41.7105 46.9172 37.1863 46.919 32.4338C46.919 23.2168 39.3226 15.7185 29.9828 15.7185C20.6429 15.7185 13.0465 23.2168 13.0465 32.4338C13.0465 41.6507 20.6429 49.149 29.9828 49.149C31.9311 49.1506 33.8652 48.8182 35.7001 48.1663L41.0867 56.2474C41.1708 56.3707 41.2621 56.4889 41.3601 56.6016L41.4175 56.6587C41.5312 56.7807 41.6549 56.8931 41.7873 56.9947C41.8195 57.0198 41.8494 57.0473 41.8838 57.0724C42.0296 57.1769 42.1831 57.2701 42.3432 57.3512L42.4535 57.3992C42.5967 57.463 42.744 57.5172 42.8945 57.5615L42.9956 57.5935C43.1666 57.6366 43.3411 57.6649 43.517 57.678H43.6617C43.7123 57.678 43.7605 57.678 43.8111 57.678C43.9098 57.678 44.0086 57.6666 44.1051 57.6575C44.151 57.6575 44.1947 57.6575 44.2406 57.6575C44.4261 57.6321 44.609 57.5908 44.7873 57.534C44.8355 57.5203 44.8815 57.4998 44.9297 57.4815C45.0716 57.43 45.2097 57.369 45.3432 57.2987C45.3731 57.2827 45.4075 57.2735 45.4374 57.2552L55.595 51.4801C58.0056 50.1047 59.4945 47.5532 59.5 44.7885V20.0699C59.4923 17.3087 58.0034 14.7617 55.595 13.3897ZM19.5587 32.4338C19.5233 28.2313 22.0405 24.4231 25.9328 22.7905C29.8251 21.1578 34.3229 22.0236 37.3223 24.9827C40.3216 27.9419 41.2296 32.4094 39.6214 36.2954C38.0132 40.1815 34.2068 42.718 29.9828 42.718C24.2529 42.7344 19.5903 38.1344 19.5587 32.4338Z" fill="url(#paint1_linear_10625_32)"/>
<path d="M55.595 13.3897L49.1264 9.7034L40.1036 4.5658C38.0297 3.3872 35.4932 3.34924 33.3847 4.46525L28.871 6.85125C29.5617 6.46037 30.4084 6.46037 31.0991 6.85125L51.8714 18.6872C52.5583 19.0801 52.9828 19.8073 52.9855 20.5955V44.2674C52.9836 45.0577 52.5569 45.7866 51.8668 46.178L44.8401 50.182L45.9358 51.9257C47.2476 54.006 49.9773 54.6831 52.1172 53.4591L55.595 51.4801C58.0094 50.1085 59.5 47.5546 59.5 44.7885V20.0699C59.4966 17.3075 58.0065 14.7586 55.595 13.3897Z" fill="url(#paint2_linear_10625_32)"/>
<path d="M52.9855 20.6023V32.0863H59.4999L59.5 20.0699C59.4966 17.3075 58.0065 14.7586 55.595 13.3897L49.1264 9.7034L40.1036 4.5658C38.0297 3.3872 35.4932 3.34924 33.3847 4.46525L28.871 6.85125C29.5617 6.46037 30.4084 6.46037 31.0991 6.85125L51.8714 18.6872C52.5604 19.0813 52.9852 19.8116 52.9855 20.6023Z" fill="url(#paint3_linear_10625_32)"/>
<path d="M52.9855 33.9353L52.9855 44.2674C52.9836 45.0577 52.5569 45.7866 51.8668 46.178L44.8401 50.182L45.9358 51.9257C47.2476 54.006 49.9773 54.6831 52.1172 53.4591L55.595 51.4801C58.0094 50.1085 59.5 47.5546 59.5 44.7885L59.5 33.9353H52.9855Z" fill="url(#paint4_linear_10625_32)"/>
<path d="M44.3393 49.4324L41.2911 44.8616C39.6585 46.312 37.7591 47.4342 35.6978 48.1663L38.9389 53.0319C40.7689 51.8709 42.5691 50.6711 44.3393 49.4324Z" fill="url(#paint5_linear_10625_32)"/>
<defs>
<linearGradient id="paint0_linear_10625_32" x1="29.5186" y1="104.161" x2="96.514" y2="38.1605" gradientUnits="userSpaceOnUse">
<stop offset="0.26" stop-color="#9059FF"/>
<stop offset="0.96" stop-color="#00B3F4"/>
</linearGradient>
<linearGradient id="paint1_linear_10625_32" x1="29.5186" y1="104.161" x2="96.514" y2="38.1605" gradientUnits="userSpaceOnUse">
<stop offset="0.26" stop-color="#9059FF"/>
<stop offset="0.96" stop-color="#00B3F4"/>
</linearGradient>
<linearGradient id="paint2_linear_10625_32" x1="29.5186" y1="104.161" x2="96.514" y2="38.1605" gradientUnits="userSpaceOnUse">
<stop offset="0.26" stop-color="#9059FF"/>
<stop offset="0.96" stop-color="#00B3F4"/>
</linearGradient>
<linearGradient id="paint3_linear_10625_32" x1="29.5186" y1="104.161" x2="96.514" y2="38.1605" gradientUnits="userSpaceOnUse">
<stop offset="0.26" stop-color="#9059FF"/>
<stop offset="0.96" stop-color="#00B3F4"/>
</linearGradient>
<linearGradient id="paint4_linear_10625_32" x1="29.5186" y1="104.161" x2="96.514" y2="38.1605" gradientUnits="userSpaceOnUse">
<stop offset="0.26" stop-color="#9059FF"/>
<stop offset="0.96" stop-color="#00B3F4"/>
</linearGradient>
<linearGradient id="paint5_linear_10625_32" x1="29.5186" y1="104.161" x2="96.514" y2="38.1605" gradientUnits="userSpaceOnUse">
<stop offset="0.26" stop-color="#9059FF"/>
<stop offset="0.96" stop-color="#00B3F4"/>
</linearGradient>
</defs>
</svg>
