<svg width="64" height="64" viewBox="0 0 64 64" fill="none" xmlns="http://www.w3.org/2000/svg">
<path fill-rule="evenodd" clip-rule="evenodd" d="M32 6.5641C29.2811 6.5641 27.0769 8.76825 27.0769 11.4872C27.0769 14.2061 29.2811 16.4103 32 16.4103C34.7189 16.4103 36.9231 14.2061 36.9231 11.4872C36.9231 8.76825 34.7189 6.5641 32 6.5641ZM20.5128 11.4872C20.5128 5.14298 25.6558 0 32 0C38.3442 0 43.4872 5.14298 43.4872 11.4872C43.4872 17.8314 38.3442 22.9744 32 22.9744C30.0217 22.9744 28.1602 22.4743 26.5351 21.5936L21.5936 26.5351C21.9666 27.2233 22.2713 27.954 22.4986 28.7179H41.5014C42.9136 23.9729 47.3091 20.5128 52.5128 20.5128C58.857 20.5128 64 25.6558 64 32C64 38.3442 58.857 43.4872 52.5128 43.4872C50.5346 43.4872 48.6731 42.9871 47.0479 42.1064L42.1064 47.0479C42.9871 48.6731 43.4872 50.5346 43.4872 52.5128C43.4872 58.857 38.3442 64 32 64C25.6558 64 20.5128 58.857 20.5128 52.5128C20.5128 46.1686 25.6558 41.0256 32 41.0256C33.9783 41.0256 35.8398 41.5257 37.4649 42.4063L42.4063 37.4649C42.0334 36.7766 41.7287 36.046 41.5014 35.2821H22.4986C21.0865 40.0271 16.6909 43.4872 11.4872 43.4872C5.14298 43.4872 0 38.3442 0 32C0 25.6558 5.14298 20.5128 11.4872 20.5128C13.4654 20.5128 15.3269 21.0129 16.9521 21.8935L21.8935 16.9521C21.0129 15.3269 20.5128 13.4654 20.5128 11.4872ZM27.0769 52.5128C27.0769 49.7939 29.2811 47.5897 32 47.5897C34.7189 47.5897 36.9231 49.7939 36.9231 52.5128C36.9231 55.2318 34.7189 57.4359 32 57.4359C29.2811 57.4359 27.0769 55.2318 27.0769 52.5128ZM11.4872 27.0769C8.76825 27.0769 6.5641 29.2811 6.5641 32C6.5641 34.7189 8.76825 36.9231 11.4872 36.9231C14.2061 36.9231 16.4103 34.7189 16.4103 32C16.4103 29.2811 14.2061 27.0769 11.4872 27.0769ZM47.5897 32C47.5897 29.2811 49.7939 27.0769 52.5128 27.0769C55.2318 27.0769 57.4359 29.2811 57.4359 32C57.4359 34.7189 55.2318 36.9231 52.5128 36.9231C49.7939 36.9231 47.5897 34.7189 47.5897 32Z" fill="url(#paint0_linear_10625_21)"/>
<defs>
<linearGradient id="paint0_linear_10625_21" x1="31.4778" y1="104.161" x2="98.3333" y2="32.7167" gradientUnits="userSpaceOnUse">
<stop offset="0.26" stop-color="#9059FF"/>
<stop offset="0.96" stop-color="#00B3F4"/>
</linearGradient>
</defs>
</svg>
