<svg width="59" height="64" viewBox="0 0 59 64" fill="none" xmlns="http://www.w3.org/2000/svg">
<path d="M29.8662 0.00488281C31.4092 0.0534648 32.9213 0.441487 34.2969 1.13867L34.5898 1.29199L34.6309 1.31445L34.6719 1.33789L53.6855 12.126C55.2098 12.9678 56.4909 14.1807 57.415 15.6484L57.6006 15.9541L57.7754 16.2666C58.5978 17.7993 59.0179 19.5156 59 21.2549L59.001 42.7793C58.9957 44.6282 58.5037 46.4458 57.5723 48.0459C56.6408 49.6461 55.3012 50.974 53.6865 51.8906L53.6787 51.8955L53.6709 51.8994L34.6572 62.6191C33.1056 63.5111 31.3488 63.9877 29.5557 63.999L29.5566 64C29.5473 64.0001 29.5377 63.999 29.5283 63.999C29.5244 63.999 29.5205 64 29.5166 64L29.5156 63.999C27.6908 64.0085 25.9005 63.527 24.3281 62.6094L5.33203 51.8994L5.33301 51.8984C3.70575 50.9882 2.35554 49.6591 1.41992 48.0518C0.484617 46.445 -0.00313969 44.6187 0.00292969 42.7627L0.00195312 21.2373C0.00728275 19.3885 0.499301 17.5717 1.43066 15.9717L1.61035 15.6748C2.53102 14.2069 3.80247 12.9853 5.31641 12.126L5.3252 12.1211L24.4062 1.33398L24.4424 1.3125L24.4795 1.29199C26.0287 0.444732 27.7672 0 29.5352 0L29.8662 0.00488281ZM6.00195 42.7627C5.99583 43.5604 6.204 44.345 6.60449 45.0332C7.00522 45.7216 7.58391 46.2885 8.27832 46.6729L27.292 57.3926C27.9585 57.7964 28.7231 58.0071 29.501 58C30.2777 57.9981 31.0407 57.788 31.7109 57.3926L50.7246 46.6729C51.3271 46.3308 51.8415 45.8534 52.2285 45.2793L52.3867 45.0273C52.7865 44.3405 52.9986 43.5589 53.001 42.7627V21.2549C53.0206 20.4543 52.8172 19.6635 52.415 18.9727C52.0129 18.282 51.4277 17.7175 50.7246 17.3438L31.7109 6.55664C31.0431 6.19142 30.2951 6.00005 29.5352 6C28.7752 6 28.0272 6.19147 27.3594 6.55664L8.27832 17.3438L8.02539 17.499C7.44875 17.879 6.96607 18.3892 6.61621 18.9902C6.21639 19.6772 6.00424 20.4587 6.00195 21.2549V42.7627Z" fill="url(#paint0_linear_10625_44)"/>
<path fill-rule="evenodd" clip-rule="evenodd" d="M13.5194 22.4402C13.9718 21.6651 14.9669 21.4035 15.742 21.8559L17.0953 22.6457C17.8704 23.0981 18.132 24.0932 17.6796 24.8683C17.2272 25.6434 16.2322 25.905 15.4571 25.4526L14.1037 24.6627C13.3286 24.2103 13.067 23.2153 13.5194 22.4402ZM19.7447 26.0736C20.1971 25.2985 21.1922 25.0369 21.9673 25.4893L24.6739 27.0691C25.449 27.5215 25.7106 28.5165 25.2582 29.2916C24.8058 30.0667 23.8107 30.3283 23.0356 29.8759L20.329 28.2962C19.5539 27.8438 19.2923 26.8487 19.7447 26.0736ZM27.3233 30.4969C27.7757 29.7218 28.7707 29.4602 29.5458 29.9126L29.7714 30.0443C30.4301 29.9169 31.1261 30.2088 31.4835 30.8211C31.6763 31.1514 31.7394 31.5218 31.6883 31.8731C31.7394 32.2243 31.6763 32.5947 31.4835 32.9251C31.1261 33.5374 30.4301 33.8292 29.7714 33.7018L29.5458 33.8335C28.7707 34.2859 27.7757 34.0243 27.3233 33.2492C27.0697 32.8148 27.0404 32.3114 27.2001 31.8731C27.0404 31.4348 27.0697 30.9313 27.3233 30.4969ZM25.2582 34.4545C25.7106 35.2296 25.449 36.2247 24.6739 36.6771L21.9673 38.2568C21.1922 38.7092 20.1971 38.4476 19.7447 37.6725C19.2923 36.8974 19.5539 35.9024 20.329 35.45L23.0356 33.8702C23.8107 33.4178 24.8058 33.6794 25.2582 34.4545ZM17.6796 38.8778C18.132 39.6529 17.8704 40.648 17.0953 41.1004L15.742 41.8903C14.9669 42.3427 13.9718 42.0811 13.5194 41.306C13.067 40.5309 13.3286 39.5358 14.1037 39.0834L15.4571 38.2935C16.2322 37.8411 17.2272 38.1027 17.6796 38.8778Z" fill="url(#paint1_linear_10625_44)"/>
<path fill-rule="evenodd" clip-rule="evenodd" d="M45.9022 22.4402C46.3546 23.2153 46.093 24.2103 45.3179 24.6627L43.9645 25.4526C43.1894 25.905 42.1944 25.6434 41.742 24.8683C41.2896 24.0932 41.5512 23.0981 42.3263 22.6457L43.6796 21.8559C44.4547 21.4035 45.4498 21.6651 45.9022 22.4402ZM39.6769 26.0736C40.1293 26.8487 39.8677 27.8438 39.0926 28.2962L36.386 29.8759C35.6109 30.3283 34.6158 30.0667 34.1634 29.2916C33.711 28.5165 33.9726 27.5215 34.7477 27.0691L37.4543 25.4893C38.2294 25.0369 39.2245 25.2985 39.6769 26.0736ZM27.7333 31.8731C27.6822 32.2243 27.7453 32.5947 27.9381 32.9251C28.2955 33.5374 28.9915 33.8292 29.6502 33.7018L29.8758 33.8335C30.6509 34.2859 31.6459 34.0243 32.0983 33.2492C32.3519 32.8148 32.3811 32.3114 32.2215 31.8731C32.3811 31.4348 32.3519 30.9313 32.0983 30.4969C31.6459 29.7218 30.6509 29.4602 29.8758 29.9126L29.6502 30.0443C28.9915 29.9169 28.2955 30.2088 27.9381 30.8211C27.7453 31.1514 27.6822 31.5218 27.7333 31.8731ZM34.1634 34.4545C34.6158 33.6794 35.6109 33.4178 36.386 33.8702L39.0926 35.45C39.8677 35.9024 40.1293 36.8974 39.6769 37.6725C39.2245 38.4476 38.2294 38.7092 37.4543 38.2568L34.7477 36.6771C33.9726 36.2247 33.711 35.2296 34.1634 34.4545ZM41.742 38.8778C42.1944 38.1027 43.1894 37.8411 43.9645 38.2935L45.3179 39.0834C46.093 39.5358 46.3546 40.5309 45.9022 41.306C45.4498 42.0811 44.4547 42.3427 43.6796 41.8903L42.3263 41.1004C41.5512 40.648 41.2896 39.6529 41.742 38.8778Z" fill="url(#paint2_linear_10625_44)"/>
<path fill-rule="evenodd" clip-rule="evenodd" d="M29.7095 13.509C30.6069 13.509 31.3345 14.2366 31.3345 15.134L31.3345 48.934C31.3345 49.8315 30.6069 50.559 29.7095 50.559C28.812 50.559 28.0845 49.8315 28.0845 48.934V15.134C28.0845 14.2366 28.812 13.509 29.7095 13.509Z" fill="url(#paint3_linear_10625_44)"/>
<defs>
<linearGradient id="paint0_linear_10625_44" x1="29.02" y1="104.161" x2="96.0155" y2="38.1616" gradientUnits="userSpaceOnUse">
<stop offset="0.26" stop-color="#9059FF"/>
<stop offset="0.96" stop-color="#00B3F4"/>
</linearGradient>
<linearGradient id="paint1_linear_10625_44" x1="29.02" y1="104.161" x2="96.0155" y2="38.1616" gradientUnits="userSpaceOnUse">
<stop offset="0.26" stop-color="#9059FF"/>
<stop offset="0.96" stop-color="#00B3F4"/>
</linearGradient>
<linearGradient id="paint2_linear_10625_44" x1="29.02" y1="104.161" x2="96.0155" y2="38.1616" gradientUnits="userSpaceOnUse">
<stop offset="0.26" stop-color="#9059FF"/>
<stop offset="0.96" stop-color="#00B3F4"/>
</linearGradient>
<linearGradient id="paint3_linear_10625_44" x1="29.02" y1="104.161" x2="96.0155" y2="38.1616" gradientUnits="userSpaceOnUse">
<stop offset="0.26" stop-color="#9059FF"/>
<stop offset="0.96" stop-color="#00B3F4"/>
</linearGradient>
</defs>
</svg>
