<svg width="115" height="24" viewBox="0 0 115 24" fill="none" xmlns="http://www.w3.org/2000/svg">
<path d="M8.90823 0L11.9592 15.0102H13.0523L16.1033 0H25.0116V23.6411H20.1496V4.14412H19.0564L14.8144 23.6411H10.2135L5.97145 4.14412H4.87831V23.6411H0V0H8.90823ZM36.8239 5.00884C42.4364 5.00884 45.6995 8.36982 45.6995 14.5044C45.6995 20.639 42.4528 24 36.8239 24C31.1951 24 27.9483 20.639 27.9483 14.5044C27.9647 8.3535 31.2114 5.00884 36.8239 5.00884ZM36.8239 20.2148C39.3528 20.2148 40.5602 18.8443 40.5602 15.826V13.1502C40.5602 10.1319 39.3691 8.76139 36.8239 8.76139C34.2787 8.76139 33.0877 10.1319 33.0877 13.1502V15.826C33.104 18.8443 34.295 20.2148 36.8239 20.2148ZM47.69 20.1169L56.9735 8.87559H47.8205V5.35146H62.7655V8.87559L53.482 20.1169H62.896V23.6411H47.69V20.1169ZM65.4412 5.35146H72.2937V23.6411H67.4317V8.87559H65.4412V5.35146ZM67.4317 0H72.2937V3.52413H67.4317V0ZM75.5078 0H82.3603V23.6411H77.4983V3.52413H75.5078V0ZM85.5908 0H92.4432V23.6411H87.5812V3.52413H85.5908V0ZM102.885 5.00884C105.593 5.00884 107.372 6.3467 107.894 8.67981H108.987V5.35146H114.779V8.87559H112.789V20.1169H114.779V23.6411H112.005C110.048 23.6411 108.987 22.5806 108.987 20.6227V20.3127H107.894C107.372 22.6458 105.593 23.9837 102.885 23.9837C98.6105 23.9837 95.5921 20.3453 95.5921 14.4881C95.5921 8.63086 98.6105 5.00884 102.885 5.00884ZM104.321 20.2148C106.785 20.2148 107.91 18.8443 107.91 15.826V13.1502C107.91 10.1319 106.785 8.76139 104.321 8.76139C101.857 8.76139 100.731 10.1319 100.731 13.1502V15.826C100.731 18.8443 101.857 20.2148 104.321 20.2148Z" fill="black"/>
</svg>
