<svg width="152" height="114" viewBox="0 0 152 114" fill="none" xmlns="http://www.w3.org/2000/svg">
<path opacity="0.5" fill-rule="evenodd" clip-rule="evenodd" d="M62.4994 6.00036C81.2154 4.91472 97.717 19.5102 108.499 35.0004C118.427 49.2626 122.315 67.5853 116.499 84.0004C111.287 98.7131 95.9902 104.527 81.4994 110C69.1196 114.676 56.1392 114.902 43.4994 111C26.8738 105.868 6.22893 101.898 1.49938 85.0004C-3.31922 67.7847 12.5798 54.0864 23.4994 40.0004C34.616 25.6601 44.4973 7.04459 62.4994 6.00036Z" fill="#D9BFFF"/>
<path d="M116.499 53.9997C114.256 36.1207 102.969 22.5786 87.4991 19.9997C80.0303 18.7493 68.8642 18.4655 58.4991 21.9997C48.3058 25.473 41.3409 32.1528 37.4991 41.9997C31.4313 57.5428 32.4833 75.5825 41.4991 87.9997C47.2661 95.9275 60.9282 102 74.4991 102C81.581 102 88.6461 100.194 94.4991 95.9997C111.869 88.1413 118.441 69.4646 116.499 53.9997Z" fill="#9059FF"/>
<path d="M74.5 40V80" stroke="white" stroke-width="2"/>
<path fill-rule="evenodd" clip-rule="evenodd" d="M58.5 46L74.5 40L90.5 46C90.5 46 90.5 52 90.5 60C90.5 68 80.5 80 74.5 80C68.5 80 58.5 68 58.5 60C58.5 52 58.5 46 58.5 46Z" stroke="white" stroke-width="2" stroke-linecap="round" stroke-linejoin="round"/>
<path d="M57.4997 19.9996C57.5458 21.1509 57.5016 21.9485 57.4997 23.9996C57.4993 24.179 57.4997 23.82 57.4997 23.9996C57.4988 25.6327 57.4613 26.9523 57.4997 27.9996C57.5187 28.5198 57.9753 29.0185 58.4997 28.9996C59.0242 28.9807 59.5187 28.5198 59.4997 27.9996C59.4627 26.9816 59.4988 25.611 59.4997 23.9996C59.4993 24.1789 59.4997 23.8205 59.4997 23.9996C59.5016 21.9233 59.5468 21.1845 59.4997 19.9996C59.4788 19.4795 59.0237 18.9791 58.4997 18.9996C57.9753 19.0202 57.4788 19.4795 57.4997 19.9996Z" fill="#FCD400"/>
<path d="M55.501 25.0005C56.0133 25.028 56.746 24.9796 57.501 25.0005C57.3254 24.9957 57.5979 25.0031 57.501 25.0005C59.0542 25.0422 59.679 24.9271 60.501 25.0005C60.9924 25.0443 61.4567 24.4894 61.501 24.0005C61.5447 23.5115 60.9928 23.0443 60.501 23.0005C59.6294 22.9226 59.0917 23.0433 57.501 23.0005C57.3259 22.9958 57.5979 23.0031 57.501 23.0005C56.7608 22.98 55.9941 23.0269 55.501 23.0005C55.0082 22.974 54.5273 23.5103 54.501 24.0005C54.4742 24.4907 55.0082 24.974 55.501 25.0005Z" fill="#FCD400"/>
<path d="M117.501 68.0001C118.184 67.9713 118.268 67.9722 119.501 68.0001C119.694 68.005 120.392 67.9981 120.501 68.0001C121.479 68.0211 121.827 68.0323 122.501 68.0001C123.014 67.9752 123.524 67.5394 123.501 67.0001C123.477 66.4613 123.013 65.9757 122.501 66.0001C121.877 66.0304 121.441 66.0201 120.501 66.0001C120.394 65.9976 119.693 66.005 119.501 66.0001C118.23 65.9713 118.235 65.9688 117.501 66.0001C116.988 66.0216 116.48 66.4608 116.501 67.0001C116.521 67.5394 116.987 68.0221 117.501 68.0001Z" fill="#EAF3F3"/>
<path d="M121.5 69.9998C121.51 69.5268 121.496 68.6748 121.5 67.9998C121.499 68.2074 121.5 67.8845 121.5 67.9998C121.507 66.433 121.459 65.83 121.5 64.9998C121.525 64.4888 121.029 64.0239 120.5 63.9998C119.97 63.9758 119.525 64.4884 119.5 64.9998C119.457 65.8652 119.507 66.4066 119.5 67.9998C119.499 68.2074 119.5 67.8849 119.5 67.9998C119.496 68.6656 119.51 69.5389 119.5 69.9998C119.488 70.5113 119.97 70.9892 120.5 70.9998C121.029 71.011 121.488 70.5113 121.5 69.9998Z" fill="#EAF3F3"/>
<path d="M110.5 8.99998C110.526 9.54214 110.445 10.1643 110.5 11C110.492 10.8821 110.508 11.118 110.5 11C110.635 13.0404 110.5 13.8568 110.5 15C110.5 15.4805 111.033 16 111.5 16C111.967 16 112.5 15.4805 112.5 15C112.5 13.8045 112.637 13.0794 112.5 11C112.492 10.8822 112.508 11.1176 112.5 11C112.446 10.1738 112.526 9.52926 112.5 8.99998C112.476 8.52006 111.966 7.97592 111.5 7.99998C111.034 8.02399 110.476 8.52011 110.5 8.99998Z" fill="#90BFFF"/>
<path d="M109.5 12.9995C110.449 13.1051 110.819 13.103 112.5 12.9995C112.894 12.9753 113.281 13.0107 113.5 12.9995C113.924 12.9778 114.165 12.9995 114.5 12.9995C115.002 12.9995 115.5 12.5067 115.5 11.9995C115.5 11.4924 115.002 10.9995 114.5 10.9995C114.13 10.9995 113.952 10.9764 113.5 10.9995C113.273 11.0112 112.9 10.9749 112.5 10.9995C110.923 11.0966 110.31 11.0898 109.5 10.9995C109.001 10.944 108.555 11.4955 108.5 11.9995C108.445 12.5036 109.001 12.944 109.5 12.9995Z" fill="#90BFFF"/>
<path d="M27.5002 93C27.5264 93.542 27.4448 94.1644 27.5002 95C27.4926 94.8826 27.5078 95.1184 27.5002 95C27.6351 97.0406 27.5002 97.8568 27.5002 99C27.5002 99.4803 28.0333 100 28.5002 100C28.9675 100 29.5002 99.4803 29.5002 99C29.5002 97.8046 29.6376 97.0794 29.5002 95C29.4926 94.8821 29.5082 95.1175 29.5002 95C29.4461 94.174 29.526 93.5294 29.5002 93C29.4769 92.5202 28.9671 91.9761 28.5002 92C28.0338 92.0244 27.4769 92.5202 27.5002 93Z" fill="#90BFFF"/>
<path d="M26.4999 96.9995C27.448 97.1051 27.819 97.1033 29.4999 96.9995C29.7312 96.9853 30.3703 97.0069 30.4999 96.9995C31.0908 96.9651 31.0835 96.9995 31.4999 96.9995C32.0017 96.9995 32.4999 96.5068 32.4999 95.9995C32.4999 95.4922 32.0017 94.9995 31.4999 94.9995C31.0421 94.9995 31.1221 94.9632 30.4999 94.9995C30.3676 95.0069 29.7335 94.9848 29.4999 94.9995C27.9231 95.0964 27.3103 95.09 26.4999 94.9995C26.0008 94.944 25.5549 95.4954 25.4999 95.9995C25.4449 96.5036 26.0008 96.944 26.4999 96.9995Z" fill="#90BFFF"/>
<path fill-rule="evenodd" clip-rule="evenodd" d="M120.5 46.0003C120.57 47.0906 122.406 47.0884 122.5 46.0003C122.72 43.4738 123.789 42.1555 125.5 42.0003C125.357 42.0096 125.637 41.9981 125.5 42.0003C126.637 41.9239 126.639 40.0003 125.5 40.0003C125.349 40.0003 125.645 39.9893 125.5 40.0003C123.68 40.0149 122.909 40.133 122.5 38.0003C122.481 37.9016 122.549 37.2608 122.5 37.0003C122.455 36.7598 122.531 37.151 122.5 37.0003C122.293 35.9836 120.555 35.9641 120.5 37.0003C120.492 37.1533 120.508 36.7357 120.5 37.0003C120.489 37.3573 120.519 37.8187 120.5 38.0003C120.454 38.4406 120.735 38.5887 120.5 39.0003C120.085 39.7251 118.741 40.0207 117.5 40.0003C116.365 39.9822 116.369 41.8987 117.5 42.0003C118.968 42.1325 119.331 42.6764 119.5 43.0003C120.019 44.0102 120.426 44.8606 120.5 46.0003ZM125.5 40.0003C125.377 40.0087 125.614 39.999 125.5 40.0003C125.395 39.9592 125.636 39.9986 125.5 40.0003ZM125.5 42.0003C125.386 42.0003 125.607 41.9915 125.5 42.0003C125.404 42.0454 125.626 41.9902 125.5 42.0003ZM120.5 41.0003C120.866 40.7418 121.251 40.3738 121.5 40.0003C121.767 40.4772 122.088 40.7126 122.5 41.0003C122.131 41.3314 121.764 42.5372 121.5 43.0003C121.414 42.8037 121.598 42.1917 121.5 42.0003C121.334 41.6822 120.808 41.224 120.5 41.0003Z" fill="#FCD400"/>
<path fill-rule="evenodd" clip-rule="evenodd" d="M18.5003 68.0004C19.6376 67.9253 19.6403 66.0004 18.5003 66.0004C18.3519 66.0004 18.6434 65.9894 18.5003 66.0004C16.669 66.0155 15.9115 66.1509 15.5003 64.0004C15.4822 63.9063 15.5462 63.247 15.5003 63.0004C15.4552 62.7587 15.5307 63.1511 15.5003 63.0004C15.2935 61.9836 13.555 61.9641 13.5003 63.0004C13.4923 63.1529 13.5082 62.7371 13.5003 63.0004C13.4901 63.3509 13.5184 63.8219 13.5003 64.0004C13.4548 64.4481 13.737 64.5855 13.5003 65.0004C13.0842 65.7252 11.7379 66.0247 10.5003 66.0004C9.36467 65.9788 9.36953 67.8961 10.5003 68.0004C11.9702 68.1366 12.3311 68.6769 12.5003 69.0004C13.017 70.0103 13.4252 70.8603 13.5003 72.0004C13.5727 73.0898 15.4053 73.0876 15.5003 72.0004C15.7202 69.4713 16.7861 68.1529 18.5003 68.0004C18.6345 67.9982 18.3594 68.0097 18.5003 68.0004ZM18.5003 66.0004C18.3788 66.0084 18.6129 65.9991 18.5003 66.0004C18.396 65.9607 18.6337 65.9987 18.5003 66.0004ZM18.5003 68.0004C18.3881 68.0004 18.6058 67.992 18.5003 68.0004C18.4053 68.0438 18.6235 67.9907 18.5003 68.0004ZM13.5003 67.0004C13.866 66.7419 14.2516 66.3743 14.5003 66.0004C14.7666 66.4777 15.0877 66.7132 15.5003 67.0004C15.1314 67.3319 14.7648 68.5369 14.5003 69.0004C14.415 68.8038 14.5983 68.1914 14.5003 68.0004C14.3337 67.6814 13.8086 67.2245 13.5003 67.0004Z" fill="#EAF3F3"/>
<path d="M72.5 12C72.5 11.5187 72.0525 11 71.5 11C70.948 11 70.5 11.5187 70.5 12C70.5 12.4813 70.948 13 71.5 13C72.0525 13 72.5 12.4813 72.5 12Z" fill="#90BFFF"/>
<path d="M139.5 58C139.5 57.5185 139.052 57 138.5 57C137.947 57 137.5 57.5185 137.5 58C137.5 58.4815 137.947 59 138.5 59C139.052 59 139.5 58.4815 139.5 58Z" fill="#90BFFF"/>
<path d="M136.5 25C136.5 24.5177 136.052 24 135.5 24C134.947 24 134.5 24.5177 134.5 25C134.5 25.4824 134.947 26 135.5 26C136.052 26 136.5 25.4824 136.5 25Z" fill="#EAF3F3"/>
<path d="M142.5 34C142.5 33.5187 142.052 33 141.5 33C140.947 33 140.5 33.5187 140.5 34C140.5 34.4813 140.947 35 141.5 35C142.052 35 142.5 34.4813 142.5 34Z" fill="#4E6AF0"/>
<path d="M130.5 5C130.5 4.51869 130.053 4 129.5 4C128.947 4 128.5 4.51869 128.5 5C128.5 5.48131 128.947 6 129.5 6C130.053 6 130.5 5.48131 130.5 5Z" fill="#FCD400"/>
<path d="M8.5 78C8.5 77.5175 8.052 77 7.5 77C6.9475 77 6.5 77.5175 6.5 78C6.5 78.4825 6.9475 79 7.5 79C8.052 79 8.5 78.4825 8.5 78Z" fill="#FCD400"/>
<path d="M39.5 28C39.5 27.485 39.0525 27 38.5 27C37.948 27 37.5 27.485 37.5 28C37.5 28.515 37.948 29 38.5 29C39.0525 29 39.5 28.515 39.5 28Z" fill="#EAF3F3"/>
<path d="M45.5 6C45.5 5.48623 45.0525 5 44.5 5C43.948 5 43.5 5.48623 43.5 6C43.5 6.51377 43.948 7 44.5 7C45.0525 7 45.5 6.51377 45.5 6Z" fill="#4E6AF0"/>
<path d="M100.5 14C100.5 13.5473 100.053 13 99.5 13C98.948 13 98.5 13.5473 98.5 14C98.5 14.4527 98.948 15 99.5 15C100.053 15 100.5 14.4527 100.5 14Z" fill="#EAF3F3"/>
<path d="M90.5 1C90.5 0.517686 90.0525 0 89.5 0C88.948 0 88.5 0.517686 88.5 1C88.5 1.48236 88.948 2 89.5 2C90.0525 2 90.5 1.48236 90.5 1Z" fill="#FCD400"/>
<path d="M131.5 92C131.5 91.5185 131.053 91 130.5 91C129.947 91 129.5 91.5185 129.5 92C129.5 92.481 129.947 93 130.5 93C131.053 93 131.5 92.481 131.5 92Z" fill="#FCD400"/>
<path d="M21.5 45C21.5 44.5023 21.0525 44 20.5 44C19.948 44 19.5 44.5023 19.5 45C19.5 45.4977 19.948 46 20.5 46C21.0525 46 21.5 45.4977 21.5 45Z" fill="#90BFFF"/>
<path d="M124.5 79C124.5 78.5023 124.052 78 123.5 78C122.947 78 122.5 78.5023 122.5 79C122.5 79.4973 122.947 80 123.5 80C124.052 80 124.5 79.4973 124.5 79Z" fill="#4E6AF0"/>
<path d="M29.5 72C29.5 71.5011 29.052 71 28.5 71C27.9475 71 27.5 71.5011 27.5 72C27.5 72.4989 27.9475 73 28.5 73C29.052 73 29.5 72.4989 29.5 72Z" fill="#4E6AF0"/>
<path d="M113.5 56C113.5 55.5023 113.053 55 112.5 55C111.947 55 111.5 55.5023 111.5 56C111.5 56.4973 111.947 57 112.5 57C113.053 57 113.5 56.4973 113.5 56Z" fill="#EAF3F3"/>
<path d="M11.5 92C11.5 91.5023 11.052 91 10.5 91C9.9475 91 9.5 91.5023 9.5 92C9.5 92.4973 9.9475 93 10.5 93C11.052 93 11.5 92.4973 11.5 92Z" fill="#EAF3F3"/>
</svg>
