<svg width="1068" height="341" viewBox="0 0 1068 341" fill="none" xmlns="http://www.w3.org/2000/svg">
<mask id="mask0_135_2418" style="mask-type:alpha" maskUnits="userSpaceOnUse" x="-1" y="-1" width="1069" height="342">
<path d="M0 5.53086C0 2.47625 2.47625 0 5.53086 0H1061.47C1064.52 0 1067 2.47625 1067 5.53086V334.469C1067 337.524 1064.52 340 1061.47 340H5.53088C2.47627 340 0 337.524 0 334.469V5.53086Z" fill="white"/>
<path d="M1061.47 -0.345679H5.53086C2.28534 -0.345679 -0.345679 2.28534 -0.345679 5.53086V334.469C-0.345679 337.715 2.28535 340.346 5.53088 340.346H1061.47C1064.71 340.346 1067.35 337.715 1067.35 334.469V5.53086C1067.35 2.28534 1064.71 -0.345679 1061.47 -0.345679Z" stroke="black" stroke-opacity="0.1" stroke-width="0.691358"/>
</mask>
<g mask="url(#mask0_135_2418)">
<path opacity="0.05" d="M359.943 222.783C194.335 236.179 65.7916 228.253 0 204.234V385.294C84.4937 408.48 201.575 410.282 271.506 408.48C391.487 405.389 747.487 350.258 893.943 360.047C978.332 365.688 1003.22 369.837 1068 385.294V204.234C979.676 180.739 869.346 178.643 825.221 180.533C681.537 185.559 514.848 207.325 359.943 222.783Z" fill="#C689FF"/>
</g>
</svg>
