<svg width="142" height="114" viewBox="0 0 142 114" fill="none" xmlns="http://www.w3.org/2000/svg">
<path opacity="0.5" fill-rule="evenodd" clip-rule="evenodd" d="M61.8861 5.99999C80.6021 4.91435 97.1038 19.5099 107.886 35C117.814 49.2623 121.702 67.5849 115.886 84C110.673 98.7127 95.3769 104.527 80.8861 110C68.5063 114.676 55.5259 114.902 42.8861 111C26.2605 105.867 5.61565 101.897 0.886098 85C-3.9325 67.7844 11.9665 54.086 22.8861 40C34.0028 25.6598 43.884 7.04422 61.8861 5.99999Z" fill="#D9BFFF"/>
<path d="M115.886 54C113.643 36.1211 102.356 22.579 86.8858 20C79.4171 18.7496 68.2509 18.4659 57.8858 22C47.6926 25.4733 40.7276 32.1531 36.8858 42C30.818 57.5432 31.87 75.5829 40.8858 88C46.6528 95.9279 60.3149 102 73.8858 102C80.9677 102 88.0328 100.194 93.8858 96C111.256 88.1416 117.828 69.465 115.886 54Z" fill="#9059FF"/>
<path d="M61.4067 100L61.4067 97.1778L61.4067 80.9181C61.6037 79.0221 60.7033 77.1795 59.0865 76.1698L53.0075 72.3736L49.607 69.7828C48.9233 69.2619 48.4932 68.4749 48.424 67.6181C48.2894 65.9514 49.5315 64.4911 51.1983 64.3565L50.1558 63.2997C49.4775 62.612 49.1913 61.6288 49.3947 60.6845C49.7278 59.1376 51.2519 58.1536 52.7988 58.4868C51.8629 57.9464 51.2509 56.982 51.1607 55.905C51.0086 54.0893 52.3572 52.494 54.173 52.3419L54.7657 52.2923L54.4478 51.6784C54.0426 50.8958 53.8623 50.0162 53.927 49.1373C54.1202 46.5123 56.4047 44.541 59.0296 44.7341L64.4515 45.1331C66.4783 45.2822 68.4452 45.8874 70.2052 46.9036L80.407 52.7936L83.9314 41.7206C84.7349 39.1961 86.5319 37.1078 88.9084 35.937C89.3019 35.7431 89.7441 35.6706 90.1789 35.7286C91.3901 35.8902 92.241 37.0032 92.0793 38.2144L88.366 66.0371C88.3644 66.049 88.3629 66.0609 88.3613 66.0728L86.1975 82.6227L86.1992 97.1778L86.1992 100" stroke="white"/>
<path d="M69.4441 52.5541C71.3624 53.6617 72.3428 55.8839 71.8675 58.0475C71.5395 59.5405 70.1424 60.5228 68.657 60.3667C69.0652 61.4313 68.9344 62.6757 68.2007 63.6559C67.3441 64.8003 66.0048 65.3946 64.6585 65.341C65.0645 66.3516 64.9268 67.5463 64.1948 68.4548C63.0355 69.8937 61.0649 70.3512 59.4078 69.6174C59.5442 70.4387 59.2996 71.3117 58.6716 71.9511C57.3632 73.2833 55.3267 73.5722 53.7013 72.6629L53.6521 72.6349L50.525 69.9082L50.5697 69.6094L54.1916 71.7005C55.399 72.3976 56.9249 72.1897 57.9018 71.1951C58.5281 70.5575 58.5188 69.5329 57.8812 68.9067C57.7977 68.8247 57.7056 68.752 57.6065 68.6899L57.5564 68.6598L54.7391 67.0332L54.7757 66.9697L51.0704 64.7797L51.6159 63.6559L59.5598 68.4861C60.8265 69.2173 62.437 68.9168 63.3546 67.7779C64.0389 66.9285 63.928 65.6963 63.1188 64.9815C63.0036 64.9303 62.89 64.8736 62.7782 64.8112L62.7226 64.7797L52.7068 58.4539L53.2522 57.7372L61.6249 62.9L61.809 63.0094L63.3279 63.8093C63.4514 63.8806 63.5698 63.9603 63.6823 64.0478C64.9764 64.5581 66.4808 64.1532 67.3369 63.0094C68.116 61.9685 67.9038 60.4932 66.8629 59.7141C66.8068 59.6722 66.749 59.6327 66.6894 59.596L66.6293 59.5601L63.5575 57.7866L63.5859 57.7372L55.434 52.9995L55.4341 51.9086L68.0171 59.0497C68.1854 59.1469 68.3677 59.2176 68.5576 59.2593C69.5792 59.4837 70.5892 58.8375 70.8136 57.816C71.184 56.1301 70.4324 54.3991 68.9536 53.5173L68.9046 53.4885L63.6084 50.4308L64.1478 49.4964L69.4441 52.5541Z" fill="white"/>
<path d="M67.788 73.2094C69.8154 64.8453 74.6777 60.0695 82.3097 58.976" stroke="white"/>
<path d="M56.8855 20C56.9316 21.1512 56.8874 21.9489 56.8855 24C56.885 24.1794 56.8855 23.8204 56.8855 24C56.8845 25.6331 56.847 26.9527 56.8855 28C56.9045 28.5202 57.361 29.0189 57.8855 29C58.41 28.9811 58.9045 28.5202 58.8855 28C58.8484 26.982 58.8845 25.6113 58.8855 24C58.885 24.1793 58.8855 23.8209 58.8855 24C58.8874 21.9237 58.9325 21.1849 58.8855 20C58.8646 19.4799 58.4095 18.9795 57.8855 19C57.361 19.0206 56.8646 19.4799 56.8855 20Z" fill="#FCD400"/>
<path d="M54.8857 25C55.3981 25.0275 56.1308 24.9792 56.8857 25C56.7102 24.9953 56.9827 25.0027 56.8857 25C58.439 25.0418 59.0638 24.9267 59.8857 25C60.3771 25.0439 60.8415 24.489 60.8857 24C60.9295 23.5111 60.3776 23.0439 59.8857 23C59.0142 22.9222 58.4765 23.0428 56.8857 23C56.7106 22.9954 56.9827 23.0027 56.8857 23C56.1455 22.9796 55.3789 23.0265 54.8857 23C54.393 22.9736 53.9121 23.5098 53.8857 24C53.8589 24.4902 54.393 24.9736 54.8857 25Z" fill="#FCD400"/>
<path d="M116.885 68C117.569 67.9712 117.653 67.9722 118.885 68C119.079 68.0049 119.777 67.9981 119.885 68C120.863 68.021 121.212 68.0323 121.885 68C122.399 67.9751 122.909 67.5393 122.885 67C122.862 66.4612 122.398 65.9756 121.885 66C121.262 66.0303 120.826 66.02 119.885 66C119.778 65.9976 119.078 66.0049 118.885 66C117.615 65.9712 117.62 65.9688 116.885 66C116.373 66.0215 115.865 66.4607 115.885 67C115.906 67.5393 116.372 68.022 116.885 68Z" fill="#EAF3F3"/>
<path d="M120.885 70C120.896 69.527 120.881 68.675 120.885 68C120.884 68.2076 120.886 67.8847 120.885 68C120.893 66.4332 120.845 65.8302 120.885 65C120.91 64.489 120.414 64.0241 119.885 64C119.356 63.9759 118.91 64.4886 118.885 65C118.843 65.8654 118.893 66.4068 118.885 68C118.884 68.2076 118.886 67.8851 118.885 68C118.881 68.6658 118.895 69.5391 118.885 70C118.874 70.5115 119.356 70.9894 119.885 71C120.415 71.0111 120.874 70.5115 120.885 70Z" fill="#EAF3F3"/>
<path d="M109.886 8.99998C109.912 9.54214 109.831 10.1643 109.886 11C109.878 10.8821 109.894 11.118 109.886 11C110.021 13.0404 109.886 13.8568 109.886 15C109.886 15.4805 110.419 16 110.886 16C111.353 16 111.886 15.4805 111.886 15C111.886 13.8045 112.023 13.0794 111.886 11C111.878 10.8822 111.894 11.1176 111.886 11C111.832 10.1738 111.912 9.52926 111.886 8.99998C111.862 8.52006 111.352 7.97592 110.886 7.99998C110.419 8.02399 109.862 8.52011 109.886 8.99998Z" fill="#90BFFF"/>
<path d="M108.886 13C109.834 13.1056 110.205 13.1035 111.886 13C112.28 12.9758 112.667 13.0112 112.886 13C113.31 12.9783 113.551 13 113.886 13C114.388 13 114.886 12.5072 114.886 12C114.886 11.4929 114.388 11 113.886 11C113.516 11 113.337 10.9769 112.886 11C112.658 11.0116 112.286 10.9754 111.886 11C110.309 11.097 109.696 11.0903 108.886 11C108.386 10.9445 107.941 11.496 107.886 12C107.831 12.5041 108.386 12.9445 108.886 13Z" fill="#90BFFF"/>
<path d="M26.8859 93C26.9122 93.542 26.8305 94.1644 26.8859 95C26.8783 94.8826 26.8936 95.1184 26.8859 95C27.0208 97.0406 26.8859 97.8568 26.8859 99C26.8859 99.4803 27.4191 100 27.8859 100C28.3532 100 28.8859 99.4803 28.8859 99C28.8859 97.8046 29.0234 97.0794 28.8859 95C28.8783 94.8821 28.894 95.1175 28.8859 95C28.8318 94.174 28.9117 93.5294 28.8859 93C28.8627 92.5202 28.3528 91.9761 27.8859 92C27.4195 92.0244 26.8627 92.5202 26.8859 93Z" fill="#90BFFF"/>
<path d="M25.8856 97C26.8338 97.1056 27.2047 97.1038 28.8856 97C29.117 96.9858 29.7561 97.0074 29.8856 97C30.4765 96.9656 30.4693 97 30.8856 97C31.3874 97 31.8856 96.5073 31.8856 96C31.8856 95.4927 31.3874 95 30.8856 95C30.4279 95 30.5079 94.9637 29.8856 95C29.7533 95.0074 29.1192 94.9853 28.8856 95C27.3088 95.0969 26.6961 95.0905 25.8856 95C25.3865 94.9445 24.9406 95.4959 24.8856 96C24.8306 96.5041 25.3865 96.9445 25.8856 97Z" fill="#90BFFF"/>
<path fill-rule="evenodd" clip-rule="evenodd" d="M119.886 46C119.956 47.0902 121.791 47.088 121.886 46C122.106 43.4734 123.175 42.1551 124.886 42C124.742 42.0093 125.022 41.9978 124.886 42C126.022 41.9235 126.025 40 124.886 40C124.735 40 125.031 39.9889 124.886 40C123.066 40.0146 122.295 40.1327 121.886 38C121.867 37.9012 121.934 37.2605 121.886 37C121.841 36.7595 121.916 37.1506 121.886 37C121.679 35.9832 119.941 35.9638 119.886 37C119.877 37.1529 119.894 36.7353 119.886 37C119.875 37.3569 119.905 37.8183 119.886 38C119.839 38.4402 120.121 38.5884 119.886 39C119.471 39.7247 118.127 40.0203 116.886 40C115.751 39.9819 115.755 41.8983 116.886 42C118.354 42.1321 118.717 42.676 118.886 43C119.404 44.0098 119.812 44.8602 119.886 46ZM124.886 40C124.763 40.0084 125 39.9987 124.886 40C124.78 39.9589 125.021 39.9982 124.886 40ZM124.886 42C124.771 42 124.993 41.9911 124.886 42C124.79 42.0451 125.011 41.9898 124.886 42ZM119.886 41C120.252 40.7415 120.637 40.3734 120.886 40C121.153 40.4768 121.474 40.7123 121.886 41C121.517 41.331 121.15 42.5368 120.886 43C120.8 42.8033 120.984 42.1913 120.886 42C120.719 41.6818 120.194 41.2236 119.886 41Z" fill="#FCD400"/>
<path fill-rule="evenodd" clip-rule="evenodd" d="M17.886 68C19.0234 67.9249 19.026 66 17.886 66C17.7376 66 18.0291 65.989 17.886 66C16.0548 66.015 15.2972 66.1505 14.886 64C14.8679 63.9059 14.9319 63.2466 14.886 63C14.8409 62.7583 14.9165 63.1507 14.886 63C14.6793 61.9831 12.9408 61.9637 12.886 63C12.8781 63.1525 12.894 62.7366 12.886 63C12.8758 63.3505 12.9041 63.8215 12.886 64C12.8405 64.4477 13.1227 64.585 12.886 65C12.4699 65.7248 11.1236 66.0243 9.886 66C8.75041 65.9784 8.75527 67.8957 9.886 68C11.3559 68.1361 11.7168 68.6765 11.886 69C12.4028 70.0098 12.8109 70.8598 12.886 72C12.9584 73.0894 14.791 73.0872 14.886 72C15.106 69.4708 16.1718 68.1525 17.886 68C18.0203 67.9978 17.7451 68.0093 17.886 68ZM17.886 66C17.7645 66.008 17.9986 65.9987 17.886 66C17.7818 65.9602 18.0194 65.9982 17.886 66ZM17.886 68C17.7738 68 17.9916 67.9916 17.886 68C17.791 68.0433 18.0092 67.9903 17.886 68ZM12.886 67C13.2517 66.7415 13.6373 66.3739 13.886 66C14.1523 66.4773 14.4735 66.7128 14.886 67C14.5172 67.3315 14.1506 68.5364 13.886 69C13.8008 68.8034 13.9841 68.1909 13.886 68C13.7195 67.6809 13.1943 67.2241 12.886 67Z" fill="#EAF3F3"/>
<path d="M71.8857 12C71.8857 11.5187 71.4382 11 70.8857 11C70.3337 11 69.8857 11.5187 69.8857 12C69.8857 12.4813 70.3337 13 70.8857 13C71.4382 13 71.8857 12.4813 71.8857 12Z" fill="#90BFFF"/>
<path d="M138.886 58C138.886 57.5185 138.438 57 137.886 57C137.333 57 136.886 57.5185 136.886 58C136.886 58.4815 137.333 59 137.886 59C138.438 59 138.886 58.4815 138.886 58Z" fill="#90BFFF"/>
<path d="M135.886 25C135.886 24.5177 135.438 24 134.886 24C134.333 24 133.886 24.5177 133.886 25C133.886 25.4824 134.333 26 134.886 26C135.438 26 135.886 25.4824 135.886 25Z" fill="#EAF3F3"/>
<path d="M141.886 34C141.886 33.5187 141.438 33 140.886 33C140.333 33 139.886 33.5187 139.886 34C139.886 34.4813 140.333 35 140.886 35C141.438 35 141.886 34.4813 141.886 34Z" fill="#4E6AF0"/>
<path d="M129.886 5C129.886 4.51869 129.438 4 128.886 4C128.333 4 127.886 4.51869 127.886 5C127.886 5.48131 128.333 6 128.886 6C129.438 6 129.886 5.48131 129.886 5Z" fill="#FCD400"/>
<path d="M7.88574 78C7.88574 77.5175 7.43774 77 6.88574 77C6.33324 77 5.88574 77.5175 5.88574 78C5.88574 78.4825 6.33324 79 6.88574 79C7.43774 79 7.88574 78.4825 7.88574 78Z" fill="#FCD400"/>
<path d="M38.8857 28C38.8857 27.485 38.4382 27 37.8857 27C37.3337 27 36.8857 27.485 36.8857 28C36.8857 28.515 37.3337 29 37.8857 29C38.4382 29 38.8857 28.515 38.8857 28Z" fill="#EAF3F3"/>
<path d="M44.8857 6C44.8857 5.48623 44.4382 5 43.8857 5C43.3337 5 42.8857 5.48623 42.8857 6C42.8857 6.51377 43.3337 7 43.8857 7C44.4382 7 44.8857 6.51377 44.8857 6Z" fill="#4E6AF0"/>
<path d="M99.8857 14C99.8857 13.5473 99.4382 13 98.8857 13C98.3337 13 97.8857 13.5473 97.8857 14C97.8857 14.4527 98.3337 15 98.8857 15C99.4382 15 99.8857 14.4527 99.8857 14Z" fill="#EAF3F3"/>
<path d="M89.8857 1C89.8857 0.517686 89.4382 0 88.8857 0C88.3337 0 87.8857 0.517686 87.8857 1C87.8857 1.48236 88.3337 2 88.8857 2C89.4382 2 89.8857 1.48236 89.8857 1Z" fill="#FCD400"/>
<path d="M130.886 92C130.886 91.5185 130.438 91 129.886 91C129.333 91 128.886 91.5185 128.886 92C128.886 92.481 129.333 93 129.886 93C130.438 93 130.886 92.481 130.886 92Z" fill="#FCD400"/>
<path d="M20.8857 45C20.8857 44.5023 20.4382 44 19.8857 44C19.3337 44 18.8857 44.5023 18.8857 45C18.8857 45.4977 19.3337 46 19.8857 46C20.4382 46 20.8857 45.4977 20.8857 45Z" fill="#90BFFF"/>
<path d="M123.886 79C123.886 78.5023 123.438 78 122.886 78C122.333 78 121.886 78.5023 121.886 79C121.886 79.4973 122.333 80 122.886 80C123.438 80 123.886 79.4973 123.886 79Z" fill="#4E6AF0"/>
<path d="M28.8857 72C28.8857 71.5011 28.4377 71 27.8857 71C27.3332 71 26.8857 71.5011 26.8857 72C26.8857 72.4989 27.3332 73 27.8857 73C28.4377 73 28.8857 72.4989 28.8857 72Z" fill="#4E6AF0"/>
<path d="M112.886 56C112.886 55.5023 112.438 55 111.886 55C111.333 55 110.886 55.5023 110.886 56C110.886 56.4973 111.333 57 111.886 57C112.438 57 112.886 56.4973 112.886 56Z" fill="#EAF3F3"/>
<path d="M10.8857 92C10.8857 91.5023 10.4377 91 9.88574 91C9.33324 91 8.88574 91.5023 8.88574 92C8.88574 92.4973 9.33324 93 9.88574 93C10.4377 93 10.8857 92.4973 10.8857 92Z" fill="#EAF3F3"/>
</svg>
