<svg width="242" height="195" viewBox="0 0 242 195" fill="none" xmlns="http://www.w3.org/2000/svg">
<g opacity="0.5">
<path fill-rule="evenodd" clip-rule="evenodd" d="M106.147 11.3185C137.923 9.46513 165.96 35.218 184.266 61.662C201.121 86.0099 206.293 116.966 196.418 144.989C187.568 170.106 161.997 179.045 137.395 188.389C116.376 196.371 94.6232 196.786 73.1633 190.125C44.9363 181.363 10.0178 175.572 1.98798 146.725C-6.19306 117.335 19.9043 92.6529 38.4436 68.6059C57.3175 44.125 75.5829 13.1011 106.147 11.3185Z" fill="#D9BFFF"/>
</g>
<path d="M97.4709 35.6223C97.5494 37.6206 97.4741 39.0059 97.4709 42.5662C97.4701 42.8776 97.4709 42.2544 97.4709 42.5662C97.4693 45.4009 97.4054 47.6923 97.4709 49.5102C97.5033 50.4131 98.3137 51.2789 99.2069 51.2461C100.1 51.2133 100.975 50.4131 100.943 49.5102C100.88 47.7431 100.941 45.3632 100.943 42.5662C100.942 42.8775 100.943 42.2553 100.943 42.5662C100.946 38.9622 101.023 37.6791 100.943 35.6223C100.907 34.7195 100.099 33.8507 99.2069 33.8863C98.3137 33.9221 97.4353 34.7195 97.4709 35.6223Z" fill="#FCD400"/>
<path d="M94.0013 44.3021C94.8904 44.349 96.1634 44.2666 97.4733 44.3021C97.1687 44.2941 97.6415 44.3067 97.4733 44.3021C100.168 44.3734 101.255 44.177 102.681 44.3021C103.534 44.3769 104.34 43.3999 104.417 42.5661C104.493 41.7325 103.535 40.905 102.681 40.8302C101.169 40.6975 100.233 40.9031 97.4733 40.8302C97.1695 40.8222 97.6415 40.8347 97.4733 40.8302C96.1889 40.7953 94.8571 40.8753 94.0013 40.8302C93.1464 40.7851 92.3111 41.7303 92.2654 42.5661C92.2188 43.402 93.1464 44.257 94.0013 44.3021Z" fill="#FCD400"/>
<path d="M199.895 117.213C201.082 117.164 201.228 117.166 203.367 117.213C203.703 117.222 204.915 117.21 205.103 117.213C206.801 117.249 207.406 117.268 208.575 117.213C209.466 117.171 210.352 116.394 210.311 115.477C210.271 114.562 209.465 113.7 208.575 113.741C207.493 113.793 206.735 113.775 205.103 113.741C204.918 113.737 203.702 113.75 203.367 113.741C201.162 113.692 201.171 113.688 199.895 113.741C199.005 113.778 198.124 114.561 198.159 115.477C198.195 116.394 199.005 117.251 199.895 117.213Z" fill="#EAF3F3"/>
<path d="M205.101 120.685C205.119 119.864 205.094 118.385 205.101 117.213C205.099 117.574 205.102 117.013 205.101 117.213C205.114 114.494 205.031 113.446 205.101 112.005C205.144 111.119 204.274 110.311 203.365 110.269C202.455 110.228 201.672 111.118 201.629 112.005C201.557 113.508 201.642 114.448 201.629 117.213C201.627 117.574 201.63 117.014 201.629 117.213C201.623 118.369 201.646 119.885 201.629 120.685C201.609 121.573 202.455 122.403 203.365 122.421C204.275 122.441 205.081 121.573 205.101 120.685Z" fill="#EAF3F3"/>
<path d="M187.742 16.5264C187.785 17.4675 187.65 18.5478 187.742 19.9983C187.729 19.7938 187.755 20.2031 187.742 19.9983C187.967 23.5401 187.742 24.958 187.742 26.9423C187.742 27.7763 188.699 28.6783 189.478 28.6783C190.257 28.6783 191.214 27.7763 191.214 26.9423C191.214 24.8672 191.443 23.6078 191.214 19.9983C191.201 19.7939 191.227 20.2026 191.214 19.9983C191.123 18.5643 191.257 17.4451 191.214 16.5264C191.174 15.6933 190.256 14.7486 189.478 14.7904C188.699 14.8321 187.702 15.6934 187.742 16.5264Z" fill="#90BFFF"/>
<path d="M186.006 23.4705C187.652 23.646 188.298 23.6425 191.214 23.4705C191.898 23.4302 192.57 23.4891 192.95 23.4705C193.686 23.4344 194.105 23.4705 194.686 23.4705C195.558 23.4705 196.422 22.5775 196.422 21.7345C196.422 20.8915 195.558 19.9985 194.686 19.9985C194.045 19.9985 193.734 19.9601 192.95 19.9985C192.556 20.0178 191.909 19.9576 191.214 19.9985C188.478 20.1598 187.412 20.1486 186.006 19.9985C185.14 19.9062 184.366 20.8966 184.27 21.7345C184.175 22.5724 185.14 23.3782 186.006 23.4705Z" fill="#90BFFF"/>
<path d="M47.1267 158.877C47.1704 159.818 47.0342 160.898 47.1267 162.349C47.114 162.145 47.1394 162.554 47.1267 162.349C47.3518 165.891 47.1267 167.308 47.1267 169.293C47.1267 170.126 48.0837 171.029 48.8627 171.029C49.6423 171.029 50.5986 170.126 50.5986 169.293C50.5986 167.218 50.828 165.958 50.5986 162.349C50.5859 162.144 50.612 162.553 50.5986 162.349C50.5083 160.915 50.6417 159.796 50.5986 158.877C50.5598 158.044 49.6416 157.099 48.8627 157.141C48.0844 157.183 47.0879 158.044 47.1267 158.877Z" fill="#90BFFF"/>
<path d="M45.391 165.821C47.0361 165.996 47.6825 165.993 50.5989 165.821C51.0003 165.797 52.1101 165.833 52.3349 165.821C53.3601 165.764 53.3485 165.821 54.0709 165.821C54.9415 165.821 55.8069 164.926 55.8069 164.085C55.8069 163.244 54.9415 162.349 54.0709 162.349C53.2767 162.349 53.4146 162.289 52.3349 162.349C52.1054 162.361 51.0043 162.325 50.5989 162.349C47.8631 162.51 46.7971 162.499 45.391 162.349C44.525 162.257 43.7504 163.249 43.655 164.085C43.5596 164.921 44.525 165.729 45.391 165.821Z" fill="#90BFFF"/>
<path fill-rule="evenodd" clip-rule="evenodd" d="M205.1 79.0219C205.213 80.8096 206.683 80.806 206.836 79.0219C207.19 74.8789 209.289 72.3323 212.043 72.0779C211.812 72.0932 212.263 72.0743 212.043 72.0779C213.873 71.9526 213.878 70.342 212.043 70.342C211.801 70.342 212.277 70.3238 212.043 70.342C209.113 70.3659 207.494 70.3671 206.836 66.87C206.805 66.708 206.914 65.5611 206.836 65.134C206.763 64.7396 206.885 65.3811 206.836 65.134C206.502 63.4668 205.188 63.4349 205.1 65.134C205.086 65.3847 205.112 64.7 205.1 65.134C205.082 65.7193 205.13 66.5721 205.1 66.87C205.025 67.5919 205.479 67.931 205.1 68.606C204.431 69.7944 201.89 70.3753 199.892 70.342C198.064 70.3122 198.071 71.9113 199.892 72.0779C202.255 72.2946 203.091 73.2827 203.364 73.8139C204.199 75.4698 204.981 77.1529 205.1 79.0219ZM212.043 70.342C211.845 70.3557 212.228 70.3398 212.043 70.342C211.874 70.2746 212.262 70.3391 212.043 70.342ZM212.043 72.0779C211.859 72.0779 212.216 72.0634 212.043 72.0779C211.889 72.1519 212.245 72.0613 212.043 72.0779ZM205.1 72.0779C205.688 71.654 204.699 70.9543 205.1 70.342C205.529 71.1239 206.172 71.6062 206.836 72.0779C206.242 72.6207 205.525 73.0545 205.1 73.8139C204.962 73.4914 205.257 72.3917 205.1 72.0779C205.595 72.4446 204.831 71.5562 205.1 72.0779Z" fill="#FCD400"/>
<path fill-rule="evenodd" clip-rule="evenodd" d="M29.7663 115.477C31.5975 115.354 31.6018 113.741 29.7663 113.741C29.5274 113.741 29.9967 113.723 29.7663 113.741C26.8179 113.766 25.2204 113.796 24.5584 110.269C24.5292 110.115 24.6323 108.938 24.5584 108.533C24.4858 108.137 24.6074 108.781 24.5584 108.533C24.2255 106.866 22.9106 106.834 22.8224 108.533C22.8096 108.783 22.8352 108.101 22.8224 108.533C22.806 109.108 22.8515 109.977 22.8224 110.269C22.7491 111.004 23.2036 111.325 22.8224 112.005C22.1525 113.194 19.6071 113.781 17.6144 113.741C15.7861 113.706 15.7939 115.306 17.6144 115.477C19.9811 115.701 20.814 116.683 21.0864 117.213C21.9184 118.869 22.7015 120.552 22.8224 122.421C22.939 124.208 24.4055 124.204 24.5584 122.421C24.9125 118.274 27.0063 115.727 29.7663 115.477C29.9825 115.474 29.5395 115.493 29.7663 115.477ZM29.7663 113.741C29.5707 113.754 29.9477 113.739 29.7663 113.741C29.5985 113.676 29.9811 113.738 29.7663 113.741ZM29.7663 115.477C29.5857 115.477 29.9363 115.464 29.7663 115.477C29.6134 115.548 29.9647 115.461 29.7663 115.477ZM22.8224 115.477C23.4112 115.053 22.422 114.354 22.8224 113.741C23.2512 114.524 23.8942 115.006 24.5584 115.477C23.9646 116.021 23.2484 116.453 22.8224 117.213C22.6851 116.891 22.9803 115.79 22.8224 115.477C23.3188 115.845 22.5543 114.954 22.8224 115.477Z" fill="#EAF3F3"/>
<path d="M123.511 21.7343C123.511 20.8988 122.734 19.9983 121.775 19.9983C120.817 19.9983 120.039 20.8988 120.039 21.7343C120.039 22.5698 120.817 23.4703 121.775 23.4703C122.734 23.4703 123.511 22.5698 123.511 21.7343Z" fill="#90BFFF"/>
<path d="M236.349 99.8537C236.349 99.0178 235.571 98.1177 234.613 98.1177C233.654 98.1177 232.877 99.0178 232.877 99.8537C232.877 100.69 233.654 101.59 234.613 101.59C235.571 101.59 236.349 100.69 236.349 99.8537Z" fill="#90BFFF"/>
<path d="M231.142 44.3021C231.142 43.4649 230.364 42.5662 229.406 42.5662C228.447 42.5662 227.67 43.4649 227.67 44.3021C227.67 45.1395 228.447 46.0381 229.406 46.0381C230.364 46.0381 231.142 45.1395 231.142 44.3021Z" fill="#EAF3F3"/>
<path d="M241.558 58.1901C241.558 57.3545 240.78 56.4541 239.822 56.4541C238.863 56.4541 238.086 57.3545 238.086 58.1901C238.086 59.0256 238.863 59.9261 239.822 59.9261C240.78 59.9261 241.558 59.0256 241.558 58.1901Z" fill="#4E6AF0"/>
<path d="M220.726 9.58242C220.726 8.74688 219.949 7.84644 218.99 7.84644C218.031 7.84644 217.254 8.74688 217.254 9.58242C217.254 10.418 218.031 11.3184 218.99 11.3184C219.949 11.3184 220.726 10.418 220.726 9.58242Z" fill="#FCD400"/>
<path d="M14.1438 132.837C14.1438 132 13.3661 131.101 12.4079 131.101C11.4487 131.101 10.6719 132 10.6719 132.837C10.6719 133.675 11.4487 134.573 12.4079 134.573C13.3661 134.573 14.1438 133.675 14.1438 132.837Z" fill="#FCD400"/>
<path d="M66.2239 47.7741C66.2239 46.8801 65.4471 46.0381 64.4879 46.0381C63.5297 46.0381 62.752 46.8801 62.752 47.7741C62.752 48.668 63.5297 49.5101 64.4879 49.5101C65.4471 49.5101 66.2239 48.668 66.2239 47.7741Z" fill="#EAF3F3"/>
<path d="M76.6399 11.3185C76.6399 10.4266 75.8631 9.58252 74.904 9.58252C73.9457 9.58252 73.168 10.4266 73.168 11.3185C73.168 12.2104 73.9457 13.0545 74.904 13.0545C75.8631 13.0545 76.6399 12.2104 76.6399 11.3185Z" fill="#4E6AF0"/>
<path d="M170.382 25.2064C170.382 24.4206 169.605 23.4705 168.646 23.4705C167.688 23.4705 166.91 24.4206 166.91 25.2064C166.91 25.9923 167.688 26.9424 168.646 26.9424C169.605 26.9424 170.382 25.9923 170.382 25.2064Z" fill="#EAF3F3"/>
<path d="M153.023 2.63857C153.023 1.80128 152.246 0.902588 151.287 0.902588C150.329 0.902588 149.551 1.80128 149.551 2.63857C149.551 3.47594 150.329 4.37455 151.287 4.37455C152.246 4.37455 153.023 3.47594 153.023 2.63857Z" fill="#FCD400"/>
<path d="M222.462 157.141C222.462 156.305 221.685 155.405 220.726 155.405C219.767 155.405 218.99 156.305 218.99 157.141C218.99 157.976 219.767 158.877 220.726 158.877C221.685 158.877 222.462 157.976 222.462 157.141Z" fill="#FCD400"/>
<path d="M36.7122 77.2858C36.7122 76.4217 35.9353 75.5498 34.9762 75.5498C34.018 75.5498 33.2402 76.4217 33.2402 77.2858C33.2402 78.1499 34.018 79.0218 34.9762 79.0218C35.9353 79.0218 36.7122 78.1499 36.7122 77.2858Z" fill="#90BFFF"/>
<path d="M210.31 134.573C210.31 133.709 209.532 132.837 208.574 132.837C207.615 132.837 206.838 133.709 206.838 134.573C206.838 135.436 207.615 136.309 208.574 136.309C209.532 136.309 210.31 135.436 210.31 134.573Z" fill="#4E6AF0"/>
<path d="M50.5989 124.157C50.5989 123.291 49.8212 122.421 48.8629 122.421C47.9038 122.421 47.127 123.291 47.127 124.157C47.127 125.023 47.9038 125.893 48.8629 125.893C49.8212 125.893 50.5989 125.023 50.5989 124.157Z" fill="#4E6AF0"/>
<path d="M192.95 96.3817C192.95 95.5177 192.174 94.6458 191.214 94.6458C190.255 94.6458 189.479 95.5177 189.479 96.3817C189.479 97.245 190.255 98.1177 191.214 98.1177C192.174 98.1177 192.95 97.245 192.95 96.3817Z" fill="#EAF3F3"/>
<path d="M19.3509 157.141C19.3509 156.277 18.5732 155.405 17.6149 155.405C16.6558 155.405 15.8789 156.277 15.8789 157.141C15.8789 158.004 16.6558 158.877 17.6149 158.877C18.5732 158.877 19.3509 158.004 19.3509 157.141Z" fill="#EAF3F3"/>
<path d="M203.366 33.1504H133.926C130.534 33.1504 126.982 36.7387 126.982 40.0943V88.7018C126.982 92.0575 130.534 93.9098 133.926 93.9098H203.366C206.758 93.9098 210.31 92.0575 210.31 88.7018V40.0943C210.31 36.7387 206.758 33.1504 203.366 33.1504ZM133.926 33.1504H203.366C206.454 33.1504 210.31 37.0392 210.31 40.0943V88.7018C210.31 91.757 206.454 93.9098 203.366 93.9098H133.926C130.838 93.9098 126.982 91.757 126.982 88.7018V40.0943C126.982 37.0392 130.838 33.1504 133.926 33.1504Z" fill="#140B28"/>
<path d="M208.573 35.6223H137.397C134.204 35.6223 132.189 37.5959 132.189 40.8303V91.1738C132.189 94.4081 134.204 96.3817 137.397 96.3817H208.573C211.766 96.3817 213.781 94.4081 213.781 91.1738V40.8303C213.781 37.5959 211.766 35.6223 208.573 35.6223Z" fill="#140B28"/>
<path d="M203.366 32.1504H132.19C128.997 32.1504 126.982 34.124 126.982 37.3583V87.7018C126.982 90.9362 128.997 92.9098 132.19 92.9098H203.366C206.559 92.9098 208.574 90.9362 208.574 87.7018V37.3583C208.574 34.124 206.559 32.1504 203.366 32.1504Z" fill="white"/>
<path d="M156.209 41.19C157.495 40.7656 159.005 41.0595 159.818 41.9986C160.271 42.5217 160.343 43.1568 160.037 43.8138C159.77 44.3876 159.215 44.9881 158.374 45.6363C158.037 45.8969 157.65 46.167 157.214 46.4467L157.172 46.4737L157.187 46.4856C158.469 47.4631 159.675 47.6542 161.187 47.2753L161.322 47.2405C161.781 47.1189 162.14 46.994 162.931 46.6833L163.713 46.3734C165.161 45.8026 165.99 45.5479 166.998 45.4291C168.398 45.2641 169.744 45.492 171.13 46.2011C177.114 49.2634 180.148 49.7313 184.59 48.092C184.835 48.0015 185.107 48.1269 185.198 48.3721C185.288 48.6173 185.163 48.8894 184.918 48.9798C182.432 49.8971 180.34 50.1605 178.132 49.8201L178.008 49.8003C175.969 49.4661 173.786 48.6236 170.698 47.0435C169.483 46.4215 168.326 46.2256 167.109 46.369L167.03 46.3787C166.144 46.4916 165.369 46.7359 163.993 47.2805L163.3 47.5551C162.402 47.908 162.027 48.0366 161.47 48.1798C159.67 48.6431 158.154 48.413 156.613 47.2381C156.519 47.1663 156.424 47.0872 156.329 47.002L156.32 46.9942L156.278 47.0187L156.142 47.0976C154.636 47.9678 152.701 48.9225 150.335 49.9645L150.22 50.0149C149.981 50.12 149.702 50.0111 149.597 49.7719C149.492 49.5326 149.6 49.2534 149.84 49.1484L150.054 49.0539C152.294 48.0648 154.131 47.1586 155.565 46.338L155.644 46.2923L155.625 46.2693C155.118 45.6643 154.685 44.968 154.503 44.4069L154.492 44.3696C154.031 42.8676 154.79 41.6583 156.209 41.19ZM159.102 42.6181C158.56 41.9918 157.453 41.7762 156.506 42.0887C155.545 42.4055 155.098 43.1188 155.396 44.092C155.538 44.5553 155.949 45.1973 156.418 45.7407L156.469 45.7988L156.498 45.7805C156.975 45.4819 157.392 45.1958 157.75 44.9225L157.796 44.887C159.181 43.8188 159.517 43.0972 159.102 42.6181Z" fill="#9059FF"/>
<path d="M135.662 84.2298H199.893C200.497 84.2298 201.629 83.1061 201.629 82.4938V58.1901C201.629 57.5778 200.497 56.4541 199.893 56.4541H135.662C135.058 56.4541 133.926 57.5778 133.926 58.1901V82.4938C133.926 83.1061 135.058 84.2298 135.662 84.2298Z" fill="#F770FF"/>
<path d="M196.424 61.6622H139.137V63.3982H196.424V61.6622Z" fill="white"/>
<path d="M196.424 68.606H139.137V70.342H196.424V68.606Z" fill="white"/>
<path d="M184.269 75.5499H139.133V77.2859H184.269V75.5499Z" fill="white"/>
<path fill-rule="evenodd" clip-rule="evenodd" d="M135.662 51.2462H142.606C143.239 51.2462 144.342 50.1437 144.342 49.5102V42.5663C144.342 41.9329 143.239 40.8303 142.606 40.8303H135.662C135.028 40.8303 133.926 41.9329 133.926 42.5663V49.5102C133.926 50.1437 135.028 51.2462 135.662 51.2462Z" fill="#9059FF"/>
<path d="M159.961 59.9263H52.3303C47.4378 59.9263 43.6504 63.7084 43.6504 68.6062V143.253C43.6504 148.151 47.4378 151.933 52.3303 151.933H159.961C164.854 151.933 168.641 148.151 168.641 143.253V68.6062C168.641 63.7084 164.854 59.9263 159.961 59.9263Z" fill="#140B28"/>
<path d="M153.018 54.7183H45.3869C40.4944 54.7183 36.707 58.5004 36.707 63.3982V138.045C36.707 142.943 40.4944 146.725 45.3869 146.725H153.018C157.91 146.725 161.698 142.943 161.698 138.045V63.3982C161.698 58.5004 157.91 54.7183 153.018 54.7183Z" fill="white"/>
<path d="M79.6949 67.2613C81.4618 66.6782 83.5352 67.0819 84.6523 68.372C85.2746 69.0906 85.3733 69.9631 84.9532 70.8656C84.5863 71.6538 83.824 72.4787 82.6695 73.3691C82.2053 73.7271 81.6742 74.0981 81.076 74.4823L81.0177 74.5195L81.0388 74.5357C82.7991 75.8785 84.4566 76.141 86.5333 75.6205L86.7183 75.5727C87.3487 75.4057 87.8419 75.2341 88.9289 74.8073L90.0034 74.3817C91.9925 73.5975 93.1316 73.2476 94.5162 73.0845C96.4393 72.8578 98.2879 73.1709 100.191 74.1449C108.412 78.3516 112.58 78.9944 118.681 76.7424C119.018 76.6181 119.392 76.7904 119.516 77.1272C119.641 77.464 119.468 77.8378 119.132 77.9621C115.717 79.2221 112.843 79.5839 109.811 79.1163L109.64 79.0891C106.84 78.6301 103.84 77.4727 99.5989 75.3022C97.9293 74.4477 96.3399 74.1786 94.6683 74.3755L94.559 74.389C93.3429 74.544 92.278 74.8796 90.3877 75.6277L89.4361 76.0049C88.2026 76.4897 87.6866 76.6663 86.9223 76.863C84.4496 77.4995 82.3663 77.1834 80.2504 75.5694C80.1211 75.4708 79.9902 75.3621 79.8591 75.2451L79.8473 75.2345L79.7901 75.2681L79.6035 75.3765C77.5335 76.5719 74.8754 77.8833 71.6255 79.3147L71.4681 79.3839C71.1394 79.5282 70.756 79.3787 70.6116 79.05C70.4673 78.7213 70.6168 78.3379 70.9455 78.1936L71.2402 78.0638C74.3164 76.705 76.841 75.4603 78.8105 74.333L78.9193 74.2703L78.8925 74.2386C78.1964 73.4075 77.6012 72.451 77.3518 71.6802L77.3357 71.6291C76.7026 69.5657 77.7455 67.9045 79.6949 67.2613ZM83.6695 69.223C82.9246 68.3627 81.4033 68.0665 80.1022 68.4958C78.7834 68.931 78.1683 69.9108 78.5785 71.2477C78.7738 71.8842 79.3382 72.766 79.982 73.5125L80.0517 73.5923L80.0919 73.5672C80.7465 73.157 81.3199 72.764 81.8118 72.3886L81.8755 72.3397C83.778 70.8724 84.2394 69.8811 83.6695 69.223Z" fill="#9059FF"/>
<path d="M48.859 132.837H147.81C148.724 132.837 149.546 132.02 149.546 131.101V92.9098C149.546 91.9914 148.724 91.1738 147.81 91.1738H48.859C47.9455 91.1738 47.123 91.9914 47.123 92.9098V131.101C47.123 132.02 47.9455 132.837 48.859 132.837Z" fill="#F770FF"/>
<path d="M139.13 99.8538H55.8024C55.1504 99.8538 54.0664 100.849 54.0664 101.59C54.0664 102.331 55.1504 103.326 55.8024 103.326H139.13C139.782 103.326 140.866 102.331 140.866 101.59C140.866 100.849 139.782 99.8538 139.13 99.8538Z" fill="white"/>
<path d="M139.13 110.27H55.8024C55.1504 110.27 54.0664 111.265 54.0664 112.006C54.0664 112.747 55.1504 113.742 55.8024 113.742H139.13C139.782 113.742 140.866 112.747 140.866 112.006C140.866 111.265 139.782 110.27 139.13 110.27Z" fill="white"/>
<path d="M120.034 120.686H55.8024C55.1551 120.686 54.0664 121.681 54.0664 122.422C54.0664 123.162 55.1551 124.158 55.8024 124.158H120.034C120.681 124.158 121.77 123.162 121.77 122.422C121.77 121.681 120.681 120.686 120.034 120.686Z" fill="white"/>
<path fill-rule="evenodd" clip-rule="evenodd" d="M48.859 82.494H61.0109C61.961 82.494 62.7469 81.7081 62.7469 80.758V68.6061C62.7469 67.656 61.961 66.8701 61.0109 66.8701H48.859C47.9089 66.8701 47.123 67.656 47.123 68.6061V80.758C47.123 81.7081 47.9089 82.494 48.859 82.494Z" fill="#9059FF"/>
<path d="M199.026 133.705C199.026 152.973 183.778 168.425 165.174 168.425C146.57 168.425 131.322 152.973 131.322 133.705C131.322 114.438 146.57 98.9857 165.174 98.9857C183.778 98.9857 199.026 114.438 199.026 133.705Z" fill="#9059FF" stroke="#9059FF" stroke-width="8.67991"/>
<path fill-rule="evenodd" clip-rule="evenodd" d="M151.279 142.85C149.029 136.993 148.529 129.574 148.879 120.379L165.173 116.138L181.466 120.379C181.816 129.574 181.316 136.993 179.066 142.85C176.825 148.681 172.743 153.225 165.173 156.306C157.602 153.225 153.52 148.681 151.279 142.85ZM145.717 117.72L165.173 112.657L184.628 117.72C185.709 138.536 183.331 153.163 165.173 159.914C147.014 153.163 144.636 138.536 145.717 117.72ZM155.444 125.496L165.172 122.783V148.1C156.092 144.483 154.903 136.647 155.444 125.496Z" fill="#F9F9FA"/>
</svg>
