<svg width="24" height="24" viewBox="0 0 24 24" fill="none" xmlns="http://www.w3.org/2000/svg">
<path fill-rule="evenodd" clip-rule="evenodd" d="M19 12C19 15.866 15.866 19 12 19C8.13401 19 5 15.866 5 12C5 8.13401 8.13401 5 12 5C15.866 5 19 8.13401 19 12ZM21 12C21 16.9706 16.9706 21 12 21C7.02944 21 3 16.9706 3 12C3 7.02944 7.02944 3 12 3C16.9706 3 21 7.02944 21 12ZM10.751 7.17226C11.1116 7.03691 11.4969 6.98025 11.8811 7.00608C12.5103 6.98446 13.1288 7.17265 13.6393 7.54105C14.1498 7.90945 14.5233 8.43714 14.7011 9.04108C14.8463 9.6161 14.7934 10.2233 14.551 10.7645C14.3086 11.3058 13.8908 11.7495 13.3651 12.0241C13.2011 12.0973 13.0589 12.2116 12.9522 12.356C12.8455 12.5003 12.7779 12.6699 12.7561 12.8481V13.2181C12.7561 13.4501 12.6639 13.6727 12.4998 13.8368C12.3357 14.0009 12.1131 14.0931 11.8811 14.0931C11.649 14.0931 11.4265 14.0009 11.2624 13.8368C11.0983 13.6727 11.0061 13.4501 11.0061 13.2181V12.8811C11.0177 12.3909 11.1607 11.9129 11.4201 11.4968C11.6796 11.0808 12.046 10.7421 12.4811 10.5161C12.6744 10.4356 12.8334 10.2898 12.9303 10.1042C13.0271 9.91848 13.0557 9.70469 13.0111 9.50008C12.9318 9.26838 12.7778 9.06959 12.5733 8.93492C12.3687 8.80026 12.1252 8.73735 11.8811 8.75608C11.3561 8.75608 10.7561 8.88108 10.7561 9.88108C10.7561 10.1131 10.6639 10.3357 10.4998 10.4998C10.3357 10.6639 10.1131 10.7561 9.88108 10.7561C9.64901 10.7561 9.42646 10.6639 9.26236 10.4998C9.09827 10.3357 9.00608 10.1131 9.00608 9.88108C8.98025 9.49686 9.03691 9.11155 9.17226 8.75103C9.30761 8.39051 9.51851 8.06311 9.79081 7.79081C10.0631 7.51851 10.3905 7.30761 10.751 7.17226ZM11.1866 14.8417C11.3922 14.7044 11.6339 14.6311 11.8811 14.6311C12.2126 14.6311 12.5305 14.7628 12.765 14.9972C12.9994 15.2316 13.1311 15.5496 13.1311 15.8811C13.1311 16.1283 13.0578 16.37 12.9204 16.5755C12.7831 16.7811 12.5878 16.9413 12.3594 17.0359C12.131 17.1305 11.8797 17.1553 11.6372 17.1071C11.3947 17.0588 11.172 16.9398 10.9972 16.765C10.8224 16.5901 10.7033 16.3674 10.6551 16.1249C10.6069 15.8825 10.6316 15.6311 10.7262 15.4027C10.8208 15.1743 10.9811 14.9791 11.1866 14.8417Z" fill="#592ACB"/>
</svg>
