<svg width="67" height="68" viewBox="0 0 67 68" fill="none" xmlns="http://www.w3.org/2000/svg">
<path d="M33.6739 67.2399C51.9757 67.2399 66.8101 52.4076 66.8101 34.107C66.8101 15.8037 51.9757 0.96875 33.6739 0.96875C15.3708 0.968684 0.53894 15.8036 0.53894 34.107C0.53894 52.4075 15.3708 67.2399 33.6739 67.2399Z" fill="#ACACAC"/>
<path d="M21.1714 53.8937H23.4793V16.2703H21.1714V53.8937Z" fill="white"/>
<path d="M21.1714 53.8937H23.4793V16.2703H21.1714V53.8937ZM11.7004 29.9757C11.7408 27.5778 15.8508 27.5092 15.8508 29.86L15.8885 31.8988H19.0303V30.016C19.2333 23.7154 8.43622 23.7248 8.51961 29.86V40.7035C8.43622 46.8387 19.236 46.9933 19.0437 40.7035V38.4279H15.8509V40.8581C15.8509 43.2143 11.7475 43.2506 11.7058 40.8581V29.86L11.7005 29.9756M29.6498 27.524C29.6498 27.524 30.1986 26.7104 31.6363 25.9142C33.4587 24.9042 35.242 25.9099 34.9838 25.7985C36.4202 26.432 36.9635 27.9746 37.0658 29.6945V42.5311H39.0872V44.8873H33.8891L33.8859 29.5453C33.8859 27.3075 30.1107 27.3774 30.0743 29.6502L30.0786 29.5454V44.8873H25.4145V42.5258L26.8938 42.5311V28.156L25.1387 28.1453V25.7985H29.6374L29.6496 27.524M53.1968 40.651C53.2963 42.3711 53.8397 43.9149 55.2761 44.5511C55.0071 44.4273 55.9755 44.9101 56.9734 44.9007C57.4979 44.8872 60.0318 44.89 60.0318 44.89V42.5311C60.0318 42.5311 58.7542 42.5149 58.0735 42.5203C57.2088 42.5311 56.4623 42.121 56.3992 40.9051L56.4078 28.1681L56.3992 28.1451H59.4669V25.836H56.3897L56.4072 25.7983V20.8588H53.1969V40.651M47.4177 38.4279V40.8581C47.4177 43.2143 43.3129 43.2506 43.2699 40.8581V35.7989L50.0147 35.8031C50.3335 35.8031 50.597 35.5422 50.597 35.2181V30.0162C50.7947 23.7157 40.0044 23.725 40.0892 29.8602V40.7038C40.0045 46.839 50.8055 46.9935 50.6078 40.7038V38.4283H47.4176L47.4177 38.4279ZM43.2699 29.8438C43.325 27.489 47.4176 27.5092 47.4176 29.86L47.4079 33.4063L43.2695 33.4085V29.8432" fill="white"/>
</svg>
