<svg width="116" height="39" viewBox="0 0 116 39" fill="none" xmlns="http://www.w3.org/2000/svg">
<path d="M29.0172 36.319L31.5902 36.3004C34.1036 36.2822 34.1711 36.2785 34.5111 36.1413C34.99 35.9493 35.3809 35.5873 35.6089 35.1248C35.7856 34.7637 35.9194 34.252 35.9194 33.9381V33.7958L30.219 33.7585L29.7259 33.5854C28.9884 33.327 28.4363 32.9735 27.8409 32.3788C27.2709 31.8095 26.897 31.2405 26.6641 30.5883C26.5219 30.1895 26.5216 30.1769 26.5216 27.0183V23.8483L26.6694 23.3973C27.138 21.9685 28.449 20.8925 30.0972 20.5839C30.5519 20.4989 30.9673 20.4866 32.6784 20.5083C34.6891 20.5334 34.7257 20.5361 35.2709 20.702C36.1037 20.9558 36.4971 21.1892 37.0938 21.784C37.6922 22.3802 37.9953 22.9164 38.1632 23.6756C38.3052 24.317 38.3099 34.9601 38.1688 35.559C37.9253 36.5907 37.1092 37.5879 36.1045 38.0824C35.1218 38.5658 34.9206 38.5892 31.7751 38.5899L29.0172 38.5902V36.319ZM35.8794 30.3883C35.8984 29.8044 35.9082 28.3016 35.9011 27.049C35.8885 24.8649 35.8824 24.7553 35.7495 24.3716C35.553 23.8048 35.2726 23.4532 34.8284 23.2168C34.195 22.8796 33.7717 22.8104 32.3142 22.8058C31.1434 22.8024 30.9787 22.815 30.5864 22.9384C29.7586 23.1984 29.2023 23.7424 28.9588 24.5303C28.8547 24.8665 28.8395 25.149 28.8249 27.0256C28.8092 29.0325 28.8151 29.1618 28.9371 29.5265C29.1856 30.2685 29.6118 30.7664 30.2894 31.1063C30.9025 31.4139 31.1518 31.4394 33.5865 31.4449L35.8447 31.4502L35.8794 30.3883ZM70.0763 38.5487L68.212 38.5269V36.2575L70.785 36.239C73.3394 36.2203 73.3605 36.2192 73.7272 36.0717C74.4934 35.7641 74.9957 35.0486 75.0898 34.131L75.1313 33.7276L72.4574 33.7265C69.439 33.7254 69.262 33.7066 68.4097 33.2983C67.0804 32.6616 66.047 31.4166 65.7775 30.1269C65.6465 29.4995 65.6465 24.351 65.7775 23.7252C66.114 22.1186 67.5217 20.8453 69.3211 20.52C69.8927 20.4167 73.0932 20.401 73.7923 20.498C74.3722 20.5785 75.1069 20.8319 75.5801 21.114C76.3419 21.5683 77.0121 22.4237 77.2883 23.2945L77.425 23.7252V35.4203L77.2824 35.8321C76.9233 36.8702 75.9765 37.8109 74.8728 38.2262C74.0289 38.5433 73.3798 38.5872 70.0763 38.5487ZM75.1133 28.2034C75.112 24.7103 75.0911 24.4532 74.7554 23.856C74.2982 23.0421 73.3281 22.7093 71.4166 22.7114C70.5591 22.7122 70.0047 22.7867 69.5266 22.9645C69.0296 23.1497 68.4132 23.7641 68.2072 24.2795C68.0628 24.6406 68.0591 24.6956 68.0396 26.821C68.0227 28.6958 68.0339 29.0411 68.1214 29.3419C68.3519 30.1337 68.7934 30.6911 69.4545 31.0244C70.1133 31.3565 70.3141 31.378 72.8188 31.3836L75.1144 31.3888L75.1133 28.2034ZM42.8736 33.7257C41.8962 33.6164 40.8989 33.1343 40.3563 32.5084C40.0201 32.1208 39.6354 31.3321 39.5245 30.8038C39.4002 30.2099 39.4 28.4603 39.5241 27.984C39.8382 26.7794 40.836 25.8594 42.2582 25.4629C42.703 25.3388 42.8938 25.3303 45.672 25.3094L48.6146 25.2873V24.8624C48.6146 23.9959 48.1301 23.2638 47.3493 22.95C46.9854 22.8039 46.9557 22.8023 44.4794 22.7837L41.9774 22.7649L41.9374 22.0197C41.9152 21.6099 41.8973 21.0988 41.8973 20.8841V20.4937H44.3235C46.9423 20.4937 47.3989 20.5328 48.2525 20.8306C49.4424 21.246 50.3703 22.1408 50.8031 23.29C51.1545 24.223 51.1722 24.4178 51.1702 27.2954C51.1678 30.3243 51.1586 30.3944 50.6079 31.5116C50.3679 31.9989 50.2315 32.1836 49.7908 32.6205C49.431 32.9773 49.1336 33.2089 48.8608 33.3455C48.0886 33.7319 48.0013 33.743 45.5642 33.7616C44.344 33.7708 43.1331 33.7548 42.8736 33.7257ZM47.3729 31.237C47.781 31.0112 48.2125 30.5424 48.4239 30.096C48.5753 29.7754 48.5848 29.6963 48.6042 28.6032L48.6243 27.4492L46.324 27.4497C45.0585 27.4497 43.8432 27.4782 43.6228 27.513C42.761 27.648 42.1904 28.0859 41.9877 28.7679C41.8695 29.1656 41.8726 29.8169 41.9944 30.174C42.1812 30.7215 42.7795 31.229 43.4224 31.385C43.5495 31.4161 44.4164 31.4362 45.3484 31.4304L47.0432 31.4193L47.3729 31.237ZM3.90398 33.6366C2.5653 33.3889 1.50227 32.6317 0.917371 31.5089C0.52638 30.7582 0.484873 30.4816 0.489309 28.6496C0.491527 27.7692 0.515449 26.2318 0.542698 25.2333C0.586265 23.6361 0.607335 23.3753 0.718549 23.0664C1.17639 21.7944 2.36489 20.8135 3.7999 20.523C4.52897 20.3755 8.64451 20.4205 9.20391 20.5822C10.2487 20.8839 11.2077 21.6824 11.685 22.6481C12.0803 23.4473 12.2049 24.0013 12.2038 24.9562C12.2022 26.2778 11.9006 27.1244 11.1669 27.8651C10.8997 28.1352 10.6505 28.3141 10.3336 28.4635C9.43172 28.8884 9.46768 28.8844 6.07645 28.9113L3.01031 28.9353V29.2892C3.01031 30.2153 3.6608 31.0166 4.66553 31.3285C5.02594 31.4404 5.24013 31.4502 7.35335 31.4502H9.64939L9.68868 31.7356C9.71007 31.8927 9.72781 32.4049 9.72781 32.8744V33.7276L7.03159 33.7221C5.10674 33.718 4.21196 33.6936 3.90398 33.6366ZM8.62724 26.5987C9.0477 26.4316 9.4737 26.0033 9.63229 25.5885C9.71942 25.3604 9.73684 25.1749 9.71593 24.6975C9.68551 24.0013 9.5724 23.7206 9.15353 23.3027C8.6537 22.8043 8.65449 22.8043 6.45477 22.7842C4.60469 22.7672 4.48968 22.7728 4.16206 22.8954C3.71546 23.0622 3.30165 23.4755 3.13468 23.9214C3.02489 24.2144 3.01031 24.4004 3.01031 25.5172V26.7815L5.64491 26.7593C8.20583 26.7378 8.28932 26.7335 8.62724 26.5987ZM13.3023 27.0756V20.4235L16.4914 20.4599C20.1244 20.5013 20.3541 20.5124 21.0689 20.6811C22.7747 21.083 24.1883 22.3727 24.776 24.0624C25.068 24.9023 25.0729 24.9926 25.0729 29.4846V33.7276H22.6386L22.6605 29.9466C22.6798 26.6066 22.6704 26.1056 22.5797 25.6533C22.285 24.1829 21.2207 23.0112 19.9577 22.7671C19.732 22.7234 18.975 22.7156 17.6931 22.744L15.7673 22.7862V33.7276H13.3023V27.0756ZM56.3224 33.6624C54.8543 33.365 53.5183 32.369 52.902 31.113C52.4939 30.2807 52.4863 30.2044 52.512 27.1788C52.5342 24.5887 52.5415 24.4431 52.6717 24.0127C53.1896 22.3014 54.4476 21.1012 56.2096 20.6371C56.5312 20.5524 57.0413 20.5314 59.2914 20.51L61.9875 20.4844V15.631H64.3293V22.6546C64.3293 30.3533 64.3472 29.9602 63.9618 30.8085C63.4219 31.9981 62.2445 33.1566 61.1776 33.5477C60.7989 33.6865 60.7158 33.6917 58.6904 33.7045C57.538 33.7118 56.4725 33.693 56.3224 33.6624ZM60.5571 31.0543C60.9693 30.8262 61.3118 30.4566 61.5534 29.9784C61.9599 29.1738 61.9568 29.2069 61.9568 25.8643V22.8327L59.6368 22.8326C57.5 22.8326 57.2861 22.8421 56.9252 22.9544C56.0287 23.2324 55.3616 23.9445 55.1076 24.8944C54.9784 25.3775 54.9896 29.22 55.1214 29.6632C55.3384 30.3938 55.8815 30.9304 56.6569 31.1812C56.8384 31.2397 57.3425 31.2571 58.5675 31.2476L60.2312 31.2348L60.5571 31.0543ZM82.4055 33.6654C81.622 33.551 80.8159 33.1975 80.2411 32.7157C79.5612 32.1461 79.1515 31.4832 78.9262 30.5884C78.7955 30.0691 78.795 30.0419 78.8616 26.803C78.9383 23.0698 78.9357 23.087 79.4934 22.2544C79.9908 21.5116 80.7153 20.9754 81.6774 20.6376L82.1704 20.4644L84.3583 20.4439C85.8042 20.4301 86.7131 20.4474 87.0391 20.4945C88.7072 20.7366 89.9053 21.8416 90.4088 23.6022C90.5276 24.0179 90.549 24.2336 90.5452 24.9871C90.5416 25.7545 90.5195 25.9501 90.3877 26.3822C90.0123 27.6131 89.1349 28.4475 87.8655 28.7811C87.5274 28.8697 87.026 28.8885 84.3963 28.9102L81.3226 28.936L81.353 29.3596C81.3929 29.9191 81.6144 30.3675 82.0448 30.7603C82.4003 31.0846 82.7767 31.2888 83.2002 31.3864C83.3486 31.4207 84.4707 31.4479 85.7602 31.4487L88.0557 31.4503V33.7276L85.3904 33.7199C83.9245 33.7158 82.5812 33.6911 82.4055 33.6654ZM86.5151 26.7066C87.5795 26.5354 88.1836 25.7482 88.0998 24.6412C88.0438 23.9038 87.6929 23.3307 87.0748 22.9677L86.7926 22.802L84.8628 22.783C82.6441 22.7618 82.4722 22.787 81.999 23.203C81.8381 23.3445 81.6402 23.6049 81.5423 23.8043C81.3715 24.1515 81.369 24.1742 81.3495 25.4642L81.3297 26.7721L83.7222 26.7717C85.09 26.7715 86.286 26.7436 86.5151 26.7066ZM94.28 33.6303C93.3735 33.3914 92.4403 32.6558 92.0154 31.8451C91.6122 31.0766 91.6299 31.3926 91.5873 24.2329L91.5487 17.7238H94.0952L94.0958 18.5394C94.0958 18.988 94.114 19.6249 94.136 19.9549L94.1758 20.5553H97.1154V22.8326H94.1715L94.1288 24.7561C94.105 25.8142 94.095 27.5268 94.1061 28.5621L94.1267 30.4446L94.313 30.7455C94.4285 30.9319 94.6147 31.1177 94.801 31.2329C95.0983 31.4168 95.1159 31.4196 96.0782 31.4402L97.0537 31.4609V33.7276L95.8366 33.7235C94.9814 33.7208 94.5188 33.693 94.2807 33.6302L94.28 33.6303ZM106.71 22.8546C106.686 22.8312 106.667 22.3251 106.666 21.7298C106.665 20.5388 106.572 19.7321 106.326 18.7587C105.181 14.2458 101.302 10.5175 96.4373 9.25355C95.2873 8.95481 94.4565 8.8499 92.9705 8.81524L91.5685 8.78281V6.32163L93.1247 6.35312C94.8105 6.38698 95.5584 6.48018 96.93 6.82751C102.775 8.307 107.357 12.7156 108.733 18.1856C109.034 19.3821 109.142 20.2725 109.153 21.6552L109.163 22.8636L107.957 22.8804C107.294 22.8892 106.733 22.8777 106.71 22.8546ZM113.295 22.8187C113.281 22.7756 113.256 22.048 113.241 21.2015C113.203 19.1446 113.006 17.924 112.417 16.098C110.416 9.89044 105.035 5.05006 98.2552 3.35901C96.5222 2.92672 95.2273 2.76405 93.1863 2.7218L91.5685 2.68842V0.162842L93.1247 0.200343C94.8357 0.241484 95.4426 0.29386 96.8685 0.523141C100.407 1.09199 103.797 2.46689 106.722 4.51855C108.721 5.92083 110.809 8.02186 112.169 9.99883C114.582 13.5089 115.857 17.6953 115.777 21.8479L115.757 22.8634L114.539 22.8802C113.596 22.8932 113.314 22.8793 113.295 22.8187ZM100.549 21.7711C100.511 20.5975 100.382 19.9454 100.015 19.0638C99.2682 17.273 97.4674 15.7056 95.4117 15.0569C94.5055 14.7709 94.0473 14.7017 92.8167 14.6647L91.6303 14.6291V12.3072H92.6332C93.8447 12.3072 94.4402 12.3736 95.4415 12.6205C97.126 13.0357 98.5138 13.7507 99.7791 14.8557C101.273 16.1606 102.265 17.8393 102.726 19.8475C102.821 20.2608 102.863 20.7099 102.889 21.6172L102.925 22.8327H100.584L100.549 21.7711Z" fill="#ACACAC"/>
<path d="M29.0172 37.4855C29.0172 36.8744 29.0242 36.3708 29.0326 36.3662C29.0411 36.3619 30.2128 36.3409 31.6364 36.3198L34.2248 36.2818L34.6124 36.103C35.3528 35.7619 35.8266 35.0468 35.9012 34.1583L35.9348 33.7583H33.1386C30.3763 33.7583 30.3366 33.7564 29.8816 33.6137C28.4463 33.1635 27.3075 32.131 26.7638 30.7868C26.5078 30.1536 26.4813 29.7374 26.5043 26.7003C26.5251 23.964 26.5314 23.832 26.6603 23.4472C26.8183 22.9756 27.1562 22.3989 27.5228 21.974C27.8408 21.6059 28.6568 21.0578 29.2021 20.8458C29.9692 20.5477 30.2022 20.5243 32.4067 20.5243C34.793 20.5243 35.0682 20.5624 36.0372 21.0276C37.0332 21.5058 37.7919 22.4014 38.1146 23.4788C38.2166 23.82 38.2267 24.275 38.2454 29.4276C38.2629 34.2262 38.2526 35.0707 38.1722 35.46C37.8882 36.8377 36.79 37.9443 35.2398 38.4141C34.7946 38.549 34.6837 38.5544 31.8983 38.5755L29.0172 38.597V37.4855ZM35.9183 28.2648C35.9175 25.7635 35.8987 24.9917 35.8306 24.6705C35.6273 23.7133 35.162 23.219 34.2017 22.9392C33.6746 22.7857 31.6751 22.7171 31.0078 22.8296C29.9467 23.0084 29.2126 23.6166 28.9242 24.5562C28.7842 25.0126 28.7142 28.4108 28.8304 29.1002C28.9756 29.9596 29.5044 30.7293 30.195 31.0864C30.8446 31.4225 31.0202 31.4408 33.5623 31.4459L35.9196 31.4502L35.9183 28.2648ZM68.212 37.4208C68.212 36.3148 68.212 36.3129 68.3506 36.3064C68.427 36.3026 69.5987 36.2818 70.9545 36.2602L73.4195 36.2205L73.8256 36.0284C74.587 35.6681 75.0303 35.0111 75.0958 34.1457L75.1299 33.6968H69.4754L69.003 33.5357C67.4856 33.0183 66.3087 31.8454 65.8599 30.4038C65.7176 29.9465 65.7162 29.912 65.7162 26.9259C65.7162 23.9432 65.7178 23.9046 65.8594 23.4483C66.2963 22.04 67.4459 21.0035 69.044 20.5779C69.4249 20.4763 69.7205 20.463 71.5706 20.4629C73.3925 20.4629 73.7304 20.4777 74.1589 20.5768C75.6931 20.9319 76.7663 21.8533 77.252 23.2327L77.425 23.7252L77.4426 29.4015C77.4618 35.7306 77.4747 35.5079 77.0397 36.3347C76.6085 37.1544 75.7972 37.8541 74.8761 38.2011C74.0742 38.5033 73.7649 38.5286 70.8875 38.5286H68.2122L68.212 37.4208ZM73.7739 31.4095L75.1142 31.369V28.1502C75.1142 25.9897 75.0914 24.8249 75.0445 24.6073C74.8387 23.6484 74.3356 23.1305 73.3435 22.8568C72.863 22.724 70.8083 22.6661 70.2028 22.7682C69.2896 22.922 68.6144 23.4097 68.2559 24.1746L68.0626 24.5869L68.0116 26.4952C67.9568 28.5333 67.9919 29.0956 68.2091 29.6713C68.5677 30.6217 69.4955 31.2682 70.6771 31.3911C71.2465 31.4502 72.2277 31.456 73.7739 31.4095ZM4.16491 33.6631C2.37075 33.4544 0.96775 32.2364 0.568996 30.5411C0.483923 30.1797 0.47711 29.7602 0.514182 27.2644C0.568363 23.6377 0.592443 23.3323 0.870953 22.7523C1.37094 21.7102 2.33669 20.924 3.53438 20.5838C3.83539 20.4981 4.26693 20.473 5.85514 20.4489C8.02507 20.4162 8.82369 20.4725 9.49287 20.7048C10.6883 21.12 11.5803 22.111 12.0178 23.5098C12.1452 23.917 12.162 24.0915 12.1604 24.9871C12.159 25.9341 12.1474 26.036 11.9887 26.4952C11.6655 27.4291 11.0541 28.1339 10.2519 28.4978C9.50729 28.8353 9.21436 28.8649 6.62872 28.8649C5.32727 28.8649 3.96339 28.8833 3.59807 28.9056L2.93411 28.9461L2.97372 29.3518C3.05451 30.1767 3.54452 30.841 4.35533 31.2247L4.76708 31.4193L9.66634 31.4555L9.66666 32.0839C9.66666 32.4295 9.68488 32.9406 9.70658 33.22L9.74619 33.7278L7.16419 33.7196C5.74392 33.7151 4.39446 33.6895 4.16491 33.6631ZM8.68031 26.5819C9.15701 26.3576 9.38688 26.1436 9.58602 25.7384C9.73653 25.4327 9.75871 25.3154 9.75871 24.8333C9.75871 24.3526 9.73526 24.2284 9.58096 23.8946C9.3815 23.4636 8.99875 23.0718 8.59968 22.8911C8.36315 22.7838 8.17415 22.7739 6.36368 22.7724L4.38607 22.7712L4.00902 22.9595C3.57652 23.1755 3.36455 23.3998 3.14165 23.8791C2.99178 24.201 2.98291 24.2809 2.95946 25.4979L2.9349 26.7783L8.34129 26.7414L8.68031 26.5819ZM13.3023 27.1142C13.3023 23.4769 13.3229 20.4912 13.3484 20.4795C13.3739 20.4678 14.9894 20.4752 16.9383 20.4962L20.482 20.5345L21.0673 20.692C21.7657 20.8796 22.237 21.0816 22.7105 21.3955C23.7696 22.0977 24.4964 23.1313 24.911 24.5254C25.0349 24.9414 25.04 25.1088 25.0585 29.3419L25.0777 33.7276H22.6738L22.6387 25.6332L22.4591 25.1192C22.0374 23.9132 21.128 23.0171 20.0812 22.7762C19.7801 22.7071 16.6212 22.6857 16.0908 22.7493L15.7673 22.7881V33.7276H13.3023V27.1142ZM42.3703 33.6275C41.0316 33.3407 40.0618 32.4711 39.6375 31.178C39.493 30.7372 39.4712 30.5577 39.4468 29.5988C39.4149 28.3583 39.4621 28.0404 39.7752 27.388C40.0271 26.863 40.6311 26.2245 41.1579 25.9265C41.6394 25.6539 42.3317 25.439 42.9757 25.3616C43.2908 25.3238 44.6462 25.2952 46.1125 25.2949H48.6945L48.6549 24.8258C48.5804 23.9492 48.1604 23.3226 47.413 22.9744L47.0432 22.8019L41.9589 22.766V21.7272C41.9589 21.1559 41.9421 20.6445 41.9215 20.591C41.8878 20.5032 42.1148 20.4937 44.2171 20.494C47.2653 20.4947 47.9182 20.5885 48.9844 21.1805C49.8315 21.6504 50.4864 22.4487 50.837 23.4385C51.1272 24.2576 51.1526 24.6091 51.1307 27.5108L51.1106 30.1884L50.9072 30.7731C50.6321 31.5633 50.2833 32.1347 49.7602 32.6508C49.2623 33.1425 48.6564 33.4911 48.0536 33.6332C47.4914 33.7653 42.9936 33.761 42.3703 33.6275ZM47.3204 31.2759C47.9388 30.9557 48.4562 30.2633 48.6068 29.5544C48.6452 29.3749 48.6764 28.8265 48.6764 28.335V27.4418L46.0725 27.4638C43.1861 27.4878 43.0891 27.4999 42.5625 27.8992C41.9063 28.3967 41.6636 29.5933 42.0627 30.3639C42.3169 30.8552 42.6572 31.1438 43.21 31.3367C43.4951 31.4366 43.7231 31.4473 45.2868 31.4342C46.9919 31.4199 47.0513 31.4152 47.3204 31.2759ZM56.5338 33.6836C55.0156 33.4738 53.594 32.4586 52.902 31.0902C52.5307 30.3558 52.4971 30.0598 52.4971 27.5054C52.4971 25.0433 52.5364 24.519 52.778 23.7584C53.1717 22.5191 54.2317 21.4026 55.4961 20.8963C56.3284 20.5629 56.5155 20.5442 59.3532 20.511L61.9878 20.4798L61.9875 15.631H64.3293L64.3293 22.634C64.3293 29.4768 64.3266 29.6472 64.2045 30.0868C63.7419 31.7548 62.2706 33.289 60.8025 33.6349C60.5017 33.7058 60.0064 33.724 58.5671 33.7175C57.5504 33.7129 56.6355 33.6976 56.5338 33.6836ZM60.3435 31.1772C60.7887 31.0111 61.3267 30.481 61.5878 29.9509C61.9674 29.1806 61.9855 28.988 61.9866 25.7102L61.9877 22.7712L60.5549 22.7755C59.7669 22.7775 58.6468 22.7995 58.066 22.8242L57.0098 22.8688L56.5464 23.0975C55.8243 23.4538 55.3383 24.0385 55.1274 24.8043C55.013 25.2197 54.9303 28.7559 55.0219 29.3156C55.1518 30.1099 55.5886 30.7017 56.2846 31.027C56.8555 31.2938 57.0759 31.3198 58.6291 31.3032C59.8173 31.2905 60.0945 31.2699 60.3435 31.1772ZM82.5095 33.6605C81.0561 33.4735 79.8334 32.6355 79.2405 31.4193C78.8101 30.5357 78.7976 30.381 78.8725 26.8391C78.909 25.1265 78.968 23.5728 79.0042 23.3867C79.1216 22.7826 79.4067 22.2973 79.9813 21.723C80.5604 21.1442 81.0439 20.8527 81.8317 20.6072C82.2827 20.4663 82.3505 20.4629 84.6665 20.4632C87.3178 20.4635 87.4195 20.4758 88.3024 20.9035C88.6531 21.0732 88.8838 21.2475 89.2586 21.626C89.8271 22.2004 90.1198 22.7047 90.3711 23.5429C90.5934 24.2842 90.6098 25.4917 90.4079 26.2376C90.1293 27.2657 89.5262 28.0363 88.6722 28.4553C87.8973 28.8353 87.6476 28.8626 84.9436 28.8641C83.6219 28.8651 82.2666 28.8836 81.932 28.9059L81.3237 28.9461L81.3522 29.3827C81.4041 30.1738 81.8962 30.8511 82.6943 31.2294L83.0948 31.4193L88.0559 31.4555L88.0557 33.7276L85.4831 33.7199C84.068 33.7156 82.7298 33.6889 82.5095 33.6605ZM86.977 26.621C87.4365 26.4463 87.8972 25.9593 88.0283 25.5086C88.178 24.9944 88.1294 24.2579 87.919 23.8483C87.7072 23.4369 87.3636 23.0951 86.9826 22.9179C86.6736 22.7743 86.6418 22.7723 84.6973 22.7723C82.7596 22.7723 82.7198 22.7748 82.416 22.9163C82.0098 23.1052 81.5762 23.5894 81.4423 24.0034C81.3595 24.2602 81.3387 24.5695 81.3387 25.551V26.7783L84.004 26.7577C86.4428 26.7395 86.6957 26.7278 86.977 26.621ZM94.359 33.6346C93.2492 33.3939 92.2787 32.5269 91.8093 31.3578L91.6611 30.9884L91.6277 17.7238H92.1123C92.3788 17.7238 92.9341 17.7419 93.3463 17.764L94.0953 17.8042V20.5553H97.1154V22.8326L94.0928 22.8326L94.1264 30.5164L94.3129 30.7815C94.4155 30.9274 94.6189 31.1305 94.7648 31.2331L95.0302 31.4195L97.0537 31.4609V33.7276L95.898 33.7227C95.1756 33.7196 94.5988 33.6866 94.359 33.6346ZM100.551 21.7401C100.513 20.4238 100.366 19.7654 99.8906 18.7938C99.1762 17.333 98.0431 16.2334 96.4681 15.4725C95.2403 14.8791 94.1527 14.6468 92.6009 14.6465L91.6304 14.6462L91.6303 12.3072L92.5393 12.3076C94.4881 12.3087 95.9782 12.6301 97.5159 13.3811C100.271 14.7269 102.116 17.039 102.722 19.9089C102.814 20.3448 102.863 20.861 102.889 21.6786L102.926 22.8326H100.582L100.551 21.7401ZM106.709 21.6786C106.688 21.0437 106.627 20.2415 106.574 19.8956C105.712 14.2547 100.763 9.69661 94.6291 8.89357C94.1961 8.83676 93.4341 8.79863 92.7364 8.79863H91.5688V6.3365H92.6407C94.689 6.3365 96.4207 6.61294 98.2551 7.23306C102.542 8.68185 106.121 11.8641 107.89 15.7984C108.744 17.6987 109.132 19.5438 109.132 21.6971V22.8326H106.748L106.709 21.6786ZM113.323 21.8819C113.323 17.5779 111.98 13.6734 109.367 10.3856C108.733 9.58806 107.316 8.14196 106.524 7.48513C103.888 5.29991 100.606 3.76441 97.1125 3.08226C95.8161 2.82909 94.6302 2.70788 93.0014 2.66215L91.6304 2.6237V0.242592H92.9453C101.451 0.242592 109.102 4.54197 113.138 11.5896C114.887 14.6425 115.783 18.1693 115.787 22.017L115.788 22.8326H113.323L113.323 21.8819Z" fill="#ACACAC"/>
<path d="M29.0172 37.4863C29.0172 36.8746 29.0242 36.3708 29.0326 36.3662C29.0411 36.3619 30.2128 36.3409 31.6364 36.3198L34.2248 36.2818L34.6296 36.0905C35.4344 35.7095 35.9166 34.9332 35.9187 34.014L35.9195 33.7159L33.5623 33.7574C30.4017 33.8128 29.8602 33.7446 28.8783 33.1665C27.7738 32.5165 27.0143 31.5897 26.6648 30.4653C26.523 30.0088 26.5216 29.9704 26.5216 27.0183C26.5216 23.7809 26.5284 23.6999 26.8682 22.9767C27.3937 21.858 28.4711 21.008 29.7821 20.6781C30.2219 20.5673 30.4757 20.5553 32.3818 20.5553C34.0239 20.5553 34.5919 20.5758 34.9341 20.6477C36.5351 20.9842 37.7111 22.0629 38.1215 23.5714C38.2221 23.9404 38.2305 24.4114 38.2305 29.6037C38.2305 35.7116 38.2394 35.5391 37.8868 36.2822C37.4104 37.2858 36.495 38.0148 35.2034 38.4196C34.7995 38.5462 34.6429 38.5538 31.8983 38.5755L29.0172 38.5979V37.4863ZM35.5034 31.4715L35.9195 31.4323V28.2127C35.9195 26.0512 35.8966 24.8866 35.8497 24.6687C35.647 23.7239 35.1859 23.2381 34.1941 22.9237C33.75 22.7829 31.4837 22.719 30.9075 22.8308C29.8127 23.0433 29.0825 23.7431 28.8598 24.7936C28.7298 25.4045 28.7346 28.8228 28.8661 29.329C29.169 30.4989 30.0045 31.2351 31.2678 31.4459C31.6358 31.5073 34.9136 31.5272 35.5034 31.4715ZM68.212 36.3317L68.9053 36.2918C69.2866 36.27 70.4073 36.2516 71.3957 36.2516C72.9699 36.2513 73.2382 36.2371 73.5588 36.1377C74.4954 35.8465 75.0185 35.1353 75.1361 33.9939L75.1689 33.6757L72.3838 33.6862C69.2242 33.6982 69.243 33.7004 68.2735 33.2004C67.0774 32.5833 66.1474 31.4737 65.8448 30.3027C65.6992 29.74 65.6991 24.1125 65.8448 23.5495C66.0115 22.9035 66.3378 22.3596 66.8842 21.817C67.4562 21.249 67.87 20.9882 68.6274 20.7175L69.1671 20.5244H71.6016C73.9815 20.5244 74.0461 20.5277 74.498 20.6687C76.0331 21.1474 77.1088 22.2946 77.3638 23.7252C77.4958 24.4652 77.4953 34.7924 77.3634 35.4203C77.0758 36.7884 75.9819 37.8837 74.4346 38.3525C73.9894 38.4876 73.8785 38.4929 71.0929 38.5139L68.212 38.5354V36.3317ZM74.8262 31.4112L75.1098 31.3725L75.1274 28.4413C75.137 26.8293 75.125 25.2846 75.1004 25.0088C74.9919 23.7916 74.423 23.1144 73.2656 22.8251C73.0267 22.7653 72.5075 22.7403 71.5091 22.7403C70.1929 22.7403 70.063 22.7505 69.691 22.8805C68.9258 23.1479 68.3915 23.6831 68.1401 24.4333C68.0171 24.8007 68.0042 24.9868 67.9801 26.7239C67.95 28.8793 67.9902 29.2675 68.3109 29.9074C68.7137 30.712 69.5627 31.272 70.5847 31.4074C70.8994 31.4489 74.5262 31.4524 74.8262 31.4112ZM4.18503 33.6607C3.22149 33.5362 2.43127 33.1805 1.77936 32.5776C1.09782 31.9475 0.699221 31.2215 0.543649 30.3284C0.437029 29.7164 0.571056 23.7351 0.702548 23.2309C0.948264 22.289 1.70569 21.4275 2.73307 20.9221C3.58064 20.5051 3.67617 20.4937 6.31045 20.4937C8.43095 20.4937 8.70582 20.5053 9.12596 20.6127C10.5782 20.9836 11.6089 22.0498 12.0457 23.6329C12.1851 24.1375 12.2046 25.645 12.0788 26.1564C11.8355 27.1445 11.2218 27.9706 10.4173 28.3928C9.58951 28.8273 9.61343 28.8247 6.1224 28.8622L2.97958 28.8955L2.98718 29.3295C2.99304 29.659 3.03392 29.8457 3.15717 30.1058C3.35996 30.5341 3.878 31.0323 4.35058 31.2533L4.70513 31.4195L9.64749 31.4554L9.68282 32.5436C9.70215 33.1423 9.70469 33.6534 9.68837 33.6797C9.64908 33.7435 4.6923 33.7264 4.18503 33.6607ZM8.68776 26.6098C9.09586 26.4215 9.44424 26.0821 9.61185 25.7099C9.73146 25.4444 9.75728 25.2835 9.75792 24.8026C9.75855 24.2861 9.73843 24.1768 9.58634 23.8674C9.48448 23.6601 9.27868 23.3935 9.0816 23.2136C8.5531 22.731 8.34778 22.6962 6.18434 22.7204L4.397 22.7403L4.04482 22.9128C3.56876 23.1465 3.22751 23.5446 3.07178 24.0484C2.96722 24.3866 2.94884 24.6209 2.94884 25.6121V26.778L5.6758 26.7598C8.31103 26.7419 8.41242 26.7367 8.68776 26.6098ZM13.3467 33.6816C13.3334 33.6561 13.3351 30.6785 13.3507 27.0644L13.3789 20.4937L16.4371 20.4953C20.5173 20.4974 20.9843 20.5478 22.1456 21.1102C23.2297 21.6355 23.9152 22.3186 24.4606 23.4173C25.0587 24.6216 25.0357 24.3929 25.0585 29.3727L25.0783 33.7276H22.6636L22.6709 29.8034C22.6777 26.0384 22.673 25.8601 22.5521 25.3994C22.2227 24.142 21.3592 23.1649 20.2843 22.8332C19.9167 22.7198 19.7123 22.7096 17.8252 22.7096H15.7674L15.7673 33.7276L14.5694 33.7276C13.9104 33.7276 13.36 33.7069 13.3467 33.6816ZM42.4209 33.6373C41.9369 33.5317 41.3574 33.2938 41.0191 33.0613C40.3604 32.6086 39.8167 31.8223 39.5863 30.9884C39.4495 30.4935 39.3908 28.8458 39.4897 28.2736C39.7109 26.9946 40.6528 26.0115 42.1129 25.5357C42.5302 25.3996 42.6442 25.3938 45.5949 25.3532C47.2726 25.3303 48.6523 25.3078 48.6609 25.3032C48.7252 25.2684 48.6526 24.5543 48.5516 24.2276C48.3952 23.7217 47.9583 23.2177 47.4804 22.9921C46.918 22.7262 46.4985 22.6951 44.1312 22.7427L41.9589 22.7862V20.4814L44.501 20.5108C47.2278 20.5425 47.4752 20.5675 48.3567 20.8988C49.8613 21.4645 50.8313 22.7349 51.0792 24.4638C51.1267 24.794 51.1424 25.8069 51.1269 27.5415C51.105 30.0004 51.0973 30.1487 50.9669 30.5777C50.485 32.1659 49.4134 33.2816 48.0316 33.634C47.537 33.7601 42.9969 33.7629 42.4209 33.6373ZM47.3082 31.2907C47.6915 31.1 48.1053 30.7122 48.3249 30.3381C48.5958 29.8762 48.6761 29.4298 48.6761 28.3872V27.443L46.0415 27.4616C43.433 27.4801 43.4033 27.4817 43.0373 27.6266C42.572 27.8108 42.1401 28.2361 41.9996 28.6483C41.7491 29.382 41.8225 30.1123 42.1981 30.6304C42.4201 30.9362 42.6712 31.1195 43.123 31.3052C43.4558 31.4421 43.5333 31.4473 45.2283 31.4487L46.9879 31.4503L47.3082 31.2907ZM56.3156 33.6379C54.4742 33.261 52.9548 31.8364 52.5884 30.1438C52.4987 29.73 52.489 29.343 52.5131 27.1584C52.5389 24.8414 52.5511 24.6091 52.6739 24.1337C53.131 22.3615 54.5451 21.0268 56.3707 20.6451C56.6597 20.5845 57.5458 20.5469 59.384 20.5167L61.9875 20.4739V15.631L64.3322 15.631L64.2986 29.8806L64.1538 30.2794C63.83 31.1717 63.4029 31.8337 62.7236 32.4967C62.1982 33.0091 61.7619 33.2947 61.1398 33.5335C60.7266 33.6917 60.7125 33.693 58.7213 33.7066C57.2422 33.7169 56.6133 33.6988 56.3156 33.6379ZM60.4605 31.1313C61.0661 30.8478 61.4804 30.3281 61.8245 29.4203C61.9482 29.0944 61.9544 28.9505 61.9736 25.9257L61.9937 22.7712L59.8491 22.7717C58.6462 22.7718 57.5291 22.8005 57.305 22.8368C56.4219 22.9801 55.6491 23.5742 55.2565 24.4124C55.0685 24.8132 55.0603 24.8665 55.0081 25.9996C54.9296 27.7113 54.9746 29.3705 55.1103 29.7586C55.3556 30.4607 55.9704 31.0103 56.7399 31.2155C57.0871 31.3079 57.3761 31.3225 58.6289 31.3104C60.0904 31.2965 60.1121 31.2945 60.4605 31.1313ZM82.7558 33.6868C80.8409 33.5001 79.396 32.3497 78.9658 30.6696C78.8393 30.1753 78.8327 29.8048 78.8926 26.4952C78.9476 23.4587 78.9736 23.219 79.3207 22.5622C79.561 22.1074 80.3088 21.3449 80.7956 21.0588C80.9867 20.9463 81.3465 20.7801 81.595 20.6895L82.0472 20.5244L84.4882 20.5064C87.2424 20.4861 87.4943 20.5122 88.2766 20.8983C89.1782 21.3433 89.9123 22.2223 90.2933 23.3133C90.4603 23.791 90.4831 23.944 90.5062 24.7409C90.5371 25.8033 90.4503 26.3063 90.1173 26.9978C89.8168 27.622 89.2788 28.161 88.6631 28.455C87.8506 28.8428 87.6145 28.8651 84.2992 28.8651H81.3384V29.2629C81.3384 30.1011 81.8295 30.821 82.6749 31.2206L83.0948 31.4193L88.0248 31.4809L88.0584 33.7278L85.5149 33.7178C84.1162 33.7124 82.8745 33.6985 82.7558 33.6868ZM87.039 26.5998C87.4057 26.4311 87.7693 26.0958 87.9531 25.7564C88.0667 25.5468 88.0865 25.4105 88.0865 24.8331C88.0865 24.2391 88.0681 24.1187 87.936 23.85C87.743 23.4589 87.3284 23.0446 86.9586 22.874C86.6866 22.7484 86.5626 22.7394 84.8999 22.7209C83.4488 22.7047 83.063 22.7186 82.7545 22.7974C82.1029 22.9644 81.653 23.372 81.4334 23.9948C81.3598 24.2034 81.3384 24.5464 81.3384 25.5205V26.7772L84.0346 26.7592C86.6988 26.7414 86.7345 26.7397 87.039 26.5998ZM94.2927 33.6031C93.3257 33.3502 92.4937 32.6964 92.0425 31.8353C91.6198 31.0288 91.6325 31.265 91.6314 24.1714L91.6303 17.7854H94.0182L94.0567 17.9776C94.0779 18.0835 94.0952 18.7066 94.0952 19.3627L94.0953 20.5553H97.0533V22.8126L94.1261 22.802L94.0855 26.4335C94.0401 30.515 94.04 30.5134 94.4521 30.9701C94.8311 31.3899 95.0302 31.4472 96.1135 31.4487L97.0533 31.4502L97.0537 33.7276L95.8979 33.7241C94.9659 33.7215 94.6554 33.6979 94.2927 33.6031ZM100.609 22.793C100.585 22.7694 100.566 22.3971 100.566 21.9651C100.566 20.5747 100.375 19.723 99.8206 18.647C98.8146 16.6934 96.9186 15.313 94.5267 14.7927C94.2422 14.7308 93.6022 14.6773 92.8628 14.6538L91.661 14.6153L91.6274 12.3072L92.5393 12.3076C95.6666 12.3076 98.1736 13.2925 100.2 15.3185C101.34 16.4578 102.017 17.5466 102.471 18.9718C102.766 19.8997 102.863 20.5743 102.87 21.7555L102.877 22.802L101.764 22.8187C101.152 22.8278 100.632 22.8163 100.609 22.793ZM106.729 21.9686C106.729 18.5634 105.553 15.6377 103.204 13.1941C100.375 10.2519 96.6973 8.74119 92.3544 8.73755L91.5686 8.73692V6.31878L92.9707 6.35518C94.8761 6.40486 96.1257 6.59063 97.6699 7.05426C102.477 8.49767 106.373 11.988 108.152 16.4453C108.816 18.1079 109.132 19.8429 109.132 21.8147L109.132 22.8326H106.729L106.729 21.9686ZM113.305 21.3093C113.259 19.2693 113.04 17.9009 112.486 16.1817C110.443 9.84472 105.096 5.02411 98.1936 3.29635C96.6021 2.89792 95.1023 2.7101 93.1247 2.66152L91.6303 2.62481V0.226135L93.2478 0.259839C94.934 0.294809 95.9481 0.390699 97.3614 0.648779C102.011 1.49755 106.344 3.74067 109.595 6.98273C113.095 10.4729 115.177 14.8326 115.662 19.6847C115.698 20.0352 115.726 20.8868 115.726 21.5773V22.8326H113.34L113.305 21.3093Z" fill="#ACACAC"/>
<path d="M29.0172 36.3918L31.5286 36.3576C34.2863 36.3205 34.3957 36.307 34.9586 35.9345C35.5169 35.565 35.8415 34.9589 35.9166 34.1451L35.9546 33.7319L33.2101 33.7452C30.0961 33.7601 30.1077 33.7615 29.1097 33.2691C28.1693 32.805 27.4628 32.1162 26.9831 31.1954C26.5214 30.3093 26.5214 30.3098 26.5214 26.9875C26.5214 24.3162 26.532 23.995 26.6336 23.6383C26.8078 23.0242 27.1315 22.446 27.5508 21.9979C28.2086 21.2958 28.8982 20.9004 29.8662 20.6708C30.3485 20.5564 30.5571 20.5485 32.6146 20.5668L34.8411 20.5866L35.4233 20.7891C36.5866 21.1939 37.328 21.8199 37.7958 22.7918C37.9449 23.1019 38.1038 23.522 38.1488 23.725C38.2136 24.0171 38.2307 25.2681 38.2307 29.6958C38.2307 34.9596 38.2237 35.3195 38.1173 35.6665C37.7489 36.8662 36.8616 37.7955 35.6485 38.2515C34.849 38.5522 34.3938 38.5902 31.5976 38.5902H29.0172L29.0172 36.3918ZM35.543 31.4718L35.9244 31.4323L35.8887 24.5871L35.7409 24.2209C35.4467 23.491 34.8411 23.0381 33.9254 22.8633C33.2593 22.7359 31.2122 22.7359 30.723 22.8633C29.7046 23.128 28.9962 23.8821 28.8354 24.8728C28.7311 25.5137 28.7541 28.8789 28.8658 29.3521C29.1207 30.4322 29.9741 31.2103 31.1344 31.4209C31.6076 31.5063 34.8506 31.5442 35.543 31.4718ZM68.212 36.3129L70.1378 36.3087C72.6916 36.3037 73.3883 36.2553 73.8319 36.0524C74.6277 35.6885 75.0288 35.0661 75.1389 34.0234L75.1762 33.6729L72.4182 33.6849C69.2803 33.6985 69.3097 33.7018 68.2738 33.1944C67.7673 32.9466 67.6043 32.824 67.0666 32.2868C66.5479 31.7685 66.4025 31.5788 66.1889 31.1424C65.7461 30.2367 65.7469 30.2458 65.7469 26.9261C65.7469 24.4849 65.7634 23.9022 65.8404 23.5997C66.1199 22.5019 66.9093 21.5463 67.9669 21.0255C69.0149 20.5097 69.2197 20.4822 71.8008 20.5065L74.0358 20.5277L74.6266 20.7258C76.1795 21.2464 77.1435 22.3672 77.392 23.9405C77.4779 24.4839 77.4778 34.7274 77.392 35.2555C77.2099 36.3774 76.4531 37.3884 75.3603 37.9702C75.1724 38.07 74.7696 38.2286 74.4656 38.3226L73.9126 38.493L68.212 38.5365V36.3129ZM74.8801 31.4112L75.1077 31.3736L75.1264 28.4111C75.1367 26.7816 75.1244 25.2175 75.0992 24.935C75.0021 23.8481 74.5054 23.2052 73.5146 22.8835C73.1694 22.7713 72.9208 22.7486 71.7865 22.7247C70.9657 22.7077 70.3232 22.7226 70.098 22.7644C68.9575 22.9759 68.1746 23.7934 68.0289 24.9254C67.934 25.6616 67.9517 28.6967 68.0534 29.1767C68.3118 30.3935 69.1553 31.1657 70.466 31.3848C70.8211 31.4443 74.5455 31.4665 74.8801 31.4112ZM5.29083 33.6634C4.19675 33.6324 3.75206 33.5963 3.47291 33.5156C2.36917 33.1969 1.39423 32.407 0.923708 31.4502C0.469031 30.5256 0.463328 30.4557 0.542064 26.777C0.610504 23.5848 0.612722 23.5453 0.765759 23.0902C0.850833 22.8375 1.01876 22.4826 1.13901 22.3014C1.47867 21.7904 2.1385 21.2187 2.71897 20.9327C3.59395 20.5008 3.7492 20.4834 6.51846 20.5054L8.95772 20.5244L9.4097 20.6893C11.2344 21.355 12.2959 23.1058 12.1753 25.2506C12.1123 26.3669 11.8203 27.1233 11.1932 27.7926C10.9108 28.0942 10.701 28.2481 10.321 28.433C9.47497 28.8444 9.263 28.8649 5.90171 28.8649H2.93284L2.96215 29.3218C3.01491 30.1425 3.49715 30.8266 4.30274 31.2228L4.70244 31.4193L9.6665 31.4541V33.7276L8.20267 33.7158C7.39771 33.7093 6.08723 33.6857 5.29083 33.6634ZM8.75509 26.5686C9.48194 26.212 9.82208 25.5885 9.78025 24.6882C9.7435 23.892 9.32003 23.2214 8.64467 22.8894C8.34319 22.7411 8.32972 22.7403 6.40012 22.7403C4.63432 22.7403 4.43106 22.7509 4.15239 22.8582C3.74904 23.0138 3.3053 23.4358 3.12612 23.8351C2.99257 24.1326 2.98037 24.2513 2.96009 25.4665L2.93823 26.777L8.40291 26.7413L8.75509 26.5686ZM13.364 20.4833L16.8304 20.5102C20.0484 20.5352 20.3378 20.5462 20.8646 20.664C22.765 21.0887 24.1308 22.2957 24.7447 24.0932C25.0593 25.0148 25.0733 25.2475 25.0733 29.6425L25.0729 33.7276H22.6643L22.6706 29.7727C22.678 25.3409 22.6921 25.5058 22.2276 24.5562C21.8813 23.8481 21.3305 23.2921 20.6577 22.971L20.1737 22.7403L15.7674 22.7038L15.7673 33.7276H13.364V20.4833ZM42.7908 33.689L42.3287 33.5979C41.317 33.3972 40.345 32.6594 39.9057 31.7581C39.5675 31.0642 39.4861 30.6785 39.4493 29.596C39.397 28.0595 39.6351 27.3025 40.4146 26.5267C40.9147 26.0292 41.5091 25.7086 42.3065 25.5066C42.8849 25.36 42.957 25.3563 45.3162 25.3563C46.6456 25.3563 47.9492 25.3381 48.213 25.3159L48.6926 25.2754L48.6596 24.7959C48.5826 23.6723 47.8775 22.9331 46.7192 22.7618C46.4591 22.7232 45.4911 22.716 44.1312 22.7427L41.9589 22.7856V20.4937L44.0697 20.4947C46.9706 20.4962 47.6401 20.5779 48.671 21.0551C49.8307 21.5925 50.594 22.5406 50.9686 23.91C51.0949 24.3714 51.1049 24.563 51.1275 26.9568C51.1532 29.6803 51.1272 30.0618 50.8625 30.8389C50.469 31.995 49.7269 32.8823 48.7608 33.3531C48.037 33.7053 47.8363 33.7264 45.2559 33.7196C43.968 33.7162 42.8589 33.7025 42.7908 33.689ZM47.3052 31.2984C47.7441 31.0943 48.1808 30.6413 48.4348 30.1262L48.6455 29.6988L48.688 27.4419L46.0169 27.4628C43.01 27.4861 43.0189 27.4848 42.4719 27.9644C42.1227 28.2708 41.9749 28.5668 41.886 29.1374C41.7287 30.1485 42.2257 31.0172 43.1423 31.3335C43.4283 31.4323 43.6857 31.4462 45.2251 31.4475C46.9603 31.4491 46.9855 31.4472 47.3052 31.2984ZM56.6878 33.6833C55.1127 33.5036 53.6314 32.4842 52.954 31.1139C52.5039 30.2028 52.4829 30.014 52.5136 27.1413C52.538 24.8346 52.55 24.6118 52.6723 24.1559C52.9417 23.1528 53.5136 22.2454 54.255 21.6446C54.6754 21.3039 55.5579 20.8567 56.1022 20.7081C56.5338 20.5906 58.3605 20.504 60.5549 20.4977L61.9877 20.4937L61.9875 15.631L64.3322 15.631L64.3154 22.7251L64.2988 29.8191L64.1106 30.3422C63.7744 31.2774 63.1974 32.1054 62.4191 32.7697C61.9644 33.1578 61.0791 33.5865 60.5702 33.665C60.1948 33.7229 57.1608 33.7371 56.6878 33.6833ZM60.4779 31.1236C61.1509 30.8088 61.6772 30.0816 61.8926 29.1672C61.9691 28.8436 61.9861 28.231 61.9867 25.7673L61.9877 22.7623L59.569 22.7835C57.2397 22.8039 57.1375 22.8098 56.8124 22.9413C56.2865 23.1538 55.8424 23.4943 55.5419 23.9147C55.0512 24.6016 55.031 24.7162 54.9853 27.0718C54.9498 28.8944 54.9573 29.1895 55.0482 29.54C55.219 30.1992 55.6334 30.7332 56.1966 31.0201C56.7261 31.2902 57.0046 31.3234 58.5983 31.3097L60.1081 31.2964L60.4779 31.1236ZM83.6496 33.6654C82.2717 33.629 82.1367 33.6151 81.6776 33.4629C80.626 33.1148 79.785 32.4268 79.3213 31.5356C78.8812 30.6887 78.8505 30.4865 78.8673 28.5572C78.8755 27.6261 78.9047 26.0887 78.9322 25.1409C78.976 23.6405 78.9988 23.372 79.1084 23.0664C79.3058 22.5177 79.542 22.161 80.0257 21.6821C80.372 21.339 80.602 21.1757 81.0445 20.9592C81.9786 20.5015 82.0385 20.4937 84.6696 20.4937C86.776 20.4937 87.0322 20.5048 87.4639 20.6151C88.5952 20.9042 89.4793 21.6172 89.9896 22.6522C90.3909 23.4665 90.5211 24.0304 90.5211 24.9562C90.5211 26.9528 89.6569 28.2239 87.9615 28.7213C87.6372 28.8162 87.2245 28.8314 84.4662 28.8502L81.3387 28.8713V29.32C81.3387 29.6971 81.3687 29.8286 81.5272 30.1451C81.7492 30.5892 82.1815 31.0016 82.6826 31.2473L83.0334 31.4193L87.9757 31.4554L88.0157 32.1453C88.0375 32.5246 88.0556 33.036 88.0557 33.2814L88.0557 33.7276L86.5919 33.7161C85.7871 33.7097 84.4632 33.687 83.6496 33.6654ZM87.0703 26.5823C87.4929 26.3845 87.7856 26.0968 87.9724 25.6961C88.0885 25.4471 88.1166 25.2831 88.117 24.8509C88.1182 23.9426 87.7763 23.3185 87.061 22.9228L86.731 22.7403H84.728C82.8216 22.7403 82.7118 22.7467 82.4447 22.8699C82.0296 23.0619 81.7371 23.3483 81.5263 23.7696L81.3387 24.1447L81.3384 26.7772L86.7312 26.7413L87.0703 26.5823ZM94.4962 33.637C93.6655 33.4841 92.8695 32.9939 92.3783 32.3331C92.0175 31.8473 91.8909 31.5862 91.7499 31.0351C91.6353 30.5883 91.6304 30.2995 91.6304 24.1769L91.6303 17.7854H94.0182L94.0567 17.9776C94.0779 18.0835 94.0952 18.7066 94.0952 19.3627L94.0953 20.5553H97.0533L97.0534 22.8147L94.0954 22.7538L94.08 25.7634C94.0554 30.5579 94.0499 30.3357 94.1994 30.6201C94.3631 30.931 94.6135 31.1829 94.9087 31.3332C95.105 31.4332 95.2767 31.4502 96.0958 31.4502H97.0533L97.0537 33.7276L95.9904 33.7221C95.4058 33.7189 94.7333 33.6808 94.4962 33.637ZM106.729 21.851C106.729 21.3112 106.687 20.55 106.636 20.16C105.89 14.4767 101.072 9.8637 94.8659 8.88961C94.5269 8.83645 93.6464 8.77632 92.9091 8.75606L91.5688 8.7192V6.3172L92.8783 6.3547C95.8458 6.43983 98.0027 6.96026 100.435 8.17898C104.627 10.2789 107.679 14.0001 108.723 18.2827C108.979 19.3373 109.077 20.1454 109.114 21.5249L109.15 22.8327L106.729 22.8326V21.851ZM100.564 21.8631C100.562 20.8583 100.479 20.2779 100.231 19.5397C99.6666 17.859 98.2845 16.3402 96.5096 15.4505C95.954 15.172 94.963 14.8574 94.2802 14.7424C93.9583 14.6881 93.2304 14.6262 92.6626 14.6046L91.6303 14.5652L91.6303 12.3072L92.3851 12.3073C94.4933 12.3073 96.0977 12.6754 97.8001 13.5493C100.299 14.8316 102.151 17.2162 102.692 19.8476C102.811 20.4274 102.906 21.4757 102.907 22.2326L102.908 22.7713H100.566L100.564 21.8631Z" fill="#ACACAC"/>
<path d="M29.0172 36.3744L31.3437 36.3735C33.1424 36.3725 33.7663 36.3519 34.0938 36.2826C35.1864 36.0515 35.7946 35.3291 35.9469 34.0816L35.9899 33.7276H33.2223C30.6872 33.7276 30.415 33.7177 29.9882 33.6086C28.7685 33.2971 27.5586 32.3214 26.9949 31.1953C26.5525 30.3114 26.5521 30.309 26.5521 27.0085C26.5521 25.1279 26.5762 23.9524 26.6192 23.7437C26.8391 22.6766 27.7006 21.6139 28.7721 21.088C29.7789 20.5942 29.8383 20.5861 32.4374 20.5861C34.6348 20.5861 34.7355 20.591 35.208 20.7277C35.9901 20.954 36.501 21.2534 37.0618 21.8143C37.6281 22.3805 37.8964 22.8381 38.078 23.5465C38.1949 24.003 38.1996 24.2454 38.199 29.6596C38.1982 35.8193 38.2111 35.5823 37.8346 36.341C37.3538 37.3105 36.3483 38.0848 35.136 38.4186C34.6845 38.5432 34.4889 38.5525 31.8365 38.5756L29.0172 38.6001V36.3744ZM35.935 28.8496C35.9587 24.7339 35.9519 24.623 35.6337 23.9886C35.3364 23.396 34.8111 23.0408 33.9681 22.8623C33.4035 22.7429 31.1502 22.7376 30.712 22.8549C29.7083 23.1231 29.0464 23.807 28.8395 24.7901C28.7294 25.3127 28.7476 28.9354 28.8626 29.3762C29.0743 30.1875 29.5483 30.787 30.2518 31.1327C30.9407 31.4714 31.2166 31.5014 33.6855 31.5068L35.9194 31.5116L35.935 28.8496ZM68.2736 37.4251V36.3214L70.7851 36.3002C73.2388 36.2795 73.3045 36.2755 73.6526 36.1369C74.5545 35.7772 75.028 35.1123 75.1502 34.034L75.1918 33.6661L72.4261 33.6651C69.4018 33.6642 69.262 33.6512 68.4838 33.2987C67.9214 33.0439 67.3761 32.6414 66.911 32.1372C66.4384 31.6252 66.1645 31.184 65.943 30.5781L65.7775 30.1269L65.7597 27.1009C65.7442 24.529 65.7559 24.0132 65.838 23.6601C66.1078 22.4981 66.8944 21.5509 68.0578 20.9869C68.9905 20.5347 69.0714 20.5244 71.6324 20.5244C73.8286 20.5244 73.9306 20.5295 74.4019 20.6659C75.7853 21.066 76.7835 21.9659 77.2151 23.2019C77.3456 23.5761 77.3581 23.7478 77.4071 25.8487C77.4358 27.0845 77.4505 29.7158 77.4397 31.6962C77.4215 34.9664 77.4096 35.328 77.3087 35.6356C76.7975 37.1938 75.5 38.2208 73.7385 38.4625C73.4609 38.5006 72.2006 38.5286 70.7648 38.5286H68.2736V37.4251ZM75.1366 28.3572C75.1609 26.5103 75.154 25.1085 75.1196 24.8779C74.9417 23.6926 74.4031 23.0929 73.2732 22.8229C72.642 22.672 70.4632 22.6599 69.9089 22.8039C68.9148 23.0625 68.2169 23.803 68.0276 24.8001C67.9424 25.2488 67.9473 28.7713 68.0336 29.185C68.2066 30.0137 68.7421 30.7248 69.4582 31.0769C70.1338 31.4092 70.4198 31.4399 72.8708 31.4453L75.0955 31.4502L75.1366 28.3572ZM42.6694 33.659C41.1048 33.4316 39.9469 32.3928 39.5882 30.8951C39.4476 30.3072 39.3995 29.064 39.4925 28.411C39.7154 26.8444 40.9068 25.7427 42.725 25.421C42.9449 25.3822 44.2068 25.3563 45.8897 25.3563H48.6888L48.6658 24.8485C48.6274 24.0015 48.264 23.3915 47.5844 23.0337C47.0133 22.733 46.7732 22.7095 44.2668 22.7095H41.9587L41.9589 20.4937L43.0218 20.4985C43.6063 20.501 44.8059 20.5254 45.6871 20.5526C47.5137 20.6089 47.9 20.6792 48.7993 21.1175C49.5286 21.473 50.2163 22.1618 50.5773 22.8979C51.0932 23.95 51.1567 24.4918 51.1264 27.5779C51.1046 29.8401 51.0938 30.0362 50.9685 30.4884C50.5962 31.8318 49.7508 32.9023 48.6856 33.3798C47.9806 33.6957 47.6753 33.7259 45.2557 33.7188C44.0357 33.7156 42.8717 33.6885 42.6694 33.659ZM47.2759 31.3343C47.7642 31.093 48.1549 30.6935 48.4132 30.1716L48.6452 29.7028L48.6859 27.3744L46.1389 27.4022C43.7537 27.4282 43.5664 27.4385 43.1911 27.5605C42.6049 27.7511 42.3093 27.994 42.0687 28.4826C41.883 28.8594 41.8664 28.941 41.8664 29.479C41.8664 29.9955 41.886 30.1022 42.0311 30.3769C42.3179 30.9193 42.8662 31.3155 43.5162 31.4489C43.6596 31.4786 44.498 31.4975 45.3793 31.4913C46.9287 31.4806 46.9911 31.4752 47.2759 31.3343ZM3.9203 33.6025C2.16464 33.3074 0.825168 31.9861 0.549827 30.2783C0.474259 29.8099 0.583413 23.878 0.676408 23.4013C0.894083 22.2835 1.95267 21.1782 3.24985 20.7145L3.78105 20.5246H8.8343L9.37706 20.702C10.054 20.9238 10.512 21.2175 11.0061 21.7469C11.4481 22.2204 11.8786 23.037 12.049 23.7252C12.1932 24.3068 12.1924 25.5934 12.0476 26.1833C11.7324 27.4693 10.8746 28.3493 9.57383 28.7219C9.25096 28.8145 8.80642 28.8308 6.06996 28.8501L2.93585 28.8722L2.95978 29.3148C3.01713 30.3753 3.84188 31.2348 5.0158 31.4576C5.27118 31.5062 6.03606 31.5157 7.52477 31.4893L9.66634 31.4513V33.6661L6.93923 33.659C5.43943 33.6548 4.08094 33.6295 3.9203 33.6025ZM8.77521 26.5775C9.50364 26.1936 9.82224 25.5933 9.77819 24.6879C9.75601 24.2296 9.72369 24.1024 9.54436 23.7668C9.29452 23.3 8.96326 23.0014 8.50478 22.83C8.18445 22.7103 8.0585 22.7044 6.25056 22.7218L4.33569 22.7403L4.01947 22.9068C3.61898 23.1179 3.3579 23.3786 3.14656 23.779C2.98211 24.0899 2.97942 24.1147 2.96009 25.4357L2.94013 26.777L8.46454 26.7414L8.77521 26.5775ZM13.364 20.4738L16.7764 20.5143C20.4271 20.558 20.6943 20.5788 21.6266 20.8956C22.9348 21.3401 24.1308 22.5042 24.6438 23.8325C25.0378 24.8531 25.0291 24.7347 25.0557 29.4037L25.0802 33.6662H22.6605L22.6804 29.7422C22.699 26.1015 22.6925 25.7892 22.5885 25.418C22.2362 24.1589 21.3577 23.1478 20.3432 22.833C19.8948 22.6941 19.7543 22.6875 17.57 22.6995L15.7674 22.7096V33.6662H13.364V20.4738ZM56.0113 33.5389C54.2195 33.0703 52.8613 31.6601 52.5765 29.9723C52.4898 29.4589 52.4857 29.0941 52.5424 26.8962C52.6131 24.1635 52.627 24.0559 53.0237 23.2261C53.6804 21.8529 55.0222 20.877 56.5998 20.625C56.8387 20.5868 58.1254 20.5464 59.5227 20.533L62.0186 20.5092L61.9707 15.631H64.3331L64.3154 22.7251C64.2954 30.6764 64.3368 29.9647 63.8365 30.9573C63.1834 32.2529 62.1103 33.2211 60.9443 33.5669C60.6643 33.6496 60.2715 33.6654 58.541 33.6626C56.6917 33.6596 56.4232 33.6465 56.0113 33.5389ZM60.4779 31.1454C60.9047 30.9365 61.373 30.4495 61.6052 29.9729C61.9824 29.1988 61.9877 29.1411 61.9877 25.805V22.7712L59.7415 22.7713C58.3118 22.7713 57.3764 22.7965 57.1686 22.8405C56.081 23.0715 55.2101 23.9924 55.0225 25.1104C54.9806 25.3602 54.9627 26.2617 54.9746 27.5109C54.9928 29.4324 54.9991 29.5252 55.1353 29.8623C55.3942 30.5031 56.0892 31.0914 56.7877 31.2606C56.9192 31.2924 57.734 31.3136 58.5985 31.3076C60.13 31.2967 60.1775 31.2924 60.4779 31.1454ZM82.1335 33.5734C80.5654 33.2613 79.3601 32.1372 78.9682 30.6217C78.8606 30.2047 78.8508 28.8662 78.9305 25.4795C78.9733 23.6503 78.9891 23.4456 79.1127 23.0894C79.5349 21.8734 80.7199 20.8681 82.0681 20.5826C82.6875 20.4516 86.6486 20.4572 87.3037 20.5902C89.2425 20.9836 90.5211 22.7185 90.5211 24.9562C90.5211 26.6199 89.8526 27.857 88.6417 28.4341C87.8268 28.8224 87.7837 28.8266 84.3892 28.8629L81.3078 28.8956L81.3168 29.3048C81.3401 30.3471 82.179 31.2366 83.3482 31.4584C83.5985 31.5059 84.3768 31.5157 85.8528 31.4891L87.9944 31.4511V32.3663C87.9944 32.8695 88.0118 33.368 88.0329 33.4737L88.0714 33.6661L85.306 33.6602C83.2875 33.6561 82.4306 33.6327 82.1335 33.5734ZM87.1454 26.5683C87.824 26.2354 88.1449 25.6574 88.1424 24.7716C88.1414 24.3749 88.1102 24.2119 87.9824 23.9331C87.7772 23.4862 87.4347 23.1114 87.0429 22.9049L86.731 22.7403L84.8633 22.7217C82.7721 22.7006 82.5489 22.7307 82.0673 23.0975C81.425 23.5869 81.2768 24.0643 81.2768 25.6487V26.7769L86.7926 26.7413L87.1454 26.5683ZM94.1554 33.5506C93.0385 33.1936 92.2091 32.3872 91.8051 31.2653L91.6611 30.8655L91.6266 17.7854H94.0147L94.0552 18.6261C94.0774 19.0883 94.0955 19.7087 94.0955 20.0045V20.5421L97.0536 20.6325V22.7712H94.1128L94.0673 26.4612C94.016 30.633 94.0076 30.541 94.4741 31.0209C94.8529 31.4109 95.0012 31.4502 96.0964 31.4502H97.0533L97.0534 33.6661L95.7748 33.6628C94.7276 33.6599 94.4344 33.64 94.1554 33.5506ZM106.712 21.5248C106.659 19.4709 106.339 18.1208 105.495 16.4004C103.449 12.2287 99.0478 9.28662 94.1308 8.80322C93.7606 8.76682 93.0325 8.73708 92.5132 8.73708L91.5686 8.73692L91.5688 6.3172L92.8782 6.35534C95.7979 6.44094 97.8489 6.92925 100.289 8.11965C101.91 8.90968 103.389 9.96014 104.67 11.2291C106.64 13.1844 108.004 15.5351 108.67 18.1238C108.973 19.3019 109.073 20.0652 109.114 21.5248L109.151 22.8327H106.745L106.712 21.5248ZM100.628 22.2634C100.628 20.0333 100.047 18.4729 98.6909 17.0547C97.8232 16.1475 96.8247 15.5071 95.6175 15.0838C94.716 14.7677 93.9954 14.6455 92.7858 14.6038L91.6919 14.5661V12.3072H92.2312C93.0954 12.3075 94.3772 12.4231 95.0471 12.5616C97.6881 13.107 100.062 14.6916 101.443 16.8312C102.407 18.3231 102.846 19.8785 102.846 21.7923V22.7712H100.628L100.628 22.2634Z" fill="#ACACAC"/>
<path d="M29.0172 36.3817L31.5595 36.3606C34.4032 36.3369 34.4456 36.3311 35.0343 35.8886C35.5714 35.4848 35.8547 34.9255 35.95 34.0814L35.9899 33.7276H33.2316C30.8917 33.7276 30.412 33.7124 30.069 33.6275C28.598 33.2635 27.3096 32.1151 26.7446 30.6649L26.583 30.2498V23.7252L26.7823 23.2329C27.1657 22.2862 27.9054 21.5096 28.8631 21.0474C29.7981 20.5964 29.8778 20.5861 32.4374 20.5861C35.0118 20.5861 35.0815 20.5953 36.0427 21.0643C37.0476 21.5544 37.8498 22.5546 38.1038 23.6329C38.2446 24.2317 38.2469 35.0558 38.1062 35.6076C37.8514 36.6061 37.0674 37.5534 36.1037 38.0265C35.0654 38.536 34.9659 38.5487 31.8058 38.5756L29.0172 38.5993V36.3817ZM35.932 28.4493C35.9465 26.7653 35.9348 25.1849 35.906 24.9376C35.7967 23.9992 35.4638 23.4755 34.7507 23.1191C34.1388 22.8134 33.6899 22.7568 32.0856 22.7842C30.8321 22.805 30.681 22.8196 30.3573 22.9476C29.6847 23.2138 29.224 23.6785 28.9379 24.3788C28.8092 24.6937 28.8014 24.8146 28.7815 26.8337C28.7587 29.1539 28.7809 29.3805 29.091 29.996C29.4817 30.7713 30.1816 31.246 31.2665 31.4718C31.3343 31.4859 32.4059 31.5006 33.6476 31.5046L35.9057 31.5117L35.932 28.4493ZM68.2736 37.4251L68.2736 36.3129L70.6002 36.3119C73.4965 36.3103 73.7695 36.2671 74.3872 35.7095C74.8373 35.3035 75.0782 34.784 75.1525 34.0604L75.1923 33.6716L69.3522 33.6352L68.8431 33.4393C68.1634 33.1774 67.6632 32.8656 67.1539 32.3856C66.4609 31.7329 65.9693 30.8835 65.8104 30.0653C65.7601 29.8056 65.745 28.8092 65.7601 26.7107C65.7837 23.4378 65.7691 23.5747 66.1794 22.7682C66.6699 21.8045 67.7518 20.9728 68.9517 20.6368C69.3062 20.5374 69.6136 20.5244 71.6324 20.5244C74.2012 20.5244 74.2638 20.5326 75.2376 20.9988C75.9429 21.3363 76.6549 22.0337 76.9838 22.7096C77.4264 23.6193 77.4087 23.3394 77.4175 29.5729C77.4247 34.75 77.4169 35.2041 77.3166 35.5673C77.0196 36.6412 76.291 37.483 75.2067 38.005C74.235 38.4731 74.1519 38.483 71.0316 38.5122L68.2736 38.5376L68.2736 37.4251ZM75.1386 28.3263C75.1744 25.7232 75.1666 25.1183 75.0919 24.6977C74.8897 23.5605 74.2792 22.9804 73.0609 22.7687C72.8139 22.7258 72.1379 22.708 71.2845 22.7223C70.0202 22.7435 69.8791 22.7569 69.5703 22.8854C68.868 23.1782 68.3902 23.6671 68.1309 24.3584C68.0073 24.6874 67.9975 24.8439 67.9778 26.7875C67.9547 29.0621 67.9785 29.3013 68.2842 29.9132C68.6375 30.619 69.265 31.0981 70.1343 31.3255C70.5372 31.4309 70.823 31.4437 72.8402 31.4468L75.0955 31.4502L75.1386 28.3263ZM42.8835 33.6857C40.5217 33.3922 39.3205 31.7481 39.4509 28.988C39.4906 28.1486 39.6347 27.6312 39.9751 27.1062C40.4436 26.3837 41.2327 25.8273 42.2065 25.5332C42.6533 25.398 42.7612 25.3931 45.6792 25.3714L48.691 25.349L48.6651 24.8091C48.6445 24.3798 48.6048 24.1986 48.4698 23.9233C48.258 23.4908 47.7973 23.0695 47.333 22.8831C46.9901 22.7459 46.9198 22.7419 44.4702 22.7224L41.9589 22.7023V20.4777L44.4086 20.5222C47.0882 20.5708 47.5668 20.6198 48.366 20.9274C49.5651 21.3895 50.4038 22.2818 50.8283 23.547C51.1117 24.3915 51.154 24.9746 51.1261 27.6339C51.0979 30.3313 51.0919 30.3721 50.5854 31.4244C50.0808 32.472 49.2638 33.2165 48.2448 33.5572C47.864 33.6844 47.7284 33.6917 45.4716 33.7018C44.1667 33.7075 43.0021 33.7004 42.8835 33.6857ZM47.2697 31.3479C47.6278 31.1826 48.0574 30.7925 48.2976 30.4144C48.6106 29.9219 48.6762 29.5762 48.6762 28.4162V27.3744L46.1342 27.4044C43.392 27.4366 43.2318 27.4541 42.6688 27.7839C42.0006 28.1747 41.6634 29.2482 41.9288 30.1405C42.0398 30.5144 42.4747 31.0259 42.8456 31.219C43.3217 31.4668 43.6827 31.5059 45.3793 31.493C46.8772 31.4818 47.0004 31.4722 47.2697 31.3479ZM3.78105 33.5639C2.07735 33.1999 0.864458 31.982 0.572799 30.3422C0.506261 29.968 0.501825 29.3097 0.549986 26.8645C0.582621 25.2055 0.638862 23.6821 0.675141 23.479C0.862398 22.427 1.68985 21.4438 2.85823 20.8849C3.59949 20.5303 3.90097 20.4959 6.28684 20.4947C8.7695 20.4934 9.09903 20.5333 9.90937 20.9323C10.5098 21.2281 11.1622 21.8349 11.5069 22.4185C11.9763 23.2138 12.2371 24.3515 12.1674 25.3015C12.0342 27.113 11.1726 28.2478 9.57398 28.717C9.24731 28.8129 8.83858 28.8282 6.06885 28.849L2.93348 28.8721L2.96199 29.3455C2.98322 29.7018 3.03249 29.9012 3.16066 30.152C3.37453 30.5704 3.83554 31.0232 4.25743 31.2291C4.823 31.5052 5.13985 31.5305 7.49403 31.4894L9.66634 31.4513V33.6661L6.93923 33.6612C4.76597 33.6572 4.12467 33.6374 3.78105 33.5639ZM8.53646 26.6802C8.96437 26.5533 9.35694 26.2356 9.57287 25.8414C9.72971 25.555 9.75728 25.4313 9.77756 24.9255C9.7972 24.439 9.77883 24.2818 9.66888 23.9897C9.50507 23.5559 9.10014 23.0959 8.70313 22.8935L8.40307 22.7403L4.33569 22.7403L3.97749 22.9158C3.74371 23.0287 3.53867 23.1932 3.37786 23.3968C3.00318 23.8706 2.94884 24.1431 2.94884 25.5523V26.7721H5.58756C7.74862 26.7721 8.28251 26.7554 8.53646 26.6802ZM13.364 20.4937L15.3823 20.4974C18.6598 20.5032 20.5127 20.5803 21.0982 20.7347C23.0099 21.2395 24.3481 22.6082 24.8945 24.6178C25.0355 25.1366 25.0368 25.1771 25.0582 29.4036L25.0802 33.6662L22.6616 33.6661L22.7004 25.6949L22.5546 25.264C22.1614 24.1007 21.5369 23.3432 20.6295 22.9283C20.1398 22.7044 19.7808 22.6767 17.6625 22.6982L15.7674 22.7177L15.7674 33.6662H13.364V20.4937ZM56.0187 33.5406C54.4456 33.1292 53.1779 31.9651 52.704 30.4974C52.5003 29.8661 52.4659 28.9516 52.5476 26.3413C52.6137 24.2276 52.6419 24.0595 53.0809 23.1657C53.6506 22.0056 54.7344 21.1263 56.0748 20.7368C56.4878 20.6165 56.7563 20.598 58.7525 20.5494C59.9727 20.5198 61.2106 20.5122 61.5035 20.5328L62.0361 20.57L61.9691 15.631H64.3331L64.2988 29.7575L64.1549 30.1884C63.6395 31.731 62.3988 33.0718 61.0669 33.5251C60.6792 33.6572 60.5774 33.6628 58.5674 33.6612C56.7001 33.6594 56.4227 33.6463 56.0187 33.5406ZM60.5164 31.1264C60.9425 30.9171 61.3617 30.4797 61.6138 29.9813C61.9736 29.2691 61.9859 29.133 61.9869 25.8026L61.9877 22.7712H59.6896C57.188 22.7712 56.9379 22.7978 56.3804 23.124C55.687 23.5298 55.1634 24.2776 55.0199 25.0672C54.9799 25.2865 54.9622 26.2242 54.9739 27.4986L54.9929 29.5727L55.1656 29.942C55.4549 30.5607 55.9509 30.9946 56.6161 31.2109C56.924 31.3108 57.1538 31.3226 58.5674 31.3101L60.1697 31.2964L60.5164 31.1264ZM82.3103 33.6025C80.6261 33.3192 79.3126 32.1193 78.9604 30.5425C78.8624 30.1026 78.8589 29.8055 78.9154 26.7721L78.9771 23.479L79.1319 23.0679C79.3476 22.4951 79.6138 22.1049 80.1054 21.6419C80.579 21.1956 81.1003 20.8855 81.7393 20.6698C82.1649 20.5265 82.2054 20.5243 84.6667 20.5243C87.1104 20.5243 87.1722 20.5274 87.6248 20.6682C88.8867 21.0613 89.8095 21.9987 90.2776 23.3631C90.4791 23.9502 90.4864 24.0045 90.4883 24.9254C90.4902 25.7569 90.4718 25.9389 90.3461 26.3413C89.9494 27.6109 89.193 28.3474 87.9022 28.7209C87.5776 28.8148 87.1486 28.8306 84.3961 28.8501L81.26 28.8721L81.2942 29.3227C81.3167 29.623 81.3813 29.8857 81.4881 30.1107C81.6763 30.5085 82.1752 31.003 82.6094 31.2226C83.1698 31.5063 83.5105 31.5347 85.8467 31.4921L87.9946 31.453L87.9955 32.4209C87.9961 32.9534 88.013 33.4514 88.0335 33.5276L88.0706 33.6661L85.3365 33.6588C83.8326 33.6548 82.471 33.6295 82.3103 33.6025ZM86.9835 26.6417C87.659 26.3892 88.0771 25.8196 88.1536 25.0469C88.2498 24.0785 87.7167 23.1372 86.8989 22.8316C86.6003 22.7199 86.4162 22.7096 84.7331 22.7096C82.5842 22.7096 82.4489 22.7337 81.9242 23.2128C81.3747 23.7147 81.317 23.9184 81.2889 25.4642L81.2649 26.7721H83.9495C86.5342 26.7721 86.6473 26.7671 86.9835 26.6417ZM94.2259 33.5688C93.1353 33.2757 92.1939 32.3587 91.7983 31.204L91.6613 30.8038L91.6266 17.7854H94.0147L94.0552 18.6261C94.0774 19.0883 94.0955 19.7087 94.0955 20.0045V20.5421L97.0536 20.6325V22.7712H94.1128L94.067 26.4501C94.0337 29.1172 94.0405 30.2003 94.0909 30.387C94.1859 30.74 94.5031 31.135 94.8293 31.307C95.0804 31.4394 95.1742 31.4502 96.0774 31.4502H97.0533L97.0534 33.6661L95.8055 33.6621C94.9209 33.6591 94.4611 33.6321 94.2259 33.5688ZM100.628 22.2634C100.628 21.5066 100.52 20.516 100.379 19.9658C100.216 19.3361 99.6809 18.2417 99.2668 17.693C97.7258 15.6521 95.3689 14.5846 92.4032 14.5846H91.692L91.6919 12.3072H92.2006C93.0252 12.3075 94.3273 12.4249 94.9892 12.5587C98.504 13.2695 101.351 15.6919 102.41 18.8723C102.723 19.8138 102.793 20.2554 102.828 21.5555L102.862 22.7712H100.628L100.628 22.2634Z" fill="#ACACAC"/>
<path d="M29.0172 36.3817L31.5595 36.3606C34.4032 36.3369 34.4456 36.3311 35.0343 35.8886C35.5708 35.4851 35.855 34.9251 35.9497 34.0844L35.9893 33.7332L33.1041 33.7151L30.2192 33.6969L29.726 33.524C28.3587 33.0445 27.1969 31.9079 26.7258 30.5884C26.5859 30.196 26.5827 30.1352 26.5653 27.4337L26.5474 24.6792H28.8014L28.7812 26.8182C28.759 29.1159 28.7816 29.3657 29.066 29.9729C29.2694 30.4068 29.8098 30.9408 30.27 31.1625C30.9218 31.4764 31.2448 31.5095 33.6784 31.5106L35.9057 31.5117L35.9293 28.4187C35.9424 26.7174 35.9372 25.1801 35.9179 25.0024L35.8822 24.6792H38.1996V29.9599C38.1996 35.7736 38.2117 35.573 37.814 36.3743C37.5122 36.983 36.7713 37.6987 36.1037 38.0265C35.0654 38.536 34.9659 38.5487 31.8058 38.5756L29.0172 38.5993V36.3817ZM68.2736 37.4251L68.2736 36.3129L70.6002 36.3119C73.4965 36.3103 73.7695 36.2671 74.3872 35.7095C74.8379 35.3029 75.0783 34.7842 75.1529 34.0575L75.193 33.6661H72.4519C69.9448 33.6661 69.6711 33.6558 69.2454 33.5471C67.5612 33.1168 66.1126 31.6347 65.8078 30.03C65.7738 29.8517 65.7469 28.5803 65.7469 27.1638V24.6178H67.9964L67.9761 26.7387C67.9625 28.1347 67.9793 28.9724 68.0241 29.1895C68.1952 30.0128 68.725 30.718 69.4447 31.0808C70.109 31.416 70.4076 31.448 72.8706 31.4491L75.0955 31.4502L75.1393 28.4083C75.1633 26.7353 75.1641 25.198 75.1408 24.992L75.0984 24.6178H77.38L77.4237 26.849C77.4478 28.0763 77.4562 30.4653 77.4427 32.1579C77.4153 35.5378 77.4111 35.5793 77.0213 36.31C76.6213 37.0596 76.0372 37.6052 75.2067 38.005C74.235 38.4731 74.1519 38.483 71.0316 38.5122L68.2736 38.5376L68.2736 37.4251ZM42.8835 33.6857C40.9228 33.4422 39.7424 32.2488 39.4914 30.2563C39.3913 29.4618 39.4445 28.4097 39.6118 27.8757C39.9543 26.7823 40.9006 25.9278 42.2065 25.5332C42.6533 25.398 42.7612 25.3931 45.6792 25.3714L48.691 25.349L48.6642 24.8141C48.639 24.3157 48.5921 24.1523 48.3196 23.6163C48.3063 23.5902 48.8733 23.5763 49.5797 23.5855L50.8642 23.6022L50.9837 24.0329C51.0933 24.4284 51.1036 24.688 51.1069 27.1723C51.1111 30.2799 51.1034 30.3463 50.5854 31.4244C50.0821 32.4716 49.2643 33.2165 48.2448 33.5572C47.864 33.6844 47.7284 33.6917 45.4716 33.7018C44.1667 33.7075 43.0021 33.7004 42.8835 33.6857ZM47.3273 31.3114C47.7598 31.0992 48.2607 30.5777 48.4795 30.1115C48.6387 29.7718 48.6463 29.7097 48.6655 28.5727L48.6857 27.3877L46.5703 27.3892C43.9072 27.3911 43.3606 27.438 42.8244 27.7095C42.1645 28.0434 41.9166 28.4663 41.8535 29.3651C41.81 29.9881 41.9397 30.3843 42.3209 30.7911C42.9177 31.4286 43.2679 31.509 45.3793 31.493L46.9814 31.4809L47.3273 31.3114ZM3.78105 33.5639C2.05296 33.1947 0.808059 31.9163 0.553946 30.2498C0.508003 29.9501 0.505785 29.0691 0.546025 27.357C0.57771 26.0028 0.604642 24.7216 0.605592 24.5103L0.607177 24.1255L2.97974 24.1252L2.94203 26.7723H5.58439C8.51587 26.7723 8.62059 26.7606 9.11899 26.3805C9.26886 26.2661 9.47418 26.0237 9.57509 25.8416C9.74841 25.5292 9.75887 25.4711 9.75887 24.8181V24.1255H12.1214L12.1642 24.5257C12.219 25.0368 12.1528 25.7425 11.9977 26.302C11.7202 27.3025 11.1603 27.995 10.2825 28.4235C9.43917 28.8352 9.13658 28.8651 5.79842 28.8651L2.93284 28.8649L2.96104 29.3464C2.98053 29.6819 3.03328 29.9199 3.13499 30.1313C3.32225 30.5204 3.83634 31.0237 4.25473 31.2278C4.82348 31.5052 5.13779 31.5304 7.49403 31.4894L9.66634 31.4513V33.6661L6.93923 33.6612C4.76597 33.6572 4.12467 33.6374 3.78105 33.5639ZM13.3641 24.1253H15.7674V33.6662H13.364L13.3641 24.1253ZM22.7004 25.6949L22.5546 25.264C22.4745 25.0273 22.3286 24.6739 22.2303 24.4792L22.0516 24.1253H24.7488L24.8497 24.485C25.0436 25.1749 25.0693 25.7825 25.0712 29.7112L25.0733 33.6661H22.6616L22.7004 25.6949ZM56.0187 33.5406C54.4456 33.1292 53.1779 31.9651 52.704 30.4974C52.5003 29.8661 52.4659 28.9516 52.5476 26.3413C52.6137 24.2276 52.6419 24.0595 53.0809 23.1657C53.6506 22.0056 54.7344 21.1263 56.0748 20.7368C56.4878 20.6165 56.7563 20.598 58.7525 20.5494C59.9727 20.5198 61.2136 20.5125 61.5102 20.5333L62.0495 20.5711V19.8166H64.3344L64.2977 29.7575L64.1549 30.1884C63.6424 31.7283 62.3991 33.0716 61.0669 33.5251C60.6792 33.6572 60.5774 33.6628 58.5674 33.6612C56.7001 33.6594 56.4227 33.6463 56.0187 33.5406ZM60.5164 31.1264C61.1441 30.8183 61.6707 30.1 61.8909 29.2513C61.9725 28.9361 61.9877 28.401 61.9877 25.8245V22.7712H59.6896C57.188 22.7712 56.9379 22.7978 56.3804 23.124C55.6881 23.5291 55.1634 24.2777 55.0205 25.0638C54.9815 25.2784 54.9635 26.2338 54.9747 27.4951L54.9929 29.5727L55.1656 29.942C55.4549 30.5607 55.9509 30.9946 56.6161 31.2109C56.924 31.3108 57.1538 31.3226 58.5674 31.3101L60.1697 31.2964L60.5164 31.1264ZM82.3103 33.6025C80.6721 33.3271 79.3831 32.1885 78.9955 30.6748C78.8565 30.1322 78.8486 29.7033 78.9147 26.2591L78.9554 24.1253H81.308L81.2649 26.7721H83.9495C86.5342 26.7721 86.6473 26.7671 86.9835 26.6417C87.4242 26.4772 87.7626 26.1734 87.96 25.7666C88.1398 25.3952 88.2173 24.7657 88.1297 24.3868L88.0692 24.1253H90.4573L90.4974 24.2848C90.5194 24.3727 90.523 24.7811 90.5056 25.1928C90.427 27.041 89.5905 28.2051 87.9943 28.6879C87.5448 28.824 87.4469 28.8287 84.3961 28.8501L81.26 28.8721L81.295 29.3363C81.3191 29.6544 81.3801 29.9022 81.4889 30.124C81.6779 30.5101 82.1866 31.0085 82.6094 31.2226C83.1698 31.5063 83.5105 31.5347 85.8467 31.4921L87.9946 31.453L87.9955 32.4209C87.9961 32.9534 88.013 33.4514 88.0335 33.5276L88.0706 33.6661L85.3365 33.6588C83.8326 33.6548 82.471 33.6295 82.3103 33.6025ZM94.2259 33.5688C93.135 33.2757 92.1917 32.3567 91.799 31.204C91.6638 30.8071 91.6627 30.7666 91.6442 26.1411L91.6253 21.4786H97.0536V22.7712H94.1128L94.067 26.4501C94.0337 29.1172 94.0405 30.2003 94.0909 30.387C94.1859 30.74 94.5031 31.135 94.8293 31.307C95.0804 31.4394 95.1742 31.4502 96.0774 31.4502H97.0533L97.0534 33.6661L95.8055 33.6621C94.9209 33.6591 94.4611 33.6321 94.2259 33.5688ZM0.637911 23.6021L1.91671 23.5855C2.62011 23.5764 3.19535 23.5799 3.19535 23.5934C3.19535 23.6068 3.15353 23.7184 3.10236 23.8408L3.00889 24.064H0.599889L0.637911 23.6021ZM9.49065 23.5712H11.9931L12.1181 24.0638L9.69708 24.0625L9.49065 23.5712ZM13.364 23.5098H15.7674V24.064H13.364V23.5098ZM21.7589 23.7845L21.5564 23.5098H24.505L24.6042 23.7573C24.6587 23.8934 24.7033 24.0181 24.7033 24.0342C24.7033 24.0507 24.0863 24.0627 23.3322 24.0614L21.961 24.059L21.7589 23.7845ZM78.9579 23.9253C78.9785 23.8491 78.9956 23.7383 78.9959 23.6791C78.9969 23.5799 79.0995 23.5712 80.2863 23.5712H81.576L81.3694 24.0625L78.9208 24.0638L78.9579 23.9253ZM87.8249 23.5712H89.0768C89.7654 23.5712 90.341 23.5921 90.356 23.6176C90.3709 23.6429 90.4026 23.7537 90.4262 23.8636L90.4692 24.0638H88.069L87.8249 23.5712ZM100.628 22.2634C100.628 21.5066 100.52 20.516 100.379 19.9658C100.216 19.3361 99.6809 18.2417 99.2668 17.693C97.7258 15.6521 95.3689 14.5846 92.4032 14.5846H91.692L91.6919 12.3072H92.2006C93.0252 12.3075 94.3273 12.4249 94.9892 12.5587C98.504 13.2695 101.351 15.6919 102.41 18.8723C102.723 19.8138 102.793 20.2554 102.828 21.5555L102.862 22.7712H100.628L100.628 22.2634Z" fill="#ACACAC"/>
<path d="M29.0172 37.4824V36.3744L31.3746 36.3733C34.3352 36.372 34.5817 36.3314 35.2233 35.7407C35.6463 35.3514 35.8589 34.8658 35.9489 34.0844L35.9893 33.7332L33.1041 33.7151L30.2192 33.6969L29.726 33.524C28.3572 33.0442 27.1868 31.898 26.7286 30.5884C26.613 30.2577 26.5845 30.0259 26.5648 29.2498L26.5411 28.311H28.7707L28.7715 28.6956C28.7734 29.752 29.3659 30.7274 30.27 31.1625C30.9223 31.4767 31.2442 31.5095 33.6855 31.5106L35.9194 31.5116L35.9193 28.3111H38.1996V31.7758C38.1996 34.6859 38.1846 35.2987 38.1055 35.6019C37.7874 36.8214 36.7201 37.8995 35.4239 38.3101C34.654 38.5539 34.144 38.5905 31.5086 38.5905L29.0172 38.5902L29.0172 37.4824ZM68.2736 37.4251L68.2736 36.3129L70.6002 36.3119C73.0552 36.3106 73.4788 36.2735 73.9831 36.0159C74.2907 35.8587 74.638 35.5187 74.8368 35.1802C74.9981 34.9054 75.173 34.2254 75.1749 33.8661L75.176 33.6661H72.4433C69.9447 33.6661 69.6709 33.6558 69.2454 33.5471C67.8098 33.1805 66.5756 32.0986 66.017 30.7171C65.8063 30.1966 65.7471 29.8137 65.7471 28.9797V28.2494H67.9656V28.6057C67.9656 29.6607 68.5421 30.6259 69.4447 31.0808C70.1093 31.4158 70.4068 31.448 72.8803 31.4489L75.1144 31.4502V28.2494H77.4635L77.44 31.7426C77.4144 35.5845 77.4242 35.4809 77.0158 36.31C76.8784 36.5885 76.6625 36.8676 76.316 37.214C75.9005 37.6291 75.7153 37.7626 75.2335 37.9935C74.2297 38.4745 74.1616 38.4832 71.0316 38.5122L68.2736 38.5376L68.2736 37.4251ZM42.7049 33.6583C41.0855 33.418 39.9471 32.3746 39.5757 30.7906C39.4027 30.053 39.4156 28.4921 39.5992 27.9108C39.7652 27.385 40.0204 26.968 40.4372 26.5413L40.753 26.2182H51.1519L51.1269 28.1109C51.1025 29.955 51.0978 30.0175 50.936 30.5457C50.5517 31.8013 49.8513 32.7357 48.8987 33.2626C48.139 33.6827 48.0999 33.6878 45.4716 33.7033C44.1667 33.7105 42.9216 33.6906 42.7049 33.6583ZM47.3273 31.3114C47.7598 31.0992 48.2607 30.5777 48.4795 30.1115C48.6387 29.7718 48.6463 29.7097 48.6655 28.5727L48.6857 27.3877L46.5703 27.3892C43.9072 27.3911 43.3606 27.438 42.8244 27.7095C42.3893 27.9298 42.0745 28.2766 41.9556 28.6663C41.9171 28.7926 41.8718 29.1173 41.8547 29.3882C41.8293 29.793 41.847 29.9427 41.9556 30.2297C42.1069 30.6305 42.4497 31.0134 42.8345 31.2123C43.343 31.4745 43.62 31.5055 45.3484 31.4929L46.9814 31.4809L47.3273 31.3114ZM3.79119 33.5658C2.54122 33.298 1.52509 32.5581 0.987553 31.5241C0.520043 30.625 0.497389 30.4278 0.530024 27.5261L0.54555 26.1564H2.949L2.94884 26.7721H5.58756C8.52427 26.7721 8.61932 26.7612 9.12929 26.3724L9.41239 26.1564H12.0235L11.985 26.3566C11.9638 26.4667 11.8471 26.759 11.7255 27.0066C11.4153 27.6386 10.9459 28.0996 10.2825 28.4235C9.43917 28.8352 9.13658 28.8651 5.79842 28.8651L2.93284 28.8649L2.96104 29.3464C2.9959 29.9492 3.16383 30.3163 3.60726 30.7606C3.97163 31.1253 4.41728 31.3555 4.9583 31.4584C5.20813 31.5059 5.99994 31.5157 7.49388 31.4904L9.6665 31.4535L9.66634 33.6661L6.93923 33.6612C4.791 33.6572 4.12293 33.637 3.79119 33.5658ZM13.364 26.1564H15.7674V33.6662H13.364V26.1564ZM22.6698 32.6352C22.6698 32.0681 22.6882 30.3784 22.7105 28.8803L22.7514 26.1566H25.0731L25.0733 33.6661L22.6696 33.6662L22.6698 32.6352ZM56.0407 33.5452C54.5496 33.1507 53.3198 32.086 52.7945 30.7342C52.5136 30.0118 52.4843 29.6142 52.5267 27.1106C52.5663 24.7887 52.5956 24.448 52.8143 23.7714L52.9386 23.3867H55.9641L55.7042 23.6679C55.3934 24.0049 55.1102 24.5841 55.0211 25.0657C54.981 25.2819 54.9633 26.2175 54.9747 27.4951C54.9926 29.5121 54.9972 29.5816 55.1346 29.8805C55.4584 30.5846 55.9073 30.9851 56.6217 31.2073C56.959 31.312 57.1939 31.3271 58.509 31.3271C59.8963 31.3271 60.0381 31.3169 60.366 31.1943C60.8307 31.0206 61.2966 30.5785 61.5759 30.0465C61.9777 29.2809 61.9877 29.1869 61.9877 26.1324V23.3867H64.3292L64.3287 26.3258C64.3287 28.0622 64.3021 29.4262 64.2642 29.6591C64.1075 30.6228 63.531 31.657 62.699 32.4657C62.1307 33.0183 61.6627 33.3224 61.0669 33.5251C60.6792 33.6572 60.5774 33.6628 58.5674 33.6612C56.7272 33.6596 56.4197 33.6453 56.0407 33.5452ZM82.3103 33.6025C80.6835 33.3289 79.3262 32.1045 78.9696 30.5884C78.8682 30.158 78.8361 27.9325 78.9142 26.7566L78.9538 26.1566H81.2769V26.7721H83.9554C86.5266 26.7721 86.6478 26.7669 86.9802 26.6425C87.1708 26.5713 87.4181 26.433 87.5299 26.3349L87.7333 26.1564H90.4061L90.3636 26.2951C90.1426 27.0138 89.8488 27.5043 89.3865 27.9255C88.9855 28.2909 88.5887 28.5084 87.9943 28.6879C87.5448 28.824 87.4469 28.8287 84.3961 28.8501L81.26 28.8721L81.295 29.3363C81.3759 30.4068 82.1562 31.229 83.3044 31.454C83.5999 31.512 84.2368 31.5215 85.8467 31.4921L87.9946 31.453L87.9955 32.4209C87.9961 32.9534 88.013 33.4514 88.0335 33.5276L88.0706 33.6661L85.3365 33.6588C83.8326 33.6548 82.471 33.6295 82.3103 33.6025ZM94.2259 33.5688C93.135 33.2757 92.1603 32.31 91.7776 31.1424C91.6779 30.8386 91.6645 30.4867 91.6448 27.7106L91.6231 24.6178H94.0933L94.0789 27.5261C94.0646 30.402 94.0662 30.4373 94.1977 30.6807C94.3523 30.9671 94.5993 31.2103 94.8781 31.3506C95.0353 31.4298 95.2767 31.4502 96.0644 31.4502H97.0533L97.0534 33.6661L95.8055 33.6621C94.9209 33.6591 94.4611 33.6321 94.2259 33.5688ZM100.628 22.2634C100.628 21.5066 100.52 20.516 100.379 19.9658C100.216 19.3361 99.6809 18.2417 99.2668 17.693C97.7258 15.6521 95.3689 14.5846 92.4032 14.5846H91.692L91.6919 12.3072H92.2006C93.0252 12.3075 94.3273 12.4249 94.9892 12.5587C98.504 13.2695 101.351 15.6919 102.41 18.8723C102.723 19.8138 102.793 20.2554 102.828 21.5555L102.862 22.7712H100.628L100.628 22.2634Z" fill="#ACACAC"/>
<path d="M29.0172 37.4824V36.3744L31.3746 36.3733C34.3352 36.372 34.5817 36.3314 35.2233 35.7407C35.6463 35.3514 35.8589 34.8658 35.9489 34.0844L35.9893 33.7332L33.1041 33.7151L30.2192 33.6969L29.726 33.524C29.0112 33.2733 28.442 32.9121 27.8729 32.3472C27.455 31.9323 26.8604 31.1052 26.8604 30.9388C26.8604 30.9152 27.5265 30.896 28.3406 30.896C29.8076 30.896 29.8231 30.8976 30.0614 31.0479C30.1935 31.1313 30.4773 31.2622 30.6919 31.3394C31.0682 31.4745 31.1661 31.4802 33.5006 31.4992L35.9194 31.5193V30.896H38.1996V33.0683C38.1996 35.4968 38.1822 35.6364 37.783 36.3994C37.5132 36.9151 36.8572 37.5969 36.3342 37.905C35.848 38.1911 35.0636 38.4487 34.442 38.5256C34.1549 38.561 32.8169 38.5902 31.4687 38.5902H29.0172L29.0172 37.4824ZM68.2736 37.4251L68.2736 36.3129L70.6002 36.3119C73.0552 36.3106 73.4788 36.2735 73.9831 36.0159C74.2907 35.8587 74.638 35.5187 74.8368 35.1802C74.9981 34.9054 75.173 34.2254 75.1749 33.8661L75.176 33.6661H72.4433C69.9447 33.6661 69.6709 33.6558 69.2454 33.5471C67.9577 33.2183 66.7794 32.2744 66.1846 31.096L66.0527 30.8346H68.9864L69.3976 31.0528C70.0811 31.4152 70.3686 31.4478 72.8803 31.4489L75.1144 31.4502V30.8346H77.4668L77.4399 33.035C77.4104 35.4434 77.3988 35.5321 77.0158 36.31C76.717 36.9167 75.9729 37.6338 75.2985 37.9651C74.2621 38.4737 74.1569 38.4873 71.0316 38.5142L68.2736 38.5376L68.2736 37.4251ZM42.7293 33.6621C41.4633 33.4741 40.4436 32.7776 39.9279 31.7484C39.5654 31.0253 39.4634 30.4936 39.4632 29.3267C39.4632 28.785 39.4829 28.2934 39.5074 28.2339C39.5477 28.1361 39.6728 28.1263 40.8786 28.1263C41.6083 28.1263 42.2054 28.1413 42.2054 28.1592C42.2054 28.1774 42.1618 28.2587 42.1084 28.3399C41.9597 28.5668 41.8372 29.1002 41.8364 29.5243C41.8345 30.5091 42.482 31.244 43.5325 31.4491C43.7717 31.4957 44.4381 31.5139 45.4409 31.501C46.9792 31.481 46.982 31.4805 47.3273 31.3114C47.7604 31.0987 48.2613 30.577 48.4787 30.1117C48.6265 29.795 48.6463 29.6715 48.6663 28.942L48.6884 28.1265H51.158L51.1255 29.0649C51.0989 29.8346 51.0642 30.1014 50.9317 30.5459C50.4777 32.0697 49.5748 33.08 48.2448 33.5518C47.8556 33.69 47.7785 33.6942 45.4718 33.7053C44.1667 33.7118 42.9329 33.6923 42.7293 33.6621ZM3.79119 33.5658C2.22912 33.2309 1.03302 32.1353 0.64203 30.6807C0.529866 30.2631 0.445267 29.1499 0.507053 28.9042L0.547768 28.7417L4.90681 28.7493C7.30693 28.7537 9.14117 28.7793 8.98845 28.8065C8.83589 28.8334 7.41102 28.8578 5.82202 28.8603L2.93284 28.8649L2.96104 29.3464C2.9959 29.9492 3.16383 30.3163 3.60726 30.7606C3.97163 31.1253 4.41728 31.3555 4.9583 31.4584C5.20813 31.5059 5.99994 31.5157 7.49388 31.4904L9.6665 31.4535L9.66634 33.6661L6.93923 33.6612C4.791 33.6572 4.12293 33.637 3.79119 33.5658ZM13.364 28.7418H15.7674L15.7674 33.6662H13.364V28.7418ZM22.6698 31.9888C22.67 31.0663 22.6882 29.9582 22.7102 29.5267L22.7503 28.7417H25.0731L25.0733 33.6661L22.6696 33.6662L22.6698 31.9888ZM56.0249 33.5438C55.7789 33.4786 55.3351 33.2999 55.0389 33.1466C53.8692 32.5418 53.1031 31.67 52.7105 30.4971C52.5098 29.8973 52.4567 28.9423 52.5263 27.1875L52.5722 26.0335H54.9552L54.9742 27.803C54.9921 29.4977 54.9989 29.5855 55.1346 29.8805C55.4584 30.5846 55.9073 30.9851 56.6217 31.2073C56.959 31.312 57.1939 31.3271 58.509 31.3271C59.8963 31.3271 60.0381 31.3169 60.366 31.1943C60.8307 31.0206 61.2966 30.5785 61.5759 30.0465C61.9408 29.3513 61.9875 29.0566 61.9875 27.4557V26.0335H64.3293L64.3287 27.6491C64.3287 28.538 64.2995 29.4422 64.2642 29.6591C64.0068 31.2437 62.628 32.9393 61.1393 33.5017C60.8041 33.6284 60.6743 33.636 58.6288 33.6488C56.6691 33.661 56.4313 33.6512 56.0249 33.5438ZM82.1926 33.573C80.5897 33.254 79.3201 32.0785 78.9696 30.5884C78.9135 30.3506 78.875 29.8947 78.8744 29.4653L78.8735 28.7417L83.2645 28.7494C85.6805 28.7537 87.5307 28.7795 87.3782 28.8065C87.2254 28.8336 85.7865 28.8578 84.1799 28.8603L81.259 28.8651L81.2945 29.3327C81.3759 30.4071 82.1546 31.2286 83.3044 31.454C83.5999 31.512 84.2368 31.5215 85.8467 31.4921L87.9946 31.453L87.9955 32.4209C87.9961 32.9534 88.013 33.4514 88.0335 33.5276L88.0706 33.6661L85.3362 33.6602C83.3358 33.6561 82.492 33.6325 82.1926 33.573ZM94.2561 33.5724C93.1144 33.2591 92.1592 32.3222 91.7797 31.1424C91.6878 30.8568 91.6667 30.5027 91.6451 28.8803L91.6196 26.9568H94.0266L94.0456 28.6958C94.0662 30.5922 94.0722 30.6262 94.4567 31.0405C94.7935 31.403 94.9784 31.4502 96.0644 31.4502H97.0533L97.0534 33.6661L95.8055 33.6607C94.9678 33.6569 94.4584 33.6278 94.2561 33.5724ZM0.54555 28.0647L5.70685 28.0666C11.4523 28.0689 11.0879 28.0359 10.1918 28.4714L9.76235 28.6803H0.54555V28.0647ZM13.364 28.0647H15.7674V28.6801H13.364V28.0647ZM22.7313 28.0647H25.0731V28.6801H22.7313V28.0647ZM78.8736 28.3724V28.0647L89.2577 28.0651L88.9805 28.25C88.8277 28.3516 88.5565 28.4901 88.3772 28.5575C88.0624 28.6762 87.8956 28.6801 83.4624 28.6801H78.8735L78.8736 28.3724ZM100.628 22.2634C100.628 21.5165 100.52 20.5133 100.383 19.9776C100.1 18.8723 99.4686 17.7914 98.597 16.9206C97.9626 16.2871 97.4416 15.9089 96.6434 15.503C95.4533 14.8979 94.4041 14.6527 92.7858 14.6016L91.6919 14.5669V12.2879L92.7549 12.3296C94.0597 12.3807 94.8783 12.4978 95.8163 12.7673C99.3143 13.773 101.878 16.4076 102.671 19.8111C102.763 20.2029 102.803 20.6548 102.828 21.5555L102.862 22.7712H100.628L100.628 22.2634Z" fill="#ACACAC"/>
<path d="M29.0172 37.4824V36.3744L31.3746 36.3733C34.3352 36.372 34.5817 36.3314 35.2233 35.7407C35.647 35.3508 35.8589 34.8661 35.9492 34.0814L35.9899 33.7276L33.253 33.7276C30.2635 33.7276 30.075 33.7091 29.2639 33.3384L28.9249 33.1836L38.1996 33.1737V34.2071C38.1996 35.3896 38.136 35.7245 37.783 36.3994C37.5132 36.9151 36.8572 37.5969 36.3342 37.905C35.848 38.1911 35.0636 38.4487 34.442 38.5256C34.1549 38.561 32.8169 38.5902 31.4687 38.5902H29.0172L29.0172 37.4824ZM68.2736 37.4251L68.2736 36.3129L70.6002 36.3119C73.0552 36.3106 73.4788 36.2735 73.9831 36.0159C74.2907 35.8587 74.638 35.5187 74.8368 35.1802C74.9981 34.9054 75.173 34.2254 75.1749 33.8661L75.176 33.6661H72.4433C69.9421 33.6661 69.6712 33.6558 69.2441 33.5468C68.9875 33.4813 68.6432 33.358 68.4792 33.2727L68.1813 33.1178L77.4728 33.1119L77.438 34.1738C77.4001 35.3328 77.3353 35.6613 77.0158 36.31C76.717 36.9167 75.9729 37.6338 75.2985 37.9651C74.2621 38.4737 74.1569 38.4873 71.0316 38.5142L68.2736 38.5376L68.2736 37.4251ZM42.7293 33.6621C40.8659 33.3855 39.6929 32.1184 39.4708 30.1422L39.4311 29.7882H40.6334C41.3626 29.7882 41.8356 29.8117 41.8356 29.8476C41.8356 29.88 41.8923 30.058 41.9616 30.243C42.19 30.8527 42.7738 31.3009 43.5325 31.4491C43.7717 31.4957 44.4381 31.5139 45.4409 31.501C46.9792 31.481 46.982 31.4805 47.3273 31.3114C47.7574 31.1003 48.2626 30.5759 48.4684 30.1269L48.6236 29.7882H49.8517C51.2776 29.7882 51.1695 29.7112 50.9249 30.5544C50.4889 32.0565 49.574 33.0803 48.2448 33.5518C47.8556 33.69 47.7785 33.6942 45.4718 33.7053C44.1667 33.7118 42.9329 33.6923 42.7293 33.6621ZM3.79119 33.5658C1.97406 33.1765 0.773839 31.8763 0.516717 30.0189L0.476318 29.7267H2.99732L3.0382 29.896C3.16224 30.4074 3.83032 31.0783 4.47415 31.338C4.82538 31.4796 4.85073 31.4807 7.24752 31.4733L9.6665 31.4655L9.66634 33.6661L6.93923 33.6612C4.791 33.6572 4.12293 33.637 3.79119 33.5658ZM13.364 29.7267H15.7674L15.7674 33.6662H13.364V29.7267ZM22.7005 29.7575L25.0731 29.724L25.0733 33.6661L22.6679 33.6661L22.7005 29.7575ZM56.0249 33.5438C55.0891 33.2957 54.0318 32.6138 53.4722 31.8975C52.7915 31.0256 52.5605 30.3661 52.5123 29.1583L52.4787 28.311H54.9482L54.9739 28.942C55.0108 29.8566 55.2963 30.4409 55.9135 30.8655C56.5076 31.2741 56.8058 31.3271 58.509 31.3271C59.8963 31.3271 60.0381 31.3169 60.366 31.1943C61.2247 30.8734 61.9877 29.6501 61.9877 28.5944V28.3108H64.3295L64.3288 28.788C64.3282 29.4425 64.2341 29.9658 64.0149 30.5337C63.5147 31.8288 62.3297 33.052 61.1393 33.5017C60.8041 33.6284 60.6743 33.636 58.6288 33.6488C56.6691 33.661 56.4313 33.6512 56.0249 33.5438ZM82.1926 33.573C80.5897 33.254 79.3201 32.0785 78.9696 30.5884C78.9177 30.3685 78.8749 30.0844 78.8744 29.9575L78.8735 29.7265L81.3078 29.7278L81.4786 30.0944C81.6856 30.5391 82.1398 31.0008 82.583 31.2172C83.1775 31.5074 83.5036 31.5348 85.8467 31.4921L87.9946 31.453L87.9955 32.4209C87.9961 32.9534 88.013 33.4514 88.0335 33.5276L88.0706 33.6661L85.3362 33.6602C83.3358 33.6561 82.492 33.6325 82.1926 33.573ZM94.2561 33.5724C93.1123 33.2588 92.1429 32.3056 91.7842 31.1424C91.715 30.9177 91.6687 30.4884 91.6469 29.8651L91.6138 28.9265H94.0212L94.0449 29.6806C94.0704 30.4886 94.1313 30.69 94.4567 31.0405C94.7935 31.403 94.9784 31.4502 96.0644 31.4502H97.0533L97.0534 33.6661L95.8055 33.6607C94.9678 33.6569 94.4584 33.6278 94.2561 33.5724ZM100.628 22.2634C100.628 21.5165 100.52 20.5133 100.383 19.9776C100.1 18.8723 99.4686 17.7914 98.597 16.9206C97.9626 16.2871 97.4416 15.9089 96.6434 15.503C95.4533 14.8979 94.4041 14.6527 92.7858 14.6016L91.6919 14.5669V12.2879L92.7549 12.3296C94.0597 12.3807 94.8783 12.4978 95.8163 12.7673C99.3143 13.773 101.878 16.4076 102.671 19.8111C102.763 20.2029 102.803 20.6548 102.828 21.5555L102.862 22.7712H100.628L100.628 22.2634Z" fill="#ACACAC"/>
<path d="M29.0172 37.4824V36.3744L31.3746 36.3733C33.1984 36.3725 33.8275 36.3521 34.1548 36.2828C34.5939 36.1898 35.003 35.9883 35.2051 35.7652C35.3176 35.641 35.3781 35.6356 36.6994 35.6356C37.8312 35.6356 38.0764 35.6508 38.0764 35.7211C38.0764 35.7677 37.9607 36.0371 37.8193 36.3192C37.5219 36.9126 36.9107 37.5653 36.3342 37.905C35.848 38.1911 35.0636 38.4487 34.442 38.5256C34.1549 38.561 32.8169 38.5902 31.4687 38.5902H29.0172L29.0172 37.4824ZM68.2736 37.4251L68.2736 36.3129L70.6002 36.3119C73.4379 36.3103 73.7454 36.2646 74.3734 35.7499L74.5878 35.5742H75.9296C77.1336 35.5742 77.2712 35.5847 77.2712 35.6755C77.2712 35.7312 77.1702 35.9861 77.047 36.2423C76.7241 36.9126 76.0115 37.615 75.2985 37.9651C74.2621 38.4737 74.1569 38.4873 71.0316 38.5142L68.2736 38.5376L68.2736 37.4251ZM42.7293 33.6621C41.8697 33.5344 41.022 33.1168 40.4833 32.5556C40.2072 32.2681 39.8206 31.6571 39.8783 31.5994C39.8932 31.5847 42.2966 31.5796 45.2193 31.5883L50.5331 31.6041L50.2274 32.0385C49.7046 32.7827 49.0892 33.252 48.2448 33.5518C47.8556 33.69 47.7785 33.6942 45.4718 33.7053C44.1667 33.7118 42.9329 33.6923 42.7293 33.6621ZM3.81178 33.5703C3.31718 33.4643 2.94076 33.3289 2.57924 33.1271C2.16781 32.8975 1.68414 32.5159 1.50148 32.2766L1.34036 32.0657H9.66634V33.6661L6.93923 33.6612C4.85421 33.6575 4.11786 33.6362 3.81178 33.5703ZM13.364 32.0657H15.7674L15.7674 33.6662H13.364V32.0657ZM22.6698 32.8659V32.0657H25.0731L25.0733 33.6661L22.6696 33.6662L22.6698 32.8659ZM56.0249 33.5438C55.4511 33.3917 54.6037 32.9531 54.1248 32.5602C53.594 32.1249 52.9722 31.2981 52.8384 30.85L52.7968 30.7115H55.703L55.959 30.8968C56.4683 31.2655 56.8344 31.3271 58.5101 31.3271C59.8847 31.3271 60.0405 31.316 60.3575 31.1978C60.5479 31.1264 60.7954 30.988 60.9072 30.8899L61.1106 30.7115H63.9623L63.8292 30.9731C63.2604 32.0902 62.1749 33.1107 61.1393 33.5017C60.8041 33.6284 60.6743 33.636 58.6288 33.6488C56.6691 33.661 56.4313 33.6512 56.0249 33.5438ZM82.1926 33.573C81.3469 33.4048 80.5708 32.9974 80.0016 32.4227L79.6477 32.0657H87.9944L87.9952 32.7273C87.9958 33.0912 88.013 33.4512 88.0335 33.5276L88.0706 33.6661L85.3362 33.6602C83.3358 33.6561 82.492 33.6325 82.1926 33.573ZM94.2561 33.5724C93.1931 33.2808 92.2692 32.4347 91.8711 31.3883L91.7541 31.0808H93.1367C94.0052 31.0808 94.5338 31.1041 94.5581 31.1432C94.5795 31.1775 94.7048 31.2608 94.8368 31.3277C95.0465 31.4347 95.2003 31.4502 96.065 31.4502L97.0533 31.4502L97.0534 33.6661L95.8055 33.6607C94.9678 33.6569 94.4584 33.6278 94.2561 33.5724ZM1.10748 31.7579L0.968859 31.5117H9.66634V32.004H1.24626L1.10748 31.7579ZM13.364 31.5117H15.7674V32.004H13.364V31.5117ZM22.6698 31.7579V31.5117H25.0731V32.004H22.6696L22.6698 31.7579ZM79.5707 31.9271C79.539 31.885 79.4656 31.7741 79.4077 31.681L79.302 31.5117H87.9943V32.004H83.8112C80.5366 32.004 79.6157 31.9874 79.5707 31.9271ZM100.628 22.2634C100.628 21.5165 100.52 20.5133 100.383 19.9776C100.1 18.8723 99.4686 17.7914 98.597 16.9206C97.9626 16.2871 97.4416 15.9089 96.6434 15.503C95.4533 14.8979 94.4041 14.6527 92.7858 14.6016L91.6919 14.5669V12.2879L92.7549 12.3296C94.0597 12.3807 94.8783 12.4978 95.8163 12.7673C99.3143 13.773 101.878 16.4076 102.671 19.8111C102.763 20.2029 102.803 20.6548 102.828 21.5555L102.862 22.7712H100.628L100.628 22.2634Z" fill="#ACACAC"/>
</svg>
