<svg width="105" height="41" viewBox="0 0 105 41" fill="none" xmlns="http://www.w3.org/2000/svg">
<path d="M0.855957 0.168701H104.902V40.5941H0.855957V0.168701Z" fill="#ACACAC"/>
<path d="M61.7579 14.4235C60.4495 14.4235 59.4217 14.7047 58.3935 15.266C58.3935 12.2696 58.3935 9.55434 58.4874 8.61827L52.2244 9.74145V10.3033L52.8786 10.3969C53.719 10.584 54.0008 11.0517 54.1859 12.176C54.3743 14.4235 54.2798 26.4097 54.1859 28.3765C55.8684 28.7512 57.6448 29.0324 59.4212 29.0324C64.3753 29.0324 67.3662 25.9419 67.3662 21.0722C67.3662 17.2333 64.9361 14.4235 61.7579 14.4235ZM59.608 28.0017C59.2339 28.0017 58.7659 28.0017 58.4863 27.9087C58.3924 26.5979 58.2995 21.0723 58.3924 16.2031C58.9532 16.0155 59.3267 15.9219 59.7947 15.9219C61.8524 15.9219 62.974 18.3565 62.974 21.3524C62.9735 25.0994 61.5711 28.0017 59.608 28.0017ZM28.6685 8.99248H12.2172V9.835L13.1521 9.92856C14.3666 10.1157 14.8346 10.8646 15.0208 12.6438C15.302 16.0149 15.2081 22.1024 15.0208 25.0042C14.834 26.7839 14.3671 27.6269 13.1521 27.7194L12.2172 27.9076V28.6566H22.7795V27.9076L21.6579 27.7194C20.4428 27.6264 19.9754 26.7839 19.7886 25.0042C19.6947 23.7864 19.6013 21.8196 19.6013 19.3856L21.8446 19.4791C23.247 19.4791 23.9007 20.6029 24.1813 22.1944H25.0228V15.5477H24.1813C23.9001 17.1398 23.247 18.2629 21.8446 18.2629L19.6019 18.357C19.6019 15.173 19.6952 12.1765 19.7892 10.3974H23.0602C25.5848 10.3974 26.8932 11.9889 27.8275 14.7988L28.7624 14.5176L28.6685 8.99248Z" fill="white"/>
<path d="M33.9966 14.2363C38.6706 14.2363 41.0073 17.4204 41.0073 21.6341C41.0073 25.6607 38.3899 29.033 33.716 29.033C29.0426 29.033 26.7059 25.8483 26.7059 21.6341C26.7059 17.6075 29.3227 14.2363 33.9966 14.2363ZM33.716 15.173C31.6594 15.173 31.0986 17.9823 31.0986 21.6341C31.0986 25.1924 32.0335 28.0953 33.9033 28.0953C36.0516 28.0953 36.6135 25.2859 36.6135 21.6341C36.6135 18.0758 35.6797 15.173 33.716 15.173ZM68.5807 21.7282C68.5807 17.8887 71.0107 14.2363 75.7781 14.2363C79.7028 14.2363 81.5731 17.1398 81.5731 20.9787H72.88C72.7861 24.4434 74.4686 26.9721 77.8341 26.9721C79.3298 26.9721 80.0774 26.5984 81.0128 25.9424L81.3858 26.4102C80.4509 27.721 78.3949 29.033 75.7781 29.033C71.5716 29.0324 68.5807 26.036 68.5807 21.7282ZM72.88 19.9491L77.2732 19.855C77.2732 17.9823 76.9926 15.173 75.404 15.173C73.8154 15.173 72.9728 17.7946 72.88 19.9491ZM92.6979 14.9859C91.5762 14.517 90.0811 14.2363 88.3986 14.2363C84.9408 14.2363 82.7897 16.2961 82.7897 18.7312C82.7897 21.1663 84.3772 22.196 86.6233 22.9455C88.9594 23.7875 89.6141 24.4434 89.6141 25.5671C89.6141 26.6909 88.7726 27.7205 87.2769 27.7205C85.5016 27.7205 84.1921 26.6909 83.1644 23.881L82.5096 24.0692L82.6035 28.1894C83.7252 28.6571 85.7812 29.0324 87.5576 29.0324C91.2033 29.0324 93.5405 27.1586 93.5405 24.2563C93.5405 22.2895 92.5117 21.1663 90.0816 20.2292C87.4637 19.1996 86.5299 18.5441 86.5299 17.3263C86.5299 16.109 87.3725 15.266 88.4941 15.266C90.1755 15.266 91.2972 16.2961 92.1398 18.8248L92.7934 18.6377L92.6979 14.9859ZM53.1582 14.6111C51.5696 13.6756 48.7649 14.1428 47.2697 17.5145L47.3626 14.2369L41.1006 15.4542V16.016L41.7548 16.1096C42.5969 16.2037 42.9699 16.6714 43.0638 17.8893C43.2506 20.1367 43.1572 24.0703 43.0638 26.0365C42.9699 27.1592 42.5969 27.721 41.7548 27.8151L41.1006 27.9092V28.6582H49.7932V27.9092L48.6715 27.8151C47.7372 27.721 47.4565 27.1592 47.3626 26.0365C47.1758 24.2569 47.1758 20.6986 47.2697 18.4511C47.7367 17.7952 49.7932 17.2338 51.6624 18.4511L53.1582 14.6111Z" fill="white"/>
</svg>
