<svg width="101" height="24" viewBox="0 0 101 24" fill="none" xmlns="http://www.w3.org/2000/svg">
<path d="M12.9442 5.90646V18.4089C12.9844 21.3381 15.4235 23.6681 18.3586 23.6282C21.24 23.5882 23.5585 21.2715 23.6121 18.4089V5.90646C23.6523 2.97725 21.307 0.567308 18.3586 0.527364C15.4101 0.487421 12.9844 2.80416 12.9442 5.73337C12.9442 5.78663 12.9442 5.8532 12.9442 5.90646ZM16.7637 18.3955V5.89315C16.7503 5.09427 17.3936 4.44186 18.1977 4.44186C18.2513 4.44186 18.2916 4.44186 18.3318 4.44186C19.1091 4.41523 19.7658 5.0277 19.7926 5.79994V18.3822C19.7792 19.1811 19.1359 19.8202 18.3318 19.8335C17.4874 19.8735 16.7905 19.2344 16.7637 18.3955ZM54.3828 0.88686H43.6077V4.68152H47.0922V23.3086H50.9117V4.68152H54.3962L54.3828 0.88686ZM65.6136 0.88686V18.4089C65.6404 19.2077 65.0105 19.8735 64.193 19.9001C63.3889 19.9267 62.7188 19.3009 62.692 18.4888C62.692 18.4621 62.692 18.4355 62.692 18.3955V0.88686H58.7652V18.4089C58.8189 21.3647 61.258 23.7214 64.2466 23.6814C67.1548 23.6415 69.5002 21.2981 69.5538 18.4089V0.88686H65.6136ZM100.539 4.68152V0.88686H91.104V23.3086H100.539V19.514H94.9235V13.7088H98.5152V9.91415H94.9235V4.68152H100.539ZM40.0026 23.3086H35.9552L33.1408 12.7102C34.5882 12.4306 35.6202 11.1657 35.6068 9.70112V6.23932C35.6202 5.40051 34.9501 4.69483 34.1058 4.68152C34.079 4.68152 34.0656 4.68152 34.0388 4.68152H32.5914V23.322H28.7718V0.88686H34.0522C36.947 0.860231 39.3459 3.13703 39.4397 6.01298V9.58129C39.5469 11.4586 38.7562 13.2827 37.3088 14.4944L40.0026 23.3086ZM82.567 0.88686V13.1629L78.6402 0.88686H74.7135V23.3086H78.6402V12.3774L82.2319 23.3086H86.4937V0.88686H82.567ZM0.0247803 1.21972V23.6415H4.07215V14.0417H7.78447V10.2603H4.07215V5.01438H9.91537V1.21972H0.0247803Z" fill="#ACACAC"/>
</svg>
