<svg width="147" height="24" viewBox="0 0 147 24" fill="none" xmlns="http://www.w3.org/2000/svg">
<path d="M20.2257 0.595564L13.363 12.4136L6.53484 0.595564H0.810181V23.6132H6.53484V11.967L11.2939 20.1778L12.156 21.655H14.639L15.7426 19.7655L20.2257 12.0013V23.6476H25.9504V0.629921H20.2257V0.595564Z" fill="#ACACAC"/>
<path d="M28.4334 15.3337C28.4334 10.318 31.882 6.91684 35.3995 6.91684C37.8135 6.91684 39.3654 8.15361 40.262 9.42473L40.8138 7.36345H45.9522V23.201H40.8138L40.262 21.1397C39.3654 22.4108 37.8135 23.6476 35.3995 23.6476C31.882 23.6476 28.4334 20.2465 28.4334 15.3337ZM39.9861 15.265C39.9861 13.5129 38.8826 12.2418 37.2962 12.2418C35.6409 12.2418 34.5029 13.6504 34.5029 15.265C34.5029 16.9484 35.6409 18.2882 37.2962 18.2882C38.9171 18.3226 39.9861 17.0171 39.9861 15.265Z" fill="#ACACAC"/>
<path d="M60.8156 8.01618V12.8602C59.6776 12.2075 57.6429 11.6578 55.8841 11.6578C54.884 11.6578 54.3323 11.8639 54.3323 12.2418C54.3323 12.6197 54.884 12.8946 56.4359 13.2381C59.1603 13.8221 61.9536 14.8184 61.9536 18.2539C61.9536 21.5863 59.3327 23.6819 54.5737 23.6819C52.1252 23.6819 50.125 23.1323 48.7456 22.3765V17.1889C50.194 18.1508 51.9183 18.941 54.2633 18.941C55.4358 18.941 56.1255 18.7349 56.1255 18.2882C56.1255 17.7729 55.2634 17.6012 53.3667 17.1202C50.9182 16.4674 48.5386 15.2994 48.5386 12.3105C48.5386 9.2186 51.0906 6.95119 55.5738 6.95119C57.4705 6.88248 59.5051 7.32909 60.8156 8.01618Z" fill="#ACACAC"/>
<path d="M70.2992 8.56586C71.1959 7.63829 72.6788 6.88248 74.4031 6.88248C77.7827 6.88248 79.8863 8.94376 79.8863 12.4823V23.1323H73.8168V14.0626C73.8168 12.7571 73.265 12.2075 72.1615 12.2075C70.9889 12.2075 70.2992 12.9633 70.2992 13.9596V23.1323H64.2297V0.526855H70.2992V8.56586Z" fill="#ACACAC"/>
<path d="M81.9899 15.3337C81.9899 10.318 85.4385 6.91684 88.9561 6.91684C91.3701 6.91684 92.922 8.15361 93.8186 9.42473L94.3704 7.36345H99.5088V23.201H94.3704L93.8186 21.1397C92.922 22.4108 91.3701 23.6476 88.9561 23.6476C85.4385 23.6476 81.9899 20.2465 81.9899 15.3337ZM93.5427 15.265C93.5427 13.5129 92.4392 12.2418 90.8528 12.2418C89.1975 12.2418 88.0594 13.6504 88.0594 15.265C88.0594 16.9484 89.1975 18.2882 90.8528 18.2882C92.4736 18.3226 93.5427 17.0171 93.5427 15.265Z" fill="#ACACAC"/>
<path d="M108.544 9.28731C109.441 7.94748 111.303 6.88248 113.269 6.88248C116.924 6.88248 120.028 10.1462 120.028 15.2307C120.028 20.3152 116.648 23.5789 112.993 23.5789C110.682 23.5789 109.096 22.3421 108.199 21.071L107.647 23.1323H102.509V0.561212H108.544V9.28731ZM108.51 15.2307C108.51 16.9828 109.613 18.2539 111.199 18.2539C112.82 18.2539 113.958 16.9484 113.958 15.265C113.958 13.616 112.82 12.2075 111.165 12.2075C109.579 12.2075 108.51 13.4786 108.51 15.2307Z" fill="#ACACAC"/>
<path d="M122.373 0.526855H128.408V23.1323H122.373V0.526855Z" fill="#ACACAC"/>
<path d="M146.444 16.8454H136.478C137.236 18.357 138.995 19.0784 140.857 19.0784C142.582 19.0784 144.099 18.5287 145.513 17.9103V22.4795C143.892 23.2697 142.03 23.6476 140.03 23.6476C133.96 23.6476 130.65 20.0747 130.65 15.2994C130.65 10.3523 134.202 6.88248 138.892 6.88248C143.133 6.88248 146.582 9.69957 146.582 14.9902C146.582 15.6429 146.513 16.227 146.444 16.8454ZM140.892 13.5129C140.857 12.4136 140.133 11.4517 138.823 11.4517C137.65 11.4517 136.65 12.2418 136.236 13.5129H140.892Z" fill="#ACACAC"/>
</svg>
