<svg width="49" height="65" viewBox="0 0 49 65" fill="none" xmlns="http://www.w3.org/2000/svg">
<path fill-rule="evenodd" clip-rule="evenodd" d="M48.4764 64.523V0.23999H0.0983887V64.523H48.4764Z" fill="#ACACAC"/>
<path fill-rule="evenodd" clip-rule="evenodd" d="M4.22671 42.6836V5.53483H12.542C15.2476 5.53483 19.1469 5.83205 21.0963 8.60591C22.7277 10.8847 23.0458 13.6582 23.0458 16.6794C23.0458 20.6916 22.29 25.1989 19.1069 27.0317C16.68 28.5174 13.8553 28.0718 11.229 28.2205V42.684L4.22671 42.6836ZM11.229 21.5334C12.542 21.4836 14.054 21.6819 15.1679 20.5923C15.8841 19.6017 16.0435 18.1157 16.0435 16.8279C16.0435 15.3916 15.9241 13.2122 14.7305 12.5185C14.054 12.2213 13.0991 12.2213 11.9852 12.2213H11.229V21.5334ZM37.7235 18.5118V16.1345C37.7235 12.9645 36.8086 11.33 35.4953 11.33C33.3068 11.2801 32.79 12.7665 32.79 15.1934L32.7503 33.5697C32.7503 35.6502 33.4268 36.8881 35.2569 36.8881C37.6441 36.8881 37.8428 33.8171 37.8428 31.5387V28.1704H44.8455V32.7272C44.8455 39.1167 41.9011 43.5746 34.7394 43.5746C28.2939 43.5746 25.7877 39.3146 25.7877 31.7366V16.4808C25.7877 8.40697 28.7717 4.64285 35.1776 4.64285C41.1453 4.64285 44.7265 7.81289 44.7265 15.3913V18.5118H37.7235ZM2.89924 58.1833V48.5241H5.46483L6.40592 54.2299H6.42662L7.3991 48.5241H9.94398V58.1833H8.206L8.39229 50.6108H8.37159L7.08897 58.1833H5.73356L4.48199 50.6108H4.46129L4.62688 58.1833H2.89924ZM10.5318 58.1833L12.2284 48.5244H14.4211L16.1073 58.1833H14.2662L14.0078 56.3035H12.5803L12.3633 58.1833H10.5318ZM13.3247 50.2758H13.304L12.7766 54.603H13.8319L13.3247 50.2758ZM20.2443 58.196L20.1618 57.3336H20.1411C19.7685 58.1576 19.3549 58.4152 18.5687 58.4152C17.0274 58.4152 16.5306 57.0886 16.5306 55.337V51.3701C16.5306 49.2711 17.3065 48.2925 18.972 48.2925C20.5237 48.2925 21.4441 49.1165 21.4441 51.087V51.8085H19.6236V51.2804C19.6236 50.4565 19.5412 50.0442 19.0548 50.0315C18.4859 50.0181 18.351 50.4046 18.351 51.0361V55.8135C18.351 56.3544 18.5477 56.6766 19.0237 56.6766C19.6443 56.6766 19.665 56.0585 19.665 55.4404V54.68H19.0134V52.9417H21.4858V58.1957L20.2443 58.196ZM22.0333 58.1833L23.7295 48.5244H25.9222L27.6088 58.1833H25.7673L25.5086 56.3035H24.0814L23.8641 58.1833H22.0333ZM24.8259 50.2758H24.8048L24.2774 54.603H25.3323L24.8259 50.2758ZM27.9596 48.5241H32.0766V50.3273L29.8215 56.252H32.1797V58.1833H27.794V56.4578L30.0902 50.4561H27.9596V48.5241ZM32.8096 58.1833V48.5241H34.6301V58.1833H32.8096ZM37.1832 52.7744L37.1629 52.7998L37.3281 58.1833H35.6012V48.5241H37.473L38.8798 53.9203H38.9109L38.7349 48.5241H40.4626V58.1833H38.6007L37.1832 52.7744ZM41.3823 58.1833V48.5241H45.551V50.4561H43.2034V52.2332H45.4789V54.1653H43.2034V56.252H45.6755V58.1833H41.3823Z" fill="white"/>
</svg>
