<svg width="114" height="30" viewBox="0 0 114 30" fill="none" xmlns="http://www.w3.org/2000/svg">
<path d="M113.906 0.855957H0.582031V29.3526H113.906V0.855957Z" fill="#ACACAC"/>
<path d="M103.602 22.8776C102.303 22.8776 101.396 21.9365 101.396 20.4115V14.6707C101.396 12.7909 102.402 12.1423 103.602 12.1423C104.736 12.1423 106.165 12.8549 106.165 14.9976V19.7319C106.165 21.7081 104.899 22.8776 103.602 22.8776ZM101.753 26.5413C103.342 26.5413 105.062 25.7306 106.165 23.9152H106.294L106.328 26.185H110.998V3.06261H106.165V10.5855H106.1C105.225 9.15901 103.539 8.60844 102.075 8.60844C98.899 8.60844 96.5311 10.748 96.5311 13.8611V21.2883C96.5307 24.3688 98.2822 26.5413 101.753 26.5413ZM92.6871 26.5068C93.6945 26.5068 94.6995 26.3137 95.6404 25.9896V22.1936C95.1855 22.2611 94.7635 22.3238 94.439 22.3238C93.3031 22.3238 93.0442 21.7407 93.0442 20.9641V3.03043H88.1799V22.4232C88.1799 25.0513 89.865 26.5068 92.6871 26.5068ZM76.6152 26.185H81.4835V15.9045C81.4835 13.3427 83.6562 12.9216 84.9213 12.9216C85.2788 12.9216 86.2524 12.986 87.0959 13.1151V8.96556C86.6409 8.83447 85.9251 8.80229 85.5381 8.80229C83.591 8.80229 82.3262 9.90542 81.4183 11.689H81.3841V8.99654H76.6152V26.185Z" fill="white"/>
<path d="M8.01429 14.1193V7.11642H10.8148C12.7352 7.11642 13.7104 8.5421 13.7104 10.5211C13.7104 12.7266 12.6091 14.1193 10.5641 14.1193H8.01429ZM3.18531 26.185H8.09876V18.0456H11.4862C16.3078 18.0456 18.4447 14.5749 18.4447 10.2947C18.4447 6.24051 16.2763 3.06261 11.6689 3.06261H3.18531V26.185Z" fill="white"/>
<path d="M27.5597 26.5731C31.5887 26.5731 35.098 24.206 35.098 19.6989V17.9391L30.5684 17.8815V19.3736C30.5684 21.2219 29.3084 22.3258 27.5384 22.3258C25.5229 22.3258 24.3863 21.1905 24.3863 18.8552V10.2288C24.3863 8.1536 25.462 6.8884 27.507 6.8884C29.3383 6.8884 30.5837 8.0245 30.5837 9.90343L30.568 11.3319H35.0976V9.51493C35.0976 5.00669 31.529 2.67252 27.5294 2.67252C23.1955 2.67252 19.4084 5.2347 19.4084 10.1311V19.0184C19.4088 24.3347 23.2253 26.5731 27.5597 26.5731Z" fill="white"/>
<path d="M41.7787 26.2493H46.2957L49.7126 10.941H49.8372L52.673 26.2493H57.3134L62.0772 3.06261H57.59L54.843 17.5916H54.8119L52.0641 3.06261H47.547L44.6786 17.5916H44.5851L41.8073 3.06261H36.9874L41.7787 26.2493Z" fill="white"/>
<path d="M68.1241 22.9733C66.4375 22.9733 65.7236 21.9032 65.7236 20.3802V14.9321C65.7236 13.4388 66.4037 12.2078 68.0589 12.2078C69.5841 12.2078 70.3946 13.3745 70.3946 14.8677V20.3484C70.3946 21.7741 69.8108 22.9733 68.1241 22.9733ZM68.0589 26.5731C71.7238 26.5731 75.2928 24.7248 75.2928 20.1204V15.0925C75.2928 10.456 71.758 8.60764 68.0263 8.60685C64.2636 8.60685 60.8239 10.7476 60.8239 15.2228V20.1847C60.8239 24.855 64.2962 26.5731 68.0589 26.5731Z" fill="white"/>
</svg>
