<svg width="140" height="23" viewBox="0 0 140 23" fill="none" xmlns="http://www.w3.org/2000/svg">
<path d="M11.7546 8.84604H8.37607V16.5442C8.37607 17.8585 9.12685 18.1401 10.3469 18.1401C10.8161 18.1401 11.2853 18.0462 11.7546 18.0462V22.0831C10.7223 22.0831 9.68993 22.2708 8.75146 22.2708C4.05911 22.2708 2.8391 20.8626 2.8391 16.2625V8.84604H0.0236816V5.18473H2.8391V0.115234H8.37607V5.18473H11.7546V8.84604ZM16.6346 15.0421C16.7285 17.3891 18.0423 18.8911 20.3885 18.8911C21.7024 18.8911 23.0162 18.234 23.5793 17.0136H28.7409C27.8024 20.9565 24.1424 22.6463 20.3885 22.6463C14.8515 22.6463 11.0976 19.3605 11.0976 13.6339C11.0976 8.47052 15.2269 4.71533 20.2008 4.71533C26.3009 4.71533 29.304 9.31543 29.0224 15.0421H16.6346ZM23.4855 11.9441C23.3916 10.0665 22.0778 8.47052 20.2008 8.47052C18.23 8.47052 16.9162 9.87871 16.6346 11.9441H23.4855ZM41.2226 11.3808C41.2226 9.97259 39.9087 8.93991 38.501 8.93991C35.404 8.93991 34.9348 11.5685 34.9348 13.9155C34.9348 16.0748 35.8733 18.3279 38.2195 18.3279C40.1902 18.3279 41.1287 17.2013 41.4103 15.4176H46.7595C46.2903 20.0177 42.818 22.6463 38.3133 22.6463C33.2456 22.6463 29.3978 19.1728 29.3978 14.0094C29.3978 8.65828 32.7763 4.80921 38.3133 4.80921C42.5364 4.80921 46.2903 7.06232 46.6657 11.4747H41.2226V11.3808ZM46.9472 0.115234H52.4842V7.53172H52.5781C53.4227 5.84189 55.675 4.71533 57.7397 4.71533C63.3705 4.71533 63.8397 8.84603 63.8397 11.2869V22.1769H58.3027V14.0094C58.3027 11.6624 58.5843 9.31543 55.4873 9.31543C53.4227 9.31543 52.4842 11.0991 52.4842 12.9767V22.1769H46.9472V0.115234ZM64.309 5.18473H69.6582V8.18888H69.7521C70.5967 6.02965 72.4736 4.90309 74.8198 4.90309C75.2891 4.90309 75.6645 4.90309 76.1337 4.99697V10.0665C75.3829 9.87871 74.726 9.78483 73.9752 9.78483C71.2536 9.78483 69.8459 11.6624 69.8459 13.8217V22.1769H64.309V5.18473ZM76.1337 10.442C76.2275 8.18888 77.2599 6.78068 78.7614 5.93577C80.263 5.09085 82.2337 4.71533 84.1107 4.71533C88.1461 4.71533 91.9939 5.56025 91.9939 10.3481V17.7646C91.9939 19.1728 91.9939 20.7687 92.6508 22.0831H87.1138C86.9261 21.5198 86.8323 21.0504 86.8323 20.4871C85.3307 22.0831 83.2661 22.6463 81.2014 22.6463C78.0106 22.6463 75.3829 21.0504 75.3829 17.483C75.3829 11.9441 81.3891 12.4135 85.2369 11.5685C86.1753 11.3808 86.7384 11.0053 86.7384 9.97259C86.7384 8.65827 85.2369 8.18888 84.0168 8.18888C82.5153 8.18888 81.483 8.84603 81.2014 10.3481H76.1337V10.442ZM83.2661 19.2667C85.8938 19.2667 86.8323 17.7646 86.6446 14.291C85.8938 14.7604 84.3922 14.8543 83.2661 15.2298C82.0461 15.5115 81.0137 16.0748 81.0137 17.3891C81.0137 18.7034 82.0461 19.2667 83.2661 19.2667ZM109.919 22.1769H104.663V20.2055H104.569C104.074 20.9704 103.392 21.5961 102.587 22.0232C101.782 22.4504 100.882 22.6649 99.9709 22.6463C94.6216 22.6463 92.3692 18.0462 92.3692 13.3523C92.3692 8.93991 94.7154 4.80921 99.5016 4.80921C101.566 4.80921 103.162 5.56025 104.288 7.1562H104.382V0.115234H109.919V22.1769ZM97.9062 13.54C97.9062 15.887 98.7508 18.4218 101.285 18.4218C104.006 18.4218 104.569 15.887 104.569 13.7278C104.569 11.2869 103.725 9.03379 101.285 9.03379C98.7508 8.93991 97.9062 11.3808 97.9062 13.54ZM110.763 10.442C110.857 8.18888 111.889 6.78068 113.391 5.93577C114.893 5.09085 116.863 4.71533 118.74 4.71533C122.776 4.71533 126.623 5.56025 126.623 10.3481V17.7646C126.623 19.1728 126.623 20.7687 127.28 22.0831H121.743C121.556 21.5198 121.462 21.0504 121.462 20.4871C119.96 22.0831 117.802 22.6463 115.831 22.6463C112.64 22.6463 110.012 21.0504 110.012 17.483C110.012 11.9441 116.019 12.4135 119.866 11.5685C120.805 11.3808 121.368 11.0053 121.368 9.97259C121.368 8.65827 119.866 8.18888 118.646 8.18888C117.145 8.18888 116.113 8.84603 115.831 10.3481H110.763V10.442ZM117.896 19.2667C120.523 19.2667 121.462 17.7646 121.274 14.291C120.523 14.7604 119.022 14.8543 117.896 15.2298C116.676 15.5115 115.643 16.0748 115.643 17.3891C115.549 18.7034 116.676 19.2667 117.896 19.2667ZM127.468 5.18473H132.817V8.18888H132.911C133.756 6.02965 135.633 4.90309 137.979 4.90309C138.448 4.90309 139.387 4.90309 139.856 4.99697V10.0665C139.105 9.87871 137.979 9.78483 137.228 9.78483C134.507 9.78483 133.099 11.6624 133.099 13.8217V22.1769H127.562V5.18473H127.468Z" fill="#ACACAC"/>
<path d="M134.319 16.638H139.856V22.1769H134.319V16.638Z" fill="#ACACAC"/>
</svg>
