<svg width="74" height="51" viewBox="0 0 74 51" fill="none" xmlns="http://www.w3.org/2000/svg">
<path fill-rule="evenodd" clip-rule="evenodd" d="M48.8689 12.4962H73.0237V0.529785H48.8689V12.4962ZM0.788086 0.529785V12.4962H12.7511V37.1808H24.9637V12.4962H36.9267V0.529785H0.788086ZM36.9059 37.1808H73.0237V24.5879L48.8689 24.567V12.4753H36.9059V37.1808Z" fill="#ACACAC"/>
<path fill-rule="evenodd" clip-rule="evenodd" d="M26.3368 49.899V46.3488C26.3368 45.1166 26.108 44.7407 25.359 44.7407C24.61 44.7407 24.3604 45.1166 24.3604 46.307V49.899H22.3839V41.3785L24.3604 40.4596V43.613C24.3604 43.2789 25.151 43.0074 25.8791 43.0074C27.6476 43.0074 28.3341 44.2186 28.3341 46.1608V49.8781L26.3368 49.899ZM18.1396 50.2332C16.3296 50.2332 14.9148 48.7504 14.9148 46.6412C14.9148 44.511 16.3088 43.0283 18.2228 43.0283C19.5336 43.0283 20.3866 43.6757 20.9483 44.5528L19.7624 45.764C19.3463 45.1793 18.9302 44.7825 18.1812 44.7825C17.3074 44.7825 16.7457 45.5134 16.7457 46.6412C16.7457 47.748 17.3074 48.4789 18.1812 48.4789C18.8886 48.4789 19.3463 48.1657 19.804 47.6018L20.9691 48.6878C20.3033 49.5858 19.5127 50.2332 18.1396 50.2332ZM10.837 44.699C10.1712 44.699 9.77592 44.9496 9.71351 45.9311H12.0853C12.0229 44.9287 11.6484 44.699 10.837 44.699ZM13.7913 46.9335H9.6719C9.73431 47.936 10.4417 48.3745 11.0866 48.3745C11.586 48.3745 12.0021 48.2701 12.2725 47.9568L13.5625 49.0637C13.0007 49.7737 12.0021 50.2123 11.0866 50.2123C9.11016 50.2123 7.84104 48.8131 7.84104 46.6203C7.84104 44.4901 9.17257 43.0074 10.9202 43.0074C12.7511 43.0074 13.8329 44.4901 13.8329 46.4741C13.8329 46.7456 13.8121 46.9335 13.7913 46.9335ZM5.73972 42.4435V49.899H3.76323V42.4435H0.788086V40.9608H8.23634V42.4435H5.73972Z" fill="#ACACAC"/>
<path fill-rule="evenodd" clip-rule="evenodd" d="M70.2265 50.087V46.3488C70.2265 45.1166 69.9976 44.7407 69.2486 44.7407C68.4997 44.7407 68.25 45.1166 68.25 46.307V49.899H66.2735V41.3785L68.25 40.4596V43.613C68.25 43.2789 69.0406 43.0074 69.7688 43.0074C71.5372 43.0074 72.2238 44.2186 72.2238 46.1608V49.8781H70.2889L70.2265 50.087ZM62.1333 50.2332C60.3232 50.2332 58.9085 48.7504 58.9085 46.6412C58.9085 44.5319 60.3024 43.0283 62.2165 43.0283C63.5272 43.0283 64.3802 43.6757 64.942 44.5528L63.7561 45.764C63.34 45.1793 62.9239 44.7825 62.1749 44.7825C61.3011 44.7825 60.7393 45.5134 60.7393 46.6412C60.7393 47.748 61.3011 48.4789 62.1749 48.4789C62.8823 48.4789 63.34 48.1657 63.7977 47.6018L64.9628 48.6878C64.2762 49.5858 63.4856 50.2332 62.1333 50.2332ZM55.3508 49.899V46.3488C55.3508 45.1166 55.2468 44.7407 54.4978 44.7407C53.7488 44.7407 53.624 45.1166 53.624 46.307V49.899H51.6475V42.9447H53.624V43.6339C53.624 43.2998 54.2897 43.0283 55.0179 43.0283C56.7863 43.0283 57.3481 44.2395 57.3481 46.1817V49.899H55.3508ZM48.1522 49.8364V49.6275C47.6529 49.9617 47.3616 50.2332 46.6334 50.2332C44.865 50.2332 44.1784 49.0219 44.1784 47.0797V42.9447H45.6764V46.9127C45.6764 48.1448 46.1549 48.5207 46.9039 48.5207C47.6529 48.5207 48.1522 48.1448 48.1522 46.9544V42.9447H50.1287V49.899H48.069L48.1522 49.8364ZM42.3059 45.2837C42.0147 45.0122 41.7234 44.8452 41.3073 44.8452C40.5999 44.8452 40.2046 45.1584 40.2046 46.3488V49.899H38.2281V42.9447H40.2046V43.6339C40.7039 43.2998 40.912 43.0283 41.5569 43.0283C42.1395 43.0283 42.5556 43.258 42.8053 43.5086L42.3059 45.2837ZM35.5651 43.5504C35.2322 42.9239 34.712 42.5479 33.8798 42.5479C32.5067 42.5479 31.7161 43.7592 31.7161 45.4717C31.7161 47.1215 32.5275 48.3954 33.9006 48.3954C34.7328 48.3954 35.2114 48.0404 35.7107 47.2259L37.2711 48.1448C36.6469 49.4396 35.5443 50.2332 33.859 50.2332C31.4456 50.2332 29.8436 48.3954 29.8436 45.4717C29.8436 42.6732 31.5289 40.7102 33.9214 40.7102C35.6483 40.7102 36.7093 41.5455 37.2919 42.7568L35.5651 43.5504Z" fill="#ACACAC"/>
</svg>
