<svg width="141" height="32" viewBox="0 0 141 32" fill="none" xmlns="http://www.w3.org/2000/svg">
<path d="M105.868 8.47473L105.731 12.5694C100.923 12.242 99.5491 13.4709 99.5491 17.4833V18.0006H95.4281V8.7199H99.5491V11.3675C100.786 9.21174 102.461 8.22806 105.868 8.47323V8.47473ZM7.77506 25.1271H11.896V9.29247H7.77506V25.1256V25.1271ZM28.1905 8.50164C25.3054 8.50164 23.5463 9.78431 22.6127 11.2045V2.46948H0.905762V6.29059H18.7653V18.0006H22.6939C22.6939 14.6429 24.6454 12.2689 27.0359 12.2689C29.0971 12.2689 30.0307 13.2795 30.0307 16.9093V25.1271H34.1517V15.4353C34.1517 10.7949 31.7612 8.50164 28.189 8.50164H28.1905ZM44.4023 21.9877C41.902 21.9877 40.2813 20.4867 40.0062 18.0021H36.1318C36.5167 22.3704 39.4018 25.4545 44.3752 25.4545C48.2226 25.4545 50.3921 23.7353 51.5197 21.1415L48.0301 19.6122C47.5084 21.1684 46.5462 21.9877 44.4038 21.9877H44.4023ZM44.2369 8.58386C42.765 8.55097 41.3097 8.89032 40.0062 9.56604L41.9847 12.3512C42.7259 11.9699 43.5243 11.7786 44.3752 11.8055C46.683 11.8055 47.8647 13.3079 48.0301 15.2723H44.046V18.0021H51.9045C51.9602 17.5925 51.9872 17.2098 51.9872 16.8016C52.0143 10.8502 48.0572 8.58386 44.2384 8.58386H44.2369ZM85.0407 21.9877C82.5405 21.9877 80.9198 20.4867 80.6446 18.0021H76.7702C77.1551 22.3704 80.0402 25.4545 85.0137 25.4545C88.861 25.4545 91.0305 23.7353 92.1581 21.1415L88.6686 19.6122C88.1198 21.1684 87.1576 21.9877 85.0422 21.9877H85.0407ZM84.9024 8.58386C83.4305 8.55097 81.9752 8.88883 80.6702 9.56604L82.6487 12.3512C83.3899 11.9699 84.1868 11.7786 85.0392 11.8055C87.347 11.8055 88.5288 13.3079 88.6941 15.2723H84.71V18.0021H92.5686C92.6242 17.5925 92.6512 17.2098 92.6512 16.8016C92.6783 10.8502 88.7212 8.58386 84.9024 8.58386ZM133.207 21.9877C130.707 21.9877 129.086 20.4867 128.811 18.0021H124.936C125.321 22.3704 128.207 25.4545 133.18 25.4545C137.027 25.4545 139.197 23.7353 140.324 21.1415L136.835 19.6122C136.286 21.1684 135.324 21.9877 133.209 21.9877H133.207ZM132.988 8.58386C131.516 8.55097 130.06 8.89032 128.757 9.56604L130.735 12.3512C131.478 11.9699 132.275 11.7786 133.126 11.8055C135.434 11.8055 136.615 13.3079 136.781 15.2723H132.797V18.0021H140.655C140.711 17.5925 140.738 17.2098 140.738 16.8016C140.765 10.8502 136.808 8.58386 132.989 8.58386H132.988ZM54.1011 0.530518L61.5146 18.0006H66.0205L60.366 4.10646H67.6743V0.557427L54.1011 0.530518ZM76.0831 0.557427L67.5931 21.9323L66.3287 25.1271H70.6421L80.8356 0.557427H76.0816H76.0831ZM113.973 24.7459C115.732 24.7459 117.188 24.254 118.204 23.4079L116.556 20.8141C116.035 21.0324 115.457 21.1146 114.88 21.1146C112.626 21.1146 111.335 19.7766 110.896 18.0021H106.856C107.406 21.7963 110.153 24.7444 113.973 24.7444V24.7459ZM119.056 11.0132C118.123 9.53914 116.227 8.47473 113.588 8.47473C111.005 8.44782 108.615 9.83962 107.352 12.106L110.786 14.2901C111.417 12.979 112.655 12.106 114.551 12.106C117.243 12.106 119.056 14.181 119.056 16.6372C119.056 17.1021 119.001 17.5656 118.864 18.0021H123.177V8.7483H119.055V11.0147L119.056 11.0132ZM115.072 28.4578C112.407 28.4578 111.417 27.1752 111.225 25.6727H107.296C107.379 28.5386 109.302 31.678 115.155 31.678C119.112 31.678 121.695 29.7121 122.766 26.764L119.056 25.4814C118.535 27.3919 117.105 28.4563 115.072 28.4563V28.4578Z" fill="#ACACAC"/>
</svg>
