<svg xmlns="http://www.w3.org/2000/svg" viewBox="0 0 159.18 153.02"><title>another-breach-resolved</title><path d="M223.61,65.08l-55.25-31.9a12.73,12.73,0,0,0-12.72,0l-55.25,31.9A12.72,12.72,0,0,0,94,76.1v63.8a12.72,12.72,0,0,0,6.37,11l55.25,31.9a12.75,12.75,0,0,0,12.72,0l55.25-31.9a12.72,12.72,0,0,0,6.37-11V76.1a12.72,12.72,0,0,0-6.35-11Z" transform="translate(-82.41 -31.48)" fill="#bfbfc9" opacity="0.15" style="isolation:isolate"/><rect x="10.37" y="64.18" width="146.92" height="24.24" rx="7.23" ry="7.23" fill="#d9bfff"/><path d="M229.34,90.19H94.66a12.3,12.3,0,0,0-12.25,12.25v11.12a12.3,12.3,0,0,0,12.25,12.25H229.34a12.3,12.3,0,0,0,12.25-12.25V102.44A12.3,12.3,0,0,0,229.34,90.19ZM113.77,108.92a.72.72,0,0,1,.4.42.67.67,0,0,1-.07.57l-1.52,2.56a.71.71,0,0,1-.46.33.67.67,0,0,1-.55-.13l-3.26-2.52.52,4.17a.72.72,0,0,1-.17.54.68.68,0,0,1-.52.23h-3a.68.68,0,0,1-.52-.23.67.67,0,0,1-.16-.54l.52-4.2-3.39,2.55a.64.64,0,0,1-.55.12.66.66,0,0,1-.46-.33l-1.45-2.57a.73.73,0,0,1,0-.56.75.75,0,0,1,.39-.41l3.87-1.62-3.88-1.68a.67.67,0,0,1-.38-.41.71.71,0,0,1,.06-.57l1.48-2.52a.71.71,0,0,1,.46-.33.67.67,0,0,1,.55.13l3.34,2.53-.51-4.14a.67.67,0,0,1,.16-.54.68.68,0,0,1,.52-.23h3a.68.68,0,0,1,.52.23.72.72,0,0,1,.17.54l-.52,4.15,3.34-2.5a.71.71,0,0,1,.56-.13.7.7,0,0,1,.46.34l1.44,2.56a.67.67,0,0,1,0,.57.68.68,0,0,1-.39.41l-3.86,1.6Zm22,0a.69.69,0,0,1,.38.9l-.05.1-1.52,2.56a.69.69,0,0,1-.95.24l-.05,0-3.25-2.52.52,4.17a.72.72,0,0,1-.17.54.68.68,0,0,1-.52.23h-3a.68.68,0,0,1-.52-.23.72.72,0,0,1-.17-.54l.52-4.2-3.38,2.55a.66.66,0,0,1-.56.12.71.71,0,0,1-.46-.33l-1.44-2.57a.68.68,0,0,1,.21-.94l.13-.06,3.87-1.62-3.88-1.68a.67.67,0,0,1-.38-.41.71.71,0,0,1,.06-.57l1.48-2.52a.71.71,0,0,1,.46-.33.68.68,0,0,1,.55.13l3.34,2.53-.52-4.14a.72.72,0,0,1,.17-.54.68.68,0,0,1,.52-.23h3a.68.68,0,0,1,.52.23.72.72,0,0,1,.17.54l-.52,4.15,3.34-2.5a.7.7,0,0,1,.56-.13.72.72,0,0,1,.46.34l1.44,2.56a.69.69,0,0,1-.23.95l-.11.05-3.87,1.6Zm22,0a.69.69,0,0,1,.38.9l-.05.1-1.52,2.56a.7.7,0,0,1-.47.33.69.69,0,0,1-.55-.13l-3.25-2.52.51,4.17a.67.67,0,0,1-.16.54.68.68,0,0,1-.52.23h-3a.68.68,0,0,1-.52-.23.72.72,0,0,1-.17-.54l.52-4.2-3.38,2.55a.66.66,0,0,1-.56.12.71.71,0,0,1-.46-.33l-1.44-2.57a.65.65,0,0,1-.05-.56.7.7,0,0,1,.38-.41l3.87-1.62-3.87-1.68a.69.69,0,0,1-.39-.41.71.71,0,0,1,.06-.57l1.49-2.52a.68.68,0,0,1,.93-.25l.07,0,3.34,2.53-.52-4.14a.72.72,0,0,1,.17-.54.68.68,0,0,1,.52-.23h3a.68.68,0,0,1,.52.23.67.67,0,0,1,.16.54l-.52,4.15,3.35-2.5a.7.7,0,0,1,.56-.13.68.68,0,0,1,.45.34l1.45,2.56a.69.69,0,0,1-.23.95l-.11.05-3.87,1.6Zm22,0a.73.73,0,0,1,.39.42.71.71,0,0,1-.06.57l-1.53,2.56a.71.71,0,0,1-.46.33.69.69,0,0,1-.55-.13l-3.26-2.52.52,4.17a.69.69,0,0,1-.61.77h-3.07a.66.66,0,0,1-.51-.23.65.65,0,0,1-.17-.54l.52-4.2-3.39,2.55a.64.64,0,0,1-.55.12.66.66,0,0,1-.46-.33l-1.44-2.57a.69.69,0,0,1-.06-.56.75.75,0,0,1,.39-.41l3.87-1.62-3.88-1.68a.67.67,0,0,1-.38-.41.71.71,0,0,1,.06-.57l1.48-2.52a.69.69,0,0,1,.95-.24l.05,0,3.34,2.53-.52-4.14a.65.65,0,0,1,.17-.54.66.66,0,0,1,.51-.23h3a.69.69,0,0,1,.68.77l-.52,4.15,3.35-2.5a.69.69,0,0,1,.55-.13.7.7,0,0,1,.46.34l1.44,2.56a.67.67,0,0,1,.05.57.7.7,0,0,1-.38.41l-3.87,1.6Zm22,0a.68.68,0,0,1,.39.42.64.64,0,0,1-.06.57l-1.52,2.56a.71.71,0,0,1-.46.33.67.67,0,0,1-.55-.13l-3.26-2.52.52,4.17a.72.72,0,0,1-.17.54.68.68,0,0,1-.52.23h-3a.68.68,0,0,1-.52-.23.67.67,0,0,1-.16-.54l.52-4.2-3.39,2.55a.66.66,0,0,1-.56.12.71.71,0,0,1-.46-.33L187,109.89a.73.73,0,0,1,0-.56.75.75,0,0,1,.39-.41l3.87-1.62-3.88-1.68a.67.67,0,0,1-.38-.41.71.71,0,0,1,.06-.57l1.48-2.52a.71.71,0,0,1,.46-.33.67.67,0,0,1,.55.13l3.34,2.53-.51-4.14a.67.67,0,0,1,.16-.54.68.68,0,0,1,.52-.23h3a.68.68,0,0,1,.52.23.72.72,0,0,1,.17.54l-.52,4.15,3.34-2.5a.71.71,0,0,1,.56-.13.72.72,0,0,1,.46.34l1.44,2.56a.67.67,0,0,1,.05.57.68.68,0,0,1-.39.41l-3.87,1.6Zm22,0a.68.68,0,0,1,.39.42.71.71,0,0,1-.06.57l-1.52,2.56a.7.7,0,0,1-.47.33.69.69,0,0,1-.55-.13l-3.25-2.52.52,4.17a.72.72,0,0,1-.17.54.68.68,0,0,1-.52.23h-3a.68.68,0,0,1-.52-.23.72.72,0,0,1-.17-.54l.52-4.2-3.38,2.55a.66.66,0,0,1-.56.12.71.71,0,0,1-.46-.33L209,109.89a.65.65,0,0,1,0-.56.68.68,0,0,1,.39-.41l3.86-1.62-3.87-1.68a.68.68,0,0,1-.38-.88l.06-.12,1.48-2.52a.71.71,0,0,1,.46-.33.69.69,0,0,1,.55.13l3.34,2.53-.52-4.14a.72.72,0,0,1,.17-.54.68.68,0,0,1,.52-.23h3a.68.68,0,0,1,.52.23.72.72,0,0,1,.17.54l-.52,4.15,3.34-2.5a.7.7,0,0,1,.56-.13.72.72,0,0,1,.46.34l1.44,2.56a.71.71,0,0,1,.05.57.75.75,0,0,1-.39.41l-3.87,1.6Z" transform="translate(-82.41 -31.48)" fill="#7542e5"/><path d="M194.05,138V96.54a2,2,0,0,0-2-2H131.84a2,2,0,0,0-2,2v4.14l.05,18.53L130,138v4.14a2,2,0,0,0,2,2h60.1a2,2,0,0,0,2-2Z" transform="translate(-82.41 -31.48)" fill="#ffd567"/><path d="M129.92,100.58l0,18.53H194l0-18.53Z" transform="translate(-82.41 -31.48)" fill="#ffea80"/><path d="M130,137.85h64.08l0-18.74H130Z" transform="translate(-82.41 -31.48)" fill="#ffd567"/><path d="M138.13,88.16h10.6v8.28h-10.6Z" transform="translate(-82.41 -31.48)" fill="#9f9fad"/><path d="M175.21,88.16h10.6v8.28h-10.6Z" transform="translate(-82.41 -31.48)" fill="#9f9fad"/><path d="M130,142a2,2,0,0,0,2,2h60.15a2,2,0,0,0,2-2v-4.15H130Z" transform="translate(-82.41 -31.48)" fill="#ffa266"/><path d="M194,96.44a2,2,0,0,0-2-2H131.87a2,2,0,0,0-2,2v4.14H194Z" transform="translate(-82.41 -31.48)" fill="#bfbfc9"/><path d="M185.81,85a23.84,23.84,0,0,0-47.68,0v3.16h10.59V85a13.25,13.25,0,0,1,26.49,0v3.16h10.6Z" transform="translate(-82.41 -31.48)" fill="#bfbfc9"/><path d="M162,130.77a11.88,11.88,0,1,1,11.88-11.88A11.88,11.88,0,0,1,162,130.77Z" transform="translate(-82.41 -31.48)" fill="#3fe1b0"/><path d="M162,129a10.14,10.14,0,1,1,10.14-10.14h0A10.15,10.15,0,0,1,162,129Z" transform="translate(-82.41 -31.48)" fill="#2ac3a2"/><path d="M159.77,124.79a1,1,0,0,1-.71-.3l-3-3a1,1,0,0,1,0-1.41l0,0a1,1,0,0,1,1.41,0h0l2.17,2.17,6.36-9.08a1,1,0,1,1,1.65,1.16l-7,10.06a1,1,0,0,1-.73.42Z" transform="translate(-82.41 -31.48)" fill="#e3fff3"/></svg>