<svg xmlns="http://www.w3.org/2000/svg" viewBox="0 0 159.18 153.02"><title>resolved-first-breach</title><path d="M223.61,65.08l-55.25-31.9a12.73,12.73,0,0,0-12.72,0l-55.25,31.9A12.72,12.72,0,0,0,94,76.1v63.8a12.72,12.72,0,0,0,6.37,11l55.25,31.9a12.75,12.75,0,0,0,12.72,0l55.25-31.9a12.72,12.72,0,0,0,6.37-11V76.1a12.72,12.72,0,0,0-6.35-11Z" transform="translate(-82.41 -31.48)" fill="#bfbfc9" opacity="0.15" style="isolation:isolate"/><rect x="7.47" y="63.47" width="146.92" height="24.24" rx="7.23" ry="7.23" fill="#d9bfff"/><path d="M229.34,90.19H94.66a12.3,12.3,0,0,0-12.25,12.25v11.12a12.3,12.3,0,0,0,12.25,12.25H229.34a12.3,12.3,0,0,0,12.25-12.25V102.44A12.3,12.3,0,0,0,229.34,90.19ZM113.77,108.92a.72.72,0,0,1,.4.42.67.67,0,0,1-.07.57l-1.52,2.56a.71.71,0,0,1-.46.33.67.67,0,0,1-.55-.13l-3.26-2.52.52,4.17a.72.72,0,0,1-.17.54.68.68,0,0,1-.52.23h-3a.68.68,0,0,1-.52-.23.67.67,0,0,1-.16-.54l.52-4.2-3.39,2.55a.64.64,0,0,1-.55.12.66.66,0,0,1-.46-.33l-1.45-2.57a.73.73,0,0,1,0-.56.75.75,0,0,1,.39-.41l3.87-1.62-3.88-1.68a.67.67,0,0,1-.38-.41.71.71,0,0,1,.06-.57l1.48-2.52a.71.71,0,0,1,.46-.33.67.67,0,0,1,.55.13l3.34,2.53-.51-4.14a.67.67,0,0,1,.16-.54.68.68,0,0,1,.52-.23h3a.68.68,0,0,1,.52.23.72.72,0,0,1,.17.54l-.52,4.15,3.34-2.5a.71.71,0,0,1,.56-.13.7.7,0,0,1,.46.34l1.44,2.56a.67.67,0,0,1,0,.57.68.68,0,0,1-.39.41l-3.86,1.6Zm22,0a.69.69,0,0,1,.38.9l-.05.1-1.52,2.56a.69.69,0,0,1-.95.24l-.05,0-3.25-2.52.52,4.17a.72.72,0,0,1-.17.54.68.68,0,0,1-.52.23h-3a.68.68,0,0,1-.52-.23.72.72,0,0,1-.17-.54l.52-4.2-3.38,2.55a.66.66,0,0,1-.56.12.71.71,0,0,1-.46-.33l-1.44-2.57a.68.68,0,0,1,.21-.94l.13-.06,3.87-1.62-3.88-1.68a.67.67,0,0,1-.38-.41.71.71,0,0,1,.06-.57l1.48-2.52a.71.71,0,0,1,.46-.33.68.68,0,0,1,.55.13l3.34,2.53-.52-4.14a.72.72,0,0,1,.17-.54.68.68,0,0,1,.52-.23h3a.68.68,0,0,1,.52.23.72.72,0,0,1,.17.54l-.52,4.15,3.34-2.5a.7.7,0,0,1,.56-.13.72.72,0,0,1,.46.34l1.44,2.56a.69.69,0,0,1-.23.95l-.11.05-3.87,1.6Zm22,0a.69.69,0,0,1,.38.9l-.05.1-1.52,2.56a.7.7,0,0,1-.47.33.69.69,0,0,1-.55-.13l-3.25-2.52.51,4.17a.67.67,0,0,1-.16.54.68.68,0,0,1-.52.23h-3a.68.68,0,0,1-.52-.23.72.72,0,0,1-.17-.54l.52-4.2-3.38,2.55a.66.66,0,0,1-.56.12.71.71,0,0,1-.46-.33l-1.44-2.57a.65.65,0,0,1-.05-.56.7.7,0,0,1,.38-.41l3.87-1.62-3.87-1.68a.69.69,0,0,1-.39-.41.71.71,0,0,1,.06-.57l1.49-2.52a.68.68,0,0,1,.93-.25l.07,0,3.34,2.53-.52-4.14a.72.72,0,0,1,.17-.54.68.68,0,0,1,.52-.23h3a.68.68,0,0,1,.52.23.67.67,0,0,1,.16.54l-.52,4.15,3.35-2.5a.7.7,0,0,1,.56-.13.68.68,0,0,1,.45.34l1.45,2.56a.69.69,0,0,1-.23.95l-.11.05-3.87,1.6Zm22,0a.73.73,0,0,1,.39.42.71.71,0,0,1-.06.57l-1.53,2.56a.71.71,0,0,1-.46.33.69.69,0,0,1-.55-.13l-3.26-2.52.52,4.17a.69.69,0,0,1-.61.77h-3.07a.66.66,0,0,1-.51-.23.65.65,0,0,1-.17-.54l.52-4.2-3.39,2.55a.64.64,0,0,1-.55.12.66.66,0,0,1-.46-.33l-1.44-2.57a.69.69,0,0,1-.06-.56.75.75,0,0,1,.39-.41l3.87-1.62-3.88-1.68a.67.67,0,0,1-.38-.41.71.71,0,0,1,.06-.57l1.48-2.52a.69.69,0,0,1,.95-.24l.05,0,3.34,2.53-.52-4.14a.65.65,0,0,1,.17-.54.66.66,0,0,1,.51-.23h3a.69.69,0,0,1,.68.77l-.52,4.15,3.35-2.5a.69.69,0,0,1,.55-.13.7.7,0,0,1,.46.34l1.44,2.56a.67.67,0,0,1,.05.57.7.7,0,0,1-.38.41l-3.87,1.6Zm22,0a.68.68,0,0,1,.39.42.64.64,0,0,1-.06.57l-1.52,2.56a.71.71,0,0,1-.46.33.67.67,0,0,1-.55-.13l-3.26-2.52.52,4.17a.72.72,0,0,1-.17.54.68.68,0,0,1-.52.23h-3a.68.68,0,0,1-.52-.23.67.67,0,0,1-.16-.54l.52-4.2-3.39,2.55a.66.66,0,0,1-.56.12.71.71,0,0,1-.46-.33L187,109.89a.73.73,0,0,1,0-.56.75.75,0,0,1,.39-.41l3.87-1.62-3.88-1.68a.67.67,0,0,1-.38-.41.71.71,0,0,1,.06-.57l1.48-2.52a.71.71,0,0,1,.46-.33.67.67,0,0,1,.55.13l3.34,2.53-.51-4.14a.67.67,0,0,1,.16-.54.68.68,0,0,1,.52-.23h3a.68.68,0,0,1,.52.23.72.72,0,0,1,.17.54l-.52,4.15,3.34-2.5a.71.71,0,0,1,.56-.13.72.72,0,0,1,.46.34l1.44,2.56a.67.67,0,0,1,.05.57.68.68,0,0,1-.39.41l-3.87,1.6Zm22,0a.68.68,0,0,1,.39.42.71.71,0,0,1-.06.57l-1.52,2.56a.7.7,0,0,1-.47.33.69.69,0,0,1-.55-.13l-3.25-2.52.52,4.17a.72.72,0,0,1-.17.54.68.68,0,0,1-.52.23h-3a.68.68,0,0,1-.52-.23.72.72,0,0,1-.17-.54l.52-4.2-3.38,2.55a.66.66,0,0,1-.56.12.71.71,0,0,1-.46-.33L209,109.89a.65.65,0,0,1,0-.56.68.68,0,0,1,.39-.41l3.86-1.62-3.87-1.68a.68.68,0,0,1-.38-.88l.06-.12,1.48-2.52a.71.71,0,0,1,.46-.33.69.69,0,0,1,.55.13l3.34,2.53-.52-4.14a.72.72,0,0,1,.17-.54.68.68,0,0,1,.52-.23h3a.68.68,0,0,1,.52.23.72.72,0,0,1,.17.54l-.52,4.15,3.34-2.5a.7.7,0,0,1,.56-.13.72.72,0,0,1,.46.34l1.44,2.56a.71.71,0,0,1,.05.57.75.75,0,0,1-.39.41l-3.87,1.6Z" transform="translate(-82.41 -31.48)" fill="#7542e5"/><path d="M194.16,138V119.25l-.05-18.52V96.58a2,2,0,0,0-2-2H132a2,2,0,0,0-2,2v45.55a2,2,0,0,0,2,2h60.15a2,2,0,0,0,2-2Z" transform="translate(-82.41 -31.48)" fill="#ffd567"/><path d="M129.92,100.58l0,18.53H194l0-18.53Z" transform="translate(-82.41 -31.48)" fill="#ffea80"/><path d="M130,137.85h64.08l0-18.74H130Z" transform="translate(-82.41 -31.48)" fill="#ffd567"/><path d="M138.13,88.16h10.6v8.28h-10.6Z" transform="translate(-82.41 -31.48)" fill="#9f9fad"/><path d="M175.21,88.16h10.6v8.28h-10.6Z" transform="translate(-82.41 -31.48)" fill="#9f9fad"/><path d="M130,142a2,2,0,0,0,2,2h60.15a2,2,0,0,0,2-2v-4.15H130Z" transform="translate(-82.41 -31.48)" fill="#ffa266"/><path d="M194,96.44a2,2,0,0,0-2-2H131.87a2,2,0,0,0-2,2v4.14H194Z" transform="translate(-82.41 -31.48)" fill="#bfbfc9"/><path d="M185.81,85a23.84,23.84,0,0,0-47.68,0v3.16h10.59V85a13.25,13.25,0,0,1,26.49,0v3.16h10.6Z" transform="translate(-82.41 -31.48)" fill="#bfbfc9"/><path d="M162,130.77a11.88,11.88,0,1,1,11.88-11.88A11.88,11.88,0,0,1,162,130.77Z" transform="translate(-82.41 -31.48)" fill="#3fe1b0"/><path d="M162,129a10.14,10.14,0,1,1,10.14-10.14h0A10.15,10.15,0,0,1,162,129Z" transform="translate(-82.41 -31.48)" fill="#2ac3a2"/><path d="M159.77,124.79a1,1,0,0,1-.71-.3l-3-3a1,1,0,0,1,0-1.41l0,0a1,1,0,0,1,1.41,0h0l2.17,2.17,6.36-9.08a1,1,0,1,1,1.65,1.16l-7,10.06a1,1,0,0,1-.73.42Z" transform="translate(-82.41 -31.48)" fill="#e3fff3"/><path d="M137.57,61.74a1.12,1.12,0,0,0-.92-1.1c-2.16-.38-8.2-1.81-10.25-3.85s-3.47-8.1-3.86-10.25a1.1,1.1,0,0,0-1.09-.92V61.74Z" transform="translate(-82.41 -31.48)" fill="#ffea80"/><path d="M121.45,45.62a1.11,1.11,0,0,0-1.09.93c-.35,2.16-1.7,8.2-3.74,10.24s-8.17,3.47-10.36,3.85a1.12,1.12,0,0,0-.92,1.1h16.12Z" transform="translate(-82.41 -31.48)" fill="#ffd567"/><path d="M121.45,61.74V77.86a1.12,1.12,0,0,0,1.1-.92c.38-2.19,1.81-8.32,3.85-10.36s8.08-3.4,10.24-3.74a1.11,1.11,0,0,0,.93-1.09H121.45Z" transform="translate(-82.41 -31.48)" fill="#ffd567"/><path d="M105.33,61.74a1.11,1.11,0,0,0,.94,1.09c2.18.34,8.3,1.7,10.34,3.74s3.39,8.15,3.74,10.34a1.12,1.12,0,0,0,1.09.94V61.74Z" transform="translate(-82.41 -31.48)" fill="#ffa266"/><path d="M211.32,71.18a.44.44,0,0,0-.38-.45c-.89-.16-3.4-.76-4.24-1.6s-1.44-3.35-1.6-4.24a.46.46,0,0,0-.45-.38v6.67Z" transform="translate(-82.41 -31.48)" fill="#ffea80"/><path d="M204.65,64.51a.46.46,0,0,0-.45.38c-.14.9-.7,3.4-1.54,4.24s-3.39,1.44-4.29,1.59a.46.46,0,0,0-.38.46h6.67Z" transform="translate(-82.41 -31.48)" fill="#ffd567"/><path d="M204.65,71.18v6.67a.46.46,0,0,0,.45-.38c.16-.91.75-3.45,1.6-4.29s3.34-1.4,4.23-1.55a.45.45,0,0,0,.39-.45Z" transform="translate(-82.41 -31.48)" fill="#ffd567"/><path d="M198,71.18a.44.44,0,0,0,.38.45c.91.15,3.44.71,4.29,1.55s1.4,3.38,1.54,4.28a.47.47,0,0,0,.45.39V71.18Z" transform="translate(-82.41 -31.48)" fill="#ffa266"/><path d="M120.71,152.29a.62.62,0,0,0-.51-.61c-1.19-.21-4.52-1-5.65-2.12s-1.92-4.47-2.13-5.66a.62.62,0,0,0-.6-.51v8.9Z" transform="translate(-82.41 -31.48)" fill="#ffea80"/><path d="M111.82,143.39a.62.62,0,0,0-.6.52c-.19,1.19-.94,4.52-2.06,5.65s-4.51,1.91-5.72,2.12a.62.62,0,0,0-.51.61h8.9Z" transform="translate(-82.41 -31.48)" fill="#ffd567"/><path d="M111.82,152.29v8.89a.6.6,0,0,0,.6-.51c.21-1.21,1-4.59,2.13-5.71s4.46-1.87,5.65-2.07a.6.6,0,0,0,.51-.6Z" transform="translate(-82.41 -31.48)" fill="#ffd567"/><path d="M102.92,152.29a.61.61,0,0,0,.52.6c1.21.2,4.58.94,5.71,2.07s1.87,4.5,2.06,5.71a.61.61,0,0,0,.6.51v-8.89Z" transform="translate(-82.41 -31.48)" fill="#ffa266"/><path d="M221.08,155.11a1.12,1.12,0,0,0-.92-1.1c-2.16-.38-8.21-1.81-10.25-3.85s-3.48-8.1-3.86-10.25A1.1,1.1,0,0,0,205,139v16.12Z" transform="translate(-82.41 -31.48)" fill="#ffea80"/><path d="M205,139a1.11,1.11,0,0,0-1.09.93c-.35,2.16-1.71,8.2-3.74,10.24S192,153.63,189.76,154a1.11,1.11,0,0,0-.92,1.1H205Z" transform="translate(-82.41 -31.48)" fill="#ffd567"/><path d="M205,155.11v16.12a1.11,1.11,0,0,0,1.09-.92c.38-2.19,1.82-8.32,3.86-10.36s8.08-3.4,10.23-3.75a1.11,1.11,0,0,0,.94-1.09Z" transform="translate(-82.41 -31.48)" fill="#ffd567"/><path d="M188.84,155.11a1.1,1.1,0,0,0,.93,1.09c2.19.35,8.31,1.71,10.35,3.75s3.39,8.15,3.74,10.34a1.12,1.12,0,0,0,1.09.94V155.11Z" transform="translate(-82.41 -31.48)" fill="#ffa266"/><path d="M132.34,166.49A.46.46,0,0,0,132,166c-.9-.16-3.4-.75-4.24-1.6s-1.44-3.35-1.6-4.24a.46.46,0,0,0-.45-.38v6.67Z" transform="translate(-82.41 -31.48)" fill="#ffea80"/><path d="M125.67,159.82a.47.47,0,0,0-.45.39c-.14.89-.7,3.39-1.54,4.23s-3.39,1.44-4.29,1.6a.46.46,0,0,0-.38.45h6.67Z" transform="translate(-82.41 -31.48)" fill="#ffd567"/><path d="M125.67,166.49v6.67a.46.46,0,0,0,.45-.38c.16-.91.75-3.44,1.6-4.29s3.34-1.4,4.23-1.54a.47.47,0,0,0,.39-.46Z" transform="translate(-82.41 -31.48)" fill="#ffd567"/><path d="M119,166.49a.46.46,0,0,0,.38.46c.91.14,3.44.7,4.29,1.54s1.4,3.38,1.54,4.28a.46.46,0,0,0,.45.39v-6.67Z" transform="translate(-82.41 -31.48)" fill="#ffa266"/><path d="M192.5,40.93a.6.6,0,0,0-.51-.6c-1.19-.21-4.52-1-5.65-2.13s-1.92-4.46-2.13-5.66a.61.61,0,0,0-.6-.5v8.89Z" transform="translate(-82.41 -31.48)" fill="#ffea80"/><path d="M183.61,32a.61.61,0,0,0-.6.51c-.19,1.19-.94,4.53-2.06,5.65s-4.51,1.92-5.72,2.13a.61.61,0,0,0-.51.6h8.9Z" transform="translate(-82.41 -31.48)" fill="#ffd567"/><path d="M183.61,40.93v8.9a.62.62,0,0,0,.6-.51c.21-1.21,1-4.59,2.13-5.72s4.46-1.87,5.65-2.06a.62.62,0,0,0,.51-.6h-8.89Z" transform="translate(-82.41 -31.48)" fill="#ffd567"/><path d="M174.71,40.93a.61.61,0,0,0,.52.6c1.21.19,4.58.94,5.71,2.06s1.87,4.5,2.06,5.71a.62.62,0,0,0,.6.52v-8.9Z" transform="translate(-82.41 -31.48)" fill="#ffa266"/></svg>