<svg id="da14725e-3a80-47bf-a9d1-69fe250acb62" data-name="Layer 1" xmlns="http://www.w3.org/2000/svg" viewBox="0 0 147.06 153.02"><title>take-that-hackers</title><path d="M223.61,65.08l-55.25-31.9a12.73,12.73,0,0,0-12.72,0l-55.25,31.9A12.72,12.72,0,0,0,94,76.1v63.8a12.72,12.72,0,0,0,6.37,11l55.25,31.9a12.75,12.75,0,0,0,12.72,0l55.25-31.9a12.72,12.72,0,0,0,6.37-11V76.1a12.72,12.72,0,0,0-6.35-11Z" transform="translate(-88.47 -31.48)" fill="#bfbfc9" opacity="0.15" style="isolation:isolate"/><path d="M162,74.47c35.32,0,57.3,24.16,60.33,28.36a3.79,3.79,0,0,0,.38-.83c0-1.12-22.59-39.12-60.71-39.12s-60.71,38-60.71,39.12a3.79,3.79,0,0,0,.38.83C104.7,98.63,126.68,74.47,162,74.47Z" transform="translate(-88.47 -31.48)" fill="#c689ff"/><path d="M162,74.47c-35.32,0-57.3,24.16-60.33,28.36a48.86,48.86,0,0,0,3,4.76c7.64,10.82,27.82,33.53,57.29,33.53s49.65-22.71,57.29-33.53a48.86,48.86,0,0,0,3-4.76C219.3,98.63,197.32,74.47,162,74.47Z" transform="translate(-88.47 -31.48)" fill="#d9bfff"/><circle cx="73.53" cy="66.17" r="34.78" fill="#7542e5"/><circle cx="73.38" cy="66.17" r="26.08" fill="#9059ff"/><circle cx="73.6" cy="66.09" r="17.47" fill="#45278d"/><path d="M222.33,102.83a48.86,48.86,0,0,1-3,4.76,21.86,21.86,0,0,0,3.42-4.14A2.61,2.61,0,0,0,222.33,102.83Z" transform="translate(-88.47 -31.48)" fill="#d9bfff"/><rect x="89.23" y="94.41" width="146.92" height="24.24" rx="7.23" ry="7.23" transform="translate(-119.86 62.82) rotate(-29.61)" fill="#ffbdc5"/><path d="M211.74,59.25,94.66,125.79a12.28,12.28,0,0,0-4.6,16.7l5.49,9.67a12.3,12.3,0,0,0,16.71,4.59L229.34,90.21a12.28,12.28,0,0,0,4.6-16.7l-5.49-9.67a12.3,12.3,0,0,0-16.71-4.59Zm-91.21,73.38a.66.66,0,0,1,.54.17.67.67,0,0,1,.23.53v3a.74.74,0,0,1-.25.51.7.7,0,0,1-.54.16l-4.07-.58,2.5,3.36a.7.7,0,0,1,.13.56.72.72,0,0,1-.34.46l-2.57,1.46a.67.67,0,0,1-.57,0,.65.65,0,0,1-.41-.38L113.51,138l-1.69,3.89a.66.66,0,0,1-.42.38.69.69,0,0,1-.56-.06l-2.52-1.52a.68.68,0,0,1-.25-.93l0-.07,2.57-3.32-4.2.46a.71.71,0,0,1-.54-.18.68.68,0,0,1-.23-.52v-2.92a.69.69,0,0,1,.69-.69h.09l4.15.55-2.49-3.34a.69.69,0,0,1-.13-.55.7.7,0,0,1,.34-.46l2.58-1.47a.68.68,0,0,1,.56,0,.66.66,0,0,1,.41.39l1.61,3.87,1.66-3.84a.7.7,0,0,1,.43-.38.65.65,0,0,1,.56.07l2.52,1.51a.66.66,0,0,1,.32.47.69.69,0,0,1-.13.55l-2.57,3.3Zm19.1-10.86a.7.7,0,0,1,.77.7l-.06,3a.66.66,0,0,1-.24.51.67.67,0,0,1-.54.16l-4.07-.57,2.5,3.36a.64.64,0,0,1,.12.55.68.68,0,0,1-.33.46l-2.58,1.47a.73.73,0,0,1-.56.05.66.66,0,0,1-.41-.39l-1.62-3.9L130.92,131a.69.69,0,0,1-.42.38.71.71,0,0,1-.57-.07l-2.52-1.51a.7.7,0,0,1-.21-1l0,0,2.57-3.31-4.2.45a.69.69,0,0,1-.77-.69v-2.93a.71.71,0,0,1,.24-.51.68.68,0,0,1,.55-.16l4.15.55-2.49-3.35a.68.68,0,0,1-.13-.55.72.72,0,0,1,.34-.46l2.57-1.46a.71.71,0,0,1,.57-.06.69.69,0,0,1,.41.39l1.6,3.87,1.67-3.83a.69.69,0,0,1,.42-.38.71.71,0,0,1,.57.06l2.52,1.52a.66.66,0,0,1,.32.46.67.67,0,0,1-.13.55l-2.57,3.31Zm19.09-10.85a.69.69,0,0,1,.55.17.7.7,0,0,1,.23.53l-.06,3a.69.69,0,0,1-.24.51.71.71,0,0,1-.54.16l-4.07-.58,2.5,3.37a.67.67,0,0,1,.12.55.71.71,0,0,1-.33.46l-2.58,1.46a.65.65,0,0,1-.56,0,.69.69,0,0,1-.42-.38l-1.61-3.91L150,120.18a.69.69,0,0,1-.42.38.71.71,0,0,1-.57-.06l-2.5-1.5a.69.69,0,0,1-.32-.46.67.67,0,0,1,.13-.55l2.57-3.32-4.2.46a.66.66,0,0,1-.54-.18.68.68,0,0,1-.23-.52v-2.92a.73.73,0,0,1,.24-.52.71.71,0,0,1,.54-.16l4.16.55L146.4,108a.72.72,0,0,1-.12-.55.67.67,0,0,1,.34-.46l2.57-1.47a.75.75,0,0,1,.57-.05.69.69,0,0,1,.41.39l1.6,3.87,1.67-3.84a.69.69,0,0,1,.42-.38.67.67,0,0,1,.57.07l2.52,1.51a.66.66,0,0,1,.32.47.69.69,0,0,1-.13.55l-2.57,3.31Zm19.1-10.86a.7.7,0,0,1,.55.18.68.68,0,0,1,.23.52l-.06,3a.66.66,0,0,1-.24.51.68.68,0,0,1-.55.16l-4.07-.57,2.51,3.36a.68.68,0,0,1,.12.55.66.66,0,0,1-.33.46l-2.58,1.47a.69.69,0,0,1-.56,0,.7.7,0,0,1-.42-.39l-1.62-3.9-1.68,3.89a.69.69,0,0,1-.42.38.67.67,0,0,1-.57-.07l-2.52-1.51a.66.66,0,0,1-.32-.47.69.69,0,0,1,.13-.55L168,103.8l-4.2.45a.68.68,0,0,1-.53-.17.71.71,0,0,1-.23-.52v-2.93a.69.69,0,0,1,.7-.68h.08l4.16.55-2.5-3.34a.69.69,0,0,1-.12-.56.71.71,0,0,1,.33-.46l2.58-1.46a.67.67,0,0,1,.57,0,.7.7,0,0,1,.41.38l1.6,3.87,1.67-3.83a.69.69,0,0,1,.42-.38.71.71,0,0,1,.57.06L176,96.31a.69.69,0,0,1,.32.46.67.67,0,0,1-.13.55l-2.57,3.31Zm19.1-10.85a.69.69,0,0,1,.55.17.72.72,0,0,1,.23.53l-.06,3a.71.71,0,0,1-.24.51.68.68,0,0,1-.55.16L192.78,93l2.51,3.37a.67.67,0,0,1,.12.55.69.69,0,0,1-.34.46l-2.57,1.46a.71.71,0,0,1-.57.06.75.75,0,0,1-.41-.39l-1.62-3.9-1.68,3.88a.68.68,0,0,1-.43.38.65.65,0,0,1-.56-.06l-2.52-1.52a.66.66,0,0,1-.32-.46.69.69,0,0,1,.13-.55L187.08,93l-4.2.46a.69.69,0,0,1-.54-.18.67.67,0,0,1-.22-.52V89.8a.69.69,0,0,1,.24-.52.71.71,0,0,1,.54-.16l4.16.56-2.5-3.35a.69.69,0,0,1,.15-1l.06,0,2.58-1.47a.7.7,0,0,1,1,.25l0,.09L190,88l1.67-3.84a.68.68,0,0,1,.89-.37l.11.06,2.52,1.51a.75.75,0,0,1,.33.47.69.69,0,0,1-.14.55l-2.57,3.31ZM216,78.36a.66.66,0,0,1,.55.17.67.67,0,0,1,.22.52v3a.74.74,0,0,1-.25.52.68.68,0,0,1-.54.15l-4.07-.57,2.51,3.36a.73.73,0,0,1,.12.56.65.65,0,0,1-.34.45L211.6,88a.67.67,0,0,1-.57,0,.64.64,0,0,1-.41-.39L209,83.73l-1.68,3.89a.7.7,0,0,1-.43.38.65.65,0,0,1-.56-.07l-2.52-1.51a.7.7,0,0,1-.33-.47.73.73,0,0,1,.14-.55l2.56-3.31-4.2.45a.67.67,0,0,1-.76-.69V78.92a.69.69,0,0,1,.24-.51.66.66,0,0,1,.54-.16l4.15.55-2.49-3.34a.69.69,0,0,1-.12-.56.71.71,0,0,1,.33-.46L206.49,73a.65.65,0,0,1,.56,0,.68.68,0,0,1,.42.39l1.6,3.86,1.66-3.83a.7.7,0,0,1,.43-.38.69.69,0,0,1,.56.06l2.52,1.52a.67.67,0,0,1,.25.91l-.06.09-2.57,3.31Z" transform="translate(-88.47 -31.48)" fill="#ff298a"/></svg>